G04 Layer: TopLayer*
G04 EasyEDA v6.4.19.5, 2021-04-26T22:05:49--7:00*
G04 3865de02122e4a29b7e4d10c01c85813,debd25b7e7f645e7808fdd9718494454,10*
G04 Gerber Generator version 0.2*
G04 Scale: 100 percent, Rotated: No, Reflected: No *
G04 Dimensions in millimeters *
G04 leading zeros omitted , absolute positions ,4 integer and 5 decimal *
%FSLAX45Y45*%
%MOMM*%

%ADD11C,0.8000*%
%ADD12C,0.6100*%
%ADD13R,1.4699X1.1600*%
%ADD16C,1.7000*%
%ADD17C,1.6000*%
%ADD18C,1.5240*%
%ADD20C,1.7880*%
%ADD21C,1.8000*%

%LPD*%
G36*
X6214973Y6368694D02*
G01*
X6211112Y6369507D01*
X6207810Y6371691D01*
X5975146Y6604355D01*
X5972962Y6607657D01*
X5972149Y6611518D01*
X5972149Y6771030D01*
X5972860Y6774789D01*
X5974943Y6777990D01*
X5977991Y6780225D01*
X5981700Y6781190D01*
X5985459Y6780682D01*
X5988812Y6778853D01*
X5990285Y6777634D01*
X6002477Y6769912D01*
X6006846Y6767830D01*
X6006846Y6819646D01*
X5982309Y6819646D01*
X5978448Y6820408D01*
X5975146Y6822643D01*
X5972962Y6825945D01*
X5972149Y6829806D01*
X5972149Y6911594D01*
X5972962Y6915454D01*
X5975146Y6918756D01*
X5978448Y6920992D01*
X5982309Y6921753D01*
X6006846Y6921753D01*
X6006846Y6948627D01*
X6007608Y6952538D01*
X6009843Y6955790D01*
X6452209Y7397953D01*
X6455460Y7400137D01*
X6459372Y7400950D01*
X6894677Y7400950D01*
X6905345Y7401763D01*
X6915353Y7404150D01*
X6924852Y7408113D01*
X6933641Y7413498D01*
X6941769Y7420457D01*
X7075322Y7553959D01*
X7077964Y7555890D01*
X7081113Y7556855D01*
X7099300Y7555788D01*
X7113727Y7556652D01*
X7127900Y7559395D01*
X7141667Y7563866D01*
X7154722Y7570012D01*
X7166914Y7577734D01*
X7178040Y7586929D01*
X7187946Y7597495D01*
X7196429Y7609179D01*
X7203389Y7621828D01*
X7208723Y7635240D01*
X7212279Y7649260D01*
X7214108Y7663586D01*
X7214108Y7678013D01*
X7212279Y7692339D01*
X7208723Y7706359D01*
X7203389Y7719771D01*
X7196429Y7732420D01*
X7187946Y7744104D01*
X7178040Y7754670D01*
X7166914Y7763865D01*
X7154722Y7771587D01*
X7141667Y7777734D01*
X7127900Y7782204D01*
X7113727Y7784947D01*
X7099300Y7785811D01*
X7084872Y7784947D01*
X7077049Y7783423D01*
X7072731Y7783525D01*
X7068921Y7785404D01*
X7066127Y7788656D01*
X7065009Y7792770D01*
X7065619Y7796987D01*
X7067956Y7800594D01*
X7328509Y8061147D01*
X7331811Y8063331D01*
X7335672Y8064144D01*
X9025229Y8064144D01*
X9029598Y8063128D01*
X9033103Y8060436D01*
X9035084Y8056473D01*
X9035237Y8052003D01*
X9033408Y8047939D01*
X9031071Y8044738D01*
X9024518Y8032800D01*
X9019641Y8020100D01*
X9016492Y8006892D01*
X9015120Y7993329D01*
X9015577Y7979765D01*
X9017863Y7966354D01*
X9021876Y7953349D01*
X9027617Y7941005D01*
X9034932Y7929524D01*
X9043720Y7919161D01*
X9053779Y7910017D01*
X9065006Y7902295D01*
X9077147Y7896199D01*
X9089999Y7891729D01*
X9103309Y7889036D01*
X9116923Y7888122D01*
X9130487Y7889036D01*
X9143796Y7891729D01*
X9156649Y7896199D01*
X9168790Y7902295D01*
X9180017Y7910017D01*
X9190075Y7919161D01*
X9191142Y7920329D01*
X9194393Y7922920D01*
X9198356Y7923936D01*
X9202470Y7923326D01*
X9205925Y7921091D01*
X9208262Y7917688D01*
X9211767Y7909255D01*
X9217152Y7900466D01*
X9224111Y7892338D01*
X9322612Y7793837D01*
X9330740Y7786878D01*
X9339529Y7781493D01*
X9343288Y7779918D01*
X9346539Y7777734D01*
X9348724Y7774482D01*
X9349536Y7770672D01*
X9348825Y7766761D01*
X9346692Y7763509D01*
X9339122Y7755686D01*
X9331045Y7744714D01*
X9324543Y7732775D01*
X9319615Y7720126D01*
X9316466Y7706868D01*
X9315145Y7693355D01*
X9315399Y7685836D01*
X9314688Y7681772D01*
X9312402Y7678318D01*
X9229750Y7595666D01*
X9226448Y7593482D01*
X9222587Y7592669D01*
X9187230Y7592669D01*
X9183268Y7593482D01*
X9179915Y7595768D01*
X9177731Y7599222D01*
X9177070Y7603185D01*
X9178036Y7607147D01*
X9180423Y7610398D01*
X9190075Y7619136D01*
X9198864Y7629550D01*
X9206179Y7640980D01*
X9208262Y7645501D01*
X9161373Y7645501D01*
X9161373Y7602829D01*
X9160560Y7598968D01*
X9158376Y7595666D01*
X9155074Y7593482D01*
X9151213Y7592669D01*
X9082633Y7592669D01*
X9078722Y7593482D01*
X9075420Y7595666D01*
X9073235Y7598968D01*
X9072473Y7602829D01*
X9072473Y7645501D01*
X9049004Y7645501D01*
X9044635Y7646466D01*
X9041079Y7649260D01*
X9039098Y7653274D01*
X9037015Y7662113D01*
X9033052Y7671612D01*
X9027668Y7680401D01*
X9020962Y7688224D01*
X9013139Y7694930D01*
X9004350Y7700314D01*
X8994851Y7704277D01*
X8984843Y7706664D01*
X8974175Y7707477D01*
X8290712Y7707477D01*
X8280044Y7706664D01*
X8270036Y7704277D01*
X8260537Y7700314D01*
X8251748Y7694930D01*
X8243620Y7687970D01*
X7612532Y7056932D01*
X7609230Y7054748D01*
X7605369Y7053935D01*
X7324039Y7053935D01*
X7319721Y7054900D01*
X7316216Y7057644D01*
X7308189Y7067346D01*
X7297623Y7077303D01*
X7285837Y7085838D01*
X7273137Y7092848D01*
X7259624Y7098182D01*
X7245553Y7101789D01*
X7231176Y7103618D01*
X7216648Y7103618D01*
X7202220Y7101789D01*
X7188149Y7098182D01*
X7174687Y7092848D01*
X7161936Y7085838D01*
X7150201Y7077303D01*
X7139584Y7067346D01*
X7130338Y7056170D01*
X7122566Y7043928D01*
X7116368Y7030770D01*
X7111898Y7016953D01*
X7109155Y7002678D01*
X7108240Y6988200D01*
X7109155Y6973722D01*
X7111898Y6959447D01*
X7116368Y6945630D01*
X7122566Y6932472D01*
X7130338Y6920230D01*
X7139584Y6909053D01*
X7148880Y6900316D01*
X7151217Y6897065D01*
X7152081Y6893153D01*
X7151370Y6889191D01*
X7149185Y6885787D01*
X7145883Y6883552D01*
X7141921Y6882739D01*
X7005878Y6882739D01*
X7001916Y6883552D01*
X6998614Y6885787D01*
X6996430Y6889191D01*
X6995718Y6893153D01*
X6996582Y6897065D01*
X6998919Y6900316D01*
X7008215Y6909053D01*
X7017461Y6920230D01*
X7025233Y6932472D01*
X7027265Y6936841D01*
X6975246Y6936841D01*
X6975246Y6892899D01*
X6974484Y6889038D01*
X6972249Y6885736D01*
X6968998Y6883552D01*
X6965086Y6882739D01*
X6882688Y6882739D01*
X6878828Y6883552D01*
X6875525Y6885736D01*
X6873341Y6889038D01*
X6872528Y6892899D01*
X6872528Y6936841D01*
X6820509Y6936841D01*
X6822592Y6932472D01*
X6830364Y6920230D01*
X6839610Y6909053D01*
X6848906Y6900316D01*
X6851192Y6897065D01*
X6852107Y6893153D01*
X6851396Y6889191D01*
X6849211Y6885787D01*
X6845858Y6883552D01*
X6841947Y6882739D01*
X6559956Y6882739D01*
X6549288Y6881926D01*
X6539280Y6879539D01*
X6529781Y6875576D01*
X6520992Y6870192D01*
X6512864Y6863232D01*
X6254597Y6604965D01*
X6247638Y6596837D01*
X6242253Y6588048D01*
X6238290Y6578549D01*
X6235903Y6568541D01*
X6235090Y6557873D01*
X6235090Y6502755D01*
X6234277Y6498844D01*
X6232093Y6495542D01*
X6230772Y6494272D01*
X6227724Y6489395D01*
X6225844Y6484010D01*
X6225133Y6477711D01*
X6225133Y6378854D01*
X6224371Y6374993D01*
X6222187Y6371691D01*
X6218885Y6369507D01*
G37*

%LPC*%
G36*
X6311900Y6755688D02*
G01*
X6326327Y6756552D01*
X6340500Y6759295D01*
X6354267Y6763766D01*
X6367322Y6769912D01*
X6379514Y6777634D01*
X6390640Y6786829D01*
X6400546Y6797395D01*
X6409029Y6809079D01*
X6415989Y6821728D01*
X6421323Y6835140D01*
X6424879Y6849160D01*
X6426708Y6863486D01*
X6426708Y6877913D01*
X6424879Y6892239D01*
X6421323Y6906259D01*
X6415989Y6919671D01*
X6409029Y6932320D01*
X6400546Y6944004D01*
X6390640Y6954570D01*
X6379514Y6963765D01*
X6367322Y6971487D01*
X6354267Y6977634D01*
X6340500Y6982104D01*
X6326327Y6984847D01*
X6311900Y6985711D01*
X6297472Y6984847D01*
X6283299Y6982104D01*
X6269532Y6977634D01*
X6256477Y6971487D01*
X6244285Y6963765D01*
X6233160Y6954570D01*
X6223254Y6944004D01*
X6214770Y6932320D01*
X6207810Y6919671D01*
X6202476Y6906259D01*
X6198920Y6892239D01*
X6197092Y6877913D01*
X6197092Y6863486D01*
X6198920Y6849160D01*
X6202476Y6835140D01*
X6207810Y6821728D01*
X6214770Y6809079D01*
X6223254Y6797395D01*
X6233160Y6786829D01*
X6244285Y6777634D01*
X6256477Y6769912D01*
X6269532Y6763766D01*
X6283299Y6759295D01*
X6297472Y6756552D01*
G37*
G36*
X6108954Y6767830D02*
G01*
X6113322Y6769912D01*
X6125514Y6777634D01*
X6136640Y6786829D01*
X6146546Y6797395D01*
X6155029Y6809079D01*
X6160871Y6819646D01*
X6108954Y6819646D01*
G37*
G36*
X6108954Y6921753D02*
G01*
X6160871Y6921753D01*
X6155029Y6932320D01*
X6146546Y6944004D01*
X6136640Y6954570D01*
X6125514Y6963765D01*
X6113322Y6971487D01*
X6108954Y6973570D01*
G37*
G36*
X6975246Y7039559D02*
G01*
X7027265Y7039559D01*
X7025233Y7043928D01*
X7017461Y7056170D01*
X7008215Y7067346D01*
X6997598Y7077303D01*
X6985863Y7085838D01*
X6975246Y7091680D01*
G37*
G36*
X6820509Y7039559D02*
G01*
X6872528Y7039559D01*
X6872528Y7091680D01*
X6861962Y7085838D01*
X6850176Y7077303D01*
X6839610Y7067346D01*
X6830364Y7056170D01*
X6822592Y7043928D01*
G37*
G36*
X7625486Y7479792D02*
G01*
X7639913Y7479792D01*
X7654239Y7481620D01*
X7668259Y7485176D01*
X7681671Y7490510D01*
X7694320Y7497470D01*
X7706004Y7505953D01*
X7716570Y7515859D01*
X7725765Y7526985D01*
X7733487Y7539177D01*
X7739634Y7552232D01*
X7744104Y7565999D01*
X7746847Y7580172D01*
X7747711Y7594600D01*
X7746847Y7609027D01*
X7744104Y7623200D01*
X7739634Y7636967D01*
X7733487Y7650022D01*
X7725765Y7662214D01*
X7716570Y7673340D01*
X7706004Y7683246D01*
X7694320Y7691729D01*
X7681671Y7698689D01*
X7668259Y7704023D01*
X7654239Y7707579D01*
X7639913Y7709408D01*
X7625486Y7709408D01*
X7611160Y7707579D01*
X7597140Y7704023D01*
X7583728Y7698689D01*
X7571079Y7691729D01*
X7559395Y7683246D01*
X7548829Y7673340D01*
X7539634Y7662214D01*
X7531912Y7650022D01*
X7525766Y7636967D01*
X7521295Y7623200D01*
X7518552Y7609027D01*
X7517688Y7594600D01*
X7518552Y7580172D01*
X7521295Y7565999D01*
X7525766Y7552232D01*
X7531912Y7539177D01*
X7539634Y7526985D01*
X7548829Y7515859D01*
X7559395Y7505953D01*
X7571079Y7497470D01*
X7583728Y7490510D01*
X7597140Y7485176D01*
X7611160Y7481620D01*
G37*
G36*
X7625486Y7733792D02*
G01*
X7639913Y7733792D01*
X7654239Y7735620D01*
X7668259Y7739176D01*
X7681671Y7744510D01*
X7694320Y7751470D01*
X7706004Y7759953D01*
X7716570Y7769859D01*
X7725765Y7780985D01*
X7733487Y7793177D01*
X7739634Y7806232D01*
X7744104Y7819999D01*
X7746847Y7834172D01*
X7747711Y7848600D01*
X7746847Y7863027D01*
X7744104Y7877200D01*
X7739634Y7890967D01*
X7733487Y7904022D01*
X7725765Y7916214D01*
X7716570Y7927340D01*
X7706004Y7937246D01*
X7694320Y7945729D01*
X7681671Y7952689D01*
X7668259Y7958023D01*
X7654239Y7961579D01*
X7639913Y7963408D01*
X7625486Y7963408D01*
X7611160Y7961579D01*
X7597140Y7958023D01*
X7583728Y7952689D01*
X7571079Y7945729D01*
X7559395Y7937246D01*
X7548829Y7927340D01*
X7539634Y7916214D01*
X7531912Y7904022D01*
X7525766Y7890967D01*
X7521295Y7877200D01*
X7518552Y7863027D01*
X7517688Y7848600D01*
X7518552Y7834172D01*
X7521295Y7819999D01*
X7525766Y7806232D01*
X7531912Y7793177D01*
X7539634Y7780985D01*
X7548829Y7769859D01*
X7559395Y7759953D01*
X7571079Y7751470D01*
X7583728Y7744510D01*
X7597140Y7739176D01*
X7611160Y7735620D01*
G37*
G36*
X9161373Y7734401D02*
G01*
X9208414Y7734401D01*
X9202724Y7744714D01*
X9194647Y7755686D01*
X9185198Y7765440D01*
X9174530Y7773873D01*
X9162846Y7780832D01*
X9161373Y7781442D01*
G37*
G36*
X9025382Y7734401D02*
G01*
X9072473Y7734401D01*
X9072473Y7781442D01*
X9070949Y7780832D01*
X9059265Y7773873D01*
X9048597Y7765440D01*
X9039148Y7755686D01*
X9031071Y7744714D01*
G37*

%LPD*%
G36*
X8840165Y4620310D02*
G01*
X8824772Y4621225D01*
X8811006Y4623612D01*
X8797645Y4627524D01*
X8784793Y4632909D01*
X8772652Y4639716D01*
X8761323Y4647844D01*
X8750960Y4657191D01*
X8741714Y4667605D01*
X8733688Y4678984D01*
X8727033Y4691227D01*
X8721750Y4704130D01*
X8717940Y4717542D01*
X8715654Y4731308D01*
X8714892Y4745634D01*
X8714892Y5948273D01*
X8713927Y5966663D01*
X8710777Y5986119D01*
X8710015Y5989370D01*
X8705494Y6005118D01*
X8704376Y6008268D01*
X8698077Y6023457D01*
X8696604Y6026454D01*
X8688679Y6040780D01*
X8686901Y6043625D01*
X8677351Y6056985D01*
X8675268Y6059576D01*
X8664295Y6071819D01*
X8661958Y6074156D01*
X8649716Y6085078D01*
X8647074Y6087160D01*
X8633663Y6096609D01*
X8630869Y6098387D01*
X8614359Y6107328D01*
X8569655Y6127546D01*
X8524036Y6145987D01*
X8477707Y6162497D01*
X8430768Y6177076D01*
X8383270Y6189726D01*
X8335264Y6200394D01*
X8286851Y6209080D01*
X8238134Y6215735D01*
X8189214Y6220409D01*
X8140090Y6223101D01*
X8090916Y6223711D01*
X8041792Y6222339D01*
X7992719Y6218936D01*
X7943850Y6213500D01*
X7895234Y6206032D01*
X7846974Y6196584D01*
X7799171Y6185204D01*
X7751876Y6171793D01*
X7705140Y6156502D01*
X7659065Y6139281D01*
X7613751Y6120180D01*
X7569301Y6099200D01*
X7525715Y6076442D01*
X7483094Y6051905D01*
X7441539Y6025642D01*
X7401102Y5997651D01*
X7361834Y5968034D01*
X7323836Y5936843D01*
X7287158Y5904077D01*
X7251852Y5869889D01*
X7217968Y5834227D01*
X7185609Y5797194D01*
X7154824Y5758891D01*
X7125563Y5719368D01*
X7098030Y5678627D01*
X7072172Y5636818D01*
X7048042Y5593943D01*
X7025741Y5550154D01*
X7005218Y5505450D01*
X6986574Y5459984D01*
X6969810Y5413756D01*
X6954977Y5366867D01*
X6942074Y5319420D01*
X6931406Y5272836D01*
X6927342Y5257850D01*
X6922109Y5244744D01*
X6915403Y5232298D01*
X6907326Y5220665D01*
X6897979Y5210048D01*
X6887514Y5200548D01*
X6875983Y5192318D01*
X6863638Y5185410D01*
X6850583Y5180025D01*
X6836968Y5176113D01*
X6823049Y5173726D01*
X6808520Y5172913D01*
X5860694Y5172913D01*
X5845200Y5173878D01*
X5831484Y5176266D01*
X5818124Y5180177D01*
X5805271Y5185562D01*
X5793079Y5192369D01*
X5781751Y5200497D01*
X5771438Y5209794D01*
X5762193Y5220258D01*
X5754166Y5231638D01*
X5747461Y5243880D01*
X5742228Y5256784D01*
X5738418Y5270195D01*
X5736132Y5283911D01*
X5735370Y5298236D01*
X5740654Y8060232D01*
X5741822Y8068462D01*
X5742787Y8083803D01*
X5745175Y8097520D01*
X5749086Y8110931D01*
X5754471Y8123783D01*
X5761278Y8135924D01*
X5769406Y8147253D01*
X5778703Y8157616D01*
X5789168Y8166862D01*
X5800547Y8174837D01*
X5812790Y8181543D01*
X5825693Y8186826D01*
X5839104Y8190636D01*
X5852871Y8192871D01*
X5867349Y8193684D01*
X5875782Y8194852D01*
X7250938Y8193735D01*
X7254900Y8192922D01*
X7258253Y8190585D01*
X7260437Y8187131D01*
X7261047Y8183118D01*
X7260081Y8179155D01*
X7257592Y8175904D01*
X6869277Y7787640D01*
X6866636Y7785709D01*
X6863486Y7784744D01*
X6845300Y7785811D01*
X6830872Y7784947D01*
X6816699Y7782204D01*
X6802932Y7777734D01*
X6789877Y7771587D01*
X6777685Y7763865D01*
X6766559Y7754670D01*
X6756653Y7744104D01*
X6748170Y7732420D01*
X6741210Y7719771D01*
X6735876Y7706359D01*
X6732320Y7692339D01*
X6730492Y7678013D01*
X6730492Y7663586D01*
X6732320Y7649260D01*
X6735876Y7635240D01*
X6741210Y7621828D01*
X6748170Y7609179D01*
X6756653Y7597495D01*
X6766559Y7586929D01*
X6777685Y7577734D01*
X6789877Y7570012D01*
X6802932Y7563866D01*
X6816699Y7559395D01*
X6830872Y7556652D01*
X6845300Y7555788D01*
X6859727Y7556652D01*
X6867550Y7558176D01*
X6871868Y7558074D01*
X6875678Y7556195D01*
X6878472Y7552944D01*
X6879590Y7548829D01*
X6878980Y7544612D01*
X6876643Y7541006D01*
X6870852Y7535214D01*
X6867550Y7533030D01*
X6863689Y7532217D01*
X6428384Y7532217D01*
X6417716Y7531404D01*
X6407708Y7529017D01*
X6398209Y7525054D01*
X6389420Y7519670D01*
X6381292Y7512761D01*
X5860389Y6992112D01*
X5853430Y6983984D01*
X5848045Y6975195D01*
X5844133Y6965645D01*
X5841695Y6955637D01*
X5840882Y6944969D01*
X5840882Y6580530D01*
X5841695Y6569862D01*
X5844082Y6559854D01*
X5848045Y6550355D01*
X5853430Y6541566D01*
X5860389Y6533438D01*
X6196888Y6196939D01*
X6205016Y6189980D01*
X6213805Y6184595D01*
X6223304Y6180632D01*
X6233312Y6178245D01*
X6243980Y6177432D01*
X7278725Y6177432D01*
X7289393Y6178245D01*
X7299401Y6180632D01*
X7308900Y6184595D01*
X7317689Y6189980D01*
X7325817Y6196939D01*
X7780883Y6652209D01*
X7784185Y6654393D01*
X7788046Y6655206D01*
X8265261Y6655206D01*
X8269173Y6654393D01*
X8272424Y6652209D01*
X8274659Y6648907D01*
X8275421Y6645046D01*
X8274659Y6641134D01*
X8272424Y6637832D01*
X8271154Y6636562D01*
X8267547Y6634225D01*
X8263331Y6633565D01*
X8251190Y6634378D01*
X8237067Y6633464D01*
X8223148Y6630771D01*
X8209686Y6626301D01*
X8196884Y6620154D01*
X8184997Y6612381D01*
X8174228Y6603187D01*
X8164677Y6592722D01*
X8156600Y6581089D01*
X8150047Y6568541D01*
X8145119Y6555231D01*
X8141970Y6541414D01*
X8140598Y6527292D01*
X8141055Y6513118D01*
X8143036Y6500774D01*
X8142833Y6496558D01*
X8140953Y6492798D01*
X8137652Y6490157D01*
X8133588Y6489039D01*
X8129371Y6489700D01*
X8125866Y6491986D01*
X8114131Y6503720D01*
X8112252Y6506311D01*
X8111286Y6509308D01*
X8111845Y6527292D01*
X8110474Y6541414D01*
X8107324Y6555231D01*
X8102396Y6568541D01*
X8095843Y6581089D01*
X8087766Y6592722D01*
X8078216Y6603187D01*
X8067446Y6612381D01*
X8055559Y6620154D01*
X8042757Y6626301D01*
X8029295Y6630771D01*
X8015376Y6633464D01*
X8001253Y6634378D01*
X7987131Y6633464D01*
X7973212Y6630771D01*
X7959750Y6626301D01*
X7946948Y6620154D01*
X7935061Y6612381D01*
X7924292Y6603187D01*
X7914741Y6592722D01*
X7906664Y6581089D01*
X7900111Y6568541D01*
X7895183Y6555231D01*
X7892034Y6541414D01*
X7890662Y6527292D01*
X7891119Y6513118D01*
X7893405Y6499098D01*
X7897418Y6485534D01*
X7903159Y6472580D01*
X7910525Y6460439D01*
X7919364Y6449364D01*
X7929524Y6439509D01*
X7940903Y6431026D01*
X7953248Y6424066D01*
X7966405Y6418732D01*
X7980121Y6415125D01*
X7994142Y6413347D01*
X8008366Y6413347D01*
X8012684Y6413906D01*
X8015731Y6413804D01*
X8018678Y6412839D01*
X8021167Y6411010D01*
X8108238Y6323939D01*
X8116366Y6316980D01*
X8125155Y6311595D01*
X8134654Y6307632D01*
X8144662Y6305245D01*
X8155330Y6304432D01*
X8996781Y6304432D01*
X9007449Y6305245D01*
X9017457Y6307632D01*
X9026956Y6311595D01*
X9035745Y6316980D01*
X9043873Y6323939D01*
X9105239Y6385407D01*
X9108846Y6387744D01*
X9113113Y6388354D01*
X9116923Y6388100D01*
X9130487Y6389014D01*
X9143796Y6391706D01*
X9156649Y6396177D01*
X9168790Y6402324D01*
X9180017Y6409994D01*
X9190075Y6419138D01*
X9198864Y6429552D01*
X9206179Y6440982D01*
X9211919Y6453327D01*
X9215932Y6466332D01*
X9218218Y6479743D01*
X9218676Y6493357D01*
X9217304Y6506870D01*
X9214154Y6520078D01*
X9209278Y6532778D01*
X9202724Y6544716D01*
X9194647Y6555689D01*
X9185198Y6565442D01*
X9174530Y6573875D01*
X9162846Y6580835D01*
X9150299Y6586118D01*
X9137192Y6589725D01*
X9123680Y6591553D01*
X9110116Y6591553D01*
X9096603Y6589725D01*
X9083497Y6586118D01*
X9070949Y6580835D01*
X9059265Y6573875D01*
X9048597Y6565442D01*
X9039148Y6555689D01*
X9031071Y6544716D01*
X9024518Y6532778D01*
X9019641Y6520078D01*
X9016492Y6506870D01*
X9015120Y6493357D01*
X9015374Y6485788D01*
X9014663Y6481724D01*
X9012428Y6478270D01*
X8972905Y6438696D01*
X8969654Y6436512D01*
X8965742Y6435699D01*
X8593480Y6435699D01*
X8589772Y6436410D01*
X8586571Y6438442D01*
X8584336Y6441490D01*
X8583371Y6445097D01*
X8583777Y6448856D01*
X8585555Y6452209D01*
X8592108Y6460439D01*
X8599474Y6472580D01*
X8600490Y6474866D01*
X8550249Y6474866D01*
X8550249Y6445859D01*
X8549436Y6441998D01*
X8547252Y6438696D01*
X8543950Y6436512D01*
X8540089Y6435699D01*
X8462670Y6435699D01*
X8458809Y6436512D01*
X8455507Y6438696D01*
X8453323Y6441998D01*
X8452510Y6445859D01*
X8452510Y6474866D01*
X8402269Y6474866D01*
X8403285Y6472580D01*
X8410651Y6460439D01*
X8417204Y6452209D01*
X8418982Y6448856D01*
X8419388Y6445097D01*
X8418423Y6441490D01*
X8416188Y6438442D01*
X8412988Y6436410D01*
X8409279Y6435699D01*
X8343290Y6435699D01*
X8339581Y6436410D01*
X8336381Y6438442D01*
X8334146Y6441490D01*
X8333181Y6445097D01*
X8333587Y6448856D01*
X8335365Y6452209D01*
X8341918Y6460439D01*
X8349284Y6472580D01*
X8355025Y6485534D01*
X8359038Y6499098D01*
X8361324Y6513118D01*
X8361781Y6527292D01*
X8360968Y6535420D01*
X8361527Y6539839D01*
X8363915Y6543598D01*
X8389924Y6569608D01*
X8393226Y6571792D01*
X8397087Y6572605D01*
X8452510Y6572605D01*
X8452510Y6596786D01*
X8453323Y6600647D01*
X8455507Y6603949D01*
X8458809Y6606133D01*
X8462670Y6606946D01*
X8521547Y6606946D01*
X8525408Y6606133D01*
X8528710Y6603949D01*
X8547252Y6585407D01*
X8549436Y6582105D01*
X8550249Y6578244D01*
X8550249Y6572605D01*
X8555888Y6572605D01*
X8559749Y6571792D01*
X8563051Y6569608D01*
X8653576Y6479133D01*
X8661704Y6472174D01*
X8670493Y6466789D01*
X8679992Y6462826D01*
X8690000Y6460439D01*
X8700262Y6459626D01*
X8710523Y6460439D01*
X8720531Y6462826D01*
X8730030Y6466789D01*
X8738819Y6472174D01*
X8746642Y6478879D01*
X8753348Y6486702D01*
X8758732Y6495491D01*
X8762695Y6504990D01*
X8765082Y6514998D01*
X8765895Y6525259D01*
X8765082Y6535521D01*
X8762695Y6545529D01*
X8758732Y6555028D01*
X8753348Y6563817D01*
X8746388Y6571945D01*
X8599627Y6718706D01*
X8591499Y6725666D01*
X8582710Y6731050D01*
X8573211Y6735013D01*
X8563203Y6737400D01*
X8552535Y6738213D01*
X8406841Y6738213D01*
X8402980Y6739026D01*
X8399678Y6741210D01*
X8397443Y6744512D01*
X8396681Y6748373D01*
X8397443Y6752285D01*
X8399678Y6755587D01*
X8665565Y7021271D01*
X8668816Y7023455D01*
X8672728Y7024268D01*
X9034678Y7024268D01*
X9038945Y7023303D01*
X9042450Y7020661D01*
X9043720Y7019137D01*
X9053779Y7009993D01*
X9065006Y7002322D01*
X9077147Y6996175D01*
X9089999Y6991705D01*
X9103309Y6989013D01*
X9116923Y6988098D01*
X9130487Y6989013D01*
X9143796Y6991705D01*
X9156649Y6996175D01*
X9168790Y7002322D01*
X9180017Y7009993D01*
X9184792Y7014362D01*
X9188145Y7016343D01*
X9191955Y7017003D01*
X9195765Y7016089D01*
X9198914Y7013905D01*
X9201048Y7010653D01*
X9201810Y7006844D01*
X9201810Y6971741D01*
X9200997Y6967829D01*
X9198813Y6964527D01*
X9128658Y6894525D01*
X9125356Y6892290D01*
X9121495Y6891528D01*
X9110116Y6891528D01*
X9096603Y6889750D01*
X9083497Y6886143D01*
X9070949Y6880809D01*
X9059265Y6873900D01*
X9048597Y6865467D01*
X9039148Y6855663D01*
X9031071Y6844741D01*
X9024518Y6832803D01*
X9019641Y6820103D01*
X9016492Y6806895D01*
X9015120Y6793331D01*
X9015577Y6779768D01*
X9017863Y6766306D01*
X9021876Y6753352D01*
X9027617Y6741007D01*
X9034932Y6729526D01*
X9043720Y6719163D01*
X9053779Y6710019D01*
X9065006Y6702298D01*
X9077147Y6696202D01*
X9089999Y6691731D01*
X9103309Y6688988D01*
X9116923Y6688124D01*
X9130487Y6688988D01*
X9143796Y6691731D01*
X9156649Y6696202D01*
X9168790Y6702298D01*
X9180017Y6710019D01*
X9190075Y6719163D01*
X9198864Y6729526D01*
X9206179Y6741007D01*
X9211919Y6753352D01*
X9215932Y6766306D01*
X9218218Y6779768D01*
X9218676Y6793534D01*
X9219184Y6797954D01*
X9221571Y6801764D01*
X9313570Y6893559D01*
X9320479Y6901688D01*
X9325864Y6910476D01*
X9329826Y6919975D01*
X9332264Y6929983D01*
X9333077Y6940651D01*
X9333077Y7005523D01*
X9333839Y7009333D01*
X9335973Y7012584D01*
X9339122Y7014819D01*
X9342932Y7015683D01*
X9346742Y7015073D01*
X9350095Y7013041D01*
X9354718Y7008825D01*
X9365945Y7001154D01*
X9378086Y6995007D01*
X9390938Y6990537D01*
X9404248Y6987844D01*
X9417812Y6986930D01*
X9429597Y6987743D01*
X9433864Y6987082D01*
X9437471Y6984746D01*
X9543338Y6878929D01*
X9551466Y6871970D01*
X9560255Y6866585D01*
X9569754Y6862622D01*
X9579762Y6860235D01*
X9590024Y6859422D01*
X9600285Y6860235D01*
X9610293Y6862622D01*
X9619792Y6866585D01*
X9628581Y6871970D01*
X9636404Y6878675D01*
X9643110Y6886498D01*
X9648494Y6895287D01*
X9652457Y6904786D01*
X9654844Y6914794D01*
X9655657Y6925056D01*
X9654844Y6935317D01*
X9652457Y6945325D01*
X9648494Y6954824D01*
X9643110Y6963613D01*
X9636150Y6971741D01*
X9522612Y7085330D01*
X9520580Y7088174D01*
X9519666Y7091527D01*
X9518243Y7105700D01*
X9515094Y7118959D01*
X9510217Y7131608D01*
X9503664Y7143546D01*
X9495586Y7154519D01*
X9488779Y7161530D01*
X9486646Y7164831D01*
X9485934Y7168692D01*
X9486696Y7172553D01*
X9488932Y7175804D01*
X9492183Y7177989D01*
X9498888Y7180783D01*
X9507677Y7186168D01*
X9515805Y7193127D01*
X9605416Y7282738D01*
X9612376Y7290866D01*
X9617760Y7299655D01*
X9621723Y7309154D01*
X9624110Y7319162D01*
X9624923Y7329830D01*
X9624923Y7741259D01*
X9624110Y7751825D01*
X9621723Y7761884D01*
X9617811Y7771384D01*
X9612426Y7780172D01*
X9605467Y7788300D01*
X9508032Y7886039D01*
X9499904Y7892999D01*
X9491116Y7898384D01*
X9489490Y7899044D01*
X9486138Y7901330D01*
X9483953Y7904734D01*
X9483242Y7908747D01*
X9484207Y7912709D01*
X9486595Y7915960D01*
X9490100Y7919161D01*
X9498888Y7929524D01*
X9506204Y7941005D01*
X9511944Y7953349D01*
X9515957Y7966354D01*
X9518243Y7979765D01*
X9518650Y7993329D01*
X9517329Y8006892D01*
X9514179Y8020100D01*
X9509252Y8032800D01*
X9502749Y8044738D01*
X9494672Y8055660D01*
X9485223Y8065465D01*
X9474555Y8073898D01*
X9462820Y8080806D01*
X9450324Y8086140D01*
X9437166Y8089747D01*
X9423704Y8091525D01*
X9410090Y8091525D01*
X9396628Y8089747D01*
X9383522Y8086140D01*
X9370974Y8080806D01*
X9359290Y8073898D01*
X9348571Y8065465D01*
X9345930Y8062671D01*
X9342628Y8060436D01*
X9338716Y8059572D01*
X9334804Y8060334D01*
X9331452Y8062569D01*
X9323374Y8075828D01*
X9316466Y8083956D01*
X9225838Y8174837D01*
X9223654Y8178139D01*
X9222892Y8182000D01*
X9223654Y8185912D01*
X9225838Y8189163D01*
X9229140Y8191398D01*
X9233052Y8192160D01*
X10030256Y8191500D01*
X10035032Y8190382D01*
X10041382Y8189518D01*
X10057079Y8189214D01*
X10071252Y8187283D01*
X10085120Y8183778D01*
X10098532Y8178647D01*
X10111232Y8172043D01*
X10123068Y8164017D01*
X10133888Y8154670D01*
X10143591Y8144103D01*
X10152024Y8132572D01*
X10159085Y8120075D01*
X10164622Y8106867D01*
X10168636Y8093151D01*
X10171023Y8079028D01*
X10172446Y8051038D01*
X10172446Y4763109D01*
X10173258Y4756505D01*
X10174935Y4751425D01*
X10177170Y4746599D01*
X10177881Y4744262D01*
X10178034Y4741824D01*
X10177576Y4734712D01*
X10175189Y4720996D01*
X10171277Y4707585D01*
X10165892Y4694732D01*
X10159085Y4682591D01*
X10150957Y4671263D01*
X10141610Y4660900D01*
X10131196Y4651654D01*
X10119766Y4643678D01*
X10107574Y4636973D01*
X10094671Y4631690D01*
X10081260Y4627880D01*
X10067493Y4625644D01*
X10053218Y4624832D01*
X10048494Y4624120D01*
X10043363Y4623003D01*
G37*

%LPC*%
G36*
X9056014Y4902047D02*
G01*
X9069628Y4902504D01*
X9083040Y4904740D01*
X9095994Y4908753D01*
X9108338Y4914493D01*
X9119819Y4921808D01*
X9130233Y4930597D01*
X9139326Y4940706D01*
X9147048Y4951882D01*
X9153144Y4964023D01*
X9157614Y4976876D01*
X9160357Y4990236D01*
X9161272Y5003800D01*
X9160357Y5017363D01*
X9157614Y5030724D01*
X9153144Y5043576D01*
X9147048Y5055717D01*
X9139326Y5066893D01*
X9130233Y5077002D01*
X9119819Y5085791D01*
X9108338Y5093106D01*
X9095994Y5098846D01*
X9083040Y5102860D01*
X9069628Y5105095D01*
X9056014Y5105552D01*
X9042501Y5104231D01*
X9029242Y5101082D01*
X9016542Y5096154D01*
X9004604Y5089652D01*
X8993682Y5081574D01*
X8983878Y5072126D01*
X8975445Y5061407D01*
X8968536Y5049723D01*
X8963202Y5037226D01*
X8959646Y5024069D01*
X8957818Y5010607D01*
X8957818Y4996992D01*
X8959646Y4983530D01*
X8963202Y4970373D01*
X8968536Y4957876D01*
X8975445Y4946192D01*
X8983878Y4935474D01*
X8993682Y4926025D01*
X9004604Y4917948D01*
X9016542Y4911445D01*
X9029242Y4906518D01*
X9042501Y4903368D01*
G37*
G36*
X9311030Y4902047D02*
G01*
X9324644Y4902504D01*
X9338056Y4904740D01*
X9351010Y4908753D01*
X9363354Y4914493D01*
X9374835Y4921808D01*
X9385249Y4930597D01*
X9394342Y4940706D01*
X9402064Y4951882D01*
X9408160Y4964023D01*
X9412630Y4976876D01*
X9415373Y4990236D01*
X9416288Y5003800D01*
X9416034Y5007610D01*
X9416643Y5011877D01*
X9418980Y5015484D01*
X9447225Y5043728D01*
X9450933Y5046116D01*
X9455302Y5046675D01*
X9459518Y5045354D01*
X9462770Y5042357D01*
X9464446Y5038293D01*
X9464192Y5033873D01*
X9461550Y5024069D01*
X9459722Y5010607D01*
X9459722Y4996992D01*
X9461550Y4983530D01*
X9465106Y4970373D01*
X9470440Y4957876D01*
X9477349Y4946192D01*
X9485782Y4935474D01*
X9495586Y4926025D01*
X9506508Y4917948D01*
X9518446Y4911445D01*
X9531146Y4906518D01*
X9544405Y4903368D01*
X9557918Y4902047D01*
X9571532Y4902504D01*
X9584944Y4904740D01*
X9597898Y4908753D01*
X9610242Y4914493D01*
X9621723Y4921808D01*
X9632137Y4930597D01*
X9641230Y4940706D01*
X9648952Y4951882D01*
X9655048Y4964023D01*
X9659518Y4976876D01*
X9662261Y4990236D01*
X9663176Y5003800D01*
X9662922Y5007610D01*
X9663531Y5011877D01*
X9665868Y5015484D01*
X9702241Y5051856D01*
X9705492Y5054041D01*
X9709404Y5054803D01*
X9713315Y5054041D01*
X9716566Y5051856D01*
X9718802Y5048554D01*
X9719564Y5044643D01*
X9719564Y4928971D01*
X9720275Y4922723D01*
X9722154Y4917287D01*
X9725202Y4912461D01*
X9729266Y4908397D01*
X9734092Y4905349D01*
X9739528Y4903470D01*
X9745776Y4902758D01*
X9897059Y4902758D01*
X9903307Y4903470D01*
X9908743Y4905349D01*
X9913569Y4908397D01*
X9917633Y4912461D01*
X9920681Y4917287D01*
X9922560Y4922723D01*
X9923272Y4928971D01*
X9923272Y5080254D01*
X9922560Y5086502D01*
X9920681Y5091938D01*
X9917633Y5096764D01*
X9913569Y5100828D01*
X9908743Y5103876D01*
X9903307Y5105755D01*
X9897059Y5106466D01*
X9745776Y5106466D01*
X9739528Y5105755D01*
X9736734Y5104790D01*
X9732924Y5104231D01*
X9729216Y5105146D01*
X9726066Y5107381D01*
X9723983Y5110581D01*
X9723221Y5114391D01*
X9723221Y5566308D01*
X9723983Y5570067D01*
X9726066Y5573318D01*
X9729216Y5575554D01*
X9732975Y5576468D01*
X9736785Y5575909D01*
X9740087Y5573928D01*
X9747199Y5567680D01*
X9758730Y5560009D01*
X9771126Y5553913D01*
X9784181Y5549442D01*
X9797745Y5546750D01*
X9811512Y5545886D01*
X9825329Y5546750D01*
X9838842Y5549442D01*
X9851948Y5553913D01*
X9864344Y5560009D01*
X9875824Y5567680D01*
X9886238Y5576824D01*
X9895332Y5587187D01*
X9903002Y5598668D01*
X9909098Y5611063D01*
X9913569Y5624169D01*
X9916261Y5637733D01*
X9917176Y5651500D01*
X9916261Y5665266D01*
X9913569Y5678830D01*
X9909098Y5691936D01*
X9903002Y5704332D01*
X9895332Y5715812D01*
X9886238Y5726176D01*
X9875824Y5735320D01*
X9864344Y5742990D01*
X9851948Y5749086D01*
X9838842Y5753557D01*
X9825329Y5756249D01*
X9811512Y5757113D01*
X9797745Y5756249D01*
X9784181Y5753557D01*
X9771126Y5749086D01*
X9758730Y5742990D01*
X9747199Y5735320D01*
X9740087Y5729071D01*
X9736785Y5727090D01*
X9732975Y5726531D01*
X9729216Y5727446D01*
X9726066Y5729681D01*
X9723983Y5732932D01*
X9723221Y5736691D01*
X9723221Y6243675D01*
X9724034Y6247638D01*
X9726371Y6250990D01*
X9729774Y6253175D01*
X9733788Y6253835D01*
X9737699Y6252870D01*
X9741001Y6250432D01*
X9742830Y6248400D01*
X9755428Y6237122D01*
X9769195Y6227368D01*
X9783978Y6219190D01*
X9799574Y6212738D01*
X9815830Y6208064D01*
X9832441Y6205220D01*
X9849358Y6204254D01*
X9866223Y6205220D01*
X9882835Y6208064D01*
X9899091Y6212738D01*
X9914686Y6219190D01*
X9929469Y6227368D01*
X9943236Y6237122D01*
X9955834Y6248400D01*
X9967112Y6260998D01*
X9976866Y6274765D01*
X9985044Y6289548D01*
X9991496Y6305143D01*
X9996170Y6321399D01*
X9999014Y6338011D01*
X9999980Y6354876D01*
X9999014Y6371793D01*
X9996170Y6388404D01*
X9991496Y6404660D01*
X9985044Y6420256D01*
X9976866Y6435039D01*
X9967112Y6448806D01*
X9955834Y6461404D01*
X9943236Y6472682D01*
X9929469Y6482435D01*
X9914686Y6490614D01*
X9899091Y6497066D01*
X9882835Y6501739D01*
X9866223Y6504584D01*
X9849358Y6505549D01*
X9832441Y6504584D01*
X9815830Y6501739D01*
X9799574Y6497066D01*
X9783978Y6490614D01*
X9769195Y6482435D01*
X9755428Y6472682D01*
X9742830Y6461404D01*
X9741001Y6459372D01*
X9737699Y6456934D01*
X9733788Y6455968D01*
X9729774Y6456629D01*
X9726371Y6458813D01*
X9724034Y6462166D01*
X9723221Y6466128D01*
X9723221Y6547459D01*
X9722408Y6558127D01*
X9720021Y6568135D01*
X9716058Y6577634D01*
X9710674Y6586423D01*
X9703714Y6594551D01*
X9522307Y6776008D01*
X9520072Y6779463D01*
X9519361Y6783527D01*
X9519615Y6790994D01*
X9518243Y6804507D01*
X9515094Y6817766D01*
X9510217Y6830466D01*
X9503664Y6842404D01*
X9495586Y6853326D01*
X9486138Y6863130D01*
X9475470Y6871563D01*
X9463735Y6878472D01*
X9451238Y6883806D01*
X9438081Y6887362D01*
X9424619Y6889191D01*
X9411004Y6889191D01*
X9397542Y6887362D01*
X9384436Y6883806D01*
X9371888Y6878472D01*
X9360204Y6871563D01*
X9349536Y6863130D01*
X9340037Y6853326D01*
X9332010Y6842404D01*
X9325457Y6830466D01*
X9320580Y6817766D01*
X9317431Y6804507D01*
X9316059Y6790994D01*
X9316516Y6777380D01*
X9318752Y6763969D01*
X9322816Y6751015D01*
X9328505Y6738670D01*
X9335820Y6727190D01*
X9344609Y6716775D01*
X9354718Y6707682D01*
X9365945Y6699961D01*
X9378086Y6693865D01*
X9390938Y6689394D01*
X9404248Y6686651D01*
X9417812Y6685737D01*
X9421672Y6686042D01*
X9425940Y6685381D01*
X9429546Y6683044D01*
X9588957Y6523634D01*
X9591141Y6520332D01*
X9591954Y6516471D01*
X9591954Y6432956D01*
X9591141Y6429044D01*
X9588957Y6425793D01*
X9585655Y6423558D01*
X9581794Y6422796D01*
X9577882Y6423558D01*
X9574580Y6425793D01*
X9520580Y6479794D01*
X9518294Y6483248D01*
X9517583Y6487312D01*
X9517837Y6494780D01*
X9516465Y6508343D01*
X9513316Y6521551D01*
X9508439Y6534251D01*
X9501886Y6546189D01*
X9493859Y6557162D01*
X9484360Y6566916D01*
X9473692Y6575348D01*
X9462008Y6582257D01*
X9449460Y6587591D01*
X9436354Y6591198D01*
X9422892Y6592976D01*
X9409277Y6592976D01*
X9395815Y6591198D01*
X9382658Y6587591D01*
X9370161Y6582257D01*
X9358426Y6575348D01*
X9347758Y6566916D01*
X9338310Y6557162D01*
X9330232Y6546189D01*
X9323679Y6534251D01*
X9318802Y6521551D01*
X9315653Y6508343D01*
X9314281Y6494780D01*
X9314738Y6481216D01*
X9317024Y6467805D01*
X9321038Y6454800D01*
X9326778Y6442456D01*
X9334093Y6430975D01*
X9342882Y6420612D01*
X9352940Y6411468D01*
X9364167Y6403797D01*
X9376308Y6397650D01*
X9389160Y6393180D01*
X9402521Y6390487D01*
X9416084Y6389573D01*
X9419945Y6389827D01*
X9424162Y6389217D01*
X9427768Y6386880D01*
X9492691Y6321958D01*
X9494875Y6318656D01*
X9495688Y6314795D01*
X9495688Y6276797D01*
X9494672Y6272377D01*
X9491878Y6268872D01*
X9487814Y6266891D01*
X9483293Y6266891D01*
X9479229Y6268821D01*
X9471812Y6274663D01*
X9460128Y6281572D01*
X9447580Y6286906D01*
X9434474Y6290462D01*
X9421012Y6292291D01*
X9407398Y6292291D01*
X9393936Y6290462D01*
X9380778Y6286906D01*
X9368282Y6281572D01*
X9356547Y6274663D01*
X9345879Y6266230D01*
X9336430Y6256426D01*
X9328353Y6245504D01*
X9321800Y6233566D01*
X9316923Y6220866D01*
X9313773Y6207607D01*
X9312402Y6194094D01*
X9312859Y6180480D01*
X9315145Y6167069D01*
X9319158Y6154115D01*
X9324898Y6141770D01*
X9332214Y6130290D01*
X9341002Y6119876D01*
X9351060Y6110782D01*
X9362287Y6103061D01*
X9374428Y6096965D01*
X9387281Y6092494D01*
X9400641Y6089751D01*
X9414205Y6088837D01*
X9427768Y6089751D01*
X9441078Y6092494D01*
X9453930Y6096965D01*
X9466072Y6103061D01*
X9477298Y6110782D01*
X9478670Y6112052D01*
X9482023Y6114034D01*
X9485833Y6114643D01*
X9489643Y6113780D01*
X9492792Y6111544D01*
X9494926Y6108293D01*
X9495688Y6104483D01*
X9495688Y5282082D01*
X9494875Y5278221D01*
X9492691Y5274919D01*
X9326067Y5108295D01*
X9322612Y5106009D01*
X9318548Y5105298D01*
X9311030Y5105552D01*
X9297517Y5104231D01*
X9284258Y5101082D01*
X9271558Y5096154D01*
X9259620Y5089652D01*
X9248698Y5081574D01*
X9238894Y5072126D01*
X9230461Y5061407D01*
X9223552Y5049723D01*
X9218218Y5037226D01*
X9214662Y5024069D01*
X9212834Y5010607D01*
X9212834Y4996992D01*
X9214662Y4983530D01*
X9218218Y4970373D01*
X9223552Y4957876D01*
X9230461Y4946192D01*
X9238894Y4935474D01*
X9248698Y4926025D01*
X9259620Y4917948D01*
X9271558Y4911445D01*
X9284258Y4906518D01*
X9297517Y4903368D01*
G37*
G36*
X6610096Y5349138D02*
G01*
X6724954Y5349138D01*
X6731203Y5349849D01*
X6736638Y5351729D01*
X6741464Y5354777D01*
X6745528Y5358841D01*
X6748576Y5363667D01*
X6750456Y5369102D01*
X6751167Y5375351D01*
X6751167Y5521198D01*
X6750456Y5527446D01*
X6748576Y5532882D01*
X6745528Y5537708D01*
X6741464Y5541772D01*
X6737908Y5544007D01*
X6735368Y5546293D01*
X6733743Y5549290D01*
X6733133Y5552643D01*
X6733133Y5601563D01*
X6732320Y5612231D01*
X6729933Y5622239D01*
X6725970Y5631738D01*
X6720586Y5640527D01*
X6713880Y5648350D01*
X6706057Y5655056D01*
X6697268Y5660440D01*
X6687769Y5664403D01*
X6677761Y5666790D01*
X6667500Y5667603D01*
X6657238Y5666790D01*
X6647230Y5664403D01*
X6637731Y5660440D01*
X6628942Y5655056D01*
X6621119Y5648350D01*
X6614414Y5640527D01*
X6609029Y5631738D01*
X6605066Y5622239D01*
X6602679Y5612231D01*
X6601866Y5601563D01*
X6601866Y5552592D01*
X6601256Y5549239D01*
X6599631Y5546242D01*
X6597091Y5544007D01*
X6593586Y5541772D01*
X6589522Y5537708D01*
X6586474Y5532882D01*
X6584594Y5527446D01*
X6583883Y5521198D01*
X6583883Y5375351D01*
X6584594Y5369102D01*
X6586474Y5363667D01*
X6589522Y5358841D01*
X6593586Y5354777D01*
X6598412Y5351729D01*
X6603847Y5349849D01*
G37*
G36*
X6406896Y5349138D02*
G01*
X6521754Y5349138D01*
X6528003Y5349849D01*
X6533438Y5351729D01*
X6538264Y5354777D01*
X6542328Y5358841D01*
X6545376Y5363667D01*
X6547256Y5369102D01*
X6547967Y5375351D01*
X6547967Y5521198D01*
X6547256Y5527446D01*
X6545376Y5532882D01*
X6542328Y5537708D01*
X6538264Y5541772D01*
X6533438Y5544820D01*
X6528003Y5546699D01*
X6521754Y5547410D01*
X6406896Y5547410D01*
X6400647Y5546699D01*
X6395212Y5544820D01*
X6390386Y5541772D01*
X6386322Y5537708D01*
X6383274Y5532882D01*
X6381394Y5527446D01*
X6380886Y5522976D01*
X6379819Y5519470D01*
X6377533Y5516524D01*
X6374384Y5514644D01*
X6370777Y5513933D01*
X6357518Y5513933D01*
X6353657Y5514746D01*
X6350355Y5516930D01*
X6079185Y5788050D01*
X6071057Y5795010D01*
X6062268Y5800394D01*
X6052769Y5804357D01*
X6042761Y5806744D01*
X6032093Y5807557D01*
X6027064Y5807557D01*
X6022898Y5808472D01*
X6019444Y5810961D01*
X6017361Y5814669D01*
X6016955Y5818886D01*
X6017361Y5822696D01*
X6017361Y5937554D01*
X6016650Y5943803D01*
X6014770Y5949238D01*
X6011722Y5954064D01*
X6007658Y5958128D01*
X6002832Y5961176D01*
X5997397Y5963056D01*
X5991148Y5963767D01*
X5845302Y5963767D01*
X5839053Y5963056D01*
X5833618Y5961176D01*
X5828792Y5958128D01*
X5824728Y5954064D01*
X5821680Y5949238D01*
X5819800Y5943803D01*
X5819089Y5937554D01*
X5819089Y5822696D01*
X5819800Y5816447D01*
X5821680Y5811012D01*
X5824728Y5806186D01*
X5828792Y5802122D01*
X5833618Y5799074D01*
X5839053Y5797194D01*
X5843524Y5796686D01*
X5847029Y5795619D01*
X5849975Y5793333D01*
X5851855Y5790184D01*
X5852566Y5786577D01*
X5852566Y5742330D01*
X5853379Y5731662D01*
X5855766Y5721654D01*
X5859729Y5712155D01*
X5865114Y5703366D01*
X5871819Y5695543D01*
X5879642Y5688838D01*
X5888431Y5683453D01*
X5897930Y5679490D01*
X5907938Y5677103D01*
X5918606Y5676290D01*
X6001105Y5676290D01*
X6004966Y5675477D01*
X6008268Y5673293D01*
X6279438Y5402173D01*
X6287566Y5395214D01*
X6296355Y5389829D01*
X6305854Y5385866D01*
X6315862Y5383479D01*
X6326530Y5382666D01*
X6370777Y5382666D01*
X6374384Y5381955D01*
X6377533Y5380075D01*
X6379819Y5377129D01*
X6380886Y5373624D01*
X6381394Y5369102D01*
X6383274Y5363667D01*
X6386322Y5358841D01*
X6390386Y5354777D01*
X6395212Y5351729D01*
X6400647Y5349849D01*
G37*
G36*
X9111538Y5545886D02*
G01*
X9125305Y5546750D01*
X9138869Y5549442D01*
X9151924Y5553913D01*
X9164320Y5560009D01*
X9175851Y5567680D01*
X9186214Y5576824D01*
X9195308Y5587187D01*
X9203029Y5598668D01*
X9209125Y5611063D01*
X9213545Y5624169D01*
X9216237Y5637733D01*
X9217152Y5651500D01*
X9216237Y5665266D01*
X9213545Y5678830D01*
X9209125Y5691936D01*
X9203029Y5704332D01*
X9195308Y5715812D01*
X9186214Y5726176D01*
X9175851Y5735320D01*
X9164320Y5742990D01*
X9151924Y5749086D01*
X9138869Y5753557D01*
X9125305Y5756249D01*
X9111538Y5757113D01*
X9097721Y5756249D01*
X9084208Y5753557D01*
X9071102Y5749086D01*
X9058706Y5742990D01*
X9047226Y5735320D01*
X9036812Y5726176D01*
X9027718Y5715812D01*
X9020048Y5704332D01*
X9013952Y5691936D01*
X9009481Y5678830D01*
X9006789Y5665266D01*
X9005874Y5651500D01*
X9006789Y5637733D01*
X9009481Y5624169D01*
X9013952Y5611063D01*
X9020048Y5598668D01*
X9027718Y5587187D01*
X9036812Y5576824D01*
X9047226Y5567680D01*
X9058706Y5560009D01*
X9071102Y5553913D01*
X9084208Y5549442D01*
X9097721Y5546750D01*
G37*
G36*
X6494373Y5712206D02*
G01*
X6512915Y5713628D01*
X6531203Y5716981D01*
X6549034Y5722162D01*
X6566255Y5729173D01*
X6582714Y5737910D01*
X6598107Y5748324D01*
X6612381Y5760212D01*
X6625386Y5773572D01*
X6636918Y5788152D01*
X6646925Y5803849D01*
X6655206Y5820460D01*
X6661810Y5837885D01*
X6666534Y5855868D01*
X6669379Y5874207D01*
X6670344Y5892800D01*
X6669379Y5911392D01*
X6666534Y5929731D01*
X6661810Y5947714D01*
X6655206Y5965139D01*
X6646925Y5981750D01*
X6636918Y5997448D01*
X6625386Y6012027D01*
X6612381Y6025388D01*
X6598107Y6037275D01*
X6582714Y6047689D01*
X6566255Y6056426D01*
X6549034Y6063437D01*
X6531203Y6068618D01*
X6512915Y6071920D01*
X6494373Y6073394D01*
X6475780Y6072886D01*
X6457289Y6070498D01*
X6439204Y6066231D01*
X6421628Y6060135D01*
X6404813Y6052261D01*
X6388862Y6042660D01*
X6373977Y6031534D01*
X6360312Y6018885D01*
X6348069Y6004915D01*
X6337300Y5989726D01*
X6328105Y5973572D01*
X6320688Y5956503D01*
X6314998Y5938824D01*
X6311188Y5920587D01*
X6309309Y5902096D01*
X6309309Y5883503D01*
X6311188Y5865012D01*
X6314998Y5846775D01*
X6320688Y5829096D01*
X6328105Y5812028D01*
X6337300Y5795873D01*
X6348069Y5780684D01*
X6360312Y5766714D01*
X6373977Y5754065D01*
X6388862Y5742940D01*
X6404813Y5733338D01*
X6421628Y5725464D01*
X6439204Y5719368D01*
X6457289Y5715101D01*
X6475780Y5712714D01*
G37*
G36*
X5961329Y5999683D02*
G01*
X5991148Y5999683D01*
X5997397Y6000394D01*
X6002832Y6002274D01*
X6007658Y6005322D01*
X6011722Y6009386D01*
X6014770Y6014212D01*
X6016650Y6019647D01*
X6017361Y6025896D01*
X6017361Y6047994D01*
X5961329Y6047994D01*
G37*
G36*
X5845302Y5999683D02*
G01*
X5875121Y5999683D01*
X5875121Y6047994D01*
X5819089Y6047994D01*
X5819089Y6025896D01*
X5819800Y6019647D01*
X5821680Y6014212D01*
X5824728Y6009386D01*
X5828792Y6005322D01*
X5833618Y6002274D01*
X5839053Y6000394D01*
G37*
G36*
X9116923Y6088126D02*
G01*
X9130487Y6088989D01*
X9143796Y6091732D01*
X9156649Y6096203D01*
X9168790Y6102299D01*
X9180017Y6110020D01*
X9190075Y6119164D01*
X9198864Y6129528D01*
X9206179Y6141008D01*
X9211919Y6153353D01*
X9215932Y6166307D01*
X9218218Y6179718D01*
X9218676Y6193332D01*
X9217304Y6206896D01*
X9214154Y6220104D01*
X9209278Y6232804D01*
X9202724Y6244742D01*
X9194647Y6255664D01*
X9185198Y6265468D01*
X9174530Y6273901D01*
X9162846Y6280810D01*
X9150299Y6286144D01*
X9137192Y6289700D01*
X9123680Y6291529D01*
X9110116Y6291529D01*
X9096603Y6289700D01*
X9083497Y6286144D01*
X9070949Y6280810D01*
X9059265Y6273901D01*
X9048597Y6265468D01*
X9039148Y6255664D01*
X9031071Y6244742D01*
X9024518Y6232804D01*
X9019641Y6220104D01*
X9016492Y6206896D01*
X9015120Y6193332D01*
X9015577Y6179718D01*
X9017863Y6166307D01*
X9021876Y6153353D01*
X9027617Y6141008D01*
X9034932Y6129528D01*
X9043720Y6119164D01*
X9053779Y6110020D01*
X9065006Y6102299D01*
X9077147Y6096203D01*
X9089999Y6091732D01*
X9103309Y6088989D01*
G37*
G36*
X5819089Y6118656D02*
G01*
X5875121Y6118656D01*
X5875121Y6166967D01*
X5845302Y6166967D01*
X5839053Y6166256D01*
X5833618Y6164376D01*
X5828792Y6161328D01*
X5824728Y6157264D01*
X5821680Y6152438D01*
X5819800Y6147003D01*
X5819089Y6140754D01*
G37*
G36*
X5961329Y6118656D02*
G01*
X6017361Y6118656D01*
X6017361Y6140754D01*
X6016650Y6147003D01*
X6014770Y6152438D01*
X6011722Y6157264D01*
X6007658Y6161328D01*
X6002832Y6164376D01*
X5997397Y6166256D01*
X5991148Y6166967D01*
X5961329Y6166967D01*
G37*
G36*
X6311900Y7555788D02*
G01*
X6326327Y7556652D01*
X6340500Y7559395D01*
X6354267Y7563866D01*
X6367322Y7570012D01*
X6379514Y7577734D01*
X6390640Y7586929D01*
X6400546Y7597495D01*
X6409029Y7609179D01*
X6415989Y7621828D01*
X6421323Y7635240D01*
X6424879Y7649260D01*
X6426708Y7663586D01*
X6426708Y7678013D01*
X6424879Y7692339D01*
X6421323Y7706359D01*
X6415989Y7719771D01*
X6409029Y7732420D01*
X6400546Y7744104D01*
X6390640Y7754670D01*
X6379514Y7763865D01*
X6367322Y7771587D01*
X6354267Y7777734D01*
X6340500Y7782204D01*
X6326327Y7784947D01*
X6311900Y7785811D01*
X6297472Y7784947D01*
X6283299Y7782204D01*
X6269532Y7777734D01*
X6256477Y7771587D01*
X6244285Y7763865D01*
X6233160Y7754670D01*
X6223254Y7744104D01*
X6214770Y7732420D01*
X6207810Y7719771D01*
X6202476Y7706359D01*
X6198920Y7692339D01*
X6197092Y7678013D01*
X6197092Y7663586D01*
X6198920Y7649260D01*
X6202476Y7635240D01*
X6207810Y7621828D01*
X6214770Y7609179D01*
X6223254Y7597495D01*
X6233160Y7586929D01*
X6244285Y7577734D01*
X6256477Y7570012D01*
X6269532Y7563866D01*
X6283299Y7559395D01*
X6297472Y7556652D01*
G37*
G36*
X6108954Y7567930D02*
G01*
X6113322Y7570012D01*
X6125514Y7577734D01*
X6136640Y7586929D01*
X6146546Y7597495D01*
X6155029Y7609179D01*
X6160871Y7619746D01*
X6108954Y7619746D01*
G37*
G36*
X6006846Y7567930D02*
G01*
X6006846Y7619746D01*
X5954928Y7619746D01*
X5960770Y7609179D01*
X5969254Y7597495D01*
X5979160Y7586929D01*
X5990285Y7577734D01*
X6002477Y7570012D01*
G37*
G36*
X9848291Y7673848D02*
G01*
X9865156Y7674762D01*
X9881819Y7677607D01*
X9898024Y7682280D01*
X9913670Y7688732D01*
X9928453Y7696911D01*
X9942220Y7706715D01*
X9954818Y7717942D01*
X9966045Y7730540D01*
X9975850Y7744307D01*
X9984028Y7759090D01*
X9990480Y7774736D01*
X9995154Y7790942D01*
X9997998Y7807604D01*
X9998913Y7824470D01*
X9997998Y7841335D01*
X9995154Y7857998D01*
X9990480Y7874203D01*
X9984028Y7889849D01*
X9975850Y7904632D01*
X9966045Y7918399D01*
X9954818Y7930997D01*
X9942220Y7942224D01*
X9928453Y7952028D01*
X9913670Y7960207D01*
X9898024Y7966659D01*
X9881819Y7971332D01*
X9865156Y7974177D01*
X9848291Y7975092D01*
X9831425Y7974177D01*
X9814763Y7971332D01*
X9798558Y7966659D01*
X9782911Y7960207D01*
X9768128Y7952028D01*
X9754362Y7942224D01*
X9741763Y7930997D01*
X9730536Y7918399D01*
X9720732Y7904632D01*
X9712553Y7889849D01*
X9706102Y7874203D01*
X9701428Y7857998D01*
X9698583Y7841335D01*
X9697669Y7824470D01*
X9698583Y7807604D01*
X9701428Y7790942D01*
X9706102Y7774736D01*
X9712553Y7759090D01*
X9720732Y7744307D01*
X9730536Y7730540D01*
X9741763Y7717942D01*
X9754362Y7706715D01*
X9768128Y7696911D01*
X9782911Y7688732D01*
X9798558Y7682280D01*
X9814763Y7677607D01*
X9831425Y7674762D01*
G37*
G36*
X6108954Y7721853D02*
G01*
X6160871Y7721853D01*
X6155029Y7732420D01*
X6146546Y7744104D01*
X6136640Y7754670D01*
X6125514Y7763865D01*
X6113322Y7771587D01*
X6108954Y7773670D01*
G37*
G36*
X5954928Y7721853D02*
G01*
X6006846Y7721853D01*
X6006846Y7773670D01*
X6002477Y7771587D01*
X5990285Y7763865D01*
X5979160Y7754670D01*
X5969254Y7744104D01*
X5960770Y7732420D01*
G37*

%LPD*%
D11*
X6326124Y5448300D02*
G01*
X6032500Y5741923D01*
X5918200Y5741923D01*
X6464300Y5448300D02*
G01*
X6326124Y5448300D01*
X5918200Y5880100D02*
G01*
X5918200Y5741923D01*
X8700261Y6525260D02*
G01*
X8552941Y6672579D01*
X8400034Y6672579D01*
X8251190Y6523736D01*
X6300724Y6400800D02*
G01*
X6300724Y6558279D01*
X9416795Y7689850D02*
G01*
X9253981Y7527036D01*
X8789924Y7527036D01*
X8080247Y6817105D01*
X6559550Y6817105D01*
X6300724Y6558279D01*
X9416034Y6491478D02*
G01*
X9561322Y6346189D01*
X9561322Y5250687D01*
X9314434Y5003800D01*
X9417811Y6787642D02*
G01*
X9657588Y6547865D01*
X9657588Y5100065D01*
X9561322Y5003800D01*
X9417811Y7088631D02*
G01*
X9426447Y7088631D01*
X9590024Y6925055D01*
X9116822Y6789928D02*
G01*
X9267443Y6940295D01*
X9267443Y7127239D01*
X9379458Y7239254D01*
X9469120Y7239254D01*
X9559290Y7329423D01*
X9559290Y7741665D01*
X9461245Y7839963D01*
X9369297Y7839963D01*
X9270238Y7939023D01*
X9270238Y8037321D01*
X9178036Y8129778D01*
X7304277Y8129778D01*
X6845300Y7670800D01*
X6057900Y6870700D02*
G01*
X6212077Y7024878D01*
X6887209Y7024878D01*
X6923786Y6988302D01*
X6923786Y6988302D02*
G01*
X7070597Y7134860D01*
X7459218Y7134860D01*
X8062468Y7738110D01*
X9068815Y7738110D01*
X9116822Y7689850D01*
X5918200Y6221476D02*
G01*
X5798311Y6341363D01*
X5798311Y7411212D01*
X6057900Y7670800D01*
X5918200Y6083300D02*
G01*
X5918200Y6221476D01*
X7224013Y6988302D02*
G01*
X7636763Y6988302D01*
X8290306Y7641844D01*
X8974581Y7641844D01*
X6667500Y5448300D02*
G01*
X6667500Y5601970D01*
X9116822Y6489954D02*
G01*
X8997188Y6370065D01*
X8154924Y6370065D01*
X8001254Y6523736D01*
X6500875Y6243065D02*
G01*
X6243574Y6243065D01*
X5906515Y6580123D01*
X5906515Y6945376D01*
X6427977Y7466584D01*
X6895084Y7466584D01*
X7099300Y7670800D01*
X6500875Y6400800D02*
G01*
X6500875Y6243065D01*
X6500875Y6243065D02*
G01*
X7279131Y6243065D01*
X7756652Y6720839D01*
X8272018Y6720839D01*
X8641334Y7089902D01*
X9116822Y7089902D01*
D13*
G01*
X5918225Y5880125D03*
G01*
X5918225Y6083325D03*
G36*
X6406311Y5521782D02*
G01*
X6522313Y5521782D01*
X6522313Y5374792D01*
X6406311Y5374792D01*
G37*
G36*
X6609511Y5521782D02*
G01*
X6725513Y5521782D01*
X6725513Y5374792D01*
X6609511Y5374792D01*
G37*
G36*
X6450799Y6478300D02*
G01*
X6550799Y6478300D01*
X6550799Y6323299D01*
X6450799Y6323299D01*
G37*
G36*
X6250800Y6478300D02*
G01*
X6350800Y6478300D01*
X6350800Y6323299D01*
X6250800Y6323299D01*
G37*
D16*
G01*
X8001254Y6523736D03*
G01*
X8251190Y6523736D03*
G01*
X8501379Y6523736D03*
D17*
G01*
X9811511Y5651500D03*
G01*
X9111513Y5651500D03*
D18*
G01*
X9561322Y5003800D03*
G36*
X9745218Y5080812D02*
G01*
X9897618Y5080812D01*
X9897618Y4928412D01*
X9745218Y4928412D01*
G37*
G01*
X9314434Y5003800D03*
G01*
X9059418Y5003800D03*
D20*
G01*
X7099300Y7670800D03*
G01*
X6845300Y7670800D03*
D21*
G01*
X6923887Y6988200D03*
G01*
X7223886Y6988200D03*
D18*
G01*
X9416084Y6491401D03*
G01*
X9414205Y6190691D03*
G01*
X9417811Y6787591D03*
G01*
X9417811Y7088759D03*
G01*
X9416897Y7389926D03*
G01*
X9416897Y7689926D03*
G01*
X9416897Y7989925D03*
G01*
X9116898Y7989925D03*
G01*
X9116898Y7689926D03*
G01*
X9116898Y7389926D03*
G01*
X9116898Y7089927D03*
G01*
X9116898Y6789928D03*
G01*
X9116898Y6489928D03*
G01*
X9116898Y6189929D03*
D20*
G01*
X6311900Y6870700D03*
G01*
X6057900Y6870700D03*
G01*
X6311900Y7670800D03*
G01*
X6057900Y7670800D03*
G01*
X7632700Y7594600D03*
G01*
X7632700Y7848600D03*
D12*
G01*
X8700261Y6525260D03*
G01*
X9590024Y6925055D03*
G01*
X8974581Y7641844D03*
G01*
X6667500Y5601970D03*
M02*
