G04 Layer: BottomSilkLayer*
G04 EasyEDA v6.4.19.5, 2021-04-26T22:05:49--7:00*
G04 3865de02122e4a29b7e4d10c01c85813,debd25b7e7f645e7808fdd9718494454,10*
G04 Gerber Generator version 0.2*
G04 Scale: 100 percent, Rotated: No, Reflected: No *
G04 Dimensions in millimeters *
G04 leading zeros omitted , absolute positions ,4 integer and 5 decimal *
%FSLAX45Y45*%
%MOMM*%

%ADD10C,0.0001*%

%LPD*%
G36*
X5985967Y8124596D02*
G01*
X5985967Y7984642D01*
X6004001Y7984642D01*
X6004001Y8124596D01*
G37*
G36*
X6358839Y8124596D02*
G01*
X6358839Y8069478D01*
X6355791Y8075625D01*
X6349441Y8079994D01*
X6339789Y8082584D01*
X6326835Y8083448D01*
X6311087Y8081772D01*
X6300927Y8076590D01*
X6297574Y8072831D01*
X6295237Y8068056D01*
X6293764Y8062264D01*
X6293307Y8055508D01*
X6293307Y7984642D01*
X6311341Y7984642D01*
X6311392Y8056321D01*
X6311849Y8060588D01*
X6312865Y8062975D01*
X6314389Y8065414D01*
X6317030Y8067649D01*
X6320891Y8069224D01*
X6325920Y8070189D01*
X6332169Y8070494D01*
X6337300Y8070443D01*
X6345682Y8069681D01*
X6348933Y8068970D01*
X6351524Y8068106D01*
X6353657Y8066938D01*
X6355334Y8065566D01*
X6357569Y8062112D01*
X6358280Y8059928D01*
X6358686Y8057388D01*
X6358839Y8054492D01*
X6358839Y7984642D01*
X6376619Y7984642D01*
X6376619Y8124596D01*
G37*
G36*
X6764223Y8124596D02*
G01*
X6764223Y8010042D01*
X6782257Y8010042D01*
X6782257Y8057794D01*
X6783933Y8063484D01*
X6788861Y8067548D01*
X6797141Y8069986D01*
X6808673Y8070748D01*
X6815988Y8070646D01*
X6821881Y8070189D01*
X6826402Y8069478D01*
X6829501Y8068462D01*
X6831736Y8066887D01*
X6833311Y8064550D01*
X6834276Y8061553D01*
X6834581Y8057794D01*
X6834581Y8010042D01*
X6834225Y8006283D01*
X6833209Y8003082D01*
X6831431Y8000441D01*
X6828993Y7998358D01*
X6825843Y7996936D01*
X6821678Y7995920D01*
X6816547Y7995310D01*
X6810451Y7995056D01*
X6803390Y7995310D01*
X6797446Y7995920D01*
X6792620Y7996936D01*
X6788861Y7998358D01*
X6785965Y8000441D01*
X6783933Y8003082D01*
X6782663Y8006283D01*
X6782257Y8010042D01*
X6764223Y8010042D01*
X6764223Y7984642D01*
X6781749Y7984642D01*
X6781749Y7996072D01*
X6782308Y7993430D01*
X6783933Y7990941D01*
X6786625Y7988706D01*
X6790385Y7986674D01*
X6795109Y7984896D01*
X6800697Y7983626D01*
X6807047Y7982864D01*
X6814261Y7982610D01*
X6821017Y7982813D01*
X6826961Y7983321D01*
X6832193Y7984185D01*
X6836613Y7985404D01*
X6840524Y7987182D01*
X6843775Y7989366D01*
X6846468Y7992008D01*
X6848551Y7995056D01*
X6850227Y7998714D01*
X6851396Y8002930D01*
X6852107Y8007858D01*
X6852361Y8013344D01*
X6852361Y8056016D01*
X6850075Y8068564D01*
X6843217Y8077098D01*
X6831177Y8081873D01*
X6813245Y8083448D01*
X6807098Y8083245D01*
X6801459Y8082635D01*
X6796176Y8081619D01*
X6791401Y8080146D01*
X6787388Y8078470D01*
X6784543Y8076336D01*
X6782816Y8073898D01*
X6782257Y8071002D01*
X6781749Y8071002D01*
X6782257Y8095640D01*
X6782257Y8124596D01*
G37*
G36*
X7215327Y8116468D02*
G01*
X7215327Y8097672D01*
X7233361Y8097672D01*
X7233361Y8116468D01*
G37*
G36*
X6641033Y8114436D02*
G01*
X6626047Y8113572D01*
X6614617Y8110880D01*
X6610451Y8109254D01*
X6606997Y8107425D01*
X6604355Y8105343D01*
X6602425Y8103006D01*
X6601104Y8100415D01*
X6600139Y8097316D01*
X6599580Y8093811D01*
X6599377Y8089798D01*
X6599377Y8073034D01*
X6617411Y8073034D01*
X6617411Y8088274D01*
X6617766Y8091728D01*
X6618833Y8094573D01*
X6620560Y8096910D01*
X6622999Y8098688D01*
X6626148Y8099958D01*
X6630162Y8100822D01*
X6635140Y8101330D01*
X6667957Y8101482D01*
X6667957Y8057540D01*
X6640271Y8057540D01*
X6634632Y8057794D01*
X6629806Y8058505D01*
X6625844Y8059724D01*
X6622745Y8061350D01*
X6620408Y8063433D01*
X6618731Y8066074D01*
X6617766Y8069275D01*
X6617411Y8073034D01*
X6599377Y8073034D01*
X6599631Y8068716D01*
X6600444Y8065516D01*
X6601815Y8062722D01*
X6603695Y8060334D01*
X6606184Y8058353D01*
X6609232Y8056625D01*
X6612890Y8055152D01*
X6617157Y8053984D01*
X6617157Y8053222D01*
X6612077Y8052104D01*
X6607556Y8050530D01*
X6603593Y8048447D01*
X6600139Y8045856D01*
X6597243Y8043011D01*
X6595211Y8039760D01*
X6593941Y8036153D01*
X6593535Y8032140D01*
X6593535Y8011312D01*
X6612839Y8011312D01*
X6612839Y8030870D01*
X6612991Y8033308D01*
X6613398Y8035442D01*
X6614109Y8037372D01*
X6616293Y8040522D01*
X6617716Y8041792D01*
X6619443Y8042808D01*
X6623710Y8044180D01*
X6627622Y8044942D01*
X6631228Y8045246D01*
X6667957Y8045348D01*
X6667957Y7998104D01*
X6639509Y7998104D01*
X6632803Y7998307D01*
X6627114Y7998815D01*
X6622491Y7999679D01*
X6618935Y8000898D01*
X6616293Y8002727D01*
X6614363Y8005064D01*
X6613245Y8007908D01*
X6612839Y8011312D01*
X6593535Y8011312D01*
X6593535Y8010296D01*
X6596227Y7998256D01*
X6604203Y7990484D01*
X6618224Y7986115D01*
X6639509Y7984642D01*
X6687261Y7984642D01*
X6687261Y8114436D01*
G37*
G36*
X7519873Y8114436D02*
G01*
X7507071Y8113877D01*
X7495997Y8112150D01*
X7486599Y8109203D01*
X7478928Y8105140D01*
X7472934Y8099856D01*
X7468666Y8093456D01*
X7466126Y8085886D01*
X7465263Y8077098D01*
X7465263Y8020202D01*
X7484059Y8020202D01*
X7484059Y8077352D01*
X7484262Y8080908D01*
X7484770Y8084108D01*
X7485634Y8087004D01*
X7486853Y8089544D01*
X7488529Y8091931D01*
X7490459Y8093964D01*
X7492695Y8095640D01*
X7495235Y8096910D01*
X7500823Y8098891D01*
X7506411Y8100212D01*
X7516317Y8100974D01*
X7552131Y8100974D01*
X7552131Y7997850D01*
X7521143Y7997850D01*
X7504938Y7999272D01*
X7493355Y8003438D01*
X7486396Y8010448D01*
X7484059Y8020202D01*
X7465263Y8020202D01*
X7466126Y8011515D01*
X7468666Y8004403D01*
X7472934Y7998358D01*
X7478877Y7993430D01*
X7486497Y7989570D01*
X7495844Y7986877D01*
X7506868Y7985201D01*
X7519619Y7984642D01*
X7571435Y7984642D01*
X7571435Y8114436D01*
G37*
G36*
X6058103Y8111388D02*
G01*
X6058103Y8081416D01*
X6023559Y8081416D01*
X6023559Y8069478D01*
X6058103Y8069478D01*
X6058001Y8008518D01*
X6057646Y8005572D01*
X6057087Y8003031D01*
X6056325Y8000898D01*
X6055410Y7999272D01*
X6054090Y7997850D01*
X6052464Y7996732D01*
X6050483Y7995818D01*
X6048095Y7995158D01*
X6041847Y7994396D01*
X6038037Y7994294D01*
X6033008Y7994751D01*
X6023559Y7996072D01*
X6023559Y7984134D01*
X6033668Y7983016D01*
X6043625Y7982610D01*
X6049518Y7982813D01*
X6054750Y7983321D01*
X6059322Y7984185D01*
X6063183Y7985404D01*
X6066383Y7986928D01*
X6069177Y7988960D01*
X6071463Y7991500D01*
X6073343Y7994548D01*
X6074664Y7998104D01*
X6075629Y8002320D01*
X6076188Y8007248D01*
X6076391Y8012836D01*
X6076391Y8069478D01*
X6097981Y8069478D01*
X6097981Y8081416D01*
X6076391Y8081416D01*
X6076391Y8111388D01*
G37*
G36*
X6102299Y8083448D02*
G01*
X6102299Y8067954D01*
X6112459Y8067954D01*
X6118352Y8067751D01*
X6123381Y8067141D01*
X6127496Y8066125D01*
X6130747Y8064652D01*
X6133287Y8062671D01*
X6135116Y8060029D01*
X6136233Y8056727D01*
X6136589Y8052714D01*
X6136589Y7984642D01*
X6154623Y7984642D01*
X6154623Y8081416D01*
X6137605Y8081416D01*
X6137605Y8065668D01*
X6137351Y8067954D01*
X6136589Y8070138D01*
X6135319Y8072272D01*
X6133541Y8074304D01*
X6131407Y8076285D01*
X6126327Y8079587D01*
X6123381Y8080908D01*
X6120231Y8082025D01*
X6117183Y8082838D01*
X6114135Y8083296D01*
G37*
G36*
X6224473Y8083448D02*
G01*
X6216650Y8083296D01*
X6209944Y8082838D01*
X6204356Y8082025D01*
X6199835Y8080908D01*
X6196076Y8079435D01*
X6192977Y8077504D01*
X6190488Y8075117D01*
X6188659Y8072272D01*
X6187338Y8068716D01*
X6186373Y8064296D01*
X6185814Y8059064D01*
X6185611Y8052968D01*
X6185611Y8030616D01*
X6231585Y8030616D01*
X6239002Y8030311D01*
X6241846Y8029905D01*
X6244031Y8029346D01*
X6245758Y8028584D01*
X6247130Y8027517D01*
X6248196Y8026196D01*
X6249416Y8022386D01*
X6250076Y8016544D01*
X6250076Y8009483D01*
X6249416Y8003895D01*
X6248857Y8001660D01*
X6247993Y7999882D01*
X6246825Y7998358D01*
X6245453Y7997088D01*
X6243777Y7996072D01*
X6241745Y7995310D01*
X6239256Y7994751D01*
X6232855Y7994294D01*
X6224676Y7994396D01*
X6216396Y7995158D01*
X6212789Y7995818D01*
X6208776Y7997037D01*
X6205931Y7998815D01*
X6204204Y8001203D01*
X6203645Y8004200D01*
X6203645Y8030616D01*
X6185611Y8030616D01*
X6185611Y7984642D01*
X6203137Y7984642D01*
X6203137Y7993786D01*
X6205829Y7988909D01*
X6211570Y7985404D01*
X6220409Y7983321D01*
X6232347Y7982610D01*
X6238849Y7982813D01*
X6244539Y7983270D01*
X6249517Y7984083D01*
X6253683Y7985150D01*
X6257137Y7986674D01*
X6260033Y7988706D01*
X6262471Y7991246D01*
X6264351Y7994294D01*
X6265824Y7998002D01*
X6266840Y8002371D01*
X6267450Y8007502D01*
X6267653Y8013344D01*
X6267450Y8018627D01*
X6266891Y8023250D01*
X6265926Y8027263D01*
X6264605Y8030616D01*
X6262776Y8033461D01*
X6260439Y8035848D01*
X6257442Y8037779D01*
X6253937Y8039252D01*
X6249873Y8040370D01*
X6244996Y8041182D01*
X6239306Y8041640D01*
X6203645Y8041792D01*
X6203645Y8057286D01*
X6203797Y8059826D01*
X6204204Y8062010D01*
X6204915Y8063890D01*
X6207150Y8066836D01*
X6208674Y8067954D01*
X6210554Y8068868D01*
X6215481Y8070037D01*
X6222593Y8070697D01*
X6227013Y8070748D01*
X6242964Y8070189D01*
X6260287Y8068462D01*
X6260287Y8081670D01*
X6241440Y8083042D01*
G37*
G36*
X6916623Y8083448D02*
G01*
X6898081Y8081619D01*
X6885635Y8076082D01*
X6878574Y8066024D01*
X6876237Y8050428D01*
X6876237Y8040776D01*
X6894017Y8040776D01*
X6894017Y8056016D01*
X6894372Y8060131D01*
X6895338Y8063534D01*
X6897014Y8066227D01*
X6899351Y8068208D01*
X6902500Y8069681D01*
X6906615Y8070697D01*
X6911644Y8071307D01*
X6917639Y8071510D01*
X6923328Y8071307D01*
X6928205Y8070697D01*
X6932218Y8069681D01*
X6935419Y8068208D01*
X6937959Y8066227D01*
X6939788Y8063534D01*
X6940905Y8060131D01*
X6941261Y8056016D01*
X6941261Y8040776D01*
X6876237Y8040776D01*
X6876237Y8029092D01*
X6941261Y8029092D01*
X6941261Y8014360D01*
X6940803Y8009788D01*
X6939483Y8005825D01*
X6937248Y8002524D01*
X6934149Y7999882D01*
X6930136Y7998002D01*
X6925208Y7996681D01*
X6919366Y7995869D01*
X6912559Y7995564D01*
X6897573Y7996783D01*
X6880047Y8000390D01*
X6880047Y7986674D01*
X6897878Y7983626D01*
X6914845Y7982610D01*
X6928408Y7983474D01*
X6939534Y7985912D01*
X6948170Y7989976D01*
X6954367Y7995716D01*
X6958075Y8003082D01*
X6959295Y8012074D01*
X6959295Y8050428D01*
X6956755Y8065516D01*
X6949135Y8075574D01*
X6936079Y8081518D01*
G37*
G36*
X7020509Y8083448D02*
G01*
X7004710Y8081772D01*
X6994347Y8076590D01*
X6991146Y8072831D01*
X6988809Y8068056D01*
X6987438Y8062264D01*
X6986981Y8055508D01*
X6986981Y7984642D01*
X7005015Y7984642D01*
X7005066Y8056321D01*
X7005320Y8059521D01*
X7005878Y8062010D01*
X7007148Y8064449D01*
X7008063Y8065668D01*
X7010603Y8067802D01*
X7014413Y8069325D01*
X7019493Y8070240D01*
X7025843Y8070494D01*
X7035139Y8070189D01*
X7042099Y8069224D01*
X7044690Y8068360D01*
X7046874Y8067192D01*
X7048652Y8065820D01*
X7049973Y8064144D01*
X7050989Y8062315D01*
X7051700Y8060080D01*
X7052106Y8057489D01*
X7052259Y8054492D01*
X7052259Y7984642D01*
X7070293Y7984642D01*
X7070293Y8081416D01*
X7052259Y8081416D01*
X7052259Y8069478D01*
X7049211Y8075625D01*
X7042912Y8079994D01*
X7033361Y8082584D01*
G37*
G36*
X7148017Y8083448D02*
G01*
X7127900Y8080603D01*
X7118299Y8072018D01*
X7118299Y8081416D01*
X7101535Y8081416D01*
X7101535Y8010804D01*
X7119569Y8010804D01*
X7119569Y8054492D01*
X7120077Y8060334D01*
X7120737Y8062722D01*
X7121601Y8064652D01*
X7122820Y8066227D01*
X7124547Y8067548D01*
X7126630Y8068614D01*
X7129221Y8069478D01*
X7132472Y8070189D01*
X7140702Y8070951D01*
X7150506Y8070951D01*
X7158126Y8070189D01*
X7163308Y8068716D01*
X7165289Y8067649D01*
X7166864Y8066328D01*
X7168083Y8064652D01*
X7168845Y8062722D01*
X7169759Y8057642D01*
X7169759Y8007603D01*
X7169353Y8004860D01*
X7168743Y8002524D01*
X7167829Y8000644D01*
X7166711Y7999018D01*
X7165187Y7997698D01*
X7163155Y7996631D01*
X7160717Y7995818D01*
X7154316Y7994903D01*
X7145223Y7994548D01*
X7138771Y7994802D01*
X7133285Y7995462D01*
X7128865Y7996580D01*
X7125411Y7998104D01*
X7122871Y8000136D01*
X7121042Y8002930D01*
X7119924Y8006486D01*
X7119569Y8010804D01*
X7101535Y8010804D01*
X7101535Y7975498D01*
X7101840Y7969148D01*
X7102805Y7963509D01*
X7104380Y7958632D01*
X7106615Y7954416D01*
X7109358Y7950911D01*
X7112762Y7947964D01*
X7116876Y7945577D01*
X7121601Y7943748D01*
X7133031Y7941462D01*
X7147509Y7940700D01*
X7165797Y7941208D01*
X7181037Y7942732D01*
X7181037Y7955686D01*
X7160209Y7953603D01*
X7145985Y7952892D01*
X7139482Y7953197D01*
X7133996Y7954009D01*
X7129475Y7955330D01*
X7125919Y7957210D01*
X7123125Y7959750D01*
X7121144Y7963001D01*
X7119975Y7967014D01*
X7119569Y7971688D01*
X7119569Y7995056D01*
X7120229Y7992109D01*
X7121855Y7989570D01*
X7124547Y7987436D01*
X7128205Y7985658D01*
X7132675Y7984337D01*
X7137603Y7983372D01*
X7143089Y7982813D01*
X7149033Y7982610D01*
X7156094Y7982813D01*
X7162393Y7983321D01*
X7167778Y7984185D01*
X7172401Y7985404D01*
X7176312Y7987030D01*
X7179564Y7989112D01*
X7182256Y7991602D01*
X7184339Y7994548D01*
X7185812Y7998053D01*
X7186828Y8002117D01*
X7187438Y8006791D01*
X7187641Y8012074D01*
X7187641Y8051444D01*
X7185355Y8066278D01*
X7178497Y8076082D01*
X7166203Y8081619D01*
G37*
G36*
X7292289Y8083448D02*
G01*
X7262825Y8081924D01*
X7262825Y8068716D01*
X7279386Y8070850D01*
X7293051Y8071510D01*
X7299604Y8071358D01*
X7305040Y8070850D01*
X7309408Y8069986D01*
X7312609Y8068716D01*
X7314844Y8067090D01*
X7316419Y8065008D01*
X7317384Y8062417D01*
X7317689Y8059318D01*
X7317689Y8051190D01*
X7313269Y8043773D01*
X7299909Y8041284D01*
X7288733Y8041284D01*
X7275423Y8039912D01*
X7265873Y8035645D01*
X7260183Y8028584D01*
X7258253Y8018678D01*
X7258253Y8010296D01*
X7260793Y7997494D01*
X7268413Y7988960D01*
X7281621Y7984236D01*
X7300417Y7982610D01*
X7316317Y7983220D01*
X7333437Y7984896D01*
X7333437Y7998866D01*
X7313371Y7996021D01*
X7299909Y7995056D01*
X7294016Y7995259D01*
X7288987Y7995716D01*
X7284872Y7996529D01*
X7281621Y7997596D01*
X7279182Y7999069D01*
X7277455Y8001050D01*
X7276388Y8003641D01*
X7276033Y8006740D01*
X7276033Y8016646D01*
X7276287Y8019491D01*
X7277049Y8021878D01*
X7278319Y8023809D01*
X7280097Y8025282D01*
X7282586Y8026552D01*
X7285685Y8027416D01*
X7289444Y8027924D01*
X7304735Y8028076D01*
X7311796Y8028482D01*
X7317943Y8029600D01*
X7323226Y8031530D01*
X7327595Y8034172D01*
X7331049Y8037677D01*
X7333488Y8041741D01*
X7334961Y8046415D01*
X7335469Y8051698D01*
X7335469Y8060588D01*
X7334250Y8067598D01*
X7330694Y8073288D01*
X7324699Y8077758D01*
X7316266Y8080908D01*
X7305497Y8082838D01*
G37*
G36*
X7397699Y8083448D02*
G01*
X7379309Y8081619D01*
X7366711Y8076082D01*
X7359650Y8066024D01*
X7357313Y8050428D01*
X7357313Y8040776D01*
X7375347Y8040776D01*
X7375347Y8056016D01*
X7375702Y8060131D01*
X7376668Y8063534D01*
X7378344Y8066227D01*
X7380681Y8068208D01*
X7383830Y8069681D01*
X7387844Y8070697D01*
X7392822Y8071307D01*
X7398715Y8071510D01*
X7404506Y8071307D01*
X7409434Y8070697D01*
X7413548Y8069681D01*
X7416749Y8068208D01*
X7419187Y8066227D01*
X7420965Y8063534D01*
X7421981Y8060131D01*
X7422337Y8056016D01*
X7422337Y8040776D01*
X7357313Y8040776D01*
X7357313Y8029092D01*
X7422337Y8029092D01*
X7422337Y8014360D01*
X7421880Y8009788D01*
X7420559Y8005825D01*
X7418324Y8002524D01*
X7415225Y7999882D01*
X7411313Y7998002D01*
X7406386Y7996681D01*
X7400493Y7995869D01*
X7393635Y7995564D01*
X7378649Y7996783D01*
X7361123Y8000390D01*
X7361123Y7986674D01*
X7379055Y7983626D01*
X7396175Y7982610D01*
X7409738Y7983474D01*
X7420864Y7985912D01*
X7429500Y7989976D01*
X7435697Y7995716D01*
X7439406Y8003082D01*
X7440625Y8012074D01*
X7440625Y8050428D01*
X7438085Y8065516D01*
X7430465Y8075574D01*
X7417206Y8081518D01*
G37*
G36*
X5920943Y8081416D02*
G01*
X5962853Y8037474D01*
X5917133Y7984642D01*
X5939485Y7984642D01*
X5983681Y8037474D01*
X5943041Y8081416D01*
G37*
G36*
X6452311Y8081416D02*
G01*
X6452311Y8059826D01*
X6475425Y8059826D01*
X6475425Y8081416D01*
G37*
G36*
X6490665Y8081416D02*
G01*
X6539433Y7942986D01*
X6558229Y7942986D01*
X6542989Y7983118D01*
X6580327Y8081416D01*
X6560769Y8081416D01*
X6533845Y8002422D01*
X6533337Y8002422D01*
X6508953Y8081416D01*
G37*
G36*
X7215327Y8081416D02*
G01*
X7215327Y7984642D01*
X7233361Y7984642D01*
X7233361Y8081416D01*
G37*
G36*
X6452311Y8006232D02*
G01*
X6452311Y7984642D01*
X6475425Y7984642D01*
X6475425Y8006232D01*
G37*
G36*
X9395968Y4785614D02*
G01*
X9391446Y4785512D01*
X9382556Y4784598D01*
X9378188Y4783836D01*
X9378188Y4776724D01*
X9382912Y4777740D01*
X9387484Y4778451D01*
X9395968Y4779010D01*
X9399524Y4778908D01*
X9404045Y4778298D01*
X9406839Y4777536D01*
X9408160Y4776978D01*
X9410700Y4775403D01*
X9412528Y4773320D01*
X9413646Y4770577D01*
X9414002Y4767326D01*
X9414002Y4736846D01*
X9409379Y4728464D01*
X9395460Y4725670D01*
X9387027Y4726228D01*
X9382556Y4726940D01*
X9377934Y4727956D01*
X9377934Y4720590D01*
X9386620Y4719269D01*
X9391243Y4718913D01*
X9395968Y4718812D01*
X9407956Y4719929D01*
X9416542Y4723180D01*
X9421672Y4728667D01*
X9423400Y4736338D01*
X9423400Y4767072D01*
X9421672Y4775200D01*
X9416542Y4780991D01*
X9407956Y4784445D01*
G37*
G36*
X9544812Y4785614D02*
G01*
X9540189Y4785512D01*
X9531299Y4784598D01*
X9527032Y4783836D01*
X9527032Y4776724D01*
X9531654Y4777740D01*
X9536125Y4778451D01*
X9544558Y4779010D01*
X9548164Y4778908D01*
X9554210Y4777994D01*
X9557004Y4776978D01*
X9559544Y4775403D01*
X9561372Y4773320D01*
X9562490Y4770577D01*
X9562846Y4767326D01*
X9562846Y4736846D01*
X9558172Y4728464D01*
X9544050Y4725670D01*
X9535718Y4726228D01*
X9526524Y4727956D01*
X9526524Y4720590D01*
X9535414Y4719269D01*
X9540036Y4718913D01*
X9544812Y4718812D01*
X9556699Y4719929D01*
X9565182Y4723180D01*
X9570313Y4728667D01*
X9571990Y4736338D01*
X9571990Y4767072D01*
X9570313Y4775200D01*
X9565182Y4780991D01*
X9556699Y4784445D01*
G37*
G36*
X9693402Y4785614D02*
G01*
X9688880Y4785512D01*
X9679990Y4784598D01*
X9675622Y4783836D01*
X9675622Y4776724D01*
X9684816Y4778451D01*
X9693148Y4779010D01*
X9696907Y4778908D01*
X9701479Y4778298D01*
X9704273Y4777536D01*
X9705594Y4776978D01*
X9708134Y4775403D01*
X9709962Y4773320D01*
X9711080Y4770577D01*
X9711436Y4767326D01*
X9711436Y4736846D01*
X9706813Y4728464D01*
X9692894Y4725670D01*
X9684461Y4726228D01*
X9679990Y4726940D01*
X9675368Y4727956D01*
X9675368Y4720590D01*
X9684054Y4719269D01*
X9688677Y4718913D01*
X9693402Y4718812D01*
X9705390Y4719929D01*
X9713976Y4723180D01*
X9719106Y4728667D01*
X9720834Y4736338D01*
X9720834Y4767072D01*
X9719106Y4775200D01*
X9713976Y4780991D01*
X9705390Y4784445D01*
G37*
G36*
X9842246Y4785614D02*
G01*
X9837623Y4785512D01*
X9828733Y4784598D01*
X9824466Y4783836D01*
X9824466Y4776724D01*
X9829088Y4777740D01*
X9833559Y4778451D01*
X9841992Y4779010D01*
X9845598Y4778908D01*
X9851644Y4777994D01*
X9854438Y4776978D01*
X9856978Y4775403D01*
X9858806Y4773320D01*
X9859924Y4770577D01*
X9860280Y4767326D01*
X9860280Y4736846D01*
X9855555Y4728464D01*
X9841484Y4725670D01*
X9833152Y4726228D01*
X9823958Y4727956D01*
X9823958Y4720590D01*
X9832695Y4719269D01*
X9837369Y4718913D01*
X9842246Y4718812D01*
X9854133Y4719929D01*
X9862616Y4723180D01*
X9867747Y4728667D01*
X9869424Y4736338D01*
X9869424Y4767072D01*
X9867747Y4775200D01*
X9862616Y4780991D01*
X9854133Y4784445D01*
G37*
G36*
X9463532Y4784598D02*
G01*
X9463532Y4726432D01*
X9431782Y4726432D01*
X9431782Y4719828D01*
X9473438Y4719828D01*
X9473438Y4784598D01*
G37*
G36*
X9490202Y4784598D02*
G01*
X9490303Y4731105D01*
X9490659Y4728514D01*
X9491218Y4726381D01*
X9491980Y4724654D01*
X9492996Y4723130D01*
X9494266Y4721860D01*
X9495790Y4720844D01*
X9497568Y4720082D01*
X9502140Y4719116D01*
X9508236Y4718812D01*
X9515144Y4719066D01*
X9520174Y4719828D01*
X9520174Y4726432D01*
X9514382Y4725111D01*
X9509252Y4724654D01*
X9505899Y4724857D01*
X9503410Y4725416D01*
X9501682Y4726432D01*
X9500616Y4727956D01*
X9500057Y4730242D01*
X9499854Y4733544D01*
X9499854Y4784598D01*
G37*
G36*
X9612376Y4784598D02*
G01*
X9612376Y4726432D01*
X9580372Y4726432D01*
X9580372Y4719828D01*
X9622028Y4719828D01*
X9622028Y4784598D01*
G37*
G36*
X9638792Y4784598D02*
G01*
X9638893Y4731105D01*
X9639249Y4728514D01*
X9639808Y4726381D01*
X9640570Y4724654D01*
X9641586Y4723130D01*
X9642856Y4721860D01*
X9644380Y4720844D01*
X9646158Y4720082D01*
X9650730Y4719116D01*
X9656826Y4718812D01*
X9663887Y4719066D01*
X9668764Y4719828D01*
X9668764Y4726432D01*
X9663023Y4725111D01*
X9658096Y4724654D01*
X9654590Y4724857D01*
X9652254Y4725416D01*
X9650526Y4726432D01*
X9649460Y4727956D01*
X9648698Y4730242D01*
X9648444Y4733544D01*
X9648444Y4784598D01*
G37*
G36*
X9760966Y4784598D02*
G01*
X9760966Y4726432D01*
X9729216Y4726432D01*
X9729216Y4719828D01*
X9770872Y4719828D01*
X9770872Y4784598D01*
G37*
G36*
X9787636Y4784598D02*
G01*
X9787737Y4731105D01*
X9788093Y4728514D01*
X9788652Y4726381D01*
X9789414Y4724654D01*
X9790430Y4723130D01*
X9791700Y4721860D01*
X9793224Y4720844D01*
X9795002Y4720082D01*
X9799574Y4719116D01*
X9805670Y4718812D01*
X9812528Y4719066D01*
X9817354Y4719828D01*
X9817354Y4726432D01*
X9811766Y4725111D01*
X9806686Y4724654D01*
X9803333Y4724857D01*
X9800844Y4725416D01*
X9799116Y4726432D01*
X9798050Y4727956D01*
X9797491Y4730242D01*
X9797288Y4733544D01*
X9797288Y4784598D01*
G37*
G36*
X9909810Y4784598D02*
G01*
X9909810Y4726432D01*
X9877806Y4726432D01*
X9877806Y4719828D01*
X9919462Y4719828D01*
X9919462Y4784598D01*
G37*
G36*
X9936226Y4784598D02*
G01*
X9936327Y4731105D01*
X9936683Y4728514D01*
X9937242Y4726381D01*
X9938004Y4724654D01*
X9939020Y4723130D01*
X9940290Y4721860D01*
X9941814Y4720844D01*
X9943592Y4720082D01*
X9948164Y4719116D01*
X9954260Y4718812D01*
X9961168Y4719066D01*
X9966198Y4719828D01*
X9966198Y4726432D01*
X9960508Y4725111D01*
X9955530Y4724654D01*
X9951974Y4724857D01*
X9949434Y4725416D01*
X9947859Y4726432D01*
X9946640Y4727956D01*
X9946081Y4730242D01*
X9945878Y4733544D01*
X9945878Y4784598D01*
G37*
G36*
X6225286Y5417312D02*
G01*
X6206286Y5415686D01*
X6193536Y5410708D01*
X6186322Y5401868D01*
X6183884Y5388610D01*
X6183884Y5367020D01*
X6184036Y5363616D01*
X6184442Y5360466D01*
X6185154Y5357622D01*
X6186170Y5355082D01*
X6187592Y5352745D01*
X6189421Y5350510D01*
X6191554Y5348427D01*
X6194044Y5346446D01*
X6200648Y5342432D01*
X6204915Y5340299D01*
X6240272Y5324094D01*
X6250381Y5316524D01*
X6253734Y5306060D01*
X6253734Y5297424D01*
X6183884Y5297424D01*
X6183884Y5283200D01*
X6272276Y5283200D01*
X6272174Y5309565D01*
X6271260Y5314899D01*
X6270498Y5317490D01*
X6268212Y5322011D01*
X6265418Y5325872D01*
X6262420Y5328818D01*
X6253175Y5335168D01*
X6244234Y5339791D01*
X6216396Y5352034D01*
X6206693Y5359400D01*
X6203442Y5369814D01*
X6203442Y5387848D01*
X6203797Y5392166D01*
X6204915Y5395671D01*
X6206744Y5398363D01*
X6209284Y5400294D01*
X6212636Y5401716D01*
X6217005Y5402783D01*
X6222542Y5403392D01*
X6229096Y5403596D01*
X6236766Y5403342D01*
X6245758Y5402529D01*
X6256070Y5401157D01*
X6267704Y5399278D01*
X6267704Y5413502D01*
X6257340Y5415178D01*
X6246825Y5416346D01*
X6236106Y5417058D01*
G37*
G36*
X6401562Y5417058D02*
G01*
X6382054Y5415838D01*
X6368796Y5412232D01*
X6364325Y5409285D01*
X6361176Y5405424D01*
X6359245Y5400751D01*
X6358636Y5395214D01*
X6358636Y5369814D01*
X6358940Y5366766D01*
X6359906Y5364022D01*
X6361480Y5361584D01*
X6363716Y5359400D01*
X6366408Y5357418D01*
X6369507Y5355844D01*
X6372910Y5354624D01*
X6376670Y5353812D01*
X6376670Y5353050D01*
X6372250Y5352237D01*
X6365290Y5350256D01*
X6361684Y5348732D01*
X6358585Y5346496D01*
X6356350Y5343601D01*
X6355029Y5339994D01*
X6354572Y5335778D01*
X6354572Y5309362D01*
X6354775Y5306009D01*
X6355334Y5302808D01*
X6356299Y5299811D01*
X6357620Y5296916D01*
X6359245Y5294376D01*
X6361125Y5292140D01*
X6363208Y5290210D01*
X6367678Y5287213D01*
X6373012Y5284927D01*
X6379565Y5283149D01*
X6386169Y5282031D01*
X6393180Y5281472D01*
X6399885Y5281218D01*
X6411620Y5281422D01*
X6420916Y5282133D01*
X6430772Y5283301D01*
X6441186Y5284978D01*
X6441186Y5299710D01*
X6429603Y5297474D01*
X6419037Y5295900D01*
X6409436Y5294934D01*
X6400800Y5294630D01*
X6389014Y5295595D01*
X6380581Y5298440D01*
X6375552Y5303215D01*
X6373876Y5309870D01*
X6373876Y5332476D01*
X6374434Y5336184D01*
X6376111Y5339283D01*
X6378854Y5341670D01*
X6382766Y5343398D01*
X6386830Y5344210D01*
X6390386Y5344668D01*
X6394196Y5344871D01*
X6424422Y5344922D01*
X6424422Y5357622D01*
X6397701Y5357672D01*
X6393942Y5357876D01*
X6390386Y5358384D01*
X6384290Y5360009D01*
X6382461Y5360873D01*
X6380835Y5361940D01*
X6379464Y5363210D01*
X6378346Y5364734D01*
X6377584Y5366461D01*
X6377076Y5368391D01*
X6376924Y5370576D01*
X6376924Y5394198D01*
X6383020Y5402021D01*
X6401308Y5404612D01*
X6418783Y5403799D01*
X6438646Y5401310D01*
X6438646Y5415280D01*
X6420612Y5416600D01*
G37*
G36*
X6604000Y5383530D02*
G01*
X6585203Y5381701D01*
X6572503Y5376164D01*
X6565290Y5365800D01*
X6562852Y5350002D01*
X6562852Y5340350D01*
X6581140Y5340350D01*
X6581140Y5355844D01*
X6581495Y5359958D01*
X6582562Y5363362D01*
X6584289Y5366054D01*
X6586728Y5368036D01*
X6589877Y5369458D01*
X6593941Y5370525D01*
X6599021Y5371134D01*
X6605016Y5371338D01*
X6610908Y5371134D01*
X6615938Y5370525D01*
X6620052Y5369458D01*
X6623303Y5368036D01*
X6625742Y5366054D01*
X6627469Y5363362D01*
X6628536Y5359958D01*
X6628892Y5355844D01*
X6628892Y5340350D01*
X6562852Y5340350D01*
X6562852Y5328412D01*
X6628892Y5328412D01*
X6628892Y5313426D01*
X6628434Y5308701D01*
X6627114Y5304739D01*
X6624878Y5301488D01*
X6621780Y5298948D01*
X6617766Y5296966D01*
X6612788Y5295544D01*
X6606844Y5294680D01*
X6599936Y5294376D01*
X6584696Y5295595D01*
X6566916Y5299202D01*
X6566916Y5285232D01*
X6585102Y5282184D01*
X6602475Y5281168D01*
X6616192Y5281980D01*
X6627469Y5284520D01*
X6636207Y5288686D01*
X6642455Y5294477D01*
X6646164Y5301996D01*
X6647434Y5311140D01*
X6647434Y5350002D01*
X6644894Y5365445D01*
X6637274Y5375656D01*
X6623761Y5381548D01*
G37*
G36*
X6662166Y5383530D02*
G01*
X6662166Y5368036D01*
X6672325Y5368036D01*
X6678371Y5367832D01*
X6683502Y5367172D01*
X6687769Y5366054D01*
X6691122Y5364480D01*
X6693662Y5362498D01*
X6695490Y5359857D01*
X6696608Y5356504D01*
X6696964Y5352542D01*
X6696964Y5283200D01*
X6715252Y5283200D01*
X6715252Y5381498D01*
X6697980Y5381498D01*
X6697980Y5365496D01*
X6697725Y5367782D01*
X6696964Y5370017D01*
X6695694Y5372201D01*
X6693916Y5374386D01*
X6691731Y5376316D01*
X6689293Y5378094D01*
X6686550Y5379618D01*
X6683502Y5380990D01*
X6680352Y5382107D01*
X6677202Y5382920D01*
X6674103Y5383377D01*
G37*
G36*
X6458204Y5381498D02*
G01*
X6492494Y5283200D01*
X6514338Y5283200D01*
X6549644Y5381498D01*
X6530340Y5381498D01*
X6503162Y5298948D01*
X6502146Y5298948D01*
X6475730Y5381498D01*
G37*
G36*
X6301232Y5305044D02*
G01*
X6301232Y5283200D01*
X6324854Y5283200D01*
X6324854Y5305044D01*
G37*
G36*
X9066530Y8141716D02*
G01*
X9066530Y8095234D01*
X9040876Y8095234D01*
X9040876Y8089900D01*
X9074150Y8089900D01*
X9074150Y8141716D01*
G37*
G36*
X9104630Y8141716D02*
G01*
X9098737Y8141411D01*
X9094216Y8140446D01*
X9091015Y8138972D01*
X9089136Y8137144D01*
X9088374Y8135010D01*
X9088120Y8132064D01*
X9088120Y8125206D01*
X9095232Y8125206D01*
X9095384Y8132724D01*
X9095790Y8133892D01*
X9096502Y8134858D01*
X9097518Y8135620D01*
X9100312Y8136381D01*
X9104630Y8136636D01*
X9115552Y8136636D01*
X9115552Y8119109D01*
X9102140Y8119211D01*
X9100261Y8119465D01*
X9098686Y8119973D01*
X9096502Y8121497D01*
X9095790Y8122513D01*
X9095384Y8123783D01*
X9095232Y8125206D01*
X9088120Y8125206D01*
X9088221Y8123529D01*
X9088577Y8122208D01*
X9089898Y8120125D01*
X9091980Y8118602D01*
X9095232Y8117586D01*
X9095232Y8117331D01*
X9091371Y8116265D01*
X9088374Y8114538D01*
X9087154Y8113318D01*
X9086291Y8111998D01*
X9085732Y8110524D01*
X9085580Y8108950D01*
X9085580Y8100568D01*
X9093454Y8100568D01*
X9093504Y8109407D01*
X9093860Y8111083D01*
X9094774Y8112353D01*
X9096146Y8113217D01*
X9099296Y8113979D01*
X9102801Y8114284D01*
X9115552Y8114284D01*
X9115552Y8095234D01*
X9101429Y8095335D01*
X9099092Y8095538D01*
X9097213Y8095945D01*
X9095740Y8096503D01*
X9094724Y8097215D01*
X9094012Y8098180D01*
X9093606Y8099247D01*
X9093454Y8100568D01*
X9085580Y8100568D01*
X9085834Y8097621D01*
X9086646Y8095386D01*
X9088018Y8093557D01*
X9089898Y8092186D01*
X9092387Y8091170D01*
X9095638Y8090458D01*
X9099499Y8090052D01*
X9123172Y8089900D01*
X9123172Y8141716D01*
G37*
G36*
X9151366Y8141716D02*
G01*
X9139313Y8110981D01*
X9147048Y8110981D01*
X9155938Y8134350D01*
X9156700Y8134350D01*
X9165336Y8110981D01*
X9139313Y8110981D01*
X9131046Y8089900D01*
X9139174Y8089900D01*
X9145016Y8105648D01*
X9167368Y8105648D01*
X9173210Y8089900D01*
X9180830Y8089900D01*
X9160256Y8141716D01*
G37*
G36*
X9384639Y8142731D02*
G01*
X9379356Y8142325D01*
X9374581Y8141055D01*
X9372447Y8139887D01*
X9370720Y8138464D01*
X9369348Y8136432D01*
X9368332Y8133740D01*
X9367824Y8130590D01*
X9367781Y8102092D01*
X9375140Y8102092D01*
X9375190Y8130946D01*
X9375698Y8133740D01*
X9376156Y8134858D01*
X9377476Y8136381D01*
X9379458Y8137398D01*
X9382252Y8137753D01*
X9386062Y8137906D01*
X9390075Y8137804D01*
X9392920Y8137398D01*
X9394901Y8136381D01*
X9396222Y8134858D01*
X9396984Y8132470D01*
X9397238Y8129270D01*
X9397187Y8100415D01*
X9396679Y8097774D01*
X9396222Y8096758D01*
X9394698Y8095284D01*
X9392666Y8094472D01*
X9389872Y8093913D01*
X9386062Y8093709D01*
X9382252Y8093913D01*
X9379458Y8094472D01*
X9377476Y8095284D01*
X9376156Y8096758D01*
X9375394Y8098993D01*
X9375140Y8102092D01*
X9367781Y8102092D01*
X9368028Y8099247D01*
X9368790Y8096503D01*
X9370009Y8094218D01*
X9371584Y8092440D01*
X9373362Y8091322D01*
X9378188Y8089646D01*
X9383268Y8089188D01*
X9390684Y8089290D01*
X9395460Y8090052D01*
X9397949Y8090712D01*
X9399981Y8091728D01*
X9401505Y8093151D01*
X9402775Y8095183D01*
X9403791Y8097723D01*
X9404299Y8100669D01*
X9404350Y8128508D01*
X9404096Y8132013D01*
X9403334Y8134858D01*
X9402165Y8137347D01*
X9400794Y8139175D01*
X9399016Y8140496D01*
X9396730Y8141462D01*
X9392920Y8142325D01*
X9387484Y8142731D01*
G37*
G36*
X9414256Y8141716D02*
G01*
X9414256Y8136381D01*
X9441180Y8136381D01*
X9441180Y8119364D01*
X9416796Y8119364D01*
X9416796Y8114030D01*
X9441180Y8114030D01*
X9441180Y8095234D01*
X9413240Y8095234D01*
X9413240Y8089900D01*
X9449054Y8089900D01*
X9449054Y8141716D01*
G37*
G36*
X9462516Y8141716D02*
G01*
X9462516Y8089900D01*
X9470136Y8089900D01*
X9470136Y8114030D01*
X9497822Y8114030D01*
X9497822Y8089900D01*
X9505696Y8089900D01*
X9505696Y8141716D01*
X9497822Y8141716D01*
X9497822Y8119364D01*
X9470136Y8119364D01*
X9470136Y8141716D01*
G37*
G36*
X9157716Y7863331D02*
G01*
X9153702Y7863179D01*
X9150299Y7862671D01*
X9147454Y7861909D01*
X9145270Y7860792D01*
X9143593Y7859166D01*
X9142425Y7857185D01*
X9141714Y7854746D01*
X9141460Y7851902D01*
X9141510Y7842148D01*
X9142018Y7839760D01*
X9143034Y7837830D01*
X9144558Y7836153D01*
X9146692Y7834630D01*
X9149740Y7832953D01*
X9163812Y7826502D01*
X9166047Y7825231D01*
X9167622Y7823657D01*
X9168587Y7821777D01*
X9168892Y7819644D01*
X9168892Y7816088D01*
X9141460Y7816088D01*
X9141460Y7810500D01*
X9176258Y7810500D01*
X9176207Y7820914D01*
X9175851Y7822946D01*
X9174226Y7826603D01*
X9173159Y7827873D01*
X9171635Y7829194D01*
X9164167Y7833359D01*
X9154414Y7837678D01*
X9152178Y7838948D01*
X9150604Y7840522D01*
X9149638Y7842402D01*
X9149334Y7844536D01*
X9149435Y7853375D01*
X9149842Y7854797D01*
X9150502Y7855915D01*
X9151366Y7856728D01*
X9154464Y7857490D01*
X9159240Y7857744D01*
X9165844Y7857388D01*
X9174480Y7856220D01*
X9174480Y7861808D01*
X9166250Y7862976D01*
G37*
G36*
X9038336Y7862316D02*
G01*
X9058910Y7810500D01*
X9068054Y7810500D01*
X9088120Y7862316D01*
X9079992Y7862316D01*
X9063482Y7817866D01*
X9062720Y7817866D01*
X9045956Y7862316D01*
G37*
G36*
X9099042Y7862316D02*
G01*
X9099042Y7856220D01*
X9105646Y7856220D01*
X9125204Y7827264D01*
X9105646Y7827264D01*
X9105646Y7856220D01*
X9099042Y7856220D01*
X9099042Y7827264D01*
X9093454Y7827264D01*
X9093454Y7821930D01*
X9099042Y7821930D01*
X9099042Y7810500D01*
X9105646Y7810500D01*
X9105646Y7821930D01*
X9131554Y7821930D01*
X9131554Y7828280D01*
X9107932Y7862316D01*
G37*
G36*
X9421876Y7850631D02*
G01*
X9414611Y7850276D01*
X9407652Y7849108D01*
X9407652Y7843266D01*
X9411360Y7844180D01*
X9418370Y7845145D01*
X9423196Y7845247D01*
X9428327Y7844637D01*
X9430512Y7843977D01*
X9433661Y7842402D01*
X9435134Y7840725D01*
X9436049Y7838592D01*
X9436354Y7835900D01*
X9436354Y7811516D01*
X9435439Y7807604D01*
X9432594Y7804861D01*
X9427921Y7803184D01*
X9421368Y7802625D01*
X9414713Y7803083D01*
X9407398Y7804403D01*
X9407398Y7798562D01*
X9414306Y7797393D01*
X9421876Y7797038D01*
X9438284Y7800543D01*
X9443720Y7811008D01*
X9443720Y7835646D01*
X9438284Y7846872D01*
G37*
G36*
X9358884Y7849616D02*
G01*
X9358884Y7844281D01*
X9376410Y7844281D01*
X9376410Y7797800D01*
X9384284Y7797800D01*
X9384284Y7844281D01*
X9401810Y7844281D01*
X9401810Y7849616D01*
G37*
G36*
X9122156Y7558531D02*
G01*
X9114891Y7558176D01*
X9107932Y7557008D01*
X9107932Y7551166D01*
X9111792Y7552080D01*
X9118904Y7553045D01*
X9123629Y7553147D01*
X9128658Y7552537D01*
X9130893Y7551877D01*
X9134043Y7550302D01*
X9135465Y7548625D01*
X9136329Y7546492D01*
X9136634Y7543800D01*
X9136634Y7519416D01*
X9135719Y7515504D01*
X9132874Y7512761D01*
X9128201Y7511084D01*
X9121648Y7510525D01*
X9114993Y7510983D01*
X9107678Y7512303D01*
X9107678Y7506462D01*
X9114739Y7505293D01*
X9122156Y7504938D01*
X9138513Y7508443D01*
X9144000Y7518908D01*
X9144000Y7543546D01*
X9138513Y7554772D01*
G37*
G36*
X9061704Y7557516D02*
G01*
X9061704Y7552181D01*
X9089644Y7552181D01*
X9089644Y7535164D01*
X9064244Y7535164D01*
X9064244Y7529830D01*
X9089644Y7529830D01*
X9089644Y7505700D01*
X9097264Y7505700D01*
X9097264Y7557516D01*
G37*
G36*
X9165336Y7557516D02*
G01*
X9160764Y7556753D01*
X9158274Y7556042D01*
X9156446Y7554975D01*
X9155074Y7553706D01*
X9153906Y7551928D01*
X9153144Y7549896D01*
X9152890Y7547356D01*
X9152890Y7536942D01*
X9160510Y7536942D01*
X9160560Y7547406D01*
X9161068Y7549184D01*
X9162135Y7550607D01*
X9163761Y7551623D01*
X9168130Y7552690D01*
X9180322Y7552690D01*
X9180322Y7529322D01*
X9169146Y7529423D01*
X9165183Y7530338D01*
X9163558Y7531100D01*
X9162237Y7532116D01*
X9161272Y7533436D01*
X9160713Y7535062D01*
X9160510Y7536942D01*
X9152890Y7536942D01*
X9153194Y7533640D01*
X9154109Y7531049D01*
X9155582Y7528915D01*
X9157716Y7527290D01*
X9160560Y7526070D01*
X9163913Y7525207D01*
X9167926Y7524648D01*
X9180322Y7524496D01*
X9180322Y7505700D01*
X9188196Y7505700D01*
X9188196Y7557516D01*
G37*
G36*
X9328912Y7557516D02*
G01*
X9328912Y7552181D01*
X9356852Y7552181D01*
X9356852Y7535164D01*
X9331452Y7535164D01*
X9331452Y7529830D01*
X9356852Y7529830D01*
X9356852Y7505700D01*
X9364472Y7505700D01*
X9364472Y7557516D01*
G37*
G36*
X9376156Y7557516D02*
G01*
X9376156Y7552181D01*
X9403080Y7552181D01*
X9403080Y7535164D01*
X9378696Y7535164D01*
X9378696Y7529830D01*
X9403080Y7529830D01*
X9403080Y7511034D01*
X9375140Y7511034D01*
X9375140Y7505700D01*
X9410954Y7505700D01*
X9410954Y7557516D01*
G37*
G36*
X9424416Y7557516D02*
G01*
X9424416Y7505700D01*
X9432036Y7505700D01*
X9432036Y7529830D01*
X9459722Y7529830D01*
X9459722Y7505700D01*
X9467596Y7505700D01*
X9467596Y7557516D01*
X9459722Y7557516D01*
X9459722Y7535164D01*
X9432036Y7535164D01*
X9432036Y7557516D01*
G37*
G36*
X9151620Y7266431D02*
G01*
X9142222Y7266127D01*
X9133840Y7265162D01*
X9133840Y7259066D01*
X9137497Y7259777D01*
X9147556Y7260742D01*
X9151620Y7260844D01*
X9163812Y7258507D01*
X9167876Y7251446D01*
X9167774Y7225842D01*
X9167520Y7224623D01*
X9166352Y7222490D01*
X9164523Y7220915D01*
X9162034Y7219696D01*
X9159494Y7218883D01*
X9156954Y7218425D01*
X9151112Y7218172D01*
X9145574Y7218476D01*
X9139682Y7219442D01*
X9139682Y7237730D01*
X9151874Y7237730D01*
X9151874Y7243064D01*
X9132570Y7243064D01*
X9132570Y7215124D01*
X9137650Y7214108D01*
X9142526Y7213396D01*
X9151620Y7212838D01*
X9158224Y7213092D01*
X9161068Y7213549D01*
X9167368Y7215428D01*
X9170162Y7216648D01*
X9172244Y7218425D01*
X9173972Y7220712D01*
X9175140Y7223658D01*
X9175496Y7226808D01*
X9175496Y7251446D01*
X9175343Y7253630D01*
X9174937Y7255611D01*
X9174226Y7257440D01*
X9173210Y7259066D01*
X9171940Y7260590D01*
X9170466Y7261859D01*
X9168790Y7262875D01*
X9164980Y7264349D01*
X9161272Y7265365D01*
X9157665Y7266025D01*
G37*
G36*
X9042146Y7265416D02*
G01*
X9025788Y7261707D01*
X9020302Y7250684D01*
X9020302Y7227824D01*
X9027922Y7227824D01*
X9027972Y7252055D01*
X9028480Y7254443D01*
X9028938Y7255509D01*
X9030462Y7257288D01*
X9032494Y7258558D01*
X9036812Y7259828D01*
X9039352Y7260031D01*
X9055100Y7260081D01*
X9055100Y7218934D01*
X9042654Y7218934D01*
X9036202Y7219492D01*
X9031630Y7221169D01*
X9028836Y7223912D01*
X9027922Y7227824D01*
X9020302Y7227824D01*
X9025737Y7217105D01*
X9042146Y7213600D01*
X9062974Y7213600D01*
X9062974Y7265416D01*
G37*
G36*
X9076436Y7265416D02*
G01*
X9076436Y7213600D01*
X9085580Y7213600D01*
X9114028Y7257288D01*
X9114028Y7213600D01*
X9120632Y7213600D01*
X9120632Y7265416D01*
X9111488Y7265416D01*
X9083040Y7222744D01*
X9083040Y7265416D01*
G37*
G36*
X9202166Y7265416D02*
G01*
X9190113Y7234681D01*
X9197848Y7234681D01*
X9206738Y7258050D01*
X9207500Y7258050D01*
X9216136Y7234681D01*
X9190113Y7234681D01*
X9181846Y7213600D01*
X9189974Y7213600D01*
X9195816Y7229348D01*
X9218168Y7229348D01*
X9224010Y7213600D01*
X9231630Y7213600D01*
X9211056Y7265416D01*
G37*
G36*
X9066631Y6948931D02*
G01*
X9061551Y6948525D01*
X9056674Y6947255D01*
X9054490Y6946087D01*
X9052864Y6944664D01*
X9051594Y6942632D01*
X9050578Y6939940D01*
X9050070Y6936790D01*
X9050027Y6908292D01*
X9057132Y6908292D01*
X9057233Y6937146D01*
X9057843Y6939940D01*
X9059011Y6941870D01*
X9060637Y6943140D01*
X9061704Y6943598D01*
X9064498Y6943953D01*
X9072118Y6944004D01*
X9074912Y6943598D01*
X9076893Y6942581D01*
X9078214Y6941058D01*
X9078976Y6938670D01*
X9079230Y6935470D01*
X9079179Y6906615D01*
X9078671Y6903974D01*
X9077604Y6902145D01*
X9076893Y6901484D01*
X9074912Y6900672D01*
X9071914Y6900113D01*
X9068054Y6899909D01*
X9064447Y6900113D01*
X9061704Y6900672D01*
X9059570Y6901484D01*
X9058148Y6902958D01*
X9057386Y6905193D01*
X9057132Y6908292D01*
X9050027Y6908292D01*
X9050274Y6905447D01*
X9051036Y6902703D01*
X9052204Y6900418D01*
X9053576Y6898640D01*
X9055455Y6897522D01*
X9057640Y6896608D01*
X9060180Y6895846D01*
X9065260Y6895388D01*
X9072930Y6895490D01*
X9077502Y6896252D01*
X9079941Y6896912D01*
X9082125Y6897928D01*
X9083751Y6899351D01*
X9085021Y6901383D01*
X9086037Y6903923D01*
X9086545Y6906869D01*
X9086596Y6934708D01*
X9086342Y6938213D01*
X9085580Y6941058D01*
X9084360Y6943547D01*
X9082786Y6945375D01*
X9081008Y6946696D01*
X9078722Y6947662D01*
X9074912Y6948525D01*
X9070898Y6948881D01*
G37*
G36*
X9098280Y6947916D02*
G01*
X9098280Y6896100D01*
X9105900Y6896100D01*
X9105900Y6920230D01*
X9133586Y6920230D01*
X9133586Y6896100D01*
X9141206Y6896100D01*
X9141206Y6947916D01*
X9133586Y6947916D01*
X9133586Y6925564D01*
X9105900Y6925564D01*
X9105900Y6947916D01*
G37*
G36*
X9149842Y6947916D02*
G01*
X9149842Y6942581D01*
X9167368Y6942581D01*
X9167368Y6896100D01*
X9175242Y6896100D01*
X9175242Y6942581D01*
X9192768Y6942581D01*
X9192768Y6947916D01*
G37*
G36*
X9429750Y6961631D02*
G01*
X9425736Y6961479D01*
X9422333Y6960971D01*
X9419488Y6960209D01*
X9417304Y6959092D01*
X9415627Y6957466D01*
X9414459Y6955485D01*
X9413748Y6953046D01*
X9413494Y6950202D01*
X9413544Y6940448D01*
X9414052Y6938060D01*
X9414967Y6936130D01*
X9416491Y6934453D01*
X9418726Y6932930D01*
X9421774Y6931253D01*
X9435592Y6924802D01*
X9437928Y6923531D01*
X9439605Y6921957D01*
X9440570Y6920077D01*
X9440926Y6917944D01*
X9440926Y6914388D01*
X9413494Y6914388D01*
X9413494Y6908800D01*
X9448292Y6908800D01*
X9448241Y6919214D01*
X9447885Y6921246D01*
X9447123Y6923227D01*
X9446107Y6924903D01*
X9443618Y6927494D01*
X9436201Y6931659D01*
X9426194Y6935978D01*
X9423958Y6937248D01*
X9422384Y6938822D01*
X9421418Y6940702D01*
X9421114Y6942836D01*
X9421266Y6951675D01*
X9421672Y6953097D01*
X9422384Y6954215D01*
X9423400Y6955028D01*
X9426498Y6955790D01*
X9431274Y6956044D01*
X9437878Y6955688D01*
X9446514Y6954520D01*
X9446514Y6960108D01*
X9438284Y6961276D01*
G37*
G36*
X9474454Y6961631D02*
G01*
X9468408Y6961378D01*
X9460992Y6960616D01*
X9460992Y6954774D01*
X9469069Y6955739D01*
X9474962Y6956044D01*
X9481108Y6955739D01*
X9483293Y6955332D01*
X9484868Y6954774D01*
X9485884Y6953910D01*
X9486595Y6952742D01*
X9487001Y6951370D01*
X9487052Y6942531D01*
X9486696Y6941413D01*
X9486138Y6940499D01*
X9485376Y6939788D01*
X9484207Y6939229D01*
X9480753Y6938619D01*
X9472422Y6938518D01*
X9467545Y6938213D01*
X9464040Y6937248D01*
X9462617Y6936536D01*
X9461449Y6935673D01*
X9459722Y6933438D01*
X9458756Y6930390D01*
X9458452Y6926325D01*
X9458604Y6919975D01*
X9458960Y6917690D01*
X9459620Y6915658D01*
X9460484Y6913880D01*
X9461652Y6912457D01*
X9463074Y6911238D01*
X9464802Y6910171D01*
X9466834Y6909308D01*
X9471812Y6908342D01*
X9478010Y6908038D01*
X9485223Y6908342D01*
X9493758Y6909308D01*
X9493758Y6915658D01*
X9485020Y6914337D01*
X9477502Y6913880D01*
X9472320Y6914184D01*
X9470339Y6914591D01*
X9468866Y6915150D01*
X9467646Y6915912D01*
X9466783Y6916978D01*
X9466224Y6918350D01*
X9466072Y6926834D01*
X9466580Y6929628D01*
X9467240Y6930644D01*
X9468104Y6931406D01*
X9469170Y6931964D01*
X9470644Y6932371D01*
X9474708Y6932675D01*
X9480804Y6932675D01*
X9484360Y6932879D01*
X9487357Y6933438D01*
X9489795Y6934403D01*
X9491726Y6935724D01*
X9493046Y6937451D01*
X9494012Y6939686D01*
X9494570Y6942277D01*
X9494672Y6951472D01*
X9493758Y6954926D01*
X9492996Y6956298D01*
X9491827Y6957517D01*
X9488678Y6959549D01*
X9486646Y6960362D01*
X9481312Y6961327D01*
G37*
G36*
X9376918Y6960616D02*
G01*
X9364865Y6929881D01*
X9372600Y6929881D01*
X9381490Y6953250D01*
X9382252Y6953250D01*
X9390888Y6929881D01*
X9364865Y6929881D01*
X9356598Y6908800D01*
X9364726Y6908800D01*
X9370822Y6924548D01*
X9392920Y6924548D01*
X9398762Y6908800D01*
X9406382Y6908800D01*
X9385808Y6960616D01*
G37*
G36*
X9178544Y6644131D02*
G01*
X9169095Y6643827D01*
X9160510Y6642862D01*
X9160510Y6636766D01*
X9164218Y6637477D01*
X9174226Y6638442D01*
X9178290Y6638544D01*
X9190685Y6636207D01*
X9194800Y6629146D01*
X9194698Y6603542D01*
X9193784Y6601256D01*
X9192209Y6599326D01*
X9190177Y6597954D01*
X9187688Y6596938D01*
X9184995Y6596278D01*
X9179509Y6595872D01*
X9175343Y6595973D01*
X9169603Y6596583D01*
X9166606Y6597142D01*
X9166606Y6615430D01*
X9178798Y6615430D01*
X9178798Y6620764D01*
X9159240Y6620764D01*
X9159240Y6592824D01*
X9164370Y6591808D01*
X9169247Y6591096D01*
X9178544Y6590538D01*
X9184894Y6590792D01*
X9187942Y6591249D01*
X9194241Y6593128D01*
X9196832Y6594348D01*
X9199118Y6596125D01*
X9200896Y6598412D01*
X9202013Y6601307D01*
X9202420Y6604508D01*
X9202420Y6629146D01*
X9202267Y6631330D01*
X9201861Y6633311D01*
X9201150Y6635140D01*
X9200134Y6636766D01*
X9198864Y6638290D01*
X9197390Y6639559D01*
X9195714Y6640575D01*
X9191802Y6642049D01*
X9187992Y6643065D01*
X9184335Y6643725D01*
G37*
G36*
X9069070Y6643116D02*
G01*
X9052661Y6639407D01*
X9047226Y6628384D01*
X9047226Y6605524D01*
X9054592Y6605524D01*
X9054693Y6629755D01*
X9055303Y6632143D01*
X9056522Y6634175D01*
X9058198Y6635699D01*
X9060281Y6636613D01*
X9062618Y6637274D01*
X9067596Y6637781D01*
X9082024Y6637781D01*
X9082024Y6596634D01*
X9069578Y6596634D01*
X9063024Y6597192D01*
X9058351Y6598869D01*
X9055506Y6601612D01*
X9054592Y6605524D01*
X9047226Y6605524D01*
X9052610Y6594805D01*
X9068816Y6591300D01*
X9089644Y6591300D01*
X9089644Y6643116D01*
G37*
G36*
X9103106Y6643116D02*
G01*
X9103106Y6591300D01*
X9112504Y6591300D01*
X9140698Y6634988D01*
X9140698Y6591300D01*
X9147556Y6591300D01*
X9147556Y6643116D01*
X9138158Y6643116D01*
X9109964Y6600444D01*
X9109964Y6643116D01*
G37*
G36*
X9474454Y6669531D02*
G01*
X9468408Y6669278D01*
X9460992Y6668516D01*
X9460992Y6662674D01*
X9469069Y6663639D01*
X9474962Y6663944D01*
X9481108Y6663639D01*
X9483293Y6663232D01*
X9484868Y6662674D01*
X9485884Y6661810D01*
X9486595Y6660642D01*
X9487001Y6659270D01*
X9487052Y6650431D01*
X9486696Y6649313D01*
X9486138Y6648399D01*
X9485376Y6647688D01*
X9484207Y6647129D01*
X9480753Y6646519D01*
X9472422Y6646418D01*
X9467545Y6646113D01*
X9464040Y6645148D01*
X9462617Y6644436D01*
X9461449Y6643573D01*
X9459722Y6641338D01*
X9458756Y6638290D01*
X9458452Y6634225D01*
X9458604Y6627875D01*
X9458960Y6625590D01*
X9459620Y6623558D01*
X9460484Y6621780D01*
X9461652Y6620357D01*
X9463074Y6619138D01*
X9464802Y6618071D01*
X9466834Y6617208D01*
X9471812Y6616242D01*
X9478010Y6615938D01*
X9485223Y6616242D01*
X9493758Y6617208D01*
X9493758Y6623558D01*
X9485020Y6622237D01*
X9477502Y6621780D01*
X9472320Y6622084D01*
X9470339Y6622491D01*
X9468866Y6623050D01*
X9467646Y6623812D01*
X9466783Y6624878D01*
X9466224Y6626250D01*
X9466072Y6634734D01*
X9466580Y6637528D01*
X9467240Y6638544D01*
X9468104Y6639306D01*
X9469170Y6639864D01*
X9470644Y6640271D01*
X9474708Y6640575D01*
X9480804Y6640575D01*
X9484360Y6640779D01*
X9487357Y6641338D01*
X9489795Y6642303D01*
X9491726Y6643624D01*
X9493046Y6645351D01*
X9494012Y6647586D01*
X9494570Y6650177D01*
X9494672Y6659372D01*
X9493758Y6662826D01*
X9492996Y6664198D01*
X9491827Y6665417D01*
X9488678Y6667449D01*
X9486646Y6668262D01*
X9481312Y6669227D01*
G37*
G36*
X9376918Y6668516D02*
G01*
X9364865Y6637781D01*
X9372600Y6637781D01*
X9381490Y6661150D01*
X9382252Y6661150D01*
X9390888Y6637781D01*
X9364865Y6637781D01*
X9356598Y6616700D01*
X9364726Y6616700D01*
X9370822Y6632448D01*
X9392920Y6632448D01*
X9398762Y6616700D01*
X9406382Y6616700D01*
X9385808Y6668516D01*
G37*
G36*
X9421622Y6668516D02*
G01*
X9421622Y6616700D01*
X9428480Y6616700D01*
X9428480Y6661403D01*
X9444228Y6650990D01*
X9444228Y6657594D01*
X9428480Y6668516D01*
G37*
G36*
X9074912Y6352032D02*
G01*
X9068866Y6351778D01*
X9061450Y6351016D01*
X9061450Y6345174D01*
X9069527Y6346139D01*
X9075420Y6346444D01*
X9081566Y6346139D01*
X9083751Y6345732D01*
X9085326Y6345174D01*
X9086443Y6344310D01*
X9087256Y6343142D01*
X9087713Y6341770D01*
X9087764Y6332931D01*
X9087358Y6331813D01*
X9086697Y6330899D01*
X9085834Y6330188D01*
X9084665Y6329629D01*
X9081211Y6329019D01*
X9072880Y6328918D01*
X9068104Y6328613D01*
X9064498Y6327648D01*
X9063075Y6326936D01*
X9061907Y6326073D01*
X9060180Y6323838D01*
X9059214Y6320790D01*
X9058910Y6316726D01*
X9059011Y6310376D01*
X9059418Y6308090D01*
X9060027Y6306058D01*
X9060942Y6304280D01*
X9062110Y6302857D01*
X9063532Y6301638D01*
X9065260Y6300571D01*
X9067292Y6299708D01*
X9072219Y6298742D01*
X9078468Y6298438D01*
X9085681Y6298742D01*
X9094216Y6299708D01*
X9094216Y6306058D01*
X9085580Y6304737D01*
X9077960Y6304280D01*
X9072880Y6304584D01*
X9069324Y6305550D01*
X9068104Y6306312D01*
X9067241Y6307378D01*
X9066682Y6308750D01*
X9066631Y6318758D01*
X9067038Y6320028D01*
X9067647Y6321044D01*
X9069628Y6322364D01*
X9071102Y6322771D01*
X9075166Y6323076D01*
X9081262Y6323076D01*
X9084818Y6323279D01*
X9087815Y6323838D01*
X9090253Y6324803D01*
X9092184Y6326124D01*
X9093504Y6327851D01*
X9094470Y6330086D01*
X9095028Y6332677D01*
X9095130Y6341872D01*
X9094216Y6345326D01*
X9093454Y6346698D01*
X9092285Y6347917D01*
X9089136Y6349949D01*
X9087104Y6350762D01*
X9081770Y6351727D01*
G37*
G36*
X9104884Y6351016D02*
G01*
X9104884Y6345682D01*
X9132062Y6345682D01*
X9132062Y6328664D01*
X9107424Y6328664D01*
X9107424Y6323330D01*
X9132062Y6323330D01*
X9132062Y6304534D01*
X9104122Y6304534D01*
X9104122Y6299200D01*
X9139682Y6299200D01*
X9139682Y6351016D01*
G37*
G36*
X9147810Y6351016D02*
G01*
X9166352Y6325616D01*
X9147048Y6299200D01*
X9155938Y6299200D01*
X9170670Y6320282D01*
X9185402Y6299200D01*
X9194038Y6299200D01*
X9174988Y6325616D01*
X9193276Y6351016D01*
X9184386Y6351016D01*
X9170670Y6330950D01*
X9156700Y6351016D01*
G37*
G36*
X9461754Y6364732D02*
G01*
X9455708Y6364478D01*
X9448292Y6363716D01*
X9448292Y6357874D01*
X9456369Y6358839D01*
X9462262Y6359144D01*
X9468408Y6358839D01*
X9470593Y6358432D01*
X9472168Y6357874D01*
X9473184Y6357010D01*
X9473895Y6355842D01*
X9474301Y6354470D01*
X9474352Y6345631D01*
X9473996Y6344513D01*
X9473438Y6343599D01*
X9472676Y6342888D01*
X9471507Y6342329D01*
X9468053Y6341719D01*
X9459722Y6341618D01*
X9454845Y6341313D01*
X9451340Y6340348D01*
X9449917Y6339636D01*
X9448749Y6338773D01*
X9447022Y6336538D01*
X9446056Y6333490D01*
X9445752Y6329426D01*
X9445904Y6323076D01*
X9446260Y6320790D01*
X9446920Y6318758D01*
X9447784Y6316980D01*
X9448952Y6315557D01*
X9450374Y6314338D01*
X9452102Y6313271D01*
X9454134Y6312408D01*
X9459112Y6311442D01*
X9465310Y6311138D01*
X9472523Y6311442D01*
X9481058Y6312408D01*
X9481058Y6318758D01*
X9472320Y6317437D01*
X9464802Y6316980D01*
X9459620Y6317284D01*
X9457639Y6317691D01*
X9456166Y6318250D01*
X9454946Y6319012D01*
X9454083Y6320078D01*
X9453524Y6321450D01*
X9453372Y6329934D01*
X9453880Y6332728D01*
X9454540Y6333744D01*
X9455404Y6334506D01*
X9456470Y6335064D01*
X9457944Y6335471D01*
X9462008Y6335776D01*
X9468104Y6335776D01*
X9471660Y6335979D01*
X9474657Y6336538D01*
X9477095Y6337503D01*
X9479026Y6338824D01*
X9480346Y6340551D01*
X9481312Y6342786D01*
X9481870Y6345377D01*
X9481972Y6354572D01*
X9481058Y6358026D01*
X9480296Y6359398D01*
X9479127Y6360617D01*
X9475978Y6362649D01*
X9473946Y6363462D01*
X9468612Y6364427D01*
G37*
G36*
X9369806Y6363716D02*
G01*
X9363710Y6363411D01*
X9359138Y6362446D01*
X9356140Y6360972D01*
X9355074Y6360109D01*
X9353753Y6358178D01*
X9353143Y6355638D01*
X9353042Y6347206D01*
X9360408Y6347206D01*
X9360560Y6354724D01*
X9360916Y6355892D01*
X9361576Y6356858D01*
X9362440Y6357620D01*
X9365437Y6358382D01*
X9369806Y6358636D01*
X9380474Y6358636D01*
X9380474Y6341110D01*
X9367215Y6341211D01*
X9365234Y6341465D01*
X9363659Y6341973D01*
X9362440Y6342634D01*
X9360916Y6344513D01*
X9360408Y6347206D01*
X9353042Y6347206D01*
X9353143Y6345529D01*
X9353499Y6344208D01*
X9354820Y6342126D01*
X9357055Y6340602D01*
X9360154Y6339586D01*
X9360154Y6339332D01*
X9356293Y6338265D01*
X9353296Y6336538D01*
X9352178Y6335318D01*
X9351365Y6333998D01*
X9350908Y6332524D01*
X9350756Y6330950D01*
X9350756Y6322568D01*
X9358376Y6322568D01*
X9358426Y6331407D01*
X9358934Y6333083D01*
X9359849Y6334353D01*
X9361119Y6335217D01*
X9364319Y6335979D01*
X9367824Y6336284D01*
X9380474Y6336284D01*
X9380474Y6317234D01*
X9366351Y6317335D01*
X9364065Y6317538D01*
X9362287Y6317945D01*
X9359798Y6319215D01*
X9358985Y6320180D01*
X9358528Y6321247D01*
X9358376Y6322568D01*
X9350756Y6322568D01*
X9351010Y6319621D01*
X9351822Y6317386D01*
X9353194Y6315557D01*
X9355074Y6314186D01*
X9357461Y6313170D01*
X9360611Y6312458D01*
X9364472Y6312052D01*
X9388348Y6311900D01*
X9388348Y6363716D01*
G37*
G36*
X9408922Y6363716D02*
G01*
X9408922Y6311900D01*
X9415780Y6311900D01*
X9415780Y6356604D01*
X9431528Y6346190D01*
X9431528Y6352794D01*
X9415780Y6363716D01*
G37*
G36*
X9417050Y7266431D02*
G01*
X9413036Y7266279D01*
X9409633Y7265771D01*
X9406788Y7265009D01*
X9404604Y7263892D01*
X9402927Y7262266D01*
X9401759Y7260285D01*
X9401048Y7257846D01*
X9400794Y7255002D01*
X9400844Y7245248D01*
X9401352Y7242860D01*
X9402267Y7240930D01*
X9403791Y7239253D01*
X9406026Y7237730D01*
X9409074Y7236053D01*
X9422892Y7229602D01*
X9425228Y7228331D01*
X9426905Y7226757D01*
X9427870Y7224877D01*
X9428226Y7222744D01*
X9428226Y7219188D01*
X9400794Y7219188D01*
X9400794Y7213600D01*
X9435592Y7213600D01*
X9435541Y7224014D01*
X9435185Y7226046D01*
X9434423Y7228027D01*
X9433407Y7229703D01*
X9430918Y7232294D01*
X9423501Y7236459D01*
X9413494Y7240778D01*
X9411258Y7242048D01*
X9409684Y7243622D01*
X9408718Y7245502D01*
X9408414Y7247636D01*
X9408566Y7256475D01*
X9408972Y7257897D01*
X9409684Y7259015D01*
X9410700Y7259828D01*
X9413798Y7260590D01*
X9418574Y7260844D01*
X9425178Y7260488D01*
X9433814Y7259320D01*
X9433814Y7264908D01*
X9425584Y7266076D01*
G37*
G36*
X9461754Y7266431D02*
G01*
X9455708Y7266178D01*
X9448292Y7265416D01*
X9448292Y7259574D01*
X9456369Y7260539D01*
X9462262Y7260844D01*
X9468408Y7260539D01*
X9470593Y7260132D01*
X9472168Y7259574D01*
X9473184Y7258710D01*
X9473895Y7257542D01*
X9474301Y7256170D01*
X9474352Y7247331D01*
X9473996Y7246213D01*
X9473438Y7245299D01*
X9472676Y7244588D01*
X9471507Y7244029D01*
X9468053Y7243419D01*
X9459722Y7243318D01*
X9454845Y7243013D01*
X9451340Y7242048D01*
X9449917Y7241336D01*
X9448749Y7240473D01*
X9447022Y7238238D01*
X9446056Y7235190D01*
X9445752Y7231125D01*
X9445904Y7224775D01*
X9446260Y7222490D01*
X9446920Y7220458D01*
X9447784Y7218680D01*
X9448952Y7217257D01*
X9450374Y7216038D01*
X9452102Y7214971D01*
X9454134Y7214108D01*
X9459112Y7213142D01*
X9465310Y7212838D01*
X9472523Y7213142D01*
X9481058Y7214108D01*
X9481058Y7220458D01*
X9472320Y7219137D01*
X9464802Y7218680D01*
X9459620Y7218984D01*
X9457639Y7219391D01*
X9456166Y7219950D01*
X9454946Y7220712D01*
X9454083Y7221778D01*
X9453524Y7223150D01*
X9453372Y7231634D01*
X9453880Y7234428D01*
X9454540Y7235444D01*
X9455404Y7236206D01*
X9456470Y7236764D01*
X9457944Y7237171D01*
X9462008Y7237475D01*
X9468104Y7237475D01*
X9471660Y7237679D01*
X9474657Y7238238D01*
X9477095Y7239203D01*
X9479026Y7240524D01*
X9480346Y7242251D01*
X9481312Y7244486D01*
X9481870Y7247077D01*
X9481972Y7256272D01*
X9481058Y7259726D01*
X9480296Y7261098D01*
X9479127Y7262317D01*
X9475978Y7264349D01*
X9473946Y7265162D01*
X9468612Y7266127D01*
G37*
G36*
X9369806Y7265416D02*
G01*
X9363710Y7265111D01*
X9359138Y7264146D01*
X9356140Y7262672D01*
X9355074Y7261809D01*
X9353753Y7259878D01*
X9353143Y7257338D01*
X9353042Y7248906D01*
X9360408Y7248906D01*
X9360560Y7256424D01*
X9360916Y7257592D01*
X9361576Y7258558D01*
X9362440Y7259320D01*
X9365437Y7260081D01*
X9369806Y7260336D01*
X9380474Y7260336D01*
X9380474Y7242809D01*
X9367215Y7242911D01*
X9365234Y7243165D01*
X9363659Y7243673D01*
X9362440Y7244334D01*
X9360916Y7246213D01*
X9360408Y7248906D01*
X9353042Y7248906D01*
X9353143Y7247229D01*
X9353499Y7245908D01*
X9354820Y7243825D01*
X9357055Y7242302D01*
X9360154Y7241286D01*
X9360154Y7241031D01*
X9356293Y7239965D01*
X9353296Y7238238D01*
X9352178Y7237018D01*
X9351365Y7235698D01*
X9350908Y7234224D01*
X9350756Y7232650D01*
X9350756Y7224268D01*
X9358376Y7224268D01*
X9358426Y7233107D01*
X9358934Y7234783D01*
X9359849Y7236053D01*
X9361119Y7236917D01*
X9364319Y7237679D01*
X9367824Y7237984D01*
X9380474Y7237984D01*
X9380474Y7218934D01*
X9366351Y7219035D01*
X9364065Y7219238D01*
X9362287Y7219645D01*
X9359798Y7220915D01*
X9358985Y7221880D01*
X9358528Y7222947D01*
X9358376Y7224268D01*
X9350756Y7224268D01*
X9351010Y7221321D01*
X9351822Y7219086D01*
X9353194Y7217257D01*
X9355074Y7215886D01*
X9357461Y7214870D01*
X9360611Y7214158D01*
X9364472Y7213752D01*
X9388348Y7213600D01*
X9388348Y7265416D01*
G37*
M02*
