G04 #@! TF.GenerationSoftware,KiCad,Pcbnew,(5.1.5)-3*
G04 #@! TF.CreationDate,2020-05-17T02:07:37-04:00*
G04 #@! TF.ProjectId,STM32_Klipper_Expander,53544d33-325f-44b6-9c69-707065725f45,B*
G04 #@! TF.SameCoordinates,Original*
G04 #@! TF.FileFunction,Legend,Bot*
G04 #@! TF.FilePolarity,Positive*
%FSLAX46Y46*%
G04 Gerber Fmt 4.6, Leading zero omitted, Abs format (unit mm)*
G04 Created by KiCad (PCBNEW (5.1.5)-3) date 2020-05-17 02:07:37*
%MOMM*%
%LPD*%
G04 APERTURE LIST*
%ADD10C,0.300000*%
%ADD11C,0.200000*%
%ADD12C,0.150000*%
%ADD13C,0.100000*%
G04 APERTURE END LIST*
D10*
X148238095Y-90355952D02*
X148238095Y-87855952D01*
X146809523Y-90355952D02*
X147880952Y-88927380D01*
X146809523Y-87855952D02*
X148238095Y-89284523D01*
X145380952Y-90355952D02*
X145619047Y-90236904D01*
X145738095Y-89998809D01*
X145738095Y-87855952D01*
X144428571Y-90355952D02*
X144428571Y-88689285D01*
X144428571Y-87855952D02*
X144547619Y-87975000D01*
X144428571Y-88094047D01*
X144309523Y-87975000D01*
X144428571Y-87855952D01*
X144428571Y-88094047D01*
X143238095Y-88689285D02*
X143238095Y-91189285D01*
X143238095Y-88808333D02*
X143000000Y-88689285D01*
X142523809Y-88689285D01*
X142285714Y-88808333D01*
X142166666Y-88927380D01*
X142047619Y-89165476D01*
X142047619Y-89879761D01*
X142166666Y-90117857D01*
X142285714Y-90236904D01*
X142523809Y-90355952D01*
X143000000Y-90355952D01*
X143238095Y-90236904D01*
X140976190Y-88689285D02*
X140976190Y-91189285D01*
X140976190Y-88808333D02*
X140738095Y-88689285D01*
X140261904Y-88689285D01*
X140023809Y-88808333D01*
X139904761Y-88927380D01*
X139785714Y-89165476D01*
X139785714Y-89879761D01*
X139904761Y-90117857D01*
X140023809Y-90236904D01*
X140261904Y-90355952D01*
X140738095Y-90355952D01*
X140976190Y-90236904D01*
X137761904Y-90236904D02*
X138000000Y-90355952D01*
X138476190Y-90355952D01*
X138714285Y-90236904D01*
X138833333Y-89998809D01*
X138833333Y-89046428D01*
X138714285Y-88808333D01*
X138476190Y-88689285D01*
X138000000Y-88689285D01*
X137761904Y-88808333D01*
X137642857Y-89046428D01*
X137642857Y-89284523D01*
X138833333Y-89522619D01*
X136571428Y-90355952D02*
X136571428Y-88689285D01*
X136571428Y-89165476D02*
X136452380Y-88927380D01*
X136333333Y-88808333D01*
X136095238Y-88689285D01*
X135857142Y-88689285D01*
X133119047Y-89046428D02*
X132285714Y-89046428D01*
X131928571Y-90355952D02*
X133119047Y-90355952D01*
X133119047Y-87855952D01*
X131928571Y-87855952D01*
X131095238Y-90355952D02*
X129785714Y-88689285D01*
X131095238Y-88689285D02*
X129785714Y-90355952D01*
X128833333Y-88689285D02*
X128833333Y-91189285D01*
X128833333Y-88808333D02*
X128595238Y-88689285D01*
X128119047Y-88689285D01*
X127880952Y-88808333D01*
X127761904Y-88927380D01*
X127642857Y-89165476D01*
X127642857Y-89879761D01*
X127761904Y-90117857D01*
X127880952Y-90236904D01*
X128119047Y-90355952D01*
X128595238Y-90355952D01*
X128833333Y-90236904D01*
X125500000Y-90355952D02*
X125500000Y-89046428D01*
X125619047Y-88808333D01*
X125857142Y-88689285D01*
X126333333Y-88689285D01*
X126571428Y-88808333D01*
X125500000Y-90236904D02*
X125738095Y-90355952D01*
X126333333Y-90355952D01*
X126571428Y-90236904D01*
X126690476Y-89998809D01*
X126690476Y-89760714D01*
X126571428Y-89522619D01*
X126333333Y-89403571D01*
X125738095Y-89403571D01*
X125500000Y-89284523D01*
X124309523Y-88689285D02*
X124309523Y-90355952D01*
X124309523Y-88927380D02*
X124190476Y-88808333D01*
X123952380Y-88689285D01*
X123595238Y-88689285D01*
X123357142Y-88808333D01*
X123238095Y-89046428D01*
X123238095Y-90355952D01*
X122166666Y-90236904D02*
X121928571Y-90355952D01*
X121452380Y-90355952D01*
X121214285Y-90236904D01*
X121095238Y-89998809D01*
X121095238Y-89879761D01*
X121214285Y-89641666D01*
X121452380Y-89522619D01*
X121809523Y-89522619D01*
X122047619Y-89403571D01*
X122166666Y-89165476D01*
X122166666Y-89046428D01*
X122047619Y-88808333D01*
X121809523Y-88689285D01*
X121452380Y-88689285D01*
X121214285Y-88808333D01*
X120023809Y-90355952D02*
X120023809Y-88689285D01*
X120023809Y-87855952D02*
X120142857Y-87975000D01*
X120023809Y-88094047D01*
X119904761Y-87975000D01*
X120023809Y-87855952D01*
X120023809Y-88094047D01*
X118476190Y-90355952D02*
X118714285Y-90236904D01*
X118833333Y-90117857D01*
X118952380Y-89879761D01*
X118952380Y-89165476D01*
X118833333Y-88927380D01*
X118714285Y-88808333D01*
X118476190Y-88689285D01*
X118119047Y-88689285D01*
X117880952Y-88808333D01*
X117761904Y-88927380D01*
X117642857Y-89165476D01*
X117642857Y-89879761D01*
X117761904Y-90117857D01*
X117880952Y-90236904D01*
X118119047Y-90355952D01*
X118476190Y-90355952D01*
X116571428Y-88689285D02*
X116571428Y-90355952D01*
X116571428Y-88927380D02*
X116452380Y-88808333D01*
X116214285Y-88689285D01*
X115857142Y-88689285D01*
X115619047Y-88808333D01*
X115500000Y-89046428D01*
X115500000Y-90355952D01*
X111571428Y-89046428D02*
X111214285Y-89165476D01*
X111095238Y-89284523D01*
X110976190Y-89522619D01*
X110976190Y-89879761D01*
X111095238Y-90117857D01*
X111214285Y-90236904D01*
X111452380Y-90355952D01*
X112404761Y-90355952D01*
X112404761Y-87855952D01*
X111571428Y-87855952D01*
X111333333Y-87975000D01*
X111214285Y-88094047D01*
X111095238Y-88332142D01*
X111095238Y-88570238D01*
X111214285Y-88808333D01*
X111333333Y-88927380D01*
X111571428Y-89046428D01*
X112404761Y-89046428D01*
X109547619Y-90355952D02*
X109785714Y-90236904D01*
X109904761Y-90117857D01*
X110023809Y-89879761D01*
X110023809Y-89165476D01*
X109904761Y-88927380D01*
X109785714Y-88808333D01*
X109547619Y-88689285D01*
X109190476Y-88689285D01*
X108952380Y-88808333D01*
X108833333Y-88927380D01*
X108714285Y-89165476D01*
X108714285Y-89879761D01*
X108833333Y-90117857D01*
X108952380Y-90236904D01*
X109190476Y-90355952D01*
X109547619Y-90355952D01*
X106571428Y-90355952D02*
X106571428Y-89046428D01*
X106690476Y-88808333D01*
X106928571Y-88689285D01*
X107404761Y-88689285D01*
X107642857Y-88808333D01*
X106571428Y-90236904D02*
X106809523Y-90355952D01*
X107404761Y-90355952D01*
X107642857Y-90236904D01*
X107761904Y-89998809D01*
X107761904Y-89760714D01*
X107642857Y-89522619D01*
X107404761Y-89403571D01*
X106809523Y-89403571D01*
X106571428Y-89284523D01*
X105380952Y-90355952D02*
X105380952Y-88689285D01*
X105380952Y-89165476D02*
X105261904Y-88927380D01*
X105142857Y-88808333D01*
X104904761Y-88689285D01*
X104666666Y-88689285D01*
X102761904Y-90355952D02*
X102761904Y-87855952D01*
X102761904Y-90236904D02*
X103000000Y-90355952D01*
X103476190Y-90355952D01*
X103714285Y-90236904D01*
X103833333Y-90117857D01*
X103952380Y-89879761D01*
X103952380Y-89165476D01*
X103833333Y-88927380D01*
X103714285Y-88808333D01*
X103476190Y-88689285D01*
X103000000Y-88689285D01*
X102761904Y-88808333D01*
X141392857Y-91905952D02*
X139964285Y-91905952D01*
X140678571Y-94405952D02*
X140678571Y-91905952D01*
X139130952Y-94405952D02*
X139130952Y-92739285D01*
X139130952Y-91905952D02*
X139250000Y-92025000D01*
X139130952Y-92144047D01*
X139011904Y-92025000D01*
X139130952Y-91905952D01*
X139130952Y-92144047D01*
X137940476Y-94405952D02*
X137940476Y-92739285D01*
X137940476Y-92977380D02*
X137821428Y-92858333D01*
X137583333Y-92739285D01*
X137226190Y-92739285D01*
X136988095Y-92858333D01*
X136869047Y-93096428D01*
X136869047Y-94405952D01*
X136869047Y-93096428D02*
X136750000Y-92858333D01*
X136511904Y-92739285D01*
X136154761Y-92739285D01*
X135916666Y-92858333D01*
X135797619Y-93096428D01*
X135797619Y-94405952D01*
X134250000Y-94405952D02*
X134488095Y-94286904D01*
X134607142Y-94167857D01*
X134726190Y-93929761D01*
X134726190Y-93215476D01*
X134607142Y-92977380D01*
X134488095Y-92858333D01*
X134250000Y-92739285D01*
X133892857Y-92739285D01*
X133654761Y-92858333D01*
X133535714Y-92977380D01*
X133416666Y-93215476D01*
X133416666Y-93929761D01*
X133535714Y-94167857D01*
X133654761Y-94286904D01*
X133892857Y-94405952D01*
X134250000Y-94405952D01*
X132702380Y-92739285D02*
X131750000Y-92739285D01*
X132345238Y-91905952D02*
X132345238Y-94048809D01*
X132226190Y-94286904D01*
X131988095Y-94405952D01*
X131750000Y-94405952D01*
X130916666Y-94405952D02*
X130916666Y-91905952D01*
X129845238Y-94405952D02*
X129845238Y-93096428D01*
X129964285Y-92858333D01*
X130202380Y-92739285D01*
X130559523Y-92739285D01*
X130797619Y-92858333D01*
X130916666Y-92977380D01*
X128892857Y-92739285D02*
X128297619Y-94405952D01*
X127702380Y-92739285D02*
X128297619Y-94405952D01*
X128535714Y-95001190D01*
X128654761Y-95120238D01*
X128892857Y-95239285D01*
X124964285Y-93691666D02*
X123773809Y-93691666D01*
X125202380Y-94405952D02*
X124369047Y-91905952D01*
X123535714Y-94405952D01*
X122702380Y-94405952D02*
X122702380Y-91905952D01*
X122702380Y-92858333D02*
X122464285Y-92739285D01*
X121988095Y-92739285D01*
X121750000Y-92858333D01*
X121630952Y-92977380D01*
X121511904Y-93215476D01*
X121511904Y-93929761D01*
X121630952Y-94167857D01*
X121750000Y-94286904D01*
X121988095Y-94405952D01*
X122464285Y-94405952D01*
X122702380Y-94286904D01*
X120440476Y-94405952D02*
X120440476Y-92739285D01*
X120440476Y-93215476D02*
X120321428Y-92977380D01*
X120202380Y-92858333D01*
X119964285Y-92739285D01*
X119726190Y-92739285D01*
X117821428Y-94405952D02*
X117821428Y-93096428D01*
X117940476Y-92858333D01*
X118178571Y-92739285D01*
X118654761Y-92739285D01*
X118892857Y-92858333D01*
X117821428Y-94286904D02*
X118059523Y-94405952D01*
X118654761Y-94405952D01*
X118892857Y-94286904D01*
X119011904Y-94048809D01*
X119011904Y-93810714D01*
X118892857Y-93572619D01*
X118654761Y-93453571D01*
X118059523Y-93453571D01*
X117821428Y-93334523D01*
X116630952Y-94405952D02*
X116630952Y-91905952D01*
X115559523Y-94405952D02*
X115559523Y-93096428D01*
X115678571Y-92858333D01*
X115916666Y-92739285D01*
X116273809Y-92739285D01*
X116511904Y-92858333D01*
X116630952Y-92977380D01*
X113297619Y-94405952D02*
X113297619Y-93096428D01*
X113416666Y-92858333D01*
X113654761Y-92739285D01*
X114130952Y-92739285D01*
X114369047Y-92858333D01*
X113297619Y-94286904D02*
X113535714Y-94405952D01*
X114130952Y-94405952D01*
X114369047Y-94286904D01*
X114488095Y-94048809D01*
X114488095Y-93810714D01*
X114369047Y-93572619D01*
X114130952Y-93453571D01*
X113535714Y-93453571D01*
X113297619Y-93334523D01*
X112107142Y-94405952D02*
X112107142Y-92739285D01*
X112107142Y-92977380D02*
X111988095Y-92858333D01*
X111750000Y-92739285D01*
X111392857Y-92739285D01*
X111154761Y-92858333D01*
X111035714Y-93096428D01*
X111035714Y-94405952D01*
X111035714Y-93096428D02*
X110916666Y-92858333D01*
X110678571Y-92739285D01*
X110321428Y-92739285D01*
X110083333Y-92858333D01*
X109964285Y-93096428D01*
X109964285Y-94405952D01*
D11*
X141824666Y-78746523D02*
X141824666Y-79996523D01*
X142300857Y-79996523D01*
X142419904Y-79937000D01*
X142479428Y-79877476D01*
X142538952Y-79758428D01*
X142538952Y-79579857D01*
X142479428Y-79460809D01*
X142419904Y-79401285D01*
X142300857Y-79341761D01*
X141824666Y-79341761D01*
X143015142Y-79103666D02*
X143610380Y-79103666D01*
X142896095Y-78746523D02*
X143312761Y-79996523D01*
X143729428Y-78746523D01*
X144800857Y-78746523D02*
X144086571Y-78746523D01*
X144443714Y-78746523D02*
X144443714Y-79996523D01*
X144324666Y-79817952D01*
X144205619Y-79698904D01*
X144086571Y-79639380D01*
X146110380Y-79996523D02*
X146527047Y-78746523D01*
X146943714Y-79996523D01*
X147360380Y-78746523D02*
X147360380Y-79579857D01*
X147360380Y-79996523D02*
X147300857Y-79937000D01*
X147360380Y-79877476D01*
X147419904Y-79937000D01*
X147360380Y-79996523D01*
X147360380Y-79877476D01*
X147955619Y-79579857D02*
X147955619Y-78746523D01*
X147955619Y-79460809D02*
X148015142Y-79520333D01*
X148134190Y-79579857D01*
X148312761Y-79579857D01*
X148431809Y-79520333D01*
X148491333Y-79401285D01*
X148491333Y-78746523D01*
D12*
X177361904Y-89888095D02*
X176561904Y-89888095D01*
X176561904Y-90192857D01*
X176600000Y-90269047D01*
X176638095Y-90307142D01*
X176714285Y-90345238D01*
X176828571Y-90345238D01*
X176904761Y-90307142D01*
X176942857Y-90269047D01*
X176980952Y-90192857D01*
X176980952Y-89888095D01*
X177133333Y-90650000D02*
X177133333Y-91030952D01*
X177361904Y-90573809D02*
X176561904Y-90840476D01*
X177361904Y-91107142D01*
X176561904Y-91297619D02*
X176561904Y-91830952D01*
X177361904Y-91488095D01*
X176600000Y-93164285D02*
X176561904Y-93088095D01*
X176561904Y-92973809D01*
X176600000Y-92859523D01*
X176676190Y-92783333D01*
X176752380Y-92745238D01*
X176904761Y-92707142D01*
X177019047Y-92707142D01*
X177171428Y-92745238D01*
X177247619Y-92783333D01*
X177323809Y-92859523D01*
X177361904Y-92973809D01*
X177361904Y-93050000D01*
X177323809Y-93164285D01*
X177285714Y-93202380D01*
X177019047Y-93202380D01*
X177019047Y-93050000D01*
X176828571Y-93545238D02*
X177361904Y-93545238D01*
X176904761Y-93545238D02*
X176866666Y-93583333D01*
X176828571Y-93659523D01*
X176828571Y-93773809D01*
X176866666Y-93850000D01*
X176942857Y-93888095D01*
X177361904Y-93888095D01*
X177361904Y-94611904D02*
X176561904Y-94611904D01*
X177323809Y-94611904D02*
X177361904Y-94535714D01*
X177361904Y-94383333D01*
X177323809Y-94307142D01*
X177285714Y-94269047D01*
X177209523Y-94230952D01*
X176980952Y-94230952D01*
X176904761Y-94269047D01*
X176866666Y-94307142D01*
X176828571Y-94383333D01*
X176828571Y-94535714D01*
X176866666Y-94611904D01*
X183942857Y-96850000D02*
X184019047Y-96811904D01*
X184133333Y-96811904D01*
X184247619Y-96850000D01*
X184323809Y-96926190D01*
X184361904Y-97002380D01*
X184400000Y-97154761D01*
X184400000Y-97269047D01*
X184361904Y-97421428D01*
X184323809Y-97497619D01*
X184247619Y-97573809D01*
X184133333Y-97611904D01*
X184057142Y-97611904D01*
X183942857Y-97573809D01*
X183904761Y-97535714D01*
X183904761Y-97269047D01*
X184057142Y-97269047D01*
X183561904Y-97078571D02*
X183561904Y-97611904D01*
X183561904Y-97154761D02*
X183523809Y-97116666D01*
X183447619Y-97078571D01*
X183333333Y-97078571D01*
X183257142Y-97116666D01*
X183219047Y-97192857D01*
X183219047Y-97611904D01*
X182495238Y-97611904D02*
X182495238Y-96811904D01*
X182495238Y-97573809D02*
X182571428Y-97611904D01*
X182723809Y-97611904D01*
X182800000Y-97573809D01*
X182838095Y-97535714D01*
X182876190Y-97459523D01*
X182876190Y-97230952D01*
X182838095Y-97154761D01*
X182800000Y-97116666D01*
X182723809Y-97078571D01*
X182571428Y-97078571D01*
X182495238Y-97116666D01*
X181504761Y-97611904D02*
X181504761Y-96811904D01*
X181200000Y-96811904D01*
X181123809Y-96850000D01*
X181085714Y-96888095D01*
X181047619Y-96964285D01*
X181047619Y-97078571D01*
X181085714Y-97154761D01*
X181123809Y-97192857D01*
X181200000Y-97230952D01*
X181504761Y-97230952D01*
X180742857Y-97383333D02*
X180361904Y-97383333D01*
X180819047Y-97611904D02*
X180552380Y-96811904D01*
X180285714Y-97611904D01*
X179638095Y-96811904D02*
X180019047Y-96811904D01*
X180057142Y-97192857D01*
X180019047Y-97154761D01*
X179942857Y-97116666D01*
X179752380Y-97116666D01*
X179676190Y-97154761D01*
X179638095Y-97192857D01*
X179600000Y-97269047D01*
X179600000Y-97459523D01*
X179638095Y-97535714D01*
X179676190Y-97573809D01*
X179752380Y-97611904D01*
X179942857Y-97611904D01*
X180019047Y-97573809D01*
X180057142Y-97535714D01*
D11*
X121377666Y-78746523D02*
X121377666Y-79996523D01*
X121853857Y-79996523D01*
X121972904Y-79937000D01*
X122032428Y-79877476D01*
X122091952Y-79758428D01*
X122091952Y-79579857D01*
X122032428Y-79460809D01*
X121972904Y-79401285D01*
X121853857Y-79341761D01*
X121377666Y-79341761D01*
X122568142Y-79103666D02*
X123163380Y-79103666D01*
X122449095Y-78746523D02*
X122865761Y-79996523D01*
X123282428Y-78746523D01*
X123580047Y-79996523D02*
X124353857Y-79996523D01*
X123937190Y-79520333D01*
X124115761Y-79520333D01*
X124234809Y-79460809D01*
X124294333Y-79401285D01*
X124353857Y-79282238D01*
X124353857Y-78984619D01*
X124294333Y-78865571D01*
X124234809Y-78806047D01*
X124115761Y-78746523D01*
X123758619Y-78746523D01*
X123639571Y-78806047D01*
X123580047Y-78865571D01*
X125663380Y-79996523D02*
X126080047Y-78746523D01*
X126496714Y-79996523D01*
X126913380Y-78746523D02*
X126913380Y-79579857D01*
X126913380Y-79996523D02*
X126853857Y-79937000D01*
X126913380Y-79877476D01*
X126972904Y-79937000D01*
X126913380Y-79996523D01*
X126913380Y-79877476D01*
X127508619Y-79579857D02*
X127508619Y-78746523D01*
X127508619Y-79460809D02*
X127568142Y-79520333D01*
X127687190Y-79579857D01*
X127865761Y-79579857D01*
X127984809Y-79520333D01*
X128044333Y-79401285D01*
X128044333Y-78746523D01*
X157535714Y-80321428D02*
X158035714Y-78821428D01*
X158535714Y-80321428D01*
X159035714Y-78821428D02*
X159035714Y-79821428D01*
X159035714Y-80321428D02*
X158964285Y-80250000D01*
X159035714Y-80178571D01*
X159107142Y-80250000D01*
X159035714Y-80321428D01*
X159035714Y-80178571D01*
X159750000Y-79821428D02*
X159750000Y-78821428D01*
X159750000Y-79678571D02*
X159821428Y-79750000D01*
X159964285Y-79821428D01*
X160178571Y-79821428D01*
X160321428Y-79750000D01*
X160392857Y-79607142D01*
X160392857Y-78821428D01*
X163035714Y-80250000D02*
X162892857Y-80321428D01*
X162678571Y-80321428D01*
X162464285Y-80250000D01*
X162321428Y-80107142D01*
X162250000Y-79964285D01*
X162178571Y-79678571D01*
X162178571Y-79464285D01*
X162250000Y-79178571D01*
X162321428Y-79035714D01*
X162464285Y-78892857D01*
X162678571Y-78821428D01*
X162821428Y-78821428D01*
X163035714Y-78892857D01*
X163107142Y-78964285D01*
X163107142Y-79464285D01*
X162821428Y-79464285D01*
X163750000Y-79821428D02*
X163750000Y-78821428D01*
X163750000Y-79678571D02*
X163821428Y-79750000D01*
X163964285Y-79821428D01*
X164178571Y-79821428D01*
X164321428Y-79750000D01*
X164392857Y-79607142D01*
X164392857Y-78821428D01*
X165750000Y-78821428D02*
X165750000Y-80321428D01*
X165750000Y-78892857D02*
X165607142Y-78821428D01*
X165321428Y-78821428D01*
X165178571Y-78892857D01*
X165107142Y-78964285D01*
X165035714Y-79107142D01*
X165035714Y-79535714D01*
X165107142Y-79678571D01*
X165178571Y-79750000D01*
X165321428Y-79821428D01*
X165607142Y-79821428D01*
X165750000Y-79750000D01*
D12*
X192442857Y-96850000D02*
X192519047Y-96811904D01*
X192633333Y-96811904D01*
X192747619Y-96850000D01*
X192823809Y-96926190D01*
X192861904Y-97002380D01*
X192900000Y-97154761D01*
X192900000Y-97269047D01*
X192861904Y-97421428D01*
X192823809Y-97497619D01*
X192747619Y-97573809D01*
X192633333Y-97611904D01*
X192557142Y-97611904D01*
X192442857Y-97573809D01*
X192404761Y-97535714D01*
X192404761Y-97269047D01*
X192557142Y-97269047D01*
X192061904Y-97078571D02*
X192061904Y-97611904D01*
X192061904Y-97154761D02*
X192023809Y-97116666D01*
X191947619Y-97078571D01*
X191833333Y-97078571D01*
X191757142Y-97116666D01*
X191719047Y-97192857D01*
X191719047Y-97611904D01*
X190995238Y-97611904D02*
X190995238Y-96811904D01*
X190995238Y-97573809D02*
X191071428Y-97611904D01*
X191223809Y-97611904D01*
X191300000Y-97573809D01*
X191338095Y-97535714D01*
X191376190Y-97459523D01*
X191376190Y-97230952D01*
X191338095Y-97154761D01*
X191300000Y-97116666D01*
X191223809Y-97078571D01*
X191071428Y-97078571D01*
X190995238Y-97116666D01*
X190004761Y-97611904D02*
X190004761Y-96811904D01*
X189700000Y-96811904D01*
X189623809Y-96850000D01*
X189585714Y-96888095D01*
X189547619Y-96964285D01*
X189547619Y-97078571D01*
X189585714Y-97154761D01*
X189623809Y-97192857D01*
X189700000Y-97230952D01*
X190004761Y-97230952D01*
X189242857Y-97383333D02*
X188861904Y-97383333D01*
X189319047Y-97611904D02*
X189052380Y-96811904D01*
X188785714Y-97611904D01*
X188176190Y-96811904D02*
X188328571Y-96811904D01*
X188404761Y-96850000D01*
X188442857Y-96888095D01*
X188519047Y-97002380D01*
X188557142Y-97154761D01*
X188557142Y-97459523D01*
X188519047Y-97535714D01*
X188480952Y-97573809D01*
X188404761Y-97611904D01*
X188252380Y-97611904D01*
X188176190Y-97573809D01*
X188138095Y-97535714D01*
X188100000Y-97459523D01*
X188100000Y-97269047D01*
X188138095Y-97192857D01*
X188176190Y-97154761D01*
X188252380Y-97116666D01*
X188404761Y-97116666D01*
X188480952Y-97154761D01*
X188519047Y-97192857D01*
X188557142Y-97269047D01*
X174226190Y-80811904D02*
X173730952Y-80811904D01*
X173997619Y-81116666D01*
X173883333Y-81116666D01*
X173807142Y-81154761D01*
X173769047Y-81192857D01*
X173730952Y-81269047D01*
X173730952Y-81459523D01*
X173769047Y-81535714D01*
X173807142Y-81573809D01*
X173883333Y-81611904D01*
X174111904Y-81611904D01*
X174188095Y-81573809D01*
X174226190Y-81535714D01*
X173502380Y-80811904D02*
X173235714Y-81611904D01*
X172969047Y-80811904D01*
X172778571Y-80811904D02*
X172283333Y-80811904D01*
X172550000Y-81116666D01*
X172435714Y-81116666D01*
X172359523Y-81154761D01*
X172321428Y-81192857D01*
X172283333Y-81269047D01*
X172283333Y-81459523D01*
X172321428Y-81535714D01*
X172359523Y-81573809D01*
X172435714Y-81611904D01*
X172664285Y-81611904D01*
X172740476Y-81573809D01*
X172778571Y-81535714D01*
X171330952Y-81611904D02*
X171330952Y-80811904D01*
X171026190Y-80811904D01*
X170950000Y-80850000D01*
X170911904Y-80888095D01*
X170873809Y-80964285D01*
X170873809Y-81078571D01*
X170911904Y-81154761D01*
X170950000Y-81192857D01*
X171026190Y-81230952D01*
X171330952Y-81230952D01*
X170264285Y-81192857D02*
X170150000Y-81230952D01*
X170111904Y-81269047D01*
X170073809Y-81345238D01*
X170073809Y-81459523D01*
X170111904Y-81535714D01*
X170150000Y-81573809D01*
X170226190Y-81611904D01*
X170530952Y-81611904D01*
X170530952Y-80811904D01*
X170264285Y-80811904D01*
X170188095Y-80850000D01*
X170150000Y-80888095D01*
X170111904Y-80964285D01*
X170111904Y-81040476D01*
X170150000Y-81116666D01*
X170188095Y-81154761D01*
X170264285Y-81192857D01*
X170530952Y-81192857D01*
X169616666Y-81154761D02*
X169692857Y-81116666D01*
X169730952Y-81078571D01*
X169769047Y-81002380D01*
X169769047Y-80964285D01*
X169730952Y-80888095D01*
X169692857Y-80850000D01*
X169616666Y-80811904D01*
X169464285Y-80811904D01*
X169388095Y-80850000D01*
X169350000Y-80888095D01*
X169311904Y-80964285D01*
X169311904Y-81002380D01*
X169350000Y-81078571D01*
X169388095Y-81116666D01*
X169464285Y-81154761D01*
X169616666Y-81154761D01*
X169692857Y-81192857D01*
X169730952Y-81230952D01*
X169769047Y-81307142D01*
X169769047Y-81459523D01*
X169730952Y-81535714D01*
X169692857Y-81573809D01*
X169616666Y-81611904D01*
X169464285Y-81611904D01*
X169388095Y-81573809D01*
X169350000Y-81535714D01*
X169311904Y-81459523D01*
X169311904Y-81307142D01*
X169350000Y-81230952D01*
X169388095Y-81192857D01*
X169464285Y-81154761D01*
D11*
X131537666Y-78746523D02*
X131537666Y-79996523D01*
X132013857Y-79996523D01*
X132132904Y-79937000D01*
X132192428Y-79877476D01*
X132251952Y-79758428D01*
X132251952Y-79579857D01*
X132192428Y-79460809D01*
X132132904Y-79401285D01*
X132013857Y-79341761D01*
X131537666Y-79341761D01*
X132728142Y-79103666D02*
X133323380Y-79103666D01*
X132609095Y-78746523D02*
X133025761Y-79996523D01*
X133442428Y-78746523D01*
X133799571Y-79877476D02*
X133859095Y-79937000D01*
X133978142Y-79996523D01*
X134275761Y-79996523D01*
X134394809Y-79937000D01*
X134454333Y-79877476D01*
X134513857Y-79758428D01*
X134513857Y-79639380D01*
X134454333Y-79460809D01*
X133740047Y-78746523D01*
X134513857Y-78746523D01*
X135823380Y-79996523D02*
X136240047Y-78746523D01*
X136656714Y-79996523D01*
X137073380Y-78746523D02*
X137073380Y-79579857D01*
X137073380Y-79996523D02*
X137013857Y-79937000D01*
X137073380Y-79877476D01*
X137132904Y-79937000D01*
X137073380Y-79996523D01*
X137073380Y-79877476D01*
X137668619Y-79579857D02*
X137668619Y-78746523D01*
X137668619Y-79460809D02*
X137728142Y-79520333D01*
X137847190Y-79579857D01*
X138025761Y-79579857D01*
X138144809Y-79520333D01*
X138204333Y-79401285D01*
X138204333Y-78746523D01*
D13*
X158767857Y-99339285D02*
X158767857Y-98589285D01*
X158482142Y-98589285D01*
X158410714Y-98625000D01*
X158375000Y-98660714D01*
X158339285Y-98732142D01*
X158339285Y-98839285D01*
X158375000Y-98910714D01*
X158410714Y-98946428D01*
X158482142Y-98982142D01*
X158767857Y-98982142D01*
X158053571Y-99125000D02*
X157696428Y-99125000D01*
X158125000Y-99339285D02*
X157875000Y-98589285D01*
X157625000Y-99339285D01*
X156982142Y-99339285D02*
X157410714Y-99339285D01*
X157196428Y-99339285D02*
X157196428Y-98589285D01*
X157267857Y-98696428D01*
X157339285Y-98767857D01*
X157410714Y-98803571D01*
X156732142Y-98589285D02*
X156267857Y-98589285D01*
X156517857Y-98875000D01*
X156410714Y-98875000D01*
X156339285Y-98910714D01*
X156303571Y-98946428D01*
X156267857Y-99017857D01*
X156267857Y-99196428D01*
X156303571Y-99267857D01*
X156339285Y-99303571D01*
X156410714Y-99339285D01*
X156625000Y-99339285D01*
X156696428Y-99303571D01*
X156732142Y-99267857D01*
X155375000Y-99339285D02*
X155375000Y-98589285D01*
X155089285Y-98589285D01*
X155017857Y-98625000D01*
X154982142Y-98660714D01*
X154946428Y-98732142D01*
X154946428Y-98839285D01*
X154982142Y-98910714D01*
X155017857Y-98946428D01*
X155089285Y-98982142D01*
X155375000Y-98982142D01*
X154660714Y-99125000D02*
X154303571Y-99125000D01*
X154732142Y-99339285D02*
X154482142Y-98589285D01*
X154232142Y-99339285D01*
X153589285Y-99339285D02*
X154017857Y-99339285D01*
X153803571Y-99339285D02*
X153803571Y-98589285D01*
X153875000Y-98696428D01*
X153946428Y-98767857D01*
X154017857Y-98803571D01*
X152946428Y-98839285D02*
X152946428Y-99339285D01*
X153125000Y-98553571D02*
X153303571Y-99089285D01*
X152839285Y-99089285D01*
X151553571Y-99339285D02*
X151803571Y-98982142D01*
X151982142Y-99339285D02*
X151982142Y-98589285D01*
X151696428Y-98589285D01*
X151625000Y-98625000D01*
X151589285Y-98660714D01*
X151553571Y-98732142D01*
X151553571Y-98839285D01*
X151589285Y-98910714D01*
X151625000Y-98946428D01*
X151696428Y-98982142D01*
X151982142Y-98982142D01*
X151267857Y-99303571D02*
X151160714Y-99339285D01*
X150982142Y-99339285D01*
X150910714Y-99303571D01*
X150875000Y-99267857D01*
X150839285Y-99196428D01*
X150839285Y-99125000D01*
X150875000Y-99053571D01*
X150910714Y-99017857D01*
X150982142Y-98982142D01*
X151125000Y-98946428D01*
X151196428Y-98910714D01*
X151232142Y-98875000D01*
X151267857Y-98803571D01*
X151267857Y-98732142D01*
X151232142Y-98660714D01*
X151196428Y-98625000D01*
X151125000Y-98589285D01*
X150946428Y-98589285D01*
X150839285Y-98625000D01*
X150625000Y-98589285D02*
X150196428Y-98589285D01*
X150410714Y-99339285D02*
X150410714Y-98589285D01*
D11*
X111217666Y-78746523D02*
X111217666Y-79996523D01*
X111693857Y-79996523D01*
X111812904Y-79937000D01*
X111872428Y-79877476D01*
X111931952Y-79758428D01*
X111931952Y-79579857D01*
X111872428Y-79460809D01*
X111812904Y-79401285D01*
X111693857Y-79341761D01*
X111217666Y-79341761D01*
X112408142Y-79103666D02*
X113003380Y-79103666D01*
X112289095Y-78746523D02*
X112705761Y-79996523D01*
X113122428Y-78746523D01*
X114074809Y-79579857D02*
X114074809Y-78746523D01*
X113777190Y-80056047D02*
X113479571Y-79163190D01*
X114253380Y-79163190D01*
X115503380Y-79996523D02*
X115920047Y-78746523D01*
X116336714Y-79996523D01*
X116753380Y-78746523D02*
X116753380Y-79579857D01*
X116753380Y-79996523D02*
X116693857Y-79937000D01*
X116753380Y-79877476D01*
X116812904Y-79937000D01*
X116753380Y-79996523D01*
X116753380Y-79877476D01*
X117348619Y-79579857D02*
X117348619Y-78746523D01*
X117348619Y-79460809D02*
X117408142Y-79520333D01*
X117527190Y-79579857D01*
X117705761Y-79579857D01*
X117824809Y-79520333D01*
X117884333Y-79401285D01*
X117884333Y-78746523D01*
D13*
X198875000Y-86053571D02*
X198839285Y-85982142D01*
X198839285Y-85875000D01*
X198875000Y-85767857D01*
X198946428Y-85696428D01*
X199017857Y-85660714D01*
X199160714Y-85625000D01*
X199267857Y-85625000D01*
X199410714Y-85660714D01*
X199482142Y-85696428D01*
X199553571Y-85767857D01*
X199589285Y-85875000D01*
X199589285Y-85946428D01*
X199553571Y-86053571D01*
X199517857Y-86089285D01*
X199267857Y-86089285D01*
X199267857Y-85946428D01*
X199089285Y-86410714D02*
X199589285Y-86410714D01*
X199160714Y-86410714D02*
X199125000Y-86446428D01*
X199089285Y-86517857D01*
X199089285Y-86625000D01*
X199125000Y-86696428D01*
X199196428Y-86732142D01*
X199589285Y-86732142D01*
X199589285Y-87410714D02*
X198839285Y-87410714D01*
X199553571Y-87410714D02*
X199589285Y-87339285D01*
X199589285Y-87196428D01*
X199553571Y-87125000D01*
X199517857Y-87089285D01*
X199446428Y-87053571D01*
X199232142Y-87053571D01*
X199160714Y-87089285D01*
X199125000Y-87125000D01*
X199089285Y-87196428D01*
X199089285Y-87339285D01*
X199125000Y-87410714D01*
X199589285Y-88339285D02*
X198839285Y-88339285D01*
X198839285Y-88625000D01*
X198875000Y-88696428D01*
X198910714Y-88732142D01*
X198982142Y-88767857D01*
X199089285Y-88767857D01*
X199160714Y-88732142D01*
X199196428Y-88696428D01*
X199232142Y-88625000D01*
X199232142Y-88339285D01*
X199196428Y-89339285D02*
X199232142Y-89446428D01*
X199267857Y-89482142D01*
X199339285Y-89517857D01*
X199446428Y-89517857D01*
X199517857Y-89482142D01*
X199553571Y-89446428D01*
X199589285Y-89375000D01*
X199589285Y-89089285D01*
X198839285Y-89089285D01*
X198839285Y-89339285D01*
X198875000Y-89410714D01*
X198910714Y-89446428D01*
X198982142Y-89482142D01*
X199053571Y-89482142D01*
X199125000Y-89446428D01*
X199160714Y-89410714D01*
X199196428Y-89339285D01*
X199196428Y-89089285D01*
X199589285Y-90232142D02*
X199589285Y-89803571D01*
X199589285Y-90017857D02*
X198839285Y-90017857D01*
X198946428Y-89946428D01*
X199017857Y-89875000D01*
X199053571Y-89803571D01*
X198839285Y-91017857D02*
X199589285Y-91267857D01*
X198839285Y-91517857D01*
X199303571Y-91767857D02*
X199303571Y-92339285D01*
X199589285Y-92053571D02*
X199017857Y-92053571D01*
X172785714Y-98339285D02*
X172321428Y-98339285D01*
X172571428Y-98625000D01*
X172464285Y-98625000D01*
X172392857Y-98660714D01*
X172357142Y-98696428D01*
X172321428Y-98767857D01*
X172321428Y-98946428D01*
X172357142Y-99017857D01*
X172392857Y-99053571D01*
X172464285Y-99089285D01*
X172678571Y-99089285D01*
X172750000Y-99053571D01*
X172785714Y-99017857D01*
X172107142Y-98339285D02*
X171857142Y-99089285D01*
X171607142Y-98339285D01*
X171428571Y-98339285D02*
X170964285Y-98339285D01*
X171214285Y-98625000D01*
X171107142Y-98625000D01*
X171035714Y-98660714D01*
X171000000Y-98696428D01*
X170964285Y-98767857D01*
X170964285Y-98946428D01*
X171000000Y-99017857D01*
X171035714Y-99053571D01*
X171107142Y-99089285D01*
X171321428Y-99089285D01*
X171392857Y-99053571D01*
X171428571Y-99017857D01*
X170071428Y-99089285D02*
X170071428Y-98339285D01*
X169785714Y-98339285D01*
X169714285Y-98375000D01*
X169678571Y-98410714D01*
X169642857Y-98482142D01*
X169642857Y-98589285D01*
X169678571Y-98660714D01*
X169714285Y-98696428D01*
X169785714Y-98732142D01*
X170071428Y-98732142D01*
X169071428Y-98696428D02*
X169321428Y-98696428D01*
X169321428Y-99089285D02*
X169321428Y-98339285D01*
X168964285Y-98339285D01*
X168535714Y-98339285D02*
X168464285Y-98339285D01*
X168392857Y-98375000D01*
X168357142Y-98410714D01*
X168321428Y-98482142D01*
X168285714Y-98625000D01*
X168285714Y-98803571D01*
X168321428Y-98946428D01*
X168357142Y-99017857D01*
X168392857Y-99053571D01*
X168464285Y-99089285D01*
X168535714Y-99089285D01*
X168607142Y-99053571D01*
X168642857Y-99017857D01*
X168678571Y-98946428D01*
X168714285Y-98803571D01*
X168714285Y-98625000D01*
X168678571Y-98482142D01*
X168642857Y-98410714D01*
X168607142Y-98375000D01*
X168535714Y-98339285D01*
X167392857Y-99089285D02*
X167392857Y-98339285D01*
X167107142Y-98339285D01*
X167035714Y-98375000D01*
X167000000Y-98410714D01*
X166964285Y-98482142D01*
X166964285Y-98589285D01*
X167000000Y-98660714D01*
X167035714Y-98696428D01*
X167107142Y-98732142D01*
X167392857Y-98732142D01*
X166392857Y-98696428D02*
X166642857Y-98696428D01*
X166642857Y-99089285D02*
X166642857Y-98339285D01*
X166285714Y-98339285D01*
X165607142Y-99089285D02*
X166035714Y-99089285D01*
X165821428Y-99089285D02*
X165821428Y-98339285D01*
X165892857Y-98446428D01*
X165964285Y-98517857D01*
X166035714Y-98553571D01*
X164321428Y-98375000D02*
X164392857Y-98339285D01*
X164500000Y-98339285D01*
X164607142Y-98375000D01*
X164678571Y-98446428D01*
X164714285Y-98517857D01*
X164750000Y-98660714D01*
X164750000Y-98767857D01*
X164714285Y-98910714D01*
X164678571Y-98982142D01*
X164607142Y-99053571D01*
X164500000Y-99089285D01*
X164428571Y-99089285D01*
X164321428Y-99053571D01*
X164285714Y-99017857D01*
X164285714Y-98767857D01*
X164428571Y-98767857D01*
X163964285Y-99089285D02*
X163964285Y-98339285D01*
X163535714Y-99089285D01*
X163535714Y-98339285D01*
X163178571Y-99089285D02*
X163178571Y-98339285D01*
X163000000Y-98339285D01*
X162892857Y-98375000D01*
X162821428Y-98446428D01*
X162785714Y-98517857D01*
X162750000Y-98660714D01*
X162750000Y-98767857D01*
X162785714Y-98910714D01*
X162821428Y-98982142D01*
X162892857Y-99053571D01*
X163000000Y-99089285D01*
X163178571Y-99089285D01*
M02*
