G04 #@! TF.GenerationSoftware,KiCad,Pcbnew,(5.1.5)-3*
G04 #@! TF.CreationDate,2020-02-02T22:30:26-05:00*
G04 #@! TF.ProjectId,STM32_Klipper_Expander,53544d33-325f-44b6-9c69-707065725f45,rev?*
G04 #@! TF.SameCoordinates,Original*
G04 #@! TF.FileFunction,Soldermask,Top*
G04 #@! TF.FilePolarity,Negative*
%FSLAX46Y46*%
G04 Gerber Fmt 4.6, Leading zero omitted, Abs format (unit mm)*
G04 Created by KiCad (PCBNEW (5.1.5)-3) date 2020-02-02 22:30:26*
%MOMM*%
%LPD*%
G04 APERTURE LIST*
%ADD10C,0.100000*%
G04 APERTURE END LIST*
D10*
G36*
X160834468Y-97153565D02*
G01*
X160873138Y-97165296D01*
X160908777Y-97184346D01*
X160940017Y-97209983D01*
X160965654Y-97241223D01*
X160984704Y-97276862D01*
X160996435Y-97315532D01*
X161001000Y-97361888D01*
X161001000Y-98013112D01*
X160996435Y-98059468D01*
X160984704Y-98098138D01*
X160965654Y-98133777D01*
X160940017Y-98165017D01*
X160908777Y-98190654D01*
X160873138Y-98209704D01*
X160834468Y-98221435D01*
X160788112Y-98226000D01*
X159711888Y-98226000D01*
X159665532Y-98221435D01*
X159626862Y-98209704D01*
X159591223Y-98190654D01*
X159559983Y-98165017D01*
X159534346Y-98133777D01*
X159515296Y-98098138D01*
X159503565Y-98059468D01*
X159499000Y-98013112D01*
X159499000Y-97361888D01*
X159503565Y-97315532D01*
X159515296Y-97276862D01*
X159534346Y-97241223D01*
X159559983Y-97209983D01*
X159591223Y-97184346D01*
X159626862Y-97165296D01*
X159665532Y-97153565D01*
X159711888Y-97149000D01*
X160788112Y-97149000D01*
X160834468Y-97153565D01*
G37*
G36*
X147584468Y-97153565D02*
G01*
X147623138Y-97165296D01*
X147658777Y-97184346D01*
X147690017Y-97209983D01*
X147715654Y-97241223D01*
X147734704Y-97276862D01*
X147746435Y-97315532D01*
X147751000Y-97361888D01*
X147751000Y-98013112D01*
X147746435Y-98059468D01*
X147734704Y-98098138D01*
X147715654Y-98133777D01*
X147690017Y-98165017D01*
X147658777Y-98190654D01*
X147623138Y-98209704D01*
X147584468Y-98221435D01*
X147538112Y-98226000D01*
X146461888Y-98226000D01*
X146415532Y-98221435D01*
X146376862Y-98209704D01*
X146341223Y-98190654D01*
X146309983Y-98165017D01*
X146284346Y-98133777D01*
X146265296Y-98098138D01*
X146253565Y-98059468D01*
X146249000Y-98013112D01*
X146249000Y-97361888D01*
X146253565Y-97315532D01*
X146265296Y-97276862D01*
X146284346Y-97241223D01*
X146309983Y-97209983D01*
X146341223Y-97184346D01*
X146376862Y-97165296D01*
X146415532Y-97153565D01*
X146461888Y-97149000D01*
X147538112Y-97149000D01*
X147584468Y-97153565D01*
G37*
G36*
X166527512Y-95881927D02*
G01*
X166676812Y-95911624D01*
X166840784Y-95979544D01*
X166988354Y-96078147D01*
X167113853Y-96203646D01*
X167212456Y-96351216D01*
X167280376Y-96515188D01*
X167315000Y-96689259D01*
X167315000Y-96866741D01*
X167280376Y-97040812D01*
X167212456Y-97204784D01*
X167113853Y-97352354D01*
X166988354Y-97477853D01*
X166840784Y-97576456D01*
X166676812Y-97644376D01*
X166527512Y-97674073D01*
X166502742Y-97679000D01*
X166325258Y-97679000D01*
X166300488Y-97674073D01*
X166151188Y-97644376D01*
X165987216Y-97576456D01*
X165839646Y-97477853D01*
X165714147Y-97352354D01*
X165615544Y-97204784D01*
X165547624Y-97040812D01*
X165513000Y-96866741D01*
X165513000Y-96689259D01*
X165547624Y-96515188D01*
X165615544Y-96351216D01*
X165714147Y-96203646D01*
X165839646Y-96078147D01*
X165987216Y-95979544D01*
X166151188Y-95911624D01*
X166300488Y-95881927D01*
X166325258Y-95877000D01*
X166502742Y-95877000D01*
X166527512Y-95881927D01*
G37*
G36*
X163987512Y-95881927D02*
G01*
X164136812Y-95911624D01*
X164300784Y-95979544D01*
X164448354Y-96078147D01*
X164573853Y-96203646D01*
X164672456Y-96351216D01*
X164740376Y-96515188D01*
X164775000Y-96689259D01*
X164775000Y-96866741D01*
X164740376Y-97040812D01*
X164672456Y-97204784D01*
X164573853Y-97352354D01*
X164448354Y-97477853D01*
X164300784Y-97576456D01*
X164136812Y-97644376D01*
X163987512Y-97674073D01*
X163962742Y-97679000D01*
X163785258Y-97679000D01*
X163760488Y-97674073D01*
X163611188Y-97644376D01*
X163447216Y-97576456D01*
X163299646Y-97477853D01*
X163174147Y-97352354D01*
X163075544Y-97204784D01*
X163007624Y-97040812D01*
X162973000Y-96866741D01*
X162973000Y-96689259D01*
X163007624Y-96515188D01*
X163075544Y-96351216D01*
X163174147Y-96203646D01*
X163299646Y-96078147D01*
X163447216Y-95979544D01*
X163611188Y-95911624D01*
X163760488Y-95881927D01*
X163785258Y-95877000D01*
X163962742Y-95877000D01*
X163987512Y-95881927D01*
G37*
G36*
X169067512Y-95881927D02*
G01*
X169216812Y-95911624D01*
X169380784Y-95979544D01*
X169528354Y-96078147D01*
X169653853Y-96203646D01*
X169752456Y-96351216D01*
X169820376Y-96515188D01*
X169855000Y-96689259D01*
X169855000Y-96866741D01*
X169820376Y-97040812D01*
X169752456Y-97204784D01*
X169653853Y-97352354D01*
X169528354Y-97477853D01*
X169380784Y-97576456D01*
X169216812Y-97644376D01*
X169067512Y-97674073D01*
X169042742Y-97679000D01*
X168865258Y-97679000D01*
X168840488Y-97674073D01*
X168691188Y-97644376D01*
X168527216Y-97576456D01*
X168379646Y-97477853D01*
X168254147Y-97352354D01*
X168155544Y-97204784D01*
X168087624Y-97040812D01*
X168053000Y-96866741D01*
X168053000Y-96689259D01*
X168087624Y-96515188D01*
X168155544Y-96351216D01*
X168254147Y-96203646D01*
X168379646Y-96078147D01*
X168527216Y-95979544D01*
X168691188Y-95911624D01*
X168840488Y-95881927D01*
X168865258Y-95877000D01*
X169042742Y-95877000D01*
X169067512Y-95881927D01*
G37*
G36*
X172395000Y-97679000D02*
G01*
X170593000Y-97679000D01*
X170593000Y-95877000D01*
X172395000Y-95877000D01*
X172395000Y-97679000D01*
G37*
G36*
X144770104Y-95859585D02*
G01*
X144938626Y-95929389D01*
X145090291Y-96030728D01*
X145219272Y-96159709D01*
X145320611Y-96311374D01*
X145390415Y-96479896D01*
X145426000Y-96658797D01*
X145426000Y-96841203D01*
X145390415Y-97020104D01*
X145320611Y-97188626D01*
X145219272Y-97340291D01*
X145090291Y-97469272D01*
X144938626Y-97570611D01*
X144770104Y-97640415D01*
X144591203Y-97676000D01*
X144408797Y-97676000D01*
X144229896Y-97640415D01*
X144061374Y-97570611D01*
X143909709Y-97469272D01*
X143780728Y-97340291D01*
X143679389Y-97188626D01*
X143609585Y-97020104D01*
X143574000Y-96841203D01*
X143574000Y-96658797D01*
X143609585Y-96479896D01*
X143679389Y-96311374D01*
X143780728Y-96159709D01*
X143909709Y-96030728D01*
X144061374Y-95929389D01*
X144229896Y-95859585D01*
X144408797Y-95824000D01*
X144591203Y-95824000D01*
X144770104Y-95859585D01*
G37*
G36*
X138270104Y-95859585D02*
G01*
X138438626Y-95929389D01*
X138590291Y-96030728D01*
X138719272Y-96159709D01*
X138820611Y-96311374D01*
X138890415Y-96479896D01*
X138926000Y-96658797D01*
X138926000Y-96841203D01*
X138890415Y-97020104D01*
X138820611Y-97188626D01*
X138719272Y-97340291D01*
X138590291Y-97469272D01*
X138438626Y-97570611D01*
X138270104Y-97640415D01*
X138091203Y-97676000D01*
X137908797Y-97676000D01*
X137729896Y-97640415D01*
X137561374Y-97570611D01*
X137409709Y-97469272D01*
X137280728Y-97340291D01*
X137179389Y-97188626D01*
X137109585Y-97020104D01*
X137074000Y-96841203D01*
X137074000Y-96658797D01*
X137109585Y-96479896D01*
X137179389Y-96311374D01*
X137280728Y-96159709D01*
X137409709Y-96030728D01*
X137561374Y-95929389D01*
X137729896Y-95859585D01*
X137908797Y-95824000D01*
X138091203Y-95824000D01*
X138270104Y-95859585D01*
G37*
G36*
X154323512Y-95853927D02*
G01*
X154472812Y-95883624D01*
X154636784Y-95951544D01*
X154784354Y-96050147D01*
X154909853Y-96175646D01*
X155008456Y-96323216D01*
X155076376Y-96487188D01*
X155111000Y-96661259D01*
X155111000Y-96838741D01*
X155076376Y-97012812D01*
X155008456Y-97176784D01*
X154909853Y-97324354D01*
X154784354Y-97449853D01*
X154636784Y-97548456D01*
X154472812Y-97616376D01*
X154332048Y-97644375D01*
X154298742Y-97651000D01*
X154121258Y-97651000D01*
X154087952Y-97644375D01*
X153947188Y-97616376D01*
X153783216Y-97548456D01*
X153635646Y-97449853D01*
X153510147Y-97324354D01*
X153411544Y-97176784D01*
X153343624Y-97012812D01*
X153309000Y-96838741D01*
X153309000Y-96661259D01*
X153343624Y-96487188D01*
X153411544Y-96323216D01*
X153510147Y-96175646D01*
X153635646Y-96050147D01*
X153783216Y-95951544D01*
X153947188Y-95883624D01*
X154096488Y-95853927D01*
X154121258Y-95849000D01*
X154298742Y-95849000D01*
X154323512Y-95853927D01*
G37*
G36*
X151783512Y-95853927D02*
G01*
X151932812Y-95883624D01*
X152096784Y-95951544D01*
X152244354Y-96050147D01*
X152369853Y-96175646D01*
X152468456Y-96323216D01*
X152536376Y-96487188D01*
X152571000Y-96661259D01*
X152571000Y-96838741D01*
X152536376Y-97012812D01*
X152468456Y-97176784D01*
X152369853Y-97324354D01*
X152244354Y-97449853D01*
X152096784Y-97548456D01*
X151932812Y-97616376D01*
X151792048Y-97644375D01*
X151758742Y-97651000D01*
X151581258Y-97651000D01*
X151547952Y-97644375D01*
X151407188Y-97616376D01*
X151243216Y-97548456D01*
X151095646Y-97449853D01*
X150970147Y-97324354D01*
X150871544Y-97176784D01*
X150803624Y-97012812D01*
X150769000Y-96838741D01*
X150769000Y-96661259D01*
X150803624Y-96487188D01*
X150871544Y-96323216D01*
X150970147Y-96175646D01*
X151095646Y-96050147D01*
X151243216Y-95951544D01*
X151407188Y-95883624D01*
X151556488Y-95853927D01*
X151581258Y-95849000D01*
X151758742Y-95849000D01*
X151783512Y-95853927D01*
G37*
G36*
X157651000Y-97651000D02*
G01*
X155849000Y-97651000D01*
X155849000Y-95849000D01*
X157651000Y-95849000D01*
X157651000Y-97651000D01*
G37*
G36*
X198151000Y-97401000D02*
G01*
X196349000Y-97401000D01*
X196349000Y-95599000D01*
X198151000Y-95599000D01*
X198151000Y-97401000D01*
G37*
G36*
X180676627Y-94462037D02*
G01*
X180846466Y-94513557D01*
X181002991Y-94597222D01*
X181038729Y-94626552D01*
X181140186Y-94709814D01*
X181223448Y-94811271D01*
X181252778Y-94847009D01*
X181336443Y-95003534D01*
X181387963Y-95173374D01*
X181401000Y-95305743D01*
X181401000Y-95694258D01*
X181387963Y-95826627D01*
X181336443Y-95996466D01*
X181252778Y-96152991D01*
X181226945Y-96184468D01*
X181140186Y-96290186D01*
X181002989Y-96402779D01*
X180858712Y-96479897D01*
X180846465Y-96486443D01*
X180676626Y-96537963D01*
X180500000Y-96555359D01*
X180323373Y-96537963D01*
X180153534Y-96486443D01*
X180141286Y-96479896D01*
X179997011Y-96402779D01*
X179997009Y-96402778D01*
X179934183Y-96351218D01*
X179859814Y-96290186D01*
X179747221Y-96152989D01*
X179663558Y-95996467D01*
X179658424Y-95979544D01*
X179612037Y-95826626D01*
X179599000Y-95694257D01*
X179599000Y-95305742D01*
X179612037Y-95173373D01*
X179663557Y-95003534D01*
X179747222Y-94847009D01*
X179859815Y-94709815D01*
X179997010Y-94597222D01*
X180153535Y-94513557D01*
X180323374Y-94462037D01*
X180500000Y-94444641D01*
X180676627Y-94462037D01*
G37*
G36*
X189426627Y-94462037D02*
G01*
X189596466Y-94513557D01*
X189752991Y-94597222D01*
X189788729Y-94626552D01*
X189890186Y-94709814D01*
X189973448Y-94811271D01*
X190002778Y-94847009D01*
X190086443Y-95003534D01*
X190137963Y-95173374D01*
X190151000Y-95305743D01*
X190151000Y-95694258D01*
X190137963Y-95826627D01*
X190086443Y-95996466D01*
X190002778Y-96152991D01*
X189976945Y-96184468D01*
X189890186Y-96290186D01*
X189752989Y-96402779D01*
X189608712Y-96479897D01*
X189596465Y-96486443D01*
X189426626Y-96537963D01*
X189250000Y-96555359D01*
X189073373Y-96537963D01*
X188903534Y-96486443D01*
X188891286Y-96479896D01*
X188747011Y-96402779D01*
X188747009Y-96402778D01*
X188684183Y-96351218D01*
X188609814Y-96290186D01*
X188497221Y-96152989D01*
X188413558Y-95996467D01*
X188408424Y-95979544D01*
X188362037Y-95826626D01*
X188349000Y-95694257D01*
X188349000Y-95305742D01*
X188362037Y-95173373D01*
X188413557Y-95003534D01*
X188497222Y-94847009D01*
X188609815Y-94709815D01*
X188747010Y-94597222D01*
X188903535Y-94513557D01*
X189073374Y-94462037D01*
X189250000Y-94444641D01*
X189426627Y-94462037D01*
G37*
G36*
X192508600Y-94452989D02*
G01*
X192541652Y-94463015D01*
X192572103Y-94479292D01*
X192598799Y-94501201D01*
X192620708Y-94527897D01*
X192636985Y-94558348D01*
X192647011Y-94591400D01*
X192651000Y-94631903D01*
X192651000Y-96368097D01*
X192647011Y-96408600D01*
X192636985Y-96441652D01*
X192620708Y-96472103D01*
X192598799Y-96498799D01*
X192572103Y-96520708D01*
X192541652Y-96536985D01*
X192508600Y-96547011D01*
X192468097Y-96551000D01*
X191031903Y-96551000D01*
X190991400Y-96547011D01*
X190958348Y-96536985D01*
X190927897Y-96520708D01*
X190901201Y-96498799D01*
X190879292Y-96472103D01*
X190863015Y-96441652D01*
X190852989Y-96408600D01*
X190849000Y-96368097D01*
X190849000Y-94631903D01*
X190852989Y-94591400D01*
X190863015Y-94558348D01*
X190879292Y-94527897D01*
X190901201Y-94501201D01*
X190927897Y-94479292D01*
X190958348Y-94463015D01*
X190991400Y-94452989D01*
X191031903Y-94449000D01*
X192468097Y-94449000D01*
X192508600Y-94452989D01*
G37*
G36*
X183758600Y-94452989D02*
G01*
X183791652Y-94463015D01*
X183822103Y-94479292D01*
X183848799Y-94501201D01*
X183870708Y-94527897D01*
X183886985Y-94558348D01*
X183897011Y-94591400D01*
X183901000Y-94631903D01*
X183901000Y-96368097D01*
X183897011Y-96408600D01*
X183886985Y-96441652D01*
X183870708Y-96472103D01*
X183848799Y-96498799D01*
X183822103Y-96520708D01*
X183791652Y-96536985D01*
X183758600Y-96547011D01*
X183718097Y-96551000D01*
X182281903Y-96551000D01*
X182241400Y-96547011D01*
X182208348Y-96536985D01*
X182177897Y-96520708D01*
X182151201Y-96498799D01*
X182129292Y-96472103D01*
X182113015Y-96441652D01*
X182102989Y-96408600D01*
X182099000Y-96368097D01*
X182099000Y-94631903D01*
X182102989Y-94591400D01*
X182113015Y-94558348D01*
X182129292Y-94527897D01*
X182151201Y-94501201D01*
X182177897Y-94479292D01*
X182208348Y-94463015D01*
X182241400Y-94452989D01*
X182281903Y-94449000D01*
X183718097Y-94449000D01*
X183758600Y-94452989D01*
G37*
G36*
X160834468Y-95278565D02*
G01*
X160873138Y-95290296D01*
X160908777Y-95309346D01*
X160940017Y-95334983D01*
X160965654Y-95366223D01*
X160984704Y-95401862D01*
X160996435Y-95440532D01*
X161001000Y-95486888D01*
X161001000Y-96138112D01*
X160996435Y-96184468D01*
X160984704Y-96223138D01*
X160965654Y-96258777D01*
X160940017Y-96290017D01*
X160908777Y-96315654D01*
X160873138Y-96334704D01*
X160834468Y-96346435D01*
X160788112Y-96351000D01*
X159711888Y-96351000D01*
X159665532Y-96346435D01*
X159626862Y-96334704D01*
X159591223Y-96315654D01*
X159559983Y-96290017D01*
X159534346Y-96258777D01*
X159515296Y-96223138D01*
X159503565Y-96184468D01*
X159499000Y-96138112D01*
X159499000Y-95486888D01*
X159503565Y-95440532D01*
X159515296Y-95401862D01*
X159534346Y-95366223D01*
X159559983Y-95334983D01*
X159591223Y-95309346D01*
X159626862Y-95290296D01*
X159665532Y-95278565D01*
X159711888Y-95274000D01*
X160788112Y-95274000D01*
X160834468Y-95278565D01*
G37*
G36*
X147584468Y-95278565D02*
G01*
X147623138Y-95290296D01*
X147658777Y-95309346D01*
X147690017Y-95334983D01*
X147715654Y-95366223D01*
X147734704Y-95401862D01*
X147746435Y-95440532D01*
X147751000Y-95486888D01*
X147751000Y-96138112D01*
X147746435Y-96184468D01*
X147734704Y-96223138D01*
X147715654Y-96258777D01*
X147690017Y-96290017D01*
X147658777Y-96315654D01*
X147623138Y-96334704D01*
X147584468Y-96346435D01*
X147538112Y-96351000D01*
X146461888Y-96351000D01*
X146415532Y-96346435D01*
X146376862Y-96334704D01*
X146341223Y-96315654D01*
X146309983Y-96290017D01*
X146284346Y-96258777D01*
X146265296Y-96223138D01*
X146253565Y-96184468D01*
X146249000Y-96138112D01*
X146249000Y-95486888D01*
X146253565Y-95440532D01*
X146265296Y-95401862D01*
X146284346Y-95366223D01*
X146309983Y-95334983D01*
X146341223Y-95309346D01*
X146376862Y-95290296D01*
X146415532Y-95278565D01*
X146461888Y-95274000D01*
X147538112Y-95274000D01*
X147584468Y-95278565D01*
G37*
G36*
X165094468Y-92829565D02*
G01*
X165133138Y-92841296D01*
X165168777Y-92860346D01*
X165200017Y-92885983D01*
X165225654Y-92917223D01*
X165244704Y-92952862D01*
X165256435Y-92991532D01*
X165261000Y-93037888D01*
X165261000Y-94114112D01*
X165256435Y-94160468D01*
X165244704Y-94199138D01*
X165225654Y-94234777D01*
X165200017Y-94266017D01*
X165168777Y-94291654D01*
X165133138Y-94310704D01*
X165094468Y-94322435D01*
X165048112Y-94327000D01*
X164396888Y-94327000D01*
X164350532Y-94322435D01*
X164311862Y-94310704D01*
X164276223Y-94291654D01*
X164244983Y-94266017D01*
X164219346Y-94234777D01*
X164200296Y-94199138D01*
X164188565Y-94160468D01*
X164184000Y-94114112D01*
X164184000Y-93037888D01*
X164188565Y-92991532D01*
X164200296Y-92952862D01*
X164219346Y-92917223D01*
X164244983Y-92885983D01*
X164276223Y-92860346D01*
X164311862Y-92841296D01*
X164350532Y-92829565D01*
X164396888Y-92825000D01*
X165048112Y-92825000D01*
X165094468Y-92829565D01*
G37*
G36*
X169158468Y-92829565D02*
G01*
X169197138Y-92841296D01*
X169232777Y-92860346D01*
X169264017Y-92885983D01*
X169289654Y-92917223D01*
X169308704Y-92952862D01*
X169320435Y-92991532D01*
X169325000Y-93037888D01*
X169325000Y-94114112D01*
X169320435Y-94160468D01*
X169308704Y-94199138D01*
X169289654Y-94234777D01*
X169264017Y-94266017D01*
X169232777Y-94291654D01*
X169197138Y-94310704D01*
X169158468Y-94322435D01*
X169112112Y-94327000D01*
X168460888Y-94327000D01*
X168414532Y-94322435D01*
X168375862Y-94310704D01*
X168340223Y-94291654D01*
X168308983Y-94266017D01*
X168283346Y-94234777D01*
X168264296Y-94199138D01*
X168252565Y-94160468D01*
X168248000Y-94114112D01*
X168248000Y-93037888D01*
X168252565Y-92991532D01*
X168264296Y-92952862D01*
X168283346Y-92917223D01*
X168308983Y-92885983D01*
X168340223Y-92860346D01*
X168375862Y-92841296D01*
X168414532Y-92829565D01*
X168460888Y-92825000D01*
X169112112Y-92825000D01*
X169158468Y-92829565D01*
G37*
G36*
X171033468Y-92829565D02*
G01*
X171072138Y-92841296D01*
X171107777Y-92860346D01*
X171139017Y-92885983D01*
X171164654Y-92917223D01*
X171183704Y-92952862D01*
X171195435Y-92991532D01*
X171200000Y-93037888D01*
X171200000Y-94114112D01*
X171195435Y-94160468D01*
X171183704Y-94199138D01*
X171164654Y-94234777D01*
X171139017Y-94266017D01*
X171107777Y-94291654D01*
X171072138Y-94310704D01*
X171033468Y-94322435D01*
X170987112Y-94327000D01*
X170335888Y-94327000D01*
X170289532Y-94322435D01*
X170250862Y-94310704D01*
X170215223Y-94291654D01*
X170183983Y-94266017D01*
X170158346Y-94234777D01*
X170139296Y-94199138D01*
X170127565Y-94160468D01*
X170123000Y-94114112D01*
X170123000Y-93037888D01*
X170127565Y-92991532D01*
X170139296Y-92952862D01*
X170158346Y-92917223D01*
X170183983Y-92885983D01*
X170215223Y-92860346D01*
X170250862Y-92841296D01*
X170289532Y-92829565D01*
X170335888Y-92825000D01*
X170987112Y-92825000D01*
X171033468Y-92829565D01*
G37*
G36*
X166969468Y-92829565D02*
G01*
X167008138Y-92841296D01*
X167043777Y-92860346D01*
X167075017Y-92885983D01*
X167100654Y-92917223D01*
X167119704Y-92952862D01*
X167131435Y-92991532D01*
X167136000Y-93037888D01*
X167136000Y-94114112D01*
X167131435Y-94160468D01*
X167119704Y-94199138D01*
X167100654Y-94234777D01*
X167075017Y-94266017D01*
X167043777Y-94291654D01*
X167008138Y-94310704D01*
X166969468Y-94322435D01*
X166923112Y-94327000D01*
X166271888Y-94327000D01*
X166225532Y-94322435D01*
X166186862Y-94310704D01*
X166151223Y-94291654D01*
X166119983Y-94266017D01*
X166094346Y-94234777D01*
X166075296Y-94199138D01*
X166063565Y-94160468D01*
X166059000Y-94114112D01*
X166059000Y-93037888D01*
X166063565Y-92991532D01*
X166075296Y-92952862D01*
X166094346Y-92917223D01*
X166119983Y-92885983D01*
X166151223Y-92860346D01*
X166186862Y-92841296D01*
X166225532Y-92829565D01*
X166271888Y-92825000D01*
X166923112Y-92825000D01*
X166969468Y-92829565D01*
G37*
G36*
X175613512Y-92393927D02*
G01*
X175762812Y-92423624D01*
X175926784Y-92491544D01*
X176074354Y-92590147D01*
X176199853Y-92715646D01*
X176298456Y-92863216D01*
X176366376Y-93027188D01*
X176401000Y-93201259D01*
X176401000Y-93378741D01*
X176366376Y-93552812D01*
X176298456Y-93716784D01*
X176199853Y-93864354D01*
X176074354Y-93989853D01*
X175926784Y-94088456D01*
X175762812Y-94156376D01*
X175613512Y-94186073D01*
X175588742Y-94191000D01*
X175411258Y-94191000D01*
X175386488Y-94186073D01*
X175237188Y-94156376D01*
X175073216Y-94088456D01*
X174925646Y-93989853D01*
X174800147Y-93864354D01*
X174701544Y-93716784D01*
X174633624Y-93552812D01*
X174599000Y-93378741D01*
X174599000Y-93201259D01*
X174633624Y-93027188D01*
X174701544Y-92863216D01*
X174800147Y-92715646D01*
X174925646Y-92590147D01*
X175073216Y-92491544D01*
X175237188Y-92423624D01*
X175386488Y-92393927D01*
X175411258Y-92389000D01*
X175588742Y-92389000D01*
X175613512Y-92393927D01*
G37*
G36*
X159084468Y-92653565D02*
G01*
X159123138Y-92665296D01*
X159158777Y-92684346D01*
X159190017Y-92709983D01*
X159215654Y-92741223D01*
X159234704Y-92776862D01*
X159246435Y-92815532D01*
X159251000Y-92861888D01*
X159251000Y-93513112D01*
X159246435Y-93559468D01*
X159234704Y-93598138D01*
X159215654Y-93633777D01*
X159190017Y-93665017D01*
X159158777Y-93690654D01*
X159123138Y-93709704D01*
X159084468Y-93721435D01*
X159038112Y-93726000D01*
X157961888Y-93726000D01*
X157915532Y-93721435D01*
X157876862Y-93709704D01*
X157841223Y-93690654D01*
X157809983Y-93665017D01*
X157784346Y-93633777D01*
X157765296Y-93598138D01*
X157753565Y-93559468D01*
X157749000Y-93513112D01*
X157749000Y-92861888D01*
X157753565Y-92815532D01*
X157765296Y-92776862D01*
X157784346Y-92741223D01*
X157809983Y-92709983D01*
X157841223Y-92684346D01*
X157876862Y-92665296D01*
X157915532Y-92653565D01*
X157961888Y-92649000D01*
X159038112Y-92649000D01*
X159084468Y-92653565D01*
G37*
G36*
X145914468Y-91753565D02*
G01*
X145953138Y-91765296D01*
X145988777Y-91784346D01*
X146020017Y-91809983D01*
X146045654Y-91841223D01*
X146064704Y-91876862D01*
X146076435Y-91915532D01*
X146081000Y-91961888D01*
X146081000Y-93038112D01*
X146076435Y-93084468D01*
X146064704Y-93123138D01*
X146045654Y-93158777D01*
X146020017Y-93190017D01*
X145988777Y-93215654D01*
X145953138Y-93234704D01*
X145914468Y-93246435D01*
X145868112Y-93251000D01*
X145216888Y-93251000D01*
X145170532Y-93246435D01*
X145131862Y-93234704D01*
X145096223Y-93215654D01*
X145064983Y-93190017D01*
X145039346Y-93158777D01*
X145020296Y-93123138D01*
X145008565Y-93084468D01*
X145004000Y-93038112D01*
X145004000Y-91961888D01*
X145008565Y-91915532D01*
X145020296Y-91876862D01*
X145039346Y-91841223D01*
X145064983Y-91809983D01*
X145096223Y-91784346D01*
X145131862Y-91765296D01*
X145170532Y-91753565D01*
X145216888Y-91749000D01*
X145868112Y-91749000D01*
X145914468Y-91753565D01*
G37*
G36*
X117309468Y-91753565D02*
G01*
X117348138Y-91765296D01*
X117383777Y-91784346D01*
X117415017Y-91809983D01*
X117440654Y-91841223D01*
X117459704Y-91876862D01*
X117471435Y-91915532D01*
X117476000Y-91961888D01*
X117476000Y-93038112D01*
X117471435Y-93084468D01*
X117459704Y-93123138D01*
X117440654Y-93158777D01*
X117415017Y-93190017D01*
X117383777Y-93215654D01*
X117348138Y-93234704D01*
X117309468Y-93246435D01*
X117263112Y-93251000D01*
X116611888Y-93251000D01*
X116565532Y-93246435D01*
X116526862Y-93234704D01*
X116491223Y-93215654D01*
X116459983Y-93190017D01*
X116434346Y-93158777D01*
X116415296Y-93123138D01*
X116403565Y-93084468D01*
X116399000Y-93038112D01*
X116399000Y-91961888D01*
X116403565Y-91915532D01*
X116415296Y-91876862D01*
X116434346Y-91841223D01*
X116459983Y-91809983D01*
X116491223Y-91784346D01*
X116526862Y-91765296D01*
X116565532Y-91753565D01*
X116611888Y-91749000D01*
X117263112Y-91749000D01*
X117309468Y-91753565D01*
G37*
G36*
X125594468Y-91753565D02*
G01*
X125633138Y-91765296D01*
X125668777Y-91784346D01*
X125700017Y-91809983D01*
X125725654Y-91841223D01*
X125744704Y-91876862D01*
X125756435Y-91915532D01*
X125761000Y-91961888D01*
X125761000Y-93038112D01*
X125756435Y-93084468D01*
X125744704Y-93123138D01*
X125725654Y-93158777D01*
X125700017Y-93190017D01*
X125668777Y-93215654D01*
X125633138Y-93234704D01*
X125594468Y-93246435D01*
X125548112Y-93251000D01*
X124896888Y-93251000D01*
X124850532Y-93246435D01*
X124811862Y-93234704D01*
X124776223Y-93215654D01*
X124744983Y-93190017D01*
X124719346Y-93158777D01*
X124700296Y-93123138D01*
X124688565Y-93084468D01*
X124684000Y-93038112D01*
X124684000Y-91961888D01*
X124688565Y-91915532D01*
X124700296Y-91876862D01*
X124719346Y-91841223D01*
X124744983Y-91809983D01*
X124776223Y-91784346D01*
X124811862Y-91765296D01*
X124850532Y-91753565D01*
X124896888Y-91749000D01*
X125548112Y-91749000D01*
X125594468Y-91753565D01*
G37*
G36*
X127469468Y-91753565D02*
G01*
X127508138Y-91765296D01*
X127543777Y-91784346D01*
X127575017Y-91809983D01*
X127600654Y-91841223D01*
X127619704Y-91876862D01*
X127631435Y-91915532D01*
X127636000Y-91961888D01*
X127636000Y-93038112D01*
X127631435Y-93084468D01*
X127619704Y-93123138D01*
X127600654Y-93158777D01*
X127575017Y-93190017D01*
X127543777Y-93215654D01*
X127508138Y-93234704D01*
X127469468Y-93246435D01*
X127423112Y-93251000D01*
X126771888Y-93251000D01*
X126725532Y-93246435D01*
X126686862Y-93234704D01*
X126651223Y-93215654D01*
X126619983Y-93190017D01*
X126594346Y-93158777D01*
X126575296Y-93123138D01*
X126563565Y-93084468D01*
X126559000Y-93038112D01*
X126559000Y-91961888D01*
X126563565Y-91915532D01*
X126575296Y-91876862D01*
X126594346Y-91841223D01*
X126619983Y-91809983D01*
X126651223Y-91784346D01*
X126686862Y-91765296D01*
X126725532Y-91753565D01*
X126771888Y-91749000D01*
X127423112Y-91749000D01*
X127469468Y-91753565D01*
G37*
G36*
X137629468Y-91753565D02*
G01*
X137668138Y-91765296D01*
X137703777Y-91784346D01*
X137735017Y-91809983D01*
X137760654Y-91841223D01*
X137779704Y-91876862D01*
X137791435Y-91915532D01*
X137796000Y-91961888D01*
X137796000Y-93038112D01*
X137791435Y-93084468D01*
X137779704Y-93123138D01*
X137760654Y-93158777D01*
X137735017Y-93190017D01*
X137703777Y-93215654D01*
X137668138Y-93234704D01*
X137629468Y-93246435D01*
X137583112Y-93251000D01*
X136931888Y-93251000D01*
X136885532Y-93246435D01*
X136846862Y-93234704D01*
X136811223Y-93215654D01*
X136779983Y-93190017D01*
X136754346Y-93158777D01*
X136735296Y-93123138D01*
X136723565Y-93084468D01*
X136719000Y-93038112D01*
X136719000Y-91961888D01*
X136723565Y-91915532D01*
X136735296Y-91876862D01*
X136754346Y-91841223D01*
X136779983Y-91809983D01*
X136811223Y-91784346D01*
X136846862Y-91765296D01*
X136885532Y-91753565D01*
X136931888Y-91749000D01*
X137583112Y-91749000D01*
X137629468Y-91753565D01*
G37*
G36*
X115434468Y-91753565D02*
G01*
X115473138Y-91765296D01*
X115508777Y-91784346D01*
X115540017Y-91809983D01*
X115565654Y-91841223D01*
X115584704Y-91876862D01*
X115596435Y-91915532D01*
X115601000Y-91961888D01*
X115601000Y-93038112D01*
X115596435Y-93084468D01*
X115584704Y-93123138D01*
X115565654Y-93158777D01*
X115540017Y-93190017D01*
X115508777Y-93215654D01*
X115473138Y-93234704D01*
X115434468Y-93246435D01*
X115388112Y-93251000D01*
X114736888Y-93251000D01*
X114690532Y-93246435D01*
X114651862Y-93234704D01*
X114616223Y-93215654D01*
X114584983Y-93190017D01*
X114559346Y-93158777D01*
X114540296Y-93123138D01*
X114528565Y-93084468D01*
X114524000Y-93038112D01*
X114524000Y-91961888D01*
X114528565Y-91915532D01*
X114540296Y-91876862D01*
X114559346Y-91841223D01*
X114584983Y-91809983D01*
X114616223Y-91784346D01*
X114651862Y-91765296D01*
X114690532Y-91753565D01*
X114736888Y-91749000D01*
X115388112Y-91749000D01*
X115434468Y-91753565D01*
G37*
G36*
X147789468Y-91753565D02*
G01*
X147828138Y-91765296D01*
X147863777Y-91784346D01*
X147895017Y-91809983D01*
X147920654Y-91841223D01*
X147939704Y-91876862D01*
X147951435Y-91915532D01*
X147956000Y-91961888D01*
X147956000Y-93038112D01*
X147951435Y-93084468D01*
X147939704Y-93123138D01*
X147920654Y-93158777D01*
X147895017Y-93190017D01*
X147863777Y-93215654D01*
X147828138Y-93234704D01*
X147789468Y-93246435D01*
X147743112Y-93251000D01*
X147091888Y-93251000D01*
X147045532Y-93246435D01*
X147006862Y-93234704D01*
X146971223Y-93215654D01*
X146939983Y-93190017D01*
X146914346Y-93158777D01*
X146895296Y-93123138D01*
X146883565Y-93084468D01*
X146879000Y-93038112D01*
X146879000Y-91961888D01*
X146883565Y-91915532D01*
X146895296Y-91876862D01*
X146914346Y-91841223D01*
X146939983Y-91809983D01*
X146971223Y-91784346D01*
X147006862Y-91765296D01*
X147045532Y-91753565D01*
X147091888Y-91749000D01*
X147743112Y-91749000D01*
X147789468Y-91753565D01*
G37*
G36*
X135754468Y-91753565D02*
G01*
X135793138Y-91765296D01*
X135828777Y-91784346D01*
X135860017Y-91809983D01*
X135885654Y-91841223D01*
X135904704Y-91876862D01*
X135916435Y-91915532D01*
X135921000Y-91961888D01*
X135921000Y-93038112D01*
X135916435Y-93084468D01*
X135904704Y-93123138D01*
X135885654Y-93158777D01*
X135860017Y-93190017D01*
X135828777Y-93215654D01*
X135793138Y-93234704D01*
X135754468Y-93246435D01*
X135708112Y-93251000D01*
X135056888Y-93251000D01*
X135010532Y-93246435D01*
X134971862Y-93234704D01*
X134936223Y-93215654D01*
X134904983Y-93190017D01*
X134879346Y-93158777D01*
X134860296Y-93123138D01*
X134848565Y-93084468D01*
X134844000Y-93038112D01*
X134844000Y-91961888D01*
X134848565Y-91915532D01*
X134860296Y-91876862D01*
X134879346Y-91841223D01*
X134904983Y-91809983D01*
X134936223Y-91784346D01*
X134971862Y-91765296D01*
X135010532Y-91753565D01*
X135056888Y-91749000D01*
X135708112Y-91749000D01*
X135754468Y-91753565D01*
G37*
G36*
X113951000Y-92651000D02*
G01*
X112949000Y-92651000D01*
X112949000Y-91749000D01*
X113951000Y-91749000D01*
X113951000Y-92651000D01*
G37*
G36*
X144431000Y-92651000D02*
G01*
X143429000Y-92651000D01*
X143429000Y-91749000D01*
X144431000Y-91749000D01*
X144431000Y-92651000D01*
G37*
G36*
X124111000Y-92651000D02*
G01*
X123109000Y-92651000D01*
X123109000Y-91749000D01*
X124111000Y-91749000D01*
X124111000Y-92651000D01*
G37*
G36*
X134271000Y-92651000D02*
G01*
X133269000Y-92651000D01*
X133269000Y-91749000D01*
X134271000Y-91749000D01*
X134271000Y-92651000D01*
G37*
G36*
X198151000Y-92401000D02*
G01*
X196349000Y-92401000D01*
X196349000Y-90599000D01*
X198151000Y-90599000D01*
X198151000Y-92401000D01*
G37*
G36*
X153379487Y-89383996D02*
G01*
X153616253Y-89482068D01*
X153616255Y-89482069D01*
X153829339Y-89624447D01*
X154010553Y-89805661D01*
X154083753Y-89915212D01*
X154152932Y-90018747D01*
X154251004Y-90255513D01*
X154301000Y-90506861D01*
X154301000Y-90763139D01*
X154251004Y-91014487D01*
X154161526Y-91230505D01*
X154152931Y-91251255D01*
X154010553Y-91464339D01*
X153829339Y-91645553D01*
X153616255Y-91787931D01*
X153616254Y-91787932D01*
X153616253Y-91787932D01*
X153379487Y-91886004D01*
X153128139Y-91936000D01*
X152871861Y-91936000D01*
X152620513Y-91886004D01*
X152383747Y-91787932D01*
X152383746Y-91787932D01*
X152383745Y-91787931D01*
X152170661Y-91645553D01*
X151989447Y-91464339D01*
X151847069Y-91251255D01*
X151838474Y-91230505D01*
X151748996Y-91014487D01*
X151699000Y-90763139D01*
X151699000Y-90506861D01*
X151748996Y-90255513D01*
X151847068Y-90018747D01*
X151916248Y-89915212D01*
X151989447Y-89805661D01*
X152170661Y-89624447D01*
X152383745Y-89482069D01*
X152383747Y-89482068D01*
X152620513Y-89383996D01*
X152871861Y-89334000D01*
X153128139Y-89334000D01*
X153379487Y-89383996D01*
G37*
G36*
X159084468Y-90778565D02*
G01*
X159123138Y-90790296D01*
X159158777Y-90809346D01*
X159190017Y-90834983D01*
X159215654Y-90866223D01*
X159234704Y-90901862D01*
X159246435Y-90940532D01*
X159251000Y-90986888D01*
X159251000Y-91638112D01*
X159246435Y-91684468D01*
X159234704Y-91723138D01*
X159215654Y-91758777D01*
X159190017Y-91790017D01*
X159158777Y-91815654D01*
X159123138Y-91834704D01*
X159084468Y-91846435D01*
X159038112Y-91851000D01*
X157961888Y-91851000D01*
X157915532Y-91846435D01*
X157876862Y-91834704D01*
X157841223Y-91815654D01*
X157809983Y-91790017D01*
X157784346Y-91758777D01*
X157765296Y-91723138D01*
X157753565Y-91684468D01*
X157749000Y-91638112D01*
X157749000Y-90986888D01*
X157753565Y-90940532D01*
X157765296Y-90901862D01*
X157784346Y-90866223D01*
X157809983Y-90834983D01*
X157841223Y-90809346D01*
X157876862Y-90790296D01*
X157915532Y-90778565D01*
X157961888Y-90774000D01*
X159038112Y-90774000D01*
X159084468Y-90778565D01*
G37*
G36*
X142431000Y-91701000D02*
G01*
X141429000Y-91701000D01*
X141429000Y-90799000D01*
X142431000Y-90799000D01*
X142431000Y-91701000D01*
G37*
G36*
X122111000Y-91701000D02*
G01*
X121109000Y-91701000D01*
X121109000Y-90799000D01*
X122111000Y-90799000D01*
X122111000Y-91701000D01*
G37*
G36*
X132271000Y-91701000D02*
G01*
X131269000Y-91701000D01*
X131269000Y-90799000D01*
X132271000Y-90799000D01*
X132271000Y-91701000D01*
G37*
G36*
X111951000Y-91701000D02*
G01*
X110949000Y-91701000D01*
X110949000Y-90799000D01*
X111951000Y-90799000D01*
X111951000Y-91701000D01*
G37*
G36*
X176401000Y-91651000D02*
G01*
X174599000Y-91651000D01*
X174599000Y-89849000D01*
X176401000Y-89849000D01*
X176401000Y-91651000D01*
G37*
G36*
X187934468Y-89753565D02*
G01*
X187973138Y-89765296D01*
X188008777Y-89784346D01*
X188040017Y-89809983D01*
X188065654Y-89841223D01*
X188084704Y-89876862D01*
X188096435Y-89915532D01*
X188101000Y-89961888D01*
X188101000Y-91038112D01*
X188096435Y-91084468D01*
X188084704Y-91123138D01*
X188065654Y-91158777D01*
X188040017Y-91190017D01*
X188008777Y-91215654D01*
X187973138Y-91234704D01*
X187934468Y-91246435D01*
X187888112Y-91251000D01*
X187236888Y-91251000D01*
X187190532Y-91246435D01*
X187151862Y-91234704D01*
X187116223Y-91215654D01*
X187084983Y-91190017D01*
X187059346Y-91158777D01*
X187040296Y-91123138D01*
X187028565Y-91084468D01*
X187024000Y-91038112D01*
X187024000Y-89961888D01*
X187028565Y-89915532D01*
X187040296Y-89876862D01*
X187059346Y-89841223D01*
X187084983Y-89809983D01*
X187116223Y-89784346D01*
X187151862Y-89765296D01*
X187190532Y-89753565D01*
X187236888Y-89749000D01*
X187888112Y-89749000D01*
X187934468Y-89753565D01*
G37*
G36*
X127469468Y-89753565D02*
G01*
X127508138Y-89765296D01*
X127543777Y-89784346D01*
X127575017Y-89809983D01*
X127600654Y-89841223D01*
X127619704Y-89876862D01*
X127631435Y-89915532D01*
X127636000Y-89961888D01*
X127636000Y-91038112D01*
X127631435Y-91084468D01*
X127619704Y-91123138D01*
X127600654Y-91158777D01*
X127575017Y-91190017D01*
X127543777Y-91215654D01*
X127508138Y-91234704D01*
X127469468Y-91246435D01*
X127423112Y-91251000D01*
X126771888Y-91251000D01*
X126725532Y-91246435D01*
X126686862Y-91234704D01*
X126651223Y-91215654D01*
X126619983Y-91190017D01*
X126594346Y-91158777D01*
X126575296Y-91123138D01*
X126563565Y-91084468D01*
X126559000Y-91038112D01*
X126559000Y-89961888D01*
X126563565Y-89915532D01*
X126575296Y-89876862D01*
X126594346Y-89841223D01*
X126619983Y-89809983D01*
X126651223Y-89784346D01*
X126686862Y-89765296D01*
X126725532Y-89753565D01*
X126771888Y-89749000D01*
X127423112Y-89749000D01*
X127469468Y-89753565D01*
G37*
G36*
X125594468Y-89753565D02*
G01*
X125633138Y-89765296D01*
X125668777Y-89784346D01*
X125700017Y-89809983D01*
X125725654Y-89841223D01*
X125744704Y-89876862D01*
X125756435Y-89915532D01*
X125761000Y-89961888D01*
X125761000Y-91038112D01*
X125756435Y-91084468D01*
X125744704Y-91123138D01*
X125725654Y-91158777D01*
X125700017Y-91190017D01*
X125668777Y-91215654D01*
X125633138Y-91234704D01*
X125594468Y-91246435D01*
X125548112Y-91251000D01*
X124896888Y-91251000D01*
X124850532Y-91246435D01*
X124811862Y-91234704D01*
X124776223Y-91215654D01*
X124744983Y-91190017D01*
X124719346Y-91158777D01*
X124700296Y-91123138D01*
X124688565Y-91084468D01*
X124684000Y-91038112D01*
X124684000Y-89961888D01*
X124688565Y-89915532D01*
X124700296Y-89876862D01*
X124719346Y-89841223D01*
X124744983Y-89809983D01*
X124776223Y-89784346D01*
X124811862Y-89765296D01*
X124850532Y-89753565D01*
X124896888Y-89749000D01*
X125548112Y-89749000D01*
X125594468Y-89753565D01*
G37*
G36*
X162559468Y-89753565D02*
G01*
X162598138Y-89765296D01*
X162633777Y-89784346D01*
X162665017Y-89809983D01*
X162690654Y-89841223D01*
X162709704Y-89876862D01*
X162721435Y-89915532D01*
X162726000Y-89961888D01*
X162726000Y-91038112D01*
X162721435Y-91084468D01*
X162709704Y-91123138D01*
X162690654Y-91158777D01*
X162665017Y-91190017D01*
X162633777Y-91215654D01*
X162598138Y-91234704D01*
X162559468Y-91246435D01*
X162513112Y-91251000D01*
X161861888Y-91251000D01*
X161815532Y-91246435D01*
X161776862Y-91234704D01*
X161741223Y-91215654D01*
X161709983Y-91190017D01*
X161684346Y-91158777D01*
X161665296Y-91123138D01*
X161653565Y-91084468D01*
X161649000Y-91038112D01*
X161649000Y-89961888D01*
X161653565Y-89915532D01*
X161665296Y-89876862D01*
X161684346Y-89841223D01*
X161709983Y-89809983D01*
X161741223Y-89784346D01*
X161776862Y-89765296D01*
X161815532Y-89753565D01*
X161861888Y-89749000D01*
X162513112Y-89749000D01*
X162559468Y-89753565D01*
G37*
G36*
X160684468Y-89753565D02*
G01*
X160723138Y-89765296D01*
X160758777Y-89784346D01*
X160790017Y-89809983D01*
X160815654Y-89841223D01*
X160834704Y-89876862D01*
X160846435Y-89915532D01*
X160851000Y-89961888D01*
X160851000Y-91038112D01*
X160846435Y-91084468D01*
X160834704Y-91123138D01*
X160815654Y-91158777D01*
X160790017Y-91190017D01*
X160758777Y-91215654D01*
X160723138Y-91234704D01*
X160684468Y-91246435D01*
X160638112Y-91251000D01*
X159986888Y-91251000D01*
X159940532Y-91246435D01*
X159901862Y-91234704D01*
X159866223Y-91215654D01*
X159834983Y-91190017D01*
X159809346Y-91158777D01*
X159790296Y-91123138D01*
X159778565Y-91084468D01*
X159774000Y-91038112D01*
X159774000Y-89961888D01*
X159778565Y-89915532D01*
X159790296Y-89876862D01*
X159809346Y-89841223D01*
X159834983Y-89809983D01*
X159866223Y-89784346D01*
X159901862Y-89765296D01*
X159940532Y-89753565D01*
X159986888Y-89749000D01*
X160638112Y-89749000D01*
X160684468Y-89753565D01*
G37*
G36*
X137629468Y-89753565D02*
G01*
X137668138Y-89765296D01*
X137703777Y-89784346D01*
X137735017Y-89809983D01*
X137760654Y-89841223D01*
X137779704Y-89876862D01*
X137791435Y-89915532D01*
X137796000Y-89961888D01*
X137796000Y-91038112D01*
X137791435Y-91084468D01*
X137779704Y-91123138D01*
X137760654Y-91158777D01*
X137735017Y-91190017D01*
X137703777Y-91215654D01*
X137668138Y-91234704D01*
X137629468Y-91246435D01*
X137583112Y-91251000D01*
X136931888Y-91251000D01*
X136885532Y-91246435D01*
X136846862Y-91234704D01*
X136811223Y-91215654D01*
X136779983Y-91190017D01*
X136754346Y-91158777D01*
X136735296Y-91123138D01*
X136723565Y-91084468D01*
X136719000Y-91038112D01*
X136719000Y-89961888D01*
X136723565Y-89915532D01*
X136735296Y-89876862D01*
X136754346Y-89841223D01*
X136779983Y-89809983D01*
X136811223Y-89784346D01*
X136846862Y-89765296D01*
X136885532Y-89753565D01*
X136931888Y-89749000D01*
X137583112Y-89749000D01*
X137629468Y-89753565D01*
G37*
G36*
X135754468Y-89753565D02*
G01*
X135793138Y-89765296D01*
X135828777Y-89784346D01*
X135860017Y-89809983D01*
X135885654Y-89841223D01*
X135904704Y-89876862D01*
X135916435Y-89915532D01*
X135921000Y-89961888D01*
X135921000Y-91038112D01*
X135916435Y-91084468D01*
X135904704Y-91123138D01*
X135885654Y-91158777D01*
X135860017Y-91190017D01*
X135828777Y-91215654D01*
X135793138Y-91234704D01*
X135754468Y-91246435D01*
X135708112Y-91251000D01*
X135056888Y-91251000D01*
X135010532Y-91246435D01*
X134971862Y-91234704D01*
X134936223Y-91215654D01*
X134904983Y-91190017D01*
X134879346Y-91158777D01*
X134860296Y-91123138D01*
X134848565Y-91084468D01*
X134844000Y-91038112D01*
X134844000Y-89961888D01*
X134848565Y-89915532D01*
X134860296Y-89876862D01*
X134879346Y-89841223D01*
X134904983Y-89809983D01*
X134936223Y-89784346D01*
X134971862Y-89765296D01*
X135010532Y-89753565D01*
X135056888Y-89749000D01*
X135708112Y-89749000D01*
X135754468Y-89753565D01*
G37*
G36*
X115434468Y-89753565D02*
G01*
X115473138Y-89765296D01*
X115508777Y-89784346D01*
X115540017Y-89809983D01*
X115565654Y-89841223D01*
X115584704Y-89876862D01*
X115596435Y-89915532D01*
X115601000Y-89961888D01*
X115601000Y-91038112D01*
X115596435Y-91084468D01*
X115584704Y-91123138D01*
X115565654Y-91158777D01*
X115540017Y-91190017D01*
X115508777Y-91215654D01*
X115473138Y-91234704D01*
X115434468Y-91246435D01*
X115388112Y-91251000D01*
X114736888Y-91251000D01*
X114690532Y-91246435D01*
X114651862Y-91234704D01*
X114616223Y-91215654D01*
X114584983Y-91190017D01*
X114559346Y-91158777D01*
X114540296Y-91123138D01*
X114528565Y-91084468D01*
X114524000Y-91038112D01*
X114524000Y-89961888D01*
X114528565Y-89915532D01*
X114540296Y-89876862D01*
X114559346Y-89841223D01*
X114584983Y-89809983D01*
X114616223Y-89784346D01*
X114651862Y-89765296D01*
X114690532Y-89753565D01*
X114736888Y-89749000D01*
X115388112Y-89749000D01*
X115434468Y-89753565D01*
G37*
G36*
X189809468Y-89753565D02*
G01*
X189848138Y-89765296D01*
X189883777Y-89784346D01*
X189915017Y-89809983D01*
X189940654Y-89841223D01*
X189959704Y-89876862D01*
X189971435Y-89915532D01*
X189976000Y-89961888D01*
X189976000Y-91038112D01*
X189971435Y-91084468D01*
X189959704Y-91123138D01*
X189940654Y-91158777D01*
X189915017Y-91190017D01*
X189883777Y-91215654D01*
X189848138Y-91234704D01*
X189809468Y-91246435D01*
X189763112Y-91251000D01*
X189111888Y-91251000D01*
X189065532Y-91246435D01*
X189026862Y-91234704D01*
X188991223Y-91215654D01*
X188959983Y-91190017D01*
X188934346Y-91158777D01*
X188915296Y-91123138D01*
X188903565Y-91084468D01*
X188899000Y-91038112D01*
X188899000Y-89961888D01*
X188903565Y-89915532D01*
X188915296Y-89876862D01*
X188934346Y-89841223D01*
X188959983Y-89809983D01*
X188991223Y-89784346D01*
X189026862Y-89765296D01*
X189065532Y-89753565D01*
X189111888Y-89749000D01*
X189763112Y-89749000D01*
X189809468Y-89753565D01*
G37*
G36*
X191934468Y-89753565D02*
G01*
X191973138Y-89765296D01*
X192008777Y-89784346D01*
X192040017Y-89809983D01*
X192065654Y-89841223D01*
X192084704Y-89876862D01*
X192096435Y-89915532D01*
X192101000Y-89961888D01*
X192101000Y-91038112D01*
X192096435Y-91084468D01*
X192084704Y-91123138D01*
X192065654Y-91158777D01*
X192040017Y-91190017D01*
X192008777Y-91215654D01*
X191973138Y-91234704D01*
X191934468Y-91246435D01*
X191888112Y-91251000D01*
X191236888Y-91251000D01*
X191190532Y-91246435D01*
X191151862Y-91234704D01*
X191116223Y-91215654D01*
X191084983Y-91190017D01*
X191059346Y-91158777D01*
X191040296Y-91123138D01*
X191028565Y-91084468D01*
X191024000Y-91038112D01*
X191024000Y-89961888D01*
X191028565Y-89915532D01*
X191040296Y-89876862D01*
X191059346Y-89841223D01*
X191084983Y-89809983D01*
X191116223Y-89784346D01*
X191151862Y-89765296D01*
X191190532Y-89753565D01*
X191236888Y-89749000D01*
X191888112Y-89749000D01*
X191934468Y-89753565D01*
G37*
G36*
X147789468Y-89753565D02*
G01*
X147828138Y-89765296D01*
X147863777Y-89784346D01*
X147895017Y-89809983D01*
X147920654Y-89841223D01*
X147939704Y-89876862D01*
X147951435Y-89915532D01*
X147956000Y-89961888D01*
X147956000Y-91038112D01*
X147951435Y-91084468D01*
X147939704Y-91123138D01*
X147920654Y-91158777D01*
X147895017Y-91190017D01*
X147863777Y-91215654D01*
X147828138Y-91234704D01*
X147789468Y-91246435D01*
X147743112Y-91251000D01*
X147091888Y-91251000D01*
X147045532Y-91246435D01*
X147006862Y-91234704D01*
X146971223Y-91215654D01*
X146939983Y-91190017D01*
X146914346Y-91158777D01*
X146895296Y-91123138D01*
X146883565Y-91084468D01*
X146879000Y-91038112D01*
X146879000Y-89961888D01*
X146883565Y-89915532D01*
X146895296Y-89876862D01*
X146914346Y-89841223D01*
X146939983Y-89809983D01*
X146971223Y-89784346D01*
X147006862Y-89765296D01*
X147045532Y-89753565D01*
X147091888Y-89749000D01*
X147743112Y-89749000D01*
X147789468Y-89753565D01*
G37*
G36*
X181059468Y-89753565D02*
G01*
X181098138Y-89765296D01*
X181133777Y-89784346D01*
X181165017Y-89809983D01*
X181190654Y-89841223D01*
X181209704Y-89876862D01*
X181221435Y-89915532D01*
X181226000Y-89961888D01*
X181226000Y-91038112D01*
X181221435Y-91084468D01*
X181209704Y-91123138D01*
X181190654Y-91158777D01*
X181165017Y-91190017D01*
X181133777Y-91215654D01*
X181098138Y-91234704D01*
X181059468Y-91246435D01*
X181013112Y-91251000D01*
X180361888Y-91251000D01*
X180315532Y-91246435D01*
X180276862Y-91234704D01*
X180241223Y-91215654D01*
X180209983Y-91190017D01*
X180184346Y-91158777D01*
X180165296Y-91123138D01*
X180153565Y-91084468D01*
X180149000Y-91038112D01*
X180149000Y-89961888D01*
X180153565Y-89915532D01*
X180165296Y-89876862D01*
X180184346Y-89841223D01*
X180209983Y-89809983D01*
X180241223Y-89784346D01*
X180276862Y-89765296D01*
X180315532Y-89753565D01*
X180361888Y-89749000D01*
X181013112Y-89749000D01*
X181059468Y-89753565D01*
G37*
G36*
X179184468Y-89753565D02*
G01*
X179223138Y-89765296D01*
X179258777Y-89784346D01*
X179290017Y-89809983D01*
X179315654Y-89841223D01*
X179334704Y-89876862D01*
X179346435Y-89915532D01*
X179351000Y-89961888D01*
X179351000Y-91038112D01*
X179346435Y-91084468D01*
X179334704Y-91123138D01*
X179315654Y-91158777D01*
X179290017Y-91190017D01*
X179258777Y-91215654D01*
X179223138Y-91234704D01*
X179184468Y-91246435D01*
X179138112Y-91251000D01*
X178486888Y-91251000D01*
X178440532Y-91246435D01*
X178401862Y-91234704D01*
X178366223Y-91215654D01*
X178334983Y-91190017D01*
X178309346Y-91158777D01*
X178290296Y-91123138D01*
X178278565Y-91084468D01*
X178274000Y-91038112D01*
X178274000Y-89961888D01*
X178278565Y-89915532D01*
X178290296Y-89876862D01*
X178309346Y-89841223D01*
X178334983Y-89809983D01*
X178366223Y-89784346D01*
X178401862Y-89765296D01*
X178440532Y-89753565D01*
X178486888Y-89749000D01*
X179138112Y-89749000D01*
X179184468Y-89753565D01*
G37*
G36*
X183184468Y-89753565D02*
G01*
X183223138Y-89765296D01*
X183258777Y-89784346D01*
X183290017Y-89809983D01*
X183315654Y-89841223D01*
X183334704Y-89876862D01*
X183346435Y-89915532D01*
X183351000Y-89961888D01*
X183351000Y-91038112D01*
X183346435Y-91084468D01*
X183334704Y-91123138D01*
X183315654Y-91158777D01*
X183290017Y-91190017D01*
X183258777Y-91215654D01*
X183223138Y-91234704D01*
X183184468Y-91246435D01*
X183138112Y-91251000D01*
X182486888Y-91251000D01*
X182440532Y-91246435D01*
X182401862Y-91234704D01*
X182366223Y-91215654D01*
X182334983Y-91190017D01*
X182309346Y-91158777D01*
X182290296Y-91123138D01*
X182278565Y-91084468D01*
X182274000Y-91038112D01*
X182274000Y-89961888D01*
X182278565Y-89915532D01*
X182290296Y-89876862D01*
X182309346Y-89841223D01*
X182334983Y-89809983D01*
X182366223Y-89784346D01*
X182401862Y-89765296D01*
X182440532Y-89753565D01*
X182486888Y-89749000D01*
X183138112Y-89749000D01*
X183184468Y-89753565D01*
G37*
G36*
X185059468Y-89753565D02*
G01*
X185098138Y-89765296D01*
X185133777Y-89784346D01*
X185165017Y-89809983D01*
X185190654Y-89841223D01*
X185209704Y-89876862D01*
X185221435Y-89915532D01*
X185226000Y-89961888D01*
X185226000Y-91038112D01*
X185221435Y-91084468D01*
X185209704Y-91123138D01*
X185190654Y-91158777D01*
X185165017Y-91190017D01*
X185133777Y-91215654D01*
X185098138Y-91234704D01*
X185059468Y-91246435D01*
X185013112Y-91251000D01*
X184361888Y-91251000D01*
X184315532Y-91246435D01*
X184276862Y-91234704D01*
X184241223Y-91215654D01*
X184209983Y-91190017D01*
X184184346Y-91158777D01*
X184165296Y-91123138D01*
X184153565Y-91084468D01*
X184149000Y-91038112D01*
X184149000Y-89961888D01*
X184153565Y-89915532D01*
X184165296Y-89876862D01*
X184184346Y-89841223D01*
X184209983Y-89809983D01*
X184241223Y-89784346D01*
X184276862Y-89765296D01*
X184315532Y-89753565D01*
X184361888Y-89749000D01*
X185013112Y-89749000D01*
X185059468Y-89753565D01*
G37*
G36*
X117309468Y-89753565D02*
G01*
X117348138Y-89765296D01*
X117383777Y-89784346D01*
X117415017Y-89809983D01*
X117440654Y-89841223D01*
X117459704Y-89876862D01*
X117471435Y-89915532D01*
X117476000Y-89961888D01*
X117476000Y-91038112D01*
X117471435Y-91084468D01*
X117459704Y-91123138D01*
X117440654Y-91158777D01*
X117415017Y-91190017D01*
X117383777Y-91215654D01*
X117348138Y-91234704D01*
X117309468Y-91246435D01*
X117263112Y-91251000D01*
X116611888Y-91251000D01*
X116565532Y-91246435D01*
X116526862Y-91234704D01*
X116491223Y-91215654D01*
X116459983Y-91190017D01*
X116434346Y-91158777D01*
X116415296Y-91123138D01*
X116403565Y-91084468D01*
X116399000Y-91038112D01*
X116399000Y-89961888D01*
X116403565Y-89915532D01*
X116415296Y-89876862D01*
X116434346Y-89841223D01*
X116459983Y-89809983D01*
X116491223Y-89784346D01*
X116526862Y-89765296D01*
X116565532Y-89753565D01*
X116611888Y-89749000D01*
X117263112Y-89749000D01*
X117309468Y-89753565D01*
G37*
G36*
X193809468Y-89753565D02*
G01*
X193848138Y-89765296D01*
X193883777Y-89784346D01*
X193915017Y-89809983D01*
X193940654Y-89841223D01*
X193959704Y-89876862D01*
X193971435Y-89915532D01*
X193976000Y-89961888D01*
X193976000Y-91038112D01*
X193971435Y-91084468D01*
X193959704Y-91123138D01*
X193940654Y-91158777D01*
X193915017Y-91190017D01*
X193883777Y-91215654D01*
X193848138Y-91234704D01*
X193809468Y-91246435D01*
X193763112Y-91251000D01*
X193111888Y-91251000D01*
X193065532Y-91246435D01*
X193026862Y-91234704D01*
X192991223Y-91215654D01*
X192959983Y-91190017D01*
X192934346Y-91158777D01*
X192915296Y-91123138D01*
X192903565Y-91084468D01*
X192899000Y-91038112D01*
X192899000Y-89961888D01*
X192903565Y-89915532D01*
X192915296Y-89876862D01*
X192934346Y-89841223D01*
X192959983Y-89809983D01*
X192991223Y-89784346D01*
X193026862Y-89765296D01*
X193065532Y-89753565D01*
X193111888Y-89749000D01*
X193763112Y-89749000D01*
X193809468Y-89753565D01*
G37*
G36*
X145914468Y-89753565D02*
G01*
X145953138Y-89765296D01*
X145988777Y-89784346D01*
X146020017Y-89809983D01*
X146045654Y-89841223D01*
X146064704Y-89876862D01*
X146076435Y-89915532D01*
X146081000Y-89961888D01*
X146081000Y-91038112D01*
X146076435Y-91084468D01*
X146064704Y-91123138D01*
X146045654Y-91158777D01*
X146020017Y-91190017D01*
X145988777Y-91215654D01*
X145953138Y-91234704D01*
X145914468Y-91246435D01*
X145868112Y-91251000D01*
X145216888Y-91251000D01*
X145170532Y-91246435D01*
X145131862Y-91234704D01*
X145096223Y-91215654D01*
X145064983Y-91190017D01*
X145039346Y-91158777D01*
X145020296Y-91123138D01*
X145008565Y-91084468D01*
X145004000Y-91038112D01*
X145004000Y-89961888D01*
X145008565Y-89915532D01*
X145020296Y-89876862D01*
X145039346Y-89841223D01*
X145064983Y-89809983D01*
X145096223Y-89784346D01*
X145131862Y-89765296D01*
X145170532Y-89753565D01*
X145216888Y-89749000D01*
X145868112Y-89749000D01*
X145914468Y-89753565D01*
G37*
G36*
X124111000Y-90751000D02*
G01*
X123109000Y-90751000D01*
X123109000Y-89849000D01*
X124111000Y-89849000D01*
X124111000Y-90751000D01*
G37*
G36*
X134271000Y-90751000D02*
G01*
X133269000Y-90751000D01*
X133269000Y-89849000D01*
X134271000Y-89849000D01*
X134271000Y-90751000D01*
G37*
G36*
X144431000Y-90751000D02*
G01*
X143429000Y-90751000D01*
X143429000Y-89849000D01*
X144431000Y-89849000D01*
X144431000Y-90751000D01*
G37*
G36*
X113951000Y-90751000D02*
G01*
X112949000Y-90751000D01*
X112949000Y-89849000D01*
X113951000Y-89849000D01*
X113951000Y-90751000D01*
G37*
G36*
X171309468Y-89003565D02*
G01*
X171348138Y-89015296D01*
X171383777Y-89034346D01*
X171415017Y-89059983D01*
X171440654Y-89091223D01*
X171459704Y-89126862D01*
X171471435Y-89165532D01*
X171476000Y-89211888D01*
X171476000Y-90288112D01*
X171471435Y-90334468D01*
X171459704Y-90373138D01*
X171440654Y-90408777D01*
X171415017Y-90440017D01*
X171383777Y-90465654D01*
X171348138Y-90484704D01*
X171309468Y-90496435D01*
X171263112Y-90501000D01*
X170611888Y-90501000D01*
X170565532Y-90496435D01*
X170526862Y-90484704D01*
X170491223Y-90465654D01*
X170459983Y-90440017D01*
X170434346Y-90408777D01*
X170415296Y-90373138D01*
X170403565Y-90334468D01*
X170399000Y-90288112D01*
X170399000Y-89211888D01*
X170403565Y-89165532D01*
X170415296Y-89126862D01*
X170434346Y-89091223D01*
X170459983Y-89059983D01*
X170491223Y-89034346D01*
X170526862Y-89015296D01*
X170565532Y-89003565D01*
X170611888Y-88999000D01*
X171263112Y-88999000D01*
X171309468Y-89003565D01*
G37*
G36*
X169434468Y-89003565D02*
G01*
X169473138Y-89015296D01*
X169508777Y-89034346D01*
X169540017Y-89059983D01*
X169565654Y-89091223D01*
X169584704Y-89126862D01*
X169596435Y-89165532D01*
X169601000Y-89211888D01*
X169601000Y-90288112D01*
X169596435Y-90334468D01*
X169584704Y-90373138D01*
X169565654Y-90408777D01*
X169540017Y-90440017D01*
X169508777Y-90465654D01*
X169473138Y-90484704D01*
X169434468Y-90496435D01*
X169388112Y-90501000D01*
X168736888Y-90501000D01*
X168690532Y-90496435D01*
X168651862Y-90484704D01*
X168616223Y-90465654D01*
X168584983Y-90440017D01*
X168559346Y-90408777D01*
X168540296Y-90373138D01*
X168528565Y-90334468D01*
X168524000Y-90288112D01*
X168524000Y-89211888D01*
X168528565Y-89165532D01*
X168540296Y-89126862D01*
X168559346Y-89091223D01*
X168584983Y-89059983D01*
X168616223Y-89034346D01*
X168651862Y-89015296D01*
X168690532Y-89003565D01*
X168736888Y-88999000D01*
X169388112Y-88999000D01*
X169434468Y-89003565D01*
G37*
G36*
X197363512Y-88063927D02*
G01*
X197512812Y-88093624D01*
X197676784Y-88161544D01*
X197824354Y-88260147D01*
X197949853Y-88385646D01*
X198048456Y-88533216D01*
X198116376Y-88697188D01*
X198151000Y-88871259D01*
X198151000Y-89048741D01*
X198116376Y-89222812D01*
X198048456Y-89386784D01*
X197949853Y-89534354D01*
X197824354Y-89659853D01*
X197676784Y-89758456D01*
X197512812Y-89826376D01*
X197363512Y-89856073D01*
X197338742Y-89861000D01*
X197161258Y-89861000D01*
X197136488Y-89856073D01*
X196987188Y-89826376D01*
X196823216Y-89758456D01*
X196675646Y-89659853D01*
X196550147Y-89534354D01*
X196451544Y-89386784D01*
X196383624Y-89222812D01*
X196349000Y-89048741D01*
X196349000Y-88871259D01*
X196383624Y-88697188D01*
X196451544Y-88533216D01*
X196550147Y-88385646D01*
X196675646Y-88260147D01*
X196823216Y-88161544D01*
X196987188Y-88093624D01*
X197136488Y-88063927D01*
X197161258Y-88059000D01*
X197338742Y-88059000D01*
X197363512Y-88063927D01*
G37*
G36*
X153379487Y-85723996D02*
G01*
X153616253Y-85822068D01*
X153616255Y-85822069D01*
X153829339Y-85964447D01*
X154010553Y-86145661D01*
X154146420Y-86349000D01*
X154152932Y-86358747D01*
X154251004Y-86595513D01*
X154301000Y-86846861D01*
X154301000Y-87103139D01*
X154251004Y-87354487D01*
X154169605Y-87551000D01*
X154152931Y-87591255D01*
X154010553Y-87804339D01*
X153829339Y-87985553D01*
X153616255Y-88127931D01*
X153616254Y-88127932D01*
X153616253Y-88127932D01*
X153379487Y-88226004D01*
X153128139Y-88276000D01*
X152871861Y-88276000D01*
X152620513Y-88226004D01*
X152383747Y-88127932D01*
X152383746Y-88127932D01*
X152383745Y-88127931D01*
X152170661Y-87985553D01*
X151989447Y-87804339D01*
X151847069Y-87591255D01*
X151830395Y-87551000D01*
X151748996Y-87354487D01*
X151699000Y-87103139D01*
X151699000Y-86846861D01*
X151748996Y-86595513D01*
X151847068Y-86358747D01*
X151853581Y-86349000D01*
X151989447Y-86145661D01*
X152170661Y-85964447D01*
X152383745Y-85822069D01*
X152383747Y-85822068D01*
X152620513Y-85723996D01*
X152871861Y-85674000D01*
X153128139Y-85674000D01*
X153379487Y-85723996D01*
G37*
G36*
X175476000Y-88201000D02*
G01*
X173924000Y-88201000D01*
X173924000Y-81799000D01*
X175476000Y-81799000D01*
X175476000Y-88201000D01*
G37*
G36*
X169576000Y-88201000D02*
G01*
X168024000Y-88201000D01*
X168024000Y-81799000D01*
X169576000Y-81799000D01*
X169576000Y-88201000D01*
G37*
G36*
X195076000Y-87401000D02*
G01*
X194324000Y-87401000D01*
X194324000Y-86899000D01*
X195076000Y-86899000D01*
X195076000Y-87401000D01*
G37*
G36*
X193176000Y-87401000D02*
G01*
X192424000Y-87401000D01*
X192424000Y-85599000D01*
X193176000Y-85599000D01*
X193176000Y-87401000D01*
G37*
G36*
X197363512Y-85523927D02*
G01*
X197512812Y-85553624D01*
X197676784Y-85621544D01*
X197824354Y-85720147D01*
X197949853Y-85845646D01*
X198048456Y-85993216D01*
X198116376Y-86157188D01*
X198151000Y-86331259D01*
X198151000Y-86508741D01*
X198116376Y-86682812D01*
X198048456Y-86846784D01*
X197949853Y-86994354D01*
X197824354Y-87119853D01*
X197676784Y-87218456D01*
X197512812Y-87286376D01*
X197363512Y-87316073D01*
X197338742Y-87321000D01*
X197161258Y-87321000D01*
X197136488Y-87316073D01*
X196987188Y-87286376D01*
X196823216Y-87218456D01*
X196675646Y-87119853D01*
X196550147Y-86994354D01*
X196451544Y-86846784D01*
X196383624Y-86682812D01*
X196349000Y-86508741D01*
X196349000Y-86331259D01*
X196383624Y-86157188D01*
X196451544Y-85993216D01*
X196550147Y-85845646D01*
X196675646Y-85720147D01*
X196823216Y-85621544D01*
X196987188Y-85553624D01*
X197136488Y-85523927D01*
X197161258Y-85519000D01*
X197338742Y-85519000D01*
X197363512Y-85523927D01*
G37*
G36*
X195076000Y-86101000D02*
G01*
X194324000Y-86101000D01*
X194324000Y-85599000D01*
X195076000Y-85599000D01*
X195076000Y-86101000D01*
G37*
G36*
X180809468Y-84253565D02*
G01*
X180848138Y-84265296D01*
X180883777Y-84284346D01*
X180915017Y-84309983D01*
X180940654Y-84341223D01*
X180959704Y-84376862D01*
X180971435Y-84415532D01*
X180976000Y-84461888D01*
X180976000Y-85538112D01*
X180971435Y-85584468D01*
X180959704Y-85623138D01*
X180940654Y-85658777D01*
X180915017Y-85690017D01*
X180883777Y-85715654D01*
X180848138Y-85734704D01*
X180809468Y-85746435D01*
X180763112Y-85751000D01*
X180111888Y-85751000D01*
X180065532Y-85746435D01*
X180026862Y-85734704D01*
X179991223Y-85715654D01*
X179959983Y-85690017D01*
X179934346Y-85658777D01*
X179915296Y-85623138D01*
X179903565Y-85584468D01*
X179899000Y-85538112D01*
X179899000Y-84461888D01*
X179903565Y-84415532D01*
X179915296Y-84376862D01*
X179934346Y-84341223D01*
X179959983Y-84309983D01*
X179991223Y-84284346D01*
X180026862Y-84265296D01*
X180065532Y-84253565D01*
X180111888Y-84249000D01*
X180763112Y-84249000D01*
X180809468Y-84253565D01*
G37*
G36*
X178934468Y-84253565D02*
G01*
X178973138Y-84265296D01*
X179008777Y-84284346D01*
X179040017Y-84309983D01*
X179065654Y-84341223D01*
X179084704Y-84376862D01*
X179096435Y-84415532D01*
X179101000Y-84461888D01*
X179101000Y-85538112D01*
X179096435Y-85584468D01*
X179084704Y-85623138D01*
X179065654Y-85658777D01*
X179040017Y-85690017D01*
X179008777Y-85715654D01*
X178973138Y-85734704D01*
X178934468Y-85746435D01*
X178888112Y-85751000D01*
X178236888Y-85751000D01*
X178190532Y-85746435D01*
X178151862Y-85734704D01*
X178116223Y-85715654D01*
X178084983Y-85690017D01*
X178059346Y-85658777D01*
X178040296Y-85623138D01*
X178028565Y-85584468D01*
X178024000Y-85538112D01*
X178024000Y-84461888D01*
X178028565Y-84415532D01*
X178040296Y-84376862D01*
X178059346Y-84341223D01*
X178084983Y-84309983D01*
X178116223Y-84284346D01*
X178151862Y-84265296D01*
X178190532Y-84253565D01*
X178236888Y-84249000D01*
X178888112Y-84249000D01*
X178934468Y-84253565D01*
G37*
G36*
X188943468Y-82667565D02*
G01*
X188982138Y-82679296D01*
X189017777Y-82698346D01*
X189049017Y-82723983D01*
X189074654Y-82755223D01*
X189093704Y-82790862D01*
X189105435Y-82829532D01*
X189110000Y-82875888D01*
X189110000Y-83952112D01*
X189105435Y-83998468D01*
X189093704Y-84037138D01*
X189074654Y-84072777D01*
X189049017Y-84104017D01*
X189017777Y-84129654D01*
X188982138Y-84148704D01*
X188943468Y-84160435D01*
X188897112Y-84165000D01*
X188245888Y-84165000D01*
X188199532Y-84160435D01*
X188160862Y-84148704D01*
X188125223Y-84129654D01*
X188093983Y-84104017D01*
X188068346Y-84072777D01*
X188049296Y-84037138D01*
X188037565Y-83998468D01*
X188033000Y-83952112D01*
X188033000Y-82875888D01*
X188037565Y-82829532D01*
X188049296Y-82790862D01*
X188068346Y-82755223D01*
X188093983Y-82723983D01*
X188125223Y-82698346D01*
X188160862Y-82679296D01*
X188199532Y-82667565D01*
X188245888Y-82663000D01*
X188897112Y-82663000D01*
X188943468Y-82667565D01*
G37*
G36*
X190818468Y-82667565D02*
G01*
X190857138Y-82679296D01*
X190892777Y-82698346D01*
X190924017Y-82723983D01*
X190949654Y-82755223D01*
X190968704Y-82790862D01*
X190980435Y-82829532D01*
X190985000Y-82875888D01*
X190985000Y-83952112D01*
X190980435Y-83998468D01*
X190968704Y-84037138D01*
X190949654Y-84072777D01*
X190924017Y-84104017D01*
X190892777Y-84129654D01*
X190857138Y-84148704D01*
X190818468Y-84160435D01*
X190772112Y-84165000D01*
X190120888Y-84165000D01*
X190074532Y-84160435D01*
X190035862Y-84148704D01*
X190000223Y-84129654D01*
X189968983Y-84104017D01*
X189943346Y-84072777D01*
X189924296Y-84037138D01*
X189912565Y-83998468D01*
X189908000Y-83952112D01*
X189908000Y-82875888D01*
X189912565Y-82829532D01*
X189924296Y-82790862D01*
X189943346Y-82755223D01*
X189968983Y-82723983D01*
X190000223Y-82698346D01*
X190035862Y-82679296D01*
X190074532Y-82667565D01*
X190120888Y-82663000D01*
X190772112Y-82663000D01*
X190818468Y-82667565D01*
G37*
G36*
X165701000Y-83851000D02*
G01*
X162999000Y-83851000D01*
X162999000Y-81149000D01*
X165701000Y-81149000D01*
X165701000Y-83851000D01*
G37*
G36*
X136984072Y-81200918D02*
G01*
X137180827Y-81282416D01*
X137229939Y-81302759D01*
X137303736Y-81352069D01*
X137451211Y-81450609D01*
X137639391Y-81638789D01*
X137787242Y-81860063D01*
X137889082Y-82105928D01*
X137941000Y-82366937D01*
X137941000Y-82633063D01*
X137889082Y-82894072D01*
X137804199Y-83099000D01*
X137787241Y-83139939D01*
X137639390Y-83361212D01*
X137451212Y-83549390D01*
X137229939Y-83697241D01*
X137229938Y-83697242D01*
X137229937Y-83697242D01*
X136984072Y-83799082D01*
X136723063Y-83851000D01*
X136456937Y-83851000D01*
X136195928Y-83799082D01*
X135950063Y-83697242D01*
X135950062Y-83697242D01*
X135950061Y-83697241D01*
X135728788Y-83549390D01*
X135540610Y-83361212D01*
X135392759Y-83139939D01*
X135375802Y-83099000D01*
X135290918Y-82894072D01*
X135239000Y-82633063D01*
X135239000Y-82366937D01*
X135290918Y-82105928D01*
X135392758Y-81860063D01*
X135540609Y-81638789D01*
X135728789Y-81450609D01*
X135876264Y-81352069D01*
X135950061Y-81302759D01*
X135999174Y-81282416D01*
X136195928Y-81200918D01*
X136456937Y-81149000D01*
X136723063Y-81149000D01*
X136984072Y-81200918D01*
G37*
G36*
X111584072Y-81200918D02*
G01*
X111780827Y-81282416D01*
X111829939Y-81302759D01*
X111903736Y-81352069D01*
X112051211Y-81450609D01*
X112239391Y-81638789D01*
X112387242Y-81860063D01*
X112489082Y-82105928D01*
X112541000Y-82366937D01*
X112541000Y-82633063D01*
X112489082Y-82894072D01*
X112404199Y-83099000D01*
X112387241Y-83139939D01*
X112239390Y-83361212D01*
X112051212Y-83549390D01*
X111829939Y-83697241D01*
X111829938Y-83697242D01*
X111829937Y-83697242D01*
X111584072Y-83799082D01*
X111323063Y-83851000D01*
X111056937Y-83851000D01*
X110795928Y-83799082D01*
X110550063Y-83697242D01*
X110550062Y-83697242D01*
X110550061Y-83697241D01*
X110328788Y-83549390D01*
X110140610Y-83361212D01*
X109992759Y-83139939D01*
X109975802Y-83099000D01*
X109890918Y-82894072D01*
X109839000Y-82633063D01*
X109839000Y-82366937D01*
X109890918Y-82105928D01*
X109992758Y-81860063D01*
X110140609Y-81638789D01*
X110328789Y-81450609D01*
X110476264Y-81352069D01*
X110550061Y-81302759D01*
X110599174Y-81282416D01*
X110795928Y-81200918D01*
X111056937Y-81149000D01*
X111323063Y-81149000D01*
X111584072Y-81200918D01*
G37*
G36*
X131904072Y-81200918D02*
G01*
X132100827Y-81282416D01*
X132149939Y-81302759D01*
X132223736Y-81352069D01*
X132371211Y-81450609D01*
X132559391Y-81638789D01*
X132707242Y-81860063D01*
X132809082Y-82105928D01*
X132861000Y-82366937D01*
X132861000Y-82633063D01*
X132809082Y-82894072D01*
X132724199Y-83099000D01*
X132707241Y-83139939D01*
X132559390Y-83361212D01*
X132371212Y-83549390D01*
X132149939Y-83697241D01*
X132149938Y-83697242D01*
X132149937Y-83697242D01*
X131904072Y-83799082D01*
X131643063Y-83851000D01*
X131376937Y-83851000D01*
X131115928Y-83799082D01*
X130870063Y-83697242D01*
X130870062Y-83697242D01*
X130870061Y-83697241D01*
X130648788Y-83549390D01*
X130460610Y-83361212D01*
X130312759Y-83139939D01*
X130295802Y-83099000D01*
X130210918Y-82894072D01*
X130159000Y-82633063D01*
X130159000Y-82366937D01*
X130210918Y-82105928D01*
X130312758Y-81860063D01*
X130460609Y-81638789D01*
X130648789Y-81450609D01*
X130796264Y-81352069D01*
X130870061Y-81302759D01*
X130919174Y-81282416D01*
X131115928Y-81200918D01*
X131376937Y-81149000D01*
X131643063Y-81149000D01*
X131904072Y-81200918D01*
G37*
G36*
X142064072Y-81200918D02*
G01*
X142260827Y-81282416D01*
X142309939Y-81302759D01*
X142383736Y-81352069D01*
X142531211Y-81450609D01*
X142719391Y-81638789D01*
X142867242Y-81860063D01*
X142969082Y-82105928D01*
X143021000Y-82366937D01*
X143021000Y-82633063D01*
X142969082Y-82894072D01*
X142884199Y-83099000D01*
X142867241Y-83139939D01*
X142719390Y-83361212D01*
X142531212Y-83549390D01*
X142309939Y-83697241D01*
X142309938Y-83697242D01*
X142309937Y-83697242D01*
X142064072Y-83799082D01*
X141803063Y-83851000D01*
X141536937Y-83851000D01*
X141275928Y-83799082D01*
X141030063Y-83697242D01*
X141030062Y-83697242D01*
X141030061Y-83697241D01*
X140808788Y-83549390D01*
X140620610Y-83361212D01*
X140472759Y-83139939D01*
X140455802Y-83099000D01*
X140370918Y-82894072D01*
X140319000Y-82633063D01*
X140319000Y-82366937D01*
X140370918Y-82105928D01*
X140472758Y-81860063D01*
X140620609Y-81638789D01*
X140808789Y-81450609D01*
X140956264Y-81352069D01*
X141030061Y-81302759D01*
X141079174Y-81282416D01*
X141275928Y-81200918D01*
X141536937Y-81149000D01*
X141803063Y-81149000D01*
X142064072Y-81200918D01*
G37*
G36*
X159664072Y-81200918D02*
G01*
X159860827Y-81282416D01*
X159909939Y-81302759D01*
X159983736Y-81352069D01*
X160131211Y-81450609D01*
X160319391Y-81638789D01*
X160467242Y-81860063D01*
X160569082Y-82105928D01*
X160621000Y-82366937D01*
X160621000Y-82633063D01*
X160569082Y-82894072D01*
X160484199Y-83099000D01*
X160467241Y-83139939D01*
X160319390Y-83361212D01*
X160131212Y-83549390D01*
X159909939Y-83697241D01*
X159909938Y-83697242D01*
X159909937Y-83697242D01*
X159664072Y-83799082D01*
X159403063Y-83851000D01*
X159136937Y-83851000D01*
X158875928Y-83799082D01*
X158630063Y-83697242D01*
X158630062Y-83697242D01*
X158630061Y-83697241D01*
X158408788Y-83549390D01*
X158220610Y-83361212D01*
X158072759Y-83139939D01*
X158055802Y-83099000D01*
X157970918Y-82894072D01*
X157919000Y-82633063D01*
X157919000Y-82366937D01*
X157970918Y-82105928D01*
X158072758Y-81860063D01*
X158220609Y-81638789D01*
X158408789Y-81450609D01*
X158556264Y-81352069D01*
X158630061Y-81302759D01*
X158679174Y-81282416D01*
X158875928Y-81200918D01*
X159136937Y-81149000D01*
X159403063Y-81149000D01*
X159664072Y-81200918D01*
G37*
G36*
X126824072Y-81200918D02*
G01*
X127020827Y-81282416D01*
X127069939Y-81302759D01*
X127143736Y-81352069D01*
X127291211Y-81450609D01*
X127479391Y-81638789D01*
X127627242Y-81860063D01*
X127729082Y-82105928D01*
X127781000Y-82366937D01*
X127781000Y-82633063D01*
X127729082Y-82894072D01*
X127644199Y-83099000D01*
X127627241Y-83139939D01*
X127479390Y-83361212D01*
X127291212Y-83549390D01*
X127069939Y-83697241D01*
X127069938Y-83697242D01*
X127069937Y-83697242D01*
X126824072Y-83799082D01*
X126563063Y-83851000D01*
X126296937Y-83851000D01*
X126035928Y-83799082D01*
X125790063Y-83697242D01*
X125790062Y-83697242D01*
X125790061Y-83697241D01*
X125568788Y-83549390D01*
X125380610Y-83361212D01*
X125232759Y-83139939D01*
X125215802Y-83099000D01*
X125130918Y-82894072D01*
X125079000Y-82633063D01*
X125079000Y-82366937D01*
X125130918Y-82105928D01*
X125232758Y-81860063D01*
X125380609Y-81638789D01*
X125568789Y-81450609D01*
X125716264Y-81352069D01*
X125790061Y-81302759D01*
X125839174Y-81282416D01*
X126035928Y-81200918D01*
X126296937Y-81149000D01*
X126563063Y-81149000D01*
X126824072Y-81200918D01*
G37*
G36*
X116664072Y-81200918D02*
G01*
X116860827Y-81282416D01*
X116909939Y-81302759D01*
X116983736Y-81352069D01*
X117131211Y-81450609D01*
X117319391Y-81638789D01*
X117467242Y-81860063D01*
X117569082Y-82105928D01*
X117621000Y-82366937D01*
X117621000Y-82633063D01*
X117569082Y-82894072D01*
X117484199Y-83099000D01*
X117467241Y-83139939D01*
X117319390Y-83361212D01*
X117131212Y-83549390D01*
X116909939Y-83697241D01*
X116909938Y-83697242D01*
X116909937Y-83697242D01*
X116664072Y-83799082D01*
X116403063Y-83851000D01*
X116136937Y-83851000D01*
X115875928Y-83799082D01*
X115630063Y-83697242D01*
X115630062Y-83697242D01*
X115630061Y-83697241D01*
X115408788Y-83549390D01*
X115220610Y-83361212D01*
X115072759Y-83139939D01*
X115055802Y-83099000D01*
X114970918Y-82894072D01*
X114919000Y-82633063D01*
X114919000Y-82366937D01*
X114970918Y-82105928D01*
X115072758Y-81860063D01*
X115220609Y-81638789D01*
X115408789Y-81450609D01*
X115556264Y-81352069D01*
X115630061Y-81302759D01*
X115679174Y-81282416D01*
X115875928Y-81200918D01*
X116136937Y-81149000D01*
X116403063Y-81149000D01*
X116664072Y-81200918D01*
G37*
G36*
X121744072Y-81200918D02*
G01*
X121940827Y-81282416D01*
X121989939Y-81302759D01*
X122063736Y-81352069D01*
X122211211Y-81450609D01*
X122399391Y-81638789D01*
X122547242Y-81860063D01*
X122649082Y-82105928D01*
X122701000Y-82366937D01*
X122701000Y-82633063D01*
X122649082Y-82894072D01*
X122564199Y-83099000D01*
X122547241Y-83139939D01*
X122399390Y-83361212D01*
X122211212Y-83549390D01*
X121989939Y-83697241D01*
X121989938Y-83697242D01*
X121989937Y-83697242D01*
X121744072Y-83799082D01*
X121483063Y-83851000D01*
X121216937Y-83851000D01*
X120955928Y-83799082D01*
X120710063Y-83697242D01*
X120710062Y-83697242D01*
X120710061Y-83697241D01*
X120488788Y-83549390D01*
X120300610Y-83361212D01*
X120152759Y-83139939D01*
X120135802Y-83099000D01*
X120050918Y-82894072D01*
X119999000Y-82633063D01*
X119999000Y-82366937D01*
X120050918Y-82105928D01*
X120152758Y-81860063D01*
X120300609Y-81638789D01*
X120488789Y-81450609D01*
X120636264Y-81352069D01*
X120710061Y-81302759D01*
X120759174Y-81282416D01*
X120955928Y-81200918D01*
X121216937Y-81149000D01*
X121483063Y-81149000D01*
X121744072Y-81200918D01*
G37*
G36*
X148101000Y-83851000D02*
G01*
X145399000Y-83851000D01*
X145399000Y-81149000D01*
X148101000Y-81149000D01*
X148101000Y-83851000D01*
G37*
G36*
X153379487Y-81253996D02*
G01*
X153616253Y-81352068D01*
X153616255Y-81352069D01*
X153763731Y-81450609D01*
X153829339Y-81494447D01*
X154010553Y-81675661D01*
X154152932Y-81888747D01*
X154251004Y-82125513D01*
X154301000Y-82376861D01*
X154301000Y-82633139D01*
X154251004Y-82884487D01*
X154152932Y-83121253D01*
X154152931Y-83121255D01*
X154010553Y-83334339D01*
X153829339Y-83515553D01*
X153616255Y-83657931D01*
X153616254Y-83657932D01*
X153616253Y-83657932D01*
X153379487Y-83756004D01*
X153128139Y-83806000D01*
X152871861Y-83806000D01*
X152620513Y-83756004D01*
X152383747Y-83657932D01*
X152383746Y-83657932D01*
X152383745Y-83657931D01*
X152170661Y-83515553D01*
X151989447Y-83334339D01*
X151847069Y-83121255D01*
X151847068Y-83121253D01*
X151748996Y-82884487D01*
X151699000Y-82633139D01*
X151699000Y-82376861D01*
X151748996Y-82125513D01*
X151847068Y-81888747D01*
X151989447Y-81675661D01*
X152170661Y-81494447D01*
X152236269Y-81450609D01*
X152383745Y-81352069D01*
X152383747Y-81352068D01*
X152620513Y-81253996D01*
X152871861Y-81204000D01*
X153128139Y-81204000D01*
X153379487Y-81253996D01*
G37*
G36*
X188935000Y-81920000D02*
G01*
X188183000Y-81920000D01*
X188183000Y-80758000D01*
X188935000Y-80758000D01*
X188935000Y-81920000D01*
G37*
G36*
X190835000Y-81920000D02*
G01*
X190083000Y-81920000D01*
X190083000Y-80758000D01*
X190835000Y-80758000D01*
X190835000Y-81920000D01*
G37*
G36*
X104375256Y-78391298D02*
G01*
X104481579Y-78412447D01*
X104782042Y-78536903D01*
X105052451Y-78717585D01*
X105282415Y-78947549D01*
X105384948Y-79101000D01*
X105463098Y-79217960D01*
X105465802Y-79224488D01*
X105587553Y-79518421D01*
X105598679Y-79574354D01*
X105651000Y-79837389D01*
X105651000Y-80162611D01*
X105643974Y-80197931D01*
X105587553Y-80481579D01*
X105463097Y-80782042D01*
X105282415Y-81052451D01*
X105052451Y-81282415D01*
X104782042Y-81463097D01*
X104782041Y-81463098D01*
X104782040Y-81463098D01*
X104694037Y-81499550D01*
X104481579Y-81587553D01*
X104375256Y-81608702D01*
X104162611Y-81651000D01*
X103837389Y-81651000D01*
X103624744Y-81608702D01*
X103518421Y-81587553D01*
X103305963Y-81499550D01*
X103217960Y-81463098D01*
X103217959Y-81463098D01*
X103217958Y-81463097D01*
X102947549Y-81282415D01*
X102717585Y-81052451D01*
X102536903Y-80782042D01*
X102412447Y-80481579D01*
X102356026Y-80197931D01*
X102349000Y-80162611D01*
X102349000Y-79837389D01*
X102401321Y-79574354D01*
X102412447Y-79518421D01*
X102534198Y-79224488D01*
X102536902Y-79217960D01*
X102615052Y-79101000D01*
X102717585Y-78947549D01*
X102947549Y-78717585D01*
X103217958Y-78536903D01*
X103518421Y-78412447D01*
X103624744Y-78391298D01*
X103837389Y-78349000D01*
X104162611Y-78349000D01*
X104375256Y-78391298D01*
G37*
G36*
X196375256Y-78391298D02*
G01*
X196481579Y-78412447D01*
X196782042Y-78536903D01*
X197052451Y-78717585D01*
X197282415Y-78947549D01*
X197384948Y-79101000D01*
X197463098Y-79217960D01*
X197465802Y-79224488D01*
X197587553Y-79518421D01*
X197598679Y-79574354D01*
X197651000Y-79837389D01*
X197651000Y-80162611D01*
X197643974Y-80197931D01*
X197587553Y-80481579D01*
X197463097Y-80782042D01*
X197282415Y-81052451D01*
X197052451Y-81282415D01*
X196782042Y-81463097D01*
X196782041Y-81463098D01*
X196782040Y-81463098D01*
X196694037Y-81499550D01*
X196481579Y-81587553D01*
X196375256Y-81608702D01*
X196162611Y-81651000D01*
X195837389Y-81651000D01*
X195624744Y-81608702D01*
X195518421Y-81587553D01*
X195305963Y-81499550D01*
X195217960Y-81463098D01*
X195217959Y-81463098D01*
X195217958Y-81463097D01*
X194947549Y-81282415D01*
X194717585Y-81052451D01*
X194536903Y-80782042D01*
X194412447Y-80481579D01*
X194356026Y-80197931D01*
X194349000Y-80162611D01*
X194349000Y-79837389D01*
X194401321Y-79574354D01*
X194412447Y-79518421D01*
X194534198Y-79224488D01*
X194536902Y-79217960D01*
X194615052Y-79101000D01*
X194717585Y-78947549D01*
X194947549Y-78717585D01*
X195217958Y-78536903D01*
X195518421Y-78412447D01*
X195624744Y-78391298D01*
X195837389Y-78349000D01*
X196162611Y-78349000D01*
X196375256Y-78391298D01*
G37*
G36*
X176334468Y-79903565D02*
G01*
X176373138Y-79915296D01*
X176408777Y-79934346D01*
X176440017Y-79959983D01*
X176465654Y-79991223D01*
X176484704Y-80026862D01*
X176496435Y-80065532D01*
X176501000Y-80111888D01*
X176501000Y-80763112D01*
X176496435Y-80809468D01*
X176484704Y-80848138D01*
X176465654Y-80883777D01*
X176440017Y-80915017D01*
X176408777Y-80940654D01*
X176373138Y-80959704D01*
X176334468Y-80971435D01*
X176288112Y-80976000D01*
X175211888Y-80976000D01*
X175165532Y-80971435D01*
X175126862Y-80959704D01*
X175091223Y-80940654D01*
X175059983Y-80915017D01*
X175034346Y-80883777D01*
X175015296Y-80848138D01*
X175003565Y-80809468D01*
X174999000Y-80763112D01*
X174999000Y-80111888D01*
X175003565Y-80065532D01*
X175015296Y-80026862D01*
X175034346Y-79991223D01*
X175059983Y-79959983D01*
X175091223Y-79934346D01*
X175126862Y-79915296D01*
X175165532Y-79903565D01*
X175211888Y-79899000D01*
X176288112Y-79899000D01*
X176334468Y-79903565D01*
G37*
G36*
X179468348Y-79375320D02*
G01*
X179468350Y-79375321D01*
X179468351Y-79375321D01*
X179609574Y-79433817D01*
X179609577Y-79433819D01*
X179736669Y-79518739D01*
X179844761Y-79626831D01*
X179893552Y-79699852D01*
X179929683Y-79753926D01*
X179950517Y-79804225D01*
X179962068Y-79825836D01*
X179977614Y-79844778D01*
X179996556Y-79860323D01*
X180018166Y-79871874D01*
X180041615Y-79878987D01*
X180066001Y-79881389D01*
X180090387Y-79878987D01*
X180113836Y-79871874D01*
X180135447Y-79860323D01*
X180154389Y-79844777D01*
X180169934Y-79825835D01*
X180181485Y-79804225D01*
X180188598Y-79780776D01*
X180191000Y-79756390D01*
X180191000Y-79395500D01*
X183293000Y-79395500D01*
X183293000Y-79756390D01*
X183295402Y-79780776D01*
X183302515Y-79804225D01*
X183314066Y-79825836D01*
X183329611Y-79844778D01*
X183348553Y-79860323D01*
X183370164Y-79871874D01*
X183393613Y-79878987D01*
X183417999Y-79881389D01*
X183442385Y-79878987D01*
X183465834Y-79871874D01*
X183487445Y-79860323D01*
X183506387Y-79844778D01*
X183521932Y-79825836D01*
X183533483Y-79804225D01*
X183554317Y-79753926D01*
X183590448Y-79699852D01*
X183639239Y-79626831D01*
X183747331Y-79518739D01*
X183874423Y-79433819D01*
X183874426Y-79433817D01*
X184015649Y-79375321D01*
X184015650Y-79375321D01*
X184015652Y-79375320D01*
X184165569Y-79345500D01*
X184318431Y-79345500D01*
X184468348Y-79375320D01*
X184468350Y-79375321D01*
X184468351Y-79375321D01*
X184609574Y-79433817D01*
X184609577Y-79433819D01*
X184736669Y-79518739D01*
X184844761Y-79626831D01*
X184907014Y-79720000D01*
X184929683Y-79753926D01*
X184982479Y-79881389D01*
X184988180Y-79895152D01*
X185014378Y-80026862D01*
X185018000Y-80045071D01*
X185018000Y-80197929D01*
X184988179Y-80347851D01*
X184929683Y-80489074D01*
X184929682Y-80489075D01*
X184929681Y-80489077D01*
X184844761Y-80616169D01*
X184736669Y-80724261D01*
X184684262Y-80759278D01*
X184609574Y-80809183D01*
X184468351Y-80867679D01*
X184468350Y-80867679D01*
X184468348Y-80867680D01*
X184318431Y-80897500D01*
X184165569Y-80897500D01*
X184015652Y-80867680D01*
X184015650Y-80867679D01*
X184015649Y-80867679D01*
X183874426Y-80809183D01*
X183799738Y-80759278D01*
X183747331Y-80724261D01*
X183639239Y-80616169D01*
X183554318Y-80489075D01*
X183554317Y-80489074D01*
X183533481Y-80438772D01*
X183521932Y-80417164D01*
X183506386Y-80398222D01*
X183487444Y-80382677D01*
X183465834Y-80371126D01*
X183442385Y-80364013D01*
X183417999Y-80361611D01*
X183393613Y-80364013D01*
X183370164Y-80371126D01*
X183348553Y-80382677D01*
X183329611Y-80398223D01*
X183314066Y-80417165D01*
X183302515Y-80438775D01*
X183295402Y-80462224D01*
X183293000Y-80486610D01*
X183293000Y-80847500D01*
X180191000Y-80847500D01*
X180191000Y-80486610D01*
X180188598Y-80462224D01*
X180181485Y-80438775D01*
X180169934Y-80417164D01*
X180154389Y-80398222D01*
X180135447Y-80382677D01*
X180113836Y-80371126D01*
X180090387Y-80364013D01*
X180066001Y-80361611D01*
X180041615Y-80364013D01*
X180018166Y-80371126D01*
X179996555Y-80382677D01*
X179977613Y-80398222D01*
X179962068Y-80417164D01*
X179950519Y-80438772D01*
X179929683Y-80489074D01*
X179929682Y-80489075D01*
X179844761Y-80616169D01*
X179736669Y-80724261D01*
X179684262Y-80759278D01*
X179609574Y-80809183D01*
X179468351Y-80867679D01*
X179468350Y-80867679D01*
X179468348Y-80867680D01*
X179318431Y-80897500D01*
X179165569Y-80897500D01*
X179015652Y-80867680D01*
X179015650Y-80867679D01*
X179015649Y-80867679D01*
X178874426Y-80809183D01*
X178799738Y-80759278D01*
X178747331Y-80724261D01*
X178639239Y-80616169D01*
X178554319Y-80489077D01*
X178554318Y-80489075D01*
X178554317Y-80489074D01*
X178495821Y-80347851D01*
X178466000Y-80197929D01*
X178466000Y-80045071D01*
X178469622Y-80026862D01*
X178495820Y-79895152D01*
X178501521Y-79881389D01*
X178554317Y-79753926D01*
X178576986Y-79720000D01*
X178639239Y-79626831D01*
X178747331Y-79518739D01*
X178874423Y-79433819D01*
X178874426Y-79433817D01*
X179015649Y-79375321D01*
X179015650Y-79375321D01*
X179015652Y-79375320D01*
X179165569Y-79345500D01*
X179318431Y-79345500D01*
X179468348Y-79375320D01*
G37*
G36*
X153379487Y-77593996D02*
G01*
X153616253Y-77692068D01*
X153616255Y-77692069D01*
X153829339Y-77834447D01*
X154010553Y-78015661D01*
X154090243Y-78134925D01*
X154152932Y-78228747D01*
X154251004Y-78465513D01*
X154301000Y-78716861D01*
X154301000Y-78973139D01*
X154251004Y-79224487D01*
X154152932Y-79461253D01*
X154152931Y-79461255D01*
X154010553Y-79674339D01*
X153829339Y-79855553D01*
X153616255Y-79997931D01*
X153616254Y-79997932D01*
X153616253Y-79997932D01*
X153379487Y-80096004D01*
X153128139Y-80146000D01*
X152871861Y-80146000D01*
X152620513Y-80096004D01*
X152383747Y-79997932D01*
X152383746Y-79997932D01*
X152383745Y-79997931D01*
X152170661Y-79855553D01*
X151989447Y-79674339D01*
X151847069Y-79461255D01*
X151847068Y-79461253D01*
X151748996Y-79224487D01*
X151699000Y-78973139D01*
X151699000Y-78716861D01*
X151748996Y-78465513D01*
X151847068Y-78228747D01*
X151909758Y-78134925D01*
X151989447Y-78015661D01*
X152170661Y-77834447D01*
X152383745Y-77692069D01*
X152383747Y-77692068D01*
X152620513Y-77593996D01*
X152871861Y-77544000D01*
X153128139Y-77544000D01*
X153379487Y-77593996D01*
G37*
G36*
X170901000Y-79901000D02*
G01*
X169099000Y-79901000D01*
X169099000Y-78099000D01*
X170901000Y-78099000D01*
X170901000Y-79901000D01*
G37*
G36*
X172648152Y-78102861D02*
G01*
X172802812Y-78133624D01*
X172966784Y-78201544D01*
X173114354Y-78300147D01*
X173239853Y-78425646D01*
X173338456Y-78573216D01*
X173406376Y-78737188D01*
X173441000Y-78911259D01*
X173441000Y-79088741D01*
X173406376Y-79262812D01*
X173338456Y-79426784D01*
X173239853Y-79574354D01*
X173114354Y-79699853D01*
X172966784Y-79798456D01*
X172802812Y-79866376D01*
X172653512Y-79896073D01*
X172628742Y-79901000D01*
X172451258Y-79901000D01*
X172426488Y-79896073D01*
X172277188Y-79866376D01*
X172113216Y-79798456D01*
X171965646Y-79699853D01*
X171840147Y-79574354D01*
X171741544Y-79426784D01*
X171673624Y-79262812D01*
X171639000Y-79088741D01*
X171639000Y-78911259D01*
X171673624Y-78737188D01*
X171741544Y-78573216D01*
X171840147Y-78425646D01*
X171965646Y-78300147D01*
X172113216Y-78201544D01*
X172277188Y-78133624D01*
X172431848Y-78102861D01*
X172451258Y-78099000D01*
X172628742Y-78099000D01*
X172648152Y-78102861D01*
G37*
G36*
X190835000Y-79720000D02*
G01*
X188183000Y-79720000D01*
X188183000Y-78558000D01*
X190835000Y-78558000D01*
X190835000Y-79720000D01*
G37*
G36*
X176334468Y-78028565D02*
G01*
X176373138Y-78040296D01*
X176408777Y-78059346D01*
X176440017Y-78084983D01*
X176465654Y-78116223D01*
X176484704Y-78151862D01*
X176496435Y-78190532D01*
X176501000Y-78236888D01*
X176501000Y-78888112D01*
X176496435Y-78934468D01*
X176484704Y-78973138D01*
X176465654Y-79008777D01*
X176440017Y-79040017D01*
X176408777Y-79065654D01*
X176373138Y-79084704D01*
X176334468Y-79096435D01*
X176288112Y-79101000D01*
X175211888Y-79101000D01*
X175165532Y-79096435D01*
X175126862Y-79084704D01*
X175091223Y-79065654D01*
X175059983Y-79040017D01*
X175034346Y-79008777D01*
X175015296Y-78973138D01*
X175003565Y-78934468D01*
X174999000Y-78888112D01*
X174999000Y-78236888D01*
X175003565Y-78190532D01*
X175015296Y-78151862D01*
X175034346Y-78116223D01*
X175059983Y-78084983D01*
X175091223Y-78059346D01*
X175126862Y-78040296D01*
X175165532Y-78028565D01*
X175211888Y-78024000D01*
X176288112Y-78024000D01*
X176334468Y-78028565D01*
G37*
G36*
X178267862Y-76419898D02*
G01*
X178280114Y-76420500D01*
X179493000Y-76420500D01*
X179493000Y-78422500D01*
X178280114Y-78422500D01*
X178267862Y-78423102D01*
X178242000Y-78425649D01*
X178216138Y-78423102D01*
X178203886Y-78422500D01*
X178130594Y-78422500D01*
X178113836Y-78413543D01*
X178102299Y-78409415D01*
X178017307Y-78383632D01*
X177991664Y-78375854D01*
X177878575Y-78315406D01*
X177779447Y-78234054D01*
X177698094Y-78134924D01*
X177637646Y-78021835D01*
X177623349Y-77974704D01*
X177600420Y-77899117D01*
X177591000Y-77803472D01*
X177591000Y-77039527D01*
X177600420Y-76943882D01*
X177637645Y-76821168D01*
X177698096Y-76708074D01*
X177700026Y-76705722D01*
X177779447Y-76608946D01*
X177878576Y-76527594D01*
X177991666Y-76467146D01*
X177991669Y-76467145D01*
X178102290Y-76433588D01*
X178124925Y-76424212D01*
X178130481Y-76420500D01*
X178203886Y-76420500D01*
X178216138Y-76419898D01*
X178242000Y-76417351D01*
X178267862Y-76419898D01*
G37*
G36*
X185267862Y-76419898D02*
G01*
X185280114Y-76420500D01*
X185353406Y-76420500D01*
X185370164Y-76429457D01*
X185381707Y-76433587D01*
X185492331Y-76467145D01*
X185492334Y-76467146D01*
X185605424Y-76527594D01*
X185704554Y-76608947D01*
X185785906Y-76708075D01*
X185846354Y-76821164D01*
X185856040Y-76853096D01*
X185883580Y-76943882D01*
X185893000Y-77039527D01*
X185893000Y-77803473D01*
X185883580Y-77899118D01*
X185869473Y-77945623D01*
X185846354Y-78021836D01*
X185785906Y-78134925D01*
X185704554Y-78234054D01*
X185605425Y-78315406D01*
X185492336Y-78375854D01*
X185466693Y-78383632D01*
X185381708Y-78409413D01*
X185359075Y-78418787D01*
X185353518Y-78422500D01*
X185280114Y-78422500D01*
X185267862Y-78423102D01*
X185242000Y-78425649D01*
X185216138Y-78423102D01*
X185203886Y-78422500D01*
X183991000Y-78422500D01*
X183991000Y-76420500D01*
X185203886Y-76420500D01*
X185216138Y-76419898D01*
X185242000Y-76417351D01*
X185267862Y-76419898D01*
G37*
G36*
X181543000Y-78422500D02*
G01*
X179941000Y-78422500D01*
X179941000Y-76420500D01*
X181543000Y-76420500D01*
X181543000Y-78422500D01*
G37*
G36*
X183543000Y-78422500D02*
G01*
X181941000Y-78422500D01*
X181941000Y-76420500D01*
X183543000Y-76420500D01*
X183543000Y-78422500D01*
G37*
G36*
X190810468Y-76493565D02*
G01*
X190849138Y-76505296D01*
X190884777Y-76524346D01*
X190916017Y-76549983D01*
X190941654Y-76581223D01*
X190960704Y-76616862D01*
X190972435Y-76655532D01*
X190977000Y-76701888D01*
X190977000Y-77778112D01*
X190972435Y-77824468D01*
X190960704Y-77863138D01*
X190941654Y-77898777D01*
X190916017Y-77930017D01*
X190884777Y-77955654D01*
X190849138Y-77974704D01*
X190810468Y-77986435D01*
X190764112Y-77991000D01*
X190112888Y-77991000D01*
X190066532Y-77986435D01*
X190027862Y-77974704D01*
X189992223Y-77955654D01*
X189960983Y-77930017D01*
X189935346Y-77898777D01*
X189916296Y-77863138D01*
X189904565Y-77824468D01*
X189900000Y-77778112D01*
X189900000Y-76701888D01*
X189904565Y-76655532D01*
X189916296Y-76616862D01*
X189935346Y-76581223D01*
X189960983Y-76549983D01*
X189992223Y-76524346D01*
X190027862Y-76505296D01*
X190066532Y-76493565D01*
X190112888Y-76489000D01*
X190764112Y-76489000D01*
X190810468Y-76493565D01*
G37*
G36*
X188935468Y-76493565D02*
G01*
X188974138Y-76505296D01*
X189009777Y-76524346D01*
X189041017Y-76549983D01*
X189066654Y-76581223D01*
X189085704Y-76616862D01*
X189097435Y-76655532D01*
X189102000Y-76701888D01*
X189102000Y-77778112D01*
X189097435Y-77824468D01*
X189085704Y-77863138D01*
X189066654Y-77898777D01*
X189041017Y-77930017D01*
X189009777Y-77955654D01*
X188974138Y-77974704D01*
X188935468Y-77986435D01*
X188889112Y-77991000D01*
X188237888Y-77991000D01*
X188191532Y-77986435D01*
X188152862Y-77974704D01*
X188117223Y-77955654D01*
X188085983Y-77930017D01*
X188060346Y-77898777D01*
X188041296Y-77863138D01*
X188029565Y-77824468D01*
X188025000Y-77778112D01*
X188025000Y-76701888D01*
X188029565Y-76655532D01*
X188041296Y-76616862D01*
X188060346Y-76581223D01*
X188085983Y-76549983D01*
X188117223Y-76524346D01*
X188152862Y-76505296D01*
X188191532Y-76493565D01*
X188237888Y-76489000D01*
X188889112Y-76489000D01*
X188935468Y-76493565D01*
G37*
M02*
