G04 #@! TF.GenerationSoftware,KiCad,Pcbnew,(5.1.5)-3*
G04 #@! TF.CreationDate,2020-05-17T02:07:37-04:00*
G04 #@! TF.ProjectId,STM32_Klipper_Expander,53544d33-325f-44b6-9c69-707065725f45,B*
G04 #@! TF.SameCoordinates,Original*
G04 #@! TF.FileFunction,Soldermask,Bot*
G04 #@! TF.FilePolarity,Negative*
%FSLAX46Y46*%
G04 Gerber Fmt 4.6, Leading zero omitted, Abs format (unit mm)*
G04 Created by KiCad (PCBNEW (5.1.5)-3) date 2020-05-17 02:07:37*
%MOMM*%
%LPD*%
G04 APERTURE LIST*
%ADD10C,0.100000*%
G04 APERTURE END LIST*
D10*
G36*
X146460104Y-96722585D02*
G01*
X146628626Y-96792389D01*
X146780291Y-96893728D01*
X146909272Y-97022709D01*
X147010611Y-97174374D01*
X147080415Y-97342896D01*
X147116000Y-97521797D01*
X147116000Y-97704203D01*
X147080415Y-97883104D01*
X147010611Y-98051626D01*
X146909272Y-98203291D01*
X146780291Y-98332272D01*
X146628626Y-98433611D01*
X146460104Y-98503415D01*
X146281203Y-98539000D01*
X146098797Y-98539000D01*
X145919896Y-98503415D01*
X145751374Y-98433611D01*
X145599709Y-98332272D01*
X145470728Y-98203291D01*
X145369389Y-98051626D01*
X145299585Y-97883104D01*
X145264000Y-97704203D01*
X145264000Y-97521797D01*
X145299585Y-97342896D01*
X145369389Y-97174374D01*
X145470728Y-97022709D01*
X145599709Y-96893728D01*
X145751374Y-96792389D01*
X145919896Y-96722585D01*
X146098797Y-96687000D01*
X146281203Y-96687000D01*
X146460104Y-96722585D01*
G37*
G36*
X139960104Y-96722585D02*
G01*
X140128626Y-96792389D01*
X140280291Y-96893728D01*
X140409272Y-97022709D01*
X140510611Y-97174374D01*
X140580415Y-97342896D01*
X140616000Y-97521797D01*
X140616000Y-97704203D01*
X140580415Y-97883104D01*
X140510611Y-98051626D01*
X140409272Y-98203291D01*
X140280291Y-98332272D01*
X140128626Y-98433611D01*
X139960104Y-98503415D01*
X139781203Y-98539000D01*
X139598797Y-98539000D01*
X139419896Y-98503415D01*
X139251374Y-98433611D01*
X139099709Y-98332272D01*
X138970728Y-98203291D01*
X138869389Y-98051626D01*
X138799585Y-97883104D01*
X138764000Y-97704203D01*
X138764000Y-97521797D01*
X138799585Y-97342896D01*
X138869389Y-97174374D01*
X138970728Y-97022709D01*
X139099709Y-96893728D01*
X139251374Y-96792389D01*
X139419896Y-96722585D01*
X139598797Y-96687000D01*
X139781203Y-96687000D01*
X139960104Y-96722585D01*
G37*
G36*
X176454512Y-95954927D02*
G01*
X176603812Y-95984624D01*
X176767784Y-96052544D01*
X176915354Y-96151147D01*
X177040853Y-96276646D01*
X177139456Y-96424216D01*
X177207376Y-96588188D01*
X177242000Y-96762259D01*
X177242000Y-96939741D01*
X177207376Y-97113812D01*
X177139456Y-97277784D01*
X177040853Y-97425354D01*
X176915354Y-97550853D01*
X176767784Y-97649456D01*
X176603812Y-97717376D01*
X176454512Y-97747073D01*
X176429742Y-97752000D01*
X176252258Y-97752000D01*
X176227488Y-97747073D01*
X176078188Y-97717376D01*
X175914216Y-97649456D01*
X175766646Y-97550853D01*
X175641147Y-97425354D01*
X175542544Y-97277784D01*
X175474624Y-97113812D01*
X175440000Y-96939741D01*
X175440000Y-96762259D01*
X175474624Y-96588188D01*
X175542544Y-96424216D01*
X175641147Y-96276646D01*
X175766646Y-96151147D01*
X175914216Y-96052544D01*
X176078188Y-95984624D01*
X176227488Y-95954927D01*
X176252258Y-95950000D01*
X176429742Y-95950000D01*
X176454512Y-95954927D01*
G37*
G36*
X169067512Y-95881927D02*
G01*
X169216812Y-95911624D01*
X169380784Y-95979544D01*
X169528354Y-96078147D01*
X169653853Y-96203646D01*
X169752456Y-96351216D01*
X169820376Y-96515188D01*
X169855000Y-96689259D01*
X169855000Y-96866741D01*
X169820376Y-97040812D01*
X169752456Y-97204784D01*
X169653853Y-97352354D01*
X169528354Y-97477853D01*
X169380784Y-97576456D01*
X169216812Y-97644376D01*
X169067512Y-97674073D01*
X169042742Y-97679000D01*
X168865258Y-97679000D01*
X168840488Y-97674073D01*
X168691188Y-97644376D01*
X168527216Y-97576456D01*
X168379646Y-97477853D01*
X168254147Y-97352354D01*
X168155544Y-97204784D01*
X168087624Y-97040812D01*
X168053000Y-96866741D01*
X168053000Y-96689259D01*
X168087624Y-96515188D01*
X168155544Y-96351216D01*
X168254147Y-96203646D01*
X168379646Y-96078147D01*
X168527216Y-95979544D01*
X168691188Y-95911624D01*
X168840488Y-95881927D01*
X168865258Y-95877000D01*
X169042742Y-95877000D01*
X169067512Y-95881927D01*
G37*
G36*
X172395000Y-97679000D02*
G01*
X170593000Y-97679000D01*
X170593000Y-95877000D01*
X172395000Y-95877000D01*
X172395000Y-97679000D01*
G37*
G36*
X166527512Y-95881927D02*
G01*
X166676812Y-95911624D01*
X166840784Y-95979544D01*
X166988354Y-96078147D01*
X167113853Y-96203646D01*
X167212456Y-96351216D01*
X167280376Y-96515188D01*
X167315000Y-96689259D01*
X167315000Y-96866741D01*
X167280376Y-97040812D01*
X167212456Y-97204784D01*
X167113853Y-97352354D01*
X166988354Y-97477853D01*
X166840784Y-97576456D01*
X166676812Y-97644376D01*
X166527512Y-97674073D01*
X166502742Y-97679000D01*
X166325258Y-97679000D01*
X166300488Y-97674073D01*
X166151188Y-97644376D01*
X165987216Y-97576456D01*
X165839646Y-97477853D01*
X165714147Y-97352354D01*
X165615544Y-97204784D01*
X165547624Y-97040812D01*
X165513000Y-96866741D01*
X165513000Y-96689259D01*
X165547624Y-96515188D01*
X165615544Y-96351216D01*
X165714147Y-96203646D01*
X165839646Y-96078147D01*
X165987216Y-95979544D01*
X166151188Y-95911624D01*
X166300488Y-95881927D01*
X166325258Y-95877000D01*
X166502742Y-95877000D01*
X166527512Y-95881927D01*
G37*
G36*
X163987512Y-95881927D02*
G01*
X164136812Y-95911624D01*
X164300784Y-95979544D01*
X164448354Y-96078147D01*
X164573853Y-96203646D01*
X164672456Y-96351216D01*
X164740376Y-96515188D01*
X164775000Y-96689259D01*
X164775000Y-96866741D01*
X164740376Y-97040812D01*
X164672456Y-97204784D01*
X164573853Y-97352354D01*
X164448354Y-97477853D01*
X164300784Y-97576456D01*
X164136812Y-97644376D01*
X163987512Y-97674073D01*
X163962742Y-97679000D01*
X163785258Y-97679000D01*
X163760488Y-97674073D01*
X163611188Y-97644376D01*
X163447216Y-97576456D01*
X163299646Y-97477853D01*
X163174147Y-97352354D01*
X163075544Y-97204784D01*
X163007624Y-97040812D01*
X162973000Y-96866741D01*
X162973000Y-96689259D01*
X163007624Y-96515188D01*
X163075544Y-96351216D01*
X163174147Y-96203646D01*
X163299646Y-96078147D01*
X163447216Y-95979544D01*
X163611188Y-95911624D01*
X163760488Y-95881927D01*
X163785258Y-95877000D01*
X163962742Y-95877000D01*
X163987512Y-95881927D01*
G37*
G36*
X151783512Y-95853927D02*
G01*
X151932812Y-95883624D01*
X152096784Y-95951544D01*
X152244354Y-96050147D01*
X152369853Y-96175646D01*
X152468456Y-96323216D01*
X152536376Y-96487188D01*
X152571000Y-96661259D01*
X152571000Y-96838741D01*
X152536376Y-97012812D01*
X152468456Y-97176784D01*
X152369853Y-97324354D01*
X152244354Y-97449853D01*
X152096784Y-97548456D01*
X151932812Y-97616376D01*
X151792048Y-97644375D01*
X151758742Y-97651000D01*
X151581258Y-97651000D01*
X151547952Y-97644375D01*
X151407188Y-97616376D01*
X151243216Y-97548456D01*
X151095646Y-97449853D01*
X150970147Y-97324354D01*
X150871544Y-97176784D01*
X150803624Y-97012812D01*
X150769000Y-96838741D01*
X150769000Y-96661259D01*
X150803624Y-96487188D01*
X150871544Y-96323216D01*
X150970147Y-96175646D01*
X151095646Y-96050147D01*
X151243216Y-95951544D01*
X151407188Y-95883624D01*
X151556488Y-95853927D01*
X151581258Y-95849000D01*
X151758742Y-95849000D01*
X151783512Y-95853927D01*
G37*
G36*
X154323512Y-95853927D02*
G01*
X154472812Y-95883624D01*
X154636784Y-95951544D01*
X154784354Y-96050147D01*
X154909853Y-96175646D01*
X155008456Y-96323216D01*
X155076376Y-96487188D01*
X155111000Y-96661259D01*
X155111000Y-96838741D01*
X155076376Y-97012812D01*
X155008456Y-97176784D01*
X154909853Y-97324354D01*
X154784354Y-97449853D01*
X154636784Y-97548456D01*
X154472812Y-97616376D01*
X154332048Y-97644375D01*
X154298742Y-97651000D01*
X154121258Y-97651000D01*
X154087952Y-97644375D01*
X153947188Y-97616376D01*
X153783216Y-97548456D01*
X153635646Y-97449853D01*
X153510147Y-97324354D01*
X153411544Y-97176784D01*
X153343624Y-97012812D01*
X153309000Y-96838741D01*
X153309000Y-96661259D01*
X153343624Y-96487188D01*
X153411544Y-96323216D01*
X153510147Y-96175646D01*
X153635646Y-96050147D01*
X153783216Y-95951544D01*
X153947188Y-95883624D01*
X154096488Y-95853927D01*
X154121258Y-95849000D01*
X154298742Y-95849000D01*
X154323512Y-95853927D01*
G37*
G36*
X157651000Y-97651000D02*
G01*
X155849000Y-97651000D01*
X155849000Y-95849000D01*
X157651000Y-95849000D01*
X157651000Y-97651000D01*
G37*
G36*
X198151000Y-97401000D02*
G01*
X196349000Y-97401000D01*
X196349000Y-95599000D01*
X198151000Y-95599000D01*
X198151000Y-97401000D01*
G37*
G36*
X183901000Y-96401000D02*
G01*
X182099000Y-96401000D01*
X182099000Y-94599000D01*
X183901000Y-94599000D01*
X183901000Y-96401000D01*
G37*
G36*
X180573512Y-94603927D02*
G01*
X180722812Y-94633624D01*
X180886784Y-94701544D01*
X181034354Y-94800147D01*
X181159853Y-94925646D01*
X181258456Y-95073216D01*
X181326376Y-95237188D01*
X181356073Y-95386488D01*
X181361000Y-95411258D01*
X181361000Y-95588742D01*
X181356073Y-95613512D01*
X181326376Y-95762812D01*
X181258456Y-95926784D01*
X181159853Y-96074354D01*
X181034354Y-96199853D01*
X180886784Y-96298456D01*
X180722812Y-96366376D01*
X180573512Y-96396073D01*
X180548742Y-96401000D01*
X180371258Y-96401000D01*
X180346488Y-96396073D01*
X180197188Y-96366376D01*
X180033216Y-96298456D01*
X179885646Y-96199853D01*
X179760147Y-96074354D01*
X179661544Y-95926784D01*
X179593624Y-95762812D01*
X179563927Y-95613512D01*
X179559000Y-95588742D01*
X179559000Y-95411258D01*
X179563927Y-95386488D01*
X179593624Y-95237188D01*
X179661544Y-95073216D01*
X179760147Y-94925646D01*
X179885646Y-94800147D01*
X180033216Y-94701544D01*
X180197188Y-94633624D01*
X180346488Y-94603927D01*
X180371258Y-94599000D01*
X180548742Y-94599000D01*
X180573512Y-94603927D01*
G37*
G36*
X192651000Y-96401000D02*
G01*
X190849000Y-96401000D01*
X190849000Y-94599000D01*
X192651000Y-94599000D01*
X192651000Y-96401000D01*
G37*
G36*
X189323512Y-94603927D02*
G01*
X189472812Y-94633624D01*
X189636784Y-94701544D01*
X189784354Y-94800147D01*
X189909853Y-94925646D01*
X190008456Y-95073216D01*
X190076376Y-95237188D01*
X190106073Y-95386488D01*
X190111000Y-95411258D01*
X190111000Y-95588742D01*
X190106073Y-95613512D01*
X190076376Y-95762812D01*
X190008456Y-95926784D01*
X189909853Y-96074354D01*
X189784354Y-96199853D01*
X189636784Y-96298456D01*
X189472812Y-96366376D01*
X189323512Y-96396073D01*
X189298742Y-96401000D01*
X189121258Y-96401000D01*
X189096488Y-96396073D01*
X188947188Y-96366376D01*
X188783216Y-96298456D01*
X188635646Y-96199853D01*
X188510147Y-96074354D01*
X188411544Y-95926784D01*
X188343624Y-95762812D01*
X188313927Y-95613512D01*
X188309000Y-95588742D01*
X188309000Y-95411258D01*
X188313927Y-95386488D01*
X188343624Y-95237188D01*
X188411544Y-95073216D01*
X188510147Y-94925646D01*
X188635646Y-94800147D01*
X188783216Y-94701544D01*
X188947188Y-94633624D01*
X189096488Y-94603927D01*
X189121258Y-94599000D01*
X189298742Y-94599000D01*
X189323512Y-94603927D01*
G37*
G36*
X176454512Y-93414927D02*
G01*
X176603812Y-93444624D01*
X176767784Y-93512544D01*
X176915354Y-93611147D01*
X177040853Y-93736646D01*
X177139456Y-93884216D01*
X177207376Y-94048188D01*
X177242000Y-94222259D01*
X177242000Y-94399741D01*
X177207376Y-94573812D01*
X177139456Y-94737784D01*
X177040853Y-94885354D01*
X176915354Y-95010853D01*
X176767784Y-95109456D01*
X176603812Y-95177376D01*
X176454512Y-95207073D01*
X176429742Y-95212000D01*
X176252258Y-95212000D01*
X176227488Y-95207073D01*
X176078188Y-95177376D01*
X175914216Y-95109456D01*
X175766646Y-95010853D01*
X175641147Y-94885354D01*
X175542544Y-94737784D01*
X175474624Y-94573812D01*
X175440000Y-94399741D01*
X175440000Y-94222259D01*
X175474624Y-94048188D01*
X175542544Y-93884216D01*
X175641147Y-93736646D01*
X175766646Y-93611147D01*
X175914216Y-93512544D01*
X176078188Y-93444624D01*
X176227488Y-93414927D01*
X176252258Y-93410000D01*
X176429742Y-93410000D01*
X176454512Y-93414927D01*
G37*
G36*
X177242000Y-92672000D02*
G01*
X175440000Y-92672000D01*
X175440000Y-90870000D01*
X177242000Y-90870000D01*
X177242000Y-92672000D01*
G37*
G36*
X198151000Y-92401000D02*
G01*
X196349000Y-92401000D01*
X196349000Y-90599000D01*
X198151000Y-90599000D01*
X198151000Y-92401000D01*
G37*
G36*
X153379487Y-89383996D02*
G01*
X153616253Y-89482068D01*
X153616255Y-89482069D01*
X153694505Y-89534354D01*
X153829339Y-89624447D01*
X154010553Y-89805661D01*
X154152932Y-90018747D01*
X154251004Y-90255513D01*
X154301000Y-90506861D01*
X154301000Y-90763139D01*
X154251004Y-91014487D01*
X154152932Y-91251253D01*
X154152931Y-91251255D01*
X154010553Y-91464339D01*
X153829339Y-91645553D01*
X153616255Y-91787931D01*
X153616254Y-91787932D01*
X153616253Y-91787932D01*
X153379487Y-91886004D01*
X153128139Y-91936000D01*
X152871861Y-91936000D01*
X152620513Y-91886004D01*
X152383747Y-91787932D01*
X152383746Y-91787932D01*
X152383745Y-91787931D01*
X152170661Y-91645553D01*
X151989447Y-91464339D01*
X151847069Y-91251255D01*
X151847068Y-91251253D01*
X151748996Y-91014487D01*
X151699000Y-90763139D01*
X151699000Y-90506861D01*
X151748996Y-90255513D01*
X151847068Y-90018747D01*
X151989447Y-89805661D01*
X152170661Y-89624447D01*
X152305495Y-89534354D01*
X152383745Y-89482069D01*
X152383747Y-89482068D01*
X152620513Y-89383996D01*
X152871861Y-89334000D01*
X153128139Y-89334000D01*
X153379487Y-89383996D01*
G37*
G36*
X197363512Y-88063927D02*
G01*
X197512812Y-88093624D01*
X197676784Y-88161544D01*
X197824354Y-88260147D01*
X197949853Y-88385646D01*
X198048456Y-88533216D01*
X198116376Y-88697188D01*
X198151000Y-88871259D01*
X198151000Y-89048741D01*
X198116376Y-89222812D01*
X198048456Y-89386784D01*
X197949853Y-89534354D01*
X197824354Y-89659853D01*
X197676784Y-89758456D01*
X197512812Y-89826376D01*
X197363512Y-89856073D01*
X197338742Y-89861000D01*
X197161258Y-89861000D01*
X197136488Y-89856073D01*
X196987188Y-89826376D01*
X196823216Y-89758456D01*
X196675646Y-89659853D01*
X196550147Y-89534354D01*
X196451544Y-89386784D01*
X196383624Y-89222812D01*
X196349000Y-89048741D01*
X196349000Y-88871259D01*
X196383624Y-88697188D01*
X196451544Y-88533216D01*
X196550147Y-88385646D01*
X196675646Y-88260147D01*
X196823216Y-88161544D01*
X196987188Y-88093624D01*
X197136488Y-88063927D01*
X197161258Y-88059000D01*
X197338742Y-88059000D01*
X197363512Y-88063927D01*
G37*
G36*
X153379487Y-85723996D02*
G01*
X153616253Y-85822068D01*
X153616255Y-85822069D01*
X153651542Y-85845647D01*
X153829339Y-85964447D01*
X154010553Y-86145661D01*
X154152932Y-86358747D01*
X154251004Y-86595513D01*
X154301000Y-86846861D01*
X154301000Y-87103139D01*
X154251004Y-87354487D01*
X154152932Y-87591253D01*
X154152931Y-87591255D01*
X154010553Y-87804339D01*
X153829339Y-87985553D01*
X153616255Y-88127931D01*
X153616254Y-88127932D01*
X153616253Y-88127932D01*
X153379487Y-88226004D01*
X153128139Y-88276000D01*
X152871861Y-88276000D01*
X152620513Y-88226004D01*
X152383747Y-88127932D01*
X152383746Y-88127932D01*
X152383745Y-88127931D01*
X152170661Y-87985553D01*
X151989447Y-87804339D01*
X151847069Y-87591255D01*
X151847068Y-87591253D01*
X151748996Y-87354487D01*
X151699000Y-87103139D01*
X151699000Y-86846861D01*
X151748996Y-86595513D01*
X151847068Y-86358747D01*
X151989447Y-86145661D01*
X152170661Y-85964447D01*
X152348458Y-85845647D01*
X152383745Y-85822069D01*
X152383747Y-85822068D01*
X152620513Y-85723996D01*
X152871861Y-85674000D01*
X153128139Y-85674000D01*
X153379487Y-85723996D01*
G37*
G36*
X197363512Y-85523927D02*
G01*
X197512812Y-85553624D01*
X197676784Y-85621544D01*
X197824354Y-85720147D01*
X197949853Y-85845646D01*
X198048456Y-85993216D01*
X198116376Y-86157188D01*
X198151000Y-86331259D01*
X198151000Y-86508741D01*
X198116376Y-86682812D01*
X198048456Y-86846784D01*
X197949853Y-86994354D01*
X197824354Y-87119853D01*
X197676784Y-87218456D01*
X197512812Y-87286376D01*
X197363512Y-87316073D01*
X197338742Y-87321000D01*
X197161258Y-87321000D01*
X197136488Y-87316073D01*
X196987188Y-87286376D01*
X196823216Y-87218456D01*
X196675646Y-87119853D01*
X196550147Y-86994354D01*
X196451544Y-86846784D01*
X196383624Y-86682812D01*
X196349000Y-86508741D01*
X196349000Y-86331259D01*
X196383624Y-86157188D01*
X196451544Y-85993216D01*
X196550147Y-85845646D01*
X196675646Y-85720147D01*
X196823216Y-85621544D01*
X196987188Y-85553624D01*
X197136488Y-85523927D01*
X197161258Y-85519000D01*
X197338742Y-85519000D01*
X197363512Y-85523927D01*
G37*
G36*
X111584072Y-81200918D02*
G01*
X111780827Y-81282416D01*
X111829939Y-81302759D01*
X111903736Y-81352069D01*
X112051211Y-81450609D01*
X112239391Y-81638789D01*
X112387242Y-81860063D01*
X112489082Y-82105928D01*
X112492978Y-82125512D01*
X112541000Y-82366938D01*
X112541000Y-82633062D01*
X112489082Y-82894072D01*
X112387241Y-83139939D01*
X112239390Y-83361212D01*
X112051212Y-83549390D01*
X111829939Y-83697241D01*
X111829938Y-83697242D01*
X111829937Y-83697242D01*
X111584072Y-83799082D01*
X111323063Y-83851000D01*
X111056937Y-83851000D01*
X110795928Y-83799082D01*
X110550063Y-83697242D01*
X110550062Y-83697242D01*
X110550061Y-83697241D01*
X110328788Y-83549390D01*
X110140610Y-83361212D01*
X109992759Y-83139939D01*
X109890918Y-82894072D01*
X109839000Y-82633062D01*
X109839000Y-82366938D01*
X109887023Y-82125512D01*
X109890918Y-82105928D01*
X109992758Y-81860063D01*
X110140609Y-81638789D01*
X110328789Y-81450609D01*
X110476264Y-81352069D01*
X110550061Y-81302759D01*
X110599174Y-81282416D01*
X110795928Y-81200918D01*
X111056937Y-81149000D01*
X111323063Y-81149000D01*
X111584072Y-81200918D01*
G37*
G36*
X121744072Y-81200918D02*
G01*
X121940827Y-81282416D01*
X121989939Y-81302759D01*
X122063736Y-81352069D01*
X122211211Y-81450609D01*
X122399391Y-81638789D01*
X122547242Y-81860063D01*
X122649082Y-82105928D01*
X122652978Y-82125512D01*
X122701000Y-82366938D01*
X122701000Y-82633062D01*
X122649082Y-82894072D01*
X122547241Y-83139939D01*
X122399390Y-83361212D01*
X122211212Y-83549390D01*
X121989939Y-83697241D01*
X121989938Y-83697242D01*
X121989937Y-83697242D01*
X121744072Y-83799082D01*
X121483063Y-83851000D01*
X121216937Y-83851000D01*
X120955928Y-83799082D01*
X120710063Y-83697242D01*
X120710062Y-83697242D01*
X120710061Y-83697241D01*
X120488788Y-83549390D01*
X120300610Y-83361212D01*
X120152759Y-83139939D01*
X120050918Y-82894072D01*
X119999000Y-82633062D01*
X119999000Y-82366938D01*
X120047023Y-82125512D01*
X120050918Y-82105928D01*
X120152758Y-81860063D01*
X120300609Y-81638789D01*
X120488789Y-81450609D01*
X120636264Y-81352069D01*
X120710061Y-81302759D01*
X120759174Y-81282416D01*
X120955928Y-81200918D01*
X121216937Y-81149000D01*
X121483063Y-81149000D01*
X121744072Y-81200918D01*
G37*
G36*
X126824072Y-81200918D02*
G01*
X127020827Y-81282416D01*
X127069939Y-81302759D01*
X127143736Y-81352069D01*
X127291211Y-81450609D01*
X127479391Y-81638789D01*
X127627242Y-81860063D01*
X127729082Y-82105928D01*
X127732978Y-82125512D01*
X127781000Y-82366938D01*
X127781000Y-82633062D01*
X127729082Y-82894072D01*
X127627241Y-83139939D01*
X127479390Y-83361212D01*
X127291212Y-83549390D01*
X127069939Y-83697241D01*
X127069938Y-83697242D01*
X127069937Y-83697242D01*
X126824072Y-83799082D01*
X126563063Y-83851000D01*
X126296937Y-83851000D01*
X126035928Y-83799082D01*
X125790063Y-83697242D01*
X125790062Y-83697242D01*
X125790061Y-83697241D01*
X125568788Y-83549390D01*
X125380610Y-83361212D01*
X125232759Y-83139939D01*
X125130918Y-82894072D01*
X125079000Y-82633062D01*
X125079000Y-82366938D01*
X125127023Y-82125512D01*
X125130918Y-82105928D01*
X125232758Y-81860063D01*
X125380609Y-81638789D01*
X125568789Y-81450609D01*
X125716264Y-81352069D01*
X125790061Y-81302759D01*
X125839174Y-81282416D01*
X126035928Y-81200918D01*
X126296937Y-81149000D01*
X126563063Y-81149000D01*
X126824072Y-81200918D01*
G37*
G36*
X131904072Y-81200918D02*
G01*
X132100827Y-81282416D01*
X132149939Y-81302759D01*
X132223736Y-81352069D01*
X132371211Y-81450609D01*
X132559391Y-81638789D01*
X132707242Y-81860063D01*
X132809082Y-82105928D01*
X132812978Y-82125512D01*
X132861000Y-82366938D01*
X132861000Y-82633062D01*
X132809082Y-82894072D01*
X132707241Y-83139939D01*
X132559390Y-83361212D01*
X132371212Y-83549390D01*
X132149939Y-83697241D01*
X132149938Y-83697242D01*
X132149937Y-83697242D01*
X131904072Y-83799082D01*
X131643063Y-83851000D01*
X131376937Y-83851000D01*
X131115928Y-83799082D01*
X130870063Y-83697242D01*
X130870062Y-83697242D01*
X130870061Y-83697241D01*
X130648788Y-83549390D01*
X130460610Y-83361212D01*
X130312759Y-83139939D01*
X130210918Y-82894072D01*
X130159000Y-82633062D01*
X130159000Y-82366938D01*
X130207023Y-82125512D01*
X130210918Y-82105928D01*
X130312758Y-81860063D01*
X130460609Y-81638789D01*
X130648789Y-81450609D01*
X130796264Y-81352069D01*
X130870061Y-81302759D01*
X130919174Y-81282416D01*
X131115928Y-81200918D01*
X131376937Y-81149000D01*
X131643063Y-81149000D01*
X131904072Y-81200918D01*
G37*
G36*
X136984072Y-81200918D02*
G01*
X137180827Y-81282416D01*
X137229939Y-81302759D01*
X137303736Y-81352069D01*
X137451211Y-81450609D01*
X137639391Y-81638789D01*
X137787242Y-81860063D01*
X137889082Y-82105928D01*
X137892978Y-82125512D01*
X137941000Y-82366938D01*
X137941000Y-82633062D01*
X137889082Y-82894072D01*
X137787241Y-83139939D01*
X137639390Y-83361212D01*
X137451212Y-83549390D01*
X137229939Y-83697241D01*
X137229938Y-83697242D01*
X137229937Y-83697242D01*
X136984072Y-83799082D01*
X136723063Y-83851000D01*
X136456937Y-83851000D01*
X136195928Y-83799082D01*
X135950063Y-83697242D01*
X135950062Y-83697242D01*
X135950061Y-83697241D01*
X135728788Y-83549390D01*
X135540610Y-83361212D01*
X135392759Y-83139939D01*
X135290918Y-82894072D01*
X135239000Y-82633062D01*
X135239000Y-82366938D01*
X135287023Y-82125512D01*
X135290918Y-82105928D01*
X135392758Y-81860063D01*
X135540609Y-81638789D01*
X135728789Y-81450609D01*
X135876264Y-81352069D01*
X135950061Y-81302759D01*
X135999174Y-81282416D01*
X136195928Y-81200918D01*
X136456937Y-81149000D01*
X136723063Y-81149000D01*
X136984072Y-81200918D01*
G37*
G36*
X142064072Y-81200918D02*
G01*
X142260827Y-81282416D01*
X142309939Y-81302759D01*
X142383736Y-81352069D01*
X142531211Y-81450609D01*
X142719391Y-81638789D01*
X142867242Y-81860063D01*
X142969082Y-82105928D01*
X142972978Y-82125512D01*
X143021000Y-82366938D01*
X143021000Y-82633062D01*
X142969082Y-82894072D01*
X142867241Y-83139939D01*
X142719390Y-83361212D01*
X142531212Y-83549390D01*
X142309939Y-83697241D01*
X142309938Y-83697242D01*
X142309937Y-83697242D01*
X142064072Y-83799082D01*
X141803063Y-83851000D01*
X141536937Y-83851000D01*
X141275928Y-83799082D01*
X141030063Y-83697242D01*
X141030062Y-83697242D01*
X141030061Y-83697241D01*
X140808788Y-83549390D01*
X140620610Y-83361212D01*
X140472759Y-83139939D01*
X140370918Y-82894072D01*
X140319000Y-82633062D01*
X140319000Y-82366938D01*
X140367023Y-82125512D01*
X140370918Y-82105928D01*
X140472758Y-81860063D01*
X140620609Y-81638789D01*
X140808789Y-81450609D01*
X140956264Y-81352069D01*
X141030061Y-81302759D01*
X141079174Y-81282416D01*
X141275928Y-81200918D01*
X141536937Y-81149000D01*
X141803063Y-81149000D01*
X142064072Y-81200918D01*
G37*
G36*
X148101000Y-83851000D02*
G01*
X145399000Y-83851000D01*
X145399000Y-81149000D01*
X148101000Y-81149000D01*
X148101000Y-83851000D01*
G37*
G36*
X159664072Y-81200918D02*
G01*
X159860827Y-81282416D01*
X159909939Y-81302759D01*
X159983736Y-81352069D01*
X160131211Y-81450609D01*
X160319391Y-81638789D01*
X160467242Y-81860063D01*
X160569082Y-82105928D01*
X160572978Y-82125512D01*
X160621000Y-82366938D01*
X160621000Y-82633062D01*
X160569082Y-82894072D01*
X160467241Y-83139939D01*
X160319390Y-83361212D01*
X160131212Y-83549390D01*
X159909939Y-83697241D01*
X159909938Y-83697242D01*
X159909937Y-83697242D01*
X159664072Y-83799082D01*
X159403063Y-83851000D01*
X159136937Y-83851000D01*
X158875928Y-83799082D01*
X158630063Y-83697242D01*
X158630062Y-83697242D01*
X158630061Y-83697241D01*
X158408788Y-83549390D01*
X158220610Y-83361212D01*
X158072759Y-83139939D01*
X157970918Y-82894072D01*
X157919000Y-82633062D01*
X157919000Y-82366938D01*
X157967023Y-82125512D01*
X157970918Y-82105928D01*
X158072758Y-81860063D01*
X158220609Y-81638789D01*
X158408789Y-81450609D01*
X158556264Y-81352069D01*
X158630061Y-81302759D01*
X158679174Y-81282416D01*
X158875928Y-81200918D01*
X159136937Y-81149000D01*
X159403063Y-81149000D01*
X159664072Y-81200918D01*
G37*
G36*
X165701000Y-83851000D02*
G01*
X162999000Y-83851000D01*
X162999000Y-81149000D01*
X165701000Y-81149000D01*
X165701000Y-83851000D01*
G37*
G36*
X116664072Y-81200918D02*
G01*
X116860827Y-81282416D01*
X116909939Y-81302759D01*
X116983736Y-81352069D01*
X117131211Y-81450609D01*
X117319391Y-81638789D01*
X117467242Y-81860063D01*
X117569082Y-82105928D01*
X117572978Y-82125512D01*
X117621000Y-82366938D01*
X117621000Y-82633062D01*
X117569082Y-82894072D01*
X117467241Y-83139939D01*
X117319390Y-83361212D01*
X117131212Y-83549390D01*
X116909939Y-83697241D01*
X116909938Y-83697242D01*
X116909937Y-83697242D01*
X116664072Y-83799082D01*
X116403063Y-83851000D01*
X116136937Y-83851000D01*
X115875928Y-83799082D01*
X115630063Y-83697242D01*
X115630062Y-83697242D01*
X115630061Y-83697241D01*
X115408788Y-83549390D01*
X115220610Y-83361212D01*
X115072759Y-83139939D01*
X114970918Y-82894072D01*
X114919000Y-82633062D01*
X114919000Y-82366938D01*
X114967023Y-82125512D01*
X114970918Y-82105928D01*
X115072758Y-81860063D01*
X115220609Y-81638789D01*
X115408789Y-81450609D01*
X115556264Y-81352069D01*
X115630061Y-81302759D01*
X115679174Y-81282416D01*
X115875928Y-81200918D01*
X116136937Y-81149000D01*
X116403063Y-81149000D01*
X116664072Y-81200918D01*
G37*
G36*
X153379487Y-81253996D02*
G01*
X153616253Y-81352068D01*
X153616255Y-81352069D01*
X153763731Y-81450609D01*
X153829339Y-81494447D01*
X154010553Y-81675661D01*
X154152932Y-81888747D01*
X154251004Y-82125513D01*
X154301000Y-82376861D01*
X154301000Y-82633139D01*
X154251004Y-82884487D01*
X154152932Y-83121253D01*
X154152931Y-83121255D01*
X154010553Y-83334339D01*
X153829339Y-83515553D01*
X153616255Y-83657931D01*
X153616254Y-83657932D01*
X153616253Y-83657932D01*
X153379487Y-83756004D01*
X153128139Y-83806000D01*
X152871861Y-83806000D01*
X152620513Y-83756004D01*
X152383747Y-83657932D01*
X152383746Y-83657932D01*
X152383745Y-83657931D01*
X152170661Y-83515553D01*
X151989447Y-83334339D01*
X151847069Y-83121255D01*
X151847068Y-83121253D01*
X151748996Y-82884487D01*
X151699000Y-82633139D01*
X151699000Y-82376861D01*
X151748996Y-82125513D01*
X151847068Y-81888747D01*
X151989447Y-81675661D01*
X152170661Y-81494447D01*
X152236269Y-81450609D01*
X152383745Y-81352069D01*
X152383747Y-81352068D01*
X152620513Y-81253996D01*
X152871861Y-81204000D01*
X153128139Y-81204000D01*
X153379487Y-81253996D01*
G37*
G36*
X104375256Y-78391298D02*
G01*
X104481579Y-78412447D01*
X104782042Y-78536903D01*
X105052451Y-78717585D01*
X105282415Y-78947549D01*
X105376757Y-79088742D01*
X105463098Y-79217960D01*
X105465802Y-79224488D01*
X105587553Y-79518421D01*
X105598679Y-79574354D01*
X105651000Y-79837389D01*
X105651000Y-80162611D01*
X105643974Y-80197931D01*
X105587553Y-80481579D01*
X105463097Y-80782042D01*
X105282415Y-81052451D01*
X105052451Y-81282415D01*
X104782042Y-81463097D01*
X104782041Y-81463098D01*
X104782040Y-81463098D01*
X104694037Y-81499550D01*
X104481579Y-81587553D01*
X104375256Y-81608702D01*
X104162611Y-81651000D01*
X103837389Y-81651000D01*
X103624744Y-81608702D01*
X103518421Y-81587553D01*
X103305963Y-81499550D01*
X103217960Y-81463098D01*
X103217959Y-81463098D01*
X103217958Y-81463097D01*
X102947549Y-81282415D01*
X102717585Y-81052451D01*
X102536903Y-80782042D01*
X102412447Y-80481579D01*
X102356026Y-80197931D01*
X102349000Y-80162611D01*
X102349000Y-79837389D01*
X102401321Y-79574354D01*
X102412447Y-79518421D01*
X102534198Y-79224488D01*
X102536902Y-79217960D01*
X102623243Y-79088742D01*
X102717585Y-78947549D01*
X102947549Y-78717585D01*
X103217958Y-78536903D01*
X103518421Y-78412447D01*
X103624744Y-78391298D01*
X103837389Y-78349000D01*
X104162611Y-78349000D01*
X104375256Y-78391298D01*
G37*
G36*
X196375256Y-78391298D02*
G01*
X196481579Y-78412447D01*
X196782042Y-78536903D01*
X197052451Y-78717585D01*
X197282415Y-78947549D01*
X197376757Y-79088742D01*
X197463098Y-79217960D01*
X197465802Y-79224488D01*
X197587553Y-79518421D01*
X197598679Y-79574354D01*
X197651000Y-79837389D01*
X197651000Y-80162611D01*
X197643974Y-80197931D01*
X197587553Y-80481579D01*
X197463097Y-80782042D01*
X197282415Y-81052451D01*
X197052451Y-81282415D01*
X196782042Y-81463097D01*
X196782041Y-81463098D01*
X196782040Y-81463098D01*
X196694037Y-81499550D01*
X196481579Y-81587553D01*
X196375256Y-81608702D01*
X196162611Y-81651000D01*
X195837389Y-81651000D01*
X195624744Y-81608702D01*
X195518421Y-81587553D01*
X195305963Y-81499550D01*
X195217960Y-81463098D01*
X195217959Y-81463098D01*
X195217958Y-81463097D01*
X194947549Y-81282415D01*
X194717585Y-81052451D01*
X194536903Y-80782042D01*
X194412447Y-80481579D01*
X194356026Y-80197931D01*
X194349000Y-80162611D01*
X194349000Y-79837389D01*
X194401321Y-79574354D01*
X194412447Y-79518421D01*
X194534198Y-79224488D01*
X194536902Y-79217960D01*
X194623243Y-79088742D01*
X194717585Y-78947549D01*
X194947549Y-78717585D01*
X195217958Y-78536903D01*
X195518421Y-78412447D01*
X195624744Y-78391298D01*
X195837389Y-78349000D01*
X196162611Y-78349000D01*
X196375256Y-78391298D01*
G37*
G36*
X184468348Y-79375320D02*
G01*
X184468350Y-79375321D01*
X184468351Y-79375321D01*
X184609574Y-79433817D01*
X184609577Y-79433819D01*
X184736669Y-79518739D01*
X184844761Y-79626831D01*
X184929681Y-79753923D01*
X184929683Y-79753926D01*
X184976261Y-79866376D01*
X184988180Y-79895152D01*
X185008624Y-79997932D01*
X185018000Y-80045071D01*
X185018000Y-80197929D01*
X184988179Y-80347851D01*
X184929683Y-80489074D01*
X184929681Y-80489077D01*
X184844761Y-80616169D01*
X184736669Y-80724261D01*
X184650196Y-80782040D01*
X184609574Y-80809183D01*
X184468351Y-80867679D01*
X184468350Y-80867679D01*
X184468348Y-80867680D01*
X184318431Y-80897500D01*
X184165569Y-80897500D01*
X184015652Y-80867680D01*
X184015650Y-80867679D01*
X184015649Y-80867679D01*
X183874426Y-80809183D01*
X183833804Y-80782040D01*
X183747331Y-80724261D01*
X183639239Y-80616169D01*
X183554319Y-80489077D01*
X183554317Y-80489074D01*
X183495821Y-80347851D01*
X183466000Y-80197929D01*
X183466000Y-80045071D01*
X183475376Y-79997932D01*
X183495820Y-79895152D01*
X183507739Y-79866376D01*
X183554317Y-79753926D01*
X183554319Y-79753923D01*
X183639239Y-79626831D01*
X183747331Y-79518739D01*
X183874423Y-79433819D01*
X183874426Y-79433817D01*
X184015649Y-79375321D01*
X184015650Y-79375321D01*
X184015652Y-79375320D01*
X184165569Y-79345500D01*
X184318431Y-79345500D01*
X184468348Y-79375320D01*
G37*
G36*
X179468348Y-79375320D02*
G01*
X179468350Y-79375321D01*
X179468351Y-79375321D01*
X179609574Y-79433817D01*
X179609577Y-79433819D01*
X179736669Y-79518739D01*
X179844761Y-79626831D01*
X179929681Y-79753923D01*
X179929683Y-79753926D01*
X179976261Y-79866376D01*
X179988180Y-79895152D01*
X180008624Y-79997932D01*
X180018000Y-80045071D01*
X180018000Y-80197929D01*
X179988179Y-80347851D01*
X179929683Y-80489074D01*
X179929681Y-80489077D01*
X179844761Y-80616169D01*
X179736669Y-80724261D01*
X179650196Y-80782040D01*
X179609574Y-80809183D01*
X179468351Y-80867679D01*
X179468350Y-80867679D01*
X179468348Y-80867680D01*
X179318431Y-80897500D01*
X179165569Y-80897500D01*
X179015652Y-80867680D01*
X179015650Y-80867679D01*
X179015649Y-80867679D01*
X178874426Y-80809183D01*
X178833804Y-80782040D01*
X178747331Y-80724261D01*
X178639239Y-80616169D01*
X178554319Y-80489077D01*
X178554317Y-80489074D01*
X178495821Y-80347851D01*
X178466000Y-80197929D01*
X178466000Y-80045071D01*
X178475376Y-79997932D01*
X178495820Y-79895152D01*
X178507739Y-79866376D01*
X178554317Y-79753926D01*
X178554319Y-79753923D01*
X178639239Y-79626831D01*
X178747331Y-79518739D01*
X178874423Y-79433819D01*
X178874426Y-79433817D01*
X179015649Y-79375321D01*
X179015650Y-79375321D01*
X179015652Y-79375320D01*
X179165569Y-79345500D01*
X179318431Y-79345500D01*
X179468348Y-79375320D01*
G37*
G36*
X153379487Y-77593996D02*
G01*
X153616253Y-77692068D01*
X153616255Y-77692069D01*
X153829339Y-77834447D01*
X154010553Y-78015661D01*
X154090243Y-78134925D01*
X154152932Y-78228747D01*
X154251004Y-78465513D01*
X154301000Y-78716861D01*
X154301000Y-78973139D01*
X154251004Y-79224487D01*
X154152932Y-79461253D01*
X154152931Y-79461255D01*
X154010553Y-79674339D01*
X153829339Y-79855553D01*
X153616255Y-79997931D01*
X153616254Y-79997932D01*
X153616253Y-79997932D01*
X153379487Y-80096004D01*
X153128139Y-80146000D01*
X152871861Y-80146000D01*
X152620513Y-80096004D01*
X152383747Y-79997932D01*
X152383746Y-79997932D01*
X152383745Y-79997931D01*
X152170661Y-79855553D01*
X151989447Y-79674339D01*
X151847069Y-79461255D01*
X151847068Y-79461253D01*
X151748996Y-79224487D01*
X151699000Y-78973139D01*
X151699000Y-78716861D01*
X151748996Y-78465513D01*
X151847068Y-78228747D01*
X151909758Y-78134925D01*
X151989447Y-78015661D01*
X152170661Y-77834447D01*
X152383745Y-77692069D01*
X152383747Y-77692068D01*
X152620513Y-77593996D01*
X152871861Y-77544000D01*
X153128139Y-77544000D01*
X153379487Y-77593996D01*
G37*
G36*
X170901000Y-79901000D02*
G01*
X169099000Y-79901000D01*
X169099000Y-78099000D01*
X170901000Y-78099000D01*
X170901000Y-79901000D01*
G37*
G36*
X172653512Y-78103927D02*
G01*
X172802812Y-78133624D01*
X172966784Y-78201544D01*
X173114354Y-78300147D01*
X173239853Y-78425646D01*
X173338456Y-78573216D01*
X173406376Y-78737188D01*
X173441000Y-78911259D01*
X173441000Y-79088741D01*
X173406376Y-79262812D01*
X173338456Y-79426784D01*
X173239853Y-79574354D01*
X173114354Y-79699853D01*
X172966784Y-79798456D01*
X172802812Y-79866376D01*
X172653512Y-79896073D01*
X172628742Y-79901000D01*
X172451258Y-79901000D01*
X172426488Y-79896073D01*
X172277188Y-79866376D01*
X172113216Y-79798456D01*
X171965646Y-79699853D01*
X171840147Y-79574354D01*
X171741544Y-79426784D01*
X171673624Y-79262812D01*
X171639000Y-79088741D01*
X171639000Y-78911259D01*
X171673624Y-78737188D01*
X171741544Y-78573216D01*
X171840147Y-78425646D01*
X171965646Y-78300147D01*
X172113216Y-78201544D01*
X172277188Y-78133624D01*
X172426488Y-78103927D01*
X172451258Y-78099000D01*
X172628742Y-78099000D01*
X172653512Y-78103927D01*
G37*
G36*
X185369617Y-76429920D02*
G01*
X185460403Y-76457460D01*
X185492335Y-76467146D01*
X185605424Y-76527594D01*
X185704554Y-76608947D01*
X185785906Y-76708075D01*
X185846354Y-76821164D01*
X185856040Y-76853096D01*
X185883580Y-76943882D01*
X185893000Y-77039527D01*
X185893000Y-77803473D01*
X185883580Y-77899118D01*
X185856040Y-77989904D01*
X185846354Y-78021836D01*
X185785906Y-78134925D01*
X185704554Y-78234054D01*
X185605425Y-78315406D01*
X185492336Y-78375854D01*
X185460404Y-78385540D01*
X185369618Y-78413080D01*
X185242000Y-78425649D01*
X185114383Y-78413080D01*
X185023597Y-78385540D01*
X184991665Y-78375854D01*
X184878576Y-78315406D01*
X184779447Y-78234054D01*
X184698095Y-78134925D01*
X184637648Y-78021837D01*
X184637645Y-78021832D01*
X184600420Y-77899118D01*
X184591000Y-77803473D01*
X184591000Y-77039528D01*
X184600420Y-76943883D01*
X184637645Y-76821169D01*
X184637646Y-76821165D01*
X184698094Y-76708076D01*
X184779447Y-76608946D01*
X184878575Y-76527594D01*
X184991664Y-76467146D01*
X185023596Y-76457460D01*
X185114382Y-76429920D01*
X185242000Y-76417351D01*
X185369617Y-76429920D01*
G37*
G36*
X178369618Y-76429920D02*
G01*
X178460404Y-76457460D01*
X178492336Y-76467146D01*
X178605425Y-76527594D01*
X178704554Y-76608946D01*
X178785906Y-76708075D01*
X178846354Y-76821164D01*
X178856040Y-76853096D01*
X178883580Y-76943882D01*
X178893000Y-77039527D01*
X178893000Y-77803473D01*
X178883580Y-77899118D01*
X178856040Y-77989904D01*
X178846354Y-78021836D01*
X178785906Y-78134925D01*
X178704554Y-78234053D01*
X178605424Y-78315406D01*
X178492335Y-78375854D01*
X178460403Y-78385540D01*
X178369617Y-78413080D01*
X178242000Y-78425649D01*
X178114382Y-78413080D01*
X178023596Y-78385540D01*
X177991664Y-78375854D01*
X177878575Y-78315406D01*
X177779447Y-78234054D01*
X177698094Y-78134924D01*
X177637646Y-78021835D01*
X177627960Y-77989903D01*
X177600420Y-77899117D01*
X177591000Y-77803472D01*
X177591000Y-77039527D01*
X177600420Y-76943882D01*
X177637645Y-76821168D01*
X177662608Y-76774466D01*
X177698095Y-76708075D01*
X177779447Y-76608946D01*
X177878576Y-76527594D01*
X177991665Y-76467146D01*
X178023597Y-76457460D01*
X178114383Y-76429920D01*
X178242000Y-76417351D01*
X178369618Y-76429920D01*
G37*
M02*
