G04 #@! TF.GenerationSoftware,KiCad,Pcbnew,(5.1.5)-3*
G04 #@! TF.CreationDate,2020-05-17T02:07:37-04:00*
G04 #@! TF.ProjectId,STM32_Klipper_Expander,53544d33-325f-44b6-9c69-707065725f45,B*
G04 #@! TF.SameCoordinates,Original*
G04 #@! TF.FileFunction,Legend,Top*
G04 #@! TF.FilePolarity,Positive*
%FSLAX46Y46*%
G04 Gerber Fmt 4.6, Leading zero omitted, Abs format (unit mm)*
G04 Created by KiCad (PCBNEW (5.1.5)-3) date 2020-05-17 02:07:37*
%MOMM*%
%LPD*%
G04 APERTURE LIST*
%ADD10C,0.100000*%
%ADD11C,0.300000*%
%ADD12C,0.120000*%
%ADD13C,0.150000*%
%ADD14C,0.200000*%
%ADD15C,0.010000*%
G04 APERTURE END LIST*
D10*
X159894761Y-92116285D02*
X159966190Y-92140095D01*
X159990000Y-92163904D01*
X160013809Y-92211523D01*
X160013809Y-92282952D01*
X159990000Y-92330571D01*
X159966190Y-92354380D01*
X159918571Y-92378190D01*
X159728095Y-92378190D01*
X159728095Y-91878190D01*
X159894761Y-91878190D01*
X159942380Y-91902000D01*
X159966190Y-91925809D01*
X159990000Y-91973428D01*
X159990000Y-92021047D01*
X159966190Y-92068666D01*
X159942380Y-92092476D01*
X159894761Y-92116285D01*
X159728095Y-92116285D01*
X160299523Y-92378190D02*
X160251904Y-92354380D01*
X160228095Y-92330571D01*
X160204285Y-92282952D01*
X160204285Y-92140095D01*
X160228095Y-92092476D01*
X160251904Y-92068666D01*
X160299523Y-92044857D01*
X160370952Y-92044857D01*
X160418571Y-92068666D01*
X160442380Y-92092476D01*
X160466190Y-92140095D01*
X160466190Y-92282952D01*
X160442380Y-92330571D01*
X160418571Y-92354380D01*
X160370952Y-92378190D01*
X160299523Y-92378190D01*
X160894761Y-92378190D02*
X160894761Y-92116285D01*
X160870952Y-92068666D01*
X160823333Y-92044857D01*
X160728095Y-92044857D01*
X160680476Y-92068666D01*
X160894761Y-92354380D02*
X160847142Y-92378190D01*
X160728095Y-92378190D01*
X160680476Y-92354380D01*
X160656666Y-92306761D01*
X160656666Y-92259142D01*
X160680476Y-92211523D01*
X160728095Y-92187714D01*
X160847142Y-92187714D01*
X160894761Y-92163904D01*
X161132857Y-92378190D02*
X161132857Y-92044857D01*
X161132857Y-92140095D02*
X161156666Y-92092476D01*
X161180476Y-92068666D01*
X161228095Y-92044857D01*
X161275714Y-92044857D01*
X161656666Y-92378190D02*
X161656666Y-91878190D01*
X161656666Y-92354380D02*
X161609047Y-92378190D01*
X161513809Y-92378190D01*
X161466190Y-92354380D01*
X161442380Y-92330571D01*
X161418571Y-92282952D01*
X161418571Y-92140095D01*
X161442380Y-92092476D01*
X161466190Y-92068666D01*
X161513809Y-92044857D01*
X161609047Y-92044857D01*
X161656666Y-92068666D01*
X162561428Y-92378190D02*
X162394761Y-92140095D01*
X162275714Y-92378190D02*
X162275714Y-91878190D01*
X162466190Y-91878190D01*
X162513809Y-91902000D01*
X162537619Y-91925809D01*
X162561428Y-91973428D01*
X162561428Y-92044857D01*
X162537619Y-92092476D01*
X162513809Y-92116285D01*
X162466190Y-92140095D01*
X162275714Y-92140095D01*
X162966190Y-92354380D02*
X162918571Y-92378190D01*
X162823333Y-92378190D01*
X162775714Y-92354380D01*
X162751904Y-92306761D01*
X162751904Y-92116285D01*
X162775714Y-92068666D01*
X162823333Y-92044857D01*
X162918571Y-92044857D01*
X162966190Y-92068666D01*
X162990000Y-92116285D01*
X162990000Y-92163904D01*
X162751904Y-92211523D01*
X163418571Y-92378190D02*
X163418571Y-92116285D01*
X163394761Y-92068666D01*
X163347142Y-92044857D01*
X163251904Y-92044857D01*
X163204285Y-92068666D01*
X163418571Y-92354380D02*
X163370952Y-92378190D01*
X163251904Y-92378190D01*
X163204285Y-92354380D01*
X163180476Y-92306761D01*
X163180476Y-92259142D01*
X163204285Y-92211523D01*
X163251904Y-92187714D01*
X163370952Y-92187714D01*
X163418571Y-92163904D01*
X163870952Y-92378190D02*
X163870952Y-91878190D01*
X163870952Y-92354380D02*
X163823333Y-92378190D01*
X163728095Y-92378190D01*
X163680476Y-92354380D01*
X163656666Y-92330571D01*
X163632857Y-92282952D01*
X163632857Y-92140095D01*
X163656666Y-92092476D01*
X163680476Y-92068666D01*
X163728095Y-92044857D01*
X163823333Y-92044857D01*
X163870952Y-92068666D01*
X164061428Y-92044857D02*
X164180476Y-92378190D01*
X164299523Y-92044857D02*
X164180476Y-92378190D01*
X164132857Y-92497238D01*
X164109047Y-92521047D01*
X164061428Y-92544857D01*
X102705047Y-87687190D02*
X102871714Y-88187190D01*
X103038380Y-87687190D01*
X103205047Y-88187190D02*
X103205047Y-87853857D01*
X103205047Y-87687190D02*
X103181238Y-87711000D01*
X103205047Y-87734809D01*
X103228857Y-87711000D01*
X103205047Y-87687190D01*
X103205047Y-87734809D01*
X103443142Y-87853857D02*
X103443142Y-88187190D01*
X103443142Y-87901476D02*
X103466952Y-87877666D01*
X103514571Y-87853857D01*
X103586000Y-87853857D01*
X103633619Y-87877666D01*
X103657428Y-87925285D01*
X103657428Y-88187190D01*
X104252666Y-88163380D02*
X104324095Y-88187190D01*
X104443142Y-88187190D01*
X104490761Y-88163380D01*
X104514571Y-88139571D01*
X104538380Y-88091952D01*
X104538380Y-88044333D01*
X104514571Y-87996714D01*
X104490761Y-87972904D01*
X104443142Y-87949095D01*
X104347904Y-87925285D01*
X104300285Y-87901476D01*
X104276476Y-87877666D01*
X104252666Y-87830047D01*
X104252666Y-87782428D01*
X104276476Y-87734809D01*
X104300285Y-87711000D01*
X104347904Y-87687190D01*
X104466952Y-87687190D01*
X104538380Y-87711000D01*
X104681238Y-87853857D02*
X104871714Y-87853857D01*
X104752666Y-87687190D02*
X104752666Y-88115761D01*
X104776476Y-88163380D01*
X104824095Y-88187190D01*
X104871714Y-88187190D01*
X105252666Y-88187190D02*
X105252666Y-87925285D01*
X105228857Y-87877666D01*
X105181238Y-87853857D01*
X105086000Y-87853857D01*
X105038380Y-87877666D01*
X105252666Y-88163380D02*
X105205047Y-88187190D01*
X105086000Y-88187190D01*
X105038380Y-88163380D01*
X105014571Y-88115761D01*
X105014571Y-88068142D01*
X105038380Y-88020523D01*
X105086000Y-87996714D01*
X105205047Y-87996714D01*
X105252666Y-87972904D01*
X105419333Y-87853857D02*
X105609809Y-87853857D01*
X105490761Y-87687190D02*
X105490761Y-88115761D01*
X105514571Y-88163380D01*
X105562190Y-88187190D01*
X105609809Y-88187190D01*
X105990761Y-87853857D02*
X105990761Y-88187190D01*
X105776476Y-87853857D02*
X105776476Y-88115761D01*
X105800285Y-88163380D01*
X105847904Y-88187190D01*
X105919333Y-88187190D01*
X105966952Y-88163380D01*
X105990761Y-88139571D01*
X106205047Y-88163380D02*
X106252666Y-88187190D01*
X106347904Y-88187190D01*
X106395523Y-88163380D01*
X106419333Y-88115761D01*
X106419333Y-88091952D01*
X106395523Y-88044333D01*
X106347904Y-88020523D01*
X106276476Y-88020523D01*
X106228857Y-87996714D01*
X106205047Y-87949095D01*
X106205047Y-87925285D01*
X106228857Y-87877666D01*
X106276476Y-87853857D01*
X106347904Y-87853857D01*
X106395523Y-87877666D01*
X184401714Y-85782190D02*
X184163619Y-85782190D01*
X184139809Y-86020285D01*
X184163619Y-85996476D01*
X184211238Y-85972666D01*
X184330285Y-85972666D01*
X184377904Y-85996476D01*
X184401714Y-86020285D01*
X184425523Y-86067904D01*
X184425523Y-86186952D01*
X184401714Y-86234571D01*
X184377904Y-86258380D01*
X184330285Y-86282190D01*
X184211238Y-86282190D01*
X184163619Y-86258380D01*
X184139809Y-86234571D01*
X184568380Y-85782190D02*
X184735047Y-86282190D01*
X184901714Y-85782190D01*
X185425523Y-86258380D02*
X185496952Y-86282190D01*
X185616000Y-86282190D01*
X185663619Y-86258380D01*
X185687428Y-86234571D01*
X185711238Y-86186952D01*
X185711238Y-86139333D01*
X185687428Y-86091714D01*
X185663619Y-86067904D01*
X185616000Y-86044095D01*
X185520761Y-86020285D01*
X185473142Y-85996476D01*
X185449333Y-85972666D01*
X185425523Y-85925047D01*
X185425523Y-85877428D01*
X185449333Y-85829809D01*
X185473142Y-85806000D01*
X185520761Y-85782190D01*
X185639809Y-85782190D01*
X185711238Y-85806000D01*
X185854095Y-85948857D02*
X186044571Y-85948857D01*
X185925523Y-85782190D02*
X185925523Y-86210761D01*
X185949333Y-86258380D01*
X185996952Y-86282190D01*
X186044571Y-86282190D01*
X186425523Y-86282190D02*
X186425523Y-86020285D01*
X186401714Y-85972666D01*
X186354095Y-85948857D01*
X186258857Y-85948857D01*
X186211238Y-85972666D01*
X186425523Y-86258380D02*
X186377904Y-86282190D01*
X186258857Y-86282190D01*
X186211238Y-86258380D01*
X186187428Y-86210761D01*
X186187428Y-86163142D01*
X186211238Y-86115523D01*
X186258857Y-86091714D01*
X186377904Y-86091714D01*
X186425523Y-86067904D01*
X186592190Y-85948857D02*
X186782666Y-85948857D01*
X186663619Y-85782190D02*
X186663619Y-86210761D01*
X186687428Y-86258380D01*
X186735047Y-86282190D01*
X186782666Y-86282190D01*
X187163619Y-85948857D02*
X187163619Y-86282190D01*
X186949333Y-85948857D02*
X186949333Y-86210761D01*
X186973142Y-86258380D01*
X187020761Y-86282190D01*
X187092190Y-86282190D01*
X187139809Y-86258380D01*
X187163619Y-86234571D01*
X187377904Y-86258380D02*
X187425523Y-86282190D01*
X187520761Y-86282190D01*
X187568380Y-86258380D01*
X187592190Y-86210761D01*
X187592190Y-86186952D01*
X187568380Y-86139333D01*
X187520761Y-86115523D01*
X187449333Y-86115523D01*
X187401714Y-86091714D01*
X187377904Y-86044095D01*
X187377904Y-86020285D01*
X187401714Y-85972666D01*
X187449333Y-85948857D01*
X187520761Y-85948857D01*
X187568380Y-85972666D01*
D11*
X157136285Y-88961857D02*
X158660095Y-88961857D01*
X157898190Y-89723761D02*
X157898190Y-88199952D01*
X164183904Y-88961857D02*
X165707714Y-88961857D01*
D10*
X173842714Y-90686000D02*
X174592714Y-90686000D01*
X174592714Y-90971714D01*
X174557000Y-91043142D01*
X174521285Y-91078857D01*
X174449857Y-91114571D01*
X174342714Y-91114571D01*
X174271285Y-91078857D01*
X174235571Y-91043142D01*
X174199857Y-90971714D01*
X174199857Y-90686000D01*
X174057000Y-91400285D02*
X174057000Y-91757428D01*
X173842714Y-91328857D02*
X174592714Y-91578857D01*
X173842714Y-91828857D01*
X174592714Y-92007428D02*
X174592714Y-92507428D01*
X173842714Y-92186000D01*
X174592714Y-93293142D02*
X174592714Y-93757428D01*
X174307000Y-93507428D01*
X174307000Y-93614571D01*
X174271285Y-93686000D01*
X174235571Y-93721714D01*
X174164142Y-93757428D01*
X173985571Y-93757428D01*
X173914142Y-93721714D01*
X173878428Y-93686000D01*
X173842714Y-93614571D01*
X173842714Y-93400285D01*
X173878428Y-93328857D01*
X173914142Y-93293142D01*
X174592714Y-93971714D02*
X173842714Y-94221714D01*
X174592714Y-94471714D01*
X174592714Y-94650285D02*
X174592714Y-95114571D01*
X174307000Y-94864571D01*
X174307000Y-94971714D01*
X174271285Y-95043142D01*
X174235571Y-95078857D01*
X174164142Y-95114571D01*
X173985571Y-95114571D01*
X173914142Y-95078857D01*
X173878428Y-95043142D01*
X173842714Y-94971714D01*
X173842714Y-94757428D01*
X173878428Y-94686000D01*
X173914142Y-94650285D01*
X174557000Y-96400285D02*
X174592714Y-96328857D01*
X174592714Y-96221714D01*
X174557000Y-96114571D01*
X174485571Y-96043142D01*
X174414142Y-96007428D01*
X174271285Y-95971714D01*
X174164142Y-95971714D01*
X174021285Y-96007428D01*
X173949857Y-96043142D01*
X173878428Y-96114571D01*
X173842714Y-96221714D01*
X173842714Y-96293142D01*
X173878428Y-96400285D01*
X173914142Y-96436000D01*
X174164142Y-96436000D01*
X174164142Y-96293142D01*
X173842714Y-96757428D02*
X174592714Y-96757428D01*
X173842714Y-97186000D01*
X174592714Y-97186000D01*
X173842714Y-97543142D02*
X174592714Y-97543142D01*
X174592714Y-97721714D01*
X174557000Y-97828857D01*
X174485571Y-97900285D01*
X174414142Y-97936000D01*
X174271285Y-97971714D01*
X174164142Y-97971714D01*
X174021285Y-97936000D01*
X173949857Y-97900285D01*
X173878428Y-97828857D01*
X173842714Y-97721714D01*
X173842714Y-97543142D01*
D12*
X107250000Y-80000000D02*
G75*
G03X107250000Y-80000000I-3250000J0D01*
G01*
X199250000Y-80000000D02*
G75*
G03X199250000Y-80000000I-3250000J0D01*
G01*
D13*
X181040095Y-98452380D02*
X181611523Y-98452380D01*
X181325809Y-99452380D02*
X181325809Y-98452380D01*
X182468666Y-99452380D02*
X181897238Y-99452380D01*
X182182952Y-99452380D02*
X182182952Y-98452380D01*
X182087714Y-98595238D01*
X181992476Y-98690476D01*
X181897238Y-98738095D01*
X199611904Y-97471428D02*
X198811904Y-97471428D01*
X199611904Y-97014285D01*
X198811904Y-97014285D01*
X199611904Y-96633333D02*
X198811904Y-96633333D01*
X198811904Y-96328571D01*
X198850000Y-96252380D01*
X198888095Y-96214285D01*
X198964285Y-96176190D01*
X199078571Y-96176190D01*
X199154761Y-96214285D01*
X199192857Y-96252380D01*
X199230952Y-96328571D01*
X199230952Y-96633333D01*
X198811904Y-95947619D02*
X199611904Y-95680952D01*
X198811904Y-95414285D01*
D10*
X198839285Y-92607142D02*
X199589285Y-92357142D01*
X198839285Y-92107142D01*
X199303571Y-91857142D02*
X199303571Y-91285714D01*
X199589285Y-91571428D02*
X199017857Y-91571428D01*
X199589285Y-90357142D02*
X198839285Y-90357142D01*
X198839285Y-90178571D01*
X198875000Y-90071428D01*
X198946428Y-90000000D01*
X199017857Y-89964285D01*
X199160714Y-89928571D01*
X199267857Y-89928571D01*
X199410714Y-89964285D01*
X199482142Y-90000000D01*
X199553571Y-90071428D01*
X199589285Y-90178571D01*
X199589285Y-90357142D01*
X199589285Y-89285714D02*
X199196428Y-89285714D01*
X199125000Y-89321428D01*
X199089285Y-89392857D01*
X199089285Y-89535714D01*
X199125000Y-89607142D01*
X199553571Y-89285714D02*
X199589285Y-89357142D01*
X199589285Y-89535714D01*
X199553571Y-89607142D01*
X199482142Y-89642857D01*
X199410714Y-89642857D01*
X199339285Y-89607142D01*
X199303571Y-89535714D01*
X199303571Y-89357142D01*
X199267857Y-89285714D01*
X199089285Y-89035714D02*
X199089285Y-88750000D01*
X198839285Y-88928571D02*
X199482142Y-88928571D01*
X199553571Y-88892857D01*
X199589285Y-88821428D01*
X199589285Y-88750000D01*
X199589285Y-88178571D02*
X199196428Y-88178571D01*
X199125000Y-88214285D01*
X199089285Y-88285714D01*
X199089285Y-88428571D01*
X199125000Y-88500000D01*
X199553571Y-88178571D02*
X199589285Y-88250000D01*
X199589285Y-88428571D01*
X199553571Y-88500000D01*
X199482142Y-88535714D01*
X199410714Y-88535714D01*
X199339285Y-88500000D01*
X199303571Y-88428571D01*
X199303571Y-88250000D01*
X199267857Y-88178571D01*
X198875000Y-86857142D02*
X198839285Y-86928571D01*
X198839285Y-87035714D01*
X198875000Y-87142857D01*
X198946428Y-87214285D01*
X199017857Y-87250000D01*
X199160714Y-87285714D01*
X199267857Y-87285714D01*
X199410714Y-87250000D01*
X199482142Y-87214285D01*
X199553571Y-87142857D01*
X199589285Y-87035714D01*
X199589285Y-86964285D01*
X199553571Y-86857142D01*
X199517857Y-86821428D01*
X199267857Y-86821428D01*
X199267857Y-86964285D01*
X199089285Y-86500000D02*
X199589285Y-86500000D01*
X199160714Y-86500000D02*
X199125000Y-86464285D01*
X199089285Y-86392857D01*
X199089285Y-86285714D01*
X199125000Y-86214285D01*
X199196428Y-86178571D01*
X199589285Y-86178571D01*
X199589285Y-85500000D02*
X198839285Y-85500000D01*
X199553571Y-85500000D02*
X199589285Y-85571428D01*
X199589285Y-85714285D01*
X199553571Y-85785714D01*
X199517857Y-85821428D01*
X199446428Y-85857142D01*
X199232142Y-85857142D01*
X199160714Y-85821428D01*
X199125000Y-85785714D01*
X199089285Y-85714285D01*
X199089285Y-85571428D01*
X199125000Y-85500000D01*
D13*
X137947380Y-99843380D02*
X137614047Y-99367190D01*
X137375952Y-99843380D02*
X137375952Y-98843380D01*
X137756904Y-98843380D01*
X137852142Y-98891000D01*
X137899761Y-98938619D01*
X137947380Y-99033857D01*
X137947380Y-99176714D01*
X137899761Y-99271952D01*
X137852142Y-99319571D01*
X137756904Y-99367190D01*
X137375952Y-99367190D01*
X138328333Y-99795761D02*
X138471190Y-99843380D01*
X138709285Y-99843380D01*
X138804523Y-99795761D01*
X138852142Y-99748142D01*
X138899761Y-99652904D01*
X138899761Y-99557666D01*
X138852142Y-99462428D01*
X138804523Y-99414809D01*
X138709285Y-99367190D01*
X138518809Y-99319571D01*
X138423571Y-99271952D01*
X138375952Y-99224333D01*
X138328333Y-99129095D01*
X138328333Y-99033857D01*
X138375952Y-98938619D01*
X138423571Y-98891000D01*
X138518809Y-98843380D01*
X138756904Y-98843380D01*
X138899761Y-98891000D01*
X139185476Y-98843380D02*
X139756904Y-98843380D01*
X139471190Y-99843380D02*
X139471190Y-98843380D01*
D10*
X151267857Y-99339285D02*
X151017857Y-98982142D01*
X150839285Y-99339285D02*
X150839285Y-98589285D01*
X151125000Y-98589285D01*
X151196428Y-98625000D01*
X151232142Y-98660714D01*
X151267857Y-98732142D01*
X151267857Y-98839285D01*
X151232142Y-98910714D01*
X151196428Y-98946428D01*
X151125000Y-98982142D01*
X150839285Y-98982142D01*
X151553571Y-99303571D02*
X151660714Y-99339285D01*
X151839285Y-99339285D01*
X151910714Y-99303571D01*
X151946428Y-99267857D01*
X151982142Y-99196428D01*
X151982142Y-99125000D01*
X151946428Y-99053571D01*
X151910714Y-99017857D01*
X151839285Y-98982142D01*
X151696428Y-98946428D01*
X151625000Y-98910714D01*
X151589285Y-98875000D01*
X151553571Y-98803571D01*
X151553571Y-98732142D01*
X151589285Y-98660714D01*
X151625000Y-98625000D01*
X151696428Y-98589285D01*
X151875000Y-98589285D01*
X151982142Y-98625000D01*
X152196428Y-98589285D02*
X152625000Y-98589285D01*
X152410714Y-99339285D02*
X152410714Y-98589285D01*
X153875000Y-99267857D02*
X153839285Y-99303571D01*
X153732142Y-99339285D01*
X153660714Y-99339285D01*
X153553571Y-99303571D01*
X153482142Y-99232142D01*
X153446428Y-99160714D01*
X153410714Y-99017857D01*
X153410714Y-98910714D01*
X153446428Y-98767857D01*
X153482142Y-98696428D01*
X153553571Y-98625000D01*
X153660714Y-98589285D01*
X153732142Y-98589285D01*
X153839285Y-98625000D01*
X153875000Y-98660714D01*
X154553571Y-99339285D02*
X154196428Y-99339285D01*
X154196428Y-98589285D01*
X154803571Y-99339285D02*
X154803571Y-98589285D01*
X155232142Y-99339285D02*
X154910714Y-98910714D01*
X155232142Y-98589285D02*
X154803571Y-99017857D01*
X156125000Y-99339285D02*
X156125000Y-98589285D01*
X156303571Y-98589285D01*
X156410714Y-98625000D01*
X156482142Y-98696428D01*
X156517857Y-98767857D01*
X156553571Y-98910714D01*
X156553571Y-99017857D01*
X156517857Y-99160714D01*
X156482142Y-99232142D01*
X156410714Y-99303571D01*
X156303571Y-99339285D01*
X156125000Y-99339285D01*
X156875000Y-99339285D02*
X156875000Y-98589285D01*
X157375000Y-98589285D02*
X157517857Y-98589285D01*
X157589285Y-98625000D01*
X157660714Y-98696428D01*
X157696428Y-98839285D01*
X157696428Y-99089285D01*
X157660714Y-99232142D01*
X157589285Y-99303571D01*
X157517857Y-99339285D01*
X157375000Y-99339285D01*
X157303571Y-99303571D01*
X157232142Y-99232142D01*
X157196428Y-99089285D01*
X157196428Y-98839285D01*
X157232142Y-98696428D01*
X157303571Y-98625000D01*
X157375000Y-98589285D01*
X163196428Y-98375000D02*
X163125000Y-98339285D01*
X163017857Y-98339285D01*
X162910714Y-98375000D01*
X162839285Y-98446428D01*
X162803571Y-98517857D01*
X162767857Y-98660714D01*
X162767857Y-98767857D01*
X162803571Y-98910714D01*
X162839285Y-98982142D01*
X162910714Y-99053571D01*
X163017857Y-99089285D01*
X163089285Y-99089285D01*
X163196428Y-99053571D01*
X163232142Y-99017857D01*
X163232142Y-98767857D01*
X163089285Y-98767857D01*
X163553571Y-99089285D02*
X163553571Y-98339285D01*
X163982142Y-99089285D01*
X163982142Y-98339285D01*
X164339285Y-99089285D02*
X164339285Y-98339285D01*
X164517857Y-98339285D01*
X164625000Y-98375000D01*
X164696428Y-98446428D01*
X164732142Y-98517857D01*
X164767857Y-98660714D01*
X164767857Y-98767857D01*
X164732142Y-98910714D01*
X164696428Y-98982142D01*
X164625000Y-99053571D01*
X164517857Y-99089285D01*
X164339285Y-99089285D01*
X165625000Y-99053571D02*
X165732142Y-99089285D01*
X165910714Y-99089285D01*
X165982142Y-99053571D01*
X166017857Y-99017857D01*
X166053571Y-98946428D01*
X166053571Y-98875000D01*
X166017857Y-98803571D01*
X165982142Y-98767857D01*
X165910714Y-98732142D01*
X165767857Y-98696428D01*
X165696428Y-98660714D01*
X165660714Y-98625000D01*
X165625000Y-98553571D01*
X165625000Y-98482142D01*
X165660714Y-98410714D01*
X165696428Y-98375000D01*
X165767857Y-98339285D01*
X165946428Y-98339285D01*
X166053571Y-98375000D01*
X166803571Y-99017857D02*
X166767857Y-99053571D01*
X166660714Y-99089285D01*
X166589285Y-99089285D01*
X166482142Y-99053571D01*
X166410714Y-98982142D01*
X166375000Y-98910714D01*
X166339285Y-98767857D01*
X166339285Y-98660714D01*
X166375000Y-98517857D01*
X166410714Y-98446428D01*
X166482142Y-98375000D01*
X166589285Y-98339285D01*
X166660714Y-98339285D01*
X166767857Y-98375000D01*
X166803571Y-98410714D01*
X167482142Y-99089285D02*
X167125000Y-99089285D01*
X167125000Y-98339285D01*
X168267857Y-99053571D02*
X168375000Y-99089285D01*
X168553571Y-99089285D01*
X168625000Y-99053571D01*
X168660714Y-99017857D01*
X168696428Y-98946428D01*
X168696428Y-98875000D01*
X168660714Y-98803571D01*
X168625000Y-98767857D01*
X168553571Y-98732142D01*
X168410714Y-98696428D01*
X168339285Y-98660714D01*
X168303571Y-98625000D01*
X168267857Y-98553571D01*
X168267857Y-98482142D01*
X168303571Y-98410714D01*
X168339285Y-98375000D01*
X168410714Y-98339285D01*
X168589285Y-98339285D01*
X168696428Y-98375000D01*
X169017857Y-99089285D02*
X169017857Y-98339285D01*
X169196428Y-98339285D01*
X169303571Y-98375000D01*
X169375000Y-98446428D01*
X169410714Y-98517857D01*
X169446428Y-98660714D01*
X169446428Y-98767857D01*
X169410714Y-98910714D01*
X169375000Y-98982142D01*
X169303571Y-99053571D01*
X169196428Y-99089285D01*
X169017857Y-99089285D01*
X169732142Y-98875000D02*
X170089285Y-98875000D01*
X169660714Y-99089285D02*
X169910714Y-98339285D01*
X170160714Y-99089285D01*
X170910714Y-98339285D02*
X171375000Y-98339285D01*
X171125000Y-98625000D01*
X171232142Y-98625000D01*
X171303571Y-98660714D01*
X171339285Y-98696428D01*
X171375000Y-98767857D01*
X171375000Y-98946428D01*
X171339285Y-99017857D01*
X171303571Y-99053571D01*
X171232142Y-99089285D01*
X171017857Y-99089285D01*
X170946428Y-99053571D01*
X170910714Y-99017857D01*
X171589285Y-98339285D02*
X171839285Y-99089285D01*
X172089285Y-98339285D01*
X172267857Y-98339285D02*
X172732142Y-98339285D01*
X172482142Y-98625000D01*
X172589285Y-98625000D01*
X172660714Y-98660714D01*
X172696428Y-98696428D01*
X172732142Y-98767857D01*
X172732142Y-98946428D01*
X172696428Y-99017857D01*
X172660714Y-99053571D01*
X172589285Y-99089285D01*
X172375000Y-99089285D01*
X172303571Y-99053571D01*
X172267857Y-99017857D01*
D14*
X148500000Y-77821428D02*
X148000000Y-76321428D01*
X147500000Y-77821428D01*
X147000000Y-76321428D02*
X147000000Y-77321428D01*
X147000000Y-77821428D02*
X147071428Y-77750000D01*
X147000000Y-77678571D01*
X146928571Y-77750000D01*
X147000000Y-77821428D01*
X147000000Y-77678571D01*
X146285714Y-77321428D02*
X146285714Y-76321428D01*
X146285714Y-77178571D02*
X146214285Y-77250000D01*
X146071428Y-77321428D01*
X145857142Y-77321428D01*
X145714285Y-77250000D01*
X145642857Y-77107142D01*
X145642857Y-76321428D01*
X142642857Y-76321428D02*
X142642857Y-77821428D01*
X142142857Y-76750000D01*
X141642857Y-77821428D01*
X141642857Y-76321428D01*
X140642857Y-77821428D02*
X140500000Y-77821428D01*
X140357142Y-77750000D01*
X140285714Y-77678571D01*
X140214285Y-77535714D01*
X140142857Y-77250000D01*
X140142857Y-76892857D01*
X140214285Y-76607142D01*
X140285714Y-76464285D01*
X140357142Y-76392857D01*
X140500000Y-76321428D01*
X140642857Y-76321428D01*
X140785714Y-76392857D01*
X140857142Y-76464285D01*
X140928571Y-76607142D01*
X141000000Y-76892857D01*
X141000000Y-77250000D01*
X140928571Y-77535714D01*
X140857142Y-77678571D01*
X140785714Y-77750000D01*
X140642857Y-77821428D01*
X128000000Y-77821428D02*
X127500000Y-76321428D01*
X127000000Y-77821428D01*
X126500000Y-76321428D02*
X126500000Y-77321428D01*
X126500000Y-77821428D02*
X126571428Y-77750000D01*
X126500000Y-77678571D01*
X126428571Y-77750000D01*
X126500000Y-77821428D01*
X126500000Y-77678571D01*
X125785714Y-77321428D02*
X125785714Y-76321428D01*
X125785714Y-77178571D02*
X125714285Y-77250000D01*
X125571428Y-77321428D01*
X125357142Y-77321428D01*
X125214285Y-77250000D01*
X125142857Y-77107142D01*
X125142857Y-76321428D01*
X122142857Y-76321428D02*
X122142857Y-77821428D01*
X121642857Y-76750000D01*
X121142857Y-77821428D01*
X121142857Y-76321428D01*
X120500000Y-77678571D02*
X120428571Y-77750000D01*
X120285714Y-77821428D01*
X119928571Y-77821428D01*
X119785714Y-77750000D01*
X119714285Y-77678571D01*
X119642857Y-77535714D01*
X119642857Y-77392857D01*
X119714285Y-77178571D01*
X120571428Y-76321428D01*
X119642857Y-76321428D01*
X138250000Y-77821428D02*
X137750000Y-76321428D01*
X137250000Y-77821428D01*
X136750000Y-76321428D02*
X136750000Y-77321428D01*
X136750000Y-77821428D02*
X136821428Y-77750000D01*
X136750000Y-77678571D01*
X136678571Y-77750000D01*
X136750000Y-77821428D01*
X136750000Y-77678571D01*
X136035714Y-77321428D02*
X136035714Y-76321428D01*
X136035714Y-77178571D02*
X135964285Y-77250000D01*
X135821428Y-77321428D01*
X135607142Y-77321428D01*
X135464285Y-77250000D01*
X135392857Y-77107142D01*
X135392857Y-76321428D01*
X132392857Y-76321428D02*
X132392857Y-77821428D01*
X131892857Y-76750000D01*
X131392857Y-77821428D01*
X131392857Y-76321428D01*
X129892857Y-76321428D02*
X130750000Y-76321428D01*
X130321428Y-76321428D02*
X130321428Y-77821428D01*
X130464285Y-77607142D01*
X130607142Y-77464285D01*
X130750000Y-77392857D01*
X165785714Y-77909000D02*
X165928571Y-77980428D01*
X166142857Y-77980428D01*
X166357142Y-77909000D01*
X166500000Y-77766142D01*
X166571428Y-77623285D01*
X166642857Y-77337571D01*
X166642857Y-77123285D01*
X166571428Y-76837571D01*
X166500000Y-76694714D01*
X166357142Y-76551857D01*
X166142857Y-76480428D01*
X166000000Y-76480428D01*
X165785714Y-76551857D01*
X165714285Y-76623285D01*
X165714285Y-77123285D01*
X166000000Y-77123285D01*
X165071428Y-77480428D02*
X165071428Y-76480428D01*
X165071428Y-77337571D02*
X165000000Y-77409000D01*
X164857142Y-77480428D01*
X164642857Y-77480428D01*
X164500000Y-77409000D01*
X164428571Y-77266142D01*
X164428571Y-76480428D01*
X163071428Y-76480428D02*
X163071428Y-77980428D01*
X163071428Y-76551857D02*
X163214285Y-76480428D01*
X163500000Y-76480428D01*
X163642857Y-76551857D01*
X163714285Y-76623285D01*
X163785714Y-76766142D01*
X163785714Y-77194714D01*
X163714285Y-77337571D01*
X163642857Y-77409000D01*
X163500000Y-77480428D01*
X163214285Y-77480428D01*
X163071428Y-77409000D01*
X160285714Y-77980428D02*
X159785714Y-76480428D01*
X159285714Y-77980428D01*
X158785714Y-76480428D02*
X158785714Y-77480428D01*
X158785714Y-77980428D02*
X158857142Y-77909000D01*
X158785714Y-77837571D01*
X158714285Y-77909000D01*
X158785714Y-77980428D01*
X158785714Y-77837571D01*
X158071428Y-77480428D02*
X158071428Y-76480428D01*
X158071428Y-77337571D02*
X158000000Y-77409000D01*
X157857142Y-77480428D01*
X157642857Y-77480428D01*
X157500000Y-77409000D01*
X157428571Y-77266142D01*
X157428571Y-76480428D01*
D13*
X170130952Y-76840571D02*
X170273809Y-76888190D01*
X170321428Y-76935809D01*
X170369047Y-77031047D01*
X170369047Y-77173904D01*
X170321428Y-77269142D01*
X170273809Y-77316761D01*
X170178571Y-77364380D01*
X169797619Y-77364380D01*
X169797619Y-76364380D01*
X170130952Y-76364380D01*
X170226190Y-76412000D01*
X170273809Y-76459619D01*
X170321428Y-76554857D01*
X170321428Y-76650095D01*
X170273809Y-76745333D01*
X170226190Y-76792952D01*
X170130952Y-76840571D01*
X169797619Y-76840571D01*
X170940476Y-77364380D02*
X170845238Y-77316761D01*
X170797619Y-77269142D01*
X170750000Y-77173904D01*
X170750000Y-76888190D01*
X170797619Y-76792952D01*
X170845238Y-76745333D01*
X170940476Y-76697714D01*
X171083333Y-76697714D01*
X171178571Y-76745333D01*
X171226190Y-76792952D01*
X171273809Y-76888190D01*
X171273809Y-77173904D01*
X171226190Y-77269142D01*
X171178571Y-77316761D01*
X171083333Y-77364380D01*
X170940476Y-77364380D01*
X171845238Y-77364380D02*
X171750000Y-77316761D01*
X171702380Y-77269142D01*
X171654761Y-77173904D01*
X171654761Y-76888190D01*
X171702380Y-76792952D01*
X171750000Y-76745333D01*
X171845238Y-76697714D01*
X171988095Y-76697714D01*
X172083333Y-76745333D01*
X172130952Y-76792952D01*
X172178571Y-76888190D01*
X172178571Y-77173904D01*
X172130952Y-77269142D01*
X172083333Y-77316761D01*
X171988095Y-77364380D01*
X171845238Y-77364380D01*
X172464285Y-76697714D02*
X172845238Y-76697714D01*
X172607142Y-76364380D02*
X172607142Y-77221523D01*
X172654761Y-77316761D01*
X172750000Y-77364380D01*
X172845238Y-77364380D01*
D14*
X118000000Y-77821428D02*
X117500000Y-76321428D01*
X117000000Y-77821428D01*
X116500000Y-76321428D02*
X116500000Y-77321428D01*
X116500000Y-77821428D02*
X116571428Y-77750000D01*
X116500000Y-77678571D01*
X116428571Y-77750000D01*
X116500000Y-77821428D01*
X116500000Y-77678571D01*
X115785714Y-77321428D02*
X115785714Y-76321428D01*
X115785714Y-77178571D02*
X115714285Y-77250000D01*
X115571428Y-77321428D01*
X115357142Y-77321428D01*
X115214285Y-77250000D01*
X115142857Y-77107142D01*
X115142857Y-76321428D01*
X112142857Y-76321428D02*
X112142857Y-77821428D01*
X111642857Y-76750000D01*
X111142857Y-77821428D01*
X111142857Y-76321428D01*
X110571428Y-77821428D02*
X109642857Y-77821428D01*
X110142857Y-77250000D01*
X109928571Y-77250000D01*
X109785714Y-77178571D01*
X109714285Y-77107142D01*
X109642857Y-76964285D01*
X109642857Y-76607142D01*
X109714285Y-76464285D01*
X109785714Y-76392857D01*
X109928571Y-76321428D01*
X110357142Y-76321428D01*
X110500000Y-76392857D01*
X110571428Y-76464285D01*
D13*
X189930095Y-98462380D02*
X190501523Y-98462380D01*
X190215809Y-99462380D02*
X190215809Y-98462380D01*
X191025333Y-98462380D02*
X191120571Y-98462380D01*
X191215809Y-98510000D01*
X191263428Y-98557619D01*
X191311047Y-98652857D01*
X191358666Y-98843333D01*
X191358666Y-99081428D01*
X191311047Y-99271904D01*
X191263428Y-99367142D01*
X191215809Y-99414761D01*
X191120571Y-99462380D01*
X191025333Y-99462380D01*
X190930095Y-99414761D01*
X190882476Y-99367142D01*
X190834857Y-99271904D01*
X190787238Y-99081428D01*
X190787238Y-98843333D01*
X190834857Y-98652857D01*
X190882476Y-98557619D01*
X190930095Y-98510000D01*
X191025333Y-98462380D01*
D10*
X192303000Y-84914000D02*
X192678000Y-84914000D01*
X191978000Y-85239000D02*
X191453000Y-85239000D01*
X191978000Y-85139000D02*
X191978000Y-85239000D01*
X192303000Y-84914000D02*
X191978000Y-85139000D01*
X193978000Y-88214000D02*
X193653000Y-88214000D01*
X193978000Y-87914000D02*
X193978000Y-88214000D01*
X191978000Y-88214000D02*
X192278000Y-88214000D01*
X191978000Y-87889000D02*
X191978000Y-88214000D01*
X193978000Y-84914000D02*
X193678000Y-84914000D01*
X193978000Y-85239000D02*
X193978000Y-84914000D01*
D12*
X191119000Y-81139000D02*
X191119000Y-78689000D01*
X187899000Y-79339000D02*
X187899000Y-81139000D01*
D13*
X168000000Y-81550000D02*
X173975000Y-81550000D01*
X169525000Y-88450000D02*
X173975000Y-88450000D01*
X139940000Y-95863000D02*
X145940000Y-95863000D01*
X145940000Y-99363000D02*
X139940000Y-99363000D01*
X145940000Y-99363000D02*
X145940000Y-95863000D01*
X139940000Y-95863000D02*
X139940000Y-99363000D01*
X139940000Y-98613000D02*
X138690000Y-98613000D01*
X138690000Y-98613000D02*
X138690000Y-96613000D01*
X138690000Y-96613000D02*
X139940000Y-96613000D01*
X147190000Y-98613000D02*
X145940000Y-98613000D01*
X145940000Y-96613000D02*
X147190000Y-96613000D01*
X147190000Y-96613000D02*
X147190000Y-98613000D01*
D12*
X103946422Y-85115000D02*
X104463578Y-85115000D01*
X103946422Y-83695000D02*
X104463578Y-83695000D01*
X186124578Y-81790000D02*
X185607422Y-81790000D01*
X186124578Y-83210000D02*
X185607422Y-83210000D01*
X109487000Y-93807578D02*
X109487000Y-93290422D01*
X108067000Y-93807578D02*
X108067000Y-93290422D01*
X119647000Y-93807578D02*
X119647000Y-93290422D01*
X118227000Y-93807578D02*
X118227000Y-93290422D01*
X129807000Y-93807578D02*
X129807000Y-93290422D01*
X128387000Y-93807578D02*
X128387000Y-93290422D01*
X180008578Y-89790000D02*
X179491422Y-89790000D01*
X180008578Y-91210000D02*
X179491422Y-91210000D01*
X188758578Y-89790000D02*
X188241422Y-89790000D01*
X188758578Y-91210000D02*
X188241422Y-91210000D01*
X139967000Y-93807578D02*
X139967000Y-93290422D01*
X138547000Y-93807578D02*
X138547000Y-93290422D01*
X116004578Y-89790000D02*
X115487422Y-89790000D01*
X116004578Y-91210000D02*
X115487422Y-91210000D01*
X126164578Y-89790000D02*
X125647422Y-89790000D01*
X126164578Y-91210000D02*
X125647422Y-91210000D01*
X136324578Y-89790000D02*
X135807422Y-89790000D01*
X136324578Y-91210000D02*
X135807422Y-91210000D01*
X146484578Y-89790000D02*
X145967422Y-89790000D01*
X146484578Y-91210000D02*
X145967422Y-91210000D01*
X116004578Y-91790000D02*
X115487422Y-91790000D01*
X116004578Y-93210000D02*
X115487422Y-93210000D01*
X126164578Y-91790000D02*
X125647422Y-91790000D01*
X126164578Y-93210000D02*
X125647422Y-93210000D01*
X136324578Y-91790000D02*
X135807422Y-91790000D01*
X136324578Y-93210000D02*
X135807422Y-93210000D01*
X146484578Y-91790000D02*
X145967422Y-91790000D01*
X146484578Y-93210000D02*
X145967422Y-93210000D01*
X159540000Y-96491422D02*
X159540000Y-97008578D01*
X160960000Y-96491422D02*
X160960000Y-97008578D01*
X169465422Y-94286000D02*
X169982578Y-94286000D01*
X169465422Y-92866000D02*
X169982578Y-92866000D01*
X165918578Y-92866000D02*
X165401422Y-92866000D01*
X165918578Y-94286000D02*
X165401422Y-94286000D01*
X157790000Y-91991422D02*
X157790000Y-92508578D01*
X159210000Y-91991422D02*
X159210000Y-92508578D01*
X149238000Y-96982578D02*
X149238000Y-96465422D01*
X147818000Y-96982578D02*
X147818000Y-96465422D01*
X175040000Y-79241422D02*
X175040000Y-79758578D01*
X176460000Y-79241422D02*
X176460000Y-79758578D01*
X111436000Y-89670000D02*
X112896000Y-89670000D01*
X111436000Y-92830000D02*
X113596000Y-92830000D01*
X111436000Y-92830000D02*
X111436000Y-91900000D01*
X111436000Y-89670000D02*
X111436000Y-90600000D01*
X121596000Y-89670000D02*
X123056000Y-89670000D01*
X121596000Y-92830000D02*
X123756000Y-92830000D01*
X121596000Y-92830000D02*
X121596000Y-91900000D01*
X121596000Y-89670000D02*
X121596000Y-90600000D01*
X131756000Y-89670000D02*
X133216000Y-89670000D01*
X131756000Y-92830000D02*
X133916000Y-92830000D01*
X131756000Y-92830000D02*
X131756000Y-91900000D01*
X131756000Y-89670000D02*
X131756000Y-90600000D01*
X141916000Y-89670000D02*
X143376000Y-89670000D01*
X141916000Y-92830000D02*
X144076000Y-92830000D01*
X141916000Y-92830000D02*
X141916000Y-91900000D01*
X141916000Y-89670000D02*
X141916000Y-90600000D01*
X175011000Y-90441000D02*
X176341000Y-90441000D01*
X175011000Y-91771000D02*
X175011000Y-90441000D01*
X175011000Y-93041000D02*
X177671000Y-93041000D01*
X177671000Y-93041000D02*
X177671000Y-98181000D01*
X175011000Y-93041000D02*
X175011000Y-98181000D01*
X175011000Y-98181000D02*
X177671000Y-98181000D01*
X198580000Y-92830000D02*
X197250000Y-92830000D01*
X198580000Y-91500000D02*
X198580000Y-92830000D01*
X198580000Y-90230000D02*
X195920000Y-90230000D01*
X195920000Y-90230000D02*
X195920000Y-85090000D01*
X198580000Y-90230000D02*
X198580000Y-85090000D01*
X198580000Y-85090000D02*
X195920000Y-85090000D01*
X195920000Y-95170000D02*
X197250000Y-95170000D01*
X195920000Y-96500000D02*
X195920000Y-95170000D01*
X195920000Y-97770000D02*
X198580000Y-97770000D01*
X198580000Y-97770000D02*
X198580000Y-97830000D01*
X195920000Y-97770000D02*
X195920000Y-97830000D01*
X195920000Y-97830000D02*
X198580000Y-97830000D01*
X184330000Y-94170000D02*
X184330000Y-95500000D01*
X183000000Y-94170000D02*
X184330000Y-94170000D01*
X181730000Y-94170000D02*
X181730000Y-96830000D01*
X181730000Y-96830000D02*
X179130000Y-96830000D01*
X181730000Y-94170000D02*
X179130000Y-94170000D01*
X179130000Y-94170000D02*
X179130000Y-96830000D01*
X193080000Y-94170000D02*
X193080000Y-95500000D01*
X191750000Y-94170000D02*
X193080000Y-94170000D01*
X190480000Y-94170000D02*
X190480000Y-96830000D01*
X190480000Y-96830000D02*
X187880000Y-96830000D01*
X190480000Y-94170000D02*
X187880000Y-94170000D01*
X187880000Y-94170000D02*
X187880000Y-96830000D01*
X168670000Y-80330000D02*
X168670000Y-79000000D01*
X170000000Y-80330000D02*
X168670000Y-80330000D01*
X171270000Y-80330000D02*
X171270000Y-77670000D01*
X171270000Y-77670000D02*
X173870000Y-77670000D01*
X171270000Y-80330000D02*
X173870000Y-80330000D01*
X173870000Y-80330000D02*
X173870000Y-77670000D01*
X146066682Y-80965244D02*
G75*
G02X146750000Y-80820000I683318J-1534756D01*
G01*
X145214574Y-83183042D02*
G75*
G02X145215000Y-81816000I1535426J683042D01*
G01*
X147433042Y-84035426D02*
G75*
G02X146066000Y-84035000I-683042J1535426D01*
G01*
X148285426Y-81816958D02*
G75*
G02X148285000Y-83184000I-1535426J-683042D01*
G01*
X146721195Y-80819747D02*
G75*
G02X147434000Y-80965000I28805J-1680253D01*
G01*
X143350000Y-82500000D02*
G75*
G03X143350000Y-82500000I-1680000J0D01*
G01*
X138270000Y-82500000D02*
G75*
G03X138270000Y-82500000I-1680000J0D01*
G01*
X133190000Y-82500000D02*
G75*
G03X133190000Y-82500000I-1680000J0D01*
G01*
X128110000Y-82500000D02*
G75*
G03X128110000Y-82500000I-1680000J0D01*
G01*
X123030000Y-82500000D02*
G75*
G03X123030000Y-82500000I-1680000J0D01*
G01*
X117950000Y-82500000D02*
G75*
G03X117950000Y-82500000I-1680000J0D01*
G01*
X112870000Y-82500000D02*
G75*
G03X112870000Y-82500000I-1680000J0D01*
G01*
X149350000Y-78400000D02*
X108590000Y-78400000D01*
X149350000Y-79900000D02*
X108590000Y-79900000D01*
X149350000Y-84801000D02*
X108590000Y-84801000D01*
X149350000Y-87761000D02*
X108590000Y-87761000D01*
X149350000Y-77840000D02*
X108590000Y-77840000D01*
X149350000Y-87761000D02*
X149350000Y-77840000D01*
X108590000Y-87761000D02*
X108590000Y-77840000D01*
X140395000Y-83569000D02*
X140442000Y-83523000D01*
X142704000Y-81261000D02*
X142739000Y-81226000D01*
X140600000Y-83775000D02*
X140635000Y-83739000D01*
X142897000Y-81477000D02*
X142944000Y-81431000D01*
X135315000Y-83569000D02*
X135362000Y-83523000D01*
X137624000Y-81261000D02*
X137659000Y-81226000D01*
X135520000Y-83775000D02*
X135555000Y-83739000D01*
X137817000Y-81477000D02*
X137864000Y-81431000D01*
X130235000Y-83569000D02*
X130282000Y-83523000D01*
X132544000Y-81261000D02*
X132579000Y-81226000D01*
X130440000Y-83775000D02*
X130475000Y-83739000D01*
X132737000Y-81477000D02*
X132784000Y-81431000D01*
X125155000Y-83569000D02*
X125202000Y-83523000D01*
X127464000Y-81261000D02*
X127499000Y-81226000D01*
X125360000Y-83775000D02*
X125395000Y-83739000D01*
X127657000Y-81477000D02*
X127704000Y-81431000D01*
X120075000Y-83569000D02*
X120122000Y-83523000D01*
X122384000Y-81261000D02*
X122419000Y-81226000D01*
X120280000Y-83775000D02*
X120315000Y-83739000D01*
X122577000Y-81477000D02*
X122624000Y-81431000D01*
X114995000Y-83569000D02*
X115042000Y-83523000D01*
X117304000Y-81261000D02*
X117339000Y-81226000D01*
X115200000Y-83775000D02*
X115235000Y-83739000D01*
X117497000Y-81477000D02*
X117544000Y-81431000D01*
X109915000Y-83569000D02*
X109962000Y-83523000D01*
X112224000Y-81261000D02*
X112259000Y-81226000D01*
X110120000Y-83775000D02*
X110155000Y-83739000D01*
X112417000Y-81477000D02*
X112464000Y-81431000D01*
X149590000Y-78340000D02*
X149590000Y-77600000D01*
X149590000Y-77600000D02*
X149090000Y-77600000D01*
X167190000Y-77600000D02*
X166690000Y-77600000D01*
X167190000Y-78340000D02*
X167190000Y-77600000D01*
X160497000Y-81477000D02*
X160544000Y-81431000D01*
X158200000Y-83775000D02*
X158235000Y-83739000D01*
X160304000Y-81261000D02*
X160339000Y-81226000D01*
X157995000Y-83569000D02*
X158042000Y-83523000D01*
X156670000Y-87761000D02*
X156670000Y-77840000D01*
X166950000Y-87761000D02*
X166950000Y-77840000D01*
X166950000Y-77840000D02*
X156670000Y-77840000D01*
X166950000Y-87761000D02*
X156670000Y-87761000D01*
X166950000Y-84801000D02*
X156670000Y-84801000D01*
X166950000Y-79900000D02*
X156670000Y-79900000D01*
X166950000Y-78400000D02*
X156670000Y-78400000D01*
X160950000Y-82500000D02*
G75*
G03X160950000Y-82500000I-1680000J0D01*
G01*
X164321195Y-80819747D02*
G75*
G02X165034000Y-80965000I28805J-1680253D01*
G01*
X165885426Y-81816958D02*
G75*
G02X165885000Y-83184000I-1535426J-683042D01*
G01*
X165033042Y-84035426D02*
G75*
G02X163666000Y-84035000I-683042J1535426D01*
G01*
X162814574Y-83183042D02*
G75*
G02X162815000Y-81816000I1535426J683042D01*
G01*
X163666682Y-80965244D02*
G75*
G02X164350000Y-80820000I683318J-1534756D01*
G01*
X158080000Y-95420000D02*
X158080000Y-96750000D01*
X156750000Y-95420000D02*
X158080000Y-95420000D01*
X155480000Y-95420000D02*
X155480000Y-98080000D01*
X155480000Y-98080000D02*
X150340000Y-98080000D01*
X155480000Y-95420000D02*
X150340000Y-95420000D01*
X150340000Y-95420000D02*
X150340000Y-98080000D01*
X172824000Y-95448000D02*
X172824000Y-96778000D01*
X171494000Y-95448000D02*
X172824000Y-95448000D01*
X170224000Y-95448000D02*
X170224000Y-98108000D01*
X170224000Y-98108000D02*
X162544000Y-98108000D01*
X170224000Y-95448000D02*
X162544000Y-95448000D01*
X162544000Y-95448000D02*
X162544000Y-98108000D01*
X183442000Y-80971500D02*
X183442000Y-80521500D01*
X183442000Y-80971500D02*
X182992000Y-80971500D01*
X177842000Y-80421500D02*
X178292000Y-80421500D01*
X177842000Y-78571500D02*
X177842000Y-80421500D01*
X185642000Y-76021500D02*
X185642000Y-76271500D01*
X177842000Y-76021500D02*
X177842000Y-76271500D01*
X185642000Y-78571500D02*
X185642000Y-80421500D01*
X185642000Y-80421500D02*
X185192000Y-80421500D01*
D13*
X155500000Y-92240000D02*
X155500000Y-77240000D01*
X150500000Y-92240000D02*
X155500000Y-92240000D01*
X150500000Y-77240000D02*
X150500000Y-92240000D01*
X155500000Y-77240000D02*
X150500000Y-77240000D01*
D12*
X105890000Y-85477000D02*
X103205000Y-85477000D01*
X105890000Y-87397000D02*
X105890000Y-85477000D01*
X103205000Y-87397000D02*
X105890000Y-87397000D01*
X184181000Y-85619000D02*
X186866000Y-85619000D01*
X184181000Y-83699000D02*
X184181000Y-85619000D01*
X186866000Y-83699000D02*
X184181000Y-83699000D01*
X107817000Y-88308000D02*
X107817000Y-90993000D01*
X109737000Y-88308000D02*
X107817000Y-88308000D01*
X109737000Y-90993000D02*
X109737000Y-88308000D01*
X117977000Y-88308000D02*
X117977000Y-90993000D01*
X119897000Y-88308000D02*
X117977000Y-88308000D01*
X119897000Y-90993000D02*
X119897000Y-88308000D01*
X128137000Y-88308000D02*
X128137000Y-90993000D01*
X130057000Y-88308000D02*
X128137000Y-88308000D01*
X130057000Y-90993000D02*
X130057000Y-88308000D01*
X138297000Y-88308000D02*
X138297000Y-90993000D01*
X140217000Y-88308000D02*
X138297000Y-88308000D01*
X140217000Y-90993000D02*
X140217000Y-88308000D01*
X162935000Y-89540000D02*
X160250000Y-89540000D01*
X162935000Y-91460000D02*
X162935000Y-89540000D01*
X160250000Y-91460000D02*
X162935000Y-91460000D01*
X184008578Y-89790000D02*
X183491422Y-89790000D01*
X184008578Y-91210000D02*
X183491422Y-91210000D01*
X192758578Y-89790000D02*
X192241422Y-89790000D01*
X192758578Y-91210000D02*
X192241422Y-91210000D01*
X189250422Y-84124000D02*
X189767578Y-84124000D01*
X189250422Y-82704000D02*
X189767578Y-82704000D01*
X169741422Y-90460000D02*
X170258578Y-90460000D01*
X169741422Y-89040000D02*
X170258578Y-89040000D01*
X189759578Y-76530000D02*
X189242422Y-76530000D01*
X189759578Y-77950000D02*
X189242422Y-77950000D01*
X179758578Y-84290000D02*
X179241422Y-84290000D01*
X179758578Y-85710000D02*
X179241422Y-85710000D01*
D15*
G36*
X107481600Y-89994150D02*
G01*
X107481600Y-93293849D01*
X106092308Y-94094524D01*
X105752339Y-94290185D01*
X105442012Y-94468267D01*
X105171882Y-94622754D01*
X104952505Y-94747630D01*
X104794439Y-94836877D01*
X104708239Y-94884478D01*
X104695308Y-94890770D01*
X104651181Y-94865166D01*
X104529791Y-94794713D01*
X104341745Y-94685566D01*
X104097649Y-94543881D01*
X103808109Y-94375815D01*
X103483731Y-94187525D01*
X103316000Y-94090162D01*
X102090648Y-93378876D01*
X103146666Y-93378876D01*
X103185441Y-93398402D01*
X103303479Y-93413187D01*
X103478467Y-93420891D01*
X103553066Y-93421479D01*
X103976400Y-93420959D01*
X103990821Y-93399076D01*
X104713000Y-93399076D01*
X104759850Y-93409563D01*
X104884616Y-93417500D01*
X105063623Y-93421596D01*
X105132100Y-93421886D01*
X105551200Y-93421772D01*
X106033800Y-92678043D01*
X106198838Y-92423678D01*
X106350963Y-92189166D01*
X106478863Y-91991951D01*
X106571223Y-91849476D01*
X106610288Y-91789156D01*
X106704177Y-91644000D01*
X105842093Y-91644000D01*
X105277546Y-92510076D01*
X105107034Y-92772735D01*
X104957186Y-93005619D01*
X104836286Y-93195683D01*
X104752618Y-93329882D01*
X104714465Y-93395172D01*
X104713000Y-93399076D01*
X103990821Y-93399076D01*
X105119400Y-91686603D01*
X105367036Y-91310432D01*
X105597037Y-90960255D01*
X105803420Y-90645238D01*
X105980202Y-90374551D01*
X106121399Y-90157361D01*
X106221029Y-90002837D01*
X106273108Y-89920148D01*
X106279333Y-89909123D01*
X106240558Y-89889597D01*
X106122520Y-89874812D01*
X105947532Y-89867108D01*
X105872933Y-89866520D01*
X105449600Y-89867040D01*
X104306600Y-91601396D01*
X104058963Y-91977567D01*
X103828962Y-92327744D01*
X103622579Y-92642761D01*
X103445797Y-92913448D01*
X103304600Y-93130638D01*
X103204970Y-93285162D01*
X103152891Y-93367851D01*
X103146666Y-93378876D01*
X102090648Y-93378876D01*
X101944400Y-93293983D01*
X101944400Y-91644000D01*
X102721822Y-91644000D01*
X103583906Y-91644000D01*
X104148453Y-90777923D01*
X104318965Y-90515264D01*
X104468813Y-90282380D01*
X104589713Y-90092316D01*
X104673381Y-89958117D01*
X104711534Y-89892827D01*
X104713000Y-89888923D01*
X104666149Y-89878436D01*
X104541383Y-89870499D01*
X104362376Y-89866403D01*
X104293900Y-89866113D01*
X103874800Y-89866227D01*
X103392200Y-90609956D01*
X103227161Y-90864321D01*
X103075036Y-91098833D01*
X102947136Y-91296048D01*
X102854776Y-91438523D01*
X102815711Y-91498843D01*
X102721822Y-91644000D01*
X101944400Y-91644000D01*
X101944400Y-89994150D01*
X104713000Y-88398552D01*
X107481600Y-89994150D01*
G37*
X107481600Y-89994150D02*
X107481600Y-93293849D01*
X106092308Y-94094524D01*
X105752339Y-94290185D01*
X105442012Y-94468267D01*
X105171882Y-94622754D01*
X104952505Y-94747630D01*
X104794439Y-94836877D01*
X104708239Y-94884478D01*
X104695308Y-94890770D01*
X104651181Y-94865166D01*
X104529791Y-94794713D01*
X104341745Y-94685566D01*
X104097649Y-94543881D01*
X103808109Y-94375815D01*
X103483731Y-94187525D01*
X103316000Y-94090162D01*
X102090648Y-93378876D01*
X103146666Y-93378876D01*
X103185441Y-93398402D01*
X103303479Y-93413187D01*
X103478467Y-93420891D01*
X103553066Y-93421479D01*
X103976400Y-93420959D01*
X103990821Y-93399076D01*
X104713000Y-93399076D01*
X104759850Y-93409563D01*
X104884616Y-93417500D01*
X105063623Y-93421596D01*
X105132100Y-93421886D01*
X105551200Y-93421772D01*
X106033800Y-92678043D01*
X106198838Y-92423678D01*
X106350963Y-92189166D01*
X106478863Y-91991951D01*
X106571223Y-91849476D01*
X106610288Y-91789156D01*
X106704177Y-91644000D01*
X105842093Y-91644000D01*
X105277546Y-92510076D01*
X105107034Y-92772735D01*
X104957186Y-93005619D01*
X104836286Y-93195683D01*
X104752618Y-93329882D01*
X104714465Y-93395172D01*
X104713000Y-93399076D01*
X103990821Y-93399076D01*
X105119400Y-91686603D01*
X105367036Y-91310432D01*
X105597037Y-90960255D01*
X105803420Y-90645238D01*
X105980202Y-90374551D01*
X106121399Y-90157361D01*
X106221029Y-90002837D01*
X106273108Y-89920148D01*
X106279333Y-89909123D01*
X106240558Y-89889597D01*
X106122520Y-89874812D01*
X105947532Y-89867108D01*
X105872933Y-89866520D01*
X105449600Y-89867040D01*
X104306600Y-91601396D01*
X104058963Y-91977567D01*
X103828962Y-92327744D01*
X103622579Y-92642761D01*
X103445797Y-92913448D01*
X103304600Y-93130638D01*
X103204970Y-93285162D01*
X103152891Y-93367851D01*
X103146666Y-93378876D01*
X102090648Y-93378876D01*
X101944400Y-93293983D01*
X101944400Y-91644000D01*
X102721822Y-91644000D01*
X103583906Y-91644000D01*
X104148453Y-90777923D01*
X104318965Y-90515264D01*
X104468813Y-90282380D01*
X104589713Y-90092316D01*
X104673381Y-89958117D01*
X104711534Y-89892827D01*
X104713000Y-89888923D01*
X104666149Y-89878436D01*
X104541383Y-89870499D01*
X104362376Y-89866403D01*
X104293900Y-89866113D01*
X103874800Y-89866227D01*
X103392200Y-90609956D01*
X103227161Y-90864321D01*
X103075036Y-91098833D01*
X102947136Y-91296048D01*
X102854776Y-91438523D01*
X102815711Y-91498843D01*
X102721822Y-91644000D01*
X101944400Y-91644000D01*
X101944400Y-89994150D01*
X104713000Y-88398552D01*
X107481600Y-89994150D01*
G36*
X130342536Y-95328511D02*
G01*
X129708291Y-95328511D01*
X129708291Y-94784872D01*
X130342536Y-94784872D01*
X130342536Y-95328511D01*
G37*
X130342536Y-95328511D02*
X129708291Y-95328511D01*
X129708291Y-94784872D01*
X130342536Y-94784872D01*
X130342536Y-95328511D01*
G36*
X136176309Y-95715948D02*
G01*
X136186650Y-95717824D01*
X136386208Y-95768782D01*
X136537322Y-95841205D01*
X136649995Y-95941315D01*
X136721859Y-96050600D01*
X136805794Y-96211270D01*
X136805794Y-98469533D01*
X136171549Y-98469533D01*
X136171104Y-97420009D01*
X136170328Y-97112706D01*
X136168189Y-96861456D01*
X136164540Y-96661922D01*
X136159236Y-96509766D01*
X136152131Y-96400648D01*
X136143078Y-96330231D01*
X136133284Y-96296632D01*
X136068124Y-96208773D01*
X135971441Y-96148981D01*
X135835268Y-96114371D01*
X135651638Y-96102055D01*
X135596557Y-96102131D01*
X135408393Y-96111355D01*
X135268489Y-96136349D01*
X135165903Y-96180890D01*
X135089695Y-96248754D01*
X135061905Y-96286665D01*
X135047570Y-96313390D01*
X135035906Y-96349631D01*
X135026566Y-96401701D01*
X135019204Y-96475914D01*
X135013472Y-96578585D01*
X135009024Y-96716028D01*
X135005514Y-96894557D01*
X135002594Y-97120485D01*
X134999918Y-97400127D01*
X134999759Y-97418616D01*
X134990752Y-98469533D01*
X134359421Y-98469533D01*
X134359421Y-95751341D01*
X134676543Y-95751341D01*
X134820008Y-95752543D01*
X134913254Y-95757188D01*
X134966439Y-95766828D01*
X134989719Y-95783020D01*
X134993666Y-95799875D01*
X135009258Y-95833191D01*
X135046519Y-95826447D01*
X135240895Y-95764572D01*
X135472312Y-95720560D01*
X135719520Y-95696436D01*
X135961269Y-95694224D01*
X136176309Y-95715948D01*
G37*
X136176309Y-95715948D02*
X136186650Y-95717824D01*
X136386208Y-95768782D01*
X136537322Y-95841205D01*
X136649995Y-95941315D01*
X136721859Y-96050600D01*
X136805794Y-96211270D01*
X136805794Y-98469533D01*
X136171549Y-98469533D01*
X136171104Y-97420009D01*
X136170328Y-97112706D01*
X136168189Y-96861456D01*
X136164540Y-96661922D01*
X136159236Y-96509766D01*
X136152131Y-96400648D01*
X136143078Y-96330231D01*
X136133284Y-96296632D01*
X136068124Y-96208773D01*
X135971441Y-96148981D01*
X135835268Y-96114371D01*
X135651638Y-96102055D01*
X135596557Y-96102131D01*
X135408393Y-96111355D01*
X135268489Y-96136349D01*
X135165903Y-96180890D01*
X135089695Y-96248754D01*
X135061905Y-96286665D01*
X135047570Y-96313390D01*
X135035906Y-96349631D01*
X135026566Y-96401701D01*
X135019204Y-96475914D01*
X135013472Y-96578585D01*
X135009024Y-96716028D01*
X135005514Y-96894557D01*
X135002594Y-97120485D01*
X134999918Y-97400127D01*
X134999759Y-97418616D01*
X134990752Y-98469533D01*
X134359421Y-98469533D01*
X134359421Y-95751341D01*
X134676543Y-95751341D01*
X134820008Y-95752543D01*
X134913254Y-95757188D01*
X134966439Y-95766828D01*
X134989719Y-95783020D01*
X134993666Y-95799875D01*
X135009258Y-95833191D01*
X135046519Y-95826447D01*
X135240895Y-95764572D01*
X135472312Y-95720560D01*
X135719520Y-95696436D01*
X135961269Y-95694224D01*
X136176309Y-95715948D01*
G36*
X130342536Y-98469533D02*
G01*
X129708291Y-98469533D01*
X129708291Y-95751341D01*
X130342536Y-95751341D01*
X130342536Y-98469533D01*
G37*
X130342536Y-98469533D02*
X129708291Y-98469533D01*
X129708291Y-95751341D01*
X130342536Y-95751341D01*
X130342536Y-98469533D01*
G36*
X121361332Y-94846299D02*
G01*
X121628125Y-94849881D01*
X121849318Y-94856793D01*
X122032297Y-94867807D01*
X122184453Y-94883695D01*
X122313174Y-94905227D01*
X122425848Y-94933176D01*
X122529864Y-94968312D01*
X122632544Y-95011376D01*
X122802183Y-95114065D01*
X122952125Y-95253536D01*
X123066990Y-95413628D01*
X123114385Y-95517691D01*
X123129790Y-95567314D01*
X123142067Y-95622961D01*
X123151563Y-95691780D01*
X123158623Y-95780919D01*
X123163593Y-95897527D01*
X123166819Y-96048752D01*
X123168647Y-96241742D01*
X123169423Y-96483647D01*
X123169528Y-96657405D01*
X123169201Y-96958322D01*
X123167423Y-97205609D01*
X123162996Y-97406042D01*
X123154723Y-97566394D01*
X123141407Y-97693440D01*
X123121850Y-97793954D01*
X123094857Y-97874710D01*
X123059229Y-97942483D01*
X123013769Y-98004048D01*
X122957280Y-98066178D01*
X122912540Y-98111622D01*
X122816146Y-98202480D01*
X122729310Y-98265992D01*
X122629547Y-98315698D01*
X122494369Y-98365136D01*
X122487882Y-98367307D01*
X122233261Y-98452368D01*
X121153535Y-98462999D01*
X120073808Y-98473630D01*
X120073808Y-98084065D01*
X120768458Y-98084065D01*
X121349849Y-98070088D01*
X121560445Y-98064250D01*
X121721242Y-98057484D01*
X121842845Y-98048672D01*
X121935859Y-98036694D01*
X122010889Y-98020432D01*
X122078539Y-97998767D01*
X122098907Y-97991076D01*
X122271016Y-97899555D01*
X122400316Y-97778035D01*
X122479471Y-97633740D01*
X122487060Y-97608772D01*
X122497286Y-97539104D01*
X122505609Y-97419273D01*
X122512026Y-97259491D01*
X122516534Y-97069969D01*
X122519130Y-96860919D01*
X122519812Y-96642552D01*
X122518575Y-96425079D01*
X122515418Y-96218713D01*
X122510337Y-96033665D01*
X122503328Y-95880147D01*
X122494389Y-95768369D01*
X122487620Y-95723293D01*
X122435148Y-95575528D01*
X122343928Y-95460578D01*
X122205781Y-95369858D01*
X122112453Y-95329319D01*
X122041578Y-95304396D01*
X121969741Y-95285609D01*
X121886080Y-95271757D01*
X121779735Y-95261637D01*
X121639844Y-95254048D01*
X121455547Y-95247789D01*
X121349849Y-95244948D01*
X120768458Y-95230089D01*
X120768458Y-98084065D01*
X120073808Y-98084065D01*
X120073808Y-94845276D01*
X121041550Y-94845276D01*
X121361332Y-94846299D01*
G37*
X121361332Y-94846299D02*
X121628125Y-94849881D01*
X121849318Y-94856793D01*
X122032297Y-94867807D01*
X122184453Y-94883695D01*
X122313174Y-94905227D01*
X122425848Y-94933176D01*
X122529864Y-94968312D01*
X122632544Y-95011376D01*
X122802183Y-95114065D01*
X122952125Y-95253536D01*
X123066990Y-95413628D01*
X123114385Y-95517691D01*
X123129790Y-95567314D01*
X123142067Y-95622961D01*
X123151563Y-95691780D01*
X123158623Y-95780919D01*
X123163593Y-95897527D01*
X123166819Y-96048752D01*
X123168647Y-96241742D01*
X123169423Y-96483647D01*
X123169528Y-96657405D01*
X123169201Y-96958322D01*
X123167423Y-97205609D01*
X123162996Y-97406042D01*
X123154723Y-97566394D01*
X123141407Y-97693440D01*
X123121850Y-97793954D01*
X123094857Y-97874710D01*
X123059229Y-97942483D01*
X123013769Y-98004048D01*
X122957280Y-98066178D01*
X122912540Y-98111622D01*
X122816146Y-98202480D01*
X122729310Y-98265992D01*
X122629547Y-98315698D01*
X122494369Y-98365136D01*
X122487882Y-98367307D01*
X122233261Y-98452368D01*
X121153535Y-98462999D01*
X120073808Y-98473630D01*
X120073808Y-98084065D01*
X120768458Y-98084065D01*
X121349849Y-98070088D01*
X121560445Y-98064250D01*
X121721242Y-98057484D01*
X121842845Y-98048672D01*
X121935859Y-98036694D01*
X122010889Y-98020432D01*
X122078539Y-97998767D01*
X122098907Y-97991076D01*
X122271016Y-97899555D01*
X122400316Y-97778035D01*
X122479471Y-97633740D01*
X122487060Y-97608772D01*
X122497286Y-97539104D01*
X122505609Y-97419273D01*
X122512026Y-97259491D01*
X122516534Y-97069969D01*
X122519130Y-96860919D01*
X122519812Y-96642552D01*
X122518575Y-96425079D01*
X122515418Y-96218713D01*
X122510337Y-96033665D01*
X122503328Y-95880147D01*
X122494389Y-95768369D01*
X122487620Y-95723293D01*
X122435148Y-95575528D01*
X122343928Y-95460578D01*
X122205781Y-95369858D01*
X122112453Y-95329319D01*
X122041578Y-95304396D01*
X121969741Y-95285609D01*
X121886080Y-95271757D01*
X121779735Y-95261637D01*
X121639844Y-95254048D01*
X121455547Y-95247789D01*
X121349849Y-95244948D01*
X120768458Y-95230089D01*
X120768458Y-98084065D01*
X120073808Y-98084065D01*
X120073808Y-94845276D01*
X121041550Y-94845276D01*
X121361332Y-94846299D01*
G36*
X117269769Y-95715948D02*
G01*
X117280110Y-95717824D01*
X117479668Y-95768782D01*
X117630782Y-95841205D01*
X117743455Y-95941315D01*
X117815319Y-96050600D01*
X117899254Y-96211270D01*
X117899254Y-98469533D01*
X117265009Y-98469533D01*
X117264564Y-97420009D01*
X117263788Y-97112706D01*
X117261649Y-96861456D01*
X117258000Y-96661922D01*
X117252696Y-96509766D01*
X117245591Y-96400648D01*
X117236538Y-96330231D01*
X117226744Y-96296632D01*
X117161584Y-96208773D01*
X117064901Y-96148981D01*
X116928728Y-96114371D01*
X116745098Y-96102055D01*
X116690017Y-96102131D01*
X116501853Y-96111355D01*
X116361949Y-96136349D01*
X116259363Y-96180890D01*
X116183156Y-96248754D01*
X116155365Y-96286665D01*
X116141030Y-96313390D01*
X116129366Y-96349631D01*
X116120027Y-96401701D01*
X116112664Y-96475914D01*
X116106932Y-96578585D01*
X116102484Y-96716028D01*
X116098974Y-96894557D01*
X116096054Y-97120485D01*
X116093379Y-97400127D01*
X116093219Y-97418616D01*
X116084212Y-98469533D01*
X115452881Y-98469533D01*
X115452881Y-95751341D01*
X115770003Y-95751341D01*
X115913468Y-95752543D01*
X116006714Y-95757188D01*
X116059899Y-95766828D01*
X116083179Y-95783020D01*
X116087126Y-95799875D01*
X116102718Y-95833191D01*
X116139980Y-95826447D01*
X116334356Y-95764572D01*
X116565773Y-95720560D01*
X116812980Y-95696436D01*
X117054729Y-95694224D01*
X117269769Y-95715948D01*
G37*
X117269769Y-95715948D02*
X117280110Y-95717824D01*
X117479668Y-95768782D01*
X117630782Y-95841205D01*
X117743455Y-95941315D01*
X117815319Y-96050600D01*
X117899254Y-96211270D01*
X117899254Y-98469533D01*
X117265009Y-98469533D01*
X117264564Y-97420009D01*
X117263788Y-97112706D01*
X117261649Y-96861456D01*
X117258000Y-96661922D01*
X117252696Y-96509766D01*
X117245591Y-96400648D01*
X117236538Y-96330231D01*
X117226744Y-96296632D01*
X117161584Y-96208773D01*
X117064901Y-96148981D01*
X116928728Y-96114371D01*
X116745098Y-96102055D01*
X116690017Y-96102131D01*
X116501853Y-96111355D01*
X116361949Y-96136349D01*
X116259363Y-96180890D01*
X116183156Y-96248754D01*
X116155365Y-96286665D01*
X116141030Y-96313390D01*
X116129366Y-96349631D01*
X116120027Y-96401701D01*
X116112664Y-96475914D01*
X116106932Y-96578585D01*
X116102484Y-96716028D01*
X116098974Y-96894557D01*
X116096054Y-97120485D01*
X116093379Y-97400127D01*
X116093219Y-97418616D01*
X116084212Y-98469533D01*
X115452881Y-98469533D01*
X115452881Y-95751341D01*
X115770003Y-95751341D01*
X115913468Y-95752543D01*
X116006714Y-95757188D01*
X116059899Y-95766828D01*
X116083179Y-95783020D01*
X116087126Y-95799875D01*
X116102718Y-95833191D01*
X116139980Y-95826447D01*
X116334356Y-95764572D01*
X116565773Y-95720560D01*
X116812980Y-95696436D01*
X117054729Y-95694224D01*
X117269769Y-95715948D01*
G36*
X111783321Y-96159069D02*
G01*
X111451097Y-96174927D01*
X111268445Y-96187523D01*
X111136176Y-96206220D01*
X111044437Y-96232610D01*
X111018338Y-96244887D01*
X110970469Y-96273018D01*
X110931572Y-96304853D01*
X110900718Y-96346581D01*
X110876980Y-96404389D01*
X110859427Y-96484467D01*
X110847133Y-96593002D01*
X110839168Y-96736183D01*
X110834603Y-96920199D01*
X110832510Y-97151238D01*
X110831960Y-97435487D01*
X110831953Y-97486994D01*
X110831953Y-98469533D01*
X110197708Y-98469533D01*
X110197708Y-95751341D01*
X110801751Y-95751341D01*
X110801751Y-95829363D01*
X110809068Y-95882940D01*
X110824403Y-95895869D01*
X110975703Y-95820019D01*
X111089352Y-95767840D01*
X111181158Y-95734883D01*
X111266931Y-95716702D01*
X111362481Y-95708850D01*
X111483616Y-95706880D01*
X111496400Y-95706839D01*
X111783321Y-95706037D01*
X111783321Y-96159069D01*
G37*
X111783321Y-96159069D02*
X111451097Y-96174927D01*
X111268445Y-96187523D01*
X111136176Y-96206220D01*
X111044437Y-96232610D01*
X111018338Y-96244887D01*
X110970469Y-96273018D01*
X110931572Y-96304853D01*
X110900718Y-96346581D01*
X110876980Y-96404389D01*
X110859427Y-96484467D01*
X110847133Y-96593002D01*
X110839168Y-96736183D01*
X110834603Y-96920199D01*
X110832510Y-97151238D01*
X110831960Y-97435487D01*
X110831953Y-97486994D01*
X110831953Y-98469533D01*
X110197708Y-98469533D01*
X110197708Y-95751341D01*
X110801751Y-95751341D01*
X110801751Y-95829363D01*
X110809068Y-95882940D01*
X110824403Y-95895869D01*
X110975703Y-95820019D01*
X111089352Y-95767840D01*
X111181158Y-95734883D01*
X111266931Y-95716702D01*
X111362481Y-95708850D01*
X111483616Y-95706880D01*
X111496400Y-95706839D01*
X111783321Y-95706037D01*
X111783321Y-96159069D01*
G36*
X104160074Y-96327730D02*
G01*
X104297351Y-96694121D01*
X104415111Y-97004519D01*
X104513769Y-97259953D01*
X104593737Y-97461454D01*
X104655431Y-97610049D01*
X104699264Y-97706769D01*
X104725650Y-97752642D01*
X104734070Y-97754781D01*
X104748579Y-97716250D01*
X104782114Y-97626775D01*
X104832566Y-97492000D01*
X104897824Y-97317566D01*
X104975777Y-97109115D01*
X105064316Y-96872291D01*
X105161330Y-96612735D01*
X105264709Y-96336090D01*
X105283521Y-96285743D01*
X105387368Y-96008276D01*
X105485018Y-95748272D01*
X105574406Y-95511169D01*
X105653467Y-95302402D01*
X105720135Y-95127405D01*
X105772345Y-94991615D01*
X105808033Y-94900467D01*
X105825131Y-94859397D01*
X105826144Y-94857665D01*
X105860398Y-94852562D01*
X105942089Y-94849851D01*
X106058290Y-94849751D01*
X106171328Y-94851800D01*
X106502070Y-94860377D01*
X105788304Y-96657405D01*
X105074538Y-98454432D01*
X104690254Y-98462894D01*
X104305970Y-98471355D01*
X104261465Y-98364839D01*
X104242320Y-98317046D01*
X104203513Y-98218494D01*
X104147213Y-98074745D01*
X104075589Y-97891361D01*
X103990811Y-97673905D01*
X103895047Y-97427937D01*
X103790467Y-97159022D01*
X103679240Y-96872720D01*
X103616213Y-96710361D01*
X103501510Y-96414865D01*
X103391691Y-96132074D01*
X103289014Y-95867790D01*
X103195734Y-95627817D01*
X103114108Y-95417955D01*
X103046393Y-95244008D01*
X102994844Y-95111778D01*
X102961719Y-95027066D01*
X102952569Y-95003838D01*
X102889672Y-94845276D01*
X103607346Y-94845276D01*
X104160074Y-96327730D01*
G37*
X104160074Y-96327730D02*
X104297351Y-96694121D01*
X104415111Y-97004519D01*
X104513769Y-97259953D01*
X104593737Y-97461454D01*
X104655431Y-97610049D01*
X104699264Y-97706769D01*
X104725650Y-97752642D01*
X104734070Y-97754781D01*
X104748579Y-97716250D01*
X104782114Y-97626775D01*
X104832566Y-97492000D01*
X104897824Y-97317566D01*
X104975777Y-97109115D01*
X105064316Y-96872291D01*
X105161330Y-96612735D01*
X105264709Y-96336090D01*
X105283521Y-96285743D01*
X105387368Y-96008276D01*
X105485018Y-95748272D01*
X105574406Y-95511169D01*
X105653467Y-95302402D01*
X105720135Y-95127405D01*
X105772345Y-94991615D01*
X105808033Y-94900467D01*
X105825131Y-94859397D01*
X105826144Y-94857665D01*
X105860398Y-94852562D01*
X105942089Y-94849851D01*
X106058290Y-94849751D01*
X106171328Y-94851800D01*
X106502070Y-94860377D01*
X105788304Y-96657405D01*
X105074538Y-98454432D01*
X104690254Y-98462894D01*
X104305970Y-98471355D01*
X104261465Y-98364839D01*
X104242320Y-98317046D01*
X104203513Y-98218494D01*
X104147213Y-98074745D01*
X104075589Y-97891361D01*
X103990811Y-97673905D01*
X103895047Y-97427937D01*
X103790467Y-97159022D01*
X103679240Y-96872720D01*
X103616213Y-96710361D01*
X103501510Y-96414865D01*
X103391691Y-96132074D01*
X103289014Y-95867790D01*
X103195734Y-95627817D01*
X103114108Y-95417955D01*
X103046393Y-95244008D01*
X102994844Y-95111778D01*
X102961719Y-95027066D01*
X102952569Y-95003838D01*
X102889672Y-94845276D01*
X103607346Y-94845276D01*
X104160074Y-96327730D01*
G36*
X128361107Y-95705117D02*
G01*
X128532753Y-95713067D01*
X128684764Y-95721610D01*
X128806235Y-95730012D01*
X128886256Y-95737542D01*
X128912296Y-95742092D01*
X128937389Y-95776440D01*
X128950516Y-95859509D01*
X128953238Y-95954777D01*
X128953238Y-96151750D01*
X128809777Y-96133019D01*
X128466189Y-96093607D01*
X128177656Y-96072650D01*
X127941650Y-96070372D01*
X127755640Y-96086992D01*
X127617097Y-96122734D01*
X127523489Y-96177819D01*
X127473141Y-96250181D01*
X127455273Y-96331106D01*
X127445398Y-96443230D01*
X127444142Y-96561453D01*
X127452129Y-96660671D01*
X127461892Y-96701355D01*
X127494942Y-96752688D01*
X127554554Y-96792495D01*
X127647824Y-96822540D01*
X127781847Y-96844585D01*
X127963718Y-96860393D01*
X128137780Y-96869300D01*
X128368143Y-96882270D01*
X128547896Y-96901675D01*
X128686726Y-96930313D01*
X128794318Y-96970985D01*
X128880357Y-97026489D01*
X128954528Y-97099624D01*
X128960991Y-97107213D01*
X129033404Y-97218102D01*
X129078568Y-97351896D01*
X129098947Y-97519963D01*
X129097004Y-97733668D01*
X129096955Y-97734623D01*
X129086417Y-97881394D01*
X129069750Y-97987011D01*
X129042584Y-98070701D01*
X129003148Y-98147274D01*
X128910431Y-98268073D01*
X128785890Y-98363741D01*
X128624574Y-98435806D01*
X128421529Y-98485798D01*
X128171805Y-98515244D01*
X127870449Y-98525673D01*
X127778073Y-98525412D01*
X127608099Y-98523151D01*
X127453043Y-98519932D01*
X127325944Y-98516111D01*
X127239840Y-98512044D01*
X127216615Y-98510076D01*
X127126105Y-98498934D01*
X127018372Y-98485236D01*
X126997649Y-98482549D01*
X126869290Y-98465832D01*
X126869290Y-98256268D01*
X126868776Y-98167633D01*
X126873244Y-98106211D01*
X126891705Y-98068629D01*
X126933170Y-98051514D01*
X127006652Y-98051495D01*
X127121163Y-98065197D01*
X127285714Y-98089249D01*
X127307221Y-98092377D01*
X127480290Y-98112739D01*
X127673457Y-98128200D01*
X127852007Y-98136148D01*
X127896163Y-98136675D01*
X128101222Y-98127980D01*
X128254238Y-98098066D01*
X128361192Y-98042507D01*
X128428065Y-97956874D01*
X128460837Y-97836742D01*
X128466548Y-97714480D01*
X128460405Y-97580551D01*
X128441801Y-97477996D01*
X128403463Y-97402119D01*
X128338121Y-97348224D01*
X128238504Y-97311618D01*
X128097341Y-97287603D01*
X127907361Y-97271485D01*
X127768559Y-97263734D01*
X127522895Y-97246734D01*
X127329086Y-97221038D01*
X127178805Y-97183142D01*
X127063727Y-97129542D01*
X126975525Y-97056735D01*
X126905873Y-96961217D01*
X126865969Y-96883921D01*
X126838843Y-96792372D01*
X126819817Y-96664173D01*
X126809456Y-96517587D01*
X126808327Y-96370875D01*
X126816996Y-96242296D01*
X126836032Y-96150113D01*
X126842712Y-96134432D01*
X126935204Y-96000387D01*
X127063916Y-95892241D01*
X127232327Y-95809013D01*
X127443914Y-95749718D01*
X127702155Y-95713373D01*
X128010530Y-95698995D01*
X128361107Y-95705117D01*
G37*
X128361107Y-95705117D02*
X128532753Y-95713067D01*
X128684764Y-95721610D01*
X128806235Y-95730012D01*
X128886256Y-95737542D01*
X128912296Y-95742092D01*
X128937389Y-95776440D01*
X128950516Y-95859509D01*
X128953238Y-95954777D01*
X128953238Y-96151750D01*
X128809777Y-96133019D01*
X128466189Y-96093607D01*
X128177656Y-96072650D01*
X127941650Y-96070372D01*
X127755640Y-96086992D01*
X127617097Y-96122734D01*
X127523489Y-96177819D01*
X127473141Y-96250181D01*
X127455273Y-96331106D01*
X127445398Y-96443230D01*
X127444142Y-96561453D01*
X127452129Y-96660671D01*
X127461892Y-96701355D01*
X127494942Y-96752688D01*
X127554554Y-96792495D01*
X127647824Y-96822540D01*
X127781847Y-96844585D01*
X127963718Y-96860393D01*
X128137780Y-96869300D01*
X128368143Y-96882270D01*
X128547896Y-96901675D01*
X128686726Y-96930313D01*
X128794318Y-96970985D01*
X128880357Y-97026489D01*
X128954528Y-97099624D01*
X128960991Y-97107213D01*
X129033404Y-97218102D01*
X129078568Y-97351896D01*
X129098947Y-97519963D01*
X129097004Y-97733668D01*
X129096955Y-97734623D01*
X129086417Y-97881394D01*
X129069750Y-97987011D01*
X129042584Y-98070701D01*
X129003148Y-98147274D01*
X128910431Y-98268073D01*
X128785890Y-98363741D01*
X128624574Y-98435806D01*
X128421529Y-98485798D01*
X128171805Y-98515244D01*
X127870449Y-98525673D01*
X127778073Y-98525412D01*
X127608099Y-98523151D01*
X127453043Y-98519932D01*
X127325944Y-98516111D01*
X127239840Y-98512044D01*
X127216615Y-98510076D01*
X127126105Y-98498934D01*
X127018372Y-98485236D01*
X126997649Y-98482549D01*
X126869290Y-98465832D01*
X126869290Y-98256268D01*
X126868776Y-98167633D01*
X126873244Y-98106211D01*
X126891705Y-98068629D01*
X126933170Y-98051514D01*
X127006652Y-98051495D01*
X127121163Y-98065197D01*
X127285714Y-98089249D01*
X127307221Y-98092377D01*
X127480290Y-98112739D01*
X127673457Y-98128200D01*
X127852007Y-98136148D01*
X127896163Y-98136675D01*
X128101222Y-98127980D01*
X128254238Y-98098066D01*
X128361192Y-98042507D01*
X128428065Y-97956874D01*
X128460837Y-97836742D01*
X128466548Y-97714480D01*
X128460405Y-97580551D01*
X128441801Y-97477996D01*
X128403463Y-97402119D01*
X128338121Y-97348224D01*
X128238504Y-97311618D01*
X128097341Y-97287603D01*
X127907361Y-97271485D01*
X127768559Y-97263734D01*
X127522895Y-97246734D01*
X127329086Y-97221038D01*
X127178805Y-97183142D01*
X127063727Y-97129542D01*
X126975525Y-97056735D01*
X126905873Y-96961217D01*
X126865969Y-96883921D01*
X126838843Y-96792372D01*
X126819817Y-96664173D01*
X126809456Y-96517587D01*
X126808327Y-96370875D01*
X126816996Y-96242296D01*
X126836032Y-96150113D01*
X126842712Y-96134432D01*
X126935204Y-96000387D01*
X127063916Y-95892241D01*
X127232327Y-95809013D01*
X127443914Y-95749718D01*
X127702155Y-95713373D01*
X128010530Y-95698995D01*
X128361107Y-95705117D01*
G36*
X125358250Y-95714708D02*
G01*
X125592491Y-95742098D01*
X125781411Y-95790799D01*
X125931438Y-95863334D01*
X126048997Y-95962228D01*
X126140515Y-96090004D01*
X126164115Y-96134878D01*
X126196878Y-96204122D01*
X126220055Y-96264902D01*
X126235304Y-96329601D01*
X126244280Y-96410604D01*
X126248639Y-96520297D01*
X126250038Y-96671063D01*
X126250146Y-96778213D01*
X126250146Y-97246346D01*
X125351632Y-97254346D01*
X124453119Y-97262346D01*
X124453782Y-97495964D01*
X124465873Y-97691585D01*
X124503484Y-97839482D01*
X124570518Y-97948336D01*
X124670875Y-98026826D01*
X124698985Y-98041450D01*
X124884592Y-98101939D01*
X125115151Y-98126549D01*
X125386865Y-98115067D01*
X125570598Y-98090348D01*
X125720436Y-98066583D01*
X125864944Y-98045367D01*
X125983240Y-98029691D01*
X126032629Y-98024217D01*
X126177538Y-98010476D01*
X126159540Y-98424230D01*
X125872619Y-98474194D01*
X125696761Y-98497530D01*
X125488552Y-98513661D01*
X125263690Y-98522463D01*
X125037870Y-98523809D01*
X124826788Y-98517573D01*
X124646140Y-98503630D01*
X124525264Y-98484985D01*
X124310942Y-98421814D01*
X124139885Y-98332025D01*
X123998078Y-98208171D01*
X123992251Y-98201779D01*
X123941557Y-98142327D01*
X123901532Y-98083709D01*
X123871035Y-98018222D01*
X123848930Y-97938165D01*
X123834077Y-97835835D01*
X123825337Y-97703530D01*
X123821573Y-97533549D01*
X123821644Y-97318189D01*
X123824222Y-97065134D01*
X123826979Y-96868820D01*
X124445914Y-96868820D01*
X125638391Y-96868820D01*
X125625578Y-96600830D01*
X125610342Y-96426684D01*
X125580534Y-96301231D01*
X125531011Y-96213499D01*
X125456628Y-96152519D01*
X125403107Y-96126345D01*
X125307290Y-96102195D01*
X125173250Y-96088106D01*
X125021712Y-96084123D01*
X124873401Y-96090296D01*
X124749041Y-96106670D01*
X124686215Y-96124699D01*
X124594052Y-96171767D01*
X124531408Y-96229079D01*
X124492043Y-96309203D01*
X124469717Y-96424710D01*
X124458388Y-96583611D01*
X124445914Y-96868820D01*
X123826979Y-96868820D01*
X123827631Y-96822437D01*
X123831494Y-96632384D01*
X123836387Y-96487214D01*
X123842885Y-96379166D01*
X123851564Y-96300479D01*
X123862999Y-96243393D01*
X123877765Y-96200147D01*
X123890276Y-96174171D01*
X123985206Y-96028066D01*
X124101410Y-95912877D01*
X124245576Y-95825955D01*
X124424389Y-95764653D01*
X124644536Y-95726322D01*
X124912703Y-95708316D01*
X125072263Y-95706105D01*
X125358250Y-95714708D01*
G37*
X125358250Y-95714708D02*
X125592491Y-95742098D01*
X125781411Y-95790799D01*
X125931438Y-95863334D01*
X126048997Y-95962228D01*
X126140515Y-96090004D01*
X126164115Y-96134878D01*
X126196878Y-96204122D01*
X126220055Y-96264902D01*
X126235304Y-96329601D01*
X126244280Y-96410604D01*
X126248639Y-96520297D01*
X126250038Y-96671063D01*
X126250146Y-96778213D01*
X126250146Y-97246346D01*
X125351632Y-97254346D01*
X124453119Y-97262346D01*
X124453782Y-97495964D01*
X124465873Y-97691585D01*
X124503484Y-97839482D01*
X124570518Y-97948336D01*
X124670875Y-98026826D01*
X124698985Y-98041450D01*
X124884592Y-98101939D01*
X125115151Y-98126549D01*
X125386865Y-98115067D01*
X125570598Y-98090348D01*
X125720436Y-98066583D01*
X125864944Y-98045367D01*
X125983240Y-98029691D01*
X126032629Y-98024217D01*
X126177538Y-98010476D01*
X126159540Y-98424230D01*
X125872619Y-98474194D01*
X125696761Y-98497530D01*
X125488552Y-98513661D01*
X125263690Y-98522463D01*
X125037870Y-98523809D01*
X124826788Y-98517573D01*
X124646140Y-98503630D01*
X124525264Y-98484985D01*
X124310942Y-98421814D01*
X124139885Y-98332025D01*
X123998078Y-98208171D01*
X123992251Y-98201779D01*
X123941557Y-98142327D01*
X123901532Y-98083709D01*
X123871035Y-98018222D01*
X123848930Y-97938165D01*
X123834077Y-97835835D01*
X123825337Y-97703530D01*
X123821573Y-97533549D01*
X123821644Y-97318189D01*
X123824222Y-97065134D01*
X123826979Y-96868820D01*
X124445914Y-96868820D01*
X125638391Y-96868820D01*
X125625578Y-96600830D01*
X125610342Y-96426684D01*
X125580534Y-96301231D01*
X125531011Y-96213499D01*
X125456628Y-96152519D01*
X125403107Y-96126345D01*
X125307290Y-96102195D01*
X125173250Y-96088106D01*
X125021712Y-96084123D01*
X124873401Y-96090296D01*
X124749041Y-96106670D01*
X124686215Y-96124699D01*
X124594052Y-96171767D01*
X124531408Y-96229079D01*
X124492043Y-96309203D01*
X124469717Y-96424710D01*
X124458388Y-96583611D01*
X124445914Y-96868820D01*
X123826979Y-96868820D01*
X123827631Y-96822437D01*
X123831494Y-96632384D01*
X123836387Y-96487214D01*
X123842885Y-96379166D01*
X123851564Y-96300479D01*
X123862999Y-96243393D01*
X123877765Y-96200147D01*
X123890276Y-96174171D01*
X123985206Y-96028066D01*
X124101410Y-95912877D01*
X124245576Y-95825955D01*
X124424389Y-95764653D01*
X124644536Y-95726322D01*
X124912703Y-95708316D01*
X125072263Y-95706105D01*
X125358250Y-95714708D01*
G36*
X113535045Y-95699736D02*
G01*
X113814533Y-95712122D01*
X114041129Y-95734462D01*
X114221960Y-95769870D01*
X114364149Y-95821459D01*
X114474822Y-95892342D01*
X114561103Y-95985633D01*
X114630116Y-96104445D01*
X114668379Y-96194963D01*
X114692726Y-96265712D01*
X114711123Y-96339729D01*
X114724766Y-96427890D01*
X114734849Y-96541072D01*
X114742569Y-96690150D01*
X114749120Y-96886001D01*
X114750736Y-96944325D01*
X114755379Y-97257735D01*
X114750366Y-97518255D01*
X114734951Y-97732740D01*
X114708390Y-97908043D01*
X114669938Y-98051020D01*
X114618849Y-98168523D01*
X114617349Y-98171294D01*
X114549387Y-98274713D01*
X114465658Y-98357252D01*
X114359394Y-98420914D01*
X114223827Y-98467704D01*
X114052189Y-98499624D01*
X113837715Y-98518679D01*
X113573635Y-98526871D01*
X113414236Y-98527503D01*
X113152450Y-98523931D01*
X112947629Y-98514731D01*
X112796582Y-98499703D01*
X112711437Y-98483112D01*
X112512784Y-98415081D01*
X112364912Y-98328319D01*
X112259299Y-98215575D01*
X112187424Y-98069598D01*
X112173154Y-98025108D01*
X112158568Y-97964150D01*
X112147631Y-97888647D01*
X112140038Y-97790714D01*
X112135485Y-97662465D01*
X112133667Y-97496017D01*
X112134281Y-97283484D01*
X112135880Y-97120327D01*
X112766148Y-97120327D01*
X112766206Y-97152312D01*
X112767863Y-97407664D01*
X112772808Y-97609782D01*
X112782948Y-97765820D01*
X112800187Y-97882931D01*
X112826431Y-97968270D01*
X112863585Y-98028991D01*
X112913554Y-98072246D01*
X112978245Y-98105192D01*
X113024720Y-98122916D01*
X113123828Y-98144621D01*
X113263324Y-98158040D01*
X113423746Y-98163068D01*
X113585633Y-98159596D01*
X113729526Y-98147518D01*
X113833857Y-98127371D01*
X113928063Y-98082194D01*
X114006332Y-98017461D01*
X114015070Y-98006689D01*
X114034498Y-97978059D01*
X114049513Y-97945503D01*
X114060680Y-97901347D01*
X114068568Y-97837918D01*
X114073743Y-97747543D01*
X114076773Y-97622548D01*
X114078224Y-97455262D01*
X114078663Y-97238010D01*
X114078683Y-97145995D01*
X114077982Y-96882716D01*
X114075080Y-96672994D01*
X114068788Y-96509992D01*
X114057911Y-96386871D01*
X114041256Y-96296792D01*
X114017632Y-96232918D01*
X113985845Y-96188411D01*
X113944703Y-96156431D01*
X113902235Y-96134336D01*
X113779258Y-96096480D01*
X113615536Y-96073046D01*
X113429303Y-96065415D01*
X113238795Y-96074968D01*
X113190655Y-96080457D01*
X113074701Y-96099618D01*
X112981746Y-96128224D01*
X112909302Y-96172554D01*
X112854883Y-96238886D01*
X112816003Y-96333499D01*
X112790176Y-96462671D01*
X112774915Y-96632681D01*
X112767735Y-96849807D01*
X112766148Y-97120327D01*
X112135880Y-97120327D01*
X112136360Y-97071478D01*
X112145746Y-96275353D01*
X112237294Y-96096473D01*
X112314630Y-95975107D01*
X112413234Y-95878249D01*
X112539093Y-95804068D01*
X112698193Y-95750734D01*
X112896517Y-95716418D01*
X113140053Y-95699290D01*
X113434785Y-95697520D01*
X113535045Y-95699736D01*
G37*
X113535045Y-95699736D02*
X113814533Y-95712122D01*
X114041129Y-95734462D01*
X114221960Y-95769870D01*
X114364149Y-95821459D01*
X114474822Y-95892342D01*
X114561103Y-95985633D01*
X114630116Y-96104445D01*
X114668379Y-96194963D01*
X114692726Y-96265712D01*
X114711123Y-96339729D01*
X114724766Y-96427890D01*
X114734849Y-96541072D01*
X114742569Y-96690150D01*
X114749120Y-96886001D01*
X114750736Y-96944325D01*
X114755379Y-97257735D01*
X114750366Y-97518255D01*
X114734951Y-97732740D01*
X114708390Y-97908043D01*
X114669938Y-98051020D01*
X114618849Y-98168523D01*
X114617349Y-98171294D01*
X114549387Y-98274713D01*
X114465658Y-98357252D01*
X114359394Y-98420914D01*
X114223827Y-98467704D01*
X114052189Y-98499624D01*
X113837715Y-98518679D01*
X113573635Y-98526871D01*
X113414236Y-98527503D01*
X113152450Y-98523931D01*
X112947629Y-98514731D01*
X112796582Y-98499703D01*
X112711437Y-98483112D01*
X112512784Y-98415081D01*
X112364912Y-98328319D01*
X112259299Y-98215575D01*
X112187424Y-98069598D01*
X112173154Y-98025108D01*
X112158568Y-97964150D01*
X112147631Y-97888647D01*
X112140038Y-97790714D01*
X112135485Y-97662465D01*
X112133667Y-97496017D01*
X112134281Y-97283484D01*
X112135880Y-97120327D01*
X112766148Y-97120327D01*
X112766206Y-97152312D01*
X112767863Y-97407664D01*
X112772808Y-97609782D01*
X112782948Y-97765820D01*
X112800187Y-97882931D01*
X112826431Y-97968270D01*
X112863585Y-98028991D01*
X112913554Y-98072246D01*
X112978245Y-98105192D01*
X113024720Y-98122916D01*
X113123828Y-98144621D01*
X113263324Y-98158040D01*
X113423746Y-98163068D01*
X113585633Y-98159596D01*
X113729526Y-98147518D01*
X113833857Y-98127371D01*
X113928063Y-98082194D01*
X114006332Y-98017461D01*
X114015070Y-98006689D01*
X114034498Y-97978059D01*
X114049513Y-97945503D01*
X114060680Y-97901347D01*
X114068568Y-97837918D01*
X114073743Y-97747543D01*
X114076773Y-97622548D01*
X114078224Y-97455262D01*
X114078663Y-97238010D01*
X114078683Y-97145995D01*
X114077982Y-96882716D01*
X114075080Y-96672994D01*
X114068788Y-96509992D01*
X114057911Y-96386871D01*
X114041256Y-96296792D01*
X114017632Y-96232918D01*
X113985845Y-96188411D01*
X113944703Y-96156431D01*
X113902235Y-96134336D01*
X113779258Y-96096480D01*
X113615536Y-96073046D01*
X113429303Y-96065415D01*
X113238795Y-96074968D01*
X113190655Y-96080457D01*
X113074701Y-96099618D01*
X112981746Y-96128224D01*
X112909302Y-96172554D01*
X112854883Y-96238886D01*
X112816003Y-96333499D01*
X112790176Y-96462671D01*
X112774915Y-96632681D01*
X112767735Y-96849807D01*
X112766148Y-97120327D01*
X112135880Y-97120327D01*
X112136360Y-97071478D01*
X112145746Y-96275353D01*
X112237294Y-96096473D01*
X112314630Y-95975107D01*
X112413234Y-95878249D01*
X112539093Y-95804068D01*
X112698193Y-95750734D01*
X112896517Y-95716418D01*
X113140053Y-95699290D01*
X113434785Y-95697520D01*
X113535045Y-95699736D01*
G36*
X108279873Y-95699736D02*
G01*
X108559360Y-95712122D01*
X108785957Y-95734462D01*
X108966788Y-95769870D01*
X109108977Y-95821459D01*
X109219649Y-95892342D01*
X109305930Y-95985633D01*
X109374944Y-96104445D01*
X109413207Y-96194963D01*
X109437554Y-96265712D01*
X109455951Y-96339729D01*
X109469593Y-96427890D01*
X109479677Y-96541072D01*
X109487396Y-96690150D01*
X109493947Y-96886001D01*
X109495564Y-96944325D01*
X109500206Y-97257735D01*
X109495193Y-97518255D01*
X109479779Y-97732740D01*
X109453218Y-97908043D01*
X109414765Y-98051020D01*
X109363676Y-98168523D01*
X109362176Y-98171294D01*
X109294215Y-98274713D01*
X109210485Y-98357252D01*
X109104221Y-98420914D01*
X108968654Y-98467704D01*
X108797017Y-98499624D01*
X108582542Y-98518679D01*
X108318462Y-98526871D01*
X108159064Y-98527503D01*
X107897277Y-98523931D01*
X107692457Y-98514731D01*
X107541409Y-98499703D01*
X107456265Y-98483112D01*
X107257611Y-98415081D01*
X107109739Y-98328319D01*
X107004127Y-98215575D01*
X106932252Y-98069598D01*
X106917981Y-98025108D01*
X106903396Y-97964150D01*
X106892458Y-97888647D01*
X106884865Y-97790714D01*
X106880312Y-97662465D01*
X106878495Y-97496017D01*
X106879109Y-97283484D01*
X106880708Y-97120327D01*
X107510976Y-97120327D01*
X107511033Y-97152312D01*
X107512690Y-97407664D01*
X107517636Y-97609782D01*
X107527775Y-97765820D01*
X107545014Y-97882931D01*
X107571258Y-97968270D01*
X107608412Y-98028991D01*
X107658382Y-98072246D01*
X107723073Y-98105192D01*
X107769548Y-98122916D01*
X107868656Y-98144621D01*
X108008151Y-98158040D01*
X108168573Y-98163068D01*
X108330461Y-98159596D01*
X108474354Y-98147518D01*
X108578685Y-98127371D01*
X108672891Y-98082194D01*
X108751160Y-98017461D01*
X108759898Y-98006689D01*
X108779326Y-97978059D01*
X108794340Y-97945503D01*
X108805508Y-97901347D01*
X108813396Y-97837918D01*
X108818571Y-97747543D01*
X108821600Y-97622548D01*
X108823051Y-97455262D01*
X108823491Y-97238010D01*
X108823511Y-97145995D01*
X108822809Y-96882716D01*
X108819908Y-96672994D01*
X108813615Y-96509992D01*
X108802738Y-96386871D01*
X108786084Y-96296792D01*
X108762460Y-96232918D01*
X108730673Y-96188411D01*
X108689531Y-96156431D01*
X108647062Y-96134336D01*
X108524085Y-96096480D01*
X108360363Y-96073046D01*
X108174131Y-96065415D01*
X107983622Y-96074968D01*
X107935483Y-96080457D01*
X107819529Y-96099618D01*
X107726573Y-96128224D01*
X107654129Y-96172554D01*
X107599710Y-96238886D01*
X107560831Y-96333499D01*
X107535004Y-96462671D01*
X107519743Y-96632681D01*
X107512563Y-96849807D01*
X107510976Y-97120327D01*
X106880708Y-97120327D01*
X106881188Y-97071478D01*
X106890574Y-96275353D01*
X106982122Y-96096473D01*
X107059457Y-95975107D01*
X107158062Y-95878249D01*
X107283921Y-95804068D01*
X107443020Y-95750734D01*
X107641345Y-95716418D01*
X107884881Y-95699290D01*
X108179613Y-95697520D01*
X108279873Y-95699736D01*
G37*
X108279873Y-95699736D02*
X108559360Y-95712122D01*
X108785957Y-95734462D01*
X108966788Y-95769870D01*
X109108977Y-95821459D01*
X109219649Y-95892342D01*
X109305930Y-95985633D01*
X109374944Y-96104445D01*
X109413207Y-96194963D01*
X109437554Y-96265712D01*
X109455951Y-96339729D01*
X109469593Y-96427890D01*
X109479677Y-96541072D01*
X109487396Y-96690150D01*
X109493947Y-96886001D01*
X109495564Y-96944325D01*
X109500206Y-97257735D01*
X109495193Y-97518255D01*
X109479779Y-97732740D01*
X109453218Y-97908043D01*
X109414765Y-98051020D01*
X109363676Y-98168523D01*
X109362176Y-98171294D01*
X109294215Y-98274713D01*
X109210485Y-98357252D01*
X109104221Y-98420914D01*
X108968654Y-98467704D01*
X108797017Y-98499624D01*
X108582542Y-98518679D01*
X108318462Y-98526871D01*
X108159064Y-98527503D01*
X107897277Y-98523931D01*
X107692457Y-98514731D01*
X107541409Y-98499703D01*
X107456265Y-98483112D01*
X107257611Y-98415081D01*
X107109739Y-98328319D01*
X107004127Y-98215575D01*
X106932252Y-98069598D01*
X106917981Y-98025108D01*
X106903396Y-97964150D01*
X106892458Y-97888647D01*
X106884865Y-97790714D01*
X106880312Y-97662465D01*
X106878495Y-97496017D01*
X106879109Y-97283484D01*
X106880708Y-97120327D01*
X107510976Y-97120327D01*
X107511033Y-97152312D01*
X107512690Y-97407664D01*
X107517636Y-97609782D01*
X107527775Y-97765820D01*
X107545014Y-97882931D01*
X107571258Y-97968270D01*
X107608412Y-98028991D01*
X107658382Y-98072246D01*
X107723073Y-98105192D01*
X107769548Y-98122916D01*
X107868656Y-98144621D01*
X108008151Y-98158040D01*
X108168573Y-98163068D01*
X108330461Y-98159596D01*
X108474354Y-98147518D01*
X108578685Y-98127371D01*
X108672891Y-98082194D01*
X108751160Y-98017461D01*
X108759898Y-98006689D01*
X108779326Y-97978059D01*
X108794340Y-97945503D01*
X108805508Y-97901347D01*
X108813396Y-97837918D01*
X108818571Y-97747543D01*
X108821600Y-97622548D01*
X108823051Y-97455262D01*
X108823491Y-97238010D01*
X108823511Y-97145995D01*
X108822809Y-96882716D01*
X108819908Y-96672994D01*
X108813615Y-96509992D01*
X108802738Y-96386871D01*
X108786084Y-96296792D01*
X108762460Y-96232918D01*
X108730673Y-96188411D01*
X108689531Y-96156431D01*
X108647062Y-96134336D01*
X108524085Y-96096480D01*
X108360363Y-96073046D01*
X108174131Y-96065415D01*
X107983622Y-96074968D01*
X107935483Y-96080457D01*
X107819529Y-96099618D01*
X107726573Y-96128224D01*
X107654129Y-96172554D01*
X107599710Y-96238886D01*
X107560831Y-96333499D01*
X107535004Y-96462671D01*
X107519743Y-96632681D01*
X107512563Y-96849807D01*
X107510976Y-97120327D01*
X106880708Y-97120327D01*
X106881188Y-97071478D01*
X106890574Y-96275353D01*
X106982122Y-96096473D01*
X107059457Y-95975107D01*
X107158062Y-95878249D01*
X107283921Y-95804068D01*
X107443020Y-95750734D01*
X107641345Y-95716418D01*
X107884881Y-95699290D01*
X108179613Y-95697520D01*
X108279873Y-95699736D01*
G36*
X132487699Y-95715819D02*
G01*
X132652995Y-95733758D01*
X132773808Y-95760506D01*
X132867047Y-95785575D01*
X132923830Y-95788641D01*
X132934886Y-95780926D01*
X132967779Y-95768264D01*
X133049239Y-95758451D01*
X133167455Y-95752560D01*
X133261008Y-95751341D01*
X133577062Y-95751341D01*
X133567232Y-97389807D01*
X133564925Y-97750126D01*
X133562560Y-98055147D01*
X133559954Y-98309976D01*
X133556929Y-98519719D01*
X133553301Y-98689481D01*
X133548892Y-98824369D01*
X133543518Y-98929488D01*
X133537000Y-99009945D01*
X133529157Y-99070846D01*
X133519807Y-99117296D01*
X133508770Y-99154401D01*
X133504254Y-99166702D01*
X133411424Y-99333382D01*
X133272203Y-99467970D01*
X133084551Y-99571724D01*
X132846425Y-99645902D01*
X132676330Y-99677047D01*
X132564417Y-99687908D01*
X132409736Y-99695882D01*
X132229864Y-99700783D01*
X132042375Y-99702427D01*
X131864846Y-99700630D01*
X131714852Y-99695205D01*
X131626127Y-99688087D01*
X131541783Y-99678440D01*
X131431085Y-99666141D01*
X131376959Y-99660237D01*
X131218398Y-99643070D01*
X131218398Y-99247007D01*
X131527970Y-99273550D01*
X131690965Y-99284580D01*
X131886216Y-99293368D01*
X132085582Y-99298829D01*
X132215069Y-99300090D01*
X132412575Y-99296323D01*
X132560603Y-99282746D01*
X132669740Y-99255936D01*
X132750575Y-99212473D01*
X132813695Y-99148936D01*
X132850536Y-99094761D01*
X132879708Y-99034733D01*
X132897727Y-98960942D01*
X132906917Y-98858058D01*
X132909601Y-98710749D01*
X132909605Y-98704939D01*
X132909718Y-98411808D01*
X132781359Y-98460165D01*
X132667413Y-98488925D01*
X132508994Y-98509779D01*
X132321553Y-98522413D01*
X132120543Y-98526513D01*
X131921416Y-98521767D01*
X131739622Y-98507861D01*
X131590615Y-98484480D01*
X131589957Y-98484334D01*
X131460746Y-98452008D01*
X131370316Y-98417287D01*
X131297573Y-98369794D01*
X131229006Y-98306769D01*
X131175535Y-98250249D01*
X131132801Y-98194180D01*
X131099702Y-98131327D01*
X131075136Y-98054456D01*
X131058001Y-97956335D01*
X131047195Y-97829730D01*
X131041617Y-97667407D01*
X131040165Y-97462133D01*
X131041736Y-97206674D01*
X131042640Y-97120061D01*
X131671430Y-97120061D01*
X131672387Y-97380510D01*
X131675875Y-97587360D01*
X131682821Y-97747396D01*
X131694151Y-97867402D01*
X131710791Y-97954163D01*
X131733668Y-98014462D01*
X131763707Y-98055086D01*
X131801836Y-98082817D01*
X131802966Y-98083439D01*
X131913914Y-98122445D01*
X132065028Y-98146671D01*
X132237895Y-98156069D01*
X132414102Y-98150594D01*
X132575235Y-98130199D01*
X132702882Y-98094838D01*
X132723214Y-98085750D01*
X132776784Y-98057303D01*
X132818922Y-98025727D01*
X132851003Y-97983861D01*
X132874400Y-97924542D01*
X132890491Y-97840607D01*
X132900648Y-97724893D01*
X132906248Y-97570239D01*
X132908664Y-97369480D01*
X132909273Y-97116488D01*
X132908820Y-96859280D01*
X132906237Y-96655489D01*
X132900186Y-96498132D01*
X132889329Y-96380226D01*
X132872330Y-96294788D01*
X132847851Y-96234836D01*
X132814554Y-96193386D01*
X132771103Y-96163458D01*
X132722379Y-96140672D01*
X132634594Y-96118870D01*
X132504635Y-96104731D01*
X132350240Y-96098237D01*
X132189148Y-96099369D01*
X132039099Y-96108106D01*
X131917830Y-96124429D01*
X131856479Y-96141621D01*
X131803380Y-96167847D01*
X131761480Y-96201282D01*
X131729465Y-96248864D01*
X131706024Y-96317533D01*
X131689844Y-96414229D01*
X131679612Y-96545889D01*
X131674017Y-96719454D01*
X131671746Y-96941863D01*
X131671430Y-97120061D01*
X131042640Y-97120061D01*
X131043000Y-97085661D01*
X131045964Y-96837944D01*
X131049116Y-96642947D01*
X131053067Y-96492987D01*
X131058428Y-96380381D01*
X131065807Y-96297445D01*
X131075817Y-96236499D01*
X131089066Y-96189857D01*
X131106165Y-96149838D01*
X131119365Y-96124238D01*
X131239246Y-95962924D01*
X131405129Y-95839695D01*
X131591487Y-95762879D01*
X131724778Y-95735344D01*
X131897619Y-95716837D01*
X132093436Y-95707392D01*
X132295654Y-95707041D01*
X132487699Y-95715819D01*
G37*
X132487699Y-95715819D02*
X132652995Y-95733758D01*
X132773808Y-95760506D01*
X132867047Y-95785575D01*
X132923830Y-95788641D01*
X132934886Y-95780926D01*
X132967779Y-95768264D01*
X133049239Y-95758451D01*
X133167455Y-95752560D01*
X133261008Y-95751341D01*
X133577062Y-95751341D01*
X133567232Y-97389807D01*
X133564925Y-97750126D01*
X133562560Y-98055147D01*
X133559954Y-98309976D01*
X133556929Y-98519719D01*
X133553301Y-98689481D01*
X133548892Y-98824369D01*
X133543518Y-98929488D01*
X133537000Y-99009945D01*
X133529157Y-99070846D01*
X133519807Y-99117296D01*
X133508770Y-99154401D01*
X133504254Y-99166702D01*
X133411424Y-99333382D01*
X133272203Y-99467970D01*
X133084551Y-99571724D01*
X132846425Y-99645902D01*
X132676330Y-99677047D01*
X132564417Y-99687908D01*
X132409736Y-99695882D01*
X132229864Y-99700783D01*
X132042375Y-99702427D01*
X131864846Y-99700630D01*
X131714852Y-99695205D01*
X131626127Y-99688087D01*
X131541783Y-99678440D01*
X131431085Y-99666141D01*
X131376959Y-99660237D01*
X131218398Y-99643070D01*
X131218398Y-99247007D01*
X131527970Y-99273550D01*
X131690965Y-99284580D01*
X131886216Y-99293368D01*
X132085582Y-99298829D01*
X132215069Y-99300090D01*
X132412575Y-99296323D01*
X132560603Y-99282746D01*
X132669740Y-99255936D01*
X132750575Y-99212473D01*
X132813695Y-99148936D01*
X132850536Y-99094761D01*
X132879708Y-99034733D01*
X132897727Y-98960942D01*
X132906917Y-98858058D01*
X132909601Y-98710749D01*
X132909605Y-98704939D01*
X132909718Y-98411808D01*
X132781359Y-98460165D01*
X132667413Y-98488925D01*
X132508994Y-98509779D01*
X132321553Y-98522413D01*
X132120543Y-98526513D01*
X131921416Y-98521767D01*
X131739622Y-98507861D01*
X131590615Y-98484480D01*
X131589957Y-98484334D01*
X131460746Y-98452008D01*
X131370316Y-98417287D01*
X131297573Y-98369794D01*
X131229006Y-98306769D01*
X131175535Y-98250249D01*
X131132801Y-98194180D01*
X131099702Y-98131327D01*
X131075136Y-98054456D01*
X131058001Y-97956335D01*
X131047195Y-97829730D01*
X131041617Y-97667407D01*
X131040165Y-97462133D01*
X131041736Y-97206674D01*
X131042640Y-97120061D01*
X131671430Y-97120061D01*
X131672387Y-97380510D01*
X131675875Y-97587360D01*
X131682821Y-97747396D01*
X131694151Y-97867402D01*
X131710791Y-97954163D01*
X131733668Y-98014462D01*
X131763707Y-98055086D01*
X131801836Y-98082817D01*
X131802966Y-98083439D01*
X131913914Y-98122445D01*
X132065028Y-98146671D01*
X132237895Y-98156069D01*
X132414102Y-98150594D01*
X132575235Y-98130199D01*
X132702882Y-98094838D01*
X132723214Y-98085750D01*
X132776784Y-98057303D01*
X132818922Y-98025727D01*
X132851003Y-97983861D01*
X132874400Y-97924542D01*
X132890491Y-97840607D01*
X132900648Y-97724893D01*
X132906248Y-97570239D01*
X132908664Y-97369480D01*
X132909273Y-97116488D01*
X132908820Y-96859280D01*
X132906237Y-96655489D01*
X132900186Y-96498132D01*
X132889329Y-96380226D01*
X132872330Y-96294788D01*
X132847851Y-96234836D01*
X132814554Y-96193386D01*
X132771103Y-96163458D01*
X132722379Y-96140672D01*
X132634594Y-96118870D01*
X132504635Y-96104731D01*
X132350240Y-96098237D01*
X132189148Y-96099369D01*
X132039099Y-96108106D01*
X131917830Y-96124429D01*
X131856479Y-96141621D01*
X131803380Y-96167847D01*
X131761480Y-96201282D01*
X131729465Y-96248864D01*
X131706024Y-96317533D01*
X131689844Y-96414229D01*
X131679612Y-96545889D01*
X131674017Y-96719454D01*
X131671746Y-96941863D01*
X131671430Y-97120061D01*
X131042640Y-97120061D01*
X131043000Y-97085661D01*
X131045964Y-96837944D01*
X131049116Y-96642947D01*
X131053067Y-96492987D01*
X131058428Y-96380381D01*
X131065807Y-96297445D01*
X131075817Y-96236499D01*
X131089066Y-96189857D01*
X131106165Y-96149838D01*
X131119365Y-96124238D01*
X131239246Y-95962924D01*
X131405129Y-95839695D01*
X131591487Y-95762879D01*
X131724778Y-95735344D01*
X131897619Y-95716837D01*
X132093436Y-95707392D01*
X132295654Y-95707041D01*
X132487699Y-95715819D01*
D13*
X189168095Y-86016380D02*
X189168095Y-86825904D01*
X189215714Y-86921142D01*
X189263333Y-86968761D01*
X189358571Y-87016380D01*
X189549047Y-87016380D01*
X189644285Y-86968761D01*
X189691904Y-86921142D01*
X189739523Y-86825904D01*
X189739523Y-86016380D01*
X190120476Y-86016380D02*
X190739523Y-86016380D01*
X190406190Y-86397333D01*
X190549047Y-86397333D01*
X190644285Y-86444952D01*
X190691904Y-86492571D01*
X190739523Y-86587809D01*
X190739523Y-86825904D01*
X190691904Y-86921142D01*
X190644285Y-86968761D01*
X190549047Y-87016380D01*
X190263333Y-87016380D01*
X190168095Y-86968761D01*
X190120476Y-86921142D01*
X191414380Y-81000904D02*
X192223904Y-81000904D01*
X192319142Y-80953285D01*
X192366761Y-80905666D01*
X192414380Y-80810428D01*
X192414380Y-80619952D01*
X192366761Y-80524714D01*
X192319142Y-80477095D01*
X192223904Y-80429476D01*
X191414380Y-80429476D01*
X191509619Y-80000904D02*
X191462000Y-79953285D01*
X191414380Y-79858047D01*
X191414380Y-79619952D01*
X191462000Y-79524714D01*
X191509619Y-79477095D01*
X191604857Y-79429476D01*
X191700095Y-79429476D01*
X191842952Y-79477095D01*
X192414380Y-80048523D01*
X192414380Y-79429476D01*
X172658095Y-88810380D02*
X172658095Y-89619904D01*
X172705714Y-89715142D01*
X172753333Y-89762761D01*
X172848571Y-89810380D01*
X173039047Y-89810380D01*
X173134285Y-89762761D01*
X173181904Y-89715142D01*
X173229523Y-89619904D01*
X173229523Y-88810380D01*
X174229523Y-89810380D02*
X173658095Y-89810380D01*
X173943809Y-89810380D02*
X173943809Y-88810380D01*
X173848571Y-88953238D01*
X173753333Y-89048476D01*
X173658095Y-89096095D01*
X141860666Y-95477761D02*
X142003523Y-95525380D01*
X142241619Y-95525380D01*
X142336857Y-95477761D01*
X142384476Y-95430142D01*
X142432095Y-95334904D01*
X142432095Y-95239666D01*
X142384476Y-95144428D01*
X142336857Y-95096809D01*
X142241619Y-95049190D01*
X142051142Y-95001571D01*
X141955904Y-94953952D01*
X141908285Y-94906333D01*
X141860666Y-94811095D01*
X141860666Y-94715857D01*
X141908285Y-94620619D01*
X141955904Y-94573000D01*
X142051142Y-94525380D01*
X142289238Y-94525380D01*
X142432095Y-94573000D01*
X142765428Y-94525380D02*
X143003523Y-95525380D01*
X143194000Y-94811095D01*
X143384476Y-95525380D01*
X143622571Y-94525380D01*
X143955904Y-94620619D02*
X144003523Y-94573000D01*
X144098761Y-94525380D01*
X144336857Y-94525380D01*
X144432095Y-94573000D01*
X144479714Y-94620619D01*
X144527333Y-94715857D01*
X144527333Y-94811095D01*
X144479714Y-94953952D01*
X143908285Y-95525380D01*
X144527333Y-95525380D01*
X106483142Y-84730380D02*
X106149809Y-84254190D01*
X105911714Y-84730380D02*
X105911714Y-83730380D01*
X106292666Y-83730380D01*
X106387904Y-83778000D01*
X106435523Y-83825619D01*
X106483142Y-83920857D01*
X106483142Y-84063714D01*
X106435523Y-84158952D01*
X106387904Y-84206571D01*
X106292666Y-84254190D01*
X105911714Y-84254190D01*
X106864095Y-83825619D02*
X106911714Y-83778000D01*
X107006952Y-83730380D01*
X107245047Y-83730380D01*
X107340285Y-83778000D01*
X107387904Y-83825619D01*
X107435523Y-83920857D01*
X107435523Y-84016095D01*
X107387904Y-84158952D01*
X106816476Y-84730380D01*
X107435523Y-84730380D01*
X107816476Y-83825619D02*
X107864095Y-83778000D01*
X107959333Y-83730380D01*
X108197428Y-83730380D01*
X108292666Y-83778000D01*
X108340285Y-83825619D01*
X108387904Y-83920857D01*
X108387904Y-84016095D01*
X108340285Y-84158952D01*
X107768857Y-84730380D01*
X108387904Y-84730380D01*
X182175142Y-82952380D02*
X181841809Y-82476190D01*
X181603714Y-82952380D02*
X181603714Y-81952380D01*
X181984666Y-81952380D01*
X182079904Y-82000000D01*
X182127523Y-82047619D01*
X182175142Y-82142857D01*
X182175142Y-82285714D01*
X182127523Y-82380952D01*
X182079904Y-82428571D01*
X181984666Y-82476190D01*
X181603714Y-82476190D01*
X182556095Y-82047619D02*
X182603714Y-82000000D01*
X182698952Y-81952380D01*
X182937047Y-81952380D01*
X183032285Y-82000000D01*
X183079904Y-82047619D01*
X183127523Y-82142857D01*
X183127523Y-82238095D01*
X183079904Y-82380952D01*
X182508476Y-82952380D01*
X183127523Y-82952380D01*
X184079904Y-82952380D02*
X183508476Y-82952380D01*
X183794190Y-82952380D02*
X183794190Y-81952380D01*
X183698952Y-82095238D01*
X183603714Y-82190476D01*
X183508476Y-82238095D01*
X110626380Y-94064857D02*
X110150190Y-94398190D01*
X110626380Y-94636285D02*
X109626380Y-94636285D01*
X109626380Y-94255333D01*
X109674000Y-94160095D01*
X109721619Y-94112476D01*
X109816857Y-94064857D01*
X109959714Y-94064857D01*
X110054952Y-94112476D01*
X110102571Y-94160095D01*
X110150190Y-94255333D01*
X110150190Y-94636285D01*
X109721619Y-93683904D02*
X109674000Y-93636285D01*
X109626380Y-93541047D01*
X109626380Y-93302952D01*
X109674000Y-93207714D01*
X109721619Y-93160095D01*
X109816857Y-93112476D01*
X109912095Y-93112476D01*
X110054952Y-93160095D01*
X110626380Y-93731523D01*
X110626380Y-93112476D01*
X109626380Y-92493428D02*
X109626380Y-92398190D01*
X109674000Y-92302952D01*
X109721619Y-92255333D01*
X109816857Y-92207714D01*
X110007333Y-92160095D01*
X110245428Y-92160095D01*
X110435904Y-92207714D01*
X110531142Y-92255333D01*
X110578761Y-92302952D01*
X110626380Y-92398190D01*
X110626380Y-92493428D01*
X110578761Y-92588666D01*
X110531142Y-92636285D01*
X110435904Y-92683904D01*
X110245428Y-92731523D01*
X110007333Y-92731523D01*
X109816857Y-92683904D01*
X109721619Y-92636285D01*
X109674000Y-92588666D01*
X109626380Y-92493428D01*
X120786380Y-94064857D02*
X120310190Y-94398190D01*
X120786380Y-94636285D02*
X119786380Y-94636285D01*
X119786380Y-94255333D01*
X119834000Y-94160095D01*
X119881619Y-94112476D01*
X119976857Y-94064857D01*
X120119714Y-94064857D01*
X120214952Y-94112476D01*
X120262571Y-94160095D01*
X120310190Y-94255333D01*
X120310190Y-94636285D01*
X120786380Y-93112476D02*
X120786380Y-93683904D01*
X120786380Y-93398190D02*
X119786380Y-93398190D01*
X119929238Y-93493428D01*
X120024476Y-93588666D01*
X120072095Y-93683904D01*
X120786380Y-92636285D02*
X120786380Y-92445809D01*
X120738761Y-92350571D01*
X120691142Y-92302952D01*
X120548285Y-92207714D01*
X120357809Y-92160095D01*
X119976857Y-92160095D01*
X119881619Y-92207714D01*
X119834000Y-92255333D01*
X119786380Y-92350571D01*
X119786380Y-92541047D01*
X119834000Y-92636285D01*
X119881619Y-92683904D01*
X119976857Y-92731523D01*
X120214952Y-92731523D01*
X120310190Y-92683904D01*
X120357809Y-92636285D01*
X120405428Y-92541047D01*
X120405428Y-92350571D01*
X120357809Y-92255333D01*
X120310190Y-92207714D01*
X120214952Y-92160095D01*
X131200380Y-94064857D02*
X130724190Y-94398190D01*
X131200380Y-94636285D02*
X130200380Y-94636285D01*
X130200380Y-94255333D01*
X130248000Y-94160095D01*
X130295619Y-94112476D01*
X130390857Y-94064857D01*
X130533714Y-94064857D01*
X130628952Y-94112476D01*
X130676571Y-94160095D01*
X130724190Y-94255333D01*
X130724190Y-94636285D01*
X131200380Y-93112476D02*
X131200380Y-93683904D01*
X131200380Y-93398190D02*
X130200380Y-93398190D01*
X130343238Y-93493428D01*
X130438476Y-93588666D01*
X130486095Y-93683904D01*
X130628952Y-92541047D02*
X130581333Y-92636285D01*
X130533714Y-92683904D01*
X130438476Y-92731523D01*
X130390857Y-92731523D01*
X130295619Y-92683904D01*
X130248000Y-92636285D01*
X130200380Y-92541047D01*
X130200380Y-92350571D01*
X130248000Y-92255333D01*
X130295619Y-92207714D01*
X130390857Y-92160095D01*
X130438476Y-92160095D01*
X130533714Y-92207714D01*
X130581333Y-92255333D01*
X130628952Y-92350571D01*
X130628952Y-92541047D01*
X130676571Y-92636285D01*
X130724190Y-92683904D01*
X130819428Y-92731523D01*
X131009904Y-92731523D01*
X131105142Y-92683904D01*
X131152761Y-92636285D01*
X131200380Y-92541047D01*
X131200380Y-92350571D01*
X131152761Y-92255333D01*
X131105142Y-92207714D01*
X131009904Y-92160095D01*
X130819428Y-92160095D01*
X130724190Y-92207714D01*
X130676571Y-92255333D01*
X130628952Y-92350571D01*
X179107142Y-92602380D02*
X178773809Y-92126190D01*
X178535714Y-92602380D02*
X178535714Y-91602380D01*
X178916666Y-91602380D01*
X179011904Y-91650000D01*
X179059523Y-91697619D01*
X179107142Y-91792857D01*
X179107142Y-91935714D01*
X179059523Y-92030952D01*
X179011904Y-92078571D01*
X178916666Y-92126190D01*
X178535714Y-92126190D01*
X180059523Y-92602380D02*
X179488095Y-92602380D01*
X179773809Y-92602380D02*
X179773809Y-91602380D01*
X179678571Y-91745238D01*
X179583333Y-91840476D01*
X179488095Y-91888095D01*
X180392857Y-91602380D02*
X181059523Y-91602380D01*
X180630952Y-92602380D01*
X187857142Y-92602380D02*
X187523809Y-92126190D01*
X187285714Y-92602380D02*
X187285714Y-91602380D01*
X187666666Y-91602380D01*
X187761904Y-91650000D01*
X187809523Y-91697619D01*
X187857142Y-91792857D01*
X187857142Y-91935714D01*
X187809523Y-92030952D01*
X187761904Y-92078571D01*
X187666666Y-92126190D01*
X187285714Y-92126190D01*
X188809523Y-92602380D02*
X188238095Y-92602380D01*
X188523809Y-92602380D02*
X188523809Y-91602380D01*
X188428571Y-91745238D01*
X188333333Y-91840476D01*
X188238095Y-91888095D01*
X189666666Y-91602380D02*
X189476190Y-91602380D01*
X189380952Y-91650000D01*
X189333333Y-91697619D01*
X189238095Y-91840476D01*
X189190476Y-92030952D01*
X189190476Y-92411904D01*
X189238095Y-92507142D01*
X189285714Y-92554761D01*
X189380952Y-92602380D01*
X189571428Y-92602380D01*
X189666666Y-92554761D01*
X189714285Y-92507142D01*
X189761904Y-92411904D01*
X189761904Y-92173809D01*
X189714285Y-92078571D01*
X189666666Y-92030952D01*
X189571428Y-91983333D01*
X189380952Y-91983333D01*
X189285714Y-92030952D01*
X189238095Y-92078571D01*
X189190476Y-92173809D01*
X141106380Y-94064857D02*
X140630190Y-94398190D01*
X141106380Y-94636285D02*
X140106380Y-94636285D01*
X140106380Y-94255333D01*
X140154000Y-94160095D01*
X140201619Y-94112476D01*
X140296857Y-94064857D01*
X140439714Y-94064857D01*
X140534952Y-94112476D01*
X140582571Y-94160095D01*
X140630190Y-94255333D01*
X140630190Y-94636285D01*
X141106380Y-93112476D02*
X141106380Y-93683904D01*
X141106380Y-93398190D02*
X140106380Y-93398190D01*
X140249238Y-93493428D01*
X140344476Y-93588666D01*
X140392095Y-93683904D01*
X140106380Y-92207714D02*
X140106380Y-92683904D01*
X140582571Y-92731523D01*
X140534952Y-92683904D01*
X140487333Y-92588666D01*
X140487333Y-92350571D01*
X140534952Y-92255333D01*
X140582571Y-92207714D01*
X140677809Y-92160095D01*
X140915904Y-92160095D01*
X141011142Y-92207714D01*
X141058761Y-92255333D01*
X141106380Y-92350571D01*
X141106380Y-92588666D01*
X141058761Y-92683904D01*
X141011142Y-92731523D01*
X115103142Y-89302380D02*
X114769809Y-88826190D01*
X114531714Y-89302380D02*
X114531714Y-88302380D01*
X114912666Y-88302380D01*
X115007904Y-88350000D01*
X115055523Y-88397619D01*
X115103142Y-88492857D01*
X115103142Y-88635714D01*
X115055523Y-88730952D01*
X115007904Y-88778571D01*
X114912666Y-88826190D01*
X114531714Y-88826190D01*
X116055523Y-89302380D02*
X115484095Y-89302380D01*
X115769809Y-89302380D02*
X115769809Y-88302380D01*
X115674571Y-88445238D01*
X115579333Y-88540476D01*
X115484095Y-88588095D01*
X116912666Y-88635714D02*
X116912666Y-89302380D01*
X116674571Y-88254761D02*
X116436476Y-88969047D01*
X117055523Y-88969047D01*
X125263142Y-89302380D02*
X124929809Y-88826190D01*
X124691714Y-89302380D02*
X124691714Y-88302380D01*
X125072666Y-88302380D01*
X125167904Y-88350000D01*
X125215523Y-88397619D01*
X125263142Y-88492857D01*
X125263142Y-88635714D01*
X125215523Y-88730952D01*
X125167904Y-88778571D01*
X125072666Y-88826190D01*
X124691714Y-88826190D01*
X126215523Y-89302380D02*
X125644095Y-89302380D01*
X125929809Y-89302380D02*
X125929809Y-88302380D01*
X125834571Y-88445238D01*
X125739333Y-88540476D01*
X125644095Y-88588095D01*
X126548857Y-88302380D02*
X127167904Y-88302380D01*
X126834571Y-88683333D01*
X126977428Y-88683333D01*
X127072666Y-88730952D01*
X127120285Y-88778571D01*
X127167904Y-88873809D01*
X127167904Y-89111904D01*
X127120285Y-89207142D01*
X127072666Y-89254761D01*
X126977428Y-89302380D01*
X126691714Y-89302380D01*
X126596476Y-89254761D01*
X126548857Y-89207142D01*
X135423142Y-89302380D02*
X135089809Y-88826190D01*
X134851714Y-89302380D02*
X134851714Y-88302380D01*
X135232666Y-88302380D01*
X135327904Y-88350000D01*
X135375523Y-88397619D01*
X135423142Y-88492857D01*
X135423142Y-88635714D01*
X135375523Y-88730952D01*
X135327904Y-88778571D01*
X135232666Y-88826190D01*
X134851714Y-88826190D01*
X136375523Y-89302380D02*
X135804095Y-89302380D01*
X136089809Y-89302380D02*
X136089809Y-88302380D01*
X135994571Y-88445238D01*
X135899333Y-88540476D01*
X135804095Y-88588095D01*
X136756476Y-88397619D02*
X136804095Y-88350000D01*
X136899333Y-88302380D01*
X137137428Y-88302380D01*
X137232666Y-88350000D01*
X137280285Y-88397619D01*
X137327904Y-88492857D01*
X137327904Y-88588095D01*
X137280285Y-88730952D01*
X136708857Y-89302380D01*
X137327904Y-89302380D01*
X145583142Y-89302380D02*
X145249809Y-88826190D01*
X145011714Y-89302380D02*
X145011714Y-88302380D01*
X145392666Y-88302380D01*
X145487904Y-88350000D01*
X145535523Y-88397619D01*
X145583142Y-88492857D01*
X145583142Y-88635714D01*
X145535523Y-88730952D01*
X145487904Y-88778571D01*
X145392666Y-88826190D01*
X145011714Y-88826190D01*
X146535523Y-89302380D02*
X145964095Y-89302380D01*
X146249809Y-89302380D02*
X146249809Y-88302380D01*
X146154571Y-88445238D01*
X146059333Y-88540476D01*
X145964095Y-88588095D01*
X147487904Y-89302380D02*
X146916476Y-89302380D01*
X147202190Y-89302380D02*
X147202190Y-88302380D01*
X147106952Y-88445238D01*
X147011714Y-88540476D01*
X146916476Y-88588095D01*
X115103142Y-94602380D02*
X114769809Y-94126190D01*
X114531714Y-94602380D02*
X114531714Y-93602380D01*
X114912666Y-93602380D01*
X115007904Y-93650000D01*
X115055523Y-93697619D01*
X115103142Y-93792857D01*
X115103142Y-93935714D01*
X115055523Y-94030952D01*
X115007904Y-94078571D01*
X114912666Y-94126190D01*
X114531714Y-94126190D01*
X116055523Y-94602380D02*
X115484095Y-94602380D01*
X115769809Y-94602380D02*
X115769809Y-93602380D01*
X115674571Y-93745238D01*
X115579333Y-93840476D01*
X115484095Y-93888095D01*
X116674571Y-93602380D02*
X116769809Y-93602380D01*
X116865047Y-93650000D01*
X116912666Y-93697619D01*
X116960285Y-93792857D01*
X117007904Y-93983333D01*
X117007904Y-94221428D01*
X116960285Y-94411904D01*
X116912666Y-94507142D01*
X116865047Y-94554761D01*
X116769809Y-94602380D01*
X116674571Y-94602380D01*
X116579333Y-94554761D01*
X116531714Y-94507142D01*
X116484095Y-94411904D01*
X116436476Y-94221428D01*
X116436476Y-93983333D01*
X116484095Y-93792857D01*
X116531714Y-93697619D01*
X116579333Y-93650000D01*
X116674571Y-93602380D01*
X125739333Y-94602380D02*
X125406000Y-94126190D01*
X125167904Y-94602380D02*
X125167904Y-93602380D01*
X125548857Y-93602380D01*
X125644095Y-93650000D01*
X125691714Y-93697619D01*
X125739333Y-93792857D01*
X125739333Y-93935714D01*
X125691714Y-94030952D01*
X125644095Y-94078571D01*
X125548857Y-94126190D01*
X125167904Y-94126190D01*
X126215523Y-94602380D02*
X126406000Y-94602380D01*
X126501238Y-94554761D01*
X126548857Y-94507142D01*
X126644095Y-94364285D01*
X126691714Y-94173809D01*
X126691714Y-93792857D01*
X126644095Y-93697619D01*
X126596476Y-93650000D01*
X126501238Y-93602380D01*
X126310761Y-93602380D01*
X126215523Y-93650000D01*
X126167904Y-93697619D01*
X126120285Y-93792857D01*
X126120285Y-94030952D01*
X126167904Y-94126190D01*
X126215523Y-94173809D01*
X126310761Y-94221428D01*
X126501238Y-94221428D01*
X126596476Y-94173809D01*
X126644095Y-94126190D01*
X126691714Y-94030952D01*
X135899333Y-94602380D02*
X135566000Y-94126190D01*
X135327904Y-94602380D02*
X135327904Y-93602380D01*
X135708857Y-93602380D01*
X135804095Y-93650000D01*
X135851714Y-93697619D01*
X135899333Y-93792857D01*
X135899333Y-93935714D01*
X135851714Y-94030952D01*
X135804095Y-94078571D01*
X135708857Y-94126190D01*
X135327904Y-94126190D01*
X136470761Y-94030952D02*
X136375523Y-93983333D01*
X136327904Y-93935714D01*
X136280285Y-93840476D01*
X136280285Y-93792857D01*
X136327904Y-93697619D01*
X136375523Y-93650000D01*
X136470761Y-93602380D01*
X136661238Y-93602380D01*
X136756476Y-93650000D01*
X136804095Y-93697619D01*
X136851714Y-93792857D01*
X136851714Y-93840476D01*
X136804095Y-93935714D01*
X136756476Y-93983333D01*
X136661238Y-94030952D01*
X136470761Y-94030952D01*
X136375523Y-94078571D01*
X136327904Y-94126190D01*
X136280285Y-94221428D01*
X136280285Y-94411904D01*
X136327904Y-94507142D01*
X136375523Y-94554761D01*
X136470761Y-94602380D01*
X136661238Y-94602380D01*
X136756476Y-94554761D01*
X136804095Y-94507142D01*
X136851714Y-94411904D01*
X136851714Y-94221428D01*
X136804095Y-94126190D01*
X136756476Y-94078571D01*
X136661238Y-94030952D01*
X146059333Y-94602380D02*
X145726000Y-94126190D01*
X145487904Y-94602380D02*
X145487904Y-93602380D01*
X145868857Y-93602380D01*
X145964095Y-93650000D01*
X146011714Y-93697619D01*
X146059333Y-93792857D01*
X146059333Y-93935714D01*
X146011714Y-94030952D01*
X145964095Y-94078571D01*
X145868857Y-94126190D01*
X145487904Y-94126190D01*
X146392666Y-93602380D02*
X147059333Y-93602380D01*
X146630761Y-94602380D01*
X160553333Y-95017380D02*
X160220000Y-94541190D01*
X159981904Y-95017380D02*
X159981904Y-94017380D01*
X160362857Y-94017380D01*
X160458095Y-94065000D01*
X160505714Y-94112619D01*
X160553333Y-94207857D01*
X160553333Y-94350714D01*
X160505714Y-94445952D01*
X160458095Y-94493571D01*
X160362857Y-94541190D01*
X159981904Y-94541190D01*
X161410476Y-94017380D02*
X161220000Y-94017380D01*
X161124761Y-94065000D01*
X161077142Y-94112619D01*
X160981904Y-94255476D01*
X160934285Y-94445952D01*
X160934285Y-94826904D01*
X160981904Y-94922142D01*
X161029523Y-94969761D01*
X161124761Y-95017380D01*
X161315238Y-95017380D01*
X161410476Y-94969761D01*
X161458095Y-94922142D01*
X161505714Y-94826904D01*
X161505714Y-94588809D01*
X161458095Y-94493571D01*
X161410476Y-94445952D01*
X161315238Y-94398333D01*
X161124761Y-94398333D01*
X161029523Y-94445952D01*
X160981904Y-94493571D01*
X160934285Y-94588809D01*
X169557333Y-92378380D02*
X169224000Y-91902190D01*
X168985904Y-92378380D02*
X168985904Y-91378380D01*
X169366857Y-91378380D01*
X169462095Y-91426000D01*
X169509714Y-91473619D01*
X169557333Y-91568857D01*
X169557333Y-91711714D01*
X169509714Y-91806952D01*
X169462095Y-91854571D01*
X169366857Y-91902190D01*
X168985904Y-91902190D01*
X170462095Y-91378380D02*
X169985904Y-91378380D01*
X169938285Y-91854571D01*
X169985904Y-91806952D01*
X170081142Y-91759333D01*
X170319238Y-91759333D01*
X170414476Y-91806952D01*
X170462095Y-91854571D01*
X170509714Y-91949809D01*
X170509714Y-92187904D01*
X170462095Y-92283142D01*
X170414476Y-92330761D01*
X170319238Y-92378380D01*
X170081142Y-92378380D01*
X169985904Y-92330761D01*
X169938285Y-92283142D01*
X165633333Y-92477380D02*
X165300000Y-92001190D01*
X165061904Y-92477380D02*
X165061904Y-91477380D01*
X165442857Y-91477380D01*
X165538095Y-91525000D01*
X165585714Y-91572619D01*
X165633333Y-91667857D01*
X165633333Y-91810714D01*
X165585714Y-91905952D01*
X165538095Y-91953571D01*
X165442857Y-92001190D01*
X165061904Y-92001190D01*
X166490476Y-91810714D02*
X166490476Y-92477380D01*
X166252380Y-91429761D02*
X166014285Y-92144047D01*
X166633333Y-92144047D01*
X157362380Y-92826666D02*
X156886190Y-93160000D01*
X157362380Y-93398095D02*
X156362380Y-93398095D01*
X156362380Y-93017142D01*
X156410000Y-92921904D01*
X156457619Y-92874285D01*
X156552857Y-92826666D01*
X156695714Y-92826666D01*
X156790952Y-92874285D01*
X156838571Y-92921904D01*
X156886190Y-93017142D01*
X156886190Y-93398095D01*
X156362380Y-92493333D02*
X156362380Y-91874285D01*
X156743333Y-92207619D01*
X156743333Y-92064761D01*
X156790952Y-91969523D01*
X156838571Y-91921904D01*
X156933809Y-91874285D01*
X157171904Y-91874285D01*
X157267142Y-91921904D01*
X157314761Y-91969523D01*
X157362380Y-92064761D01*
X157362380Y-92350476D01*
X157314761Y-92445714D01*
X157267142Y-92493333D01*
X147330380Y-96890666D02*
X146854190Y-97224000D01*
X147330380Y-97462095D02*
X146330380Y-97462095D01*
X146330380Y-97081142D01*
X146378000Y-96985904D01*
X146425619Y-96938285D01*
X146520857Y-96890666D01*
X146663714Y-96890666D01*
X146758952Y-96938285D01*
X146806571Y-96985904D01*
X146854190Y-97081142D01*
X146854190Y-97462095D01*
X146425619Y-96509714D02*
X146378000Y-96462095D01*
X146330380Y-96366857D01*
X146330380Y-96128761D01*
X146378000Y-96033523D01*
X146425619Y-95985904D01*
X146520857Y-95938285D01*
X146616095Y-95938285D01*
X146758952Y-95985904D01*
X147330380Y-96557333D01*
X147330380Y-95938285D01*
X175539333Y-77618380D02*
X175206000Y-77142190D01*
X174967904Y-77618380D02*
X174967904Y-76618380D01*
X175348857Y-76618380D01*
X175444095Y-76666000D01*
X175491714Y-76713619D01*
X175539333Y-76808857D01*
X175539333Y-76951714D01*
X175491714Y-77046952D01*
X175444095Y-77094571D01*
X175348857Y-77142190D01*
X174967904Y-77142190D01*
X176491714Y-77618380D02*
X175920285Y-77618380D01*
X176206000Y-77618380D02*
X176206000Y-76618380D01*
X176110761Y-76761238D01*
X176015523Y-76856476D01*
X175920285Y-76904095D01*
X112100761Y-94297619D02*
X112005523Y-94250000D01*
X111910285Y-94154761D01*
X111767428Y-94011904D01*
X111672190Y-93964285D01*
X111576952Y-93964285D01*
X111624571Y-94202380D02*
X111529333Y-94154761D01*
X111434095Y-94059523D01*
X111386476Y-93869047D01*
X111386476Y-93535714D01*
X111434095Y-93345238D01*
X111529333Y-93250000D01*
X111624571Y-93202380D01*
X111815047Y-93202380D01*
X111910285Y-93250000D01*
X112005523Y-93345238D01*
X112053142Y-93535714D01*
X112053142Y-93869047D01*
X112005523Y-94059523D01*
X111910285Y-94154761D01*
X111815047Y-94202380D01*
X111624571Y-94202380D01*
X112910285Y-93535714D02*
X112910285Y-94202380D01*
X112672190Y-93154761D02*
X112434095Y-93869047D01*
X113053142Y-93869047D01*
X122260761Y-94297619D02*
X122165523Y-94250000D01*
X122070285Y-94154761D01*
X121927428Y-94011904D01*
X121832190Y-93964285D01*
X121736952Y-93964285D01*
X121784571Y-94202380D02*
X121689333Y-94154761D01*
X121594095Y-94059523D01*
X121546476Y-93869047D01*
X121546476Y-93535714D01*
X121594095Y-93345238D01*
X121689333Y-93250000D01*
X121784571Y-93202380D01*
X121975047Y-93202380D01*
X122070285Y-93250000D01*
X122165523Y-93345238D01*
X122213142Y-93535714D01*
X122213142Y-93869047D01*
X122165523Y-94059523D01*
X122070285Y-94154761D01*
X121975047Y-94202380D01*
X121784571Y-94202380D01*
X122546476Y-93202380D02*
X123165523Y-93202380D01*
X122832190Y-93583333D01*
X122975047Y-93583333D01*
X123070285Y-93630952D01*
X123117904Y-93678571D01*
X123165523Y-93773809D01*
X123165523Y-94011904D01*
X123117904Y-94107142D01*
X123070285Y-94154761D01*
X122975047Y-94202380D01*
X122689333Y-94202380D01*
X122594095Y-94154761D01*
X122546476Y-94107142D01*
X132420761Y-94297619D02*
X132325523Y-94250000D01*
X132230285Y-94154761D01*
X132087428Y-94011904D01*
X131992190Y-93964285D01*
X131896952Y-93964285D01*
X131944571Y-94202380D02*
X131849333Y-94154761D01*
X131754095Y-94059523D01*
X131706476Y-93869047D01*
X131706476Y-93535714D01*
X131754095Y-93345238D01*
X131849333Y-93250000D01*
X131944571Y-93202380D01*
X132135047Y-93202380D01*
X132230285Y-93250000D01*
X132325523Y-93345238D01*
X132373142Y-93535714D01*
X132373142Y-93869047D01*
X132325523Y-94059523D01*
X132230285Y-94154761D01*
X132135047Y-94202380D01*
X131944571Y-94202380D01*
X132754095Y-93297619D02*
X132801714Y-93250000D01*
X132896952Y-93202380D01*
X133135047Y-93202380D01*
X133230285Y-93250000D01*
X133277904Y-93297619D01*
X133325523Y-93392857D01*
X133325523Y-93488095D01*
X133277904Y-93630952D01*
X132706476Y-94202380D01*
X133325523Y-94202380D01*
X142580761Y-94297619D02*
X142485523Y-94250000D01*
X142390285Y-94154761D01*
X142247428Y-94011904D01*
X142152190Y-93964285D01*
X142056952Y-93964285D01*
X142104571Y-94202380D02*
X142009333Y-94154761D01*
X141914095Y-94059523D01*
X141866476Y-93869047D01*
X141866476Y-93535714D01*
X141914095Y-93345238D01*
X142009333Y-93250000D01*
X142104571Y-93202380D01*
X142295047Y-93202380D01*
X142390285Y-93250000D01*
X142485523Y-93345238D01*
X142533142Y-93535714D01*
X142533142Y-93869047D01*
X142485523Y-94059523D01*
X142390285Y-94154761D01*
X142295047Y-94202380D01*
X142104571Y-94202380D01*
X143485523Y-94202380D02*
X142914095Y-94202380D01*
X143199809Y-94202380D02*
X143199809Y-93202380D01*
X143104571Y-93345238D01*
X143009333Y-93440476D01*
X142914095Y-93488095D01*
X175531476Y-88893380D02*
X175531476Y-89607666D01*
X175483857Y-89750523D01*
X175388619Y-89845761D01*
X175245761Y-89893380D01*
X175150523Y-89893380D01*
X176531476Y-89893380D02*
X175960047Y-89893380D01*
X176245761Y-89893380D02*
X176245761Y-88893380D01*
X176150523Y-89036238D01*
X176055285Y-89131476D01*
X175960047Y-89179095D01*
X176912428Y-88988619D02*
X176960047Y-88941000D01*
X177055285Y-88893380D01*
X177293380Y-88893380D01*
X177388619Y-88941000D01*
X177436238Y-88988619D01*
X177483857Y-89083857D01*
X177483857Y-89179095D01*
X177436238Y-89321952D01*
X176864809Y-89893380D01*
X177483857Y-89893380D01*
X194962476Y-93128380D02*
X194962476Y-93842666D01*
X194914857Y-93985523D01*
X194819619Y-94080761D01*
X194676761Y-94128380D01*
X194581523Y-94128380D01*
X195962476Y-94128380D02*
X195391047Y-94128380D01*
X195676761Y-94128380D02*
X195676761Y-93128380D01*
X195581523Y-93271238D01*
X195486285Y-93366476D01*
X195391047Y-93414095D01*
X196914857Y-94128380D02*
X196343428Y-94128380D01*
X196629142Y-94128380D02*
X196629142Y-93128380D01*
X196533904Y-93271238D01*
X196438666Y-93366476D01*
X196343428Y-93414095D01*
X196440476Y-98208380D02*
X196440476Y-98922666D01*
X196392857Y-99065523D01*
X196297619Y-99160761D01*
X196154761Y-99208380D01*
X196059523Y-99208380D01*
X197440476Y-99208380D02*
X196869047Y-99208380D01*
X197154761Y-99208380D02*
X197154761Y-98208380D01*
X197059523Y-98351238D01*
X196964285Y-98446476D01*
X196869047Y-98494095D01*
X198059523Y-98208380D02*
X198154761Y-98208380D01*
X198250000Y-98256000D01*
X198297619Y-98303619D01*
X198345238Y-98398857D01*
X198392857Y-98589333D01*
X198392857Y-98827428D01*
X198345238Y-99017904D01*
X198297619Y-99113142D01*
X198250000Y-99160761D01*
X198154761Y-99208380D01*
X198059523Y-99208380D01*
X197964285Y-99160761D01*
X197916666Y-99113142D01*
X197869047Y-99017904D01*
X197821428Y-98827428D01*
X197821428Y-98589333D01*
X197869047Y-98398857D01*
X197916666Y-98303619D01*
X197964285Y-98256000D01*
X198059523Y-98208380D01*
X184782380Y-95833333D02*
X185496666Y-95833333D01*
X185639523Y-95880952D01*
X185734761Y-95976190D01*
X185782380Y-96119047D01*
X185782380Y-96214285D01*
X185782380Y-95309523D02*
X185782380Y-95119047D01*
X185734761Y-95023809D01*
X185687142Y-94976190D01*
X185544285Y-94880952D01*
X185353809Y-94833333D01*
X184972857Y-94833333D01*
X184877619Y-94880952D01*
X184830000Y-94928571D01*
X184782380Y-95023809D01*
X184782380Y-95214285D01*
X184830000Y-95309523D01*
X184877619Y-95357142D01*
X184972857Y-95404761D01*
X185210952Y-95404761D01*
X185306190Y-95357142D01*
X185353809Y-95309523D01*
X185401428Y-95214285D01*
X185401428Y-95023809D01*
X185353809Y-94928571D01*
X185306190Y-94880952D01*
X185210952Y-94833333D01*
X193532380Y-95833333D02*
X194246666Y-95833333D01*
X194389523Y-95880952D01*
X194484761Y-95976190D01*
X194532380Y-96119047D01*
X194532380Y-96214285D01*
X193960952Y-95214285D02*
X193913333Y-95309523D01*
X193865714Y-95357142D01*
X193770476Y-95404761D01*
X193722857Y-95404761D01*
X193627619Y-95357142D01*
X193580000Y-95309523D01*
X193532380Y-95214285D01*
X193532380Y-95023809D01*
X193580000Y-94928571D01*
X193627619Y-94880952D01*
X193722857Y-94833333D01*
X193770476Y-94833333D01*
X193865714Y-94880952D01*
X193913333Y-94928571D01*
X193960952Y-95023809D01*
X193960952Y-95214285D01*
X194008571Y-95309523D01*
X194056190Y-95357142D01*
X194151428Y-95404761D01*
X194341904Y-95404761D01*
X194437142Y-95357142D01*
X194484761Y-95309523D01*
X194532380Y-95214285D01*
X194532380Y-95023809D01*
X194484761Y-94928571D01*
X194437142Y-94880952D01*
X194341904Y-94833333D01*
X194151428Y-94833333D01*
X194056190Y-94880952D01*
X194008571Y-94928571D01*
X193960952Y-95023809D01*
X167122380Y-79333333D02*
X167836666Y-79333333D01*
X167979523Y-79380952D01*
X168074761Y-79476190D01*
X168122380Y-79619047D01*
X168122380Y-79714285D01*
X167122380Y-78952380D02*
X167122380Y-78285714D01*
X168122380Y-78714285D01*
X128636666Y-85762380D02*
X128636666Y-86476666D01*
X128589047Y-86619523D01*
X128493809Y-86714761D01*
X128350952Y-86762380D01*
X128255714Y-86762380D01*
X129541428Y-85762380D02*
X129350952Y-85762380D01*
X129255714Y-85810000D01*
X129208095Y-85857619D01*
X129112857Y-86000476D01*
X129065238Y-86190952D01*
X129065238Y-86571904D01*
X129112857Y-86667142D01*
X129160476Y-86714761D01*
X129255714Y-86762380D01*
X129446190Y-86762380D01*
X129541428Y-86714761D01*
X129589047Y-86667142D01*
X129636666Y-86571904D01*
X129636666Y-86333809D01*
X129589047Y-86238571D01*
X129541428Y-86190952D01*
X129446190Y-86143333D01*
X129255714Y-86143333D01*
X129160476Y-86190952D01*
X129112857Y-86238571D01*
X129065238Y-86333809D01*
X161476666Y-88212380D02*
X161476666Y-88926666D01*
X161429047Y-89069523D01*
X161333809Y-89164761D01*
X161190952Y-89212380D01*
X161095714Y-89212380D01*
X162429047Y-88212380D02*
X161952857Y-88212380D01*
X161905238Y-88688571D01*
X161952857Y-88640952D01*
X162048095Y-88593333D01*
X162286190Y-88593333D01*
X162381428Y-88640952D01*
X162429047Y-88688571D01*
X162476666Y-88783809D01*
X162476666Y-89021904D01*
X162429047Y-89117142D01*
X162381428Y-89164761D01*
X162286190Y-89212380D01*
X162048095Y-89212380D01*
X161952857Y-89164761D01*
X161905238Y-89117142D01*
X155941666Y-94017380D02*
X155941666Y-94731666D01*
X155894047Y-94874523D01*
X155798809Y-94969761D01*
X155655952Y-95017380D01*
X155560714Y-95017380D01*
X156846428Y-94350714D02*
X156846428Y-95017380D01*
X156608333Y-93969761D02*
X156370238Y-94684047D01*
X156989285Y-94684047D01*
X171816666Y-94017380D02*
X171816666Y-94731666D01*
X171769047Y-94874523D01*
X171673809Y-94969761D01*
X171530952Y-95017380D01*
X171435714Y-95017380D01*
X172245238Y-94112619D02*
X172292857Y-94065000D01*
X172388095Y-94017380D01*
X172626190Y-94017380D01*
X172721428Y-94065000D01*
X172769047Y-94112619D01*
X172816666Y-94207857D01*
X172816666Y-94303095D01*
X172769047Y-94445952D01*
X172197619Y-95017380D01*
X172816666Y-95017380D01*
X178420666Y-81444380D02*
X178420666Y-82158666D01*
X178373047Y-82301523D01*
X178277809Y-82396761D01*
X178134952Y-82444380D01*
X178039714Y-82444380D01*
X179420666Y-82444380D02*
X178849238Y-82444380D01*
X179134952Y-82444380D02*
X179134952Y-81444380D01*
X179039714Y-81587238D01*
X178944476Y-81682476D01*
X178849238Y-81730095D01*
X157428571Y-84823333D02*
X157428571Y-85156666D01*
X157952380Y-85156666D02*
X156952380Y-85156666D01*
X156952380Y-84680476D01*
X157952380Y-83775714D02*
X157952380Y-84347142D01*
X157952380Y-84061428D02*
X156952380Y-84061428D01*
X157095238Y-84156666D01*
X157190476Y-84251904D01*
X157238095Y-84347142D01*
X106133904Y-87016380D02*
X106133904Y-86016380D01*
X106372000Y-86016380D01*
X106514857Y-86064000D01*
X106610095Y-86159238D01*
X106657714Y-86254476D01*
X106705333Y-86444952D01*
X106705333Y-86587809D01*
X106657714Y-86778285D01*
X106610095Y-86873523D01*
X106514857Y-86968761D01*
X106372000Y-87016380D01*
X106133904Y-87016380D01*
X107038666Y-86016380D02*
X107705333Y-86016380D01*
X107276761Y-87016380D01*
X182333904Y-85238380D02*
X182333904Y-84238380D01*
X182572000Y-84238380D01*
X182714857Y-84286000D01*
X182810095Y-84381238D01*
X182857714Y-84476476D01*
X182905333Y-84666952D01*
X182905333Y-84809809D01*
X182857714Y-85000285D01*
X182810095Y-85095523D01*
X182714857Y-85190761D01*
X182572000Y-85238380D01*
X182333904Y-85238380D01*
X183762476Y-84238380D02*
X183572000Y-84238380D01*
X183476761Y-84286000D01*
X183429142Y-84333619D01*
X183333904Y-84476476D01*
X183286285Y-84666952D01*
X183286285Y-85047904D01*
X183333904Y-85143142D01*
X183381523Y-85190761D01*
X183476761Y-85238380D01*
X183667238Y-85238380D01*
X183762476Y-85190761D01*
X183810095Y-85143142D01*
X183857714Y-85047904D01*
X183857714Y-84809809D01*
X183810095Y-84714571D01*
X183762476Y-84666952D01*
X183667238Y-84619333D01*
X183476761Y-84619333D01*
X183381523Y-84666952D01*
X183333904Y-84714571D01*
X183286285Y-84809809D01*
X110879380Y-90731095D02*
X109879380Y-90731095D01*
X109879380Y-90493000D01*
X109927000Y-90350142D01*
X110022238Y-90254904D01*
X110117476Y-90207285D01*
X110307952Y-90159666D01*
X110450809Y-90159666D01*
X110641285Y-90207285D01*
X110736523Y-90254904D01*
X110831761Y-90350142D01*
X110879380Y-90493000D01*
X110879380Y-90731095D01*
X109879380Y-89254904D02*
X109879380Y-89731095D01*
X110355571Y-89778714D01*
X110307952Y-89731095D01*
X110260333Y-89635857D01*
X110260333Y-89397761D01*
X110307952Y-89302523D01*
X110355571Y-89254904D01*
X110450809Y-89207285D01*
X110688904Y-89207285D01*
X110784142Y-89254904D01*
X110831761Y-89302523D01*
X110879380Y-89397761D01*
X110879380Y-89635857D01*
X110831761Y-89731095D01*
X110784142Y-89778714D01*
X121039380Y-90731095D02*
X120039380Y-90731095D01*
X120039380Y-90493000D01*
X120087000Y-90350142D01*
X120182238Y-90254904D01*
X120277476Y-90207285D01*
X120467952Y-90159666D01*
X120610809Y-90159666D01*
X120801285Y-90207285D01*
X120896523Y-90254904D01*
X120991761Y-90350142D01*
X121039380Y-90493000D01*
X121039380Y-90731095D01*
X120372714Y-89302523D02*
X121039380Y-89302523D01*
X119991761Y-89540619D02*
X120706047Y-89778714D01*
X120706047Y-89159666D01*
X131199380Y-90731095D02*
X130199380Y-90731095D01*
X130199380Y-90493000D01*
X130247000Y-90350142D01*
X130342238Y-90254904D01*
X130437476Y-90207285D01*
X130627952Y-90159666D01*
X130770809Y-90159666D01*
X130961285Y-90207285D01*
X131056523Y-90254904D01*
X131151761Y-90350142D01*
X131199380Y-90493000D01*
X131199380Y-90731095D01*
X130199380Y-89826333D02*
X130199380Y-89207285D01*
X130580333Y-89540619D01*
X130580333Y-89397761D01*
X130627952Y-89302523D01*
X130675571Y-89254904D01*
X130770809Y-89207285D01*
X131008904Y-89207285D01*
X131104142Y-89254904D01*
X131151761Y-89302523D01*
X131199380Y-89397761D01*
X131199380Y-89683476D01*
X131151761Y-89778714D01*
X131104142Y-89826333D01*
X141359380Y-90731095D02*
X140359380Y-90731095D01*
X140359380Y-90493000D01*
X140407000Y-90350142D01*
X140502238Y-90254904D01*
X140597476Y-90207285D01*
X140787952Y-90159666D01*
X140930809Y-90159666D01*
X141121285Y-90207285D01*
X141216523Y-90254904D01*
X141311761Y-90350142D01*
X141359380Y-90493000D01*
X141359380Y-90731095D01*
X140454619Y-89778714D02*
X140407000Y-89731095D01*
X140359380Y-89635857D01*
X140359380Y-89397761D01*
X140407000Y-89302523D01*
X140454619Y-89254904D01*
X140549857Y-89207285D01*
X140645095Y-89207285D01*
X140787952Y-89254904D01*
X141359380Y-89826333D01*
X141359380Y-89207285D01*
X163156904Y-91207380D02*
X163156904Y-90207380D01*
X163395000Y-90207380D01*
X163537857Y-90255000D01*
X163633095Y-90350238D01*
X163680714Y-90445476D01*
X163728333Y-90635952D01*
X163728333Y-90778809D01*
X163680714Y-90969285D01*
X163633095Y-91064523D01*
X163537857Y-91159761D01*
X163395000Y-91207380D01*
X163156904Y-91207380D01*
X164680714Y-91207380D02*
X164109285Y-91207380D01*
X164395000Y-91207380D02*
X164395000Y-90207380D01*
X164299761Y-90350238D01*
X164204523Y-90445476D01*
X164109285Y-90493095D01*
X183583333Y-92507142D02*
X183535714Y-92554761D01*
X183392857Y-92602380D01*
X183297619Y-92602380D01*
X183154761Y-92554761D01*
X183059523Y-92459523D01*
X183011904Y-92364285D01*
X182964285Y-92173809D01*
X182964285Y-92030952D01*
X183011904Y-91840476D01*
X183059523Y-91745238D01*
X183154761Y-91650000D01*
X183297619Y-91602380D01*
X183392857Y-91602380D01*
X183535714Y-91650000D01*
X183583333Y-91697619D01*
X184440476Y-91602380D02*
X184250000Y-91602380D01*
X184154761Y-91650000D01*
X184107142Y-91697619D01*
X184011904Y-91840476D01*
X183964285Y-92030952D01*
X183964285Y-92411904D01*
X184011904Y-92507142D01*
X184059523Y-92554761D01*
X184154761Y-92602380D01*
X184345238Y-92602380D01*
X184440476Y-92554761D01*
X184488095Y-92507142D01*
X184535714Y-92411904D01*
X184535714Y-92173809D01*
X184488095Y-92078571D01*
X184440476Y-92030952D01*
X184345238Y-91983333D01*
X184154761Y-91983333D01*
X184059523Y-92030952D01*
X184011904Y-92078571D01*
X183964285Y-92173809D01*
X192333333Y-92507142D02*
X192285714Y-92554761D01*
X192142857Y-92602380D01*
X192047619Y-92602380D01*
X191904761Y-92554761D01*
X191809523Y-92459523D01*
X191761904Y-92364285D01*
X191714285Y-92173809D01*
X191714285Y-92030952D01*
X191761904Y-91840476D01*
X191809523Y-91745238D01*
X191904761Y-91650000D01*
X192047619Y-91602380D01*
X192142857Y-91602380D01*
X192285714Y-91650000D01*
X192333333Y-91697619D01*
X193238095Y-91602380D02*
X192761904Y-91602380D01*
X192714285Y-92078571D01*
X192761904Y-92030952D01*
X192857142Y-91983333D01*
X193095238Y-91983333D01*
X193190476Y-92030952D01*
X193238095Y-92078571D01*
X193285714Y-92173809D01*
X193285714Y-92411904D01*
X193238095Y-92507142D01*
X193190476Y-92554761D01*
X193095238Y-92602380D01*
X192857142Y-92602380D01*
X192761904Y-92554761D01*
X192714285Y-92507142D01*
X192049333Y-83873142D02*
X192001714Y-83920761D01*
X191858857Y-83968380D01*
X191763619Y-83968380D01*
X191620761Y-83920761D01*
X191525523Y-83825523D01*
X191477904Y-83730285D01*
X191430285Y-83539809D01*
X191430285Y-83396952D01*
X191477904Y-83206476D01*
X191525523Y-83111238D01*
X191620761Y-83016000D01*
X191763619Y-82968380D01*
X191858857Y-82968380D01*
X192001714Y-83016000D01*
X192049333Y-83063619D01*
X192906476Y-83301714D02*
X192906476Y-83968380D01*
X192668380Y-82920761D02*
X192430285Y-83635047D01*
X193049333Y-83635047D01*
X167157333Y-90223142D02*
X167109714Y-90270761D01*
X166966857Y-90318380D01*
X166871619Y-90318380D01*
X166728761Y-90270761D01*
X166633523Y-90175523D01*
X166585904Y-90080285D01*
X166538285Y-89889809D01*
X166538285Y-89746952D01*
X166585904Y-89556476D01*
X166633523Y-89461238D01*
X166728761Y-89366000D01*
X166871619Y-89318380D01*
X166966857Y-89318380D01*
X167109714Y-89366000D01*
X167157333Y-89413619D01*
X167490666Y-89318380D02*
X168109714Y-89318380D01*
X167776380Y-89699333D01*
X167919238Y-89699333D01*
X168014476Y-89746952D01*
X168062095Y-89794571D01*
X168109714Y-89889809D01*
X168109714Y-90127904D01*
X168062095Y-90223142D01*
X168014476Y-90270761D01*
X167919238Y-90318380D01*
X167633523Y-90318380D01*
X167538285Y-90270761D01*
X167490666Y-90223142D01*
X192049333Y-77523142D02*
X192001714Y-77570761D01*
X191858857Y-77618380D01*
X191763619Y-77618380D01*
X191620761Y-77570761D01*
X191525523Y-77475523D01*
X191477904Y-77380285D01*
X191430285Y-77189809D01*
X191430285Y-77046952D01*
X191477904Y-76856476D01*
X191525523Y-76761238D01*
X191620761Y-76666000D01*
X191763619Y-76618380D01*
X191858857Y-76618380D01*
X192001714Y-76666000D01*
X192049333Y-76713619D01*
X192430285Y-76713619D02*
X192477904Y-76666000D01*
X192573142Y-76618380D01*
X192811238Y-76618380D01*
X192906476Y-76666000D01*
X192954095Y-76713619D01*
X193001714Y-76808857D01*
X193001714Y-76904095D01*
X192954095Y-77046952D01*
X192382666Y-77618380D01*
X193001714Y-77618380D01*
X179333333Y-87007142D02*
X179285714Y-87054761D01*
X179142857Y-87102380D01*
X179047619Y-87102380D01*
X178904761Y-87054761D01*
X178809523Y-86959523D01*
X178761904Y-86864285D01*
X178714285Y-86673809D01*
X178714285Y-86530952D01*
X178761904Y-86340476D01*
X178809523Y-86245238D01*
X178904761Y-86150000D01*
X179047619Y-86102380D01*
X179142857Y-86102380D01*
X179285714Y-86150000D01*
X179333333Y-86197619D01*
X180285714Y-87102380D02*
X179714285Y-87102380D01*
X180000000Y-87102380D02*
X180000000Y-86102380D01*
X179904761Y-86245238D01*
X179809523Y-86340476D01*
X179714285Y-86388095D01*
M02*
