G04 Layer: TopSilkLayer*
G04 EasyEDA v6.4.19.5, 2021-04-14T09:17:14--7:00*
G04 eb9943026e544659989be2c3a0539dbc,debd25b7e7f645e7808fdd9718494454,10*
G04 Gerber Generator version 0.2*
G04 Scale: 100 percent, Rotated: No, Reflected: No *
G04 Dimensions in millimeters *
G04 leading zeros omitted , absolute positions ,4 integer and 5 decimal *
%FSLAX45Y45*%
%MOMM*%

%ADD10C,0.2540*%
%ADD22C,0.1999*%
%ADD23C,0.1524*%
%ADD25C,0.2500*%

%LPD*%
G36*
X8713774Y7494016D02*
G01*
X8712098Y7493457D01*
X8701481Y7488072D01*
X8682837Y7477912D01*
X8627922Y7446975D01*
X8512352Y7380579D01*
X8512352Y7266787D01*
X8572906Y7266787D01*
X8653170Y7388656D01*
X8712606Y7388656D01*
X8630716Y7264349D01*
X8586216Y7264450D01*
X8577427Y7264806D01*
X8573414Y7265568D01*
X8572906Y7266787D01*
X8512352Y7266787D01*
X8512352Y7148118D01*
X8526577Y7139940D01*
X8600338Y7139940D01*
X8657844Y7226808D01*
X8740597Y7352639D01*
X8764574Y7388656D01*
X8823807Y7388656D01*
X8660688Y7140905D01*
X8606373Y7140041D01*
X8711793Y7140041D01*
X8793683Y7264349D01*
X8838184Y7264247D01*
X8847023Y7263892D01*
X8851036Y7263130D01*
X8851493Y7261910D01*
X8771229Y7140041D01*
X8526577Y7139940D01*
X8634628Y7077862D01*
X8686647Y7048449D01*
X8703360Y7039254D01*
X8712200Y7034784D01*
X8718092Y7037679D01*
X8754821Y7057999D01*
X8813495Y7091425D01*
X8912047Y7148118D01*
X8912047Y7380579D01*
X8762339Y7466533D01*
G37*
G36*
X7698740Y6741668D02*
G01*
X7698740Y6693916D01*
X7611618Y6693916D01*
X7611618Y6679438D01*
X7708900Y6679438D01*
X7708900Y6741668D01*
G37*
G36*
X7673086Y6657848D02*
G01*
X7670190Y6657543D01*
X7667498Y6656578D01*
X7665059Y6655003D01*
X7662925Y6652768D01*
X7661046Y6650177D01*
X7659471Y6647180D01*
X7658252Y6643827D01*
X7657338Y6640068D01*
X7656830Y6640068D01*
X7655966Y6643268D01*
X7654848Y6645960D01*
X7653528Y6648196D01*
X7652003Y6649974D01*
X7650327Y6651396D01*
X7648244Y6652463D01*
X7645857Y6653072D01*
X7643114Y6653275D01*
X7627010Y6653123D01*
X7624368Y6652717D01*
X7622031Y6652006D01*
X7620000Y6650990D01*
X7618323Y6649567D01*
X7616748Y6647637D01*
X7615377Y6645148D01*
X7614158Y6642100D01*
X7613040Y6638086D01*
X7612227Y6633464D01*
X7611770Y6628180D01*
X7611618Y6601968D01*
X7621270Y6601968D01*
X7621422Y6626656D01*
X7621778Y6630365D01*
X7622438Y6633362D01*
X7623302Y6635750D01*
X7624673Y6637528D01*
X7626400Y6638798D01*
X7628585Y6639559D01*
X7631175Y6639814D01*
X7642606Y6639814D01*
X7645450Y6639559D01*
X7647889Y6638798D01*
X7649870Y6637528D01*
X7651496Y6635750D01*
X7652613Y6633413D01*
X7653426Y6630416D01*
X7653883Y6626809D01*
X7654036Y6601968D01*
X7663180Y6601968D01*
X7663230Y6627723D01*
X7663434Y6630924D01*
X7663891Y6633667D01*
X7664703Y6636766D01*
X7666024Y6639610D01*
X7666939Y6640728D01*
X7668006Y6641592D01*
X7669275Y6642252D01*
X7672425Y6643014D01*
X7688834Y6643116D01*
X7691424Y6642862D01*
X7693609Y6642049D01*
X7695336Y6640677D01*
X7696708Y6638798D01*
X7697622Y6636105D01*
X7698231Y6632651D01*
X7698638Y6628384D01*
X7698740Y6601968D01*
X7611618Y6601968D01*
X7611618Y6587490D01*
X7708900Y6587490D01*
X7708900Y6623303D01*
X7707833Y6639153D01*
X7704581Y6649720D01*
X7702042Y6653275D01*
X7698689Y6655816D01*
X7694523Y6657340D01*
X7689596Y6657848D01*
G37*
G36*
X7708900Y6572503D02*
G01*
X7611618Y6534657D01*
X7611618Y6524752D01*
X7625334Y6524752D01*
X7625334Y6526276D01*
X7669275Y6542785D01*
X7669275Y6508242D01*
X7625334Y6524752D01*
X7611618Y6524752D01*
X7611618Y6517894D01*
X7708900Y6479286D01*
X7708900Y6493764D01*
X7679436Y6504685D01*
X7679436Y6546342D01*
X7708900Y6557518D01*
G37*
G36*
X8484870Y6960616D02*
G01*
X8504936Y6908800D01*
X8513826Y6908800D01*
X8534654Y6960616D01*
X8526780Y6960616D01*
X8510270Y6916166D01*
X8509508Y6916166D01*
X8492998Y6960616D01*
G37*
G36*
X8242046Y6961631D02*
G01*
X8235188Y6961327D01*
X8229853Y6960362D01*
X8227822Y6959549D01*
X8224672Y6957517D01*
X8223503Y6956298D01*
X8222742Y6954926D01*
X8221827Y6951472D01*
X8221725Y6945375D01*
X8221929Y6942277D01*
X8222488Y6939686D01*
X8223453Y6937451D01*
X8224774Y6935724D01*
X8226704Y6934403D01*
X8229142Y6933438D01*
X8232140Y6932879D01*
X8244027Y6932574D01*
X8245856Y6932371D01*
X8247329Y6931964D01*
X8248396Y6931406D01*
X8249259Y6930644D01*
X8249920Y6929628D01*
X8250428Y6926834D01*
X8250275Y6918350D01*
X8249716Y6916978D01*
X8248853Y6915912D01*
X8247634Y6915150D01*
X8246160Y6914591D01*
X8241842Y6913981D01*
X8235391Y6913981D01*
X8227263Y6914896D01*
X8222742Y6915658D01*
X8222742Y6909308D01*
X8231276Y6908342D01*
X8238490Y6908038D01*
X8244687Y6908342D01*
X8249666Y6909308D01*
X8251698Y6910171D01*
X8253425Y6911238D01*
X8254847Y6912457D01*
X8256016Y6913880D01*
X8256879Y6915658D01*
X8257540Y6917690D01*
X8258048Y6922516D01*
X8257946Y6928510D01*
X8257336Y6932015D01*
X8256778Y6933438D01*
X8255050Y6935673D01*
X8253882Y6936536D01*
X8250885Y6937806D01*
X8246719Y6938416D01*
X8237981Y6938518D01*
X8233867Y6938822D01*
X8232292Y6939229D01*
X8231124Y6939788D01*
X8230362Y6940499D01*
X8229803Y6941413D01*
X8229447Y6942531D01*
X8229346Y6949694D01*
X8229498Y6951370D01*
X8229904Y6952742D01*
X8230616Y6953910D01*
X8231631Y6954774D01*
X8233206Y6955332D01*
X8235391Y6955739D01*
X8241538Y6956044D01*
X8247430Y6955739D01*
X8255508Y6954774D01*
X8255508Y6960616D01*
X8248091Y6961378D01*
G37*
G36*
X7979156Y6961631D02*
G01*
X7975193Y6961428D01*
X7967827Y6960108D01*
X7961985Y6958075D01*
X7960309Y6957059D01*
X7958836Y6955790D01*
X7957566Y6954266D01*
X7956550Y6952640D01*
X7955838Y6950811D01*
X7955432Y6948830D01*
X7955280Y6946646D01*
X7955381Y6920382D01*
X7956143Y6917334D01*
X7957616Y6914692D01*
X7959648Y6912660D01*
X7962087Y6911238D01*
X7965033Y6910070D01*
X7968234Y6909104D01*
X7971281Y6908444D01*
X7977428Y6908038D01*
X7983677Y6908190D01*
X7988452Y6908596D01*
X7993329Y6909308D01*
X7998459Y6910324D01*
X7998459Y6938264D01*
X7978902Y6938264D01*
X7978902Y6932930D01*
X7991094Y6932930D01*
X7991094Y6914642D01*
X7985201Y6913676D01*
X7979664Y6913372D01*
X7974075Y6913625D01*
X7971332Y6914083D01*
X7968742Y6914896D01*
X7966456Y6916115D01*
X7964678Y6917690D01*
X7963357Y6919823D01*
X7962900Y6922262D01*
X7962900Y6946646D01*
X7967014Y6953707D01*
X7979409Y6956044D01*
X7988553Y6955536D01*
X7993481Y6954977D01*
X7997190Y6954266D01*
X7997190Y6960362D01*
X7988604Y6961327D01*
G37*
G36*
X8193024Y7957566D02*
G01*
X8200898Y7947659D01*
X8200898Y7910575D01*
X8271764Y7910575D01*
X8271764Y7776972D01*
X8245094Y7756398D01*
X8245094Y7910575D01*
X8200898Y7910575D01*
X8200898Y7654544D01*
X8197850Y7646924D01*
X8319770Y7744459D01*
X8319770Y7941309D01*
X8292592Y7957566D01*
G37*
G36*
X8582152Y7956550D02*
G01*
X8589772Y7944866D01*
X8589772Y7746238D01*
X8586724Y7743698D01*
X8630158Y7711440D01*
X8630158Y7814564D01*
X8660130Y7707630D01*
X8689340Y7787386D01*
X8689340Y7680959D01*
X8682736Y7671816D01*
X8710168Y7651242D01*
X8736076Y7632192D01*
X8730742Y7656068D01*
X8730742Y7946898D01*
X8734044Y7956550D01*
X8682736Y7956550D01*
X8659622Y7893303D01*
X8634730Y7956550D01*
G37*
G36*
X8476742Y7956550D02*
G01*
X8459724Y7937246D01*
X8459724Y7908798D01*
X8532368Y7908798D01*
X8532368Y7784084D01*
X8505698Y7761224D01*
X8505698Y7908798D01*
X8459724Y7908798D01*
X8459724Y7751825D01*
X8515350Y7707375D01*
X8581136Y7755636D01*
X8581136Y7938516D01*
X8563356Y7956550D01*
G37*
G36*
X8346948Y7956550D02*
G01*
X8329675Y7937246D01*
X8329675Y7908798D01*
X8402320Y7908798D01*
X8402320Y7784084D01*
X8375650Y7761224D01*
X8375650Y7908798D01*
X8329675Y7908798D01*
X8329675Y7751825D01*
X8385302Y7707375D01*
X8451342Y7755636D01*
X8451342Y7938516D01*
X8433308Y7956550D01*
G37*
G36*
X9483547Y8134350D02*
G01*
X9478924Y8133943D01*
X9474657Y8132775D01*
X9472879Y8131911D01*
X9471456Y8130489D01*
X9470186Y8128609D01*
X9469272Y8126272D01*
X9468916Y8123478D01*
X9468882Y8098536D01*
X9475216Y8098536D01*
X9475266Y8123986D01*
X9475622Y8126526D01*
X9475978Y8127492D01*
X9477248Y8128762D01*
X9479026Y8129524D01*
X9481515Y8129879D01*
X9484868Y8130031D01*
X9488170Y8129879D01*
X9490456Y8129524D01*
X9492234Y8128762D01*
X9493504Y8127492D01*
X9494266Y8125358D01*
X9494520Y8122412D01*
X9494469Y8097215D01*
X9493961Y8095081D01*
X9493046Y8093405D01*
X9492437Y8092744D01*
X9490710Y8091931D01*
X9488220Y8091576D01*
X9484868Y8091424D01*
X9481515Y8091576D01*
X9479026Y8091931D01*
X9477248Y8092744D01*
X9475978Y8094218D01*
X9475419Y8096046D01*
X9475216Y8098536D01*
X9468882Y8098536D01*
X9469069Y8096046D01*
X9469628Y8093709D01*
X9470694Y8091728D01*
X9471914Y8090408D01*
X9473641Y8089239D01*
X9475724Y8088375D01*
X9480753Y8087512D01*
X9487357Y8087410D01*
X9491726Y8087817D01*
X9494012Y8088375D01*
X9495891Y8089239D01*
X9497568Y8090408D01*
X9498888Y8091931D01*
X9499854Y8093964D01*
X9500616Y8096402D01*
X9500870Y8099044D01*
X9500819Y8123732D01*
X9500311Y8126526D01*
X9499447Y8128812D01*
X9498279Y8130590D01*
X9496755Y8131911D01*
X9494875Y8132927D01*
X9492742Y8133588D01*
X9487509Y8134299D01*
G37*
G36*
X9429750Y8133588D02*
G01*
X9429750Y8088122D01*
X9460992Y8088122D01*
X9460992Y8092948D01*
X9436608Y8092948D01*
X9436608Y8109203D01*
X9457944Y8109203D01*
X9457944Y8114030D01*
X9436608Y8114030D01*
X9436608Y8128762D01*
X9460230Y8128762D01*
X9460230Y8133588D01*
G37*
G36*
X9380220Y8133588D02*
G01*
X9380220Y8088122D01*
X9387078Y8088122D01*
X9387078Y8109203D01*
X9411208Y8109203D01*
X9411208Y8088122D01*
X9418066Y8088122D01*
X9418066Y8133588D01*
X9411208Y8133588D01*
X9411208Y8114030D01*
X9387078Y8114030D01*
X9387078Y8133588D01*
G37*
G36*
X9096451Y7253731D02*
G01*
X9092336Y7253528D01*
X9084970Y7252208D01*
X9079280Y7250175D01*
X9077604Y7249159D01*
X9076131Y7247890D01*
X9074861Y7246366D01*
X9073896Y7244740D01*
X9073184Y7242911D01*
X9072727Y7240930D01*
X9072575Y7238746D01*
X9072676Y7212482D01*
X9073438Y7209434D01*
X9074912Y7206792D01*
X9076842Y7204760D01*
X9077909Y7203948D01*
X9080703Y7202728D01*
X9087002Y7200849D01*
X9089847Y7200392D01*
X9096451Y7200138D01*
X9105544Y7200696D01*
X9110421Y7201408D01*
X9115501Y7202424D01*
X9115501Y7230364D01*
X9096197Y7230364D01*
X9096197Y7225030D01*
X9108389Y7225030D01*
X9108389Y7206742D01*
X9102496Y7205776D01*
X9096959Y7205472D01*
X9091117Y7205725D01*
X9088577Y7206183D01*
X9086037Y7206996D01*
X9083598Y7208215D01*
X9081719Y7209790D01*
X9080601Y7211923D01*
X9080195Y7214362D01*
X9080195Y7238746D01*
X9084259Y7245807D01*
X9096451Y7248144D01*
X9105595Y7247636D01*
X9110573Y7247077D01*
X9114231Y7246366D01*
X9114231Y7252462D01*
X9105849Y7253427D01*
G37*
G36*
X9185097Y7252716D02*
G01*
X9185097Y7247381D01*
X9207296Y7247381D01*
X9212376Y7246874D01*
X9214561Y7246213D01*
X9216694Y7245299D01*
X9218472Y7243775D01*
X9219590Y7241743D01*
X9220098Y7239355D01*
X9220149Y7215124D01*
X9219234Y7211212D01*
X9216491Y7208469D01*
X9211868Y7206792D01*
X9205417Y7206234D01*
X9192971Y7206234D01*
X9192971Y7247381D01*
X9185097Y7247381D01*
X9185097Y7200900D01*
X9205925Y7200900D01*
X9222333Y7204405D01*
X9227769Y7214870D01*
X9227769Y7237984D01*
X9222333Y7249007D01*
X9205925Y7252716D01*
G37*
G36*
X9127439Y7252716D02*
G01*
X9127439Y7200900D01*
X9134043Y7200900D01*
X9134043Y7244588D01*
X9162491Y7200900D01*
X9171635Y7200900D01*
X9171635Y7252716D01*
X9165031Y7252716D01*
X9165031Y7210044D01*
X9136583Y7252716D01*
G37*
G36*
X9037015Y7252716D02*
G01*
X9024811Y7221981D01*
X9031935Y7221981D01*
X9040571Y7245350D01*
X9041333Y7245350D01*
X9050223Y7221981D01*
X9024811Y7221981D01*
X9016441Y7200900D01*
X9024061Y7200900D01*
X9029903Y7216648D01*
X9052255Y7216648D01*
X9058097Y7200900D01*
X9066225Y7200900D01*
X9045905Y7252716D01*
G37*
G36*
X9066784Y7859928D02*
G01*
X9058300Y7859572D01*
X9050020Y7858404D01*
X9050020Y7852816D01*
X9058656Y7853984D01*
X9065260Y7854340D01*
X9070035Y7854086D01*
X9073134Y7853324D01*
X9073997Y7852562D01*
X9074658Y7851444D01*
X9075064Y7850022D01*
X9075166Y7841132D01*
X9074861Y7838998D01*
X9073896Y7837170D01*
X9072321Y7835595D01*
X9070086Y7834274D01*
X9060332Y7829956D01*
X9052864Y7825790D01*
X9051340Y7824520D01*
X9050274Y7823200D01*
X9048648Y7819542D01*
X9048292Y7817510D01*
X9048242Y7807096D01*
X9083040Y7807096D01*
X9083040Y7812684D01*
X9055608Y7812684D01*
X9055608Y7816240D01*
X9055912Y7818424D01*
X9056878Y7820253D01*
X9058452Y7821828D01*
X9060688Y7823098D01*
X9074759Y7829600D01*
X9077807Y7831226D01*
X9079941Y7832801D01*
X9081465Y7834426D01*
X9082481Y7836357D01*
X9082989Y7838795D01*
X9083040Y7848498D01*
X9082786Y7851343D01*
X9082074Y7853781D01*
X9080906Y7855813D01*
X9079230Y7857388D01*
X9077045Y7858506D01*
X9074200Y7859318D01*
X9070797Y7859775D01*
G37*
G36*
X9136380Y7858912D02*
G01*
X9156446Y7807096D01*
X9165590Y7807096D01*
X9186164Y7858912D01*
X9178544Y7858912D01*
X9161780Y7814462D01*
X9161018Y7814462D01*
X9144508Y7858912D01*
G37*
G36*
X9116568Y7858912D02*
G01*
X9092946Y7824876D01*
X9092946Y7823860D01*
X9099296Y7823860D01*
X9118854Y7852816D01*
X9118854Y7823860D01*
X9092946Y7823860D01*
X9092946Y7818526D01*
X9118854Y7818526D01*
X9118854Y7807096D01*
X9125458Y7807096D01*
X9125458Y7818526D01*
X9131046Y7818526D01*
X9131046Y7823860D01*
X9125458Y7823860D01*
X9125458Y7858912D01*
G37*
G36*
X9069527Y6645960D02*
G01*
X9065615Y6645757D01*
X9058249Y6644436D01*
X9052356Y6642404D01*
X9050680Y6641388D01*
X9049207Y6640118D01*
X9047937Y6638594D01*
X9046972Y6636969D01*
X9046210Y6635140D01*
X9045803Y6633159D01*
X9045651Y6630974D01*
X9045752Y6604711D01*
X9046514Y6601663D01*
X9047175Y6600240D01*
X9048953Y6597954D01*
X9051239Y6596176D01*
X9053880Y6594957D01*
X9060129Y6593027D01*
X9066174Y6592417D01*
X9069527Y6592366D01*
X9078823Y6592925D01*
X9083751Y6593636D01*
X9088831Y6594652D01*
X9088831Y6622592D01*
X9069273Y6622592D01*
X9069273Y6617258D01*
X9081465Y6617258D01*
X9081465Y6598970D01*
X9075572Y6598005D01*
X9070035Y6597700D01*
X9064447Y6597954D01*
X9061704Y6598361D01*
X9059113Y6599224D01*
X9056827Y6600393D01*
X9055049Y6602018D01*
X9053728Y6604152D01*
X9053372Y6605320D01*
X9053271Y6630974D01*
X9057436Y6637985D01*
X9069781Y6640372D01*
X9078925Y6639864D01*
X9087561Y6638594D01*
X9087561Y6644690D01*
X9078976Y6645605D01*
G37*
G36*
X9158427Y6644944D02*
G01*
X9158427Y6639610D01*
X9181896Y6639509D01*
X9184335Y6639356D01*
X9188907Y6638086D01*
X9190786Y6636816D01*
X9192209Y6635038D01*
X9193174Y6632803D01*
X9193479Y6630212D01*
X9193479Y6607352D01*
X9192564Y6603441D01*
X9189770Y6600647D01*
X9185046Y6599021D01*
X9178493Y6598462D01*
X9166047Y6598462D01*
X9166047Y6639610D01*
X9158427Y6639610D01*
X9158427Y6593128D01*
X9179255Y6593128D01*
X9195460Y6596583D01*
X9200845Y6607098D01*
X9200845Y6630212D01*
X9195409Y6641236D01*
X9179001Y6644944D01*
G37*
G36*
X9100515Y6644944D02*
G01*
X9100515Y6593128D01*
X9107373Y6593128D01*
X9107373Y6636816D01*
X9135567Y6593128D01*
X9144965Y6593128D01*
X9144965Y6644944D01*
X9138107Y6644944D01*
X9138107Y6602272D01*
X9109913Y6644944D01*
G37*
G36*
X9130284Y7563612D02*
G01*
X9113926Y7559852D01*
X9108440Y7548625D01*
X9108440Y7523988D01*
X9113926Y7513523D01*
X9130284Y7510018D01*
X9137700Y7510373D01*
X9144762Y7511542D01*
X9144762Y7517384D01*
X9137446Y7516063D01*
X9130792Y7515606D01*
X9124238Y7516164D01*
X9119565Y7517841D01*
X9116720Y7520584D01*
X9115806Y7524496D01*
X9115806Y7548880D01*
X9116110Y7551521D01*
X9116974Y7553706D01*
X9118396Y7555331D01*
X9121495Y7556957D01*
X9123781Y7557617D01*
X9128810Y7558227D01*
X9133535Y7558176D01*
X9140647Y7557160D01*
X9144508Y7556246D01*
X9144508Y7562088D01*
X9137497Y7563205D01*
G37*
G36*
X9155176Y7562596D02*
G01*
X9155176Y7510780D01*
X9162796Y7510780D01*
X9162796Y7534909D01*
X9188196Y7534909D01*
X9188196Y7540244D01*
X9162796Y7540244D01*
X9162796Y7557262D01*
X9190736Y7557262D01*
X9190736Y7562596D01*
G37*
G36*
X9064244Y7562596D02*
G01*
X9064244Y7557770D01*
X9084310Y7557770D01*
X9087612Y7557008D01*
X9089593Y7556246D01*
X9090914Y7554975D01*
X9091676Y7553452D01*
X9091930Y7551420D01*
X9091930Y7542022D01*
X9091726Y7540142D01*
X9091168Y7538516D01*
X9090202Y7537196D01*
X9088882Y7536180D01*
X9087256Y7535418D01*
X9083294Y7534503D01*
X9072118Y7534402D01*
X9072118Y7557770D01*
X9064244Y7557770D01*
X9064244Y7510780D01*
X9072118Y7510780D01*
X9072118Y7529575D01*
X9084513Y7529728D01*
X9088475Y7530287D01*
X9091879Y7531150D01*
X9094724Y7532370D01*
X9096857Y7533995D01*
X9098330Y7536129D01*
X9099245Y7538720D01*
X9099550Y7541768D01*
X9099499Y7553756D01*
X9098991Y7556042D01*
X9097975Y7557973D01*
X9096705Y7559497D01*
X9095130Y7560665D01*
X9092996Y7561529D01*
X9087104Y7562596D01*
G37*
G36*
X9148775Y8132673D02*
G01*
X9148775Y8087207D01*
X9177985Y8087207D01*
X9177985Y8092033D01*
X9155633Y8092033D01*
X9155633Y8132673D01*
G37*
G36*
X9105849Y8132673D02*
G01*
X9105849Y8128101D01*
X9122105Y8128101D01*
X9125966Y8127847D01*
X9128455Y8127085D01*
X9129776Y8125714D01*
X9130233Y8123529D01*
X9130080Y8116925D01*
X9129776Y8115808D01*
X9128455Y8114131D01*
X9127388Y8113471D01*
X9124340Y8112709D01*
X9112707Y8112607D01*
X9112707Y8128101D01*
X9105849Y8128101D01*
X9105849Y8108543D01*
X9123781Y8108543D01*
X9126778Y8108289D01*
X9129674Y8107527D01*
X9130792Y8106765D01*
X9131554Y8105698D01*
X9131960Y8104327D01*
X9132011Y8096605D01*
X9131503Y8094370D01*
X9129979Y8092795D01*
X9126982Y8092033D01*
X9122613Y8091779D01*
X9112707Y8091779D01*
X9112707Y8108543D01*
X9105849Y8108543D01*
X9105849Y8087207D01*
X9126626Y8087359D01*
X9130030Y8087715D01*
X9132824Y8088375D01*
X9135059Y8089239D01*
X9136684Y8090458D01*
X9137904Y8091982D01*
X9138615Y8093862D01*
X9138869Y8096097D01*
X9138869Y8103717D01*
X9138716Y8105190D01*
X9138259Y8106460D01*
X9137548Y8107578D01*
X9135313Y8109458D01*
X9133890Y8110220D01*
X9130487Y8111083D01*
X9130487Y8111337D01*
X9133128Y8112302D01*
X9135059Y8113623D01*
X9136380Y8115452D01*
X9136837Y8117941D01*
X9136735Y8125358D01*
X9136075Y8127644D01*
X9134906Y8129473D01*
X9132874Y8130844D01*
X9129572Y8131962D01*
X9124848Y8132622D01*
G37*
G36*
X9073591Y8132673D02*
G01*
X9062911Y8105749D01*
X9069019Y8105749D01*
X9076639Y8126069D01*
X9077401Y8126069D01*
X9085021Y8105749D01*
X9062911Y8105749D01*
X9055557Y8087207D01*
X9062161Y8087207D01*
X9067241Y8100923D01*
X9086799Y8100923D01*
X9091879Y8087207D01*
X9098991Y8087207D01*
X9081465Y8132673D01*
G37*
G36*
X9168638Y6349492D02*
G01*
X9161780Y6349187D01*
X9156446Y6348222D01*
X9154414Y6347409D01*
X9151264Y6345377D01*
X9150096Y6344158D01*
X9149334Y6342786D01*
X9148419Y6339332D01*
X9148318Y6333236D01*
X9148521Y6330137D01*
X9149080Y6327495D01*
X9150045Y6325311D01*
X9151366Y6323584D01*
X9153296Y6322263D01*
X9155734Y6321298D01*
X9158732Y6320739D01*
X9170619Y6320434D01*
X9172448Y6320231D01*
X9173921Y6319824D01*
X9175902Y6318504D01*
X9176512Y6317488D01*
X9176918Y6316218D01*
X9177020Y6307836D01*
X9176867Y6306210D01*
X9176308Y6304838D01*
X9175445Y6303772D01*
X9174226Y6303010D01*
X9170670Y6302044D01*
X9165590Y6301740D01*
X9157970Y6302197D01*
X9149334Y6303518D01*
X9149334Y6297168D01*
X9157868Y6296202D01*
X9165082Y6295898D01*
X9171330Y6296202D01*
X9176258Y6297168D01*
X9178290Y6298031D01*
X9180017Y6299047D01*
X9181439Y6300317D01*
X9182608Y6301740D01*
X9183522Y6303518D01*
X9184132Y6305550D01*
X9184538Y6307836D01*
X9184640Y6314186D01*
X9184335Y6318250D01*
X9183370Y6321298D01*
X9181642Y6323533D01*
X9180474Y6324396D01*
X9177375Y6325666D01*
X9173210Y6326276D01*
X9164574Y6326378D01*
X9160459Y6326682D01*
X9158884Y6327089D01*
X9157716Y6327648D01*
X9156852Y6328359D01*
X9156192Y6329324D01*
X9155785Y6330391D01*
X9155684Y6337554D01*
X9155836Y6339230D01*
X9156293Y6340602D01*
X9157106Y6341770D01*
X9158224Y6342634D01*
X9159798Y6343192D01*
X9161983Y6343599D01*
X9168130Y6343904D01*
X9174022Y6343599D01*
X9182100Y6342634D01*
X9182100Y6348476D01*
X9174683Y6349238D01*
G37*
G36*
X9103868Y6348476D02*
G01*
X9103868Y6296660D01*
X9139428Y6296660D01*
X9139428Y6301994D01*
X9111488Y6301994D01*
X9111488Y6320790D01*
X9136126Y6320790D01*
X9136126Y6326124D01*
X9111488Y6326124D01*
X9111488Y6343142D01*
X9138666Y6343142D01*
X9138666Y6348476D01*
G37*
G36*
X9050274Y6348476D02*
G01*
X9068562Y6323076D01*
X9049512Y6296660D01*
X9058148Y6296660D01*
X9072880Y6317742D01*
X9087612Y6296660D01*
X9096502Y6296660D01*
X9077198Y6323076D01*
X9095740Y6348476D01*
X9086850Y6348476D01*
X9072880Y6328410D01*
X9059164Y6348476D01*
G37*
G36*
X9396628Y7855712D02*
G01*
X9380220Y7851952D01*
X9374784Y7840725D01*
X9374784Y7816088D01*
X9380220Y7805623D01*
X9396628Y7802118D01*
X9404197Y7802473D01*
X9411106Y7803642D01*
X9411106Y7809484D01*
X9403791Y7808163D01*
X9397136Y7807706D01*
X9390583Y7808264D01*
X9385909Y7809941D01*
X9383064Y7812684D01*
X9382150Y7816596D01*
X9382150Y7840980D01*
X9382455Y7843621D01*
X9383369Y7845806D01*
X9384842Y7847431D01*
X9387992Y7849057D01*
X9390176Y7849717D01*
X9395307Y7850327D01*
X9400133Y7850276D01*
X9407093Y7849260D01*
X9410852Y7848346D01*
X9410852Y7854188D01*
X9403842Y7855305D01*
G37*
G36*
X9416694Y7854696D02*
G01*
X9416694Y7849362D01*
X9434220Y7849362D01*
X9434220Y7802880D01*
X9442094Y7802880D01*
X9442094Y7849362D01*
X9459620Y7849362D01*
X9459620Y7854696D01*
G37*
G36*
X9444228Y7557516D02*
G01*
X9444228Y7505700D01*
X9451848Y7505700D01*
X9451848Y7529830D01*
X9477248Y7529830D01*
X9477248Y7535164D01*
X9451848Y7535164D01*
X9451848Y7552181D01*
X9479788Y7552181D01*
X9479788Y7557516D01*
G37*
G36*
X9397746Y7557516D02*
G01*
X9397746Y7505700D01*
X9433560Y7505700D01*
X9433560Y7511034D01*
X9405620Y7511034D01*
X9405620Y7529830D01*
X9430004Y7529830D01*
X9430004Y7535164D01*
X9405620Y7535164D01*
X9405620Y7552181D01*
X9432544Y7552181D01*
X9432544Y7557516D01*
G37*
G36*
X9341104Y7557516D02*
G01*
X9341104Y7505700D01*
X9348978Y7505700D01*
X9348978Y7529830D01*
X9376664Y7529830D01*
X9376664Y7505700D01*
X9384284Y7505700D01*
X9384284Y7557516D01*
X9376664Y7557516D01*
X9376664Y7535164D01*
X9348978Y7535164D01*
X9348978Y7557516D01*
G37*
G36*
X9154922Y6948931D02*
G01*
X9150858Y6948678D01*
X9147048Y6948017D01*
X9144558Y6947255D01*
X9142526Y6946087D01*
X9140850Y6944512D01*
X9139478Y6942378D01*
X9138462Y6939686D01*
X9137954Y6936536D01*
X9137911Y6908292D01*
X9145270Y6908292D01*
X9145320Y6937146D01*
X9145828Y6939940D01*
X9146286Y6941058D01*
X9147606Y6942581D01*
X9149588Y6943598D01*
X9152382Y6944004D01*
X9160002Y6943953D01*
X9162796Y6943598D01*
X9164777Y6942581D01*
X9166098Y6941058D01*
X9167063Y6938670D01*
X9167368Y6935470D01*
X9167317Y6906615D01*
X9166809Y6903974D01*
X9165742Y6902145D01*
X9163964Y6901027D01*
X9161526Y6900316D01*
X9158376Y6899960D01*
X9154414Y6899960D01*
X9150959Y6900316D01*
X9148521Y6901027D01*
X9147606Y6901484D01*
X9146286Y6902958D01*
X9145524Y6905193D01*
X9145270Y6908292D01*
X9137911Y6908292D01*
X9138158Y6905294D01*
X9138920Y6902703D01*
X9140088Y6900265D01*
X9141460Y6898640D01*
X9143441Y6897370D01*
X9148165Y6895947D01*
X9152940Y6895388D01*
X9163050Y6895642D01*
X9165590Y6896150D01*
X9167977Y6897014D01*
X9170924Y6898640D01*
X9172295Y6900418D01*
X9173464Y6902703D01*
X9174226Y6905447D01*
X9174480Y6908546D01*
X9174429Y6936790D01*
X9173921Y6939940D01*
X9172905Y6942632D01*
X9171635Y6944664D01*
X9170009Y6946087D01*
X9167825Y6947255D01*
X9162948Y6948525D01*
X9157868Y6948931D01*
G37*
G36*
X9083294Y6947916D02*
G01*
X9083294Y6896100D01*
X9090914Y6896100D01*
X9090914Y6920230D01*
X9118600Y6920230D01*
X9118600Y6896100D01*
X9126220Y6896100D01*
X9126220Y6947916D01*
X9118600Y6947916D01*
X9118600Y6925564D01*
X9090914Y6925564D01*
X9090914Y6947916D01*
G37*
G36*
X9031732Y6947916D02*
G01*
X9031732Y6942581D01*
X9049258Y6942581D01*
X9049258Y6896100D01*
X9057132Y6896100D01*
X9057132Y6942581D01*
X9074658Y6942581D01*
X9074658Y6947916D01*
G37*
G36*
X9381236Y6362192D02*
G01*
X9374378Y6361887D01*
X9369044Y6360922D01*
X9367012Y6360109D01*
X9363862Y6358077D01*
X9362694Y6356858D01*
X9361932Y6355486D01*
X9361017Y6352032D01*
X9360916Y6345936D01*
X9361119Y6342837D01*
X9361678Y6340195D01*
X9362643Y6338011D01*
X9363964Y6336284D01*
X9365894Y6334963D01*
X9368332Y6333998D01*
X9371330Y6333439D01*
X9383217Y6333134D01*
X9385046Y6332931D01*
X9386519Y6332524D01*
X9388500Y6331204D01*
X9389110Y6330188D01*
X9389618Y6327394D01*
X9389465Y6318910D01*
X9388906Y6317538D01*
X9388043Y6316472D01*
X9386824Y6315710D01*
X9385350Y6315151D01*
X9383420Y6314744D01*
X9378188Y6314440D01*
X9370720Y6314897D01*
X9361932Y6316218D01*
X9361932Y6309868D01*
X9370415Y6308902D01*
X9377680Y6308598D01*
X9383928Y6308902D01*
X9388856Y6309868D01*
X9390888Y6310731D01*
X9392615Y6311747D01*
X9394037Y6313017D01*
X9395206Y6314440D01*
X9396120Y6316218D01*
X9396730Y6318250D01*
X9397136Y6320536D01*
X9397238Y6326886D01*
X9396933Y6330950D01*
X9395968Y6333998D01*
X9394240Y6336233D01*
X9393072Y6337096D01*
X9390075Y6338366D01*
X9385909Y6338976D01*
X9377172Y6339078D01*
X9373057Y6339382D01*
X9371482Y6339789D01*
X9370314Y6340348D01*
X9369552Y6341059D01*
X9368637Y6343091D01*
X9368536Y6350254D01*
X9368688Y6351930D01*
X9369094Y6353302D01*
X9369806Y6354470D01*
X9370822Y6355334D01*
X9372396Y6355892D01*
X9374581Y6356299D01*
X9380728Y6356604D01*
X9386620Y6356299D01*
X9394698Y6355334D01*
X9394698Y6361176D01*
X9387281Y6361938D01*
G37*
G36*
X9454642Y6361176D02*
G01*
X9454642Y6356096D01*
X9473184Y6356096D01*
X9477552Y6355842D01*
X9480550Y6355080D01*
X9481413Y6354318D01*
X9482074Y6353352D01*
X9482582Y6350762D01*
X9482429Y6343243D01*
X9482074Y6342024D01*
X9481413Y6340957D01*
X9480550Y6340094D01*
X9479330Y6339433D01*
X9475774Y6338671D01*
X9462516Y6338570D01*
X9462516Y6356096D01*
X9454642Y6356096D01*
X9454642Y6333744D01*
X9475165Y6333744D01*
X9478670Y6333439D01*
X9481870Y6332677D01*
X9483140Y6331813D01*
X9484055Y6330543D01*
X9484563Y6328867D01*
X9484614Y6320028D01*
X9484461Y6318707D01*
X9484004Y6317589D01*
X9483191Y6316675D01*
X9480702Y6315405D01*
X9478924Y6314998D01*
X9473946Y6314694D01*
X9462516Y6314694D01*
X9462516Y6333744D01*
X9454642Y6333744D01*
X9454642Y6309360D01*
X9478518Y6309512D01*
X9482378Y6309918D01*
X9485528Y6310630D01*
X9487916Y6311646D01*
X9489795Y6313017D01*
X9491167Y6314795D01*
X9491980Y6317081D01*
X9492234Y6319774D01*
X9492234Y6328410D01*
X9492081Y6329984D01*
X9491573Y6331458D01*
X9490811Y6332778D01*
X9489694Y6333998D01*
X9486696Y6335725D01*
X9482836Y6336792D01*
X9482836Y6337046D01*
X9485934Y6338062D01*
X9488170Y6339586D01*
X9489490Y6341668D01*
X9489846Y6342989D01*
X9489948Y6351524D01*
X9489643Y6354419D01*
X9488678Y6356604D01*
X9487916Y6357569D01*
X9485477Y6359245D01*
X9481769Y6360464D01*
X9476435Y6361074D01*
G37*
G36*
X9427210Y6361176D02*
G01*
X9411462Y6350254D01*
X9411462Y6343650D01*
X9427210Y6354064D01*
X9427210Y6309360D01*
X9434068Y6309360D01*
X9434068Y6361176D01*
G37*
G36*
X9374886Y6656831D02*
G01*
X9368028Y6656527D01*
X9362694Y6655562D01*
X9360662Y6654749D01*
X9357512Y6652717D01*
X9356344Y6651498D01*
X9355582Y6650126D01*
X9354667Y6646672D01*
X9354566Y6640575D01*
X9354769Y6637477D01*
X9355328Y6634886D01*
X9356293Y6632651D01*
X9357614Y6630924D01*
X9359544Y6629603D01*
X9361982Y6628638D01*
X9364980Y6628079D01*
X9376867Y6627774D01*
X9378696Y6627571D01*
X9380169Y6627164D01*
X9382150Y6625844D01*
X9382760Y6624828D01*
X9383268Y6622034D01*
X9383115Y6613550D01*
X9382556Y6612178D01*
X9381693Y6611112D01*
X9380474Y6610350D01*
X9379000Y6609791D01*
X9377070Y6609384D01*
X9371838Y6609080D01*
X9364370Y6609537D01*
X9355582Y6610858D01*
X9355582Y6604508D01*
X9364065Y6603542D01*
X9371330Y6603238D01*
X9377578Y6603542D01*
X9382506Y6604508D01*
X9384538Y6605371D01*
X9386265Y6606438D01*
X9387687Y6607657D01*
X9388856Y6609080D01*
X9389770Y6610858D01*
X9390380Y6612890D01*
X9390786Y6615175D01*
X9390888Y6621525D01*
X9390583Y6625590D01*
X9389618Y6628638D01*
X9387890Y6630873D01*
X9386722Y6631736D01*
X9383725Y6633006D01*
X9379559Y6633616D01*
X9370822Y6633718D01*
X9366707Y6634022D01*
X9365132Y6634429D01*
X9363964Y6634988D01*
X9363202Y6635699D01*
X9362643Y6636613D01*
X9362287Y6637731D01*
X9362186Y6644894D01*
X9362338Y6646570D01*
X9362744Y6647942D01*
X9363456Y6649110D01*
X9364472Y6649974D01*
X9366046Y6650532D01*
X9368231Y6650939D01*
X9374378Y6651244D01*
X9380270Y6650939D01*
X9388348Y6649974D01*
X9388348Y6655816D01*
X9380931Y6656578D01*
G37*
G36*
X9463532Y6655816D02*
G01*
X9451328Y6625081D01*
X9458452Y6625081D01*
X9467088Y6648450D01*
X9467850Y6648450D01*
X9476740Y6625081D01*
X9451328Y6625081D01*
X9442958Y6604000D01*
X9450578Y6604000D01*
X9456420Y6619748D01*
X9478518Y6619748D01*
X9484614Y6604000D01*
X9492742Y6604000D01*
X9472422Y6655816D01*
G37*
G36*
X9420860Y6655816D02*
G01*
X9405112Y6644894D01*
X9405112Y6638290D01*
X9420860Y6648703D01*
X9420860Y6604000D01*
X9427718Y6604000D01*
X9427718Y6655816D01*
G37*
G36*
X9422130Y6956552D02*
G01*
X9413595Y6956145D01*
X9405366Y6955028D01*
X9405366Y6949440D01*
X9414002Y6950608D01*
X9420606Y6950964D01*
X9425381Y6950709D01*
X9428480Y6949948D01*
X9429496Y6949135D01*
X9430207Y6948068D01*
X9430613Y6946595D01*
X9430766Y6937756D01*
X9430461Y6935622D01*
X9429496Y6933742D01*
X9427921Y6932168D01*
X9425686Y6930898D01*
X9415678Y6926580D01*
X9408261Y6922363D01*
X9405772Y6919823D01*
X9404756Y6918147D01*
X9403994Y6916166D01*
X9403638Y6914134D01*
X9403588Y6903720D01*
X9438386Y6903720D01*
X9438386Y6909308D01*
X9410954Y6909308D01*
X9410954Y6912864D01*
X9411309Y6914997D01*
X9412274Y6916877D01*
X9413951Y6918452D01*
X9416288Y6919722D01*
X9430156Y6926173D01*
X9433204Y6927850D01*
X9435388Y6929374D01*
X9436912Y6931050D01*
X9437827Y6932980D01*
X9438335Y6935368D01*
X9438386Y6945122D01*
X9438132Y6947966D01*
X9437420Y6950405D01*
X9436252Y6952386D01*
X9434576Y6954012D01*
X9432391Y6955129D01*
X9429546Y6955942D01*
X9426143Y6956399D01*
G37*
G36*
X9377426Y6956552D02*
G01*
X9370568Y6956247D01*
X9365234Y6955281D01*
X9363202Y6954469D01*
X9360052Y6952437D01*
X9358884Y6951218D01*
X9358122Y6949846D01*
X9357207Y6946392D01*
X9357106Y6940296D01*
X9357309Y6937197D01*
X9357868Y6934555D01*
X9358833Y6932371D01*
X9360154Y6930644D01*
X9362084Y6929323D01*
X9364522Y6928358D01*
X9367520Y6927799D01*
X9379407Y6927494D01*
X9381236Y6927291D01*
X9382709Y6926884D01*
X9384690Y6925564D01*
X9385300Y6924548D01*
X9385706Y6923278D01*
X9385808Y6914896D01*
X9385655Y6913270D01*
X9385096Y6911898D01*
X9384233Y6910831D01*
X9383014Y6910070D01*
X9381540Y6909511D01*
X9377222Y6908901D01*
X9370771Y6908901D01*
X9362643Y6909816D01*
X9358122Y6910578D01*
X9358122Y6904228D01*
X9366656Y6903262D01*
X9373870Y6902958D01*
X9380118Y6903262D01*
X9385046Y6904228D01*
X9387078Y6905091D01*
X9388805Y6906158D01*
X9390227Y6907377D01*
X9391396Y6908800D01*
X9392259Y6910578D01*
X9392920Y6912609D01*
X9393428Y6917436D01*
X9393326Y6923379D01*
X9392716Y6926935D01*
X9392158Y6928358D01*
X9390430Y6930593D01*
X9389262Y6931456D01*
X9386265Y6932726D01*
X9382099Y6933336D01*
X9373362Y6933438D01*
X9369247Y6933742D01*
X9367672Y6934149D01*
X9366504Y6934708D01*
X9365742Y6935419D01*
X9364827Y6937451D01*
X9364726Y6944614D01*
X9364878Y6946290D01*
X9365284Y6947662D01*
X9365996Y6948830D01*
X9367012Y6949694D01*
X9368586Y6950252D01*
X9370771Y6950659D01*
X9376918Y6950964D01*
X9382810Y6950659D01*
X9390888Y6949694D01*
X9390888Y6955536D01*
X9383471Y6956298D01*
G37*
G36*
X9466072Y6955536D02*
G01*
X9453868Y6924802D01*
X9460992Y6924802D01*
X9469628Y6948170D01*
X9470390Y6948170D01*
X9479280Y6924802D01*
X9453868Y6924802D01*
X9445498Y6903720D01*
X9453118Y6903720D01*
X9458960Y6919468D01*
X9481058Y6919468D01*
X9487154Y6903720D01*
X9495282Y6903720D01*
X9474962Y6955536D01*
G37*
G36*
X9417050Y7262825D02*
G01*
X9408515Y7262418D01*
X9400286Y7261301D01*
X9400286Y7255713D01*
X9408922Y7256830D01*
X9415526Y7257237D01*
X9420301Y7256983D01*
X9423400Y7256221D01*
X9424416Y7255408D01*
X9425127Y7254290D01*
X9425533Y7252868D01*
X9425686Y7244029D01*
X9425381Y7241844D01*
X9424416Y7240016D01*
X9422841Y7238441D01*
X9420606Y7237171D01*
X9410598Y7232853D01*
X9404096Y7229297D01*
X9402368Y7228027D01*
X9400184Y7225284D01*
X9399270Y7223455D01*
X9398711Y7221423D01*
X9398508Y7219391D01*
X9398508Y7209993D01*
X9433306Y7209993D01*
X9433306Y7215581D01*
X9405874Y7215581D01*
X9405874Y7219137D01*
X9406229Y7221270D01*
X9407194Y7223099D01*
X9408871Y7224674D01*
X9411208Y7225995D01*
X9425025Y7232446D01*
X9428073Y7234072D01*
X9430308Y7235647D01*
X9431832Y7237272D01*
X9432747Y7239203D01*
X9433255Y7241641D01*
X9433306Y7251395D01*
X9433052Y7254189D01*
X9432340Y7256627D01*
X9431172Y7258659D01*
X9429496Y7260285D01*
X9427311Y7261352D01*
X9424466Y7262164D01*
X9421063Y7262622D01*
G37*
G36*
X9372346Y7262825D02*
G01*
X9365488Y7262469D01*
X9360154Y7261555D01*
X9356394Y7259777D01*
X9353804Y7257491D01*
X9352483Y7254494D01*
X9352127Y7252665D01*
X9352026Y7246569D01*
X9352229Y7243470D01*
X9352788Y7240828D01*
X9353753Y7238644D01*
X9355074Y7236917D01*
X9357004Y7235545D01*
X9359442Y7234631D01*
X9362440Y7234021D01*
X9372092Y7233869D01*
X9376156Y7233513D01*
X9378696Y7232599D01*
X9379559Y7231837D01*
X9380220Y7230821D01*
X9380728Y7228027D01*
X9380575Y7219492D01*
X9380016Y7218172D01*
X9379153Y7217105D01*
X9377934Y7216343D01*
X9376460Y7215784D01*
X9372142Y7215124D01*
X9365691Y7215174D01*
X9357563Y7216038D01*
X9353042Y7216851D01*
X9353042Y7210501D01*
X9361576Y7209536D01*
X9368790Y7209231D01*
X9374987Y7209536D01*
X9379966Y7210501D01*
X9381998Y7211314D01*
X9383725Y7212380D01*
X9385147Y7213600D01*
X9386316Y7215073D01*
X9387179Y7216851D01*
X9387840Y7218883D01*
X9388348Y7223709D01*
X9388246Y7229652D01*
X9387636Y7233208D01*
X9387078Y7234631D01*
X9385350Y7236815D01*
X9382760Y7238441D01*
X9379254Y7239355D01*
X9374378Y7239711D01*
X9366046Y7239762D01*
X9362592Y7240422D01*
X9361424Y7240981D01*
X9360662Y7241692D01*
X9360103Y7242606D01*
X9359747Y7243724D01*
X9359646Y7250887D01*
X9359798Y7252512D01*
X9360204Y7253935D01*
X9360916Y7255052D01*
X9361932Y7255967D01*
X9365691Y7256881D01*
X9371838Y7257237D01*
X9377730Y7256881D01*
X9385808Y7255967D01*
X9385808Y7261809D01*
X9378391Y7262571D01*
G37*
G36*
X9445752Y7261809D02*
G01*
X9445752Y7256729D01*
X9464294Y7256729D01*
X9468662Y7256475D01*
X9471660Y7255713D01*
X9472523Y7254951D01*
X9473184Y7253986D01*
X9473692Y7251395D01*
X9473539Y7243825D01*
X9473184Y7242606D01*
X9472523Y7241540D01*
X9471660Y7240727D01*
X9470440Y7240016D01*
X9466884Y7239253D01*
X9453626Y7239203D01*
X9453626Y7256729D01*
X9445752Y7256729D01*
X9445752Y7234377D01*
X9467342Y7234275D01*
X9470542Y7233970D01*
X9472168Y7233615D01*
X9473692Y7232903D01*
X9474708Y7231837D01*
X9475470Y7230364D01*
X9475724Y7228535D01*
X9475724Y7220661D01*
X9475571Y7219340D01*
X9475114Y7218222D01*
X9474301Y7217308D01*
X9471812Y7216038D01*
X9467748Y7215378D01*
X9453626Y7215327D01*
X9453626Y7234377D01*
X9445752Y7234377D01*
X9445752Y7209993D01*
X9469628Y7210094D01*
X9473488Y7210552D01*
X9476638Y7211263D01*
X9479026Y7212279D01*
X9480905Y7213600D01*
X9482277Y7215428D01*
X9483090Y7217664D01*
X9483344Y7220407D01*
X9483344Y7229043D01*
X9483191Y7230618D01*
X9482734Y7232091D01*
X9481921Y7233412D01*
X9480804Y7234631D01*
X9479432Y7235545D01*
X9475978Y7236917D01*
X9473946Y7237425D01*
X9473946Y7237679D01*
X9475622Y7238085D01*
X9478264Y7239355D01*
X9480042Y7241184D01*
X9480956Y7243572D01*
X9481058Y7252157D01*
X9480753Y7255052D01*
X9479788Y7257237D01*
X9479026Y7258202D01*
X9476587Y7259828D01*
X9474962Y7260539D01*
X9470390Y7261453D01*
X9464294Y7261809D01*
G37*
G36*
X9893300Y7162800D02*
G01*
X9893300Y7149846D01*
X9975596Y7149846D01*
X9975596Y7149084D01*
X9893300Y7116825D01*
X9893300Y7103872D01*
X9975596Y7072375D01*
X9975596Y7071614D01*
X9893300Y7071614D01*
X9893300Y7058914D01*
X9990582Y7058914D01*
X9990582Y7079996D01*
X9909556Y7109459D01*
X9909556Y7109968D01*
X9990582Y7141209D01*
X9990582Y7162800D01*
G37*
G36*
X9918192Y7036816D02*
G01*
X9910114Y7035698D01*
X9903510Y7032294D01*
X9898380Y7026605D01*
X9894722Y7018629D01*
X9892487Y7008418D01*
X9891776Y6995922D01*
X9892487Y6981698D01*
X9894570Y6968490D01*
X9905746Y6968490D01*
X9903104Y6982358D01*
X9902190Y6994906D01*
X9903256Y7007148D01*
X9906406Y7015835D01*
X9911638Y7021118D01*
X9918954Y7022846D01*
X9964674Y7022846D01*
X9969652Y7022287D01*
X9973767Y7020661D01*
X9976916Y7017969D01*
X9979152Y7014209D01*
X9980676Y7009993D01*
X9981692Y7005574D01*
X9982200Y6995414D01*
X9981336Y6982815D01*
X9978644Y6968998D01*
X9989566Y6968998D01*
X9991648Y6982206D01*
X9992360Y6995922D01*
X9991598Y7008418D01*
X9989261Y7018629D01*
X9985400Y7026605D01*
X9979964Y7032294D01*
X9972954Y7035698D01*
X9964420Y7036816D01*
G37*
G36*
X9918192Y6949186D02*
G01*
X9914382Y6948982D01*
X9910876Y6948373D01*
X9907676Y6947306D01*
X9904730Y6945884D01*
X9902088Y6944055D01*
X9899853Y6941972D01*
X9897922Y6939483D01*
X9896348Y6936740D01*
X9894163Y6930898D01*
X9892792Y6925056D01*
X9892030Y6918655D01*
X9891776Y6911086D01*
X9892487Y6899452D01*
X9894722Y6889902D01*
X9898380Y6882536D01*
X9903510Y6877202D01*
X9910114Y6874052D01*
X9918192Y6872986D01*
X9990582Y6872986D01*
X9990582Y6886956D01*
X9918446Y6886956D01*
X9914229Y6887311D01*
X9910622Y6888480D01*
X9907727Y6890410D01*
X9905492Y6893052D01*
X9903714Y6896353D01*
X9902444Y6900418D01*
X9901682Y6905244D01*
X9901428Y6910831D01*
X9901682Y6916572D01*
X9902444Y6921500D01*
X9903714Y6925665D01*
X9905492Y6929120D01*
X9907727Y6931761D01*
X9910622Y6933692D01*
X9914229Y6934860D01*
X9918446Y6935216D01*
X9990582Y6935216D01*
X9990582Y6949186D01*
G37*
G36*
X7180935Y7388859D02*
G01*
X7175855Y7388707D01*
X7170826Y7388301D01*
X7166102Y7387285D01*
X7161530Y7385659D01*
X7157720Y7383475D01*
X7154621Y7380681D01*
X7153300Y7378852D01*
X7152081Y7376617D01*
X7150252Y7371486D01*
X7149592Y7368692D01*
X7149084Y7362444D01*
X7149120Y7312406D01*
X7162800Y7312406D01*
X7162901Y7366812D01*
X7163257Y7369708D01*
X7163816Y7372146D01*
X7164578Y7374128D01*
X7165746Y7375652D01*
X7167168Y7376922D01*
X7168896Y7377938D01*
X7170928Y7378700D01*
X7176211Y7379665D01*
X7183374Y7379970D01*
X7190536Y7379665D01*
X7195820Y7378700D01*
X7197852Y7377938D01*
X7199579Y7376922D01*
X7201001Y7375652D01*
X7202170Y7374128D01*
X7203084Y7372146D01*
X7203694Y7369708D01*
X7204100Y7366812D01*
X7204100Y7309408D01*
X7203694Y7306818D01*
X7203084Y7304582D01*
X7202170Y7302753D01*
X7201001Y7301230D01*
X7199579Y7299959D01*
X7197852Y7298944D01*
X7195820Y7298181D01*
X7190638Y7297420D01*
X7183628Y7297166D01*
X7176465Y7297420D01*
X7171181Y7298181D01*
X7169150Y7298944D01*
X7167422Y7299959D01*
X7166000Y7301230D01*
X7164831Y7302753D01*
X7163968Y7304582D01*
X7163308Y7306818D01*
X7162800Y7312406D01*
X7149120Y7312406D01*
X7149592Y7307072D01*
X7150252Y7304379D01*
X7152081Y7299706D01*
X7153198Y7297724D01*
X7155942Y7294625D01*
X7157466Y7293305D01*
X7161428Y7291273D01*
X7166051Y7289952D01*
X7170369Y7289088D01*
X7174738Y7288580D01*
X7180224Y7288326D01*
X7186320Y7288326D01*
X7195972Y7288987D01*
X7200747Y7289901D01*
X7205370Y7291374D01*
X7209180Y7293406D01*
X7210806Y7294625D01*
X7212279Y7296150D01*
X7214819Y7299959D01*
X7216800Y7304735D01*
X7217409Y7307376D01*
X7217918Y7313168D01*
X7217918Y7362444D01*
X7217409Y7369200D01*
X7216800Y7372045D01*
X7214819Y7377023D01*
X7212279Y7380833D01*
X7209180Y7383576D01*
X7207250Y7384745D01*
X7202678Y7386574D01*
X7198258Y7387640D01*
X7194042Y7388352D01*
X7189368Y7388758D01*
G37*
G36*
X7065518Y7387081D02*
G01*
X7065518Y7289800D01*
X7132574Y7289800D01*
X7132574Y7299959D01*
X7079996Y7299959D01*
X7079996Y7335012D01*
X7125970Y7335012D01*
X7125970Y7345172D01*
X7079996Y7345172D01*
X7079996Y7376922D01*
X7131050Y7376922D01*
X7131050Y7387081D01*
G37*
G36*
X6959600Y7387081D02*
G01*
X6959600Y7289800D01*
X6974078Y7289800D01*
X6974078Y7335012D01*
X7025894Y7335012D01*
X7025894Y7289800D01*
X7040372Y7289800D01*
X7040372Y7387081D01*
X7025894Y7387081D01*
X7025894Y7345172D01*
X6974078Y7345172D01*
X6974078Y7387081D01*
G37*
G36*
X7105497Y8163559D02*
G01*
X7100417Y8163407D01*
X7095388Y8163001D01*
X7090664Y8161985D01*
X7086092Y8160359D01*
X7082281Y8158175D01*
X7079183Y8155381D01*
X7077862Y8153552D01*
X7076643Y8151317D01*
X7074763Y8146186D01*
X7073747Y8140344D01*
X7073670Y8087106D01*
X7087362Y8087106D01*
X7087463Y8141512D01*
X7087819Y8144408D01*
X7088378Y8146846D01*
X7089140Y8148828D01*
X7090308Y8150352D01*
X7091730Y8151622D01*
X7093458Y8152638D01*
X7095490Y8153400D01*
X7100773Y8154365D01*
X7107936Y8154670D01*
X7115098Y8154365D01*
X7120381Y8153400D01*
X7122414Y8152638D01*
X7124141Y8151622D01*
X7125563Y8150352D01*
X7126731Y8148828D01*
X7127595Y8146846D01*
X7128256Y8144408D01*
X7128764Y8138159D01*
X7128662Y8084108D01*
X7128256Y8081518D01*
X7127595Y8079282D01*
X7126731Y8077453D01*
X7125563Y8075930D01*
X7124141Y8074659D01*
X7122414Y8073644D01*
X7120381Y8072881D01*
X7115200Y8072120D01*
X7108190Y8071866D01*
X7101027Y8072120D01*
X7095744Y8072881D01*
X7093712Y8073644D01*
X7091984Y8074659D01*
X7090562Y8075930D01*
X7089394Y8077453D01*
X7088479Y8079282D01*
X7087870Y8081518D01*
X7087463Y8084108D01*
X7087362Y8087106D01*
X7073670Y8087106D01*
X7073747Y8084718D01*
X7074763Y8079079D01*
X7076643Y8074406D01*
X7077760Y8072424D01*
X7080503Y8069325D01*
X7082028Y8068005D01*
X7085990Y8065973D01*
X7090613Y8064652D01*
X7094931Y8063788D01*
X7099300Y8063280D01*
X7104786Y8063026D01*
X7110831Y8063026D01*
X7120534Y8063687D01*
X7125360Y8064601D01*
X7129932Y8066074D01*
X7133742Y8068106D01*
X7135368Y8069325D01*
X7136841Y8070850D01*
X7139381Y8074659D01*
X7140448Y8076946D01*
X7141768Y8082076D01*
X7142124Y8084921D01*
X7142124Y8140649D01*
X7141768Y8143900D01*
X7141209Y8146745D01*
X7140448Y8149336D01*
X7139381Y8151723D01*
X7136841Y8155533D01*
X7133691Y8158276D01*
X7131812Y8159445D01*
X7127240Y8161274D01*
X7122820Y8162340D01*
X7118603Y8163052D01*
X7113930Y8163458D01*
G37*
G36*
X6971030Y8161781D02*
G01*
X6971030Y8064500D01*
X6985508Y8064500D01*
X6985508Y8109712D01*
X7037324Y8109712D01*
X7037324Y8064500D01*
X7051802Y8064500D01*
X7051802Y8161781D01*
X7037324Y8161781D01*
X7037324Y8119872D01*
X6985508Y8119872D01*
X6985508Y8161781D01*
G37*
G36*
X6874256Y8161781D02*
G01*
X6874256Y8151622D01*
X6907275Y8151622D01*
X6907275Y8064500D01*
X6922008Y8064500D01*
X6922008Y8151622D01*
X6954774Y8151622D01*
X6954774Y8161781D01*
G37*
G36*
X9518396Y5526532D02*
G01*
X9513722Y5526379D01*
X9509912Y5525820D01*
X9506864Y5524957D01*
X9504680Y5523738D01*
X9503359Y5522214D01*
X9502394Y5520690D01*
X9501835Y5518962D01*
X9501632Y5516880D01*
X9501686Y5507990D01*
X9508998Y5507990D01*
X9508998Y5516626D01*
X9509506Y5519064D01*
X9510115Y5519978D01*
X9511030Y5520690D01*
X9512350Y5521248D01*
X9516008Y5521858D01*
X9520732Y5521858D01*
X9522714Y5521655D01*
X9524288Y5521248D01*
X9526524Y5519978D01*
X9527235Y5519064D01*
X9527641Y5517946D01*
X9527794Y5516626D01*
X9527794Y5507990D01*
X9527286Y5505450D01*
X9526625Y5504535D01*
X9525762Y5503926D01*
X9522764Y5503164D01*
X9518396Y5502910D01*
X9513874Y5503164D01*
X9511030Y5503926D01*
X9510115Y5504586D01*
X9509506Y5505450D01*
X9508998Y5507990D01*
X9501686Y5507990D01*
X9502089Y5506008D01*
X9503410Y5503926D01*
X9505696Y5502402D01*
X9508998Y5501386D01*
X9508998Y5501132D01*
X9505188Y5499862D01*
X9503664Y5499049D01*
X9501276Y5496915D01*
X9500463Y5495594D01*
X9500006Y5494223D01*
X9499854Y5492750D01*
X9499878Y5482844D01*
X9507728Y5482844D01*
X9507728Y5492496D01*
X9507931Y5494324D01*
X9508591Y5495798D01*
X9509709Y5496864D01*
X9512147Y5497830D01*
X9514332Y5498338D01*
X9522460Y5498338D01*
X9525508Y5497576D01*
X9527082Y5496864D01*
X9528200Y5495798D01*
X9528860Y5494324D01*
X9529064Y5492496D01*
X9529064Y5482844D01*
X9528911Y5481523D01*
X9528454Y5480456D01*
X9527641Y5479491D01*
X9525152Y5478221D01*
X9523374Y5477814D01*
X9518396Y5477510D01*
X9513366Y5477814D01*
X9511487Y5478221D01*
X9510014Y5478780D01*
X9508998Y5479491D01*
X9508286Y5480456D01*
X9507880Y5481523D01*
X9507728Y5482844D01*
X9499878Y5482844D01*
X9500108Y5480507D01*
X9500920Y5478322D01*
X9502292Y5476595D01*
X9504172Y5475224D01*
X9506661Y5474208D01*
X9509912Y5473496D01*
X9513773Y5473090D01*
X9518396Y5472938D01*
X9523018Y5473090D01*
X9526930Y5473496D01*
X9530130Y5474208D01*
X9532620Y5475224D01*
X9534398Y5476595D01*
X9535668Y5478322D01*
X9536430Y5480507D01*
X9536684Y5483098D01*
X9536684Y5492750D01*
X9536531Y5494223D01*
X9536125Y5495594D01*
X9535414Y5496915D01*
X9534398Y5498084D01*
X9531502Y5499862D01*
X9527794Y5501132D01*
X9527794Y5501386D01*
X9530892Y5502402D01*
X9533128Y5503926D01*
X9534448Y5506008D01*
X9534804Y5507329D01*
X9534906Y5516880D01*
X9534702Y5518962D01*
X9534144Y5520690D01*
X9533331Y5522214D01*
X9531858Y5523738D01*
X9529673Y5524957D01*
X9526727Y5525820D01*
X9522968Y5526379D01*
G37*
G36*
X9549638Y5525516D02*
G01*
X9549638Y5499354D01*
X9568738Y5499252D01*
X9570720Y5498846D01*
X9571939Y5498185D01*
X9572802Y5497271D01*
X9573361Y5496052D01*
X9573514Y5494528D01*
X9573514Y5484114D01*
X9573361Y5482691D01*
X9572955Y5481421D01*
X9572244Y5480405D01*
X9571228Y5479542D01*
X9568281Y5478576D01*
X9564116Y5478272D01*
X9557054Y5478729D01*
X9548622Y5480050D01*
X9548622Y5474462D01*
X9556750Y5473344D01*
X9563862Y5472938D01*
X9569958Y5473090D01*
X9572345Y5473598D01*
X9576511Y5475224D01*
X9578187Y5476392D01*
X9579559Y5478068D01*
X9580575Y5480202D01*
X9581083Y5482742D01*
X9581134Y5495798D01*
X9580626Y5498795D01*
X9579102Y5501132D01*
X9576968Y5502656D01*
X9574530Y5503672D01*
X9571990Y5504230D01*
X9568942Y5504434D01*
X9557004Y5504434D01*
X9557004Y5520182D01*
X9579610Y5520182D01*
X9579610Y5525516D01*
G37*
G36*
X9450324Y5525516D02*
G01*
X9450324Y5520182D01*
X9467850Y5520182D01*
X9467850Y5473700D01*
X9475724Y5473700D01*
X9475724Y5520182D01*
X9493250Y5520182D01*
X9493250Y5525516D01*
G37*
G36*
X9418066Y5525516D02*
G01*
X9405862Y5494782D01*
X9412986Y5494782D01*
X9421876Y5518150D01*
X9422384Y5518150D01*
X9431274Y5494782D01*
X9405862Y5494782D01*
X9397492Y5473700D01*
X9405112Y5473700D01*
X9410954Y5489448D01*
X9433306Y5489448D01*
X9439148Y5473700D01*
X9447276Y5473700D01*
X9426956Y5525516D01*
G37*
G36*
X9353804Y5525516D02*
G01*
X9353804Y5520436D01*
X9372600Y5520436D01*
X9376765Y5520182D01*
X9379712Y5519420D01*
X9380575Y5518658D01*
X9381236Y5517692D01*
X9381744Y5515102D01*
X9381591Y5507583D01*
X9381236Y5506313D01*
X9379712Y5504434D01*
X9378492Y5503773D01*
X9376918Y5503265D01*
X9372600Y5502910D01*
X9361678Y5502910D01*
X9361678Y5520436D01*
X9353804Y5520436D01*
X9353804Y5498084D01*
X9374327Y5498084D01*
X9377832Y5497779D01*
X9381032Y5497017D01*
X9382302Y5496153D01*
X9383217Y5494883D01*
X9383725Y5493207D01*
X9383776Y5484368D01*
X9383623Y5483047D01*
X9383115Y5481980D01*
X9382353Y5481015D01*
X9379864Y5479745D01*
X9378086Y5479338D01*
X9373108Y5479034D01*
X9361678Y5479034D01*
X9361678Y5498084D01*
X9353804Y5498084D01*
X9353804Y5473700D01*
X9377680Y5473852D01*
X9381540Y5474258D01*
X9384690Y5474970D01*
X9387078Y5475986D01*
X9388957Y5477357D01*
X9390329Y5479186D01*
X9391142Y5481421D01*
X9391396Y5484114D01*
X9391396Y5492750D01*
X9391243Y5494324D01*
X9390786Y5495798D01*
X9389973Y5497118D01*
X9388856Y5498338D01*
X9385858Y5500065D01*
X9381998Y5501132D01*
X9381998Y5501386D01*
X9385096Y5502402D01*
X9387332Y5503926D01*
X9388652Y5506008D01*
X9389008Y5507329D01*
X9389110Y5515864D01*
X9388805Y5518810D01*
X9387840Y5520944D01*
X9387078Y5521909D01*
X9384639Y5523585D01*
X9380931Y5524804D01*
X9375749Y5525414D01*
G37*
G36*
X6045200Y6108700D02*
G01*
X6045200Y6046470D01*
X6055360Y6046470D01*
X6055360Y6094222D01*
X6142482Y6094222D01*
X6142482Y6108700D01*
G37*
G36*
X6045200Y6030722D02*
G01*
X6045200Y5963920D01*
X6055360Y5963920D01*
X6055360Y6016244D01*
X6090412Y6016244D01*
X6090412Y5970270D01*
X6100572Y5970270D01*
X6100572Y6016244D01*
X6132322Y6016244D01*
X6132322Y5965444D01*
X6142482Y5965444D01*
X6142482Y6030722D01*
G37*
G36*
X6045200Y5943854D02*
G01*
X6045200Y5929376D01*
X6132576Y5929376D01*
X6132525Y5902401D01*
X6132169Y5897321D01*
X6131407Y5892952D01*
X6129528Y5886704D01*
X6128512Y5884773D01*
X6127242Y5883097D01*
X6125718Y5881624D01*
X6123940Y5880354D01*
X6121958Y5879338D01*
X6119723Y5878626D01*
X6117386Y5878220D01*
X6114796Y5878068D01*
X6071870Y5878068D01*
X6064554Y5879795D01*
X6059322Y5885078D01*
X6056172Y5893765D01*
X6055106Y5906008D01*
X6055106Y5929376D01*
X6045200Y5929376D01*
X6045200Y5904992D01*
X6045911Y5892495D01*
X6048146Y5882284D01*
X6051804Y5874308D01*
X6056934Y5868619D01*
X6063538Y5865215D01*
X6071616Y5864098D01*
X6114542Y5864098D01*
X6123076Y5865215D01*
X6130086Y5868619D01*
X6135522Y5874308D01*
X6139383Y5882284D01*
X6141720Y5892495D01*
X6142482Y5904992D01*
X6142482Y5943854D01*
G37*
G36*
X6812788Y5702554D02*
G01*
X6822236Y5684621D01*
X6828790Y5669534D01*
X6832600Y5655818D01*
X6833870Y5642102D01*
X6832549Y5627878D01*
X6828536Y5613654D01*
X6822084Y5598515D01*
X6812788Y5581650D01*
X6824980Y5581650D01*
X6831634Y5592267D01*
X6837121Y5602681D01*
X6841388Y5612892D01*
X6844385Y5622848D01*
X6846214Y5632602D01*
X6846824Y5642102D01*
X6845503Y5657037D01*
X6841490Y5671312D01*
X6834682Y5686094D01*
X6824980Y5702554D01*
G37*
G36*
X6489192Y5702554D02*
G01*
X6479489Y5686094D01*
X6472682Y5671312D01*
X6468668Y5657037D01*
X6467348Y5642102D01*
X6467957Y5632602D01*
X6469786Y5622848D01*
X6472834Y5612892D01*
X6477050Y5602681D01*
X6482537Y5592267D01*
X6489192Y5581650D01*
X6501384Y5581650D01*
X6492240Y5598515D01*
X6485636Y5613654D01*
X6481826Y5627878D01*
X6480556Y5642102D01*
X6481826Y5656072D01*
X6485636Y5670042D01*
X6492138Y5685129D01*
X6501384Y5702554D01*
G37*
G36*
X6788658Y5697982D02*
G01*
X6745224Y5652516D01*
X6791706Y5600700D01*
X6810502Y5600700D01*
X6762242Y5653024D01*
X6806184Y5697982D01*
G37*
G36*
X6730238Y5697982D02*
G01*
X6730238Y5600700D01*
X6744716Y5600700D01*
X6744716Y5697982D01*
G37*
G36*
X6645909Y5697982D02*
G01*
X6645909Y5648960D01*
X6677914Y5648909D01*
X6682587Y5648350D01*
X6685025Y5647690D01*
X6687464Y5646521D01*
X6689191Y5644845D01*
X6690258Y5642610D01*
X6690614Y5639816D01*
X6690614Y5620258D01*
X6690359Y5617514D01*
X6689547Y5615178D01*
X6688175Y5613196D01*
X6686296Y5611622D01*
X6683857Y5610504D01*
X6680758Y5609742D01*
X6677101Y5609234D01*
X6672834Y5609082D01*
X6659676Y5609945D01*
X6643624Y5612638D01*
X6643624Y5601970D01*
X6659067Y5599887D01*
X6674358Y5599176D01*
X6683908Y5599633D01*
X6688175Y5600547D01*
X6692544Y5601868D01*
X6696202Y5603544D01*
X6697725Y5604510D01*
X6700520Y5607253D01*
X6701739Y5608929D01*
X6702806Y5610860D01*
X6704126Y5615178D01*
X6704482Y5617514D01*
X6704584Y5642356D01*
X6704330Y5645150D01*
X6703618Y5647690D01*
X6702450Y5649976D01*
X6700774Y5652008D01*
X6698945Y5653633D01*
X6696964Y5655005D01*
X6694881Y5656072D01*
X6690258Y5657494D01*
X6687718Y5658002D01*
X6681978Y5658358D01*
X6659372Y5658358D01*
X6659372Y5687822D01*
X6702044Y5687822D01*
X6702044Y5697982D01*
G37*
G36*
X6553200Y5697982D02*
G01*
X6523481Y5677408D01*
X6523481Y5665216D01*
X6553200Y5684520D01*
X6553200Y5600700D01*
X6566153Y5600700D01*
X6566153Y5697982D01*
G37*
G36*
X6416548Y5697982D02*
G01*
X6386830Y5677408D01*
X6386830Y5665216D01*
X6416548Y5684520D01*
X6416548Y5600700D01*
X6429502Y5600700D01*
X6429502Y5697982D01*
G37*
G36*
X6286500Y5697982D02*
G01*
X6286500Y5688330D01*
X6321298Y5688330D01*
X6335572Y5685586D01*
X6340348Y5677408D01*
X6340348Y5663946D01*
X6340043Y5660796D01*
X6339128Y5658154D01*
X6337655Y5656072D01*
X6335522Y5654548D01*
X6332728Y5653328D01*
X6329222Y5652465D01*
X6325006Y5651906D01*
X6300978Y5651754D01*
X6300978Y5688330D01*
X6286500Y5688330D01*
X6286500Y5600700D01*
X6300978Y5600700D01*
X6300978Y5642356D01*
X6314948Y5642356D01*
X6342888Y5600700D01*
X6360922Y5600700D01*
X6329680Y5644134D01*
X6334912Y5644438D01*
X6339636Y5645302D01*
X6343904Y5646724D01*
X6347714Y5648706D01*
X6350812Y5651347D01*
X6353048Y5654497D01*
X6354368Y5658104D01*
X6354826Y5662168D01*
X6354826Y5678932D01*
X6354622Y5682640D01*
X6354013Y5685840D01*
X6352946Y5688584D01*
X6351524Y5690870D01*
X6349542Y5692749D01*
X6347104Y5694324D01*
X6344208Y5695543D01*
X6340856Y5696458D01*
X6332118Y5697626D01*
X6320536Y5697982D01*
G37*
G36*
X6602730Y5616956D02*
G01*
X6602730Y5600700D01*
X6620256Y5600700D01*
X6620256Y5616956D01*
G37*
G36*
X6362446Y6461760D02*
G01*
X6349949Y6460998D01*
X6339738Y6458661D01*
X6331762Y6454800D01*
X6326073Y6449364D01*
X6322669Y6442354D01*
X6321552Y6433820D01*
X6321552Y6387592D01*
X6322669Y6379514D01*
X6326073Y6372910D01*
X6331762Y6367780D01*
X6339738Y6364122D01*
X6349949Y6361887D01*
X6362446Y6361176D01*
X6376466Y6361887D01*
X6389624Y6363970D01*
X6389624Y6375146D01*
X6375958Y6372453D01*
X6363462Y6371590D01*
X6351219Y6372656D01*
X6342481Y6375755D01*
X6337249Y6381038D01*
X6335522Y6388354D01*
X6335522Y6434074D01*
X6336080Y6439052D01*
X6337706Y6443167D01*
X6340398Y6446316D01*
X6344158Y6448552D01*
X6348272Y6450076D01*
X6352540Y6451092D01*
X6362700Y6451600D01*
X6375247Y6450736D01*
X6389116Y6448044D01*
X6389116Y6458966D01*
X6376111Y6461048D01*
G37*
G36*
X6400038Y6459982D02*
G01*
X6400038Y6449822D01*
X6433058Y6449822D01*
X6433058Y6362700D01*
X6447790Y6362700D01*
X6447790Y6449822D01*
X6480556Y6449822D01*
X6480556Y6459982D01*
G37*
G36*
X6330950Y7361681D02*
G01*
X6330950Y7264400D01*
X6343904Y7264400D01*
X6343904Y7346188D01*
X6396736Y7264400D01*
X6414262Y7264400D01*
X6414262Y7361681D01*
X6401562Y7361681D01*
X6401562Y7281418D01*
X6348476Y7361681D01*
G37*
G36*
X6261608Y7361681D02*
G01*
X6238725Y7304024D01*
X6251956Y7304024D01*
X6268466Y7347966D01*
X6269736Y7347966D01*
X6286246Y7304024D01*
X6238725Y7304024D01*
X6223000Y7264400D01*
X6237224Y7264400D01*
X6248146Y7293864D01*
X6290056Y7293864D01*
X6300978Y7264400D01*
X6316218Y7264400D01*
X6278372Y7361681D01*
G37*
G36*
X6149340Y7361681D02*
G01*
X6149340Y7264400D01*
X6163818Y7264400D01*
X6163818Y7309612D01*
X6211316Y7309612D01*
X6211316Y7319772D01*
X6163818Y7319772D01*
X6163818Y7351522D01*
X6216142Y7351522D01*
X6216142Y7361681D01*
G37*
G36*
X6062218Y7361681D02*
G01*
X6062218Y7264400D01*
X6129274Y7264400D01*
X6129274Y7274559D01*
X6076696Y7274559D01*
X6076696Y7309612D01*
X6122670Y7309612D01*
X6122670Y7319772D01*
X6076696Y7319772D01*
X6076696Y7351522D01*
X6127750Y7351522D01*
X6127750Y7361681D01*
G37*
G36*
X5956300Y7361681D02*
G01*
X5956300Y7264400D01*
X5970778Y7264400D01*
X5970778Y7309612D01*
X6022594Y7309612D01*
X6022594Y7264400D01*
X6037072Y7264400D01*
X6037072Y7361681D01*
X6022594Y7361681D01*
X6022594Y7319772D01*
X5970778Y7319772D01*
X5970778Y7361681D01*
G37*
G36*
X6168644Y8150859D02*
G01*
X6156045Y8150098D01*
X6145784Y8147761D01*
X6137757Y8143900D01*
X6132068Y8138464D01*
X6128613Y8131454D01*
X6127496Y8122920D01*
X6127496Y8076692D01*
X6128613Y8068614D01*
X6132068Y8062010D01*
X6137808Y8056880D01*
X6145784Y8053222D01*
X6156045Y8050987D01*
X6168644Y8050275D01*
X6182664Y8050987D01*
X6195822Y8053070D01*
X6195822Y8064246D01*
X6182004Y8061553D01*
X6169406Y8060690D01*
X6157163Y8061756D01*
X6148425Y8064855D01*
X6143193Y8070138D01*
X6141466Y8077453D01*
X6141466Y8123174D01*
X6142024Y8128152D01*
X6143701Y8132267D01*
X6146444Y8135416D01*
X6150356Y8137652D01*
X6154470Y8139175D01*
X6158738Y8140192D01*
X6168898Y8140700D01*
X6181445Y8139836D01*
X6195314Y8137144D01*
X6195314Y8148066D01*
X6182309Y8150148D01*
G37*
G36*
X6396990Y8149081D02*
G01*
X6396990Y8051800D01*
X6409690Y8051800D01*
X6409690Y8133588D01*
X6462776Y8051800D01*
X6480302Y8051800D01*
X6480302Y8149081D01*
X6467602Y8149081D01*
X6467602Y8068818D01*
X6414516Y8149081D01*
G37*
G36*
X6327648Y8149081D02*
G01*
X6304614Y8091424D01*
X6317996Y8091424D01*
X6334506Y8135366D01*
X6335776Y8135366D01*
X6352286Y8091424D01*
X6304614Y8091424D01*
X6288786Y8051800D01*
X6303264Y8051800D01*
X6314186Y8081264D01*
X6355842Y8081264D01*
X6367018Y8051800D01*
X6382258Y8051800D01*
X6344412Y8149081D01*
G37*
G36*
X6215126Y8149081D02*
G01*
X6215126Y8051800D01*
X6229858Y8051800D01*
X6229858Y8097012D01*
X6277102Y8097012D01*
X6277102Y8107172D01*
X6229858Y8107172D01*
X6229858Y8138922D01*
X6282182Y8138922D01*
X6282182Y8149081D01*
G37*
G36*
X6045200Y8149081D02*
G01*
X6045200Y8139938D01*
X6077864Y8139938D01*
X6083909Y8139531D01*
X6087059Y8138871D01*
X6090716Y8137804D01*
X6092342Y8137042D01*
X6094984Y8134858D01*
X6096508Y8131962D01*
X6097016Y8128253D01*
X6097016Y8110474D01*
X6096660Y8106918D01*
X6095542Y8103920D01*
X6093714Y8101482D01*
X6091174Y8099552D01*
X6088126Y8097977D01*
X6084620Y8096859D01*
X6080658Y8096199D01*
X6076188Y8095996D01*
X6059424Y8095996D01*
X6059424Y8139938D01*
X6045200Y8139938D01*
X6045200Y8051800D01*
X6059678Y8051800D01*
X6059678Y8086852D01*
X6074156Y8086852D01*
X6090208Y8088172D01*
X6101842Y8092186D01*
X6105956Y8095284D01*
X6108903Y8099247D01*
X6110630Y8104022D01*
X6111240Y8109712D01*
X6111138Y8132470D01*
X6110122Y8136788D01*
X6108141Y8140344D01*
X6105753Y8143138D01*
X6102756Y8145322D01*
X6100876Y8146237D01*
X6096508Y8147558D01*
X6092088Y8148370D01*
X6087872Y8148828D01*
X6082995Y8149031D01*
G37*
G36*
X8013700Y8075930D02*
G01*
X8013700Y8059420D01*
X8053324Y8031988D01*
X8013700Y8004556D01*
X8013700Y7987792D01*
X8063230Y8023606D01*
X8110981Y7989316D01*
X8110981Y8005825D01*
X8073390Y8031988D01*
X8110981Y8057896D01*
X8110981Y8074406D01*
X8063230Y8040116D01*
G37*
G36*
X8013700Y7974075D02*
G01*
X8013700Y7907020D01*
X8023859Y7907020D01*
X8023859Y7959344D01*
X8058912Y7959344D01*
X8058912Y7913624D01*
X8069072Y7913624D01*
X8069072Y7959344D01*
X8100822Y7959344D01*
X8100822Y7908544D01*
X8110981Y7908544D01*
X8110981Y7974075D01*
G37*
G36*
X8013700Y7886953D02*
G01*
X8013700Y7874253D01*
X8095488Y7874253D01*
X8013700Y7821422D01*
X8013700Y7803642D01*
X8110981Y7803642D01*
X8110981Y7816596D01*
X8030718Y7816596D01*
X8110981Y7869428D01*
X8110981Y7886953D01*
G37*
G36*
X8013700Y7778496D02*
G01*
X8013700Y7764018D01*
X8101075Y7764018D01*
X8101025Y7737043D01*
X8100669Y7731963D01*
X8099907Y7727594D01*
X8098028Y7721346D01*
X8097012Y7719415D01*
X8095742Y7717739D01*
X8094218Y7716266D01*
X8092440Y7714996D01*
X8090458Y7714081D01*
X8085886Y7713065D01*
X8040370Y7712964D01*
X8033054Y7714691D01*
X8027822Y7719872D01*
X8024672Y7728559D01*
X8023606Y7740650D01*
X8023606Y7764018D01*
X8013700Y7764018D01*
X8013700Y7739634D01*
X8014411Y7727238D01*
X8016646Y7717078D01*
X8020303Y7709153D01*
X8025434Y7703515D01*
X8032038Y7700111D01*
X8040116Y7698994D01*
X8083042Y7698994D01*
X8091576Y7700111D01*
X8098586Y7703515D01*
X8104022Y7709204D01*
X8107883Y7717180D01*
X8110220Y7727391D01*
X8110981Y7739888D01*
X8110981Y7778496D01*
G37*
G36*
X8082025Y7680198D02*
G01*
X8076438Y7679842D01*
X8071662Y7678724D01*
X8067700Y7676896D01*
X8064500Y7674356D01*
X8061959Y7670800D01*
X8060131Y7666228D01*
X8059013Y7660640D01*
X8058658Y7654036D01*
X8058505Y7638491D01*
X8058048Y7635036D01*
X8057235Y7632293D01*
X8056118Y7630159D01*
X8054594Y7628483D01*
X8052612Y7627315D01*
X8050174Y7626603D01*
X8047228Y7626350D01*
X8034781Y7626350D01*
X8031632Y7626654D01*
X8028990Y7627620D01*
X8026908Y7629194D01*
X8025384Y7631430D01*
X8024368Y7634427D01*
X8023656Y7638186D01*
X8023250Y7642555D01*
X8023098Y7647686D01*
X8023961Y7661960D01*
X8026653Y7678420D01*
X8014716Y7678420D01*
X8012836Y7662367D01*
X8012175Y7648702D01*
X8012328Y7642555D01*
X8012785Y7637018D01*
X8013598Y7632141D01*
X8014716Y7627874D01*
X8016189Y7624064D01*
X8018170Y7620812D01*
X8020507Y7618120D01*
X8023352Y7615936D01*
X8026552Y7614259D01*
X8030311Y7613091D01*
X8034680Y7612380D01*
X8039608Y7612125D01*
X8050580Y7612278D01*
X8054086Y7612684D01*
X8057184Y7613396D01*
X8059928Y7614412D01*
X8062163Y7615885D01*
X8064144Y7617714D01*
X8065719Y7619949D01*
X8067040Y7622540D01*
X8068157Y7625588D01*
X8068919Y7629194D01*
X8069427Y7633360D01*
X8069732Y7654086D01*
X8070138Y7657541D01*
X8070850Y7660284D01*
X8071866Y7662418D01*
X8073186Y7664094D01*
X8074863Y7665262D01*
X8076844Y7665974D01*
X8079231Y7666228D01*
X8090408Y7666228D01*
X8093456Y7665923D01*
X8096046Y7665110D01*
X8098180Y7663637D01*
X8099806Y7661656D01*
X8101025Y7658760D01*
X8101888Y7654747D01*
X8102447Y7649514D01*
X8102600Y7643114D01*
X8101990Y7632141D01*
X8100059Y7616952D01*
X8110981Y7616952D01*
X8112150Y7630871D01*
X8112506Y7642098D01*
X8112353Y7648956D01*
X8111947Y7655052D01*
X8111236Y7660386D01*
X8110220Y7664958D01*
X8108797Y7668869D01*
X8107121Y7672120D01*
X8105140Y7674813D01*
X8102853Y7676896D01*
X8100161Y7678318D01*
X8097062Y7679385D01*
X8093659Y7679994D01*
X8089900Y7680198D01*
G37*
G36*
X8100822Y7600442D02*
G01*
X8100822Y7567422D01*
X8013700Y7567422D01*
X8013700Y7552690D01*
X8100822Y7552690D01*
X8100822Y7519924D01*
X8110981Y7519924D01*
X8110981Y7600442D01*
G37*
G36*
X8038592Y7506208D02*
G01*
X8030514Y7505090D01*
X8023910Y7501686D01*
X8018780Y7496048D01*
X8015122Y7488123D01*
X8012887Y7477963D01*
X8012199Y7465314D01*
X8021828Y7465314D01*
X8022894Y7477099D01*
X8026095Y7485481D01*
X8031378Y7490561D01*
X8038846Y7492238D01*
X8085074Y7492238D01*
X8089646Y7491831D01*
X8093506Y7490510D01*
X8096656Y7488377D01*
X8099044Y7485380D01*
X8100822Y7481570D01*
X8102092Y7476947D01*
X8102853Y7471511D01*
X8103108Y7465314D01*
X8101990Y7453528D01*
X8098586Y7445095D01*
X8092948Y7440066D01*
X8085074Y7438390D01*
X8038846Y7438390D01*
X8031378Y7440066D01*
X8026095Y7445146D01*
X8022894Y7453528D01*
X8021828Y7465314D01*
X8012199Y7465314D01*
X8013700Y7448803D01*
X8018272Y7435596D01*
X8026552Y7427010D01*
X8038592Y7424166D01*
X8084820Y7424166D01*
X8093303Y7425334D01*
X8100212Y7428788D01*
X8105597Y7434529D01*
X8109407Y7442555D01*
X8111744Y7452918D01*
X8112506Y7465568D01*
X8111744Y7477963D01*
X8109407Y7488123D01*
X8105495Y7496048D01*
X8100110Y7501686D01*
X8093100Y7505090D01*
X8084566Y7506208D01*
G37*
G36*
X8013700Y7401814D02*
G01*
X8013700Y7387336D01*
X8101838Y7387336D01*
X8101787Y7367219D01*
X8101584Y7364222D01*
X8100314Y7357872D01*
X8099704Y7356094D01*
X8097926Y7353147D01*
X8095386Y7351014D01*
X8093862Y7350302D01*
X8092084Y7349896D01*
X8090153Y7349744D01*
X8072374Y7349744D01*
X8068818Y7350099D01*
X8065820Y7351217D01*
X8063382Y7353046D01*
X8061452Y7355586D01*
X8059877Y7358634D01*
X8058759Y7362190D01*
X8058099Y7366253D01*
X8057896Y7370825D01*
X8057896Y7387336D01*
X8013700Y7387336D01*
X8013700Y7387081D01*
X8048752Y7387081D01*
X8048752Y7372603D01*
X8050072Y7356551D01*
X8054086Y7344918D01*
X8057184Y7340803D01*
X8061147Y7337856D01*
X8065922Y7336129D01*
X8071612Y7335520D01*
X8091931Y7335520D01*
X8096605Y7336028D01*
X8098688Y7336688D01*
X8100568Y7337552D01*
X8103768Y7339838D01*
X8107222Y7344156D01*
X8108137Y7345934D01*
X8109458Y7350252D01*
X8110270Y7354773D01*
X8110728Y7359142D01*
X8110931Y7363917D01*
X8110981Y7401814D01*
G37*
G36*
X9370060Y4734306D02*
G01*
X9363202Y4734153D01*
X9357106Y4733747D01*
X9351772Y4733036D01*
X9347200Y4732020D01*
X9343288Y4730597D01*
X9340037Y4728921D01*
X9337344Y4726940D01*
X9335262Y4724654D01*
X9333687Y4721961D01*
X9332620Y4718862D01*
X9331909Y4715459D01*
X9331706Y4711700D01*
X9331706Y4703826D01*
X9332112Y4698238D01*
X9333230Y4693462D01*
X9335160Y4689500D01*
X9337802Y4686300D01*
X9341358Y4683760D01*
X9345930Y4681931D01*
X9351518Y4680813D01*
X9358122Y4680458D01*
X9373666Y4680305D01*
X9377121Y4679797D01*
X9379864Y4679035D01*
X9381998Y4677918D01*
X9383572Y4676394D01*
X9384690Y4674412D01*
X9385350Y4671974D01*
X9385554Y4669028D01*
X9385554Y4656582D01*
X9385249Y4653432D01*
X9384284Y4650790D01*
X9382709Y4648708D01*
X9380474Y4647184D01*
X9377578Y4646168D01*
X9373920Y4645456D01*
X9369552Y4645050D01*
X9364472Y4644898D01*
X9350197Y4645761D01*
X9333738Y4648454D01*
X9333738Y4636516D01*
X9349790Y4634636D01*
X9363456Y4633976D01*
X9369602Y4634128D01*
X9375140Y4634636D01*
X9380016Y4635398D01*
X9384284Y4636516D01*
X9387941Y4637989D01*
X9391142Y4639970D01*
X9393834Y4642307D01*
X9395968Y4645152D01*
X9397644Y4648352D01*
X9398812Y4652111D01*
X9399524Y4656480D01*
X9399778Y4661408D01*
X9399625Y4672380D01*
X9399219Y4675886D01*
X9398508Y4678984D01*
X9397492Y4681728D01*
X9396120Y4683963D01*
X9394393Y4685944D01*
X9392208Y4687519D01*
X9389618Y4688840D01*
X9386519Y4689957D01*
X9382912Y4690719D01*
X9378645Y4691227D01*
X9358071Y4691532D01*
X9354566Y4691938D01*
X9351721Y4692650D01*
X9349486Y4693666D01*
X9347911Y4694986D01*
X9346793Y4696663D01*
X9346133Y4698644D01*
X9345930Y4701032D01*
X9345930Y4712208D01*
X9346234Y4715256D01*
X9347047Y4717846D01*
X9348520Y4719980D01*
X9350502Y4721606D01*
X9353397Y4722825D01*
X9357410Y4723688D01*
X9362643Y4724247D01*
X9369044Y4724400D01*
X9380016Y4723739D01*
X9395206Y4721860D01*
X9395206Y4732782D01*
X9381185Y4733950D01*
G37*
G36*
X9595612Y4732782D02*
G01*
X9595612Y4723638D01*
X9628276Y4723638D01*
X9634321Y4723231D01*
X9637471Y4722571D01*
X9641128Y4721504D01*
X9642754Y4720742D01*
X9645396Y4718558D01*
X9646920Y4715662D01*
X9647428Y4711954D01*
X9647428Y4694174D01*
X9647072Y4690618D01*
X9645954Y4687620D01*
X9644126Y4685182D01*
X9641586Y4683252D01*
X9638538Y4681677D01*
X9635032Y4680559D01*
X9631070Y4679899D01*
X9626600Y4679696D01*
X9609836Y4679696D01*
X9609836Y4723638D01*
X9595612Y4723638D01*
X9595612Y4635500D01*
X9610090Y4635500D01*
X9610090Y4670552D01*
X9624568Y4670552D01*
X9640620Y4671872D01*
X9652254Y4675886D01*
X9656368Y4678984D01*
X9659315Y4682947D01*
X9661042Y4687722D01*
X9661652Y4693412D01*
X9661550Y4716170D01*
X9660534Y4720488D01*
X9658553Y4724044D01*
X9656165Y4726838D01*
X9653168Y4729022D01*
X9651288Y4729937D01*
X9646920Y4731258D01*
X9642500Y4732070D01*
X9638284Y4732528D01*
X9633407Y4732731D01*
G37*
G36*
X9508490Y4732782D02*
G01*
X9508490Y4635500D01*
X9575292Y4635500D01*
X9575292Y4645660D01*
X9522968Y4645660D01*
X9522968Y4680712D01*
X9568942Y4680712D01*
X9568942Y4690872D01*
X9522968Y4690872D01*
X9522968Y4722622D01*
X9574022Y4722622D01*
X9574022Y4732782D01*
G37*
G36*
X9411716Y4732782D02*
G01*
X9411716Y4722622D01*
X9444736Y4722622D01*
X9444736Y4635500D01*
X9459468Y4635500D01*
X9459468Y4722622D01*
X9492234Y4722622D01*
X9492234Y4732782D01*
G37*
G36*
X9194800Y4732782D02*
G01*
X9194800Y4635500D01*
X9261602Y4635500D01*
X9261602Y4645660D01*
X9209278Y4645660D01*
X9209278Y4680712D01*
X9255252Y4680712D01*
X9255252Y4690872D01*
X9209278Y4690872D01*
X9209278Y4722622D01*
X9260078Y4722622D01*
X9260078Y4732782D01*
G37*
G36*
X9275064Y4683760D02*
G01*
X9275064Y4673092D01*
X9316720Y4673092D01*
X9316720Y4683760D01*
G37*
G36*
X9929876Y5336540D02*
G01*
X9919157Y5336032D01*
X9908794Y5334508D01*
X9908794Y5327650D01*
X9919665Y5329174D01*
X9927844Y5329682D01*
X9933889Y5329326D01*
X9936073Y5328818D01*
X9937750Y5328158D01*
X9938969Y5327192D01*
X9939832Y5325872D01*
X9940391Y5324144D01*
X9940544Y5313172D01*
X9940137Y5310327D01*
X9938969Y5307888D01*
X9936988Y5305907D01*
X9934194Y5304282D01*
X9919258Y5297830D01*
X9914839Y5295392D01*
X9912451Y5293766D01*
X9910673Y5292242D01*
X9909352Y5290667D01*
X9908082Y5288483D01*
X9907066Y5286095D01*
X9906558Y5283555D01*
X9906508Y5270500D01*
X9950196Y5270500D01*
X9950196Y5277612D01*
X9915906Y5277612D01*
X9915906Y5281676D01*
X9916312Y5284419D01*
X9917531Y5286806D01*
X9919614Y5288889D01*
X9922510Y5290566D01*
X9939883Y5298541D01*
X9943693Y5300726D01*
X9946386Y5302656D01*
X9948316Y5304688D01*
X9949484Y5307025D01*
X9950094Y5310073D01*
X9950196Y5322316D01*
X9949891Y5325872D01*
X9948976Y5328869D01*
X9947503Y5331307D01*
X9945370Y5333238D01*
X9942576Y5334660D01*
X9939070Y5335727D01*
X9934854Y5336336D01*
G37*
G36*
X9873996Y5336286D02*
G01*
X9865360Y5335930D01*
X9858756Y5334762D01*
X9856165Y5333898D01*
X9853980Y5332780D01*
X9852253Y5331460D01*
X9850882Y5329936D01*
X9849866Y5328158D01*
X9849154Y5326126D01*
X9848748Y5323840D01*
X9848596Y5316220D01*
X9848850Y5312410D01*
X9849561Y5309158D01*
X9850729Y5306466D01*
X9852406Y5304282D01*
X9854793Y5302605D01*
X9857892Y5301437D01*
X9861651Y5300726D01*
X9866122Y5300472D01*
X9876332Y5300370D01*
X9878720Y5300014D01*
X9880650Y5299456D01*
X9882124Y5298694D01*
X9883140Y5297779D01*
X9883851Y5296458D01*
X9884257Y5294833D01*
X9884410Y5284470D01*
X9884206Y5282387D01*
X9883597Y5280660D01*
X9882530Y5279339D01*
X9881108Y5278374D01*
X9879076Y5277612D01*
X9876586Y5277053D01*
X9873640Y5276697D01*
X9865563Y5276748D01*
X9860686Y5277205D01*
X9855403Y5278018D01*
X9849866Y5279136D01*
X9849866Y5271008D01*
X9860534Y5269890D01*
X9869678Y5269484D01*
X9873792Y5269585D01*
X9877450Y5269941D01*
X9880650Y5270500D01*
X9885883Y5272176D01*
X9888016Y5273446D01*
X9889845Y5274970D01*
X9891268Y5276850D01*
X9892385Y5279034D01*
X9893198Y5281625D01*
X9893655Y5284520D01*
X9893808Y5292598D01*
X9893452Y5297424D01*
X9892284Y5301234D01*
X9891369Y5302758D01*
X9890201Y5304078D01*
X9888728Y5305196D01*
X9886950Y5306060D01*
X9882581Y5307228D01*
X9876536Y5307584D01*
X9866071Y5307685D01*
X9863734Y5308041D01*
X9861753Y5308600D01*
X9860280Y5309362D01*
X9859264Y5310225D01*
X9858552Y5311343D01*
X9858146Y5312664D01*
X9857994Y5321554D01*
X9858197Y5323687D01*
X9858756Y5325414D01*
X9859721Y5326837D01*
X9861042Y5327904D01*
X9862921Y5328666D01*
X9865614Y5329224D01*
X9869068Y5329580D01*
X9876637Y5329580D01*
X9890760Y5327904D01*
X9890760Y5335270D01*
X9881463Y5336032D01*
G37*
G36*
X9965690Y5335524D02*
G01*
X9965690Y5328920D01*
X9989058Y5328920D01*
X9994442Y5328513D01*
X9996424Y5328056D01*
X9997948Y5327396D01*
X9999167Y5326583D01*
X10000030Y5325465D01*
X10000589Y5324043D01*
X10000742Y5314696D01*
X10000589Y5312816D01*
X10000030Y5311190D01*
X9999167Y5309870D01*
X9997948Y5308854D01*
X9996474Y5308092D01*
X9994493Y5307533D01*
X9992156Y5307177D01*
X9975596Y5307076D01*
X9975596Y5328920D01*
X9965690Y5328920D01*
X9965690Y5300980D01*
X9991394Y5300980D01*
X9995712Y5300675D01*
X9997592Y5300319D01*
X9999776Y5299557D01*
X10001402Y5298389D01*
X10002469Y5296865D01*
X10002977Y5294833D01*
X10003028Y5283708D01*
X10002824Y5282031D01*
X10002266Y5280660D01*
X10001300Y5279542D01*
X9999980Y5278628D01*
X9998202Y5277967D01*
X9993122Y5277205D01*
X9975596Y5277104D01*
X9975596Y5300980D01*
X9965690Y5300980D01*
X9965690Y5270500D01*
X9995509Y5270652D01*
X10000284Y5271211D01*
X10004247Y5272074D01*
X10007346Y5273294D01*
X10009682Y5275072D01*
X10011359Y5277358D01*
X10012324Y5280152D01*
X10012680Y5283454D01*
X10012680Y5294376D01*
X10012476Y5296306D01*
X10011867Y5298135D01*
X10010800Y5299760D01*
X10009378Y5301234D01*
X10005618Y5303418D01*
X10000996Y5304790D01*
X10000996Y5305298D01*
X10004806Y5306568D01*
X10006330Y5307380D01*
X10007600Y5308346D01*
X10008616Y5309463D01*
X10009327Y5310886D01*
X10009733Y5312562D01*
X10009886Y5323078D01*
X10009479Y5326888D01*
X10009022Y5328412D01*
X10008362Y5329682D01*
X10007295Y5330901D01*
X10004247Y5332933D01*
X10002266Y5333746D01*
X9999522Y5334508D01*
X9996424Y5335066D01*
X9992918Y5335422D01*
G37*
G36*
X9586976Y5336540D02*
G01*
X9576257Y5336032D01*
X9565894Y5334508D01*
X9565894Y5327650D01*
X9576765Y5329174D01*
X9584944Y5329682D01*
X9590989Y5329326D01*
X9593173Y5328818D01*
X9594850Y5328158D01*
X9596069Y5327192D01*
X9596932Y5325872D01*
X9597491Y5324144D01*
X9597644Y5313172D01*
X9597237Y5310327D01*
X9596069Y5307888D01*
X9594088Y5305907D01*
X9591294Y5304282D01*
X9576358Y5297830D01*
X9571939Y5295392D01*
X9569551Y5293766D01*
X9567773Y5292242D01*
X9566452Y5290667D01*
X9565182Y5288483D01*
X9564166Y5286095D01*
X9563658Y5283555D01*
X9563608Y5270500D01*
X9607296Y5270500D01*
X9607296Y5277612D01*
X9573006Y5277612D01*
X9573006Y5281676D01*
X9573412Y5284419D01*
X9574631Y5286806D01*
X9576714Y5288889D01*
X9579610Y5290566D01*
X9596983Y5298541D01*
X9600793Y5300726D01*
X9603486Y5302656D01*
X9605416Y5304688D01*
X9606584Y5307025D01*
X9607194Y5310073D01*
X9607296Y5322316D01*
X9606991Y5325872D01*
X9606076Y5328869D01*
X9604603Y5331307D01*
X9602470Y5333238D01*
X9599676Y5334660D01*
X9596170Y5335727D01*
X9591954Y5336336D01*
G37*
G36*
X9531096Y5336286D02*
G01*
X9522460Y5335930D01*
X9515856Y5334762D01*
X9513265Y5333898D01*
X9511080Y5332780D01*
X9509353Y5331460D01*
X9507982Y5329936D01*
X9506966Y5328158D01*
X9506254Y5326126D01*
X9505848Y5323840D01*
X9505696Y5316220D01*
X9505950Y5312410D01*
X9506661Y5309158D01*
X9507829Y5306466D01*
X9509506Y5304282D01*
X9511893Y5302605D01*
X9514992Y5301437D01*
X9518751Y5300726D01*
X9523222Y5300472D01*
X9533432Y5300370D01*
X9535820Y5300014D01*
X9537750Y5299456D01*
X9539224Y5298694D01*
X9540240Y5297779D01*
X9540951Y5296458D01*
X9541357Y5294833D01*
X9541510Y5284470D01*
X9541306Y5282387D01*
X9540697Y5280660D01*
X9539630Y5279339D01*
X9538208Y5278374D01*
X9536176Y5277612D01*
X9533686Y5277053D01*
X9530740Y5276697D01*
X9522663Y5276748D01*
X9517786Y5277205D01*
X9512503Y5278018D01*
X9506966Y5279136D01*
X9506966Y5271008D01*
X9517634Y5269890D01*
X9526778Y5269484D01*
X9530892Y5269585D01*
X9534550Y5269941D01*
X9537750Y5270500D01*
X9542983Y5272176D01*
X9545116Y5273446D01*
X9546945Y5274970D01*
X9548368Y5276850D01*
X9549485Y5279034D01*
X9550298Y5281625D01*
X9550755Y5284520D01*
X9550908Y5292598D01*
X9550552Y5297424D01*
X9549384Y5301234D01*
X9548469Y5302758D01*
X9547301Y5304078D01*
X9545828Y5305196D01*
X9544050Y5306060D01*
X9539681Y5307228D01*
X9533636Y5307584D01*
X9523171Y5307685D01*
X9520834Y5308041D01*
X9518853Y5308600D01*
X9517380Y5309362D01*
X9516364Y5310225D01*
X9515652Y5311343D01*
X9515246Y5312664D01*
X9515094Y5321554D01*
X9515297Y5323687D01*
X9515856Y5325414D01*
X9516821Y5326837D01*
X9518142Y5327904D01*
X9520021Y5328666D01*
X9522714Y5329224D01*
X9526168Y5329580D01*
X9533737Y5329580D01*
X9547860Y5327904D01*
X9547860Y5335270D01*
X9538563Y5336032D01*
G37*
G36*
X9641840Y5335524D02*
G01*
X9626457Y5296916D01*
X9635490Y5296916D01*
X9646412Y5326126D01*
X9647174Y5326126D01*
X9658350Y5296916D01*
X9626457Y5296916D01*
X9615932Y5270500D01*
X9625584Y5270500D01*
X9632950Y5290312D01*
X9660636Y5290312D01*
X9668002Y5270500D01*
X9678162Y5270500D01*
X9653016Y5335524D01*
G37*
G36*
X9200896Y5336286D02*
G01*
X9192260Y5335930D01*
X9185656Y5334762D01*
X9183065Y5333898D01*
X9180880Y5332780D01*
X9179153Y5331460D01*
X9177782Y5329936D01*
X9176766Y5328158D01*
X9176054Y5326126D01*
X9175648Y5323840D01*
X9175496Y5316220D01*
X9175750Y5312410D01*
X9176461Y5309158D01*
X9177629Y5306466D01*
X9179306Y5304282D01*
X9181693Y5302605D01*
X9184792Y5301437D01*
X9188551Y5300726D01*
X9193022Y5300472D01*
X9203232Y5300370D01*
X9205620Y5300014D01*
X9207550Y5299456D01*
X9209024Y5298694D01*
X9210040Y5297779D01*
X9210751Y5296458D01*
X9211157Y5294833D01*
X9211310Y5284470D01*
X9211106Y5282387D01*
X9210497Y5280660D01*
X9209430Y5279339D01*
X9208008Y5278374D01*
X9205976Y5277612D01*
X9203486Y5277053D01*
X9200540Y5276697D01*
X9192463Y5276748D01*
X9187586Y5277205D01*
X9182303Y5278018D01*
X9176766Y5279136D01*
X9176766Y5271008D01*
X9187434Y5269890D01*
X9196578Y5269484D01*
X9200692Y5269585D01*
X9204350Y5269941D01*
X9207550Y5270500D01*
X9212783Y5272176D01*
X9214916Y5273446D01*
X9216745Y5274970D01*
X9218168Y5276850D01*
X9219285Y5279034D01*
X9220098Y5281625D01*
X9220555Y5284520D01*
X9220708Y5292598D01*
X9220352Y5297424D01*
X9219184Y5301234D01*
X9218269Y5302758D01*
X9217101Y5304078D01*
X9215628Y5305196D01*
X9213850Y5306060D01*
X9209481Y5307228D01*
X9203436Y5307584D01*
X9192971Y5307685D01*
X9190634Y5308041D01*
X9188653Y5308600D01*
X9187180Y5309362D01*
X9186164Y5310225D01*
X9185452Y5311343D01*
X9185046Y5312664D01*
X9184894Y5321554D01*
X9185097Y5323687D01*
X9185656Y5325414D01*
X9186621Y5326837D01*
X9187942Y5327904D01*
X9189821Y5328666D01*
X9192514Y5329224D01*
X9195968Y5329580D01*
X9203537Y5329580D01*
X9217660Y5327904D01*
X9217660Y5335270D01*
X9208363Y5336032D01*
G37*
G36*
X9311640Y5335524D02*
G01*
X9296257Y5296916D01*
X9305290Y5296916D01*
X9316212Y5326126D01*
X9316974Y5326126D01*
X9328150Y5296916D01*
X9296257Y5296916D01*
X9285732Y5270500D01*
X9295384Y5270500D01*
X9302750Y5290312D01*
X9330436Y5290312D01*
X9337802Y5270500D01*
X9347962Y5270500D01*
X9322816Y5335524D01*
G37*
G36*
X9258300Y5335524D02*
G01*
X9238488Y5321808D01*
X9238488Y5313426D01*
X9258300Y5326380D01*
X9258300Y5270500D01*
X9266936Y5270500D01*
X9266936Y5335524D01*
G37*
G36*
X8870696Y5336286D02*
G01*
X8862060Y5335930D01*
X8855456Y5334762D01*
X8852865Y5333898D01*
X8850680Y5332780D01*
X8848953Y5331460D01*
X8847582Y5329936D01*
X8846566Y5328158D01*
X8845854Y5326126D01*
X8845448Y5323840D01*
X8845296Y5316220D01*
X8845550Y5312410D01*
X8846261Y5309158D01*
X8847429Y5306466D01*
X8849106Y5304282D01*
X8851493Y5302605D01*
X8854592Y5301437D01*
X8858351Y5300726D01*
X8862822Y5300472D01*
X8873032Y5300370D01*
X8875420Y5300014D01*
X8877350Y5299456D01*
X8878824Y5298694D01*
X8879840Y5297779D01*
X8880551Y5296458D01*
X8880957Y5294833D01*
X8881110Y5284470D01*
X8880906Y5282387D01*
X8880297Y5280660D01*
X8879230Y5279339D01*
X8877808Y5278374D01*
X8875776Y5277612D01*
X8873286Y5277053D01*
X8870340Y5276697D01*
X8862263Y5276748D01*
X8857386Y5277205D01*
X8852103Y5278018D01*
X8846566Y5279136D01*
X8846566Y5271008D01*
X8857234Y5269890D01*
X8866378Y5269484D01*
X8870492Y5269585D01*
X8874150Y5269941D01*
X8877350Y5270500D01*
X8882583Y5272176D01*
X8884716Y5273446D01*
X8886545Y5274970D01*
X8887968Y5276850D01*
X8889085Y5279034D01*
X8889898Y5281625D01*
X8890355Y5284520D01*
X8890508Y5292598D01*
X8890152Y5297424D01*
X8888984Y5301234D01*
X8888069Y5302758D01*
X8886901Y5304078D01*
X8885428Y5305196D01*
X8883650Y5306060D01*
X8879281Y5307228D01*
X8873236Y5307584D01*
X8862771Y5307685D01*
X8860434Y5308041D01*
X8858453Y5308600D01*
X8856980Y5309362D01*
X8855964Y5310225D01*
X8855252Y5311343D01*
X8854846Y5312664D01*
X8854694Y5321554D01*
X8854897Y5323687D01*
X8855456Y5325414D01*
X8856421Y5326837D01*
X8857742Y5327904D01*
X8859621Y5328666D01*
X8862314Y5329224D01*
X8865768Y5329580D01*
X8873337Y5329580D01*
X8887460Y5327904D01*
X8887460Y5335270D01*
X8878163Y5336032D01*
G37*
G36*
X8962390Y5335524D02*
G01*
X8962390Y5328920D01*
X8985758Y5328920D01*
X8991142Y5328513D01*
X8993124Y5328056D01*
X8994648Y5327396D01*
X8995867Y5326583D01*
X8996730Y5325465D01*
X8997289Y5324043D01*
X8997442Y5314696D01*
X8997289Y5312816D01*
X8996730Y5311190D01*
X8995867Y5309870D01*
X8994648Y5308854D01*
X8993174Y5308092D01*
X8991193Y5307533D01*
X8988856Y5307177D01*
X8972296Y5307076D01*
X8972296Y5328920D01*
X8962390Y5328920D01*
X8962390Y5300980D01*
X8988094Y5300980D01*
X8992412Y5300675D01*
X8994292Y5300319D01*
X8996476Y5299557D01*
X8998102Y5298389D01*
X8999169Y5296865D01*
X8999677Y5294833D01*
X8999728Y5283708D01*
X8999524Y5282031D01*
X8998966Y5280660D01*
X8998000Y5279542D01*
X8996680Y5278628D01*
X8994902Y5277967D01*
X8989822Y5277205D01*
X8972296Y5277104D01*
X8972296Y5300980D01*
X8962390Y5300980D01*
X8962390Y5270500D01*
X8992209Y5270652D01*
X8996984Y5271211D01*
X9000947Y5272074D01*
X9004046Y5273294D01*
X9006382Y5275072D01*
X9008059Y5277358D01*
X9009024Y5280152D01*
X9009380Y5283454D01*
X9009380Y5294376D01*
X9009176Y5296306D01*
X9008567Y5298135D01*
X9007500Y5299760D01*
X9006078Y5301234D01*
X9002318Y5303418D01*
X8997696Y5304790D01*
X8997696Y5305298D01*
X9001506Y5306568D01*
X9003030Y5307380D01*
X9004300Y5308346D01*
X9005316Y5309463D01*
X9006027Y5310886D01*
X9006433Y5312562D01*
X9006586Y5323078D01*
X9006179Y5326888D01*
X9005722Y5328412D01*
X9005062Y5329682D01*
X9003995Y5330901D01*
X9000947Y5332933D01*
X8998966Y5333746D01*
X8996222Y5334508D01*
X8993124Y5335066D01*
X8989618Y5335422D01*
G37*
G36*
X8928100Y5335524D02*
G01*
X8908288Y5321808D01*
X8908288Y5313426D01*
X8928100Y5326380D01*
X8928100Y5270500D01*
X8936736Y5270500D01*
X8936736Y5335524D01*
G37*
D23*
X7251702Y7366012D02*
G01*
X7309614Y7366012D01*
X6696448Y7394963D02*
G01*
X6696448Y7337051D01*
X6667492Y7366007D02*
G01*
X6725404Y7366007D01*
D25*
X5905449Y5763376D02*
G01*
X5905449Y5714100D01*
X5927801Y6228732D02*
G01*
X5878779Y6228732D01*
X5903163Y6253370D02*
G01*
X5903163Y6204348D01*
D23*
X6464300Y6553200D02*
G01*
X6522211Y6553200D01*
X5921756Y6569455D02*
G01*
X5921756Y6511544D01*
X5892800Y6540500D02*
G01*
X5950711Y6540500D01*
X6464294Y7365992D02*
G01*
X6522206Y7365992D01*
X5896366Y7382266D02*
G01*
X5896366Y7324354D01*
X5867410Y7353310D02*
G01*
X5925322Y7353310D01*
X7470424Y7458661D02*
G01*
X7470424Y7400749D01*
X7508786Y8019082D02*
G01*
X7450874Y8019082D01*
X7479830Y8048038D02*
G01*
X7479830Y7990126D01*
G36*
X6363411Y6307226D02*
G01*
X6363411Y6291173D01*
X6387388Y6291173D01*
X6387388Y6307226D01*
G37*
D10*
X7073900Y6908800D02*
G01*
X7073900Y6883400D01*
X7010400Y6819900D01*
X7010400Y6781800D01*
X7099300Y6781800D01*
X7751231Y6873651D02*
G01*
X7751231Y6305651D01*
X8751229Y6873651D02*
G01*
X8751229Y6305651D01*
X8508766Y6305651D02*
G01*
X8508766Y6362700D01*
X7962900Y6362700D01*
X7962900Y6305651D01*
X7751231Y6305651D02*
G01*
X8751229Y6305651D01*
X8751229Y6873651D02*
G01*
X7751231Y6873651D01*
X7866379Y7946814D02*
G01*
X7866379Y7857914D01*
X7866379Y7832514D01*
X7802879Y7769014D01*
X7872856Y7513431D02*
G01*
X7872856Y7602331D01*
X7872856Y7627731D01*
X7809356Y7691231D01*
X5969845Y7054425D02*
G01*
X6058745Y7054425D01*
X6084145Y7054425D01*
X6147645Y6990925D01*
X6767405Y7857914D02*
G01*
X6856305Y7857914D01*
X6881705Y7857914D01*
X6945205Y7794414D01*
X5959927Y7859483D02*
G01*
X6048827Y7859483D01*
X6074227Y7859483D01*
X6137727Y7795983D01*
X6413500Y7861300D02*
G01*
X6324600Y7861300D01*
X6299200Y7861300D01*
X6235700Y7797800D01*
X7195324Y7860830D02*
G01*
X7106424Y7860830D01*
X7081024Y7860830D01*
X7017524Y7797330D01*
X6418371Y7062538D02*
G01*
X6329471Y7062538D01*
X6304071Y7062538D01*
X6240571Y6999038D01*
X7035800Y7099300D02*
G01*
X6985000Y7150100D01*
X6858000Y7150100D01*
X6807200Y7099300D01*
X7340600Y7099300D02*
G01*
X7289800Y7150100D01*
X7162800Y7150100D01*
X7112000Y7099300D01*
X10121900Y7899400D02*
G01*
X10121900Y7912100D01*
X9880600Y8153400D01*
X8966200Y8153400D01*
X8966200Y6019800D01*
X9880600Y6019800D01*
X9893300Y6019800D01*
X10134600Y6261100D01*
X10121900Y7912100D01*
X7073900Y6121400D02*
G01*
X6819900Y6121400D01*
X6807200Y6121400D01*
X6680200Y6248400D01*
X6680200Y7264400D01*
X7467600Y7264400D01*
X7073900Y6121400D02*
G01*
X7327900Y6121400D01*
X7340600Y6121400D01*
X7467600Y6248400D01*
X7467600Y7264400D01*
X7343140Y7434579D02*
G01*
X7343140Y8011160D01*
X6601459Y8011160D01*
X6601459Y7434579D01*
X7343140Y7434579D01*
X6842759Y7439660D02*
G01*
X6842759Y7490460D01*
X7101840Y7490460D01*
X7101840Y7439660D01*
X9621512Y5571500D02*
G01*
X9301513Y5571500D01*
X9621512Y5731499D02*
G01*
X9301513Y5731499D01*
X9621512Y5571500D02*
G01*
X9621512Y5731499D01*
X9301513Y5571500D02*
G01*
X9301513Y5731499D01*
X9565223Y5571500D02*
G01*
X9565223Y5731499D01*
D22*
X5801868Y5926099D02*
G01*
X5801868Y5794247D01*
X6008877Y5794247D01*
X6008877Y5926073D01*
X5801995Y6039408D02*
G01*
X5801995Y6171412D01*
X6009004Y6171412D01*
X6009004Y6039408D01*
X6621399Y5344795D02*
G01*
X6753402Y5344795D01*
X6753402Y5551804D01*
X6621399Y5551804D01*
X6508191Y5344795D02*
G01*
X6376187Y5344795D01*
X6376187Y5551804D01*
X6508191Y5551804D01*
D10*
X6555740Y6634479D02*
G01*
X6555740Y7211060D01*
X5814059Y7211060D01*
X5814059Y6634479D01*
X6555740Y6634479D01*
X6055359Y6639560D02*
G01*
X6055359Y6690360D01*
X6314440Y6690360D01*
X6314440Y6639560D01*
X6555740Y7434579D02*
G01*
X6555740Y8011160D01*
X5814059Y8011160D01*
X5814059Y7434579D01*
X6555740Y7434579D01*
X6055359Y7439660D02*
G01*
X6055359Y7490460D01*
X6314440Y7490460D01*
X6314440Y7439660D01*
X7396479Y7350760D02*
G01*
X7973059Y7350760D01*
X7973059Y8092439D01*
X7396479Y8092439D01*
X7396479Y7350760D01*
X7401559Y7851139D02*
G01*
X7452359Y7851139D01*
X7452359Y7592060D01*
X7401559Y7592060D01*
X9366021Y5232400D02*
G01*
X10077221Y5232400D01*
X10077221Y4775200D01*
X8795100Y4769799D01*
X8795100Y5003800D01*
X8795100Y5224800D01*
X9366021Y5232400D01*
X9055100Y5224805D02*
G01*
X9822103Y5224805D01*
X9822103Y5146802D01*
X9055100Y5146802D01*
X9055100Y5224805D01*
M02*
