M48
; DRILL file {KiCad (5.1.5)-3} date 11/14/2021 11:27:48 PM
; FORMAT={-:-/ absolute / inch / decimal}
; #@! TF.CreationDate,2021-11-14T23:27:48-05:00
; #@! TF.GenerationSoftware,Kicad,Pcbnew,(5.1.5)-3
; #@! TF.FileFunction,Plated,1,2,PTH
FMAT,2
INCH
T1C0.0157
T2C0.0300
T3C0.0394
%
G90
G05
T1
X4.975Y-3.625
X5.0285Y-3.6535
X5.075Y-4.05
X5.175Y-3.775
X5.2Y-4.05
X5.2215Y-4.225
X5.25Y-3.925
X5.275Y-3.575
X5.3Y-4.0
X5.3Y-4.2
X5.325Y-3.625
X5.425Y-3.5
T2
X5.4Y-4.425
X5.4Y-4.525
X5.4Y-4.625
X5.4Y-4.725
X5.4Y-4.825
X5.5Y-4.425
X5.5Y-4.525
X5.5Y-4.625
X5.5Y-4.725
X5.5Y-4.825
X5.4Y-3.575
X5.4Y-3.675
X5.4Y-3.775
X5.4Y-3.875
X5.4Y-3.975
X5.5Y-3.575
X5.5Y-3.675
X5.5Y-3.775
X5.5Y-3.875
X5.5Y-3.975
T3
X5.0052Y-3.72
X5.0052Y-3.82
X5.0052Y-3.92
X5.1052Y-3.72
X5.1052Y-3.82
X5.1052Y-3.92
X4.95Y-4.2
X4.95Y-4.3
X4.95Y-4.4
X4.95Y-4.5
X4.95Y-4.6
X5.05Y-4.2
X5.05Y-4.3
X5.05Y-4.4
X5.05Y-4.5
X5.05Y-4.6
T0
M30
