M48
; DRILL file {KiCad (6.0.0)} date Thu Jul 21 11:40:18 2022
; FORMAT={-:-/ absolute / inch / decimal}
; #@! TF.CreationDate,2022-07-21T11:40:18+02:00
; #@! TF.GenerationSoftware,Kicad,Pcbnew,(6.0.0)
; #@! TF.FileFunction,Plated,1,2,PTH
FMAT,2
INCH
; #@! TA.AperFunction,Plated,PTH,ViaDrill
T1C0.0157
; #@! TA.AperFunction,Plated,PTH,ComponentDrill
T2C0.0197
; #@! TA.AperFunction,Plated,PTH,ComponentDrill
T3C0.0394
; #@! TA.AperFunction,Plated,PTH,ComponentDrill
T4C0.1260
%
G90
G05
T1
X0.9764Y-1.3465
X0.9764Y-1.4646
X1.3976Y-1.3484
X1.437Y-1.3484
X1.6437Y-1.4567
X2.2047Y-1.4567
X2.6378Y-1.3465
X3.189Y-1.3465
X3.8819Y-1.4409
X3.9764Y-1.3484
X4.3307Y-1.3484
X5.4134Y-1.3484
X6.5256Y-1.3484
X7.2146Y-1.4469
X7.313Y-1.3484
X7.6772Y-1.3484
X8.75Y-1.3484
X9.3012Y-1.3484
X9.4291Y-1.4567
X9.9311Y-1.4567
X10.2165Y-1.3484
X10.2756Y-1.3484
X10.5512Y-1.435
X10.6476Y-1.3484
X10.7185Y-1.3484
X10.7185Y-1.4665
T2
X1.8346Y-1.2992
X1.8623Y-1.2324
X1.8623Y-1.366
X1.9291Y-1.2047
X1.9291Y-1.3937
X1.9959Y-1.2324
X1.9959Y-1.366
X2.0236Y-1.2992
X9.623Y-1.2992
X9.6506Y-1.2324
X9.6506Y-1.366
X9.7175Y-1.2047
X9.7175Y-1.3937
X9.7843Y-1.2324
X9.7843Y-1.366
X9.8119Y-1.2992
T3
X1.5157Y-1.249
X1.5157Y-1.349
X10.1378Y-1.2494
X10.1378Y-1.3494
T4
X1.9291Y-1.2992
X9.7175Y-1.2992
T0
M30
