G04 #@! TF.GenerationSoftware,KiCad,Pcbnew,(5.1.5)-3*
G04 #@! TF.CreationDate,2020-07-03T20:52:06-04:00*
G04 #@! TF.ProjectId,HallEffectXY-Endstop,48616c6c-4566-4666-9563-7458592d456e,A*
G04 #@! TF.SameCoordinates,Original*
G04 #@! TF.FileFunction,Legend,Top*
G04 #@! TF.FilePolarity,Positive*
%FSLAX46Y46*%
G04 Gerber Fmt 4.6, Leading zero omitted, Abs format (unit mm)*
G04 Created by KiCad (PCBNEW (5.1.5)-3) date 2020-07-03 20:52:06*
%MOMM*%
%LPD*%
G04 APERTURE LIST*
%ADD10C,0.150000*%
%ADD11C,0.300000*%
%ADD12C,0.120000*%
G04 APERTURE END LIST*
D10*
X137361904Y-109384380D02*
X137695238Y-110384380D01*
X138028571Y-109384380D01*
X138361904Y-110384380D02*
X138361904Y-109717714D01*
X138361904Y-109384380D02*
X138314285Y-109432000D01*
X138361904Y-109479619D01*
X138409523Y-109432000D01*
X138361904Y-109384380D01*
X138361904Y-109479619D01*
X138838095Y-109717714D02*
X138838095Y-110384380D01*
X138838095Y-109812952D02*
X138885714Y-109765333D01*
X138980952Y-109717714D01*
X139123809Y-109717714D01*
X139219047Y-109765333D01*
X139266666Y-109860571D01*
X139266666Y-110384380D01*
X141457142Y-109908190D02*
X141457142Y-110384380D01*
X141123809Y-109384380D02*
X141457142Y-109908190D01*
X141790476Y-109384380D01*
X143552380Y-109384380D02*
X144219047Y-110384380D01*
X144219047Y-109384380D02*
X143552380Y-110384380D01*
X145885714Y-109432000D02*
X145790476Y-109384380D01*
X145647619Y-109384380D01*
X145504761Y-109432000D01*
X145409523Y-109527238D01*
X145361904Y-109622476D01*
X145314285Y-109812952D01*
X145314285Y-109955809D01*
X145361904Y-110146285D01*
X145409523Y-110241523D01*
X145504761Y-110336761D01*
X145647619Y-110384380D01*
X145742857Y-110384380D01*
X145885714Y-110336761D01*
X145933333Y-110289142D01*
X145933333Y-109955809D01*
X145742857Y-109955809D01*
X146361904Y-109717714D02*
X146361904Y-110384380D01*
X146361904Y-109812952D02*
X146409523Y-109765333D01*
X146504761Y-109717714D01*
X146647619Y-109717714D01*
X146742857Y-109765333D01*
X146790476Y-109860571D01*
X146790476Y-110384380D01*
X147695238Y-110384380D02*
X147695238Y-109384380D01*
X147695238Y-110336761D02*
X147600000Y-110384380D01*
X147409523Y-110384380D01*
X147314285Y-110336761D01*
X147266666Y-110289142D01*
X147219047Y-110193904D01*
X147219047Y-109908190D01*
X147266666Y-109812952D01*
X147314285Y-109765333D01*
X147409523Y-109717714D01*
X147600000Y-109717714D01*
X147695238Y-109765333D01*
X140531428Y-105092571D02*
X140531428Y-105435428D01*
X140531428Y-105264000D02*
X139931428Y-105264000D01*
X140017142Y-105321142D01*
X140074285Y-105378285D01*
X140102857Y-105435428D01*
D11*
X157513142Y-101503071D02*
X158513142Y-103003071D01*
X158513142Y-101503071D02*
X157513142Y-103003071D01*
X159370285Y-102288785D02*
X159370285Y-103003071D01*
X158870285Y-101503071D02*
X159370285Y-102288785D01*
X159870285Y-101503071D01*
X161513142Y-102217357D02*
X162013142Y-102217357D01*
X162227428Y-103003071D02*
X161513142Y-103003071D01*
X161513142Y-101503071D01*
X162227428Y-101503071D01*
X162870285Y-102003071D02*
X162870285Y-103003071D01*
X162870285Y-102145928D02*
X162941714Y-102074500D01*
X163084571Y-102003071D01*
X163298857Y-102003071D01*
X163441714Y-102074500D01*
X163513142Y-102217357D01*
X163513142Y-103003071D01*
X164870285Y-103003071D02*
X164870285Y-101503071D01*
X164870285Y-102931642D02*
X164727428Y-103003071D01*
X164441714Y-103003071D01*
X164298857Y-102931642D01*
X164227428Y-102860214D01*
X164156000Y-102717357D01*
X164156000Y-102288785D01*
X164227428Y-102145928D01*
X164298857Y-102074500D01*
X164441714Y-102003071D01*
X164727428Y-102003071D01*
X164870285Y-102074500D01*
X165513142Y-102931642D02*
X165656000Y-103003071D01*
X165941714Y-103003071D01*
X166084571Y-102931642D01*
X166156000Y-102788785D01*
X166156000Y-102717357D01*
X166084571Y-102574500D01*
X165941714Y-102503071D01*
X165727428Y-102503071D01*
X165584571Y-102431642D01*
X165513142Y-102288785D01*
X165513142Y-102217357D01*
X165584571Y-102074500D01*
X165727428Y-102003071D01*
X165941714Y-102003071D01*
X166084571Y-102074500D01*
X166584571Y-102003071D02*
X167156000Y-102003071D01*
X166798857Y-101503071D02*
X166798857Y-102788785D01*
X166870285Y-102931642D01*
X167013142Y-103003071D01*
X167156000Y-103003071D01*
X167870285Y-103003071D02*
X167727428Y-102931642D01*
X167656000Y-102860214D01*
X167584571Y-102717357D01*
X167584571Y-102288785D01*
X167656000Y-102145928D01*
X167727428Y-102074500D01*
X167870285Y-102003071D01*
X168084571Y-102003071D01*
X168227428Y-102074500D01*
X168298857Y-102145928D01*
X168370285Y-102288785D01*
X168370285Y-102717357D01*
X168298857Y-102860214D01*
X168227428Y-102931642D01*
X168084571Y-103003071D01*
X167870285Y-103003071D01*
X169013142Y-102003071D02*
X169013142Y-103503071D01*
X169013142Y-102074500D02*
X169156000Y-102003071D01*
X169441714Y-102003071D01*
X169584571Y-102074500D01*
X169656000Y-102145928D01*
X169727428Y-102288785D01*
X169727428Y-102717357D01*
X169656000Y-102860214D01*
X169584571Y-102931642D01*
X169441714Y-103003071D01*
X169156000Y-103003071D01*
X169013142Y-102931642D01*
D12*
X149935422Y-103299000D02*
X150452578Y-103299000D01*
X149935422Y-104719000D02*
X150452578Y-104719000D01*
X151666000Y-107052422D02*
X151666000Y-107569578D01*
X150246000Y-107052422D02*
X150246000Y-107569578D01*
X149507000Y-107052422D02*
X149507000Y-107569578D01*
X148087000Y-107052422D02*
X148087000Y-107569578D01*
X126676500Y-106085000D02*
X126676500Y-108770000D01*
X126676500Y-108770000D02*
X128596500Y-108770000D01*
X128596500Y-108770000D02*
X128596500Y-106085000D01*
X130679922Y-107645000D02*
X131197078Y-107645000D01*
X130679922Y-109065000D02*
X131197078Y-109065000D01*
X123828500Y-105251000D02*
X123828500Y-106181000D01*
X123828500Y-108411000D02*
X123828500Y-107481000D01*
X123828500Y-108411000D02*
X125988500Y-108411000D01*
X123828500Y-105251000D02*
X125288500Y-105251000D01*
X130679922Y-105105000D02*
X131197078Y-105105000D01*
X130679922Y-106525000D02*
X131197078Y-106525000D01*
X145360000Y-101200000D02*
X145360000Y-99250000D01*
X145360000Y-101200000D02*
X145360000Y-103150000D01*
X140240000Y-101200000D02*
X140240000Y-99250000D01*
X140240000Y-101200000D02*
X140240000Y-104650000D01*
X136108000Y-99478000D02*
X133658000Y-99478000D01*
X134308000Y-102698000D02*
X136108000Y-102698000D01*
X176130000Y-94852000D02*
X176130000Y-96312000D01*
X172970000Y-94852000D02*
X172970000Y-97012000D01*
X172970000Y-94852000D02*
X173900000Y-94852000D01*
X176130000Y-94852000D02*
X175200000Y-94852000D01*
X172661500Y-101240422D02*
X172661500Y-101757578D01*
X174081500Y-101240422D02*
X174081500Y-101757578D01*
X150246000Y-98924422D02*
X150246000Y-99441578D01*
X151666000Y-98924422D02*
X151666000Y-99441578D01*
X149935422Y-96591000D02*
X150452578Y-96591000D01*
X149935422Y-95171000D02*
X150452578Y-95171000D01*
X172893000Y-99538000D02*
X175578000Y-99538000D01*
X172893000Y-97618000D02*
X172893000Y-99538000D01*
X175578000Y-97618000D02*
X172893000Y-97618000D01*
X134921422Y-104958000D02*
X135438578Y-104958000D01*
X134921422Y-103538000D02*
X135438578Y-103538000D01*
X138390000Y-98401422D02*
X138390000Y-98918578D01*
X139810000Y-98401422D02*
X139810000Y-98918578D01*
X174820500Y-101240422D02*
X174820500Y-101757578D01*
X176240500Y-101240422D02*
X176240500Y-101757578D01*
X135466578Y-97076000D02*
X134949422Y-97076000D01*
X135466578Y-98496000D02*
X134949422Y-98496000D01*
X134921422Y-107396400D02*
X135438578Y-107396400D01*
X134921422Y-105976400D02*
X135438578Y-105976400D01*
X148087000Y-98924422D02*
X148087000Y-99441578D01*
X149507000Y-98924422D02*
X149507000Y-99441578D01*
D10*
X150027333Y-102937380D02*
X149694000Y-102461190D01*
X149455904Y-102937380D02*
X149455904Y-101937380D01*
X149836857Y-101937380D01*
X149932095Y-101985000D01*
X149979714Y-102032619D01*
X150027333Y-102127857D01*
X150027333Y-102270714D01*
X149979714Y-102365952D01*
X149932095Y-102413571D01*
X149836857Y-102461190D01*
X149455904Y-102461190D01*
X150979714Y-102937380D02*
X150408285Y-102937380D01*
X150694000Y-102937380D02*
X150694000Y-101937380D01*
X150598761Y-102080238D01*
X150503523Y-102175476D01*
X150408285Y-102223095D01*
X153186380Y-108747666D02*
X152710190Y-109081000D01*
X153186380Y-109319095D02*
X152186380Y-109319095D01*
X152186380Y-108938142D01*
X152234000Y-108842904D01*
X152281619Y-108795285D01*
X152376857Y-108747666D01*
X152519714Y-108747666D01*
X152614952Y-108795285D01*
X152662571Y-108842904D01*
X152710190Y-108938142D01*
X152710190Y-109319095D01*
X152281619Y-108366714D02*
X152234000Y-108319095D01*
X152186380Y-108223857D01*
X152186380Y-107985761D01*
X152234000Y-107890523D01*
X152281619Y-107842904D01*
X152376857Y-107795285D01*
X152472095Y-107795285D01*
X152614952Y-107842904D01*
X153186380Y-108414333D01*
X153186380Y-107795285D01*
X147376142Y-105953666D02*
X147423761Y-106001285D01*
X147471380Y-106144142D01*
X147471380Y-106239380D01*
X147423761Y-106382238D01*
X147328523Y-106477476D01*
X147233285Y-106525095D01*
X147042809Y-106572714D01*
X146899952Y-106572714D01*
X146709476Y-106525095D01*
X146614238Y-106477476D01*
X146519000Y-106382238D01*
X146471380Y-106239380D01*
X146471380Y-106144142D01*
X146519000Y-106001285D01*
X146566619Y-105953666D01*
X147471380Y-105001285D02*
X147471380Y-105572714D01*
X147471380Y-105287000D02*
X146471380Y-105287000D01*
X146614238Y-105382238D01*
X146709476Y-105477476D01*
X146757095Y-105572714D01*
X128088880Y-110617095D02*
X127088880Y-110617095D01*
X127088880Y-110379000D01*
X127136500Y-110236142D01*
X127231738Y-110140904D01*
X127326976Y-110093285D01*
X127517452Y-110045666D01*
X127660309Y-110045666D01*
X127850785Y-110093285D01*
X127946023Y-110140904D01*
X128041261Y-110236142D01*
X128088880Y-110379000D01*
X128088880Y-110617095D01*
X128088880Y-109093285D02*
X128088880Y-109664714D01*
X128088880Y-109379000D02*
X127088880Y-109379000D01*
X127231738Y-109474238D01*
X127326976Y-109569476D01*
X127374595Y-109664714D01*
X130771833Y-110331380D02*
X130438500Y-109855190D01*
X130200404Y-110331380D02*
X130200404Y-109331380D01*
X130581357Y-109331380D01*
X130676595Y-109379000D01*
X130724214Y-109426619D01*
X130771833Y-109521857D01*
X130771833Y-109664714D01*
X130724214Y-109759952D01*
X130676595Y-109807571D01*
X130581357Y-109855190D01*
X130200404Y-109855190D01*
X131248023Y-110331380D02*
X131438500Y-110331380D01*
X131533738Y-110283761D01*
X131581357Y-110236142D01*
X131676595Y-110093285D01*
X131724214Y-109902809D01*
X131724214Y-109521857D01*
X131676595Y-109426619D01*
X131628976Y-109379000D01*
X131533738Y-109331380D01*
X131343261Y-109331380D01*
X131248023Y-109379000D01*
X131200404Y-109426619D01*
X131152785Y-109521857D01*
X131152785Y-109759952D01*
X131200404Y-109855190D01*
X131248023Y-109902809D01*
X131343261Y-109950428D01*
X131533738Y-109950428D01*
X131628976Y-109902809D01*
X131676595Y-109855190D01*
X131724214Y-109759952D01*
X123826595Y-108783380D02*
X123826595Y-109592904D01*
X123874214Y-109688142D01*
X123921833Y-109735761D01*
X124017071Y-109783380D01*
X124207547Y-109783380D01*
X124302785Y-109735761D01*
X124350404Y-109688142D01*
X124398023Y-109592904D01*
X124398023Y-108783380D01*
X125398023Y-109783380D02*
X124826595Y-109783380D01*
X125112309Y-109783380D02*
X125112309Y-108783380D01*
X125017071Y-108926238D01*
X124921833Y-109021476D01*
X124826595Y-109069095D01*
X130771833Y-104522142D02*
X130724214Y-104569761D01*
X130581357Y-104617380D01*
X130486119Y-104617380D01*
X130343261Y-104569761D01*
X130248023Y-104474523D01*
X130200404Y-104379285D01*
X130152785Y-104188809D01*
X130152785Y-104045952D01*
X130200404Y-103855476D01*
X130248023Y-103760238D01*
X130343261Y-103665000D01*
X130486119Y-103617380D01*
X130581357Y-103617380D01*
X130724214Y-103665000D01*
X130771833Y-103712619D01*
X131676595Y-103617380D02*
X131200404Y-103617380D01*
X131152785Y-104093571D01*
X131200404Y-104045952D01*
X131295642Y-103998333D01*
X131533738Y-103998333D01*
X131628976Y-104045952D01*
X131676595Y-104093571D01*
X131724214Y-104188809D01*
X131724214Y-104426904D01*
X131676595Y-104522142D01*
X131628976Y-104569761D01*
X131533738Y-104617380D01*
X131295642Y-104617380D01*
X131200404Y-104569761D01*
X131152785Y-104522142D01*
X142506380Y-97135904D02*
X143315904Y-97135904D01*
X143411142Y-97088285D01*
X143458761Y-97040666D01*
X143506380Y-96945428D01*
X143506380Y-96754952D01*
X143458761Y-96659714D01*
X143411142Y-96612095D01*
X143315904Y-96564476D01*
X142506380Y-96564476D01*
X142506380Y-96183523D02*
X142506380Y-95564476D01*
X142887333Y-95897809D01*
X142887333Y-95754952D01*
X142934952Y-95659714D01*
X142982571Y-95612095D01*
X143077809Y-95564476D01*
X143315904Y-95564476D01*
X143411142Y-95612095D01*
X143458761Y-95659714D01*
X143506380Y-95754952D01*
X143506380Y-96040666D01*
X143458761Y-96135904D01*
X143411142Y-96183523D01*
X132120380Y-101849904D02*
X132929904Y-101849904D01*
X133025142Y-101802285D01*
X133072761Y-101754666D01*
X133120380Y-101659428D01*
X133120380Y-101468952D01*
X133072761Y-101373714D01*
X133025142Y-101326095D01*
X132929904Y-101278476D01*
X132120380Y-101278476D01*
X132453714Y-100373714D02*
X133120380Y-100373714D01*
X132072761Y-100611809D02*
X132787047Y-100849904D01*
X132787047Y-100230857D01*
X171149095Y-93902880D02*
X171149095Y-94712404D01*
X171196714Y-94807642D01*
X171244333Y-94855261D01*
X171339571Y-94902880D01*
X171530047Y-94902880D01*
X171625285Y-94855261D01*
X171672904Y-94807642D01*
X171720523Y-94712404D01*
X171720523Y-93902880D01*
X172149095Y-93998119D02*
X172196714Y-93950500D01*
X172291952Y-93902880D01*
X172530047Y-93902880D01*
X172625285Y-93950500D01*
X172672904Y-93998119D01*
X172720523Y-94093357D01*
X172720523Y-94188595D01*
X172672904Y-94331452D01*
X172101476Y-94902880D01*
X172720523Y-94902880D01*
X172236380Y-102141857D02*
X171760190Y-102475190D01*
X172236380Y-102713285D02*
X171236380Y-102713285D01*
X171236380Y-102332333D01*
X171284000Y-102237095D01*
X171331619Y-102189476D01*
X171426857Y-102141857D01*
X171569714Y-102141857D01*
X171664952Y-102189476D01*
X171712571Y-102237095D01*
X171760190Y-102332333D01*
X171760190Y-102713285D01*
X172236380Y-101189476D02*
X172236380Y-101760904D01*
X172236380Y-101475190D02*
X171236380Y-101475190D01*
X171379238Y-101570428D01*
X171474476Y-101665666D01*
X171522095Y-101760904D01*
X171236380Y-100570428D02*
X171236380Y-100475190D01*
X171284000Y-100379952D01*
X171331619Y-100332333D01*
X171426857Y-100284714D01*
X171617333Y-100237095D01*
X171855428Y-100237095D01*
X172045904Y-100284714D01*
X172141142Y-100332333D01*
X172188761Y-100379952D01*
X172236380Y-100475190D01*
X172236380Y-100570428D01*
X172188761Y-100665666D01*
X172141142Y-100713285D01*
X172045904Y-100760904D01*
X171855428Y-100808523D01*
X171617333Y-100808523D01*
X171426857Y-100760904D01*
X171331619Y-100713285D01*
X171284000Y-100665666D01*
X171236380Y-100570428D01*
X153186380Y-100619666D02*
X152710190Y-100953000D01*
X153186380Y-101191095D02*
X152186380Y-101191095D01*
X152186380Y-100810142D01*
X152234000Y-100714904D01*
X152281619Y-100667285D01*
X152376857Y-100619666D01*
X152519714Y-100619666D01*
X152614952Y-100667285D01*
X152662571Y-100714904D01*
X152710190Y-100810142D01*
X152710190Y-101191095D01*
X152519714Y-99762523D02*
X153186380Y-99762523D01*
X152138761Y-100000619D02*
X152853047Y-100238714D01*
X152853047Y-99619666D01*
X150027333Y-94809380D02*
X149694000Y-94333190D01*
X149455904Y-94809380D02*
X149455904Y-93809380D01*
X149836857Y-93809380D01*
X149932095Y-93857000D01*
X149979714Y-93904619D01*
X150027333Y-93999857D01*
X150027333Y-94142714D01*
X149979714Y-94237952D01*
X149932095Y-94285571D01*
X149836857Y-94333190D01*
X149455904Y-94333190D01*
X150360666Y-93809380D02*
X150979714Y-93809380D01*
X150646380Y-94190333D01*
X150789238Y-94190333D01*
X150884476Y-94237952D01*
X150932095Y-94285571D01*
X150979714Y-94380809D01*
X150979714Y-94618904D01*
X150932095Y-94714142D01*
X150884476Y-94761761D01*
X150789238Y-94809380D01*
X150503523Y-94809380D01*
X150408285Y-94761761D01*
X150360666Y-94714142D01*
X171045904Y-99030380D02*
X171045904Y-98030380D01*
X171284000Y-98030380D01*
X171426857Y-98078000D01*
X171522095Y-98173238D01*
X171569714Y-98268476D01*
X171617333Y-98458952D01*
X171617333Y-98601809D01*
X171569714Y-98792285D01*
X171522095Y-98887523D01*
X171426857Y-98982761D01*
X171284000Y-99030380D01*
X171045904Y-99030380D01*
X171998285Y-98125619D02*
X172045904Y-98078000D01*
X172141142Y-98030380D01*
X172379238Y-98030380D01*
X172474476Y-98078000D01*
X172522095Y-98125619D01*
X172569714Y-98220857D01*
X172569714Y-98316095D01*
X172522095Y-98458952D01*
X171950666Y-99030380D01*
X172569714Y-99030380D01*
X137581333Y-104557142D02*
X137533714Y-104604761D01*
X137390857Y-104652380D01*
X137295619Y-104652380D01*
X137152761Y-104604761D01*
X137057523Y-104509523D01*
X137009904Y-104414285D01*
X136962285Y-104223809D01*
X136962285Y-104080952D01*
X137009904Y-103890476D01*
X137057523Y-103795238D01*
X137152761Y-103700000D01*
X137295619Y-103652380D01*
X137390857Y-103652380D01*
X137533714Y-103700000D01*
X137581333Y-103747619D01*
X138152761Y-104080952D02*
X138057523Y-104033333D01*
X138009904Y-103985714D01*
X137962285Y-103890476D01*
X137962285Y-103842857D01*
X138009904Y-103747619D01*
X138057523Y-103700000D01*
X138152761Y-103652380D01*
X138343238Y-103652380D01*
X138438476Y-103700000D01*
X138486095Y-103747619D01*
X138533714Y-103842857D01*
X138533714Y-103890476D01*
X138486095Y-103985714D01*
X138438476Y-104033333D01*
X138343238Y-104080952D01*
X138152761Y-104080952D01*
X138057523Y-104128571D01*
X138009904Y-104176190D01*
X137962285Y-104271428D01*
X137962285Y-104461904D01*
X138009904Y-104557142D01*
X138057523Y-104604761D01*
X138152761Y-104652380D01*
X138343238Y-104652380D01*
X138438476Y-104604761D01*
X138486095Y-104557142D01*
X138533714Y-104461904D01*
X138533714Y-104271428D01*
X138486095Y-104176190D01*
X138438476Y-104128571D01*
X138343238Y-104080952D01*
X139601142Y-96046666D02*
X139648761Y-96094285D01*
X139696380Y-96237142D01*
X139696380Y-96332380D01*
X139648761Y-96475238D01*
X139553523Y-96570476D01*
X139458285Y-96618095D01*
X139267809Y-96665714D01*
X139124952Y-96665714D01*
X138934476Y-96618095D01*
X138839238Y-96570476D01*
X138744000Y-96475238D01*
X138696380Y-96332380D01*
X138696380Y-96237142D01*
X138744000Y-96094285D01*
X138791619Y-96046666D01*
X138696380Y-95713333D02*
X138696380Y-95046666D01*
X139696380Y-95475238D01*
X177538642Y-101475166D02*
X177586261Y-101522785D01*
X177633880Y-101665642D01*
X177633880Y-101760880D01*
X177586261Y-101903738D01*
X177491023Y-101998976D01*
X177395785Y-102046595D01*
X177205309Y-102094214D01*
X177062452Y-102094214D01*
X176871976Y-102046595D01*
X176776738Y-101998976D01*
X176681500Y-101903738D01*
X176633880Y-101760880D01*
X176633880Y-101665642D01*
X176681500Y-101522785D01*
X176729119Y-101475166D01*
X176633880Y-100618023D02*
X176633880Y-100808500D01*
X176681500Y-100903738D01*
X176729119Y-100951357D01*
X176871976Y-101046595D01*
X177062452Y-101094214D01*
X177443404Y-101094214D01*
X177538642Y-101046595D01*
X177586261Y-100998976D01*
X177633880Y-100903738D01*
X177633880Y-100713261D01*
X177586261Y-100618023D01*
X177538642Y-100570404D01*
X177443404Y-100522785D01*
X177205309Y-100522785D01*
X177110071Y-100570404D01*
X177062452Y-100618023D01*
X177014833Y-100713261D01*
X177014833Y-100903738D01*
X177062452Y-100998976D01*
X177110071Y-101046595D01*
X177205309Y-101094214D01*
X135041333Y-96619142D02*
X134993714Y-96666761D01*
X134850857Y-96714380D01*
X134755619Y-96714380D01*
X134612761Y-96666761D01*
X134517523Y-96571523D01*
X134469904Y-96476285D01*
X134422285Y-96285809D01*
X134422285Y-96142952D01*
X134469904Y-95952476D01*
X134517523Y-95857238D01*
X134612761Y-95762000D01*
X134755619Y-95714380D01*
X134850857Y-95714380D01*
X134993714Y-95762000D01*
X135041333Y-95809619D01*
X135898476Y-96047714D02*
X135898476Y-96714380D01*
X135660380Y-95666761D02*
X135422285Y-96381047D01*
X136041333Y-96381047D01*
X135041333Y-108587142D02*
X134993714Y-108634761D01*
X134850857Y-108682380D01*
X134755619Y-108682380D01*
X134612761Y-108634761D01*
X134517523Y-108539523D01*
X134469904Y-108444285D01*
X134422285Y-108253809D01*
X134422285Y-108110952D01*
X134469904Y-107920476D01*
X134517523Y-107825238D01*
X134612761Y-107730000D01*
X134755619Y-107682380D01*
X134850857Y-107682380D01*
X134993714Y-107730000D01*
X135041333Y-107777619D01*
X135374666Y-107682380D02*
X135993714Y-107682380D01*
X135660380Y-108063333D01*
X135803238Y-108063333D01*
X135898476Y-108110952D01*
X135946095Y-108158571D01*
X135993714Y-108253809D01*
X135993714Y-108491904D01*
X135946095Y-108587142D01*
X135898476Y-108634761D01*
X135803238Y-108682380D01*
X135517523Y-108682380D01*
X135422285Y-108634761D01*
X135374666Y-108587142D01*
X147503142Y-99349666D02*
X147550761Y-99397285D01*
X147598380Y-99540142D01*
X147598380Y-99635380D01*
X147550761Y-99778238D01*
X147455523Y-99873476D01*
X147360285Y-99921095D01*
X147169809Y-99968714D01*
X147026952Y-99968714D01*
X146836476Y-99921095D01*
X146741238Y-99873476D01*
X146646000Y-99778238D01*
X146598380Y-99635380D01*
X146598380Y-99540142D01*
X146646000Y-99397285D01*
X146693619Y-99349666D01*
X146693619Y-98968714D02*
X146646000Y-98921095D01*
X146598380Y-98825857D01*
X146598380Y-98587761D01*
X146646000Y-98492523D01*
X146693619Y-98444904D01*
X146788857Y-98397285D01*
X146884095Y-98397285D01*
X147026952Y-98444904D01*
X147598380Y-99016333D01*
X147598380Y-98397285D01*
M02*
