M48
; DRILL file {KiCad (5.1.5)-3} date 7/3/2020 9:15:57 PM
; FORMAT={-:-/ absolute / inch / decimal}
; #@! TF.CreationDate,2020-07-03T21:15:57-04:00
; #@! TF.GenerationSoftware,Kicad,Pcbnew,(5.1.5)-3
; #@! TF.FileFunction,Plated,1,2,PTH
FMAT,2
INCH
T1C0.0157
T2C0.0300
T3C0.0394
%
G90
G05
T1
X4.8951Y-4.1159
X4.9706Y-4.1085
X5.1556Y-4.216
X5.2231Y-3.9798
X5.2431Y-3.8498
X5.412Y-4.1543
X5.4831Y-3.7798
X5.4856Y-4.1685
X5.4981Y-4.0185
X5.5956Y-3.9585
X5.6731Y-3.9898
X5.7185Y-3.8065
X5.9006Y-3.9798
X5.9006Y-4.2998
X6.752Y-3.6811
X6.752Y-4.0648
X6.8701Y-4.0157
X6.962Y-3.6755
T2
X6.0336Y-4.1943
X6.132Y-4.2927
X6.2305Y-4.1943
X6.0336Y-3.8743
X6.132Y-3.9727
X6.2305Y-3.8743
T3
X5.462Y-4.248
X5.562Y-4.248
X5.662Y-4.248
X5.762Y-4.248
T0
M30
