G04 #@! TF.GenerationSoftware,KiCad,Pcbnew,(5.1.5)-3*
G04 #@! TF.CreationDate,2020-07-03T20:52:06-04:00*
G04 #@! TF.ProjectId,HallEffectXY-Endstop,48616c6c-4566-4666-9563-7458592d456e,A*
G04 #@! TF.SameCoordinates,Original*
G04 #@! TF.FileFunction,Legend,Bot*
G04 #@! TF.FilePolarity,Positive*
%FSLAX46Y46*%
G04 Gerber Fmt 4.6, Leading zero omitted, Abs format (unit mm)*
G04 Created by KiCad (PCBNEW (5.1.5)-3) date 2020-07-03 20:52:06*
%MOMM*%
%LPD*%
G04 APERTURE LIST*
%ADD10C,0.150000*%
%ADD11C,0.300000*%
%ADD12C,0.120000*%
G04 APERTURE END LIST*
D10*
X135850690Y-109825380D02*
X135850690Y-108825380D01*
X135469738Y-108825380D01*
X135374500Y-108873000D01*
X135326880Y-108920619D01*
X135279261Y-109015857D01*
X135279261Y-109158714D01*
X135326880Y-109253952D01*
X135374500Y-109301571D01*
X135469738Y-109349190D01*
X135850690Y-109349190D01*
X134707833Y-109825380D02*
X134803071Y-109777761D01*
X134850690Y-109730142D01*
X134898309Y-109634904D01*
X134898309Y-109349190D01*
X134850690Y-109253952D01*
X134803071Y-109206333D01*
X134707833Y-109158714D01*
X134564976Y-109158714D01*
X134469738Y-109206333D01*
X134422119Y-109253952D01*
X134374500Y-109349190D01*
X134374500Y-109634904D01*
X134422119Y-109730142D01*
X134469738Y-109777761D01*
X134564976Y-109825380D01*
X134707833Y-109825380D01*
X134041166Y-109158714D02*
X133850690Y-109825380D01*
X133660214Y-109349190D01*
X133469738Y-109825380D01*
X133279261Y-109158714D01*
X132517357Y-109777761D02*
X132612595Y-109825380D01*
X132803071Y-109825380D01*
X132898309Y-109777761D01*
X132945928Y-109682523D01*
X132945928Y-109301571D01*
X132898309Y-109206333D01*
X132803071Y-109158714D01*
X132612595Y-109158714D01*
X132517357Y-109206333D01*
X132469738Y-109301571D01*
X132469738Y-109396809D01*
X132945928Y-109492047D01*
X132041166Y-109825380D02*
X132041166Y-109158714D01*
X132041166Y-109349190D02*
X131993547Y-109253952D01*
X131945928Y-109206333D01*
X131850690Y-109158714D01*
X131755452Y-109158714D01*
X147171428Y-109432000D02*
X147266666Y-109384380D01*
X147409523Y-109384380D01*
X147552380Y-109432000D01*
X147647619Y-109527238D01*
X147695238Y-109622476D01*
X147742857Y-109812952D01*
X147742857Y-109955809D01*
X147695238Y-110146285D01*
X147647619Y-110241523D01*
X147552380Y-110336761D01*
X147409523Y-110384380D01*
X147314285Y-110384380D01*
X147171428Y-110336761D01*
X147123809Y-110289142D01*
X147123809Y-109955809D01*
X147314285Y-109955809D01*
X146695238Y-109717714D02*
X146695238Y-110384380D01*
X146695238Y-109812952D02*
X146647619Y-109765333D01*
X146552380Y-109717714D01*
X146409523Y-109717714D01*
X146314285Y-109765333D01*
X146266666Y-109860571D01*
X146266666Y-110384380D01*
X145361904Y-110384380D02*
X145361904Y-109384380D01*
X145361904Y-110336761D02*
X145457142Y-110384380D01*
X145647619Y-110384380D01*
X145742857Y-110336761D01*
X145790476Y-110289142D01*
X145838095Y-110193904D01*
X145838095Y-109908190D01*
X145790476Y-109812952D01*
X145742857Y-109765333D01*
X145647619Y-109717714D01*
X145457142Y-109717714D01*
X145361904Y-109765333D01*
X144219047Y-109384380D02*
X143552380Y-110384380D01*
X143552380Y-109384380D02*
X144219047Y-110384380D01*
X141457142Y-109908190D02*
X141457142Y-110384380D01*
X141790476Y-109384380D02*
X141457142Y-109908190D01*
X141123809Y-109384380D01*
X139409523Y-109384380D02*
X139076190Y-110384380D01*
X138742857Y-109384380D01*
X138409523Y-110384380D02*
X138409523Y-109717714D01*
X138409523Y-109384380D02*
X138457142Y-109432000D01*
X138409523Y-109479619D01*
X138361904Y-109432000D01*
X138409523Y-109384380D01*
X138409523Y-109479619D01*
X137933333Y-109717714D02*
X137933333Y-110384380D01*
X137933333Y-109812952D02*
X137885714Y-109765333D01*
X137790476Y-109717714D01*
X137647619Y-109717714D01*
X137552380Y-109765333D01*
X137504761Y-109860571D01*
X137504761Y-110384380D01*
D11*
X161021428Y-103494000D02*
X159521428Y-104494000D01*
X161021428Y-104494000D02*
X159521428Y-103494000D01*
X160235714Y-96120000D02*
X159521428Y-96120000D01*
X161021428Y-95620000D02*
X160235714Y-96120000D01*
X161021428Y-96620000D01*
D12*
X134196578Y-105701500D02*
X133679422Y-105701500D01*
X134196578Y-104281500D02*
X133679422Y-104281500D01*
X132253000Y-106571500D02*
X134938000Y-106571500D01*
X132253000Y-108491500D02*
X132253000Y-106571500D01*
X134938000Y-108491500D02*
X132253000Y-108491500D01*
D10*
X159254000Y-110034000D02*
X155754000Y-110034000D01*
X159254000Y-103034000D02*
X159254000Y-110034000D01*
X152254000Y-103034000D02*
X159254000Y-103034000D01*
X152254000Y-110034000D02*
X152254000Y-103034000D01*
X155754000Y-110034000D02*
X152254000Y-110034000D01*
X159254000Y-101906000D02*
X155754000Y-101906000D01*
X159254000Y-94906000D02*
X159254000Y-101906000D01*
X152254000Y-94906000D02*
X159254000Y-94906000D01*
X152254000Y-101906000D02*
X152254000Y-94906000D01*
X155754000Y-101906000D02*
X152254000Y-101906000D01*
D12*
X147686000Y-109230000D02*
X147686000Y-107900000D01*
X146356000Y-109230000D02*
X147686000Y-109230000D01*
X145086000Y-109230000D02*
X145086000Y-106570000D01*
X145086000Y-106570000D02*
X137406000Y-106570000D01*
X145086000Y-109230000D02*
X137406000Y-109230000D01*
X137406000Y-109230000D02*
X137406000Y-106570000D01*
D10*
X131437666Y-105443880D02*
X131771000Y-104967690D01*
X132009095Y-105443880D02*
X132009095Y-104443880D01*
X131628142Y-104443880D01*
X131532904Y-104491500D01*
X131485285Y-104539119D01*
X131437666Y-104634357D01*
X131437666Y-104777214D01*
X131485285Y-104872452D01*
X131532904Y-104920071D01*
X131628142Y-104967690D01*
X132009095Y-104967690D01*
X130532904Y-104443880D02*
X131009095Y-104443880D01*
X131056714Y-104920071D01*
X131009095Y-104872452D01*
X130913857Y-104824833D01*
X130675761Y-104824833D01*
X130580523Y-104872452D01*
X130532904Y-104920071D01*
X130485285Y-105015309D01*
X130485285Y-105253404D01*
X130532904Y-105348642D01*
X130580523Y-105396261D01*
X130675761Y-105443880D01*
X130913857Y-105443880D01*
X131009095Y-105396261D01*
X131056714Y-105348642D01*
X132072595Y-107983880D02*
X132072595Y-106983880D01*
X131834500Y-106983880D01*
X131691642Y-107031500D01*
X131596404Y-107126738D01*
X131548785Y-107221976D01*
X131501166Y-107412452D01*
X131501166Y-107555309D01*
X131548785Y-107745785D01*
X131596404Y-107841023D01*
X131691642Y-107936261D01*
X131834500Y-107983880D01*
X132072595Y-107983880D01*
X131167833Y-106983880D02*
X130548785Y-106983880D01*
X130882119Y-107364833D01*
X130739261Y-107364833D01*
X130644023Y-107412452D01*
X130596404Y-107460071D01*
X130548785Y-107555309D01*
X130548785Y-107793404D01*
X130596404Y-107888642D01*
X130644023Y-107936261D01*
X130739261Y-107983880D01*
X131024976Y-107983880D01*
X131120214Y-107936261D01*
X131167833Y-107888642D01*
X157063523Y-105986380D02*
X156730190Y-106986380D01*
X156396857Y-105986380D01*
X155492095Y-106986380D02*
X155825428Y-106510190D01*
X156063523Y-106986380D02*
X156063523Y-105986380D01*
X155682571Y-105986380D01*
X155587333Y-106034000D01*
X155539714Y-106081619D01*
X155492095Y-106176857D01*
X155492095Y-106319714D01*
X155539714Y-106414952D01*
X155587333Y-106462571D01*
X155682571Y-106510190D01*
X156063523Y-106510190D01*
X154539714Y-106986380D02*
X155111142Y-106986380D01*
X154825428Y-106986380D02*
X154825428Y-105986380D01*
X154920666Y-106129238D01*
X155015904Y-106224476D01*
X155111142Y-106272095D01*
X157063523Y-97858380D02*
X156730190Y-98858380D01*
X156396857Y-97858380D01*
X155492095Y-98858380D02*
X155825428Y-98382190D01*
X156063523Y-98858380D02*
X156063523Y-97858380D01*
X155682571Y-97858380D01*
X155587333Y-97906000D01*
X155539714Y-97953619D01*
X155492095Y-98048857D01*
X155492095Y-98191714D01*
X155539714Y-98286952D01*
X155587333Y-98334571D01*
X155682571Y-98382190D01*
X156063523Y-98382190D01*
X155111142Y-97953619D02*
X155063523Y-97906000D01*
X154968285Y-97858380D01*
X154730190Y-97858380D01*
X154634952Y-97906000D01*
X154587333Y-97953619D01*
X154539714Y-98048857D01*
X154539714Y-98144095D01*
X154587333Y-98286952D01*
X155158761Y-98858380D01*
X154539714Y-98858380D01*
X148138380Y-107566666D02*
X148852666Y-107566666D01*
X148995523Y-107519047D01*
X149090761Y-107423809D01*
X149138380Y-107280952D01*
X149138380Y-107185714D01*
X149138380Y-108566666D02*
X149138380Y-107995238D01*
X149138380Y-108280952D02*
X148138380Y-108280952D01*
X148281238Y-108185714D01*
X148376476Y-108090476D01*
X148424095Y-107995238D01*
M02*
