G04 #@! TF.GenerationSoftware,KiCad,Pcbnew,(5.1.5)-3*
G04 #@! TF.CreationDate,2020-07-03T21:15:56-04:00*
G04 #@! TF.ProjectId,HallEffectXY-Endstop,48616c6c-4566-4666-9563-7458592d456e,A*
G04 #@! TF.SameCoordinates,Original*
G04 #@! TF.FileFunction,Copper,L1,Top*
G04 #@! TF.FilePolarity,Positive*
%FSLAX46Y46*%
G04 Gerber Fmt 4.6, Leading zero omitted, Abs format (unit mm)*
G04 Created by KiCad (PCBNEW (5.1.5)-3) date 2020-07-03 21:15:56*
%MOMM*%
%LPD*%
G04 APERTURE LIST*
%ADD10C,0.100000*%
%ADD11R,0.900000X0.800000*%
%ADD12C,1.524000*%
%ADD13R,1.060000X0.650000*%
%ADD14R,0.800000X0.900000*%
%ADD15O,1.700000X1.700000*%
%ADD16R,1.700000X1.700000*%
%ADD17C,1.000000*%
%ADD18C,0.508000*%
%ADD19C,0.254000*%
G04 APERTURE END LIST*
G04 #@! TA.AperFunction,SMDPad,CuDef*
D10*
G36*
X149524142Y-103310174D02*
G01*
X149547803Y-103313684D01*
X149571007Y-103319496D01*
X149593529Y-103327554D01*
X149615153Y-103337782D01*
X149635670Y-103350079D01*
X149654883Y-103364329D01*
X149672607Y-103380393D01*
X149688671Y-103398117D01*
X149702921Y-103417330D01*
X149715218Y-103437847D01*
X149725446Y-103459471D01*
X149733504Y-103481993D01*
X149739316Y-103505197D01*
X149742826Y-103528858D01*
X149744000Y-103552750D01*
X149744000Y-104465250D01*
X149742826Y-104489142D01*
X149739316Y-104512803D01*
X149733504Y-104536007D01*
X149725446Y-104558529D01*
X149715218Y-104580153D01*
X149702921Y-104600670D01*
X149688671Y-104619883D01*
X149672607Y-104637607D01*
X149654883Y-104653671D01*
X149635670Y-104667921D01*
X149615153Y-104680218D01*
X149593529Y-104690446D01*
X149571007Y-104698504D01*
X149547803Y-104704316D01*
X149524142Y-104707826D01*
X149500250Y-104709000D01*
X149012750Y-104709000D01*
X148988858Y-104707826D01*
X148965197Y-104704316D01*
X148941993Y-104698504D01*
X148919471Y-104690446D01*
X148897847Y-104680218D01*
X148877330Y-104667921D01*
X148858117Y-104653671D01*
X148840393Y-104637607D01*
X148824329Y-104619883D01*
X148810079Y-104600670D01*
X148797782Y-104580153D01*
X148787554Y-104558529D01*
X148779496Y-104536007D01*
X148773684Y-104512803D01*
X148770174Y-104489142D01*
X148769000Y-104465250D01*
X148769000Y-103552750D01*
X148770174Y-103528858D01*
X148773684Y-103505197D01*
X148779496Y-103481993D01*
X148787554Y-103459471D01*
X148797782Y-103437847D01*
X148810079Y-103417330D01*
X148824329Y-103398117D01*
X148840393Y-103380393D01*
X148858117Y-103364329D01*
X148877330Y-103350079D01*
X148897847Y-103337782D01*
X148919471Y-103327554D01*
X148941993Y-103319496D01*
X148965197Y-103313684D01*
X148988858Y-103310174D01*
X149012750Y-103309000D01*
X149500250Y-103309000D01*
X149524142Y-103310174D01*
G37*
G04 #@! TD.AperFunction*
G04 #@! TA.AperFunction,SMDPad,CuDef*
G36*
X151399142Y-103310174D02*
G01*
X151422803Y-103313684D01*
X151446007Y-103319496D01*
X151468529Y-103327554D01*
X151490153Y-103337782D01*
X151510670Y-103350079D01*
X151529883Y-103364329D01*
X151547607Y-103380393D01*
X151563671Y-103398117D01*
X151577921Y-103417330D01*
X151590218Y-103437847D01*
X151600446Y-103459471D01*
X151608504Y-103481993D01*
X151614316Y-103505197D01*
X151617826Y-103528858D01*
X151619000Y-103552750D01*
X151619000Y-104465250D01*
X151617826Y-104489142D01*
X151614316Y-104512803D01*
X151608504Y-104536007D01*
X151600446Y-104558529D01*
X151590218Y-104580153D01*
X151577921Y-104600670D01*
X151563671Y-104619883D01*
X151547607Y-104637607D01*
X151529883Y-104653671D01*
X151510670Y-104667921D01*
X151490153Y-104680218D01*
X151468529Y-104690446D01*
X151446007Y-104698504D01*
X151422803Y-104704316D01*
X151399142Y-104707826D01*
X151375250Y-104709000D01*
X150887750Y-104709000D01*
X150863858Y-104707826D01*
X150840197Y-104704316D01*
X150816993Y-104698504D01*
X150794471Y-104690446D01*
X150772847Y-104680218D01*
X150752330Y-104667921D01*
X150733117Y-104653671D01*
X150715393Y-104637607D01*
X150699329Y-104619883D01*
X150685079Y-104600670D01*
X150672782Y-104580153D01*
X150662554Y-104558529D01*
X150654496Y-104536007D01*
X150648684Y-104512803D01*
X150645174Y-104489142D01*
X150644000Y-104465250D01*
X150644000Y-103552750D01*
X150645174Y-103528858D01*
X150648684Y-103505197D01*
X150654496Y-103481993D01*
X150662554Y-103459471D01*
X150672782Y-103437847D01*
X150685079Y-103417330D01*
X150699329Y-103398117D01*
X150715393Y-103380393D01*
X150733117Y-103364329D01*
X150752330Y-103350079D01*
X150772847Y-103337782D01*
X150794471Y-103327554D01*
X150816993Y-103319496D01*
X150840197Y-103313684D01*
X150863858Y-103310174D01*
X150887750Y-103309000D01*
X151375250Y-103309000D01*
X151399142Y-103310174D01*
G37*
G04 #@! TD.AperFunction*
G04 #@! TA.AperFunction,SMDPad,CuDef*
G36*
X151436142Y-105887174D02*
G01*
X151459803Y-105890684D01*
X151483007Y-105896496D01*
X151505529Y-105904554D01*
X151527153Y-105914782D01*
X151547670Y-105927079D01*
X151566883Y-105941329D01*
X151584607Y-105957393D01*
X151600671Y-105975117D01*
X151614921Y-105994330D01*
X151627218Y-106014847D01*
X151637446Y-106036471D01*
X151645504Y-106058993D01*
X151651316Y-106082197D01*
X151654826Y-106105858D01*
X151656000Y-106129750D01*
X151656000Y-106617250D01*
X151654826Y-106641142D01*
X151651316Y-106664803D01*
X151645504Y-106688007D01*
X151637446Y-106710529D01*
X151627218Y-106732153D01*
X151614921Y-106752670D01*
X151600671Y-106771883D01*
X151584607Y-106789607D01*
X151566883Y-106805671D01*
X151547670Y-106819921D01*
X151527153Y-106832218D01*
X151505529Y-106842446D01*
X151483007Y-106850504D01*
X151459803Y-106856316D01*
X151436142Y-106859826D01*
X151412250Y-106861000D01*
X150499750Y-106861000D01*
X150475858Y-106859826D01*
X150452197Y-106856316D01*
X150428993Y-106850504D01*
X150406471Y-106842446D01*
X150384847Y-106832218D01*
X150364330Y-106819921D01*
X150345117Y-106805671D01*
X150327393Y-106789607D01*
X150311329Y-106771883D01*
X150297079Y-106752670D01*
X150284782Y-106732153D01*
X150274554Y-106710529D01*
X150266496Y-106688007D01*
X150260684Y-106664803D01*
X150257174Y-106641142D01*
X150256000Y-106617250D01*
X150256000Y-106129750D01*
X150257174Y-106105858D01*
X150260684Y-106082197D01*
X150266496Y-106058993D01*
X150274554Y-106036471D01*
X150284782Y-106014847D01*
X150297079Y-105994330D01*
X150311329Y-105975117D01*
X150327393Y-105957393D01*
X150345117Y-105941329D01*
X150364330Y-105927079D01*
X150384847Y-105914782D01*
X150406471Y-105904554D01*
X150428993Y-105896496D01*
X150452197Y-105890684D01*
X150475858Y-105887174D01*
X150499750Y-105886000D01*
X151412250Y-105886000D01*
X151436142Y-105887174D01*
G37*
G04 #@! TD.AperFunction*
G04 #@! TA.AperFunction,SMDPad,CuDef*
G36*
X151436142Y-107762174D02*
G01*
X151459803Y-107765684D01*
X151483007Y-107771496D01*
X151505529Y-107779554D01*
X151527153Y-107789782D01*
X151547670Y-107802079D01*
X151566883Y-107816329D01*
X151584607Y-107832393D01*
X151600671Y-107850117D01*
X151614921Y-107869330D01*
X151627218Y-107889847D01*
X151637446Y-107911471D01*
X151645504Y-107933993D01*
X151651316Y-107957197D01*
X151654826Y-107980858D01*
X151656000Y-108004750D01*
X151656000Y-108492250D01*
X151654826Y-108516142D01*
X151651316Y-108539803D01*
X151645504Y-108563007D01*
X151637446Y-108585529D01*
X151627218Y-108607153D01*
X151614921Y-108627670D01*
X151600671Y-108646883D01*
X151584607Y-108664607D01*
X151566883Y-108680671D01*
X151547670Y-108694921D01*
X151527153Y-108707218D01*
X151505529Y-108717446D01*
X151483007Y-108725504D01*
X151459803Y-108731316D01*
X151436142Y-108734826D01*
X151412250Y-108736000D01*
X150499750Y-108736000D01*
X150475858Y-108734826D01*
X150452197Y-108731316D01*
X150428993Y-108725504D01*
X150406471Y-108717446D01*
X150384847Y-108707218D01*
X150364330Y-108694921D01*
X150345117Y-108680671D01*
X150327393Y-108664607D01*
X150311329Y-108646883D01*
X150297079Y-108627670D01*
X150284782Y-108607153D01*
X150274554Y-108585529D01*
X150266496Y-108563007D01*
X150260684Y-108539803D01*
X150257174Y-108516142D01*
X150256000Y-108492250D01*
X150256000Y-108004750D01*
X150257174Y-107980858D01*
X150260684Y-107957197D01*
X150266496Y-107933993D01*
X150274554Y-107911471D01*
X150284782Y-107889847D01*
X150297079Y-107869330D01*
X150311329Y-107850117D01*
X150327393Y-107832393D01*
X150345117Y-107816329D01*
X150364330Y-107802079D01*
X150384847Y-107789782D01*
X150406471Y-107779554D01*
X150428993Y-107771496D01*
X150452197Y-107765684D01*
X150475858Y-107762174D01*
X150499750Y-107761000D01*
X151412250Y-107761000D01*
X151436142Y-107762174D01*
G37*
G04 #@! TD.AperFunction*
G04 #@! TA.AperFunction,SMDPad,CuDef*
G36*
X149277142Y-105887174D02*
G01*
X149300803Y-105890684D01*
X149324007Y-105896496D01*
X149346529Y-105904554D01*
X149368153Y-105914782D01*
X149388670Y-105927079D01*
X149407883Y-105941329D01*
X149425607Y-105957393D01*
X149441671Y-105975117D01*
X149455921Y-105994330D01*
X149468218Y-106014847D01*
X149478446Y-106036471D01*
X149486504Y-106058993D01*
X149492316Y-106082197D01*
X149495826Y-106105858D01*
X149497000Y-106129750D01*
X149497000Y-106617250D01*
X149495826Y-106641142D01*
X149492316Y-106664803D01*
X149486504Y-106688007D01*
X149478446Y-106710529D01*
X149468218Y-106732153D01*
X149455921Y-106752670D01*
X149441671Y-106771883D01*
X149425607Y-106789607D01*
X149407883Y-106805671D01*
X149388670Y-106819921D01*
X149368153Y-106832218D01*
X149346529Y-106842446D01*
X149324007Y-106850504D01*
X149300803Y-106856316D01*
X149277142Y-106859826D01*
X149253250Y-106861000D01*
X148340750Y-106861000D01*
X148316858Y-106859826D01*
X148293197Y-106856316D01*
X148269993Y-106850504D01*
X148247471Y-106842446D01*
X148225847Y-106832218D01*
X148205330Y-106819921D01*
X148186117Y-106805671D01*
X148168393Y-106789607D01*
X148152329Y-106771883D01*
X148138079Y-106752670D01*
X148125782Y-106732153D01*
X148115554Y-106710529D01*
X148107496Y-106688007D01*
X148101684Y-106664803D01*
X148098174Y-106641142D01*
X148097000Y-106617250D01*
X148097000Y-106129750D01*
X148098174Y-106105858D01*
X148101684Y-106082197D01*
X148107496Y-106058993D01*
X148115554Y-106036471D01*
X148125782Y-106014847D01*
X148138079Y-105994330D01*
X148152329Y-105975117D01*
X148168393Y-105957393D01*
X148186117Y-105941329D01*
X148205330Y-105927079D01*
X148225847Y-105914782D01*
X148247471Y-105904554D01*
X148269993Y-105896496D01*
X148293197Y-105890684D01*
X148316858Y-105887174D01*
X148340750Y-105886000D01*
X149253250Y-105886000D01*
X149277142Y-105887174D01*
G37*
G04 #@! TD.AperFunction*
G04 #@! TA.AperFunction,SMDPad,CuDef*
G36*
X149277142Y-107762174D02*
G01*
X149300803Y-107765684D01*
X149324007Y-107771496D01*
X149346529Y-107779554D01*
X149368153Y-107789782D01*
X149388670Y-107802079D01*
X149407883Y-107816329D01*
X149425607Y-107832393D01*
X149441671Y-107850117D01*
X149455921Y-107869330D01*
X149468218Y-107889847D01*
X149478446Y-107911471D01*
X149486504Y-107933993D01*
X149492316Y-107957197D01*
X149495826Y-107980858D01*
X149497000Y-108004750D01*
X149497000Y-108492250D01*
X149495826Y-108516142D01*
X149492316Y-108539803D01*
X149486504Y-108563007D01*
X149478446Y-108585529D01*
X149468218Y-108607153D01*
X149455921Y-108627670D01*
X149441671Y-108646883D01*
X149425607Y-108664607D01*
X149407883Y-108680671D01*
X149388670Y-108694921D01*
X149368153Y-108707218D01*
X149346529Y-108717446D01*
X149324007Y-108725504D01*
X149300803Y-108731316D01*
X149277142Y-108734826D01*
X149253250Y-108736000D01*
X148340750Y-108736000D01*
X148316858Y-108734826D01*
X148293197Y-108731316D01*
X148269993Y-108725504D01*
X148247471Y-108717446D01*
X148225847Y-108707218D01*
X148205330Y-108694921D01*
X148186117Y-108680671D01*
X148168393Y-108664607D01*
X148152329Y-108646883D01*
X148138079Y-108627670D01*
X148125782Y-108607153D01*
X148115554Y-108585529D01*
X148107496Y-108563007D01*
X148101684Y-108539803D01*
X148098174Y-108516142D01*
X148097000Y-108492250D01*
X148097000Y-108004750D01*
X148098174Y-107980858D01*
X148101684Y-107957197D01*
X148107496Y-107933993D01*
X148115554Y-107911471D01*
X148125782Y-107889847D01*
X148138079Y-107869330D01*
X148152329Y-107850117D01*
X148168393Y-107832393D01*
X148186117Y-107816329D01*
X148205330Y-107802079D01*
X148225847Y-107789782D01*
X148247471Y-107779554D01*
X148269993Y-107771496D01*
X148293197Y-107765684D01*
X148316858Y-107762174D01*
X148340750Y-107761000D01*
X149253250Y-107761000D01*
X149277142Y-107762174D01*
G37*
G04 #@! TD.AperFunction*
G04 #@! TA.AperFunction,SMDPad,CuDef*
G36*
X128116642Y-107536174D02*
G01*
X128140303Y-107539684D01*
X128163507Y-107545496D01*
X128186029Y-107553554D01*
X128207653Y-107563782D01*
X128228170Y-107576079D01*
X128247383Y-107590329D01*
X128265107Y-107606393D01*
X128281171Y-107624117D01*
X128295421Y-107643330D01*
X128307718Y-107663847D01*
X128317946Y-107685471D01*
X128326004Y-107707993D01*
X128331816Y-107731197D01*
X128335326Y-107754858D01*
X128336500Y-107778750D01*
X128336500Y-108266250D01*
X128335326Y-108290142D01*
X128331816Y-108313803D01*
X128326004Y-108337007D01*
X128317946Y-108359529D01*
X128307718Y-108381153D01*
X128295421Y-108401670D01*
X128281171Y-108420883D01*
X128265107Y-108438607D01*
X128247383Y-108454671D01*
X128228170Y-108468921D01*
X128207653Y-108481218D01*
X128186029Y-108491446D01*
X128163507Y-108499504D01*
X128140303Y-108505316D01*
X128116642Y-108508826D01*
X128092750Y-108510000D01*
X127180250Y-108510000D01*
X127156358Y-108508826D01*
X127132697Y-108505316D01*
X127109493Y-108499504D01*
X127086971Y-108491446D01*
X127065347Y-108481218D01*
X127044830Y-108468921D01*
X127025617Y-108454671D01*
X127007893Y-108438607D01*
X126991829Y-108420883D01*
X126977579Y-108401670D01*
X126965282Y-108381153D01*
X126955054Y-108359529D01*
X126946996Y-108337007D01*
X126941184Y-108313803D01*
X126937674Y-108290142D01*
X126936500Y-108266250D01*
X126936500Y-107778750D01*
X126937674Y-107754858D01*
X126941184Y-107731197D01*
X126946996Y-107707993D01*
X126955054Y-107685471D01*
X126965282Y-107663847D01*
X126977579Y-107643330D01*
X126991829Y-107624117D01*
X127007893Y-107606393D01*
X127025617Y-107590329D01*
X127044830Y-107576079D01*
X127065347Y-107563782D01*
X127086971Y-107553554D01*
X127109493Y-107545496D01*
X127132697Y-107539684D01*
X127156358Y-107536174D01*
X127180250Y-107535000D01*
X128092750Y-107535000D01*
X128116642Y-107536174D01*
G37*
G04 #@! TD.AperFunction*
G04 #@! TA.AperFunction,SMDPad,CuDef*
G36*
X128116642Y-105661174D02*
G01*
X128140303Y-105664684D01*
X128163507Y-105670496D01*
X128186029Y-105678554D01*
X128207653Y-105688782D01*
X128228170Y-105701079D01*
X128247383Y-105715329D01*
X128265107Y-105731393D01*
X128281171Y-105749117D01*
X128295421Y-105768330D01*
X128307718Y-105788847D01*
X128317946Y-105810471D01*
X128326004Y-105832993D01*
X128331816Y-105856197D01*
X128335326Y-105879858D01*
X128336500Y-105903750D01*
X128336500Y-106391250D01*
X128335326Y-106415142D01*
X128331816Y-106438803D01*
X128326004Y-106462007D01*
X128317946Y-106484529D01*
X128307718Y-106506153D01*
X128295421Y-106526670D01*
X128281171Y-106545883D01*
X128265107Y-106563607D01*
X128247383Y-106579671D01*
X128228170Y-106593921D01*
X128207653Y-106606218D01*
X128186029Y-106616446D01*
X128163507Y-106624504D01*
X128140303Y-106630316D01*
X128116642Y-106633826D01*
X128092750Y-106635000D01*
X127180250Y-106635000D01*
X127156358Y-106633826D01*
X127132697Y-106630316D01*
X127109493Y-106624504D01*
X127086971Y-106616446D01*
X127065347Y-106606218D01*
X127044830Y-106593921D01*
X127025617Y-106579671D01*
X127007893Y-106563607D01*
X126991829Y-106545883D01*
X126977579Y-106526670D01*
X126965282Y-106506153D01*
X126955054Y-106484529D01*
X126946996Y-106462007D01*
X126941184Y-106438803D01*
X126937674Y-106415142D01*
X126936500Y-106391250D01*
X126936500Y-105903750D01*
X126937674Y-105879858D01*
X126941184Y-105856197D01*
X126946996Y-105832993D01*
X126955054Y-105810471D01*
X126965282Y-105788847D01*
X126977579Y-105768330D01*
X126991829Y-105749117D01*
X127007893Y-105731393D01*
X127025617Y-105715329D01*
X127044830Y-105701079D01*
X127065347Y-105688782D01*
X127086971Y-105678554D01*
X127109493Y-105670496D01*
X127132697Y-105664684D01*
X127156358Y-105661174D01*
X127180250Y-105660000D01*
X128092750Y-105660000D01*
X128116642Y-105661174D01*
G37*
G04 #@! TD.AperFunction*
G04 #@! TA.AperFunction,SMDPad,CuDef*
G36*
X130268642Y-107656174D02*
G01*
X130292303Y-107659684D01*
X130315507Y-107665496D01*
X130338029Y-107673554D01*
X130359653Y-107683782D01*
X130380170Y-107696079D01*
X130399383Y-107710329D01*
X130417107Y-107726393D01*
X130433171Y-107744117D01*
X130447421Y-107763330D01*
X130459718Y-107783847D01*
X130469946Y-107805471D01*
X130478004Y-107827993D01*
X130483816Y-107851197D01*
X130487326Y-107874858D01*
X130488500Y-107898750D01*
X130488500Y-108811250D01*
X130487326Y-108835142D01*
X130483816Y-108858803D01*
X130478004Y-108882007D01*
X130469946Y-108904529D01*
X130459718Y-108926153D01*
X130447421Y-108946670D01*
X130433171Y-108965883D01*
X130417107Y-108983607D01*
X130399383Y-108999671D01*
X130380170Y-109013921D01*
X130359653Y-109026218D01*
X130338029Y-109036446D01*
X130315507Y-109044504D01*
X130292303Y-109050316D01*
X130268642Y-109053826D01*
X130244750Y-109055000D01*
X129757250Y-109055000D01*
X129733358Y-109053826D01*
X129709697Y-109050316D01*
X129686493Y-109044504D01*
X129663971Y-109036446D01*
X129642347Y-109026218D01*
X129621830Y-109013921D01*
X129602617Y-108999671D01*
X129584893Y-108983607D01*
X129568829Y-108965883D01*
X129554579Y-108946670D01*
X129542282Y-108926153D01*
X129532054Y-108904529D01*
X129523996Y-108882007D01*
X129518184Y-108858803D01*
X129514674Y-108835142D01*
X129513500Y-108811250D01*
X129513500Y-107898750D01*
X129514674Y-107874858D01*
X129518184Y-107851197D01*
X129523996Y-107827993D01*
X129532054Y-107805471D01*
X129542282Y-107783847D01*
X129554579Y-107763330D01*
X129568829Y-107744117D01*
X129584893Y-107726393D01*
X129602617Y-107710329D01*
X129621830Y-107696079D01*
X129642347Y-107683782D01*
X129663971Y-107673554D01*
X129686493Y-107665496D01*
X129709697Y-107659684D01*
X129733358Y-107656174D01*
X129757250Y-107655000D01*
X130244750Y-107655000D01*
X130268642Y-107656174D01*
G37*
G04 #@! TD.AperFunction*
G04 #@! TA.AperFunction,SMDPad,CuDef*
G36*
X132143642Y-107656174D02*
G01*
X132167303Y-107659684D01*
X132190507Y-107665496D01*
X132213029Y-107673554D01*
X132234653Y-107683782D01*
X132255170Y-107696079D01*
X132274383Y-107710329D01*
X132292107Y-107726393D01*
X132308171Y-107744117D01*
X132322421Y-107763330D01*
X132334718Y-107783847D01*
X132344946Y-107805471D01*
X132353004Y-107827993D01*
X132358816Y-107851197D01*
X132362326Y-107874858D01*
X132363500Y-107898750D01*
X132363500Y-108811250D01*
X132362326Y-108835142D01*
X132358816Y-108858803D01*
X132353004Y-108882007D01*
X132344946Y-108904529D01*
X132334718Y-108926153D01*
X132322421Y-108946670D01*
X132308171Y-108965883D01*
X132292107Y-108983607D01*
X132274383Y-108999671D01*
X132255170Y-109013921D01*
X132234653Y-109026218D01*
X132213029Y-109036446D01*
X132190507Y-109044504D01*
X132167303Y-109050316D01*
X132143642Y-109053826D01*
X132119750Y-109055000D01*
X131632250Y-109055000D01*
X131608358Y-109053826D01*
X131584697Y-109050316D01*
X131561493Y-109044504D01*
X131538971Y-109036446D01*
X131517347Y-109026218D01*
X131496830Y-109013921D01*
X131477617Y-108999671D01*
X131459893Y-108983607D01*
X131443829Y-108965883D01*
X131429579Y-108946670D01*
X131417282Y-108926153D01*
X131407054Y-108904529D01*
X131398996Y-108882007D01*
X131393184Y-108858803D01*
X131389674Y-108835142D01*
X131388500Y-108811250D01*
X131388500Y-107898750D01*
X131389674Y-107874858D01*
X131393184Y-107851197D01*
X131398996Y-107827993D01*
X131407054Y-107805471D01*
X131417282Y-107783847D01*
X131429579Y-107763330D01*
X131443829Y-107744117D01*
X131459893Y-107726393D01*
X131477617Y-107710329D01*
X131496830Y-107696079D01*
X131517347Y-107683782D01*
X131538971Y-107673554D01*
X131561493Y-107665496D01*
X131584697Y-107659684D01*
X131608358Y-107656174D01*
X131632250Y-107655000D01*
X132119750Y-107655000D01*
X132143642Y-107656174D01*
G37*
G04 #@! TD.AperFunction*
D11*
X125588500Y-107781000D03*
X125588500Y-105881000D03*
X123588500Y-106831000D03*
G04 #@! TA.AperFunction,SMDPad,CuDef*
D10*
G36*
X130268642Y-105116174D02*
G01*
X130292303Y-105119684D01*
X130315507Y-105125496D01*
X130338029Y-105133554D01*
X130359653Y-105143782D01*
X130380170Y-105156079D01*
X130399383Y-105170329D01*
X130417107Y-105186393D01*
X130433171Y-105204117D01*
X130447421Y-105223330D01*
X130459718Y-105243847D01*
X130469946Y-105265471D01*
X130478004Y-105287993D01*
X130483816Y-105311197D01*
X130487326Y-105334858D01*
X130488500Y-105358750D01*
X130488500Y-106271250D01*
X130487326Y-106295142D01*
X130483816Y-106318803D01*
X130478004Y-106342007D01*
X130469946Y-106364529D01*
X130459718Y-106386153D01*
X130447421Y-106406670D01*
X130433171Y-106425883D01*
X130417107Y-106443607D01*
X130399383Y-106459671D01*
X130380170Y-106473921D01*
X130359653Y-106486218D01*
X130338029Y-106496446D01*
X130315507Y-106504504D01*
X130292303Y-106510316D01*
X130268642Y-106513826D01*
X130244750Y-106515000D01*
X129757250Y-106515000D01*
X129733358Y-106513826D01*
X129709697Y-106510316D01*
X129686493Y-106504504D01*
X129663971Y-106496446D01*
X129642347Y-106486218D01*
X129621830Y-106473921D01*
X129602617Y-106459671D01*
X129584893Y-106443607D01*
X129568829Y-106425883D01*
X129554579Y-106406670D01*
X129542282Y-106386153D01*
X129532054Y-106364529D01*
X129523996Y-106342007D01*
X129518184Y-106318803D01*
X129514674Y-106295142D01*
X129513500Y-106271250D01*
X129513500Y-105358750D01*
X129514674Y-105334858D01*
X129518184Y-105311197D01*
X129523996Y-105287993D01*
X129532054Y-105265471D01*
X129542282Y-105243847D01*
X129554579Y-105223330D01*
X129568829Y-105204117D01*
X129584893Y-105186393D01*
X129602617Y-105170329D01*
X129621830Y-105156079D01*
X129642347Y-105143782D01*
X129663971Y-105133554D01*
X129686493Y-105125496D01*
X129709697Y-105119684D01*
X129733358Y-105116174D01*
X129757250Y-105115000D01*
X130244750Y-105115000D01*
X130268642Y-105116174D01*
G37*
G04 #@! TD.AperFunction*
G04 #@! TA.AperFunction,SMDPad,CuDef*
G36*
X132143642Y-105116174D02*
G01*
X132167303Y-105119684D01*
X132190507Y-105125496D01*
X132213029Y-105133554D01*
X132234653Y-105143782D01*
X132255170Y-105156079D01*
X132274383Y-105170329D01*
X132292107Y-105186393D01*
X132308171Y-105204117D01*
X132322421Y-105223330D01*
X132334718Y-105243847D01*
X132344946Y-105265471D01*
X132353004Y-105287993D01*
X132358816Y-105311197D01*
X132362326Y-105334858D01*
X132363500Y-105358750D01*
X132363500Y-106271250D01*
X132362326Y-106295142D01*
X132358816Y-106318803D01*
X132353004Y-106342007D01*
X132344946Y-106364529D01*
X132334718Y-106386153D01*
X132322421Y-106406670D01*
X132308171Y-106425883D01*
X132292107Y-106443607D01*
X132274383Y-106459671D01*
X132255170Y-106473921D01*
X132234653Y-106486218D01*
X132213029Y-106496446D01*
X132190507Y-106504504D01*
X132167303Y-106510316D01*
X132143642Y-106513826D01*
X132119750Y-106515000D01*
X131632250Y-106515000D01*
X131608358Y-106513826D01*
X131584697Y-106510316D01*
X131561493Y-106504504D01*
X131538971Y-106496446D01*
X131517347Y-106486218D01*
X131496830Y-106473921D01*
X131477617Y-106459671D01*
X131459893Y-106443607D01*
X131443829Y-106425883D01*
X131429579Y-106406670D01*
X131417282Y-106386153D01*
X131407054Y-106364529D01*
X131398996Y-106342007D01*
X131393184Y-106318803D01*
X131389674Y-106295142D01*
X131388500Y-106271250D01*
X131388500Y-105358750D01*
X131389674Y-105334858D01*
X131393184Y-105311197D01*
X131398996Y-105287993D01*
X131407054Y-105265471D01*
X131417282Y-105243847D01*
X131429579Y-105223330D01*
X131443829Y-105204117D01*
X131459893Y-105186393D01*
X131477617Y-105170329D01*
X131496830Y-105156079D01*
X131517347Y-105143782D01*
X131538971Y-105133554D01*
X131561493Y-105125496D01*
X131584697Y-105119684D01*
X131608358Y-105116174D01*
X131632250Y-105115000D01*
X132119750Y-105115000D01*
X132143642Y-105116174D01*
G37*
G04 #@! TD.AperFunction*
G04 #@! TA.AperFunction,SMDPad,CuDef*
G36*
X141059703Y-102700722D02*
G01*
X141074264Y-102702882D01*
X141088543Y-102706459D01*
X141102403Y-102711418D01*
X141115710Y-102717712D01*
X141128336Y-102725280D01*
X141140159Y-102734048D01*
X141151066Y-102743934D01*
X141160952Y-102754841D01*
X141169720Y-102766664D01*
X141177288Y-102779290D01*
X141183582Y-102792597D01*
X141188541Y-102806457D01*
X141192118Y-102820736D01*
X141194278Y-102835297D01*
X141195000Y-102850000D01*
X141195000Y-104500000D01*
X141194278Y-104514703D01*
X141192118Y-104529264D01*
X141188541Y-104543543D01*
X141183582Y-104557403D01*
X141177288Y-104570710D01*
X141169720Y-104583336D01*
X141160952Y-104595159D01*
X141151066Y-104606066D01*
X141140159Y-104615952D01*
X141128336Y-104624720D01*
X141115710Y-104632288D01*
X141102403Y-104638582D01*
X141088543Y-104643541D01*
X141074264Y-104647118D01*
X141059703Y-104649278D01*
X141045000Y-104650000D01*
X140745000Y-104650000D01*
X140730297Y-104649278D01*
X140715736Y-104647118D01*
X140701457Y-104643541D01*
X140687597Y-104638582D01*
X140674290Y-104632288D01*
X140661664Y-104624720D01*
X140649841Y-104615952D01*
X140638934Y-104606066D01*
X140629048Y-104595159D01*
X140620280Y-104583336D01*
X140612712Y-104570710D01*
X140606418Y-104557403D01*
X140601459Y-104543543D01*
X140597882Y-104529264D01*
X140595722Y-104514703D01*
X140595000Y-104500000D01*
X140595000Y-102850000D01*
X140595722Y-102835297D01*
X140597882Y-102820736D01*
X140601459Y-102806457D01*
X140606418Y-102792597D01*
X140612712Y-102779290D01*
X140620280Y-102766664D01*
X140629048Y-102754841D01*
X140638934Y-102743934D01*
X140649841Y-102734048D01*
X140661664Y-102725280D01*
X140674290Y-102717712D01*
X140687597Y-102711418D01*
X140701457Y-102706459D01*
X140715736Y-102702882D01*
X140730297Y-102700722D01*
X140745000Y-102700000D01*
X141045000Y-102700000D01*
X141059703Y-102700722D01*
G37*
G04 #@! TD.AperFunction*
G04 #@! TA.AperFunction,SMDPad,CuDef*
G36*
X142329703Y-102700722D02*
G01*
X142344264Y-102702882D01*
X142358543Y-102706459D01*
X142372403Y-102711418D01*
X142385710Y-102717712D01*
X142398336Y-102725280D01*
X142410159Y-102734048D01*
X142421066Y-102743934D01*
X142430952Y-102754841D01*
X142439720Y-102766664D01*
X142447288Y-102779290D01*
X142453582Y-102792597D01*
X142458541Y-102806457D01*
X142462118Y-102820736D01*
X142464278Y-102835297D01*
X142465000Y-102850000D01*
X142465000Y-104500000D01*
X142464278Y-104514703D01*
X142462118Y-104529264D01*
X142458541Y-104543543D01*
X142453582Y-104557403D01*
X142447288Y-104570710D01*
X142439720Y-104583336D01*
X142430952Y-104595159D01*
X142421066Y-104606066D01*
X142410159Y-104615952D01*
X142398336Y-104624720D01*
X142385710Y-104632288D01*
X142372403Y-104638582D01*
X142358543Y-104643541D01*
X142344264Y-104647118D01*
X142329703Y-104649278D01*
X142315000Y-104650000D01*
X142015000Y-104650000D01*
X142000297Y-104649278D01*
X141985736Y-104647118D01*
X141971457Y-104643541D01*
X141957597Y-104638582D01*
X141944290Y-104632288D01*
X141931664Y-104624720D01*
X141919841Y-104615952D01*
X141908934Y-104606066D01*
X141899048Y-104595159D01*
X141890280Y-104583336D01*
X141882712Y-104570710D01*
X141876418Y-104557403D01*
X141871459Y-104543543D01*
X141867882Y-104529264D01*
X141865722Y-104514703D01*
X141865000Y-104500000D01*
X141865000Y-102850000D01*
X141865722Y-102835297D01*
X141867882Y-102820736D01*
X141871459Y-102806457D01*
X141876418Y-102792597D01*
X141882712Y-102779290D01*
X141890280Y-102766664D01*
X141899048Y-102754841D01*
X141908934Y-102743934D01*
X141919841Y-102734048D01*
X141931664Y-102725280D01*
X141944290Y-102717712D01*
X141957597Y-102711418D01*
X141971457Y-102706459D01*
X141985736Y-102702882D01*
X142000297Y-102700722D01*
X142015000Y-102700000D01*
X142315000Y-102700000D01*
X142329703Y-102700722D01*
G37*
G04 #@! TD.AperFunction*
G04 #@! TA.AperFunction,SMDPad,CuDef*
G36*
X143599703Y-102700722D02*
G01*
X143614264Y-102702882D01*
X143628543Y-102706459D01*
X143642403Y-102711418D01*
X143655710Y-102717712D01*
X143668336Y-102725280D01*
X143680159Y-102734048D01*
X143691066Y-102743934D01*
X143700952Y-102754841D01*
X143709720Y-102766664D01*
X143717288Y-102779290D01*
X143723582Y-102792597D01*
X143728541Y-102806457D01*
X143732118Y-102820736D01*
X143734278Y-102835297D01*
X143735000Y-102850000D01*
X143735000Y-104500000D01*
X143734278Y-104514703D01*
X143732118Y-104529264D01*
X143728541Y-104543543D01*
X143723582Y-104557403D01*
X143717288Y-104570710D01*
X143709720Y-104583336D01*
X143700952Y-104595159D01*
X143691066Y-104606066D01*
X143680159Y-104615952D01*
X143668336Y-104624720D01*
X143655710Y-104632288D01*
X143642403Y-104638582D01*
X143628543Y-104643541D01*
X143614264Y-104647118D01*
X143599703Y-104649278D01*
X143585000Y-104650000D01*
X143285000Y-104650000D01*
X143270297Y-104649278D01*
X143255736Y-104647118D01*
X143241457Y-104643541D01*
X143227597Y-104638582D01*
X143214290Y-104632288D01*
X143201664Y-104624720D01*
X143189841Y-104615952D01*
X143178934Y-104606066D01*
X143169048Y-104595159D01*
X143160280Y-104583336D01*
X143152712Y-104570710D01*
X143146418Y-104557403D01*
X143141459Y-104543543D01*
X143137882Y-104529264D01*
X143135722Y-104514703D01*
X143135000Y-104500000D01*
X143135000Y-102850000D01*
X143135722Y-102835297D01*
X143137882Y-102820736D01*
X143141459Y-102806457D01*
X143146418Y-102792597D01*
X143152712Y-102779290D01*
X143160280Y-102766664D01*
X143169048Y-102754841D01*
X143178934Y-102743934D01*
X143189841Y-102734048D01*
X143201664Y-102725280D01*
X143214290Y-102717712D01*
X143227597Y-102711418D01*
X143241457Y-102706459D01*
X143255736Y-102702882D01*
X143270297Y-102700722D01*
X143285000Y-102700000D01*
X143585000Y-102700000D01*
X143599703Y-102700722D01*
G37*
G04 #@! TD.AperFunction*
G04 #@! TA.AperFunction,SMDPad,CuDef*
G36*
X144869703Y-102700722D02*
G01*
X144884264Y-102702882D01*
X144898543Y-102706459D01*
X144912403Y-102711418D01*
X144925710Y-102717712D01*
X144938336Y-102725280D01*
X144950159Y-102734048D01*
X144961066Y-102743934D01*
X144970952Y-102754841D01*
X144979720Y-102766664D01*
X144987288Y-102779290D01*
X144993582Y-102792597D01*
X144998541Y-102806457D01*
X145002118Y-102820736D01*
X145004278Y-102835297D01*
X145005000Y-102850000D01*
X145005000Y-104500000D01*
X145004278Y-104514703D01*
X145002118Y-104529264D01*
X144998541Y-104543543D01*
X144993582Y-104557403D01*
X144987288Y-104570710D01*
X144979720Y-104583336D01*
X144970952Y-104595159D01*
X144961066Y-104606066D01*
X144950159Y-104615952D01*
X144938336Y-104624720D01*
X144925710Y-104632288D01*
X144912403Y-104638582D01*
X144898543Y-104643541D01*
X144884264Y-104647118D01*
X144869703Y-104649278D01*
X144855000Y-104650000D01*
X144555000Y-104650000D01*
X144540297Y-104649278D01*
X144525736Y-104647118D01*
X144511457Y-104643541D01*
X144497597Y-104638582D01*
X144484290Y-104632288D01*
X144471664Y-104624720D01*
X144459841Y-104615952D01*
X144448934Y-104606066D01*
X144439048Y-104595159D01*
X144430280Y-104583336D01*
X144422712Y-104570710D01*
X144416418Y-104557403D01*
X144411459Y-104543543D01*
X144407882Y-104529264D01*
X144405722Y-104514703D01*
X144405000Y-104500000D01*
X144405000Y-102850000D01*
X144405722Y-102835297D01*
X144407882Y-102820736D01*
X144411459Y-102806457D01*
X144416418Y-102792597D01*
X144422712Y-102779290D01*
X144430280Y-102766664D01*
X144439048Y-102754841D01*
X144448934Y-102743934D01*
X144459841Y-102734048D01*
X144471664Y-102725280D01*
X144484290Y-102717712D01*
X144497597Y-102711418D01*
X144511457Y-102706459D01*
X144525736Y-102702882D01*
X144540297Y-102700722D01*
X144555000Y-102700000D01*
X144855000Y-102700000D01*
X144869703Y-102700722D01*
G37*
G04 #@! TD.AperFunction*
G04 #@! TA.AperFunction,SMDPad,CuDef*
G36*
X144869703Y-97750722D02*
G01*
X144884264Y-97752882D01*
X144898543Y-97756459D01*
X144912403Y-97761418D01*
X144925710Y-97767712D01*
X144938336Y-97775280D01*
X144950159Y-97784048D01*
X144961066Y-97793934D01*
X144970952Y-97804841D01*
X144979720Y-97816664D01*
X144987288Y-97829290D01*
X144993582Y-97842597D01*
X144998541Y-97856457D01*
X145002118Y-97870736D01*
X145004278Y-97885297D01*
X145005000Y-97900000D01*
X145005000Y-99550000D01*
X145004278Y-99564703D01*
X145002118Y-99579264D01*
X144998541Y-99593543D01*
X144993582Y-99607403D01*
X144987288Y-99620710D01*
X144979720Y-99633336D01*
X144970952Y-99645159D01*
X144961066Y-99656066D01*
X144950159Y-99665952D01*
X144938336Y-99674720D01*
X144925710Y-99682288D01*
X144912403Y-99688582D01*
X144898543Y-99693541D01*
X144884264Y-99697118D01*
X144869703Y-99699278D01*
X144855000Y-99700000D01*
X144555000Y-99700000D01*
X144540297Y-99699278D01*
X144525736Y-99697118D01*
X144511457Y-99693541D01*
X144497597Y-99688582D01*
X144484290Y-99682288D01*
X144471664Y-99674720D01*
X144459841Y-99665952D01*
X144448934Y-99656066D01*
X144439048Y-99645159D01*
X144430280Y-99633336D01*
X144422712Y-99620710D01*
X144416418Y-99607403D01*
X144411459Y-99593543D01*
X144407882Y-99579264D01*
X144405722Y-99564703D01*
X144405000Y-99550000D01*
X144405000Y-97900000D01*
X144405722Y-97885297D01*
X144407882Y-97870736D01*
X144411459Y-97856457D01*
X144416418Y-97842597D01*
X144422712Y-97829290D01*
X144430280Y-97816664D01*
X144439048Y-97804841D01*
X144448934Y-97793934D01*
X144459841Y-97784048D01*
X144471664Y-97775280D01*
X144484290Y-97767712D01*
X144497597Y-97761418D01*
X144511457Y-97756459D01*
X144525736Y-97752882D01*
X144540297Y-97750722D01*
X144555000Y-97750000D01*
X144855000Y-97750000D01*
X144869703Y-97750722D01*
G37*
G04 #@! TD.AperFunction*
G04 #@! TA.AperFunction,SMDPad,CuDef*
G36*
X143599703Y-97750722D02*
G01*
X143614264Y-97752882D01*
X143628543Y-97756459D01*
X143642403Y-97761418D01*
X143655710Y-97767712D01*
X143668336Y-97775280D01*
X143680159Y-97784048D01*
X143691066Y-97793934D01*
X143700952Y-97804841D01*
X143709720Y-97816664D01*
X143717288Y-97829290D01*
X143723582Y-97842597D01*
X143728541Y-97856457D01*
X143732118Y-97870736D01*
X143734278Y-97885297D01*
X143735000Y-97900000D01*
X143735000Y-99550000D01*
X143734278Y-99564703D01*
X143732118Y-99579264D01*
X143728541Y-99593543D01*
X143723582Y-99607403D01*
X143717288Y-99620710D01*
X143709720Y-99633336D01*
X143700952Y-99645159D01*
X143691066Y-99656066D01*
X143680159Y-99665952D01*
X143668336Y-99674720D01*
X143655710Y-99682288D01*
X143642403Y-99688582D01*
X143628543Y-99693541D01*
X143614264Y-99697118D01*
X143599703Y-99699278D01*
X143585000Y-99700000D01*
X143285000Y-99700000D01*
X143270297Y-99699278D01*
X143255736Y-99697118D01*
X143241457Y-99693541D01*
X143227597Y-99688582D01*
X143214290Y-99682288D01*
X143201664Y-99674720D01*
X143189841Y-99665952D01*
X143178934Y-99656066D01*
X143169048Y-99645159D01*
X143160280Y-99633336D01*
X143152712Y-99620710D01*
X143146418Y-99607403D01*
X143141459Y-99593543D01*
X143137882Y-99579264D01*
X143135722Y-99564703D01*
X143135000Y-99550000D01*
X143135000Y-97900000D01*
X143135722Y-97885297D01*
X143137882Y-97870736D01*
X143141459Y-97856457D01*
X143146418Y-97842597D01*
X143152712Y-97829290D01*
X143160280Y-97816664D01*
X143169048Y-97804841D01*
X143178934Y-97793934D01*
X143189841Y-97784048D01*
X143201664Y-97775280D01*
X143214290Y-97767712D01*
X143227597Y-97761418D01*
X143241457Y-97756459D01*
X143255736Y-97752882D01*
X143270297Y-97750722D01*
X143285000Y-97750000D01*
X143585000Y-97750000D01*
X143599703Y-97750722D01*
G37*
G04 #@! TD.AperFunction*
G04 #@! TA.AperFunction,SMDPad,CuDef*
G36*
X142329703Y-97750722D02*
G01*
X142344264Y-97752882D01*
X142358543Y-97756459D01*
X142372403Y-97761418D01*
X142385710Y-97767712D01*
X142398336Y-97775280D01*
X142410159Y-97784048D01*
X142421066Y-97793934D01*
X142430952Y-97804841D01*
X142439720Y-97816664D01*
X142447288Y-97829290D01*
X142453582Y-97842597D01*
X142458541Y-97856457D01*
X142462118Y-97870736D01*
X142464278Y-97885297D01*
X142465000Y-97900000D01*
X142465000Y-99550000D01*
X142464278Y-99564703D01*
X142462118Y-99579264D01*
X142458541Y-99593543D01*
X142453582Y-99607403D01*
X142447288Y-99620710D01*
X142439720Y-99633336D01*
X142430952Y-99645159D01*
X142421066Y-99656066D01*
X142410159Y-99665952D01*
X142398336Y-99674720D01*
X142385710Y-99682288D01*
X142372403Y-99688582D01*
X142358543Y-99693541D01*
X142344264Y-99697118D01*
X142329703Y-99699278D01*
X142315000Y-99700000D01*
X142015000Y-99700000D01*
X142000297Y-99699278D01*
X141985736Y-99697118D01*
X141971457Y-99693541D01*
X141957597Y-99688582D01*
X141944290Y-99682288D01*
X141931664Y-99674720D01*
X141919841Y-99665952D01*
X141908934Y-99656066D01*
X141899048Y-99645159D01*
X141890280Y-99633336D01*
X141882712Y-99620710D01*
X141876418Y-99607403D01*
X141871459Y-99593543D01*
X141867882Y-99579264D01*
X141865722Y-99564703D01*
X141865000Y-99550000D01*
X141865000Y-97900000D01*
X141865722Y-97885297D01*
X141867882Y-97870736D01*
X141871459Y-97856457D01*
X141876418Y-97842597D01*
X141882712Y-97829290D01*
X141890280Y-97816664D01*
X141899048Y-97804841D01*
X141908934Y-97793934D01*
X141919841Y-97784048D01*
X141931664Y-97775280D01*
X141944290Y-97767712D01*
X141957597Y-97761418D01*
X141971457Y-97756459D01*
X141985736Y-97752882D01*
X142000297Y-97750722D01*
X142015000Y-97750000D01*
X142315000Y-97750000D01*
X142329703Y-97750722D01*
G37*
G04 #@! TD.AperFunction*
G04 #@! TA.AperFunction,SMDPad,CuDef*
G36*
X141059703Y-97750722D02*
G01*
X141074264Y-97752882D01*
X141088543Y-97756459D01*
X141102403Y-97761418D01*
X141115710Y-97767712D01*
X141128336Y-97775280D01*
X141140159Y-97784048D01*
X141151066Y-97793934D01*
X141160952Y-97804841D01*
X141169720Y-97816664D01*
X141177288Y-97829290D01*
X141183582Y-97842597D01*
X141188541Y-97856457D01*
X141192118Y-97870736D01*
X141194278Y-97885297D01*
X141195000Y-97900000D01*
X141195000Y-99550000D01*
X141194278Y-99564703D01*
X141192118Y-99579264D01*
X141188541Y-99593543D01*
X141183582Y-99607403D01*
X141177288Y-99620710D01*
X141169720Y-99633336D01*
X141160952Y-99645159D01*
X141151066Y-99656066D01*
X141140159Y-99665952D01*
X141128336Y-99674720D01*
X141115710Y-99682288D01*
X141102403Y-99688582D01*
X141088543Y-99693541D01*
X141074264Y-99697118D01*
X141059703Y-99699278D01*
X141045000Y-99700000D01*
X140745000Y-99700000D01*
X140730297Y-99699278D01*
X140715736Y-99697118D01*
X140701457Y-99693541D01*
X140687597Y-99688582D01*
X140674290Y-99682288D01*
X140661664Y-99674720D01*
X140649841Y-99665952D01*
X140638934Y-99656066D01*
X140629048Y-99645159D01*
X140620280Y-99633336D01*
X140612712Y-99620710D01*
X140606418Y-99607403D01*
X140601459Y-99593543D01*
X140597882Y-99579264D01*
X140595722Y-99564703D01*
X140595000Y-99550000D01*
X140595000Y-97900000D01*
X140595722Y-97885297D01*
X140597882Y-97870736D01*
X140601459Y-97856457D01*
X140606418Y-97842597D01*
X140612712Y-97829290D01*
X140620280Y-97816664D01*
X140629048Y-97804841D01*
X140638934Y-97793934D01*
X140649841Y-97784048D01*
X140661664Y-97775280D01*
X140674290Y-97767712D01*
X140687597Y-97761418D01*
X140701457Y-97756459D01*
X140715736Y-97752882D01*
X140730297Y-97750722D01*
X140745000Y-97750000D01*
X141045000Y-97750000D01*
X141059703Y-97750722D01*
G37*
G04 #@! TD.AperFunction*
D12*
X158254000Y-106534000D03*
X155754000Y-109034000D03*
X153254000Y-106534000D03*
X158254000Y-98406000D03*
X155754000Y-100906000D03*
X153254000Y-98406000D03*
D13*
X136308000Y-100138000D03*
X136308000Y-102038000D03*
X134108000Y-102038000D03*
X134108000Y-101088000D03*
X134108000Y-100138000D03*
D14*
X174550000Y-92612000D03*
X175500000Y-94612000D03*
X173600000Y-94612000D03*
G04 #@! TA.AperFunction,SMDPad,CuDef*
D10*
G36*
X173851642Y-99950174D02*
G01*
X173875303Y-99953684D01*
X173898507Y-99959496D01*
X173921029Y-99967554D01*
X173942653Y-99977782D01*
X173963170Y-99990079D01*
X173982383Y-100004329D01*
X174000107Y-100020393D01*
X174016171Y-100038117D01*
X174030421Y-100057330D01*
X174042718Y-100077847D01*
X174052946Y-100099471D01*
X174061004Y-100121993D01*
X174066816Y-100145197D01*
X174070326Y-100168858D01*
X174071500Y-100192750D01*
X174071500Y-100680250D01*
X174070326Y-100704142D01*
X174066816Y-100727803D01*
X174061004Y-100751007D01*
X174052946Y-100773529D01*
X174042718Y-100795153D01*
X174030421Y-100815670D01*
X174016171Y-100834883D01*
X174000107Y-100852607D01*
X173982383Y-100868671D01*
X173963170Y-100882921D01*
X173942653Y-100895218D01*
X173921029Y-100905446D01*
X173898507Y-100913504D01*
X173875303Y-100919316D01*
X173851642Y-100922826D01*
X173827750Y-100924000D01*
X172915250Y-100924000D01*
X172891358Y-100922826D01*
X172867697Y-100919316D01*
X172844493Y-100913504D01*
X172821971Y-100905446D01*
X172800347Y-100895218D01*
X172779830Y-100882921D01*
X172760617Y-100868671D01*
X172742893Y-100852607D01*
X172726829Y-100834883D01*
X172712579Y-100815670D01*
X172700282Y-100795153D01*
X172690054Y-100773529D01*
X172681996Y-100751007D01*
X172676184Y-100727803D01*
X172672674Y-100704142D01*
X172671500Y-100680250D01*
X172671500Y-100192750D01*
X172672674Y-100168858D01*
X172676184Y-100145197D01*
X172681996Y-100121993D01*
X172690054Y-100099471D01*
X172700282Y-100077847D01*
X172712579Y-100057330D01*
X172726829Y-100038117D01*
X172742893Y-100020393D01*
X172760617Y-100004329D01*
X172779830Y-99990079D01*
X172800347Y-99977782D01*
X172821971Y-99967554D01*
X172844493Y-99959496D01*
X172867697Y-99953684D01*
X172891358Y-99950174D01*
X172915250Y-99949000D01*
X173827750Y-99949000D01*
X173851642Y-99950174D01*
G37*
G04 #@! TD.AperFunction*
G04 #@! TA.AperFunction,SMDPad,CuDef*
G36*
X173851642Y-98075174D02*
G01*
X173875303Y-98078684D01*
X173898507Y-98084496D01*
X173921029Y-98092554D01*
X173942653Y-98102782D01*
X173963170Y-98115079D01*
X173982383Y-98129329D01*
X174000107Y-98145393D01*
X174016171Y-98163117D01*
X174030421Y-98182330D01*
X174042718Y-98202847D01*
X174052946Y-98224471D01*
X174061004Y-98246993D01*
X174066816Y-98270197D01*
X174070326Y-98293858D01*
X174071500Y-98317750D01*
X174071500Y-98805250D01*
X174070326Y-98829142D01*
X174066816Y-98852803D01*
X174061004Y-98876007D01*
X174052946Y-98898529D01*
X174042718Y-98920153D01*
X174030421Y-98940670D01*
X174016171Y-98959883D01*
X174000107Y-98977607D01*
X173982383Y-98993671D01*
X173963170Y-99007921D01*
X173942653Y-99020218D01*
X173921029Y-99030446D01*
X173898507Y-99038504D01*
X173875303Y-99044316D01*
X173851642Y-99047826D01*
X173827750Y-99049000D01*
X172915250Y-99049000D01*
X172891358Y-99047826D01*
X172867697Y-99044316D01*
X172844493Y-99038504D01*
X172821971Y-99030446D01*
X172800347Y-99020218D01*
X172779830Y-99007921D01*
X172760617Y-98993671D01*
X172742893Y-98977607D01*
X172726829Y-98959883D01*
X172712579Y-98940670D01*
X172700282Y-98920153D01*
X172690054Y-98898529D01*
X172681996Y-98876007D01*
X172676184Y-98852803D01*
X172672674Y-98829142D01*
X172671500Y-98805250D01*
X172671500Y-98317750D01*
X172672674Y-98293858D01*
X172676184Y-98270197D01*
X172681996Y-98246993D01*
X172690054Y-98224471D01*
X172700282Y-98202847D01*
X172712579Y-98182330D01*
X172726829Y-98163117D01*
X172742893Y-98145393D01*
X172760617Y-98129329D01*
X172779830Y-98115079D01*
X172800347Y-98102782D01*
X172821971Y-98092554D01*
X172844493Y-98084496D01*
X172867697Y-98078684D01*
X172891358Y-98075174D01*
X172915250Y-98074000D01*
X173827750Y-98074000D01*
X173851642Y-98075174D01*
G37*
G04 #@! TD.AperFunction*
G04 #@! TA.AperFunction,SMDPad,CuDef*
G36*
X151436142Y-99634174D02*
G01*
X151459803Y-99637684D01*
X151483007Y-99643496D01*
X151505529Y-99651554D01*
X151527153Y-99661782D01*
X151547670Y-99674079D01*
X151566883Y-99688329D01*
X151584607Y-99704393D01*
X151600671Y-99722117D01*
X151614921Y-99741330D01*
X151627218Y-99761847D01*
X151637446Y-99783471D01*
X151645504Y-99805993D01*
X151651316Y-99829197D01*
X151654826Y-99852858D01*
X151656000Y-99876750D01*
X151656000Y-100364250D01*
X151654826Y-100388142D01*
X151651316Y-100411803D01*
X151645504Y-100435007D01*
X151637446Y-100457529D01*
X151627218Y-100479153D01*
X151614921Y-100499670D01*
X151600671Y-100518883D01*
X151584607Y-100536607D01*
X151566883Y-100552671D01*
X151547670Y-100566921D01*
X151527153Y-100579218D01*
X151505529Y-100589446D01*
X151483007Y-100597504D01*
X151459803Y-100603316D01*
X151436142Y-100606826D01*
X151412250Y-100608000D01*
X150499750Y-100608000D01*
X150475858Y-100606826D01*
X150452197Y-100603316D01*
X150428993Y-100597504D01*
X150406471Y-100589446D01*
X150384847Y-100579218D01*
X150364330Y-100566921D01*
X150345117Y-100552671D01*
X150327393Y-100536607D01*
X150311329Y-100518883D01*
X150297079Y-100499670D01*
X150284782Y-100479153D01*
X150274554Y-100457529D01*
X150266496Y-100435007D01*
X150260684Y-100411803D01*
X150257174Y-100388142D01*
X150256000Y-100364250D01*
X150256000Y-99876750D01*
X150257174Y-99852858D01*
X150260684Y-99829197D01*
X150266496Y-99805993D01*
X150274554Y-99783471D01*
X150284782Y-99761847D01*
X150297079Y-99741330D01*
X150311329Y-99722117D01*
X150327393Y-99704393D01*
X150345117Y-99688329D01*
X150364330Y-99674079D01*
X150384847Y-99661782D01*
X150406471Y-99651554D01*
X150428993Y-99643496D01*
X150452197Y-99637684D01*
X150475858Y-99634174D01*
X150499750Y-99633000D01*
X151412250Y-99633000D01*
X151436142Y-99634174D01*
G37*
G04 #@! TD.AperFunction*
G04 #@! TA.AperFunction,SMDPad,CuDef*
G36*
X151436142Y-97759174D02*
G01*
X151459803Y-97762684D01*
X151483007Y-97768496D01*
X151505529Y-97776554D01*
X151527153Y-97786782D01*
X151547670Y-97799079D01*
X151566883Y-97813329D01*
X151584607Y-97829393D01*
X151600671Y-97847117D01*
X151614921Y-97866330D01*
X151627218Y-97886847D01*
X151637446Y-97908471D01*
X151645504Y-97930993D01*
X151651316Y-97954197D01*
X151654826Y-97977858D01*
X151656000Y-98001750D01*
X151656000Y-98489250D01*
X151654826Y-98513142D01*
X151651316Y-98536803D01*
X151645504Y-98560007D01*
X151637446Y-98582529D01*
X151627218Y-98604153D01*
X151614921Y-98624670D01*
X151600671Y-98643883D01*
X151584607Y-98661607D01*
X151566883Y-98677671D01*
X151547670Y-98691921D01*
X151527153Y-98704218D01*
X151505529Y-98714446D01*
X151483007Y-98722504D01*
X151459803Y-98728316D01*
X151436142Y-98731826D01*
X151412250Y-98733000D01*
X150499750Y-98733000D01*
X150475858Y-98731826D01*
X150452197Y-98728316D01*
X150428993Y-98722504D01*
X150406471Y-98714446D01*
X150384847Y-98704218D01*
X150364330Y-98691921D01*
X150345117Y-98677671D01*
X150327393Y-98661607D01*
X150311329Y-98643883D01*
X150297079Y-98624670D01*
X150284782Y-98604153D01*
X150274554Y-98582529D01*
X150266496Y-98560007D01*
X150260684Y-98536803D01*
X150257174Y-98513142D01*
X150256000Y-98489250D01*
X150256000Y-98001750D01*
X150257174Y-97977858D01*
X150260684Y-97954197D01*
X150266496Y-97930993D01*
X150274554Y-97908471D01*
X150284782Y-97886847D01*
X150297079Y-97866330D01*
X150311329Y-97847117D01*
X150327393Y-97829393D01*
X150345117Y-97813329D01*
X150364330Y-97799079D01*
X150384847Y-97786782D01*
X150406471Y-97776554D01*
X150428993Y-97768496D01*
X150452197Y-97762684D01*
X150475858Y-97759174D01*
X150499750Y-97758000D01*
X151412250Y-97758000D01*
X151436142Y-97759174D01*
G37*
G04 #@! TD.AperFunction*
G04 #@! TA.AperFunction,SMDPad,CuDef*
G36*
X151399142Y-95182174D02*
G01*
X151422803Y-95185684D01*
X151446007Y-95191496D01*
X151468529Y-95199554D01*
X151490153Y-95209782D01*
X151510670Y-95222079D01*
X151529883Y-95236329D01*
X151547607Y-95252393D01*
X151563671Y-95270117D01*
X151577921Y-95289330D01*
X151590218Y-95309847D01*
X151600446Y-95331471D01*
X151608504Y-95353993D01*
X151614316Y-95377197D01*
X151617826Y-95400858D01*
X151619000Y-95424750D01*
X151619000Y-96337250D01*
X151617826Y-96361142D01*
X151614316Y-96384803D01*
X151608504Y-96408007D01*
X151600446Y-96430529D01*
X151590218Y-96452153D01*
X151577921Y-96472670D01*
X151563671Y-96491883D01*
X151547607Y-96509607D01*
X151529883Y-96525671D01*
X151510670Y-96539921D01*
X151490153Y-96552218D01*
X151468529Y-96562446D01*
X151446007Y-96570504D01*
X151422803Y-96576316D01*
X151399142Y-96579826D01*
X151375250Y-96581000D01*
X150887750Y-96581000D01*
X150863858Y-96579826D01*
X150840197Y-96576316D01*
X150816993Y-96570504D01*
X150794471Y-96562446D01*
X150772847Y-96552218D01*
X150752330Y-96539921D01*
X150733117Y-96525671D01*
X150715393Y-96509607D01*
X150699329Y-96491883D01*
X150685079Y-96472670D01*
X150672782Y-96452153D01*
X150662554Y-96430529D01*
X150654496Y-96408007D01*
X150648684Y-96384803D01*
X150645174Y-96361142D01*
X150644000Y-96337250D01*
X150644000Y-95424750D01*
X150645174Y-95400858D01*
X150648684Y-95377197D01*
X150654496Y-95353993D01*
X150662554Y-95331471D01*
X150672782Y-95309847D01*
X150685079Y-95289330D01*
X150699329Y-95270117D01*
X150715393Y-95252393D01*
X150733117Y-95236329D01*
X150752330Y-95222079D01*
X150772847Y-95209782D01*
X150794471Y-95199554D01*
X150816993Y-95191496D01*
X150840197Y-95185684D01*
X150863858Y-95182174D01*
X150887750Y-95181000D01*
X151375250Y-95181000D01*
X151399142Y-95182174D01*
G37*
G04 #@! TD.AperFunction*
G04 #@! TA.AperFunction,SMDPad,CuDef*
G36*
X149524142Y-95182174D02*
G01*
X149547803Y-95185684D01*
X149571007Y-95191496D01*
X149593529Y-95199554D01*
X149615153Y-95209782D01*
X149635670Y-95222079D01*
X149654883Y-95236329D01*
X149672607Y-95252393D01*
X149688671Y-95270117D01*
X149702921Y-95289330D01*
X149715218Y-95309847D01*
X149725446Y-95331471D01*
X149733504Y-95353993D01*
X149739316Y-95377197D01*
X149742826Y-95400858D01*
X149744000Y-95424750D01*
X149744000Y-96337250D01*
X149742826Y-96361142D01*
X149739316Y-96384803D01*
X149733504Y-96408007D01*
X149725446Y-96430529D01*
X149715218Y-96452153D01*
X149702921Y-96472670D01*
X149688671Y-96491883D01*
X149672607Y-96509607D01*
X149654883Y-96525671D01*
X149635670Y-96539921D01*
X149615153Y-96552218D01*
X149593529Y-96562446D01*
X149571007Y-96570504D01*
X149547803Y-96576316D01*
X149524142Y-96579826D01*
X149500250Y-96581000D01*
X149012750Y-96581000D01*
X148988858Y-96579826D01*
X148965197Y-96576316D01*
X148941993Y-96570504D01*
X148919471Y-96562446D01*
X148897847Y-96552218D01*
X148877330Y-96539921D01*
X148858117Y-96525671D01*
X148840393Y-96509607D01*
X148824329Y-96491883D01*
X148810079Y-96472670D01*
X148797782Y-96452153D01*
X148787554Y-96430529D01*
X148779496Y-96408007D01*
X148773684Y-96384803D01*
X148770174Y-96361142D01*
X148769000Y-96337250D01*
X148769000Y-95424750D01*
X148770174Y-95400858D01*
X148773684Y-95377197D01*
X148779496Y-95353993D01*
X148787554Y-95331471D01*
X148797782Y-95309847D01*
X148810079Y-95289330D01*
X148824329Y-95270117D01*
X148840393Y-95252393D01*
X148858117Y-95236329D01*
X148877330Y-95222079D01*
X148897847Y-95209782D01*
X148919471Y-95199554D01*
X148941993Y-95191496D01*
X148965197Y-95185684D01*
X148988858Y-95182174D01*
X149012750Y-95181000D01*
X149500250Y-95181000D01*
X149524142Y-95182174D01*
G37*
G04 #@! TD.AperFunction*
D15*
X138736000Y-107900000D03*
X141276000Y-107900000D03*
X143816000Y-107900000D03*
D16*
X146356000Y-107900000D03*
G04 #@! TA.AperFunction,SMDPad,CuDef*
D10*
G36*
X175783142Y-95879174D02*
G01*
X175806803Y-95882684D01*
X175830007Y-95888496D01*
X175852529Y-95896554D01*
X175874153Y-95906782D01*
X175894670Y-95919079D01*
X175913883Y-95933329D01*
X175931607Y-95949393D01*
X175947671Y-95967117D01*
X175961921Y-95986330D01*
X175974218Y-96006847D01*
X175984446Y-96028471D01*
X175992504Y-96050993D01*
X175998316Y-96074197D01*
X176001826Y-96097858D01*
X176003000Y-96121750D01*
X176003000Y-97034250D01*
X176001826Y-97058142D01*
X175998316Y-97081803D01*
X175992504Y-97105007D01*
X175984446Y-97127529D01*
X175974218Y-97149153D01*
X175961921Y-97169670D01*
X175947671Y-97188883D01*
X175931607Y-97206607D01*
X175913883Y-97222671D01*
X175894670Y-97236921D01*
X175874153Y-97249218D01*
X175852529Y-97259446D01*
X175830007Y-97267504D01*
X175806803Y-97273316D01*
X175783142Y-97276826D01*
X175759250Y-97278000D01*
X175271750Y-97278000D01*
X175247858Y-97276826D01*
X175224197Y-97273316D01*
X175200993Y-97267504D01*
X175178471Y-97259446D01*
X175156847Y-97249218D01*
X175136330Y-97236921D01*
X175117117Y-97222671D01*
X175099393Y-97206607D01*
X175083329Y-97188883D01*
X175069079Y-97169670D01*
X175056782Y-97149153D01*
X175046554Y-97127529D01*
X175038496Y-97105007D01*
X175032684Y-97081803D01*
X175029174Y-97058142D01*
X175028000Y-97034250D01*
X175028000Y-96121750D01*
X175029174Y-96097858D01*
X175032684Y-96074197D01*
X175038496Y-96050993D01*
X175046554Y-96028471D01*
X175056782Y-96006847D01*
X175069079Y-95986330D01*
X175083329Y-95967117D01*
X175099393Y-95949393D01*
X175117117Y-95933329D01*
X175136330Y-95919079D01*
X175156847Y-95906782D01*
X175178471Y-95896554D01*
X175200993Y-95888496D01*
X175224197Y-95882684D01*
X175247858Y-95879174D01*
X175271750Y-95878000D01*
X175759250Y-95878000D01*
X175783142Y-95879174D01*
G37*
G04 #@! TD.AperFunction*
G04 #@! TA.AperFunction,SMDPad,CuDef*
G36*
X173908142Y-95879174D02*
G01*
X173931803Y-95882684D01*
X173955007Y-95888496D01*
X173977529Y-95896554D01*
X173999153Y-95906782D01*
X174019670Y-95919079D01*
X174038883Y-95933329D01*
X174056607Y-95949393D01*
X174072671Y-95967117D01*
X174086921Y-95986330D01*
X174099218Y-96006847D01*
X174109446Y-96028471D01*
X174117504Y-96050993D01*
X174123316Y-96074197D01*
X174126826Y-96097858D01*
X174128000Y-96121750D01*
X174128000Y-97034250D01*
X174126826Y-97058142D01*
X174123316Y-97081803D01*
X174117504Y-97105007D01*
X174109446Y-97127529D01*
X174099218Y-97149153D01*
X174086921Y-97169670D01*
X174072671Y-97188883D01*
X174056607Y-97206607D01*
X174038883Y-97222671D01*
X174019670Y-97236921D01*
X173999153Y-97249218D01*
X173977529Y-97259446D01*
X173955007Y-97267504D01*
X173931803Y-97273316D01*
X173908142Y-97276826D01*
X173884250Y-97278000D01*
X173396750Y-97278000D01*
X173372858Y-97276826D01*
X173349197Y-97273316D01*
X173325993Y-97267504D01*
X173303471Y-97259446D01*
X173281847Y-97249218D01*
X173261330Y-97236921D01*
X173242117Y-97222671D01*
X173224393Y-97206607D01*
X173208329Y-97188883D01*
X173194079Y-97169670D01*
X173181782Y-97149153D01*
X173171554Y-97127529D01*
X173163496Y-97105007D01*
X173157684Y-97081803D01*
X173154174Y-97058142D01*
X173153000Y-97034250D01*
X173153000Y-96121750D01*
X173154174Y-96097858D01*
X173157684Y-96074197D01*
X173163496Y-96050993D01*
X173171554Y-96028471D01*
X173181782Y-96006847D01*
X173194079Y-95986330D01*
X173208329Y-95967117D01*
X173224393Y-95949393D01*
X173242117Y-95933329D01*
X173261330Y-95919079D01*
X173281847Y-95906782D01*
X173303471Y-95896554D01*
X173325993Y-95888496D01*
X173349197Y-95882684D01*
X173372858Y-95879174D01*
X173396750Y-95878000D01*
X173884250Y-95878000D01*
X173908142Y-95879174D01*
G37*
G04 #@! TD.AperFunction*
G04 #@! TA.AperFunction,SMDPad,CuDef*
G36*
X136385142Y-103549174D02*
G01*
X136408803Y-103552684D01*
X136432007Y-103558496D01*
X136454529Y-103566554D01*
X136476153Y-103576782D01*
X136496670Y-103589079D01*
X136515883Y-103603329D01*
X136533607Y-103619393D01*
X136549671Y-103637117D01*
X136563921Y-103656330D01*
X136576218Y-103676847D01*
X136586446Y-103698471D01*
X136594504Y-103720993D01*
X136600316Y-103744197D01*
X136603826Y-103767858D01*
X136605000Y-103791750D01*
X136605000Y-104704250D01*
X136603826Y-104728142D01*
X136600316Y-104751803D01*
X136594504Y-104775007D01*
X136586446Y-104797529D01*
X136576218Y-104819153D01*
X136563921Y-104839670D01*
X136549671Y-104858883D01*
X136533607Y-104876607D01*
X136515883Y-104892671D01*
X136496670Y-104906921D01*
X136476153Y-104919218D01*
X136454529Y-104929446D01*
X136432007Y-104937504D01*
X136408803Y-104943316D01*
X136385142Y-104946826D01*
X136361250Y-104948000D01*
X135873750Y-104948000D01*
X135849858Y-104946826D01*
X135826197Y-104943316D01*
X135802993Y-104937504D01*
X135780471Y-104929446D01*
X135758847Y-104919218D01*
X135738330Y-104906921D01*
X135719117Y-104892671D01*
X135701393Y-104876607D01*
X135685329Y-104858883D01*
X135671079Y-104839670D01*
X135658782Y-104819153D01*
X135648554Y-104797529D01*
X135640496Y-104775007D01*
X135634684Y-104751803D01*
X135631174Y-104728142D01*
X135630000Y-104704250D01*
X135630000Y-103791750D01*
X135631174Y-103767858D01*
X135634684Y-103744197D01*
X135640496Y-103720993D01*
X135648554Y-103698471D01*
X135658782Y-103676847D01*
X135671079Y-103656330D01*
X135685329Y-103637117D01*
X135701393Y-103619393D01*
X135719117Y-103603329D01*
X135738330Y-103589079D01*
X135758847Y-103576782D01*
X135780471Y-103566554D01*
X135802993Y-103558496D01*
X135826197Y-103552684D01*
X135849858Y-103549174D01*
X135873750Y-103548000D01*
X136361250Y-103548000D01*
X136385142Y-103549174D01*
G37*
G04 #@! TD.AperFunction*
G04 #@! TA.AperFunction,SMDPad,CuDef*
G36*
X134510142Y-103549174D02*
G01*
X134533803Y-103552684D01*
X134557007Y-103558496D01*
X134579529Y-103566554D01*
X134601153Y-103576782D01*
X134621670Y-103589079D01*
X134640883Y-103603329D01*
X134658607Y-103619393D01*
X134674671Y-103637117D01*
X134688921Y-103656330D01*
X134701218Y-103676847D01*
X134711446Y-103698471D01*
X134719504Y-103720993D01*
X134725316Y-103744197D01*
X134728826Y-103767858D01*
X134730000Y-103791750D01*
X134730000Y-104704250D01*
X134728826Y-104728142D01*
X134725316Y-104751803D01*
X134719504Y-104775007D01*
X134711446Y-104797529D01*
X134701218Y-104819153D01*
X134688921Y-104839670D01*
X134674671Y-104858883D01*
X134658607Y-104876607D01*
X134640883Y-104892671D01*
X134621670Y-104906921D01*
X134601153Y-104919218D01*
X134579529Y-104929446D01*
X134557007Y-104937504D01*
X134533803Y-104943316D01*
X134510142Y-104946826D01*
X134486250Y-104948000D01*
X133998750Y-104948000D01*
X133974858Y-104946826D01*
X133951197Y-104943316D01*
X133927993Y-104937504D01*
X133905471Y-104929446D01*
X133883847Y-104919218D01*
X133863330Y-104906921D01*
X133844117Y-104892671D01*
X133826393Y-104876607D01*
X133810329Y-104858883D01*
X133796079Y-104839670D01*
X133783782Y-104819153D01*
X133773554Y-104797529D01*
X133765496Y-104775007D01*
X133759684Y-104751803D01*
X133756174Y-104728142D01*
X133755000Y-104704250D01*
X133755000Y-103791750D01*
X133756174Y-103767858D01*
X133759684Y-103744197D01*
X133765496Y-103720993D01*
X133773554Y-103698471D01*
X133783782Y-103676847D01*
X133796079Y-103656330D01*
X133810329Y-103637117D01*
X133826393Y-103619393D01*
X133844117Y-103603329D01*
X133863330Y-103589079D01*
X133883847Y-103576782D01*
X133905471Y-103566554D01*
X133927993Y-103558496D01*
X133951197Y-103552684D01*
X133974858Y-103549174D01*
X133998750Y-103548000D01*
X134486250Y-103548000D01*
X134510142Y-103549174D01*
G37*
G04 #@! TD.AperFunction*
G04 #@! TA.AperFunction,SMDPad,CuDef*
G36*
X139580142Y-99111174D02*
G01*
X139603803Y-99114684D01*
X139627007Y-99120496D01*
X139649529Y-99128554D01*
X139671153Y-99138782D01*
X139691670Y-99151079D01*
X139710883Y-99165329D01*
X139728607Y-99181393D01*
X139744671Y-99199117D01*
X139758921Y-99218330D01*
X139771218Y-99238847D01*
X139781446Y-99260471D01*
X139789504Y-99282993D01*
X139795316Y-99306197D01*
X139798826Y-99329858D01*
X139800000Y-99353750D01*
X139800000Y-99841250D01*
X139798826Y-99865142D01*
X139795316Y-99888803D01*
X139789504Y-99912007D01*
X139781446Y-99934529D01*
X139771218Y-99956153D01*
X139758921Y-99976670D01*
X139744671Y-99995883D01*
X139728607Y-100013607D01*
X139710883Y-100029671D01*
X139691670Y-100043921D01*
X139671153Y-100056218D01*
X139649529Y-100066446D01*
X139627007Y-100074504D01*
X139603803Y-100080316D01*
X139580142Y-100083826D01*
X139556250Y-100085000D01*
X138643750Y-100085000D01*
X138619858Y-100083826D01*
X138596197Y-100080316D01*
X138572993Y-100074504D01*
X138550471Y-100066446D01*
X138528847Y-100056218D01*
X138508330Y-100043921D01*
X138489117Y-100029671D01*
X138471393Y-100013607D01*
X138455329Y-99995883D01*
X138441079Y-99976670D01*
X138428782Y-99956153D01*
X138418554Y-99934529D01*
X138410496Y-99912007D01*
X138404684Y-99888803D01*
X138401174Y-99865142D01*
X138400000Y-99841250D01*
X138400000Y-99353750D01*
X138401174Y-99329858D01*
X138404684Y-99306197D01*
X138410496Y-99282993D01*
X138418554Y-99260471D01*
X138428782Y-99238847D01*
X138441079Y-99218330D01*
X138455329Y-99199117D01*
X138471393Y-99181393D01*
X138489117Y-99165329D01*
X138508330Y-99151079D01*
X138528847Y-99138782D01*
X138550471Y-99128554D01*
X138572993Y-99120496D01*
X138596197Y-99114684D01*
X138619858Y-99111174D01*
X138643750Y-99110000D01*
X139556250Y-99110000D01*
X139580142Y-99111174D01*
G37*
G04 #@! TD.AperFunction*
G04 #@! TA.AperFunction,SMDPad,CuDef*
G36*
X139580142Y-97236174D02*
G01*
X139603803Y-97239684D01*
X139627007Y-97245496D01*
X139649529Y-97253554D01*
X139671153Y-97263782D01*
X139691670Y-97276079D01*
X139710883Y-97290329D01*
X139728607Y-97306393D01*
X139744671Y-97324117D01*
X139758921Y-97343330D01*
X139771218Y-97363847D01*
X139781446Y-97385471D01*
X139789504Y-97407993D01*
X139795316Y-97431197D01*
X139798826Y-97454858D01*
X139800000Y-97478750D01*
X139800000Y-97966250D01*
X139798826Y-97990142D01*
X139795316Y-98013803D01*
X139789504Y-98037007D01*
X139781446Y-98059529D01*
X139771218Y-98081153D01*
X139758921Y-98101670D01*
X139744671Y-98120883D01*
X139728607Y-98138607D01*
X139710883Y-98154671D01*
X139691670Y-98168921D01*
X139671153Y-98181218D01*
X139649529Y-98191446D01*
X139627007Y-98199504D01*
X139603803Y-98205316D01*
X139580142Y-98208826D01*
X139556250Y-98210000D01*
X138643750Y-98210000D01*
X138619858Y-98208826D01*
X138596197Y-98205316D01*
X138572993Y-98199504D01*
X138550471Y-98191446D01*
X138528847Y-98181218D01*
X138508330Y-98168921D01*
X138489117Y-98154671D01*
X138471393Y-98138607D01*
X138455329Y-98120883D01*
X138441079Y-98101670D01*
X138428782Y-98081153D01*
X138418554Y-98059529D01*
X138410496Y-98037007D01*
X138404684Y-98013803D01*
X138401174Y-97990142D01*
X138400000Y-97966250D01*
X138400000Y-97478750D01*
X138401174Y-97454858D01*
X138404684Y-97431197D01*
X138410496Y-97407993D01*
X138418554Y-97385471D01*
X138428782Y-97363847D01*
X138441079Y-97343330D01*
X138455329Y-97324117D01*
X138471393Y-97306393D01*
X138489117Y-97290329D01*
X138508330Y-97276079D01*
X138528847Y-97263782D01*
X138550471Y-97253554D01*
X138572993Y-97245496D01*
X138596197Y-97239684D01*
X138619858Y-97236174D01*
X138643750Y-97235000D01*
X139556250Y-97235000D01*
X139580142Y-97236174D01*
G37*
G04 #@! TD.AperFunction*
G04 #@! TA.AperFunction,SMDPad,CuDef*
G36*
X176010642Y-99950174D02*
G01*
X176034303Y-99953684D01*
X176057507Y-99959496D01*
X176080029Y-99967554D01*
X176101653Y-99977782D01*
X176122170Y-99990079D01*
X176141383Y-100004329D01*
X176159107Y-100020393D01*
X176175171Y-100038117D01*
X176189421Y-100057330D01*
X176201718Y-100077847D01*
X176211946Y-100099471D01*
X176220004Y-100121993D01*
X176225816Y-100145197D01*
X176229326Y-100168858D01*
X176230500Y-100192750D01*
X176230500Y-100680250D01*
X176229326Y-100704142D01*
X176225816Y-100727803D01*
X176220004Y-100751007D01*
X176211946Y-100773529D01*
X176201718Y-100795153D01*
X176189421Y-100815670D01*
X176175171Y-100834883D01*
X176159107Y-100852607D01*
X176141383Y-100868671D01*
X176122170Y-100882921D01*
X176101653Y-100895218D01*
X176080029Y-100905446D01*
X176057507Y-100913504D01*
X176034303Y-100919316D01*
X176010642Y-100922826D01*
X175986750Y-100924000D01*
X175074250Y-100924000D01*
X175050358Y-100922826D01*
X175026697Y-100919316D01*
X175003493Y-100913504D01*
X174980971Y-100905446D01*
X174959347Y-100895218D01*
X174938830Y-100882921D01*
X174919617Y-100868671D01*
X174901893Y-100852607D01*
X174885829Y-100834883D01*
X174871579Y-100815670D01*
X174859282Y-100795153D01*
X174849054Y-100773529D01*
X174840996Y-100751007D01*
X174835184Y-100727803D01*
X174831674Y-100704142D01*
X174830500Y-100680250D01*
X174830500Y-100192750D01*
X174831674Y-100168858D01*
X174835184Y-100145197D01*
X174840996Y-100121993D01*
X174849054Y-100099471D01*
X174859282Y-100077847D01*
X174871579Y-100057330D01*
X174885829Y-100038117D01*
X174901893Y-100020393D01*
X174919617Y-100004329D01*
X174938830Y-99990079D01*
X174959347Y-99977782D01*
X174980971Y-99967554D01*
X175003493Y-99959496D01*
X175026697Y-99953684D01*
X175050358Y-99950174D01*
X175074250Y-99949000D01*
X175986750Y-99949000D01*
X176010642Y-99950174D01*
G37*
G04 #@! TD.AperFunction*
G04 #@! TA.AperFunction,SMDPad,CuDef*
G36*
X176010642Y-98075174D02*
G01*
X176034303Y-98078684D01*
X176057507Y-98084496D01*
X176080029Y-98092554D01*
X176101653Y-98102782D01*
X176122170Y-98115079D01*
X176141383Y-98129329D01*
X176159107Y-98145393D01*
X176175171Y-98163117D01*
X176189421Y-98182330D01*
X176201718Y-98202847D01*
X176211946Y-98224471D01*
X176220004Y-98246993D01*
X176225816Y-98270197D01*
X176229326Y-98293858D01*
X176230500Y-98317750D01*
X176230500Y-98805250D01*
X176229326Y-98829142D01*
X176225816Y-98852803D01*
X176220004Y-98876007D01*
X176211946Y-98898529D01*
X176201718Y-98920153D01*
X176189421Y-98940670D01*
X176175171Y-98959883D01*
X176159107Y-98977607D01*
X176141383Y-98993671D01*
X176122170Y-99007921D01*
X176101653Y-99020218D01*
X176080029Y-99030446D01*
X176057507Y-99038504D01*
X176034303Y-99044316D01*
X176010642Y-99047826D01*
X175986750Y-99049000D01*
X175074250Y-99049000D01*
X175050358Y-99047826D01*
X175026697Y-99044316D01*
X175003493Y-99038504D01*
X174980971Y-99030446D01*
X174959347Y-99020218D01*
X174938830Y-99007921D01*
X174919617Y-98993671D01*
X174901893Y-98977607D01*
X174885829Y-98959883D01*
X174871579Y-98940670D01*
X174859282Y-98920153D01*
X174849054Y-98898529D01*
X174840996Y-98876007D01*
X174835184Y-98852803D01*
X174831674Y-98829142D01*
X174830500Y-98805250D01*
X174830500Y-98317750D01*
X174831674Y-98293858D01*
X174835184Y-98270197D01*
X174840996Y-98246993D01*
X174849054Y-98224471D01*
X174859282Y-98202847D01*
X174871579Y-98182330D01*
X174885829Y-98163117D01*
X174901893Y-98145393D01*
X174919617Y-98129329D01*
X174938830Y-98115079D01*
X174959347Y-98102782D01*
X174980971Y-98092554D01*
X175003493Y-98084496D01*
X175026697Y-98078684D01*
X175050358Y-98075174D01*
X175074250Y-98074000D01*
X175986750Y-98074000D01*
X176010642Y-98075174D01*
G37*
G04 #@! TD.AperFunction*
G04 #@! TA.AperFunction,SMDPad,CuDef*
G36*
X134538142Y-97087174D02*
G01*
X134561803Y-97090684D01*
X134585007Y-97096496D01*
X134607529Y-97104554D01*
X134629153Y-97114782D01*
X134649670Y-97127079D01*
X134668883Y-97141329D01*
X134686607Y-97157393D01*
X134702671Y-97175117D01*
X134716921Y-97194330D01*
X134729218Y-97214847D01*
X134739446Y-97236471D01*
X134747504Y-97258993D01*
X134753316Y-97282197D01*
X134756826Y-97305858D01*
X134758000Y-97329750D01*
X134758000Y-98242250D01*
X134756826Y-98266142D01*
X134753316Y-98289803D01*
X134747504Y-98313007D01*
X134739446Y-98335529D01*
X134729218Y-98357153D01*
X134716921Y-98377670D01*
X134702671Y-98396883D01*
X134686607Y-98414607D01*
X134668883Y-98430671D01*
X134649670Y-98444921D01*
X134629153Y-98457218D01*
X134607529Y-98467446D01*
X134585007Y-98475504D01*
X134561803Y-98481316D01*
X134538142Y-98484826D01*
X134514250Y-98486000D01*
X134026750Y-98486000D01*
X134002858Y-98484826D01*
X133979197Y-98481316D01*
X133955993Y-98475504D01*
X133933471Y-98467446D01*
X133911847Y-98457218D01*
X133891330Y-98444921D01*
X133872117Y-98430671D01*
X133854393Y-98414607D01*
X133838329Y-98396883D01*
X133824079Y-98377670D01*
X133811782Y-98357153D01*
X133801554Y-98335529D01*
X133793496Y-98313007D01*
X133787684Y-98289803D01*
X133784174Y-98266142D01*
X133783000Y-98242250D01*
X133783000Y-97329750D01*
X133784174Y-97305858D01*
X133787684Y-97282197D01*
X133793496Y-97258993D01*
X133801554Y-97236471D01*
X133811782Y-97214847D01*
X133824079Y-97194330D01*
X133838329Y-97175117D01*
X133854393Y-97157393D01*
X133872117Y-97141329D01*
X133891330Y-97127079D01*
X133911847Y-97114782D01*
X133933471Y-97104554D01*
X133955993Y-97096496D01*
X133979197Y-97090684D01*
X134002858Y-97087174D01*
X134026750Y-97086000D01*
X134514250Y-97086000D01*
X134538142Y-97087174D01*
G37*
G04 #@! TD.AperFunction*
G04 #@! TA.AperFunction,SMDPad,CuDef*
G36*
X136413142Y-97087174D02*
G01*
X136436803Y-97090684D01*
X136460007Y-97096496D01*
X136482529Y-97104554D01*
X136504153Y-97114782D01*
X136524670Y-97127079D01*
X136543883Y-97141329D01*
X136561607Y-97157393D01*
X136577671Y-97175117D01*
X136591921Y-97194330D01*
X136604218Y-97214847D01*
X136614446Y-97236471D01*
X136622504Y-97258993D01*
X136628316Y-97282197D01*
X136631826Y-97305858D01*
X136633000Y-97329750D01*
X136633000Y-98242250D01*
X136631826Y-98266142D01*
X136628316Y-98289803D01*
X136622504Y-98313007D01*
X136614446Y-98335529D01*
X136604218Y-98357153D01*
X136591921Y-98377670D01*
X136577671Y-98396883D01*
X136561607Y-98414607D01*
X136543883Y-98430671D01*
X136524670Y-98444921D01*
X136504153Y-98457218D01*
X136482529Y-98467446D01*
X136460007Y-98475504D01*
X136436803Y-98481316D01*
X136413142Y-98484826D01*
X136389250Y-98486000D01*
X135901750Y-98486000D01*
X135877858Y-98484826D01*
X135854197Y-98481316D01*
X135830993Y-98475504D01*
X135808471Y-98467446D01*
X135786847Y-98457218D01*
X135766330Y-98444921D01*
X135747117Y-98430671D01*
X135729393Y-98414607D01*
X135713329Y-98396883D01*
X135699079Y-98377670D01*
X135686782Y-98357153D01*
X135676554Y-98335529D01*
X135668496Y-98313007D01*
X135662684Y-98289803D01*
X135659174Y-98266142D01*
X135658000Y-98242250D01*
X135658000Y-97329750D01*
X135659174Y-97305858D01*
X135662684Y-97282197D01*
X135668496Y-97258993D01*
X135676554Y-97236471D01*
X135686782Y-97214847D01*
X135699079Y-97194330D01*
X135713329Y-97175117D01*
X135729393Y-97157393D01*
X135747117Y-97141329D01*
X135766330Y-97127079D01*
X135786847Y-97114782D01*
X135808471Y-97104554D01*
X135830993Y-97096496D01*
X135854197Y-97090684D01*
X135877858Y-97087174D01*
X135901750Y-97086000D01*
X136389250Y-97086000D01*
X136413142Y-97087174D01*
G37*
G04 #@! TD.AperFunction*
G04 #@! TA.AperFunction,SMDPad,CuDef*
G36*
X136385142Y-105987574D02*
G01*
X136408803Y-105991084D01*
X136432007Y-105996896D01*
X136454529Y-106004954D01*
X136476153Y-106015182D01*
X136496670Y-106027479D01*
X136515883Y-106041729D01*
X136533607Y-106057793D01*
X136549671Y-106075517D01*
X136563921Y-106094730D01*
X136576218Y-106115247D01*
X136586446Y-106136871D01*
X136594504Y-106159393D01*
X136600316Y-106182597D01*
X136603826Y-106206258D01*
X136605000Y-106230150D01*
X136605000Y-107142650D01*
X136603826Y-107166542D01*
X136600316Y-107190203D01*
X136594504Y-107213407D01*
X136586446Y-107235929D01*
X136576218Y-107257553D01*
X136563921Y-107278070D01*
X136549671Y-107297283D01*
X136533607Y-107315007D01*
X136515883Y-107331071D01*
X136496670Y-107345321D01*
X136476153Y-107357618D01*
X136454529Y-107367846D01*
X136432007Y-107375904D01*
X136408803Y-107381716D01*
X136385142Y-107385226D01*
X136361250Y-107386400D01*
X135873750Y-107386400D01*
X135849858Y-107385226D01*
X135826197Y-107381716D01*
X135802993Y-107375904D01*
X135780471Y-107367846D01*
X135758847Y-107357618D01*
X135738330Y-107345321D01*
X135719117Y-107331071D01*
X135701393Y-107315007D01*
X135685329Y-107297283D01*
X135671079Y-107278070D01*
X135658782Y-107257553D01*
X135648554Y-107235929D01*
X135640496Y-107213407D01*
X135634684Y-107190203D01*
X135631174Y-107166542D01*
X135630000Y-107142650D01*
X135630000Y-106230150D01*
X135631174Y-106206258D01*
X135634684Y-106182597D01*
X135640496Y-106159393D01*
X135648554Y-106136871D01*
X135658782Y-106115247D01*
X135671079Y-106094730D01*
X135685329Y-106075517D01*
X135701393Y-106057793D01*
X135719117Y-106041729D01*
X135738330Y-106027479D01*
X135758847Y-106015182D01*
X135780471Y-106004954D01*
X135802993Y-105996896D01*
X135826197Y-105991084D01*
X135849858Y-105987574D01*
X135873750Y-105986400D01*
X136361250Y-105986400D01*
X136385142Y-105987574D01*
G37*
G04 #@! TD.AperFunction*
G04 #@! TA.AperFunction,SMDPad,CuDef*
G36*
X134510142Y-105987574D02*
G01*
X134533803Y-105991084D01*
X134557007Y-105996896D01*
X134579529Y-106004954D01*
X134601153Y-106015182D01*
X134621670Y-106027479D01*
X134640883Y-106041729D01*
X134658607Y-106057793D01*
X134674671Y-106075517D01*
X134688921Y-106094730D01*
X134701218Y-106115247D01*
X134711446Y-106136871D01*
X134719504Y-106159393D01*
X134725316Y-106182597D01*
X134728826Y-106206258D01*
X134730000Y-106230150D01*
X134730000Y-107142650D01*
X134728826Y-107166542D01*
X134725316Y-107190203D01*
X134719504Y-107213407D01*
X134711446Y-107235929D01*
X134701218Y-107257553D01*
X134688921Y-107278070D01*
X134674671Y-107297283D01*
X134658607Y-107315007D01*
X134640883Y-107331071D01*
X134621670Y-107345321D01*
X134601153Y-107357618D01*
X134579529Y-107367846D01*
X134557007Y-107375904D01*
X134533803Y-107381716D01*
X134510142Y-107385226D01*
X134486250Y-107386400D01*
X133998750Y-107386400D01*
X133974858Y-107385226D01*
X133951197Y-107381716D01*
X133927993Y-107375904D01*
X133905471Y-107367846D01*
X133883847Y-107357618D01*
X133863330Y-107345321D01*
X133844117Y-107331071D01*
X133826393Y-107315007D01*
X133810329Y-107297283D01*
X133796079Y-107278070D01*
X133783782Y-107257553D01*
X133773554Y-107235929D01*
X133765496Y-107213407D01*
X133759684Y-107190203D01*
X133756174Y-107166542D01*
X133755000Y-107142650D01*
X133755000Y-106230150D01*
X133756174Y-106206258D01*
X133759684Y-106182597D01*
X133765496Y-106159393D01*
X133773554Y-106136871D01*
X133783782Y-106115247D01*
X133796079Y-106094730D01*
X133810329Y-106075517D01*
X133826393Y-106057793D01*
X133844117Y-106041729D01*
X133863330Y-106027479D01*
X133883847Y-106015182D01*
X133905471Y-106004954D01*
X133927993Y-105996896D01*
X133951197Y-105991084D01*
X133974858Y-105987574D01*
X133998750Y-105986400D01*
X134486250Y-105986400D01*
X134510142Y-105987574D01*
G37*
G04 #@! TD.AperFunction*
G04 #@! TA.AperFunction,SMDPad,CuDef*
G36*
X149277142Y-99634174D02*
G01*
X149300803Y-99637684D01*
X149324007Y-99643496D01*
X149346529Y-99651554D01*
X149368153Y-99661782D01*
X149388670Y-99674079D01*
X149407883Y-99688329D01*
X149425607Y-99704393D01*
X149441671Y-99722117D01*
X149455921Y-99741330D01*
X149468218Y-99761847D01*
X149478446Y-99783471D01*
X149486504Y-99805993D01*
X149492316Y-99829197D01*
X149495826Y-99852858D01*
X149497000Y-99876750D01*
X149497000Y-100364250D01*
X149495826Y-100388142D01*
X149492316Y-100411803D01*
X149486504Y-100435007D01*
X149478446Y-100457529D01*
X149468218Y-100479153D01*
X149455921Y-100499670D01*
X149441671Y-100518883D01*
X149425607Y-100536607D01*
X149407883Y-100552671D01*
X149388670Y-100566921D01*
X149368153Y-100579218D01*
X149346529Y-100589446D01*
X149324007Y-100597504D01*
X149300803Y-100603316D01*
X149277142Y-100606826D01*
X149253250Y-100608000D01*
X148340750Y-100608000D01*
X148316858Y-100606826D01*
X148293197Y-100603316D01*
X148269993Y-100597504D01*
X148247471Y-100589446D01*
X148225847Y-100579218D01*
X148205330Y-100566921D01*
X148186117Y-100552671D01*
X148168393Y-100536607D01*
X148152329Y-100518883D01*
X148138079Y-100499670D01*
X148125782Y-100479153D01*
X148115554Y-100457529D01*
X148107496Y-100435007D01*
X148101684Y-100411803D01*
X148098174Y-100388142D01*
X148097000Y-100364250D01*
X148097000Y-99876750D01*
X148098174Y-99852858D01*
X148101684Y-99829197D01*
X148107496Y-99805993D01*
X148115554Y-99783471D01*
X148125782Y-99761847D01*
X148138079Y-99741330D01*
X148152329Y-99722117D01*
X148168393Y-99704393D01*
X148186117Y-99688329D01*
X148205330Y-99674079D01*
X148225847Y-99661782D01*
X148247471Y-99651554D01*
X148269993Y-99643496D01*
X148293197Y-99637684D01*
X148316858Y-99634174D01*
X148340750Y-99633000D01*
X149253250Y-99633000D01*
X149277142Y-99634174D01*
G37*
G04 #@! TD.AperFunction*
G04 #@! TA.AperFunction,SMDPad,CuDef*
G36*
X149277142Y-97759174D02*
G01*
X149300803Y-97762684D01*
X149324007Y-97768496D01*
X149346529Y-97776554D01*
X149368153Y-97786782D01*
X149388670Y-97799079D01*
X149407883Y-97813329D01*
X149425607Y-97829393D01*
X149441671Y-97847117D01*
X149455921Y-97866330D01*
X149468218Y-97886847D01*
X149478446Y-97908471D01*
X149486504Y-97930993D01*
X149492316Y-97954197D01*
X149495826Y-97977858D01*
X149497000Y-98001750D01*
X149497000Y-98489250D01*
X149495826Y-98513142D01*
X149492316Y-98536803D01*
X149486504Y-98560007D01*
X149478446Y-98582529D01*
X149468218Y-98604153D01*
X149455921Y-98624670D01*
X149441671Y-98643883D01*
X149425607Y-98661607D01*
X149407883Y-98677671D01*
X149388670Y-98691921D01*
X149368153Y-98704218D01*
X149346529Y-98714446D01*
X149324007Y-98722504D01*
X149300803Y-98728316D01*
X149277142Y-98731826D01*
X149253250Y-98733000D01*
X148340750Y-98733000D01*
X148316858Y-98731826D01*
X148293197Y-98728316D01*
X148269993Y-98722504D01*
X148247471Y-98714446D01*
X148225847Y-98704218D01*
X148205330Y-98691921D01*
X148186117Y-98677671D01*
X148168393Y-98661607D01*
X148152329Y-98643883D01*
X148138079Y-98624670D01*
X148125782Y-98604153D01*
X148115554Y-98582529D01*
X148107496Y-98560007D01*
X148101684Y-98536803D01*
X148098174Y-98513142D01*
X148097000Y-98489250D01*
X148097000Y-98001750D01*
X148098174Y-97977858D01*
X148101684Y-97954197D01*
X148107496Y-97930993D01*
X148115554Y-97908471D01*
X148125782Y-97886847D01*
X148138079Y-97866330D01*
X148152329Y-97847117D01*
X148168393Y-97829393D01*
X148186117Y-97813329D01*
X148205330Y-97799079D01*
X148225847Y-97786782D01*
X148247471Y-97776554D01*
X148269993Y-97768496D01*
X148293197Y-97762684D01*
X148316858Y-97759174D01*
X148340750Y-97758000D01*
X149253250Y-97758000D01*
X149277142Y-97759174D01*
G37*
G04 #@! TD.AperFunction*
D17*
X149876500Y-101088000D03*
X124334500Y-104545000D03*
X176836000Y-93358000D03*
X144098000Y-101342000D03*
X139272000Y-96008000D03*
X133176000Y-97786000D03*
X132668000Y-101088000D03*
X149876500Y-109216000D03*
X137466000Y-105518000D03*
X130953500Y-107087000D03*
X174500000Y-102000000D03*
X139335500Y-105880500D03*
X142129500Y-100546500D03*
X171500000Y-103247000D03*
X139653000Y-102070500D03*
X126254500Y-104356500D03*
X171500000Y-93500000D03*
X145250000Y-96685800D03*
D18*
X148909000Y-100120500D02*
X149876500Y-101088000D01*
X148797000Y-100120500D02*
X148909000Y-100120500D01*
X150844000Y-100120500D02*
X149876500Y-101088000D01*
X150956000Y-100120500D02*
X150844000Y-100120500D01*
X123588500Y-106831000D02*
X123588500Y-105291000D01*
X123588500Y-105291000D02*
X124334500Y-104545000D01*
X127222000Y-106147500D02*
X125588500Y-107781000D01*
X127636500Y-106147500D02*
X127222000Y-106147500D01*
D19*
X127969000Y-108355000D02*
X127636500Y-108022500D01*
X130001000Y-108355000D02*
X127969000Y-108355000D01*
D18*
X174550000Y-92612000D02*
X176090000Y-92612000D01*
X176090000Y-92612000D02*
X176836000Y-93358000D01*
X144705000Y-103675000D02*
X144705000Y-101949000D01*
X144705000Y-101949000D02*
X144098000Y-101342000D01*
X139100000Y-97722500D02*
X139100000Y-96180000D01*
X139100000Y-96180000D02*
X139272000Y-96008000D01*
X134270500Y-97786000D02*
X133176000Y-97786000D01*
X134108000Y-101088000D02*
X132668000Y-101088000D01*
X136117500Y-106280000D02*
X136493000Y-106280000D01*
X150956000Y-108248500D02*
X150844000Y-108248500D01*
X150844000Y-108248500D02*
X149876500Y-109216000D01*
X148909000Y-108248500D02*
X149876500Y-109216000D01*
X148797000Y-108248500D02*
X148909000Y-108248500D01*
X136117500Y-104248000D02*
X136196000Y-104248000D01*
X136297600Y-106686400D02*
X137466000Y-105518000D01*
X136196000Y-104248000D02*
X137466000Y-105518000D01*
X136117500Y-106686400D02*
X136297600Y-106686400D01*
X131876000Y-105815000D02*
X131876000Y-106164500D01*
X131876000Y-106164500D02*
X130953500Y-107087000D01*
X175530500Y-100436500D02*
X175530500Y-100969500D01*
X175530500Y-100969500D02*
X174500000Y-102000000D01*
D19*
X145158500Y-106373500D02*
X148797000Y-106373500D01*
X143435000Y-103675000D02*
X143435000Y-104650000D01*
X143435000Y-104650000D02*
X145158500Y-106373500D01*
X150956000Y-106373500D02*
X148797000Y-106373500D01*
X148797000Y-104468500D02*
X149256500Y-104009000D01*
X148797000Y-106373500D02*
X148797000Y-104468500D01*
X150956000Y-98245500D02*
X148797000Y-98245500D01*
X148797000Y-96340500D02*
X149256500Y-95881000D01*
X148797000Y-98245500D02*
X148797000Y-96340500D01*
X149256500Y-95881000D02*
X144763000Y-95881000D01*
X143435000Y-97209000D02*
X143435000Y-98725000D01*
X144763000Y-95881000D02*
X143435000Y-97209000D01*
D18*
X138736000Y-107900000D02*
X134908000Y-107900000D01*
X134242500Y-107234500D02*
X134242500Y-106280000D01*
X134908000Y-107900000D02*
X134242500Y-107234500D01*
X134242500Y-106280000D02*
X134242500Y-104248000D01*
X134108000Y-104113500D02*
X134242500Y-104248000D01*
X134108000Y-102038000D02*
X134108000Y-104113500D01*
X135095201Y-100397239D02*
X134835962Y-100138000D01*
X134835962Y-100138000D02*
X134108000Y-100138000D01*
X134835962Y-102038000D02*
X135095201Y-101778761D01*
X135095201Y-101778761D02*
X135095201Y-100397239D01*
X134108000Y-102038000D02*
X134835962Y-102038000D01*
X139972500Y-98725000D02*
X139100000Y-99597500D01*
X140895000Y-98725000D02*
X139972500Y-98725000D01*
X136308000Y-97948500D02*
X136145500Y-97786000D01*
X136308000Y-100138000D02*
X136308000Y-97948500D01*
X129668500Y-106147500D02*
X130001000Y-105815000D01*
X127636500Y-106147500D02*
X129668500Y-106147500D01*
X175515500Y-96527500D02*
X173600000Y-94612000D01*
X175515500Y-96578000D02*
X175515500Y-96527500D01*
D19*
X141276000Y-107900000D02*
X141276000Y-107466000D01*
X141276000Y-107900000D02*
X139335500Y-105959500D01*
X139335500Y-105959500D02*
X139335500Y-105880500D01*
X142129500Y-98760500D02*
X142165000Y-98725000D01*
X142129500Y-100546500D02*
X142129500Y-98760500D01*
X173371500Y-101375500D02*
X171500000Y-103247000D01*
X173371500Y-100436500D02*
X173371500Y-101375500D01*
X143816000Y-107900000D02*
X141992000Y-109724000D01*
X133689500Y-109724000D02*
X132320500Y-108355000D01*
X141992000Y-109724000D02*
X133689500Y-109724000D01*
X140895000Y-104979000D02*
X140895000Y-103675000D01*
X143816000Y-107900000D02*
X140895000Y-104979000D01*
X173371500Y-96847000D02*
X173640500Y-96578000D01*
X173371500Y-98561500D02*
X173371500Y-96847000D01*
X153254000Y-106131500D02*
X153254000Y-106534000D01*
X151131500Y-104009000D02*
X153254000Y-106131500D01*
X154015999Y-107295999D02*
X155754000Y-109034000D01*
X153254000Y-106534000D02*
X154015999Y-107295999D01*
X154992001Y-100144001D02*
X153254000Y-98406000D01*
X155754000Y-100906000D02*
X154992001Y-100144001D01*
X153254000Y-98003500D02*
X153254000Y-98406000D01*
X151131500Y-95881000D02*
X153254000Y-98003500D01*
X141535500Y-102070500D02*
X139653000Y-102070500D01*
X142165000Y-103675000D02*
X142165000Y-102700000D01*
X142165000Y-102700000D02*
X141535500Y-102070500D01*
X125588500Y-105022500D02*
X126254500Y-104356500D01*
X125588500Y-105881000D02*
X125588500Y-105022500D01*
X175092000Y-93500000D02*
X171500000Y-93500000D01*
X175500000Y-94612000D02*
X175500000Y-93908000D01*
X175500000Y-93908000D02*
X175092000Y-93500000D01*
X144705000Y-97230800D02*
X145250000Y-96685800D01*
X144705000Y-98725000D02*
X144705000Y-97230800D01*
G36*
X124662250Y-107654000D02*
G01*
X125461500Y-107654000D01*
X125461500Y-107634000D01*
X125715500Y-107634000D01*
X125715500Y-107654000D01*
X125735500Y-107654000D01*
X125735500Y-107908000D01*
X125715500Y-107908000D01*
X125715500Y-108657250D01*
X125874250Y-108816000D01*
X126038500Y-108819072D01*
X126162982Y-108806812D01*
X126282680Y-108770502D01*
X126392994Y-108711537D01*
X126413982Y-108694313D01*
X126447042Y-108756164D01*
X126556708Y-108889792D01*
X126690336Y-108999458D01*
X126842791Y-109080947D01*
X127008215Y-109131128D01*
X127180250Y-109148072D01*
X128092750Y-109148072D01*
X128264785Y-109131128D01*
X128311359Y-109117000D01*
X128932934Y-109117000D01*
X128942553Y-109148709D01*
X129024042Y-109301164D01*
X129133708Y-109434792D01*
X129267336Y-109544458D01*
X129419791Y-109625947D01*
X129585215Y-109676128D01*
X129757250Y-109693072D01*
X130244750Y-109693072D01*
X130416785Y-109676128D01*
X130582209Y-109625947D01*
X130734664Y-109544458D01*
X130868292Y-109434792D01*
X130938500Y-109349244D01*
X131008708Y-109434792D01*
X131142336Y-109544458D01*
X131294791Y-109625947D01*
X131460215Y-109676128D01*
X131632250Y-109693072D01*
X132119750Y-109693072D01*
X132291785Y-109676128D01*
X132457209Y-109625947D01*
X132494099Y-109606229D01*
X133124221Y-110236352D01*
X133148078Y-110265422D01*
X133178026Y-110290000D01*
X123534729Y-110290000D01*
X123347216Y-110271614D01*
X123200252Y-110227243D01*
X123064703Y-110155171D01*
X122945742Y-110058148D01*
X122847882Y-109939856D01*
X122774868Y-109804819D01*
X122729471Y-109658167D01*
X122710000Y-109472908D01*
X122710000Y-108181000D01*
X124500428Y-108181000D01*
X124512688Y-108305482D01*
X124548998Y-108425180D01*
X124607963Y-108535494D01*
X124687315Y-108632185D01*
X124784006Y-108711537D01*
X124894320Y-108770502D01*
X125014018Y-108806812D01*
X125138500Y-108819072D01*
X125302750Y-108816000D01*
X125461500Y-108657250D01*
X125461500Y-107908000D01*
X124662250Y-107908000D01*
X124503500Y-108066750D01*
X124500428Y-108181000D01*
X122710000Y-108181000D01*
X122710000Y-107700802D01*
X122784006Y-107761537D01*
X122894320Y-107820502D01*
X123014018Y-107856812D01*
X123138500Y-107869072D01*
X124038500Y-107869072D01*
X124162982Y-107856812D01*
X124282680Y-107820502D01*
X124392994Y-107761537D01*
X124489685Y-107682185D01*
X124569037Y-107585494D01*
X124577643Y-107569393D01*
X124662250Y-107654000D01*
G37*
X124662250Y-107654000D02*
X125461500Y-107654000D01*
X125461500Y-107634000D01*
X125715500Y-107634000D01*
X125715500Y-107654000D01*
X125735500Y-107654000D01*
X125735500Y-107908000D01*
X125715500Y-107908000D01*
X125715500Y-108657250D01*
X125874250Y-108816000D01*
X126038500Y-108819072D01*
X126162982Y-108806812D01*
X126282680Y-108770502D01*
X126392994Y-108711537D01*
X126413982Y-108694313D01*
X126447042Y-108756164D01*
X126556708Y-108889792D01*
X126690336Y-108999458D01*
X126842791Y-109080947D01*
X127008215Y-109131128D01*
X127180250Y-109148072D01*
X128092750Y-109148072D01*
X128264785Y-109131128D01*
X128311359Y-109117000D01*
X128932934Y-109117000D01*
X128942553Y-109148709D01*
X129024042Y-109301164D01*
X129133708Y-109434792D01*
X129267336Y-109544458D01*
X129419791Y-109625947D01*
X129585215Y-109676128D01*
X129757250Y-109693072D01*
X130244750Y-109693072D01*
X130416785Y-109676128D01*
X130582209Y-109625947D01*
X130734664Y-109544458D01*
X130868292Y-109434792D01*
X130938500Y-109349244D01*
X131008708Y-109434792D01*
X131142336Y-109544458D01*
X131294791Y-109625947D01*
X131460215Y-109676128D01*
X131632250Y-109693072D01*
X132119750Y-109693072D01*
X132291785Y-109676128D01*
X132457209Y-109625947D01*
X132494099Y-109606229D01*
X133124221Y-110236352D01*
X133148078Y-110265422D01*
X133178026Y-110290000D01*
X123534729Y-110290000D01*
X123347216Y-110271614D01*
X123200252Y-110227243D01*
X123064703Y-110155171D01*
X122945742Y-110058148D01*
X122847882Y-109939856D01*
X122774868Y-109804819D01*
X122729471Y-109658167D01*
X122710000Y-109472908D01*
X122710000Y-108181000D01*
X124500428Y-108181000D01*
X124512688Y-108305482D01*
X124548998Y-108425180D01*
X124607963Y-108535494D01*
X124687315Y-108632185D01*
X124784006Y-108711537D01*
X124894320Y-108770502D01*
X125014018Y-108806812D01*
X125138500Y-108819072D01*
X125302750Y-108816000D01*
X125461500Y-108657250D01*
X125461500Y-107908000D01*
X124662250Y-107908000D01*
X124503500Y-108066750D01*
X124500428Y-108181000D01*
X122710000Y-108181000D01*
X122710000Y-107700802D01*
X122784006Y-107761537D01*
X122894320Y-107820502D01*
X123014018Y-107856812D01*
X123138500Y-107869072D01*
X124038500Y-107869072D01*
X124162982Y-107856812D01*
X124282680Y-107820502D01*
X124392994Y-107761537D01*
X124489685Y-107682185D01*
X124569037Y-107585494D01*
X124577643Y-107569393D01*
X124662250Y-107654000D01*
G36*
X173698815Y-91710815D02*
G01*
X173619463Y-91807506D01*
X173560498Y-91917820D01*
X173524188Y-92037518D01*
X173511928Y-92162000D01*
X173511928Y-92738000D01*
X172343132Y-92738000D01*
X172223520Y-92618388D01*
X172037624Y-92494176D01*
X171831067Y-92408617D01*
X171611788Y-92365000D01*
X171388212Y-92365000D01*
X171168933Y-92408617D01*
X170962376Y-92494176D01*
X170776480Y-92618388D01*
X170618388Y-92776480D01*
X170494176Y-92962376D01*
X170408617Y-93168933D01*
X170365000Y-93388212D01*
X170365000Y-93611788D01*
X170408617Y-93831067D01*
X170494176Y-94037624D01*
X170618388Y-94223520D01*
X170776480Y-94381612D01*
X170962376Y-94505824D01*
X171168933Y-94591383D01*
X171388212Y-94635000D01*
X171611788Y-94635000D01*
X171831067Y-94591383D01*
X172037624Y-94505824D01*
X172223520Y-94381612D01*
X172343132Y-94262000D01*
X172563798Y-94262000D01*
X172565000Y-94326250D01*
X172723750Y-94485000D01*
X173473000Y-94485000D01*
X173473000Y-94465000D01*
X173727000Y-94465000D01*
X173727000Y-94485000D01*
X173747000Y-94485000D01*
X173747000Y-94739000D01*
X173727000Y-94739000D01*
X173727000Y-94759000D01*
X173473000Y-94759000D01*
X173473000Y-94739000D01*
X172723750Y-94739000D01*
X172565000Y-94897750D01*
X172561928Y-95062000D01*
X172574188Y-95186482D01*
X172610498Y-95306180D01*
X172669463Y-95416494D01*
X172748815Y-95513185D01*
X172756046Y-95519120D01*
X172663542Y-95631836D01*
X172582053Y-95784291D01*
X172531872Y-95949715D01*
X172514928Y-96121750D01*
X172514928Y-97034250D01*
X172531872Y-97206285D01*
X172582053Y-97371709D01*
X172609501Y-97423060D01*
X172609501Y-97493434D01*
X172577791Y-97503053D01*
X172425336Y-97584542D01*
X172291708Y-97694208D01*
X172182042Y-97827836D01*
X172100553Y-97980291D01*
X172050372Y-98145715D01*
X172033428Y-98317750D01*
X172033428Y-98805250D01*
X172050372Y-98977285D01*
X172100553Y-99142709D01*
X172182042Y-99295164D01*
X172291708Y-99428792D01*
X172377256Y-99499000D01*
X172291708Y-99569208D01*
X172182042Y-99702836D01*
X172100553Y-99855291D01*
X172050372Y-100020715D01*
X172033428Y-100192750D01*
X172033428Y-100680250D01*
X172050372Y-100852285D01*
X172100553Y-101017709D01*
X172182042Y-101170164D01*
X172291708Y-101303792D01*
X172332281Y-101337089D01*
X171557370Y-102112000D01*
X171388212Y-102112000D01*
X171168933Y-102155617D01*
X170962376Y-102241176D01*
X170776480Y-102365388D01*
X170618388Y-102523480D01*
X170494176Y-102709376D01*
X170408617Y-102915933D01*
X170365000Y-103135212D01*
X170365000Y-103358788D01*
X170401045Y-103540000D01*
X162115123Y-103540000D01*
X162084424Y-103543024D01*
X162075180Y-103542959D01*
X162065315Y-103543926D01*
X161774169Y-103574526D01*
X161711138Y-103587464D01*
X161647920Y-103599524D01*
X161638430Y-103602389D01*
X161358774Y-103688957D01*
X161299479Y-103713883D01*
X161239785Y-103738001D01*
X161231033Y-103742655D01*
X160973517Y-103881894D01*
X160920158Y-103917885D01*
X160866323Y-103953114D01*
X160858640Y-103959379D01*
X160633073Y-104145984D01*
X160587735Y-104191640D01*
X160541753Y-104236669D01*
X160535434Y-104244308D01*
X160350408Y-104471172D01*
X160314835Y-104524714D01*
X160278440Y-104577867D01*
X160273725Y-104586588D01*
X160136288Y-104845069D01*
X160111780Y-104904530D01*
X160086416Y-104963710D01*
X160083484Y-104973180D01*
X159998870Y-105253435D01*
X159986377Y-105316532D01*
X159972991Y-105379506D01*
X159971955Y-105389365D01*
X159943388Y-105680717D01*
X159943388Y-105680733D01*
X159940001Y-105715123D01*
X159940000Y-109465271D01*
X159921614Y-109652784D01*
X159877243Y-109799748D01*
X159805171Y-109935297D01*
X159708148Y-110054258D01*
X159589856Y-110152118D01*
X159454819Y-110225132D01*
X159308167Y-110270529D01*
X159122908Y-110290000D01*
X156372283Y-110290000D01*
X156415727Y-110272005D01*
X156644535Y-110119120D01*
X156839120Y-109924535D01*
X156992005Y-109695727D01*
X157097314Y-109441490D01*
X157151000Y-109171592D01*
X157151000Y-108896408D01*
X157097314Y-108626510D01*
X156992005Y-108372273D01*
X156839120Y-108143465D01*
X156644535Y-107948880D01*
X156415727Y-107795995D01*
X156161490Y-107690686D01*
X155891592Y-107637000D01*
X155616408Y-107637000D01*
X155464789Y-107667159D01*
X155297195Y-107499565D01*
X157468040Y-107499565D01*
X157535020Y-107739656D01*
X157784048Y-107856756D01*
X158051135Y-107923023D01*
X158326017Y-107935910D01*
X158598133Y-107894922D01*
X158857023Y-107801636D01*
X158972980Y-107739656D01*
X159039960Y-107499565D01*
X158254000Y-106713605D01*
X157468040Y-107499565D01*
X155297195Y-107499565D01*
X154620841Y-106823211D01*
X154651000Y-106671592D01*
X154651000Y-106606017D01*
X156852090Y-106606017D01*
X156893078Y-106878133D01*
X156986364Y-107137023D01*
X157048344Y-107252980D01*
X157288435Y-107319960D01*
X158074395Y-106534000D01*
X158433605Y-106534000D01*
X159219565Y-107319960D01*
X159459656Y-107252980D01*
X159576756Y-107003952D01*
X159643023Y-106736865D01*
X159655910Y-106461983D01*
X159614922Y-106189867D01*
X159521636Y-105930977D01*
X159459656Y-105815020D01*
X159219565Y-105748040D01*
X158433605Y-106534000D01*
X158074395Y-106534000D01*
X157288435Y-105748040D01*
X157048344Y-105815020D01*
X156931244Y-106064048D01*
X156864977Y-106331135D01*
X156852090Y-106606017D01*
X154651000Y-106606017D01*
X154651000Y-106396408D01*
X154597314Y-106126510D01*
X154492005Y-105872273D01*
X154339120Y-105643465D01*
X154264090Y-105568435D01*
X157468040Y-105568435D01*
X158254000Y-106354395D01*
X159039960Y-105568435D01*
X158972980Y-105328344D01*
X158723952Y-105211244D01*
X158456865Y-105144977D01*
X158181983Y-105132090D01*
X157909867Y-105173078D01*
X157650977Y-105266364D01*
X157535020Y-105328344D01*
X157468040Y-105568435D01*
X154264090Y-105568435D01*
X154144535Y-105448880D01*
X153915727Y-105295995D01*
X153661490Y-105190686D01*
X153391592Y-105137000D01*
X153337131Y-105137000D01*
X152257072Y-104056942D01*
X152257072Y-103552750D01*
X152240128Y-103380715D01*
X152189947Y-103215291D01*
X152108458Y-103062836D01*
X151998792Y-102929208D01*
X151865164Y-102819542D01*
X151712709Y-102738053D01*
X151547285Y-102687872D01*
X151375250Y-102670928D01*
X150887750Y-102670928D01*
X150715715Y-102687872D01*
X150550291Y-102738053D01*
X150397836Y-102819542D01*
X150264208Y-102929208D01*
X150194000Y-103014756D01*
X150123792Y-102929208D01*
X149990164Y-102819542D01*
X149837709Y-102738053D01*
X149672285Y-102687872D01*
X149500250Y-102670928D01*
X149012750Y-102670928D01*
X148840715Y-102687872D01*
X148675291Y-102738053D01*
X148522836Y-102819542D01*
X148389208Y-102929208D01*
X148279542Y-103062836D01*
X148198053Y-103215291D01*
X148147872Y-103380715D01*
X148130928Y-103552750D01*
X148130928Y-104098163D01*
X148089599Y-104175485D01*
X148046027Y-104319122D01*
X148031314Y-104468500D01*
X148035001Y-104505933D01*
X148035001Y-105305434D01*
X148003291Y-105315053D01*
X147850836Y-105396542D01*
X147717208Y-105506208D01*
X147630797Y-105611500D01*
X145474131Y-105611500D01*
X145106045Y-105243414D01*
X145156582Y-105228084D01*
X145292829Y-105155258D01*
X145412251Y-105057251D01*
X145510258Y-104937829D01*
X145583084Y-104801582D01*
X145627929Y-104653745D01*
X145643072Y-104500000D01*
X145643072Y-102850000D01*
X145627929Y-102696255D01*
X145594000Y-102584404D01*
X145594000Y-101992660D01*
X145598300Y-101949000D01*
X145594000Y-101905340D01*
X145594000Y-101905333D01*
X145581136Y-101774726D01*
X145530303Y-101607149D01*
X145447753Y-101452709D01*
X145336659Y-101317341D01*
X145302741Y-101289505D01*
X145230406Y-101217170D01*
X145189383Y-101010933D01*
X145103824Y-100804376D01*
X144979612Y-100618480D01*
X144821520Y-100460388D01*
X144638462Y-100338072D01*
X144855000Y-100338072D01*
X145008745Y-100322929D01*
X145156582Y-100278084D01*
X145292829Y-100205258D01*
X145412251Y-100107251D01*
X145510258Y-99987829D01*
X145583084Y-99851582D01*
X145627929Y-99703745D01*
X145643072Y-99550000D01*
X145643072Y-97900000D01*
X145629019Y-97757321D01*
X145787624Y-97691624D01*
X145973520Y-97567412D01*
X146131612Y-97409320D01*
X146255824Y-97223424D01*
X146341383Y-97016867D01*
X146385000Y-96797588D01*
X146385000Y-96643000D01*
X148035001Y-96643000D01*
X148035001Y-97177434D01*
X148003291Y-97187053D01*
X147850836Y-97268542D01*
X147717208Y-97378208D01*
X147607542Y-97511836D01*
X147526053Y-97664291D01*
X147475872Y-97829715D01*
X147458928Y-98001750D01*
X147458928Y-98489250D01*
X147475872Y-98661285D01*
X147526053Y-98826709D01*
X147607542Y-98979164D01*
X147717208Y-99112792D01*
X147802756Y-99183000D01*
X147717208Y-99253208D01*
X147607542Y-99386836D01*
X147526053Y-99539291D01*
X147475872Y-99704715D01*
X147458928Y-99876750D01*
X147458928Y-100364250D01*
X147475872Y-100536285D01*
X147526053Y-100701709D01*
X147607542Y-100854164D01*
X147717208Y-100987792D01*
X147850836Y-101097458D01*
X148003291Y-101178947D01*
X148168715Y-101229128D01*
X148340750Y-101246072D01*
X148750706Y-101246072D01*
X148785117Y-101419067D01*
X148870676Y-101625624D01*
X148994888Y-101811520D01*
X149152980Y-101969612D01*
X149338876Y-102093824D01*
X149545433Y-102179383D01*
X149764712Y-102223000D01*
X149988288Y-102223000D01*
X150207567Y-102179383D01*
X150414124Y-102093824D01*
X150600020Y-101969612D01*
X150758112Y-101811520D01*
X150882324Y-101625624D01*
X150967883Y-101419067D01*
X151002294Y-101246072D01*
X151412250Y-101246072D01*
X151584285Y-101229128D01*
X151749709Y-101178947D01*
X151902164Y-101097458D01*
X152035792Y-100987792D01*
X152145458Y-100854164D01*
X152226947Y-100701709D01*
X152277128Y-100536285D01*
X152294072Y-100364250D01*
X152294072Y-99876750D01*
X152277128Y-99704715D01*
X152226947Y-99539291D01*
X152145458Y-99386836D01*
X152035792Y-99253208D01*
X151950244Y-99183000D01*
X152035792Y-99112792D01*
X152041478Y-99105864D01*
X152168880Y-99296535D01*
X152363465Y-99491120D01*
X152592273Y-99644005D01*
X152846510Y-99749314D01*
X153116408Y-99803000D01*
X153391592Y-99803000D01*
X153543211Y-99772841D01*
X154387159Y-100616789D01*
X154357000Y-100768408D01*
X154357000Y-101043592D01*
X154410686Y-101313490D01*
X154515995Y-101567727D01*
X154668880Y-101796535D01*
X154863465Y-101991120D01*
X155092273Y-102144005D01*
X155346510Y-102249314D01*
X155616408Y-102303000D01*
X155891592Y-102303000D01*
X156161490Y-102249314D01*
X156415727Y-102144005D01*
X156644535Y-101991120D01*
X156839120Y-101796535D01*
X156992005Y-101567727D01*
X157097314Y-101313490D01*
X157151000Y-101043592D01*
X157151000Y-100768408D01*
X157097314Y-100498510D01*
X156992005Y-100244273D01*
X156839120Y-100015465D01*
X156644535Y-99820880D01*
X156415727Y-99667995D01*
X156161490Y-99562686D01*
X155891592Y-99509000D01*
X155616408Y-99509000D01*
X155464789Y-99539159D01*
X155297195Y-99371565D01*
X157468040Y-99371565D01*
X157535020Y-99611656D01*
X157784048Y-99728756D01*
X158051135Y-99795023D01*
X158326017Y-99807910D01*
X158598133Y-99766922D01*
X158857023Y-99673636D01*
X158972980Y-99611656D01*
X159039960Y-99371565D01*
X158254000Y-98585605D01*
X157468040Y-99371565D01*
X155297195Y-99371565D01*
X154620841Y-98695211D01*
X154651000Y-98543592D01*
X154651000Y-98478017D01*
X156852090Y-98478017D01*
X156893078Y-98750133D01*
X156986364Y-99009023D01*
X157048344Y-99124980D01*
X157288435Y-99191960D01*
X158074395Y-98406000D01*
X158433605Y-98406000D01*
X159219565Y-99191960D01*
X159459656Y-99124980D01*
X159576756Y-98875952D01*
X159643023Y-98608865D01*
X159646726Y-98529872D01*
X164765000Y-98529872D01*
X164765000Y-98970128D01*
X164850890Y-99401925D01*
X165019369Y-99808669D01*
X165263962Y-100174729D01*
X165575271Y-100486038D01*
X165941331Y-100730631D01*
X166348075Y-100899110D01*
X166779872Y-100985000D01*
X167220128Y-100985000D01*
X167651925Y-100899110D01*
X168058669Y-100730631D01*
X168424729Y-100486038D01*
X168736038Y-100174729D01*
X168980631Y-99808669D01*
X169149110Y-99401925D01*
X169235000Y-98970128D01*
X169235000Y-98529872D01*
X169149110Y-98098075D01*
X168980631Y-97691331D01*
X168736038Y-97325271D01*
X168424729Y-97013962D01*
X168058669Y-96769369D01*
X167651925Y-96600890D01*
X167220128Y-96515000D01*
X166779872Y-96515000D01*
X166348075Y-96600890D01*
X165941331Y-96769369D01*
X165575271Y-97013962D01*
X165263962Y-97325271D01*
X165019369Y-97691331D01*
X164850890Y-98098075D01*
X164765000Y-98529872D01*
X159646726Y-98529872D01*
X159655910Y-98333983D01*
X159614922Y-98061867D01*
X159521636Y-97802977D01*
X159459656Y-97687020D01*
X159219565Y-97620040D01*
X158433605Y-98406000D01*
X158074395Y-98406000D01*
X157288435Y-97620040D01*
X157048344Y-97687020D01*
X156931244Y-97936048D01*
X156864977Y-98203135D01*
X156852090Y-98478017D01*
X154651000Y-98478017D01*
X154651000Y-98268408D01*
X154597314Y-97998510D01*
X154492005Y-97744273D01*
X154339120Y-97515465D01*
X154264090Y-97440435D01*
X157468040Y-97440435D01*
X158254000Y-98226395D01*
X159039960Y-97440435D01*
X158972980Y-97200344D01*
X158723952Y-97083244D01*
X158456865Y-97016977D01*
X158181983Y-97004090D01*
X157909867Y-97045078D01*
X157650977Y-97138364D01*
X157535020Y-97200344D01*
X157468040Y-97440435D01*
X154264090Y-97440435D01*
X154144535Y-97320880D01*
X153915727Y-97167995D01*
X153661490Y-97062686D01*
X153391592Y-97009000D01*
X153337131Y-97009000D01*
X152257072Y-95928942D01*
X152257072Y-95424750D01*
X152240128Y-95252715D01*
X152189947Y-95087291D01*
X152108458Y-94934836D01*
X151998792Y-94801208D01*
X151865164Y-94691542D01*
X151712709Y-94610053D01*
X151547285Y-94559872D01*
X151375250Y-94542928D01*
X150887750Y-94542928D01*
X150715715Y-94559872D01*
X150550291Y-94610053D01*
X150397836Y-94691542D01*
X150264208Y-94801208D01*
X150194000Y-94886756D01*
X150123792Y-94801208D01*
X149990164Y-94691542D01*
X149837709Y-94610053D01*
X149672285Y-94559872D01*
X149500250Y-94542928D01*
X149012750Y-94542928D01*
X148840715Y-94559872D01*
X148675291Y-94610053D01*
X148522836Y-94691542D01*
X148389208Y-94801208D01*
X148279542Y-94934836D01*
X148198053Y-95087291D01*
X148188434Y-95119000D01*
X144800423Y-95119000D01*
X144763000Y-95115314D01*
X144725577Y-95119000D01*
X144725574Y-95119000D01*
X144613622Y-95130026D01*
X144469985Y-95173598D01*
X144445881Y-95186482D01*
X144337607Y-95244355D01*
X144295219Y-95279143D01*
X144221578Y-95339578D01*
X144197716Y-95368654D01*
X142922654Y-96643716D01*
X142893578Y-96667578D01*
X142868922Y-96697622D01*
X142798355Y-96783608D01*
X142764472Y-96847000D01*
X142727598Y-96915986D01*
X142684026Y-97059623D01*
X142674365Y-97157715D01*
X142670147Y-97200547D01*
X142616582Y-97171916D01*
X142468745Y-97127071D01*
X142315000Y-97111928D01*
X142015000Y-97111928D01*
X141861255Y-97127071D01*
X141713418Y-97171916D01*
X141579064Y-97243730D01*
X141549494Y-97219463D01*
X141439180Y-97160498D01*
X141319482Y-97124188D01*
X141195000Y-97111928D01*
X141180750Y-97115000D01*
X141022000Y-97273750D01*
X141022000Y-98598000D01*
X141042000Y-98598000D01*
X141042000Y-98852000D01*
X141022000Y-98852000D01*
X141022000Y-100176250D01*
X141044873Y-100199123D01*
X141038117Y-100215433D01*
X140994500Y-100434712D01*
X140994500Y-100658288D01*
X141038117Y-100877567D01*
X141123676Y-101084124D01*
X141247888Y-101270020D01*
X141286368Y-101308500D01*
X140496132Y-101308500D01*
X140376520Y-101188888D01*
X140190624Y-101064676D01*
X139984067Y-100979117D01*
X139764788Y-100935500D01*
X139541212Y-100935500D01*
X139321933Y-100979117D01*
X139115376Y-101064676D01*
X138929480Y-101188888D01*
X138771388Y-101346980D01*
X138647176Y-101532876D01*
X138561617Y-101739433D01*
X138518000Y-101958712D01*
X138518000Y-102182288D01*
X138561617Y-102401567D01*
X138647176Y-102608124D01*
X138771388Y-102794020D01*
X138929480Y-102952112D01*
X139115376Y-103076324D01*
X139321933Y-103161883D01*
X139541212Y-103205500D01*
X139764788Y-103205500D01*
X139956928Y-103167281D01*
X139956928Y-104500000D01*
X139972071Y-104653745D01*
X140016916Y-104801582D01*
X140089742Y-104937829D01*
X140130103Y-104987009D01*
X140133000Y-105016423D01*
X140133000Y-105016425D01*
X140139166Y-105079034D01*
X140059020Y-104998888D01*
X139873124Y-104874676D01*
X139666567Y-104789117D01*
X139447288Y-104745500D01*
X139223712Y-104745500D01*
X139004433Y-104789117D01*
X138797876Y-104874676D01*
X138611980Y-104998888D01*
X138518297Y-105092571D01*
X138471824Y-104980376D01*
X138347612Y-104794480D01*
X138189520Y-104636388D01*
X138003624Y-104512176D01*
X137797067Y-104426617D01*
X137590830Y-104385594D01*
X137243072Y-104037837D01*
X137243072Y-103791750D01*
X137226128Y-103619715D01*
X137175947Y-103454291D01*
X137094458Y-103301836D01*
X136984792Y-103168208D01*
X136851164Y-103058542D01*
X136743645Y-103001072D01*
X136838000Y-103001072D01*
X136962482Y-102988812D01*
X137082180Y-102952502D01*
X137192494Y-102893537D01*
X137289185Y-102814185D01*
X137368537Y-102717494D01*
X137427502Y-102607180D01*
X137463812Y-102487482D01*
X137476072Y-102363000D01*
X137476072Y-101713000D01*
X137463812Y-101588518D01*
X137427502Y-101468820D01*
X137368537Y-101358506D01*
X137289185Y-101261815D01*
X137192494Y-101182463D01*
X137082180Y-101123498D01*
X136965159Y-101088000D01*
X137082180Y-101052502D01*
X137192494Y-100993537D01*
X137289185Y-100914185D01*
X137368537Y-100817494D01*
X137427502Y-100707180D01*
X137463812Y-100587482D01*
X137476072Y-100463000D01*
X137473000Y-100423750D01*
X137314250Y-100265000D01*
X136435000Y-100265000D01*
X136435000Y-100285000D01*
X136181000Y-100285000D01*
X136181000Y-100265000D01*
X136161000Y-100265000D01*
X136161000Y-100085000D01*
X137761928Y-100085000D01*
X137774188Y-100209482D01*
X137810498Y-100329180D01*
X137869463Y-100439494D01*
X137948815Y-100536185D01*
X138045506Y-100615537D01*
X138155820Y-100674502D01*
X138275518Y-100710812D01*
X138400000Y-100723072D01*
X138814250Y-100720000D01*
X138973000Y-100561250D01*
X138973000Y-99724500D01*
X137923750Y-99724500D01*
X137765000Y-99883250D01*
X137761928Y-100085000D01*
X136161000Y-100085000D01*
X136161000Y-100011000D01*
X136181000Y-100011000D01*
X136181000Y-99336750D01*
X136435000Y-99336750D01*
X136435000Y-100011000D01*
X137314250Y-100011000D01*
X137473000Y-99852250D01*
X137476072Y-99813000D01*
X137463812Y-99688518D01*
X137427502Y-99568820D01*
X137368537Y-99458506D01*
X137289185Y-99361815D01*
X137192494Y-99282463D01*
X137082180Y-99223498D01*
X136962482Y-99187188D01*
X136838000Y-99174928D01*
X136593750Y-99178000D01*
X136435000Y-99336750D01*
X136181000Y-99336750D01*
X136022250Y-99178000D01*
X135778000Y-99174928D01*
X135653518Y-99187188D01*
X135533820Y-99223498D01*
X135423506Y-99282463D01*
X135326815Y-99361815D01*
X135309402Y-99383033D01*
X135177813Y-99312697D01*
X135010236Y-99261864D01*
X134941244Y-99255069D01*
X134882180Y-99223498D01*
X134762482Y-99187188D01*
X134638000Y-99174928D01*
X133578000Y-99174928D01*
X133453518Y-99187188D01*
X133333820Y-99223498D01*
X133223506Y-99282463D01*
X133126815Y-99361815D01*
X133047463Y-99458506D01*
X132988498Y-99568820D01*
X132952188Y-99688518D01*
X132939928Y-99813000D01*
X132939928Y-99984854D01*
X132779788Y-99953000D01*
X132556212Y-99953000D01*
X132336933Y-99996617D01*
X132130376Y-100082176D01*
X131944480Y-100206388D01*
X131786388Y-100364480D01*
X131662176Y-100550376D01*
X131576617Y-100756933D01*
X131533000Y-100976212D01*
X131533000Y-101199788D01*
X131576617Y-101419067D01*
X131662176Y-101625624D01*
X131786388Y-101811520D01*
X131944480Y-101969612D01*
X132130376Y-102093824D01*
X132336933Y-102179383D01*
X132556212Y-102223000D01*
X132779788Y-102223000D01*
X132939928Y-102191146D01*
X132939928Y-102363000D01*
X132952188Y-102487482D01*
X132988498Y-102607180D01*
X133047463Y-102717494D01*
X133126815Y-102814185D01*
X133219000Y-102889839D01*
X133219001Y-103388909D01*
X133184053Y-103454291D01*
X133133872Y-103619715D01*
X133116928Y-103791750D01*
X133116928Y-104704250D01*
X133133872Y-104876285D01*
X133184053Y-105041709D01*
X133265542Y-105194164D01*
X133353500Y-105301341D01*
X133353500Y-105633059D01*
X133265542Y-105740236D01*
X133184053Y-105892691D01*
X133133872Y-106058115D01*
X133116928Y-106230150D01*
X133116928Y-107142650D01*
X133133872Y-107314685D01*
X133184053Y-107480109D01*
X133265542Y-107632564D01*
X133375208Y-107766192D01*
X133508836Y-107875858D01*
X133661291Y-107957347D01*
X133728499Y-107977734D01*
X134248505Y-108497741D01*
X134276341Y-108531659D01*
X134411709Y-108642753D01*
X134566149Y-108725303D01*
X134630397Y-108744792D01*
X134733724Y-108776136D01*
X134766924Y-108779406D01*
X134864333Y-108789000D01*
X134864339Y-108789000D01*
X134907999Y-108793300D01*
X134951659Y-108789000D01*
X137544017Y-108789000D01*
X137582525Y-108846632D01*
X137697893Y-108962000D01*
X134005131Y-108962000D01*
X133001572Y-107958442D01*
X133001572Y-107898750D01*
X132984628Y-107726715D01*
X132934447Y-107561291D01*
X132852958Y-107408836D01*
X132743292Y-107275208D01*
X132609664Y-107165542D01*
X132458981Y-107085000D01*
X132609664Y-107004458D01*
X132743292Y-106894792D01*
X132852958Y-106761164D01*
X132934447Y-106608709D01*
X132984628Y-106443285D01*
X133001572Y-106271250D01*
X133001572Y-105358750D01*
X132984628Y-105186715D01*
X132934447Y-105021291D01*
X132852958Y-104868836D01*
X132743292Y-104735208D01*
X132609664Y-104625542D01*
X132457209Y-104544053D01*
X132291785Y-104493872D01*
X132119750Y-104476928D01*
X131632250Y-104476928D01*
X131460215Y-104493872D01*
X131294791Y-104544053D01*
X131142336Y-104625542D01*
X131008708Y-104735208D01*
X131003492Y-104741564D01*
X130939685Y-104663815D01*
X130842994Y-104584463D01*
X130732680Y-104525498D01*
X130612982Y-104489188D01*
X130488500Y-104476928D01*
X130286750Y-104480000D01*
X130128000Y-104638750D01*
X130128000Y-105688000D01*
X130148000Y-105688000D01*
X130148000Y-105942000D01*
X130128000Y-105942000D01*
X130128000Y-105962000D01*
X129874000Y-105962000D01*
X129874000Y-105942000D01*
X129854000Y-105942000D01*
X129854000Y-105688000D01*
X129874000Y-105688000D01*
X129874000Y-104638750D01*
X129715250Y-104480000D01*
X129513500Y-104476928D01*
X129389018Y-104489188D01*
X129269320Y-104525498D01*
X129159006Y-104584463D01*
X129062315Y-104663815D01*
X128982963Y-104760506D01*
X128923998Y-104870820D01*
X128887688Y-104990518D01*
X128875428Y-105115000D01*
X128876979Y-105324105D01*
X128867037Y-105305506D01*
X128787685Y-105208815D01*
X128690994Y-105129463D01*
X128580680Y-105070498D01*
X128460982Y-105034188D01*
X128336500Y-105021928D01*
X127922250Y-105025000D01*
X127763500Y-105183750D01*
X127763500Y-106020500D01*
X127783500Y-106020500D01*
X127783500Y-106274500D01*
X127763500Y-106274500D01*
X127763500Y-106294500D01*
X127509500Y-106294500D01*
X127509500Y-106274500D01*
X127489500Y-106274500D01*
X127489500Y-106020500D01*
X127509500Y-106020500D01*
X127509500Y-105183750D01*
X127350750Y-105025000D01*
X127173752Y-105023687D01*
X127260324Y-104894124D01*
X127345883Y-104687567D01*
X127389500Y-104468288D01*
X127389500Y-104244712D01*
X127345883Y-104025433D01*
X127260324Y-103818876D01*
X127136112Y-103632980D01*
X126978020Y-103474888D01*
X126792124Y-103350676D01*
X126585567Y-103265117D01*
X126366288Y-103221500D01*
X126142712Y-103221500D01*
X125923433Y-103265117D01*
X125716876Y-103350676D01*
X125530980Y-103474888D01*
X125372888Y-103632980D01*
X125248676Y-103818876D01*
X125235548Y-103850569D01*
X125216112Y-103821480D01*
X125058020Y-103663388D01*
X124872124Y-103539176D01*
X124665567Y-103453617D01*
X124446288Y-103410000D01*
X124222712Y-103410000D01*
X124003433Y-103453617D01*
X123796876Y-103539176D01*
X123610980Y-103663388D01*
X123452888Y-103821480D01*
X123328676Y-104007376D01*
X123243117Y-104213933D01*
X123202094Y-104420171D01*
X122990759Y-104631506D01*
X122956842Y-104659341D01*
X122929007Y-104693258D01*
X122929005Y-104693260D01*
X122845748Y-104794709D01*
X122763198Y-104949148D01*
X122712364Y-105116726D01*
X122710000Y-105140729D01*
X122710000Y-98529872D01*
X125515000Y-98529872D01*
X125515000Y-98970128D01*
X125600890Y-99401925D01*
X125769369Y-99808669D01*
X126013962Y-100174729D01*
X126325271Y-100486038D01*
X126691331Y-100730631D01*
X127098075Y-100899110D01*
X127529872Y-100985000D01*
X127970128Y-100985000D01*
X128401925Y-100899110D01*
X128808669Y-100730631D01*
X129174729Y-100486038D01*
X129486038Y-100174729D01*
X129730631Y-99808669D01*
X129899110Y-99401925D01*
X129985000Y-98970128D01*
X129985000Y-98529872D01*
X129899110Y-98098075D01*
X129730631Y-97691331D01*
X129719193Y-97674212D01*
X132041000Y-97674212D01*
X132041000Y-97897788D01*
X132084617Y-98117067D01*
X132170176Y-98323624D01*
X132294388Y-98509520D01*
X132452480Y-98667612D01*
X132638376Y-98791824D01*
X132844933Y-98877383D01*
X133064212Y-98921000D01*
X133287788Y-98921000D01*
X133434838Y-98891750D01*
X133536836Y-98975458D01*
X133689291Y-99056947D01*
X133854715Y-99107128D01*
X134026750Y-99124072D01*
X134514250Y-99124072D01*
X134686285Y-99107128D01*
X134851709Y-99056947D01*
X135004164Y-98975458D01*
X135137792Y-98865792D01*
X135143008Y-98859436D01*
X135206815Y-98937185D01*
X135303506Y-99016537D01*
X135413820Y-99075502D01*
X135533518Y-99111812D01*
X135658000Y-99124072D01*
X135859750Y-99121000D01*
X136018500Y-98962250D01*
X136018500Y-97913000D01*
X136272500Y-97913000D01*
X136272500Y-98962250D01*
X136431250Y-99121000D01*
X136633000Y-99124072D01*
X136757482Y-99111812D01*
X136877180Y-99075502D01*
X136987494Y-99016537D01*
X137084185Y-98937185D01*
X137163537Y-98840494D01*
X137222502Y-98730180D01*
X137258812Y-98610482D01*
X137271072Y-98486000D01*
X137268000Y-98071750D01*
X137109250Y-97913000D01*
X136272500Y-97913000D01*
X136018500Y-97913000D01*
X135998500Y-97913000D01*
X135998500Y-97659000D01*
X136018500Y-97659000D01*
X136018500Y-96609750D01*
X136272500Y-96609750D01*
X136272500Y-97659000D01*
X137109250Y-97659000D01*
X137268000Y-97500250D01*
X137268159Y-97478750D01*
X137761928Y-97478750D01*
X137761928Y-97966250D01*
X137778872Y-98138285D01*
X137829053Y-98303709D01*
X137910542Y-98456164D01*
X138020208Y-98589792D01*
X138026564Y-98595008D01*
X137948815Y-98658815D01*
X137869463Y-98755506D01*
X137810498Y-98865820D01*
X137774188Y-98985518D01*
X137761928Y-99110000D01*
X137765000Y-99311750D01*
X137923750Y-99470500D01*
X138973000Y-99470500D01*
X138973000Y-99450500D01*
X139227000Y-99450500D01*
X139227000Y-99470500D01*
X139247000Y-99470500D01*
X139247000Y-99724500D01*
X139227000Y-99724500D01*
X139227000Y-100561250D01*
X139385750Y-100720000D01*
X139800000Y-100723072D01*
X139924482Y-100710812D01*
X140044180Y-100674502D01*
X140154494Y-100615537D01*
X140251185Y-100536185D01*
X140330537Y-100439494D01*
X140389502Y-100329180D01*
X140397264Y-100303591D01*
X140470518Y-100325812D01*
X140595000Y-100338072D01*
X140609250Y-100335000D01*
X140768000Y-100176250D01*
X140768000Y-98852000D01*
X140748000Y-98852000D01*
X140748000Y-98598000D01*
X140768000Y-98598000D01*
X140768000Y-97273750D01*
X140609250Y-97115000D01*
X140595000Y-97111928D01*
X140470518Y-97124188D01*
X140374586Y-97153289D01*
X140370947Y-97141291D01*
X140289458Y-96988836D01*
X140179792Y-96855208D01*
X140097478Y-96787654D01*
X140153612Y-96731520D01*
X140277824Y-96545624D01*
X140363383Y-96339067D01*
X140407000Y-96119788D01*
X140407000Y-95896212D01*
X140363383Y-95676933D01*
X140277824Y-95470376D01*
X140153612Y-95284480D01*
X139995520Y-95126388D01*
X139809624Y-95002176D01*
X139603067Y-94916617D01*
X139383788Y-94873000D01*
X139160212Y-94873000D01*
X138940933Y-94916617D01*
X138734376Y-95002176D01*
X138548480Y-95126388D01*
X138390388Y-95284480D01*
X138266176Y-95470376D01*
X138180617Y-95676933D01*
X138137000Y-95896212D01*
X138137000Y-96119788D01*
X138180617Y-96339067D01*
X138211001Y-96412420D01*
X138211001Y-96714987D01*
X138153836Y-96745542D01*
X138020208Y-96855208D01*
X137910542Y-96988836D01*
X137829053Y-97141291D01*
X137778872Y-97306715D01*
X137761928Y-97478750D01*
X137268159Y-97478750D01*
X137271072Y-97086000D01*
X137258812Y-96961518D01*
X137222502Y-96841820D01*
X137163537Y-96731506D01*
X137084185Y-96634815D01*
X136987494Y-96555463D01*
X136877180Y-96496498D01*
X136757482Y-96460188D01*
X136633000Y-96447928D01*
X136431250Y-96451000D01*
X136272500Y-96609750D01*
X136018500Y-96609750D01*
X135859750Y-96451000D01*
X135658000Y-96447928D01*
X135533518Y-96460188D01*
X135413820Y-96496498D01*
X135303506Y-96555463D01*
X135206815Y-96634815D01*
X135143008Y-96712564D01*
X135137792Y-96706208D01*
X135004164Y-96596542D01*
X134851709Y-96515053D01*
X134686285Y-96464872D01*
X134514250Y-96447928D01*
X134026750Y-96447928D01*
X133854715Y-96464872D01*
X133689291Y-96515053D01*
X133536836Y-96596542D01*
X133434838Y-96680250D01*
X133287788Y-96651000D01*
X133064212Y-96651000D01*
X132844933Y-96694617D01*
X132638376Y-96780176D01*
X132452480Y-96904388D01*
X132294388Y-97062480D01*
X132170176Y-97248376D01*
X132084617Y-97454933D01*
X132041000Y-97674212D01*
X129719193Y-97674212D01*
X129486038Y-97325271D01*
X129174729Y-97013962D01*
X128808669Y-96769369D01*
X128401925Y-96600890D01*
X127970128Y-96515000D01*
X127529872Y-96515000D01*
X127098075Y-96600890D01*
X126691331Y-96769369D01*
X126325271Y-97013962D01*
X126013962Y-97325271D01*
X125769369Y-97691331D01*
X125600890Y-98098075D01*
X125515000Y-98529872D01*
X122710000Y-98529872D01*
X122710000Y-92534729D01*
X122728386Y-92347215D01*
X122772757Y-92200252D01*
X122844829Y-92064703D01*
X122941852Y-91945742D01*
X123060144Y-91847882D01*
X123195181Y-91774868D01*
X123341833Y-91729471D01*
X123527092Y-91710000D01*
X173699808Y-91710000D01*
X173698815Y-91710815D01*
G37*
X173698815Y-91710815D02*
X173619463Y-91807506D01*
X173560498Y-91917820D01*
X173524188Y-92037518D01*
X173511928Y-92162000D01*
X173511928Y-92738000D01*
X172343132Y-92738000D01*
X172223520Y-92618388D01*
X172037624Y-92494176D01*
X171831067Y-92408617D01*
X171611788Y-92365000D01*
X171388212Y-92365000D01*
X171168933Y-92408617D01*
X170962376Y-92494176D01*
X170776480Y-92618388D01*
X170618388Y-92776480D01*
X170494176Y-92962376D01*
X170408617Y-93168933D01*
X170365000Y-93388212D01*
X170365000Y-93611788D01*
X170408617Y-93831067D01*
X170494176Y-94037624D01*
X170618388Y-94223520D01*
X170776480Y-94381612D01*
X170962376Y-94505824D01*
X171168933Y-94591383D01*
X171388212Y-94635000D01*
X171611788Y-94635000D01*
X171831067Y-94591383D01*
X172037624Y-94505824D01*
X172223520Y-94381612D01*
X172343132Y-94262000D01*
X172563798Y-94262000D01*
X172565000Y-94326250D01*
X172723750Y-94485000D01*
X173473000Y-94485000D01*
X173473000Y-94465000D01*
X173727000Y-94465000D01*
X173727000Y-94485000D01*
X173747000Y-94485000D01*
X173747000Y-94739000D01*
X173727000Y-94739000D01*
X173727000Y-94759000D01*
X173473000Y-94759000D01*
X173473000Y-94739000D01*
X172723750Y-94739000D01*
X172565000Y-94897750D01*
X172561928Y-95062000D01*
X172574188Y-95186482D01*
X172610498Y-95306180D01*
X172669463Y-95416494D01*
X172748815Y-95513185D01*
X172756046Y-95519120D01*
X172663542Y-95631836D01*
X172582053Y-95784291D01*
X172531872Y-95949715D01*
X172514928Y-96121750D01*
X172514928Y-97034250D01*
X172531872Y-97206285D01*
X172582053Y-97371709D01*
X172609501Y-97423060D01*
X172609501Y-97493434D01*
X172577791Y-97503053D01*
X172425336Y-97584542D01*
X172291708Y-97694208D01*
X172182042Y-97827836D01*
X172100553Y-97980291D01*
X172050372Y-98145715D01*
X172033428Y-98317750D01*
X172033428Y-98805250D01*
X172050372Y-98977285D01*
X172100553Y-99142709D01*
X172182042Y-99295164D01*
X172291708Y-99428792D01*
X172377256Y-99499000D01*
X172291708Y-99569208D01*
X172182042Y-99702836D01*
X172100553Y-99855291D01*
X172050372Y-100020715D01*
X172033428Y-100192750D01*
X172033428Y-100680250D01*
X172050372Y-100852285D01*
X172100553Y-101017709D01*
X172182042Y-101170164D01*
X172291708Y-101303792D01*
X172332281Y-101337089D01*
X171557370Y-102112000D01*
X171388212Y-102112000D01*
X171168933Y-102155617D01*
X170962376Y-102241176D01*
X170776480Y-102365388D01*
X170618388Y-102523480D01*
X170494176Y-102709376D01*
X170408617Y-102915933D01*
X170365000Y-103135212D01*
X170365000Y-103358788D01*
X170401045Y-103540000D01*
X162115123Y-103540000D01*
X162084424Y-103543024D01*
X162075180Y-103542959D01*
X162065315Y-103543926D01*
X161774169Y-103574526D01*
X161711138Y-103587464D01*
X161647920Y-103599524D01*
X161638430Y-103602389D01*
X161358774Y-103688957D01*
X161299479Y-103713883D01*
X161239785Y-103738001D01*
X161231033Y-103742655D01*
X160973517Y-103881894D01*
X160920158Y-103917885D01*
X160866323Y-103953114D01*
X160858640Y-103959379D01*
X160633073Y-104145984D01*
X160587735Y-104191640D01*
X160541753Y-104236669D01*
X160535434Y-104244308D01*
X160350408Y-104471172D01*
X160314835Y-104524714D01*
X160278440Y-104577867D01*
X160273725Y-104586588D01*
X160136288Y-104845069D01*
X160111780Y-104904530D01*
X160086416Y-104963710D01*
X160083484Y-104973180D01*
X159998870Y-105253435D01*
X159986377Y-105316532D01*
X159972991Y-105379506D01*
X159971955Y-105389365D01*
X159943388Y-105680717D01*
X159943388Y-105680733D01*
X159940001Y-105715123D01*
X159940000Y-109465271D01*
X159921614Y-109652784D01*
X159877243Y-109799748D01*
X159805171Y-109935297D01*
X159708148Y-110054258D01*
X159589856Y-110152118D01*
X159454819Y-110225132D01*
X159308167Y-110270529D01*
X159122908Y-110290000D01*
X156372283Y-110290000D01*
X156415727Y-110272005D01*
X156644535Y-110119120D01*
X156839120Y-109924535D01*
X156992005Y-109695727D01*
X157097314Y-109441490D01*
X157151000Y-109171592D01*
X157151000Y-108896408D01*
X157097314Y-108626510D01*
X156992005Y-108372273D01*
X156839120Y-108143465D01*
X156644535Y-107948880D01*
X156415727Y-107795995D01*
X156161490Y-107690686D01*
X155891592Y-107637000D01*
X155616408Y-107637000D01*
X155464789Y-107667159D01*
X155297195Y-107499565D01*
X157468040Y-107499565D01*
X157535020Y-107739656D01*
X157784048Y-107856756D01*
X158051135Y-107923023D01*
X158326017Y-107935910D01*
X158598133Y-107894922D01*
X158857023Y-107801636D01*
X158972980Y-107739656D01*
X159039960Y-107499565D01*
X158254000Y-106713605D01*
X157468040Y-107499565D01*
X155297195Y-107499565D01*
X154620841Y-106823211D01*
X154651000Y-106671592D01*
X154651000Y-106606017D01*
X156852090Y-106606017D01*
X156893078Y-106878133D01*
X156986364Y-107137023D01*
X157048344Y-107252980D01*
X157288435Y-107319960D01*
X158074395Y-106534000D01*
X158433605Y-106534000D01*
X159219565Y-107319960D01*
X159459656Y-107252980D01*
X159576756Y-107003952D01*
X159643023Y-106736865D01*
X159655910Y-106461983D01*
X159614922Y-106189867D01*
X159521636Y-105930977D01*
X159459656Y-105815020D01*
X159219565Y-105748040D01*
X158433605Y-106534000D01*
X158074395Y-106534000D01*
X157288435Y-105748040D01*
X157048344Y-105815020D01*
X156931244Y-106064048D01*
X156864977Y-106331135D01*
X156852090Y-106606017D01*
X154651000Y-106606017D01*
X154651000Y-106396408D01*
X154597314Y-106126510D01*
X154492005Y-105872273D01*
X154339120Y-105643465D01*
X154264090Y-105568435D01*
X157468040Y-105568435D01*
X158254000Y-106354395D01*
X159039960Y-105568435D01*
X158972980Y-105328344D01*
X158723952Y-105211244D01*
X158456865Y-105144977D01*
X158181983Y-105132090D01*
X157909867Y-105173078D01*
X157650977Y-105266364D01*
X157535020Y-105328344D01*
X157468040Y-105568435D01*
X154264090Y-105568435D01*
X154144535Y-105448880D01*
X153915727Y-105295995D01*
X153661490Y-105190686D01*
X153391592Y-105137000D01*
X153337131Y-105137000D01*
X152257072Y-104056942D01*
X152257072Y-103552750D01*
X152240128Y-103380715D01*
X152189947Y-103215291D01*
X152108458Y-103062836D01*
X151998792Y-102929208D01*
X151865164Y-102819542D01*
X151712709Y-102738053D01*
X151547285Y-102687872D01*
X151375250Y-102670928D01*
X150887750Y-102670928D01*
X150715715Y-102687872D01*
X150550291Y-102738053D01*
X150397836Y-102819542D01*
X150264208Y-102929208D01*
X150194000Y-103014756D01*
X150123792Y-102929208D01*
X149990164Y-102819542D01*
X149837709Y-102738053D01*
X149672285Y-102687872D01*
X149500250Y-102670928D01*
X149012750Y-102670928D01*
X148840715Y-102687872D01*
X148675291Y-102738053D01*
X148522836Y-102819542D01*
X148389208Y-102929208D01*
X148279542Y-103062836D01*
X148198053Y-103215291D01*
X148147872Y-103380715D01*
X148130928Y-103552750D01*
X148130928Y-104098163D01*
X148089599Y-104175485D01*
X148046027Y-104319122D01*
X148031314Y-104468500D01*
X148035001Y-104505933D01*
X148035001Y-105305434D01*
X148003291Y-105315053D01*
X147850836Y-105396542D01*
X147717208Y-105506208D01*
X147630797Y-105611500D01*
X145474131Y-105611500D01*
X145106045Y-105243414D01*
X145156582Y-105228084D01*
X145292829Y-105155258D01*
X145412251Y-105057251D01*
X145510258Y-104937829D01*
X145583084Y-104801582D01*
X145627929Y-104653745D01*
X145643072Y-104500000D01*
X145643072Y-102850000D01*
X145627929Y-102696255D01*
X145594000Y-102584404D01*
X145594000Y-101992660D01*
X145598300Y-101949000D01*
X145594000Y-101905340D01*
X145594000Y-101905333D01*
X145581136Y-101774726D01*
X145530303Y-101607149D01*
X145447753Y-101452709D01*
X145336659Y-101317341D01*
X145302741Y-101289505D01*
X145230406Y-101217170D01*
X145189383Y-101010933D01*
X145103824Y-100804376D01*
X144979612Y-100618480D01*
X144821520Y-100460388D01*
X144638462Y-100338072D01*
X144855000Y-100338072D01*
X145008745Y-100322929D01*
X145156582Y-100278084D01*
X145292829Y-100205258D01*
X145412251Y-100107251D01*
X145510258Y-99987829D01*
X145583084Y-99851582D01*
X145627929Y-99703745D01*
X145643072Y-99550000D01*
X145643072Y-97900000D01*
X145629019Y-97757321D01*
X145787624Y-97691624D01*
X145973520Y-97567412D01*
X146131612Y-97409320D01*
X146255824Y-97223424D01*
X146341383Y-97016867D01*
X146385000Y-96797588D01*
X146385000Y-96643000D01*
X148035001Y-96643000D01*
X148035001Y-97177434D01*
X148003291Y-97187053D01*
X147850836Y-97268542D01*
X147717208Y-97378208D01*
X147607542Y-97511836D01*
X147526053Y-97664291D01*
X147475872Y-97829715D01*
X147458928Y-98001750D01*
X147458928Y-98489250D01*
X147475872Y-98661285D01*
X147526053Y-98826709D01*
X147607542Y-98979164D01*
X147717208Y-99112792D01*
X147802756Y-99183000D01*
X147717208Y-99253208D01*
X147607542Y-99386836D01*
X147526053Y-99539291D01*
X147475872Y-99704715D01*
X147458928Y-99876750D01*
X147458928Y-100364250D01*
X147475872Y-100536285D01*
X147526053Y-100701709D01*
X147607542Y-100854164D01*
X147717208Y-100987792D01*
X147850836Y-101097458D01*
X148003291Y-101178947D01*
X148168715Y-101229128D01*
X148340750Y-101246072D01*
X148750706Y-101246072D01*
X148785117Y-101419067D01*
X148870676Y-101625624D01*
X148994888Y-101811520D01*
X149152980Y-101969612D01*
X149338876Y-102093824D01*
X149545433Y-102179383D01*
X149764712Y-102223000D01*
X149988288Y-102223000D01*
X150207567Y-102179383D01*
X150414124Y-102093824D01*
X150600020Y-101969612D01*
X150758112Y-101811520D01*
X150882324Y-101625624D01*
X150967883Y-101419067D01*
X151002294Y-101246072D01*
X151412250Y-101246072D01*
X151584285Y-101229128D01*
X151749709Y-101178947D01*
X151902164Y-101097458D01*
X152035792Y-100987792D01*
X152145458Y-100854164D01*
X152226947Y-100701709D01*
X152277128Y-100536285D01*
X152294072Y-100364250D01*
X152294072Y-99876750D01*
X152277128Y-99704715D01*
X152226947Y-99539291D01*
X152145458Y-99386836D01*
X152035792Y-99253208D01*
X151950244Y-99183000D01*
X152035792Y-99112792D01*
X152041478Y-99105864D01*
X152168880Y-99296535D01*
X152363465Y-99491120D01*
X152592273Y-99644005D01*
X152846510Y-99749314D01*
X153116408Y-99803000D01*
X153391592Y-99803000D01*
X153543211Y-99772841D01*
X154387159Y-100616789D01*
X154357000Y-100768408D01*
X154357000Y-101043592D01*
X154410686Y-101313490D01*
X154515995Y-101567727D01*
X154668880Y-101796535D01*
X154863465Y-101991120D01*
X155092273Y-102144005D01*
X155346510Y-102249314D01*
X155616408Y-102303000D01*
X155891592Y-102303000D01*
X156161490Y-102249314D01*
X156415727Y-102144005D01*
X156644535Y-101991120D01*
X156839120Y-101796535D01*
X156992005Y-101567727D01*
X157097314Y-101313490D01*
X157151000Y-101043592D01*
X157151000Y-100768408D01*
X157097314Y-100498510D01*
X156992005Y-100244273D01*
X156839120Y-100015465D01*
X156644535Y-99820880D01*
X156415727Y-99667995D01*
X156161490Y-99562686D01*
X155891592Y-99509000D01*
X155616408Y-99509000D01*
X155464789Y-99539159D01*
X155297195Y-99371565D01*
X157468040Y-99371565D01*
X157535020Y-99611656D01*
X157784048Y-99728756D01*
X158051135Y-99795023D01*
X158326017Y-99807910D01*
X158598133Y-99766922D01*
X158857023Y-99673636D01*
X158972980Y-99611656D01*
X159039960Y-99371565D01*
X158254000Y-98585605D01*
X157468040Y-99371565D01*
X155297195Y-99371565D01*
X154620841Y-98695211D01*
X154651000Y-98543592D01*
X154651000Y-98478017D01*
X156852090Y-98478017D01*
X156893078Y-98750133D01*
X156986364Y-99009023D01*
X157048344Y-99124980D01*
X157288435Y-99191960D01*
X158074395Y-98406000D01*
X158433605Y-98406000D01*
X159219565Y-99191960D01*
X159459656Y-99124980D01*
X159576756Y-98875952D01*
X159643023Y-98608865D01*
X159646726Y-98529872D01*
X164765000Y-98529872D01*
X164765000Y-98970128D01*
X164850890Y-99401925D01*
X165019369Y-99808669D01*
X165263962Y-100174729D01*
X165575271Y-100486038D01*
X165941331Y-100730631D01*
X166348075Y-100899110D01*
X166779872Y-100985000D01*
X167220128Y-100985000D01*
X167651925Y-100899110D01*
X168058669Y-100730631D01*
X168424729Y-100486038D01*
X168736038Y-100174729D01*
X168980631Y-99808669D01*
X169149110Y-99401925D01*
X169235000Y-98970128D01*
X169235000Y-98529872D01*
X169149110Y-98098075D01*
X168980631Y-97691331D01*
X168736038Y-97325271D01*
X168424729Y-97013962D01*
X168058669Y-96769369D01*
X167651925Y-96600890D01*
X167220128Y-96515000D01*
X166779872Y-96515000D01*
X166348075Y-96600890D01*
X165941331Y-96769369D01*
X165575271Y-97013962D01*
X165263962Y-97325271D01*
X165019369Y-97691331D01*
X164850890Y-98098075D01*
X164765000Y-98529872D01*
X159646726Y-98529872D01*
X159655910Y-98333983D01*
X159614922Y-98061867D01*
X159521636Y-97802977D01*
X159459656Y-97687020D01*
X159219565Y-97620040D01*
X158433605Y-98406000D01*
X158074395Y-98406000D01*
X157288435Y-97620040D01*
X157048344Y-97687020D01*
X156931244Y-97936048D01*
X156864977Y-98203135D01*
X156852090Y-98478017D01*
X154651000Y-98478017D01*
X154651000Y-98268408D01*
X154597314Y-97998510D01*
X154492005Y-97744273D01*
X154339120Y-97515465D01*
X154264090Y-97440435D01*
X157468040Y-97440435D01*
X158254000Y-98226395D01*
X159039960Y-97440435D01*
X158972980Y-97200344D01*
X158723952Y-97083244D01*
X158456865Y-97016977D01*
X158181983Y-97004090D01*
X157909867Y-97045078D01*
X157650977Y-97138364D01*
X157535020Y-97200344D01*
X157468040Y-97440435D01*
X154264090Y-97440435D01*
X154144535Y-97320880D01*
X153915727Y-97167995D01*
X153661490Y-97062686D01*
X153391592Y-97009000D01*
X153337131Y-97009000D01*
X152257072Y-95928942D01*
X152257072Y-95424750D01*
X152240128Y-95252715D01*
X152189947Y-95087291D01*
X152108458Y-94934836D01*
X151998792Y-94801208D01*
X151865164Y-94691542D01*
X151712709Y-94610053D01*
X151547285Y-94559872D01*
X151375250Y-94542928D01*
X150887750Y-94542928D01*
X150715715Y-94559872D01*
X150550291Y-94610053D01*
X150397836Y-94691542D01*
X150264208Y-94801208D01*
X150194000Y-94886756D01*
X150123792Y-94801208D01*
X149990164Y-94691542D01*
X149837709Y-94610053D01*
X149672285Y-94559872D01*
X149500250Y-94542928D01*
X149012750Y-94542928D01*
X148840715Y-94559872D01*
X148675291Y-94610053D01*
X148522836Y-94691542D01*
X148389208Y-94801208D01*
X148279542Y-94934836D01*
X148198053Y-95087291D01*
X148188434Y-95119000D01*
X144800423Y-95119000D01*
X144763000Y-95115314D01*
X144725577Y-95119000D01*
X144725574Y-95119000D01*
X144613622Y-95130026D01*
X144469985Y-95173598D01*
X144445881Y-95186482D01*
X144337607Y-95244355D01*
X144295219Y-95279143D01*
X144221578Y-95339578D01*
X144197716Y-95368654D01*
X142922654Y-96643716D01*
X142893578Y-96667578D01*
X142868922Y-96697622D01*
X142798355Y-96783608D01*
X142764472Y-96847000D01*
X142727598Y-96915986D01*
X142684026Y-97059623D01*
X142674365Y-97157715D01*
X142670147Y-97200547D01*
X142616582Y-97171916D01*
X142468745Y-97127071D01*
X142315000Y-97111928D01*
X142015000Y-97111928D01*
X141861255Y-97127071D01*
X141713418Y-97171916D01*
X141579064Y-97243730D01*
X141549494Y-97219463D01*
X141439180Y-97160498D01*
X141319482Y-97124188D01*
X141195000Y-97111928D01*
X141180750Y-97115000D01*
X141022000Y-97273750D01*
X141022000Y-98598000D01*
X141042000Y-98598000D01*
X141042000Y-98852000D01*
X141022000Y-98852000D01*
X141022000Y-100176250D01*
X141044873Y-100199123D01*
X141038117Y-100215433D01*
X140994500Y-100434712D01*
X140994500Y-100658288D01*
X141038117Y-100877567D01*
X141123676Y-101084124D01*
X141247888Y-101270020D01*
X141286368Y-101308500D01*
X140496132Y-101308500D01*
X140376520Y-101188888D01*
X140190624Y-101064676D01*
X139984067Y-100979117D01*
X139764788Y-100935500D01*
X139541212Y-100935500D01*
X139321933Y-100979117D01*
X139115376Y-101064676D01*
X138929480Y-101188888D01*
X138771388Y-101346980D01*
X138647176Y-101532876D01*
X138561617Y-101739433D01*
X138518000Y-101958712D01*
X138518000Y-102182288D01*
X138561617Y-102401567D01*
X138647176Y-102608124D01*
X138771388Y-102794020D01*
X138929480Y-102952112D01*
X139115376Y-103076324D01*
X139321933Y-103161883D01*
X139541212Y-103205500D01*
X139764788Y-103205500D01*
X139956928Y-103167281D01*
X139956928Y-104500000D01*
X139972071Y-104653745D01*
X140016916Y-104801582D01*
X140089742Y-104937829D01*
X140130103Y-104987009D01*
X140133000Y-105016423D01*
X140133000Y-105016425D01*
X140139166Y-105079034D01*
X140059020Y-104998888D01*
X139873124Y-104874676D01*
X139666567Y-104789117D01*
X139447288Y-104745500D01*
X139223712Y-104745500D01*
X139004433Y-104789117D01*
X138797876Y-104874676D01*
X138611980Y-104998888D01*
X138518297Y-105092571D01*
X138471824Y-104980376D01*
X138347612Y-104794480D01*
X138189520Y-104636388D01*
X138003624Y-104512176D01*
X137797067Y-104426617D01*
X137590830Y-104385594D01*
X137243072Y-104037837D01*
X137243072Y-103791750D01*
X137226128Y-103619715D01*
X137175947Y-103454291D01*
X137094458Y-103301836D01*
X136984792Y-103168208D01*
X136851164Y-103058542D01*
X136743645Y-103001072D01*
X136838000Y-103001072D01*
X136962482Y-102988812D01*
X137082180Y-102952502D01*
X137192494Y-102893537D01*
X137289185Y-102814185D01*
X137368537Y-102717494D01*
X137427502Y-102607180D01*
X137463812Y-102487482D01*
X137476072Y-102363000D01*
X137476072Y-101713000D01*
X137463812Y-101588518D01*
X137427502Y-101468820D01*
X137368537Y-101358506D01*
X137289185Y-101261815D01*
X137192494Y-101182463D01*
X137082180Y-101123498D01*
X136965159Y-101088000D01*
X137082180Y-101052502D01*
X137192494Y-100993537D01*
X137289185Y-100914185D01*
X137368537Y-100817494D01*
X137427502Y-100707180D01*
X137463812Y-100587482D01*
X137476072Y-100463000D01*
X137473000Y-100423750D01*
X137314250Y-100265000D01*
X136435000Y-100265000D01*
X136435000Y-100285000D01*
X136181000Y-100285000D01*
X136181000Y-100265000D01*
X136161000Y-100265000D01*
X136161000Y-100085000D01*
X137761928Y-100085000D01*
X137774188Y-100209482D01*
X137810498Y-100329180D01*
X137869463Y-100439494D01*
X137948815Y-100536185D01*
X138045506Y-100615537D01*
X138155820Y-100674502D01*
X138275518Y-100710812D01*
X138400000Y-100723072D01*
X138814250Y-100720000D01*
X138973000Y-100561250D01*
X138973000Y-99724500D01*
X137923750Y-99724500D01*
X137765000Y-99883250D01*
X137761928Y-100085000D01*
X136161000Y-100085000D01*
X136161000Y-100011000D01*
X136181000Y-100011000D01*
X136181000Y-99336750D01*
X136435000Y-99336750D01*
X136435000Y-100011000D01*
X137314250Y-100011000D01*
X137473000Y-99852250D01*
X137476072Y-99813000D01*
X137463812Y-99688518D01*
X137427502Y-99568820D01*
X137368537Y-99458506D01*
X137289185Y-99361815D01*
X137192494Y-99282463D01*
X137082180Y-99223498D01*
X136962482Y-99187188D01*
X136838000Y-99174928D01*
X136593750Y-99178000D01*
X136435000Y-99336750D01*
X136181000Y-99336750D01*
X136022250Y-99178000D01*
X135778000Y-99174928D01*
X135653518Y-99187188D01*
X135533820Y-99223498D01*
X135423506Y-99282463D01*
X135326815Y-99361815D01*
X135309402Y-99383033D01*
X135177813Y-99312697D01*
X135010236Y-99261864D01*
X134941244Y-99255069D01*
X134882180Y-99223498D01*
X134762482Y-99187188D01*
X134638000Y-99174928D01*
X133578000Y-99174928D01*
X133453518Y-99187188D01*
X133333820Y-99223498D01*
X133223506Y-99282463D01*
X133126815Y-99361815D01*
X133047463Y-99458506D01*
X132988498Y-99568820D01*
X132952188Y-99688518D01*
X132939928Y-99813000D01*
X132939928Y-99984854D01*
X132779788Y-99953000D01*
X132556212Y-99953000D01*
X132336933Y-99996617D01*
X132130376Y-100082176D01*
X131944480Y-100206388D01*
X131786388Y-100364480D01*
X131662176Y-100550376D01*
X131576617Y-100756933D01*
X131533000Y-100976212D01*
X131533000Y-101199788D01*
X131576617Y-101419067D01*
X131662176Y-101625624D01*
X131786388Y-101811520D01*
X131944480Y-101969612D01*
X132130376Y-102093824D01*
X132336933Y-102179383D01*
X132556212Y-102223000D01*
X132779788Y-102223000D01*
X132939928Y-102191146D01*
X132939928Y-102363000D01*
X132952188Y-102487482D01*
X132988498Y-102607180D01*
X133047463Y-102717494D01*
X133126815Y-102814185D01*
X133219000Y-102889839D01*
X133219001Y-103388909D01*
X133184053Y-103454291D01*
X133133872Y-103619715D01*
X133116928Y-103791750D01*
X133116928Y-104704250D01*
X133133872Y-104876285D01*
X133184053Y-105041709D01*
X133265542Y-105194164D01*
X133353500Y-105301341D01*
X133353500Y-105633059D01*
X133265542Y-105740236D01*
X133184053Y-105892691D01*
X133133872Y-106058115D01*
X133116928Y-106230150D01*
X133116928Y-107142650D01*
X133133872Y-107314685D01*
X133184053Y-107480109D01*
X133265542Y-107632564D01*
X133375208Y-107766192D01*
X133508836Y-107875858D01*
X133661291Y-107957347D01*
X133728499Y-107977734D01*
X134248505Y-108497741D01*
X134276341Y-108531659D01*
X134411709Y-108642753D01*
X134566149Y-108725303D01*
X134630397Y-108744792D01*
X134733724Y-108776136D01*
X134766924Y-108779406D01*
X134864333Y-108789000D01*
X134864339Y-108789000D01*
X134907999Y-108793300D01*
X134951659Y-108789000D01*
X137544017Y-108789000D01*
X137582525Y-108846632D01*
X137697893Y-108962000D01*
X134005131Y-108962000D01*
X133001572Y-107958442D01*
X133001572Y-107898750D01*
X132984628Y-107726715D01*
X132934447Y-107561291D01*
X132852958Y-107408836D01*
X132743292Y-107275208D01*
X132609664Y-107165542D01*
X132458981Y-107085000D01*
X132609664Y-107004458D01*
X132743292Y-106894792D01*
X132852958Y-106761164D01*
X132934447Y-106608709D01*
X132984628Y-106443285D01*
X133001572Y-106271250D01*
X133001572Y-105358750D01*
X132984628Y-105186715D01*
X132934447Y-105021291D01*
X132852958Y-104868836D01*
X132743292Y-104735208D01*
X132609664Y-104625542D01*
X132457209Y-104544053D01*
X132291785Y-104493872D01*
X132119750Y-104476928D01*
X131632250Y-104476928D01*
X131460215Y-104493872D01*
X131294791Y-104544053D01*
X131142336Y-104625542D01*
X131008708Y-104735208D01*
X131003492Y-104741564D01*
X130939685Y-104663815D01*
X130842994Y-104584463D01*
X130732680Y-104525498D01*
X130612982Y-104489188D01*
X130488500Y-104476928D01*
X130286750Y-104480000D01*
X130128000Y-104638750D01*
X130128000Y-105688000D01*
X130148000Y-105688000D01*
X130148000Y-105942000D01*
X130128000Y-105942000D01*
X130128000Y-105962000D01*
X129874000Y-105962000D01*
X129874000Y-105942000D01*
X129854000Y-105942000D01*
X129854000Y-105688000D01*
X129874000Y-105688000D01*
X129874000Y-104638750D01*
X129715250Y-104480000D01*
X129513500Y-104476928D01*
X129389018Y-104489188D01*
X129269320Y-104525498D01*
X129159006Y-104584463D01*
X129062315Y-104663815D01*
X128982963Y-104760506D01*
X128923998Y-104870820D01*
X128887688Y-104990518D01*
X128875428Y-105115000D01*
X128876979Y-105324105D01*
X128867037Y-105305506D01*
X128787685Y-105208815D01*
X128690994Y-105129463D01*
X128580680Y-105070498D01*
X128460982Y-105034188D01*
X128336500Y-105021928D01*
X127922250Y-105025000D01*
X127763500Y-105183750D01*
X127763500Y-106020500D01*
X127783500Y-106020500D01*
X127783500Y-106274500D01*
X127763500Y-106274500D01*
X127763500Y-106294500D01*
X127509500Y-106294500D01*
X127509500Y-106274500D01*
X127489500Y-106274500D01*
X127489500Y-106020500D01*
X127509500Y-106020500D01*
X127509500Y-105183750D01*
X127350750Y-105025000D01*
X127173752Y-105023687D01*
X127260324Y-104894124D01*
X127345883Y-104687567D01*
X127389500Y-104468288D01*
X127389500Y-104244712D01*
X127345883Y-104025433D01*
X127260324Y-103818876D01*
X127136112Y-103632980D01*
X126978020Y-103474888D01*
X126792124Y-103350676D01*
X126585567Y-103265117D01*
X126366288Y-103221500D01*
X126142712Y-103221500D01*
X125923433Y-103265117D01*
X125716876Y-103350676D01*
X125530980Y-103474888D01*
X125372888Y-103632980D01*
X125248676Y-103818876D01*
X125235548Y-103850569D01*
X125216112Y-103821480D01*
X125058020Y-103663388D01*
X124872124Y-103539176D01*
X124665567Y-103453617D01*
X124446288Y-103410000D01*
X124222712Y-103410000D01*
X124003433Y-103453617D01*
X123796876Y-103539176D01*
X123610980Y-103663388D01*
X123452888Y-103821480D01*
X123328676Y-104007376D01*
X123243117Y-104213933D01*
X123202094Y-104420171D01*
X122990759Y-104631506D01*
X122956842Y-104659341D01*
X122929007Y-104693258D01*
X122929005Y-104693260D01*
X122845748Y-104794709D01*
X122763198Y-104949148D01*
X122712364Y-105116726D01*
X122710000Y-105140729D01*
X122710000Y-98529872D01*
X125515000Y-98529872D01*
X125515000Y-98970128D01*
X125600890Y-99401925D01*
X125769369Y-99808669D01*
X126013962Y-100174729D01*
X126325271Y-100486038D01*
X126691331Y-100730631D01*
X127098075Y-100899110D01*
X127529872Y-100985000D01*
X127970128Y-100985000D01*
X128401925Y-100899110D01*
X128808669Y-100730631D01*
X129174729Y-100486038D01*
X129486038Y-100174729D01*
X129730631Y-99808669D01*
X129899110Y-99401925D01*
X129985000Y-98970128D01*
X129985000Y-98529872D01*
X129899110Y-98098075D01*
X129730631Y-97691331D01*
X129719193Y-97674212D01*
X132041000Y-97674212D01*
X132041000Y-97897788D01*
X132084617Y-98117067D01*
X132170176Y-98323624D01*
X132294388Y-98509520D01*
X132452480Y-98667612D01*
X132638376Y-98791824D01*
X132844933Y-98877383D01*
X133064212Y-98921000D01*
X133287788Y-98921000D01*
X133434838Y-98891750D01*
X133536836Y-98975458D01*
X133689291Y-99056947D01*
X133854715Y-99107128D01*
X134026750Y-99124072D01*
X134514250Y-99124072D01*
X134686285Y-99107128D01*
X134851709Y-99056947D01*
X135004164Y-98975458D01*
X135137792Y-98865792D01*
X135143008Y-98859436D01*
X135206815Y-98937185D01*
X135303506Y-99016537D01*
X135413820Y-99075502D01*
X135533518Y-99111812D01*
X135658000Y-99124072D01*
X135859750Y-99121000D01*
X136018500Y-98962250D01*
X136018500Y-97913000D01*
X136272500Y-97913000D01*
X136272500Y-98962250D01*
X136431250Y-99121000D01*
X136633000Y-99124072D01*
X136757482Y-99111812D01*
X136877180Y-99075502D01*
X136987494Y-99016537D01*
X137084185Y-98937185D01*
X137163537Y-98840494D01*
X137222502Y-98730180D01*
X137258812Y-98610482D01*
X137271072Y-98486000D01*
X137268000Y-98071750D01*
X137109250Y-97913000D01*
X136272500Y-97913000D01*
X136018500Y-97913000D01*
X135998500Y-97913000D01*
X135998500Y-97659000D01*
X136018500Y-97659000D01*
X136018500Y-96609750D01*
X136272500Y-96609750D01*
X136272500Y-97659000D01*
X137109250Y-97659000D01*
X137268000Y-97500250D01*
X137268159Y-97478750D01*
X137761928Y-97478750D01*
X137761928Y-97966250D01*
X137778872Y-98138285D01*
X137829053Y-98303709D01*
X137910542Y-98456164D01*
X138020208Y-98589792D01*
X138026564Y-98595008D01*
X137948815Y-98658815D01*
X137869463Y-98755506D01*
X137810498Y-98865820D01*
X137774188Y-98985518D01*
X137761928Y-99110000D01*
X137765000Y-99311750D01*
X137923750Y-99470500D01*
X138973000Y-99470500D01*
X138973000Y-99450500D01*
X139227000Y-99450500D01*
X139227000Y-99470500D01*
X139247000Y-99470500D01*
X139247000Y-99724500D01*
X139227000Y-99724500D01*
X139227000Y-100561250D01*
X139385750Y-100720000D01*
X139800000Y-100723072D01*
X139924482Y-100710812D01*
X140044180Y-100674502D01*
X140154494Y-100615537D01*
X140251185Y-100536185D01*
X140330537Y-100439494D01*
X140389502Y-100329180D01*
X140397264Y-100303591D01*
X140470518Y-100325812D01*
X140595000Y-100338072D01*
X140609250Y-100335000D01*
X140768000Y-100176250D01*
X140768000Y-98852000D01*
X140748000Y-98852000D01*
X140748000Y-98598000D01*
X140768000Y-98598000D01*
X140768000Y-97273750D01*
X140609250Y-97115000D01*
X140595000Y-97111928D01*
X140470518Y-97124188D01*
X140374586Y-97153289D01*
X140370947Y-97141291D01*
X140289458Y-96988836D01*
X140179792Y-96855208D01*
X140097478Y-96787654D01*
X140153612Y-96731520D01*
X140277824Y-96545624D01*
X140363383Y-96339067D01*
X140407000Y-96119788D01*
X140407000Y-95896212D01*
X140363383Y-95676933D01*
X140277824Y-95470376D01*
X140153612Y-95284480D01*
X139995520Y-95126388D01*
X139809624Y-95002176D01*
X139603067Y-94916617D01*
X139383788Y-94873000D01*
X139160212Y-94873000D01*
X138940933Y-94916617D01*
X138734376Y-95002176D01*
X138548480Y-95126388D01*
X138390388Y-95284480D01*
X138266176Y-95470376D01*
X138180617Y-95676933D01*
X138137000Y-95896212D01*
X138137000Y-96119788D01*
X138180617Y-96339067D01*
X138211001Y-96412420D01*
X138211001Y-96714987D01*
X138153836Y-96745542D01*
X138020208Y-96855208D01*
X137910542Y-96988836D01*
X137829053Y-97141291D01*
X137778872Y-97306715D01*
X137761928Y-97478750D01*
X137268159Y-97478750D01*
X137271072Y-97086000D01*
X137258812Y-96961518D01*
X137222502Y-96841820D01*
X137163537Y-96731506D01*
X137084185Y-96634815D01*
X136987494Y-96555463D01*
X136877180Y-96496498D01*
X136757482Y-96460188D01*
X136633000Y-96447928D01*
X136431250Y-96451000D01*
X136272500Y-96609750D01*
X136018500Y-96609750D01*
X135859750Y-96451000D01*
X135658000Y-96447928D01*
X135533518Y-96460188D01*
X135413820Y-96496498D01*
X135303506Y-96555463D01*
X135206815Y-96634815D01*
X135143008Y-96712564D01*
X135137792Y-96706208D01*
X135004164Y-96596542D01*
X134851709Y-96515053D01*
X134686285Y-96464872D01*
X134514250Y-96447928D01*
X134026750Y-96447928D01*
X133854715Y-96464872D01*
X133689291Y-96515053D01*
X133536836Y-96596542D01*
X133434838Y-96680250D01*
X133287788Y-96651000D01*
X133064212Y-96651000D01*
X132844933Y-96694617D01*
X132638376Y-96780176D01*
X132452480Y-96904388D01*
X132294388Y-97062480D01*
X132170176Y-97248376D01*
X132084617Y-97454933D01*
X132041000Y-97674212D01*
X129719193Y-97674212D01*
X129486038Y-97325271D01*
X129174729Y-97013962D01*
X128808669Y-96769369D01*
X128401925Y-96600890D01*
X127970128Y-96515000D01*
X127529872Y-96515000D01*
X127098075Y-96600890D01*
X126691331Y-96769369D01*
X126325271Y-97013962D01*
X126013962Y-97325271D01*
X125769369Y-97691331D01*
X125600890Y-98098075D01*
X125515000Y-98529872D01*
X122710000Y-98529872D01*
X122710000Y-92534729D01*
X122728386Y-92347215D01*
X122772757Y-92200252D01*
X122844829Y-92064703D01*
X122941852Y-91945742D01*
X123060144Y-91847882D01*
X123195181Y-91774868D01*
X123341833Y-91729471D01*
X123527092Y-91710000D01*
X173699808Y-91710000D01*
X173698815Y-91710815D01*
G36*
X177290000Y-102715271D02*
G01*
X177271614Y-102902784D01*
X177227243Y-103049748D01*
X177155171Y-103185297D01*
X177058148Y-103304258D01*
X176939856Y-103402118D01*
X176804819Y-103475132D01*
X176658167Y-103520529D01*
X176472908Y-103540000D01*
X172598955Y-103540000D01*
X172635000Y-103358788D01*
X172635000Y-103189630D01*
X173433497Y-102391133D01*
X173494176Y-102537624D01*
X173618388Y-102723520D01*
X173776480Y-102881612D01*
X173962376Y-103005824D01*
X174168933Y-103091383D01*
X174388212Y-103135000D01*
X174611788Y-103135000D01*
X174831067Y-103091383D01*
X175037624Y-103005824D01*
X175223520Y-102881612D01*
X175381612Y-102723520D01*
X175505824Y-102537624D01*
X175591383Y-102331067D01*
X175632406Y-102124830D01*
X176128241Y-101628995D01*
X176162159Y-101601159D01*
X176224503Y-101525193D01*
X176324209Y-101494947D01*
X176476664Y-101413458D01*
X176610292Y-101303792D01*
X176719958Y-101170164D01*
X176801447Y-101017709D01*
X176851628Y-100852285D01*
X176868572Y-100680250D01*
X176868572Y-100192750D01*
X176851628Y-100020715D01*
X176801447Y-99855291D01*
X176719958Y-99702836D01*
X176610292Y-99569208D01*
X176603936Y-99563992D01*
X176681685Y-99500185D01*
X176761037Y-99403494D01*
X176820002Y-99293180D01*
X176856312Y-99173482D01*
X176868572Y-99049000D01*
X176865500Y-98847250D01*
X176706750Y-98688500D01*
X175657500Y-98688500D01*
X175657500Y-98708500D01*
X175403500Y-98708500D01*
X175403500Y-98688500D01*
X175383500Y-98688500D01*
X175383500Y-98434500D01*
X175403500Y-98434500D01*
X175403500Y-97597750D01*
X175388500Y-97582750D01*
X175388500Y-96705000D01*
X175642500Y-96705000D01*
X175642500Y-97754250D01*
X175657500Y-97769250D01*
X175657500Y-98434500D01*
X176706750Y-98434500D01*
X176865500Y-98275750D01*
X176868572Y-98074000D01*
X176856312Y-97949518D01*
X176820002Y-97829820D01*
X176761037Y-97719506D01*
X176681685Y-97622815D01*
X176584994Y-97543463D01*
X176581985Y-97541855D01*
X176592502Y-97522180D01*
X176628812Y-97402482D01*
X176641072Y-97278000D01*
X176638000Y-96863750D01*
X176479250Y-96705000D01*
X175642500Y-96705000D01*
X175388500Y-96705000D01*
X175368500Y-96705000D01*
X175368500Y-96451000D01*
X175388500Y-96451000D01*
X175388500Y-96431000D01*
X175642500Y-96431000D01*
X175642500Y-96451000D01*
X176479250Y-96451000D01*
X176638000Y-96292250D01*
X176641072Y-95878000D01*
X176628812Y-95753518D01*
X176592502Y-95633820D01*
X176533537Y-95523506D01*
X176454185Y-95426815D01*
X176433913Y-95410178D01*
X176489502Y-95306180D01*
X176525812Y-95186482D01*
X176538072Y-95062000D01*
X176538072Y-94455975D01*
X176724212Y-94493000D01*
X176947788Y-94493000D01*
X177167067Y-94449383D01*
X177290001Y-94398462D01*
X177290000Y-102715271D01*
G37*
X177290000Y-102715271D02*
X177271614Y-102902784D01*
X177227243Y-103049748D01*
X177155171Y-103185297D01*
X177058148Y-103304258D01*
X176939856Y-103402118D01*
X176804819Y-103475132D01*
X176658167Y-103520529D01*
X176472908Y-103540000D01*
X172598955Y-103540000D01*
X172635000Y-103358788D01*
X172635000Y-103189630D01*
X173433497Y-102391133D01*
X173494176Y-102537624D01*
X173618388Y-102723520D01*
X173776480Y-102881612D01*
X173962376Y-103005824D01*
X174168933Y-103091383D01*
X174388212Y-103135000D01*
X174611788Y-103135000D01*
X174831067Y-103091383D01*
X175037624Y-103005824D01*
X175223520Y-102881612D01*
X175381612Y-102723520D01*
X175505824Y-102537624D01*
X175591383Y-102331067D01*
X175632406Y-102124830D01*
X176128241Y-101628995D01*
X176162159Y-101601159D01*
X176224503Y-101525193D01*
X176324209Y-101494947D01*
X176476664Y-101413458D01*
X176610292Y-101303792D01*
X176719958Y-101170164D01*
X176801447Y-101017709D01*
X176851628Y-100852285D01*
X176868572Y-100680250D01*
X176868572Y-100192750D01*
X176851628Y-100020715D01*
X176801447Y-99855291D01*
X176719958Y-99702836D01*
X176610292Y-99569208D01*
X176603936Y-99563992D01*
X176681685Y-99500185D01*
X176761037Y-99403494D01*
X176820002Y-99293180D01*
X176856312Y-99173482D01*
X176868572Y-99049000D01*
X176865500Y-98847250D01*
X176706750Y-98688500D01*
X175657500Y-98688500D01*
X175657500Y-98708500D01*
X175403500Y-98708500D01*
X175403500Y-98688500D01*
X175383500Y-98688500D01*
X175383500Y-98434500D01*
X175403500Y-98434500D01*
X175403500Y-97597750D01*
X175388500Y-97582750D01*
X175388500Y-96705000D01*
X175642500Y-96705000D01*
X175642500Y-97754250D01*
X175657500Y-97769250D01*
X175657500Y-98434500D01*
X176706750Y-98434500D01*
X176865500Y-98275750D01*
X176868572Y-98074000D01*
X176856312Y-97949518D01*
X176820002Y-97829820D01*
X176761037Y-97719506D01*
X176681685Y-97622815D01*
X176584994Y-97543463D01*
X176581985Y-97541855D01*
X176592502Y-97522180D01*
X176628812Y-97402482D01*
X176641072Y-97278000D01*
X176638000Y-96863750D01*
X176479250Y-96705000D01*
X175642500Y-96705000D01*
X175388500Y-96705000D01*
X175368500Y-96705000D01*
X175368500Y-96451000D01*
X175388500Y-96451000D01*
X175388500Y-96431000D01*
X175642500Y-96431000D01*
X175642500Y-96451000D01*
X176479250Y-96451000D01*
X176638000Y-96292250D01*
X176641072Y-95878000D01*
X176628812Y-95753518D01*
X176592502Y-95633820D01*
X176533537Y-95523506D01*
X176454185Y-95426815D01*
X176433913Y-95410178D01*
X176489502Y-95306180D01*
X176525812Y-95186482D01*
X176538072Y-95062000D01*
X176538072Y-94455975D01*
X176724212Y-94493000D01*
X176947788Y-94493000D01*
X177167067Y-94449383D01*
X177290001Y-94398462D01*
X177290000Y-102715271D01*
M02*
