%TF.GenerationSoftware,KiCad,Pcbnew,(7.0.0)*%
%TF.CreationDate,2023-02-19T15:38:10+01:00*%
%TF.ProjectId,Daylight_Disco_XXL,4461796c-6967-4687-945f-446973636f5f,rev?*%
%TF.SameCoordinates,Original*%
%TF.FileFunction,Paste,Top*%
%TF.FilePolarity,Positive*%
%FSLAX46Y46*%
G04 Gerber Fmt 4.6, Leading zero omitted, Abs format (unit mm)*
G04 Created by KiCad (PCBNEW (7.0.0)) date 2023-02-19 15:38:10*
%MOMM*%
%LPD*%
G01*
G04 APERTURE LIST*
G04 Aperture macros list*
%AMRoundRect*
0 Rectangle with rounded corners*
0 $1 Rounding radius*
0 $2 $3 $4 $5 $6 $7 $8 $9 X,Y pos of 4 corners*
0 Add a 4 corners polygon primitive as box body*
4,1,4,$2,$3,$4,$5,$6,$7,$8,$9,$2,$3,0*
0 Add four circle primitives for the rounded corners*
1,1,$1+$1,$2,$3*
1,1,$1+$1,$4,$5*
1,1,$1+$1,$6,$7*
1,1,$1+$1,$8,$9*
0 Add four rect primitives between the rounded corners*
20,1,$1+$1,$2,$3,$4,$5,0*
20,1,$1+$1,$4,$5,$6,$7,0*
20,1,$1+$1,$6,$7,$8,$9,0*
20,1,$1+$1,$8,$9,$2,$3,0*%
G04 Aperture macros list end*
%ADD10RoundRect,0.250000X-0.475000X0.337500X-0.475000X-0.337500X0.475000X-0.337500X0.475000X0.337500X0*%
%ADD11R,1.500000X1.000000*%
G04 APERTURE END LIST*
D10*
%TO.C,C6*%
X120145243Y-31962500D03*
X120145243Y-34037500D03*
%TD*%
D11*
%TO.C,D16*%
X242781149Y-34599999D03*
X242781149Y-31399999D03*
X237881149Y-31399999D03*
X237881149Y-34599999D03*
%TD*%
%TO.C,D22*%
X327983765Y-34599999D03*
X327983765Y-31399999D03*
X323083765Y-31399999D03*
X323083765Y-34599999D03*
%TD*%
%TO.C,D2*%
X44605409Y-34599999D03*
X44605409Y-31399999D03*
X39705409Y-31399999D03*
X39705409Y-34599999D03*
%TD*%
%TO.C,D1*%
X30449999Y-34599999D03*
X30449999Y-31399999D03*
X25549999Y-31399999D03*
X25549999Y-34599999D03*
%TD*%
%TO.C,D24*%
X356294585Y-34599999D03*
X356294585Y-31399999D03*
X351394585Y-31399999D03*
X351394585Y-34599999D03*
%TD*%
D10*
%TO.C,C14*%
X233388523Y-31962500D03*
X233388523Y-34037500D03*
%TD*%
D11*
%TO.C,D12*%
X186159509Y-34599999D03*
X186159509Y-31399999D03*
X181259509Y-31399999D03*
X181259509Y-34599999D03*
%TD*%
D10*
%TO.C,C2*%
X63523603Y-31962500D03*
X63523603Y-34037500D03*
%TD*%
D11*
%TO.C,D25*%
X370449999Y-34599999D03*
X370449999Y-31399999D03*
X365549999Y-31399999D03*
X365549999Y-34599999D03*
%TD*%
%TO.C,D14*%
X214470329Y-34599999D03*
X214470329Y-31399999D03*
X209570329Y-31399999D03*
X209570329Y-34599999D03*
%TD*%
%TO.C,D13*%
X200314919Y-34599999D03*
X200314919Y-31399999D03*
X195414919Y-31399999D03*
X195414919Y-34599999D03*
%TD*%
%TO.C,D23*%
X342139175Y-34599999D03*
X342139175Y-31399999D03*
X337239175Y-31399999D03*
X337239175Y-34599999D03*
%TD*%
D10*
%TO.C,C7*%
X134300653Y-31962500D03*
X134300653Y-34037500D03*
%TD*%
D11*
%TO.C,D8*%
X129537869Y-34599999D03*
X129537869Y-31399999D03*
X124637869Y-31399999D03*
X124637869Y-34599999D03*
%TD*%
D10*
%TO.C,C17*%
X275989831Y-31962500D03*
X275989831Y-34037500D03*
%TD*%
%TO.C,C4*%
X91834423Y-31962500D03*
X91834423Y-34037500D03*
%TD*%
%TO.C,C5*%
X105989833Y-31962500D03*
X105989833Y-34037500D03*
%TD*%
%TO.C,C16*%
X261699343Y-31962500D03*
X261699343Y-34037500D03*
%TD*%
D11*
%TO.C,D10*%
X157848689Y-34599999D03*
X157848689Y-31399999D03*
X152948689Y-31399999D03*
X152948689Y-34599999D03*
%TD*%
D10*
%TO.C,C22*%
X359750000Y-31962500D03*
X359750000Y-34037500D03*
%TD*%
D11*
%TO.C,D15*%
X228625739Y-34599999D03*
X228625739Y-31399999D03*
X223725739Y-31399999D03*
X223725739Y-34599999D03*
%TD*%
D10*
%TO.C,C19*%
X304435729Y-31962500D03*
X304435729Y-34037500D03*
%TD*%
%TO.C,C1*%
X33500000Y-31962500D03*
X33500000Y-34037500D03*
%TD*%
%TO.C,C8*%
X148456063Y-31962500D03*
X148456063Y-34037500D03*
%TD*%
D11*
%TO.C,D20*%
X299672945Y-34599999D03*
X299672945Y-31399999D03*
X294772945Y-31399999D03*
X294772945Y-34599999D03*
%TD*%
D10*
%TO.C,C18*%
X290280319Y-31962500D03*
X290280319Y-34037500D03*
%TD*%
%TO.C,C12*%
X205077703Y-31962500D03*
X205077703Y-34037500D03*
%TD*%
%TO.C,C9*%
X162611473Y-31962500D03*
X162611473Y-34037500D03*
%TD*%
D11*
%TO.C,D7*%
X115382459Y-34599999D03*
X115382459Y-31399999D03*
X110482459Y-31399999D03*
X110482459Y-34599999D03*
%TD*%
%TO.C,D9*%
X143693279Y-34599999D03*
X143693279Y-31399999D03*
X138793279Y-31399999D03*
X138793279Y-34599999D03*
%TD*%
%TO.C,D5*%
X87071639Y-34599999D03*
X87071639Y-31399999D03*
X82171639Y-31399999D03*
X82171639Y-34599999D03*
%TD*%
%TO.C,D11*%
X172004099Y-34599999D03*
X172004099Y-31399999D03*
X167104099Y-31399999D03*
X167104099Y-34599999D03*
%TD*%
%TO.C,D19*%
X285517535Y-34599999D03*
X285517535Y-31399999D03*
X280617535Y-31399999D03*
X280617535Y-34599999D03*
%TD*%
D10*
%TO.C,C10*%
X176766883Y-31962500D03*
X176766883Y-34037500D03*
%TD*%
%TO.C,C20*%
X318591139Y-31962500D03*
X318591139Y-34037500D03*
%TD*%
D11*
%TO.C,D6*%
X101227049Y-34599999D03*
X101227049Y-31399999D03*
X96327049Y-31399999D03*
X96327049Y-34599999D03*
%TD*%
D10*
%TO.C,C3*%
X77679013Y-31962500D03*
X77679013Y-34037500D03*
%TD*%
%TO.C,C13*%
X219233113Y-31962500D03*
X219233113Y-34037500D03*
%TD*%
D11*
%TO.C,D17*%
X256936559Y-34599999D03*
X256936559Y-31399999D03*
X252036559Y-31399999D03*
X252036559Y-34599999D03*
%TD*%
%TO.C,D4*%
X72916229Y-34599999D03*
X72916229Y-31399999D03*
X68016229Y-31399999D03*
X68016229Y-34599999D03*
%TD*%
%TO.C,D21*%
X313828355Y-34599999D03*
X313828355Y-31399999D03*
X308928355Y-31399999D03*
X308928355Y-34599999D03*
%TD*%
D10*
%TO.C,C21*%
X332746549Y-31962500D03*
X332746549Y-34037500D03*
%TD*%
%TO.C,C11*%
X190922293Y-31962500D03*
X190922293Y-34037500D03*
%TD*%
D11*
%TO.C,D3*%
X58760819Y-34599999D03*
X58760819Y-31399999D03*
X53860819Y-31399999D03*
X53860819Y-34599999D03*
%TD*%
D10*
%TO.C,C15*%
X247543933Y-31962500D03*
X247543933Y-34037500D03*
%TD*%
D11*
%TO.C,D18*%
X271091969Y-34599999D03*
X271091969Y-31399999D03*
X266191969Y-31399999D03*
X266191969Y-34599999D03*
%TD*%
M02*
