G04 #@! TF.GenerationSoftware,KiCad,Pcbnew,(5.1.5)-3*
G04 #@! TF.CreationDate,2020-04-07T10:53:57-04:00*
G04 #@! TF.ProjectId,Nano_Adapter,4e616e6f-5f41-4646-9170-7465722e6b69,rev?*
G04 #@! TF.SameCoordinates,Original*
G04 #@! TF.FileFunction,Copper,L1,Top*
G04 #@! TF.FilePolarity,Positive*
%FSLAX46Y46*%
G04 Gerber Fmt 4.6, Leading zero omitted, Abs format (unit mm)*
G04 Created by KiCad (PCBNEW (5.1.5)-3) date 2020-04-07 10:53:57*
%MOMM*%
%LPD*%
G04 APERTURE LIST*
%ADD10C,1.524000*%
%ADD11O,1.700000X1.700000*%
%ADD12R,1.700000X1.700000*%
%ADD13C,2.540000*%
%ADD14C,0.250000*%
%ADD15C,0.254000*%
G04 APERTURE END LIST*
D10*
X148336000Y-94742000D03*
X145796000Y-94742000D03*
X148336000Y-97282000D03*
X145796000Y-97282000D03*
X148336000Y-99822000D03*
X145796000Y-99822000D03*
X148336000Y-102362000D03*
X145796000Y-102362000D03*
X148336000Y-104902000D03*
X145796000Y-104902000D03*
D11*
X154686000Y-106807000D03*
X154686000Y-104267000D03*
X154686000Y-101727000D03*
X154686000Y-99187000D03*
X154686000Y-96647000D03*
X154686000Y-94107000D03*
X154686000Y-91567000D03*
X154686000Y-89027000D03*
X154686000Y-86487000D03*
X154686000Y-83947000D03*
X154686000Y-81407000D03*
X154686000Y-78867000D03*
X154686000Y-76327000D03*
X154686000Y-73787000D03*
D12*
X154686000Y-71247000D03*
D11*
X139446000Y-106807000D03*
X139446000Y-104267000D03*
X139446000Y-101727000D03*
X139446000Y-99187000D03*
X139446000Y-96647000D03*
X139446000Y-94107000D03*
X139446000Y-91567000D03*
X139446000Y-89027000D03*
X139446000Y-86487000D03*
X139446000Y-83947000D03*
X139446000Y-81407000D03*
X139446000Y-78867000D03*
X139446000Y-76327000D03*
X139446000Y-73787000D03*
D12*
X139446000Y-71247000D03*
D10*
X148336000Y-73152000D03*
X145796000Y-73152000D03*
X148336000Y-75692000D03*
X145796000Y-75692000D03*
X148336000Y-78232000D03*
X145796000Y-78232000D03*
X148336000Y-80772000D03*
X145796000Y-80772000D03*
X148336000Y-83312000D03*
X145796000Y-83312000D03*
D13*
X139446000Y-68707000D03*
X139446000Y-109347000D03*
X154686000Y-109347000D03*
X154686000Y-68707000D03*
D14*
X153416000Y-76327000D02*
X154686000Y-76327000D01*
X152781000Y-76962000D02*
X153416000Y-76327000D01*
X152781000Y-87122000D02*
X152781000Y-76962000D01*
X147066000Y-92837000D02*
X152781000Y-87122000D01*
X148336000Y-97282000D02*
X147066000Y-96012000D01*
X147066000Y-96012000D02*
X147066000Y-92837000D01*
X144718370Y-75692000D02*
X143256000Y-77154370D01*
X145796000Y-75692000D02*
X144718370Y-75692000D01*
X143256000Y-77154370D02*
X143256000Y-80137000D01*
X141986000Y-81407000D02*
X139446000Y-81407000D01*
X143256000Y-80137000D02*
X141986000Y-81407000D01*
X140295999Y-85637001D02*
X139446000Y-86487000D01*
X143706010Y-82226990D02*
X140295999Y-85637001D01*
X143706010Y-79244360D02*
X143706010Y-82226990D01*
X144718370Y-78232000D02*
X143706010Y-79244360D01*
X145796000Y-78232000D02*
X144718370Y-78232000D01*
X140295999Y-90717001D02*
X139446000Y-91567000D01*
X144156020Y-86856980D02*
X140295999Y-90717001D01*
X144156020Y-81334350D02*
X144156020Y-86856980D01*
X144718370Y-80772000D02*
X144156020Y-81334350D01*
X145796000Y-80772000D02*
X144718370Y-80772000D01*
X145034001Y-84073999D02*
X145034001Y-89153999D01*
X145796000Y-83312000D02*
X145034001Y-84073999D01*
X145034001Y-89153999D02*
X141351000Y-92837000D01*
X141351000Y-92837000D02*
X141351000Y-96012000D01*
X140716000Y-96647000D02*
X139446000Y-96647000D01*
X141351000Y-96012000D02*
X140716000Y-96647000D01*
X150241000Y-106807000D02*
X148336000Y-104902000D01*
X154686000Y-106807000D02*
X150241000Y-106807000D01*
X141351000Y-104267000D02*
X139446000Y-104267000D01*
X144526000Y-101092000D02*
X141351000Y-104267000D01*
X148336000Y-99822000D02*
X147066000Y-101092000D01*
X147066000Y-101092000D02*
X144526000Y-101092000D01*
X145796000Y-105367000D02*
X145796000Y-104267000D01*
X143891000Y-106807000D02*
X139446000Y-106807000D01*
X145796000Y-104902000D02*
X143891000Y-106807000D01*
X148336000Y-92837000D02*
X154686000Y-86487000D01*
X148336000Y-94742000D02*
X148336000Y-92837000D01*
X147248999Y-98369001D02*
X149788999Y-98369001D01*
X145796000Y-99822000D02*
X147248999Y-98369001D01*
X149788999Y-98369001D02*
X150241000Y-97917000D01*
X150241000Y-93472000D02*
X154686000Y-89027000D01*
X150241000Y-97917000D02*
X150241000Y-93472000D01*
X148336000Y-102362000D02*
X151511000Y-99187000D01*
X151511000Y-99187000D02*
X151511000Y-93472000D01*
X153416000Y-91567000D02*
X154686000Y-91567000D01*
X151511000Y-93472000D02*
X153416000Y-91567000D01*
X153483919Y-94107000D02*
X152781000Y-94809919D01*
X154686000Y-94107000D02*
X153483919Y-94107000D01*
X152781000Y-94809919D02*
X152781000Y-101092000D01*
X152781000Y-101092000D02*
X150241000Y-103632000D01*
X150241000Y-103632000D02*
X147066000Y-103632000D01*
X147066000Y-103632000D02*
X145796000Y-102362000D01*
D15*
G36*
X152854209Y-68151332D02*
G01*
X152781000Y-68519374D01*
X152781000Y-68894626D01*
X152854209Y-69262668D01*
X152997811Y-69609356D01*
X153206290Y-69921366D01*
X153315365Y-70030441D01*
X153305463Y-70042506D01*
X153246498Y-70152820D01*
X153210188Y-70272518D01*
X153197928Y-70397000D01*
X153197928Y-72097000D01*
X153210188Y-72221482D01*
X153246498Y-72341180D01*
X153305463Y-72451494D01*
X153384815Y-72548185D01*
X153481506Y-72627537D01*
X153591820Y-72686502D01*
X153672466Y-72710966D01*
X153588412Y-72786731D01*
X153414359Y-73020080D01*
X153289175Y-73282901D01*
X153244524Y-73430110D01*
X153365845Y-73660000D01*
X154559000Y-73660000D01*
X154559000Y-73640000D01*
X154813000Y-73640000D01*
X154813000Y-73660000D01*
X154833000Y-73660000D01*
X154833000Y-73914000D01*
X154813000Y-73914000D01*
X154813000Y-73934000D01*
X154559000Y-73934000D01*
X154559000Y-73914000D01*
X153365845Y-73914000D01*
X153244524Y-74143890D01*
X153289175Y-74291099D01*
X153414359Y-74553920D01*
X153588412Y-74787269D01*
X153804645Y-74982178D01*
X153921534Y-75051805D01*
X153739368Y-75173525D01*
X153532525Y-75380368D01*
X153409875Y-75563926D01*
X153378667Y-75567000D01*
X153267014Y-75577997D01*
X153123753Y-75621454D01*
X152991724Y-75692026D01*
X152875999Y-75786999D01*
X152852200Y-75815998D01*
X152269998Y-76398201D01*
X152241000Y-76421999D01*
X152217202Y-76450997D01*
X152217201Y-76450998D01*
X152146026Y-76537724D01*
X152075454Y-76669754D01*
X152031998Y-76813015D01*
X152017324Y-76962000D01*
X152021001Y-76999332D01*
X152021000Y-86807198D01*
X146554998Y-92273201D01*
X146526000Y-92296999D01*
X146502202Y-92325997D01*
X146502201Y-92325998D01*
X146431026Y-92412724D01*
X146360454Y-92544754D01*
X146337023Y-92622000D01*
X146316998Y-92688014D01*
X146309272Y-92766454D01*
X146302324Y-92837000D01*
X146306001Y-92874332D01*
X146306001Y-93438076D01*
X146265952Y-93419244D01*
X145998865Y-93352977D01*
X145723983Y-93340090D01*
X145451867Y-93381078D01*
X145192977Y-93474364D01*
X145077020Y-93536344D01*
X145010040Y-93776435D01*
X145796000Y-94562395D01*
X145810143Y-94548253D01*
X145989748Y-94727858D01*
X145975605Y-94742000D01*
X145989748Y-94756143D01*
X145810143Y-94935748D01*
X145796000Y-94921605D01*
X145010040Y-95707565D01*
X145077020Y-95947656D01*
X145207644Y-96009079D01*
X145192977Y-96014364D01*
X145077020Y-96076344D01*
X145010040Y-96316435D01*
X145796000Y-97102395D01*
X145810143Y-97088253D01*
X145989748Y-97267858D01*
X145975605Y-97282000D01*
X145989748Y-97296143D01*
X145810143Y-97475748D01*
X145796000Y-97461605D01*
X145010040Y-98247565D01*
X145077020Y-98487656D01*
X145212760Y-98551485D01*
X145134273Y-98583995D01*
X144905465Y-98736880D01*
X144710880Y-98931465D01*
X144557995Y-99160273D01*
X144452686Y-99414510D01*
X144399000Y-99684408D01*
X144399000Y-99959592D01*
X144452686Y-100229490D01*
X144494894Y-100331388D01*
X144488676Y-100332000D01*
X144488667Y-100332000D01*
X144377014Y-100342997D01*
X144235912Y-100385799D01*
X144233753Y-100386454D01*
X144101723Y-100457026D01*
X144018083Y-100525668D01*
X143985999Y-100551999D01*
X143962201Y-100580997D01*
X141036199Y-103507000D01*
X140724178Y-103507000D01*
X140599475Y-103320368D01*
X140392632Y-103113525D01*
X140218240Y-102997000D01*
X140392632Y-102880475D01*
X140599475Y-102673632D01*
X140761990Y-102430411D01*
X140873932Y-102160158D01*
X140931000Y-101873260D01*
X140931000Y-101580740D01*
X140873932Y-101293842D01*
X140761990Y-101023589D01*
X140599475Y-100780368D01*
X140392632Y-100573525D01*
X140218240Y-100457000D01*
X140392632Y-100340475D01*
X140599475Y-100133632D01*
X140761990Y-99890411D01*
X140873932Y-99620158D01*
X140931000Y-99333260D01*
X140931000Y-99040740D01*
X140873932Y-98753842D01*
X140761990Y-98483589D01*
X140599475Y-98240368D01*
X140392632Y-98033525D01*
X140218240Y-97917000D01*
X140392632Y-97800475D01*
X140599475Y-97593632D01*
X140722125Y-97410073D01*
X140753322Y-97407000D01*
X140753333Y-97407000D01*
X140864986Y-97396003D01*
X141003397Y-97354017D01*
X144394090Y-97354017D01*
X144435078Y-97626133D01*
X144528364Y-97885023D01*
X144590344Y-98000980D01*
X144830435Y-98067960D01*
X145616395Y-97282000D01*
X144830435Y-96496040D01*
X144590344Y-96563020D01*
X144473244Y-96812048D01*
X144406977Y-97079135D01*
X144394090Y-97354017D01*
X141003397Y-97354017D01*
X141008247Y-97352546D01*
X141140276Y-97281974D01*
X141256001Y-97187001D01*
X141279803Y-97157998D01*
X141862002Y-96575800D01*
X141891001Y-96552001D01*
X141985974Y-96436276D01*
X142056546Y-96304247D01*
X142100003Y-96160986D01*
X142111000Y-96049333D01*
X142111000Y-96049332D01*
X142114677Y-96012000D01*
X142111000Y-95974667D01*
X142111000Y-94814017D01*
X144394090Y-94814017D01*
X144435078Y-95086133D01*
X144528364Y-95345023D01*
X144590344Y-95460980D01*
X144830435Y-95527960D01*
X145616395Y-94742000D01*
X144830435Y-93956040D01*
X144590344Y-94023020D01*
X144473244Y-94272048D01*
X144406977Y-94539135D01*
X144394090Y-94814017D01*
X142111000Y-94814017D01*
X142111000Y-93151801D01*
X145545004Y-89717798D01*
X145574002Y-89694000D01*
X145600333Y-89661916D01*
X145668975Y-89578276D01*
X145739547Y-89446246D01*
X145783004Y-89302985D01*
X145794001Y-89191332D01*
X145794001Y-89191322D01*
X145797677Y-89153999D01*
X145794001Y-89116676D01*
X145794001Y-84709000D01*
X145933592Y-84709000D01*
X146203490Y-84655314D01*
X146457727Y-84550005D01*
X146686535Y-84397120D01*
X146881120Y-84202535D01*
X147034005Y-83973727D01*
X147066000Y-83896485D01*
X147097995Y-83973727D01*
X147250880Y-84202535D01*
X147445465Y-84397120D01*
X147674273Y-84550005D01*
X147928510Y-84655314D01*
X148198408Y-84709000D01*
X148473592Y-84709000D01*
X148743490Y-84655314D01*
X148997727Y-84550005D01*
X149226535Y-84397120D01*
X149421120Y-84202535D01*
X149574005Y-83973727D01*
X149679314Y-83719490D01*
X149733000Y-83449592D01*
X149733000Y-83174408D01*
X149679314Y-82904510D01*
X149574005Y-82650273D01*
X149421120Y-82421465D01*
X149226535Y-82226880D01*
X148997727Y-82073995D01*
X148920485Y-82042000D01*
X148997727Y-82010005D01*
X149226535Y-81857120D01*
X149421120Y-81662535D01*
X149574005Y-81433727D01*
X149679314Y-81179490D01*
X149733000Y-80909592D01*
X149733000Y-80634408D01*
X149679314Y-80364510D01*
X149574005Y-80110273D01*
X149421120Y-79881465D01*
X149226535Y-79686880D01*
X148997727Y-79533995D01*
X148920485Y-79502000D01*
X148997727Y-79470005D01*
X149226535Y-79317120D01*
X149421120Y-79122535D01*
X149574005Y-78893727D01*
X149679314Y-78639490D01*
X149733000Y-78369592D01*
X149733000Y-78094408D01*
X149679314Y-77824510D01*
X149574005Y-77570273D01*
X149421120Y-77341465D01*
X149226535Y-77146880D01*
X148997727Y-76993995D01*
X148920485Y-76962000D01*
X148997727Y-76930005D01*
X149226535Y-76777120D01*
X149421120Y-76582535D01*
X149574005Y-76353727D01*
X149679314Y-76099490D01*
X149733000Y-75829592D01*
X149733000Y-75554408D01*
X149679314Y-75284510D01*
X149574005Y-75030273D01*
X149421120Y-74801465D01*
X149226535Y-74606880D01*
X148997727Y-74453995D01*
X148920485Y-74422000D01*
X148997727Y-74390005D01*
X149226535Y-74237120D01*
X149421120Y-74042535D01*
X149574005Y-73813727D01*
X149679314Y-73559490D01*
X149733000Y-73289592D01*
X149733000Y-73014408D01*
X149679314Y-72744510D01*
X149574005Y-72490273D01*
X149421120Y-72261465D01*
X149226535Y-72066880D01*
X148997727Y-71913995D01*
X148743490Y-71808686D01*
X148473592Y-71755000D01*
X148198408Y-71755000D01*
X147928510Y-71808686D01*
X147674273Y-71913995D01*
X147445465Y-72066880D01*
X147250880Y-72261465D01*
X147097995Y-72490273D01*
X147068308Y-72561943D01*
X147063636Y-72548977D01*
X147001656Y-72433020D01*
X146761565Y-72366040D01*
X145975605Y-73152000D01*
X146761565Y-73937960D01*
X147001656Y-73870980D01*
X147065485Y-73735240D01*
X147097995Y-73813727D01*
X147250880Y-74042535D01*
X147445465Y-74237120D01*
X147674273Y-74390005D01*
X147751515Y-74422000D01*
X147674273Y-74453995D01*
X147445465Y-74606880D01*
X147250880Y-74801465D01*
X147097995Y-75030273D01*
X147066000Y-75107515D01*
X147034005Y-75030273D01*
X146881120Y-74801465D01*
X146686535Y-74606880D01*
X146457727Y-74453995D01*
X146386057Y-74424308D01*
X146399023Y-74419636D01*
X146514980Y-74357656D01*
X146581960Y-74117565D01*
X145796000Y-73331605D01*
X145010040Y-74117565D01*
X145077020Y-74357656D01*
X145212760Y-74421485D01*
X145134273Y-74453995D01*
X144905465Y-74606880D01*
X144710880Y-74801465D01*
X144619617Y-74938049D01*
X144569384Y-74942997D01*
X144426123Y-74986454D01*
X144294094Y-75057026D01*
X144294092Y-75057027D01*
X144294093Y-75057027D01*
X144207366Y-75128201D01*
X144207362Y-75128205D01*
X144178369Y-75151999D01*
X144154575Y-75180992D01*
X142745002Y-76590567D01*
X142715999Y-76614369D01*
X142670547Y-76669753D01*
X142621026Y-76730094D01*
X142564952Y-76835000D01*
X142550454Y-76862124D01*
X142506997Y-77005385D01*
X142496000Y-77117038D01*
X142496000Y-77117048D01*
X142492324Y-77154370D01*
X142496000Y-77191693D01*
X142496001Y-79822197D01*
X141671199Y-80647000D01*
X140724178Y-80647000D01*
X140599475Y-80460368D01*
X140392632Y-80253525D01*
X140210466Y-80131805D01*
X140327355Y-80062178D01*
X140543588Y-79867269D01*
X140717641Y-79633920D01*
X140842825Y-79371099D01*
X140887476Y-79223890D01*
X140766155Y-78994000D01*
X139573000Y-78994000D01*
X139573000Y-79014000D01*
X139319000Y-79014000D01*
X139319000Y-78994000D01*
X139299000Y-78994000D01*
X139299000Y-78740000D01*
X139319000Y-78740000D01*
X139319000Y-78720000D01*
X139573000Y-78720000D01*
X139573000Y-78740000D01*
X140766155Y-78740000D01*
X140887476Y-78510110D01*
X140842825Y-78362901D01*
X140717641Y-78100080D01*
X140543588Y-77866731D01*
X140327355Y-77671822D01*
X140210466Y-77602195D01*
X140392632Y-77480475D01*
X140599475Y-77273632D01*
X140761990Y-77030411D01*
X140873932Y-76760158D01*
X140931000Y-76473260D01*
X140931000Y-76180740D01*
X140873932Y-75893842D01*
X140761990Y-75623589D01*
X140599475Y-75380368D01*
X140392632Y-75173525D01*
X140218240Y-75057000D01*
X140392632Y-74940475D01*
X140599475Y-74733632D01*
X140761990Y-74490411D01*
X140873932Y-74220158D01*
X140931000Y-73933260D01*
X140931000Y-73640740D01*
X140873932Y-73353842D01*
X140820157Y-73224017D01*
X144394090Y-73224017D01*
X144435078Y-73496133D01*
X144528364Y-73755023D01*
X144590344Y-73870980D01*
X144830435Y-73937960D01*
X145616395Y-73152000D01*
X144830435Y-72366040D01*
X144590344Y-72433020D01*
X144473244Y-72682048D01*
X144406977Y-72949135D01*
X144394090Y-73224017D01*
X140820157Y-73224017D01*
X140761990Y-73083589D01*
X140599475Y-72840368D01*
X140467620Y-72708513D01*
X140540180Y-72686502D01*
X140650494Y-72627537D01*
X140747185Y-72548185D01*
X140826537Y-72451494D01*
X140885502Y-72341180D01*
X140921812Y-72221482D01*
X140925263Y-72186435D01*
X145010040Y-72186435D01*
X145796000Y-72972395D01*
X146581960Y-72186435D01*
X146514980Y-71946344D01*
X146265952Y-71829244D01*
X145998865Y-71762977D01*
X145723983Y-71750090D01*
X145451867Y-71791078D01*
X145192977Y-71884364D01*
X145077020Y-71946344D01*
X145010040Y-72186435D01*
X140925263Y-72186435D01*
X140934072Y-72097000D01*
X140934072Y-70397000D01*
X140921812Y-70272518D01*
X140885502Y-70152820D01*
X140826537Y-70042506D01*
X140816635Y-70030441D01*
X140925710Y-69921366D01*
X141134189Y-69609356D01*
X141277791Y-69262668D01*
X141351000Y-68894626D01*
X141351000Y-68519374D01*
X141277791Y-68151332D01*
X141265641Y-68122000D01*
X152866359Y-68122000D01*
X152854209Y-68151332D01*
G37*
X152854209Y-68151332D02*
X152781000Y-68519374D01*
X152781000Y-68894626D01*
X152854209Y-69262668D01*
X152997811Y-69609356D01*
X153206290Y-69921366D01*
X153315365Y-70030441D01*
X153305463Y-70042506D01*
X153246498Y-70152820D01*
X153210188Y-70272518D01*
X153197928Y-70397000D01*
X153197928Y-72097000D01*
X153210188Y-72221482D01*
X153246498Y-72341180D01*
X153305463Y-72451494D01*
X153384815Y-72548185D01*
X153481506Y-72627537D01*
X153591820Y-72686502D01*
X153672466Y-72710966D01*
X153588412Y-72786731D01*
X153414359Y-73020080D01*
X153289175Y-73282901D01*
X153244524Y-73430110D01*
X153365845Y-73660000D01*
X154559000Y-73660000D01*
X154559000Y-73640000D01*
X154813000Y-73640000D01*
X154813000Y-73660000D01*
X154833000Y-73660000D01*
X154833000Y-73914000D01*
X154813000Y-73914000D01*
X154813000Y-73934000D01*
X154559000Y-73934000D01*
X154559000Y-73914000D01*
X153365845Y-73914000D01*
X153244524Y-74143890D01*
X153289175Y-74291099D01*
X153414359Y-74553920D01*
X153588412Y-74787269D01*
X153804645Y-74982178D01*
X153921534Y-75051805D01*
X153739368Y-75173525D01*
X153532525Y-75380368D01*
X153409875Y-75563926D01*
X153378667Y-75567000D01*
X153267014Y-75577997D01*
X153123753Y-75621454D01*
X152991724Y-75692026D01*
X152875999Y-75786999D01*
X152852200Y-75815998D01*
X152269998Y-76398201D01*
X152241000Y-76421999D01*
X152217202Y-76450997D01*
X152217201Y-76450998D01*
X152146026Y-76537724D01*
X152075454Y-76669754D01*
X152031998Y-76813015D01*
X152017324Y-76962000D01*
X152021001Y-76999332D01*
X152021000Y-86807198D01*
X146554998Y-92273201D01*
X146526000Y-92296999D01*
X146502202Y-92325997D01*
X146502201Y-92325998D01*
X146431026Y-92412724D01*
X146360454Y-92544754D01*
X146337023Y-92622000D01*
X146316998Y-92688014D01*
X146309272Y-92766454D01*
X146302324Y-92837000D01*
X146306001Y-92874332D01*
X146306001Y-93438076D01*
X146265952Y-93419244D01*
X145998865Y-93352977D01*
X145723983Y-93340090D01*
X145451867Y-93381078D01*
X145192977Y-93474364D01*
X145077020Y-93536344D01*
X145010040Y-93776435D01*
X145796000Y-94562395D01*
X145810143Y-94548253D01*
X145989748Y-94727858D01*
X145975605Y-94742000D01*
X145989748Y-94756143D01*
X145810143Y-94935748D01*
X145796000Y-94921605D01*
X145010040Y-95707565D01*
X145077020Y-95947656D01*
X145207644Y-96009079D01*
X145192977Y-96014364D01*
X145077020Y-96076344D01*
X145010040Y-96316435D01*
X145796000Y-97102395D01*
X145810143Y-97088253D01*
X145989748Y-97267858D01*
X145975605Y-97282000D01*
X145989748Y-97296143D01*
X145810143Y-97475748D01*
X145796000Y-97461605D01*
X145010040Y-98247565D01*
X145077020Y-98487656D01*
X145212760Y-98551485D01*
X145134273Y-98583995D01*
X144905465Y-98736880D01*
X144710880Y-98931465D01*
X144557995Y-99160273D01*
X144452686Y-99414510D01*
X144399000Y-99684408D01*
X144399000Y-99959592D01*
X144452686Y-100229490D01*
X144494894Y-100331388D01*
X144488676Y-100332000D01*
X144488667Y-100332000D01*
X144377014Y-100342997D01*
X144235912Y-100385799D01*
X144233753Y-100386454D01*
X144101723Y-100457026D01*
X144018083Y-100525668D01*
X143985999Y-100551999D01*
X143962201Y-100580997D01*
X141036199Y-103507000D01*
X140724178Y-103507000D01*
X140599475Y-103320368D01*
X140392632Y-103113525D01*
X140218240Y-102997000D01*
X140392632Y-102880475D01*
X140599475Y-102673632D01*
X140761990Y-102430411D01*
X140873932Y-102160158D01*
X140931000Y-101873260D01*
X140931000Y-101580740D01*
X140873932Y-101293842D01*
X140761990Y-101023589D01*
X140599475Y-100780368D01*
X140392632Y-100573525D01*
X140218240Y-100457000D01*
X140392632Y-100340475D01*
X140599475Y-100133632D01*
X140761990Y-99890411D01*
X140873932Y-99620158D01*
X140931000Y-99333260D01*
X140931000Y-99040740D01*
X140873932Y-98753842D01*
X140761990Y-98483589D01*
X140599475Y-98240368D01*
X140392632Y-98033525D01*
X140218240Y-97917000D01*
X140392632Y-97800475D01*
X140599475Y-97593632D01*
X140722125Y-97410073D01*
X140753322Y-97407000D01*
X140753333Y-97407000D01*
X140864986Y-97396003D01*
X141003397Y-97354017D01*
X144394090Y-97354017D01*
X144435078Y-97626133D01*
X144528364Y-97885023D01*
X144590344Y-98000980D01*
X144830435Y-98067960D01*
X145616395Y-97282000D01*
X144830435Y-96496040D01*
X144590344Y-96563020D01*
X144473244Y-96812048D01*
X144406977Y-97079135D01*
X144394090Y-97354017D01*
X141003397Y-97354017D01*
X141008247Y-97352546D01*
X141140276Y-97281974D01*
X141256001Y-97187001D01*
X141279803Y-97157998D01*
X141862002Y-96575800D01*
X141891001Y-96552001D01*
X141985974Y-96436276D01*
X142056546Y-96304247D01*
X142100003Y-96160986D01*
X142111000Y-96049333D01*
X142111000Y-96049332D01*
X142114677Y-96012000D01*
X142111000Y-95974667D01*
X142111000Y-94814017D01*
X144394090Y-94814017D01*
X144435078Y-95086133D01*
X144528364Y-95345023D01*
X144590344Y-95460980D01*
X144830435Y-95527960D01*
X145616395Y-94742000D01*
X144830435Y-93956040D01*
X144590344Y-94023020D01*
X144473244Y-94272048D01*
X144406977Y-94539135D01*
X144394090Y-94814017D01*
X142111000Y-94814017D01*
X142111000Y-93151801D01*
X145545004Y-89717798D01*
X145574002Y-89694000D01*
X145600333Y-89661916D01*
X145668975Y-89578276D01*
X145739547Y-89446246D01*
X145783004Y-89302985D01*
X145794001Y-89191332D01*
X145794001Y-89191322D01*
X145797677Y-89153999D01*
X145794001Y-89116676D01*
X145794001Y-84709000D01*
X145933592Y-84709000D01*
X146203490Y-84655314D01*
X146457727Y-84550005D01*
X146686535Y-84397120D01*
X146881120Y-84202535D01*
X147034005Y-83973727D01*
X147066000Y-83896485D01*
X147097995Y-83973727D01*
X147250880Y-84202535D01*
X147445465Y-84397120D01*
X147674273Y-84550005D01*
X147928510Y-84655314D01*
X148198408Y-84709000D01*
X148473592Y-84709000D01*
X148743490Y-84655314D01*
X148997727Y-84550005D01*
X149226535Y-84397120D01*
X149421120Y-84202535D01*
X149574005Y-83973727D01*
X149679314Y-83719490D01*
X149733000Y-83449592D01*
X149733000Y-83174408D01*
X149679314Y-82904510D01*
X149574005Y-82650273D01*
X149421120Y-82421465D01*
X149226535Y-82226880D01*
X148997727Y-82073995D01*
X148920485Y-82042000D01*
X148997727Y-82010005D01*
X149226535Y-81857120D01*
X149421120Y-81662535D01*
X149574005Y-81433727D01*
X149679314Y-81179490D01*
X149733000Y-80909592D01*
X149733000Y-80634408D01*
X149679314Y-80364510D01*
X149574005Y-80110273D01*
X149421120Y-79881465D01*
X149226535Y-79686880D01*
X148997727Y-79533995D01*
X148920485Y-79502000D01*
X148997727Y-79470005D01*
X149226535Y-79317120D01*
X149421120Y-79122535D01*
X149574005Y-78893727D01*
X149679314Y-78639490D01*
X149733000Y-78369592D01*
X149733000Y-78094408D01*
X149679314Y-77824510D01*
X149574005Y-77570273D01*
X149421120Y-77341465D01*
X149226535Y-77146880D01*
X148997727Y-76993995D01*
X148920485Y-76962000D01*
X148997727Y-76930005D01*
X149226535Y-76777120D01*
X149421120Y-76582535D01*
X149574005Y-76353727D01*
X149679314Y-76099490D01*
X149733000Y-75829592D01*
X149733000Y-75554408D01*
X149679314Y-75284510D01*
X149574005Y-75030273D01*
X149421120Y-74801465D01*
X149226535Y-74606880D01*
X148997727Y-74453995D01*
X148920485Y-74422000D01*
X148997727Y-74390005D01*
X149226535Y-74237120D01*
X149421120Y-74042535D01*
X149574005Y-73813727D01*
X149679314Y-73559490D01*
X149733000Y-73289592D01*
X149733000Y-73014408D01*
X149679314Y-72744510D01*
X149574005Y-72490273D01*
X149421120Y-72261465D01*
X149226535Y-72066880D01*
X148997727Y-71913995D01*
X148743490Y-71808686D01*
X148473592Y-71755000D01*
X148198408Y-71755000D01*
X147928510Y-71808686D01*
X147674273Y-71913995D01*
X147445465Y-72066880D01*
X147250880Y-72261465D01*
X147097995Y-72490273D01*
X147068308Y-72561943D01*
X147063636Y-72548977D01*
X147001656Y-72433020D01*
X146761565Y-72366040D01*
X145975605Y-73152000D01*
X146761565Y-73937960D01*
X147001656Y-73870980D01*
X147065485Y-73735240D01*
X147097995Y-73813727D01*
X147250880Y-74042535D01*
X147445465Y-74237120D01*
X147674273Y-74390005D01*
X147751515Y-74422000D01*
X147674273Y-74453995D01*
X147445465Y-74606880D01*
X147250880Y-74801465D01*
X147097995Y-75030273D01*
X147066000Y-75107515D01*
X147034005Y-75030273D01*
X146881120Y-74801465D01*
X146686535Y-74606880D01*
X146457727Y-74453995D01*
X146386057Y-74424308D01*
X146399023Y-74419636D01*
X146514980Y-74357656D01*
X146581960Y-74117565D01*
X145796000Y-73331605D01*
X145010040Y-74117565D01*
X145077020Y-74357656D01*
X145212760Y-74421485D01*
X145134273Y-74453995D01*
X144905465Y-74606880D01*
X144710880Y-74801465D01*
X144619617Y-74938049D01*
X144569384Y-74942997D01*
X144426123Y-74986454D01*
X144294094Y-75057026D01*
X144294092Y-75057027D01*
X144294093Y-75057027D01*
X144207366Y-75128201D01*
X144207362Y-75128205D01*
X144178369Y-75151999D01*
X144154575Y-75180992D01*
X142745002Y-76590567D01*
X142715999Y-76614369D01*
X142670547Y-76669753D01*
X142621026Y-76730094D01*
X142564952Y-76835000D01*
X142550454Y-76862124D01*
X142506997Y-77005385D01*
X142496000Y-77117038D01*
X142496000Y-77117048D01*
X142492324Y-77154370D01*
X142496000Y-77191693D01*
X142496001Y-79822197D01*
X141671199Y-80647000D01*
X140724178Y-80647000D01*
X140599475Y-80460368D01*
X140392632Y-80253525D01*
X140210466Y-80131805D01*
X140327355Y-80062178D01*
X140543588Y-79867269D01*
X140717641Y-79633920D01*
X140842825Y-79371099D01*
X140887476Y-79223890D01*
X140766155Y-78994000D01*
X139573000Y-78994000D01*
X139573000Y-79014000D01*
X139319000Y-79014000D01*
X139319000Y-78994000D01*
X139299000Y-78994000D01*
X139299000Y-78740000D01*
X139319000Y-78740000D01*
X139319000Y-78720000D01*
X139573000Y-78720000D01*
X139573000Y-78740000D01*
X140766155Y-78740000D01*
X140887476Y-78510110D01*
X140842825Y-78362901D01*
X140717641Y-78100080D01*
X140543588Y-77866731D01*
X140327355Y-77671822D01*
X140210466Y-77602195D01*
X140392632Y-77480475D01*
X140599475Y-77273632D01*
X140761990Y-77030411D01*
X140873932Y-76760158D01*
X140931000Y-76473260D01*
X140931000Y-76180740D01*
X140873932Y-75893842D01*
X140761990Y-75623589D01*
X140599475Y-75380368D01*
X140392632Y-75173525D01*
X140218240Y-75057000D01*
X140392632Y-74940475D01*
X140599475Y-74733632D01*
X140761990Y-74490411D01*
X140873932Y-74220158D01*
X140931000Y-73933260D01*
X140931000Y-73640740D01*
X140873932Y-73353842D01*
X140820157Y-73224017D01*
X144394090Y-73224017D01*
X144435078Y-73496133D01*
X144528364Y-73755023D01*
X144590344Y-73870980D01*
X144830435Y-73937960D01*
X145616395Y-73152000D01*
X144830435Y-72366040D01*
X144590344Y-72433020D01*
X144473244Y-72682048D01*
X144406977Y-72949135D01*
X144394090Y-73224017D01*
X140820157Y-73224017D01*
X140761990Y-73083589D01*
X140599475Y-72840368D01*
X140467620Y-72708513D01*
X140540180Y-72686502D01*
X140650494Y-72627537D01*
X140747185Y-72548185D01*
X140826537Y-72451494D01*
X140885502Y-72341180D01*
X140921812Y-72221482D01*
X140925263Y-72186435D01*
X145010040Y-72186435D01*
X145796000Y-72972395D01*
X146581960Y-72186435D01*
X146514980Y-71946344D01*
X146265952Y-71829244D01*
X145998865Y-71762977D01*
X145723983Y-71750090D01*
X145451867Y-71791078D01*
X145192977Y-71884364D01*
X145077020Y-71946344D01*
X145010040Y-72186435D01*
X140925263Y-72186435D01*
X140934072Y-72097000D01*
X140934072Y-70397000D01*
X140921812Y-70272518D01*
X140885502Y-70152820D01*
X140826537Y-70042506D01*
X140816635Y-70030441D01*
X140925710Y-69921366D01*
X141134189Y-69609356D01*
X141277791Y-69262668D01*
X141351000Y-68894626D01*
X141351000Y-68519374D01*
X141277791Y-68151332D01*
X141265641Y-68122000D01*
X152866359Y-68122000D01*
X152854209Y-68151332D01*
M02*
