G04 #@! TF.GenerationSoftware,KiCad,Pcbnew,(5.1.5)-3*
G04 #@! TF.CreationDate,2020-04-07T10:53:57-04:00*
G04 #@! TF.ProjectId,Nano_Adapter,4e616e6f-5f41-4646-9170-7465722e6b69,rev?*
G04 #@! TF.SameCoordinates,Original*
G04 #@! TF.FileFunction,Soldermask,Bot*
G04 #@! TF.FilePolarity,Negative*
%FSLAX46Y46*%
G04 Gerber Fmt 4.6, Leading zero omitted, Abs format (unit mm)*
G04 Created by KiCad (PCBNEW (5.1.5)-3) date 2020-04-07 10:53:57*
%MOMM*%
%LPD*%
G04 APERTURE LIST*
%ADD10C,1.524000*%
%ADD11O,1.700000X1.700000*%
%ADD12R,1.700000X1.700000*%
%ADD13C,2.540000*%
G04 APERTURE END LIST*
D10*
X148336000Y-94742000D03*
X145796000Y-94742000D03*
X148336000Y-97282000D03*
X145796000Y-97282000D03*
X148336000Y-99822000D03*
X145796000Y-99822000D03*
X148336000Y-102362000D03*
X145796000Y-102362000D03*
X148336000Y-104902000D03*
X145796000Y-104902000D03*
D11*
X154686000Y-106807000D03*
X154686000Y-104267000D03*
X154686000Y-101727000D03*
X154686000Y-99187000D03*
X154686000Y-96647000D03*
X154686000Y-94107000D03*
X154686000Y-91567000D03*
X154686000Y-89027000D03*
X154686000Y-86487000D03*
X154686000Y-83947000D03*
X154686000Y-81407000D03*
X154686000Y-78867000D03*
X154686000Y-76327000D03*
X154686000Y-73787000D03*
D12*
X154686000Y-71247000D03*
D11*
X139446000Y-106807000D03*
X139446000Y-104267000D03*
X139446000Y-101727000D03*
X139446000Y-99187000D03*
X139446000Y-96647000D03*
X139446000Y-94107000D03*
X139446000Y-91567000D03*
X139446000Y-89027000D03*
X139446000Y-86487000D03*
X139446000Y-83947000D03*
X139446000Y-81407000D03*
X139446000Y-78867000D03*
X139446000Y-76327000D03*
X139446000Y-73787000D03*
D12*
X139446000Y-71247000D03*
D10*
X148336000Y-73152000D03*
X145796000Y-73152000D03*
X148336000Y-75692000D03*
X145796000Y-75692000D03*
X148336000Y-78232000D03*
X145796000Y-78232000D03*
X148336000Y-80772000D03*
X145796000Y-80772000D03*
X148336000Y-83312000D03*
X145796000Y-83312000D03*
D13*
X139446000Y-68707000D03*
X139446000Y-109347000D03*
X154686000Y-109347000D03*
X154686000Y-68707000D03*
M02*
