G04 #@! TF.GenerationSoftware,KiCad,Pcbnew,(5.1.5)-3*
G04 #@! TF.CreationDate,2020-12-14T20:28:06-05:00*
G04 #@! TF.ProjectId,V0_Display,56305f44-6973-4706-9c61-792e6b696361,rev?*
G04 #@! TF.SameCoordinates,Original*
G04 #@! TF.FileFunction,Copper,L2,Bot*
G04 #@! TF.FilePolarity,Positive*
%FSLAX46Y46*%
G04 Gerber Fmt 4.6, Leading zero omitted, Abs format (unit mm)*
G04 Created by KiCad (PCBNEW (5.1.5)-3) date 2020-12-14 20:28:06*
%MOMM*%
%LPD*%
G04 APERTURE LIST*
%ADD10C,0.100000*%
%ADD11C,1.524000*%
%ADD12R,0.740000X2.400000*%
%ADD13O,2.500000X4.000000*%
%ADD14C,2.000000*%
%ADD15R,1.050000X0.600000*%
%ADD16R,1.450000X0.450000*%
%ADD17R,0.650000X1.060000*%
%ADD18R,1.000000X1.500000*%
%ADD19O,1.700000X1.700000*%
%ADD20R,1.700000X1.700000*%
%ADD21O,1.100000X2.200000*%
%ADD22O,1.100000X2.000000*%
%ADD23R,1.900000X1.200000*%
%ADD24O,1.900000X1.200000*%
%ADD25R,1.900000X1.500000*%
%ADD26R,1.350000X0.400000*%
%ADD27C,0.800000*%
%ADD28C,0.250000*%
%ADD29C,0.400000*%
%ADD30C,0.200000*%
%ADD31C,0.254000*%
G04 APERTURE END LIST*
D10*
G36*
X102050000Y-55030000D02*
G01*
X102550000Y-55030000D01*
X102550000Y-54430000D01*
X102050000Y-54430000D01*
X102050000Y-55030000D01*
G37*
G36*
X103850000Y-56970000D02*
G01*
X103350000Y-56970000D01*
X103350000Y-57570000D01*
X103850000Y-57570000D01*
X103850000Y-56970000D01*
G37*
D11*
X117280000Y-52850000D03*
X114740000Y-52850000D03*
X112200000Y-52850000D03*
X109660000Y-52850000D03*
D12*
X105030000Y-76950000D03*
X105030000Y-80850000D03*
X106300000Y-76950000D03*
X106300000Y-80850000D03*
X107570000Y-76950000D03*
X107570000Y-80850000D03*
X108840000Y-76950000D03*
X108840000Y-80850000D03*
X110110000Y-76950000D03*
X110110000Y-80850000D03*
D13*
X149500000Y-67150000D03*
X139340000Y-67150000D03*
D14*
X146920000Y-60150000D03*
X141920000Y-60150000D03*
X146920000Y-74650000D03*
X144420000Y-74650000D03*
X141920000Y-74650000D03*
D15*
X151892000Y-55850000D03*
X151892000Y-54900000D03*
X151892000Y-53950000D03*
X154592000Y-53950000D03*
X154592000Y-55850000D03*
D16*
X110520000Y-58815000D03*
X110520000Y-59465000D03*
X110520000Y-60115000D03*
X110520000Y-60765000D03*
X110520000Y-61415000D03*
X110520000Y-62065000D03*
X110520000Y-62715000D03*
X110520000Y-63365000D03*
X110520000Y-64015000D03*
X110520000Y-64665000D03*
X116420000Y-64665000D03*
X116420000Y-64015000D03*
X116420000Y-63365000D03*
X116420000Y-62715000D03*
X116420000Y-62065000D03*
X116420000Y-61415000D03*
X116420000Y-60765000D03*
X116420000Y-60115000D03*
X116420000Y-59465000D03*
X116420000Y-58815000D03*
D17*
X98825000Y-78055000D03*
X100725000Y-78055000D03*
X100725000Y-75855000D03*
X99775000Y-75855000D03*
X98825000Y-75855000D03*
D14*
X163170000Y-69900000D03*
X163170000Y-74400000D03*
X156670000Y-69900000D03*
X156670000Y-74400000D03*
X122475000Y-73145000D03*
X122475000Y-77645000D03*
X128975000Y-73145000D03*
X128975000Y-77645000D03*
G04 #@! TA.AperFunction,SMDPad,CuDef*
D10*
G36*
X115970142Y-77738674D02*
G01*
X115993803Y-77742184D01*
X116017007Y-77747996D01*
X116039529Y-77756054D01*
X116061153Y-77766282D01*
X116081670Y-77778579D01*
X116100883Y-77792829D01*
X116118607Y-77808893D01*
X116134671Y-77826617D01*
X116148921Y-77845830D01*
X116161218Y-77866347D01*
X116171446Y-77887971D01*
X116179504Y-77910493D01*
X116185316Y-77933697D01*
X116188826Y-77957358D01*
X116190000Y-77981250D01*
X116190000Y-78468750D01*
X116188826Y-78492642D01*
X116185316Y-78516303D01*
X116179504Y-78539507D01*
X116171446Y-78562029D01*
X116161218Y-78583653D01*
X116148921Y-78604170D01*
X116134671Y-78623383D01*
X116118607Y-78641107D01*
X116100883Y-78657171D01*
X116081670Y-78671421D01*
X116061153Y-78683718D01*
X116039529Y-78693946D01*
X116017007Y-78702004D01*
X115993803Y-78707816D01*
X115970142Y-78711326D01*
X115946250Y-78712500D01*
X115033750Y-78712500D01*
X115009858Y-78711326D01*
X114986197Y-78707816D01*
X114962993Y-78702004D01*
X114940471Y-78693946D01*
X114918847Y-78683718D01*
X114898330Y-78671421D01*
X114879117Y-78657171D01*
X114861393Y-78641107D01*
X114845329Y-78623383D01*
X114831079Y-78604170D01*
X114818782Y-78583653D01*
X114808554Y-78562029D01*
X114800496Y-78539507D01*
X114794684Y-78516303D01*
X114791174Y-78492642D01*
X114790000Y-78468750D01*
X114790000Y-77981250D01*
X114791174Y-77957358D01*
X114794684Y-77933697D01*
X114800496Y-77910493D01*
X114808554Y-77887971D01*
X114818782Y-77866347D01*
X114831079Y-77845830D01*
X114845329Y-77826617D01*
X114861393Y-77808893D01*
X114879117Y-77792829D01*
X114898330Y-77778579D01*
X114918847Y-77766282D01*
X114940471Y-77756054D01*
X114962993Y-77747996D01*
X114986197Y-77742184D01*
X115009858Y-77738674D01*
X115033750Y-77737500D01*
X115946250Y-77737500D01*
X115970142Y-77738674D01*
G37*
G04 #@! TD.AperFunction*
G04 #@! TA.AperFunction,SMDPad,CuDef*
G36*
X115970142Y-79613674D02*
G01*
X115993803Y-79617184D01*
X116017007Y-79622996D01*
X116039529Y-79631054D01*
X116061153Y-79641282D01*
X116081670Y-79653579D01*
X116100883Y-79667829D01*
X116118607Y-79683893D01*
X116134671Y-79701617D01*
X116148921Y-79720830D01*
X116161218Y-79741347D01*
X116171446Y-79762971D01*
X116179504Y-79785493D01*
X116185316Y-79808697D01*
X116188826Y-79832358D01*
X116190000Y-79856250D01*
X116190000Y-80343750D01*
X116188826Y-80367642D01*
X116185316Y-80391303D01*
X116179504Y-80414507D01*
X116171446Y-80437029D01*
X116161218Y-80458653D01*
X116148921Y-80479170D01*
X116134671Y-80498383D01*
X116118607Y-80516107D01*
X116100883Y-80532171D01*
X116081670Y-80546421D01*
X116061153Y-80558718D01*
X116039529Y-80568946D01*
X116017007Y-80577004D01*
X115993803Y-80582816D01*
X115970142Y-80586326D01*
X115946250Y-80587500D01*
X115033750Y-80587500D01*
X115009858Y-80586326D01*
X114986197Y-80582816D01*
X114962993Y-80577004D01*
X114940471Y-80568946D01*
X114918847Y-80558718D01*
X114898330Y-80546421D01*
X114879117Y-80532171D01*
X114861393Y-80516107D01*
X114845329Y-80498383D01*
X114831079Y-80479170D01*
X114818782Y-80458653D01*
X114808554Y-80437029D01*
X114800496Y-80414507D01*
X114794684Y-80391303D01*
X114791174Y-80367642D01*
X114790000Y-80343750D01*
X114790000Y-79856250D01*
X114791174Y-79832358D01*
X114794684Y-79808697D01*
X114800496Y-79785493D01*
X114808554Y-79762971D01*
X114818782Y-79741347D01*
X114831079Y-79720830D01*
X114845329Y-79701617D01*
X114861393Y-79683893D01*
X114879117Y-79667829D01*
X114898330Y-79653579D01*
X114918847Y-79641282D01*
X114940471Y-79631054D01*
X114962993Y-79622996D01*
X114986197Y-79617184D01*
X115009858Y-79613674D01*
X115033750Y-79612500D01*
X115946250Y-79612500D01*
X115970142Y-79613674D01*
G37*
G04 #@! TD.AperFunction*
G04 #@! TA.AperFunction,SMDPad,CuDef*
G36*
X125597142Y-57739174D02*
G01*
X125620803Y-57742684D01*
X125644007Y-57748496D01*
X125666529Y-57756554D01*
X125688153Y-57766782D01*
X125708670Y-57779079D01*
X125727883Y-57793329D01*
X125745607Y-57809393D01*
X125761671Y-57827117D01*
X125775921Y-57846330D01*
X125788218Y-57866847D01*
X125798446Y-57888471D01*
X125806504Y-57910993D01*
X125812316Y-57934197D01*
X125815826Y-57957858D01*
X125817000Y-57981750D01*
X125817000Y-58894250D01*
X125815826Y-58918142D01*
X125812316Y-58941803D01*
X125806504Y-58965007D01*
X125798446Y-58987529D01*
X125788218Y-59009153D01*
X125775921Y-59029670D01*
X125761671Y-59048883D01*
X125745607Y-59066607D01*
X125727883Y-59082671D01*
X125708670Y-59096921D01*
X125688153Y-59109218D01*
X125666529Y-59119446D01*
X125644007Y-59127504D01*
X125620803Y-59133316D01*
X125597142Y-59136826D01*
X125573250Y-59138000D01*
X125085750Y-59138000D01*
X125061858Y-59136826D01*
X125038197Y-59133316D01*
X125014993Y-59127504D01*
X124992471Y-59119446D01*
X124970847Y-59109218D01*
X124950330Y-59096921D01*
X124931117Y-59082671D01*
X124913393Y-59066607D01*
X124897329Y-59048883D01*
X124883079Y-59029670D01*
X124870782Y-59009153D01*
X124860554Y-58987529D01*
X124852496Y-58965007D01*
X124846684Y-58941803D01*
X124843174Y-58918142D01*
X124842000Y-58894250D01*
X124842000Y-57981750D01*
X124843174Y-57957858D01*
X124846684Y-57934197D01*
X124852496Y-57910993D01*
X124860554Y-57888471D01*
X124870782Y-57866847D01*
X124883079Y-57846330D01*
X124897329Y-57827117D01*
X124913393Y-57809393D01*
X124931117Y-57793329D01*
X124950330Y-57779079D01*
X124970847Y-57766782D01*
X124992471Y-57756554D01*
X125014993Y-57748496D01*
X125038197Y-57742684D01*
X125061858Y-57739174D01*
X125085750Y-57738000D01*
X125573250Y-57738000D01*
X125597142Y-57739174D01*
G37*
G04 #@! TD.AperFunction*
G04 #@! TA.AperFunction,SMDPad,CuDef*
G36*
X123722142Y-57739174D02*
G01*
X123745803Y-57742684D01*
X123769007Y-57748496D01*
X123791529Y-57756554D01*
X123813153Y-57766782D01*
X123833670Y-57779079D01*
X123852883Y-57793329D01*
X123870607Y-57809393D01*
X123886671Y-57827117D01*
X123900921Y-57846330D01*
X123913218Y-57866847D01*
X123923446Y-57888471D01*
X123931504Y-57910993D01*
X123937316Y-57934197D01*
X123940826Y-57957858D01*
X123942000Y-57981750D01*
X123942000Y-58894250D01*
X123940826Y-58918142D01*
X123937316Y-58941803D01*
X123931504Y-58965007D01*
X123923446Y-58987529D01*
X123913218Y-59009153D01*
X123900921Y-59029670D01*
X123886671Y-59048883D01*
X123870607Y-59066607D01*
X123852883Y-59082671D01*
X123833670Y-59096921D01*
X123813153Y-59109218D01*
X123791529Y-59119446D01*
X123769007Y-59127504D01*
X123745803Y-59133316D01*
X123722142Y-59136826D01*
X123698250Y-59138000D01*
X123210750Y-59138000D01*
X123186858Y-59136826D01*
X123163197Y-59133316D01*
X123139993Y-59127504D01*
X123117471Y-59119446D01*
X123095847Y-59109218D01*
X123075330Y-59096921D01*
X123056117Y-59082671D01*
X123038393Y-59066607D01*
X123022329Y-59048883D01*
X123008079Y-59029670D01*
X122995782Y-59009153D01*
X122985554Y-58987529D01*
X122977496Y-58965007D01*
X122971684Y-58941803D01*
X122968174Y-58918142D01*
X122967000Y-58894250D01*
X122967000Y-57981750D01*
X122968174Y-57957858D01*
X122971684Y-57934197D01*
X122977496Y-57910993D01*
X122985554Y-57888471D01*
X122995782Y-57866847D01*
X123008079Y-57846330D01*
X123022329Y-57827117D01*
X123038393Y-57809393D01*
X123056117Y-57793329D01*
X123075330Y-57779079D01*
X123095847Y-57766782D01*
X123117471Y-57756554D01*
X123139993Y-57748496D01*
X123163197Y-57742684D01*
X123186858Y-57739174D01*
X123210750Y-57738000D01*
X123698250Y-57738000D01*
X123722142Y-57739174D01*
G37*
G04 #@! TD.AperFunction*
G04 #@! TA.AperFunction,SMDPad,CuDef*
G36*
X118510142Y-77738674D02*
G01*
X118533803Y-77742184D01*
X118557007Y-77747996D01*
X118579529Y-77756054D01*
X118601153Y-77766282D01*
X118621670Y-77778579D01*
X118640883Y-77792829D01*
X118658607Y-77808893D01*
X118674671Y-77826617D01*
X118688921Y-77845830D01*
X118701218Y-77866347D01*
X118711446Y-77887971D01*
X118719504Y-77910493D01*
X118725316Y-77933697D01*
X118728826Y-77957358D01*
X118730000Y-77981250D01*
X118730000Y-78468750D01*
X118728826Y-78492642D01*
X118725316Y-78516303D01*
X118719504Y-78539507D01*
X118711446Y-78562029D01*
X118701218Y-78583653D01*
X118688921Y-78604170D01*
X118674671Y-78623383D01*
X118658607Y-78641107D01*
X118640883Y-78657171D01*
X118621670Y-78671421D01*
X118601153Y-78683718D01*
X118579529Y-78693946D01*
X118557007Y-78702004D01*
X118533803Y-78707816D01*
X118510142Y-78711326D01*
X118486250Y-78712500D01*
X117573750Y-78712500D01*
X117549858Y-78711326D01*
X117526197Y-78707816D01*
X117502993Y-78702004D01*
X117480471Y-78693946D01*
X117458847Y-78683718D01*
X117438330Y-78671421D01*
X117419117Y-78657171D01*
X117401393Y-78641107D01*
X117385329Y-78623383D01*
X117371079Y-78604170D01*
X117358782Y-78583653D01*
X117348554Y-78562029D01*
X117340496Y-78539507D01*
X117334684Y-78516303D01*
X117331174Y-78492642D01*
X117330000Y-78468750D01*
X117330000Y-77981250D01*
X117331174Y-77957358D01*
X117334684Y-77933697D01*
X117340496Y-77910493D01*
X117348554Y-77887971D01*
X117358782Y-77866347D01*
X117371079Y-77845830D01*
X117385329Y-77826617D01*
X117401393Y-77808893D01*
X117419117Y-77792829D01*
X117438330Y-77778579D01*
X117458847Y-77766282D01*
X117480471Y-77756054D01*
X117502993Y-77747996D01*
X117526197Y-77742184D01*
X117549858Y-77738674D01*
X117573750Y-77737500D01*
X118486250Y-77737500D01*
X118510142Y-77738674D01*
G37*
G04 #@! TD.AperFunction*
G04 #@! TA.AperFunction,SMDPad,CuDef*
G36*
X118510142Y-79613674D02*
G01*
X118533803Y-79617184D01*
X118557007Y-79622996D01*
X118579529Y-79631054D01*
X118601153Y-79641282D01*
X118621670Y-79653579D01*
X118640883Y-79667829D01*
X118658607Y-79683893D01*
X118674671Y-79701617D01*
X118688921Y-79720830D01*
X118701218Y-79741347D01*
X118711446Y-79762971D01*
X118719504Y-79785493D01*
X118725316Y-79808697D01*
X118728826Y-79832358D01*
X118730000Y-79856250D01*
X118730000Y-80343750D01*
X118728826Y-80367642D01*
X118725316Y-80391303D01*
X118719504Y-80414507D01*
X118711446Y-80437029D01*
X118701218Y-80458653D01*
X118688921Y-80479170D01*
X118674671Y-80498383D01*
X118658607Y-80516107D01*
X118640883Y-80532171D01*
X118621670Y-80546421D01*
X118601153Y-80558718D01*
X118579529Y-80568946D01*
X118557007Y-80577004D01*
X118533803Y-80582816D01*
X118510142Y-80586326D01*
X118486250Y-80587500D01*
X117573750Y-80587500D01*
X117549858Y-80586326D01*
X117526197Y-80582816D01*
X117502993Y-80577004D01*
X117480471Y-80568946D01*
X117458847Y-80558718D01*
X117438330Y-80546421D01*
X117419117Y-80532171D01*
X117401393Y-80516107D01*
X117385329Y-80498383D01*
X117371079Y-80479170D01*
X117358782Y-80458653D01*
X117348554Y-80437029D01*
X117340496Y-80414507D01*
X117334684Y-80391303D01*
X117331174Y-80367642D01*
X117330000Y-80343750D01*
X117330000Y-79856250D01*
X117331174Y-79832358D01*
X117334684Y-79808697D01*
X117340496Y-79785493D01*
X117348554Y-79762971D01*
X117358782Y-79741347D01*
X117371079Y-79720830D01*
X117385329Y-79701617D01*
X117401393Y-79683893D01*
X117419117Y-79667829D01*
X117438330Y-79653579D01*
X117458847Y-79641282D01*
X117480471Y-79631054D01*
X117502993Y-79622996D01*
X117526197Y-79617184D01*
X117549858Y-79613674D01*
X117573750Y-79612500D01*
X118486250Y-79612500D01*
X118510142Y-79613674D01*
G37*
G04 #@! TD.AperFunction*
D18*
X102950000Y-54730000D03*
X104250000Y-54730000D03*
X101650000Y-54730000D03*
X102950000Y-57270000D03*
X101650000Y-57270000D03*
X104250000Y-57270000D03*
D19*
X150575000Y-60445000D03*
D20*
X153115000Y-60445000D03*
D19*
X94670000Y-63340000D03*
X94670000Y-65880000D03*
X94670000Y-68420000D03*
D20*
X94670000Y-70960000D03*
D19*
X123110000Y-55365000D03*
D20*
X125650000Y-55365000D03*
D19*
X118030000Y-75050000D03*
X115490000Y-75050000D03*
D20*
X112950000Y-75050000D03*
D21*
X87350500Y-67150000D03*
D22*
X89382500Y-69944000D03*
D23*
X86682500Y-70050000D03*
X86682500Y-64250000D03*
D24*
X86682500Y-63650000D03*
X86682500Y-70650000D03*
D25*
X86682500Y-68150000D03*
D22*
X89382500Y-64356000D03*
D26*
X89382500Y-67150000D03*
X89382500Y-66500000D03*
X89382500Y-65850000D03*
X89382500Y-68450000D03*
X89382500Y-67800000D03*
D25*
X86682500Y-66150000D03*
D19*
X99090000Y-68650000D03*
X101630000Y-68650000D03*
D20*
X104170000Y-68650000D03*
G04 #@! TA.AperFunction,SMDPad,CuDef*
D10*
G36*
X122375142Y-60701174D02*
G01*
X122398803Y-60704684D01*
X122422007Y-60710496D01*
X122444529Y-60718554D01*
X122466153Y-60728782D01*
X122486670Y-60741079D01*
X122505883Y-60755329D01*
X122523607Y-60771393D01*
X122539671Y-60789117D01*
X122553921Y-60808330D01*
X122566218Y-60828847D01*
X122576446Y-60850471D01*
X122584504Y-60872993D01*
X122590316Y-60896197D01*
X122593826Y-60919858D01*
X122595000Y-60943750D01*
X122595000Y-61856250D01*
X122593826Y-61880142D01*
X122590316Y-61903803D01*
X122584504Y-61927007D01*
X122576446Y-61949529D01*
X122566218Y-61971153D01*
X122553921Y-61991670D01*
X122539671Y-62010883D01*
X122523607Y-62028607D01*
X122505883Y-62044671D01*
X122486670Y-62058921D01*
X122466153Y-62071218D01*
X122444529Y-62081446D01*
X122422007Y-62089504D01*
X122398803Y-62095316D01*
X122375142Y-62098826D01*
X122351250Y-62100000D01*
X121863750Y-62100000D01*
X121839858Y-62098826D01*
X121816197Y-62095316D01*
X121792993Y-62089504D01*
X121770471Y-62081446D01*
X121748847Y-62071218D01*
X121728330Y-62058921D01*
X121709117Y-62044671D01*
X121691393Y-62028607D01*
X121675329Y-62010883D01*
X121661079Y-61991670D01*
X121648782Y-61971153D01*
X121638554Y-61949529D01*
X121630496Y-61927007D01*
X121624684Y-61903803D01*
X121621174Y-61880142D01*
X121620000Y-61856250D01*
X121620000Y-60943750D01*
X121621174Y-60919858D01*
X121624684Y-60896197D01*
X121630496Y-60872993D01*
X121638554Y-60850471D01*
X121648782Y-60828847D01*
X121661079Y-60808330D01*
X121675329Y-60789117D01*
X121691393Y-60771393D01*
X121709117Y-60755329D01*
X121728330Y-60741079D01*
X121748847Y-60728782D01*
X121770471Y-60718554D01*
X121792993Y-60710496D01*
X121816197Y-60704684D01*
X121839858Y-60701174D01*
X121863750Y-60700000D01*
X122351250Y-60700000D01*
X122375142Y-60701174D01*
G37*
G04 #@! TD.AperFunction*
G04 #@! TA.AperFunction,SMDPad,CuDef*
G36*
X120500142Y-60701174D02*
G01*
X120523803Y-60704684D01*
X120547007Y-60710496D01*
X120569529Y-60718554D01*
X120591153Y-60728782D01*
X120611670Y-60741079D01*
X120630883Y-60755329D01*
X120648607Y-60771393D01*
X120664671Y-60789117D01*
X120678921Y-60808330D01*
X120691218Y-60828847D01*
X120701446Y-60850471D01*
X120709504Y-60872993D01*
X120715316Y-60896197D01*
X120718826Y-60919858D01*
X120720000Y-60943750D01*
X120720000Y-61856250D01*
X120718826Y-61880142D01*
X120715316Y-61903803D01*
X120709504Y-61927007D01*
X120701446Y-61949529D01*
X120691218Y-61971153D01*
X120678921Y-61991670D01*
X120664671Y-62010883D01*
X120648607Y-62028607D01*
X120630883Y-62044671D01*
X120611670Y-62058921D01*
X120591153Y-62071218D01*
X120569529Y-62081446D01*
X120547007Y-62089504D01*
X120523803Y-62095316D01*
X120500142Y-62098826D01*
X120476250Y-62100000D01*
X119988750Y-62100000D01*
X119964858Y-62098826D01*
X119941197Y-62095316D01*
X119917993Y-62089504D01*
X119895471Y-62081446D01*
X119873847Y-62071218D01*
X119853330Y-62058921D01*
X119834117Y-62044671D01*
X119816393Y-62028607D01*
X119800329Y-62010883D01*
X119786079Y-61991670D01*
X119773782Y-61971153D01*
X119763554Y-61949529D01*
X119755496Y-61927007D01*
X119749684Y-61903803D01*
X119746174Y-61880142D01*
X119745000Y-61856250D01*
X119745000Y-60943750D01*
X119746174Y-60919858D01*
X119749684Y-60896197D01*
X119755496Y-60872993D01*
X119763554Y-60850471D01*
X119773782Y-60828847D01*
X119786079Y-60808330D01*
X119800329Y-60789117D01*
X119816393Y-60771393D01*
X119834117Y-60755329D01*
X119853330Y-60741079D01*
X119873847Y-60728782D01*
X119895471Y-60718554D01*
X119917993Y-60710496D01*
X119941197Y-60704684D01*
X119964858Y-60701174D01*
X119988750Y-60700000D01*
X120476250Y-60700000D01*
X120500142Y-60701174D01*
G37*
G04 #@! TD.AperFunction*
G04 #@! TA.AperFunction,SMDPad,CuDef*
G36*
X107850142Y-61228674D02*
G01*
X107873803Y-61232184D01*
X107897007Y-61237996D01*
X107919529Y-61246054D01*
X107941153Y-61256282D01*
X107961670Y-61268579D01*
X107980883Y-61282829D01*
X107998607Y-61298893D01*
X108014671Y-61316617D01*
X108028921Y-61335830D01*
X108041218Y-61356347D01*
X108051446Y-61377971D01*
X108059504Y-61400493D01*
X108065316Y-61423697D01*
X108068826Y-61447358D01*
X108070000Y-61471250D01*
X108070000Y-61958750D01*
X108068826Y-61982642D01*
X108065316Y-62006303D01*
X108059504Y-62029507D01*
X108051446Y-62052029D01*
X108041218Y-62073653D01*
X108028921Y-62094170D01*
X108014671Y-62113383D01*
X107998607Y-62131107D01*
X107980883Y-62147171D01*
X107961670Y-62161421D01*
X107941153Y-62173718D01*
X107919529Y-62183946D01*
X107897007Y-62192004D01*
X107873803Y-62197816D01*
X107850142Y-62201326D01*
X107826250Y-62202500D01*
X106913750Y-62202500D01*
X106889858Y-62201326D01*
X106866197Y-62197816D01*
X106842993Y-62192004D01*
X106820471Y-62183946D01*
X106798847Y-62173718D01*
X106778330Y-62161421D01*
X106759117Y-62147171D01*
X106741393Y-62131107D01*
X106725329Y-62113383D01*
X106711079Y-62094170D01*
X106698782Y-62073653D01*
X106688554Y-62052029D01*
X106680496Y-62029507D01*
X106674684Y-62006303D01*
X106671174Y-61982642D01*
X106670000Y-61958750D01*
X106670000Y-61471250D01*
X106671174Y-61447358D01*
X106674684Y-61423697D01*
X106680496Y-61400493D01*
X106688554Y-61377971D01*
X106698782Y-61356347D01*
X106711079Y-61335830D01*
X106725329Y-61316617D01*
X106741393Y-61298893D01*
X106759117Y-61282829D01*
X106778330Y-61268579D01*
X106798847Y-61256282D01*
X106820471Y-61246054D01*
X106842993Y-61237996D01*
X106866197Y-61232184D01*
X106889858Y-61228674D01*
X106913750Y-61227500D01*
X107826250Y-61227500D01*
X107850142Y-61228674D01*
G37*
G04 #@! TD.AperFunction*
G04 #@! TA.AperFunction,SMDPad,CuDef*
G36*
X107850142Y-63103674D02*
G01*
X107873803Y-63107184D01*
X107897007Y-63112996D01*
X107919529Y-63121054D01*
X107941153Y-63131282D01*
X107961670Y-63143579D01*
X107980883Y-63157829D01*
X107998607Y-63173893D01*
X108014671Y-63191617D01*
X108028921Y-63210830D01*
X108041218Y-63231347D01*
X108051446Y-63252971D01*
X108059504Y-63275493D01*
X108065316Y-63298697D01*
X108068826Y-63322358D01*
X108070000Y-63346250D01*
X108070000Y-63833750D01*
X108068826Y-63857642D01*
X108065316Y-63881303D01*
X108059504Y-63904507D01*
X108051446Y-63927029D01*
X108041218Y-63948653D01*
X108028921Y-63969170D01*
X108014671Y-63988383D01*
X107998607Y-64006107D01*
X107980883Y-64022171D01*
X107961670Y-64036421D01*
X107941153Y-64048718D01*
X107919529Y-64058946D01*
X107897007Y-64067004D01*
X107873803Y-64072816D01*
X107850142Y-64076326D01*
X107826250Y-64077500D01*
X106913750Y-64077500D01*
X106889858Y-64076326D01*
X106866197Y-64072816D01*
X106842993Y-64067004D01*
X106820471Y-64058946D01*
X106798847Y-64048718D01*
X106778330Y-64036421D01*
X106759117Y-64022171D01*
X106741393Y-64006107D01*
X106725329Y-63988383D01*
X106711079Y-63969170D01*
X106698782Y-63948653D01*
X106688554Y-63927029D01*
X106680496Y-63904507D01*
X106674684Y-63881303D01*
X106671174Y-63857642D01*
X106670000Y-63833750D01*
X106670000Y-63346250D01*
X106671174Y-63322358D01*
X106674684Y-63298697D01*
X106680496Y-63275493D01*
X106688554Y-63252971D01*
X106698782Y-63231347D01*
X106711079Y-63210830D01*
X106725329Y-63191617D01*
X106741393Y-63173893D01*
X106759117Y-63157829D01*
X106778330Y-63143579D01*
X106798847Y-63131282D01*
X106820471Y-63121054D01*
X106842993Y-63112996D01*
X106866197Y-63107184D01*
X106889858Y-63103674D01*
X106913750Y-63102500D01*
X107826250Y-63102500D01*
X107850142Y-63103674D01*
G37*
G04 #@! TD.AperFunction*
G04 #@! TA.AperFunction,SMDPad,CuDef*
G36*
X100980142Y-79431174D02*
G01*
X101003803Y-79434684D01*
X101027007Y-79440496D01*
X101049529Y-79448554D01*
X101071153Y-79458782D01*
X101091670Y-79471079D01*
X101110883Y-79485329D01*
X101128607Y-79501393D01*
X101144671Y-79519117D01*
X101158921Y-79538330D01*
X101171218Y-79558847D01*
X101181446Y-79580471D01*
X101189504Y-79602993D01*
X101195316Y-79626197D01*
X101198826Y-79649858D01*
X101200000Y-79673750D01*
X101200000Y-80586250D01*
X101198826Y-80610142D01*
X101195316Y-80633803D01*
X101189504Y-80657007D01*
X101181446Y-80679529D01*
X101171218Y-80701153D01*
X101158921Y-80721670D01*
X101144671Y-80740883D01*
X101128607Y-80758607D01*
X101110883Y-80774671D01*
X101091670Y-80788921D01*
X101071153Y-80801218D01*
X101049529Y-80811446D01*
X101027007Y-80819504D01*
X101003803Y-80825316D01*
X100980142Y-80828826D01*
X100956250Y-80830000D01*
X100468750Y-80830000D01*
X100444858Y-80828826D01*
X100421197Y-80825316D01*
X100397993Y-80819504D01*
X100375471Y-80811446D01*
X100353847Y-80801218D01*
X100333330Y-80788921D01*
X100314117Y-80774671D01*
X100296393Y-80758607D01*
X100280329Y-80740883D01*
X100266079Y-80721670D01*
X100253782Y-80701153D01*
X100243554Y-80679529D01*
X100235496Y-80657007D01*
X100229684Y-80633803D01*
X100226174Y-80610142D01*
X100225000Y-80586250D01*
X100225000Y-79673750D01*
X100226174Y-79649858D01*
X100229684Y-79626197D01*
X100235496Y-79602993D01*
X100243554Y-79580471D01*
X100253782Y-79558847D01*
X100266079Y-79538330D01*
X100280329Y-79519117D01*
X100296393Y-79501393D01*
X100314117Y-79485329D01*
X100333330Y-79471079D01*
X100353847Y-79458782D01*
X100375471Y-79448554D01*
X100397993Y-79440496D01*
X100421197Y-79434684D01*
X100444858Y-79431174D01*
X100468750Y-79430000D01*
X100956250Y-79430000D01*
X100980142Y-79431174D01*
G37*
G04 #@! TD.AperFunction*
G04 #@! TA.AperFunction,SMDPad,CuDef*
G36*
X99105142Y-79431174D02*
G01*
X99128803Y-79434684D01*
X99152007Y-79440496D01*
X99174529Y-79448554D01*
X99196153Y-79458782D01*
X99216670Y-79471079D01*
X99235883Y-79485329D01*
X99253607Y-79501393D01*
X99269671Y-79519117D01*
X99283921Y-79538330D01*
X99296218Y-79558847D01*
X99306446Y-79580471D01*
X99314504Y-79602993D01*
X99320316Y-79626197D01*
X99323826Y-79649858D01*
X99325000Y-79673750D01*
X99325000Y-80586250D01*
X99323826Y-80610142D01*
X99320316Y-80633803D01*
X99314504Y-80657007D01*
X99306446Y-80679529D01*
X99296218Y-80701153D01*
X99283921Y-80721670D01*
X99269671Y-80740883D01*
X99253607Y-80758607D01*
X99235883Y-80774671D01*
X99216670Y-80788921D01*
X99196153Y-80801218D01*
X99174529Y-80811446D01*
X99152007Y-80819504D01*
X99128803Y-80825316D01*
X99105142Y-80828826D01*
X99081250Y-80830000D01*
X98593750Y-80830000D01*
X98569858Y-80828826D01*
X98546197Y-80825316D01*
X98522993Y-80819504D01*
X98500471Y-80811446D01*
X98478847Y-80801218D01*
X98458330Y-80788921D01*
X98439117Y-80774671D01*
X98421393Y-80758607D01*
X98405329Y-80740883D01*
X98391079Y-80721670D01*
X98378782Y-80701153D01*
X98368554Y-80679529D01*
X98360496Y-80657007D01*
X98354684Y-80633803D01*
X98351174Y-80610142D01*
X98350000Y-80586250D01*
X98350000Y-79673750D01*
X98351174Y-79649858D01*
X98354684Y-79626197D01*
X98360496Y-79602993D01*
X98368554Y-79580471D01*
X98378782Y-79558847D01*
X98391079Y-79538330D01*
X98405329Y-79519117D01*
X98421393Y-79501393D01*
X98439117Y-79485329D01*
X98458330Y-79471079D01*
X98478847Y-79458782D01*
X98500471Y-79448554D01*
X98522993Y-79440496D01*
X98546197Y-79434684D01*
X98569858Y-79431174D01*
X98593750Y-79430000D01*
X99081250Y-79430000D01*
X99105142Y-79431174D01*
G37*
G04 #@! TD.AperFunction*
G04 #@! TA.AperFunction,SMDPad,CuDef*
G36*
X100980142Y-73081174D02*
G01*
X101003803Y-73084684D01*
X101027007Y-73090496D01*
X101049529Y-73098554D01*
X101071153Y-73108782D01*
X101091670Y-73121079D01*
X101110883Y-73135329D01*
X101128607Y-73151393D01*
X101144671Y-73169117D01*
X101158921Y-73188330D01*
X101171218Y-73208847D01*
X101181446Y-73230471D01*
X101189504Y-73252993D01*
X101195316Y-73276197D01*
X101198826Y-73299858D01*
X101200000Y-73323750D01*
X101200000Y-74236250D01*
X101198826Y-74260142D01*
X101195316Y-74283803D01*
X101189504Y-74307007D01*
X101181446Y-74329529D01*
X101171218Y-74351153D01*
X101158921Y-74371670D01*
X101144671Y-74390883D01*
X101128607Y-74408607D01*
X101110883Y-74424671D01*
X101091670Y-74438921D01*
X101071153Y-74451218D01*
X101049529Y-74461446D01*
X101027007Y-74469504D01*
X101003803Y-74475316D01*
X100980142Y-74478826D01*
X100956250Y-74480000D01*
X100468750Y-74480000D01*
X100444858Y-74478826D01*
X100421197Y-74475316D01*
X100397993Y-74469504D01*
X100375471Y-74461446D01*
X100353847Y-74451218D01*
X100333330Y-74438921D01*
X100314117Y-74424671D01*
X100296393Y-74408607D01*
X100280329Y-74390883D01*
X100266079Y-74371670D01*
X100253782Y-74351153D01*
X100243554Y-74329529D01*
X100235496Y-74307007D01*
X100229684Y-74283803D01*
X100226174Y-74260142D01*
X100225000Y-74236250D01*
X100225000Y-73323750D01*
X100226174Y-73299858D01*
X100229684Y-73276197D01*
X100235496Y-73252993D01*
X100243554Y-73230471D01*
X100253782Y-73208847D01*
X100266079Y-73188330D01*
X100280329Y-73169117D01*
X100296393Y-73151393D01*
X100314117Y-73135329D01*
X100333330Y-73121079D01*
X100353847Y-73108782D01*
X100375471Y-73098554D01*
X100397993Y-73090496D01*
X100421197Y-73084684D01*
X100444858Y-73081174D01*
X100468750Y-73080000D01*
X100956250Y-73080000D01*
X100980142Y-73081174D01*
G37*
G04 #@! TD.AperFunction*
G04 #@! TA.AperFunction,SMDPad,CuDef*
G36*
X99105142Y-73081174D02*
G01*
X99128803Y-73084684D01*
X99152007Y-73090496D01*
X99174529Y-73098554D01*
X99196153Y-73108782D01*
X99216670Y-73121079D01*
X99235883Y-73135329D01*
X99253607Y-73151393D01*
X99269671Y-73169117D01*
X99283921Y-73188330D01*
X99296218Y-73208847D01*
X99306446Y-73230471D01*
X99314504Y-73252993D01*
X99320316Y-73276197D01*
X99323826Y-73299858D01*
X99325000Y-73323750D01*
X99325000Y-74236250D01*
X99323826Y-74260142D01*
X99320316Y-74283803D01*
X99314504Y-74307007D01*
X99306446Y-74329529D01*
X99296218Y-74351153D01*
X99283921Y-74371670D01*
X99269671Y-74390883D01*
X99253607Y-74408607D01*
X99235883Y-74424671D01*
X99216670Y-74438921D01*
X99196153Y-74451218D01*
X99174529Y-74461446D01*
X99152007Y-74469504D01*
X99128803Y-74475316D01*
X99105142Y-74478826D01*
X99081250Y-74480000D01*
X98593750Y-74480000D01*
X98569858Y-74478826D01*
X98546197Y-74475316D01*
X98522993Y-74469504D01*
X98500471Y-74461446D01*
X98478847Y-74451218D01*
X98458330Y-74438921D01*
X98439117Y-74424671D01*
X98421393Y-74408607D01*
X98405329Y-74390883D01*
X98391079Y-74371670D01*
X98378782Y-74351153D01*
X98368554Y-74329529D01*
X98360496Y-74307007D01*
X98354684Y-74283803D01*
X98351174Y-74260142D01*
X98350000Y-74236250D01*
X98350000Y-73323750D01*
X98351174Y-73299858D01*
X98354684Y-73276197D01*
X98360496Y-73252993D01*
X98368554Y-73230471D01*
X98378782Y-73208847D01*
X98391079Y-73188330D01*
X98405329Y-73169117D01*
X98421393Y-73151393D01*
X98439117Y-73135329D01*
X98458330Y-73121079D01*
X98478847Y-73108782D01*
X98500471Y-73098554D01*
X98522993Y-73090496D01*
X98546197Y-73084684D01*
X98569858Y-73081174D01*
X98593750Y-73080000D01*
X99081250Y-73080000D01*
X99105142Y-73081174D01*
G37*
G04 #@! TD.AperFunction*
D27*
X161370000Y-62350000D03*
X163275000Y-62350000D03*
X151718000Y-52698000D03*
X102775000Y-75955000D03*
X154745000Y-57930000D03*
X118670000Y-61400000D03*
X116760000Y-82035000D03*
X105330000Y-62350000D03*
X111570000Y-80850000D03*
X97235000Y-80130000D03*
X99775000Y-82035000D03*
X97870000Y-82035000D03*
X106760000Y-56000000D03*
X119160000Y-63850000D03*
X140610000Y-72230000D03*
X138070000Y-72230000D03*
X119020000Y-65880000D03*
X118978838Y-64833455D03*
X113585000Y-65525000D03*
X112315000Y-65525000D03*
X156290000Y-56635000D03*
X120970000Y-67650000D03*
X119177942Y-62842636D03*
X149500000Y-55085000D03*
X114855000Y-65525000D03*
X109170000Y-75050000D03*
X106760000Y-64890000D03*
X106760000Y-65890003D03*
X106760000Y-66890006D03*
D28*
X108895000Y-62065000D02*
X107370000Y-63590000D01*
X110520000Y-62065000D02*
X108895000Y-62065000D01*
X108700000Y-79400000D02*
X108150000Y-78850000D01*
X108700000Y-80850000D02*
X108700000Y-79400000D01*
X108150000Y-78850000D02*
X106170000Y-78850000D01*
X89382500Y-66500000D02*
X89382500Y-64650000D01*
X99775000Y-74717500D02*
X100712500Y-73780000D01*
X99775000Y-75855000D02*
X99775000Y-74717500D01*
X151892000Y-53950000D02*
X151892000Y-52872000D01*
X151892000Y-52872000D02*
X151718000Y-52698000D01*
X86682500Y-67818000D02*
X87350500Y-67150000D01*
X86682500Y-68150000D02*
X86682500Y-67818000D01*
X86682500Y-66482000D02*
X87350500Y-67150000D01*
X86682500Y-66150000D02*
X86682500Y-66482000D01*
X86682500Y-64250000D02*
X86682500Y-70650000D01*
X101650000Y-57270000D02*
X101650000Y-54730000D01*
D29*
X102675000Y-75855000D02*
X102775000Y-75955000D01*
X100725000Y-75855000D02*
X102675000Y-75855000D01*
X100410000Y-76955000D02*
X100725000Y-76640000D01*
X98825000Y-75855000D02*
X98825000Y-76640000D01*
X98825000Y-76640000D02*
X99140000Y-76955000D01*
X99140000Y-76955000D02*
X100410000Y-76955000D01*
X100725000Y-76640000D02*
X100725000Y-75855000D01*
D28*
X92160000Y-68450000D02*
X94670000Y-70960000D01*
X89382500Y-68450000D02*
X92160000Y-68450000D01*
D29*
X98825000Y-73792500D02*
X98837500Y-73780000D01*
X98825000Y-75855000D02*
X98825000Y-73792500D01*
X97490000Y-73780000D02*
X94670000Y-70960000D01*
X98837500Y-73780000D02*
X97490000Y-73780000D01*
D28*
X154766000Y-56024000D02*
X154592000Y-55850000D01*
X154766000Y-58286000D02*
X154766000Y-56024000D01*
X116435000Y-61400000D02*
X116420000Y-61415000D01*
X120232500Y-61400000D02*
X118670000Y-61400000D01*
X118670000Y-61400000D02*
X116435000Y-61400000D01*
X118030000Y-80100000D02*
X118030000Y-80765000D01*
X118030000Y-80765000D02*
X116760000Y-82035000D01*
X115490000Y-80765000D02*
X116760000Y-82035000D01*
X115490000Y-80100000D02*
X115490000Y-80765000D01*
X116760000Y-82035000D02*
X116760000Y-82035000D01*
X107670000Y-61415000D02*
X107370000Y-61715000D01*
X110520000Y-61415000D02*
X107670000Y-61415000D01*
X107370000Y-61715000D02*
X105965000Y-61715000D01*
X105965000Y-61715000D02*
X105330000Y-62350000D01*
X109970000Y-80850000D02*
X111570000Y-80850000D01*
X98825000Y-80117500D02*
X98837500Y-80130000D01*
X98825000Y-78055000D02*
X98825000Y-80117500D01*
X98837500Y-80130000D02*
X97235000Y-80130000D01*
X98837500Y-80130000D02*
X98837500Y-81097500D01*
X98837500Y-81097500D02*
X99775000Y-82035000D01*
X98837500Y-81097500D02*
X98807500Y-81097500D01*
X98807500Y-81097500D02*
X97870000Y-82035000D01*
X104250000Y-57270000D02*
X105490000Y-57270000D01*
X105490000Y-57270000D02*
X106760000Y-56000000D01*
X105490000Y-54730000D02*
X104250000Y-54730000D01*
X106760000Y-56000000D02*
X106760000Y-56000000D01*
X106760000Y-56000000D02*
X105490000Y-54730000D01*
D30*
X89396103Y-67150000D02*
X89546102Y-67000001D01*
X89546102Y-67000001D02*
X90297501Y-67000001D01*
X90297501Y-67000001D02*
X90372502Y-66925000D01*
X89382500Y-67150000D02*
X89396103Y-67150000D01*
X93625000Y-66925000D02*
X94670000Y-65880000D01*
X90372502Y-66925000D02*
X93625000Y-66925000D01*
X94670000Y-65880000D02*
X95715000Y-66925000D01*
X95715000Y-66925000D02*
X97076800Y-66925000D01*
X103786800Y-60215000D02*
X109332499Y-60215000D01*
X97076800Y-66925000D02*
X103786800Y-60215000D01*
X109432499Y-60115000D02*
X110520000Y-60115000D01*
X109332499Y-60215000D02*
X109432499Y-60115000D01*
X90558885Y-67375000D02*
X93625000Y-67375000D01*
X93625000Y-67375000D02*
X94670000Y-68420000D01*
X90283884Y-67650001D02*
X90558885Y-67375000D01*
X89382500Y-67800000D02*
X89532499Y-67650001D01*
X89532499Y-67650001D02*
X90283884Y-67650001D01*
X95715000Y-67375000D02*
X97263200Y-67375000D01*
X94670000Y-68420000D02*
X95715000Y-67375000D01*
X109432499Y-60765000D02*
X110520000Y-60765000D01*
X103973200Y-60665000D02*
X109332499Y-60665000D01*
X109332499Y-60665000D02*
X109432499Y-60765000D01*
X97263200Y-67375000D02*
X103973200Y-60665000D01*
D28*
X115369999Y-57300001D02*
X117280000Y-55390000D01*
X116420000Y-59465000D02*
X115534998Y-59465000D01*
X115369999Y-59300001D02*
X115369999Y-57300001D01*
X115534998Y-59465000D02*
X115369999Y-59300001D01*
X117280000Y-54312370D02*
X117280000Y-52850000D01*
X117280000Y-55390000D02*
X117280000Y-54312370D01*
X114740000Y-53927630D02*
X114740000Y-52850000D01*
X114740000Y-59410000D02*
X114740000Y-53927630D01*
X115445000Y-60115000D02*
X114740000Y-59410000D01*
X116420000Y-60115000D02*
X115445000Y-60115000D01*
X116420000Y-62715000D02*
X118025000Y-62715000D01*
X118025000Y-62715000D02*
X119160000Y-63850000D01*
X140610000Y-72230000D02*
X138070000Y-72230000D01*
X116420000Y-65140000D02*
X116420000Y-64665000D01*
X117160000Y-65880000D02*
X116420000Y-65140000D01*
X119020000Y-65880000D02*
X117160000Y-65880000D01*
X118213455Y-64833455D02*
X118978838Y-64833455D01*
X116420000Y-64015000D02*
X117395000Y-64015000D01*
X117395000Y-64015000D02*
X118213455Y-64833455D01*
X115490000Y-78225000D02*
X115490000Y-75050000D01*
X113585000Y-60905000D02*
X113585000Y-65525000D01*
X110520000Y-58815000D02*
X111495000Y-58815000D01*
X111495000Y-58815000D02*
X113585000Y-60905000D01*
X108700000Y-76950000D02*
X108700000Y-78400000D01*
X108700000Y-78400000D02*
X108950000Y-78650000D01*
X114365000Y-78650000D02*
X108950000Y-78650000D01*
X114790000Y-78225000D02*
X114365000Y-78650000D01*
X115490000Y-78225000D02*
X114790000Y-78225000D01*
X112315000Y-60285000D02*
X112315000Y-65525000D01*
X110520000Y-59465000D02*
X111495000Y-59465000D01*
X111495000Y-59465000D02*
X112315000Y-60285000D01*
X112950000Y-76150000D02*
X112950000Y-75050000D01*
X112150000Y-76950000D02*
X112950000Y-76150000D01*
X109970000Y-76950000D02*
X112150000Y-76950000D01*
X116420000Y-58815000D02*
X120205000Y-58815000D01*
X120582000Y-58438000D02*
X123454500Y-58438000D01*
X120205000Y-58815000D02*
X120582000Y-58438000D01*
X123454500Y-55709500D02*
X123110000Y-55365000D01*
X123454500Y-58438000D02*
X123454500Y-55709500D01*
X155367000Y-53950000D02*
X154592000Y-53950000D01*
X156290000Y-54873000D02*
X155367000Y-53950000D01*
X156290000Y-56635000D02*
X156290000Y-54873000D01*
X110520000Y-66400000D02*
X110520000Y-64665000D01*
X111770000Y-67650000D02*
X120970000Y-67650000D01*
X110520000Y-66400000D02*
X111770000Y-67650000D01*
X163170000Y-74400000D02*
X156670000Y-74400000D01*
X119177942Y-62842636D02*
X118485306Y-62150000D01*
X117395000Y-62065000D02*
X116420000Y-62065000D01*
X117480000Y-62150000D02*
X117395000Y-62065000D01*
X118485306Y-62150000D02*
X117480000Y-62150000D01*
X149500000Y-55085000D02*
X150135000Y-55085000D01*
X150320000Y-54900000D02*
X151892000Y-54900000D01*
X150135000Y-55085000D02*
X150320000Y-54900000D01*
X118030000Y-78225000D02*
X118030000Y-75050000D01*
X128975000Y-73145000D02*
X122475000Y-73145000D01*
X119935000Y-73145000D02*
X118030000Y-75050000D01*
X122475000Y-73145000D02*
X119935000Y-73145000D01*
X114855000Y-61355000D02*
X114855000Y-65525000D01*
X116420000Y-60765000D02*
X115445000Y-60765000D01*
X115445000Y-60765000D02*
X114855000Y-61355000D01*
X104890000Y-75500000D02*
X104890000Y-76950000D01*
X109170000Y-75050000D02*
X105340000Y-75050000D01*
X105340000Y-75050000D02*
X104890000Y-75500000D01*
X107574350Y-64890000D02*
X106760000Y-64890000D01*
X110520000Y-62715000D02*
X109749350Y-62715000D01*
X109749350Y-62715000D02*
X107574350Y-64890000D01*
X107210757Y-65890003D02*
X106760000Y-65890003D01*
X110520000Y-63365000D02*
X109735760Y-63365000D01*
X109735760Y-63365000D02*
X107210757Y-65890003D01*
X106847164Y-66890006D02*
X106760000Y-66890006D01*
X110520000Y-64015000D02*
X109722170Y-64015000D01*
X109722170Y-64015000D02*
X106847164Y-66890006D01*
X103220000Y-58540000D02*
X102950000Y-58270000D01*
X106510000Y-58540000D02*
X103220000Y-58540000D01*
X102950000Y-58270000D02*
X102950000Y-57270000D01*
X112200000Y-52850000D02*
X106510000Y-58540000D01*
X108582370Y-52850000D02*
X109660000Y-52850000D01*
X103830000Y-52850000D02*
X108582370Y-52850000D01*
X102950000Y-53730000D02*
X103830000Y-52850000D01*
X102950000Y-54730000D02*
X102950000Y-53730000D01*
D31*
G36*
X164510001Y-69018292D02*
G01*
X164305413Y-68944192D01*
X163349605Y-69900000D01*
X164305413Y-70855808D01*
X164510001Y-70781708D01*
X164510001Y-73462531D01*
X164439987Y-73357748D01*
X164212252Y-73130013D01*
X163944463Y-72951082D01*
X163646912Y-72827832D01*
X163331033Y-72765000D01*
X163008967Y-72765000D01*
X162693088Y-72827832D01*
X162395537Y-72951082D01*
X162127748Y-73130013D01*
X161900013Y-73357748D01*
X161721082Y-73625537D01*
X161715091Y-73640000D01*
X158124909Y-73640000D01*
X158118918Y-73625537D01*
X157939987Y-73357748D01*
X157712252Y-73130013D01*
X157444463Y-72951082D01*
X157146912Y-72827832D01*
X156831033Y-72765000D01*
X156508967Y-72765000D01*
X156193088Y-72827832D01*
X155895537Y-72951082D01*
X155627748Y-73130013D01*
X155400013Y-73357748D01*
X155221082Y-73625537D01*
X155097832Y-73923088D01*
X155035000Y-74238967D01*
X155035000Y-74561033D01*
X155097832Y-74876912D01*
X155221082Y-75174463D01*
X155400013Y-75442252D01*
X155627748Y-75669987D01*
X155895537Y-75848918D01*
X156193088Y-75972168D01*
X156508967Y-76035000D01*
X156831033Y-76035000D01*
X157146912Y-75972168D01*
X157444463Y-75848918D01*
X157712252Y-75669987D01*
X157939987Y-75442252D01*
X158118918Y-75174463D01*
X158124909Y-75160000D01*
X161715091Y-75160000D01*
X161721082Y-75174463D01*
X161900013Y-75442252D01*
X162127748Y-75669987D01*
X162395537Y-75848918D01*
X162693088Y-75972168D01*
X163008967Y-76035000D01*
X163331033Y-76035000D01*
X163646912Y-75972168D01*
X163944463Y-75848918D01*
X164212252Y-75669987D01*
X164439987Y-75442252D01*
X164510001Y-75337469D01*
X164510001Y-83990000D01*
X85830000Y-83990000D01*
X85830000Y-80429872D01*
X86935000Y-80429872D01*
X86935000Y-80870128D01*
X87020890Y-81301925D01*
X87189369Y-81708669D01*
X87433962Y-82074729D01*
X87745271Y-82386038D01*
X88111331Y-82630631D01*
X88518075Y-82799110D01*
X88949872Y-82885000D01*
X89390128Y-82885000D01*
X89821925Y-82799110D01*
X90228669Y-82630631D01*
X90594729Y-82386038D01*
X90906038Y-82074729D01*
X91150631Y-81708669D01*
X91319110Y-81301925D01*
X91405000Y-80870128D01*
X91405000Y-80429872D01*
X91319110Y-79998075D01*
X91150631Y-79591331D01*
X90906038Y-79225271D01*
X90594729Y-78913962D01*
X90228669Y-78669369D01*
X89821925Y-78500890D01*
X89390128Y-78415000D01*
X88949872Y-78415000D01*
X88518075Y-78500890D01*
X88111331Y-78669369D01*
X87745271Y-78913962D01*
X87433962Y-79225271D01*
X87189369Y-79591331D01*
X87020890Y-79998075D01*
X86935000Y-80429872D01*
X85830000Y-80429872D01*
X85830000Y-71779053D01*
X85967004Y-71836493D01*
X86205500Y-71885000D01*
X86555500Y-71885000D01*
X86555500Y-68581643D01*
X86602381Y-68627725D01*
X86797746Y-68755850D01*
X86809500Y-68760601D01*
X86809500Y-71885000D01*
X87159500Y-71885000D01*
X87397996Y-71836493D01*
X87622446Y-71742390D01*
X87824225Y-71606307D01*
X87995578Y-71433474D01*
X88129921Y-71230533D01*
X88222091Y-71005282D01*
X88225962Y-70967609D01*
X88202179Y-70931265D01*
X88222002Y-70894180D01*
X88257158Y-70778287D01*
X88336304Y-70964813D01*
X88467766Y-71157948D01*
X88634381Y-71321725D01*
X88829746Y-71449850D01*
X89046353Y-71537399D01*
X89072756Y-71537803D01*
X89255500Y-71412361D01*
X89255500Y-70071000D01*
X89509500Y-70071000D01*
X89509500Y-71412361D01*
X89692244Y-71537803D01*
X89718647Y-71537399D01*
X89935254Y-71449850D01*
X90130619Y-71321725D01*
X90297234Y-71157948D01*
X90428696Y-70964813D01*
X90519954Y-70749742D01*
X90567500Y-70521000D01*
X90567500Y-70071000D01*
X89509500Y-70071000D01*
X89255500Y-70071000D01*
X88197500Y-70071000D01*
X88197500Y-70234621D01*
X88129921Y-70069467D01*
X88032963Y-69923000D01*
X88108750Y-69923000D01*
X88214750Y-69817000D01*
X89255500Y-69817000D01*
X89255500Y-69797000D01*
X89509500Y-69797000D01*
X89509500Y-69817000D01*
X90567500Y-69817000D01*
X90567500Y-69367000D01*
X90534866Y-69210000D01*
X91845199Y-69210000D01*
X93181928Y-70546730D01*
X93181928Y-71810000D01*
X93194188Y-71934482D01*
X93230498Y-72054180D01*
X93289463Y-72164494D01*
X93368815Y-72261185D01*
X93465506Y-72340537D01*
X93575820Y-72399502D01*
X93695518Y-72435812D01*
X93820000Y-72448072D01*
X94977205Y-72448072D01*
X96870559Y-74341427D01*
X96896709Y-74373291D01*
X97023854Y-74477636D01*
X97168913Y-74555172D01*
X97326311Y-74602918D01*
X97448981Y-74615000D01*
X97448983Y-74615000D01*
X97489999Y-74619040D01*
X97531015Y-74615000D01*
X97801124Y-74615000D01*
X97860542Y-74726164D01*
X97970208Y-74859792D01*
X97990000Y-74876035D01*
X97990000Y-74945481D01*
X97969463Y-74970506D01*
X97910498Y-75080820D01*
X97874188Y-75200518D01*
X97861928Y-75325000D01*
X97861928Y-76385000D01*
X97874188Y-76509482D01*
X97910498Y-76629180D01*
X97969463Y-76739494D01*
X97999346Y-76775906D01*
X98002082Y-76803688D01*
X98049828Y-76961086D01*
X98091402Y-77038865D01*
X98048815Y-77073815D01*
X97969463Y-77170506D01*
X97910498Y-77280820D01*
X97874188Y-77400518D01*
X97861928Y-77525000D01*
X97861928Y-78585000D01*
X97874188Y-78709482D01*
X97910498Y-78829180D01*
X97969463Y-78939494D01*
X98024056Y-79006016D01*
X97970208Y-79050208D01*
X97860542Y-79183836D01*
X97813535Y-79271781D01*
X97725256Y-79212795D01*
X97536898Y-79134774D01*
X97336939Y-79095000D01*
X97133061Y-79095000D01*
X96933102Y-79134774D01*
X96744744Y-79212795D01*
X96575226Y-79326063D01*
X96431063Y-79470226D01*
X96317795Y-79639744D01*
X96239774Y-79828102D01*
X96200000Y-80028061D01*
X96200000Y-80231939D01*
X96239774Y-80431898D01*
X96317795Y-80620256D01*
X96431063Y-80789774D01*
X96575226Y-80933937D01*
X96744744Y-81047205D01*
X96933102Y-81125226D01*
X97133061Y-81165000D01*
X97309097Y-81165000D01*
X97210226Y-81231063D01*
X97066063Y-81375226D01*
X96952795Y-81544744D01*
X96874774Y-81733102D01*
X96835000Y-81933061D01*
X96835000Y-82136939D01*
X96874774Y-82336898D01*
X96952795Y-82525256D01*
X97066063Y-82694774D01*
X97210226Y-82838937D01*
X97379744Y-82952205D01*
X97568102Y-83030226D01*
X97768061Y-83070000D01*
X97971939Y-83070000D01*
X98171898Y-83030226D01*
X98360256Y-82952205D01*
X98529774Y-82838937D01*
X98673937Y-82694774D01*
X98787205Y-82525256D01*
X98822500Y-82440047D01*
X98857795Y-82525256D01*
X98971063Y-82694774D01*
X99115226Y-82838937D01*
X99284744Y-82952205D01*
X99473102Y-83030226D01*
X99673061Y-83070000D01*
X99876939Y-83070000D01*
X100076898Y-83030226D01*
X100265256Y-82952205D01*
X100434774Y-82838937D01*
X100578937Y-82694774D01*
X100692205Y-82525256D01*
X100770226Y-82336898D01*
X100810000Y-82136939D01*
X100810000Y-81933061D01*
X100770226Y-81733102D01*
X100692205Y-81544744D01*
X100578937Y-81375226D01*
X100547731Y-81344020D01*
X100585500Y-81306250D01*
X100585500Y-80257000D01*
X100839500Y-80257000D01*
X100839500Y-81306250D01*
X100998250Y-81465000D01*
X101200000Y-81468072D01*
X101324482Y-81455812D01*
X101444180Y-81419502D01*
X101554494Y-81360537D01*
X101651185Y-81281185D01*
X101730537Y-81184494D01*
X101789502Y-81074180D01*
X101825812Y-80954482D01*
X101838072Y-80830000D01*
X101835000Y-80415750D01*
X101676250Y-80257000D01*
X100839500Y-80257000D01*
X100585500Y-80257000D01*
X100565500Y-80257000D01*
X100565500Y-80003000D01*
X100585500Y-80003000D01*
X100585500Y-79983000D01*
X100839500Y-79983000D01*
X100839500Y-80003000D01*
X101676250Y-80003000D01*
X101835000Y-79844250D01*
X101836440Y-79650000D01*
X104021928Y-79650000D01*
X104021928Y-82050000D01*
X104034188Y-82174482D01*
X104070498Y-82294180D01*
X104129463Y-82404494D01*
X104208815Y-82501185D01*
X104305506Y-82580537D01*
X104415820Y-82639502D01*
X104535518Y-82675812D01*
X104660000Y-82688072D01*
X105400000Y-82688072D01*
X105524482Y-82675812D01*
X105644180Y-82639502D01*
X105665000Y-82628373D01*
X105685820Y-82639502D01*
X105805518Y-82675812D01*
X105930000Y-82688072D01*
X106670000Y-82688072D01*
X106794482Y-82675812D01*
X106914180Y-82639502D01*
X106935000Y-82628373D01*
X106955820Y-82639502D01*
X107075518Y-82675812D01*
X107200000Y-82688072D01*
X107284250Y-82685000D01*
X107443000Y-82526250D01*
X107443000Y-80977000D01*
X107697000Y-80977000D01*
X107697000Y-82526250D01*
X107855750Y-82685000D01*
X107940000Y-82688072D01*
X108064482Y-82675812D01*
X108184180Y-82639502D01*
X108205000Y-82628373D01*
X108225820Y-82639502D01*
X108345518Y-82675812D01*
X108470000Y-82688072D01*
X108554250Y-82685000D01*
X108713000Y-82526250D01*
X108713000Y-80977000D01*
X107697000Y-80977000D01*
X107443000Y-80977000D01*
X107423000Y-80977000D01*
X107423000Y-80723000D01*
X107443000Y-80723000D01*
X107443000Y-79173750D01*
X107284250Y-79015000D01*
X107200000Y-79011928D01*
X107075518Y-79024188D01*
X106955820Y-79060498D01*
X106935000Y-79071627D01*
X106914180Y-79060498D01*
X106794482Y-79024188D01*
X106670000Y-79011928D01*
X105930000Y-79011928D01*
X105805518Y-79024188D01*
X105685820Y-79060498D01*
X105665000Y-79071627D01*
X105644180Y-79060498D01*
X105524482Y-79024188D01*
X105400000Y-79011928D01*
X104660000Y-79011928D01*
X104535518Y-79024188D01*
X104415820Y-79060498D01*
X104305506Y-79119463D01*
X104208815Y-79198815D01*
X104129463Y-79295506D01*
X104070498Y-79405820D01*
X104034188Y-79525518D01*
X104021928Y-79650000D01*
X101836440Y-79650000D01*
X101838072Y-79430000D01*
X101825812Y-79305518D01*
X101789502Y-79185820D01*
X101730537Y-79075506D01*
X101651185Y-78978815D01*
X101587469Y-78926525D01*
X101639502Y-78829180D01*
X101675812Y-78709482D01*
X101688072Y-78585000D01*
X101688072Y-77525000D01*
X101675812Y-77400518D01*
X101639502Y-77280820D01*
X101580537Y-77170506D01*
X101501185Y-77073815D01*
X101458598Y-77038865D01*
X101500172Y-76961087D01*
X101547918Y-76803689D01*
X101550654Y-76775906D01*
X101580537Y-76739494D01*
X101606993Y-76690000D01*
X102046289Y-76690000D01*
X102115226Y-76758937D01*
X102284744Y-76872205D01*
X102473102Y-76950226D01*
X102673061Y-76990000D01*
X102876939Y-76990000D01*
X103076898Y-76950226D01*
X103265256Y-76872205D01*
X103434774Y-76758937D01*
X103578937Y-76614774D01*
X103692205Y-76445256D01*
X103770226Y-76256898D01*
X103810000Y-76056939D01*
X103810000Y-75853061D01*
X103789501Y-75750000D01*
X104021928Y-75750000D01*
X104021928Y-78150000D01*
X104034188Y-78274482D01*
X104070498Y-78394180D01*
X104129463Y-78504494D01*
X104208815Y-78601185D01*
X104305506Y-78680537D01*
X104415820Y-78739502D01*
X104535518Y-78775812D01*
X104660000Y-78788072D01*
X105400000Y-78788072D01*
X105524482Y-78775812D01*
X105644180Y-78739502D01*
X105665000Y-78728373D01*
X105685820Y-78739502D01*
X105805518Y-78775812D01*
X105930000Y-78788072D01*
X106670000Y-78788072D01*
X106794482Y-78775812D01*
X106914180Y-78739502D01*
X106935000Y-78728373D01*
X106955820Y-78739502D01*
X107075518Y-78775812D01*
X107200000Y-78788072D01*
X107940000Y-78788072D01*
X108040390Y-78778185D01*
X108065026Y-78824276D01*
X108126731Y-78899463D01*
X108160000Y-78940001D01*
X108188997Y-78963798D01*
X108271761Y-79046562D01*
X108225820Y-79060498D01*
X108205000Y-79071627D01*
X108184180Y-79060498D01*
X108064482Y-79024188D01*
X107940000Y-79011928D01*
X107855750Y-79015000D01*
X107697000Y-79173750D01*
X107697000Y-80723000D01*
X108713000Y-80723000D01*
X108713000Y-80703000D01*
X108967000Y-80703000D01*
X108967000Y-80723000D01*
X108987000Y-80723000D01*
X108987000Y-80977000D01*
X108967000Y-80977000D01*
X108967000Y-82526250D01*
X109125750Y-82685000D01*
X109210000Y-82688072D01*
X109334482Y-82675812D01*
X109454180Y-82639502D01*
X109475000Y-82628373D01*
X109495820Y-82639502D01*
X109615518Y-82675812D01*
X109740000Y-82688072D01*
X110480000Y-82688072D01*
X110604482Y-82675812D01*
X110724180Y-82639502D01*
X110834494Y-82580537D01*
X110931185Y-82501185D01*
X111010537Y-82404494D01*
X111069502Y-82294180D01*
X111105812Y-82174482D01*
X111118072Y-82050000D01*
X111118072Y-81783081D01*
X111268102Y-81845226D01*
X111468061Y-81885000D01*
X111671939Y-81885000D01*
X111871898Y-81845226D01*
X112060256Y-81767205D01*
X112229774Y-81653937D01*
X112373937Y-81509774D01*
X112487205Y-81340256D01*
X112565226Y-81151898D01*
X112605000Y-80951939D01*
X112605000Y-80748061D01*
X112565226Y-80548102D01*
X112487205Y-80359744D01*
X112373937Y-80190226D01*
X112229774Y-80046063D01*
X112060256Y-79932795D01*
X111871898Y-79854774D01*
X111671939Y-79815000D01*
X111468061Y-79815000D01*
X111268102Y-79854774D01*
X111118072Y-79916919D01*
X111118072Y-79650000D01*
X111105812Y-79525518D01*
X111070770Y-79410000D01*
X114277203Y-79410000D01*
X114219053Y-79518791D01*
X114168872Y-79684215D01*
X114151928Y-79856250D01*
X114151928Y-80343750D01*
X114168872Y-80515785D01*
X114219053Y-80681209D01*
X114300542Y-80833664D01*
X114410208Y-80967292D01*
X114543836Y-81076958D01*
X114696291Y-81158447D01*
X114861715Y-81208628D01*
X114871716Y-81209613D01*
X114925379Y-81275000D01*
X114950000Y-81305001D01*
X114978998Y-81328799D01*
X115725000Y-82074802D01*
X115725000Y-82136939D01*
X115764774Y-82336898D01*
X115842795Y-82525256D01*
X115956063Y-82694774D01*
X116100226Y-82838937D01*
X116269744Y-82952205D01*
X116458102Y-83030226D01*
X116658061Y-83070000D01*
X116861939Y-83070000D01*
X117061898Y-83030226D01*
X117250256Y-82952205D01*
X117419774Y-82838937D01*
X117563937Y-82694774D01*
X117677205Y-82525256D01*
X117755226Y-82336898D01*
X117795000Y-82136939D01*
X117795000Y-82074801D01*
X118541003Y-81328799D01*
X118570001Y-81305001D01*
X118648284Y-81209613D01*
X118658285Y-81208628D01*
X118823709Y-81158447D01*
X118976164Y-81076958D01*
X119109792Y-80967292D01*
X119219458Y-80833664D01*
X119300947Y-80681209D01*
X119351128Y-80515785D01*
X119359589Y-80429872D01*
X158935000Y-80429872D01*
X158935000Y-80870128D01*
X159020890Y-81301925D01*
X159189369Y-81708669D01*
X159433962Y-82074729D01*
X159745271Y-82386038D01*
X160111331Y-82630631D01*
X160518075Y-82799110D01*
X160949872Y-82885000D01*
X161390128Y-82885000D01*
X161821925Y-82799110D01*
X162228669Y-82630631D01*
X162594729Y-82386038D01*
X162906038Y-82074729D01*
X163150631Y-81708669D01*
X163319110Y-81301925D01*
X163405000Y-80870128D01*
X163405000Y-80429872D01*
X163319110Y-79998075D01*
X163150631Y-79591331D01*
X162906038Y-79225271D01*
X162594729Y-78913962D01*
X162228669Y-78669369D01*
X161821925Y-78500890D01*
X161390128Y-78415000D01*
X160949872Y-78415000D01*
X160518075Y-78500890D01*
X160111331Y-78669369D01*
X159745271Y-78913962D01*
X159433962Y-79225271D01*
X159189369Y-79591331D01*
X159020890Y-79998075D01*
X158935000Y-80429872D01*
X119359589Y-80429872D01*
X119368072Y-80343750D01*
X119368072Y-79856250D01*
X119351128Y-79684215D01*
X119300947Y-79518791D01*
X119219458Y-79366336D01*
X119109792Y-79232708D01*
X119024244Y-79162500D01*
X119109792Y-79092292D01*
X119219458Y-78958664D01*
X119300947Y-78806209D01*
X119308772Y-78780413D01*
X121519192Y-78780413D01*
X121614956Y-79044814D01*
X121904571Y-79185704D01*
X122216108Y-79267384D01*
X122537595Y-79286718D01*
X122856675Y-79242961D01*
X123161088Y-79137795D01*
X123335044Y-79044814D01*
X123430808Y-78780413D01*
X128019192Y-78780413D01*
X128114956Y-79044814D01*
X128404571Y-79185704D01*
X128716108Y-79267384D01*
X129037595Y-79286718D01*
X129356675Y-79242961D01*
X129661088Y-79137795D01*
X129835044Y-79044814D01*
X129930808Y-78780413D01*
X128975000Y-77824605D01*
X128019192Y-78780413D01*
X123430808Y-78780413D01*
X122475000Y-77824605D01*
X121519192Y-78780413D01*
X119308772Y-78780413D01*
X119351128Y-78640785D01*
X119368072Y-78468750D01*
X119368072Y-77981250D01*
X119351128Y-77809215D01*
X119320302Y-77707595D01*
X120833282Y-77707595D01*
X120877039Y-78026675D01*
X120982205Y-78331088D01*
X121075186Y-78505044D01*
X121339587Y-78600808D01*
X122295395Y-77645000D01*
X122654605Y-77645000D01*
X123610413Y-78600808D01*
X123874814Y-78505044D01*
X124015704Y-78215429D01*
X124097384Y-77903892D01*
X124109189Y-77707595D01*
X127333282Y-77707595D01*
X127377039Y-78026675D01*
X127482205Y-78331088D01*
X127575186Y-78505044D01*
X127839587Y-78600808D01*
X128795395Y-77645000D01*
X129154605Y-77645000D01*
X130110413Y-78600808D01*
X130374814Y-78505044D01*
X130515704Y-78215429D01*
X130597384Y-77903892D01*
X130616718Y-77582405D01*
X130572961Y-77263325D01*
X130467795Y-76958912D01*
X130374814Y-76784956D01*
X130110413Y-76689192D01*
X129154605Y-77645000D01*
X128795395Y-77645000D01*
X127839587Y-76689192D01*
X127575186Y-76784956D01*
X127434296Y-77074571D01*
X127352616Y-77386108D01*
X127333282Y-77707595D01*
X124109189Y-77707595D01*
X124116718Y-77582405D01*
X124072961Y-77263325D01*
X123967795Y-76958912D01*
X123874814Y-76784956D01*
X123610413Y-76689192D01*
X122654605Y-77645000D01*
X122295395Y-77645000D01*
X121339587Y-76689192D01*
X121075186Y-76784956D01*
X120934296Y-77074571D01*
X120852616Y-77386108D01*
X120833282Y-77707595D01*
X119320302Y-77707595D01*
X119300947Y-77643791D01*
X119219458Y-77491336D01*
X119109792Y-77357708D01*
X118976164Y-77248042D01*
X118823709Y-77166553D01*
X118790000Y-77156327D01*
X118790000Y-76509587D01*
X121519192Y-76509587D01*
X122475000Y-77465395D01*
X123430808Y-76509587D01*
X128019192Y-76509587D01*
X128975000Y-77465395D01*
X129930808Y-76509587D01*
X129835044Y-76245186D01*
X129545429Y-76104296D01*
X129233892Y-76022616D01*
X128912405Y-76003282D01*
X128593325Y-76047039D01*
X128288912Y-76152205D01*
X128114956Y-76245186D01*
X128019192Y-76509587D01*
X123430808Y-76509587D01*
X123335044Y-76245186D01*
X123045429Y-76104296D01*
X122733892Y-76022616D01*
X122412405Y-76003282D01*
X122093325Y-76047039D01*
X121788912Y-76152205D01*
X121614956Y-76245186D01*
X121519192Y-76509587D01*
X118790000Y-76509587D01*
X118790000Y-76328178D01*
X118976632Y-76203475D01*
X119183475Y-75996632D01*
X119345990Y-75753411D01*
X119457932Y-75483158D01*
X119515000Y-75196260D01*
X119515000Y-74903740D01*
X119471209Y-74683592D01*
X120249802Y-73905000D01*
X121020091Y-73905000D01*
X121026082Y-73919463D01*
X121205013Y-74187252D01*
X121432748Y-74414987D01*
X121700537Y-74593918D01*
X121998088Y-74717168D01*
X122313967Y-74780000D01*
X122636033Y-74780000D01*
X122951912Y-74717168D01*
X123249463Y-74593918D01*
X123517252Y-74414987D01*
X123744987Y-74187252D01*
X123923918Y-73919463D01*
X123929909Y-73905000D01*
X127520091Y-73905000D01*
X127526082Y-73919463D01*
X127705013Y-74187252D01*
X127932748Y-74414987D01*
X128200537Y-74593918D01*
X128498088Y-74717168D01*
X128813967Y-74780000D01*
X129136033Y-74780000D01*
X129451912Y-74717168D01*
X129749463Y-74593918D01*
X129906533Y-74488967D01*
X140285000Y-74488967D01*
X140285000Y-74811033D01*
X140347832Y-75126912D01*
X140471082Y-75424463D01*
X140650013Y-75692252D01*
X140877748Y-75919987D01*
X141145537Y-76098918D01*
X141443088Y-76222168D01*
X141758967Y-76285000D01*
X142081033Y-76285000D01*
X142396912Y-76222168D01*
X142694463Y-76098918D01*
X142962252Y-75919987D01*
X143096826Y-75785413D01*
X143464192Y-75785413D01*
X143559956Y-76049814D01*
X143849571Y-76190704D01*
X144161108Y-76272384D01*
X144482595Y-76291718D01*
X144801675Y-76247961D01*
X145106088Y-76142795D01*
X145280044Y-76049814D01*
X145375808Y-75785413D01*
X144420000Y-74829605D01*
X143464192Y-75785413D01*
X143096826Y-75785413D01*
X143189987Y-75692252D01*
X143254925Y-75595065D01*
X143284587Y-75605808D01*
X144240395Y-74650000D01*
X144599605Y-74650000D01*
X145555413Y-75605808D01*
X145585075Y-75595065D01*
X145650013Y-75692252D01*
X145877748Y-75919987D01*
X146145537Y-76098918D01*
X146443088Y-76222168D01*
X146758967Y-76285000D01*
X147081033Y-76285000D01*
X147396912Y-76222168D01*
X147694463Y-76098918D01*
X147962252Y-75919987D01*
X148189987Y-75692252D01*
X148368918Y-75424463D01*
X148492168Y-75126912D01*
X148555000Y-74811033D01*
X148555000Y-74488967D01*
X148492168Y-74173088D01*
X148368918Y-73875537D01*
X148189987Y-73607748D01*
X147962252Y-73380013D01*
X147694463Y-73201082D01*
X147396912Y-73077832D01*
X147081033Y-73015000D01*
X146758967Y-73015000D01*
X146443088Y-73077832D01*
X146145537Y-73201082D01*
X145877748Y-73380013D01*
X145650013Y-73607748D01*
X145585075Y-73704935D01*
X145555413Y-73694192D01*
X144599605Y-74650000D01*
X144240395Y-74650000D01*
X143284587Y-73694192D01*
X143254925Y-73704935D01*
X143189987Y-73607748D01*
X143096826Y-73514587D01*
X143464192Y-73514587D01*
X144420000Y-74470395D01*
X145375808Y-73514587D01*
X145280044Y-73250186D01*
X144990429Y-73109296D01*
X144678892Y-73027616D01*
X144357405Y-73008282D01*
X144038325Y-73052039D01*
X143733912Y-73157205D01*
X143559956Y-73250186D01*
X143464192Y-73514587D01*
X143096826Y-73514587D01*
X142962252Y-73380013D01*
X142694463Y-73201082D01*
X142396912Y-73077832D01*
X142081033Y-73015000D01*
X141758967Y-73015000D01*
X141443088Y-73077832D01*
X141145537Y-73201082D01*
X140877748Y-73380013D01*
X140650013Y-73607748D01*
X140471082Y-73875537D01*
X140347832Y-74173088D01*
X140285000Y-74488967D01*
X129906533Y-74488967D01*
X130017252Y-74414987D01*
X130244987Y-74187252D01*
X130423918Y-73919463D01*
X130547168Y-73621912D01*
X130610000Y-73306033D01*
X130610000Y-72983967D01*
X130547168Y-72668088D01*
X130423918Y-72370537D01*
X130261901Y-72128061D01*
X137035000Y-72128061D01*
X137035000Y-72331939D01*
X137074774Y-72531898D01*
X137152795Y-72720256D01*
X137266063Y-72889774D01*
X137410226Y-73033937D01*
X137579744Y-73147205D01*
X137768102Y-73225226D01*
X137968061Y-73265000D01*
X138171939Y-73265000D01*
X138371898Y-73225226D01*
X138560256Y-73147205D01*
X138729774Y-73033937D01*
X138773711Y-72990000D01*
X139906289Y-72990000D01*
X139950226Y-73033937D01*
X140119744Y-73147205D01*
X140308102Y-73225226D01*
X140508061Y-73265000D01*
X140711939Y-73265000D01*
X140911898Y-73225226D01*
X141100256Y-73147205D01*
X141269774Y-73033937D01*
X141413937Y-72889774D01*
X141527205Y-72720256D01*
X141605226Y-72531898D01*
X141645000Y-72331939D01*
X141645000Y-72128061D01*
X141605226Y-71928102D01*
X141527205Y-71739744D01*
X141413937Y-71570226D01*
X141269774Y-71426063D01*
X141100256Y-71312795D01*
X140911898Y-71234774D01*
X140711939Y-71195000D01*
X140508061Y-71195000D01*
X140308102Y-71234774D01*
X140119744Y-71312795D01*
X139950226Y-71426063D01*
X139906289Y-71470000D01*
X138773711Y-71470000D01*
X138729774Y-71426063D01*
X138560256Y-71312795D01*
X138371898Y-71234774D01*
X138171939Y-71195000D01*
X137968061Y-71195000D01*
X137768102Y-71234774D01*
X137579744Y-71312795D01*
X137410226Y-71426063D01*
X137266063Y-71570226D01*
X137152795Y-71739744D01*
X137074774Y-71928102D01*
X137035000Y-72128061D01*
X130261901Y-72128061D01*
X130244987Y-72102748D01*
X130017252Y-71875013D01*
X129749463Y-71696082D01*
X129451912Y-71572832D01*
X129136033Y-71510000D01*
X128813967Y-71510000D01*
X128498088Y-71572832D01*
X128200537Y-71696082D01*
X127932748Y-71875013D01*
X127705013Y-72102748D01*
X127526082Y-72370537D01*
X127520091Y-72385000D01*
X123929909Y-72385000D01*
X123923918Y-72370537D01*
X123744987Y-72102748D01*
X123517252Y-71875013D01*
X123249463Y-71696082D01*
X122951912Y-71572832D01*
X122636033Y-71510000D01*
X122313967Y-71510000D01*
X121998088Y-71572832D01*
X121700537Y-71696082D01*
X121432748Y-71875013D01*
X121205013Y-72102748D01*
X121026082Y-72370537D01*
X121020091Y-72385000D01*
X119972323Y-72385000D01*
X119935000Y-72381324D01*
X119897677Y-72385000D01*
X119897667Y-72385000D01*
X119786014Y-72395997D01*
X119642753Y-72439454D01*
X119510724Y-72510026D01*
X119394999Y-72604999D01*
X119371201Y-72633997D01*
X118396408Y-73608791D01*
X118176260Y-73565000D01*
X117883740Y-73565000D01*
X117596842Y-73622068D01*
X117326589Y-73734010D01*
X117083368Y-73896525D01*
X116876525Y-74103368D01*
X116760000Y-74277760D01*
X116643475Y-74103368D01*
X116436632Y-73896525D01*
X116193411Y-73734010D01*
X115923158Y-73622068D01*
X115636260Y-73565000D01*
X115343740Y-73565000D01*
X115056842Y-73622068D01*
X114786589Y-73734010D01*
X114543368Y-73896525D01*
X114411513Y-74028380D01*
X114389502Y-73955820D01*
X114330537Y-73845506D01*
X114251185Y-73748815D01*
X114154494Y-73669463D01*
X114044180Y-73610498D01*
X113924482Y-73574188D01*
X113800000Y-73561928D01*
X112100000Y-73561928D01*
X111975518Y-73574188D01*
X111855820Y-73610498D01*
X111745506Y-73669463D01*
X111648815Y-73748815D01*
X111569463Y-73845506D01*
X111510498Y-73955820D01*
X111474188Y-74075518D01*
X111461928Y-74200000D01*
X111461928Y-75900000D01*
X111474188Y-76024482D01*
X111510498Y-76144180D01*
X111534990Y-76190000D01*
X111118072Y-76190000D01*
X111118072Y-75750000D01*
X111105812Y-75625518D01*
X111069502Y-75505820D01*
X111010537Y-75395506D01*
X110931185Y-75298815D01*
X110834494Y-75219463D01*
X110724180Y-75160498D01*
X110604482Y-75124188D01*
X110480000Y-75111928D01*
X110205000Y-75111928D01*
X110205000Y-74948061D01*
X110165226Y-74748102D01*
X110087205Y-74559744D01*
X109973937Y-74390226D01*
X109829774Y-74246063D01*
X109660256Y-74132795D01*
X109471898Y-74054774D01*
X109271939Y-74015000D01*
X109068061Y-74015000D01*
X108868102Y-74054774D01*
X108679744Y-74132795D01*
X108510226Y-74246063D01*
X108466289Y-74290000D01*
X105377322Y-74290000D01*
X105339999Y-74286324D01*
X105302676Y-74290000D01*
X105302667Y-74290000D01*
X105191014Y-74300997D01*
X105057725Y-74341429D01*
X105047753Y-74344454D01*
X104915723Y-74415026D01*
X104873146Y-74449969D01*
X104799999Y-74509999D01*
X104776196Y-74539003D01*
X104379003Y-74936196D01*
X104349999Y-74959999D01*
X104300758Y-75020000D01*
X104255026Y-75075724D01*
X104214756Y-75151063D01*
X104184454Y-75207754D01*
X104140997Y-75351015D01*
X104137590Y-75385603D01*
X104129463Y-75395506D01*
X104070498Y-75505820D01*
X104034188Y-75625518D01*
X104021928Y-75750000D01*
X103789501Y-75750000D01*
X103770226Y-75653102D01*
X103692205Y-75464744D01*
X103578937Y-75295226D01*
X103434774Y-75151063D01*
X103265256Y-75037795D01*
X103076898Y-74959774D01*
X102876939Y-74920000D01*
X102673061Y-74920000D01*
X102473102Y-74959774D01*
X102327705Y-75020000D01*
X101606993Y-75020000D01*
X101587469Y-74983475D01*
X101651185Y-74931185D01*
X101730537Y-74834494D01*
X101789502Y-74724180D01*
X101825812Y-74604482D01*
X101838072Y-74480000D01*
X101835000Y-74065750D01*
X101676250Y-73907000D01*
X100839500Y-73907000D01*
X100839500Y-73927000D01*
X100585500Y-73927000D01*
X100585500Y-73907000D01*
X100565500Y-73907000D01*
X100565500Y-73653000D01*
X100585500Y-73653000D01*
X100585500Y-72603750D01*
X100839500Y-72603750D01*
X100839500Y-73653000D01*
X101676250Y-73653000D01*
X101835000Y-73494250D01*
X101838072Y-73080000D01*
X101825812Y-72955518D01*
X101789502Y-72835820D01*
X101730537Y-72725506D01*
X101651185Y-72628815D01*
X101554494Y-72549463D01*
X101444180Y-72490498D01*
X101324482Y-72454188D01*
X101200000Y-72441928D01*
X100998250Y-72445000D01*
X100839500Y-72603750D01*
X100585500Y-72603750D01*
X100426750Y-72445000D01*
X100225000Y-72441928D01*
X100100518Y-72454188D01*
X99980820Y-72490498D01*
X99870506Y-72549463D01*
X99773815Y-72628815D01*
X99710008Y-72706564D01*
X99704792Y-72700208D01*
X99571164Y-72590542D01*
X99418709Y-72509053D01*
X99253285Y-72458872D01*
X99081250Y-72441928D01*
X98593750Y-72441928D01*
X98421715Y-72458872D01*
X98256291Y-72509053D01*
X98103836Y-72590542D01*
X97970208Y-72700208D01*
X97860542Y-72833836D01*
X97813226Y-72922358D01*
X96158072Y-71267205D01*
X96158072Y-71035413D01*
X155714192Y-71035413D01*
X155809956Y-71299814D01*
X156099571Y-71440704D01*
X156411108Y-71522384D01*
X156732595Y-71541718D01*
X157051675Y-71497961D01*
X157356088Y-71392795D01*
X157530044Y-71299814D01*
X157625808Y-71035413D01*
X162214192Y-71035413D01*
X162309956Y-71299814D01*
X162599571Y-71440704D01*
X162911108Y-71522384D01*
X163232595Y-71541718D01*
X163551675Y-71497961D01*
X163856088Y-71392795D01*
X164030044Y-71299814D01*
X164125808Y-71035413D01*
X163170000Y-70079605D01*
X162214192Y-71035413D01*
X157625808Y-71035413D01*
X156670000Y-70079605D01*
X155714192Y-71035413D01*
X96158072Y-71035413D01*
X96158072Y-70110000D01*
X96145812Y-69985518D01*
X96109502Y-69865820D01*
X96050537Y-69755506D01*
X95971185Y-69658815D01*
X95874494Y-69579463D01*
X95764180Y-69520498D01*
X95691620Y-69498487D01*
X95823475Y-69366632D01*
X95985990Y-69123411D01*
X96097932Y-68853158D01*
X96155000Y-68566260D01*
X96155000Y-68273740D01*
X96122430Y-68110000D01*
X97227095Y-68110000D01*
X97263200Y-68113556D01*
X97299305Y-68110000D01*
X97407285Y-68099365D01*
X97545833Y-68057337D01*
X97673520Y-67989087D01*
X97785438Y-67897238D01*
X97808459Y-67869187D01*
X97860503Y-67817143D01*
X97774010Y-67946589D01*
X97662068Y-68216842D01*
X97605000Y-68503740D01*
X97605000Y-68796260D01*
X97662068Y-69083158D01*
X97774010Y-69353411D01*
X97936525Y-69596632D01*
X98143368Y-69803475D01*
X98386589Y-69965990D01*
X98656842Y-70077932D01*
X98943740Y-70135000D01*
X99236260Y-70135000D01*
X99523158Y-70077932D01*
X99793411Y-69965990D01*
X100036632Y-69803475D01*
X100243475Y-69596632D01*
X100360000Y-69422240D01*
X100476525Y-69596632D01*
X100683368Y-69803475D01*
X100926589Y-69965990D01*
X101196842Y-70077932D01*
X101483740Y-70135000D01*
X101776260Y-70135000D01*
X102063158Y-70077932D01*
X102333411Y-69965990D01*
X102576632Y-69803475D01*
X102708487Y-69671620D01*
X102730498Y-69744180D01*
X102789463Y-69854494D01*
X102868815Y-69951185D01*
X102965506Y-70030537D01*
X103075820Y-70089502D01*
X103195518Y-70125812D01*
X103320000Y-70138072D01*
X105020000Y-70138072D01*
X105144482Y-70125812D01*
X105264180Y-70089502D01*
X105374494Y-70030537D01*
X105457281Y-69962595D01*
X155028282Y-69962595D01*
X155072039Y-70281675D01*
X155177205Y-70586088D01*
X155270186Y-70760044D01*
X155534587Y-70855808D01*
X156490395Y-69900000D01*
X156849605Y-69900000D01*
X157805413Y-70855808D01*
X158069814Y-70760044D01*
X158210704Y-70470429D01*
X158292384Y-70158892D01*
X158304189Y-69962595D01*
X161528282Y-69962595D01*
X161572039Y-70281675D01*
X161677205Y-70586088D01*
X161770186Y-70760044D01*
X162034587Y-70855808D01*
X162990395Y-69900000D01*
X162034587Y-68944192D01*
X161770186Y-69039956D01*
X161629296Y-69329571D01*
X161547616Y-69641108D01*
X161528282Y-69962595D01*
X158304189Y-69962595D01*
X158311718Y-69837405D01*
X158267961Y-69518325D01*
X158162795Y-69213912D01*
X158069814Y-69039956D01*
X157805413Y-68944192D01*
X156849605Y-69900000D01*
X156490395Y-69900000D01*
X155534587Y-68944192D01*
X155270186Y-69039956D01*
X155129296Y-69329571D01*
X155047616Y-69641108D01*
X155028282Y-69962595D01*
X105457281Y-69962595D01*
X105471185Y-69951185D01*
X105550537Y-69854494D01*
X105609502Y-69744180D01*
X105645812Y-69624482D01*
X105658072Y-69500000D01*
X105658072Y-67800000D01*
X105645812Y-67675518D01*
X105609502Y-67555820D01*
X105550537Y-67445506D01*
X105471185Y-67348815D01*
X105374494Y-67269463D01*
X105264180Y-67210498D01*
X105144482Y-67174188D01*
X105020000Y-67161928D01*
X103320000Y-67161928D01*
X103195518Y-67174188D01*
X103075820Y-67210498D01*
X102965506Y-67269463D01*
X102868815Y-67348815D01*
X102789463Y-67445506D01*
X102730498Y-67555820D01*
X102708487Y-67628380D01*
X102576632Y-67496525D01*
X102333411Y-67334010D01*
X102063158Y-67222068D01*
X101776260Y-67165000D01*
X101483740Y-67165000D01*
X101196842Y-67222068D01*
X100926589Y-67334010D01*
X100683368Y-67496525D01*
X100476525Y-67703368D01*
X100360000Y-67877760D01*
X100243475Y-67703368D01*
X100036632Y-67496525D01*
X99793411Y-67334010D01*
X99523158Y-67222068D01*
X99236260Y-67165000D01*
X98943740Y-67165000D01*
X98656842Y-67222068D01*
X98386589Y-67334010D01*
X98257143Y-67420503D01*
X104277647Y-61400000D01*
X104918918Y-61400000D01*
X104839744Y-61432795D01*
X104670226Y-61546063D01*
X104526063Y-61690226D01*
X104412795Y-61859744D01*
X104334774Y-62048102D01*
X104295000Y-62248061D01*
X104295000Y-62451939D01*
X104334774Y-62651898D01*
X104412795Y-62840256D01*
X104526063Y-63009774D01*
X104670226Y-63153937D01*
X104839744Y-63267205D01*
X105028102Y-63345226D01*
X105228061Y-63385000D01*
X105431939Y-63385000D01*
X105631898Y-63345226D01*
X105820256Y-63267205D01*
X105989774Y-63153937D01*
X106032067Y-63111644D01*
X106035000Y-63304250D01*
X106193750Y-63463000D01*
X107243000Y-63463000D01*
X107243000Y-63443000D01*
X107497000Y-63443000D01*
X107497000Y-63463000D01*
X107517000Y-63463000D01*
X107517000Y-63717000D01*
X107497000Y-63717000D01*
X107497000Y-63737000D01*
X107243000Y-63737000D01*
X107243000Y-63717000D01*
X106193750Y-63717000D01*
X106035000Y-63875750D01*
X106031928Y-64077500D01*
X106038819Y-64147470D01*
X105956063Y-64230226D01*
X105842795Y-64399744D01*
X105764774Y-64588102D01*
X105725000Y-64788061D01*
X105725000Y-64991939D01*
X105764774Y-65191898D01*
X105842795Y-65380256D01*
X105849307Y-65390002D01*
X105842795Y-65399747D01*
X105764774Y-65588105D01*
X105725000Y-65788064D01*
X105725000Y-65991942D01*
X105764774Y-66191901D01*
X105842795Y-66380259D01*
X105849307Y-66390005D01*
X105842795Y-66399750D01*
X105764774Y-66588108D01*
X105725000Y-66788067D01*
X105725000Y-66991945D01*
X105764774Y-67191904D01*
X105842795Y-67380262D01*
X105956063Y-67549780D01*
X106100226Y-67693943D01*
X106269744Y-67807211D01*
X106458102Y-67885232D01*
X106658061Y-67925006D01*
X106861939Y-67925006D01*
X107061898Y-67885232D01*
X107250256Y-67807211D01*
X107419774Y-67693943D01*
X107563937Y-67549780D01*
X107677205Y-67380262D01*
X107755226Y-67191904D01*
X107788786Y-67023185D01*
X109413554Y-65398418D01*
X109440506Y-65420537D01*
X109550820Y-65479502D01*
X109670518Y-65515812D01*
X109760001Y-65524625D01*
X109760000Y-66362677D01*
X109756324Y-66400000D01*
X109760000Y-66437322D01*
X109760000Y-66437332D01*
X109770997Y-66548985D01*
X109799324Y-66642367D01*
X109814454Y-66692246D01*
X109885026Y-66824276D01*
X109908404Y-66852762D01*
X109979999Y-66940001D01*
X110009003Y-66963804D01*
X111206201Y-68161003D01*
X111229999Y-68190001D01*
X111258997Y-68213799D01*
X111345723Y-68284974D01*
X111458496Y-68345253D01*
X111477753Y-68355546D01*
X111621014Y-68399003D01*
X111732667Y-68410000D01*
X111732677Y-68410000D01*
X111770000Y-68413676D01*
X111807323Y-68410000D01*
X120266289Y-68410000D01*
X120310226Y-68453937D01*
X120479744Y-68567205D01*
X120668102Y-68645226D01*
X120868061Y-68685000D01*
X121071939Y-68685000D01*
X121271898Y-68645226D01*
X121460256Y-68567205D01*
X121629774Y-68453937D01*
X121773937Y-68309774D01*
X121887205Y-68140256D01*
X121965226Y-67951898D01*
X122005000Y-67751939D01*
X122005000Y-67548061D01*
X121965226Y-67348102D01*
X121887205Y-67159744D01*
X121773937Y-66990226D01*
X121629774Y-66846063D01*
X121460256Y-66732795D01*
X121271898Y-66654774D01*
X121071939Y-66615000D01*
X120868061Y-66615000D01*
X120668102Y-66654774D01*
X120479744Y-66732795D01*
X120310226Y-66846063D01*
X120266289Y-66890000D01*
X119247623Y-66890000D01*
X119321898Y-66875226D01*
X119510256Y-66797205D01*
X119679774Y-66683937D01*
X119823937Y-66539774D01*
X119937205Y-66370256D01*
X119963239Y-66307404D01*
X137455000Y-66307404D01*
X137455000Y-67992597D01*
X137482275Y-68269524D01*
X137590062Y-68624848D01*
X137765098Y-68952317D01*
X138000656Y-69239345D01*
X138287684Y-69474903D01*
X138615153Y-69649939D01*
X138970477Y-69757725D01*
X139340000Y-69794120D01*
X139709524Y-69757725D01*
X140064848Y-69649939D01*
X140392317Y-69474903D01*
X140679345Y-69239345D01*
X140914903Y-68952317D01*
X141089939Y-68624848D01*
X141197725Y-68269524D01*
X141225000Y-67992597D01*
X141225000Y-66307403D01*
X147615000Y-66307403D01*
X147615000Y-67992596D01*
X147642275Y-68269523D01*
X147750061Y-68624847D01*
X147925097Y-68952317D01*
X148160655Y-69239345D01*
X148447683Y-69474903D01*
X148775152Y-69649939D01*
X149130476Y-69757725D01*
X149500000Y-69794120D01*
X149869523Y-69757725D01*
X150224847Y-69649939D01*
X150552317Y-69474903D01*
X150839345Y-69239345D01*
X151074903Y-68952317D01*
X151175246Y-68764587D01*
X155714192Y-68764587D01*
X156670000Y-69720395D01*
X157625808Y-68764587D01*
X162214192Y-68764587D01*
X163170000Y-69720395D01*
X164125808Y-68764587D01*
X164030044Y-68500186D01*
X163740429Y-68359296D01*
X163428892Y-68277616D01*
X163107405Y-68258282D01*
X162788325Y-68302039D01*
X162483912Y-68407205D01*
X162309956Y-68500186D01*
X162214192Y-68764587D01*
X157625808Y-68764587D01*
X157530044Y-68500186D01*
X157240429Y-68359296D01*
X156928892Y-68277616D01*
X156607405Y-68258282D01*
X156288325Y-68302039D01*
X155983912Y-68407205D01*
X155809956Y-68500186D01*
X155714192Y-68764587D01*
X151175246Y-68764587D01*
X151249939Y-68624848D01*
X151357725Y-68269524D01*
X151385000Y-67992597D01*
X151385000Y-66307403D01*
X151357725Y-66030476D01*
X151249939Y-65675152D01*
X151074903Y-65347683D01*
X150839345Y-65060655D01*
X150552317Y-64825097D01*
X150224848Y-64650061D01*
X149869524Y-64542275D01*
X149500000Y-64505880D01*
X149130477Y-64542275D01*
X148775153Y-64650061D01*
X148447684Y-64825097D01*
X148160656Y-65060655D01*
X147925098Y-65347683D01*
X147750062Y-65675152D01*
X147642275Y-66030476D01*
X147615000Y-66307403D01*
X141225000Y-66307403D01*
X141197725Y-66030476D01*
X141089939Y-65675152D01*
X140914903Y-65347683D01*
X140679345Y-65060655D01*
X140392317Y-64825097D01*
X140064847Y-64650061D01*
X139709523Y-64542275D01*
X139340000Y-64505880D01*
X138970476Y-64542275D01*
X138615152Y-64650061D01*
X138287683Y-64825097D01*
X138000655Y-65060655D01*
X137765097Y-65347683D01*
X137590061Y-65675153D01*
X137482275Y-66030477D01*
X137455000Y-66307404D01*
X119963239Y-66307404D01*
X120015226Y-66181898D01*
X120055000Y-65981939D01*
X120055000Y-65778061D01*
X120015226Y-65578102D01*
X119937205Y-65389744D01*
X119894563Y-65325926D01*
X119896043Y-65323711D01*
X119974064Y-65135353D01*
X120013838Y-64935394D01*
X120013838Y-64731516D01*
X119974064Y-64531557D01*
X119964619Y-64508754D01*
X120077205Y-64340256D01*
X120155226Y-64151898D01*
X120195000Y-63951939D01*
X120195000Y-63748061D01*
X120155226Y-63548102D01*
X120077205Y-63359744D01*
X120095147Y-63332892D01*
X120173168Y-63144534D01*
X120212942Y-62944575D01*
X120212942Y-62740697D01*
X120212420Y-62738072D01*
X120476250Y-62738072D01*
X120648285Y-62721128D01*
X120813709Y-62670947D01*
X120966164Y-62589458D01*
X121099792Y-62479792D01*
X121105008Y-62473436D01*
X121168815Y-62551185D01*
X121265506Y-62630537D01*
X121375820Y-62689502D01*
X121495518Y-62725812D01*
X121620000Y-62738072D01*
X121821750Y-62735000D01*
X121980500Y-62576250D01*
X121980500Y-61527000D01*
X122234500Y-61527000D01*
X122234500Y-62576250D01*
X122393250Y-62735000D01*
X122595000Y-62738072D01*
X122719482Y-62725812D01*
X122839180Y-62689502D01*
X122949494Y-62630537D01*
X123046185Y-62551185D01*
X123125537Y-62454494D01*
X123184502Y-62344180D01*
X123220812Y-62224482D01*
X123233072Y-62100000D01*
X123230000Y-61685750D01*
X123071250Y-61527000D01*
X122234500Y-61527000D01*
X121980500Y-61527000D01*
X121960500Y-61527000D01*
X121960500Y-61273000D01*
X121980500Y-61273000D01*
X121980500Y-60223750D01*
X122234500Y-60223750D01*
X122234500Y-61273000D01*
X123071250Y-61273000D01*
X123230000Y-61114250D01*
X123233072Y-60700000D01*
X123220812Y-60575518D01*
X123184502Y-60455820D01*
X123125537Y-60345506D01*
X123046185Y-60248815D01*
X122949494Y-60169463D01*
X122839180Y-60110498D01*
X122719482Y-60074188D01*
X122595000Y-60061928D01*
X122393250Y-60065000D01*
X122234500Y-60223750D01*
X121980500Y-60223750D01*
X121821750Y-60065000D01*
X121620000Y-60061928D01*
X121495518Y-60074188D01*
X121375820Y-60110498D01*
X121265506Y-60169463D01*
X121168815Y-60248815D01*
X121105008Y-60326564D01*
X121099792Y-60320208D01*
X120966164Y-60210542D01*
X120813709Y-60129053D01*
X120648285Y-60078872D01*
X120476250Y-60061928D01*
X119988750Y-60061928D01*
X119816715Y-60078872D01*
X119651291Y-60129053D01*
X119498836Y-60210542D01*
X119365208Y-60320208D01*
X119255542Y-60453836D01*
X119219061Y-60522087D01*
X119160256Y-60482795D01*
X118971898Y-60404774D01*
X118771939Y-60365000D01*
X118568061Y-60365000D01*
X118368102Y-60404774D01*
X118179744Y-60482795D01*
X118010226Y-60596063D01*
X117966289Y-60640000D01*
X117783072Y-60640000D01*
X117783072Y-60540000D01*
X117773223Y-60440000D01*
X117783072Y-60340000D01*
X117783072Y-59988967D01*
X140285000Y-59988967D01*
X140285000Y-60311033D01*
X140347832Y-60626912D01*
X140471082Y-60924463D01*
X140650013Y-61192252D01*
X140877748Y-61419987D01*
X141145537Y-61598918D01*
X141443088Y-61722168D01*
X141758967Y-61785000D01*
X142081033Y-61785000D01*
X142396912Y-61722168D01*
X142694463Y-61598918D01*
X142962252Y-61419987D01*
X143096826Y-61285413D01*
X145964192Y-61285413D01*
X146059956Y-61549814D01*
X146349571Y-61690704D01*
X146661108Y-61772384D01*
X146982595Y-61791718D01*
X147301675Y-61747961D01*
X147606088Y-61642795D01*
X147780044Y-61549814D01*
X147875808Y-61285413D01*
X146920000Y-60329605D01*
X145964192Y-61285413D01*
X143096826Y-61285413D01*
X143189987Y-61192252D01*
X143368918Y-60924463D01*
X143492168Y-60626912D01*
X143555000Y-60311033D01*
X143555000Y-60212595D01*
X145278282Y-60212595D01*
X145322039Y-60531675D01*
X145427205Y-60836088D01*
X145520186Y-61010044D01*
X145784587Y-61105808D01*
X146740395Y-60150000D01*
X147099605Y-60150000D01*
X148055413Y-61105808D01*
X148319814Y-61010044D01*
X148421074Y-60801891D01*
X149133519Y-60801891D01*
X149230843Y-61076252D01*
X149379822Y-61326355D01*
X149574731Y-61542588D01*
X149808080Y-61716641D01*
X150070901Y-61841825D01*
X150218110Y-61886476D01*
X150448000Y-61765155D01*
X150448000Y-60572000D01*
X149254186Y-60572000D01*
X149133519Y-60801891D01*
X148421074Y-60801891D01*
X148460704Y-60720429D01*
X148542384Y-60408892D01*
X148561675Y-60088109D01*
X149133519Y-60088109D01*
X149254186Y-60318000D01*
X150448000Y-60318000D01*
X150448000Y-59124845D01*
X150702000Y-59124845D01*
X150702000Y-60318000D01*
X150722000Y-60318000D01*
X150722000Y-60572000D01*
X150702000Y-60572000D01*
X150702000Y-61765155D01*
X150931890Y-61886476D01*
X151079099Y-61841825D01*
X151341920Y-61716641D01*
X151575269Y-61542588D01*
X151651034Y-61458534D01*
X151675498Y-61539180D01*
X151734463Y-61649494D01*
X151813815Y-61746185D01*
X151910506Y-61825537D01*
X152020820Y-61884502D01*
X152140518Y-61920812D01*
X152265000Y-61933072D01*
X153965000Y-61933072D01*
X154089482Y-61920812D01*
X154209180Y-61884502D01*
X154319494Y-61825537D01*
X154416185Y-61746185D01*
X154495537Y-61649494D01*
X154554502Y-61539180D01*
X154590812Y-61419482D01*
X154603072Y-61295000D01*
X154603072Y-59595000D01*
X154590812Y-59470518D01*
X154554502Y-59350820D01*
X154495537Y-59240506D01*
X154416185Y-59143815D01*
X154319494Y-59064463D01*
X154209180Y-59005498D01*
X154089482Y-58969188D01*
X153965000Y-58956928D01*
X152265000Y-58956928D01*
X152140518Y-58969188D01*
X152020820Y-59005498D01*
X151910506Y-59064463D01*
X151813815Y-59143815D01*
X151734463Y-59240506D01*
X151675498Y-59350820D01*
X151651034Y-59431466D01*
X151575269Y-59347412D01*
X151341920Y-59173359D01*
X151079099Y-59048175D01*
X150931890Y-59003524D01*
X150702000Y-59124845D01*
X150448000Y-59124845D01*
X150218110Y-59003524D01*
X150070901Y-59048175D01*
X149808080Y-59173359D01*
X149574731Y-59347412D01*
X149379822Y-59563645D01*
X149230843Y-59813748D01*
X149133519Y-60088109D01*
X148561675Y-60088109D01*
X148561718Y-60087405D01*
X148517961Y-59768325D01*
X148412795Y-59463912D01*
X148319814Y-59289956D01*
X148055413Y-59194192D01*
X147099605Y-60150000D01*
X146740395Y-60150000D01*
X145784587Y-59194192D01*
X145520186Y-59289956D01*
X145379296Y-59579571D01*
X145297616Y-59891108D01*
X145278282Y-60212595D01*
X143555000Y-60212595D01*
X143555000Y-59988967D01*
X143492168Y-59673088D01*
X143368918Y-59375537D01*
X143189987Y-59107748D01*
X143096826Y-59014587D01*
X145964192Y-59014587D01*
X146920000Y-59970395D01*
X147875808Y-59014587D01*
X147780044Y-58750186D01*
X147490429Y-58609296D01*
X147178892Y-58527616D01*
X146857405Y-58508282D01*
X146538325Y-58552039D01*
X146233912Y-58657205D01*
X146059956Y-58750186D01*
X145964192Y-59014587D01*
X143096826Y-59014587D01*
X142962252Y-58880013D01*
X142694463Y-58701082D01*
X142396912Y-58577832D01*
X142081033Y-58515000D01*
X141758967Y-58515000D01*
X141443088Y-58577832D01*
X141145537Y-58701082D01*
X140877748Y-58880013D01*
X140650013Y-59107748D01*
X140471082Y-59375537D01*
X140347832Y-59673088D01*
X140285000Y-59988967D01*
X117783072Y-59988967D01*
X117783072Y-59890000D01*
X117773223Y-59790000D01*
X117783072Y-59690000D01*
X117783072Y-59575000D01*
X120167678Y-59575000D01*
X120205000Y-59578676D01*
X120242322Y-59575000D01*
X120242333Y-59575000D01*
X120353986Y-59564003D01*
X120497247Y-59520546D01*
X120629276Y-59449974D01*
X120745001Y-59355001D01*
X120768804Y-59325997D01*
X120896801Y-59198000D01*
X122385827Y-59198000D01*
X122396053Y-59231709D01*
X122477542Y-59384164D01*
X122587208Y-59517792D01*
X122720836Y-59627458D01*
X122873291Y-59708947D01*
X123038715Y-59759128D01*
X123210750Y-59776072D01*
X123698250Y-59776072D01*
X123870285Y-59759128D01*
X124035709Y-59708947D01*
X124188164Y-59627458D01*
X124321792Y-59517792D01*
X124327008Y-59511436D01*
X124390815Y-59589185D01*
X124487506Y-59668537D01*
X124597820Y-59727502D01*
X124717518Y-59763812D01*
X124842000Y-59776072D01*
X125043750Y-59773000D01*
X125202500Y-59614250D01*
X125202500Y-58565000D01*
X125456500Y-58565000D01*
X125456500Y-59614250D01*
X125615250Y-59773000D01*
X125817000Y-59776072D01*
X125941482Y-59763812D01*
X126061180Y-59727502D01*
X126171494Y-59668537D01*
X126268185Y-59589185D01*
X126347537Y-59492494D01*
X126406502Y-59382180D01*
X126442812Y-59262482D01*
X126455072Y-59138000D01*
X126452000Y-58723750D01*
X126293250Y-58565000D01*
X125456500Y-58565000D01*
X125202500Y-58565000D01*
X125182500Y-58565000D01*
X125182500Y-58311000D01*
X125202500Y-58311000D01*
X125202500Y-57261750D01*
X125456500Y-57261750D01*
X125456500Y-58311000D01*
X126293250Y-58311000D01*
X126452000Y-58152250D01*
X126455072Y-57738000D01*
X126442812Y-57613518D01*
X126406502Y-57493820D01*
X126347537Y-57383506D01*
X126268185Y-57286815D01*
X126171494Y-57207463D01*
X126061180Y-57148498D01*
X125941482Y-57112188D01*
X125817000Y-57099928D01*
X125615250Y-57103000D01*
X125456500Y-57261750D01*
X125202500Y-57261750D01*
X125043750Y-57103000D01*
X124842000Y-57099928D01*
X124717518Y-57112188D01*
X124597820Y-57148498D01*
X124487506Y-57207463D01*
X124390815Y-57286815D01*
X124327008Y-57364564D01*
X124321792Y-57358208D01*
X124214500Y-57270155D01*
X124214500Y-56466667D01*
X124269463Y-56569494D01*
X124348815Y-56666185D01*
X124445506Y-56745537D01*
X124555820Y-56804502D01*
X124675518Y-56840812D01*
X124800000Y-56853072D01*
X126500000Y-56853072D01*
X126624482Y-56840812D01*
X126744180Y-56804502D01*
X126854494Y-56745537D01*
X126951185Y-56666185D01*
X127030537Y-56569494D01*
X127089502Y-56459180D01*
X127125812Y-56339482D01*
X127138072Y-56215000D01*
X127138072Y-54983061D01*
X148465000Y-54983061D01*
X148465000Y-55186939D01*
X148504774Y-55386898D01*
X148582795Y-55575256D01*
X148696063Y-55744774D01*
X148840226Y-55888937D01*
X149009744Y-56002205D01*
X149198102Y-56080226D01*
X149398061Y-56120000D01*
X149601939Y-56120000D01*
X149801898Y-56080226D01*
X149990256Y-56002205D01*
X150159774Y-55888937D01*
X150207139Y-55841572D01*
X150283986Y-55834003D01*
X150427247Y-55790546D01*
X150559276Y-55719974D01*
X150632355Y-55660000D01*
X150728928Y-55660000D01*
X150728928Y-56150000D01*
X150741188Y-56274482D01*
X150777498Y-56394180D01*
X150836463Y-56504494D01*
X150915815Y-56601185D01*
X151012506Y-56680537D01*
X151122820Y-56739502D01*
X151242518Y-56775812D01*
X151367000Y-56788072D01*
X152417000Y-56788072D01*
X152541482Y-56775812D01*
X152661180Y-56739502D01*
X152771494Y-56680537D01*
X152868185Y-56601185D01*
X152947537Y-56504494D01*
X153006502Y-56394180D01*
X153042812Y-56274482D01*
X153055072Y-56150000D01*
X153055072Y-55550000D01*
X153042812Y-55425518D01*
X153027488Y-55375000D01*
X153042812Y-55324482D01*
X153055072Y-55200000D01*
X153055072Y-54600000D01*
X153042812Y-54475518D01*
X153027488Y-54425000D01*
X153042812Y-54374482D01*
X153055072Y-54250000D01*
X153052000Y-54235750D01*
X152893250Y-54077000D01*
X152780678Y-54077000D01*
X152771494Y-54069463D01*
X152661180Y-54010498D01*
X152541482Y-53974188D01*
X152417000Y-53961928D01*
X151367000Y-53961928D01*
X151242518Y-53974188D01*
X151122820Y-54010498D01*
X151012506Y-54069463D01*
X151003322Y-54077000D01*
X150890750Y-54077000D01*
X150827750Y-54140000D01*
X150357333Y-54140000D01*
X150320000Y-54136323D01*
X150282667Y-54140000D01*
X150171014Y-54150997D01*
X150029404Y-54193953D01*
X149990256Y-54167795D01*
X149801898Y-54089774D01*
X149601939Y-54050000D01*
X149398061Y-54050000D01*
X149198102Y-54089774D01*
X149009744Y-54167795D01*
X148840226Y-54281063D01*
X148696063Y-54425226D01*
X148582795Y-54594744D01*
X148504774Y-54783102D01*
X148465000Y-54983061D01*
X127138072Y-54983061D01*
X127138072Y-54515000D01*
X127125812Y-54390518D01*
X127089502Y-54270820D01*
X127030537Y-54160506D01*
X126951185Y-54063815D01*
X126854494Y-53984463D01*
X126744180Y-53925498D01*
X126624482Y-53889188D01*
X126500000Y-53876928D01*
X124800000Y-53876928D01*
X124675518Y-53889188D01*
X124555820Y-53925498D01*
X124445506Y-53984463D01*
X124348815Y-54063815D01*
X124269463Y-54160506D01*
X124210498Y-54270820D01*
X124188487Y-54343380D01*
X124056632Y-54211525D01*
X123813411Y-54049010D01*
X123543158Y-53937068D01*
X123256260Y-53880000D01*
X122963740Y-53880000D01*
X122676842Y-53937068D01*
X122406589Y-54049010D01*
X122163368Y-54211525D01*
X121956525Y-54418368D01*
X121794010Y-54661589D01*
X121682068Y-54931842D01*
X121625000Y-55218740D01*
X121625000Y-55511260D01*
X121682068Y-55798158D01*
X121794010Y-56068411D01*
X121956525Y-56311632D01*
X122163368Y-56518475D01*
X122406589Y-56680990D01*
X122676842Y-56792932D01*
X122694501Y-56796445D01*
X122694500Y-57270155D01*
X122587208Y-57358208D01*
X122477542Y-57491836D01*
X122396053Y-57644291D01*
X122385827Y-57678000D01*
X120619333Y-57678000D01*
X120582000Y-57674323D01*
X120544667Y-57678000D01*
X120433014Y-57688997D01*
X120289753Y-57732454D01*
X120157724Y-57803026D01*
X120041999Y-57897999D01*
X120018196Y-57927003D01*
X119890199Y-58055000D01*
X117491144Y-58055000D01*
X117389180Y-58000498D01*
X117269482Y-57964188D01*
X117145000Y-57951928D01*
X116129999Y-57951928D01*
X116129999Y-57614802D01*
X117791004Y-55953798D01*
X117820001Y-55930001D01*
X117914974Y-55814276D01*
X117985546Y-55682247D01*
X118029003Y-55538986D01*
X118040000Y-55427333D01*
X118040000Y-55427324D01*
X118043676Y-55390001D01*
X118040000Y-55352678D01*
X118040000Y-54022341D01*
X118170535Y-53935120D01*
X118365120Y-53740535D01*
X118425613Y-53650000D01*
X150728928Y-53650000D01*
X150732000Y-53664250D01*
X150890750Y-53823000D01*
X151765000Y-53823000D01*
X151765000Y-53173750D01*
X152019000Y-53173750D01*
X152019000Y-53823000D01*
X152893250Y-53823000D01*
X153052000Y-53664250D01*
X153055072Y-53650000D01*
X153428928Y-53650000D01*
X153428928Y-54250000D01*
X153441188Y-54374482D01*
X153477498Y-54494180D01*
X153536463Y-54604494D01*
X153615815Y-54701185D01*
X153712506Y-54780537D01*
X153822820Y-54839502D01*
X153942518Y-54875812D01*
X154067000Y-54888072D01*
X155117000Y-54888072D01*
X155220115Y-54877916D01*
X155277231Y-54935032D01*
X155241482Y-54924188D01*
X155117000Y-54911928D01*
X154067000Y-54911928D01*
X153942518Y-54924188D01*
X153822820Y-54960498D01*
X153712506Y-55019463D01*
X153615815Y-55098815D01*
X153536463Y-55195506D01*
X153477498Y-55305820D01*
X153441188Y-55425518D01*
X153428928Y-55550000D01*
X153428928Y-56150000D01*
X153441188Y-56274482D01*
X153477498Y-56394180D01*
X153536463Y-56504494D01*
X153615815Y-56601185D01*
X153712506Y-56680537D01*
X153822820Y-56739502D01*
X153942518Y-56775812D01*
X154006001Y-56782064D01*
X154006000Y-57205289D01*
X153941063Y-57270226D01*
X153827795Y-57439744D01*
X153749774Y-57628102D01*
X153710000Y-57828061D01*
X153710000Y-58031939D01*
X153749774Y-58231898D01*
X153827795Y-58420256D01*
X153941063Y-58589774D01*
X154085226Y-58733937D01*
X154239096Y-58836749D01*
X154341724Y-58920974D01*
X154473753Y-58991546D01*
X154617014Y-59035003D01*
X154766000Y-59049677D01*
X154914985Y-59035003D01*
X155058246Y-58991546D01*
X155190275Y-58920974D01*
X155306001Y-58826001D01*
X155353366Y-58768287D01*
X155404774Y-58733937D01*
X155548937Y-58589774D01*
X155662205Y-58420256D01*
X155740226Y-58231898D01*
X155780000Y-58031939D01*
X155780000Y-57828061D01*
X155740226Y-57628102D01*
X155673981Y-57468173D01*
X155799744Y-57552205D01*
X155988102Y-57630226D01*
X156188061Y-57670000D01*
X156391939Y-57670000D01*
X156591898Y-57630226D01*
X156780256Y-57552205D01*
X156949774Y-57438937D01*
X157093937Y-57294774D01*
X157207205Y-57125256D01*
X157285226Y-56936898D01*
X157325000Y-56736939D01*
X157325000Y-56533061D01*
X157285226Y-56333102D01*
X157207205Y-56144744D01*
X157093937Y-55975226D01*
X157050000Y-55931289D01*
X157050000Y-55429872D01*
X158935000Y-55429872D01*
X158935000Y-55870128D01*
X159020890Y-56301925D01*
X159189369Y-56708669D01*
X159433962Y-57074729D01*
X159745271Y-57386038D01*
X160111331Y-57630631D01*
X160518075Y-57799110D01*
X160949872Y-57885000D01*
X161390128Y-57885000D01*
X161821925Y-57799110D01*
X162228669Y-57630631D01*
X162594729Y-57386038D01*
X162906038Y-57074729D01*
X163150631Y-56708669D01*
X163319110Y-56301925D01*
X163405000Y-55870128D01*
X163405000Y-55429872D01*
X163319110Y-54998075D01*
X163150631Y-54591331D01*
X162906038Y-54225271D01*
X162594729Y-53913962D01*
X162228669Y-53669369D01*
X161821925Y-53500890D01*
X161390128Y-53415000D01*
X160949872Y-53415000D01*
X160518075Y-53500890D01*
X160111331Y-53669369D01*
X159745271Y-53913962D01*
X159433962Y-54225271D01*
X159189369Y-54591331D01*
X159020890Y-54998075D01*
X158935000Y-55429872D01*
X157050000Y-55429872D01*
X157050000Y-54910322D01*
X157053676Y-54872999D01*
X157050000Y-54835676D01*
X157050000Y-54835667D01*
X157039003Y-54724014D01*
X156995546Y-54580753D01*
X156983215Y-54557684D01*
X156924974Y-54448723D01*
X156853799Y-54361997D01*
X156830001Y-54332999D01*
X156801003Y-54309201D01*
X155930803Y-53439002D01*
X155907001Y-53409999D01*
X155791276Y-53315026D01*
X155659247Y-53244454D01*
X155587871Y-53222803D01*
X155568185Y-53198815D01*
X155471494Y-53119463D01*
X155361180Y-53060498D01*
X155241482Y-53024188D01*
X155117000Y-53011928D01*
X154067000Y-53011928D01*
X153942518Y-53024188D01*
X153822820Y-53060498D01*
X153712506Y-53119463D01*
X153615815Y-53198815D01*
X153536463Y-53295506D01*
X153477498Y-53405820D01*
X153441188Y-53525518D01*
X153428928Y-53650000D01*
X153055072Y-53650000D01*
X153042812Y-53525518D01*
X153006502Y-53405820D01*
X152947537Y-53295506D01*
X152868185Y-53198815D01*
X152771494Y-53119463D01*
X152661180Y-53060498D01*
X152541482Y-53024188D01*
X152417000Y-53011928D01*
X152177750Y-53015000D01*
X152019000Y-53173750D01*
X151765000Y-53173750D01*
X151606250Y-53015000D01*
X151367000Y-53011928D01*
X151242518Y-53024188D01*
X151122820Y-53060498D01*
X151012506Y-53119463D01*
X150915815Y-53198815D01*
X150836463Y-53295506D01*
X150777498Y-53405820D01*
X150741188Y-53525518D01*
X150728928Y-53650000D01*
X118425613Y-53650000D01*
X118518005Y-53511727D01*
X118623314Y-53257490D01*
X118677000Y-52987592D01*
X118677000Y-52712408D01*
X118623314Y-52442510D01*
X118518005Y-52188273D01*
X118365120Y-51959465D01*
X118170535Y-51764880D01*
X117941727Y-51611995D01*
X117687490Y-51506686D01*
X117417592Y-51453000D01*
X117142408Y-51453000D01*
X116872510Y-51506686D01*
X116618273Y-51611995D01*
X116389465Y-51764880D01*
X116194880Y-51959465D01*
X116041995Y-52188273D01*
X116010000Y-52265515D01*
X115978005Y-52188273D01*
X115825120Y-51959465D01*
X115630535Y-51764880D01*
X115401727Y-51611995D01*
X115147490Y-51506686D01*
X114877592Y-51453000D01*
X114602408Y-51453000D01*
X114332510Y-51506686D01*
X114078273Y-51611995D01*
X113849465Y-51764880D01*
X113654880Y-51959465D01*
X113501995Y-52188273D01*
X113470000Y-52265515D01*
X113438005Y-52188273D01*
X113285120Y-51959465D01*
X113090535Y-51764880D01*
X112861727Y-51611995D01*
X112607490Y-51506686D01*
X112337592Y-51453000D01*
X112062408Y-51453000D01*
X111792510Y-51506686D01*
X111538273Y-51611995D01*
X111309465Y-51764880D01*
X111114880Y-51959465D01*
X110961995Y-52188273D01*
X110930000Y-52265515D01*
X110898005Y-52188273D01*
X110745120Y-51959465D01*
X110550535Y-51764880D01*
X110321727Y-51611995D01*
X110067490Y-51506686D01*
X109797592Y-51453000D01*
X109522408Y-51453000D01*
X109252510Y-51506686D01*
X108998273Y-51611995D01*
X108769465Y-51764880D01*
X108574880Y-51959465D01*
X108487659Y-52090000D01*
X103867323Y-52090000D01*
X103830000Y-52086324D01*
X103792677Y-52090000D01*
X103792667Y-52090000D01*
X103681014Y-52100997D01*
X103537753Y-52144454D01*
X103405723Y-52215026D01*
X103322083Y-52283668D01*
X103289999Y-52309999D01*
X103266201Y-52338997D01*
X102438998Y-53166201D01*
X102410000Y-53189999D01*
X102386202Y-53218997D01*
X102386201Y-53218998D01*
X102315026Y-53305724D01*
X102287079Y-53358009D01*
X102274482Y-53354188D01*
X102150000Y-53341928D01*
X101935750Y-53345000D01*
X101777000Y-53503750D01*
X101777000Y-53859407D01*
X101755219Y-53870988D01*
X101702297Y-53898655D01*
X101700563Y-53900049D01*
X101698596Y-53901095D01*
X101652263Y-53938883D01*
X101605714Y-53976310D01*
X101604283Y-53978015D01*
X101602557Y-53979423D01*
X101564461Y-54025473D01*
X101526053Y-54071246D01*
X101524980Y-54073198D01*
X101523561Y-54074913D01*
X101523000Y-54075951D01*
X101523000Y-53503750D01*
X101364250Y-53345000D01*
X101150000Y-53341928D01*
X101025518Y-53354188D01*
X100905820Y-53390498D01*
X100795506Y-53449463D01*
X100698815Y-53528815D01*
X100619463Y-53625506D01*
X100560498Y-53735820D01*
X100524188Y-53855518D01*
X100511928Y-53980000D01*
X100515000Y-54444250D01*
X100673750Y-54603000D01*
X101415000Y-54603000D01*
X101415000Y-54857000D01*
X100673750Y-54857000D01*
X100515000Y-55015750D01*
X100511928Y-55480000D01*
X100524188Y-55604482D01*
X100560498Y-55724180D01*
X100619463Y-55834494D01*
X100698815Y-55931185D01*
X100782667Y-56000000D01*
X100698815Y-56068815D01*
X100619463Y-56165506D01*
X100560498Y-56275820D01*
X100524188Y-56395518D01*
X100511928Y-56520000D01*
X100515000Y-56984250D01*
X100673750Y-57143000D01*
X101523000Y-57143000D01*
X101523000Y-56043750D01*
X101479250Y-56000000D01*
X101523000Y-55956250D01*
X101523000Y-55383740D01*
X101558883Y-55427737D01*
X101596310Y-55474286D01*
X101598015Y-55475717D01*
X101599423Y-55477443D01*
X101645473Y-55515539D01*
X101691246Y-55553947D01*
X101693198Y-55555020D01*
X101694913Y-55556439D01*
X101747461Y-55584851D01*
X101777000Y-55601091D01*
X101777000Y-55956250D01*
X101820750Y-56000000D01*
X101777000Y-56043750D01*
X101777000Y-57143000D01*
X101797000Y-57143000D01*
X101797000Y-57397000D01*
X101777000Y-57397000D01*
X101777000Y-58496250D01*
X101935750Y-58655000D01*
X102150000Y-58658072D01*
X102274482Y-58645812D01*
X102287079Y-58641991D01*
X102315026Y-58694276D01*
X102332853Y-58715998D01*
X102409999Y-58810001D01*
X102439003Y-58833804D01*
X102656196Y-59050997D01*
X102679999Y-59080001D01*
X102795724Y-59174974D01*
X102927753Y-59245546D01*
X103071014Y-59289003D01*
X103182667Y-59300000D01*
X103182675Y-59300000D01*
X103220000Y-59303676D01*
X103257325Y-59300000D01*
X106472678Y-59300000D01*
X106510000Y-59303676D01*
X106547322Y-59300000D01*
X106547333Y-59300000D01*
X106658986Y-59289003D01*
X106802247Y-59245546D01*
X106934276Y-59174974D01*
X107050001Y-59080001D01*
X107073804Y-59050997D01*
X111908430Y-54216372D01*
X112062408Y-54247000D01*
X112337592Y-54247000D01*
X112607490Y-54193314D01*
X112861727Y-54088005D01*
X113090535Y-53935120D01*
X113285120Y-53740535D01*
X113438005Y-53511727D01*
X113470000Y-53434485D01*
X113501995Y-53511727D01*
X113654880Y-53740535D01*
X113849465Y-53935120D01*
X113980001Y-54022342D01*
X113980000Y-59372677D01*
X113976324Y-59410000D01*
X113980000Y-59447322D01*
X113980000Y-59447332D01*
X113990997Y-59558985D01*
X114011768Y-59627458D01*
X114034454Y-59702246D01*
X114105026Y-59834276D01*
X114144871Y-59882826D01*
X114199999Y-59950001D01*
X114229002Y-59973803D01*
X114695198Y-60440000D01*
X114344002Y-60791197D01*
X114337957Y-60796158D01*
X114334003Y-60756014D01*
X114290546Y-60612753D01*
X114219974Y-60480724D01*
X114125001Y-60364999D01*
X114096004Y-60341202D01*
X112058804Y-58304003D01*
X112035001Y-58274999D01*
X111919276Y-58180026D01*
X111787247Y-58109454D01*
X111643986Y-58065997D01*
X111602474Y-58061908D01*
X111599494Y-58059463D01*
X111489180Y-58000498D01*
X111369482Y-57964188D01*
X111245000Y-57951928D01*
X109795000Y-57951928D01*
X109670518Y-57964188D01*
X109550820Y-58000498D01*
X109440506Y-58059463D01*
X109343815Y-58138815D01*
X109264463Y-58235506D01*
X109205498Y-58345820D01*
X109169188Y-58465518D01*
X109156928Y-58590000D01*
X109156928Y-59040000D01*
X109166777Y-59140000D01*
X109156928Y-59240000D01*
X109156928Y-59430521D01*
X109149866Y-59432663D01*
X109061305Y-59480000D01*
X103822904Y-59480000D01*
X103786799Y-59476444D01*
X103642714Y-59490635D01*
X103600686Y-59503384D01*
X103504167Y-59532663D01*
X103376480Y-59600913D01*
X103264562Y-59692762D01*
X103241546Y-59720807D01*
X96772354Y-66190000D01*
X96122430Y-66190000D01*
X96155000Y-66026260D01*
X96155000Y-65733740D01*
X96097932Y-65446842D01*
X95985990Y-65176589D01*
X95823475Y-64933368D01*
X95616632Y-64726525D01*
X95434466Y-64604805D01*
X95551355Y-64535178D01*
X95767588Y-64340269D01*
X95941641Y-64106920D01*
X96066825Y-63844099D01*
X96111476Y-63696890D01*
X95990155Y-63467000D01*
X94797000Y-63467000D01*
X94797000Y-63487000D01*
X94543000Y-63487000D01*
X94543000Y-63467000D01*
X93349845Y-63467000D01*
X93228524Y-63696890D01*
X93273175Y-63844099D01*
X93398359Y-64106920D01*
X93572412Y-64340269D01*
X93788645Y-64535178D01*
X93905534Y-64604805D01*
X93723368Y-64726525D01*
X93516525Y-64933368D01*
X93354010Y-65176589D01*
X93242068Y-65446842D01*
X93185000Y-65733740D01*
X93185000Y-66026260D01*
X93217570Y-66190000D01*
X90683923Y-66190000D01*
X90682279Y-66175000D01*
X90692500Y-66081750D01*
X90625351Y-66014601D01*
X90582300Y-65937067D01*
X90501412Y-65841657D01*
X90420006Y-65777000D01*
X90533750Y-65777000D01*
X90692500Y-65618250D01*
X90681241Y-65515526D01*
X90643021Y-65396424D01*
X90582300Y-65287067D01*
X90505310Y-65196255D01*
X90519954Y-65161742D01*
X90567500Y-64933000D01*
X90567500Y-64483000D01*
X89509500Y-64483000D01*
X89509500Y-65997000D01*
X89255500Y-65997000D01*
X89255500Y-64483000D01*
X88214750Y-64483000D01*
X88108750Y-64377000D01*
X88032963Y-64377000D01*
X88129921Y-64230533D01*
X88197500Y-64065379D01*
X88197500Y-64229000D01*
X89255500Y-64229000D01*
X89255500Y-62887639D01*
X89509500Y-62887639D01*
X89509500Y-64229000D01*
X90567500Y-64229000D01*
X90567500Y-63779000D01*
X90519954Y-63550258D01*
X90428696Y-63335187D01*
X90297234Y-63142052D01*
X90135538Y-62983110D01*
X93228524Y-62983110D01*
X93349845Y-63213000D01*
X94543000Y-63213000D01*
X94543000Y-62019186D01*
X94797000Y-62019186D01*
X94797000Y-63213000D01*
X95990155Y-63213000D01*
X96111476Y-62983110D01*
X96066825Y-62835901D01*
X95941641Y-62573080D01*
X95767588Y-62339731D01*
X95551355Y-62144822D01*
X95301252Y-61995843D01*
X95026891Y-61898519D01*
X94797000Y-62019186D01*
X94543000Y-62019186D01*
X94313109Y-61898519D01*
X94038748Y-61995843D01*
X93788645Y-62144822D01*
X93572412Y-62339731D01*
X93398359Y-62573080D01*
X93273175Y-62835901D01*
X93228524Y-62983110D01*
X90135538Y-62983110D01*
X90130619Y-62978275D01*
X89935254Y-62850150D01*
X89718647Y-62762601D01*
X89692244Y-62762197D01*
X89509500Y-62887639D01*
X89255500Y-62887639D01*
X89072756Y-62762197D01*
X89046353Y-62762601D01*
X88829746Y-62850150D01*
X88634381Y-62978275D01*
X88467766Y-63142052D01*
X88336304Y-63335187D01*
X88257158Y-63521713D01*
X88222002Y-63405820D01*
X88202179Y-63368735D01*
X88225962Y-63332391D01*
X88222091Y-63294718D01*
X88129921Y-63069467D01*
X87995578Y-62866526D01*
X87824225Y-62693693D01*
X87622446Y-62557610D01*
X87397996Y-62463507D01*
X87159500Y-62415000D01*
X86809500Y-62415000D01*
X86809500Y-65539399D01*
X86797746Y-65544150D01*
X86602381Y-65672275D01*
X86555500Y-65718357D01*
X86555500Y-62415000D01*
X86205500Y-62415000D01*
X85967004Y-62463507D01*
X85830000Y-62520947D01*
X85830000Y-58020000D01*
X100511928Y-58020000D01*
X100524188Y-58144482D01*
X100560498Y-58264180D01*
X100619463Y-58374494D01*
X100698815Y-58471185D01*
X100795506Y-58550537D01*
X100905820Y-58609502D01*
X101025518Y-58645812D01*
X101150000Y-58658072D01*
X101364250Y-58655000D01*
X101523000Y-58496250D01*
X101523000Y-57397000D01*
X100673750Y-57397000D01*
X100515000Y-57555750D01*
X100511928Y-58020000D01*
X85830000Y-58020000D01*
X85830000Y-55429872D01*
X86935000Y-55429872D01*
X86935000Y-55870128D01*
X87020890Y-56301925D01*
X87189369Y-56708669D01*
X87433962Y-57074729D01*
X87745271Y-57386038D01*
X88111331Y-57630631D01*
X88518075Y-57799110D01*
X88949872Y-57885000D01*
X89390128Y-57885000D01*
X89821925Y-57799110D01*
X90228669Y-57630631D01*
X90594729Y-57386038D01*
X90906038Y-57074729D01*
X91150631Y-56708669D01*
X91319110Y-56301925D01*
X91405000Y-55870128D01*
X91405000Y-55429872D01*
X91319110Y-54998075D01*
X91150631Y-54591331D01*
X90906038Y-54225271D01*
X90594729Y-53913962D01*
X90228669Y-53669369D01*
X89821925Y-53500890D01*
X89390128Y-53415000D01*
X88949872Y-53415000D01*
X88518075Y-53500890D01*
X88111331Y-53669369D01*
X87745271Y-53913962D01*
X87433962Y-54225271D01*
X87189369Y-54591331D01*
X87020890Y-54998075D01*
X86935000Y-55429872D01*
X85830000Y-55429872D01*
X85830000Y-50310000D01*
X164510000Y-50310000D01*
X164510001Y-69018292D01*
G37*
X164510001Y-69018292D02*
X164305413Y-68944192D01*
X163349605Y-69900000D01*
X164305413Y-70855808D01*
X164510001Y-70781708D01*
X164510001Y-73462531D01*
X164439987Y-73357748D01*
X164212252Y-73130013D01*
X163944463Y-72951082D01*
X163646912Y-72827832D01*
X163331033Y-72765000D01*
X163008967Y-72765000D01*
X162693088Y-72827832D01*
X162395537Y-72951082D01*
X162127748Y-73130013D01*
X161900013Y-73357748D01*
X161721082Y-73625537D01*
X161715091Y-73640000D01*
X158124909Y-73640000D01*
X158118918Y-73625537D01*
X157939987Y-73357748D01*
X157712252Y-73130013D01*
X157444463Y-72951082D01*
X157146912Y-72827832D01*
X156831033Y-72765000D01*
X156508967Y-72765000D01*
X156193088Y-72827832D01*
X155895537Y-72951082D01*
X155627748Y-73130013D01*
X155400013Y-73357748D01*
X155221082Y-73625537D01*
X155097832Y-73923088D01*
X155035000Y-74238967D01*
X155035000Y-74561033D01*
X155097832Y-74876912D01*
X155221082Y-75174463D01*
X155400013Y-75442252D01*
X155627748Y-75669987D01*
X155895537Y-75848918D01*
X156193088Y-75972168D01*
X156508967Y-76035000D01*
X156831033Y-76035000D01*
X157146912Y-75972168D01*
X157444463Y-75848918D01*
X157712252Y-75669987D01*
X157939987Y-75442252D01*
X158118918Y-75174463D01*
X158124909Y-75160000D01*
X161715091Y-75160000D01*
X161721082Y-75174463D01*
X161900013Y-75442252D01*
X162127748Y-75669987D01*
X162395537Y-75848918D01*
X162693088Y-75972168D01*
X163008967Y-76035000D01*
X163331033Y-76035000D01*
X163646912Y-75972168D01*
X163944463Y-75848918D01*
X164212252Y-75669987D01*
X164439987Y-75442252D01*
X164510001Y-75337469D01*
X164510001Y-83990000D01*
X85830000Y-83990000D01*
X85830000Y-80429872D01*
X86935000Y-80429872D01*
X86935000Y-80870128D01*
X87020890Y-81301925D01*
X87189369Y-81708669D01*
X87433962Y-82074729D01*
X87745271Y-82386038D01*
X88111331Y-82630631D01*
X88518075Y-82799110D01*
X88949872Y-82885000D01*
X89390128Y-82885000D01*
X89821925Y-82799110D01*
X90228669Y-82630631D01*
X90594729Y-82386038D01*
X90906038Y-82074729D01*
X91150631Y-81708669D01*
X91319110Y-81301925D01*
X91405000Y-80870128D01*
X91405000Y-80429872D01*
X91319110Y-79998075D01*
X91150631Y-79591331D01*
X90906038Y-79225271D01*
X90594729Y-78913962D01*
X90228669Y-78669369D01*
X89821925Y-78500890D01*
X89390128Y-78415000D01*
X88949872Y-78415000D01*
X88518075Y-78500890D01*
X88111331Y-78669369D01*
X87745271Y-78913962D01*
X87433962Y-79225271D01*
X87189369Y-79591331D01*
X87020890Y-79998075D01*
X86935000Y-80429872D01*
X85830000Y-80429872D01*
X85830000Y-71779053D01*
X85967004Y-71836493D01*
X86205500Y-71885000D01*
X86555500Y-71885000D01*
X86555500Y-68581643D01*
X86602381Y-68627725D01*
X86797746Y-68755850D01*
X86809500Y-68760601D01*
X86809500Y-71885000D01*
X87159500Y-71885000D01*
X87397996Y-71836493D01*
X87622446Y-71742390D01*
X87824225Y-71606307D01*
X87995578Y-71433474D01*
X88129921Y-71230533D01*
X88222091Y-71005282D01*
X88225962Y-70967609D01*
X88202179Y-70931265D01*
X88222002Y-70894180D01*
X88257158Y-70778287D01*
X88336304Y-70964813D01*
X88467766Y-71157948D01*
X88634381Y-71321725D01*
X88829746Y-71449850D01*
X89046353Y-71537399D01*
X89072756Y-71537803D01*
X89255500Y-71412361D01*
X89255500Y-70071000D01*
X89509500Y-70071000D01*
X89509500Y-71412361D01*
X89692244Y-71537803D01*
X89718647Y-71537399D01*
X89935254Y-71449850D01*
X90130619Y-71321725D01*
X90297234Y-71157948D01*
X90428696Y-70964813D01*
X90519954Y-70749742D01*
X90567500Y-70521000D01*
X90567500Y-70071000D01*
X89509500Y-70071000D01*
X89255500Y-70071000D01*
X88197500Y-70071000D01*
X88197500Y-70234621D01*
X88129921Y-70069467D01*
X88032963Y-69923000D01*
X88108750Y-69923000D01*
X88214750Y-69817000D01*
X89255500Y-69817000D01*
X89255500Y-69797000D01*
X89509500Y-69797000D01*
X89509500Y-69817000D01*
X90567500Y-69817000D01*
X90567500Y-69367000D01*
X90534866Y-69210000D01*
X91845199Y-69210000D01*
X93181928Y-70546730D01*
X93181928Y-71810000D01*
X93194188Y-71934482D01*
X93230498Y-72054180D01*
X93289463Y-72164494D01*
X93368815Y-72261185D01*
X93465506Y-72340537D01*
X93575820Y-72399502D01*
X93695518Y-72435812D01*
X93820000Y-72448072D01*
X94977205Y-72448072D01*
X96870559Y-74341427D01*
X96896709Y-74373291D01*
X97023854Y-74477636D01*
X97168913Y-74555172D01*
X97326311Y-74602918D01*
X97448981Y-74615000D01*
X97448983Y-74615000D01*
X97489999Y-74619040D01*
X97531015Y-74615000D01*
X97801124Y-74615000D01*
X97860542Y-74726164D01*
X97970208Y-74859792D01*
X97990000Y-74876035D01*
X97990000Y-74945481D01*
X97969463Y-74970506D01*
X97910498Y-75080820D01*
X97874188Y-75200518D01*
X97861928Y-75325000D01*
X97861928Y-76385000D01*
X97874188Y-76509482D01*
X97910498Y-76629180D01*
X97969463Y-76739494D01*
X97999346Y-76775906D01*
X98002082Y-76803688D01*
X98049828Y-76961086D01*
X98091402Y-77038865D01*
X98048815Y-77073815D01*
X97969463Y-77170506D01*
X97910498Y-77280820D01*
X97874188Y-77400518D01*
X97861928Y-77525000D01*
X97861928Y-78585000D01*
X97874188Y-78709482D01*
X97910498Y-78829180D01*
X97969463Y-78939494D01*
X98024056Y-79006016D01*
X97970208Y-79050208D01*
X97860542Y-79183836D01*
X97813535Y-79271781D01*
X97725256Y-79212795D01*
X97536898Y-79134774D01*
X97336939Y-79095000D01*
X97133061Y-79095000D01*
X96933102Y-79134774D01*
X96744744Y-79212795D01*
X96575226Y-79326063D01*
X96431063Y-79470226D01*
X96317795Y-79639744D01*
X96239774Y-79828102D01*
X96200000Y-80028061D01*
X96200000Y-80231939D01*
X96239774Y-80431898D01*
X96317795Y-80620256D01*
X96431063Y-80789774D01*
X96575226Y-80933937D01*
X96744744Y-81047205D01*
X96933102Y-81125226D01*
X97133061Y-81165000D01*
X97309097Y-81165000D01*
X97210226Y-81231063D01*
X97066063Y-81375226D01*
X96952795Y-81544744D01*
X96874774Y-81733102D01*
X96835000Y-81933061D01*
X96835000Y-82136939D01*
X96874774Y-82336898D01*
X96952795Y-82525256D01*
X97066063Y-82694774D01*
X97210226Y-82838937D01*
X97379744Y-82952205D01*
X97568102Y-83030226D01*
X97768061Y-83070000D01*
X97971939Y-83070000D01*
X98171898Y-83030226D01*
X98360256Y-82952205D01*
X98529774Y-82838937D01*
X98673937Y-82694774D01*
X98787205Y-82525256D01*
X98822500Y-82440047D01*
X98857795Y-82525256D01*
X98971063Y-82694774D01*
X99115226Y-82838937D01*
X99284744Y-82952205D01*
X99473102Y-83030226D01*
X99673061Y-83070000D01*
X99876939Y-83070000D01*
X100076898Y-83030226D01*
X100265256Y-82952205D01*
X100434774Y-82838937D01*
X100578937Y-82694774D01*
X100692205Y-82525256D01*
X100770226Y-82336898D01*
X100810000Y-82136939D01*
X100810000Y-81933061D01*
X100770226Y-81733102D01*
X100692205Y-81544744D01*
X100578937Y-81375226D01*
X100547731Y-81344020D01*
X100585500Y-81306250D01*
X100585500Y-80257000D01*
X100839500Y-80257000D01*
X100839500Y-81306250D01*
X100998250Y-81465000D01*
X101200000Y-81468072D01*
X101324482Y-81455812D01*
X101444180Y-81419502D01*
X101554494Y-81360537D01*
X101651185Y-81281185D01*
X101730537Y-81184494D01*
X101789502Y-81074180D01*
X101825812Y-80954482D01*
X101838072Y-80830000D01*
X101835000Y-80415750D01*
X101676250Y-80257000D01*
X100839500Y-80257000D01*
X100585500Y-80257000D01*
X100565500Y-80257000D01*
X100565500Y-80003000D01*
X100585500Y-80003000D01*
X100585500Y-79983000D01*
X100839500Y-79983000D01*
X100839500Y-80003000D01*
X101676250Y-80003000D01*
X101835000Y-79844250D01*
X101836440Y-79650000D01*
X104021928Y-79650000D01*
X104021928Y-82050000D01*
X104034188Y-82174482D01*
X104070498Y-82294180D01*
X104129463Y-82404494D01*
X104208815Y-82501185D01*
X104305506Y-82580537D01*
X104415820Y-82639502D01*
X104535518Y-82675812D01*
X104660000Y-82688072D01*
X105400000Y-82688072D01*
X105524482Y-82675812D01*
X105644180Y-82639502D01*
X105665000Y-82628373D01*
X105685820Y-82639502D01*
X105805518Y-82675812D01*
X105930000Y-82688072D01*
X106670000Y-82688072D01*
X106794482Y-82675812D01*
X106914180Y-82639502D01*
X106935000Y-82628373D01*
X106955820Y-82639502D01*
X107075518Y-82675812D01*
X107200000Y-82688072D01*
X107284250Y-82685000D01*
X107443000Y-82526250D01*
X107443000Y-80977000D01*
X107697000Y-80977000D01*
X107697000Y-82526250D01*
X107855750Y-82685000D01*
X107940000Y-82688072D01*
X108064482Y-82675812D01*
X108184180Y-82639502D01*
X108205000Y-82628373D01*
X108225820Y-82639502D01*
X108345518Y-82675812D01*
X108470000Y-82688072D01*
X108554250Y-82685000D01*
X108713000Y-82526250D01*
X108713000Y-80977000D01*
X107697000Y-80977000D01*
X107443000Y-80977000D01*
X107423000Y-80977000D01*
X107423000Y-80723000D01*
X107443000Y-80723000D01*
X107443000Y-79173750D01*
X107284250Y-79015000D01*
X107200000Y-79011928D01*
X107075518Y-79024188D01*
X106955820Y-79060498D01*
X106935000Y-79071627D01*
X106914180Y-79060498D01*
X106794482Y-79024188D01*
X106670000Y-79011928D01*
X105930000Y-79011928D01*
X105805518Y-79024188D01*
X105685820Y-79060498D01*
X105665000Y-79071627D01*
X105644180Y-79060498D01*
X105524482Y-79024188D01*
X105400000Y-79011928D01*
X104660000Y-79011928D01*
X104535518Y-79024188D01*
X104415820Y-79060498D01*
X104305506Y-79119463D01*
X104208815Y-79198815D01*
X104129463Y-79295506D01*
X104070498Y-79405820D01*
X104034188Y-79525518D01*
X104021928Y-79650000D01*
X101836440Y-79650000D01*
X101838072Y-79430000D01*
X101825812Y-79305518D01*
X101789502Y-79185820D01*
X101730537Y-79075506D01*
X101651185Y-78978815D01*
X101587469Y-78926525D01*
X101639502Y-78829180D01*
X101675812Y-78709482D01*
X101688072Y-78585000D01*
X101688072Y-77525000D01*
X101675812Y-77400518D01*
X101639502Y-77280820D01*
X101580537Y-77170506D01*
X101501185Y-77073815D01*
X101458598Y-77038865D01*
X101500172Y-76961087D01*
X101547918Y-76803689D01*
X101550654Y-76775906D01*
X101580537Y-76739494D01*
X101606993Y-76690000D01*
X102046289Y-76690000D01*
X102115226Y-76758937D01*
X102284744Y-76872205D01*
X102473102Y-76950226D01*
X102673061Y-76990000D01*
X102876939Y-76990000D01*
X103076898Y-76950226D01*
X103265256Y-76872205D01*
X103434774Y-76758937D01*
X103578937Y-76614774D01*
X103692205Y-76445256D01*
X103770226Y-76256898D01*
X103810000Y-76056939D01*
X103810000Y-75853061D01*
X103789501Y-75750000D01*
X104021928Y-75750000D01*
X104021928Y-78150000D01*
X104034188Y-78274482D01*
X104070498Y-78394180D01*
X104129463Y-78504494D01*
X104208815Y-78601185D01*
X104305506Y-78680537D01*
X104415820Y-78739502D01*
X104535518Y-78775812D01*
X104660000Y-78788072D01*
X105400000Y-78788072D01*
X105524482Y-78775812D01*
X105644180Y-78739502D01*
X105665000Y-78728373D01*
X105685820Y-78739502D01*
X105805518Y-78775812D01*
X105930000Y-78788072D01*
X106670000Y-78788072D01*
X106794482Y-78775812D01*
X106914180Y-78739502D01*
X106935000Y-78728373D01*
X106955820Y-78739502D01*
X107075518Y-78775812D01*
X107200000Y-78788072D01*
X107940000Y-78788072D01*
X108040390Y-78778185D01*
X108065026Y-78824276D01*
X108126731Y-78899463D01*
X108160000Y-78940001D01*
X108188997Y-78963798D01*
X108271761Y-79046562D01*
X108225820Y-79060498D01*
X108205000Y-79071627D01*
X108184180Y-79060498D01*
X108064482Y-79024188D01*
X107940000Y-79011928D01*
X107855750Y-79015000D01*
X107697000Y-79173750D01*
X107697000Y-80723000D01*
X108713000Y-80723000D01*
X108713000Y-80703000D01*
X108967000Y-80703000D01*
X108967000Y-80723000D01*
X108987000Y-80723000D01*
X108987000Y-80977000D01*
X108967000Y-80977000D01*
X108967000Y-82526250D01*
X109125750Y-82685000D01*
X109210000Y-82688072D01*
X109334482Y-82675812D01*
X109454180Y-82639502D01*
X109475000Y-82628373D01*
X109495820Y-82639502D01*
X109615518Y-82675812D01*
X109740000Y-82688072D01*
X110480000Y-82688072D01*
X110604482Y-82675812D01*
X110724180Y-82639502D01*
X110834494Y-82580537D01*
X110931185Y-82501185D01*
X111010537Y-82404494D01*
X111069502Y-82294180D01*
X111105812Y-82174482D01*
X111118072Y-82050000D01*
X111118072Y-81783081D01*
X111268102Y-81845226D01*
X111468061Y-81885000D01*
X111671939Y-81885000D01*
X111871898Y-81845226D01*
X112060256Y-81767205D01*
X112229774Y-81653937D01*
X112373937Y-81509774D01*
X112487205Y-81340256D01*
X112565226Y-81151898D01*
X112605000Y-80951939D01*
X112605000Y-80748061D01*
X112565226Y-80548102D01*
X112487205Y-80359744D01*
X112373937Y-80190226D01*
X112229774Y-80046063D01*
X112060256Y-79932795D01*
X111871898Y-79854774D01*
X111671939Y-79815000D01*
X111468061Y-79815000D01*
X111268102Y-79854774D01*
X111118072Y-79916919D01*
X111118072Y-79650000D01*
X111105812Y-79525518D01*
X111070770Y-79410000D01*
X114277203Y-79410000D01*
X114219053Y-79518791D01*
X114168872Y-79684215D01*
X114151928Y-79856250D01*
X114151928Y-80343750D01*
X114168872Y-80515785D01*
X114219053Y-80681209D01*
X114300542Y-80833664D01*
X114410208Y-80967292D01*
X114543836Y-81076958D01*
X114696291Y-81158447D01*
X114861715Y-81208628D01*
X114871716Y-81209613D01*
X114925379Y-81275000D01*
X114950000Y-81305001D01*
X114978998Y-81328799D01*
X115725000Y-82074802D01*
X115725000Y-82136939D01*
X115764774Y-82336898D01*
X115842795Y-82525256D01*
X115956063Y-82694774D01*
X116100226Y-82838937D01*
X116269744Y-82952205D01*
X116458102Y-83030226D01*
X116658061Y-83070000D01*
X116861939Y-83070000D01*
X117061898Y-83030226D01*
X117250256Y-82952205D01*
X117419774Y-82838937D01*
X117563937Y-82694774D01*
X117677205Y-82525256D01*
X117755226Y-82336898D01*
X117795000Y-82136939D01*
X117795000Y-82074801D01*
X118541003Y-81328799D01*
X118570001Y-81305001D01*
X118648284Y-81209613D01*
X118658285Y-81208628D01*
X118823709Y-81158447D01*
X118976164Y-81076958D01*
X119109792Y-80967292D01*
X119219458Y-80833664D01*
X119300947Y-80681209D01*
X119351128Y-80515785D01*
X119359589Y-80429872D01*
X158935000Y-80429872D01*
X158935000Y-80870128D01*
X159020890Y-81301925D01*
X159189369Y-81708669D01*
X159433962Y-82074729D01*
X159745271Y-82386038D01*
X160111331Y-82630631D01*
X160518075Y-82799110D01*
X160949872Y-82885000D01*
X161390128Y-82885000D01*
X161821925Y-82799110D01*
X162228669Y-82630631D01*
X162594729Y-82386038D01*
X162906038Y-82074729D01*
X163150631Y-81708669D01*
X163319110Y-81301925D01*
X163405000Y-80870128D01*
X163405000Y-80429872D01*
X163319110Y-79998075D01*
X163150631Y-79591331D01*
X162906038Y-79225271D01*
X162594729Y-78913962D01*
X162228669Y-78669369D01*
X161821925Y-78500890D01*
X161390128Y-78415000D01*
X160949872Y-78415000D01*
X160518075Y-78500890D01*
X160111331Y-78669369D01*
X159745271Y-78913962D01*
X159433962Y-79225271D01*
X159189369Y-79591331D01*
X159020890Y-79998075D01*
X158935000Y-80429872D01*
X119359589Y-80429872D01*
X119368072Y-80343750D01*
X119368072Y-79856250D01*
X119351128Y-79684215D01*
X119300947Y-79518791D01*
X119219458Y-79366336D01*
X119109792Y-79232708D01*
X119024244Y-79162500D01*
X119109792Y-79092292D01*
X119219458Y-78958664D01*
X119300947Y-78806209D01*
X119308772Y-78780413D01*
X121519192Y-78780413D01*
X121614956Y-79044814D01*
X121904571Y-79185704D01*
X122216108Y-79267384D01*
X122537595Y-79286718D01*
X122856675Y-79242961D01*
X123161088Y-79137795D01*
X123335044Y-79044814D01*
X123430808Y-78780413D01*
X128019192Y-78780413D01*
X128114956Y-79044814D01*
X128404571Y-79185704D01*
X128716108Y-79267384D01*
X129037595Y-79286718D01*
X129356675Y-79242961D01*
X129661088Y-79137795D01*
X129835044Y-79044814D01*
X129930808Y-78780413D01*
X128975000Y-77824605D01*
X128019192Y-78780413D01*
X123430808Y-78780413D01*
X122475000Y-77824605D01*
X121519192Y-78780413D01*
X119308772Y-78780413D01*
X119351128Y-78640785D01*
X119368072Y-78468750D01*
X119368072Y-77981250D01*
X119351128Y-77809215D01*
X119320302Y-77707595D01*
X120833282Y-77707595D01*
X120877039Y-78026675D01*
X120982205Y-78331088D01*
X121075186Y-78505044D01*
X121339587Y-78600808D01*
X122295395Y-77645000D01*
X122654605Y-77645000D01*
X123610413Y-78600808D01*
X123874814Y-78505044D01*
X124015704Y-78215429D01*
X124097384Y-77903892D01*
X124109189Y-77707595D01*
X127333282Y-77707595D01*
X127377039Y-78026675D01*
X127482205Y-78331088D01*
X127575186Y-78505044D01*
X127839587Y-78600808D01*
X128795395Y-77645000D01*
X129154605Y-77645000D01*
X130110413Y-78600808D01*
X130374814Y-78505044D01*
X130515704Y-78215429D01*
X130597384Y-77903892D01*
X130616718Y-77582405D01*
X130572961Y-77263325D01*
X130467795Y-76958912D01*
X130374814Y-76784956D01*
X130110413Y-76689192D01*
X129154605Y-77645000D01*
X128795395Y-77645000D01*
X127839587Y-76689192D01*
X127575186Y-76784956D01*
X127434296Y-77074571D01*
X127352616Y-77386108D01*
X127333282Y-77707595D01*
X124109189Y-77707595D01*
X124116718Y-77582405D01*
X124072961Y-77263325D01*
X123967795Y-76958912D01*
X123874814Y-76784956D01*
X123610413Y-76689192D01*
X122654605Y-77645000D01*
X122295395Y-77645000D01*
X121339587Y-76689192D01*
X121075186Y-76784956D01*
X120934296Y-77074571D01*
X120852616Y-77386108D01*
X120833282Y-77707595D01*
X119320302Y-77707595D01*
X119300947Y-77643791D01*
X119219458Y-77491336D01*
X119109792Y-77357708D01*
X118976164Y-77248042D01*
X118823709Y-77166553D01*
X118790000Y-77156327D01*
X118790000Y-76509587D01*
X121519192Y-76509587D01*
X122475000Y-77465395D01*
X123430808Y-76509587D01*
X128019192Y-76509587D01*
X128975000Y-77465395D01*
X129930808Y-76509587D01*
X129835044Y-76245186D01*
X129545429Y-76104296D01*
X129233892Y-76022616D01*
X128912405Y-76003282D01*
X128593325Y-76047039D01*
X128288912Y-76152205D01*
X128114956Y-76245186D01*
X128019192Y-76509587D01*
X123430808Y-76509587D01*
X123335044Y-76245186D01*
X123045429Y-76104296D01*
X122733892Y-76022616D01*
X122412405Y-76003282D01*
X122093325Y-76047039D01*
X121788912Y-76152205D01*
X121614956Y-76245186D01*
X121519192Y-76509587D01*
X118790000Y-76509587D01*
X118790000Y-76328178D01*
X118976632Y-76203475D01*
X119183475Y-75996632D01*
X119345990Y-75753411D01*
X119457932Y-75483158D01*
X119515000Y-75196260D01*
X119515000Y-74903740D01*
X119471209Y-74683592D01*
X120249802Y-73905000D01*
X121020091Y-73905000D01*
X121026082Y-73919463D01*
X121205013Y-74187252D01*
X121432748Y-74414987D01*
X121700537Y-74593918D01*
X121998088Y-74717168D01*
X122313967Y-74780000D01*
X122636033Y-74780000D01*
X122951912Y-74717168D01*
X123249463Y-74593918D01*
X123517252Y-74414987D01*
X123744987Y-74187252D01*
X123923918Y-73919463D01*
X123929909Y-73905000D01*
X127520091Y-73905000D01*
X127526082Y-73919463D01*
X127705013Y-74187252D01*
X127932748Y-74414987D01*
X128200537Y-74593918D01*
X128498088Y-74717168D01*
X128813967Y-74780000D01*
X129136033Y-74780000D01*
X129451912Y-74717168D01*
X129749463Y-74593918D01*
X129906533Y-74488967D01*
X140285000Y-74488967D01*
X140285000Y-74811033D01*
X140347832Y-75126912D01*
X140471082Y-75424463D01*
X140650013Y-75692252D01*
X140877748Y-75919987D01*
X141145537Y-76098918D01*
X141443088Y-76222168D01*
X141758967Y-76285000D01*
X142081033Y-76285000D01*
X142396912Y-76222168D01*
X142694463Y-76098918D01*
X142962252Y-75919987D01*
X143096826Y-75785413D01*
X143464192Y-75785413D01*
X143559956Y-76049814D01*
X143849571Y-76190704D01*
X144161108Y-76272384D01*
X144482595Y-76291718D01*
X144801675Y-76247961D01*
X145106088Y-76142795D01*
X145280044Y-76049814D01*
X145375808Y-75785413D01*
X144420000Y-74829605D01*
X143464192Y-75785413D01*
X143096826Y-75785413D01*
X143189987Y-75692252D01*
X143254925Y-75595065D01*
X143284587Y-75605808D01*
X144240395Y-74650000D01*
X144599605Y-74650000D01*
X145555413Y-75605808D01*
X145585075Y-75595065D01*
X145650013Y-75692252D01*
X145877748Y-75919987D01*
X146145537Y-76098918D01*
X146443088Y-76222168D01*
X146758967Y-76285000D01*
X147081033Y-76285000D01*
X147396912Y-76222168D01*
X147694463Y-76098918D01*
X147962252Y-75919987D01*
X148189987Y-75692252D01*
X148368918Y-75424463D01*
X148492168Y-75126912D01*
X148555000Y-74811033D01*
X148555000Y-74488967D01*
X148492168Y-74173088D01*
X148368918Y-73875537D01*
X148189987Y-73607748D01*
X147962252Y-73380013D01*
X147694463Y-73201082D01*
X147396912Y-73077832D01*
X147081033Y-73015000D01*
X146758967Y-73015000D01*
X146443088Y-73077832D01*
X146145537Y-73201082D01*
X145877748Y-73380013D01*
X145650013Y-73607748D01*
X145585075Y-73704935D01*
X145555413Y-73694192D01*
X144599605Y-74650000D01*
X144240395Y-74650000D01*
X143284587Y-73694192D01*
X143254925Y-73704935D01*
X143189987Y-73607748D01*
X143096826Y-73514587D01*
X143464192Y-73514587D01*
X144420000Y-74470395D01*
X145375808Y-73514587D01*
X145280044Y-73250186D01*
X144990429Y-73109296D01*
X144678892Y-73027616D01*
X144357405Y-73008282D01*
X144038325Y-73052039D01*
X143733912Y-73157205D01*
X143559956Y-73250186D01*
X143464192Y-73514587D01*
X143096826Y-73514587D01*
X142962252Y-73380013D01*
X142694463Y-73201082D01*
X142396912Y-73077832D01*
X142081033Y-73015000D01*
X141758967Y-73015000D01*
X141443088Y-73077832D01*
X141145537Y-73201082D01*
X140877748Y-73380013D01*
X140650013Y-73607748D01*
X140471082Y-73875537D01*
X140347832Y-74173088D01*
X140285000Y-74488967D01*
X129906533Y-74488967D01*
X130017252Y-74414987D01*
X130244987Y-74187252D01*
X130423918Y-73919463D01*
X130547168Y-73621912D01*
X130610000Y-73306033D01*
X130610000Y-72983967D01*
X130547168Y-72668088D01*
X130423918Y-72370537D01*
X130261901Y-72128061D01*
X137035000Y-72128061D01*
X137035000Y-72331939D01*
X137074774Y-72531898D01*
X137152795Y-72720256D01*
X137266063Y-72889774D01*
X137410226Y-73033937D01*
X137579744Y-73147205D01*
X137768102Y-73225226D01*
X137968061Y-73265000D01*
X138171939Y-73265000D01*
X138371898Y-73225226D01*
X138560256Y-73147205D01*
X138729774Y-73033937D01*
X138773711Y-72990000D01*
X139906289Y-72990000D01*
X139950226Y-73033937D01*
X140119744Y-73147205D01*
X140308102Y-73225226D01*
X140508061Y-73265000D01*
X140711939Y-73265000D01*
X140911898Y-73225226D01*
X141100256Y-73147205D01*
X141269774Y-73033937D01*
X141413937Y-72889774D01*
X141527205Y-72720256D01*
X141605226Y-72531898D01*
X141645000Y-72331939D01*
X141645000Y-72128061D01*
X141605226Y-71928102D01*
X141527205Y-71739744D01*
X141413937Y-71570226D01*
X141269774Y-71426063D01*
X141100256Y-71312795D01*
X140911898Y-71234774D01*
X140711939Y-71195000D01*
X140508061Y-71195000D01*
X140308102Y-71234774D01*
X140119744Y-71312795D01*
X139950226Y-71426063D01*
X139906289Y-71470000D01*
X138773711Y-71470000D01*
X138729774Y-71426063D01*
X138560256Y-71312795D01*
X138371898Y-71234774D01*
X138171939Y-71195000D01*
X137968061Y-71195000D01*
X137768102Y-71234774D01*
X137579744Y-71312795D01*
X137410226Y-71426063D01*
X137266063Y-71570226D01*
X137152795Y-71739744D01*
X137074774Y-71928102D01*
X137035000Y-72128061D01*
X130261901Y-72128061D01*
X130244987Y-72102748D01*
X130017252Y-71875013D01*
X129749463Y-71696082D01*
X129451912Y-71572832D01*
X129136033Y-71510000D01*
X128813967Y-71510000D01*
X128498088Y-71572832D01*
X128200537Y-71696082D01*
X127932748Y-71875013D01*
X127705013Y-72102748D01*
X127526082Y-72370537D01*
X127520091Y-72385000D01*
X123929909Y-72385000D01*
X123923918Y-72370537D01*
X123744987Y-72102748D01*
X123517252Y-71875013D01*
X123249463Y-71696082D01*
X122951912Y-71572832D01*
X122636033Y-71510000D01*
X122313967Y-71510000D01*
X121998088Y-71572832D01*
X121700537Y-71696082D01*
X121432748Y-71875013D01*
X121205013Y-72102748D01*
X121026082Y-72370537D01*
X121020091Y-72385000D01*
X119972323Y-72385000D01*
X119935000Y-72381324D01*
X119897677Y-72385000D01*
X119897667Y-72385000D01*
X119786014Y-72395997D01*
X119642753Y-72439454D01*
X119510724Y-72510026D01*
X119394999Y-72604999D01*
X119371201Y-72633997D01*
X118396408Y-73608791D01*
X118176260Y-73565000D01*
X117883740Y-73565000D01*
X117596842Y-73622068D01*
X117326589Y-73734010D01*
X117083368Y-73896525D01*
X116876525Y-74103368D01*
X116760000Y-74277760D01*
X116643475Y-74103368D01*
X116436632Y-73896525D01*
X116193411Y-73734010D01*
X115923158Y-73622068D01*
X115636260Y-73565000D01*
X115343740Y-73565000D01*
X115056842Y-73622068D01*
X114786589Y-73734010D01*
X114543368Y-73896525D01*
X114411513Y-74028380D01*
X114389502Y-73955820D01*
X114330537Y-73845506D01*
X114251185Y-73748815D01*
X114154494Y-73669463D01*
X114044180Y-73610498D01*
X113924482Y-73574188D01*
X113800000Y-73561928D01*
X112100000Y-73561928D01*
X111975518Y-73574188D01*
X111855820Y-73610498D01*
X111745506Y-73669463D01*
X111648815Y-73748815D01*
X111569463Y-73845506D01*
X111510498Y-73955820D01*
X111474188Y-74075518D01*
X111461928Y-74200000D01*
X111461928Y-75900000D01*
X111474188Y-76024482D01*
X111510498Y-76144180D01*
X111534990Y-76190000D01*
X111118072Y-76190000D01*
X111118072Y-75750000D01*
X111105812Y-75625518D01*
X111069502Y-75505820D01*
X111010537Y-75395506D01*
X110931185Y-75298815D01*
X110834494Y-75219463D01*
X110724180Y-75160498D01*
X110604482Y-75124188D01*
X110480000Y-75111928D01*
X110205000Y-75111928D01*
X110205000Y-74948061D01*
X110165226Y-74748102D01*
X110087205Y-74559744D01*
X109973937Y-74390226D01*
X109829774Y-74246063D01*
X109660256Y-74132795D01*
X109471898Y-74054774D01*
X109271939Y-74015000D01*
X109068061Y-74015000D01*
X108868102Y-74054774D01*
X108679744Y-74132795D01*
X108510226Y-74246063D01*
X108466289Y-74290000D01*
X105377322Y-74290000D01*
X105339999Y-74286324D01*
X105302676Y-74290000D01*
X105302667Y-74290000D01*
X105191014Y-74300997D01*
X105057725Y-74341429D01*
X105047753Y-74344454D01*
X104915723Y-74415026D01*
X104873146Y-74449969D01*
X104799999Y-74509999D01*
X104776196Y-74539003D01*
X104379003Y-74936196D01*
X104349999Y-74959999D01*
X104300758Y-75020000D01*
X104255026Y-75075724D01*
X104214756Y-75151063D01*
X104184454Y-75207754D01*
X104140997Y-75351015D01*
X104137590Y-75385603D01*
X104129463Y-75395506D01*
X104070498Y-75505820D01*
X104034188Y-75625518D01*
X104021928Y-75750000D01*
X103789501Y-75750000D01*
X103770226Y-75653102D01*
X103692205Y-75464744D01*
X103578937Y-75295226D01*
X103434774Y-75151063D01*
X103265256Y-75037795D01*
X103076898Y-74959774D01*
X102876939Y-74920000D01*
X102673061Y-74920000D01*
X102473102Y-74959774D01*
X102327705Y-75020000D01*
X101606993Y-75020000D01*
X101587469Y-74983475D01*
X101651185Y-74931185D01*
X101730537Y-74834494D01*
X101789502Y-74724180D01*
X101825812Y-74604482D01*
X101838072Y-74480000D01*
X101835000Y-74065750D01*
X101676250Y-73907000D01*
X100839500Y-73907000D01*
X100839500Y-73927000D01*
X100585500Y-73927000D01*
X100585500Y-73907000D01*
X100565500Y-73907000D01*
X100565500Y-73653000D01*
X100585500Y-73653000D01*
X100585500Y-72603750D01*
X100839500Y-72603750D01*
X100839500Y-73653000D01*
X101676250Y-73653000D01*
X101835000Y-73494250D01*
X101838072Y-73080000D01*
X101825812Y-72955518D01*
X101789502Y-72835820D01*
X101730537Y-72725506D01*
X101651185Y-72628815D01*
X101554494Y-72549463D01*
X101444180Y-72490498D01*
X101324482Y-72454188D01*
X101200000Y-72441928D01*
X100998250Y-72445000D01*
X100839500Y-72603750D01*
X100585500Y-72603750D01*
X100426750Y-72445000D01*
X100225000Y-72441928D01*
X100100518Y-72454188D01*
X99980820Y-72490498D01*
X99870506Y-72549463D01*
X99773815Y-72628815D01*
X99710008Y-72706564D01*
X99704792Y-72700208D01*
X99571164Y-72590542D01*
X99418709Y-72509053D01*
X99253285Y-72458872D01*
X99081250Y-72441928D01*
X98593750Y-72441928D01*
X98421715Y-72458872D01*
X98256291Y-72509053D01*
X98103836Y-72590542D01*
X97970208Y-72700208D01*
X97860542Y-72833836D01*
X97813226Y-72922358D01*
X96158072Y-71267205D01*
X96158072Y-71035413D01*
X155714192Y-71035413D01*
X155809956Y-71299814D01*
X156099571Y-71440704D01*
X156411108Y-71522384D01*
X156732595Y-71541718D01*
X157051675Y-71497961D01*
X157356088Y-71392795D01*
X157530044Y-71299814D01*
X157625808Y-71035413D01*
X162214192Y-71035413D01*
X162309956Y-71299814D01*
X162599571Y-71440704D01*
X162911108Y-71522384D01*
X163232595Y-71541718D01*
X163551675Y-71497961D01*
X163856088Y-71392795D01*
X164030044Y-71299814D01*
X164125808Y-71035413D01*
X163170000Y-70079605D01*
X162214192Y-71035413D01*
X157625808Y-71035413D01*
X156670000Y-70079605D01*
X155714192Y-71035413D01*
X96158072Y-71035413D01*
X96158072Y-70110000D01*
X96145812Y-69985518D01*
X96109502Y-69865820D01*
X96050537Y-69755506D01*
X95971185Y-69658815D01*
X95874494Y-69579463D01*
X95764180Y-69520498D01*
X95691620Y-69498487D01*
X95823475Y-69366632D01*
X95985990Y-69123411D01*
X96097932Y-68853158D01*
X96155000Y-68566260D01*
X96155000Y-68273740D01*
X96122430Y-68110000D01*
X97227095Y-68110000D01*
X97263200Y-68113556D01*
X97299305Y-68110000D01*
X97407285Y-68099365D01*
X97545833Y-68057337D01*
X97673520Y-67989087D01*
X97785438Y-67897238D01*
X97808459Y-67869187D01*
X97860503Y-67817143D01*
X97774010Y-67946589D01*
X97662068Y-68216842D01*
X97605000Y-68503740D01*
X97605000Y-68796260D01*
X97662068Y-69083158D01*
X97774010Y-69353411D01*
X97936525Y-69596632D01*
X98143368Y-69803475D01*
X98386589Y-69965990D01*
X98656842Y-70077932D01*
X98943740Y-70135000D01*
X99236260Y-70135000D01*
X99523158Y-70077932D01*
X99793411Y-69965990D01*
X100036632Y-69803475D01*
X100243475Y-69596632D01*
X100360000Y-69422240D01*
X100476525Y-69596632D01*
X100683368Y-69803475D01*
X100926589Y-69965990D01*
X101196842Y-70077932D01*
X101483740Y-70135000D01*
X101776260Y-70135000D01*
X102063158Y-70077932D01*
X102333411Y-69965990D01*
X102576632Y-69803475D01*
X102708487Y-69671620D01*
X102730498Y-69744180D01*
X102789463Y-69854494D01*
X102868815Y-69951185D01*
X102965506Y-70030537D01*
X103075820Y-70089502D01*
X103195518Y-70125812D01*
X103320000Y-70138072D01*
X105020000Y-70138072D01*
X105144482Y-70125812D01*
X105264180Y-70089502D01*
X105374494Y-70030537D01*
X105457281Y-69962595D01*
X155028282Y-69962595D01*
X155072039Y-70281675D01*
X155177205Y-70586088D01*
X155270186Y-70760044D01*
X155534587Y-70855808D01*
X156490395Y-69900000D01*
X156849605Y-69900000D01*
X157805413Y-70855808D01*
X158069814Y-70760044D01*
X158210704Y-70470429D01*
X158292384Y-70158892D01*
X158304189Y-69962595D01*
X161528282Y-69962595D01*
X161572039Y-70281675D01*
X161677205Y-70586088D01*
X161770186Y-70760044D01*
X162034587Y-70855808D01*
X162990395Y-69900000D01*
X162034587Y-68944192D01*
X161770186Y-69039956D01*
X161629296Y-69329571D01*
X161547616Y-69641108D01*
X161528282Y-69962595D01*
X158304189Y-69962595D01*
X158311718Y-69837405D01*
X158267961Y-69518325D01*
X158162795Y-69213912D01*
X158069814Y-69039956D01*
X157805413Y-68944192D01*
X156849605Y-69900000D01*
X156490395Y-69900000D01*
X155534587Y-68944192D01*
X155270186Y-69039956D01*
X155129296Y-69329571D01*
X155047616Y-69641108D01*
X155028282Y-69962595D01*
X105457281Y-69962595D01*
X105471185Y-69951185D01*
X105550537Y-69854494D01*
X105609502Y-69744180D01*
X105645812Y-69624482D01*
X105658072Y-69500000D01*
X105658072Y-67800000D01*
X105645812Y-67675518D01*
X105609502Y-67555820D01*
X105550537Y-67445506D01*
X105471185Y-67348815D01*
X105374494Y-67269463D01*
X105264180Y-67210498D01*
X105144482Y-67174188D01*
X105020000Y-67161928D01*
X103320000Y-67161928D01*
X103195518Y-67174188D01*
X103075820Y-67210498D01*
X102965506Y-67269463D01*
X102868815Y-67348815D01*
X102789463Y-67445506D01*
X102730498Y-67555820D01*
X102708487Y-67628380D01*
X102576632Y-67496525D01*
X102333411Y-67334010D01*
X102063158Y-67222068D01*
X101776260Y-67165000D01*
X101483740Y-67165000D01*
X101196842Y-67222068D01*
X100926589Y-67334010D01*
X100683368Y-67496525D01*
X100476525Y-67703368D01*
X100360000Y-67877760D01*
X100243475Y-67703368D01*
X100036632Y-67496525D01*
X99793411Y-67334010D01*
X99523158Y-67222068D01*
X99236260Y-67165000D01*
X98943740Y-67165000D01*
X98656842Y-67222068D01*
X98386589Y-67334010D01*
X98257143Y-67420503D01*
X104277647Y-61400000D01*
X104918918Y-61400000D01*
X104839744Y-61432795D01*
X104670226Y-61546063D01*
X104526063Y-61690226D01*
X104412795Y-61859744D01*
X104334774Y-62048102D01*
X104295000Y-62248061D01*
X104295000Y-62451939D01*
X104334774Y-62651898D01*
X104412795Y-62840256D01*
X104526063Y-63009774D01*
X104670226Y-63153937D01*
X104839744Y-63267205D01*
X105028102Y-63345226D01*
X105228061Y-63385000D01*
X105431939Y-63385000D01*
X105631898Y-63345226D01*
X105820256Y-63267205D01*
X105989774Y-63153937D01*
X106032067Y-63111644D01*
X106035000Y-63304250D01*
X106193750Y-63463000D01*
X107243000Y-63463000D01*
X107243000Y-63443000D01*
X107497000Y-63443000D01*
X107497000Y-63463000D01*
X107517000Y-63463000D01*
X107517000Y-63717000D01*
X107497000Y-63717000D01*
X107497000Y-63737000D01*
X107243000Y-63737000D01*
X107243000Y-63717000D01*
X106193750Y-63717000D01*
X106035000Y-63875750D01*
X106031928Y-64077500D01*
X106038819Y-64147470D01*
X105956063Y-64230226D01*
X105842795Y-64399744D01*
X105764774Y-64588102D01*
X105725000Y-64788061D01*
X105725000Y-64991939D01*
X105764774Y-65191898D01*
X105842795Y-65380256D01*
X105849307Y-65390002D01*
X105842795Y-65399747D01*
X105764774Y-65588105D01*
X105725000Y-65788064D01*
X105725000Y-65991942D01*
X105764774Y-66191901D01*
X105842795Y-66380259D01*
X105849307Y-66390005D01*
X105842795Y-66399750D01*
X105764774Y-66588108D01*
X105725000Y-66788067D01*
X105725000Y-66991945D01*
X105764774Y-67191904D01*
X105842795Y-67380262D01*
X105956063Y-67549780D01*
X106100226Y-67693943D01*
X106269744Y-67807211D01*
X106458102Y-67885232D01*
X106658061Y-67925006D01*
X106861939Y-67925006D01*
X107061898Y-67885232D01*
X107250256Y-67807211D01*
X107419774Y-67693943D01*
X107563937Y-67549780D01*
X107677205Y-67380262D01*
X107755226Y-67191904D01*
X107788786Y-67023185D01*
X109413554Y-65398418D01*
X109440506Y-65420537D01*
X109550820Y-65479502D01*
X109670518Y-65515812D01*
X109760001Y-65524625D01*
X109760000Y-66362677D01*
X109756324Y-66400000D01*
X109760000Y-66437322D01*
X109760000Y-66437332D01*
X109770997Y-66548985D01*
X109799324Y-66642367D01*
X109814454Y-66692246D01*
X109885026Y-66824276D01*
X109908404Y-66852762D01*
X109979999Y-66940001D01*
X110009003Y-66963804D01*
X111206201Y-68161003D01*
X111229999Y-68190001D01*
X111258997Y-68213799D01*
X111345723Y-68284974D01*
X111458496Y-68345253D01*
X111477753Y-68355546D01*
X111621014Y-68399003D01*
X111732667Y-68410000D01*
X111732677Y-68410000D01*
X111770000Y-68413676D01*
X111807323Y-68410000D01*
X120266289Y-68410000D01*
X120310226Y-68453937D01*
X120479744Y-68567205D01*
X120668102Y-68645226D01*
X120868061Y-68685000D01*
X121071939Y-68685000D01*
X121271898Y-68645226D01*
X121460256Y-68567205D01*
X121629774Y-68453937D01*
X121773937Y-68309774D01*
X121887205Y-68140256D01*
X121965226Y-67951898D01*
X122005000Y-67751939D01*
X122005000Y-67548061D01*
X121965226Y-67348102D01*
X121887205Y-67159744D01*
X121773937Y-66990226D01*
X121629774Y-66846063D01*
X121460256Y-66732795D01*
X121271898Y-66654774D01*
X121071939Y-66615000D01*
X120868061Y-66615000D01*
X120668102Y-66654774D01*
X120479744Y-66732795D01*
X120310226Y-66846063D01*
X120266289Y-66890000D01*
X119247623Y-66890000D01*
X119321898Y-66875226D01*
X119510256Y-66797205D01*
X119679774Y-66683937D01*
X119823937Y-66539774D01*
X119937205Y-66370256D01*
X119963239Y-66307404D01*
X137455000Y-66307404D01*
X137455000Y-67992597D01*
X137482275Y-68269524D01*
X137590062Y-68624848D01*
X137765098Y-68952317D01*
X138000656Y-69239345D01*
X138287684Y-69474903D01*
X138615153Y-69649939D01*
X138970477Y-69757725D01*
X139340000Y-69794120D01*
X139709524Y-69757725D01*
X140064848Y-69649939D01*
X140392317Y-69474903D01*
X140679345Y-69239345D01*
X140914903Y-68952317D01*
X141089939Y-68624848D01*
X141197725Y-68269524D01*
X141225000Y-67992597D01*
X141225000Y-66307403D01*
X147615000Y-66307403D01*
X147615000Y-67992596D01*
X147642275Y-68269523D01*
X147750061Y-68624847D01*
X147925097Y-68952317D01*
X148160655Y-69239345D01*
X148447683Y-69474903D01*
X148775152Y-69649939D01*
X149130476Y-69757725D01*
X149500000Y-69794120D01*
X149869523Y-69757725D01*
X150224847Y-69649939D01*
X150552317Y-69474903D01*
X150839345Y-69239345D01*
X151074903Y-68952317D01*
X151175246Y-68764587D01*
X155714192Y-68764587D01*
X156670000Y-69720395D01*
X157625808Y-68764587D01*
X162214192Y-68764587D01*
X163170000Y-69720395D01*
X164125808Y-68764587D01*
X164030044Y-68500186D01*
X163740429Y-68359296D01*
X163428892Y-68277616D01*
X163107405Y-68258282D01*
X162788325Y-68302039D01*
X162483912Y-68407205D01*
X162309956Y-68500186D01*
X162214192Y-68764587D01*
X157625808Y-68764587D01*
X157530044Y-68500186D01*
X157240429Y-68359296D01*
X156928892Y-68277616D01*
X156607405Y-68258282D01*
X156288325Y-68302039D01*
X155983912Y-68407205D01*
X155809956Y-68500186D01*
X155714192Y-68764587D01*
X151175246Y-68764587D01*
X151249939Y-68624848D01*
X151357725Y-68269524D01*
X151385000Y-67992597D01*
X151385000Y-66307403D01*
X151357725Y-66030476D01*
X151249939Y-65675152D01*
X151074903Y-65347683D01*
X150839345Y-65060655D01*
X150552317Y-64825097D01*
X150224848Y-64650061D01*
X149869524Y-64542275D01*
X149500000Y-64505880D01*
X149130477Y-64542275D01*
X148775153Y-64650061D01*
X148447684Y-64825097D01*
X148160656Y-65060655D01*
X147925098Y-65347683D01*
X147750062Y-65675152D01*
X147642275Y-66030476D01*
X147615000Y-66307403D01*
X141225000Y-66307403D01*
X141197725Y-66030476D01*
X141089939Y-65675152D01*
X140914903Y-65347683D01*
X140679345Y-65060655D01*
X140392317Y-64825097D01*
X140064847Y-64650061D01*
X139709523Y-64542275D01*
X139340000Y-64505880D01*
X138970476Y-64542275D01*
X138615152Y-64650061D01*
X138287683Y-64825097D01*
X138000655Y-65060655D01*
X137765097Y-65347683D01*
X137590061Y-65675153D01*
X137482275Y-66030477D01*
X137455000Y-66307404D01*
X119963239Y-66307404D01*
X120015226Y-66181898D01*
X120055000Y-65981939D01*
X120055000Y-65778061D01*
X120015226Y-65578102D01*
X119937205Y-65389744D01*
X119894563Y-65325926D01*
X119896043Y-65323711D01*
X119974064Y-65135353D01*
X120013838Y-64935394D01*
X120013838Y-64731516D01*
X119974064Y-64531557D01*
X119964619Y-64508754D01*
X120077205Y-64340256D01*
X120155226Y-64151898D01*
X120195000Y-63951939D01*
X120195000Y-63748061D01*
X120155226Y-63548102D01*
X120077205Y-63359744D01*
X120095147Y-63332892D01*
X120173168Y-63144534D01*
X120212942Y-62944575D01*
X120212942Y-62740697D01*
X120212420Y-62738072D01*
X120476250Y-62738072D01*
X120648285Y-62721128D01*
X120813709Y-62670947D01*
X120966164Y-62589458D01*
X121099792Y-62479792D01*
X121105008Y-62473436D01*
X121168815Y-62551185D01*
X121265506Y-62630537D01*
X121375820Y-62689502D01*
X121495518Y-62725812D01*
X121620000Y-62738072D01*
X121821750Y-62735000D01*
X121980500Y-62576250D01*
X121980500Y-61527000D01*
X122234500Y-61527000D01*
X122234500Y-62576250D01*
X122393250Y-62735000D01*
X122595000Y-62738072D01*
X122719482Y-62725812D01*
X122839180Y-62689502D01*
X122949494Y-62630537D01*
X123046185Y-62551185D01*
X123125537Y-62454494D01*
X123184502Y-62344180D01*
X123220812Y-62224482D01*
X123233072Y-62100000D01*
X123230000Y-61685750D01*
X123071250Y-61527000D01*
X122234500Y-61527000D01*
X121980500Y-61527000D01*
X121960500Y-61527000D01*
X121960500Y-61273000D01*
X121980500Y-61273000D01*
X121980500Y-60223750D01*
X122234500Y-60223750D01*
X122234500Y-61273000D01*
X123071250Y-61273000D01*
X123230000Y-61114250D01*
X123233072Y-60700000D01*
X123220812Y-60575518D01*
X123184502Y-60455820D01*
X123125537Y-60345506D01*
X123046185Y-60248815D01*
X122949494Y-60169463D01*
X122839180Y-60110498D01*
X122719482Y-60074188D01*
X122595000Y-60061928D01*
X122393250Y-60065000D01*
X122234500Y-60223750D01*
X121980500Y-60223750D01*
X121821750Y-60065000D01*
X121620000Y-60061928D01*
X121495518Y-60074188D01*
X121375820Y-60110498D01*
X121265506Y-60169463D01*
X121168815Y-60248815D01*
X121105008Y-60326564D01*
X121099792Y-60320208D01*
X120966164Y-60210542D01*
X120813709Y-60129053D01*
X120648285Y-60078872D01*
X120476250Y-60061928D01*
X119988750Y-60061928D01*
X119816715Y-60078872D01*
X119651291Y-60129053D01*
X119498836Y-60210542D01*
X119365208Y-60320208D01*
X119255542Y-60453836D01*
X119219061Y-60522087D01*
X119160256Y-60482795D01*
X118971898Y-60404774D01*
X118771939Y-60365000D01*
X118568061Y-60365000D01*
X118368102Y-60404774D01*
X118179744Y-60482795D01*
X118010226Y-60596063D01*
X117966289Y-60640000D01*
X117783072Y-60640000D01*
X117783072Y-60540000D01*
X117773223Y-60440000D01*
X117783072Y-60340000D01*
X117783072Y-59988967D01*
X140285000Y-59988967D01*
X140285000Y-60311033D01*
X140347832Y-60626912D01*
X140471082Y-60924463D01*
X140650013Y-61192252D01*
X140877748Y-61419987D01*
X141145537Y-61598918D01*
X141443088Y-61722168D01*
X141758967Y-61785000D01*
X142081033Y-61785000D01*
X142396912Y-61722168D01*
X142694463Y-61598918D01*
X142962252Y-61419987D01*
X143096826Y-61285413D01*
X145964192Y-61285413D01*
X146059956Y-61549814D01*
X146349571Y-61690704D01*
X146661108Y-61772384D01*
X146982595Y-61791718D01*
X147301675Y-61747961D01*
X147606088Y-61642795D01*
X147780044Y-61549814D01*
X147875808Y-61285413D01*
X146920000Y-60329605D01*
X145964192Y-61285413D01*
X143096826Y-61285413D01*
X143189987Y-61192252D01*
X143368918Y-60924463D01*
X143492168Y-60626912D01*
X143555000Y-60311033D01*
X143555000Y-60212595D01*
X145278282Y-60212595D01*
X145322039Y-60531675D01*
X145427205Y-60836088D01*
X145520186Y-61010044D01*
X145784587Y-61105808D01*
X146740395Y-60150000D01*
X147099605Y-60150000D01*
X148055413Y-61105808D01*
X148319814Y-61010044D01*
X148421074Y-60801891D01*
X149133519Y-60801891D01*
X149230843Y-61076252D01*
X149379822Y-61326355D01*
X149574731Y-61542588D01*
X149808080Y-61716641D01*
X150070901Y-61841825D01*
X150218110Y-61886476D01*
X150448000Y-61765155D01*
X150448000Y-60572000D01*
X149254186Y-60572000D01*
X149133519Y-60801891D01*
X148421074Y-60801891D01*
X148460704Y-60720429D01*
X148542384Y-60408892D01*
X148561675Y-60088109D01*
X149133519Y-60088109D01*
X149254186Y-60318000D01*
X150448000Y-60318000D01*
X150448000Y-59124845D01*
X150702000Y-59124845D01*
X150702000Y-60318000D01*
X150722000Y-60318000D01*
X150722000Y-60572000D01*
X150702000Y-60572000D01*
X150702000Y-61765155D01*
X150931890Y-61886476D01*
X151079099Y-61841825D01*
X151341920Y-61716641D01*
X151575269Y-61542588D01*
X151651034Y-61458534D01*
X151675498Y-61539180D01*
X151734463Y-61649494D01*
X151813815Y-61746185D01*
X151910506Y-61825537D01*
X152020820Y-61884502D01*
X152140518Y-61920812D01*
X152265000Y-61933072D01*
X153965000Y-61933072D01*
X154089482Y-61920812D01*
X154209180Y-61884502D01*
X154319494Y-61825537D01*
X154416185Y-61746185D01*
X154495537Y-61649494D01*
X154554502Y-61539180D01*
X154590812Y-61419482D01*
X154603072Y-61295000D01*
X154603072Y-59595000D01*
X154590812Y-59470518D01*
X154554502Y-59350820D01*
X154495537Y-59240506D01*
X154416185Y-59143815D01*
X154319494Y-59064463D01*
X154209180Y-59005498D01*
X154089482Y-58969188D01*
X153965000Y-58956928D01*
X152265000Y-58956928D01*
X152140518Y-58969188D01*
X152020820Y-59005498D01*
X151910506Y-59064463D01*
X151813815Y-59143815D01*
X151734463Y-59240506D01*
X151675498Y-59350820D01*
X151651034Y-59431466D01*
X151575269Y-59347412D01*
X151341920Y-59173359D01*
X151079099Y-59048175D01*
X150931890Y-59003524D01*
X150702000Y-59124845D01*
X150448000Y-59124845D01*
X150218110Y-59003524D01*
X150070901Y-59048175D01*
X149808080Y-59173359D01*
X149574731Y-59347412D01*
X149379822Y-59563645D01*
X149230843Y-59813748D01*
X149133519Y-60088109D01*
X148561675Y-60088109D01*
X148561718Y-60087405D01*
X148517961Y-59768325D01*
X148412795Y-59463912D01*
X148319814Y-59289956D01*
X148055413Y-59194192D01*
X147099605Y-60150000D01*
X146740395Y-60150000D01*
X145784587Y-59194192D01*
X145520186Y-59289956D01*
X145379296Y-59579571D01*
X145297616Y-59891108D01*
X145278282Y-60212595D01*
X143555000Y-60212595D01*
X143555000Y-59988967D01*
X143492168Y-59673088D01*
X143368918Y-59375537D01*
X143189987Y-59107748D01*
X143096826Y-59014587D01*
X145964192Y-59014587D01*
X146920000Y-59970395D01*
X147875808Y-59014587D01*
X147780044Y-58750186D01*
X147490429Y-58609296D01*
X147178892Y-58527616D01*
X146857405Y-58508282D01*
X146538325Y-58552039D01*
X146233912Y-58657205D01*
X146059956Y-58750186D01*
X145964192Y-59014587D01*
X143096826Y-59014587D01*
X142962252Y-58880013D01*
X142694463Y-58701082D01*
X142396912Y-58577832D01*
X142081033Y-58515000D01*
X141758967Y-58515000D01*
X141443088Y-58577832D01*
X141145537Y-58701082D01*
X140877748Y-58880013D01*
X140650013Y-59107748D01*
X140471082Y-59375537D01*
X140347832Y-59673088D01*
X140285000Y-59988967D01*
X117783072Y-59988967D01*
X117783072Y-59890000D01*
X117773223Y-59790000D01*
X117783072Y-59690000D01*
X117783072Y-59575000D01*
X120167678Y-59575000D01*
X120205000Y-59578676D01*
X120242322Y-59575000D01*
X120242333Y-59575000D01*
X120353986Y-59564003D01*
X120497247Y-59520546D01*
X120629276Y-59449974D01*
X120745001Y-59355001D01*
X120768804Y-59325997D01*
X120896801Y-59198000D01*
X122385827Y-59198000D01*
X122396053Y-59231709D01*
X122477542Y-59384164D01*
X122587208Y-59517792D01*
X122720836Y-59627458D01*
X122873291Y-59708947D01*
X123038715Y-59759128D01*
X123210750Y-59776072D01*
X123698250Y-59776072D01*
X123870285Y-59759128D01*
X124035709Y-59708947D01*
X124188164Y-59627458D01*
X124321792Y-59517792D01*
X124327008Y-59511436D01*
X124390815Y-59589185D01*
X124487506Y-59668537D01*
X124597820Y-59727502D01*
X124717518Y-59763812D01*
X124842000Y-59776072D01*
X125043750Y-59773000D01*
X125202500Y-59614250D01*
X125202500Y-58565000D01*
X125456500Y-58565000D01*
X125456500Y-59614250D01*
X125615250Y-59773000D01*
X125817000Y-59776072D01*
X125941482Y-59763812D01*
X126061180Y-59727502D01*
X126171494Y-59668537D01*
X126268185Y-59589185D01*
X126347537Y-59492494D01*
X126406502Y-59382180D01*
X126442812Y-59262482D01*
X126455072Y-59138000D01*
X126452000Y-58723750D01*
X126293250Y-58565000D01*
X125456500Y-58565000D01*
X125202500Y-58565000D01*
X125182500Y-58565000D01*
X125182500Y-58311000D01*
X125202500Y-58311000D01*
X125202500Y-57261750D01*
X125456500Y-57261750D01*
X125456500Y-58311000D01*
X126293250Y-58311000D01*
X126452000Y-58152250D01*
X126455072Y-57738000D01*
X126442812Y-57613518D01*
X126406502Y-57493820D01*
X126347537Y-57383506D01*
X126268185Y-57286815D01*
X126171494Y-57207463D01*
X126061180Y-57148498D01*
X125941482Y-57112188D01*
X125817000Y-57099928D01*
X125615250Y-57103000D01*
X125456500Y-57261750D01*
X125202500Y-57261750D01*
X125043750Y-57103000D01*
X124842000Y-57099928D01*
X124717518Y-57112188D01*
X124597820Y-57148498D01*
X124487506Y-57207463D01*
X124390815Y-57286815D01*
X124327008Y-57364564D01*
X124321792Y-57358208D01*
X124214500Y-57270155D01*
X124214500Y-56466667D01*
X124269463Y-56569494D01*
X124348815Y-56666185D01*
X124445506Y-56745537D01*
X124555820Y-56804502D01*
X124675518Y-56840812D01*
X124800000Y-56853072D01*
X126500000Y-56853072D01*
X126624482Y-56840812D01*
X126744180Y-56804502D01*
X126854494Y-56745537D01*
X126951185Y-56666185D01*
X127030537Y-56569494D01*
X127089502Y-56459180D01*
X127125812Y-56339482D01*
X127138072Y-56215000D01*
X127138072Y-54983061D01*
X148465000Y-54983061D01*
X148465000Y-55186939D01*
X148504774Y-55386898D01*
X148582795Y-55575256D01*
X148696063Y-55744774D01*
X148840226Y-55888937D01*
X149009744Y-56002205D01*
X149198102Y-56080226D01*
X149398061Y-56120000D01*
X149601939Y-56120000D01*
X149801898Y-56080226D01*
X149990256Y-56002205D01*
X150159774Y-55888937D01*
X150207139Y-55841572D01*
X150283986Y-55834003D01*
X150427247Y-55790546D01*
X150559276Y-55719974D01*
X150632355Y-55660000D01*
X150728928Y-55660000D01*
X150728928Y-56150000D01*
X150741188Y-56274482D01*
X150777498Y-56394180D01*
X150836463Y-56504494D01*
X150915815Y-56601185D01*
X151012506Y-56680537D01*
X151122820Y-56739502D01*
X151242518Y-56775812D01*
X151367000Y-56788072D01*
X152417000Y-56788072D01*
X152541482Y-56775812D01*
X152661180Y-56739502D01*
X152771494Y-56680537D01*
X152868185Y-56601185D01*
X152947537Y-56504494D01*
X153006502Y-56394180D01*
X153042812Y-56274482D01*
X153055072Y-56150000D01*
X153055072Y-55550000D01*
X153042812Y-55425518D01*
X153027488Y-55375000D01*
X153042812Y-55324482D01*
X153055072Y-55200000D01*
X153055072Y-54600000D01*
X153042812Y-54475518D01*
X153027488Y-54425000D01*
X153042812Y-54374482D01*
X153055072Y-54250000D01*
X153052000Y-54235750D01*
X152893250Y-54077000D01*
X152780678Y-54077000D01*
X152771494Y-54069463D01*
X152661180Y-54010498D01*
X152541482Y-53974188D01*
X152417000Y-53961928D01*
X151367000Y-53961928D01*
X151242518Y-53974188D01*
X151122820Y-54010498D01*
X151012506Y-54069463D01*
X151003322Y-54077000D01*
X150890750Y-54077000D01*
X150827750Y-54140000D01*
X150357333Y-54140000D01*
X150320000Y-54136323D01*
X150282667Y-54140000D01*
X150171014Y-54150997D01*
X150029404Y-54193953D01*
X149990256Y-54167795D01*
X149801898Y-54089774D01*
X149601939Y-54050000D01*
X149398061Y-54050000D01*
X149198102Y-54089774D01*
X149009744Y-54167795D01*
X148840226Y-54281063D01*
X148696063Y-54425226D01*
X148582795Y-54594744D01*
X148504774Y-54783102D01*
X148465000Y-54983061D01*
X127138072Y-54983061D01*
X127138072Y-54515000D01*
X127125812Y-54390518D01*
X127089502Y-54270820D01*
X127030537Y-54160506D01*
X126951185Y-54063815D01*
X126854494Y-53984463D01*
X126744180Y-53925498D01*
X126624482Y-53889188D01*
X126500000Y-53876928D01*
X124800000Y-53876928D01*
X124675518Y-53889188D01*
X124555820Y-53925498D01*
X124445506Y-53984463D01*
X124348815Y-54063815D01*
X124269463Y-54160506D01*
X124210498Y-54270820D01*
X124188487Y-54343380D01*
X124056632Y-54211525D01*
X123813411Y-54049010D01*
X123543158Y-53937068D01*
X123256260Y-53880000D01*
X122963740Y-53880000D01*
X122676842Y-53937068D01*
X122406589Y-54049010D01*
X122163368Y-54211525D01*
X121956525Y-54418368D01*
X121794010Y-54661589D01*
X121682068Y-54931842D01*
X121625000Y-55218740D01*
X121625000Y-55511260D01*
X121682068Y-55798158D01*
X121794010Y-56068411D01*
X121956525Y-56311632D01*
X122163368Y-56518475D01*
X122406589Y-56680990D01*
X122676842Y-56792932D01*
X122694501Y-56796445D01*
X122694500Y-57270155D01*
X122587208Y-57358208D01*
X122477542Y-57491836D01*
X122396053Y-57644291D01*
X122385827Y-57678000D01*
X120619333Y-57678000D01*
X120582000Y-57674323D01*
X120544667Y-57678000D01*
X120433014Y-57688997D01*
X120289753Y-57732454D01*
X120157724Y-57803026D01*
X120041999Y-57897999D01*
X120018196Y-57927003D01*
X119890199Y-58055000D01*
X117491144Y-58055000D01*
X117389180Y-58000498D01*
X117269482Y-57964188D01*
X117145000Y-57951928D01*
X116129999Y-57951928D01*
X116129999Y-57614802D01*
X117791004Y-55953798D01*
X117820001Y-55930001D01*
X117914974Y-55814276D01*
X117985546Y-55682247D01*
X118029003Y-55538986D01*
X118040000Y-55427333D01*
X118040000Y-55427324D01*
X118043676Y-55390001D01*
X118040000Y-55352678D01*
X118040000Y-54022341D01*
X118170535Y-53935120D01*
X118365120Y-53740535D01*
X118425613Y-53650000D01*
X150728928Y-53650000D01*
X150732000Y-53664250D01*
X150890750Y-53823000D01*
X151765000Y-53823000D01*
X151765000Y-53173750D01*
X152019000Y-53173750D01*
X152019000Y-53823000D01*
X152893250Y-53823000D01*
X153052000Y-53664250D01*
X153055072Y-53650000D01*
X153428928Y-53650000D01*
X153428928Y-54250000D01*
X153441188Y-54374482D01*
X153477498Y-54494180D01*
X153536463Y-54604494D01*
X153615815Y-54701185D01*
X153712506Y-54780537D01*
X153822820Y-54839502D01*
X153942518Y-54875812D01*
X154067000Y-54888072D01*
X155117000Y-54888072D01*
X155220115Y-54877916D01*
X155277231Y-54935032D01*
X155241482Y-54924188D01*
X155117000Y-54911928D01*
X154067000Y-54911928D01*
X153942518Y-54924188D01*
X153822820Y-54960498D01*
X153712506Y-55019463D01*
X153615815Y-55098815D01*
X153536463Y-55195506D01*
X153477498Y-55305820D01*
X153441188Y-55425518D01*
X153428928Y-55550000D01*
X153428928Y-56150000D01*
X153441188Y-56274482D01*
X153477498Y-56394180D01*
X153536463Y-56504494D01*
X153615815Y-56601185D01*
X153712506Y-56680537D01*
X153822820Y-56739502D01*
X153942518Y-56775812D01*
X154006001Y-56782064D01*
X154006000Y-57205289D01*
X153941063Y-57270226D01*
X153827795Y-57439744D01*
X153749774Y-57628102D01*
X153710000Y-57828061D01*
X153710000Y-58031939D01*
X153749774Y-58231898D01*
X153827795Y-58420256D01*
X153941063Y-58589774D01*
X154085226Y-58733937D01*
X154239096Y-58836749D01*
X154341724Y-58920974D01*
X154473753Y-58991546D01*
X154617014Y-59035003D01*
X154766000Y-59049677D01*
X154914985Y-59035003D01*
X155058246Y-58991546D01*
X155190275Y-58920974D01*
X155306001Y-58826001D01*
X155353366Y-58768287D01*
X155404774Y-58733937D01*
X155548937Y-58589774D01*
X155662205Y-58420256D01*
X155740226Y-58231898D01*
X155780000Y-58031939D01*
X155780000Y-57828061D01*
X155740226Y-57628102D01*
X155673981Y-57468173D01*
X155799744Y-57552205D01*
X155988102Y-57630226D01*
X156188061Y-57670000D01*
X156391939Y-57670000D01*
X156591898Y-57630226D01*
X156780256Y-57552205D01*
X156949774Y-57438937D01*
X157093937Y-57294774D01*
X157207205Y-57125256D01*
X157285226Y-56936898D01*
X157325000Y-56736939D01*
X157325000Y-56533061D01*
X157285226Y-56333102D01*
X157207205Y-56144744D01*
X157093937Y-55975226D01*
X157050000Y-55931289D01*
X157050000Y-55429872D01*
X158935000Y-55429872D01*
X158935000Y-55870128D01*
X159020890Y-56301925D01*
X159189369Y-56708669D01*
X159433962Y-57074729D01*
X159745271Y-57386038D01*
X160111331Y-57630631D01*
X160518075Y-57799110D01*
X160949872Y-57885000D01*
X161390128Y-57885000D01*
X161821925Y-57799110D01*
X162228669Y-57630631D01*
X162594729Y-57386038D01*
X162906038Y-57074729D01*
X163150631Y-56708669D01*
X163319110Y-56301925D01*
X163405000Y-55870128D01*
X163405000Y-55429872D01*
X163319110Y-54998075D01*
X163150631Y-54591331D01*
X162906038Y-54225271D01*
X162594729Y-53913962D01*
X162228669Y-53669369D01*
X161821925Y-53500890D01*
X161390128Y-53415000D01*
X160949872Y-53415000D01*
X160518075Y-53500890D01*
X160111331Y-53669369D01*
X159745271Y-53913962D01*
X159433962Y-54225271D01*
X159189369Y-54591331D01*
X159020890Y-54998075D01*
X158935000Y-55429872D01*
X157050000Y-55429872D01*
X157050000Y-54910322D01*
X157053676Y-54872999D01*
X157050000Y-54835676D01*
X157050000Y-54835667D01*
X157039003Y-54724014D01*
X156995546Y-54580753D01*
X156983215Y-54557684D01*
X156924974Y-54448723D01*
X156853799Y-54361997D01*
X156830001Y-54332999D01*
X156801003Y-54309201D01*
X155930803Y-53439002D01*
X155907001Y-53409999D01*
X155791276Y-53315026D01*
X155659247Y-53244454D01*
X155587871Y-53222803D01*
X155568185Y-53198815D01*
X155471494Y-53119463D01*
X155361180Y-53060498D01*
X155241482Y-53024188D01*
X155117000Y-53011928D01*
X154067000Y-53011928D01*
X153942518Y-53024188D01*
X153822820Y-53060498D01*
X153712506Y-53119463D01*
X153615815Y-53198815D01*
X153536463Y-53295506D01*
X153477498Y-53405820D01*
X153441188Y-53525518D01*
X153428928Y-53650000D01*
X153055072Y-53650000D01*
X153042812Y-53525518D01*
X153006502Y-53405820D01*
X152947537Y-53295506D01*
X152868185Y-53198815D01*
X152771494Y-53119463D01*
X152661180Y-53060498D01*
X152541482Y-53024188D01*
X152417000Y-53011928D01*
X152177750Y-53015000D01*
X152019000Y-53173750D01*
X151765000Y-53173750D01*
X151606250Y-53015000D01*
X151367000Y-53011928D01*
X151242518Y-53024188D01*
X151122820Y-53060498D01*
X151012506Y-53119463D01*
X150915815Y-53198815D01*
X150836463Y-53295506D01*
X150777498Y-53405820D01*
X150741188Y-53525518D01*
X150728928Y-53650000D01*
X118425613Y-53650000D01*
X118518005Y-53511727D01*
X118623314Y-53257490D01*
X118677000Y-52987592D01*
X118677000Y-52712408D01*
X118623314Y-52442510D01*
X118518005Y-52188273D01*
X118365120Y-51959465D01*
X118170535Y-51764880D01*
X117941727Y-51611995D01*
X117687490Y-51506686D01*
X117417592Y-51453000D01*
X117142408Y-51453000D01*
X116872510Y-51506686D01*
X116618273Y-51611995D01*
X116389465Y-51764880D01*
X116194880Y-51959465D01*
X116041995Y-52188273D01*
X116010000Y-52265515D01*
X115978005Y-52188273D01*
X115825120Y-51959465D01*
X115630535Y-51764880D01*
X115401727Y-51611995D01*
X115147490Y-51506686D01*
X114877592Y-51453000D01*
X114602408Y-51453000D01*
X114332510Y-51506686D01*
X114078273Y-51611995D01*
X113849465Y-51764880D01*
X113654880Y-51959465D01*
X113501995Y-52188273D01*
X113470000Y-52265515D01*
X113438005Y-52188273D01*
X113285120Y-51959465D01*
X113090535Y-51764880D01*
X112861727Y-51611995D01*
X112607490Y-51506686D01*
X112337592Y-51453000D01*
X112062408Y-51453000D01*
X111792510Y-51506686D01*
X111538273Y-51611995D01*
X111309465Y-51764880D01*
X111114880Y-51959465D01*
X110961995Y-52188273D01*
X110930000Y-52265515D01*
X110898005Y-52188273D01*
X110745120Y-51959465D01*
X110550535Y-51764880D01*
X110321727Y-51611995D01*
X110067490Y-51506686D01*
X109797592Y-51453000D01*
X109522408Y-51453000D01*
X109252510Y-51506686D01*
X108998273Y-51611995D01*
X108769465Y-51764880D01*
X108574880Y-51959465D01*
X108487659Y-52090000D01*
X103867323Y-52090000D01*
X103830000Y-52086324D01*
X103792677Y-52090000D01*
X103792667Y-52090000D01*
X103681014Y-52100997D01*
X103537753Y-52144454D01*
X103405723Y-52215026D01*
X103322083Y-52283668D01*
X103289999Y-52309999D01*
X103266201Y-52338997D01*
X102438998Y-53166201D01*
X102410000Y-53189999D01*
X102386202Y-53218997D01*
X102386201Y-53218998D01*
X102315026Y-53305724D01*
X102287079Y-53358009D01*
X102274482Y-53354188D01*
X102150000Y-53341928D01*
X101935750Y-53345000D01*
X101777000Y-53503750D01*
X101777000Y-53859407D01*
X101755219Y-53870988D01*
X101702297Y-53898655D01*
X101700563Y-53900049D01*
X101698596Y-53901095D01*
X101652263Y-53938883D01*
X101605714Y-53976310D01*
X101604283Y-53978015D01*
X101602557Y-53979423D01*
X101564461Y-54025473D01*
X101526053Y-54071246D01*
X101524980Y-54073198D01*
X101523561Y-54074913D01*
X101523000Y-54075951D01*
X101523000Y-53503750D01*
X101364250Y-53345000D01*
X101150000Y-53341928D01*
X101025518Y-53354188D01*
X100905820Y-53390498D01*
X100795506Y-53449463D01*
X100698815Y-53528815D01*
X100619463Y-53625506D01*
X100560498Y-53735820D01*
X100524188Y-53855518D01*
X100511928Y-53980000D01*
X100515000Y-54444250D01*
X100673750Y-54603000D01*
X101415000Y-54603000D01*
X101415000Y-54857000D01*
X100673750Y-54857000D01*
X100515000Y-55015750D01*
X100511928Y-55480000D01*
X100524188Y-55604482D01*
X100560498Y-55724180D01*
X100619463Y-55834494D01*
X100698815Y-55931185D01*
X100782667Y-56000000D01*
X100698815Y-56068815D01*
X100619463Y-56165506D01*
X100560498Y-56275820D01*
X100524188Y-56395518D01*
X100511928Y-56520000D01*
X100515000Y-56984250D01*
X100673750Y-57143000D01*
X101523000Y-57143000D01*
X101523000Y-56043750D01*
X101479250Y-56000000D01*
X101523000Y-55956250D01*
X101523000Y-55383740D01*
X101558883Y-55427737D01*
X101596310Y-55474286D01*
X101598015Y-55475717D01*
X101599423Y-55477443D01*
X101645473Y-55515539D01*
X101691246Y-55553947D01*
X101693198Y-55555020D01*
X101694913Y-55556439D01*
X101747461Y-55584851D01*
X101777000Y-55601091D01*
X101777000Y-55956250D01*
X101820750Y-56000000D01*
X101777000Y-56043750D01*
X101777000Y-57143000D01*
X101797000Y-57143000D01*
X101797000Y-57397000D01*
X101777000Y-57397000D01*
X101777000Y-58496250D01*
X101935750Y-58655000D01*
X102150000Y-58658072D01*
X102274482Y-58645812D01*
X102287079Y-58641991D01*
X102315026Y-58694276D01*
X102332853Y-58715998D01*
X102409999Y-58810001D01*
X102439003Y-58833804D01*
X102656196Y-59050997D01*
X102679999Y-59080001D01*
X102795724Y-59174974D01*
X102927753Y-59245546D01*
X103071014Y-59289003D01*
X103182667Y-59300000D01*
X103182675Y-59300000D01*
X103220000Y-59303676D01*
X103257325Y-59300000D01*
X106472678Y-59300000D01*
X106510000Y-59303676D01*
X106547322Y-59300000D01*
X106547333Y-59300000D01*
X106658986Y-59289003D01*
X106802247Y-59245546D01*
X106934276Y-59174974D01*
X107050001Y-59080001D01*
X107073804Y-59050997D01*
X111908430Y-54216372D01*
X112062408Y-54247000D01*
X112337592Y-54247000D01*
X112607490Y-54193314D01*
X112861727Y-54088005D01*
X113090535Y-53935120D01*
X113285120Y-53740535D01*
X113438005Y-53511727D01*
X113470000Y-53434485D01*
X113501995Y-53511727D01*
X113654880Y-53740535D01*
X113849465Y-53935120D01*
X113980001Y-54022342D01*
X113980000Y-59372677D01*
X113976324Y-59410000D01*
X113980000Y-59447322D01*
X113980000Y-59447332D01*
X113990997Y-59558985D01*
X114011768Y-59627458D01*
X114034454Y-59702246D01*
X114105026Y-59834276D01*
X114144871Y-59882826D01*
X114199999Y-59950001D01*
X114229002Y-59973803D01*
X114695198Y-60440000D01*
X114344002Y-60791197D01*
X114337957Y-60796158D01*
X114334003Y-60756014D01*
X114290546Y-60612753D01*
X114219974Y-60480724D01*
X114125001Y-60364999D01*
X114096004Y-60341202D01*
X112058804Y-58304003D01*
X112035001Y-58274999D01*
X111919276Y-58180026D01*
X111787247Y-58109454D01*
X111643986Y-58065997D01*
X111602474Y-58061908D01*
X111599494Y-58059463D01*
X111489180Y-58000498D01*
X111369482Y-57964188D01*
X111245000Y-57951928D01*
X109795000Y-57951928D01*
X109670518Y-57964188D01*
X109550820Y-58000498D01*
X109440506Y-58059463D01*
X109343815Y-58138815D01*
X109264463Y-58235506D01*
X109205498Y-58345820D01*
X109169188Y-58465518D01*
X109156928Y-58590000D01*
X109156928Y-59040000D01*
X109166777Y-59140000D01*
X109156928Y-59240000D01*
X109156928Y-59430521D01*
X109149866Y-59432663D01*
X109061305Y-59480000D01*
X103822904Y-59480000D01*
X103786799Y-59476444D01*
X103642714Y-59490635D01*
X103600686Y-59503384D01*
X103504167Y-59532663D01*
X103376480Y-59600913D01*
X103264562Y-59692762D01*
X103241546Y-59720807D01*
X96772354Y-66190000D01*
X96122430Y-66190000D01*
X96155000Y-66026260D01*
X96155000Y-65733740D01*
X96097932Y-65446842D01*
X95985990Y-65176589D01*
X95823475Y-64933368D01*
X95616632Y-64726525D01*
X95434466Y-64604805D01*
X95551355Y-64535178D01*
X95767588Y-64340269D01*
X95941641Y-64106920D01*
X96066825Y-63844099D01*
X96111476Y-63696890D01*
X95990155Y-63467000D01*
X94797000Y-63467000D01*
X94797000Y-63487000D01*
X94543000Y-63487000D01*
X94543000Y-63467000D01*
X93349845Y-63467000D01*
X93228524Y-63696890D01*
X93273175Y-63844099D01*
X93398359Y-64106920D01*
X93572412Y-64340269D01*
X93788645Y-64535178D01*
X93905534Y-64604805D01*
X93723368Y-64726525D01*
X93516525Y-64933368D01*
X93354010Y-65176589D01*
X93242068Y-65446842D01*
X93185000Y-65733740D01*
X93185000Y-66026260D01*
X93217570Y-66190000D01*
X90683923Y-66190000D01*
X90682279Y-66175000D01*
X90692500Y-66081750D01*
X90625351Y-66014601D01*
X90582300Y-65937067D01*
X90501412Y-65841657D01*
X90420006Y-65777000D01*
X90533750Y-65777000D01*
X90692500Y-65618250D01*
X90681241Y-65515526D01*
X90643021Y-65396424D01*
X90582300Y-65287067D01*
X90505310Y-65196255D01*
X90519954Y-65161742D01*
X90567500Y-64933000D01*
X90567500Y-64483000D01*
X89509500Y-64483000D01*
X89509500Y-65997000D01*
X89255500Y-65997000D01*
X89255500Y-64483000D01*
X88214750Y-64483000D01*
X88108750Y-64377000D01*
X88032963Y-64377000D01*
X88129921Y-64230533D01*
X88197500Y-64065379D01*
X88197500Y-64229000D01*
X89255500Y-64229000D01*
X89255500Y-62887639D01*
X89509500Y-62887639D01*
X89509500Y-64229000D01*
X90567500Y-64229000D01*
X90567500Y-63779000D01*
X90519954Y-63550258D01*
X90428696Y-63335187D01*
X90297234Y-63142052D01*
X90135538Y-62983110D01*
X93228524Y-62983110D01*
X93349845Y-63213000D01*
X94543000Y-63213000D01*
X94543000Y-62019186D01*
X94797000Y-62019186D01*
X94797000Y-63213000D01*
X95990155Y-63213000D01*
X96111476Y-62983110D01*
X96066825Y-62835901D01*
X95941641Y-62573080D01*
X95767588Y-62339731D01*
X95551355Y-62144822D01*
X95301252Y-61995843D01*
X95026891Y-61898519D01*
X94797000Y-62019186D01*
X94543000Y-62019186D01*
X94313109Y-61898519D01*
X94038748Y-61995843D01*
X93788645Y-62144822D01*
X93572412Y-62339731D01*
X93398359Y-62573080D01*
X93273175Y-62835901D01*
X93228524Y-62983110D01*
X90135538Y-62983110D01*
X90130619Y-62978275D01*
X89935254Y-62850150D01*
X89718647Y-62762601D01*
X89692244Y-62762197D01*
X89509500Y-62887639D01*
X89255500Y-62887639D01*
X89072756Y-62762197D01*
X89046353Y-62762601D01*
X88829746Y-62850150D01*
X88634381Y-62978275D01*
X88467766Y-63142052D01*
X88336304Y-63335187D01*
X88257158Y-63521713D01*
X88222002Y-63405820D01*
X88202179Y-63368735D01*
X88225962Y-63332391D01*
X88222091Y-63294718D01*
X88129921Y-63069467D01*
X87995578Y-62866526D01*
X87824225Y-62693693D01*
X87622446Y-62557610D01*
X87397996Y-62463507D01*
X87159500Y-62415000D01*
X86809500Y-62415000D01*
X86809500Y-65539399D01*
X86797746Y-65544150D01*
X86602381Y-65672275D01*
X86555500Y-65718357D01*
X86555500Y-62415000D01*
X86205500Y-62415000D01*
X85967004Y-62463507D01*
X85830000Y-62520947D01*
X85830000Y-58020000D01*
X100511928Y-58020000D01*
X100524188Y-58144482D01*
X100560498Y-58264180D01*
X100619463Y-58374494D01*
X100698815Y-58471185D01*
X100795506Y-58550537D01*
X100905820Y-58609502D01*
X101025518Y-58645812D01*
X101150000Y-58658072D01*
X101364250Y-58655000D01*
X101523000Y-58496250D01*
X101523000Y-57397000D01*
X100673750Y-57397000D01*
X100515000Y-57555750D01*
X100511928Y-58020000D01*
X85830000Y-58020000D01*
X85830000Y-55429872D01*
X86935000Y-55429872D01*
X86935000Y-55870128D01*
X87020890Y-56301925D01*
X87189369Y-56708669D01*
X87433962Y-57074729D01*
X87745271Y-57386038D01*
X88111331Y-57630631D01*
X88518075Y-57799110D01*
X88949872Y-57885000D01*
X89390128Y-57885000D01*
X89821925Y-57799110D01*
X90228669Y-57630631D01*
X90594729Y-57386038D01*
X90906038Y-57074729D01*
X91150631Y-56708669D01*
X91319110Y-56301925D01*
X91405000Y-55870128D01*
X91405000Y-55429872D01*
X91319110Y-54998075D01*
X91150631Y-54591331D01*
X90906038Y-54225271D01*
X90594729Y-53913962D01*
X90228669Y-53669369D01*
X89821925Y-53500890D01*
X89390128Y-53415000D01*
X88949872Y-53415000D01*
X88518075Y-53500890D01*
X88111331Y-53669369D01*
X87745271Y-53913962D01*
X87433962Y-54225271D01*
X87189369Y-54591331D01*
X87020890Y-54998075D01*
X86935000Y-55429872D01*
X85830000Y-55429872D01*
X85830000Y-50310000D01*
X164510000Y-50310000D01*
X164510001Y-69018292D01*
M02*
