G04 #@! TF.GenerationSoftware,KiCad,Pcbnew,(5.1.5)-3*
G04 #@! TF.CreationDate,2020-04-20T20:53:01-04:00*
G04 #@! TF.ProjectId,V-Naught_Display,562d4e61-7567-4687-945f-446973706c61,rev?*
G04 #@! TF.SameCoordinates,Original*
G04 #@! TF.FileFunction,Legend,Bot*
G04 #@! TF.FilePolarity,Positive*
%FSLAX46Y46*%
G04 Gerber Fmt 4.6, Leading zero omitted, Abs format (unit mm)*
G04 Created by KiCad (PCBNEW (5.1.5)-3) date 2020-04-20 20:53:01*
%MOMM*%
%LPD*%
G04 APERTURE LIST*
%ADD10C,0.150000*%
%ADD11C,0.100000*%
%ADD12C,0.120000*%
%ADD13C,0.300000*%
G04 APERTURE END LIST*
D10*
X107156428Y-70105000D02*
X107251666Y-70057380D01*
X107394523Y-70057380D01*
X107537380Y-70105000D01*
X107632619Y-70200238D01*
X107680238Y-70295476D01*
X107727857Y-70485952D01*
X107727857Y-70628809D01*
X107680238Y-70819285D01*
X107632619Y-70914523D01*
X107537380Y-71009761D01*
X107394523Y-71057380D01*
X107299285Y-71057380D01*
X107156428Y-71009761D01*
X107108809Y-70962142D01*
X107108809Y-70628809D01*
X107299285Y-70628809D01*
X106680238Y-71057380D02*
X106680238Y-70057380D01*
X106299285Y-70057380D01*
X106204047Y-70105000D01*
X106156428Y-70152619D01*
X106108809Y-70247857D01*
X106108809Y-70390714D01*
X106156428Y-70485952D01*
X106204047Y-70533571D01*
X106299285Y-70581190D01*
X106680238Y-70581190D01*
X105680238Y-71057380D02*
X105680238Y-70057380D01*
X105013571Y-70057380D02*
X104823095Y-70057380D01*
X104727857Y-70105000D01*
X104632619Y-70200238D01*
X104585000Y-70390714D01*
X104585000Y-70724047D01*
X104632619Y-70914523D01*
X104727857Y-71009761D01*
X104823095Y-71057380D01*
X105013571Y-71057380D01*
X105108809Y-71009761D01*
X105204047Y-70914523D01*
X105251666Y-70724047D01*
X105251666Y-70390714D01*
X105204047Y-70200238D01*
X105108809Y-70105000D01*
X105013571Y-70057380D01*
X102870714Y-71057380D02*
X103442142Y-71057380D01*
X103156428Y-71057380D02*
X103156428Y-70057380D01*
X103251666Y-70200238D01*
X103346904Y-70295476D01*
X103442142Y-70343095D01*
X101727857Y-70152619D02*
X101680238Y-70105000D01*
X101585000Y-70057380D01*
X101346904Y-70057380D01*
X101251666Y-70105000D01*
X101204047Y-70152619D01*
X101156428Y-70247857D01*
X101156428Y-70343095D01*
X101204047Y-70485952D01*
X101775476Y-71057380D01*
X101156428Y-71057380D01*
X100061190Y-70057380D02*
X99442142Y-70057380D01*
X99775476Y-70438333D01*
X99632619Y-70438333D01*
X99537380Y-70485952D01*
X99489761Y-70533571D01*
X99442142Y-70628809D01*
X99442142Y-70866904D01*
X99489761Y-70962142D01*
X99537380Y-71009761D01*
X99632619Y-71057380D01*
X99918333Y-71057380D01*
X100013571Y-71009761D01*
X100061190Y-70962142D01*
X92270000Y-63207142D02*
X92231904Y-63130952D01*
X92231904Y-63016666D01*
X92270000Y-62902380D01*
X92346190Y-62826190D01*
X92422380Y-62788095D01*
X92574761Y-62750000D01*
X92689047Y-62750000D01*
X92841428Y-62788095D01*
X92917619Y-62826190D01*
X92993809Y-62902380D01*
X93031904Y-63016666D01*
X93031904Y-63092857D01*
X92993809Y-63207142D01*
X92955714Y-63245238D01*
X92689047Y-63245238D01*
X92689047Y-63092857D01*
X92498571Y-63588095D02*
X93031904Y-63588095D01*
X92574761Y-63588095D02*
X92536666Y-63626190D01*
X92498571Y-63702380D01*
X92498571Y-63816666D01*
X92536666Y-63892857D01*
X92612857Y-63930952D01*
X93031904Y-63930952D01*
X93031904Y-64654761D02*
X92231904Y-64654761D01*
X92993809Y-64654761D02*
X93031904Y-64578571D01*
X93031904Y-64426190D01*
X92993809Y-64350000D01*
X92955714Y-64311904D01*
X92879523Y-64273809D01*
X92650952Y-64273809D01*
X92574761Y-64311904D01*
X92536666Y-64350000D01*
X92498571Y-64426190D01*
X92498571Y-64578571D01*
X92536666Y-64654761D01*
X93031904Y-65645238D02*
X92231904Y-65645238D01*
X92231904Y-65835714D01*
X92270000Y-65950000D01*
X92346190Y-66026190D01*
X92422380Y-66064285D01*
X92574761Y-66102380D01*
X92689047Y-66102380D01*
X92841428Y-66064285D01*
X92917619Y-66026190D01*
X92993809Y-65950000D01*
X93031904Y-65835714D01*
X93031904Y-65645238D01*
X92727142Y-66445238D02*
X92727142Y-67054761D01*
X93031904Y-66750000D02*
X92422380Y-66750000D01*
X93031904Y-68045238D02*
X92231904Y-68045238D01*
X92231904Y-68235714D01*
X92270000Y-68350000D01*
X92346190Y-68426190D01*
X92422380Y-68464285D01*
X92574761Y-68502380D01*
X92689047Y-68502380D01*
X92841428Y-68464285D01*
X92917619Y-68426190D01*
X92993809Y-68350000D01*
X93031904Y-68235714D01*
X93031904Y-68045238D01*
X92727142Y-68845238D02*
X92727142Y-69454761D01*
X92231904Y-70826190D02*
X92231904Y-70445238D01*
X92612857Y-70407142D01*
X92574761Y-70445238D01*
X92536666Y-70521428D01*
X92536666Y-70711904D01*
X92574761Y-70788095D01*
X92612857Y-70826190D01*
X92689047Y-70864285D01*
X92879523Y-70864285D01*
X92955714Y-70826190D01*
X92993809Y-70788095D01*
X93031904Y-70711904D01*
X93031904Y-70521428D01*
X92993809Y-70445238D01*
X92955714Y-70407142D01*
X92231904Y-71092857D02*
X93031904Y-71359523D01*
X92231904Y-71626190D01*
D11*
X118616428Y-57493571D02*
X118509285Y-57529285D01*
X118330714Y-57529285D01*
X118259285Y-57493571D01*
X118223571Y-57457857D01*
X118187857Y-57386428D01*
X118187857Y-57315000D01*
X118223571Y-57243571D01*
X118259285Y-57207857D01*
X118330714Y-57172142D01*
X118473571Y-57136428D01*
X118545000Y-57100714D01*
X118580714Y-57065000D01*
X118616428Y-56993571D01*
X118616428Y-56922142D01*
X118580714Y-56850714D01*
X118545000Y-56815000D01*
X118473571Y-56779285D01*
X118295000Y-56779285D01*
X118187857Y-56815000D01*
X117866428Y-57529285D02*
X117866428Y-56779285D01*
X117687857Y-56779285D01*
X117580714Y-56815000D01*
X117509285Y-56886428D01*
X117473571Y-56957857D01*
X117437857Y-57100714D01*
X117437857Y-57207857D01*
X117473571Y-57350714D01*
X117509285Y-57422142D01*
X117580714Y-57493571D01*
X117687857Y-57529285D01*
X117866428Y-57529285D01*
X117152142Y-57315000D02*
X116795000Y-57315000D01*
X117223571Y-57529285D02*
X116973571Y-56779285D01*
X116723571Y-57529285D01*
X115937857Y-57493571D02*
X115830714Y-57529285D01*
X115652142Y-57529285D01*
X115580714Y-57493571D01*
X115545000Y-57457857D01*
X115509285Y-57386428D01*
X115509285Y-57315000D01*
X115545000Y-57243571D01*
X115580714Y-57207857D01*
X115652142Y-57172142D01*
X115795000Y-57136428D01*
X115866428Y-57100714D01*
X115902142Y-57065000D01*
X115937857Y-56993571D01*
X115937857Y-56922142D01*
X115902142Y-56850714D01*
X115866428Y-56815000D01*
X115795000Y-56779285D01*
X115616428Y-56779285D01*
X115509285Y-56815000D01*
X114759285Y-57457857D02*
X114795000Y-57493571D01*
X114902142Y-57529285D01*
X114973571Y-57529285D01*
X115080714Y-57493571D01*
X115152142Y-57422142D01*
X115187857Y-57350714D01*
X115223571Y-57207857D01*
X115223571Y-57100714D01*
X115187857Y-56957857D01*
X115152142Y-56886428D01*
X115080714Y-56815000D01*
X114973571Y-56779285D01*
X114902142Y-56779285D01*
X114795000Y-56815000D01*
X114759285Y-56850714D01*
X114080714Y-57529285D02*
X114437857Y-57529285D01*
X114437857Y-56779285D01*
X112866428Y-56815000D02*
X112937857Y-56779285D01*
X113045000Y-56779285D01*
X113152142Y-56815000D01*
X113223571Y-56886428D01*
X113259285Y-56957857D01*
X113295000Y-57100714D01*
X113295000Y-57207857D01*
X113259285Y-57350714D01*
X113223571Y-57422142D01*
X113152142Y-57493571D01*
X113045000Y-57529285D01*
X112973571Y-57529285D01*
X112866428Y-57493571D01*
X112830714Y-57457857D01*
X112830714Y-57207857D01*
X112973571Y-57207857D01*
X112509285Y-57529285D02*
X112509285Y-56779285D01*
X112080714Y-57529285D01*
X112080714Y-56779285D01*
X111723571Y-57529285D02*
X111723571Y-56779285D01*
X111545000Y-56779285D01*
X111437857Y-56815000D01*
X111366428Y-56886428D01*
X111330714Y-56957857D01*
X111295000Y-57100714D01*
X111295000Y-57207857D01*
X111330714Y-57350714D01*
X111366428Y-57422142D01*
X111437857Y-57493571D01*
X111545000Y-57529285D01*
X111723571Y-57529285D01*
X110402142Y-57243571D02*
X109830714Y-57243571D01*
X110116428Y-57529285D02*
X110116428Y-56957857D01*
X109545000Y-56779285D02*
X109080714Y-56779285D01*
X109330714Y-57065000D01*
X109223571Y-57065000D01*
X109152142Y-57100714D01*
X109116428Y-57136428D01*
X109080714Y-57207857D01*
X109080714Y-57386428D01*
X109116428Y-57457857D01*
X109152142Y-57493571D01*
X109223571Y-57529285D01*
X109437857Y-57529285D01*
X109509285Y-57493571D01*
X109545000Y-57457857D01*
X108866428Y-56779285D02*
X108616428Y-57529285D01*
X108366428Y-56779285D01*
X108187857Y-56779285D02*
X107723571Y-56779285D01*
X107973571Y-57065000D01*
X107866428Y-57065000D01*
X107795000Y-57100714D01*
X107759285Y-57136428D01*
X107723571Y-57207857D01*
X107723571Y-57386428D01*
X107759285Y-57457857D01*
X107795000Y-57493571D01*
X107866428Y-57529285D01*
X108080714Y-57529285D01*
X108152142Y-57493571D01*
X108187857Y-57457857D01*
D12*
X164564113Y-55650000D02*
G75*
G03X164564113Y-55650000I-3394113J0D01*
G01*
X164564113Y-80650000D02*
G75*
G03X164564113Y-80650000I-3394113J0D01*
G01*
X92564113Y-80650000D02*
G75*
G03X92564113Y-80650000I-3394113J0D01*
G01*
X92564113Y-55650000D02*
G75*
G03X92564113Y-55650000I-3394113J0D01*
G01*
D10*
X110712857Y-74397619D02*
X110665238Y-74350000D01*
X110570000Y-74302380D01*
X110331904Y-74302380D01*
X110236666Y-74350000D01*
X110189047Y-74397619D01*
X110141428Y-74492857D01*
X110141428Y-74588095D01*
X110189047Y-74730952D01*
X110760476Y-75302380D01*
X110141428Y-75302380D01*
X105379523Y-75302380D02*
X105950952Y-75302380D01*
X105665238Y-75302380D02*
X105665238Y-74302380D01*
X105760476Y-74445238D01*
X105855714Y-74540476D01*
X105950952Y-74588095D01*
X104760476Y-74302380D02*
X104665238Y-74302380D01*
X104570000Y-74350000D01*
X104522380Y-74397619D01*
X104474761Y-74492857D01*
X104427142Y-74683333D01*
X104427142Y-74921428D01*
X104474761Y-75111904D01*
X104522380Y-75207142D01*
X104570000Y-75254761D01*
X104665238Y-75302380D01*
X104760476Y-75302380D01*
X104855714Y-75254761D01*
X104903333Y-75207142D01*
X104950952Y-75111904D01*
X104998571Y-74921428D01*
X104998571Y-74683333D01*
X104950952Y-74492857D01*
X104903333Y-74397619D01*
X104855714Y-74350000D01*
X104760476Y-74302380D01*
X110046190Y-83502380D02*
X110617619Y-83502380D01*
X110331904Y-83502380D02*
X110331904Y-82502380D01*
X110427142Y-82645238D01*
X110522380Y-82740476D01*
X110617619Y-82788095D01*
X104998571Y-83502380D02*
X104808095Y-83502380D01*
X104712857Y-83454761D01*
X104665238Y-83407142D01*
X104570000Y-83264285D01*
X104522380Y-83073809D01*
X104522380Y-82692857D01*
X104570000Y-82597619D01*
X104617619Y-82550000D01*
X104712857Y-82502380D01*
X104903333Y-82502380D01*
X104998571Y-82550000D01*
X105046190Y-82597619D01*
X105093809Y-82692857D01*
X105093809Y-82930952D01*
X105046190Y-83026190D01*
X104998571Y-83073809D01*
X104903333Y-83121428D01*
X104712857Y-83121428D01*
X104617619Y-83073809D01*
X104570000Y-83026190D01*
X104522380Y-82930952D01*
D11*
X118616428Y-51651571D02*
X118509285Y-51687285D01*
X118330714Y-51687285D01*
X118259285Y-51651571D01*
X118223571Y-51615857D01*
X118187857Y-51544428D01*
X118187857Y-51473000D01*
X118223571Y-51401571D01*
X118259285Y-51365857D01*
X118330714Y-51330142D01*
X118473571Y-51294428D01*
X118545000Y-51258714D01*
X118580714Y-51223000D01*
X118616428Y-51151571D01*
X118616428Y-51080142D01*
X118580714Y-51008714D01*
X118545000Y-50973000D01*
X118473571Y-50937285D01*
X118295000Y-50937285D01*
X118187857Y-50973000D01*
X117866428Y-51687285D02*
X117866428Y-50937285D01*
X117687857Y-50937285D01*
X117580714Y-50973000D01*
X117509285Y-51044428D01*
X117473571Y-51115857D01*
X117437857Y-51258714D01*
X117437857Y-51365857D01*
X117473571Y-51508714D01*
X117509285Y-51580142D01*
X117580714Y-51651571D01*
X117687857Y-51687285D01*
X117866428Y-51687285D01*
X117152142Y-51473000D02*
X116795000Y-51473000D01*
X117223571Y-51687285D02*
X116973571Y-50937285D01*
X116723571Y-51687285D01*
X115937857Y-51651571D02*
X115830714Y-51687285D01*
X115652142Y-51687285D01*
X115580714Y-51651571D01*
X115545000Y-51615857D01*
X115509285Y-51544428D01*
X115509285Y-51473000D01*
X115545000Y-51401571D01*
X115580714Y-51365857D01*
X115652142Y-51330142D01*
X115795000Y-51294428D01*
X115866428Y-51258714D01*
X115902142Y-51223000D01*
X115937857Y-51151571D01*
X115937857Y-51080142D01*
X115902142Y-51008714D01*
X115866428Y-50973000D01*
X115795000Y-50937285D01*
X115616428Y-50937285D01*
X115509285Y-50973000D01*
X114759285Y-51615857D02*
X114795000Y-51651571D01*
X114902142Y-51687285D01*
X114973571Y-51687285D01*
X115080714Y-51651571D01*
X115152142Y-51580142D01*
X115187857Y-51508714D01*
X115223571Y-51365857D01*
X115223571Y-51258714D01*
X115187857Y-51115857D01*
X115152142Y-51044428D01*
X115080714Y-50973000D01*
X114973571Y-50937285D01*
X114902142Y-50937285D01*
X114795000Y-50973000D01*
X114759285Y-51008714D01*
X114080714Y-51687285D02*
X114437857Y-51687285D01*
X114437857Y-50937285D01*
X113259285Y-51401571D02*
X112687857Y-51401571D01*
X112973571Y-51687285D02*
X112973571Y-51115857D01*
X112402142Y-50937285D02*
X111937857Y-50937285D01*
X112187857Y-51223000D01*
X112080714Y-51223000D01*
X112009285Y-51258714D01*
X111973571Y-51294428D01*
X111937857Y-51365857D01*
X111937857Y-51544428D01*
X111973571Y-51615857D01*
X112009285Y-51651571D01*
X112080714Y-51687285D01*
X112295000Y-51687285D01*
X112366428Y-51651571D01*
X112402142Y-51615857D01*
X111723571Y-50937285D02*
X111473571Y-51687285D01*
X111223571Y-50937285D01*
X111045000Y-50937285D02*
X110580714Y-50937285D01*
X110830714Y-51223000D01*
X110723571Y-51223000D01*
X110652142Y-51258714D01*
X110616428Y-51294428D01*
X110580714Y-51365857D01*
X110580714Y-51544428D01*
X110616428Y-51615857D01*
X110652142Y-51651571D01*
X110723571Y-51687285D01*
X110937857Y-51687285D01*
X111009285Y-51651571D01*
X111045000Y-51615857D01*
X109295000Y-50973000D02*
X109366428Y-50937285D01*
X109473571Y-50937285D01*
X109580714Y-50973000D01*
X109652142Y-51044428D01*
X109687857Y-51115857D01*
X109723571Y-51258714D01*
X109723571Y-51365857D01*
X109687857Y-51508714D01*
X109652142Y-51580142D01*
X109580714Y-51651571D01*
X109473571Y-51687285D01*
X109402142Y-51687285D01*
X109295000Y-51651571D01*
X109259285Y-51615857D01*
X109259285Y-51365857D01*
X109402142Y-51365857D01*
X108937857Y-51687285D02*
X108937857Y-50937285D01*
X108509285Y-51687285D01*
X108509285Y-50937285D01*
X108152142Y-51687285D02*
X108152142Y-50937285D01*
X107973571Y-50937285D01*
X107866428Y-50973000D01*
X107795000Y-51044428D01*
X107759285Y-51115857D01*
X107723571Y-51258714D01*
X107723571Y-51365857D01*
X107759285Y-51508714D01*
X107795000Y-51580142D01*
X107866428Y-51651571D01*
X107973571Y-51687285D01*
X108152142Y-51687285D01*
D13*
X127828571Y-81443571D02*
X128328571Y-80729285D01*
X128685714Y-81443571D02*
X128685714Y-79943571D01*
X128114285Y-79943571D01*
X127971428Y-80015000D01*
X127900000Y-80086428D01*
X127828571Y-80229285D01*
X127828571Y-80443571D01*
X127900000Y-80586428D01*
X127971428Y-80657857D01*
X128114285Y-80729285D01*
X128685714Y-80729285D01*
X127185714Y-80657857D02*
X126685714Y-80657857D01*
X126471428Y-81443571D02*
X127185714Y-81443571D01*
X127185714Y-79943571D01*
X126471428Y-79943571D01*
X125900000Y-81372142D02*
X125685714Y-81443571D01*
X125328571Y-81443571D01*
X125185714Y-81372142D01*
X125114285Y-81300714D01*
X125042857Y-81157857D01*
X125042857Y-81015000D01*
X125114285Y-80872142D01*
X125185714Y-80800714D01*
X125328571Y-80729285D01*
X125614285Y-80657857D01*
X125757142Y-80586428D01*
X125828571Y-80515000D01*
X125900000Y-80372142D01*
X125900000Y-80229285D01*
X125828571Y-80086428D01*
X125757142Y-80015000D01*
X125614285Y-79943571D01*
X125257142Y-79943571D01*
X125042857Y-80015000D01*
X124400000Y-80657857D02*
X123900000Y-80657857D01*
X123685714Y-81443571D02*
X124400000Y-81443571D01*
X124400000Y-79943571D01*
X123685714Y-79943571D01*
X123257142Y-79943571D02*
X122400000Y-79943571D01*
X122828571Y-81443571D02*
X122828571Y-79943571D01*
D10*
X125737142Y-51508571D02*
X125594285Y-51556190D01*
X125546666Y-51603809D01*
X125499047Y-51699047D01*
X125499047Y-51841904D01*
X125546666Y-51937142D01*
X125594285Y-51984761D01*
X125689523Y-52032380D01*
X126070476Y-52032380D01*
X126070476Y-51032380D01*
X125737142Y-51032380D01*
X125641904Y-51080000D01*
X125594285Y-51127619D01*
X125546666Y-51222857D01*
X125546666Y-51318095D01*
X125594285Y-51413333D01*
X125641904Y-51460952D01*
X125737142Y-51508571D01*
X126070476Y-51508571D01*
X124880000Y-51032380D02*
X124689523Y-51032380D01*
X124594285Y-51080000D01*
X124499047Y-51175238D01*
X124451428Y-51365714D01*
X124451428Y-51699047D01*
X124499047Y-51889523D01*
X124594285Y-51984761D01*
X124689523Y-52032380D01*
X124880000Y-52032380D01*
X124975238Y-51984761D01*
X125070476Y-51889523D01*
X125118095Y-51699047D01*
X125118095Y-51365714D01*
X125070476Y-51175238D01*
X124975238Y-51080000D01*
X124880000Y-51032380D01*
X123832380Y-51032380D02*
X123641904Y-51032380D01*
X123546666Y-51080000D01*
X123451428Y-51175238D01*
X123403809Y-51365714D01*
X123403809Y-51699047D01*
X123451428Y-51889523D01*
X123546666Y-51984761D01*
X123641904Y-52032380D01*
X123832380Y-52032380D01*
X123927619Y-51984761D01*
X124022857Y-51889523D01*
X124070476Y-51699047D01*
X124070476Y-51365714D01*
X124022857Y-51175238D01*
X123927619Y-51080000D01*
X123832380Y-51032380D01*
X123118095Y-51032380D02*
X122546666Y-51032380D01*
X122832380Y-52032380D02*
X122832380Y-51032380D01*
D11*
X127040714Y-52414285D02*
X126576428Y-52414285D01*
X126826428Y-52700000D01*
X126719285Y-52700000D01*
X126647857Y-52735714D01*
X126612142Y-52771428D01*
X126576428Y-52842857D01*
X126576428Y-53021428D01*
X126612142Y-53092857D01*
X126647857Y-53128571D01*
X126719285Y-53164285D01*
X126933571Y-53164285D01*
X127005000Y-53128571D01*
X127040714Y-53092857D01*
X126362142Y-52414285D02*
X126112142Y-53164285D01*
X125862142Y-52414285D01*
X125683571Y-52414285D02*
X125219285Y-52414285D01*
X125469285Y-52700000D01*
X125362142Y-52700000D01*
X125290714Y-52735714D01*
X125255000Y-52771428D01*
X125219285Y-52842857D01*
X125219285Y-53021428D01*
X125255000Y-53092857D01*
X125290714Y-53128571D01*
X125362142Y-53164285D01*
X125576428Y-53164285D01*
X125647857Y-53128571D01*
X125683571Y-53092857D01*
X124076428Y-52771428D02*
X123969285Y-52807142D01*
X123933571Y-52842857D01*
X123897857Y-52914285D01*
X123897857Y-53021428D01*
X123933571Y-53092857D01*
X123969285Y-53128571D01*
X124040714Y-53164285D01*
X124326428Y-53164285D01*
X124326428Y-52414285D01*
X124076428Y-52414285D01*
X124005000Y-52450000D01*
X123969285Y-52485714D01*
X123933571Y-52557142D01*
X123933571Y-52628571D01*
X123969285Y-52700000D01*
X124005000Y-52735714D01*
X124076428Y-52771428D01*
X124326428Y-52771428D01*
X123433571Y-52414285D02*
X123290714Y-52414285D01*
X123219285Y-52450000D01*
X123147857Y-52521428D01*
X123112142Y-52664285D01*
X123112142Y-52914285D01*
X123147857Y-53057142D01*
X123219285Y-53128571D01*
X123290714Y-53164285D01*
X123433571Y-53164285D01*
X123505000Y-53128571D01*
X123576428Y-53057142D01*
X123612142Y-52914285D01*
X123612142Y-52664285D01*
X123576428Y-52521428D01*
X123505000Y-52450000D01*
X123433571Y-52414285D01*
X122647857Y-52414285D02*
X122505000Y-52414285D01*
X122433571Y-52450000D01*
X122362142Y-52521428D01*
X122326428Y-52664285D01*
X122326428Y-52914285D01*
X122362142Y-53057142D01*
X122433571Y-53128571D01*
X122505000Y-53164285D01*
X122647857Y-53164285D01*
X122719285Y-53128571D01*
X122790714Y-53057142D01*
X122826428Y-52914285D01*
X122826428Y-52664285D01*
X122790714Y-52521428D01*
X122719285Y-52450000D01*
X122647857Y-52414285D01*
X122112142Y-52414285D02*
X121683571Y-52414285D01*
X121897857Y-53164285D02*
X121897857Y-52414285D01*
X120936428Y-72849285D02*
X121186428Y-72492142D01*
X121365000Y-72849285D02*
X121365000Y-72099285D01*
X121079285Y-72099285D01*
X121007857Y-72135000D01*
X120972142Y-72170714D01*
X120936428Y-72242142D01*
X120936428Y-72349285D01*
X120972142Y-72420714D01*
X121007857Y-72456428D01*
X121079285Y-72492142D01*
X121365000Y-72492142D01*
X120329285Y-72813571D02*
X120400714Y-72849285D01*
X120543571Y-72849285D01*
X120615000Y-72813571D01*
X120650714Y-72742142D01*
X120650714Y-72456428D01*
X120615000Y-72385000D01*
X120543571Y-72349285D01*
X120400714Y-72349285D01*
X120329285Y-72385000D01*
X120293571Y-72456428D01*
X120293571Y-72527857D01*
X120650714Y-72599285D01*
X120007857Y-72813571D02*
X119936428Y-72849285D01*
X119793571Y-72849285D01*
X119722142Y-72813571D01*
X119686428Y-72742142D01*
X119686428Y-72706428D01*
X119722142Y-72635000D01*
X119793571Y-72599285D01*
X119900714Y-72599285D01*
X119972142Y-72563571D01*
X120007857Y-72492142D01*
X120007857Y-72456428D01*
X119972142Y-72385000D01*
X119900714Y-72349285D01*
X119793571Y-72349285D01*
X119722142Y-72385000D01*
X119079285Y-72813571D02*
X119150714Y-72849285D01*
X119293571Y-72849285D01*
X119365000Y-72813571D01*
X119400714Y-72742142D01*
X119400714Y-72456428D01*
X119365000Y-72385000D01*
X119293571Y-72349285D01*
X119150714Y-72349285D01*
X119079285Y-72385000D01*
X119043571Y-72456428D01*
X119043571Y-72527857D01*
X119400714Y-72599285D01*
X118829285Y-72349285D02*
X118543571Y-72349285D01*
X118722142Y-72099285D02*
X118722142Y-72742142D01*
X118686428Y-72813571D01*
X118615000Y-72849285D01*
X118543571Y-72849285D01*
X117757857Y-72813571D02*
X117650714Y-72849285D01*
X117472142Y-72849285D01*
X117400714Y-72813571D01*
X117365000Y-72777857D01*
X117329285Y-72706428D01*
X117329285Y-72635000D01*
X117365000Y-72563571D01*
X117400714Y-72527857D01*
X117472142Y-72492142D01*
X117615000Y-72456428D01*
X117686428Y-72420714D01*
X117722142Y-72385000D01*
X117757857Y-72313571D01*
X117757857Y-72242142D01*
X117722142Y-72170714D01*
X117686428Y-72135000D01*
X117615000Y-72099285D01*
X117436428Y-72099285D01*
X117329285Y-72135000D01*
X117079285Y-72099285D02*
X116900714Y-72849285D01*
X116757857Y-72313571D01*
X116615000Y-72849285D01*
X116436428Y-72099285D01*
X116150714Y-72849285D02*
X116150714Y-72099285D01*
X115972142Y-72099285D01*
X115865000Y-72135000D01*
X115793571Y-72206428D01*
X115757857Y-72277857D01*
X115722142Y-72420714D01*
X115722142Y-72527857D01*
X115757857Y-72670714D01*
X115793571Y-72742142D01*
X115865000Y-72813571D01*
X115972142Y-72849285D01*
X116150714Y-72849285D01*
X114972142Y-72777857D02*
X115007857Y-72813571D01*
X115115000Y-72849285D01*
X115186428Y-72849285D01*
X115293571Y-72813571D01*
X115365000Y-72742142D01*
X115400714Y-72670714D01*
X115436428Y-72527857D01*
X115436428Y-72420714D01*
X115400714Y-72277857D01*
X115365000Y-72206428D01*
X115293571Y-72135000D01*
X115186428Y-72099285D01*
X115115000Y-72099285D01*
X115007857Y-72135000D01*
X114972142Y-72170714D01*
X114293571Y-72849285D02*
X114650714Y-72849285D01*
X114650714Y-72099285D01*
X114043571Y-72849285D02*
X114043571Y-72099285D01*
X113615000Y-72849285D02*
X113936428Y-72420714D01*
X113615000Y-72099285D02*
X114043571Y-72527857D01*
X112757857Y-72813571D02*
X112650714Y-72849285D01*
X112472142Y-72849285D01*
X112400714Y-72813571D01*
X112365000Y-72777857D01*
X112329285Y-72706428D01*
X112329285Y-72635000D01*
X112365000Y-72563571D01*
X112400714Y-72527857D01*
X112472142Y-72492142D01*
X112615000Y-72456428D01*
X112686428Y-72420714D01*
X112722142Y-72385000D01*
X112757857Y-72313571D01*
X112757857Y-72242142D01*
X112722142Y-72170714D01*
X112686428Y-72135000D01*
X112615000Y-72099285D01*
X112436428Y-72099285D01*
X112329285Y-72135000D01*
X112079285Y-72099285D02*
X111900714Y-72849285D01*
X111757857Y-72313571D01*
X111615000Y-72849285D01*
X111436428Y-72099285D01*
X111150714Y-72849285D02*
X111150714Y-72099285D01*
X110972142Y-72099285D01*
X110865000Y-72135000D01*
X110793571Y-72206428D01*
X110757857Y-72277857D01*
X110722142Y-72420714D01*
X110722142Y-72527857D01*
X110757857Y-72670714D01*
X110793571Y-72742142D01*
X110865000Y-72813571D01*
X110972142Y-72849285D01*
X111150714Y-72849285D01*
X110400714Y-72849285D02*
X110400714Y-72099285D01*
X109900714Y-72099285D02*
X109757857Y-72099285D01*
X109686428Y-72135000D01*
X109615000Y-72206428D01*
X109579285Y-72349285D01*
X109579285Y-72599285D01*
X109615000Y-72742142D01*
X109686428Y-72813571D01*
X109757857Y-72849285D01*
X109900714Y-72849285D01*
X109972142Y-72813571D01*
X110043571Y-72742142D01*
X110079285Y-72599285D01*
X110079285Y-72349285D01*
X110043571Y-72206428D01*
X109972142Y-72135000D01*
X109900714Y-72099285D01*
D12*
X90232500Y-68850000D02*
X89782500Y-68850000D01*
X90232500Y-68850000D02*
X90232500Y-68400000D01*
X89682500Y-63250000D02*
X89682500Y-63700000D01*
X87832500Y-63250000D02*
X89682500Y-63250000D01*
X85282500Y-71050000D02*
X85532500Y-71050000D01*
X85282500Y-63250000D02*
X85532500Y-63250000D01*
X87832500Y-71050000D02*
X89682500Y-71050000D01*
X89682500Y-71050000D02*
X89682500Y-70600000D01*
D11*
X152567000Y-56550000D02*
X152942000Y-56550000D01*
X152242000Y-56225000D02*
X151717000Y-56225000D01*
X152242000Y-56325000D02*
X152242000Y-56225000D01*
X152567000Y-56550000D02*
X152242000Y-56325000D01*
X154242000Y-53250000D02*
X153917000Y-53250000D01*
X154242000Y-53550000D02*
X154242000Y-53250000D01*
X152242000Y-53250000D02*
X152542000Y-53250000D01*
X152242000Y-53575000D02*
X152242000Y-53250000D01*
X154242000Y-56550000D02*
X153942000Y-56550000D01*
X154242000Y-56225000D02*
X154242000Y-56550000D01*
D12*
X154445000Y-61775000D02*
X154445000Y-60445000D01*
X153115000Y-61775000D02*
X154445000Y-61775000D01*
X151845000Y-61775000D02*
X151845000Y-59115000D01*
X151845000Y-59115000D02*
X149245000Y-59115000D01*
X151845000Y-61775000D02*
X149245000Y-61775000D01*
X149245000Y-61775000D02*
X149245000Y-59115000D01*
X105440000Y-69920000D02*
X105440000Y-68650000D01*
X104170000Y-69920000D02*
X105440000Y-69920000D01*
X98710000Y-67607071D02*
X98710000Y-67210000D01*
X99470000Y-67607071D02*
X99470000Y-67210000D01*
X98710000Y-58550000D02*
X98710000Y-64550000D01*
X99470000Y-58550000D02*
X98710000Y-58550000D01*
X99470000Y-64550000D02*
X99470000Y-58550000D01*
X100360000Y-67210000D02*
X100360000Y-64550000D01*
X101250000Y-67607071D02*
X101250000Y-67210000D01*
X102010000Y-67607071D02*
X102010000Y-67210000D01*
X101250000Y-58550000D02*
X101250000Y-64550000D01*
X102010000Y-58550000D02*
X101250000Y-58550000D01*
X102010000Y-64550000D02*
X102010000Y-58550000D01*
X102900000Y-67210000D02*
X102900000Y-64550000D01*
X103790000Y-67540000D02*
X103790000Y-67210000D01*
X104550000Y-67540000D02*
X104550000Y-67210000D01*
X103890000Y-64550000D02*
X103890000Y-58550000D01*
X104010000Y-64550000D02*
X104010000Y-58550000D01*
X104130000Y-64550000D02*
X104130000Y-58550000D01*
X104250000Y-64550000D02*
X104250000Y-58550000D01*
X104370000Y-64550000D02*
X104370000Y-58550000D01*
X104490000Y-64550000D02*
X104490000Y-58550000D01*
X103790000Y-58550000D02*
X103790000Y-64550000D01*
X104550000Y-58550000D02*
X103790000Y-58550000D01*
X104550000Y-64550000D02*
X104550000Y-58550000D01*
X105500000Y-64550000D02*
X105500000Y-67210000D01*
X97760000Y-64550000D02*
X105500000Y-64550000D01*
X97760000Y-67210000D02*
X97760000Y-64550000D01*
X105500000Y-67210000D02*
X97760000Y-67210000D01*
D10*
X95940000Y-62070000D02*
X95940000Y-72230000D01*
X93400000Y-62070000D02*
X95940000Y-62070000D01*
X93400000Y-72230000D02*
X93400000Y-62070000D01*
X95940000Y-72230000D02*
X93400000Y-72230000D01*
D12*
X104400000Y-77135000D02*
X104335000Y-77135000D01*
X104400000Y-80665000D02*
X104335000Y-80665000D01*
X110805000Y-77135000D02*
X110740000Y-77135000D01*
X110805000Y-80665000D02*
X110740000Y-80665000D01*
X110740000Y-81990000D02*
X110740000Y-80665000D01*
X104335000Y-80665000D02*
X104335000Y-77135000D01*
X110805000Y-80665000D02*
X110805000Y-77135000D01*
X122225000Y-76145000D02*
X122225000Y-74645000D01*
X123475000Y-72145000D02*
X127975000Y-72145000D01*
X129225000Y-74645000D02*
X129225000Y-76145000D01*
X127975000Y-78645000D02*
X123475000Y-78645000D01*
X114780000Y-79421078D02*
X114780000Y-78903922D01*
X116200000Y-79421078D02*
X116200000Y-78903922D01*
X124133422Y-57728000D02*
X124650578Y-57728000D01*
X124133422Y-59148000D02*
X124650578Y-59148000D01*
X117320000Y-79421078D02*
X117320000Y-78903922D01*
X118740000Y-79421078D02*
X118740000Y-78903922D01*
X126980000Y-56695000D02*
X126980000Y-55365000D01*
X125650000Y-56695000D02*
X126980000Y-56695000D01*
X124380000Y-56695000D02*
X124380000Y-54035000D01*
X124380000Y-54035000D02*
X121780000Y-54035000D01*
X124380000Y-56695000D02*
X121780000Y-56695000D01*
X121780000Y-56695000D02*
X121780000Y-54035000D01*
X111620000Y-73720000D02*
X111620000Y-75050000D01*
X112950000Y-73720000D02*
X111620000Y-73720000D01*
X114220000Y-73720000D02*
X114220000Y-76380000D01*
X114220000Y-76380000D02*
X119360000Y-76380000D01*
X114220000Y-73720000D02*
X119360000Y-73720000D01*
X119360000Y-73720000D02*
X119360000Y-76380000D01*
D10*
X115695000Y-65190000D02*
X111245000Y-65190000D01*
X117220000Y-58290000D02*
X111245000Y-58290000D01*
D12*
X98165000Y-77855000D02*
X98165000Y-75405000D01*
X101385000Y-76055000D02*
X101385000Y-77855000D01*
X120911422Y-60690000D02*
X121428578Y-60690000D01*
X120911422Y-62110000D02*
X121428578Y-62110000D01*
X106660000Y-62911078D02*
X106660000Y-62393922D01*
X108080000Y-62911078D02*
X108080000Y-62393922D01*
X99516422Y-79420000D02*
X100033578Y-79420000D01*
X99516422Y-80840000D02*
X100033578Y-80840000D01*
X99516422Y-74490000D02*
X100033578Y-74490000D01*
X99516422Y-73070000D02*
X100033578Y-73070000D01*
D10*
X90484880Y-66816666D02*
X91199166Y-66816666D01*
X91342023Y-66769047D01*
X91437261Y-66673809D01*
X91484880Y-66530952D01*
X91484880Y-66435714D01*
X91484880Y-67816666D02*
X91484880Y-67245238D01*
X91484880Y-67530952D02*
X90484880Y-67530952D01*
X90627738Y-67435714D01*
X90722976Y-67340476D01*
X90770595Y-67245238D01*
X156069380Y-54163095D02*
X156878904Y-54163095D01*
X156974142Y-54210714D01*
X157021761Y-54258333D01*
X157069380Y-54353571D01*
X157069380Y-54544047D01*
X157021761Y-54639285D01*
X156974142Y-54686904D01*
X156878904Y-54734523D01*
X156069380Y-54734523D01*
X156069380Y-55115476D02*
X156069380Y-55734523D01*
X156450333Y-55401190D01*
X156450333Y-55544047D01*
X156497952Y-55639285D01*
X156545571Y-55686904D01*
X156640809Y-55734523D01*
X156878904Y-55734523D01*
X156974142Y-55686904D01*
X157021761Y-55639285D01*
X157069380Y-55544047D01*
X157069380Y-55258333D01*
X157021761Y-55163095D01*
X156974142Y-55115476D01*
X152051333Y-57738380D02*
X152051333Y-58452666D01*
X152098952Y-58595523D01*
X152194190Y-58690761D01*
X152337047Y-58738380D01*
X152432285Y-58738380D01*
X151432285Y-58166952D02*
X151527523Y-58119333D01*
X151575142Y-58071714D01*
X151622761Y-57976476D01*
X151622761Y-57928857D01*
X151575142Y-57833619D01*
X151527523Y-57786000D01*
X151432285Y-57738380D01*
X151241809Y-57738380D01*
X151146571Y-57786000D01*
X151098952Y-57833619D01*
X151051333Y-57928857D01*
X151051333Y-57976476D01*
X151098952Y-58071714D01*
X151146571Y-58119333D01*
X151241809Y-58166952D01*
X151432285Y-58166952D01*
X151527523Y-58214571D01*
X151575142Y-58262190D01*
X151622761Y-58357428D01*
X151622761Y-58547904D01*
X151575142Y-58643142D01*
X151527523Y-58690761D01*
X151432285Y-58738380D01*
X151241809Y-58738380D01*
X151146571Y-58690761D01*
X151098952Y-58643142D01*
X151051333Y-58547904D01*
X151051333Y-58357428D01*
X151098952Y-58262190D01*
X151146571Y-58214571D01*
X151241809Y-58166952D01*
X105940000Y-62788809D02*
X105892380Y-62693571D01*
X105892380Y-62550714D01*
X105940000Y-62407857D01*
X106035238Y-62312619D01*
X106130476Y-62265000D01*
X106320952Y-62217380D01*
X106463809Y-62217380D01*
X106654285Y-62265000D01*
X106749523Y-62312619D01*
X106844761Y-62407857D01*
X106892380Y-62550714D01*
X106892380Y-62645952D01*
X106844761Y-62788809D01*
X106797142Y-62836428D01*
X106463809Y-62836428D01*
X106463809Y-62645952D01*
X106892380Y-63265000D02*
X105892380Y-63265000D01*
X105892380Y-63645952D01*
X105940000Y-63741190D01*
X105987619Y-63788809D01*
X106082857Y-63836428D01*
X106225714Y-63836428D01*
X106320952Y-63788809D01*
X106368571Y-63741190D01*
X106416190Y-63645952D01*
X106416190Y-63265000D01*
X106892380Y-64265000D02*
X105892380Y-64265000D01*
X105892380Y-64931666D02*
X105892380Y-65122142D01*
X105940000Y-65217380D01*
X106035238Y-65312619D01*
X106225714Y-65360238D01*
X106559047Y-65360238D01*
X106749523Y-65312619D01*
X106844761Y-65217380D01*
X106892380Y-65122142D01*
X106892380Y-64931666D01*
X106844761Y-64836428D01*
X106749523Y-64741190D01*
X106559047Y-64693571D01*
X106225714Y-64693571D01*
X106035238Y-64741190D01*
X105940000Y-64836428D01*
X105892380Y-64931666D01*
X106892380Y-66312619D02*
X106892380Y-65741190D01*
X106892380Y-66026904D02*
X105892380Y-66026904D01*
X106035238Y-65931666D01*
X106130476Y-65836428D01*
X106178095Y-65741190D01*
X95003333Y-60602380D02*
X95003333Y-61316666D01*
X95050952Y-61459523D01*
X95146190Y-61554761D01*
X95289047Y-61602380D01*
X95384285Y-61602380D01*
X94622380Y-60602380D02*
X93955714Y-60602380D01*
X94384285Y-61602380D01*
X112138333Y-78352380D02*
X112138333Y-79066666D01*
X112185952Y-79209523D01*
X112281190Y-79304761D01*
X112424047Y-79352380D01*
X112519285Y-79352380D01*
X111185952Y-78352380D02*
X111662142Y-78352380D01*
X111709761Y-78828571D01*
X111662142Y-78780952D01*
X111566904Y-78733333D01*
X111328809Y-78733333D01*
X111233571Y-78780952D01*
X111185952Y-78828571D01*
X111138333Y-78923809D01*
X111138333Y-79161904D01*
X111185952Y-79257142D01*
X111233571Y-79304761D01*
X111328809Y-79352380D01*
X111566904Y-79352380D01*
X111662142Y-79304761D01*
X111709761Y-79257142D01*
X127058333Y-71549761D02*
X126915476Y-71597380D01*
X126677380Y-71597380D01*
X126582142Y-71549761D01*
X126534523Y-71502142D01*
X126486904Y-71406904D01*
X126486904Y-71311666D01*
X126534523Y-71216428D01*
X126582142Y-71168809D01*
X126677380Y-71121190D01*
X126867857Y-71073571D01*
X126963095Y-71025952D01*
X127010714Y-70978333D01*
X127058333Y-70883095D01*
X127058333Y-70787857D01*
X127010714Y-70692619D01*
X126963095Y-70645000D01*
X126867857Y-70597380D01*
X126629761Y-70597380D01*
X126486904Y-70645000D01*
X126153571Y-70597380D02*
X125915476Y-71597380D01*
X125725000Y-70883095D01*
X125534523Y-71597380D01*
X125296428Y-70597380D01*
X124439285Y-70597380D02*
X124915476Y-70597380D01*
X124963095Y-71073571D01*
X124915476Y-71025952D01*
X124820238Y-70978333D01*
X124582142Y-70978333D01*
X124486904Y-71025952D01*
X124439285Y-71073571D01*
X124391666Y-71168809D01*
X124391666Y-71406904D01*
X124439285Y-71502142D01*
X124486904Y-71549761D01*
X124582142Y-71597380D01*
X124820238Y-71597380D01*
X124915476Y-71549761D01*
X124963095Y-71502142D01*
X114242380Y-78995833D02*
X113766190Y-78662500D01*
X114242380Y-78424404D02*
X113242380Y-78424404D01*
X113242380Y-78805357D01*
X113290000Y-78900595D01*
X113337619Y-78948214D01*
X113432857Y-78995833D01*
X113575714Y-78995833D01*
X113670952Y-78948214D01*
X113718571Y-78900595D01*
X113766190Y-78805357D01*
X113766190Y-78424404D01*
X113242380Y-79329166D02*
X113242380Y-79948214D01*
X113623333Y-79614880D01*
X113623333Y-79757738D01*
X113670952Y-79852976D01*
X113718571Y-79900595D01*
X113813809Y-79948214D01*
X114051904Y-79948214D01*
X114147142Y-79900595D01*
X114194761Y-79852976D01*
X114242380Y-79757738D01*
X114242380Y-79472023D01*
X114194761Y-79376785D01*
X114147142Y-79329166D01*
X124558666Y-60540380D02*
X124892000Y-60064190D01*
X125130095Y-60540380D02*
X125130095Y-59540380D01*
X124749142Y-59540380D01*
X124653904Y-59588000D01*
X124606285Y-59635619D01*
X124558666Y-59730857D01*
X124558666Y-59873714D01*
X124606285Y-59968952D01*
X124653904Y-60016571D01*
X124749142Y-60064190D01*
X125130095Y-60064190D01*
X124177714Y-59635619D02*
X124130095Y-59588000D01*
X124034857Y-59540380D01*
X123796761Y-59540380D01*
X123701523Y-59588000D01*
X123653904Y-59635619D01*
X123606285Y-59730857D01*
X123606285Y-59826095D01*
X123653904Y-59968952D01*
X124225333Y-60540380D01*
X123606285Y-60540380D01*
X120132380Y-78995833D02*
X119656190Y-78662500D01*
X120132380Y-78424404D02*
X119132380Y-78424404D01*
X119132380Y-78805357D01*
X119180000Y-78900595D01*
X119227619Y-78948214D01*
X119322857Y-78995833D01*
X119465714Y-78995833D01*
X119560952Y-78948214D01*
X119608571Y-78900595D01*
X119656190Y-78805357D01*
X119656190Y-78424404D01*
X120132380Y-79948214D02*
X120132380Y-79376785D01*
X120132380Y-79662500D02*
X119132380Y-79662500D01*
X119275238Y-79567261D01*
X119370476Y-79472023D01*
X119418095Y-79376785D01*
X127432380Y-55031666D02*
X128146666Y-55031666D01*
X128289523Y-54984047D01*
X128384761Y-54888809D01*
X128432380Y-54745952D01*
X128432380Y-54650714D01*
X127765714Y-55936428D02*
X128432380Y-55936428D01*
X127384761Y-55698333D02*
X128099047Y-55460238D01*
X128099047Y-56079285D01*
X120703333Y-74502380D02*
X120703333Y-75216666D01*
X120750952Y-75359523D01*
X120846190Y-75454761D01*
X120989047Y-75502380D01*
X121084285Y-75502380D01*
X120322380Y-74502380D02*
X119703333Y-74502380D01*
X120036666Y-74883333D01*
X119893809Y-74883333D01*
X119798571Y-74930952D01*
X119750952Y-74978571D01*
X119703333Y-75073809D01*
X119703333Y-75311904D01*
X119750952Y-75407142D01*
X119798571Y-75454761D01*
X119893809Y-75502380D01*
X120179523Y-75502380D01*
X120274761Y-75454761D01*
X120322380Y-75407142D01*
X114485904Y-66272380D02*
X114485904Y-67081904D01*
X114438285Y-67177142D01*
X114390666Y-67224761D01*
X114295428Y-67272380D01*
X114104952Y-67272380D01*
X114009714Y-67224761D01*
X113962095Y-67177142D01*
X113914476Y-67081904D01*
X113914476Y-66272380D01*
X113485904Y-66367619D02*
X113438285Y-66320000D01*
X113343047Y-66272380D01*
X113104952Y-66272380D01*
X113009714Y-66320000D01*
X112962095Y-66367619D01*
X112914476Y-66462857D01*
X112914476Y-66558095D01*
X112962095Y-66700952D01*
X113533523Y-67272380D01*
X112914476Y-67272380D01*
X96327380Y-76193095D02*
X97136904Y-76193095D01*
X97232142Y-76240714D01*
X97279761Y-76288333D01*
X97327380Y-76383571D01*
X97327380Y-76574047D01*
X97279761Y-76669285D01*
X97232142Y-76716904D01*
X97136904Y-76764523D01*
X96327380Y-76764523D01*
X97327380Y-77764523D02*
X97327380Y-77193095D01*
X97327380Y-77478809D02*
X96327380Y-77478809D01*
X96470238Y-77383571D01*
X96565476Y-77288333D01*
X96613095Y-77193095D01*
X121336666Y-63407142D02*
X121384285Y-63454761D01*
X121527142Y-63502380D01*
X121622380Y-63502380D01*
X121765238Y-63454761D01*
X121860476Y-63359523D01*
X121908095Y-63264285D01*
X121955714Y-63073809D01*
X121955714Y-62930952D01*
X121908095Y-62740476D01*
X121860476Y-62645238D01*
X121765238Y-62550000D01*
X121622380Y-62502380D01*
X121527142Y-62502380D01*
X121384285Y-62550000D01*
X121336666Y-62597619D01*
X120479523Y-62835714D02*
X120479523Y-63502380D01*
X120717619Y-62454761D02*
X120955714Y-63169047D01*
X120336666Y-63169047D01*
X109377142Y-62485833D02*
X109424761Y-62438214D01*
X109472380Y-62295357D01*
X109472380Y-62200119D01*
X109424761Y-62057261D01*
X109329523Y-61962023D01*
X109234285Y-61914404D01*
X109043809Y-61866785D01*
X108900952Y-61866785D01*
X108710476Y-61914404D01*
X108615238Y-61962023D01*
X108520000Y-62057261D01*
X108472380Y-62200119D01*
X108472380Y-62295357D01*
X108520000Y-62438214D01*
X108567619Y-62485833D01*
X108472380Y-62819166D02*
X108472380Y-63438214D01*
X108853333Y-63104880D01*
X108853333Y-63247738D01*
X108900952Y-63342976D01*
X108948571Y-63390595D01*
X109043809Y-63438214D01*
X109281904Y-63438214D01*
X109377142Y-63390595D01*
X109424761Y-63342976D01*
X109472380Y-63247738D01*
X109472380Y-62962023D01*
X109424761Y-62866785D01*
X109377142Y-62819166D01*
X102481666Y-80487142D02*
X102529285Y-80534761D01*
X102672142Y-80582380D01*
X102767380Y-80582380D01*
X102910238Y-80534761D01*
X103005476Y-80439523D01*
X103053095Y-80344285D01*
X103100714Y-80153809D01*
X103100714Y-80010952D01*
X103053095Y-79820476D01*
X103005476Y-79725238D01*
X102910238Y-79630000D01*
X102767380Y-79582380D01*
X102672142Y-79582380D01*
X102529285Y-79630000D01*
X102481666Y-79677619D01*
X102100714Y-79677619D02*
X102053095Y-79630000D01*
X101957857Y-79582380D01*
X101719761Y-79582380D01*
X101624523Y-79630000D01*
X101576904Y-79677619D01*
X101529285Y-79772857D01*
X101529285Y-79868095D01*
X101576904Y-80010952D01*
X102148333Y-80582380D01*
X101529285Y-80582380D01*
X102481666Y-74137142D02*
X102529285Y-74184761D01*
X102672142Y-74232380D01*
X102767380Y-74232380D01*
X102910238Y-74184761D01*
X103005476Y-74089523D01*
X103053095Y-73994285D01*
X103100714Y-73803809D01*
X103100714Y-73660952D01*
X103053095Y-73470476D01*
X103005476Y-73375238D01*
X102910238Y-73280000D01*
X102767380Y-73232380D01*
X102672142Y-73232380D01*
X102529285Y-73280000D01*
X102481666Y-73327619D01*
X101529285Y-74232380D02*
X102100714Y-74232380D01*
X101815000Y-74232380D02*
X101815000Y-73232380D01*
X101910238Y-73375238D01*
X102005476Y-73470476D01*
X102100714Y-73518095D01*
M02*
