G04 #@! TF.GenerationSoftware,KiCad,Pcbnew,(5.1.5)-3*
G04 #@! TF.CreationDate,2020-12-14T20:28:06-05:00*
G04 #@! TF.ProjectId,V0_Display,56305f44-6973-4706-9c61-792e6b696361,rev?*
G04 #@! TF.SameCoordinates,Original*
G04 #@! TF.FileFunction,Copper,L1,Top*
G04 #@! TF.FilePolarity,Positive*
%FSLAX46Y46*%
G04 Gerber Fmt 4.6, Leading zero omitted, Abs format (unit mm)*
G04 Created by KiCad (PCBNEW (5.1.5)-3) date 2020-12-14 20:28:06*
%MOMM*%
%LPD*%
G04 APERTURE LIST*
%ADD10C,1.524000*%
%ADD11R,1.500000X1.000000*%
%ADD12O,2.500000X4.000000*%
%ADD13C,2.000000*%
%ADD14O,1.700000X1.700000*%
%ADD15R,1.700000X1.700000*%
%ADD16O,1.100000X2.200000*%
%ADD17O,1.100000X2.000000*%
%ADD18O,1.900000X1.200000*%
%ADD19C,0.800000*%
%ADD20C,0.250000*%
%ADD21C,0.500000*%
%ADD22C,0.254000*%
G04 APERTURE END LIST*
D10*
X117280000Y-52850000D03*
X114740000Y-52850000D03*
X112200000Y-52850000D03*
X109660000Y-52850000D03*
D11*
X157470000Y-60550000D03*
X157470000Y-63750000D03*
X162370000Y-60550000D03*
X162370000Y-63750000D03*
D12*
X149500000Y-67150000D03*
X139340000Y-67150000D03*
D13*
X146920000Y-60150000D03*
X141920000Y-60150000D03*
X146920000Y-74650000D03*
X144420000Y-74650000D03*
X141920000Y-74650000D03*
X163170000Y-69900000D03*
X163170000Y-74400000D03*
X156670000Y-69900000D03*
X156670000Y-74400000D03*
X122475000Y-73145000D03*
X122475000Y-77645000D03*
X128975000Y-73145000D03*
X128975000Y-77645000D03*
D14*
X150575000Y-60445000D03*
D15*
X153115000Y-60445000D03*
D14*
X94670000Y-63340000D03*
X94670000Y-65880000D03*
X94670000Y-68420000D03*
D15*
X94670000Y-70960000D03*
D14*
X123110000Y-55365000D03*
D15*
X125650000Y-55365000D03*
D14*
X118030000Y-75050000D03*
X115490000Y-75050000D03*
D15*
X112950000Y-75050000D03*
D16*
X87350500Y-67150000D03*
D17*
X89382500Y-69944000D03*
D18*
X86682500Y-63650000D03*
X86682500Y-70650000D03*
D17*
X89382500Y-64356000D03*
D14*
X99090000Y-68650000D03*
X101630000Y-68650000D03*
D15*
X104170000Y-68650000D03*
D19*
X161370000Y-62350000D03*
X163275000Y-62350000D03*
X151718000Y-52698000D03*
X102775000Y-75955000D03*
X154745000Y-57930000D03*
X118670000Y-61400000D03*
X116760000Y-82035000D03*
X105330000Y-62350000D03*
X111570000Y-80850000D03*
X97235000Y-80130000D03*
X99775000Y-82035000D03*
X97870000Y-82035000D03*
X106760000Y-56000000D03*
X119160000Y-63850000D03*
X140610000Y-72230000D03*
X138070000Y-72230000D03*
X119020000Y-65880000D03*
X118978838Y-64833455D03*
X113585000Y-65525000D03*
X112315000Y-65525000D03*
X156290000Y-56635000D03*
X120970000Y-67650000D03*
X119177942Y-62842636D03*
X149500000Y-55085000D03*
X114855000Y-65525000D03*
X109170000Y-75050000D03*
X106760000Y-64890000D03*
X106760000Y-65890003D03*
X106760000Y-66890006D03*
D20*
X162370000Y-63750000D02*
X162370000Y-63350000D01*
X162370000Y-63350000D02*
X161370000Y-62350000D01*
X162370000Y-63750000D02*
X162370000Y-63255000D01*
X162370000Y-63255000D02*
X163275000Y-62350000D01*
D21*
X158720000Y-60550000D02*
X157470000Y-60550000D01*
X106720000Y-79900000D02*
X153920000Y-79900000D01*
X153920000Y-79900000D02*
X159920000Y-73900000D01*
X102775000Y-75955000D02*
X106720000Y-79900000D01*
X159920000Y-73900000D02*
X159920000Y-61750000D01*
X159920000Y-61750000D02*
X158720000Y-60550000D01*
D20*
X154766000Y-58846000D02*
X154766000Y-58286000D01*
X157470000Y-60550000D02*
X156470000Y-60550000D01*
X156470000Y-60550000D02*
X154766000Y-58846000D01*
X119160000Y-63850000D02*
X132170000Y-63850000D01*
X135870000Y-60150000D02*
X141920000Y-60150000D01*
X132170000Y-63850000D02*
X135870000Y-60150000D01*
X146920000Y-74650000D02*
X146920000Y-73540000D01*
X146920000Y-73540000D02*
X145610000Y-72230000D01*
X145610000Y-72230000D02*
X140610000Y-72230000D01*
X138070000Y-72230000D02*
X131720000Y-65880000D01*
X131720000Y-65880000D02*
X119020000Y-65880000D01*
X132103455Y-64833455D02*
X141920000Y-74650000D01*
X118978838Y-64833455D02*
X132103455Y-64833455D01*
X113585000Y-73145000D02*
X115490000Y-75050000D01*
X113585000Y-65525000D02*
X113585000Y-73145000D01*
X112315000Y-74415000D02*
X112950000Y-75050000D01*
X112315000Y-65525000D02*
X112315000Y-74415000D01*
X162370000Y-59800000D02*
X162370000Y-60550000D01*
X161745000Y-59175000D02*
X162370000Y-59800000D01*
X158195000Y-59175000D02*
X161745000Y-59175000D01*
X156290000Y-57270000D02*
X158195000Y-59175000D01*
X156290000Y-56635000D02*
X156290000Y-57270000D01*
X155255787Y-74400000D02*
X152980787Y-76675000D01*
X156670000Y-74400000D02*
X155255787Y-74400000D01*
X152980787Y-76675000D02*
X139340000Y-76675000D01*
X130315000Y-67650000D02*
X120970000Y-67650000D01*
X139340000Y-76675000D02*
X130315000Y-67650000D01*
X132227364Y-62842636D02*
X119177942Y-62842636D01*
X132227364Y-62842636D02*
X139985000Y-55085000D01*
X139985000Y-55085000D02*
X149500000Y-55085000D01*
X114855000Y-71875000D02*
X118030000Y-75050000D01*
X114855000Y-65525000D02*
X114855000Y-71875000D01*
X118030000Y-75050000D02*
X116854999Y-76225001D01*
X111945001Y-76225001D02*
X110770000Y-75050000D01*
X116854999Y-76225001D02*
X111945001Y-76225001D01*
X110770000Y-75050000D02*
X109170000Y-75050000D01*
X157370000Y-63650000D02*
X157470000Y-63750000D01*
X156470000Y-63750000D02*
X157470000Y-63750000D01*
X155320000Y-63750000D02*
X156470000Y-63750000D01*
X153115000Y-61545000D02*
X155320000Y-63750000D01*
X153115000Y-60445000D02*
X153115000Y-61545000D01*
X106760000Y-64890000D02*
X101045000Y-64890000D01*
X99090000Y-66845000D02*
X99090000Y-68650000D01*
X101045000Y-64890000D02*
X99090000Y-66845000D01*
X103187916Y-65890003D02*
X106194315Y-65890003D01*
X101630000Y-67447919D02*
X103187916Y-65890003D01*
X106194315Y-65890003D02*
X106760000Y-65890003D01*
X101630000Y-68650000D02*
X101630000Y-67447919D01*
X106194315Y-66890006D02*
X106760000Y-66890006D01*
X104170000Y-67550000D02*
X104829994Y-66890006D01*
X104829994Y-66890006D02*
X106194315Y-66890006D01*
X104170000Y-68650000D02*
X104170000Y-67550000D01*
D22*
G36*
X164510001Y-68962531D02*
G01*
X164439987Y-68857748D01*
X164212252Y-68630013D01*
X163944463Y-68451082D01*
X163646912Y-68327832D01*
X163331033Y-68265000D01*
X163008967Y-68265000D01*
X162693088Y-68327832D01*
X162395537Y-68451082D01*
X162127748Y-68630013D01*
X161900013Y-68857748D01*
X161721082Y-69125537D01*
X161597832Y-69423088D01*
X161535000Y-69738967D01*
X161535000Y-70061033D01*
X161597832Y-70376912D01*
X161721082Y-70674463D01*
X161900013Y-70942252D01*
X162127748Y-71169987D01*
X162395537Y-71348918D01*
X162693088Y-71472168D01*
X163008967Y-71535000D01*
X163331033Y-71535000D01*
X163646912Y-71472168D01*
X163944463Y-71348918D01*
X164212252Y-71169987D01*
X164439987Y-70942252D01*
X164510001Y-70837469D01*
X164510001Y-73462531D01*
X164439987Y-73357748D01*
X164212252Y-73130013D01*
X163944463Y-72951082D01*
X163646912Y-72827832D01*
X163331033Y-72765000D01*
X163008967Y-72765000D01*
X162693088Y-72827832D01*
X162395537Y-72951082D01*
X162127748Y-73130013D01*
X161900013Y-73357748D01*
X161721082Y-73625537D01*
X161597832Y-73923088D01*
X161535000Y-74238967D01*
X161535000Y-74561033D01*
X161597832Y-74876912D01*
X161721082Y-75174463D01*
X161900013Y-75442252D01*
X162127748Y-75669987D01*
X162395537Y-75848918D01*
X162693088Y-75972168D01*
X163008967Y-76035000D01*
X163331033Y-76035000D01*
X163646912Y-75972168D01*
X163944463Y-75848918D01*
X164212252Y-75669987D01*
X164439987Y-75442252D01*
X164510001Y-75337469D01*
X164510001Y-83990000D01*
X85830000Y-83990000D01*
X85830000Y-80429872D01*
X86935000Y-80429872D01*
X86935000Y-80870128D01*
X87020890Y-81301925D01*
X87189369Y-81708669D01*
X87433962Y-82074729D01*
X87745271Y-82386038D01*
X88111331Y-82630631D01*
X88518075Y-82799110D01*
X88949872Y-82885000D01*
X89390128Y-82885000D01*
X89821925Y-82799110D01*
X90228669Y-82630631D01*
X90594729Y-82386038D01*
X90906038Y-82074729D01*
X91150631Y-81708669D01*
X91319110Y-81301925D01*
X91405000Y-80870128D01*
X91405000Y-80429872D01*
X91319110Y-79998075D01*
X91150631Y-79591331D01*
X90906038Y-79225271D01*
X90594729Y-78913962D01*
X90228669Y-78669369D01*
X89821925Y-78500890D01*
X89390128Y-78415000D01*
X88949872Y-78415000D01*
X88518075Y-78500890D01*
X88111331Y-78669369D01*
X87745271Y-78913962D01*
X87433962Y-79225271D01*
X87189369Y-79591331D01*
X87020890Y-79998075D01*
X86935000Y-80429872D01*
X85830000Y-80429872D01*
X85830000Y-75853061D01*
X101740000Y-75853061D01*
X101740000Y-76056939D01*
X101779774Y-76256898D01*
X101857795Y-76445256D01*
X101971063Y-76614774D01*
X102115226Y-76758937D01*
X102284744Y-76872205D01*
X102473102Y-76950226D01*
X102529957Y-76961535D01*
X106063470Y-80495049D01*
X106091183Y-80528817D01*
X106124951Y-80556530D01*
X106124953Y-80556532D01*
X106225941Y-80639411D01*
X106379686Y-80721589D01*
X106546510Y-80772195D01*
X106676523Y-80785000D01*
X106676531Y-80785000D01*
X106720000Y-80789281D01*
X106763469Y-80785000D01*
X153876531Y-80785000D01*
X153920000Y-80789281D01*
X153963469Y-80785000D01*
X153963477Y-80785000D01*
X154093490Y-80772195D01*
X154260313Y-80721589D01*
X154414059Y-80639411D01*
X154548817Y-80528817D01*
X154576534Y-80495044D01*
X154641706Y-80429872D01*
X158935000Y-80429872D01*
X158935000Y-80870128D01*
X159020890Y-81301925D01*
X159189369Y-81708669D01*
X159433962Y-82074729D01*
X159745271Y-82386038D01*
X160111331Y-82630631D01*
X160518075Y-82799110D01*
X160949872Y-82885000D01*
X161390128Y-82885000D01*
X161821925Y-82799110D01*
X162228669Y-82630631D01*
X162594729Y-82386038D01*
X162906038Y-82074729D01*
X163150631Y-81708669D01*
X163319110Y-81301925D01*
X163405000Y-80870128D01*
X163405000Y-80429872D01*
X163319110Y-79998075D01*
X163150631Y-79591331D01*
X162906038Y-79225271D01*
X162594729Y-78913962D01*
X162228669Y-78669369D01*
X161821925Y-78500890D01*
X161390128Y-78415000D01*
X160949872Y-78415000D01*
X160518075Y-78500890D01*
X160111331Y-78669369D01*
X159745271Y-78913962D01*
X159433962Y-79225271D01*
X159189369Y-79591331D01*
X159020890Y-79998075D01*
X158935000Y-80429872D01*
X154641706Y-80429872D01*
X160515051Y-74556528D01*
X160548817Y-74528817D01*
X160581522Y-74488967D01*
X160659410Y-74394060D01*
X160659411Y-74394059D01*
X160741589Y-74240313D01*
X160792195Y-74073490D01*
X160805000Y-73943477D01*
X160805000Y-73943467D01*
X160809281Y-73900001D01*
X160805000Y-73856535D01*
X160805000Y-63217263D01*
X160879744Y-63267205D01*
X160981928Y-63309531D01*
X160981928Y-64250000D01*
X160994188Y-64374482D01*
X161030498Y-64494180D01*
X161089463Y-64604494D01*
X161168815Y-64701185D01*
X161265506Y-64780537D01*
X161375820Y-64839502D01*
X161495518Y-64875812D01*
X161620000Y-64888072D01*
X163120000Y-64888072D01*
X163244482Y-64875812D01*
X163364180Y-64839502D01*
X163474494Y-64780537D01*
X163571185Y-64701185D01*
X163650537Y-64604494D01*
X163709502Y-64494180D01*
X163745812Y-64374482D01*
X163758072Y-64250000D01*
X163758072Y-63270181D01*
X163765256Y-63267205D01*
X163934774Y-63153937D01*
X164078937Y-63009774D01*
X164192205Y-62840256D01*
X164270226Y-62651898D01*
X164310000Y-62451939D01*
X164310000Y-62248061D01*
X164270226Y-62048102D01*
X164192205Y-61859744D01*
X164078937Y-61690226D01*
X163934774Y-61546063D01*
X163765256Y-61432795D01*
X163658947Y-61388760D01*
X163709502Y-61294180D01*
X163745812Y-61174482D01*
X163758072Y-61050000D01*
X163758072Y-60050000D01*
X163745812Y-59925518D01*
X163709502Y-59805820D01*
X163650537Y-59695506D01*
X163571185Y-59598815D01*
X163474494Y-59519463D01*
X163364180Y-59460498D01*
X163244482Y-59424188D01*
X163120000Y-59411928D01*
X163024326Y-59411928D01*
X163004974Y-59375724D01*
X162935874Y-59291525D01*
X162933799Y-59288996D01*
X162933795Y-59288992D01*
X162910001Y-59259999D01*
X162881009Y-59236206D01*
X162308803Y-58664002D01*
X162285001Y-58634999D01*
X162169276Y-58540026D01*
X162037247Y-58469454D01*
X161893986Y-58425997D01*
X161782333Y-58415000D01*
X161782322Y-58415000D01*
X161745000Y-58411324D01*
X161707678Y-58415000D01*
X158509802Y-58415000D01*
X157210969Y-57116168D01*
X157285226Y-56936898D01*
X157325000Y-56736939D01*
X157325000Y-56533061D01*
X157285226Y-56333102D01*
X157207205Y-56144744D01*
X157093937Y-55975226D01*
X156949774Y-55831063D01*
X156780256Y-55717795D01*
X156591898Y-55639774D01*
X156391939Y-55600000D01*
X156188061Y-55600000D01*
X155988102Y-55639774D01*
X155799744Y-55717795D01*
X155630226Y-55831063D01*
X155486063Y-55975226D01*
X155372795Y-56144744D01*
X155294774Y-56333102D01*
X155255000Y-56533061D01*
X155255000Y-56736939D01*
X155294774Y-56936898D01*
X155361019Y-57096827D01*
X155235256Y-57012795D01*
X155046898Y-56934774D01*
X154846939Y-56895000D01*
X154643061Y-56895000D01*
X154443102Y-56934774D01*
X154254744Y-57012795D01*
X154085226Y-57126063D01*
X153941063Y-57270226D01*
X153827795Y-57439744D01*
X153749774Y-57628102D01*
X153710000Y-57828061D01*
X153710000Y-58031939D01*
X153749774Y-58231898D01*
X153827795Y-58420256D01*
X153941063Y-58589774D01*
X154006000Y-58654711D01*
X154006000Y-58808678D01*
X154002324Y-58846000D01*
X154006000Y-58883322D01*
X154006000Y-58883332D01*
X154013721Y-58961726D01*
X153965000Y-58956928D01*
X152265000Y-58956928D01*
X152140518Y-58969188D01*
X152020820Y-59005498D01*
X151910506Y-59064463D01*
X151813815Y-59143815D01*
X151734463Y-59240506D01*
X151675498Y-59350820D01*
X151653487Y-59423380D01*
X151521632Y-59291525D01*
X151278411Y-59129010D01*
X151008158Y-59017068D01*
X150721260Y-58960000D01*
X150428740Y-58960000D01*
X150141842Y-59017068D01*
X149871589Y-59129010D01*
X149628368Y-59291525D01*
X149421525Y-59498368D01*
X149259010Y-59741589D01*
X149147068Y-60011842D01*
X149090000Y-60298740D01*
X149090000Y-60591260D01*
X149147068Y-60878158D01*
X149259010Y-61148411D01*
X149421525Y-61391632D01*
X149628368Y-61598475D01*
X149871589Y-61760990D01*
X150141842Y-61872932D01*
X150428740Y-61930000D01*
X150721260Y-61930000D01*
X151008158Y-61872932D01*
X151278411Y-61760990D01*
X151521632Y-61598475D01*
X151653487Y-61466620D01*
X151675498Y-61539180D01*
X151734463Y-61649494D01*
X151813815Y-61746185D01*
X151910506Y-61825537D01*
X152020820Y-61884502D01*
X152140518Y-61920812D01*
X152265000Y-61933072D01*
X152460674Y-61933072D01*
X152480026Y-61969276D01*
X152524946Y-62024010D01*
X152575000Y-62085001D01*
X152603998Y-62108799D01*
X154756201Y-64261003D01*
X154779999Y-64290001D01*
X154808997Y-64313799D01*
X154895723Y-64384974D01*
X155021246Y-64452068D01*
X155027753Y-64455546D01*
X155171014Y-64499003D01*
X155282667Y-64510000D01*
X155282677Y-64510000D01*
X155320000Y-64513676D01*
X155357323Y-64510000D01*
X156138954Y-64510000D01*
X156189463Y-64604494D01*
X156268815Y-64701185D01*
X156365506Y-64780537D01*
X156475820Y-64839502D01*
X156595518Y-64875812D01*
X156720000Y-64888072D01*
X158220000Y-64888072D01*
X158344482Y-64875812D01*
X158464180Y-64839502D01*
X158574494Y-64780537D01*
X158671185Y-64701185D01*
X158750537Y-64604494D01*
X158809502Y-64494180D01*
X158845812Y-64374482D01*
X158858072Y-64250000D01*
X158858072Y-63250000D01*
X158845812Y-63125518D01*
X158809502Y-63005820D01*
X158750537Y-62895506D01*
X158671185Y-62798815D01*
X158574494Y-62719463D01*
X158464180Y-62660498D01*
X158344482Y-62624188D01*
X158220000Y-62611928D01*
X156720000Y-62611928D01*
X156595518Y-62624188D01*
X156475820Y-62660498D01*
X156365506Y-62719463D01*
X156268815Y-62798815D01*
X156189463Y-62895506D01*
X156138954Y-62990000D01*
X155634802Y-62990000D01*
X154402345Y-61757543D01*
X154416185Y-61746185D01*
X154495537Y-61649494D01*
X154554502Y-61539180D01*
X154590812Y-61419482D01*
X154603072Y-61295000D01*
X154603072Y-59757873D01*
X155906201Y-61061003D01*
X155929999Y-61090001D01*
X155958997Y-61113799D01*
X156045723Y-61184974D01*
X156107366Y-61217923D01*
X156130498Y-61294180D01*
X156189463Y-61404494D01*
X156268815Y-61501185D01*
X156365506Y-61580537D01*
X156475820Y-61639502D01*
X156595518Y-61675812D01*
X156720000Y-61688072D01*
X158220000Y-61688072D01*
X158344482Y-61675812D01*
X158464180Y-61639502D01*
X158525270Y-61606848D01*
X159035001Y-62116580D01*
X159035000Y-73533421D01*
X158305000Y-74263421D01*
X158305000Y-74238967D01*
X158242168Y-73923088D01*
X158118918Y-73625537D01*
X157939987Y-73357748D01*
X157712252Y-73130013D01*
X157444463Y-72951082D01*
X157146912Y-72827832D01*
X156831033Y-72765000D01*
X156508967Y-72765000D01*
X156193088Y-72827832D01*
X155895537Y-72951082D01*
X155627748Y-73130013D01*
X155400013Y-73357748D01*
X155221082Y-73625537D01*
X155214948Y-73640345D01*
X155106801Y-73650997D01*
X154963540Y-73694454D01*
X154831511Y-73765026D01*
X154715786Y-73859999D01*
X154691988Y-73888997D01*
X152665986Y-75915000D01*
X147967239Y-75915000D01*
X148189987Y-75692252D01*
X148368918Y-75424463D01*
X148492168Y-75126912D01*
X148555000Y-74811033D01*
X148555000Y-74488967D01*
X148492168Y-74173088D01*
X148368918Y-73875537D01*
X148189987Y-73607748D01*
X147962252Y-73380013D01*
X147694463Y-73201082D01*
X147573908Y-73151146D01*
X147554974Y-73115724D01*
X147460001Y-72999999D01*
X147431003Y-72976201D01*
X146173804Y-71719003D01*
X146150001Y-71689999D01*
X146034276Y-71595026D01*
X145902247Y-71524454D01*
X145758986Y-71480997D01*
X145647333Y-71470000D01*
X145647322Y-71470000D01*
X145610000Y-71466324D01*
X145572678Y-71470000D01*
X141313711Y-71470000D01*
X141269774Y-71426063D01*
X141100256Y-71312795D01*
X140911898Y-71234774D01*
X140711939Y-71195000D01*
X140508061Y-71195000D01*
X140308102Y-71234774D01*
X140119744Y-71312795D01*
X139950226Y-71426063D01*
X139860545Y-71515744D01*
X134652205Y-66307404D01*
X137455000Y-66307404D01*
X137455000Y-67992597D01*
X137482275Y-68269524D01*
X137590062Y-68624848D01*
X137765098Y-68952317D01*
X138000656Y-69239345D01*
X138287684Y-69474903D01*
X138615153Y-69649939D01*
X138970477Y-69757725D01*
X139340000Y-69794120D01*
X139709524Y-69757725D01*
X140064848Y-69649939D01*
X140392317Y-69474903D01*
X140679345Y-69239345D01*
X140914903Y-68952317D01*
X141089939Y-68624848D01*
X141197725Y-68269524D01*
X141225000Y-67992597D01*
X141225000Y-66307403D01*
X147615000Y-66307403D01*
X147615000Y-67992596D01*
X147642275Y-68269523D01*
X147750061Y-68624847D01*
X147925097Y-68952317D01*
X148160655Y-69239345D01*
X148447683Y-69474903D01*
X148775152Y-69649939D01*
X149130476Y-69757725D01*
X149500000Y-69794120D01*
X149869523Y-69757725D01*
X149931360Y-69738967D01*
X155035000Y-69738967D01*
X155035000Y-70061033D01*
X155097832Y-70376912D01*
X155221082Y-70674463D01*
X155400013Y-70942252D01*
X155627748Y-71169987D01*
X155895537Y-71348918D01*
X156193088Y-71472168D01*
X156508967Y-71535000D01*
X156831033Y-71535000D01*
X157146912Y-71472168D01*
X157444463Y-71348918D01*
X157712252Y-71169987D01*
X157939987Y-70942252D01*
X158118918Y-70674463D01*
X158242168Y-70376912D01*
X158305000Y-70061033D01*
X158305000Y-69738967D01*
X158242168Y-69423088D01*
X158118918Y-69125537D01*
X157939987Y-68857748D01*
X157712252Y-68630013D01*
X157444463Y-68451082D01*
X157146912Y-68327832D01*
X156831033Y-68265000D01*
X156508967Y-68265000D01*
X156193088Y-68327832D01*
X155895537Y-68451082D01*
X155627748Y-68630013D01*
X155400013Y-68857748D01*
X155221082Y-69125537D01*
X155097832Y-69423088D01*
X155035000Y-69738967D01*
X149931360Y-69738967D01*
X150224847Y-69649939D01*
X150552317Y-69474903D01*
X150839345Y-69239345D01*
X151074903Y-68952317D01*
X151249939Y-68624848D01*
X151357725Y-68269524D01*
X151385000Y-67992597D01*
X151385000Y-66307403D01*
X151357725Y-66030476D01*
X151249939Y-65675152D01*
X151074903Y-65347683D01*
X150839345Y-65060655D01*
X150552317Y-64825097D01*
X150224848Y-64650061D01*
X149869524Y-64542275D01*
X149500000Y-64505880D01*
X149130477Y-64542275D01*
X148775153Y-64650061D01*
X148447684Y-64825097D01*
X148160656Y-65060655D01*
X147925098Y-65347683D01*
X147750062Y-65675152D01*
X147642275Y-66030476D01*
X147615000Y-66307403D01*
X141225000Y-66307403D01*
X141197725Y-66030476D01*
X141089939Y-65675152D01*
X140914903Y-65347683D01*
X140679345Y-65060655D01*
X140392317Y-64825097D01*
X140064847Y-64650061D01*
X139709523Y-64542275D01*
X139340000Y-64505880D01*
X138970476Y-64542275D01*
X138615152Y-64650061D01*
X138287683Y-64825097D01*
X138000655Y-65060655D01*
X137765097Y-65347683D01*
X137590061Y-65675153D01*
X137482275Y-66030477D01*
X137455000Y-66307404D01*
X134652205Y-66307404D01*
X132721180Y-64376379D01*
X132733804Y-64360997D01*
X136184802Y-60910000D01*
X140465091Y-60910000D01*
X140471082Y-60924463D01*
X140650013Y-61192252D01*
X140877748Y-61419987D01*
X141145537Y-61598918D01*
X141443088Y-61722168D01*
X141758967Y-61785000D01*
X142081033Y-61785000D01*
X142396912Y-61722168D01*
X142694463Y-61598918D01*
X142962252Y-61419987D01*
X143189987Y-61192252D01*
X143368918Y-60924463D01*
X143492168Y-60626912D01*
X143555000Y-60311033D01*
X143555000Y-59988967D01*
X145285000Y-59988967D01*
X145285000Y-60311033D01*
X145347832Y-60626912D01*
X145471082Y-60924463D01*
X145650013Y-61192252D01*
X145877748Y-61419987D01*
X146145537Y-61598918D01*
X146443088Y-61722168D01*
X146758967Y-61785000D01*
X147081033Y-61785000D01*
X147396912Y-61722168D01*
X147694463Y-61598918D01*
X147962252Y-61419987D01*
X148189987Y-61192252D01*
X148368918Y-60924463D01*
X148492168Y-60626912D01*
X148555000Y-60311033D01*
X148555000Y-59988967D01*
X148492168Y-59673088D01*
X148368918Y-59375537D01*
X148189987Y-59107748D01*
X147962252Y-58880013D01*
X147694463Y-58701082D01*
X147396912Y-58577832D01*
X147081033Y-58515000D01*
X146758967Y-58515000D01*
X146443088Y-58577832D01*
X146145537Y-58701082D01*
X145877748Y-58880013D01*
X145650013Y-59107748D01*
X145471082Y-59375537D01*
X145347832Y-59673088D01*
X145285000Y-59988967D01*
X143555000Y-59988967D01*
X143492168Y-59673088D01*
X143368918Y-59375537D01*
X143189987Y-59107748D01*
X142962252Y-58880013D01*
X142694463Y-58701082D01*
X142396912Y-58577832D01*
X142081033Y-58515000D01*
X141758967Y-58515000D01*
X141443088Y-58577832D01*
X141145537Y-58701082D01*
X140877748Y-58880013D01*
X140650013Y-59107748D01*
X140471082Y-59375537D01*
X140465091Y-59390000D01*
X136754802Y-59390000D01*
X140299802Y-55845000D01*
X148796289Y-55845000D01*
X148840226Y-55888937D01*
X149009744Y-56002205D01*
X149198102Y-56080226D01*
X149398061Y-56120000D01*
X149601939Y-56120000D01*
X149801898Y-56080226D01*
X149990256Y-56002205D01*
X150159774Y-55888937D01*
X150303937Y-55744774D01*
X150417205Y-55575256D01*
X150477425Y-55429872D01*
X158935000Y-55429872D01*
X158935000Y-55870128D01*
X159020890Y-56301925D01*
X159189369Y-56708669D01*
X159433962Y-57074729D01*
X159745271Y-57386038D01*
X160111331Y-57630631D01*
X160518075Y-57799110D01*
X160949872Y-57885000D01*
X161390128Y-57885000D01*
X161821925Y-57799110D01*
X162228669Y-57630631D01*
X162594729Y-57386038D01*
X162906038Y-57074729D01*
X163150631Y-56708669D01*
X163319110Y-56301925D01*
X163405000Y-55870128D01*
X163405000Y-55429872D01*
X163319110Y-54998075D01*
X163150631Y-54591331D01*
X162906038Y-54225271D01*
X162594729Y-53913962D01*
X162228669Y-53669369D01*
X161821925Y-53500890D01*
X161390128Y-53415000D01*
X160949872Y-53415000D01*
X160518075Y-53500890D01*
X160111331Y-53669369D01*
X159745271Y-53913962D01*
X159433962Y-54225271D01*
X159189369Y-54591331D01*
X159020890Y-54998075D01*
X158935000Y-55429872D01*
X150477425Y-55429872D01*
X150495226Y-55386898D01*
X150535000Y-55186939D01*
X150535000Y-54983061D01*
X150495226Y-54783102D01*
X150417205Y-54594744D01*
X150303937Y-54425226D01*
X150159774Y-54281063D01*
X149990256Y-54167795D01*
X149801898Y-54089774D01*
X149601939Y-54050000D01*
X149398061Y-54050000D01*
X149198102Y-54089774D01*
X149009744Y-54167795D01*
X148840226Y-54281063D01*
X148796289Y-54325000D01*
X140022322Y-54325000D01*
X139984999Y-54321324D01*
X139947676Y-54325000D01*
X139947667Y-54325000D01*
X139836014Y-54335997D01*
X139692753Y-54379454D01*
X139560723Y-54450026D01*
X139481553Y-54515000D01*
X139444999Y-54544999D01*
X139421201Y-54573997D01*
X131912563Y-62082636D01*
X119881653Y-62082636D01*
X119837716Y-62038699D01*
X119668198Y-61925431D01*
X119479840Y-61847410D01*
X119279881Y-61807636D01*
X119076003Y-61807636D01*
X118876044Y-61847410D01*
X118687686Y-61925431D01*
X118518168Y-62038699D01*
X118374005Y-62182862D01*
X118260737Y-62352380D01*
X118182716Y-62540738D01*
X118142942Y-62740697D01*
X118142942Y-62944575D01*
X118182716Y-63144534D01*
X118260737Y-63332892D01*
X118242795Y-63359744D01*
X118164774Y-63548102D01*
X118125000Y-63748061D01*
X118125000Y-63951939D01*
X118164774Y-64151898D01*
X118174219Y-64174701D01*
X118061633Y-64343199D01*
X117983612Y-64531557D01*
X117943838Y-64731516D01*
X117943838Y-64935394D01*
X117983612Y-65135353D01*
X118061633Y-65323711D01*
X118104275Y-65387529D01*
X118102795Y-65389744D01*
X118024774Y-65578102D01*
X117985000Y-65778061D01*
X117985000Y-65981939D01*
X118024774Y-66181898D01*
X118102795Y-66370256D01*
X118216063Y-66539774D01*
X118360226Y-66683937D01*
X118529744Y-66797205D01*
X118718102Y-66875226D01*
X118918061Y-66915000D01*
X119121939Y-66915000D01*
X119321898Y-66875226D01*
X119510256Y-66797205D01*
X119679774Y-66683937D01*
X119723711Y-66640000D01*
X120742377Y-66640000D01*
X120668102Y-66654774D01*
X120479744Y-66732795D01*
X120310226Y-66846063D01*
X120166063Y-66990226D01*
X120052795Y-67159744D01*
X119974774Y-67348102D01*
X119935000Y-67548061D01*
X119935000Y-67751939D01*
X119974774Y-67951898D01*
X120052795Y-68140256D01*
X120166063Y-68309774D01*
X120310226Y-68453937D01*
X120479744Y-68567205D01*
X120668102Y-68645226D01*
X120868061Y-68685000D01*
X121071939Y-68685000D01*
X121271898Y-68645226D01*
X121460256Y-68567205D01*
X121629774Y-68453937D01*
X121673711Y-68410000D01*
X130000199Y-68410000D01*
X138776205Y-77186008D01*
X138799999Y-77215001D01*
X138828992Y-77238795D01*
X138828996Y-77238799D01*
X138899685Y-77296811D01*
X138915724Y-77309974D01*
X139047753Y-77380546D01*
X139191014Y-77424003D01*
X139302667Y-77435000D01*
X139302676Y-77435000D01*
X139339999Y-77438676D01*
X139377322Y-77435000D01*
X152943465Y-77435000D01*
X152980787Y-77438676D01*
X153018109Y-77435000D01*
X153018120Y-77435000D01*
X153129773Y-77424003D01*
X153273034Y-77380546D01*
X153405063Y-77309974D01*
X153520788Y-77215001D01*
X153544591Y-77185997D01*
X155355282Y-75375307D01*
X155400013Y-75442252D01*
X155627748Y-75669987D01*
X155895537Y-75848918D01*
X156193088Y-75972168D01*
X156508967Y-76035000D01*
X156533421Y-76035000D01*
X153553422Y-79015000D01*
X129867572Y-79015000D01*
X130017252Y-78914987D01*
X130244987Y-78687252D01*
X130423918Y-78419463D01*
X130547168Y-78121912D01*
X130610000Y-77806033D01*
X130610000Y-77483967D01*
X130547168Y-77168088D01*
X130423918Y-76870537D01*
X130244987Y-76602748D01*
X130017252Y-76375013D01*
X129749463Y-76196082D01*
X129451912Y-76072832D01*
X129136033Y-76010000D01*
X128813967Y-76010000D01*
X128498088Y-76072832D01*
X128200537Y-76196082D01*
X127932748Y-76375013D01*
X127705013Y-76602748D01*
X127526082Y-76870537D01*
X127402832Y-77168088D01*
X127340000Y-77483967D01*
X127340000Y-77806033D01*
X127402832Y-78121912D01*
X127526082Y-78419463D01*
X127705013Y-78687252D01*
X127932748Y-78914987D01*
X128082428Y-79015000D01*
X123367572Y-79015000D01*
X123517252Y-78914987D01*
X123744987Y-78687252D01*
X123923918Y-78419463D01*
X124047168Y-78121912D01*
X124110000Y-77806033D01*
X124110000Y-77483967D01*
X124047168Y-77168088D01*
X123923918Y-76870537D01*
X123744987Y-76602748D01*
X123517252Y-76375013D01*
X123249463Y-76196082D01*
X122951912Y-76072832D01*
X122636033Y-76010000D01*
X122313967Y-76010000D01*
X121998088Y-76072832D01*
X121700537Y-76196082D01*
X121432748Y-76375013D01*
X121205013Y-76602748D01*
X121026082Y-76870537D01*
X120902832Y-77168088D01*
X120840000Y-77483967D01*
X120840000Y-77806033D01*
X120902832Y-78121912D01*
X121026082Y-78419463D01*
X121205013Y-78687252D01*
X121432748Y-78914987D01*
X121582428Y-79015000D01*
X107086579Y-79015000D01*
X103781535Y-75709957D01*
X103770226Y-75653102D01*
X103692205Y-75464744D01*
X103578937Y-75295226D01*
X103434774Y-75151063D01*
X103265256Y-75037795D01*
X103076898Y-74959774D01*
X103018013Y-74948061D01*
X108135000Y-74948061D01*
X108135000Y-75151939D01*
X108174774Y-75351898D01*
X108252795Y-75540256D01*
X108366063Y-75709774D01*
X108510226Y-75853937D01*
X108679744Y-75967205D01*
X108868102Y-76045226D01*
X109068061Y-76085000D01*
X109271939Y-76085000D01*
X109471898Y-76045226D01*
X109660256Y-75967205D01*
X109829774Y-75853937D01*
X109873711Y-75810000D01*
X110455199Y-75810000D01*
X111381202Y-76736004D01*
X111405000Y-76765002D01*
X111520725Y-76859975D01*
X111652754Y-76930547D01*
X111796015Y-76974004D01*
X111907668Y-76985001D01*
X111907677Y-76985001D01*
X111945000Y-76988677D01*
X111982323Y-76985001D01*
X116817677Y-76985001D01*
X116854999Y-76988677D01*
X116892321Y-76985001D01*
X116892332Y-76985001D01*
X117003985Y-76974004D01*
X117147246Y-76930547D01*
X117279275Y-76859975D01*
X117395000Y-76765002D01*
X117418803Y-76735998D01*
X117663592Y-76491209D01*
X117883740Y-76535000D01*
X118176260Y-76535000D01*
X118463158Y-76477932D01*
X118733411Y-76365990D01*
X118976632Y-76203475D01*
X119183475Y-75996632D01*
X119345990Y-75753411D01*
X119457932Y-75483158D01*
X119515000Y-75196260D01*
X119515000Y-74903740D01*
X119457932Y-74616842D01*
X119345990Y-74346589D01*
X119183475Y-74103368D01*
X118976632Y-73896525D01*
X118733411Y-73734010D01*
X118463158Y-73622068D01*
X118176260Y-73565000D01*
X117883740Y-73565000D01*
X117663592Y-73608790D01*
X117038769Y-72983967D01*
X120840000Y-72983967D01*
X120840000Y-73306033D01*
X120902832Y-73621912D01*
X121026082Y-73919463D01*
X121205013Y-74187252D01*
X121432748Y-74414987D01*
X121700537Y-74593918D01*
X121998088Y-74717168D01*
X122313967Y-74780000D01*
X122636033Y-74780000D01*
X122951912Y-74717168D01*
X123249463Y-74593918D01*
X123517252Y-74414987D01*
X123744987Y-74187252D01*
X123923918Y-73919463D01*
X124047168Y-73621912D01*
X124110000Y-73306033D01*
X124110000Y-72983967D01*
X127340000Y-72983967D01*
X127340000Y-73306033D01*
X127402832Y-73621912D01*
X127526082Y-73919463D01*
X127705013Y-74187252D01*
X127932748Y-74414987D01*
X128200537Y-74593918D01*
X128498088Y-74717168D01*
X128813967Y-74780000D01*
X129136033Y-74780000D01*
X129451912Y-74717168D01*
X129749463Y-74593918D01*
X130017252Y-74414987D01*
X130244987Y-74187252D01*
X130423918Y-73919463D01*
X130547168Y-73621912D01*
X130610000Y-73306033D01*
X130610000Y-72983967D01*
X130547168Y-72668088D01*
X130423918Y-72370537D01*
X130244987Y-72102748D01*
X130017252Y-71875013D01*
X129749463Y-71696082D01*
X129451912Y-71572832D01*
X129136033Y-71510000D01*
X128813967Y-71510000D01*
X128498088Y-71572832D01*
X128200537Y-71696082D01*
X127932748Y-71875013D01*
X127705013Y-72102748D01*
X127526082Y-72370537D01*
X127402832Y-72668088D01*
X127340000Y-72983967D01*
X124110000Y-72983967D01*
X124047168Y-72668088D01*
X123923918Y-72370537D01*
X123744987Y-72102748D01*
X123517252Y-71875013D01*
X123249463Y-71696082D01*
X122951912Y-71572832D01*
X122636033Y-71510000D01*
X122313967Y-71510000D01*
X121998088Y-71572832D01*
X121700537Y-71696082D01*
X121432748Y-71875013D01*
X121205013Y-72102748D01*
X121026082Y-72370537D01*
X120902832Y-72668088D01*
X120840000Y-72983967D01*
X117038769Y-72983967D01*
X115615000Y-71560199D01*
X115615000Y-66228711D01*
X115658937Y-66184774D01*
X115772205Y-66015256D01*
X115850226Y-65826898D01*
X115890000Y-65626939D01*
X115890000Y-65423061D01*
X115850226Y-65223102D01*
X115772205Y-65034744D01*
X115658937Y-64865226D01*
X115514774Y-64721063D01*
X115345256Y-64607795D01*
X115156898Y-64529774D01*
X114956939Y-64490000D01*
X114753061Y-64490000D01*
X114553102Y-64529774D01*
X114364744Y-64607795D01*
X114220000Y-64704510D01*
X114075256Y-64607795D01*
X113886898Y-64529774D01*
X113686939Y-64490000D01*
X113483061Y-64490000D01*
X113283102Y-64529774D01*
X113094744Y-64607795D01*
X112950000Y-64704510D01*
X112805256Y-64607795D01*
X112616898Y-64529774D01*
X112416939Y-64490000D01*
X112213061Y-64490000D01*
X112013102Y-64529774D01*
X111824744Y-64607795D01*
X111655226Y-64721063D01*
X111511063Y-64865226D01*
X111397795Y-65034744D01*
X111319774Y-65223102D01*
X111280000Y-65423061D01*
X111280000Y-65626939D01*
X111319774Y-65826898D01*
X111397795Y-66015256D01*
X111511063Y-66184774D01*
X111555000Y-66228711D01*
X111555001Y-73872562D01*
X111510498Y-73955820D01*
X111474188Y-74075518D01*
X111461928Y-74200000D01*
X111461928Y-74667127D01*
X111333804Y-74539003D01*
X111310001Y-74509999D01*
X111194276Y-74415026D01*
X111062247Y-74344454D01*
X110918986Y-74300997D01*
X110807333Y-74290000D01*
X110807322Y-74290000D01*
X110770000Y-74286324D01*
X110732678Y-74290000D01*
X109873711Y-74290000D01*
X109829774Y-74246063D01*
X109660256Y-74132795D01*
X109471898Y-74054774D01*
X109271939Y-74015000D01*
X109068061Y-74015000D01*
X108868102Y-74054774D01*
X108679744Y-74132795D01*
X108510226Y-74246063D01*
X108366063Y-74390226D01*
X108252795Y-74559744D01*
X108174774Y-74748102D01*
X108135000Y-74948061D01*
X103018013Y-74948061D01*
X102876939Y-74920000D01*
X102673061Y-74920000D01*
X102473102Y-74959774D01*
X102284744Y-75037795D01*
X102115226Y-75151063D01*
X101971063Y-75295226D01*
X101857795Y-75464744D01*
X101779774Y-75653102D01*
X101740000Y-75853061D01*
X85830000Y-75853061D01*
X85830000Y-71781759D01*
X85857599Y-71796511D01*
X86090398Y-71867130D01*
X86271835Y-71885000D01*
X87093165Y-71885000D01*
X87274602Y-71867130D01*
X87507401Y-71796511D01*
X87721949Y-71681833D01*
X87910002Y-71527502D01*
X88064333Y-71339449D01*
X88179011Y-71124901D01*
X88249630Y-70892102D01*
X88260818Y-70778507D01*
X88282406Y-70849674D01*
X88392443Y-71055536D01*
X88540526Y-71235975D01*
X88720965Y-71384058D01*
X88926827Y-71494094D01*
X89150201Y-71561853D01*
X89382500Y-71584733D01*
X89614800Y-71561853D01*
X89838174Y-71494094D01*
X90044036Y-71384058D01*
X90224475Y-71235975D01*
X90372558Y-71055536D01*
X90482594Y-70849674D01*
X90550353Y-70626300D01*
X90567500Y-70452206D01*
X90567500Y-70110000D01*
X93181928Y-70110000D01*
X93181928Y-71810000D01*
X93194188Y-71934482D01*
X93230498Y-72054180D01*
X93289463Y-72164494D01*
X93368815Y-72261185D01*
X93465506Y-72340537D01*
X93575820Y-72399502D01*
X93695518Y-72435812D01*
X93820000Y-72448072D01*
X95520000Y-72448072D01*
X95644482Y-72435812D01*
X95764180Y-72399502D01*
X95874494Y-72340537D01*
X95971185Y-72261185D01*
X96050537Y-72164494D01*
X96109502Y-72054180D01*
X96145812Y-71934482D01*
X96158072Y-71810000D01*
X96158072Y-70110000D01*
X96145812Y-69985518D01*
X96109502Y-69865820D01*
X96050537Y-69755506D01*
X95971185Y-69658815D01*
X95874494Y-69579463D01*
X95764180Y-69520498D01*
X95691620Y-69498487D01*
X95823475Y-69366632D01*
X95985990Y-69123411D01*
X96097932Y-68853158D01*
X96155000Y-68566260D01*
X96155000Y-68503740D01*
X97605000Y-68503740D01*
X97605000Y-68796260D01*
X97662068Y-69083158D01*
X97774010Y-69353411D01*
X97936525Y-69596632D01*
X98143368Y-69803475D01*
X98386589Y-69965990D01*
X98656842Y-70077932D01*
X98943740Y-70135000D01*
X99236260Y-70135000D01*
X99523158Y-70077932D01*
X99793411Y-69965990D01*
X100036632Y-69803475D01*
X100243475Y-69596632D01*
X100360000Y-69422240D01*
X100476525Y-69596632D01*
X100683368Y-69803475D01*
X100926589Y-69965990D01*
X101196842Y-70077932D01*
X101483740Y-70135000D01*
X101776260Y-70135000D01*
X102063158Y-70077932D01*
X102333411Y-69965990D01*
X102576632Y-69803475D01*
X102708487Y-69671620D01*
X102730498Y-69744180D01*
X102789463Y-69854494D01*
X102868815Y-69951185D01*
X102965506Y-70030537D01*
X103075820Y-70089502D01*
X103195518Y-70125812D01*
X103320000Y-70138072D01*
X105020000Y-70138072D01*
X105144482Y-70125812D01*
X105264180Y-70089502D01*
X105374494Y-70030537D01*
X105471185Y-69951185D01*
X105550537Y-69854494D01*
X105609502Y-69744180D01*
X105645812Y-69624482D01*
X105658072Y-69500000D01*
X105658072Y-67800000D01*
X105645812Y-67675518D01*
X105638073Y-67650006D01*
X106056289Y-67650006D01*
X106100226Y-67693943D01*
X106269744Y-67807211D01*
X106458102Y-67885232D01*
X106658061Y-67925006D01*
X106861939Y-67925006D01*
X107061898Y-67885232D01*
X107250256Y-67807211D01*
X107419774Y-67693943D01*
X107563937Y-67549780D01*
X107677205Y-67380262D01*
X107755226Y-67191904D01*
X107795000Y-66991945D01*
X107795000Y-66788067D01*
X107755226Y-66588108D01*
X107677205Y-66399750D01*
X107670693Y-66390005D01*
X107677205Y-66380259D01*
X107755226Y-66191901D01*
X107795000Y-65991942D01*
X107795000Y-65788064D01*
X107755226Y-65588105D01*
X107677205Y-65399747D01*
X107670693Y-65390002D01*
X107677205Y-65380256D01*
X107755226Y-65191898D01*
X107795000Y-64991939D01*
X107795000Y-64788061D01*
X107755226Y-64588102D01*
X107677205Y-64399744D01*
X107563937Y-64230226D01*
X107419774Y-64086063D01*
X107250256Y-63972795D01*
X107061898Y-63894774D01*
X106861939Y-63855000D01*
X106658061Y-63855000D01*
X106458102Y-63894774D01*
X106269744Y-63972795D01*
X106100226Y-64086063D01*
X106056289Y-64130000D01*
X101082333Y-64130000D01*
X101045000Y-64126323D01*
X101007667Y-64130000D01*
X100896014Y-64140997D01*
X100752753Y-64184454D01*
X100620724Y-64255026D01*
X100504999Y-64349999D01*
X100481201Y-64378997D01*
X98579003Y-66281196D01*
X98549999Y-66304999D01*
X98513064Y-66350005D01*
X98455026Y-66420724D01*
X98430970Y-66465730D01*
X98384454Y-66552754D01*
X98340997Y-66696015D01*
X98330000Y-66807668D01*
X98330000Y-66807678D01*
X98326324Y-66845000D01*
X98330000Y-66882323D01*
X98330000Y-67371821D01*
X98143368Y-67496525D01*
X97936525Y-67703368D01*
X97774010Y-67946589D01*
X97662068Y-68216842D01*
X97605000Y-68503740D01*
X96155000Y-68503740D01*
X96155000Y-68273740D01*
X96097932Y-67986842D01*
X95985990Y-67716589D01*
X95823475Y-67473368D01*
X95616632Y-67266525D01*
X95442240Y-67150000D01*
X95616632Y-67033475D01*
X95823475Y-66826632D01*
X95985990Y-66583411D01*
X96097932Y-66313158D01*
X96155000Y-66026260D01*
X96155000Y-65733740D01*
X96097932Y-65446842D01*
X95985990Y-65176589D01*
X95823475Y-64933368D01*
X95616632Y-64726525D01*
X95442240Y-64610000D01*
X95616632Y-64493475D01*
X95823475Y-64286632D01*
X95985990Y-64043411D01*
X96097932Y-63773158D01*
X96155000Y-63486260D01*
X96155000Y-63193740D01*
X96097932Y-62906842D01*
X95985990Y-62636589D01*
X95823475Y-62393368D01*
X95616632Y-62186525D01*
X95373411Y-62024010D01*
X95103158Y-61912068D01*
X94816260Y-61855000D01*
X94523740Y-61855000D01*
X94236842Y-61912068D01*
X93966589Y-62024010D01*
X93723368Y-62186525D01*
X93516525Y-62393368D01*
X93354010Y-62636589D01*
X93242068Y-62906842D01*
X93185000Y-63193740D01*
X93185000Y-63486260D01*
X93242068Y-63773158D01*
X93354010Y-64043411D01*
X93516525Y-64286632D01*
X93723368Y-64493475D01*
X93897760Y-64610000D01*
X93723368Y-64726525D01*
X93516525Y-64933368D01*
X93354010Y-65176589D01*
X93242068Y-65446842D01*
X93185000Y-65733740D01*
X93185000Y-66026260D01*
X93242068Y-66313158D01*
X93354010Y-66583411D01*
X93516525Y-66826632D01*
X93723368Y-67033475D01*
X93897760Y-67150000D01*
X93723368Y-67266525D01*
X93516525Y-67473368D01*
X93354010Y-67716589D01*
X93242068Y-67986842D01*
X93185000Y-68273740D01*
X93185000Y-68566260D01*
X93242068Y-68853158D01*
X93354010Y-69123411D01*
X93516525Y-69366632D01*
X93648380Y-69498487D01*
X93575820Y-69520498D01*
X93465506Y-69579463D01*
X93368815Y-69658815D01*
X93289463Y-69755506D01*
X93230498Y-69865820D01*
X93194188Y-69985518D01*
X93181928Y-70110000D01*
X90567500Y-70110000D01*
X90567500Y-69435793D01*
X90550353Y-69261700D01*
X90482594Y-69038326D01*
X90372558Y-68832464D01*
X90224475Y-68652025D01*
X90044035Y-68503942D01*
X89838173Y-68393906D01*
X89614799Y-68326147D01*
X89382500Y-68303267D01*
X89150200Y-68326147D01*
X88926826Y-68393906D01*
X88720964Y-68503942D01*
X88540525Y-68652025D01*
X88392442Y-68832465D01*
X88282406Y-69038327D01*
X88214647Y-69261701D01*
X88197500Y-69435794D01*
X88197500Y-70236049D01*
X88179011Y-70175099D01*
X88064333Y-69960551D01*
X87910002Y-69772498D01*
X87721949Y-69618167D01*
X87507401Y-69503489D01*
X87274602Y-69432870D01*
X87093165Y-69415000D01*
X86271835Y-69415000D01*
X86090398Y-69432870D01*
X85857599Y-69503489D01*
X85830000Y-69518241D01*
X85830000Y-66541794D01*
X86165500Y-66541794D01*
X86165500Y-67758207D01*
X86182647Y-67932300D01*
X86250406Y-68155674D01*
X86360443Y-68361536D01*
X86508526Y-68541975D01*
X86688965Y-68690058D01*
X86894827Y-68800094D01*
X87118201Y-68867853D01*
X87350500Y-68890733D01*
X87582800Y-68867853D01*
X87806174Y-68800094D01*
X88012036Y-68690058D01*
X88192475Y-68541975D01*
X88340558Y-68361536D01*
X88450594Y-68155674D01*
X88518353Y-67932300D01*
X88535500Y-67758207D01*
X88535500Y-66541793D01*
X88518353Y-66367700D01*
X88450594Y-66144326D01*
X88340558Y-65938464D01*
X88192475Y-65758025D01*
X88012035Y-65609942D01*
X87806173Y-65499906D01*
X87582799Y-65432147D01*
X87350500Y-65409267D01*
X87118200Y-65432147D01*
X86894826Y-65499906D01*
X86688964Y-65609942D01*
X86508525Y-65758025D01*
X86360442Y-65938465D01*
X86250406Y-66144327D01*
X86182647Y-66367701D01*
X86165500Y-66541794D01*
X85830000Y-66541794D01*
X85830000Y-64781759D01*
X85857599Y-64796511D01*
X86090398Y-64867130D01*
X86271835Y-64885000D01*
X87093165Y-64885000D01*
X87274602Y-64867130D01*
X87507401Y-64796511D01*
X87721949Y-64681833D01*
X87910002Y-64527502D01*
X88064333Y-64339449D01*
X88179011Y-64124901D01*
X88197500Y-64063951D01*
X88197500Y-64864207D01*
X88214647Y-65038300D01*
X88282406Y-65261674D01*
X88392443Y-65467536D01*
X88540526Y-65647975D01*
X88720965Y-65796058D01*
X88926827Y-65906094D01*
X89150201Y-65973853D01*
X89382500Y-65996733D01*
X89614800Y-65973853D01*
X89838174Y-65906094D01*
X90044036Y-65796058D01*
X90224475Y-65647975D01*
X90372558Y-65467536D01*
X90482594Y-65261674D01*
X90550353Y-65038300D01*
X90567500Y-64864206D01*
X90567500Y-63847793D01*
X90550353Y-63673700D01*
X90482594Y-63450326D01*
X90372558Y-63244464D01*
X90224475Y-63064025D01*
X90044035Y-62915942D01*
X89838173Y-62805906D01*
X89614799Y-62738147D01*
X89382500Y-62715267D01*
X89150200Y-62738147D01*
X88926826Y-62805906D01*
X88720964Y-62915942D01*
X88540525Y-63064025D01*
X88392442Y-63244465D01*
X88282406Y-63450327D01*
X88260818Y-63521493D01*
X88249630Y-63407898D01*
X88179011Y-63175099D01*
X88064333Y-62960551D01*
X87910002Y-62772498D01*
X87721949Y-62618167D01*
X87507401Y-62503489D01*
X87274602Y-62432870D01*
X87093165Y-62415000D01*
X86271835Y-62415000D01*
X86090398Y-62432870D01*
X85857599Y-62503489D01*
X85830000Y-62518241D01*
X85830000Y-55429872D01*
X86935000Y-55429872D01*
X86935000Y-55870128D01*
X87020890Y-56301925D01*
X87189369Y-56708669D01*
X87433962Y-57074729D01*
X87745271Y-57386038D01*
X88111331Y-57630631D01*
X88518075Y-57799110D01*
X88949872Y-57885000D01*
X89390128Y-57885000D01*
X89821925Y-57799110D01*
X90228669Y-57630631D01*
X90594729Y-57386038D01*
X90906038Y-57074729D01*
X91150631Y-56708669D01*
X91319110Y-56301925D01*
X91405000Y-55870128D01*
X91405000Y-55429872D01*
X91363004Y-55218740D01*
X121625000Y-55218740D01*
X121625000Y-55511260D01*
X121682068Y-55798158D01*
X121794010Y-56068411D01*
X121956525Y-56311632D01*
X122163368Y-56518475D01*
X122406589Y-56680990D01*
X122676842Y-56792932D01*
X122963740Y-56850000D01*
X123256260Y-56850000D01*
X123543158Y-56792932D01*
X123813411Y-56680990D01*
X124056632Y-56518475D01*
X124188487Y-56386620D01*
X124210498Y-56459180D01*
X124269463Y-56569494D01*
X124348815Y-56666185D01*
X124445506Y-56745537D01*
X124555820Y-56804502D01*
X124675518Y-56840812D01*
X124800000Y-56853072D01*
X125364250Y-56850000D01*
X125523000Y-56691250D01*
X125523000Y-55492000D01*
X125777000Y-55492000D01*
X125777000Y-56691250D01*
X125935750Y-56850000D01*
X126500000Y-56853072D01*
X126624482Y-56840812D01*
X126744180Y-56804502D01*
X126854494Y-56745537D01*
X126951185Y-56666185D01*
X127030537Y-56569494D01*
X127089502Y-56459180D01*
X127125812Y-56339482D01*
X127138072Y-56215000D01*
X127135000Y-55650750D01*
X126976250Y-55492000D01*
X125777000Y-55492000D01*
X125523000Y-55492000D01*
X125503000Y-55492000D01*
X125503000Y-55238000D01*
X125523000Y-55238000D01*
X125523000Y-54038750D01*
X125777000Y-54038750D01*
X125777000Y-55238000D01*
X126976250Y-55238000D01*
X127135000Y-55079250D01*
X127138072Y-54515000D01*
X127125812Y-54390518D01*
X127089502Y-54270820D01*
X127030537Y-54160506D01*
X126951185Y-54063815D01*
X126854494Y-53984463D01*
X126744180Y-53925498D01*
X126624482Y-53889188D01*
X126500000Y-53876928D01*
X125935750Y-53880000D01*
X125777000Y-54038750D01*
X125523000Y-54038750D01*
X125364250Y-53880000D01*
X124800000Y-53876928D01*
X124675518Y-53889188D01*
X124555820Y-53925498D01*
X124445506Y-53984463D01*
X124348815Y-54063815D01*
X124269463Y-54160506D01*
X124210498Y-54270820D01*
X124188487Y-54343380D01*
X124056632Y-54211525D01*
X123813411Y-54049010D01*
X123543158Y-53937068D01*
X123256260Y-53880000D01*
X122963740Y-53880000D01*
X122676842Y-53937068D01*
X122406589Y-54049010D01*
X122163368Y-54211525D01*
X121956525Y-54418368D01*
X121794010Y-54661589D01*
X121682068Y-54931842D01*
X121625000Y-55218740D01*
X91363004Y-55218740D01*
X91319110Y-54998075D01*
X91150631Y-54591331D01*
X90906038Y-54225271D01*
X90594729Y-53913962D01*
X90228669Y-53669369D01*
X89821925Y-53500890D01*
X89390128Y-53415000D01*
X88949872Y-53415000D01*
X88518075Y-53500890D01*
X88111331Y-53669369D01*
X87745271Y-53913962D01*
X87433962Y-54225271D01*
X87189369Y-54591331D01*
X87020890Y-54998075D01*
X86935000Y-55429872D01*
X85830000Y-55429872D01*
X85830000Y-52712408D01*
X108263000Y-52712408D01*
X108263000Y-52987592D01*
X108316686Y-53257490D01*
X108421995Y-53511727D01*
X108574880Y-53740535D01*
X108769465Y-53935120D01*
X108998273Y-54088005D01*
X109252510Y-54193314D01*
X109522408Y-54247000D01*
X109797592Y-54247000D01*
X110067490Y-54193314D01*
X110321727Y-54088005D01*
X110550535Y-53935120D01*
X110745120Y-53740535D01*
X110898005Y-53511727D01*
X110930000Y-53434485D01*
X110961995Y-53511727D01*
X111114880Y-53740535D01*
X111309465Y-53935120D01*
X111538273Y-54088005D01*
X111792510Y-54193314D01*
X112062408Y-54247000D01*
X112337592Y-54247000D01*
X112607490Y-54193314D01*
X112861727Y-54088005D01*
X113090535Y-53935120D01*
X113285120Y-53740535D01*
X113438005Y-53511727D01*
X113470000Y-53434485D01*
X113501995Y-53511727D01*
X113654880Y-53740535D01*
X113849465Y-53935120D01*
X114078273Y-54088005D01*
X114332510Y-54193314D01*
X114602408Y-54247000D01*
X114877592Y-54247000D01*
X115147490Y-54193314D01*
X115401727Y-54088005D01*
X115630535Y-53935120D01*
X115825120Y-53740535D01*
X115978005Y-53511727D01*
X116010000Y-53434485D01*
X116041995Y-53511727D01*
X116194880Y-53740535D01*
X116389465Y-53935120D01*
X116618273Y-54088005D01*
X116872510Y-54193314D01*
X117142408Y-54247000D01*
X117417592Y-54247000D01*
X117687490Y-54193314D01*
X117941727Y-54088005D01*
X118170535Y-53935120D01*
X118365120Y-53740535D01*
X118518005Y-53511727D01*
X118623314Y-53257490D01*
X118677000Y-52987592D01*
X118677000Y-52712408D01*
X118653858Y-52596061D01*
X150683000Y-52596061D01*
X150683000Y-52799939D01*
X150722774Y-52999898D01*
X150800795Y-53188256D01*
X150914063Y-53357774D01*
X151058226Y-53501937D01*
X151227744Y-53615205D01*
X151416102Y-53693226D01*
X151616061Y-53733000D01*
X151819939Y-53733000D01*
X152019898Y-53693226D01*
X152208256Y-53615205D01*
X152377774Y-53501937D01*
X152521937Y-53357774D01*
X152635205Y-53188256D01*
X152713226Y-52999898D01*
X152753000Y-52799939D01*
X152753000Y-52596061D01*
X152713226Y-52396102D01*
X152635205Y-52207744D01*
X152521937Y-52038226D01*
X152377774Y-51894063D01*
X152208256Y-51780795D01*
X152019898Y-51702774D01*
X151819939Y-51663000D01*
X151616061Y-51663000D01*
X151416102Y-51702774D01*
X151227744Y-51780795D01*
X151058226Y-51894063D01*
X150914063Y-52038226D01*
X150800795Y-52207744D01*
X150722774Y-52396102D01*
X150683000Y-52596061D01*
X118653858Y-52596061D01*
X118623314Y-52442510D01*
X118518005Y-52188273D01*
X118365120Y-51959465D01*
X118170535Y-51764880D01*
X117941727Y-51611995D01*
X117687490Y-51506686D01*
X117417592Y-51453000D01*
X117142408Y-51453000D01*
X116872510Y-51506686D01*
X116618273Y-51611995D01*
X116389465Y-51764880D01*
X116194880Y-51959465D01*
X116041995Y-52188273D01*
X116010000Y-52265515D01*
X115978005Y-52188273D01*
X115825120Y-51959465D01*
X115630535Y-51764880D01*
X115401727Y-51611995D01*
X115147490Y-51506686D01*
X114877592Y-51453000D01*
X114602408Y-51453000D01*
X114332510Y-51506686D01*
X114078273Y-51611995D01*
X113849465Y-51764880D01*
X113654880Y-51959465D01*
X113501995Y-52188273D01*
X113470000Y-52265515D01*
X113438005Y-52188273D01*
X113285120Y-51959465D01*
X113090535Y-51764880D01*
X112861727Y-51611995D01*
X112607490Y-51506686D01*
X112337592Y-51453000D01*
X112062408Y-51453000D01*
X111792510Y-51506686D01*
X111538273Y-51611995D01*
X111309465Y-51764880D01*
X111114880Y-51959465D01*
X110961995Y-52188273D01*
X110930000Y-52265515D01*
X110898005Y-52188273D01*
X110745120Y-51959465D01*
X110550535Y-51764880D01*
X110321727Y-51611995D01*
X110067490Y-51506686D01*
X109797592Y-51453000D01*
X109522408Y-51453000D01*
X109252510Y-51506686D01*
X108998273Y-51611995D01*
X108769465Y-51764880D01*
X108574880Y-51959465D01*
X108421995Y-52188273D01*
X108316686Y-52442510D01*
X108263000Y-52712408D01*
X85830000Y-52712408D01*
X85830000Y-50310000D01*
X164510000Y-50310000D01*
X164510001Y-68962531D01*
G37*
X164510001Y-68962531D02*
X164439987Y-68857748D01*
X164212252Y-68630013D01*
X163944463Y-68451082D01*
X163646912Y-68327832D01*
X163331033Y-68265000D01*
X163008967Y-68265000D01*
X162693088Y-68327832D01*
X162395537Y-68451082D01*
X162127748Y-68630013D01*
X161900013Y-68857748D01*
X161721082Y-69125537D01*
X161597832Y-69423088D01*
X161535000Y-69738967D01*
X161535000Y-70061033D01*
X161597832Y-70376912D01*
X161721082Y-70674463D01*
X161900013Y-70942252D01*
X162127748Y-71169987D01*
X162395537Y-71348918D01*
X162693088Y-71472168D01*
X163008967Y-71535000D01*
X163331033Y-71535000D01*
X163646912Y-71472168D01*
X163944463Y-71348918D01*
X164212252Y-71169987D01*
X164439987Y-70942252D01*
X164510001Y-70837469D01*
X164510001Y-73462531D01*
X164439987Y-73357748D01*
X164212252Y-73130013D01*
X163944463Y-72951082D01*
X163646912Y-72827832D01*
X163331033Y-72765000D01*
X163008967Y-72765000D01*
X162693088Y-72827832D01*
X162395537Y-72951082D01*
X162127748Y-73130013D01*
X161900013Y-73357748D01*
X161721082Y-73625537D01*
X161597832Y-73923088D01*
X161535000Y-74238967D01*
X161535000Y-74561033D01*
X161597832Y-74876912D01*
X161721082Y-75174463D01*
X161900013Y-75442252D01*
X162127748Y-75669987D01*
X162395537Y-75848918D01*
X162693088Y-75972168D01*
X163008967Y-76035000D01*
X163331033Y-76035000D01*
X163646912Y-75972168D01*
X163944463Y-75848918D01*
X164212252Y-75669987D01*
X164439987Y-75442252D01*
X164510001Y-75337469D01*
X164510001Y-83990000D01*
X85830000Y-83990000D01*
X85830000Y-80429872D01*
X86935000Y-80429872D01*
X86935000Y-80870128D01*
X87020890Y-81301925D01*
X87189369Y-81708669D01*
X87433962Y-82074729D01*
X87745271Y-82386038D01*
X88111331Y-82630631D01*
X88518075Y-82799110D01*
X88949872Y-82885000D01*
X89390128Y-82885000D01*
X89821925Y-82799110D01*
X90228669Y-82630631D01*
X90594729Y-82386038D01*
X90906038Y-82074729D01*
X91150631Y-81708669D01*
X91319110Y-81301925D01*
X91405000Y-80870128D01*
X91405000Y-80429872D01*
X91319110Y-79998075D01*
X91150631Y-79591331D01*
X90906038Y-79225271D01*
X90594729Y-78913962D01*
X90228669Y-78669369D01*
X89821925Y-78500890D01*
X89390128Y-78415000D01*
X88949872Y-78415000D01*
X88518075Y-78500890D01*
X88111331Y-78669369D01*
X87745271Y-78913962D01*
X87433962Y-79225271D01*
X87189369Y-79591331D01*
X87020890Y-79998075D01*
X86935000Y-80429872D01*
X85830000Y-80429872D01*
X85830000Y-75853061D01*
X101740000Y-75853061D01*
X101740000Y-76056939D01*
X101779774Y-76256898D01*
X101857795Y-76445256D01*
X101971063Y-76614774D01*
X102115226Y-76758937D01*
X102284744Y-76872205D01*
X102473102Y-76950226D01*
X102529957Y-76961535D01*
X106063470Y-80495049D01*
X106091183Y-80528817D01*
X106124951Y-80556530D01*
X106124953Y-80556532D01*
X106225941Y-80639411D01*
X106379686Y-80721589D01*
X106546510Y-80772195D01*
X106676523Y-80785000D01*
X106676531Y-80785000D01*
X106720000Y-80789281D01*
X106763469Y-80785000D01*
X153876531Y-80785000D01*
X153920000Y-80789281D01*
X153963469Y-80785000D01*
X153963477Y-80785000D01*
X154093490Y-80772195D01*
X154260313Y-80721589D01*
X154414059Y-80639411D01*
X154548817Y-80528817D01*
X154576534Y-80495044D01*
X154641706Y-80429872D01*
X158935000Y-80429872D01*
X158935000Y-80870128D01*
X159020890Y-81301925D01*
X159189369Y-81708669D01*
X159433962Y-82074729D01*
X159745271Y-82386038D01*
X160111331Y-82630631D01*
X160518075Y-82799110D01*
X160949872Y-82885000D01*
X161390128Y-82885000D01*
X161821925Y-82799110D01*
X162228669Y-82630631D01*
X162594729Y-82386038D01*
X162906038Y-82074729D01*
X163150631Y-81708669D01*
X163319110Y-81301925D01*
X163405000Y-80870128D01*
X163405000Y-80429872D01*
X163319110Y-79998075D01*
X163150631Y-79591331D01*
X162906038Y-79225271D01*
X162594729Y-78913962D01*
X162228669Y-78669369D01*
X161821925Y-78500890D01*
X161390128Y-78415000D01*
X160949872Y-78415000D01*
X160518075Y-78500890D01*
X160111331Y-78669369D01*
X159745271Y-78913962D01*
X159433962Y-79225271D01*
X159189369Y-79591331D01*
X159020890Y-79998075D01*
X158935000Y-80429872D01*
X154641706Y-80429872D01*
X160515051Y-74556528D01*
X160548817Y-74528817D01*
X160581522Y-74488967D01*
X160659410Y-74394060D01*
X160659411Y-74394059D01*
X160741589Y-74240313D01*
X160792195Y-74073490D01*
X160805000Y-73943477D01*
X160805000Y-73943467D01*
X160809281Y-73900001D01*
X160805000Y-73856535D01*
X160805000Y-63217263D01*
X160879744Y-63267205D01*
X160981928Y-63309531D01*
X160981928Y-64250000D01*
X160994188Y-64374482D01*
X161030498Y-64494180D01*
X161089463Y-64604494D01*
X161168815Y-64701185D01*
X161265506Y-64780537D01*
X161375820Y-64839502D01*
X161495518Y-64875812D01*
X161620000Y-64888072D01*
X163120000Y-64888072D01*
X163244482Y-64875812D01*
X163364180Y-64839502D01*
X163474494Y-64780537D01*
X163571185Y-64701185D01*
X163650537Y-64604494D01*
X163709502Y-64494180D01*
X163745812Y-64374482D01*
X163758072Y-64250000D01*
X163758072Y-63270181D01*
X163765256Y-63267205D01*
X163934774Y-63153937D01*
X164078937Y-63009774D01*
X164192205Y-62840256D01*
X164270226Y-62651898D01*
X164310000Y-62451939D01*
X164310000Y-62248061D01*
X164270226Y-62048102D01*
X164192205Y-61859744D01*
X164078937Y-61690226D01*
X163934774Y-61546063D01*
X163765256Y-61432795D01*
X163658947Y-61388760D01*
X163709502Y-61294180D01*
X163745812Y-61174482D01*
X163758072Y-61050000D01*
X163758072Y-60050000D01*
X163745812Y-59925518D01*
X163709502Y-59805820D01*
X163650537Y-59695506D01*
X163571185Y-59598815D01*
X163474494Y-59519463D01*
X163364180Y-59460498D01*
X163244482Y-59424188D01*
X163120000Y-59411928D01*
X163024326Y-59411928D01*
X163004974Y-59375724D01*
X162935874Y-59291525D01*
X162933799Y-59288996D01*
X162933795Y-59288992D01*
X162910001Y-59259999D01*
X162881009Y-59236206D01*
X162308803Y-58664002D01*
X162285001Y-58634999D01*
X162169276Y-58540026D01*
X162037247Y-58469454D01*
X161893986Y-58425997D01*
X161782333Y-58415000D01*
X161782322Y-58415000D01*
X161745000Y-58411324D01*
X161707678Y-58415000D01*
X158509802Y-58415000D01*
X157210969Y-57116168D01*
X157285226Y-56936898D01*
X157325000Y-56736939D01*
X157325000Y-56533061D01*
X157285226Y-56333102D01*
X157207205Y-56144744D01*
X157093937Y-55975226D01*
X156949774Y-55831063D01*
X156780256Y-55717795D01*
X156591898Y-55639774D01*
X156391939Y-55600000D01*
X156188061Y-55600000D01*
X155988102Y-55639774D01*
X155799744Y-55717795D01*
X155630226Y-55831063D01*
X155486063Y-55975226D01*
X155372795Y-56144744D01*
X155294774Y-56333102D01*
X155255000Y-56533061D01*
X155255000Y-56736939D01*
X155294774Y-56936898D01*
X155361019Y-57096827D01*
X155235256Y-57012795D01*
X155046898Y-56934774D01*
X154846939Y-56895000D01*
X154643061Y-56895000D01*
X154443102Y-56934774D01*
X154254744Y-57012795D01*
X154085226Y-57126063D01*
X153941063Y-57270226D01*
X153827795Y-57439744D01*
X153749774Y-57628102D01*
X153710000Y-57828061D01*
X153710000Y-58031939D01*
X153749774Y-58231898D01*
X153827795Y-58420256D01*
X153941063Y-58589774D01*
X154006000Y-58654711D01*
X154006000Y-58808678D01*
X154002324Y-58846000D01*
X154006000Y-58883322D01*
X154006000Y-58883332D01*
X154013721Y-58961726D01*
X153965000Y-58956928D01*
X152265000Y-58956928D01*
X152140518Y-58969188D01*
X152020820Y-59005498D01*
X151910506Y-59064463D01*
X151813815Y-59143815D01*
X151734463Y-59240506D01*
X151675498Y-59350820D01*
X151653487Y-59423380D01*
X151521632Y-59291525D01*
X151278411Y-59129010D01*
X151008158Y-59017068D01*
X150721260Y-58960000D01*
X150428740Y-58960000D01*
X150141842Y-59017068D01*
X149871589Y-59129010D01*
X149628368Y-59291525D01*
X149421525Y-59498368D01*
X149259010Y-59741589D01*
X149147068Y-60011842D01*
X149090000Y-60298740D01*
X149090000Y-60591260D01*
X149147068Y-60878158D01*
X149259010Y-61148411D01*
X149421525Y-61391632D01*
X149628368Y-61598475D01*
X149871589Y-61760990D01*
X150141842Y-61872932D01*
X150428740Y-61930000D01*
X150721260Y-61930000D01*
X151008158Y-61872932D01*
X151278411Y-61760990D01*
X151521632Y-61598475D01*
X151653487Y-61466620D01*
X151675498Y-61539180D01*
X151734463Y-61649494D01*
X151813815Y-61746185D01*
X151910506Y-61825537D01*
X152020820Y-61884502D01*
X152140518Y-61920812D01*
X152265000Y-61933072D01*
X152460674Y-61933072D01*
X152480026Y-61969276D01*
X152524946Y-62024010D01*
X152575000Y-62085001D01*
X152603998Y-62108799D01*
X154756201Y-64261003D01*
X154779999Y-64290001D01*
X154808997Y-64313799D01*
X154895723Y-64384974D01*
X155021246Y-64452068D01*
X155027753Y-64455546D01*
X155171014Y-64499003D01*
X155282667Y-64510000D01*
X155282677Y-64510000D01*
X155320000Y-64513676D01*
X155357323Y-64510000D01*
X156138954Y-64510000D01*
X156189463Y-64604494D01*
X156268815Y-64701185D01*
X156365506Y-64780537D01*
X156475820Y-64839502D01*
X156595518Y-64875812D01*
X156720000Y-64888072D01*
X158220000Y-64888072D01*
X158344482Y-64875812D01*
X158464180Y-64839502D01*
X158574494Y-64780537D01*
X158671185Y-64701185D01*
X158750537Y-64604494D01*
X158809502Y-64494180D01*
X158845812Y-64374482D01*
X158858072Y-64250000D01*
X158858072Y-63250000D01*
X158845812Y-63125518D01*
X158809502Y-63005820D01*
X158750537Y-62895506D01*
X158671185Y-62798815D01*
X158574494Y-62719463D01*
X158464180Y-62660498D01*
X158344482Y-62624188D01*
X158220000Y-62611928D01*
X156720000Y-62611928D01*
X156595518Y-62624188D01*
X156475820Y-62660498D01*
X156365506Y-62719463D01*
X156268815Y-62798815D01*
X156189463Y-62895506D01*
X156138954Y-62990000D01*
X155634802Y-62990000D01*
X154402345Y-61757543D01*
X154416185Y-61746185D01*
X154495537Y-61649494D01*
X154554502Y-61539180D01*
X154590812Y-61419482D01*
X154603072Y-61295000D01*
X154603072Y-59757873D01*
X155906201Y-61061003D01*
X155929999Y-61090001D01*
X155958997Y-61113799D01*
X156045723Y-61184974D01*
X156107366Y-61217923D01*
X156130498Y-61294180D01*
X156189463Y-61404494D01*
X156268815Y-61501185D01*
X156365506Y-61580537D01*
X156475820Y-61639502D01*
X156595518Y-61675812D01*
X156720000Y-61688072D01*
X158220000Y-61688072D01*
X158344482Y-61675812D01*
X158464180Y-61639502D01*
X158525270Y-61606848D01*
X159035001Y-62116580D01*
X159035000Y-73533421D01*
X158305000Y-74263421D01*
X158305000Y-74238967D01*
X158242168Y-73923088D01*
X158118918Y-73625537D01*
X157939987Y-73357748D01*
X157712252Y-73130013D01*
X157444463Y-72951082D01*
X157146912Y-72827832D01*
X156831033Y-72765000D01*
X156508967Y-72765000D01*
X156193088Y-72827832D01*
X155895537Y-72951082D01*
X155627748Y-73130013D01*
X155400013Y-73357748D01*
X155221082Y-73625537D01*
X155214948Y-73640345D01*
X155106801Y-73650997D01*
X154963540Y-73694454D01*
X154831511Y-73765026D01*
X154715786Y-73859999D01*
X154691988Y-73888997D01*
X152665986Y-75915000D01*
X147967239Y-75915000D01*
X148189987Y-75692252D01*
X148368918Y-75424463D01*
X148492168Y-75126912D01*
X148555000Y-74811033D01*
X148555000Y-74488967D01*
X148492168Y-74173088D01*
X148368918Y-73875537D01*
X148189987Y-73607748D01*
X147962252Y-73380013D01*
X147694463Y-73201082D01*
X147573908Y-73151146D01*
X147554974Y-73115724D01*
X147460001Y-72999999D01*
X147431003Y-72976201D01*
X146173804Y-71719003D01*
X146150001Y-71689999D01*
X146034276Y-71595026D01*
X145902247Y-71524454D01*
X145758986Y-71480997D01*
X145647333Y-71470000D01*
X145647322Y-71470000D01*
X145610000Y-71466324D01*
X145572678Y-71470000D01*
X141313711Y-71470000D01*
X141269774Y-71426063D01*
X141100256Y-71312795D01*
X140911898Y-71234774D01*
X140711939Y-71195000D01*
X140508061Y-71195000D01*
X140308102Y-71234774D01*
X140119744Y-71312795D01*
X139950226Y-71426063D01*
X139860545Y-71515744D01*
X134652205Y-66307404D01*
X137455000Y-66307404D01*
X137455000Y-67992597D01*
X137482275Y-68269524D01*
X137590062Y-68624848D01*
X137765098Y-68952317D01*
X138000656Y-69239345D01*
X138287684Y-69474903D01*
X138615153Y-69649939D01*
X138970477Y-69757725D01*
X139340000Y-69794120D01*
X139709524Y-69757725D01*
X140064848Y-69649939D01*
X140392317Y-69474903D01*
X140679345Y-69239345D01*
X140914903Y-68952317D01*
X141089939Y-68624848D01*
X141197725Y-68269524D01*
X141225000Y-67992597D01*
X141225000Y-66307403D01*
X147615000Y-66307403D01*
X147615000Y-67992596D01*
X147642275Y-68269523D01*
X147750061Y-68624847D01*
X147925097Y-68952317D01*
X148160655Y-69239345D01*
X148447683Y-69474903D01*
X148775152Y-69649939D01*
X149130476Y-69757725D01*
X149500000Y-69794120D01*
X149869523Y-69757725D01*
X149931360Y-69738967D01*
X155035000Y-69738967D01*
X155035000Y-70061033D01*
X155097832Y-70376912D01*
X155221082Y-70674463D01*
X155400013Y-70942252D01*
X155627748Y-71169987D01*
X155895537Y-71348918D01*
X156193088Y-71472168D01*
X156508967Y-71535000D01*
X156831033Y-71535000D01*
X157146912Y-71472168D01*
X157444463Y-71348918D01*
X157712252Y-71169987D01*
X157939987Y-70942252D01*
X158118918Y-70674463D01*
X158242168Y-70376912D01*
X158305000Y-70061033D01*
X158305000Y-69738967D01*
X158242168Y-69423088D01*
X158118918Y-69125537D01*
X157939987Y-68857748D01*
X157712252Y-68630013D01*
X157444463Y-68451082D01*
X157146912Y-68327832D01*
X156831033Y-68265000D01*
X156508967Y-68265000D01*
X156193088Y-68327832D01*
X155895537Y-68451082D01*
X155627748Y-68630013D01*
X155400013Y-68857748D01*
X155221082Y-69125537D01*
X155097832Y-69423088D01*
X155035000Y-69738967D01*
X149931360Y-69738967D01*
X150224847Y-69649939D01*
X150552317Y-69474903D01*
X150839345Y-69239345D01*
X151074903Y-68952317D01*
X151249939Y-68624848D01*
X151357725Y-68269524D01*
X151385000Y-67992597D01*
X151385000Y-66307403D01*
X151357725Y-66030476D01*
X151249939Y-65675152D01*
X151074903Y-65347683D01*
X150839345Y-65060655D01*
X150552317Y-64825097D01*
X150224848Y-64650061D01*
X149869524Y-64542275D01*
X149500000Y-64505880D01*
X149130477Y-64542275D01*
X148775153Y-64650061D01*
X148447684Y-64825097D01*
X148160656Y-65060655D01*
X147925098Y-65347683D01*
X147750062Y-65675152D01*
X147642275Y-66030476D01*
X147615000Y-66307403D01*
X141225000Y-66307403D01*
X141197725Y-66030476D01*
X141089939Y-65675152D01*
X140914903Y-65347683D01*
X140679345Y-65060655D01*
X140392317Y-64825097D01*
X140064847Y-64650061D01*
X139709523Y-64542275D01*
X139340000Y-64505880D01*
X138970476Y-64542275D01*
X138615152Y-64650061D01*
X138287683Y-64825097D01*
X138000655Y-65060655D01*
X137765097Y-65347683D01*
X137590061Y-65675153D01*
X137482275Y-66030477D01*
X137455000Y-66307404D01*
X134652205Y-66307404D01*
X132721180Y-64376379D01*
X132733804Y-64360997D01*
X136184802Y-60910000D01*
X140465091Y-60910000D01*
X140471082Y-60924463D01*
X140650013Y-61192252D01*
X140877748Y-61419987D01*
X141145537Y-61598918D01*
X141443088Y-61722168D01*
X141758967Y-61785000D01*
X142081033Y-61785000D01*
X142396912Y-61722168D01*
X142694463Y-61598918D01*
X142962252Y-61419987D01*
X143189987Y-61192252D01*
X143368918Y-60924463D01*
X143492168Y-60626912D01*
X143555000Y-60311033D01*
X143555000Y-59988967D01*
X145285000Y-59988967D01*
X145285000Y-60311033D01*
X145347832Y-60626912D01*
X145471082Y-60924463D01*
X145650013Y-61192252D01*
X145877748Y-61419987D01*
X146145537Y-61598918D01*
X146443088Y-61722168D01*
X146758967Y-61785000D01*
X147081033Y-61785000D01*
X147396912Y-61722168D01*
X147694463Y-61598918D01*
X147962252Y-61419987D01*
X148189987Y-61192252D01*
X148368918Y-60924463D01*
X148492168Y-60626912D01*
X148555000Y-60311033D01*
X148555000Y-59988967D01*
X148492168Y-59673088D01*
X148368918Y-59375537D01*
X148189987Y-59107748D01*
X147962252Y-58880013D01*
X147694463Y-58701082D01*
X147396912Y-58577832D01*
X147081033Y-58515000D01*
X146758967Y-58515000D01*
X146443088Y-58577832D01*
X146145537Y-58701082D01*
X145877748Y-58880013D01*
X145650013Y-59107748D01*
X145471082Y-59375537D01*
X145347832Y-59673088D01*
X145285000Y-59988967D01*
X143555000Y-59988967D01*
X143492168Y-59673088D01*
X143368918Y-59375537D01*
X143189987Y-59107748D01*
X142962252Y-58880013D01*
X142694463Y-58701082D01*
X142396912Y-58577832D01*
X142081033Y-58515000D01*
X141758967Y-58515000D01*
X141443088Y-58577832D01*
X141145537Y-58701082D01*
X140877748Y-58880013D01*
X140650013Y-59107748D01*
X140471082Y-59375537D01*
X140465091Y-59390000D01*
X136754802Y-59390000D01*
X140299802Y-55845000D01*
X148796289Y-55845000D01*
X148840226Y-55888937D01*
X149009744Y-56002205D01*
X149198102Y-56080226D01*
X149398061Y-56120000D01*
X149601939Y-56120000D01*
X149801898Y-56080226D01*
X149990256Y-56002205D01*
X150159774Y-55888937D01*
X150303937Y-55744774D01*
X150417205Y-55575256D01*
X150477425Y-55429872D01*
X158935000Y-55429872D01*
X158935000Y-55870128D01*
X159020890Y-56301925D01*
X159189369Y-56708669D01*
X159433962Y-57074729D01*
X159745271Y-57386038D01*
X160111331Y-57630631D01*
X160518075Y-57799110D01*
X160949872Y-57885000D01*
X161390128Y-57885000D01*
X161821925Y-57799110D01*
X162228669Y-57630631D01*
X162594729Y-57386038D01*
X162906038Y-57074729D01*
X163150631Y-56708669D01*
X163319110Y-56301925D01*
X163405000Y-55870128D01*
X163405000Y-55429872D01*
X163319110Y-54998075D01*
X163150631Y-54591331D01*
X162906038Y-54225271D01*
X162594729Y-53913962D01*
X162228669Y-53669369D01*
X161821925Y-53500890D01*
X161390128Y-53415000D01*
X160949872Y-53415000D01*
X160518075Y-53500890D01*
X160111331Y-53669369D01*
X159745271Y-53913962D01*
X159433962Y-54225271D01*
X159189369Y-54591331D01*
X159020890Y-54998075D01*
X158935000Y-55429872D01*
X150477425Y-55429872D01*
X150495226Y-55386898D01*
X150535000Y-55186939D01*
X150535000Y-54983061D01*
X150495226Y-54783102D01*
X150417205Y-54594744D01*
X150303937Y-54425226D01*
X150159774Y-54281063D01*
X149990256Y-54167795D01*
X149801898Y-54089774D01*
X149601939Y-54050000D01*
X149398061Y-54050000D01*
X149198102Y-54089774D01*
X149009744Y-54167795D01*
X148840226Y-54281063D01*
X148796289Y-54325000D01*
X140022322Y-54325000D01*
X139984999Y-54321324D01*
X139947676Y-54325000D01*
X139947667Y-54325000D01*
X139836014Y-54335997D01*
X139692753Y-54379454D01*
X139560723Y-54450026D01*
X139481553Y-54515000D01*
X139444999Y-54544999D01*
X139421201Y-54573997D01*
X131912563Y-62082636D01*
X119881653Y-62082636D01*
X119837716Y-62038699D01*
X119668198Y-61925431D01*
X119479840Y-61847410D01*
X119279881Y-61807636D01*
X119076003Y-61807636D01*
X118876044Y-61847410D01*
X118687686Y-61925431D01*
X118518168Y-62038699D01*
X118374005Y-62182862D01*
X118260737Y-62352380D01*
X118182716Y-62540738D01*
X118142942Y-62740697D01*
X118142942Y-62944575D01*
X118182716Y-63144534D01*
X118260737Y-63332892D01*
X118242795Y-63359744D01*
X118164774Y-63548102D01*
X118125000Y-63748061D01*
X118125000Y-63951939D01*
X118164774Y-64151898D01*
X118174219Y-64174701D01*
X118061633Y-64343199D01*
X117983612Y-64531557D01*
X117943838Y-64731516D01*
X117943838Y-64935394D01*
X117983612Y-65135353D01*
X118061633Y-65323711D01*
X118104275Y-65387529D01*
X118102795Y-65389744D01*
X118024774Y-65578102D01*
X117985000Y-65778061D01*
X117985000Y-65981939D01*
X118024774Y-66181898D01*
X118102795Y-66370256D01*
X118216063Y-66539774D01*
X118360226Y-66683937D01*
X118529744Y-66797205D01*
X118718102Y-66875226D01*
X118918061Y-66915000D01*
X119121939Y-66915000D01*
X119321898Y-66875226D01*
X119510256Y-66797205D01*
X119679774Y-66683937D01*
X119723711Y-66640000D01*
X120742377Y-66640000D01*
X120668102Y-66654774D01*
X120479744Y-66732795D01*
X120310226Y-66846063D01*
X120166063Y-66990226D01*
X120052795Y-67159744D01*
X119974774Y-67348102D01*
X119935000Y-67548061D01*
X119935000Y-67751939D01*
X119974774Y-67951898D01*
X120052795Y-68140256D01*
X120166063Y-68309774D01*
X120310226Y-68453937D01*
X120479744Y-68567205D01*
X120668102Y-68645226D01*
X120868061Y-68685000D01*
X121071939Y-68685000D01*
X121271898Y-68645226D01*
X121460256Y-68567205D01*
X121629774Y-68453937D01*
X121673711Y-68410000D01*
X130000199Y-68410000D01*
X138776205Y-77186008D01*
X138799999Y-77215001D01*
X138828992Y-77238795D01*
X138828996Y-77238799D01*
X138899685Y-77296811D01*
X138915724Y-77309974D01*
X139047753Y-77380546D01*
X139191014Y-77424003D01*
X139302667Y-77435000D01*
X139302676Y-77435000D01*
X139339999Y-77438676D01*
X139377322Y-77435000D01*
X152943465Y-77435000D01*
X152980787Y-77438676D01*
X153018109Y-77435000D01*
X153018120Y-77435000D01*
X153129773Y-77424003D01*
X153273034Y-77380546D01*
X153405063Y-77309974D01*
X153520788Y-77215001D01*
X153544591Y-77185997D01*
X155355282Y-75375307D01*
X155400013Y-75442252D01*
X155627748Y-75669987D01*
X155895537Y-75848918D01*
X156193088Y-75972168D01*
X156508967Y-76035000D01*
X156533421Y-76035000D01*
X153553422Y-79015000D01*
X129867572Y-79015000D01*
X130017252Y-78914987D01*
X130244987Y-78687252D01*
X130423918Y-78419463D01*
X130547168Y-78121912D01*
X130610000Y-77806033D01*
X130610000Y-77483967D01*
X130547168Y-77168088D01*
X130423918Y-76870537D01*
X130244987Y-76602748D01*
X130017252Y-76375013D01*
X129749463Y-76196082D01*
X129451912Y-76072832D01*
X129136033Y-76010000D01*
X128813967Y-76010000D01*
X128498088Y-76072832D01*
X128200537Y-76196082D01*
X127932748Y-76375013D01*
X127705013Y-76602748D01*
X127526082Y-76870537D01*
X127402832Y-77168088D01*
X127340000Y-77483967D01*
X127340000Y-77806033D01*
X127402832Y-78121912D01*
X127526082Y-78419463D01*
X127705013Y-78687252D01*
X127932748Y-78914987D01*
X128082428Y-79015000D01*
X123367572Y-79015000D01*
X123517252Y-78914987D01*
X123744987Y-78687252D01*
X123923918Y-78419463D01*
X124047168Y-78121912D01*
X124110000Y-77806033D01*
X124110000Y-77483967D01*
X124047168Y-77168088D01*
X123923918Y-76870537D01*
X123744987Y-76602748D01*
X123517252Y-76375013D01*
X123249463Y-76196082D01*
X122951912Y-76072832D01*
X122636033Y-76010000D01*
X122313967Y-76010000D01*
X121998088Y-76072832D01*
X121700537Y-76196082D01*
X121432748Y-76375013D01*
X121205013Y-76602748D01*
X121026082Y-76870537D01*
X120902832Y-77168088D01*
X120840000Y-77483967D01*
X120840000Y-77806033D01*
X120902832Y-78121912D01*
X121026082Y-78419463D01*
X121205013Y-78687252D01*
X121432748Y-78914987D01*
X121582428Y-79015000D01*
X107086579Y-79015000D01*
X103781535Y-75709957D01*
X103770226Y-75653102D01*
X103692205Y-75464744D01*
X103578937Y-75295226D01*
X103434774Y-75151063D01*
X103265256Y-75037795D01*
X103076898Y-74959774D01*
X103018013Y-74948061D01*
X108135000Y-74948061D01*
X108135000Y-75151939D01*
X108174774Y-75351898D01*
X108252795Y-75540256D01*
X108366063Y-75709774D01*
X108510226Y-75853937D01*
X108679744Y-75967205D01*
X108868102Y-76045226D01*
X109068061Y-76085000D01*
X109271939Y-76085000D01*
X109471898Y-76045226D01*
X109660256Y-75967205D01*
X109829774Y-75853937D01*
X109873711Y-75810000D01*
X110455199Y-75810000D01*
X111381202Y-76736004D01*
X111405000Y-76765002D01*
X111520725Y-76859975D01*
X111652754Y-76930547D01*
X111796015Y-76974004D01*
X111907668Y-76985001D01*
X111907677Y-76985001D01*
X111945000Y-76988677D01*
X111982323Y-76985001D01*
X116817677Y-76985001D01*
X116854999Y-76988677D01*
X116892321Y-76985001D01*
X116892332Y-76985001D01*
X117003985Y-76974004D01*
X117147246Y-76930547D01*
X117279275Y-76859975D01*
X117395000Y-76765002D01*
X117418803Y-76735998D01*
X117663592Y-76491209D01*
X117883740Y-76535000D01*
X118176260Y-76535000D01*
X118463158Y-76477932D01*
X118733411Y-76365990D01*
X118976632Y-76203475D01*
X119183475Y-75996632D01*
X119345990Y-75753411D01*
X119457932Y-75483158D01*
X119515000Y-75196260D01*
X119515000Y-74903740D01*
X119457932Y-74616842D01*
X119345990Y-74346589D01*
X119183475Y-74103368D01*
X118976632Y-73896525D01*
X118733411Y-73734010D01*
X118463158Y-73622068D01*
X118176260Y-73565000D01*
X117883740Y-73565000D01*
X117663592Y-73608790D01*
X117038769Y-72983967D01*
X120840000Y-72983967D01*
X120840000Y-73306033D01*
X120902832Y-73621912D01*
X121026082Y-73919463D01*
X121205013Y-74187252D01*
X121432748Y-74414987D01*
X121700537Y-74593918D01*
X121998088Y-74717168D01*
X122313967Y-74780000D01*
X122636033Y-74780000D01*
X122951912Y-74717168D01*
X123249463Y-74593918D01*
X123517252Y-74414987D01*
X123744987Y-74187252D01*
X123923918Y-73919463D01*
X124047168Y-73621912D01*
X124110000Y-73306033D01*
X124110000Y-72983967D01*
X127340000Y-72983967D01*
X127340000Y-73306033D01*
X127402832Y-73621912D01*
X127526082Y-73919463D01*
X127705013Y-74187252D01*
X127932748Y-74414987D01*
X128200537Y-74593918D01*
X128498088Y-74717168D01*
X128813967Y-74780000D01*
X129136033Y-74780000D01*
X129451912Y-74717168D01*
X129749463Y-74593918D01*
X130017252Y-74414987D01*
X130244987Y-74187252D01*
X130423918Y-73919463D01*
X130547168Y-73621912D01*
X130610000Y-73306033D01*
X130610000Y-72983967D01*
X130547168Y-72668088D01*
X130423918Y-72370537D01*
X130244987Y-72102748D01*
X130017252Y-71875013D01*
X129749463Y-71696082D01*
X129451912Y-71572832D01*
X129136033Y-71510000D01*
X128813967Y-71510000D01*
X128498088Y-71572832D01*
X128200537Y-71696082D01*
X127932748Y-71875013D01*
X127705013Y-72102748D01*
X127526082Y-72370537D01*
X127402832Y-72668088D01*
X127340000Y-72983967D01*
X124110000Y-72983967D01*
X124047168Y-72668088D01*
X123923918Y-72370537D01*
X123744987Y-72102748D01*
X123517252Y-71875013D01*
X123249463Y-71696082D01*
X122951912Y-71572832D01*
X122636033Y-71510000D01*
X122313967Y-71510000D01*
X121998088Y-71572832D01*
X121700537Y-71696082D01*
X121432748Y-71875013D01*
X121205013Y-72102748D01*
X121026082Y-72370537D01*
X120902832Y-72668088D01*
X120840000Y-72983967D01*
X117038769Y-72983967D01*
X115615000Y-71560199D01*
X115615000Y-66228711D01*
X115658937Y-66184774D01*
X115772205Y-66015256D01*
X115850226Y-65826898D01*
X115890000Y-65626939D01*
X115890000Y-65423061D01*
X115850226Y-65223102D01*
X115772205Y-65034744D01*
X115658937Y-64865226D01*
X115514774Y-64721063D01*
X115345256Y-64607795D01*
X115156898Y-64529774D01*
X114956939Y-64490000D01*
X114753061Y-64490000D01*
X114553102Y-64529774D01*
X114364744Y-64607795D01*
X114220000Y-64704510D01*
X114075256Y-64607795D01*
X113886898Y-64529774D01*
X113686939Y-64490000D01*
X113483061Y-64490000D01*
X113283102Y-64529774D01*
X113094744Y-64607795D01*
X112950000Y-64704510D01*
X112805256Y-64607795D01*
X112616898Y-64529774D01*
X112416939Y-64490000D01*
X112213061Y-64490000D01*
X112013102Y-64529774D01*
X111824744Y-64607795D01*
X111655226Y-64721063D01*
X111511063Y-64865226D01*
X111397795Y-65034744D01*
X111319774Y-65223102D01*
X111280000Y-65423061D01*
X111280000Y-65626939D01*
X111319774Y-65826898D01*
X111397795Y-66015256D01*
X111511063Y-66184774D01*
X111555000Y-66228711D01*
X111555001Y-73872562D01*
X111510498Y-73955820D01*
X111474188Y-74075518D01*
X111461928Y-74200000D01*
X111461928Y-74667127D01*
X111333804Y-74539003D01*
X111310001Y-74509999D01*
X111194276Y-74415026D01*
X111062247Y-74344454D01*
X110918986Y-74300997D01*
X110807333Y-74290000D01*
X110807322Y-74290000D01*
X110770000Y-74286324D01*
X110732678Y-74290000D01*
X109873711Y-74290000D01*
X109829774Y-74246063D01*
X109660256Y-74132795D01*
X109471898Y-74054774D01*
X109271939Y-74015000D01*
X109068061Y-74015000D01*
X108868102Y-74054774D01*
X108679744Y-74132795D01*
X108510226Y-74246063D01*
X108366063Y-74390226D01*
X108252795Y-74559744D01*
X108174774Y-74748102D01*
X108135000Y-74948061D01*
X103018013Y-74948061D01*
X102876939Y-74920000D01*
X102673061Y-74920000D01*
X102473102Y-74959774D01*
X102284744Y-75037795D01*
X102115226Y-75151063D01*
X101971063Y-75295226D01*
X101857795Y-75464744D01*
X101779774Y-75653102D01*
X101740000Y-75853061D01*
X85830000Y-75853061D01*
X85830000Y-71781759D01*
X85857599Y-71796511D01*
X86090398Y-71867130D01*
X86271835Y-71885000D01*
X87093165Y-71885000D01*
X87274602Y-71867130D01*
X87507401Y-71796511D01*
X87721949Y-71681833D01*
X87910002Y-71527502D01*
X88064333Y-71339449D01*
X88179011Y-71124901D01*
X88249630Y-70892102D01*
X88260818Y-70778507D01*
X88282406Y-70849674D01*
X88392443Y-71055536D01*
X88540526Y-71235975D01*
X88720965Y-71384058D01*
X88926827Y-71494094D01*
X89150201Y-71561853D01*
X89382500Y-71584733D01*
X89614800Y-71561853D01*
X89838174Y-71494094D01*
X90044036Y-71384058D01*
X90224475Y-71235975D01*
X90372558Y-71055536D01*
X90482594Y-70849674D01*
X90550353Y-70626300D01*
X90567500Y-70452206D01*
X90567500Y-70110000D01*
X93181928Y-70110000D01*
X93181928Y-71810000D01*
X93194188Y-71934482D01*
X93230498Y-72054180D01*
X93289463Y-72164494D01*
X93368815Y-72261185D01*
X93465506Y-72340537D01*
X93575820Y-72399502D01*
X93695518Y-72435812D01*
X93820000Y-72448072D01*
X95520000Y-72448072D01*
X95644482Y-72435812D01*
X95764180Y-72399502D01*
X95874494Y-72340537D01*
X95971185Y-72261185D01*
X96050537Y-72164494D01*
X96109502Y-72054180D01*
X96145812Y-71934482D01*
X96158072Y-71810000D01*
X96158072Y-70110000D01*
X96145812Y-69985518D01*
X96109502Y-69865820D01*
X96050537Y-69755506D01*
X95971185Y-69658815D01*
X95874494Y-69579463D01*
X95764180Y-69520498D01*
X95691620Y-69498487D01*
X95823475Y-69366632D01*
X95985990Y-69123411D01*
X96097932Y-68853158D01*
X96155000Y-68566260D01*
X96155000Y-68503740D01*
X97605000Y-68503740D01*
X97605000Y-68796260D01*
X97662068Y-69083158D01*
X97774010Y-69353411D01*
X97936525Y-69596632D01*
X98143368Y-69803475D01*
X98386589Y-69965990D01*
X98656842Y-70077932D01*
X98943740Y-70135000D01*
X99236260Y-70135000D01*
X99523158Y-70077932D01*
X99793411Y-69965990D01*
X100036632Y-69803475D01*
X100243475Y-69596632D01*
X100360000Y-69422240D01*
X100476525Y-69596632D01*
X100683368Y-69803475D01*
X100926589Y-69965990D01*
X101196842Y-70077932D01*
X101483740Y-70135000D01*
X101776260Y-70135000D01*
X102063158Y-70077932D01*
X102333411Y-69965990D01*
X102576632Y-69803475D01*
X102708487Y-69671620D01*
X102730498Y-69744180D01*
X102789463Y-69854494D01*
X102868815Y-69951185D01*
X102965506Y-70030537D01*
X103075820Y-70089502D01*
X103195518Y-70125812D01*
X103320000Y-70138072D01*
X105020000Y-70138072D01*
X105144482Y-70125812D01*
X105264180Y-70089502D01*
X105374494Y-70030537D01*
X105471185Y-69951185D01*
X105550537Y-69854494D01*
X105609502Y-69744180D01*
X105645812Y-69624482D01*
X105658072Y-69500000D01*
X105658072Y-67800000D01*
X105645812Y-67675518D01*
X105638073Y-67650006D01*
X106056289Y-67650006D01*
X106100226Y-67693943D01*
X106269744Y-67807211D01*
X106458102Y-67885232D01*
X106658061Y-67925006D01*
X106861939Y-67925006D01*
X107061898Y-67885232D01*
X107250256Y-67807211D01*
X107419774Y-67693943D01*
X107563937Y-67549780D01*
X107677205Y-67380262D01*
X107755226Y-67191904D01*
X107795000Y-66991945D01*
X107795000Y-66788067D01*
X107755226Y-66588108D01*
X107677205Y-66399750D01*
X107670693Y-66390005D01*
X107677205Y-66380259D01*
X107755226Y-66191901D01*
X107795000Y-65991942D01*
X107795000Y-65788064D01*
X107755226Y-65588105D01*
X107677205Y-65399747D01*
X107670693Y-65390002D01*
X107677205Y-65380256D01*
X107755226Y-65191898D01*
X107795000Y-64991939D01*
X107795000Y-64788061D01*
X107755226Y-64588102D01*
X107677205Y-64399744D01*
X107563937Y-64230226D01*
X107419774Y-64086063D01*
X107250256Y-63972795D01*
X107061898Y-63894774D01*
X106861939Y-63855000D01*
X106658061Y-63855000D01*
X106458102Y-63894774D01*
X106269744Y-63972795D01*
X106100226Y-64086063D01*
X106056289Y-64130000D01*
X101082333Y-64130000D01*
X101045000Y-64126323D01*
X101007667Y-64130000D01*
X100896014Y-64140997D01*
X100752753Y-64184454D01*
X100620724Y-64255026D01*
X100504999Y-64349999D01*
X100481201Y-64378997D01*
X98579003Y-66281196D01*
X98549999Y-66304999D01*
X98513064Y-66350005D01*
X98455026Y-66420724D01*
X98430970Y-66465730D01*
X98384454Y-66552754D01*
X98340997Y-66696015D01*
X98330000Y-66807668D01*
X98330000Y-66807678D01*
X98326324Y-66845000D01*
X98330000Y-66882323D01*
X98330000Y-67371821D01*
X98143368Y-67496525D01*
X97936525Y-67703368D01*
X97774010Y-67946589D01*
X97662068Y-68216842D01*
X97605000Y-68503740D01*
X96155000Y-68503740D01*
X96155000Y-68273740D01*
X96097932Y-67986842D01*
X95985990Y-67716589D01*
X95823475Y-67473368D01*
X95616632Y-67266525D01*
X95442240Y-67150000D01*
X95616632Y-67033475D01*
X95823475Y-66826632D01*
X95985990Y-66583411D01*
X96097932Y-66313158D01*
X96155000Y-66026260D01*
X96155000Y-65733740D01*
X96097932Y-65446842D01*
X95985990Y-65176589D01*
X95823475Y-64933368D01*
X95616632Y-64726525D01*
X95442240Y-64610000D01*
X95616632Y-64493475D01*
X95823475Y-64286632D01*
X95985990Y-64043411D01*
X96097932Y-63773158D01*
X96155000Y-63486260D01*
X96155000Y-63193740D01*
X96097932Y-62906842D01*
X95985990Y-62636589D01*
X95823475Y-62393368D01*
X95616632Y-62186525D01*
X95373411Y-62024010D01*
X95103158Y-61912068D01*
X94816260Y-61855000D01*
X94523740Y-61855000D01*
X94236842Y-61912068D01*
X93966589Y-62024010D01*
X93723368Y-62186525D01*
X93516525Y-62393368D01*
X93354010Y-62636589D01*
X93242068Y-62906842D01*
X93185000Y-63193740D01*
X93185000Y-63486260D01*
X93242068Y-63773158D01*
X93354010Y-64043411D01*
X93516525Y-64286632D01*
X93723368Y-64493475D01*
X93897760Y-64610000D01*
X93723368Y-64726525D01*
X93516525Y-64933368D01*
X93354010Y-65176589D01*
X93242068Y-65446842D01*
X93185000Y-65733740D01*
X93185000Y-66026260D01*
X93242068Y-66313158D01*
X93354010Y-66583411D01*
X93516525Y-66826632D01*
X93723368Y-67033475D01*
X93897760Y-67150000D01*
X93723368Y-67266525D01*
X93516525Y-67473368D01*
X93354010Y-67716589D01*
X93242068Y-67986842D01*
X93185000Y-68273740D01*
X93185000Y-68566260D01*
X93242068Y-68853158D01*
X93354010Y-69123411D01*
X93516525Y-69366632D01*
X93648380Y-69498487D01*
X93575820Y-69520498D01*
X93465506Y-69579463D01*
X93368815Y-69658815D01*
X93289463Y-69755506D01*
X93230498Y-69865820D01*
X93194188Y-69985518D01*
X93181928Y-70110000D01*
X90567500Y-70110000D01*
X90567500Y-69435793D01*
X90550353Y-69261700D01*
X90482594Y-69038326D01*
X90372558Y-68832464D01*
X90224475Y-68652025D01*
X90044035Y-68503942D01*
X89838173Y-68393906D01*
X89614799Y-68326147D01*
X89382500Y-68303267D01*
X89150200Y-68326147D01*
X88926826Y-68393906D01*
X88720964Y-68503942D01*
X88540525Y-68652025D01*
X88392442Y-68832465D01*
X88282406Y-69038327D01*
X88214647Y-69261701D01*
X88197500Y-69435794D01*
X88197500Y-70236049D01*
X88179011Y-70175099D01*
X88064333Y-69960551D01*
X87910002Y-69772498D01*
X87721949Y-69618167D01*
X87507401Y-69503489D01*
X87274602Y-69432870D01*
X87093165Y-69415000D01*
X86271835Y-69415000D01*
X86090398Y-69432870D01*
X85857599Y-69503489D01*
X85830000Y-69518241D01*
X85830000Y-66541794D01*
X86165500Y-66541794D01*
X86165500Y-67758207D01*
X86182647Y-67932300D01*
X86250406Y-68155674D01*
X86360443Y-68361536D01*
X86508526Y-68541975D01*
X86688965Y-68690058D01*
X86894827Y-68800094D01*
X87118201Y-68867853D01*
X87350500Y-68890733D01*
X87582800Y-68867853D01*
X87806174Y-68800094D01*
X88012036Y-68690058D01*
X88192475Y-68541975D01*
X88340558Y-68361536D01*
X88450594Y-68155674D01*
X88518353Y-67932300D01*
X88535500Y-67758207D01*
X88535500Y-66541793D01*
X88518353Y-66367700D01*
X88450594Y-66144326D01*
X88340558Y-65938464D01*
X88192475Y-65758025D01*
X88012035Y-65609942D01*
X87806173Y-65499906D01*
X87582799Y-65432147D01*
X87350500Y-65409267D01*
X87118200Y-65432147D01*
X86894826Y-65499906D01*
X86688964Y-65609942D01*
X86508525Y-65758025D01*
X86360442Y-65938465D01*
X86250406Y-66144327D01*
X86182647Y-66367701D01*
X86165500Y-66541794D01*
X85830000Y-66541794D01*
X85830000Y-64781759D01*
X85857599Y-64796511D01*
X86090398Y-64867130D01*
X86271835Y-64885000D01*
X87093165Y-64885000D01*
X87274602Y-64867130D01*
X87507401Y-64796511D01*
X87721949Y-64681833D01*
X87910002Y-64527502D01*
X88064333Y-64339449D01*
X88179011Y-64124901D01*
X88197500Y-64063951D01*
X88197500Y-64864207D01*
X88214647Y-65038300D01*
X88282406Y-65261674D01*
X88392443Y-65467536D01*
X88540526Y-65647975D01*
X88720965Y-65796058D01*
X88926827Y-65906094D01*
X89150201Y-65973853D01*
X89382500Y-65996733D01*
X89614800Y-65973853D01*
X89838174Y-65906094D01*
X90044036Y-65796058D01*
X90224475Y-65647975D01*
X90372558Y-65467536D01*
X90482594Y-65261674D01*
X90550353Y-65038300D01*
X90567500Y-64864206D01*
X90567500Y-63847793D01*
X90550353Y-63673700D01*
X90482594Y-63450326D01*
X90372558Y-63244464D01*
X90224475Y-63064025D01*
X90044035Y-62915942D01*
X89838173Y-62805906D01*
X89614799Y-62738147D01*
X89382500Y-62715267D01*
X89150200Y-62738147D01*
X88926826Y-62805906D01*
X88720964Y-62915942D01*
X88540525Y-63064025D01*
X88392442Y-63244465D01*
X88282406Y-63450327D01*
X88260818Y-63521493D01*
X88249630Y-63407898D01*
X88179011Y-63175099D01*
X88064333Y-62960551D01*
X87910002Y-62772498D01*
X87721949Y-62618167D01*
X87507401Y-62503489D01*
X87274602Y-62432870D01*
X87093165Y-62415000D01*
X86271835Y-62415000D01*
X86090398Y-62432870D01*
X85857599Y-62503489D01*
X85830000Y-62518241D01*
X85830000Y-55429872D01*
X86935000Y-55429872D01*
X86935000Y-55870128D01*
X87020890Y-56301925D01*
X87189369Y-56708669D01*
X87433962Y-57074729D01*
X87745271Y-57386038D01*
X88111331Y-57630631D01*
X88518075Y-57799110D01*
X88949872Y-57885000D01*
X89390128Y-57885000D01*
X89821925Y-57799110D01*
X90228669Y-57630631D01*
X90594729Y-57386038D01*
X90906038Y-57074729D01*
X91150631Y-56708669D01*
X91319110Y-56301925D01*
X91405000Y-55870128D01*
X91405000Y-55429872D01*
X91363004Y-55218740D01*
X121625000Y-55218740D01*
X121625000Y-55511260D01*
X121682068Y-55798158D01*
X121794010Y-56068411D01*
X121956525Y-56311632D01*
X122163368Y-56518475D01*
X122406589Y-56680990D01*
X122676842Y-56792932D01*
X122963740Y-56850000D01*
X123256260Y-56850000D01*
X123543158Y-56792932D01*
X123813411Y-56680990D01*
X124056632Y-56518475D01*
X124188487Y-56386620D01*
X124210498Y-56459180D01*
X124269463Y-56569494D01*
X124348815Y-56666185D01*
X124445506Y-56745537D01*
X124555820Y-56804502D01*
X124675518Y-56840812D01*
X124800000Y-56853072D01*
X125364250Y-56850000D01*
X125523000Y-56691250D01*
X125523000Y-55492000D01*
X125777000Y-55492000D01*
X125777000Y-56691250D01*
X125935750Y-56850000D01*
X126500000Y-56853072D01*
X126624482Y-56840812D01*
X126744180Y-56804502D01*
X126854494Y-56745537D01*
X126951185Y-56666185D01*
X127030537Y-56569494D01*
X127089502Y-56459180D01*
X127125812Y-56339482D01*
X127138072Y-56215000D01*
X127135000Y-55650750D01*
X126976250Y-55492000D01*
X125777000Y-55492000D01*
X125523000Y-55492000D01*
X125503000Y-55492000D01*
X125503000Y-55238000D01*
X125523000Y-55238000D01*
X125523000Y-54038750D01*
X125777000Y-54038750D01*
X125777000Y-55238000D01*
X126976250Y-55238000D01*
X127135000Y-55079250D01*
X127138072Y-54515000D01*
X127125812Y-54390518D01*
X127089502Y-54270820D01*
X127030537Y-54160506D01*
X126951185Y-54063815D01*
X126854494Y-53984463D01*
X126744180Y-53925498D01*
X126624482Y-53889188D01*
X126500000Y-53876928D01*
X125935750Y-53880000D01*
X125777000Y-54038750D01*
X125523000Y-54038750D01*
X125364250Y-53880000D01*
X124800000Y-53876928D01*
X124675518Y-53889188D01*
X124555820Y-53925498D01*
X124445506Y-53984463D01*
X124348815Y-54063815D01*
X124269463Y-54160506D01*
X124210498Y-54270820D01*
X124188487Y-54343380D01*
X124056632Y-54211525D01*
X123813411Y-54049010D01*
X123543158Y-53937068D01*
X123256260Y-53880000D01*
X122963740Y-53880000D01*
X122676842Y-53937068D01*
X122406589Y-54049010D01*
X122163368Y-54211525D01*
X121956525Y-54418368D01*
X121794010Y-54661589D01*
X121682068Y-54931842D01*
X121625000Y-55218740D01*
X91363004Y-55218740D01*
X91319110Y-54998075D01*
X91150631Y-54591331D01*
X90906038Y-54225271D01*
X90594729Y-53913962D01*
X90228669Y-53669369D01*
X89821925Y-53500890D01*
X89390128Y-53415000D01*
X88949872Y-53415000D01*
X88518075Y-53500890D01*
X88111331Y-53669369D01*
X87745271Y-53913962D01*
X87433962Y-54225271D01*
X87189369Y-54591331D01*
X87020890Y-54998075D01*
X86935000Y-55429872D01*
X85830000Y-55429872D01*
X85830000Y-52712408D01*
X108263000Y-52712408D01*
X108263000Y-52987592D01*
X108316686Y-53257490D01*
X108421995Y-53511727D01*
X108574880Y-53740535D01*
X108769465Y-53935120D01*
X108998273Y-54088005D01*
X109252510Y-54193314D01*
X109522408Y-54247000D01*
X109797592Y-54247000D01*
X110067490Y-54193314D01*
X110321727Y-54088005D01*
X110550535Y-53935120D01*
X110745120Y-53740535D01*
X110898005Y-53511727D01*
X110930000Y-53434485D01*
X110961995Y-53511727D01*
X111114880Y-53740535D01*
X111309465Y-53935120D01*
X111538273Y-54088005D01*
X111792510Y-54193314D01*
X112062408Y-54247000D01*
X112337592Y-54247000D01*
X112607490Y-54193314D01*
X112861727Y-54088005D01*
X113090535Y-53935120D01*
X113285120Y-53740535D01*
X113438005Y-53511727D01*
X113470000Y-53434485D01*
X113501995Y-53511727D01*
X113654880Y-53740535D01*
X113849465Y-53935120D01*
X114078273Y-54088005D01*
X114332510Y-54193314D01*
X114602408Y-54247000D01*
X114877592Y-54247000D01*
X115147490Y-54193314D01*
X115401727Y-54088005D01*
X115630535Y-53935120D01*
X115825120Y-53740535D01*
X115978005Y-53511727D01*
X116010000Y-53434485D01*
X116041995Y-53511727D01*
X116194880Y-53740535D01*
X116389465Y-53935120D01*
X116618273Y-54088005D01*
X116872510Y-54193314D01*
X117142408Y-54247000D01*
X117417592Y-54247000D01*
X117687490Y-54193314D01*
X117941727Y-54088005D01*
X118170535Y-53935120D01*
X118365120Y-53740535D01*
X118518005Y-53511727D01*
X118623314Y-53257490D01*
X118677000Y-52987592D01*
X118677000Y-52712408D01*
X118653858Y-52596061D01*
X150683000Y-52596061D01*
X150683000Y-52799939D01*
X150722774Y-52999898D01*
X150800795Y-53188256D01*
X150914063Y-53357774D01*
X151058226Y-53501937D01*
X151227744Y-53615205D01*
X151416102Y-53693226D01*
X151616061Y-53733000D01*
X151819939Y-53733000D01*
X152019898Y-53693226D01*
X152208256Y-53615205D01*
X152377774Y-53501937D01*
X152521937Y-53357774D01*
X152635205Y-53188256D01*
X152713226Y-52999898D01*
X152753000Y-52799939D01*
X152753000Y-52596061D01*
X152713226Y-52396102D01*
X152635205Y-52207744D01*
X152521937Y-52038226D01*
X152377774Y-51894063D01*
X152208256Y-51780795D01*
X152019898Y-51702774D01*
X151819939Y-51663000D01*
X151616061Y-51663000D01*
X151416102Y-51702774D01*
X151227744Y-51780795D01*
X151058226Y-51894063D01*
X150914063Y-52038226D01*
X150800795Y-52207744D01*
X150722774Y-52396102D01*
X150683000Y-52596061D01*
X118653858Y-52596061D01*
X118623314Y-52442510D01*
X118518005Y-52188273D01*
X118365120Y-51959465D01*
X118170535Y-51764880D01*
X117941727Y-51611995D01*
X117687490Y-51506686D01*
X117417592Y-51453000D01*
X117142408Y-51453000D01*
X116872510Y-51506686D01*
X116618273Y-51611995D01*
X116389465Y-51764880D01*
X116194880Y-51959465D01*
X116041995Y-52188273D01*
X116010000Y-52265515D01*
X115978005Y-52188273D01*
X115825120Y-51959465D01*
X115630535Y-51764880D01*
X115401727Y-51611995D01*
X115147490Y-51506686D01*
X114877592Y-51453000D01*
X114602408Y-51453000D01*
X114332510Y-51506686D01*
X114078273Y-51611995D01*
X113849465Y-51764880D01*
X113654880Y-51959465D01*
X113501995Y-52188273D01*
X113470000Y-52265515D01*
X113438005Y-52188273D01*
X113285120Y-51959465D01*
X113090535Y-51764880D01*
X112861727Y-51611995D01*
X112607490Y-51506686D01*
X112337592Y-51453000D01*
X112062408Y-51453000D01*
X111792510Y-51506686D01*
X111538273Y-51611995D01*
X111309465Y-51764880D01*
X111114880Y-51959465D01*
X110961995Y-52188273D01*
X110930000Y-52265515D01*
X110898005Y-52188273D01*
X110745120Y-51959465D01*
X110550535Y-51764880D01*
X110321727Y-51611995D01*
X110067490Y-51506686D01*
X109797592Y-51453000D01*
X109522408Y-51453000D01*
X109252510Y-51506686D01*
X108998273Y-51611995D01*
X108769465Y-51764880D01*
X108574880Y-51959465D01*
X108421995Y-52188273D01*
X108316686Y-52442510D01*
X108263000Y-52712408D01*
X85830000Y-52712408D01*
X85830000Y-50310000D01*
X164510000Y-50310000D01*
X164510001Y-68962531D01*
M02*
