G04 #@! TF.GenerationSoftware,KiCad,Pcbnew,(5.1.5)-3*
G04 #@! TF.CreationDate,2020-04-20T20:53:01-04:00*
G04 #@! TF.ProjectId,V-Naught_Display,562d4e61-7567-4687-945f-446973706c61,rev?*
G04 #@! TF.SameCoordinates,Original*
G04 #@! TF.FileFunction,Legend,Top*
G04 #@! TF.FilePolarity,Positive*
%FSLAX46Y46*%
G04 Gerber Fmt 4.6, Leading zero omitted, Abs format (unit mm)*
G04 Created by KiCad (PCBNEW (5.1.5)-3) date 2020-04-20 20:53:01*
%MOMM*%
%LPD*%
G04 APERTURE LIST*
%ADD10C,0.075000*%
%ADD11C,0.150000*%
%ADD12C,0.100000*%
%ADD13C,0.120000*%
G04 APERTURE END LIST*
D10*
X156829809Y-58520190D02*
X156996476Y-59020190D01*
X157163142Y-58520190D01*
X157329809Y-58829714D02*
X157710761Y-58829714D01*
X157520285Y-59020190D02*
X157520285Y-58639238D01*
X162318571Y-65275000D02*
X162270952Y-65251190D01*
X162199523Y-65251190D01*
X162128095Y-65275000D01*
X162080476Y-65322619D01*
X162056666Y-65370238D01*
X162032857Y-65465476D01*
X162032857Y-65536904D01*
X162056666Y-65632142D01*
X162080476Y-65679761D01*
X162128095Y-65727380D01*
X162199523Y-65751190D01*
X162247142Y-65751190D01*
X162318571Y-65727380D01*
X162342380Y-65703571D01*
X162342380Y-65536904D01*
X162247142Y-65536904D01*
X162556666Y-65417857D02*
X162556666Y-65751190D01*
X162556666Y-65465476D02*
X162580476Y-65441666D01*
X162628095Y-65417857D01*
X162699523Y-65417857D01*
X162747142Y-65441666D01*
X162770952Y-65489285D01*
X162770952Y-65751190D01*
X163223333Y-65751190D02*
X163223333Y-65251190D01*
X163223333Y-65727380D02*
X163175714Y-65751190D01*
X163080476Y-65751190D01*
X163032857Y-65727380D01*
X163009047Y-65703571D01*
X162985238Y-65655952D01*
X162985238Y-65513095D01*
X163009047Y-65465476D01*
X163032857Y-65441666D01*
X163080476Y-65417857D01*
X163175714Y-65417857D01*
X163223333Y-65441666D01*
X156833809Y-65751190D02*
X156833809Y-65251190D01*
X156952857Y-65251190D01*
X157024285Y-65275000D01*
X157071904Y-65322619D01*
X157095714Y-65370238D01*
X157119523Y-65465476D01*
X157119523Y-65536904D01*
X157095714Y-65632142D01*
X157071904Y-65679761D01*
X157024285Y-65727380D01*
X156952857Y-65751190D01*
X156833809Y-65751190D01*
X157405238Y-65751190D02*
X157357619Y-65727380D01*
X157333809Y-65703571D01*
X157310000Y-65655952D01*
X157310000Y-65513095D01*
X157333809Y-65465476D01*
X157357619Y-65441666D01*
X157405238Y-65417857D01*
X157476666Y-65417857D01*
X157524285Y-65441666D01*
X157548095Y-65465476D01*
X157571904Y-65513095D01*
X157571904Y-65655952D01*
X157548095Y-65703571D01*
X157524285Y-65727380D01*
X157476666Y-65751190D01*
X157405238Y-65751190D01*
X158000476Y-65417857D02*
X158000476Y-65751190D01*
X157786190Y-65417857D02*
X157786190Y-65679761D01*
X157810000Y-65727380D01*
X157857619Y-65751190D01*
X157929047Y-65751190D01*
X157976666Y-65727380D01*
X158000476Y-65703571D01*
X158167142Y-65417857D02*
X158357619Y-65417857D01*
X158238571Y-65251190D02*
X158238571Y-65679761D01*
X158262380Y-65727380D01*
X158310000Y-65751190D01*
X158357619Y-65751190D01*
X162163809Y-59020190D02*
X162163809Y-58520190D01*
X162282857Y-58520190D01*
X162354285Y-58544000D01*
X162401904Y-58591619D01*
X162425714Y-58639238D01*
X162449523Y-58734476D01*
X162449523Y-58805904D01*
X162425714Y-58901142D01*
X162401904Y-58948761D01*
X162354285Y-58996380D01*
X162282857Y-59020190D01*
X162163809Y-59020190D01*
X162663809Y-59020190D02*
X162663809Y-58686857D01*
X162663809Y-58520190D02*
X162640000Y-58544000D01*
X162663809Y-58567809D01*
X162687619Y-58544000D01*
X162663809Y-58520190D01*
X162663809Y-58567809D01*
X162901904Y-58686857D02*
X162901904Y-59020190D01*
X162901904Y-58734476D02*
X162925714Y-58710666D01*
X162973333Y-58686857D01*
X163044761Y-58686857D01*
X163092380Y-58710666D01*
X163116190Y-58758285D01*
X163116190Y-59020190D01*
D11*
X92231904Y-71130952D02*
X92231904Y-71511904D01*
X92612857Y-71550000D01*
X92574761Y-71511904D01*
X92536666Y-71435714D01*
X92536666Y-71245238D01*
X92574761Y-71169047D01*
X92612857Y-71130952D01*
X92689047Y-71092857D01*
X92879523Y-71092857D01*
X92955714Y-71130952D01*
X92993809Y-71169047D01*
X93031904Y-71245238D01*
X93031904Y-71435714D01*
X92993809Y-71511904D01*
X92955714Y-71550000D01*
X92231904Y-70864285D02*
X93031904Y-70597619D01*
X92231904Y-70330952D01*
X93031904Y-69454761D02*
X92231904Y-69454761D01*
X92231904Y-69264285D01*
X92270000Y-69150000D01*
X92346190Y-69073809D01*
X92422380Y-69035714D01*
X92574761Y-68997619D01*
X92689047Y-68997619D01*
X92841428Y-69035714D01*
X92917619Y-69073809D01*
X92993809Y-69150000D01*
X93031904Y-69264285D01*
X93031904Y-69454761D01*
X92727142Y-68654761D02*
X92727142Y-68045238D01*
X93031904Y-67054761D02*
X92231904Y-67054761D01*
X92231904Y-66864285D01*
X92270000Y-66750000D01*
X92346190Y-66673809D01*
X92422380Y-66635714D01*
X92574761Y-66597619D01*
X92689047Y-66597619D01*
X92841428Y-66635714D01*
X92917619Y-66673809D01*
X92993809Y-66750000D01*
X93031904Y-66864285D01*
X93031904Y-67054761D01*
X92727142Y-66254761D02*
X92727142Y-65645238D01*
X93031904Y-65950000D02*
X92422380Y-65950000D01*
X92270000Y-64235714D02*
X92231904Y-64311904D01*
X92231904Y-64426190D01*
X92270000Y-64540476D01*
X92346190Y-64616666D01*
X92422380Y-64654761D01*
X92574761Y-64692857D01*
X92689047Y-64692857D01*
X92841428Y-64654761D01*
X92917619Y-64616666D01*
X92993809Y-64540476D01*
X93031904Y-64426190D01*
X93031904Y-64350000D01*
X92993809Y-64235714D01*
X92955714Y-64197619D01*
X92689047Y-64197619D01*
X92689047Y-64350000D01*
X92498571Y-63854761D02*
X93031904Y-63854761D01*
X92574761Y-63854761D02*
X92536666Y-63816666D01*
X92498571Y-63740476D01*
X92498571Y-63626190D01*
X92536666Y-63550000D01*
X92612857Y-63511904D01*
X93031904Y-63511904D01*
X93031904Y-62788095D02*
X92231904Y-62788095D01*
X92993809Y-62788095D02*
X93031904Y-62864285D01*
X93031904Y-63016666D01*
X92993809Y-63092857D01*
X92955714Y-63130952D01*
X92879523Y-63169047D01*
X92650952Y-63169047D01*
X92574761Y-63130952D01*
X92536666Y-63092857D01*
X92498571Y-63016666D01*
X92498571Y-62864285D01*
X92536666Y-62788095D01*
D12*
X107759285Y-57243571D02*
X108330714Y-57243571D01*
X108045000Y-57529285D02*
X108045000Y-56957857D01*
X108616428Y-56779285D02*
X109080714Y-56779285D01*
X108830714Y-57065000D01*
X108937857Y-57065000D01*
X109009285Y-57100714D01*
X109045000Y-57136428D01*
X109080714Y-57207857D01*
X109080714Y-57386428D01*
X109045000Y-57457857D01*
X109009285Y-57493571D01*
X108937857Y-57529285D01*
X108723571Y-57529285D01*
X108652142Y-57493571D01*
X108616428Y-57457857D01*
X109295000Y-56779285D02*
X109545000Y-57529285D01*
X109795000Y-56779285D01*
X109973571Y-56779285D02*
X110437857Y-56779285D01*
X110187857Y-57065000D01*
X110295000Y-57065000D01*
X110366428Y-57100714D01*
X110402142Y-57136428D01*
X110437857Y-57207857D01*
X110437857Y-57386428D01*
X110402142Y-57457857D01*
X110366428Y-57493571D01*
X110295000Y-57529285D01*
X110080714Y-57529285D01*
X110009285Y-57493571D01*
X109973571Y-57457857D01*
X111723571Y-56815000D02*
X111652142Y-56779285D01*
X111545000Y-56779285D01*
X111437857Y-56815000D01*
X111366428Y-56886428D01*
X111330714Y-56957857D01*
X111295000Y-57100714D01*
X111295000Y-57207857D01*
X111330714Y-57350714D01*
X111366428Y-57422142D01*
X111437857Y-57493571D01*
X111545000Y-57529285D01*
X111616428Y-57529285D01*
X111723571Y-57493571D01*
X111759285Y-57457857D01*
X111759285Y-57207857D01*
X111616428Y-57207857D01*
X112080714Y-57529285D02*
X112080714Y-56779285D01*
X112509285Y-57529285D01*
X112509285Y-56779285D01*
X112866428Y-57529285D02*
X112866428Y-56779285D01*
X113045000Y-56779285D01*
X113152142Y-56815000D01*
X113223571Y-56886428D01*
X113259285Y-56957857D01*
X113295000Y-57100714D01*
X113295000Y-57207857D01*
X113259285Y-57350714D01*
X113223571Y-57422142D01*
X113152142Y-57493571D01*
X113045000Y-57529285D01*
X112866428Y-57529285D01*
X114152142Y-57493571D02*
X114259285Y-57529285D01*
X114437857Y-57529285D01*
X114509285Y-57493571D01*
X114545000Y-57457857D01*
X114580714Y-57386428D01*
X114580714Y-57315000D01*
X114545000Y-57243571D01*
X114509285Y-57207857D01*
X114437857Y-57172142D01*
X114295000Y-57136428D01*
X114223571Y-57100714D01*
X114187857Y-57065000D01*
X114152142Y-56993571D01*
X114152142Y-56922142D01*
X114187857Y-56850714D01*
X114223571Y-56815000D01*
X114295000Y-56779285D01*
X114473571Y-56779285D01*
X114580714Y-56815000D01*
X115330714Y-57457857D02*
X115295000Y-57493571D01*
X115187857Y-57529285D01*
X115116428Y-57529285D01*
X115009285Y-57493571D01*
X114937857Y-57422142D01*
X114902142Y-57350714D01*
X114866428Y-57207857D01*
X114866428Y-57100714D01*
X114902142Y-56957857D01*
X114937857Y-56886428D01*
X115009285Y-56815000D01*
X115116428Y-56779285D01*
X115187857Y-56779285D01*
X115295000Y-56815000D01*
X115330714Y-56850714D01*
X116009285Y-57529285D02*
X115652142Y-57529285D01*
X115652142Y-56779285D01*
X116795000Y-57493571D02*
X116902142Y-57529285D01*
X117080714Y-57529285D01*
X117152142Y-57493571D01*
X117187857Y-57457857D01*
X117223571Y-57386428D01*
X117223571Y-57315000D01*
X117187857Y-57243571D01*
X117152142Y-57207857D01*
X117080714Y-57172142D01*
X116937857Y-57136428D01*
X116866428Y-57100714D01*
X116830714Y-57065000D01*
X116795000Y-56993571D01*
X116795000Y-56922142D01*
X116830714Y-56850714D01*
X116866428Y-56815000D01*
X116937857Y-56779285D01*
X117116428Y-56779285D01*
X117223571Y-56815000D01*
X117545000Y-57529285D02*
X117545000Y-56779285D01*
X117723571Y-56779285D01*
X117830714Y-56815000D01*
X117902142Y-56886428D01*
X117937857Y-56957857D01*
X117973571Y-57100714D01*
X117973571Y-57207857D01*
X117937857Y-57350714D01*
X117902142Y-57422142D01*
X117830714Y-57493571D01*
X117723571Y-57529285D01*
X117545000Y-57529285D01*
X118259285Y-57315000D02*
X118616428Y-57315000D01*
X118187857Y-57529285D02*
X118437857Y-56779285D01*
X118687857Y-57529285D01*
X108152142Y-50973000D02*
X108080714Y-50937285D01*
X107973571Y-50937285D01*
X107866428Y-50973000D01*
X107795000Y-51044428D01*
X107759285Y-51115857D01*
X107723571Y-51258714D01*
X107723571Y-51365857D01*
X107759285Y-51508714D01*
X107795000Y-51580142D01*
X107866428Y-51651571D01*
X107973571Y-51687285D01*
X108045000Y-51687285D01*
X108152142Y-51651571D01*
X108187857Y-51615857D01*
X108187857Y-51365857D01*
X108045000Y-51365857D01*
X108509285Y-51687285D02*
X108509285Y-50937285D01*
X108937857Y-51687285D01*
X108937857Y-50937285D01*
X109295000Y-51687285D02*
X109295000Y-50937285D01*
X109473571Y-50937285D01*
X109580714Y-50973000D01*
X109652142Y-51044428D01*
X109687857Y-51115857D01*
X109723571Y-51258714D01*
X109723571Y-51365857D01*
X109687857Y-51508714D01*
X109652142Y-51580142D01*
X109580714Y-51651571D01*
X109473571Y-51687285D01*
X109295000Y-51687285D01*
X110616428Y-51401571D02*
X111187857Y-51401571D01*
X110902142Y-51687285D02*
X110902142Y-51115857D01*
X111473571Y-50937285D02*
X111937857Y-50937285D01*
X111687857Y-51223000D01*
X111795000Y-51223000D01*
X111866428Y-51258714D01*
X111902142Y-51294428D01*
X111937857Y-51365857D01*
X111937857Y-51544428D01*
X111902142Y-51615857D01*
X111866428Y-51651571D01*
X111795000Y-51687285D01*
X111580714Y-51687285D01*
X111509285Y-51651571D01*
X111473571Y-51615857D01*
X112152142Y-50937285D02*
X112402142Y-51687285D01*
X112652142Y-50937285D01*
X112830714Y-50937285D02*
X113295000Y-50937285D01*
X113045000Y-51223000D01*
X113152142Y-51223000D01*
X113223571Y-51258714D01*
X113259285Y-51294428D01*
X113295000Y-51365857D01*
X113295000Y-51544428D01*
X113259285Y-51615857D01*
X113223571Y-51651571D01*
X113152142Y-51687285D01*
X112937857Y-51687285D01*
X112866428Y-51651571D01*
X112830714Y-51615857D01*
X114152142Y-51651571D02*
X114259285Y-51687285D01*
X114437857Y-51687285D01*
X114509285Y-51651571D01*
X114545000Y-51615857D01*
X114580714Y-51544428D01*
X114580714Y-51473000D01*
X114545000Y-51401571D01*
X114509285Y-51365857D01*
X114437857Y-51330142D01*
X114295000Y-51294428D01*
X114223571Y-51258714D01*
X114187857Y-51223000D01*
X114152142Y-51151571D01*
X114152142Y-51080142D01*
X114187857Y-51008714D01*
X114223571Y-50973000D01*
X114295000Y-50937285D01*
X114473571Y-50937285D01*
X114580714Y-50973000D01*
X115330714Y-51615857D02*
X115295000Y-51651571D01*
X115187857Y-51687285D01*
X115116428Y-51687285D01*
X115009285Y-51651571D01*
X114937857Y-51580142D01*
X114902142Y-51508714D01*
X114866428Y-51365857D01*
X114866428Y-51258714D01*
X114902142Y-51115857D01*
X114937857Y-51044428D01*
X115009285Y-50973000D01*
X115116428Y-50937285D01*
X115187857Y-50937285D01*
X115295000Y-50973000D01*
X115330714Y-51008714D01*
X116009285Y-51687285D02*
X115652142Y-51687285D01*
X115652142Y-50937285D01*
X116795000Y-51651571D02*
X116902142Y-51687285D01*
X117080714Y-51687285D01*
X117152142Y-51651571D01*
X117187857Y-51615857D01*
X117223571Y-51544428D01*
X117223571Y-51473000D01*
X117187857Y-51401571D01*
X117152142Y-51365857D01*
X117080714Y-51330142D01*
X116937857Y-51294428D01*
X116866428Y-51258714D01*
X116830714Y-51223000D01*
X116795000Y-51151571D01*
X116795000Y-51080142D01*
X116830714Y-51008714D01*
X116866428Y-50973000D01*
X116937857Y-50937285D01*
X117116428Y-50937285D01*
X117223571Y-50973000D01*
X117545000Y-51687285D02*
X117545000Y-50937285D01*
X117723571Y-50937285D01*
X117830714Y-50973000D01*
X117902142Y-51044428D01*
X117937857Y-51115857D01*
X117973571Y-51258714D01*
X117973571Y-51365857D01*
X117937857Y-51508714D01*
X117902142Y-51580142D01*
X117830714Y-51651571D01*
X117723571Y-51687285D01*
X117545000Y-51687285D01*
X118259285Y-51473000D02*
X118616428Y-51473000D01*
X118187857Y-51687285D02*
X118437857Y-50937285D01*
X118687857Y-51687285D01*
D11*
X95770000Y-84150000D02*
X131170000Y-84150000D01*
X95770000Y-50650000D02*
X131170000Y-50650000D01*
X95770000Y-50650000D02*
X95770000Y-84150000D01*
X131170000Y-50650000D02*
X131170000Y-84150000D01*
X148170000Y-67150000D02*
G75*
G03X148170000Y-67150000I-3750000J0D01*
G01*
D13*
X108330000Y-56720000D02*
X108330000Y-55390000D01*
X109660000Y-56720000D02*
X108330000Y-56720000D01*
X110930000Y-56720000D02*
X110930000Y-54060000D01*
X110930000Y-54060000D02*
X118610000Y-54060000D01*
X110930000Y-56720000D02*
X118610000Y-56720000D01*
X118610000Y-56720000D02*
X118610000Y-54060000D01*
X163420000Y-72900000D02*
X163420000Y-71400000D01*
X162170000Y-68900000D02*
X157670000Y-68900000D01*
X156420000Y-71400000D02*
X156420000Y-72900000D01*
X157670000Y-75400000D02*
X162170000Y-75400000D01*
X156270000Y-59400000D02*
X163570000Y-59400000D01*
X156270000Y-64900000D02*
X163570000Y-64900000D01*
X163570000Y-64900000D02*
X163570000Y-63750000D01*
X142170000Y-82900000D02*
X146670000Y-82900000D01*
X140920000Y-78900000D02*
X140920000Y-80400000D01*
X146670000Y-76400000D02*
X142170000Y-76400000D01*
X147920000Y-80400000D02*
X147920000Y-78900000D01*
X140920000Y-53900000D02*
X140920000Y-55400000D01*
X142170000Y-57900000D02*
X146670000Y-57900000D01*
X147920000Y-55400000D02*
X147920000Y-53900000D01*
X146670000Y-51400000D02*
X142170000Y-51400000D01*
X153670000Y-69400000D02*
X153670000Y-64900000D01*
X149670000Y-70650000D02*
X151170000Y-70650000D01*
X147170000Y-64900000D02*
X147170000Y-69400000D01*
X151170000Y-63650000D02*
X149670000Y-63650000D01*
X137670000Y-70650000D02*
X139170000Y-70650000D01*
X141670000Y-69400000D02*
X141670000Y-64900000D01*
X139170000Y-63650000D02*
X137670000Y-63650000D01*
X135170000Y-64900000D02*
X135170000Y-69400000D01*
D11*
X113136666Y-82552380D02*
X113136666Y-83266666D01*
X113089047Y-83409523D01*
X112993809Y-83504761D01*
X112850952Y-83552380D01*
X112755714Y-83552380D01*
X113565238Y-82647619D02*
X113612857Y-82600000D01*
X113708095Y-82552380D01*
X113946190Y-82552380D01*
X114041428Y-82600000D01*
X114089047Y-82647619D01*
X114136666Y-82742857D01*
X114136666Y-82838095D01*
X114089047Y-82980952D01*
X113517619Y-83552380D01*
X114136666Y-83552380D01*
X143086666Y-72634761D02*
X143229523Y-72682380D01*
X143467619Y-72682380D01*
X143562857Y-72634761D01*
X143610476Y-72587142D01*
X143658095Y-72491904D01*
X143658095Y-72396666D01*
X143610476Y-72301428D01*
X143562857Y-72253809D01*
X143467619Y-72206190D01*
X143277142Y-72158571D01*
X143181904Y-72110952D01*
X143134285Y-72063333D01*
X143086666Y-71968095D01*
X143086666Y-71872857D01*
X143134285Y-71777619D01*
X143181904Y-71730000D01*
X143277142Y-71682380D01*
X143515238Y-71682380D01*
X143658095Y-71730000D01*
X143991428Y-71682380D02*
X144229523Y-72682380D01*
X144420000Y-71968095D01*
X144610476Y-72682380D01*
X144848571Y-71682380D01*
X145134285Y-71682380D02*
X145800952Y-71682380D01*
X145372380Y-72682380D01*
X106996666Y-54842380D02*
X106996666Y-55556666D01*
X106949047Y-55699523D01*
X106853809Y-55794761D01*
X106710952Y-55842380D01*
X106615714Y-55842380D01*
X107901428Y-54842380D02*
X107710952Y-54842380D01*
X107615714Y-54890000D01*
X107568095Y-54937619D01*
X107472857Y-55080476D01*
X107425238Y-55270952D01*
X107425238Y-55651904D01*
X107472857Y-55747142D01*
X107520476Y-55794761D01*
X107615714Y-55842380D01*
X107806190Y-55842380D01*
X107901428Y-55794761D01*
X107949047Y-55747142D01*
X107996666Y-55651904D01*
X107996666Y-55413809D01*
X107949047Y-55318571D01*
X107901428Y-55270952D01*
X107806190Y-55223333D01*
X107615714Y-55223333D01*
X107520476Y-55270952D01*
X107472857Y-55318571D01*
X107425238Y-55413809D01*
X158586666Y-68304761D02*
X158729523Y-68352380D01*
X158967619Y-68352380D01*
X159062857Y-68304761D01*
X159110476Y-68257142D01*
X159158095Y-68161904D01*
X159158095Y-68066666D01*
X159110476Y-67971428D01*
X159062857Y-67923809D01*
X158967619Y-67876190D01*
X158777142Y-67828571D01*
X158681904Y-67780952D01*
X158634285Y-67733333D01*
X158586666Y-67638095D01*
X158586666Y-67542857D01*
X158634285Y-67447619D01*
X158681904Y-67400000D01*
X158777142Y-67352380D01*
X159015238Y-67352380D01*
X159158095Y-67400000D01*
X159491428Y-67352380D02*
X159729523Y-68352380D01*
X159920000Y-67638095D01*
X160110476Y-68352380D01*
X160348571Y-67352380D01*
X161158095Y-67352380D02*
X160967619Y-67352380D01*
X160872380Y-67400000D01*
X160824761Y-67447619D01*
X160729523Y-67590476D01*
X160681904Y-67780952D01*
X160681904Y-68161904D01*
X160729523Y-68257142D01*
X160777142Y-68304761D01*
X160872380Y-68352380D01*
X161062857Y-68352380D01*
X161158095Y-68304761D01*
X161205714Y-68257142D01*
X161253333Y-68161904D01*
X161253333Y-67923809D01*
X161205714Y-67828571D01*
X161158095Y-67780952D01*
X161062857Y-67733333D01*
X160872380Y-67733333D01*
X160777142Y-67780952D01*
X160729523Y-67828571D01*
X160681904Y-67923809D01*
X159181904Y-59102380D02*
X159181904Y-58102380D01*
X159420000Y-58102380D01*
X159562857Y-58150000D01*
X159658095Y-58245238D01*
X159705714Y-58340476D01*
X159753333Y-58530952D01*
X159753333Y-58673809D01*
X159705714Y-58864285D01*
X159658095Y-58959523D01*
X159562857Y-59054761D01*
X159420000Y-59102380D01*
X159181904Y-59102380D01*
X160705714Y-59102380D02*
X160134285Y-59102380D01*
X160420000Y-59102380D02*
X160420000Y-58102380D01*
X160324761Y-58245238D01*
X160229523Y-58340476D01*
X160134285Y-58388095D01*
X156055714Y-61002380D02*
X155484285Y-61002380D01*
X155770000Y-61002380D02*
X155770000Y-60002380D01*
X155674761Y-60145238D01*
X155579523Y-60240476D01*
X155484285Y-60288095D01*
X143176666Y-80244761D02*
X143319523Y-80292380D01*
X143557619Y-80292380D01*
X143652857Y-80244761D01*
X143700476Y-80197142D01*
X143748095Y-80101904D01*
X143748095Y-80006666D01*
X143700476Y-79911428D01*
X143652857Y-79863809D01*
X143557619Y-79816190D01*
X143367142Y-79768571D01*
X143271904Y-79720952D01*
X143224285Y-79673333D01*
X143176666Y-79578095D01*
X143176666Y-79482857D01*
X143224285Y-79387619D01*
X143271904Y-79340000D01*
X143367142Y-79292380D01*
X143605238Y-79292380D01*
X143748095Y-79340000D01*
X144081428Y-79292380D02*
X144319523Y-80292380D01*
X144510000Y-79578095D01*
X144700476Y-80292380D01*
X144938571Y-79292380D01*
X145271904Y-79387619D02*
X145319523Y-79340000D01*
X145414761Y-79292380D01*
X145652857Y-79292380D01*
X145748095Y-79340000D01*
X145795714Y-79387619D01*
X145843333Y-79482857D01*
X145843333Y-79578095D01*
X145795714Y-79720952D01*
X145224285Y-80292380D01*
X145843333Y-80292380D01*
X143086666Y-54924761D02*
X143229523Y-54972380D01*
X143467619Y-54972380D01*
X143562857Y-54924761D01*
X143610476Y-54877142D01*
X143658095Y-54781904D01*
X143658095Y-54686666D01*
X143610476Y-54591428D01*
X143562857Y-54543809D01*
X143467619Y-54496190D01*
X143277142Y-54448571D01*
X143181904Y-54400952D01*
X143134285Y-54353333D01*
X143086666Y-54258095D01*
X143086666Y-54162857D01*
X143134285Y-54067619D01*
X143181904Y-54020000D01*
X143277142Y-53972380D01*
X143515238Y-53972380D01*
X143658095Y-54020000D01*
X143991428Y-53972380D02*
X144229523Y-54972380D01*
X144420000Y-54258095D01*
X144610476Y-54972380D01*
X144848571Y-53972380D01*
X145753333Y-54972380D02*
X145181904Y-54972380D01*
X145467619Y-54972380D02*
X145467619Y-53972380D01*
X145372380Y-54115238D01*
X145277142Y-54210476D01*
X145181904Y-54258095D01*
X151074761Y-68483333D02*
X151122380Y-68340476D01*
X151122380Y-68102380D01*
X151074761Y-68007142D01*
X151027142Y-67959523D01*
X150931904Y-67911904D01*
X150836666Y-67911904D01*
X150741428Y-67959523D01*
X150693809Y-68007142D01*
X150646190Y-68102380D01*
X150598571Y-68292857D01*
X150550952Y-68388095D01*
X150503333Y-68435714D01*
X150408095Y-68483333D01*
X150312857Y-68483333D01*
X150217619Y-68435714D01*
X150170000Y-68388095D01*
X150122380Y-68292857D01*
X150122380Y-68054761D01*
X150170000Y-67911904D01*
X150122380Y-67578571D02*
X151122380Y-67340476D01*
X150408095Y-67150000D01*
X151122380Y-66959523D01*
X150122380Y-66721428D01*
X150455714Y-65911904D02*
X151122380Y-65911904D01*
X150074761Y-66150000D02*
X150789047Y-66388095D01*
X150789047Y-65769047D01*
X138754761Y-68483333D02*
X138802380Y-68340476D01*
X138802380Y-68102380D01*
X138754761Y-68007142D01*
X138707142Y-67959523D01*
X138611904Y-67911904D01*
X138516666Y-67911904D01*
X138421428Y-67959523D01*
X138373809Y-68007142D01*
X138326190Y-68102380D01*
X138278571Y-68292857D01*
X138230952Y-68388095D01*
X138183333Y-68435714D01*
X138088095Y-68483333D01*
X137992857Y-68483333D01*
X137897619Y-68435714D01*
X137850000Y-68388095D01*
X137802380Y-68292857D01*
X137802380Y-68054761D01*
X137850000Y-67911904D01*
X137802380Y-67578571D02*
X138802380Y-67340476D01*
X138088095Y-67150000D01*
X138802380Y-66959523D01*
X137802380Y-66721428D01*
X137802380Y-66435714D02*
X137802380Y-65816666D01*
X138183333Y-66150000D01*
X138183333Y-66007142D01*
X138230952Y-65911904D01*
X138278571Y-65864285D01*
X138373809Y-65816666D01*
X138611904Y-65816666D01*
X138707142Y-65864285D01*
X138754761Y-65911904D01*
X138802380Y-66007142D01*
X138802380Y-66292857D01*
X138754761Y-66388095D01*
X138707142Y-66435714D01*
M02*
