G04 #@! TF.GenerationSoftware,KiCad,Pcbnew,(5.1.5)-3*
G04 #@! TF.CreationDate,2020-12-14T20:28:07-05:00*
G04 #@! TF.ProjectId,V0_Display,56305f44-6973-4706-9c61-792e6b696361,rev?*
G04 #@! TF.SameCoordinates,Original*
G04 #@! TF.FileFunction,Soldermask,Bot*
G04 #@! TF.FilePolarity,Negative*
%FSLAX46Y46*%
G04 Gerber Fmt 4.6, Leading zero omitted, Abs format (unit mm)*
G04 Created by KiCad (PCBNEW (5.1.5)-3) date 2020-12-14 20:28:07*
%MOMM*%
%LPD*%
G04 APERTURE LIST*
%ADD10C,0.100000*%
G04 APERTURE END LIST*
D10*
G36*
X161545256Y-79041298D02*
G01*
X161651579Y-79062447D01*
X161952042Y-79186903D01*
X162222451Y-79367585D01*
X162452415Y-79597549D01*
X162539387Y-79727712D01*
X162633098Y-79867960D01*
X162757553Y-80168422D01*
X162821000Y-80487389D01*
X162821000Y-80812611D01*
X162807396Y-80881000D01*
X162757553Y-81131579D01*
X162633097Y-81432042D01*
X162452415Y-81702451D01*
X162222451Y-81932415D01*
X161952042Y-82113097D01*
X161651579Y-82237553D01*
X161545256Y-82258702D01*
X161332611Y-82301000D01*
X161007389Y-82301000D01*
X160794744Y-82258702D01*
X160688421Y-82237553D01*
X160387958Y-82113097D01*
X160117549Y-81932415D01*
X159887585Y-81702451D01*
X159706903Y-81432042D01*
X159582447Y-81131579D01*
X159532604Y-80881000D01*
X159519000Y-80812611D01*
X159519000Y-80487389D01*
X159582447Y-80168422D01*
X159706902Y-79867960D01*
X159800613Y-79727712D01*
X159887585Y-79597549D01*
X160117549Y-79367585D01*
X160387958Y-79186903D01*
X160688421Y-79062447D01*
X160794744Y-79041298D01*
X161007389Y-78999000D01*
X161332611Y-78999000D01*
X161545256Y-79041298D01*
G37*
G36*
X89545256Y-79041298D02*
G01*
X89651579Y-79062447D01*
X89952042Y-79186903D01*
X90222451Y-79367585D01*
X90452415Y-79597549D01*
X90539387Y-79727712D01*
X90633098Y-79867960D01*
X90757553Y-80168422D01*
X90821000Y-80487389D01*
X90821000Y-80812611D01*
X90807396Y-80881000D01*
X90757553Y-81131579D01*
X90633097Y-81432042D01*
X90452415Y-81702451D01*
X90222451Y-81932415D01*
X89952042Y-82113097D01*
X89651579Y-82237553D01*
X89545256Y-82258702D01*
X89332611Y-82301000D01*
X89007389Y-82301000D01*
X88794744Y-82258702D01*
X88688421Y-82237553D01*
X88387958Y-82113097D01*
X88117549Y-81932415D01*
X87887585Y-81702451D01*
X87706903Y-81432042D01*
X87582447Y-81131579D01*
X87532604Y-80881000D01*
X87519000Y-80812611D01*
X87519000Y-80487389D01*
X87582447Y-80168422D01*
X87706902Y-79867960D01*
X87800613Y-79727712D01*
X87887585Y-79597549D01*
X88117549Y-79367585D01*
X88387958Y-79186903D01*
X88688421Y-79062447D01*
X88794744Y-79041298D01*
X89007389Y-78999000D01*
X89332611Y-78999000D01*
X89545256Y-79041298D01*
G37*
G36*
X105451000Y-82101000D02*
G01*
X104609000Y-82101000D01*
X104609000Y-79599000D01*
X105451000Y-79599000D01*
X105451000Y-82101000D01*
G37*
G36*
X106721000Y-82101000D02*
G01*
X105879000Y-82101000D01*
X105879000Y-79599000D01*
X106721000Y-79599000D01*
X106721000Y-82101000D01*
G37*
G36*
X107991000Y-82101000D02*
G01*
X107149000Y-82101000D01*
X107149000Y-79599000D01*
X107991000Y-79599000D01*
X107991000Y-82101000D01*
G37*
G36*
X110531000Y-82101000D02*
G01*
X109689000Y-82101000D01*
X109689000Y-79599000D01*
X110531000Y-79599000D01*
X110531000Y-82101000D01*
G37*
G36*
X109261000Y-82101000D02*
G01*
X108419000Y-82101000D01*
X108419000Y-79599000D01*
X109261000Y-79599000D01*
X109261000Y-82101000D01*
G37*
G36*
X101084468Y-79383565D02*
G01*
X101123138Y-79395296D01*
X101158777Y-79414346D01*
X101190017Y-79439983D01*
X101215654Y-79471223D01*
X101234704Y-79506862D01*
X101246435Y-79545532D01*
X101251000Y-79591888D01*
X101251000Y-80668112D01*
X101246435Y-80714468D01*
X101234704Y-80753138D01*
X101215654Y-80788777D01*
X101190017Y-80820017D01*
X101158777Y-80845654D01*
X101123138Y-80864704D01*
X101084468Y-80876435D01*
X101038112Y-80881000D01*
X100386888Y-80881000D01*
X100340532Y-80876435D01*
X100301862Y-80864704D01*
X100266223Y-80845654D01*
X100234983Y-80820017D01*
X100209346Y-80788777D01*
X100190296Y-80753138D01*
X100178565Y-80714468D01*
X100174000Y-80668112D01*
X100174000Y-79591888D01*
X100178565Y-79545532D01*
X100190296Y-79506862D01*
X100209346Y-79471223D01*
X100234983Y-79439983D01*
X100266223Y-79414346D01*
X100301862Y-79395296D01*
X100340532Y-79383565D01*
X100386888Y-79379000D01*
X101038112Y-79379000D01*
X101084468Y-79383565D01*
G37*
G36*
X99209468Y-79383565D02*
G01*
X99248138Y-79395296D01*
X99283777Y-79414346D01*
X99315017Y-79439983D01*
X99340654Y-79471223D01*
X99359704Y-79506862D01*
X99371435Y-79545532D01*
X99376000Y-79591888D01*
X99376000Y-80668112D01*
X99371435Y-80714468D01*
X99359704Y-80753138D01*
X99340654Y-80788777D01*
X99315017Y-80820017D01*
X99283777Y-80845654D01*
X99248138Y-80864704D01*
X99209468Y-80876435D01*
X99163112Y-80881000D01*
X98511888Y-80881000D01*
X98465532Y-80876435D01*
X98426862Y-80864704D01*
X98391223Y-80845654D01*
X98359983Y-80820017D01*
X98334346Y-80788777D01*
X98315296Y-80753138D01*
X98303565Y-80714468D01*
X98299000Y-80668112D01*
X98299000Y-79591888D01*
X98303565Y-79545532D01*
X98315296Y-79506862D01*
X98334346Y-79471223D01*
X98359983Y-79439983D01*
X98391223Y-79414346D01*
X98426862Y-79395296D01*
X98465532Y-79383565D01*
X98511888Y-79379000D01*
X99163112Y-79379000D01*
X99209468Y-79383565D01*
G37*
G36*
X116074468Y-79566065D02*
G01*
X116113138Y-79577796D01*
X116148777Y-79596846D01*
X116180017Y-79622483D01*
X116205654Y-79653723D01*
X116224704Y-79689362D01*
X116236435Y-79728032D01*
X116241000Y-79774388D01*
X116241000Y-80425612D01*
X116236435Y-80471968D01*
X116224704Y-80510638D01*
X116205654Y-80546277D01*
X116180017Y-80577517D01*
X116148777Y-80603154D01*
X116113138Y-80622204D01*
X116074468Y-80633935D01*
X116028112Y-80638500D01*
X114951888Y-80638500D01*
X114905532Y-80633935D01*
X114866862Y-80622204D01*
X114831223Y-80603154D01*
X114799983Y-80577517D01*
X114774346Y-80546277D01*
X114755296Y-80510638D01*
X114743565Y-80471968D01*
X114739000Y-80425612D01*
X114739000Y-79774388D01*
X114743565Y-79728032D01*
X114755296Y-79689362D01*
X114774346Y-79653723D01*
X114799983Y-79622483D01*
X114831223Y-79596846D01*
X114866862Y-79577796D01*
X114905532Y-79566065D01*
X114951888Y-79561500D01*
X116028112Y-79561500D01*
X116074468Y-79566065D01*
G37*
G36*
X118614468Y-79566065D02*
G01*
X118653138Y-79577796D01*
X118688777Y-79596846D01*
X118720017Y-79622483D01*
X118745654Y-79653723D01*
X118764704Y-79689362D01*
X118776435Y-79728032D01*
X118781000Y-79774388D01*
X118781000Y-80425612D01*
X118776435Y-80471968D01*
X118764704Y-80510638D01*
X118745654Y-80546277D01*
X118720017Y-80577517D01*
X118688777Y-80603154D01*
X118653138Y-80622204D01*
X118614468Y-80633935D01*
X118568112Y-80638500D01*
X117491888Y-80638500D01*
X117445532Y-80633935D01*
X117406862Y-80622204D01*
X117371223Y-80603154D01*
X117339983Y-80577517D01*
X117314346Y-80546277D01*
X117295296Y-80510638D01*
X117283565Y-80471968D01*
X117279000Y-80425612D01*
X117279000Y-79774388D01*
X117283565Y-79728032D01*
X117295296Y-79689362D01*
X117314346Y-79653723D01*
X117339983Y-79622483D01*
X117371223Y-79596846D01*
X117406862Y-79577796D01*
X117445532Y-79566065D01*
X117491888Y-79561500D01*
X118568112Y-79561500D01*
X118614468Y-79566065D01*
G37*
G36*
X118614468Y-77691065D02*
G01*
X118653138Y-77702796D01*
X118688777Y-77721846D01*
X118720017Y-77747483D01*
X118745654Y-77778723D01*
X118764704Y-77814362D01*
X118776435Y-77853032D01*
X118781000Y-77899388D01*
X118781000Y-78550612D01*
X118776435Y-78596968D01*
X118764704Y-78635638D01*
X118745654Y-78671277D01*
X118720017Y-78702517D01*
X118688777Y-78728154D01*
X118653138Y-78747204D01*
X118614468Y-78758935D01*
X118568112Y-78763500D01*
X117491888Y-78763500D01*
X117445532Y-78758935D01*
X117406862Y-78747204D01*
X117371223Y-78728154D01*
X117339983Y-78702517D01*
X117314346Y-78671277D01*
X117295296Y-78635638D01*
X117283565Y-78596968D01*
X117279000Y-78550612D01*
X117279000Y-77899388D01*
X117283565Y-77853032D01*
X117295296Y-77814362D01*
X117314346Y-77778723D01*
X117339983Y-77747483D01*
X117371223Y-77721846D01*
X117406862Y-77702796D01*
X117445532Y-77691065D01*
X117491888Y-77686500D01*
X118568112Y-77686500D01*
X118614468Y-77691065D01*
G37*
G36*
X116074468Y-77691065D02*
G01*
X116113138Y-77702796D01*
X116148777Y-77721846D01*
X116180017Y-77747483D01*
X116205654Y-77778723D01*
X116224704Y-77814362D01*
X116236435Y-77853032D01*
X116241000Y-77899388D01*
X116241000Y-78550612D01*
X116236435Y-78596968D01*
X116224704Y-78635638D01*
X116205654Y-78671277D01*
X116180017Y-78702517D01*
X116148777Y-78728154D01*
X116113138Y-78747204D01*
X116074468Y-78758935D01*
X116028112Y-78763500D01*
X114951888Y-78763500D01*
X114905532Y-78758935D01*
X114866862Y-78747204D01*
X114831223Y-78728154D01*
X114799983Y-78702517D01*
X114774346Y-78671277D01*
X114755296Y-78635638D01*
X114743565Y-78596968D01*
X114739000Y-78550612D01*
X114739000Y-77899388D01*
X114743565Y-77853032D01*
X114755296Y-77814362D01*
X114774346Y-77778723D01*
X114799983Y-77747483D01*
X114831223Y-77721846D01*
X114866862Y-77702796D01*
X114905532Y-77691065D01*
X114951888Y-77686500D01*
X116028112Y-77686500D01*
X116074468Y-77691065D01*
G37*
G36*
X129281564Y-76634389D02*
G01*
X129472833Y-76713615D01*
X129472835Y-76713616D01*
X129644973Y-76828635D01*
X129791365Y-76975027D01*
X129906385Y-77147167D01*
X129985611Y-77338436D01*
X130026000Y-77541484D01*
X130026000Y-77748516D01*
X129985611Y-77951564D01*
X129983877Y-77955750D01*
X129906384Y-78142835D01*
X129791365Y-78314973D01*
X129644973Y-78461365D01*
X129472835Y-78576384D01*
X129472834Y-78576385D01*
X129472833Y-78576385D01*
X129281564Y-78655611D01*
X129078516Y-78696000D01*
X128871484Y-78696000D01*
X128668436Y-78655611D01*
X128477167Y-78576385D01*
X128477166Y-78576385D01*
X128477165Y-78576384D01*
X128305027Y-78461365D01*
X128158635Y-78314973D01*
X128043616Y-78142835D01*
X127966123Y-77955750D01*
X127964389Y-77951564D01*
X127924000Y-77748516D01*
X127924000Y-77541484D01*
X127964389Y-77338436D01*
X128043615Y-77147167D01*
X128158635Y-76975027D01*
X128305027Y-76828635D01*
X128477165Y-76713616D01*
X128477167Y-76713615D01*
X128668436Y-76634389D01*
X128871484Y-76594000D01*
X129078516Y-76594000D01*
X129281564Y-76634389D01*
G37*
G36*
X122781564Y-76634389D02*
G01*
X122972833Y-76713615D01*
X122972835Y-76713616D01*
X123144973Y-76828635D01*
X123291365Y-76975027D01*
X123406385Y-77147167D01*
X123485611Y-77338436D01*
X123526000Y-77541484D01*
X123526000Y-77748516D01*
X123485611Y-77951564D01*
X123483877Y-77955750D01*
X123406384Y-78142835D01*
X123291365Y-78314973D01*
X123144973Y-78461365D01*
X122972835Y-78576384D01*
X122972834Y-78576385D01*
X122972833Y-78576385D01*
X122781564Y-78655611D01*
X122578516Y-78696000D01*
X122371484Y-78696000D01*
X122168436Y-78655611D01*
X121977167Y-78576385D01*
X121977166Y-78576385D01*
X121977165Y-78576384D01*
X121805027Y-78461365D01*
X121658635Y-78314973D01*
X121543616Y-78142835D01*
X121466123Y-77955750D01*
X121464389Y-77951564D01*
X121424000Y-77748516D01*
X121424000Y-77541484D01*
X121464389Y-77338436D01*
X121543615Y-77147167D01*
X121658635Y-76975027D01*
X121805027Y-76828635D01*
X121977165Y-76713616D01*
X121977167Y-76713615D01*
X122168436Y-76634389D01*
X122371484Y-76594000D01*
X122578516Y-76594000D01*
X122781564Y-76634389D01*
G37*
G36*
X99201000Y-78636000D02*
G01*
X98449000Y-78636000D01*
X98449000Y-77474000D01*
X99201000Y-77474000D01*
X99201000Y-78636000D01*
G37*
G36*
X101101000Y-78636000D02*
G01*
X100349000Y-78636000D01*
X100349000Y-77474000D01*
X101101000Y-77474000D01*
X101101000Y-78636000D01*
G37*
G36*
X105451000Y-78201000D02*
G01*
X104609000Y-78201000D01*
X104609000Y-75699000D01*
X105451000Y-75699000D01*
X105451000Y-78201000D01*
G37*
G36*
X106721000Y-78201000D02*
G01*
X105879000Y-78201000D01*
X105879000Y-75699000D01*
X106721000Y-75699000D01*
X106721000Y-78201000D01*
G37*
G36*
X109261000Y-78201000D02*
G01*
X108419000Y-78201000D01*
X108419000Y-75699000D01*
X109261000Y-75699000D01*
X109261000Y-78201000D01*
G37*
G36*
X110531000Y-78201000D02*
G01*
X109689000Y-78201000D01*
X109689000Y-75699000D01*
X110531000Y-75699000D01*
X110531000Y-78201000D01*
G37*
G36*
X107991000Y-78201000D02*
G01*
X107149000Y-78201000D01*
X107149000Y-75699000D01*
X107991000Y-75699000D01*
X107991000Y-78201000D01*
G37*
G36*
X101101000Y-76436000D02*
G01*
X98449000Y-76436000D01*
X98449000Y-75274000D01*
X101101000Y-75274000D01*
X101101000Y-76436000D01*
G37*
G36*
X113851000Y-75951000D02*
G01*
X112049000Y-75951000D01*
X112049000Y-74149000D01*
X113851000Y-74149000D01*
X113851000Y-75951000D01*
G37*
G36*
X115594653Y-74152165D02*
G01*
X115752812Y-74183624D01*
X115916784Y-74251544D01*
X116064354Y-74350147D01*
X116189853Y-74475646D01*
X116288456Y-74623216D01*
X116356376Y-74787188D01*
X116391000Y-74961259D01*
X116391000Y-75138741D01*
X116356376Y-75312812D01*
X116288456Y-75476784D01*
X116189853Y-75624354D01*
X116064354Y-75749853D01*
X115916784Y-75848456D01*
X115752812Y-75916376D01*
X115603512Y-75946073D01*
X115578742Y-75951000D01*
X115401258Y-75951000D01*
X115376488Y-75946073D01*
X115227188Y-75916376D01*
X115063216Y-75848456D01*
X114915646Y-75749853D01*
X114790147Y-75624354D01*
X114691544Y-75476784D01*
X114623624Y-75312812D01*
X114589000Y-75138741D01*
X114589000Y-74961259D01*
X114623624Y-74787188D01*
X114691544Y-74623216D01*
X114790147Y-74475646D01*
X114915646Y-74350147D01*
X115063216Y-74251544D01*
X115227188Y-74183624D01*
X115385347Y-74152165D01*
X115401258Y-74149000D01*
X115578742Y-74149000D01*
X115594653Y-74152165D01*
G37*
G36*
X118134653Y-74152165D02*
G01*
X118292812Y-74183624D01*
X118456784Y-74251544D01*
X118604354Y-74350147D01*
X118729853Y-74475646D01*
X118828456Y-74623216D01*
X118896376Y-74787188D01*
X118931000Y-74961259D01*
X118931000Y-75138741D01*
X118896376Y-75312812D01*
X118828456Y-75476784D01*
X118729853Y-75624354D01*
X118604354Y-75749853D01*
X118456784Y-75848456D01*
X118292812Y-75916376D01*
X118143512Y-75946073D01*
X118118742Y-75951000D01*
X117941258Y-75951000D01*
X117916488Y-75946073D01*
X117767188Y-75916376D01*
X117603216Y-75848456D01*
X117455646Y-75749853D01*
X117330147Y-75624354D01*
X117231544Y-75476784D01*
X117163624Y-75312812D01*
X117129000Y-75138741D01*
X117129000Y-74961259D01*
X117163624Y-74787188D01*
X117231544Y-74623216D01*
X117330147Y-74475646D01*
X117455646Y-74350147D01*
X117603216Y-74251544D01*
X117767188Y-74183624D01*
X117925347Y-74152165D01*
X117941258Y-74149000D01*
X118118742Y-74149000D01*
X118134653Y-74152165D01*
G37*
G36*
X142226564Y-73639389D02*
G01*
X142417833Y-73718615D01*
X142417835Y-73718616D01*
X142589973Y-73833635D01*
X142736365Y-73980027D01*
X142812143Y-74093436D01*
X142851385Y-74152167D01*
X142930611Y-74343436D01*
X142971000Y-74546484D01*
X142971000Y-74753516D01*
X142930611Y-74956564D01*
X142851385Y-75147833D01*
X142851384Y-75147835D01*
X142736365Y-75319973D01*
X142589973Y-75466365D01*
X142417835Y-75581384D01*
X142417834Y-75581385D01*
X142417833Y-75581385D01*
X142226564Y-75660611D01*
X142023516Y-75701000D01*
X141816484Y-75701000D01*
X141613436Y-75660611D01*
X141422167Y-75581385D01*
X141422166Y-75581385D01*
X141422165Y-75581384D01*
X141250027Y-75466365D01*
X141103635Y-75319973D01*
X140988616Y-75147835D01*
X140988615Y-75147833D01*
X140909389Y-74956564D01*
X140869000Y-74753516D01*
X140869000Y-74546484D01*
X140909389Y-74343436D01*
X140988615Y-74152167D01*
X141027858Y-74093436D01*
X141103635Y-73980027D01*
X141250027Y-73833635D01*
X141422165Y-73718616D01*
X141422167Y-73718615D01*
X141613436Y-73639389D01*
X141816484Y-73599000D01*
X142023516Y-73599000D01*
X142226564Y-73639389D01*
G37*
G36*
X144726564Y-73639389D02*
G01*
X144917833Y-73718615D01*
X144917835Y-73718616D01*
X145089973Y-73833635D01*
X145236365Y-73980027D01*
X145312143Y-74093436D01*
X145351385Y-74152167D01*
X145430611Y-74343436D01*
X145471000Y-74546484D01*
X145471000Y-74753516D01*
X145430611Y-74956564D01*
X145351385Y-75147833D01*
X145351384Y-75147835D01*
X145236365Y-75319973D01*
X145089973Y-75466365D01*
X144917835Y-75581384D01*
X144917834Y-75581385D01*
X144917833Y-75581385D01*
X144726564Y-75660611D01*
X144523516Y-75701000D01*
X144316484Y-75701000D01*
X144113436Y-75660611D01*
X143922167Y-75581385D01*
X143922166Y-75581385D01*
X143922165Y-75581384D01*
X143750027Y-75466365D01*
X143603635Y-75319973D01*
X143488616Y-75147835D01*
X143488615Y-75147833D01*
X143409389Y-74956564D01*
X143369000Y-74753516D01*
X143369000Y-74546484D01*
X143409389Y-74343436D01*
X143488615Y-74152167D01*
X143527858Y-74093436D01*
X143603635Y-73980027D01*
X143750027Y-73833635D01*
X143922165Y-73718616D01*
X143922167Y-73718615D01*
X144113436Y-73639389D01*
X144316484Y-73599000D01*
X144523516Y-73599000D01*
X144726564Y-73639389D01*
G37*
G36*
X147226564Y-73639389D02*
G01*
X147417833Y-73718615D01*
X147417835Y-73718616D01*
X147589973Y-73833635D01*
X147736365Y-73980027D01*
X147812143Y-74093436D01*
X147851385Y-74152167D01*
X147930611Y-74343436D01*
X147971000Y-74546484D01*
X147971000Y-74753516D01*
X147930611Y-74956564D01*
X147851385Y-75147833D01*
X147851384Y-75147835D01*
X147736365Y-75319973D01*
X147589973Y-75466365D01*
X147417835Y-75581384D01*
X147417834Y-75581385D01*
X147417833Y-75581385D01*
X147226564Y-75660611D01*
X147023516Y-75701000D01*
X146816484Y-75701000D01*
X146613436Y-75660611D01*
X146422167Y-75581385D01*
X146422166Y-75581385D01*
X146422165Y-75581384D01*
X146250027Y-75466365D01*
X146103635Y-75319973D01*
X145988616Y-75147835D01*
X145988615Y-75147833D01*
X145909389Y-74956564D01*
X145869000Y-74753516D01*
X145869000Y-74546484D01*
X145909389Y-74343436D01*
X145988615Y-74152167D01*
X146027858Y-74093436D01*
X146103635Y-73980027D01*
X146250027Y-73833635D01*
X146422165Y-73718616D01*
X146422167Y-73718615D01*
X146613436Y-73639389D01*
X146816484Y-73599000D01*
X147023516Y-73599000D01*
X147226564Y-73639389D01*
G37*
G36*
X163476564Y-73389389D02*
G01*
X163667833Y-73468615D01*
X163667835Y-73468616D01*
X163839973Y-73583635D01*
X163986365Y-73730027D01*
X164055594Y-73833635D01*
X164101385Y-73902167D01*
X164180611Y-74093436D01*
X164221000Y-74296484D01*
X164221000Y-74503516D01*
X164180611Y-74706564D01*
X164147215Y-74787189D01*
X164101384Y-74897835D01*
X163986365Y-75069973D01*
X163839973Y-75216365D01*
X163667835Y-75331384D01*
X163667834Y-75331385D01*
X163667833Y-75331385D01*
X163476564Y-75410611D01*
X163273516Y-75451000D01*
X163066484Y-75451000D01*
X162863436Y-75410611D01*
X162672167Y-75331385D01*
X162672166Y-75331385D01*
X162672165Y-75331384D01*
X162500027Y-75216365D01*
X162353635Y-75069973D01*
X162238616Y-74897835D01*
X162192785Y-74787189D01*
X162159389Y-74706564D01*
X162119000Y-74503516D01*
X162119000Y-74296484D01*
X162159389Y-74093436D01*
X162238615Y-73902167D01*
X162284407Y-73833635D01*
X162353635Y-73730027D01*
X162500027Y-73583635D01*
X162672165Y-73468616D01*
X162672167Y-73468615D01*
X162863436Y-73389389D01*
X163066484Y-73349000D01*
X163273516Y-73349000D01*
X163476564Y-73389389D01*
G37*
G36*
X156976564Y-73389389D02*
G01*
X157167833Y-73468615D01*
X157167835Y-73468616D01*
X157339973Y-73583635D01*
X157486365Y-73730027D01*
X157555594Y-73833635D01*
X157601385Y-73902167D01*
X157680611Y-74093436D01*
X157721000Y-74296484D01*
X157721000Y-74503516D01*
X157680611Y-74706564D01*
X157647215Y-74787189D01*
X157601384Y-74897835D01*
X157486365Y-75069973D01*
X157339973Y-75216365D01*
X157167835Y-75331384D01*
X157167834Y-75331385D01*
X157167833Y-75331385D01*
X156976564Y-75410611D01*
X156773516Y-75451000D01*
X156566484Y-75451000D01*
X156363436Y-75410611D01*
X156172167Y-75331385D01*
X156172166Y-75331385D01*
X156172165Y-75331384D01*
X156000027Y-75216365D01*
X155853635Y-75069973D01*
X155738616Y-74897835D01*
X155692785Y-74787189D01*
X155659389Y-74706564D01*
X155619000Y-74503516D01*
X155619000Y-74296484D01*
X155659389Y-74093436D01*
X155738615Y-73902167D01*
X155784407Y-73833635D01*
X155853635Y-73730027D01*
X156000027Y-73583635D01*
X156172165Y-73468616D01*
X156172167Y-73468615D01*
X156363436Y-73389389D01*
X156566484Y-73349000D01*
X156773516Y-73349000D01*
X156976564Y-73389389D01*
G37*
G36*
X101084468Y-73033565D02*
G01*
X101123138Y-73045296D01*
X101158777Y-73064346D01*
X101190017Y-73089983D01*
X101215654Y-73121223D01*
X101234704Y-73156862D01*
X101246435Y-73195532D01*
X101251000Y-73241888D01*
X101251000Y-74318112D01*
X101246435Y-74364468D01*
X101234704Y-74403138D01*
X101215654Y-74438777D01*
X101190017Y-74470017D01*
X101158777Y-74495654D01*
X101123138Y-74514704D01*
X101084468Y-74526435D01*
X101038112Y-74531000D01*
X100386888Y-74531000D01*
X100340532Y-74526435D01*
X100301862Y-74514704D01*
X100266223Y-74495654D01*
X100234983Y-74470017D01*
X100209346Y-74438777D01*
X100190296Y-74403138D01*
X100178565Y-74364468D01*
X100174000Y-74318112D01*
X100174000Y-73241888D01*
X100178565Y-73195532D01*
X100190296Y-73156862D01*
X100209346Y-73121223D01*
X100234983Y-73089983D01*
X100266223Y-73064346D01*
X100301862Y-73045296D01*
X100340532Y-73033565D01*
X100386888Y-73029000D01*
X101038112Y-73029000D01*
X101084468Y-73033565D01*
G37*
G36*
X99209468Y-73033565D02*
G01*
X99248138Y-73045296D01*
X99283777Y-73064346D01*
X99315017Y-73089983D01*
X99340654Y-73121223D01*
X99359704Y-73156862D01*
X99371435Y-73195532D01*
X99376000Y-73241888D01*
X99376000Y-74318112D01*
X99371435Y-74364468D01*
X99359704Y-74403138D01*
X99340654Y-74438777D01*
X99315017Y-74470017D01*
X99283777Y-74495654D01*
X99248138Y-74514704D01*
X99209468Y-74526435D01*
X99163112Y-74531000D01*
X98511888Y-74531000D01*
X98465532Y-74526435D01*
X98426862Y-74514704D01*
X98391223Y-74495654D01*
X98359983Y-74470017D01*
X98334346Y-74438777D01*
X98315296Y-74403138D01*
X98303565Y-74364468D01*
X98299000Y-74318112D01*
X98299000Y-73241888D01*
X98303565Y-73195532D01*
X98315296Y-73156862D01*
X98334346Y-73121223D01*
X98359983Y-73089983D01*
X98391223Y-73064346D01*
X98426862Y-73045296D01*
X98465532Y-73033565D01*
X98511888Y-73029000D01*
X99163112Y-73029000D01*
X99209468Y-73033565D01*
G37*
G36*
X122781564Y-72134389D02*
G01*
X122972833Y-72213615D01*
X122972835Y-72213616D01*
X123144973Y-72328635D01*
X123291365Y-72475027D01*
X123406385Y-72647167D01*
X123485611Y-72838436D01*
X123526000Y-73041484D01*
X123526000Y-73248516D01*
X123485611Y-73451564D01*
X123407811Y-73639390D01*
X123406384Y-73642835D01*
X123291365Y-73814973D01*
X123144973Y-73961365D01*
X122972835Y-74076384D01*
X122972834Y-74076385D01*
X122972833Y-74076385D01*
X122781564Y-74155611D01*
X122578516Y-74196000D01*
X122371484Y-74196000D01*
X122168436Y-74155611D01*
X121977167Y-74076385D01*
X121977166Y-74076385D01*
X121977165Y-74076384D01*
X121805027Y-73961365D01*
X121658635Y-73814973D01*
X121543616Y-73642835D01*
X121542189Y-73639390D01*
X121464389Y-73451564D01*
X121424000Y-73248516D01*
X121424000Y-73041484D01*
X121464389Y-72838436D01*
X121543615Y-72647167D01*
X121658635Y-72475027D01*
X121805027Y-72328635D01*
X121977165Y-72213616D01*
X121977167Y-72213615D01*
X122168436Y-72134389D01*
X122371484Y-72094000D01*
X122578516Y-72094000D01*
X122781564Y-72134389D01*
G37*
G36*
X129281564Y-72134389D02*
G01*
X129472833Y-72213615D01*
X129472835Y-72213616D01*
X129644973Y-72328635D01*
X129791365Y-72475027D01*
X129906385Y-72647167D01*
X129985611Y-72838436D01*
X130026000Y-73041484D01*
X130026000Y-73248516D01*
X129985611Y-73451564D01*
X129907811Y-73639390D01*
X129906384Y-73642835D01*
X129791365Y-73814973D01*
X129644973Y-73961365D01*
X129472835Y-74076384D01*
X129472834Y-74076385D01*
X129472833Y-74076385D01*
X129281564Y-74155611D01*
X129078516Y-74196000D01*
X128871484Y-74196000D01*
X128668436Y-74155611D01*
X128477167Y-74076385D01*
X128477166Y-74076385D01*
X128477165Y-74076384D01*
X128305027Y-73961365D01*
X128158635Y-73814973D01*
X128043616Y-73642835D01*
X128042189Y-73639390D01*
X127964389Y-73451564D01*
X127924000Y-73248516D01*
X127924000Y-73041484D01*
X127964389Y-72838436D01*
X128043615Y-72647167D01*
X128158635Y-72475027D01*
X128305027Y-72328635D01*
X128477165Y-72213616D01*
X128477167Y-72213615D01*
X128668436Y-72134389D01*
X128871484Y-72094000D01*
X129078516Y-72094000D01*
X129281564Y-72134389D01*
G37*
G36*
X95571000Y-71861000D02*
G01*
X93769000Y-71861000D01*
X93769000Y-70059000D01*
X95571000Y-70059000D01*
X95571000Y-71861000D01*
G37*
G36*
X87683500Y-70611886D02*
G01*
X87684102Y-70624138D01*
X87686649Y-70650000D01*
X87684102Y-70675862D01*
X87683500Y-70688114D01*
X87683500Y-70761406D01*
X87674543Y-70778164D01*
X87670415Y-70789701D01*
X87660912Y-70821027D01*
X87636854Y-70900336D01*
X87576406Y-71013425D01*
X87495054Y-71112554D01*
X87395925Y-71193906D01*
X87282836Y-71254354D01*
X87250904Y-71264040D01*
X87160118Y-71291580D01*
X87096355Y-71297860D01*
X87064474Y-71301000D01*
X86300526Y-71301000D01*
X86268645Y-71297860D01*
X86204882Y-71291580D01*
X86114096Y-71264040D01*
X86082164Y-71254354D01*
X85969075Y-71193906D01*
X85869946Y-71112554D01*
X85788594Y-71013425D01*
X85728146Y-70900336D01*
X85704088Y-70821027D01*
X85694587Y-70789708D01*
X85685213Y-70767075D01*
X85681500Y-70761518D01*
X85681500Y-70688114D01*
X85680898Y-70675862D01*
X85678351Y-70650000D01*
X85680898Y-70624138D01*
X85681500Y-70611886D01*
X85681500Y-69399000D01*
X87683500Y-69399000D01*
X87683500Y-70611886D01*
G37*
G36*
X89500317Y-63313696D02*
G01*
X89613604Y-63348062D01*
X89718011Y-63403869D01*
X89718013Y-63403870D01*
X89718012Y-63403870D01*
X89809527Y-63478973D01*
X89853804Y-63532925D01*
X89884631Y-63570488D01*
X89940438Y-63674895D01*
X89974804Y-63788182D01*
X89983500Y-63876481D01*
X89983500Y-64835519D01*
X89974804Y-64923818D01*
X89940438Y-65037105D01*
X89884631Y-65141512D01*
X89809527Y-65233027D01*
X89718012Y-65308131D01*
X89613934Y-65363762D01*
X89593560Y-65377375D01*
X89576233Y-65394702D01*
X89562619Y-65415077D01*
X89553241Y-65437716D01*
X89548461Y-65461749D01*
X89548461Y-65486253D01*
X89553241Y-65510286D01*
X89562619Y-65532925D01*
X89576232Y-65553299D01*
X89593559Y-65570626D01*
X89613934Y-65584240D01*
X89636573Y-65593618D01*
X89660606Y-65598398D01*
X89672858Y-65599000D01*
X90108500Y-65599000D01*
X90108500Y-68701000D01*
X89672857Y-68701000D01*
X89648471Y-68703402D01*
X89625022Y-68710515D01*
X89603411Y-68722066D01*
X89584469Y-68737611D01*
X89568924Y-68756553D01*
X89557373Y-68778164D01*
X89550260Y-68801613D01*
X89547858Y-68825999D01*
X89550260Y-68850385D01*
X89557373Y-68873834D01*
X89568924Y-68895445D01*
X89584469Y-68914387D01*
X89603411Y-68929932D01*
X89613933Y-68936238D01*
X89718011Y-68991869D01*
X89718013Y-68991870D01*
X89718012Y-68991870D01*
X89809527Y-69066973D01*
X89852923Y-69119852D01*
X89884631Y-69158488D01*
X89940438Y-69262895D01*
X89974804Y-69376182D01*
X89983500Y-69464481D01*
X89983500Y-70423519D01*
X89974804Y-70511818D01*
X89940438Y-70625105D01*
X89884631Y-70729512D01*
X89809527Y-70821027D01*
X89718012Y-70896131D01*
X89613605Y-70951938D01*
X89500318Y-70986304D01*
X89382500Y-70997907D01*
X89264683Y-70986304D01*
X89151396Y-70951938D01*
X89046989Y-70896131D01*
X88955474Y-70821027D01*
X88880370Y-70729512D01*
X88824563Y-70625105D01*
X88790197Y-70511818D01*
X88781500Y-70423518D01*
X88781500Y-69464482D01*
X88790196Y-69376183D01*
X88824562Y-69262896D01*
X88880369Y-69158489D01*
X88893838Y-69142077D01*
X88955473Y-69066973D01*
X89046987Y-68991870D01*
X89046986Y-68991870D01*
X89046988Y-68991869D01*
X89151066Y-68936238D01*
X89171440Y-68922625D01*
X89188767Y-68905298D01*
X89202381Y-68884923D01*
X89211759Y-68862284D01*
X89216539Y-68838251D01*
X89216539Y-68813747D01*
X89211759Y-68789714D01*
X89202381Y-68767075D01*
X89188768Y-68746701D01*
X89171441Y-68729374D01*
X89151066Y-68715760D01*
X89128427Y-68706382D01*
X89104394Y-68701602D01*
X89092142Y-68701000D01*
X88656500Y-68701000D01*
X88656500Y-65599000D01*
X89092143Y-65599000D01*
X89116529Y-65596598D01*
X89139978Y-65589485D01*
X89161589Y-65577934D01*
X89180531Y-65562389D01*
X89196076Y-65543447D01*
X89207627Y-65521836D01*
X89214740Y-65498387D01*
X89217142Y-65474001D01*
X89214740Y-65449615D01*
X89207627Y-65426166D01*
X89196076Y-65404555D01*
X89180531Y-65385613D01*
X89161589Y-65370068D01*
X89151067Y-65363762D01*
X89046989Y-65308131D01*
X88955474Y-65233027D01*
X88880370Y-65141512D01*
X88824563Y-65037105D01*
X88790197Y-64923818D01*
X88781500Y-64835518D01*
X88781500Y-63876482D01*
X88790196Y-63788183D01*
X88824562Y-63674896D01*
X88880369Y-63570489D01*
X88929776Y-63510286D01*
X88955473Y-63478973D01*
X89046987Y-63403870D01*
X89046986Y-63403870D01*
X89046988Y-63403869D01*
X89151395Y-63348062D01*
X89264682Y-63313696D01*
X89382500Y-63302093D01*
X89500317Y-63313696D01*
G37*
G36*
X156976564Y-68889389D02*
G01*
X157167833Y-68968615D01*
X157167835Y-68968616D01*
X157339973Y-69083635D01*
X157486365Y-69230027D01*
X157584025Y-69376185D01*
X157601385Y-69402167D01*
X157680611Y-69593436D01*
X157721000Y-69796484D01*
X157721000Y-70003516D01*
X157680611Y-70206564D01*
X157601385Y-70397833D01*
X157601384Y-70397835D01*
X157486365Y-70569973D01*
X157339973Y-70716365D01*
X157167835Y-70831384D01*
X157167834Y-70831385D01*
X157167833Y-70831385D01*
X156976564Y-70910611D01*
X156773516Y-70951000D01*
X156566484Y-70951000D01*
X156363436Y-70910611D01*
X156172167Y-70831385D01*
X156172166Y-70831385D01*
X156172165Y-70831384D01*
X156000027Y-70716365D01*
X155853635Y-70569973D01*
X155738616Y-70397835D01*
X155738615Y-70397833D01*
X155659389Y-70206564D01*
X155619000Y-70003516D01*
X155619000Y-69796484D01*
X155659389Y-69593436D01*
X155738615Y-69402167D01*
X155755976Y-69376185D01*
X155853635Y-69230027D01*
X156000027Y-69083635D01*
X156172165Y-68968616D01*
X156172167Y-68968615D01*
X156363436Y-68889389D01*
X156566484Y-68849000D01*
X156773516Y-68849000D01*
X156976564Y-68889389D01*
G37*
G36*
X163476564Y-68889389D02*
G01*
X163667833Y-68968615D01*
X163667835Y-68968616D01*
X163839973Y-69083635D01*
X163986365Y-69230027D01*
X164084025Y-69376185D01*
X164101385Y-69402167D01*
X164180611Y-69593436D01*
X164221000Y-69796484D01*
X164221000Y-70003516D01*
X164180611Y-70206564D01*
X164101385Y-70397833D01*
X164101384Y-70397835D01*
X163986365Y-70569973D01*
X163839973Y-70716365D01*
X163667835Y-70831384D01*
X163667834Y-70831385D01*
X163667833Y-70831385D01*
X163476564Y-70910611D01*
X163273516Y-70951000D01*
X163066484Y-70951000D01*
X162863436Y-70910611D01*
X162672167Y-70831385D01*
X162672166Y-70831385D01*
X162672165Y-70831384D01*
X162500027Y-70716365D01*
X162353635Y-70569973D01*
X162238616Y-70397835D01*
X162238615Y-70397833D01*
X162159389Y-70206564D01*
X162119000Y-70003516D01*
X162119000Y-69796484D01*
X162159389Y-69593436D01*
X162238615Y-69402167D01*
X162255976Y-69376185D01*
X162353635Y-69230027D01*
X162500027Y-69083635D01*
X162672165Y-68968616D01*
X162672167Y-68968615D01*
X162863436Y-68889389D01*
X163066484Y-68849000D01*
X163273516Y-68849000D01*
X163476564Y-68889389D01*
G37*
G36*
X99203512Y-67753927D02*
G01*
X99352812Y-67783624D01*
X99516784Y-67851544D01*
X99664354Y-67950147D01*
X99789853Y-68075646D01*
X99888456Y-68223216D01*
X99956376Y-68387188D01*
X99991000Y-68561259D01*
X99991000Y-68738741D01*
X99956376Y-68912812D01*
X99888456Y-69076784D01*
X99789853Y-69224354D01*
X99664354Y-69349853D01*
X99516784Y-69448456D01*
X99352812Y-69516376D01*
X99203512Y-69546073D01*
X99178742Y-69551000D01*
X99001258Y-69551000D01*
X98976488Y-69546073D01*
X98827188Y-69516376D01*
X98663216Y-69448456D01*
X98515646Y-69349853D01*
X98390147Y-69224354D01*
X98291544Y-69076784D01*
X98223624Y-68912812D01*
X98189000Y-68738741D01*
X98189000Y-68561259D01*
X98223624Y-68387188D01*
X98291544Y-68223216D01*
X98390147Y-68075646D01*
X98515646Y-67950147D01*
X98663216Y-67851544D01*
X98827188Y-67783624D01*
X98976488Y-67753927D01*
X99001258Y-67749000D01*
X99178742Y-67749000D01*
X99203512Y-67753927D01*
G37*
G36*
X105071000Y-69551000D02*
G01*
X103269000Y-69551000D01*
X103269000Y-67749000D01*
X105071000Y-67749000D01*
X105071000Y-69551000D01*
G37*
G36*
X101743512Y-67753927D02*
G01*
X101892812Y-67783624D01*
X102056784Y-67851544D01*
X102204354Y-67950147D01*
X102329853Y-68075646D01*
X102428456Y-68223216D01*
X102496376Y-68387188D01*
X102531000Y-68561259D01*
X102531000Y-68738741D01*
X102496376Y-68912812D01*
X102428456Y-69076784D01*
X102329853Y-69224354D01*
X102204354Y-69349853D01*
X102056784Y-69448456D01*
X101892812Y-69516376D01*
X101743512Y-69546073D01*
X101718742Y-69551000D01*
X101541258Y-69551000D01*
X101516488Y-69546073D01*
X101367188Y-69516376D01*
X101203216Y-69448456D01*
X101055646Y-69349853D01*
X100930147Y-69224354D01*
X100831544Y-69076784D01*
X100763624Y-68912812D01*
X100729000Y-68738741D01*
X100729000Y-68561259D01*
X100763624Y-68387188D01*
X100831544Y-68223216D01*
X100930147Y-68075646D01*
X101055646Y-67950147D01*
X101203216Y-67851544D01*
X101367188Y-67783624D01*
X101516488Y-67753927D01*
X101541258Y-67749000D01*
X101718742Y-67749000D01*
X101743512Y-67753927D01*
G37*
G36*
X94783512Y-67523927D02*
G01*
X94932812Y-67553624D01*
X95096784Y-67621544D01*
X95244354Y-67720147D01*
X95369853Y-67845646D01*
X95468456Y-67993216D01*
X95536376Y-68157188D01*
X95571000Y-68331259D01*
X95571000Y-68508741D01*
X95536376Y-68682812D01*
X95468456Y-68846784D01*
X95369853Y-68994354D01*
X95244354Y-69119853D01*
X95096784Y-69218456D01*
X94932812Y-69286376D01*
X94783512Y-69316073D01*
X94758742Y-69321000D01*
X94581258Y-69321000D01*
X94556488Y-69316073D01*
X94407188Y-69286376D01*
X94243216Y-69218456D01*
X94095646Y-69119853D01*
X93970147Y-68994354D01*
X93871544Y-68846784D01*
X93803624Y-68682812D01*
X93769000Y-68508741D01*
X93769000Y-68331259D01*
X93803624Y-68157188D01*
X93871544Y-67993216D01*
X93970147Y-67845646D01*
X94095646Y-67720147D01*
X94243216Y-67621544D01*
X94407188Y-67553624D01*
X94556488Y-67523927D01*
X94581258Y-67519000D01*
X94758742Y-67519000D01*
X94783512Y-67523927D01*
G37*
G36*
X149755040Y-65117825D02*
G01*
X150000280Y-65192218D01*
X150226294Y-65313025D01*
X150270129Y-65349000D01*
X150424397Y-65475603D01*
X150544624Y-65622101D01*
X150586975Y-65673706D01*
X150707782Y-65899720D01*
X150782175Y-66144960D01*
X150801000Y-66336095D01*
X150801000Y-67963905D01*
X150782175Y-68155040D01*
X150728720Y-68331258D01*
X150707781Y-68400282D01*
X150586976Y-68626293D01*
X150540592Y-68682812D01*
X150424396Y-68824396D01*
X150226293Y-68986975D01*
X150000279Y-69107782D01*
X149755039Y-69182175D01*
X149500000Y-69207294D01*
X149244960Y-69182175D01*
X148999720Y-69107782D01*
X148941723Y-69076782D01*
X148773707Y-68986976D01*
X148575604Y-68824396D01*
X148566865Y-68813747D01*
X148413025Y-68626293D01*
X148292218Y-68400279D01*
X148217825Y-68155039D01*
X148199000Y-67963904D01*
X148199000Y-66336095D01*
X148201887Y-66306782D01*
X148217825Y-66144958D01*
X148292218Y-65899721D01*
X148413025Y-65673708D01*
X148413026Y-65673706D01*
X148455377Y-65622101D01*
X148575604Y-65475603D01*
X148729872Y-65349000D01*
X148773707Y-65313025D01*
X148999721Y-65192218D01*
X149244961Y-65117825D01*
X149500000Y-65092706D01*
X149755040Y-65117825D01*
G37*
G36*
X139595039Y-65117825D02*
G01*
X139840279Y-65192218D01*
X140066293Y-65313025D01*
X140247514Y-65461749D01*
X140264396Y-65475604D01*
X140426976Y-65673707D01*
X140547781Y-65899718D01*
X140547782Y-65899720D01*
X140622175Y-66144960D01*
X140641000Y-66336095D01*
X140641000Y-67963905D01*
X140622175Y-68155040D01*
X140547782Y-68400280D01*
X140426975Y-68626294D01*
X140384624Y-68677899D01*
X140264397Y-68824397D01*
X140135801Y-68929932D01*
X140066294Y-68986975D01*
X139840280Y-69107782D01*
X139595040Y-69182175D01*
X139340000Y-69207294D01*
X139084961Y-69182175D01*
X138839721Y-69107782D01*
X138613707Y-68986975D01*
X138544200Y-68929932D01*
X138415604Y-68824397D01*
X138295377Y-68677899D01*
X138253026Y-68626294D01*
X138218264Y-68561259D01*
X138132218Y-68400279D01*
X138057825Y-68155042D01*
X138039000Y-67963906D01*
X138039000Y-66336095D01*
X138057825Y-66144962D01*
X138057825Y-66144961D01*
X138132218Y-65899721D01*
X138253025Y-65673707D01*
X138415604Y-65475604D01*
X138442884Y-65453216D01*
X138613707Y-65313024D01*
X138839718Y-65192219D01*
X138839720Y-65192218D01*
X139084960Y-65117825D01*
X139340000Y-65092706D01*
X139595039Y-65117825D01*
G37*
G36*
X87683500Y-66036688D02*
G01*
X87685902Y-66061074D01*
X87693015Y-66084523D01*
X87704566Y-66106134D01*
X87729199Y-66133312D01*
X87777527Y-66172973D01*
X87839920Y-66249000D01*
X87852631Y-66264488D01*
X87908438Y-66368895D01*
X87942804Y-66482182D01*
X87951500Y-66570481D01*
X87951500Y-67729519D01*
X87942804Y-67817818D01*
X87908438Y-67931105D01*
X87852631Y-68035512D01*
X87777527Y-68127027D01*
X87729200Y-68166688D01*
X87711873Y-68184015D01*
X87698259Y-68204389D01*
X87688882Y-68227028D01*
X87683500Y-68263313D01*
X87683500Y-68951000D01*
X85681500Y-68951000D01*
X85681500Y-67349000D01*
X86624502Y-67349000D01*
X86648888Y-67346598D01*
X86672337Y-67339485D01*
X86693948Y-67327934D01*
X86712890Y-67312389D01*
X86728435Y-67293447D01*
X86739986Y-67271836D01*
X86747099Y-67248387D01*
X86749501Y-67224000D01*
X86749500Y-67075998D01*
X86747098Y-67051612D01*
X86739985Y-67028163D01*
X86728433Y-67006553D01*
X86712888Y-66987611D01*
X86693946Y-66972066D01*
X86672335Y-66960515D01*
X86648886Y-66953402D01*
X86624501Y-66951000D01*
X85681500Y-66951000D01*
X85681500Y-65349000D01*
X87683500Y-65349000D01*
X87683500Y-66036688D01*
G37*
G36*
X94783512Y-64983927D02*
G01*
X94932812Y-65013624D01*
X95096784Y-65081544D01*
X95244354Y-65180147D01*
X95369853Y-65305646D01*
X95468456Y-65453216D01*
X95536376Y-65617188D01*
X95571000Y-65791259D01*
X95571000Y-65968741D01*
X95536376Y-66142812D01*
X95468456Y-66306784D01*
X95369853Y-66454354D01*
X95244354Y-66579853D01*
X95096784Y-66678456D01*
X94932812Y-66746376D01*
X94783512Y-66776073D01*
X94758742Y-66781000D01*
X94581258Y-66781000D01*
X94556488Y-66776073D01*
X94407188Y-66746376D01*
X94243216Y-66678456D01*
X94095646Y-66579853D01*
X93970147Y-66454354D01*
X93871544Y-66306784D01*
X93803624Y-66142812D01*
X93769000Y-65968741D01*
X93769000Y-65791259D01*
X93803624Y-65617188D01*
X93871544Y-65453216D01*
X93970147Y-65305646D01*
X94095646Y-65180147D01*
X94243216Y-65081544D01*
X94407188Y-65013624D01*
X94556488Y-64983927D01*
X94581258Y-64979000D01*
X94758742Y-64979000D01*
X94783512Y-64983927D01*
G37*
G36*
X111296000Y-64941000D02*
G01*
X109744000Y-64941000D01*
X109744000Y-58539000D01*
X111296000Y-58539000D01*
X111296000Y-64941000D01*
G37*
G36*
X117196000Y-64941000D02*
G01*
X115644000Y-64941000D01*
X115644000Y-58539000D01*
X117196000Y-58539000D01*
X117196000Y-64941000D01*
G37*
G36*
X87096355Y-63002140D02*
G01*
X87160118Y-63008420D01*
X87250904Y-63035960D01*
X87282836Y-63045646D01*
X87395925Y-63106094D01*
X87495054Y-63187446D01*
X87576406Y-63286575D01*
X87636854Y-63399664D01*
X87638130Y-63403870D01*
X87670413Y-63510292D01*
X87679787Y-63532925D01*
X87683500Y-63538482D01*
X87683500Y-63611886D01*
X87684102Y-63624138D01*
X87686649Y-63650000D01*
X87684102Y-63675862D01*
X87683500Y-63688114D01*
X87683500Y-64901000D01*
X85681500Y-64901000D01*
X85681500Y-63688114D01*
X85680898Y-63675862D01*
X85678351Y-63650000D01*
X85680898Y-63624138D01*
X85681500Y-63611886D01*
X85681500Y-63538594D01*
X85690457Y-63521836D01*
X85694585Y-63510299D01*
X85726870Y-63403870D01*
X85728146Y-63399664D01*
X85788594Y-63286575D01*
X85869946Y-63187446D01*
X85969075Y-63106094D01*
X86082164Y-63045646D01*
X86114096Y-63035960D01*
X86204882Y-63008420D01*
X86268645Y-63002140D01*
X86300526Y-62999000D01*
X87064474Y-62999000D01*
X87096355Y-63002140D01*
G37*
G36*
X94783512Y-62443927D02*
G01*
X94932812Y-62473624D01*
X95096784Y-62541544D01*
X95244354Y-62640147D01*
X95369853Y-62765646D01*
X95468456Y-62913216D01*
X95536376Y-63077188D01*
X95571000Y-63251259D01*
X95571000Y-63428741D01*
X95536376Y-63602812D01*
X95468456Y-63766784D01*
X95369853Y-63914354D01*
X95244354Y-64039853D01*
X95096784Y-64138456D01*
X94932812Y-64206376D01*
X94783512Y-64236073D01*
X94758742Y-64241000D01*
X94581258Y-64241000D01*
X94556488Y-64236073D01*
X94407188Y-64206376D01*
X94243216Y-64138456D01*
X94095646Y-64039853D01*
X93970147Y-63914354D01*
X93871544Y-63766784D01*
X93803624Y-63602812D01*
X93769000Y-63428741D01*
X93769000Y-63251259D01*
X93803624Y-63077188D01*
X93871544Y-62913216D01*
X93970147Y-62765646D01*
X94095646Y-62640147D01*
X94243216Y-62541544D01*
X94407188Y-62473624D01*
X94556488Y-62443927D01*
X94581258Y-62439000D01*
X94758742Y-62439000D01*
X94783512Y-62443927D01*
G37*
G36*
X107954468Y-63056065D02*
G01*
X107993138Y-63067796D01*
X108028777Y-63086846D01*
X108060017Y-63112483D01*
X108085654Y-63143723D01*
X108104704Y-63179362D01*
X108116435Y-63218032D01*
X108121000Y-63264388D01*
X108121000Y-63915612D01*
X108116435Y-63961968D01*
X108104704Y-64000638D01*
X108085654Y-64036277D01*
X108060017Y-64067517D01*
X108028777Y-64093154D01*
X107993138Y-64112204D01*
X107954468Y-64123935D01*
X107908112Y-64128500D01*
X106831888Y-64128500D01*
X106785532Y-64123935D01*
X106746862Y-64112204D01*
X106711223Y-64093154D01*
X106679983Y-64067517D01*
X106654346Y-64036277D01*
X106635296Y-64000638D01*
X106623565Y-63961968D01*
X106619000Y-63915612D01*
X106619000Y-63264388D01*
X106623565Y-63218032D01*
X106635296Y-63179362D01*
X106654346Y-63143723D01*
X106679983Y-63112483D01*
X106711223Y-63086846D01*
X106746862Y-63067796D01*
X106785532Y-63056065D01*
X106831888Y-63051500D01*
X107908112Y-63051500D01*
X107954468Y-63056065D01*
G37*
G36*
X107954468Y-61181065D02*
G01*
X107993138Y-61192796D01*
X108028777Y-61211846D01*
X108060017Y-61237483D01*
X108085654Y-61268723D01*
X108104704Y-61304362D01*
X108116435Y-61343032D01*
X108121000Y-61389388D01*
X108121000Y-62040612D01*
X108116435Y-62086968D01*
X108104704Y-62125638D01*
X108085654Y-62161277D01*
X108060017Y-62192517D01*
X108028777Y-62218154D01*
X107993138Y-62237204D01*
X107954468Y-62248935D01*
X107908112Y-62253500D01*
X106831888Y-62253500D01*
X106785532Y-62248935D01*
X106746862Y-62237204D01*
X106711223Y-62218154D01*
X106679983Y-62192517D01*
X106654346Y-62161277D01*
X106635296Y-62125638D01*
X106623565Y-62086968D01*
X106619000Y-62040612D01*
X106619000Y-61389388D01*
X106623565Y-61343032D01*
X106635296Y-61304362D01*
X106654346Y-61268723D01*
X106679983Y-61237483D01*
X106711223Y-61211846D01*
X106746862Y-61192796D01*
X106785532Y-61181065D01*
X106831888Y-61176500D01*
X107908112Y-61176500D01*
X107954468Y-61181065D01*
G37*
G36*
X122479468Y-60653565D02*
G01*
X122518138Y-60665296D01*
X122553777Y-60684346D01*
X122585017Y-60709983D01*
X122610654Y-60741223D01*
X122629704Y-60776862D01*
X122641435Y-60815532D01*
X122646000Y-60861888D01*
X122646000Y-61938112D01*
X122641435Y-61984468D01*
X122629704Y-62023138D01*
X122610654Y-62058777D01*
X122585017Y-62090017D01*
X122553777Y-62115654D01*
X122518138Y-62134704D01*
X122479468Y-62146435D01*
X122433112Y-62151000D01*
X121781888Y-62151000D01*
X121735532Y-62146435D01*
X121696862Y-62134704D01*
X121661223Y-62115654D01*
X121629983Y-62090017D01*
X121604346Y-62058777D01*
X121585296Y-62023138D01*
X121573565Y-61984468D01*
X121569000Y-61938112D01*
X121569000Y-60861888D01*
X121573565Y-60815532D01*
X121585296Y-60776862D01*
X121604346Y-60741223D01*
X121629983Y-60709983D01*
X121661223Y-60684346D01*
X121696862Y-60665296D01*
X121735532Y-60653565D01*
X121781888Y-60649000D01*
X122433112Y-60649000D01*
X122479468Y-60653565D01*
G37*
G36*
X120604468Y-60653565D02*
G01*
X120643138Y-60665296D01*
X120678777Y-60684346D01*
X120710017Y-60709983D01*
X120735654Y-60741223D01*
X120754704Y-60776862D01*
X120766435Y-60815532D01*
X120771000Y-60861888D01*
X120771000Y-61938112D01*
X120766435Y-61984468D01*
X120754704Y-62023138D01*
X120735654Y-62058777D01*
X120710017Y-62090017D01*
X120678777Y-62115654D01*
X120643138Y-62134704D01*
X120604468Y-62146435D01*
X120558112Y-62151000D01*
X119906888Y-62151000D01*
X119860532Y-62146435D01*
X119821862Y-62134704D01*
X119786223Y-62115654D01*
X119754983Y-62090017D01*
X119729346Y-62058777D01*
X119710296Y-62023138D01*
X119698565Y-61984468D01*
X119694000Y-61938112D01*
X119694000Y-60861888D01*
X119698565Y-60815532D01*
X119710296Y-60776862D01*
X119729346Y-60741223D01*
X119754983Y-60709983D01*
X119786223Y-60684346D01*
X119821862Y-60665296D01*
X119860532Y-60653565D01*
X119906888Y-60649000D01*
X120558112Y-60649000D01*
X120604468Y-60653565D01*
G37*
G36*
X150688512Y-59548927D02*
G01*
X150837812Y-59578624D01*
X151001784Y-59646544D01*
X151149354Y-59745147D01*
X151274853Y-59870646D01*
X151373456Y-60018216D01*
X151441376Y-60182188D01*
X151476000Y-60356259D01*
X151476000Y-60533741D01*
X151441376Y-60707812D01*
X151373456Y-60871784D01*
X151274853Y-61019354D01*
X151149354Y-61144853D01*
X151001784Y-61243456D01*
X150837812Y-61311376D01*
X150688512Y-61341073D01*
X150663742Y-61346000D01*
X150486258Y-61346000D01*
X150461488Y-61341073D01*
X150312188Y-61311376D01*
X150148216Y-61243456D01*
X150000646Y-61144853D01*
X149875147Y-61019354D01*
X149776544Y-60871784D01*
X149708624Y-60707812D01*
X149674000Y-60533741D01*
X149674000Y-60356259D01*
X149708624Y-60182188D01*
X149776544Y-60018216D01*
X149875147Y-59870646D01*
X150000646Y-59745147D01*
X150148216Y-59646544D01*
X150312188Y-59578624D01*
X150461488Y-59548927D01*
X150486258Y-59544000D01*
X150663742Y-59544000D01*
X150688512Y-59548927D01*
G37*
G36*
X154016000Y-61346000D02*
G01*
X152214000Y-61346000D01*
X152214000Y-59544000D01*
X154016000Y-59544000D01*
X154016000Y-61346000D01*
G37*
G36*
X142226564Y-59139389D02*
G01*
X142417833Y-59218615D01*
X142417835Y-59218616D01*
X142589973Y-59333635D01*
X142736365Y-59480027D01*
X142851385Y-59652167D01*
X142930611Y-59843436D01*
X142971000Y-60046484D01*
X142971000Y-60253516D01*
X142930611Y-60456564D01*
X142851385Y-60647833D01*
X142851384Y-60647835D01*
X142736365Y-60819973D01*
X142589973Y-60966365D01*
X142417835Y-61081384D01*
X142417834Y-61081385D01*
X142417833Y-61081385D01*
X142226564Y-61160611D01*
X142023516Y-61201000D01*
X141816484Y-61201000D01*
X141613436Y-61160611D01*
X141422167Y-61081385D01*
X141422166Y-61081385D01*
X141422165Y-61081384D01*
X141250027Y-60966365D01*
X141103635Y-60819973D01*
X140988616Y-60647835D01*
X140988615Y-60647833D01*
X140909389Y-60456564D01*
X140869000Y-60253516D01*
X140869000Y-60046484D01*
X140909389Y-59843436D01*
X140988615Y-59652167D01*
X141103635Y-59480027D01*
X141250027Y-59333635D01*
X141422165Y-59218616D01*
X141422167Y-59218615D01*
X141613436Y-59139389D01*
X141816484Y-59099000D01*
X142023516Y-59099000D01*
X142226564Y-59139389D01*
G37*
G36*
X147226564Y-59139389D02*
G01*
X147417833Y-59218615D01*
X147417835Y-59218616D01*
X147589973Y-59333635D01*
X147736365Y-59480027D01*
X147851385Y-59652167D01*
X147930611Y-59843436D01*
X147971000Y-60046484D01*
X147971000Y-60253516D01*
X147930611Y-60456564D01*
X147851385Y-60647833D01*
X147851384Y-60647835D01*
X147736365Y-60819973D01*
X147589973Y-60966365D01*
X147417835Y-61081384D01*
X147417834Y-61081385D01*
X147417833Y-61081385D01*
X147226564Y-61160611D01*
X147023516Y-61201000D01*
X146816484Y-61201000D01*
X146613436Y-61160611D01*
X146422167Y-61081385D01*
X146422166Y-61081385D01*
X146422165Y-61081384D01*
X146250027Y-60966365D01*
X146103635Y-60819973D01*
X145988616Y-60647835D01*
X145988615Y-60647833D01*
X145909389Y-60456564D01*
X145869000Y-60253516D01*
X145869000Y-60046484D01*
X145909389Y-59843436D01*
X145988615Y-59652167D01*
X146103635Y-59480027D01*
X146250027Y-59333635D01*
X146422165Y-59218616D01*
X146422167Y-59218615D01*
X146613436Y-59139389D01*
X146816484Y-59099000D01*
X147023516Y-59099000D01*
X147226564Y-59139389D01*
G37*
G36*
X125701468Y-57691565D02*
G01*
X125740138Y-57703296D01*
X125775777Y-57722346D01*
X125807017Y-57747983D01*
X125832654Y-57779223D01*
X125851704Y-57814862D01*
X125863435Y-57853532D01*
X125868000Y-57899888D01*
X125868000Y-58976112D01*
X125863435Y-59022468D01*
X125851704Y-59061138D01*
X125832654Y-59096777D01*
X125807017Y-59128017D01*
X125775777Y-59153654D01*
X125740138Y-59172704D01*
X125701468Y-59184435D01*
X125655112Y-59189000D01*
X125003888Y-59189000D01*
X124957532Y-59184435D01*
X124918862Y-59172704D01*
X124883223Y-59153654D01*
X124851983Y-59128017D01*
X124826346Y-59096777D01*
X124807296Y-59061138D01*
X124795565Y-59022468D01*
X124791000Y-58976112D01*
X124791000Y-57899888D01*
X124795565Y-57853532D01*
X124807296Y-57814862D01*
X124826346Y-57779223D01*
X124851983Y-57747983D01*
X124883223Y-57722346D01*
X124918862Y-57703296D01*
X124957532Y-57691565D01*
X125003888Y-57687000D01*
X125655112Y-57687000D01*
X125701468Y-57691565D01*
G37*
G36*
X123826468Y-57691565D02*
G01*
X123865138Y-57703296D01*
X123900777Y-57722346D01*
X123932017Y-57747983D01*
X123957654Y-57779223D01*
X123976704Y-57814862D01*
X123988435Y-57853532D01*
X123993000Y-57899888D01*
X123993000Y-58976112D01*
X123988435Y-59022468D01*
X123976704Y-59061138D01*
X123957654Y-59096777D01*
X123932017Y-59128017D01*
X123900777Y-59153654D01*
X123865138Y-59172704D01*
X123826468Y-59184435D01*
X123780112Y-59189000D01*
X123128888Y-59189000D01*
X123082532Y-59184435D01*
X123043862Y-59172704D01*
X123008223Y-59153654D01*
X122976983Y-59128017D01*
X122951346Y-59096777D01*
X122932296Y-59061138D01*
X122920565Y-59022468D01*
X122916000Y-58976112D01*
X122916000Y-57899888D01*
X122920565Y-57853532D01*
X122932296Y-57814862D01*
X122951346Y-57779223D01*
X122976983Y-57747983D01*
X123008223Y-57722346D01*
X123043862Y-57703296D01*
X123082532Y-57691565D01*
X123128888Y-57687000D01*
X123780112Y-57687000D01*
X123826468Y-57691565D01*
G37*
G36*
X104801000Y-58071000D02*
G01*
X101099000Y-58071000D01*
X101099000Y-56469000D01*
X104801000Y-56469000D01*
X104801000Y-58071000D01*
G37*
G36*
X161545256Y-54041298D02*
G01*
X161651579Y-54062447D01*
X161952042Y-54186903D01*
X162222451Y-54367585D01*
X162452415Y-54597549D01*
X162633097Y-54867958D01*
X162757553Y-55168421D01*
X162821000Y-55487391D01*
X162821000Y-55812609D01*
X162757553Y-56131579D01*
X162633097Y-56432042D01*
X162452415Y-56702451D01*
X162222451Y-56932415D01*
X161952042Y-57113097D01*
X161651579Y-57237553D01*
X161545256Y-57258702D01*
X161332611Y-57301000D01*
X161007389Y-57301000D01*
X160794744Y-57258702D01*
X160688421Y-57237553D01*
X160387958Y-57113097D01*
X160117549Y-56932415D01*
X159887585Y-56702451D01*
X159706903Y-56432042D01*
X159582447Y-56131579D01*
X159519000Y-55812609D01*
X159519000Y-55487391D01*
X159582447Y-55168421D01*
X159706903Y-54867958D01*
X159887585Y-54597549D01*
X160117549Y-54367585D01*
X160387958Y-54186903D01*
X160688421Y-54062447D01*
X160794744Y-54041298D01*
X161007389Y-53999000D01*
X161332611Y-53999000D01*
X161545256Y-54041298D01*
G37*
G36*
X89545256Y-54041298D02*
G01*
X89651579Y-54062447D01*
X89952042Y-54186903D01*
X90222451Y-54367585D01*
X90452415Y-54597549D01*
X90633097Y-54867958D01*
X90757553Y-55168421D01*
X90821000Y-55487391D01*
X90821000Y-55812609D01*
X90757553Y-56131579D01*
X90633097Y-56432042D01*
X90452415Y-56702451D01*
X90222451Y-56932415D01*
X89952042Y-57113097D01*
X89651579Y-57237553D01*
X89545256Y-57258702D01*
X89332611Y-57301000D01*
X89007389Y-57301000D01*
X88794744Y-57258702D01*
X88688421Y-57237553D01*
X88387958Y-57113097D01*
X88117549Y-56932415D01*
X87887585Y-56702451D01*
X87706903Y-56432042D01*
X87582447Y-56131579D01*
X87519000Y-55812609D01*
X87519000Y-55487391D01*
X87582447Y-55168421D01*
X87706903Y-54867958D01*
X87887585Y-54597549D01*
X88117549Y-54367585D01*
X88387958Y-54186903D01*
X88688421Y-54062447D01*
X88794744Y-54041298D01*
X89007389Y-53999000D01*
X89332611Y-53999000D01*
X89545256Y-54041298D01*
G37*
G36*
X123223512Y-54468927D02*
G01*
X123372812Y-54498624D01*
X123536784Y-54566544D01*
X123684354Y-54665147D01*
X123809853Y-54790646D01*
X123908456Y-54938216D01*
X123976376Y-55102188D01*
X124011000Y-55276259D01*
X124011000Y-55453741D01*
X123976376Y-55627812D01*
X123908456Y-55791784D01*
X123809853Y-55939354D01*
X123684354Y-56064853D01*
X123536784Y-56163456D01*
X123372812Y-56231376D01*
X123223512Y-56261073D01*
X123198742Y-56266000D01*
X123021258Y-56266000D01*
X122996488Y-56261073D01*
X122847188Y-56231376D01*
X122683216Y-56163456D01*
X122535646Y-56064853D01*
X122410147Y-55939354D01*
X122311544Y-55791784D01*
X122243624Y-55627812D01*
X122209000Y-55453741D01*
X122209000Y-55276259D01*
X122243624Y-55102188D01*
X122311544Y-54938216D01*
X122410147Y-54790646D01*
X122535646Y-54665147D01*
X122683216Y-54566544D01*
X122847188Y-54498624D01*
X122996488Y-54468927D01*
X123021258Y-54464000D01*
X123198742Y-54464000D01*
X123223512Y-54468927D01*
G37*
G36*
X126551000Y-56266000D02*
G01*
X124749000Y-56266000D01*
X124749000Y-54464000D01*
X126551000Y-54464000D01*
X126551000Y-56266000D01*
G37*
G36*
X155187000Y-56220000D02*
G01*
X153997000Y-56220000D01*
X153997000Y-55480000D01*
X155187000Y-55480000D01*
X155187000Y-56220000D01*
G37*
G36*
X152487000Y-56220000D02*
G01*
X151297000Y-56220000D01*
X151297000Y-53580000D01*
X152487000Y-53580000D01*
X152487000Y-56220000D01*
G37*
G36*
X104801000Y-55531000D02*
G01*
X101099000Y-55531000D01*
X101099000Y-53929000D01*
X104801000Y-53929000D01*
X104801000Y-55531000D01*
G37*
G36*
X155187000Y-54320000D02*
G01*
X153997000Y-54320000D01*
X153997000Y-53580000D01*
X155187000Y-53580000D01*
X155187000Y-54320000D01*
G37*
G36*
X117517142Y-52068242D02*
G01*
X117665101Y-52129529D01*
X117798255Y-52218499D01*
X117911501Y-52331745D01*
X118000471Y-52464899D01*
X118061758Y-52612858D01*
X118093000Y-52769925D01*
X118093000Y-52930075D01*
X118061758Y-53087142D01*
X118000471Y-53235101D01*
X117911501Y-53368255D01*
X117798255Y-53481501D01*
X117665101Y-53570471D01*
X117517142Y-53631758D01*
X117360075Y-53663000D01*
X117199925Y-53663000D01*
X117042858Y-53631758D01*
X116894899Y-53570471D01*
X116761745Y-53481501D01*
X116648499Y-53368255D01*
X116559529Y-53235101D01*
X116498242Y-53087142D01*
X116467000Y-52930075D01*
X116467000Y-52769925D01*
X116498242Y-52612858D01*
X116559529Y-52464899D01*
X116648499Y-52331745D01*
X116761745Y-52218499D01*
X116894899Y-52129529D01*
X117042858Y-52068242D01*
X117199925Y-52037000D01*
X117360075Y-52037000D01*
X117517142Y-52068242D01*
G37*
G36*
X114977142Y-52068242D02*
G01*
X115125101Y-52129529D01*
X115258255Y-52218499D01*
X115371501Y-52331745D01*
X115460471Y-52464899D01*
X115521758Y-52612858D01*
X115553000Y-52769925D01*
X115553000Y-52930075D01*
X115521758Y-53087142D01*
X115460471Y-53235101D01*
X115371501Y-53368255D01*
X115258255Y-53481501D01*
X115125101Y-53570471D01*
X114977142Y-53631758D01*
X114820075Y-53663000D01*
X114659925Y-53663000D01*
X114502858Y-53631758D01*
X114354899Y-53570471D01*
X114221745Y-53481501D01*
X114108499Y-53368255D01*
X114019529Y-53235101D01*
X113958242Y-53087142D01*
X113927000Y-52930075D01*
X113927000Y-52769925D01*
X113958242Y-52612858D01*
X114019529Y-52464899D01*
X114108499Y-52331745D01*
X114221745Y-52218499D01*
X114354899Y-52129529D01*
X114502858Y-52068242D01*
X114659925Y-52037000D01*
X114820075Y-52037000D01*
X114977142Y-52068242D01*
G37*
G36*
X109897142Y-52068242D02*
G01*
X110045101Y-52129529D01*
X110178255Y-52218499D01*
X110291501Y-52331745D01*
X110380471Y-52464899D01*
X110441758Y-52612858D01*
X110473000Y-52769925D01*
X110473000Y-52930075D01*
X110441758Y-53087142D01*
X110380471Y-53235101D01*
X110291501Y-53368255D01*
X110178255Y-53481501D01*
X110045101Y-53570471D01*
X109897142Y-53631758D01*
X109740075Y-53663000D01*
X109579925Y-53663000D01*
X109422858Y-53631758D01*
X109274899Y-53570471D01*
X109141745Y-53481501D01*
X109028499Y-53368255D01*
X108939529Y-53235101D01*
X108878242Y-53087142D01*
X108847000Y-52930075D01*
X108847000Y-52769925D01*
X108878242Y-52612858D01*
X108939529Y-52464899D01*
X109028499Y-52331745D01*
X109141745Y-52218499D01*
X109274899Y-52129529D01*
X109422858Y-52068242D01*
X109579925Y-52037000D01*
X109740075Y-52037000D01*
X109897142Y-52068242D01*
G37*
G36*
X112437142Y-52068242D02*
G01*
X112585101Y-52129529D01*
X112718255Y-52218499D01*
X112831501Y-52331745D01*
X112920471Y-52464899D01*
X112981758Y-52612858D01*
X113013000Y-52769925D01*
X113013000Y-52930075D01*
X112981758Y-53087142D01*
X112920471Y-53235101D01*
X112831501Y-53368255D01*
X112718255Y-53481501D01*
X112585101Y-53570471D01*
X112437142Y-53631758D01*
X112280075Y-53663000D01*
X112119925Y-53663000D01*
X111962858Y-53631758D01*
X111814899Y-53570471D01*
X111681745Y-53481501D01*
X111568499Y-53368255D01*
X111479529Y-53235101D01*
X111418242Y-53087142D01*
X111387000Y-52930075D01*
X111387000Y-52769925D01*
X111418242Y-52612858D01*
X111479529Y-52464899D01*
X111568499Y-52331745D01*
X111681745Y-52218499D01*
X111814899Y-52129529D01*
X111962858Y-52068242D01*
X112119925Y-52037000D01*
X112280075Y-52037000D01*
X112437142Y-52068242D01*
G37*
M02*
