G04 #@! TF.GenerationSoftware,KiCad,Pcbnew,(5.1.5)-3*
G04 #@! TF.CreationDate,2020-12-14T20:28:07-05:00*
G04 #@! TF.ProjectId,V0_Display,56305f44-6973-4706-9c61-792e6b696361,rev?*
G04 #@! TF.SameCoordinates,Original*
G04 #@! TF.FileFunction,Soldermask,Top*
G04 #@! TF.FilePolarity,Negative*
%FSLAX46Y46*%
G04 Gerber Fmt 4.6, Leading zero omitted, Abs format (unit mm)*
G04 Created by KiCad (PCBNEW (5.1.5)-3) date 2020-12-14 20:28:07*
%MOMM*%
%LPD*%
G04 APERTURE LIST*
%ADD10C,0.100000*%
G04 APERTURE END LIST*
D10*
G36*
X161545256Y-79041298D02*
G01*
X161651579Y-79062447D01*
X161952042Y-79186903D01*
X162222451Y-79367585D01*
X162452415Y-79597549D01*
X162633097Y-79867958D01*
X162757553Y-80168421D01*
X162821000Y-80487391D01*
X162821000Y-80812609D01*
X162757553Y-81131579D01*
X162633097Y-81432042D01*
X162452415Y-81702451D01*
X162222451Y-81932415D01*
X161952042Y-82113097D01*
X161651579Y-82237553D01*
X161545256Y-82258702D01*
X161332611Y-82301000D01*
X161007389Y-82301000D01*
X160794744Y-82258702D01*
X160688421Y-82237553D01*
X160387958Y-82113097D01*
X160117549Y-81932415D01*
X159887585Y-81702451D01*
X159706903Y-81432042D01*
X159582447Y-81131579D01*
X159519000Y-80812609D01*
X159519000Y-80487391D01*
X159582447Y-80168421D01*
X159706903Y-79867958D01*
X159887585Y-79597549D01*
X160117549Y-79367585D01*
X160387958Y-79186903D01*
X160688421Y-79062447D01*
X160794744Y-79041298D01*
X161007389Y-78999000D01*
X161332611Y-78999000D01*
X161545256Y-79041298D01*
G37*
G36*
X89545256Y-79041298D02*
G01*
X89651579Y-79062447D01*
X89952042Y-79186903D01*
X90222451Y-79367585D01*
X90452415Y-79597549D01*
X90633097Y-79867958D01*
X90757553Y-80168421D01*
X90821000Y-80487391D01*
X90821000Y-80812609D01*
X90757553Y-81131579D01*
X90633097Y-81432042D01*
X90452415Y-81702451D01*
X90222451Y-81932415D01*
X89952042Y-82113097D01*
X89651579Y-82237553D01*
X89545256Y-82258702D01*
X89332611Y-82301000D01*
X89007389Y-82301000D01*
X88794744Y-82258702D01*
X88688421Y-82237553D01*
X88387958Y-82113097D01*
X88117549Y-81932415D01*
X87887585Y-81702451D01*
X87706903Y-81432042D01*
X87582447Y-81131579D01*
X87519000Y-80812609D01*
X87519000Y-80487391D01*
X87582447Y-80168421D01*
X87706903Y-79867958D01*
X87887585Y-79597549D01*
X88117549Y-79367585D01*
X88387958Y-79186903D01*
X88688421Y-79062447D01*
X88794744Y-79041298D01*
X89007389Y-78999000D01*
X89332611Y-78999000D01*
X89545256Y-79041298D01*
G37*
G36*
X129281564Y-76634389D02*
G01*
X129472833Y-76713615D01*
X129472835Y-76713616D01*
X129644973Y-76828635D01*
X129791365Y-76975027D01*
X129906385Y-77147167D01*
X129985611Y-77338436D01*
X130026000Y-77541484D01*
X130026000Y-77748516D01*
X129985611Y-77951564D01*
X129906385Y-78142833D01*
X129906384Y-78142835D01*
X129791365Y-78314973D01*
X129644973Y-78461365D01*
X129472835Y-78576384D01*
X129472834Y-78576385D01*
X129472833Y-78576385D01*
X129281564Y-78655611D01*
X129078516Y-78696000D01*
X128871484Y-78696000D01*
X128668436Y-78655611D01*
X128477167Y-78576385D01*
X128477166Y-78576385D01*
X128477165Y-78576384D01*
X128305027Y-78461365D01*
X128158635Y-78314973D01*
X128043616Y-78142835D01*
X128043615Y-78142833D01*
X127964389Y-77951564D01*
X127924000Y-77748516D01*
X127924000Y-77541484D01*
X127964389Y-77338436D01*
X128043615Y-77147167D01*
X128158635Y-76975027D01*
X128305027Y-76828635D01*
X128477165Y-76713616D01*
X128477167Y-76713615D01*
X128668436Y-76634389D01*
X128871484Y-76594000D01*
X129078516Y-76594000D01*
X129281564Y-76634389D01*
G37*
G36*
X122781564Y-76634389D02*
G01*
X122972833Y-76713615D01*
X122972835Y-76713616D01*
X123144973Y-76828635D01*
X123291365Y-76975027D01*
X123406385Y-77147167D01*
X123485611Y-77338436D01*
X123526000Y-77541484D01*
X123526000Y-77748516D01*
X123485611Y-77951564D01*
X123406385Y-78142833D01*
X123406384Y-78142835D01*
X123291365Y-78314973D01*
X123144973Y-78461365D01*
X122972835Y-78576384D01*
X122972834Y-78576385D01*
X122972833Y-78576385D01*
X122781564Y-78655611D01*
X122578516Y-78696000D01*
X122371484Y-78696000D01*
X122168436Y-78655611D01*
X121977167Y-78576385D01*
X121977166Y-78576385D01*
X121977165Y-78576384D01*
X121805027Y-78461365D01*
X121658635Y-78314973D01*
X121543616Y-78142835D01*
X121543615Y-78142833D01*
X121464389Y-77951564D01*
X121424000Y-77748516D01*
X121424000Y-77541484D01*
X121464389Y-77338436D01*
X121543615Y-77147167D01*
X121658635Y-76975027D01*
X121805027Y-76828635D01*
X121977165Y-76713616D01*
X121977167Y-76713615D01*
X122168436Y-76634389D01*
X122371484Y-76594000D01*
X122578516Y-76594000D01*
X122781564Y-76634389D01*
G37*
G36*
X118134653Y-74152165D02*
G01*
X118292812Y-74183624D01*
X118456784Y-74251544D01*
X118604354Y-74350147D01*
X118729853Y-74475646D01*
X118828456Y-74623216D01*
X118896376Y-74787188D01*
X118931000Y-74961259D01*
X118931000Y-75138741D01*
X118896376Y-75312812D01*
X118828456Y-75476784D01*
X118729853Y-75624354D01*
X118604354Y-75749853D01*
X118456784Y-75848456D01*
X118292812Y-75916376D01*
X118143512Y-75946073D01*
X118118742Y-75951000D01*
X117941258Y-75951000D01*
X117916488Y-75946073D01*
X117767188Y-75916376D01*
X117603216Y-75848456D01*
X117455646Y-75749853D01*
X117330147Y-75624354D01*
X117231544Y-75476784D01*
X117163624Y-75312812D01*
X117129000Y-75138741D01*
X117129000Y-74961259D01*
X117163624Y-74787188D01*
X117231544Y-74623216D01*
X117330147Y-74475646D01*
X117455646Y-74350147D01*
X117603216Y-74251544D01*
X117767188Y-74183624D01*
X117925347Y-74152165D01*
X117941258Y-74149000D01*
X118118742Y-74149000D01*
X118134653Y-74152165D01*
G37*
G36*
X115594653Y-74152165D02*
G01*
X115752812Y-74183624D01*
X115916784Y-74251544D01*
X116064354Y-74350147D01*
X116189853Y-74475646D01*
X116288456Y-74623216D01*
X116356376Y-74787188D01*
X116391000Y-74961259D01*
X116391000Y-75138741D01*
X116356376Y-75312812D01*
X116288456Y-75476784D01*
X116189853Y-75624354D01*
X116064354Y-75749853D01*
X115916784Y-75848456D01*
X115752812Y-75916376D01*
X115603512Y-75946073D01*
X115578742Y-75951000D01*
X115401258Y-75951000D01*
X115376488Y-75946073D01*
X115227188Y-75916376D01*
X115063216Y-75848456D01*
X114915646Y-75749853D01*
X114790147Y-75624354D01*
X114691544Y-75476784D01*
X114623624Y-75312812D01*
X114589000Y-75138741D01*
X114589000Y-74961259D01*
X114623624Y-74787188D01*
X114691544Y-74623216D01*
X114790147Y-74475646D01*
X114915646Y-74350147D01*
X115063216Y-74251544D01*
X115227188Y-74183624D01*
X115385347Y-74152165D01*
X115401258Y-74149000D01*
X115578742Y-74149000D01*
X115594653Y-74152165D01*
G37*
G36*
X113851000Y-75951000D02*
G01*
X112049000Y-75951000D01*
X112049000Y-74149000D01*
X113851000Y-74149000D01*
X113851000Y-75951000D01*
G37*
G36*
X144726564Y-73639389D02*
G01*
X144917833Y-73718615D01*
X144917835Y-73718616D01*
X145089973Y-73833635D01*
X145236365Y-73980027D01*
X145312143Y-74093436D01*
X145351385Y-74152167D01*
X145430611Y-74343436D01*
X145471000Y-74546484D01*
X145471000Y-74753516D01*
X145430611Y-74956564D01*
X145351385Y-75147833D01*
X145351384Y-75147835D01*
X145236365Y-75319973D01*
X145089973Y-75466365D01*
X144917835Y-75581384D01*
X144917834Y-75581385D01*
X144917833Y-75581385D01*
X144726564Y-75660611D01*
X144523516Y-75701000D01*
X144316484Y-75701000D01*
X144113436Y-75660611D01*
X143922167Y-75581385D01*
X143922166Y-75581385D01*
X143922165Y-75581384D01*
X143750027Y-75466365D01*
X143603635Y-75319973D01*
X143488616Y-75147835D01*
X143488615Y-75147833D01*
X143409389Y-74956564D01*
X143369000Y-74753516D01*
X143369000Y-74546484D01*
X143409389Y-74343436D01*
X143488615Y-74152167D01*
X143527858Y-74093436D01*
X143603635Y-73980027D01*
X143750027Y-73833635D01*
X143922165Y-73718616D01*
X143922167Y-73718615D01*
X144113436Y-73639389D01*
X144316484Y-73599000D01*
X144523516Y-73599000D01*
X144726564Y-73639389D01*
G37*
G36*
X142226564Y-73639389D02*
G01*
X142417833Y-73718615D01*
X142417835Y-73718616D01*
X142589973Y-73833635D01*
X142736365Y-73980027D01*
X142812143Y-74093436D01*
X142851385Y-74152167D01*
X142930611Y-74343436D01*
X142971000Y-74546484D01*
X142971000Y-74753516D01*
X142930611Y-74956564D01*
X142851385Y-75147833D01*
X142851384Y-75147835D01*
X142736365Y-75319973D01*
X142589973Y-75466365D01*
X142417835Y-75581384D01*
X142417834Y-75581385D01*
X142417833Y-75581385D01*
X142226564Y-75660611D01*
X142023516Y-75701000D01*
X141816484Y-75701000D01*
X141613436Y-75660611D01*
X141422167Y-75581385D01*
X141422166Y-75581385D01*
X141422165Y-75581384D01*
X141250027Y-75466365D01*
X141103635Y-75319973D01*
X140988616Y-75147835D01*
X140988615Y-75147833D01*
X140909389Y-74956564D01*
X140869000Y-74753516D01*
X140869000Y-74546484D01*
X140909389Y-74343436D01*
X140988615Y-74152167D01*
X141027858Y-74093436D01*
X141103635Y-73980027D01*
X141250027Y-73833635D01*
X141422165Y-73718616D01*
X141422167Y-73718615D01*
X141613436Y-73639389D01*
X141816484Y-73599000D01*
X142023516Y-73599000D01*
X142226564Y-73639389D01*
G37*
G36*
X147226564Y-73639389D02*
G01*
X147417833Y-73718615D01*
X147417835Y-73718616D01*
X147589973Y-73833635D01*
X147736365Y-73980027D01*
X147812143Y-74093436D01*
X147851385Y-74152167D01*
X147930611Y-74343436D01*
X147971000Y-74546484D01*
X147971000Y-74753516D01*
X147930611Y-74956564D01*
X147851385Y-75147833D01*
X147851384Y-75147835D01*
X147736365Y-75319973D01*
X147589973Y-75466365D01*
X147417835Y-75581384D01*
X147417834Y-75581385D01*
X147417833Y-75581385D01*
X147226564Y-75660611D01*
X147023516Y-75701000D01*
X146816484Y-75701000D01*
X146613436Y-75660611D01*
X146422167Y-75581385D01*
X146422166Y-75581385D01*
X146422165Y-75581384D01*
X146250027Y-75466365D01*
X146103635Y-75319973D01*
X145988616Y-75147835D01*
X145988615Y-75147833D01*
X145909389Y-74956564D01*
X145869000Y-74753516D01*
X145869000Y-74546484D01*
X145909389Y-74343436D01*
X145988615Y-74152167D01*
X146027858Y-74093436D01*
X146103635Y-73980027D01*
X146250027Y-73833635D01*
X146422165Y-73718616D01*
X146422167Y-73718615D01*
X146613436Y-73639389D01*
X146816484Y-73599000D01*
X147023516Y-73599000D01*
X147226564Y-73639389D01*
G37*
G36*
X163476564Y-73389389D02*
G01*
X163667833Y-73468615D01*
X163667835Y-73468616D01*
X163839973Y-73583635D01*
X163986365Y-73730027D01*
X164055594Y-73833635D01*
X164101385Y-73902167D01*
X164180611Y-74093436D01*
X164221000Y-74296484D01*
X164221000Y-74503516D01*
X164180611Y-74706564D01*
X164147215Y-74787189D01*
X164101384Y-74897835D01*
X163986365Y-75069973D01*
X163839973Y-75216365D01*
X163667835Y-75331384D01*
X163667834Y-75331385D01*
X163667833Y-75331385D01*
X163476564Y-75410611D01*
X163273516Y-75451000D01*
X163066484Y-75451000D01*
X162863436Y-75410611D01*
X162672167Y-75331385D01*
X162672166Y-75331385D01*
X162672165Y-75331384D01*
X162500027Y-75216365D01*
X162353635Y-75069973D01*
X162238616Y-74897835D01*
X162192785Y-74787189D01*
X162159389Y-74706564D01*
X162119000Y-74503516D01*
X162119000Y-74296484D01*
X162159389Y-74093436D01*
X162238615Y-73902167D01*
X162284407Y-73833635D01*
X162353635Y-73730027D01*
X162500027Y-73583635D01*
X162672165Y-73468616D01*
X162672167Y-73468615D01*
X162863436Y-73389389D01*
X163066484Y-73349000D01*
X163273516Y-73349000D01*
X163476564Y-73389389D01*
G37*
G36*
X156976564Y-73389389D02*
G01*
X157167833Y-73468615D01*
X157167835Y-73468616D01*
X157339973Y-73583635D01*
X157486365Y-73730027D01*
X157555594Y-73833635D01*
X157601385Y-73902167D01*
X157680611Y-74093436D01*
X157721000Y-74296484D01*
X157721000Y-74503516D01*
X157680611Y-74706564D01*
X157647215Y-74787189D01*
X157601384Y-74897835D01*
X157486365Y-75069973D01*
X157339973Y-75216365D01*
X157167835Y-75331384D01*
X157167834Y-75331385D01*
X157167833Y-75331385D01*
X156976564Y-75410611D01*
X156773516Y-75451000D01*
X156566484Y-75451000D01*
X156363436Y-75410611D01*
X156172167Y-75331385D01*
X156172166Y-75331385D01*
X156172165Y-75331384D01*
X156000027Y-75216365D01*
X155853635Y-75069973D01*
X155738616Y-74897835D01*
X155692785Y-74787189D01*
X155659389Y-74706564D01*
X155619000Y-74503516D01*
X155619000Y-74296484D01*
X155659389Y-74093436D01*
X155738615Y-73902167D01*
X155784407Y-73833635D01*
X155853635Y-73730027D01*
X156000027Y-73583635D01*
X156172165Y-73468616D01*
X156172167Y-73468615D01*
X156363436Y-73389389D01*
X156566484Y-73349000D01*
X156773516Y-73349000D01*
X156976564Y-73389389D01*
G37*
G36*
X129281564Y-72134389D02*
G01*
X129472833Y-72213615D01*
X129472835Y-72213616D01*
X129644973Y-72328635D01*
X129791365Y-72475027D01*
X129906385Y-72647167D01*
X129985611Y-72838436D01*
X130026000Y-73041484D01*
X130026000Y-73248516D01*
X129985611Y-73451564D01*
X129907811Y-73639390D01*
X129906384Y-73642835D01*
X129791365Y-73814973D01*
X129644973Y-73961365D01*
X129472835Y-74076384D01*
X129472834Y-74076385D01*
X129472833Y-74076385D01*
X129281564Y-74155611D01*
X129078516Y-74196000D01*
X128871484Y-74196000D01*
X128668436Y-74155611D01*
X128477167Y-74076385D01*
X128477166Y-74076385D01*
X128477165Y-74076384D01*
X128305027Y-73961365D01*
X128158635Y-73814973D01*
X128043616Y-73642835D01*
X128042189Y-73639390D01*
X127964389Y-73451564D01*
X127924000Y-73248516D01*
X127924000Y-73041484D01*
X127964389Y-72838436D01*
X128043615Y-72647167D01*
X128158635Y-72475027D01*
X128305027Y-72328635D01*
X128477165Y-72213616D01*
X128477167Y-72213615D01*
X128668436Y-72134389D01*
X128871484Y-72094000D01*
X129078516Y-72094000D01*
X129281564Y-72134389D01*
G37*
G36*
X122781564Y-72134389D02*
G01*
X122972833Y-72213615D01*
X122972835Y-72213616D01*
X123144973Y-72328635D01*
X123291365Y-72475027D01*
X123406385Y-72647167D01*
X123485611Y-72838436D01*
X123526000Y-73041484D01*
X123526000Y-73248516D01*
X123485611Y-73451564D01*
X123407811Y-73639390D01*
X123406384Y-73642835D01*
X123291365Y-73814973D01*
X123144973Y-73961365D01*
X122972835Y-74076384D01*
X122972834Y-74076385D01*
X122972833Y-74076385D01*
X122781564Y-74155611D01*
X122578516Y-74196000D01*
X122371484Y-74196000D01*
X122168436Y-74155611D01*
X121977167Y-74076385D01*
X121977166Y-74076385D01*
X121977165Y-74076384D01*
X121805027Y-73961365D01*
X121658635Y-73814973D01*
X121543616Y-73642835D01*
X121542189Y-73639390D01*
X121464389Y-73451564D01*
X121424000Y-73248516D01*
X121424000Y-73041484D01*
X121464389Y-72838436D01*
X121543615Y-72647167D01*
X121658635Y-72475027D01*
X121805027Y-72328635D01*
X121977165Y-72213616D01*
X121977167Y-72213615D01*
X122168436Y-72134389D01*
X122371484Y-72094000D01*
X122578516Y-72094000D01*
X122781564Y-72134389D01*
G37*
G36*
X95571000Y-71861000D02*
G01*
X93769000Y-71861000D01*
X93769000Y-70059000D01*
X95571000Y-70059000D01*
X95571000Y-71861000D01*
G37*
G36*
X87096355Y-70002140D02*
G01*
X87160118Y-70008420D01*
X87250904Y-70035960D01*
X87282836Y-70045646D01*
X87395925Y-70106094D01*
X87495054Y-70187446D01*
X87576406Y-70286575D01*
X87636854Y-70399664D01*
X87636855Y-70399668D01*
X87674080Y-70522382D01*
X87686649Y-70650000D01*
X87674080Y-70777618D01*
X87660912Y-70821027D01*
X87636854Y-70900336D01*
X87576406Y-71013425D01*
X87495054Y-71112554D01*
X87395925Y-71193906D01*
X87282836Y-71254354D01*
X87250904Y-71264040D01*
X87160118Y-71291580D01*
X87096355Y-71297860D01*
X87064474Y-71301000D01*
X86300526Y-71301000D01*
X86268645Y-71297860D01*
X86204882Y-71291580D01*
X86114096Y-71264040D01*
X86082164Y-71254354D01*
X85969075Y-71193906D01*
X85869946Y-71112554D01*
X85788594Y-71013425D01*
X85728146Y-70900336D01*
X85704088Y-70821027D01*
X85690920Y-70777618D01*
X85678351Y-70650000D01*
X85690920Y-70522382D01*
X85728145Y-70399668D01*
X85728146Y-70399664D01*
X85788594Y-70286575D01*
X85869946Y-70187446D01*
X85969075Y-70106094D01*
X86082164Y-70045646D01*
X86114096Y-70035960D01*
X86204882Y-70008420D01*
X86268645Y-70002140D01*
X86300526Y-69999000D01*
X87064474Y-69999000D01*
X87096355Y-70002140D01*
G37*
G36*
X89500317Y-68901696D02*
G01*
X89613604Y-68936062D01*
X89718011Y-68991869D01*
X89718013Y-68991870D01*
X89718012Y-68991870D01*
X89809527Y-69066973D01*
X89852923Y-69119852D01*
X89884631Y-69158488D01*
X89940438Y-69262895D01*
X89974804Y-69376182D01*
X89983500Y-69464481D01*
X89983500Y-70423519D01*
X89974804Y-70511818D01*
X89940438Y-70625105D01*
X89884631Y-70729512D01*
X89809527Y-70821027D01*
X89718012Y-70896131D01*
X89613605Y-70951938D01*
X89500318Y-70986304D01*
X89382500Y-70997907D01*
X89264683Y-70986304D01*
X89151396Y-70951938D01*
X89046989Y-70896131D01*
X88955474Y-70821027D01*
X88880370Y-70729512D01*
X88824563Y-70625105D01*
X88790197Y-70511818D01*
X88781500Y-70423518D01*
X88781500Y-69464482D01*
X88790196Y-69376183D01*
X88824562Y-69262896D01*
X88880369Y-69158489D01*
X88893838Y-69142077D01*
X88955473Y-69066973D01*
X89046987Y-68991870D01*
X89046986Y-68991870D01*
X89046988Y-68991869D01*
X89151395Y-68936062D01*
X89264682Y-68901696D01*
X89382500Y-68890093D01*
X89500317Y-68901696D01*
G37*
G36*
X163476564Y-68889389D02*
G01*
X163667833Y-68968615D01*
X163667835Y-68968616D01*
X163839973Y-69083635D01*
X163986365Y-69230027D01*
X164084025Y-69376185D01*
X164101385Y-69402167D01*
X164180611Y-69593436D01*
X164221000Y-69796484D01*
X164221000Y-70003516D01*
X164180611Y-70206564D01*
X164147469Y-70286575D01*
X164101384Y-70397835D01*
X163986365Y-70569973D01*
X163839973Y-70716365D01*
X163667835Y-70831384D01*
X163667834Y-70831385D01*
X163667833Y-70831385D01*
X163476564Y-70910611D01*
X163273516Y-70951000D01*
X163066484Y-70951000D01*
X162863436Y-70910611D01*
X162672167Y-70831385D01*
X162672166Y-70831385D01*
X162672165Y-70831384D01*
X162500027Y-70716365D01*
X162353635Y-70569973D01*
X162238616Y-70397835D01*
X162192531Y-70286575D01*
X162159389Y-70206564D01*
X162119000Y-70003516D01*
X162119000Y-69796484D01*
X162159389Y-69593436D01*
X162238615Y-69402167D01*
X162255976Y-69376185D01*
X162353635Y-69230027D01*
X162500027Y-69083635D01*
X162672165Y-68968616D01*
X162672167Y-68968615D01*
X162863436Y-68889389D01*
X163066484Y-68849000D01*
X163273516Y-68849000D01*
X163476564Y-68889389D01*
G37*
G36*
X156976564Y-68889389D02*
G01*
X157167833Y-68968615D01*
X157167835Y-68968616D01*
X157339973Y-69083635D01*
X157486365Y-69230027D01*
X157584025Y-69376185D01*
X157601385Y-69402167D01*
X157680611Y-69593436D01*
X157721000Y-69796484D01*
X157721000Y-70003516D01*
X157680611Y-70206564D01*
X157647469Y-70286575D01*
X157601384Y-70397835D01*
X157486365Y-70569973D01*
X157339973Y-70716365D01*
X157167835Y-70831384D01*
X157167834Y-70831385D01*
X157167833Y-70831385D01*
X156976564Y-70910611D01*
X156773516Y-70951000D01*
X156566484Y-70951000D01*
X156363436Y-70910611D01*
X156172167Y-70831385D01*
X156172166Y-70831385D01*
X156172165Y-70831384D01*
X156000027Y-70716365D01*
X155853635Y-70569973D01*
X155738616Y-70397835D01*
X155692531Y-70286575D01*
X155659389Y-70206564D01*
X155619000Y-70003516D01*
X155619000Y-69796484D01*
X155659389Y-69593436D01*
X155738615Y-69402167D01*
X155755976Y-69376185D01*
X155853635Y-69230027D01*
X156000027Y-69083635D01*
X156172165Y-68968616D01*
X156172167Y-68968615D01*
X156363436Y-68889389D01*
X156566484Y-68849000D01*
X156773516Y-68849000D01*
X156976564Y-68889389D01*
G37*
G36*
X99203512Y-67753927D02*
G01*
X99352812Y-67783624D01*
X99516784Y-67851544D01*
X99664354Y-67950147D01*
X99789853Y-68075646D01*
X99888456Y-68223216D01*
X99956376Y-68387188D01*
X99991000Y-68561259D01*
X99991000Y-68738741D01*
X99956376Y-68912812D01*
X99888456Y-69076784D01*
X99789853Y-69224354D01*
X99664354Y-69349853D01*
X99516784Y-69448456D01*
X99352812Y-69516376D01*
X99203512Y-69546073D01*
X99178742Y-69551000D01*
X99001258Y-69551000D01*
X98976488Y-69546073D01*
X98827188Y-69516376D01*
X98663216Y-69448456D01*
X98515646Y-69349853D01*
X98390147Y-69224354D01*
X98291544Y-69076784D01*
X98223624Y-68912812D01*
X98189000Y-68738741D01*
X98189000Y-68561259D01*
X98223624Y-68387188D01*
X98291544Y-68223216D01*
X98390147Y-68075646D01*
X98515646Y-67950147D01*
X98663216Y-67851544D01*
X98827188Y-67783624D01*
X98976488Y-67753927D01*
X99001258Y-67749000D01*
X99178742Y-67749000D01*
X99203512Y-67753927D01*
G37*
G36*
X101743512Y-67753927D02*
G01*
X101892812Y-67783624D01*
X102056784Y-67851544D01*
X102204354Y-67950147D01*
X102329853Y-68075646D01*
X102428456Y-68223216D01*
X102496376Y-68387188D01*
X102531000Y-68561259D01*
X102531000Y-68738741D01*
X102496376Y-68912812D01*
X102428456Y-69076784D01*
X102329853Y-69224354D01*
X102204354Y-69349853D01*
X102056784Y-69448456D01*
X101892812Y-69516376D01*
X101743512Y-69546073D01*
X101718742Y-69551000D01*
X101541258Y-69551000D01*
X101516488Y-69546073D01*
X101367188Y-69516376D01*
X101203216Y-69448456D01*
X101055646Y-69349853D01*
X100930147Y-69224354D01*
X100831544Y-69076784D01*
X100763624Y-68912812D01*
X100729000Y-68738741D01*
X100729000Y-68561259D01*
X100763624Y-68387188D01*
X100831544Y-68223216D01*
X100930147Y-68075646D01*
X101055646Y-67950147D01*
X101203216Y-67851544D01*
X101367188Y-67783624D01*
X101516488Y-67753927D01*
X101541258Y-67749000D01*
X101718742Y-67749000D01*
X101743512Y-67753927D01*
G37*
G36*
X105071000Y-69551000D02*
G01*
X103269000Y-69551000D01*
X103269000Y-67749000D01*
X105071000Y-67749000D01*
X105071000Y-69551000D01*
G37*
G36*
X94783512Y-67523927D02*
G01*
X94932812Y-67553624D01*
X95096784Y-67621544D01*
X95244354Y-67720147D01*
X95369853Y-67845646D01*
X95468456Y-67993216D01*
X95536376Y-68157188D01*
X95571000Y-68331259D01*
X95571000Y-68508741D01*
X95536376Y-68682812D01*
X95468456Y-68846784D01*
X95369853Y-68994354D01*
X95244354Y-69119853D01*
X95096784Y-69218456D01*
X94932812Y-69286376D01*
X94783512Y-69316073D01*
X94758742Y-69321000D01*
X94581258Y-69321000D01*
X94556488Y-69316073D01*
X94407188Y-69286376D01*
X94243216Y-69218456D01*
X94095646Y-69119853D01*
X93970147Y-68994354D01*
X93871544Y-68846784D01*
X93803624Y-68682812D01*
X93769000Y-68508741D01*
X93769000Y-68331259D01*
X93803624Y-68157188D01*
X93871544Y-67993216D01*
X93970147Y-67845646D01*
X94095646Y-67720147D01*
X94243216Y-67621544D01*
X94407188Y-67553624D01*
X94556488Y-67523927D01*
X94581258Y-67519000D01*
X94758742Y-67519000D01*
X94783512Y-67523927D01*
G37*
G36*
X149755040Y-65117825D02*
G01*
X150000280Y-65192218D01*
X150226294Y-65313025D01*
X150277899Y-65355376D01*
X150424397Y-65475603D01*
X150544624Y-65622101D01*
X150586975Y-65673706D01*
X150707782Y-65899720D01*
X150750961Y-66042062D01*
X150782175Y-66144961D01*
X150793948Y-66264489D01*
X150801000Y-66336095D01*
X150801000Y-67963905D01*
X150782175Y-68155040D01*
X150728720Y-68331258D01*
X150707781Y-68400282D01*
X150586976Y-68626293D01*
X150540592Y-68682812D01*
X150424396Y-68824396D01*
X150226293Y-68986975D01*
X150000279Y-69107782D01*
X149755039Y-69182175D01*
X149500000Y-69207294D01*
X149244960Y-69182175D01*
X148999720Y-69107782D01*
X148941723Y-69076782D01*
X148773707Y-68986976D01*
X148575604Y-68824396D01*
X148459409Y-68682812D01*
X148413025Y-68626293D01*
X148292218Y-68400279D01*
X148217825Y-68155039D01*
X148199000Y-67963904D01*
X148199000Y-66336095D01*
X148201887Y-66306782D01*
X148217825Y-66144958D01*
X148292218Y-65899721D01*
X148413025Y-65673708D01*
X148413026Y-65673706D01*
X148455377Y-65622101D01*
X148575604Y-65475603D01*
X148722102Y-65355376D01*
X148773707Y-65313025D01*
X148999721Y-65192218D01*
X149244961Y-65117825D01*
X149500000Y-65092706D01*
X149755040Y-65117825D01*
G37*
G36*
X139595039Y-65117825D02*
G01*
X139840279Y-65192218D01*
X140066293Y-65313025D01*
X140264395Y-65475603D01*
X140264396Y-65475604D01*
X140426976Y-65673707D01*
X140547781Y-65899718D01*
X140547782Y-65899720D01*
X140590961Y-66042062D01*
X140622175Y-66144961D01*
X140633948Y-66264489D01*
X140641000Y-66336095D01*
X140641000Y-67963905D01*
X140622175Y-68155040D01*
X140547782Y-68400280D01*
X140426975Y-68626294D01*
X140384624Y-68677899D01*
X140264397Y-68824397D01*
X140128331Y-68936062D01*
X140066294Y-68986975D01*
X139840280Y-69107782D01*
X139595040Y-69182175D01*
X139340000Y-69207294D01*
X139084961Y-69182175D01*
X138839721Y-69107782D01*
X138613707Y-68986975D01*
X138551670Y-68936062D01*
X138415604Y-68824397D01*
X138295377Y-68677899D01*
X138253026Y-68626294D01*
X138218264Y-68561259D01*
X138132218Y-68400279D01*
X138057825Y-68155042D01*
X138039000Y-67963906D01*
X138039000Y-66336095D01*
X138057825Y-66144962D01*
X138057825Y-66144961D01*
X138132218Y-65899721D01*
X138253025Y-65673707D01*
X138415604Y-65475604D01*
X138442884Y-65453216D01*
X138613707Y-65313024D01*
X138839718Y-65192219D01*
X138839720Y-65192218D01*
X139084960Y-65117825D01*
X139340000Y-65092706D01*
X139595039Y-65117825D01*
G37*
G36*
X87468317Y-66007696D02*
G01*
X87581604Y-66042062D01*
X87686011Y-66097869D01*
X87686013Y-66097870D01*
X87686012Y-66097870D01*
X87777527Y-66172973D01*
X87841211Y-66250572D01*
X87852631Y-66264488D01*
X87908438Y-66368895D01*
X87942804Y-66482182D01*
X87951500Y-66570481D01*
X87951500Y-67729519D01*
X87942804Y-67817818D01*
X87908438Y-67931105D01*
X87852631Y-68035512D01*
X87777527Y-68127027D01*
X87686012Y-68202131D01*
X87581605Y-68257938D01*
X87468318Y-68292304D01*
X87350500Y-68303907D01*
X87232683Y-68292304D01*
X87119396Y-68257938D01*
X87014989Y-68202131D01*
X86923474Y-68127027D01*
X86848370Y-68035512D01*
X86792563Y-67931105D01*
X86758197Y-67817818D01*
X86749501Y-67729519D01*
X86749500Y-66570482D01*
X86758196Y-66482183D01*
X86792562Y-66368896D01*
X86848369Y-66264489D01*
X86861838Y-66248077D01*
X86923473Y-66172973D01*
X87014987Y-66097870D01*
X87014986Y-66097870D01*
X87014988Y-66097869D01*
X87119395Y-66042062D01*
X87232682Y-66007696D01*
X87350500Y-65996093D01*
X87468317Y-66007696D01*
G37*
G36*
X94783512Y-64983927D02*
G01*
X94932812Y-65013624D01*
X95096784Y-65081544D01*
X95244354Y-65180147D01*
X95369853Y-65305646D01*
X95468456Y-65453216D01*
X95536376Y-65617188D01*
X95571000Y-65791259D01*
X95571000Y-65968741D01*
X95536376Y-66142812D01*
X95468456Y-66306784D01*
X95369853Y-66454354D01*
X95244354Y-66579853D01*
X95096784Y-66678456D01*
X94932812Y-66746376D01*
X94783512Y-66776073D01*
X94758742Y-66781000D01*
X94581258Y-66781000D01*
X94556488Y-66776073D01*
X94407188Y-66746376D01*
X94243216Y-66678456D01*
X94095646Y-66579853D01*
X93970147Y-66454354D01*
X93871544Y-66306784D01*
X93803624Y-66142812D01*
X93769000Y-65968741D01*
X93769000Y-65791259D01*
X93803624Y-65617188D01*
X93871544Y-65453216D01*
X93970147Y-65305646D01*
X94095646Y-65180147D01*
X94243216Y-65081544D01*
X94407188Y-65013624D01*
X94556488Y-64983927D01*
X94581258Y-64979000D01*
X94758742Y-64979000D01*
X94783512Y-64983927D01*
G37*
G36*
X89500317Y-63313696D02*
G01*
X89613604Y-63348062D01*
X89718011Y-63403869D01*
X89718013Y-63403870D01*
X89718012Y-63403870D01*
X89809527Y-63478973D01*
X89845153Y-63522384D01*
X89884631Y-63570488D01*
X89940438Y-63674895D01*
X89974804Y-63788182D01*
X89983500Y-63876481D01*
X89983500Y-64835519D01*
X89974804Y-64923818D01*
X89940438Y-65037105D01*
X89884631Y-65141512D01*
X89809527Y-65233027D01*
X89718012Y-65308131D01*
X89613605Y-65363938D01*
X89500318Y-65398304D01*
X89382500Y-65409907D01*
X89264683Y-65398304D01*
X89151396Y-65363938D01*
X89046989Y-65308131D01*
X88955474Y-65233027D01*
X88880370Y-65141512D01*
X88824563Y-65037105D01*
X88790197Y-64923818D01*
X88781500Y-64835518D01*
X88781500Y-63876482D01*
X88790196Y-63788183D01*
X88824562Y-63674896D01*
X88880369Y-63570489D01*
X88893838Y-63554077D01*
X88955473Y-63478973D01*
X89046987Y-63403870D01*
X89046986Y-63403870D01*
X89046988Y-63403869D01*
X89151395Y-63348062D01*
X89264682Y-63313696D01*
X89382500Y-63302093D01*
X89500317Y-63313696D01*
G37*
G36*
X87096355Y-63002140D02*
G01*
X87160118Y-63008420D01*
X87250904Y-63035960D01*
X87282836Y-63045646D01*
X87395925Y-63106094D01*
X87495054Y-63187446D01*
X87576406Y-63286575D01*
X87636854Y-63399664D01*
X87638130Y-63403870D01*
X87674080Y-63522382D01*
X87686649Y-63650000D01*
X87674080Y-63777618D01*
X87646540Y-63868404D01*
X87636854Y-63900336D01*
X87576406Y-64013425D01*
X87495054Y-64112554D01*
X87395925Y-64193906D01*
X87282836Y-64254354D01*
X87250904Y-64264040D01*
X87160118Y-64291580D01*
X87096355Y-64297860D01*
X87064474Y-64301000D01*
X86300526Y-64301000D01*
X86268645Y-64297860D01*
X86204882Y-64291580D01*
X86114096Y-64264040D01*
X86082164Y-64254354D01*
X85969075Y-64193906D01*
X85869946Y-64112554D01*
X85788594Y-64013425D01*
X85728146Y-63900336D01*
X85718460Y-63868404D01*
X85690920Y-63777618D01*
X85678351Y-63650000D01*
X85690920Y-63522382D01*
X85726870Y-63403870D01*
X85728146Y-63399664D01*
X85788594Y-63286575D01*
X85869946Y-63187446D01*
X85969075Y-63106094D01*
X86082164Y-63045646D01*
X86114096Y-63035960D01*
X86204882Y-63008420D01*
X86268645Y-63002140D01*
X86300526Y-62999000D01*
X87064474Y-62999000D01*
X87096355Y-63002140D01*
G37*
G36*
X158271000Y-64301000D02*
G01*
X156669000Y-64301000D01*
X156669000Y-63199000D01*
X158271000Y-63199000D01*
X158271000Y-64301000D01*
G37*
G36*
X163171000Y-64301000D02*
G01*
X161569000Y-64301000D01*
X161569000Y-63199000D01*
X163171000Y-63199000D01*
X163171000Y-64301000D01*
G37*
G36*
X94783512Y-62443927D02*
G01*
X94932812Y-62473624D01*
X95096784Y-62541544D01*
X95244354Y-62640147D01*
X95369853Y-62765646D01*
X95468456Y-62913216D01*
X95536376Y-63077188D01*
X95571000Y-63251259D01*
X95571000Y-63428741D01*
X95536376Y-63602812D01*
X95468456Y-63766784D01*
X95369853Y-63914354D01*
X95244354Y-64039853D01*
X95096784Y-64138456D01*
X94932812Y-64206376D01*
X94783512Y-64236073D01*
X94758742Y-64241000D01*
X94581258Y-64241000D01*
X94556488Y-64236073D01*
X94407188Y-64206376D01*
X94243216Y-64138456D01*
X94095646Y-64039853D01*
X93970147Y-63914354D01*
X93871544Y-63766784D01*
X93803624Y-63602812D01*
X93769000Y-63428741D01*
X93769000Y-63251259D01*
X93803624Y-63077188D01*
X93871544Y-62913216D01*
X93970147Y-62765646D01*
X94095646Y-62640147D01*
X94243216Y-62541544D01*
X94407188Y-62473624D01*
X94556488Y-62443927D01*
X94581258Y-62439000D01*
X94758742Y-62439000D01*
X94783512Y-62443927D01*
G37*
G36*
X154016000Y-61346000D02*
G01*
X152214000Y-61346000D01*
X152214000Y-59544000D01*
X154016000Y-59544000D01*
X154016000Y-61346000D01*
G37*
G36*
X150688512Y-59548927D02*
G01*
X150837812Y-59578624D01*
X151001784Y-59646544D01*
X151149354Y-59745147D01*
X151274853Y-59870646D01*
X151373456Y-60018216D01*
X151441376Y-60182188D01*
X151476000Y-60356259D01*
X151476000Y-60533741D01*
X151441376Y-60707812D01*
X151373456Y-60871784D01*
X151274853Y-61019354D01*
X151149354Y-61144853D01*
X151001784Y-61243456D01*
X150837812Y-61311376D01*
X150688512Y-61341073D01*
X150663742Y-61346000D01*
X150486258Y-61346000D01*
X150461488Y-61341073D01*
X150312188Y-61311376D01*
X150148216Y-61243456D01*
X150000646Y-61144853D01*
X149875147Y-61019354D01*
X149776544Y-60871784D01*
X149708624Y-60707812D01*
X149674000Y-60533741D01*
X149674000Y-60356259D01*
X149708624Y-60182188D01*
X149776544Y-60018216D01*
X149875147Y-59870646D01*
X150000646Y-59745147D01*
X150148216Y-59646544D01*
X150312188Y-59578624D01*
X150461488Y-59548927D01*
X150486258Y-59544000D01*
X150663742Y-59544000D01*
X150688512Y-59548927D01*
G37*
G36*
X142226564Y-59139389D02*
G01*
X142417833Y-59218615D01*
X142417835Y-59218616D01*
X142589973Y-59333635D01*
X142736365Y-59480027D01*
X142851385Y-59652167D01*
X142930611Y-59843436D01*
X142971000Y-60046484D01*
X142971000Y-60253516D01*
X142930611Y-60456564D01*
X142851385Y-60647833D01*
X142851384Y-60647835D01*
X142736365Y-60819973D01*
X142589973Y-60966365D01*
X142417835Y-61081384D01*
X142417834Y-61081385D01*
X142417833Y-61081385D01*
X142226564Y-61160611D01*
X142023516Y-61201000D01*
X141816484Y-61201000D01*
X141613436Y-61160611D01*
X141422167Y-61081385D01*
X141422166Y-61081385D01*
X141422165Y-61081384D01*
X141250027Y-60966365D01*
X141103635Y-60819973D01*
X140988616Y-60647835D01*
X140988615Y-60647833D01*
X140909389Y-60456564D01*
X140869000Y-60253516D01*
X140869000Y-60046484D01*
X140909389Y-59843436D01*
X140988615Y-59652167D01*
X141103635Y-59480027D01*
X141250027Y-59333635D01*
X141422165Y-59218616D01*
X141422167Y-59218615D01*
X141613436Y-59139389D01*
X141816484Y-59099000D01*
X142023516Y-59099000D01*
X142226564Y-59139389D01*
G37*
G36*
X147226564Y-59139389D02*
G01*
X147417833Y-59218615D01*
X147417835Y-59218616D01*
X147589973Y-59333635D01*
X147736365Y-59480027D01*
X147851385Y-59652167D01*
X147930611Y-59843436D01*
X147971000Y-60046484D01*
X147971000Y-60253516D01*
X147930611Y-60456564D01*
X147851385Y-60647833D01*
X147851384Y-60647835D01*
X147736365Y-60819973D01*
X147589973Y-60966365D01*
X147417835Y-61081384D01*
X147417834Y-61081385D01*
X147417833Y-61081385D01*
X147226564Y-61160611D01*
X147023516Y-61201000D01*
X146816484Y-61201000D01*
X146613436Y-61160611D01*
X146422167Y-61081385D01*
X146422166Y-61081385D01*
X146422165Y-61081384D01*
X146250027Y-60966365D01*
X146103635Y-60819973D01*
X145988616Y-60647835D01*
X145988615Y-60647833D01*
X145909389Y-60456564D01*
X145869000Y-60253516D01*
X145869000Y-60046484D01*
X145909389Y-59843436D01*
X145988615Y-59652167D01*
X146103635Y-59480027D01*
X146250027Y-59333635D01*
X146422165Y-59218616D01*
X146422167Y-59218615D01*
X146613436Y-59139389D01*
X146816484Y-59099000D01*
X147023516Y-59099000D01*
X147226564Y-59139389D01*
G37*
G36*
X163171000Y-61101000D02*
G01*
X161569000Y-61101000D01*
X161569000Y-59999000D01*
X163171000Y-59999000D01*
X163171000Y-61101000D01*
G37*
G36*
X158271000Y-61101000D02*
G01*
X156669000Y-61101000D01*
X156669000Y-59999000D01*
X158271000Y-59999000D01*
X158271000Y-61101000D01*
G37*
G36*
X89545256Y-54041298D02*
G01*
X89651579Y-54062447D01*
X89952042Y-54186903D01*
X90222451Y-54367585D01*
X90452415Y-54597549D01*
X90633097Y-54867958D01*
X90757553Y-55168421D01*
X90821000Y-55487391D01*
X90821000Y-55812609D01*
X90757553Y-56131579D01*
X90633097Y-56432042D01*
X90452415Y-56702451D01*
X90222451Y-56932415D01*
X89952042Y-57113097D01*
X89651579Y-57237553D01*
X89545256Y-57258702D01*
X89332611Y-57301000D01*
X89007389Y-57301000D01*
X88794744Y-57258702D01*
X88688421Y-57237553D01*
X88387958Y-57113097D01*
X88117549Y-56932415D01*
X87887585Y-56702451D01*
X87706903Y-56432042D01*
X87582447Y-56131579D01*
X87519000Y-55812609D01*
X87519000Y-55487391D01*
X87582447Y-55168421D01*
X87706903Y-54867958D01*
X87887585Y-54597549D01*
X88117549Y-54367585D01*
X88387958Y-54186903D01*
X88688421Y-54062447D01*
X88794744Y-54041298D01*
X89007389Y-53999000D01*
X89332611Y-53999000D01*
X89545256Y-54041298D01*
G37*
G36*
X161545256Y-54041298D02*
G01*
X161651579Y-54062447D01*
X161952042Y-54186903D01*
X162222451Y-54367585D01*
X162452415Y-54597549D01*
X162633097Y-54867958D01*
X162757553Y-55168421D01*
X162821000Y-55487391D01*
X162821000Y-55812609D01*
X162757553Y-56131579D01*
X162633097Y-56432042D01*
X162452415Y-56702451D01*
X162222451Y-56932415D01*
X161952042Y-57113097D01*
X161651579Y-57237553D01*
X161545256Y-57258702D01*
X161332611Y-57301000D01*
X161007389Y-57301000D01*
X160794744Y-57258702D01*
X160688421Y-57237553D01*
X160387958Y-57113097D01*
X160117549Y-56932415D01*
X159887585Y-56702451D01*
X159706903Y-56432042D01*
X159582447Y-56131579D01*
X159519000Y-55812609D01*
X159519000Y-55487391D01*
X159582447Y-55168421D01*
X159706903Y-54867958D01*
X159887585Y-54597549D01*
X160117549Y-54367585D01*
X160387958Y-54186903D01*
X160688421Y-54062447D01*
X160794744Y-54041298D01*
X161007389Y-53999000D01*
X161332611Y-53999000D01*
X161545256Y-54041298D01*
G37*
G36*
X126551000Y-56266000D02*
G01*
X124749000Y-56266000D01*
X124749000Y-54464000D01*
X126551000Y-54464000D01*
X126551000Y-56266000D01*
G37*
G36*
X123223512Y-54468927D02*
G01*
X123372812Y-54498624D01*
X123536784Y-54566544D01*
X123684354Y-54665147D01*
X123809853Y-54790646D01*
X123908456Y-54938216D01*
X123976376Y-55102188D01*
X124011000Y-55276259D01*
X124011000Y-55453741D01*
X123976376Y-55627812D01*
X123908456Y-55791784D01*
X123809853Y-55939354D01*
X123684354Y-56064853D01*
X123536784Y-56163456D01*
X123372812Y-56231376D01*
X123223512Y-56261073D01*
X123198742Y-56266000D01*
X123021258Y-56266000D01*
X122996488Y-56261073D01*
X122847188Y-56231376D01*
X122683216Y-56163456D01*
X122535646Y-56064853D01*
X122410147Y-55939354D01*
X122311544Y-55791784D01*
X122243624Y-55627812D01*
X122209000Y-55453741D01*
X122209000Y-55276259D01*
X122243624Y-55102188D01*
X122311544Y-54938216D01*
X122410147Y-54790646D01*
X122535646Y-54665147D01*
X122683216Y-54566544D01*
X122847188Y-54498624D01*
X122996488Y-54468927D01*
X123021258Y-54464000D01*
X123198742Y-54464000D01*
X123223512Y-54468927D01*
G37*
G36*
X117517142Y-52068242D02*
G01*
X117665101Y-52129529D01*
X117798255Y-52218499D01*
X117911501Y-52331745D01*
X118000471Y-52464899D01*
X118061758Y-52612858D01*
X118093000Y-52769925D01*
X118093000Y-52930075D01*
X118061758Y-53087142D01*
X118000471Y-53235101D01*
X117911501Y-53368255D01*
X117798255Y-53481501D01*
X117665101Y-53570471D01*
X117517142Y-53631758D01*
X117360075Y-53663000D01*
X117199925Y-53663000D01*
X117042858Y-53631758D01*
X116894899Y-53570471D01*
X116761745Y-53481501D01*
X116648499Y-53368255D01*
X116559529Y-53235101D01*
X116498242Y-53087142D01*
X116467000Y-52930075D01*
X116467000Y-52769925D01*
X116498242Y-52612858D01*
X116559529Y-52464899D01*
X116648499Y-52331745D01*
X116761745Y-52218499D01*
X116894899Y-52129529D01*
X117042858Y-52068242D01*
X117199925Y-52037000D01*
X117360075Y-52037000D01*
X117517142Y-52068242D01*
G37*
G36*
X114977142Y-52068242D02*
G01*
X115125101Y-52129529D01*
X115258255Y-52218499D01*
X115371501Y-52331745D01*
X115460471Y-52464899D01*
X115521758Y-52612858D01*
X115553000Y-52769925D01*
X115553000Y-52930075D01*
X115521758Y-53087142D01*
X115460471Y-53235101D01*
X115371501Y-53368255D01*
X115258255Y-53481501D01*
X115125101Y-53570471D01*
X114977142Y-53631758D01*
X114820075Y-53663000D01*
X114659925Y-53663000D01*
X114502858Y-53631758D01*
X114354899Y-53570471D01*
X114221745Y-53481501D01*
X114108499Y-53368255D01*
X114019529Y-53235101D01*
X113958242Y-53087142D01*
X113927000Y-52930075D01*
X113927000Y-52769925D01*
X113958242Y-52612858D01*
X114019529Y-52464899D01*
X114108499Y-52331745D01*
X114221745Y-52218499D01*
X114354899Y-52129529D01*
X114502858Y-52068242D01*
X114659925Y-52037000D01*
X114820075Y-52037000D01*
X114977142Y-52068242D01*
G37*
G36*
X112437142Y-52068242D02*
G01*
X112585101Y-52129529D01*
X112718255Y-52218499D01*
X112831501Y-52331745D01*
X112920471Y-52464899D01*
X112981758Y-52612858D01*
X113013000Y-52769925D01*
X113013000Y-52930075D01*
X112981758Y-53087142D01*
X112920471Y-53235101D01*
X112831501Y-53368255D01*
X112718255Y-53481501D01*
X112585101Y-53570471D01*
X112437142Y-53631758D01*
X112280075Y-53663000D01*
X112119925Y-53663000D01*
X111962858Y-53631758D01*
X111814899Y-53570471D01*
X111681745Y-53481501D01*
X111568499Y-53368255D01*
X111479529Y-53235101D01*
X111418242Y-53087142D01*
X111387000Y-52930075D01*
X111387000Y-52769925D01*
X111418242Y-52612858D01*
X111479529Y-52464899D01*
X111568499Y-52331745D01*
X111681745Y-52218499D01*
X111814899Y-52129529D01*
X111962858Y-52068242D01*
X112119925Y-52037000D01*
X112280075Y-52037000D01*
X112437142Y-52068242D01*
G37*
G36*
X109897142Y-52068242D02*
G01*
X110045101Y-52129529D01*
X110178255Y-52218499D01*
X110291501Y-52331745D01*
X110380471Y-52464899D01*
X110441758Y-52612858D01*
X110473000Y-52769925D01*
X110473000Y-52930075D01*
X110441758Y-53087142D01*
X110380471Y-53235101D01*
X110291501Y-53368255D01*
X110178255Y-53481501D01*
X110045101Y-53570471D01*
X109897142Y-53631758D01*
X109740075Y-53663000D01*
X109579925Y-53663000D01*
X109422858Y-53631758D01*
X109274899Y-53570471D01*
X109141745Y-53481501D01*
X109028499Y-53368255D01*
X108939529Y-53235101D01*
X108878242Y-53087142D01*
X108847000Y-52930075D01*
X108847000Y-52769925D01*
X108878242Y-52612858D01*
X108939529Y-52464899D01*
X109028499Y-52331745D01*
X109141745Y-52218499D01*
X109274899Y-52129529D01*
X109422858Y-52068242D01*
X109579925Y-52037000D01*
X109740075Y-52037000D01*
X109897142Y-52068242D01*
G37*
M02*
