G04 #@! TF.GenerationSoftware,KiCad,Pcbnew,(5.1.5)-3*
G04 #@! TF.CreationDate,2020-12-14T20:28:06-05:00*
G04 #@! TF.ProjectId,V0_Display,56305f44-6973-4706-9c61-792e6b696361,rev?*
G04 #@! TF.SameCoordinates,Original*
G04 #@! TF.FileFunction,Legend,Top*
G04 #@! TF.FilePolarity,Positive*
%FSLAX46Y46*%
G04 Gerber Fmt 4.6, Leading zero omitted, Abs format (unit mm)*
G04 Created by KiCad (PCBNEW (5.1.5)-3) date 2020-12-14 20:28:06*
%MOMM*%
%LPD*%
G04 APERTURE LIST*
%ADD10C,0.250000*%
%ADD11C,0.075000*%
%ADD12C,0.150000*%
%ADD13C,0.100000*%
%ADD14C,0.120000*%
G04 APERTURE END LIST*
D10*
X106803333Y-55662142D02*
X106755714Y-55709761D01*
X106612857Y-55757380D01*
X106517619Y-55757380D01*
X106374761Y-55709761D01*
X106279523Y-55614523D01*
X106231904Y-55519285D01*
X106184285Y-55328809D01*
X106184285Y-55185952D01*
X106231904Y-54995476D01*
X106279523Y-54900238D01*
X106374761Y-54805000D01*
X106517619Y-54757380D01*
X106612857Y-54757380D01*
X106755714Y-54805000D01*
X106803333Y-54852619D01*
X107231904Y-55757380D02*
X107231904Y-54757380D01*
X107660476Y-55757380D02*
X107660476Y-55233571D01*
X107612857Y-55138333D01*
X107517619Y-55090714D01*
X107374761Y-55090714D01*
X107279523Y-55138333D01*
X107231904Y-55185952D01*
X108517619Y-55709761D02*
X108422380Y-55757380D01*
X108231904Y-55757380D01*
X108136666Y-55709761D01*
X108089047Y-55614523D01*
X108089047Y-55233571D01*
X108136666Y-55138333D01*
X108231904Y-55090714D01*
X108422380Y-55090714D01*
X108517619Y-55138333D01*
X108565238Y-55233571D01*
X108565238Y-55328809D01*
X108089047Y-55424047D01*
X109422380Y-55709761D02*
X109327142Y-55757380D01*
X109136666Y-55757380D01*
X109041428Y-55709761D01*
X108993809Y-55662142D01*
X108946190Y-55566904D01*
X108946190Y-55281190D01*
X108993809Y-55185952D01*
X109041428Y-55138333D01*
X109136666Y-55090714D01*
X109327142Y-55090714D01*
X109422380Y-55138333D01*
X109850952Y-55757380D02*
X109850952Y-54757380D01*
X109946190Y-55376428D02*
X110231904Y-55757380D01*
X110231904Y-55090714D02*
X109850952Y-55471666D01*
X111279523Y-55090714D02*
X111660476Y-55090714D01*
X111422380Y-54757380D02*
X111422380Y-55614523D01*
X111470000Y-55709761D01*
X111565238Y-55757380D01*
X111660476Y-55757380D01*
X111993809Y-55757380D02*
X111993809Y-54757380D01*
X112422380Y-55757380D02*
X112422380Y-55233571D01*
X112374761Y-55138333D01*
X112279523Y-55090714D01*
X112136666Y-55090714D01*
X112041428Y-55138333D01*
X111993809Y-55185952D01*
X113279523Y-55709761D02*
X113184285Y-55757380D01*
X112993809Y-55757380D01*
X112898571Y-55709761D01*
X112850952Y-55614523D01*
X112850952Y-55233571D01*
X112898571Y-55138333D01*
X112993809Y-55090714D01*
X113184285Y-55090714D01*
X113279523Y-55138333D01*
X113327142Y-55233571D01*
X113327142Y-55328809D01*
X112850952Y-55424047D01*
X114517619Y-55090714D02*
X114517619Y-55947857D01*
X114470000Y-56043095D01*
X114374761Y-56090714D01*
X114327142Y-56090714D01*
X114517619Y-54757380D02*
X114470000Y-54805000D01*
X114517619Y-54852619D01*
X114565238Y-54805000D01*
X114517619Y-54757380D01*
X114517619Y-54852619D01*
X115422380Y-55090714D02*
X115422380Y-55757380D01*
X114993809Y-55090714D02*
X114993809Y-55614523D01*
X115041428Y-55709761D01*
X115136666Y-55757380D01*
X115279523Y-55757380D01*
X115374761Y-55709761D01*
X115422380Y-55662142D01*
X115898571Y-55757380D02*
X115898571Y-55090714D01*
X115898571Y-55185952D02*
X115946190Y-55138333D01*
X116041428Y-55090714D01*
X116184285Y-55090714D01*
X116279523Y-55138333D01*
X116327142Y-55233571D01*
X116327142Y-55757380D01*
X116327142Y-55233571D02*
X116374761Y-55138333D01*
X116470000Y-55090714D01*
X116612857Y-55090714D01*
X116708095Y-55138333D01*
X116755714Y-55233571D01*
X116755714Y-55757380D01*
X117231904Y-55090714D02*
X117231904Y-56090714D01*
X117231904Y-55138333D02*
X117327142Y-55090714D01*
X117517619Y-55090714D01*
X117612857Y-55138333D01*
X117660476Y-55185952D01*
X117708095Y-55281190D01*
X117708095Y-55566904D01*
X117660476Y-55662142D01*
X117612857Y-55709761D01*
X117517619Y-55757380D01*
X117327142Y-55757380D01*
X117231904Y-55709761D01*
X118517619Y-55709761D02*
X118422380Y-55757380D01*
X118231904Y-55757380D01*
X118136666Y-55709761D01*
X118089047Y-55614523D01*
X118089047Y-55233571D01*
X118136666Y-55138333D01*
X118231904Y-55090714D01*
X118422380Y-55090714D01*
X118517619Y-55138333D01*
X118565238Y-55233571D01*
X118565238Y-55328809D01*
X118089047Y-55424047D01*
X118993809Y-55757380D02*
X118993809Y-55090714D01*
X118993809Y-55281190D02*
X119041428Y-55185952D01*
X119089047Y-55138333D01*
X119184285Y-55090714D01*
X119279523Y-55090714D01*
X119565238Y-55709761D02*
X119660476Y-55757380D01*
X119850952Y-55757380D01*
X119946190Y-55709761D01*
X119993809Y-55614523D01*
X119993809Y-55566904D01*
X119946190Y-55471666D01*
X119850952Y-55424047D01*
X119708095Y-55424047D01*
X119612857Y-55376428D01*
X119565238Y-55281190D01*
X119565238Y-55233571D01*
X119612857Y-55138333D01*
X119708095Y-55090714D01*
X119850952Y-55090714D01*
X119946190Y-55138333D01*
X105446190Y-57507380D02*
X105350952Y-57459761D01*
X105303333Y-57412142D01*
X105255714Y-57316904D01*
X105255714Y-57031190D01*
X105303333Y-56935952D01*
X105350952Y-56888333D01*
X105446190Y-56840714D01*
X105589047Y-56840714D01*
X105684285Y-56888333D01*
X105731904Y-56935952D01*
X105779523Y-57031190D01*
X105779523Y-57316904D01*
X105731904Y-57412142D01*
X105684285Y-57459761D01*
X105589047Y-57507380D01*
X105446190Y-57507380D01*
X106208095Y-56840714D02*
X106208095Y-57507380D01*
X106208095Y-56935952D02*
X106255714Y-56888333D01*
X106350952Y-56840714D01*
X106493809Y-56840714D01*
X106589047Y-56888333D01*
X106636666Y-56983571D01*
X106636666Y-57507380D01*
X107731904Y-56840714D02*
X108112857Y-56840714D01*
X107874761Y-56507380D02*
X107874761Y-57364523D01*
X107922380Y-57459761D01*
X108017619Y-57507380D01*
X108112857Y-57507380D01*
X108446190Y-57507380D02*
X108446190Y-56507380D01*
X108874761Y-57507380D02*
X108874761Y-56983571D01*
X108827142Y-56888333D01*
X108731904Y-56840714D01*
X108589047Y-56840714D01*
X108493809Y-56888333D01*
X108446190Y-56935952D01*
X109731904Y-57459761D02*
X109636666Y-57507380D01*
X109446190Y-57507380D01*
X109350952Y-57459761D01*
X109303333Y-57364523D01*
X109303333Y-56983571D01*
X109350952Y-56888333D01*
X109446190Y-56840714D01*
X109636666Y-56840714D01*
X109731904Y-56888333D01*
X109779523Y-56983571D01*
X109779523Y-57078809D01*
X109303333Y-57174047D01*
X110970000Y-57507380D02*
X110970000Y-56507380D01*
X110970000Y-56888333D02*
X111065238Y-56840714D01*
X111255714Y-56840714D01*
X111350952Y-56888333D01*
X111398571Y-56935952D01*
X111446190Y-57031190D01*
X111446190Y-57316904D01*
X111398571Y-57412142D01*
X111350952Y-57459761D01*
X111255714Y-57507380D01*
X111065238Y-57507380D01*
X110970000Y-57459761D01*
X112303333Y-57507380D02*
X112303333Y-56983571D01*
X112255714Y-56888333D01*
X112160476Y-56840714D01*
X111970000Y-56840714D01*
X111874761Y-56888333D01*
X112303333Y-57459761D02*
X112208095Y-57507380D01*
X111970000Y-57507380D01*
X111874761Y-57459761D01*
X111827142Y-57364523D01*
X111827142Y-57269285D01*
X111874761Y-57174047D01*
X111970000Y-57126428D01*
X112208095Y-57126428D01*
X112303333Y-57078809D01*
X113208095Y-57459761D02*
X113112857Y-57507380D01*
X112922380Y-57507380D01*
X112827142Y-57459761D01*
X112779523Y-57412142D01*
X112731904Y-57316904D01*
X112731904Y-57031190D01*
X112779523Y-56935952D01*
X112827142Y-56888333D01*
X112922380Y-56840714D01*
X113112857Y-56840714D01*
X113208095Y-56888333D01*
X113636666Y-57507380D02*
X113636666Y-56507380D01*
X113731904Y-57126428D02*
X114017619Y-57507380D01*
X114017619Y-56840714D02*
X113636666Y-57221666D01*
X115065238Y-56840714D02*
X115446190Y-56840714D01*
X115208095Y-56507380D02*
X115208095Y-57364523D01*
X115255714Y-57459761D01*
X115350952Y-57507380D01*
X115446190Y-57507380D01*
X115922380Y-57507380D02*
X115827142Y-57459761D01*
X115779523Y-57412142D01*
X115731904Y-57316904D01*
X115731904Y-57031190D01*
X115779523Y-56935952D01*
X115827142Y-56888333D01*
X115922380Y-56840714D01*
X116065238Y-56840714D01*
X116160476Y-56888333D01*
X116208095Y-56935952D01*
X116255714Y-57031190D01*
X116255714Y-57316904D01*
X116208095Y-57412142D01*
X116160476Y-57459761D01*
X116065238Y-57507380D01*
X115922380Y-57507380D01*
X117446190Y-57507380D02*
X117446190Y-56840714D01*
X117446190Y-56935952D02*
X117493809Y-56888333D01*
X117589047Y-56840714D01*
X117731904Y-56840714D01*
X117827142Y-56888333D01*
X117874761Y-56983571D01*
X117874761Y-57507380D01*
X117874761Y-56983571D02*
X117922380Y-56888333D01*
X118017619Y-56840714D01*
X118160476Y-56840714D01*
X118255714Y-56888333D01*
X118303333Y-56983571D01*
X118303333Y-57507380D01*
X119208095Y-57507380D02*
X119208095Y-56983571D01*
X119160476Y-56888333D01*
X119065238Y-56840714D01*
X118874761Y-56840714D01*
X118779523Y-56888333D01*
X119208095Y-57459761D02*
X119112857Y-57507380D01*
X118874761Y-57507380D01*
X118779523Y-57459761D01*
X118731904Y-57364523D01*
X118731904Y-57269285D01*
X118779523Y-57174047D01*
X118874761Y-57126428D01*
X119112857Y-57126428D01*
X119208095Y-57078809D01*
X119684285Y-57507380D02*
X119684285Y-56507380D01*
X119779523Y-57126428D02*
X120065238Y-57507380D01*
X120065238Y-56840714D02*
X119684285Y-57221666D01*
X120874761Y-57459761D02*
X120779523Y-57507380D01*
X120589047Y-57507380D01*
X120493809Y-57459761D01*
X120446190Y-57364523D01*
X120446190Y-56983571D01*
X120493809Y-56888333D01*
X120589047Y-56840714D01*
X120779523Y-56840714D01*
X120874761Y-56888333D01*
X120922380Y-56983571D01*
X120922380Y-57078809D01*
X120446190Y-57174047D01*
X104470000Y-59209761D02*
X104565238Y-59257380D01*
X104755714Y-59257380D01*
X104850952Y-59209761D01*
X104898571Y-59114523D01*
X104898571Y-59066904D01*
X104850952Y-58971666D01*
X104755714Y-58924047D01*
X104612857Y-58924047D01*
X104517619Y-58876428D01*
X104470000Y-58781190D01*
X104470000Y-58733571D01*
X104517619Y-58638333D01*
X104612857Y-58590714D01*
X104755714Y-58590714D01*
X104850952Y-58638333D01*
X105755714Y-58590714D02*
X105755714Y-59257380D01*
X105327142Y-58590714D02*
X105327142Y-59114523D01*
X105374761Y-59209761D01*
X105470000Y-59257380D01*
X105612857Y-59257380D01*
X105708095Y-59209761D01*
X105755714Y-59162142D01*
X106231904Y-59257380D02*
X106231904Y-58590714D01*
X106231904Y-58781190D02*
X106279523Y-58685952D01*
X106327142Y-58638333D01*
X106422380Y-58590714D01*
X106517619Y-58590714D01*
X107231904Y-59209761D02*
X107136666Y-59257380D01*
X106946190Y-59257380D01*
X106850952Y-59209761D01*
X106803333Y-59114523D01*
X106803333Y-58733571D01*
X106850952Y-58638333D01*
X106946190Y-58590714D01*
X107136666Y-58590714D01*
X107231904Y-58638333D01*
X107279523Y-58733571D01*
X107279523Y-58828809D01*
X106803333Y-58924047D01*
X108327142Y-58590714D02*
X108708095Y-58590714D01*
X108470000Y-58257380D02*
X108470000Y-59114523D01*
X108517619Y-59209761D01*
X108612857Y-59257380D01*
X108708095Y-59257380D01*
X109041428Y-59257380D02*
X109041428Y-58257380D01*
X109470000Y-59257380D02*
X109470000Y-58733571D01*
X109422380Y-58638333D01*
X109327142Y-58590714D01*
X109184285Y-58590714D01*
X109089047Y-58638333D01*
X109041428Y-58685952D01*
X110327142Y-59209761D02*
X110231904Y-59257380D01*
X110041428Y-59257380D01*
X109946190Y-59209761D01*
X109898571Y-59114523D01*
X109898571Y-58733571D01*
X109946190Y-58638333D01*
X110041428Y-58590714D01*
X110231904Y-58590714D01*
X110327142Y-58638333D01*
X110374761Y-58733571D01*
X110374761Y-58828809D01*
X109898571Y-58924047D01*
X111565238Y-58590714D02*
X111565238Y-59590714D01*
X111565238Y-58638333D02*
X111660476Y-58590714D01*
X111850952Y-58590714D01*
X111946190Y-58638333D01*
X111993809Y-58685952D01*
X112041428Y-58781190D01*
X112041428Y-59066904D01*
X111993809Y-59162142D01*
X111946190Y-59209761D01*
X111850952Y-59257380D01*
X111660476Y-59257380D01*
X111565238Y-59209761D01*
X112612857Y-59257380D02*
X112517619Y-59209761D01*
X112470000Y-59162142D01*
X112422380Y-59066904D01*
X112422380Y-58781190D01*
X112470000Y-58685952D01*
X112517619Y-58638333D01*
X112612857Y-58590714D01*
X112755714Y-58590714D01*
X112850952Y-58638333D01*
X112898571Y-58685952D01*
X112946190Y-58781190D01*
X112946190Y-59066904D01*
X112898571Y-59162142D01*
X112850952Y-59209761D01*
X112755714Y-59257380D01*
X112612857Y-59257380D01*
X113279523Y-58590714D02*
X113470000Y-59257380D01*
X113660476Y-58781190D01*
X113850952Y-59257380D01*
X114041428Y-58590714D01*
X114803333Y-59209761D02*
X114708095Y-59257380D01*
X114517619Y-59257380D01*
X114422380Y-59209761D01*
X114374761Y-59114523D01*
X114374761Y-58733571D01*
X114422380Y-58638333D01*
X114517619Y-58590714D01*
X114708095Y-58590714D01*
X114803333Y-58638333D01*
X114850952Y-58733571D01*
X114850952Y-58828809D01*
X114374761Y-58924047D01*
X115279523Y-59257380D02*
X115279523Y-58590714D01*
X115279523Y-58781190D02*
X115327142Y-58685952D01*
X115374761Y-58638333D01*
X115470000Y-58590714D01*
X115565238Y-58590714D01*
X116660476Y-58590714D02*
X116660476Y-59590714D01*
X116660476Y-58638333D02*
X116755714Y-58590714D01*
X116946190Y-58590714D01*
X117041428Y-58638333D01*
X117089047Y-58685952D01*
X117136666Y-58781190D01*
X117136666Y-59066904D01*
X117089047Y-59162142D01*
X117041428Y-59209761D01*
X116946190Y-59257380D01*
X116755714Y-59257380D01*
X116660476Y-59209761D01*
X117565238Y-59257380D02*
X117565238Y-58590714D01*
X117565238Y-58257380D02*
X117517619Y-58305000D01*
X117565238Y-58352619D01*
X117612857Y-58305000D01*
X117565238Y-58257380D01*
X117565238Y-58352619D01*
X118041428Y-58590714D02*
X118041428Y-59257380D01*
X118041428Y-58685952D02*
X118089047Y-58638333D01*
X118184285Y-58590714D01*
X118327142Y-58590714D01*
X118422380Y-58638333D01*
X118470000Y-58733571D01*
X118470000Y-59257380D01*
X118898571Y-59209761D02*
X118993809Y-59257380D01*
X119184285Y-59257380D01*
X119279523Y-59209761D01*
X119327142Y-59114523D01*
X119327142Y-59066904D01*
X119279523Y-58971666D01*
X119184285Y-58924047D01*
X119041428Y-58924047D01*
X118946190Y-58876428D01*
X118898571Y-58781190D01*
X118898571Y-58733571D01*
X118946190Y-58638333D01*
X119041428Y-58590714D01*
X119184285Y-58590714D01*
X119279523Y-58638333D01*
X120946190Y-59257380D02*
X120946190Y-58733571D01*
X120898571Y-58638333D01*
X120803333Y-58590714D01*
X120612857Y-58590714D01*
X120517619Y-58638333D01*
X120946190Y-59209761D02*
X120850952Y-59257380D01*
X120612857Y-59257380D01*
X120517619Y-59209761D01*
X120470000Y-59114523D01*
X120470000Y-59019285D01*
X120517619Y-58924047D01*
X120612857Y-58876428D01*
X120850952Y-58876428D01*
X120946190Y-58828809D01*
X121422380Y-59257380D02*
X121422380Y-58590714D01*
X121422380Y-58781190D02*
X121470000Y-58685952D01*
X121517619Y-58638333D01*
X121612857Y-58590714D01*
X121708095Y-58590714D01*
X122422380Y-59209761D02*
X122327142Y-59257380D01*
X122136666Y-59257380D01*
X122041428Y-59209761D01*
X121993809Y-59114523D01*
X121993809Y-58733571D01*
X122041428Y-58638333D01*
X122136666Y-58590714D01*
X122327142Y-58590714D01*
X122422380Y-58638333D01*
X122470000Y-58733571D01*
X122470000Y-58828809D01*
X121993809Y-58924047D01*
X104089047Y-60959761D02*
X103993809Y-61007380D01*
X103803333Y-61007380D01*
X103708095Y-60959761D01*
X103660476Y-60912142D01*
X103612857Y-60816904D01*
X103612857Y-60531190D01*
X103660476Y-60435952D01*
X103708095Y-60388333D01*
X103803333Y-60340714D01*
X103993809Y-60340714D01*
X104089047Y-60388333D01*
X104660476Y-61007380D02*
X104565238Y-60959761D01*
X104517619Y-60912142D01*
X104470000Y-60816904D01*
X104470000Y-60531190D01*
X104517619Y-60435952D01*
X104565238Y-60388333D01*
X104660476Y-60340714D01*
X104803333Y-60340714D01*
X104898571Y-60388333D01*
X104946190Y-60435952D01*
X104993809Y-60531190D01*
X104993809Y-60816904D01*
X104946190Y-60912142D01*
X104898571Y-60959761D01*
X104803333Y-61007380D01*
X104660476Y-61007380D01*
X105422380Y-60340714D02*
X105422380Y-61007380D01*
X105422380Y-60435952D02*
X105470000Y-60388333D01*
X105565238Y-60340714D01*
X105708095Y-60340714D01*
X105803333Y-60388333D01*
X105850952Y-60483571D01*
X105850952Y-61007380D01*
X106184285Y-60340714D02*
X106565238Y-60340714D01*
X106327142Y-61007380D02*
X106327142Y-60150238D01*
X106374761Y-60055000D01*
X106470000Y-60007380D01*
X106565238Y-60007380D01*
X106898571Y-61007380D02*
X106898571Y-60340714D01*
X106898571Y-60007380D02*
X106850952Y-60055000D01*
X106898571Y-60102619D01*
X106946190Y-60055000D01*
X106898571Y-60007380D01*
X106898571Y-60102619D01*
X107803333Y-60340714D02*
X107803333Y-61150238D01*
X107755714Y-61245476D01*
X107708095Y-61293095D01*
X107612857Y-61340714D01*
X107470000Y-61340714D01*
X107374761Y-61293095D01*
X107803333Y-60959761D02*
X107708095Y-61007380D01*
X107517619Y-61007380D01*
X107422380Y-60959761D01*
X107374761Y-60912142D01*
X107327142Y-60816904D01*
X107327142Y-60531190D01*
X107374761Y-60435952D01*
X107422380Y-60388333D01*
X107517619Y-60340714D01*
X107708095Y-60340714D01*
X107803333Y-60388333D01*
X108708095Y-60340714D02*
X108708095Y-61007380D01*
X108279523Y-60340714D02*
X108279523Y-60864523D01*
X108327142Y-60959761D01*
X108422380Y-61007380D01*
X108565238Y-61007380D01*
X108660476Y-60959761D01*
X108708095Y-60912142D01*
X109184285Y-61007380D02*
X109184285Y-60340714D01*
X109184285Y-60531190D02*
X109231904Y-60435952D01*
X109279523Y-60388333D01*
X109374761Y-60340714D01*
X109470000Y-60340714D01*
X110184285Y-60959761D02*
X110089047Y-61007380D01*
X109898571Y-61007380D01*
X109803333Y-60959761D01*
X109755714Y-60864523D01*
X109755714Y-60483571D01*
X109803333Y-60388333D01*
X109898571Y-60340714D01*
X110089047Y-60340714D01*
X110184285Y-60388333D01*
X110231904Y-60483571D01*
X110231904Y-60578809D01*
X109755714Y-60674047D01*
X111089047Y-61007380D02*
X111089047Y-60007380D01*
X111089047Y-60959761D02*
X110993809Y-61007380D01*
X110803333Y-61007380D01*
X110708095Y-60959761D01*
X110660476Y-60912142D01*
X110612857Y-60816904D01*
X110612857Y-60531190D01*
X110660476Y-60435952D01*
X110708095Y-60388333D01*
X110803333Y-60340714D01*
X110993809Y-60340714D01*
X111089047Y-60388333D01*
X112184285Y-60340714D02*
X112565238Y-60340714D01*
X112327142Y-61007380D02*
X112327142Y-60150238D01*
X112374761Y-60055000D01*
X112470000Y-60007380D01*
X112565238Y-60007380D01*
X113041428Y-61007380D02*
X112946190Y-60959761D01*
X112898571Y-60912142D01*
X112850952Y-60816904D01*
X112850952Y-60531190D01*
X112898571Y-60435952D01*
X112946190Y-60388333D01*
X113041428Y-60340714D01*
X113184285Y-60340714D01*
X113279523Y-60388333D01*
X113327142Y-60435952D01*
X113374761Y-60531190D01*
X113374761Y-60816904D01*
X113327142Y-60912142D01*
X113279523Y-60959761D01*
X113184285Y-61007380D01*
X113041428Y-61007380D01*
X113803333Y-61007380D02*
X113803333Y-60340714D01*
X113803333Y-60531190D02*
X113850952Y-60435952D01*
X113898571Y-60388333D01*
X113993809Y-60340714D01*
X114089047Y-60340714D01*
X115089047Y-60340714D02*
X115327142Y-61007380D01*
X115565238Y-60340714D02*
X115327142Y-61007380D01*
X115231904Y-61245476D01*
X115184285Y-61293095D01*
X115089047Y-61340714D01*
X116089047Y-61007380D02*
X115993809Y-60959761D01*
X115946190Y-60912142D01*
X115898571Y-60816904D01*
X115898571Y-60531190D01*
X115946190Y-60435952D01*
X115993809Y-60388333D01*
X116089047Y-60340714D01*
X116231904Y-60340714D01*
X116327142Y-60388333D01*
X116374761Y-60435952D01*
X116422380Y-60531190D01*
X116422380Y-60816904D01*
X116374761Y-60912142D01*
X116327142Y-60959761D01*
X116231904Y-61007380D01*
X116089047Y-61007380D01*
X117279523Y-60340714D02*
X117279523Y-61007380D01*
X116850952Y-60340714D02*
X116850952Y-60864523D01*
X116898571Y-60959761D01*
X116993809Y-61007380D01*
X117136666Y-61007380D01*
X117231904Y-60959761D01*
X117279523Y-60912142D01*
X117755714Y-61007380D02*
X117755714Y-60340714D01*
X117755714Y-60531190D02*
X117803333Y-60435952D01*
X117850952Y-60388333D01*
X117946190Y-60340714D01*
X118041428Y-60340714D01*
X119089047Y-60959761D02*
X119184285Y-61007380D01*
X119374761Y-61007380D01*
X119470000Y-60959761D01*
X119517619Y-60864523D01*
X119517619Y-60816904D01*
X119470000Y-60721666D01*
X119374761Y-60674047D01*
X119231904Y-60674047D01*
X119136666Y-60626428D01*
X119089047Y-60531190D01*
X119089047Y-60483571D01*
X119136666Y-60388333D01*
X119231904Y-60340714D01*
X119374761Y-60340714D01*
X119470000Y-60388333D01*
X120374761Y-60959761D02*
X120279523Y-61007380D01*
X120089047Y-61007380D01*
X119993809Y-60959761D01*
X119946190Y-60912142D01*
X119898571Y-60816904D01*
X119898571Y-60531190D01*
X119946190Y-60435952D01*
X119993809Y-60388333D01*
X120089047Y-60340714D01*
X120279523Y-60340714D01*
X120374761Y-60388333D01*
X120803333Y-61007380D02*
X120803333Y-60340714D01*
X120803333Y-60531190D02*
X120850952Y-60435952D01*
X120898571Y-60388333D01*
X120993809Y-60340714D01*
X121089047Y-60340714D01*
X121803333Y-60959761D02*
X121708095Y-61007380D01*
X121517619Y-61007380D01*
X121422380Y-60959761D01*
X121374761Y-60864523D01*
X121374761Y-60483571D01*
X121422380Y-60388333D01*
X121517619Y-60340714D01*
X121708095Y-60340714D01*
X121803333Y-60388333D01*
X121850952Y-60483571D01*
X121850952Y-60578809D01*
X121374761Y-60674047D01*
X122660476Y-60959761D02*
X122565238Y-61007380D01*
X122374761Y-61007380D01*
X122279523Y-60959761D01*
X122231904Y-60864523D01*
X122231904Y-60483571D01*
X122279523Y-60388333D01*
X122374761Y-60340714D01*
X122565238Y-60340714D01*
X122660476Y-60388333D01*
X122708095Y-60483571D01*
X122708095Y-60578809D01*
X122231904Y-60674047D01*
X123136666Y-60340714D02*
X123136666Y-61007380D01*
X123136666Y-60435952D02*
X123184285Y-60388333D01*
X123279523Y-60340714D01*
X123422380Y-60340714D01*
X123517619Y-60388333D01*
X123565238Y-60483571D01*
X123565238Y-61007380D01*
X124041428Y-60912142D02*
X124089047Y-60959761D01*
X124041428Y-61007380D01*
X123993809Y-60959761D01*
X124041428Y-60912142D01*
X124041428Y-61007380D01*
D11*
X156829809Y-58520190D02*
X156996476Y-59020190D01*
X157163142Y-58520190D01*
X157329809Y-58829714D02*
X157710761Y-58829714D01*
X157520285Y-59020190D02*
X157520285Y-58639238D01*
X162318571Y-65275000D02*
X162270952Y-65251190D01*
X162199523Y-65251190D01*
X162128095Y-65275000D01*
X162080476Y-65322619D01*
X162056666Y-65370238D01*
X162032857Y-65465476D01*
X162032857Y-65536904D01*
X162056666Y-65632142D01*
X162080476Y-65679761D01*
X162128095Y-65727380D01*
X162199523Y-65751190D01*
X162247142Y-65751190D01*
X162318571Y-65727380D01*
X162342380Y-65703571D01*
X162342380Y-65536904D01*
X162247142Y-65536904D01*
X162556666Y-65417857D02*
X162556666Y-65751190D01*
X162556666Y-65465476D02*
X162580476Y-65441666D01*
X162628095Y-65417857D01*
X162699523Y-65417857D01*
X162747142Y-65441666D01*
X162770952Y-65489285D01*
X162770952Y-65751190D01*
X163223333Y-65751190D02*
X163223333Y-65251190D01*
X163223333Y-65727380D02*
X163175714Y-65751190D01*
X163080476Y-65751190D01*
X163032857Y-65727380D01*
X163009047Y-65703571D01*
X162985238Y-65655952D01*
X162985238Y-65513095D01*
X163009047Y-65465476D01*
X163032857Y-65441666D01*
X163080476Y-65417857D01*
X163175714Y-65417857D01*
X163223333Y-65441666D01*
X156833809Y-65751190D02*
X156833809Y-65251190D01*
X156952857Y-65251190D01*
X157024285Y-65275000D01*
X157071904Y-65322619D01*
X157095714Y-65370238D01*
X157119523Y-65465476D01*
X157119523Y-65536904D01*
X157095714Y-65632142D01*
X157071904Y-65679761D01*
X157024285Y-65727380D01*
X156952857Y-65751190D01*
X156833809Y-65751190D01*
X157405238Y-65751190D02*
X157357619Y-65727380D01*
X157333809Y-65703571D01*
X157310000Y-65655952D01*
X157310000Y-65513095D01*
X157333809Y-65465476D01*
X157357619Y-65441666D01*
X157405238Y-65417857D01*
X157476666Y-65417857D01*
X157524285Y-65441666D01*
X157548095Y-65465476D01*
X157571904Y-65513095D01*
X157571904Y-65655952D01*
X157548095Y-65703571D01*
X157524285Y-65727380D01*
X157476666Y-65751190D01*
X157405238Y-65751190D01*
X158000476Y-65417857D02*
X158000476Y-65751190D01*
X157786190Y-65417857D02*
X157786190Y-65679761D01*
X157810000Y-65727380D01*
X157857619Y-65751190D01*
X157929047Y-65751190D01*
X157976666Y-65727380D01*
X158000476Y-65703571D01*
X158167142Y-65417857D02*
X158357619Y-65417857D01*
X158238571Y-65251190D02*
X158238571Y-65679761D01*
X158262380Y-65727380D01*
X158310000Y-65751190D01*
X158357619Y-65751190D01*
X162163809Y-59020190D02*
X162163809Y-58520190D01*
X162282857Y-58520190D01*
X162354285Y-58544000D01*
X162401904Y-58591619D01*
X162425714Y-58639238D01*
X162449523Y-58734476D01*
X162449523Y-58805904D01*
X162425714Y-58901142D01*
X162401904Y-58948761D01*
X162354285Y-58996380D01*
X162282857Y-59020190D01*
X162163809Y-59020190D01*
X162663809Y-59020190D02*
X162663809Y-58686857D01*
X162663809Y-58520190D02*
X162640000Y-58544000D01*
X162663809Y-58567809D01*
X162687619Y-58544000D01*
X162663809Y-58520190D01*
X162663809Y-58567809D01*
X162901904Y-58686857D02*
X162901904Y-59020190D01*
X162901904Y-58734476D02*
X162925714Y-58710666D01*
X162973333Y-58686857D01*
X163044761Y-58686857D01*
X163092380Y-58710666D01*
X163116190Y-58758285D01*
X163116190Y-59020190D01*
D12*
X92231904Y-71130952D02*
X92231904Y-71511904D01*
X92612857Y-71550000D01*
X92574761Y-71511904D01*
X92536666Y-71435714D01*
X92536666Y-71245238D01*
X92574761Y-71169047D01*
X92612857Y-71130952D01*
X92689047Y-71092857D01*
X92879523Y-71092857D01*
X92955714Y-71130952D01*
X92993809Y-71169047D01*
X93031904Y-71245238D01*
X93031904Y-71435714D01*
X92993809Y-71511904D01*
X92955714Y-71550000D01*
X92231904Y-70864285D02*
X93031904Y-70597619D01*
X92231904Y-70330952D01*
X93031904Y-69454761D02*
X92231904Y-69454761D01*
X92231904Y-69264285D01*
X92270000Y-69150000D01*
X92346190Y-69073809D01*
X92422380Y-69035714D01*
X92574761Y-68997619D01*
X92689047Y-68997619D01*
X92841428Y-69035714D01*
X92917619Y-69073809D01*
X92993809Y-69150000D01*
X93031904Y-69264285D01*
X93031904Y-69454761D01*
X92727142Y-68654761D02*
X92727142Y-68045238D01*
X93031904Y-67054761D02*
X92231904Y-67054761D01*
X92231904Y-66864285D01*
X92270000Y-66750000D01*
X92346190Y-66673809D01*
X92422380Y-66635714D01*
X92574761Y-66597619D01*
X92689047Y-66597619D01*
X92841428Y-66635714D01*
X92917619Y-66673809D01*
X92993809Y-66750000D01*
X93031904Y-66864285D01*
X93031904Y-67054761D01*
X92727142Y-66254761D02*
X92727142Y-65645238D01*
X93031904Y-65950000D02*
X92422380Y-65950000D01*
X92270000Y-64235714D02*
X92231904Y-64311904D01*
X92231904Y-64426190D01*
X92270000Y-64540476D01*
X92346190Y-64616666D01*
X92422380Y-64654761D01*
X92574761Y-64692857D01*
X92689047Y-64692857D01*
X92841428Y-64654761D01*
X92917619Y-64616666D01*
X92993809Y-64540476D01*
X93031904Y-64426190D01*
X93031904Y-64350000D01*
X92993809Y-64235714D01*
X92955714Y-64197619D01*
X92689047Y-64197619D01*
X92689047Y-64350000D01*
X92498571Y-63854761D02*
X93031904Y-63854761D01*
X92574761Y-63854761D02*
X92536666Y-63816666D01*
X92498571Y-63740476D01*
X92498571Y-63626190D01*
X92536666Y-63550000D01*
X92612857Y-63511904D01*
X93031904Y-63511904D01*
X93031904Y-62788095D02*
X92231904Y-62788095D01*
X92993809Y-62788095D02*
X93031904Y-62864285D01*
X93031904Y-63016666D01*
X92993809Y-63092857D01*
X92955714Y-63130952D01*
X92879523Y-63169047D01*
X92650952Y-63169047D01*
X92574761Y-63130952D01*
X92536666Y-63092857D01*
X92498571Y-63016666D01*
X92498571Y-62864285D01*
X92536666Y-62788095D01*
D13*
X107902142Y-51687285D02*
X107902142Y-50937285D01*
X108187857Y-50937285D01*
X108259285Y-50973000D01*
X108295000Y-51008714D01*
X108330714Y-51080142D01*
X108330714Y-51187285D01*
X108295000Y-51258714D01*
X108259285Y-51294428D01*
X108187857Y-51330142D01*
X107902142Y-51330142D01*
X108652142Y-51687285D02*
X108652142Y-51187285D01*
X108652142Y-50937285D02*
X108616428Y-50973000D01*
X108652142Y-51008714D01*
X108687857Y-50973000D01*
X108652142Y-50937285D01*
X108652142Y-51008714D01*
X109009285Y-51187285D02*
X109009285Y-51687285D01*
X109009285Y-51258714D02*
X109045000Y-51223000D01*
X109116428Y-51187285D01*
X109223571Y-51187285D01*
X109295000Y-51223000D01*
X109330714Y-51294428D01*
X109330714Y-51687285D01*
X110080714Y-51687285D02*
X109652142Y-51687285D01*
X109866428Y-51687285D02*
X109866428Y-50937285D01*
X109795000Y-51044428D01*
X109723571Y-51115857D01*
X109652142Y-51151571D01*
X110973571Y-51687285D02*
X110973571Y-50937285D01*
X111259285Y-50937285D01*
X111330714Y-50973000D01*
X111366428Y-51008714D01*
X111402142Y-51080142D01*
X111402142Y-51187285D01*
X111366428Y-51258714D01*
X111330714Y-51294428D01*
X111259285Y-51330142D01*
X110973571Y-51330142D01*
X111723571Y-51687285D02*
X111723571Y-51187285D01*
X111723571Y-50937285D02*
X111687857Y-50973000D01*
X111723571Y-51008714D01*
X111759285Y-50973000D01*
X111723571Y-50937285D01*
X111723571Y-51008714D01*
X112080714Y-51187285D02*
X112080714Y-51687285D01*
X112080714Y-51258714D02*
X112116428Y-51223000D01*
X112187857Y-51187285D01*
X112295000Y-51187285D01*
X112366428Y-51223000D01*
X112402142Y-51294428D01*
X112402142Y-51687285D01*
X112723571Y-51008714D02*
X112759285Y-50973000D01*
X112830714Y-50937285D01*
X113009285Y-50937285D01*
X113080714Y-50973000D01*
X113116428Y-51008714D01*
X113152142Y-51080142D01*
X113152142Y-51151571D01*
X113116428Y-51258714D01*
X112687857Y-51687285D01*
X113152142Y-51687285D01*
X114009285Y-51651571D02*
X114116428Y-51687285D01*
X114295000Y-51687285D01*
X114366428Y-51651571D01*
X114402142Y-51615857D01*
X114437857Y-51544428D01*
X114437857Y-51473000D01*
X114402142Y-51401571D01*
X114366428Y-51365857D01*
X114295000Y-51330142D01*
X114152142Y-51294428D01*
X114080714Y-51258714D01*
X114045000Y-51223000D01*
X114009285Y-51151571D01*
X114009285Y-51080142D01*
X114045000Y-51008714D01*
X114080714Y-50973000D01*
X114152142Y-50937285D01*
X114330714Y-50937285D01*
X114437857Y-50973000D01*
X115187857Y-51615857D02*
X115152142Y-51651571D01*
X115045000Y-51687285D01*
X114973571Y-51687285D01*
X114866428Y-51651571D01*
X114795000Y-51580142D01*
X114759285Y-51508714D01*
X114723571Y-51365857D01*
X114723571Y-51258714D01*
X114759285Y-51115857D01*
X114795000Y-51044428D01*
X114866428Y-50973000D01*
X114973571Y-50937285D01*
X115045000Y-50937285D01*
X115152142Y-50973000D01*
X115187857Y-51008714D01*
X115866428Y-51687285D02*
X115509285Y-51687285D01*
X115509285Y-50937285D01*
X116652142Y-51651571D02*
X116759285Y-51687285D01*
X116937857Y-51687285D01*
X117009285Y-51651571D01*
X117045000Y-51615857D01*
X117080714Y-51544428D01*
X117080714Y-51473000D01*
X117045000Y-51401571D01*
X117009285Y-51365857D01*
X116937857Y-51330142D01*
X116795000Y-51294428D01*
X116723571Y-51258714D01*
X116687857Y-51223000D01*
X116652142Y-51151571D01*
X116652142Y-51080142D01*
X116687857Y-51008714D01*
X116723571Y-50973000D01*
X116795000Y-50937285D01*
X116973571Y-50937285D01*
X117080714Y-50973000D01*
X117402142Y-51687285D02*
X117402142Y-50937285D01*
X117580714Y-50937285D01*
X117687857Y-50973000D01*
X117759285Y-51044428D01*
X117795000Y-51115857D01*
X117830714Y-51258714D01*
X117830714Y-51365857D01*
X117795000Y-51508714D01*
X117759285Y-51580142D01*
X117687857Y-51651571D01*
X117580714Y-51687285D01*
X117402142Y-51687285D01*
X118116428Y-51473000D02*
X118473571Y-51473000D01*
X118045000Y-51687285D02*
X118295000Y-50937285D01*
X118545000Y-51687285D01*
D12*
X95770000Y-84150000D02*
X131170000Y-84150000D01*
X95770000Y-50650000D02*
X131170000Y-50650000D01*
X95770000Y-50650000D02*
X95770000Y-84150000D01*
X131170000Y-50650000D02*
X131170000Y-84150000D01*
D14*
X163570000Y-64900000D02*
X163570000Y-63750000D01*
X156270000Y-64900000D02*
X163570000Y-64900000D01*
X156270000Y-59400000D02*
X163570000Y-59400000D01*
D12*
X148170000Y-67150000D02*
G75*
G03X148170000Y-67150000I-3750000J0D01*
G01*
D14*
X163420000Y-72900000D02*
X163420000Y-71400000D01*
X162170000Y-68900000D02*
X157670000Y-68900000D01*
X156420000Y-71400000D02*
X156420000Y-72900000D01*
X157670000Y-75400000D02*
X162170000Y-75400000D01*
D12*
X105004666Y-51108380D02*
X105004666Y-51822666D01*
X104957047Y-51965523D01*
X104861809Y-52060761D01*
X104718952Y-52108380D01*
X104623714Y-52108380D01*
X105433238Y-51203619D02*
X105480857Y-51156000D01*
X105576095Y-51108380D01*
X105814190Y-51108380D01*
X105909428Y-51156000D01*
X105957047Y-51203619D01*
X106004666Y-51298857D01*
X106004666Y-51394095D01*
X105957047Y-51536952D01*
X105385619Y-52108380D01*
X106004666Y-52108380D01*
X159181904Y-59102380D02*
X159181904Y-58102380D01*
X159420000Y-58102380D01*
X159562857Y-58150000D01*
X159658095Y-58245238D01*
X159705714Y-58340476D01*
X159753333Y-58530952D01*
X159753333Y-58673809D01*
X159705714Y-58864285D01*
X159658095Y-58959523D01*
X159562857Y-59054761D01*
X159420000Y-59102380D01*
X159181904Y-59102380D01*
X160705714Y-59102380D02*
X160134285Y-59102380D01*
X160420000Y-59102380D02*
X160420000Y-58102380D01*
X160324761Y-58245238D01*
X160229523Y-58340476D01*
X160134285Y-58388095D01*
X156055714Y-61002380D02*
X155484285Y-61002380D01*
X155770000Y-61002380D02*
X155770000Y-60002380D01*
X155674761Y-60145238D01*
X155579523Y-60240476D01*
X155484285Y-60288095D01*
X143086666Y-72634761D02*
X143229523Y-72682380D01*
X143467619Y-72682380D01*
X143562857Y-72634761D01*
X143610476Y-72587142D01*
X143658095Y-72491904D01*
X143658095Y-72396666D01*
X143610476Y-72301428D01*
X143562857Y-72253809D01*
X143467619Y-72206190D01*
X143277142Y-72158571D01*
X143181904Y-72110952D01*
X143134285Y-72063333D01*
X143086666Y-71968095D01*
X143086666Y-71872857D01*
X143134285Y-71777619D01*
X143181904Y-71730000D01*
X143277142Y-71682380D01*
X143515238Y-71682380D01*
X143658095Y-71730000D01*
X143991428Y-71682380D02*
X144229523Y-72682380D01*
X144420000Y-71968095D01*
X144610476Y-72682380D01*
X144848571Y-71682380D01*
X145134285Y-71682380D02*
X145800952Y-71682380D01*
X145372380Y-72682380D01*
X158586666Y-68304761D02*
X158729523Y-68352380D01*
X158967619Y-68352380D01*
X159062857Y-68304761D01*
X159110476Y-68257142D01*
X159158095Y-68161904D01*
X159158095Y-68066666D01*
X159110476Y-67971428D01*
X159062857Y-67923809D01*
X158967619Y-67876190D01*
X158777142Y-67828571D01*
X158681904Y-67780952D01*
X158634285Y-67733333D01*
X158586666Y-67638095D01*
X158586666Y-67542857D01*
X158634285Y-67447619D01*
X158681904Y-67400000D01*
X158777142Y-67352380D01*
X159015238Y-67352380D01*
X159158095Y-67400000D01*
X159491428Y-67352380D02*
X159729523Y-68352380D01*
X159920000Y-67638095D01*
X160110476Y-68352380D01*
X160348571Y-67352380D01*
X161158095Y-67352380D02*
X160967619Y-67352380D01*
X160872380Y-67400000D01*
X160824761Y-67447619D01*
X160729523Y-67590476D01*
X160681904Y-67780952D01*
X160681904Y-68161904D01*
X160729523Y-68257142D01*
X160777142Y-68304761D01*
X160872380Y-68352380D01*
X161062857Y-68352380D01*
X161158095Y-68304761D01*
X161205714Y-68257142D01*
X161253333Y-68161904D01*
X161253333Y-67923809D01*
X161205714Y-67828571D01*
X161158095Y-67780952D01*
X161062857Y-67733333D01*
X160872380Y-67733333D01*
X160777142Y-67780952D01*
X160729523Y-67828571D01*
X160681904Y-67923809D01*
X88408095Y-76902380D02*
X88408095Y-75902380D01*
X88408095Y-76378571D02*
X88979523Y-76378571D01*
X88979523Y-76902380D02*
X88979523Y-75902380D01*
X89884285Y-76235714D02*
X89884285Y-76902380D01*
X89646190Y-75854761D02*
X89408095Y-76569047D01*
X90027142Y-76569047D01*
X160408095Y-51902380D02*
X160408095Y-50902380D01*
X160408095Y-51378571D02*
X160979523Y-51378571D01*
X160979523Y-51902380D02*
X160979523Y-50902380D01*
X161360476Y-50902380D02*
X161979523Y-50902380D01*
X161646190Y-51283333D01*
X161789047Y-51283333D01*
X161884285Y-51330952D01*
X161931904Y-51378571D01*
X161979523Y-51473809D01*
X161979523Y-51711904D01*
X161931904Y-51807142D01*
X161884285Y-51854761D01*
X161789047Y-51902380D01*
X161503333Y-51902380D01*
X161408095Y-51854761D01*
X161360476Y-51807142D01*
X160408095Y-76902380D02*
X160408095Y-75902380D01*
X160408095Y-76378571D02*
X160979523Y-76378571D01*
X160979523Y-76902380D02*
X160979523Y-75902380D01*
X161408095Y-75997619D02*
X161455714Y-75950000D01*
X161550952Y-75902380D01*
X161789047Y-75902380D01*
X161884285Y-75950000D01*
X161931904Y-75997619D01*
X161979523Y-76092857D01*
X161979523Y-76188095D01*
X161931904Y-76330952D01*
X161360476Y-76902380D01*
X161979523Y-76902380D01*
X88408095Y-51902380D02*
X88408095Y-50902380D01*
X88408095Y-51378571D02*
X88979523Y-51378571D01*
X88979523Y-51902380D02*
X88979523Y-50902380D01*
X89979523Y-51902380D02*
X89408095Y-51902380D01*
X89693809Y-51902380D02*
X89693809Y-50902380D01*
X89598571Y-51045238D01*
X89503333Y-51140476D01*
X89408095Y-51188095D01*
M02*
