M48
; DRILL file {KiCad (5.1.5)-3} date 12/14/2020 8:28:08 PM
; FORMAT={-:-/ absolute / inch / decimal}
; #@! TF.CreationDate,2020-12-14T20:28:08-05:00
; #@! TF.GenerationSoftware,Kicad,Pcbnew,(5.1.5)-3
; #@! TF.FileFunction,Plated,1,2,PTH
FMAT,2
INCH
T1C0.0157
T2C0.0197
T3C0.0236
T4C0.0300
T5C0.0394
T6C0.0433
T7C0.0787
%
G90
G05
T1
X3.8281Y-3.1547
X3.8531Y-3.2297
X3.9281Y-3.2297
X4.0463Y-2.9904
X4.1469Y-2.4547
X4.2031Y-2.2047
X4.2031Y-2.5547
X4.2031Y-2.5941
X4.2031Y-2.6335
X4.298Y-2.9547
X4.3925Y-3.1831
X4.4219Y-2.5797
X4.4719Y-2.5797
X4.5219Y-2.5797
X4.5969Y-3.2297
X4.672Y-2.4173
X4.6842Y-2.5525
X4.6858Y-2.5937
X4.6913Y-2.5138
X4.692Y-2.4741
X4.7626Y-2.6634
X5.4358Y-2.8437
X5.5358Y-2.8437
X5.8858Y-2.1687
X5.9731Y-2.0747
X6.0923Y-2.2807
X6.1531Y-2.2297
X6.3531Y-2.4547
X6.4281Y-2.4547
T4
X4.3173Y-2.0807
X4.4173Y-2.0807
X4.5173Y-2.0807
X4.6173Y-2.0807
T5
X3.7272Y-2.4937
X3.7272Y-2.5937
X3.7272Y-2.6937
X3.7272Y-2.7937
X5.9281Y-2.3797
X6.0281Y-2.3797
X3.9012Y-2.7028
X4.0012Y-2.7028
X4.1012Y-2.7028
X4.4469Y-2.9547
X4.5469Y-2.9547
X4.6469Y-2.9547
X4.8469Y-2.1797
X4.9469Y-2.1797
T6
X5.5874Y-2.3681
X5.5874Y-2.939
X5.6858Y-2.939
X5.7843Y-2.3681
X5.7843Y-2.939
X4.8219Y-2.8797
X4.8219Y-3.0569
X5.0778Y-2.8797
X5.0778Y-3.0569
X6.1681Y-2.752
X6.1681Y-2.9291
X6.424Y-2.752
X6.424Y-2.9291
T2
G00X3.439Y-2.6654
M15
G01X3.439Y-2.622
M16
G05
G00X3.519Y-2.5514
M15
G01X3.519Y-2.516
M16
G05
G00X3.519Y-2.7714
M15
G01X3.519Y-2.736
M16
G05
T3
G00X3.3989Y-2.5059
M15
G01X3.4265Y-2.5059
M16
G05
G00X3.4265Y-2.7815
M15
G01X3.3989Y-2.7815
M16
G05
T7
G00X5.4858Y-2.624
M15
G01X5.4858Y-2.6634
M16
G05
G00X5.8858Y-2.6634
M15
G01X5.8858Y-2.624
M16
G05
T0
M30
