G04 #@! TF.GenerationSoftware,KiCad,Pcbnew,(5.1.5)-3*
G04 #@! TF.CreationDate,2021-11-14T23:27:47-05:00*
G04 #@! TF.ProjectId,SKR-Mini_Screen,534b522d-4d69-46e6-995f-53637265656e,rev?*
G04 #@! TF.SameCoordinates,Original*
G04 #@! TF.FileFunction,Copper,L2,Bot*
G04 #@! TF.FilePolarity,Positive*
%FSLAX46Y46*%
G04 Gerber Fmt 4.6, Leading zero omitted, Abs format (unit mm)*
G04 Created by KiCad (PCBNEW (5.1.5)-3) date 2021-11-14 23:27:47*
%MOMM*%
%LPD*%
G04 APERTURE LIST*
%ADD10O,1.700000X1.700000*%
%ADD11R,1.700000X1.700000*%
%ADD12C,1.524000*%
%ADD13C,0.800000*%
%ADD14C,0.250000*%
%ADD15C,0.254000*%
G04 APERTURE END LIST*
D10*
X128270000Y-116840000D03*
X125730000Y-116840000D03*
X128270000Y-114300000D03*
X125730000Y-114300000D03*
X128270000Y-111760000D03*
X125730000Y-111760000D03*
X128270000Y-109220000D03*
X125730000Y-109220000D03*
X128270000Y-106680000D03*
D11*
X125730000Y-106680000D03*
D12*
X139700000Y-100965000D03*
X137160000Y-100965000D03*
X139700000Y-98425000D03*
X137160000Y-98425000D03*
X139700000Y-95885000D03*
X137160000Y-95885000D03*
X139700000Y-93345000D03*
X137160000Y-93345000D03*
X139700000Y-90805000D03*
X137160000Y-90805000D03*
X139700000Y-122555000D03*
X137160000Y-122555000D03*
X139700000Y-120015000D03*
X137160000Y-120015000D03*
X139700000Y-117475000D03*
X137160000Y-117475000D03*
X139700000Y-114935000D03*
X137160000Y-114935000D03*
X139700000Y-112395000D03*
X137160000Y-112395000D03*
D10*
X129673000Y-99568000D03*
X127133000Y-99568000D03*
X129673000Y-97028000D03*
X127133000Y-97028000D03*
X129673000Y-94488000D03*
D11*
X127133000Y-94488000D03*
D13*
X133350000Y-99695000D03*
X132625000Y-107315000D03*
X134620000Y-106680000D03*
X134620000Y-101600000D03*
X131445000Y-95885000D03*
X135255000Y-92075000D03*
X137795000Y-88900000D03*
X126365000Y-92075000D03*
X133985000Y-90805000D03*
X127723000Y-92798000D03*
X132080000Y-102870000D03*
X128905000Y-102870000D03*
D14*
X126579999Y-110910001D02*
X125730000Y-111760000D01*
X133350000Y-99695000D02*
X133350000Y-107951410D01*
X126905001Y-110584999D02*
X126579999Y-110910001D01*
X133350000Y-107951410D02*
X130716411Y-110584999D01*
X130716411Y-110584999D02*
X126905001Y-110584999D01*
X131895001Y-108044999D02*
X132625000Y-107315000D01*
X125730000Y-109220000D02*
X126905001Y-108044999D01*
X126905001Y-108044999D02*
X131895001Y-108044999D01*
X134620000Y-106680000D02*
X134620000Y-101600000D01*
X131445000Y-95885000D02*
X135255000Y-92075000D01*
X129540000Y-88900000D02*
X126365000Y-92075000D01*
X137795000Y-88900000D02*
X129540000Y-88900000D01*
X129716000Y-90805000D02*
X133985000Y-90805000D01*
X127723000Y-92798000D02*
X129716000Y-90805000D01*
X128905000Y-102870000D02*
X132080000Y-102870000D01*
D15*
G36*
X145390001Y-127610000D02*
G01*
X131083381Y-127610000D01*
X126993946Y-123520565D01*
X136374040Y-123520565D01*
X136441020Y-123760656D01*
X136690048Y-123877756D01*
X136957135Y-123944023D01*
X137232017Y-123956910D01*
X137504133Y-123915922D01*
X137763023Y-123822636D01*
X137878980Y-123760656D01*
X137945960Y-123520565D01*
X137160000Y-122734605D01*
X136374040Y-123520565D01*
X126993946Y-123520565D01*
X126100398Y-122627017D01*
X135758090Y-122627017D01*
X135799078Y-122899133D01*
X135892364Y-123158023D01*
X135954344Y-123273980D01*
X136194435Y-123340960D01*
X136980395Y-122555000D01*
X136194435Y-121769040D01*
X135954344Y-121836020D01*
X135837244Y-122085048D01*
X135770977Y-122352135D01*
X135758090Y-122627017D01*
X126100398Y-122627017D01*
X123850000Y-120376620D01*
X123850000Y-117196890D01*
X124288524Y-117196890D01*
X124333175Y-117344099D01*
X124458359Y-117606920D01*
X124632412Y-117840269D01*
X124848645Y-118035178D01*
X125098748Y-118184157D01*
X125373109Y-118281481D01*
X125603000Y-118160814D01*
X125603000Y-116967000D01*
X124409845Y-116967000D01*
X124288524Y-117196890D01*
X123850000Y-117196890D01*
X123850000Y-105830000D01*
X124241928Y-105830000D01*
X124241928Y-107530000D01*
X124254188Y-107654482D01*
X124290498Y-107774180D01*
X124349463Y-107884494D01*
X124428815Y-107981185D01*
X124525506Y-108060537D01*
X124635820Y-108119502D01*
X124708380Y-108141513D01*
X124576525Y-108273368D01*
X124414010Y-108516589D01*
X124302068Y-108786842D01*
X124245000Y-109073740D01*
X124245000Y-109366260D01*
X124302068Y-109653158D01*
X124414010Y-109923411D01*
X124576525Y-110166632D01*
X124783368Y-110373475D01*
X124957760Y-110490000D01*
X124783368Y-110606525D01*
X124576525Y-110813368D01*
X124414010Y-111056589D01*
X124302068Y-111326842D01*
X124245000Y-111613740D01*
X124245000Y-111906260D01*
X124302068Y-112193158D01*
X124414010Y-112463411D01*
X124576525Y-112706632D01*
X124783368Y-112913475D01*
X124957760Y-113030000D01*
X124783368Y-113146525D01*
X124576525Y-113353368D01*
X124414010Y-113596589D01*
X124302068Y-113866842D01*
X124245000Y-114153740D01*
X124245000Y-114446260D01*
X124302068Y-114733158D01*
X124414010Y-115003411D01*
X124576525Y-115246632D01*
X124783368Y-115453475D01*
X124965534Y-115575195D01*
X124848645Y-115644822D01*
X124632412Y-115839731D01*
X124458359Y-116073080D01*
X124333175Y-116335901D01*
X124288524Y-116483110D01*
X124409845Y-116713000D01*
X125603000Y-116713000D01*
X125603000Y-116693000D01*
X125857000Y-116693000D01*
X125857000Y-116713000D01*
X125877000Y-116713000D01*
X125877000Y-116967000D01*
X125857000Y-116967000D01*
X125857000Y-118160814D01*
X126086891Y-118281481D01*
X126361252Y-118184157D01*
X126611355Y-118035178D01*
X126827588Y-117840269D01*
X126998900Y-117610594D01*
X127116525Y-117786632D01*
X127323368Y-117993475D01*
X127566589Y-118155990D01*
X127836842Y-118267932D01*
X128123740Y-118325000D01*
X128416260Y-118325000D01*
X128703158Y-118267932D01*
X128973411Y-118155990D01*
X129216632Y-117993475D01*
X129423475Y-117786632D01*
X129585990Y-117543411D01*
X129697932Y-117273158D01*
X129755000Y-116986260D01*
X129755000Y-116693740D01*
X129697932Y-116406842D01*
X129585990Y-116136589D01*
X129423475Y-115893368D01*
X129216632Y-115686525D01*
X129042240Y-115570000D01*
X129216632Y-115453475D01*
X129423475Y-115246632D01*
X129585990Y-115003411D01*
X129697932Y-114733158D01*
X129755000Y-114446260D01*
X129755000Y-114153740D01*
X129697932Y-113866842D01*
X129585990Y-113596589D01*
X129423475Y-113353368D01*
X129216632Y-113146525D01*
X129042240Y-113030000D01*
X129216632Y-112913475D01*
X129423475Y-112706632D01*
X129585990Y-112463411D01*
X129671318Y-112257408D01*
X135763000Y-112257408D01*
X135763000Y-112532592D01*
X135816686Y-112802490D01*
X135921995Y-113056727D01*
X136074880Y-113285535D01*
X136269465Y-113480120D01*
X136498273Y-113633005D01*
X136575515Y-113665000D01*
X136498273Y-113696995D01*
X136269465Y-113849880D01*
X136074880Y-114044465D01*
X135921995Y-114273273D01*
X135816686Y-114527510D01*
X135763000Y-114797408D01*
X135763000Y-115072592D01*
X135816686Y-115342490D01*
X135921995Y-115596727D01*
X136074880Y-115825535D01*
X136269465Y-116020120D01*
X136498273Y-116173005D01*
X136575515Y-116205000D01*
X136498273Y-116236995D01*
X136269465Y-116389880D01*
X136074880Y-116584465D01*
X135921995Y-116813273D01*
X135816686Y-117067510D01*
X135763000Y-117337408D01*
X135763000Y-117612592D01*
X135816686Y-117882490D01*
X135921995Y-118136727D01*
X136074880Y-118365535D01*
X136269465Y-118560120D01*
X136498273Y-118713005D01*
X136575515Y-118745000D01*
X136498273Y-118776995D01*
X136269465Y-118929880D01*
X136074880Y-119124465D01*
X135921995Y-119353273D01*
X135816686Y-119607510D01*
X135763000Y-119877408D01*
X135763000Y-120152592D01*
X135816686Y-120422490D01*
X135921995Y-120676727D01*
X136074880Y-120905535D01*
X136269465Y-121100120D01*
X136498273Y-121253005D01*
X136569943Y-121282692D01*
X136556977Y-121287364D01*
X136441020Y-121349344D01*
X136374040Y-121589435D01*
X137160000Y-122375395D01*
X137945960Y-121589435D01*
X137878980Y-121349344D01*
X137743240Y-121285515D01*
X137821727Y-121253005D01*
X138050535Y-121100120D01*
X138245120Y-120905535D01*
X138398005Y-120676727D01*
X138430000Y-120599485D01*
X138461995Y-120676727D01*
X138614880Y-120905535D01*
X138809465Y-121100120D01*
X139038273Y-121253005D01*
X139115515Y-121285000D01*
X139038273Y-121316995D01*
X138809465Y-121469880D01*
X138614880Y-121664465D01*
X138461995Y-121893273D01*
X138432308Y-121964943D01*
X138427636Y-121951977D01*
X138365656Y-121836020D01*
X138125565Y-121769040D01*
X137339605Y-122555000D01*
X138125565Y-123340960D01*
X138365656Y-123273980D01*
X138429485Y-123138240D01*
X138461995Y-123216727D01*
X138614880Y-123445535D01*
X138809465Y-123640120D01*
X139038273Y-123793005D01*
X139292510Y-123898314D01*
X139562408Y-123952000D01*
X139837592Y-123952000D01*
X140107490Y-123898314D01*
X140361727Y-123793005D01*
X140590535Y-123640120D01*
X140785120Y-123445535D01*
X140938005Y-123216727D01*
X141043314Y-122962490D01*
X141097000Y-122692592D01*
X141097000Y-122417408D01*
X141043314Y-122147510D01*
X140938005Y-121893273D01*
X140785120Y-121664465D01*
X140590535Y-121469880D01*
X140361727Y-121316995D01*
X140284485Y-121285000D01*
X140361727Y-121253005D01*
X140590535Y-121100120D01*
X140785120Y-120905535D01*
X140938005Y-120676727D01*
X141043314Y-120422490D01*
X141097000Y-120152592D01*
X141097000Y-119877408D01*
X141043314Y-119607510D01*
X140938005Y-119353273D01*
X140785120Y-119124465D01*
X140590535Y-118929880D01*
X140361727Y-118776995D01*
X140284485Y-118745000D01*
X140361727Y-118713005D01*
X140590535Y-118560120D01*
X140785120Y-118365535D01*
X140938005Y-118136727D01*
X141043314Y-117882490D01*
X141097000Y-117612592D01*
X141097000Y-117337408D01*
X141043314Y-117067510D01*
X140938005Y-116813273D01*
X140785120Y-116584465D01*
X140590535Y-116389880D01*
X140361727Y-116236995D01*
X140284485Y-116205000D01*
X140361727Y-116173005D01*
X140590535Y-116020120D01*
X140785120Y-115825535D01*
X140938005Y-115596727D01*
X141043314Y-115342490D01*
X141097000Y-115072592D01*
X141097000Y-114797408D01*
X141043314Y-114527510D01*
X140938005Y-114273273D01*
X140785120Y-114044465D01*
X140590535Y-113849880D01*
X140361727Y-113696995D01*
X140284485Y-113665000D01*
X140361727Y-113633005D01*
X140590535Y-113480120D01*
X140785120Y-113285535D01*
X140938005Y-113056727D01*
X141043314Y-112802490D01*
X141097000Y-112532592D01*
X141097000Y-112257408D01*
X141043314Y-111987510D01*
X140938005Y-111733273D01*
X140785120Y-111504465D01*
X140590535Y-111309880D01*
X140361727Y-111156995D01*
X140107490Y-111051686D01*
X139837592Y-110998000D01*
X139562408Y-110998000D01*
X139292510Y-111051686D01*
X139038273Y-111156995D01*
X138809465Y-111309880D01*
X138614880Y-111504465D01*
X138461995Y-111733273D01*
X138430000Y-111810515D01*
X138398005Y-111733273D01*
X138245120Y-111504465D01*
X138050535Y-111309880D01*
X137821727Y-111156995D01*
X137567490Y-111051686D01*
X137297592Y-110998000D01*
X137022408Y-110998000D01*
X136752510Y-111051686D01*
X136498273Y-111156995D01*
X136269465Y-111309880D01*
X136074880Y-111504465D01*
X135921995Y-111733273D01*
X135816686Y-111987510D01*
X135763000Y-112257408D01*
X129671318Y-112257408D01*
X129697932Y-112193158D01*
X129755000Y-111906260D01*
X129755000Y-111613740D01*
X129701544Y-111344999D01*
X130679089Y-111344999D01*
X130716411Y-111348675D01*
X130753733Y-111344999D01*
X130753744Y-111344999D01*
X130865397Y-111334002D01*
X131008658Y-111290545D01*
X131140687Y-111219973D01*
X131256412Y-111125000D01*
X131280215Y-111095996D01*
X133861003Y-108515209D01*
X133890001Y-108491411D01*
X133984974Y-108375686D01*
X134055546Y-108243657D01*
X134099003Y-108100396D01*
X134110000Y-107988743D01*
X134110000Y-107988734D01*
X134113676Y-107951411D01*
X134110000Y-107914088D01*
X134110000Y-107584013D01*
X134129744Y-107597205D01*
X134318102Y-107675226D01*
X134518061Y-107715000D01*
X134721939Y-107715000D01*
X134921898Y-107675226D01*
X135110256Y-107597205D01*
X135279774Y-107483937D01*
X135423937Y-107339774D01*
X135537205Y-107170256D01*
X135615226Y-106981898D01*
X135655000Y-106781939D01*
X135655000Y-106578061D01*
X135615226Y-106378102D01*
X135537205Y-106189744D01*
X135423937Y-106020226D01*
X135380000Y-105976289D01*
X135380000Y-102303711D01*
X135423937Y-102259774D01*
X135537205Y-102090256D01*
X135603351Y-101930565D01*
X136374040Y-101930565D01*
X136441020Y-102170656D01*
X136690048Y-102287756D01*
X136957135Y-102354023D01*
X137232017Y-102366910D01*
X137504133Y-102325922D01*
X137763023Y-102232636D01*
X137878980Y-102170656D01*
X137945960Y-101930565D01*
X137160000Y-101144605D01*
X136374040Y-101930565D01*
X135603351Y-101930565D01*
X135615226Y-101901898D01*
X135655000Y-101701939D01*
X135655000Y-101498061D01*
X135615226Y-101298102D01*
X135537205Y-101109744D01*
X135488611Y-101037017D01*
X135758090Y-101037017D01*
X135799078Y-101309133D01*
X135892364Y-101568023D01*
X135954344Y-101683980D01*
X136194435Y-101750960D01*
X136980395Y-100965000D01*
X136194435Y-100179040D01*
X135954344Y-100246020D01*
X135837244Y-100495048D01*
X135770977Y-100762135D01*
X135758090Y-101037017D01*
X135488611Y-101037017D01*
X135423937Y-100940226D01*
X135279774Y-100796063D01*
X135110256Y-100682795D01*
X134921898Y-100604774D01*
X134721939Y-100565000D01*
X134518061Y-100565000D01*
X134318102Y-100604774D01*
X134129744Y-100682795D01*
X134110000Y-100695987D01*
X134110000Y-100398711D01*
X134153937Y-100354774D01*
X134267205Y-100185256D01*
X134345226Y-99996898D01*
X134385000Y-99796939D01*
X134385000Y-99593061D01*
X134345226Y-99393102D01*
X134267205Y-99204744D01*
X134153937Y-99035226D01*
X134009774Y-98891063D01*
X133840256Y-98777795D01*
X133651898Y-98699774D01*
X133451939Y-98660000D01*
X133248061Y-98660000D01*
X133048102Y-98699774D01*
X132859744Y-98777795D01*
X132690226Y-98891063D01*
X132546063Y-99035226D01*
X132432795Y-99204744D01*
X132354774Y-99393102D01*
X132315000Y-99593061D01*
X132315000Y-99796939D01*
X132354774Y-99996898D01*
X132432795Y-100185256D01*
X132546063Y-100354774D01*
X132590000Y-100398711D01*
X132590000Y-101965988D01*
X132570256Y-101952795D01*
X132381898Y-101874774D01*
X132181939Y-101835000D01*
X131978061Y-101835000D01*
X131778102Y-101874774D01*
X131589744Y-101952795D01*
X131420226Y-102066063D01*
X131376289Y-102110000D01*
X129608711Y-102110000D01*
X129564774Y-102066063D01*
X129395256Y-101952795D01*
X129206898Y-101874774D01*
X129006939Y-101835000D01*
X128803061Y-101835000D01*
X128603102Y-101874774D01*
X128414744Y-101952795D01*
X128245226Y-102066063D01*
X128101063Y-102210226D01*
X127987795Y-102379744D01*
X127909774Y-102568102D01*
X127870000Y-102768061D01*
X127870000Y-102971939D01*
X127909774Y-103171898D01*
X127987795Y-103360256D01*
X128101063Y-103529774D01*
X128245226Y-103673937D01*
X128414744Y-103787205D01*
X128603102Y-103865226D01*
X128803061Y-103905000D01*
X129006939Y-103905000D01*
X129206898Y-103865226D01*
X129395256Y-103787205D01*
X129564774Y-103673937D01*
X129608711Y-103630000D01*
X131376289Y-103630000D01*
X131420226Y-103673937D01*
X131589744Y-103787205D01*
X131778102Y-103865226D01*
X131978061Y-103905000D01*
X132181939Y-103905000D01*
X132381898Y-103865226D01*
X132570256Y-103787205D01*
X132590000Y-103774012D01*
X132590001Y-106280000D01*
X132523061Y-106280000D01*
X132323102Y-106319774D01*
X132134744Y-106397795D01*
X131965226Y-106511063D01*
X131821063Y-106655226D01*
X131707795Y-106824744D01*
X131629774Y-107013102D01*
X131590000Y-107213061D01*
X131590000Y-107275198D01*
X131580199Y-107284999D01*
X129626753Y-107284999D01*
X129697932Y-107113158D01*
X129755000Y-106826260D01*
X129755000Y-106533740D01*
X129697932Y-106246842D01*
X129585990Y-105976589D01*
X129423475Y-105733368D01*
X129216632Y-105526525D01*
X128973411Y-105364010D01*
X128703158Y-105252068D01*
X128416260Y-105195000D01*
X128123740Y-105195000D01*
X127836842Y-105252068D01*
X127566589Y-105364010D01*
X127323368Y-105526525D01*
X127191513Y-105658380D01*
X127169502Y-105585820D01*
X127110537Y-105475506D01*
X127031185Y-105378815D01*
X126934494Y-105299463D01*
X126824180Y-105240498D01*
X126704482Y-105204188D01*
X126580000Y-105191928D01*
X124880000Y-105191928D01*
X124755518Y-105204188D01*
X124635820Y-105240498D01*
X124525506Y-105299463D01*
X124428815Y-105378815D01*
X124349463Y-105475506D01*
X124290498Y-105585820D01*
X124254188Y-105705518D01*
X124241928Y-105830000D01*
X123850000Y-105830000D01*
X123850000Y-92983380D01*
X124860319Y-91973061D01*
X125330000Y-91973061D01*
X125330000Y-92176939D01*
X125369774Y-92376898D01*
X125447795Y-92565256D01*
X125561063Y-92734774D01*
X125705226Y-92878937D01*
X125874744Y-92992205D01*
X126026519Y-93055073D01*
X125928506Y-93107463D01*
X125831815Y-93186815D01*
X125752463Y-93283506D01*
X125693498Y-93393820D01*
X125657188Y-93513518D01*
X125644928Y-93638000D01*
X125644928Y-95338000D01*
X125657188Y-95462482D01*
X125693498Y-95582180D01*
X125752463Y-95692494D01*
X125831815Y-95789185D01*
X125928506Y-95868537D01*
X126038820Y-95927502D01*
X126111380Y-95949513D01*
X125979525Y-96081368D01*
X125817010Y-96324589D01*
X125705068Y-96594842D01*
X125648000Y-96881740D01*
X125648000Y-97174260D01*
X125705068Y-97461158D01*
X125817010Y-97731411D01*
X125979525Y-97974632D01*
X126186368Y-98181475D01*
X126360760Y-98298000D01*
X126186368Y-98414525D01*
X125979525Y-98621368D01*
X125817010Y-98864589D01*
X125705068Y-99134842D01*
X125648000Y-99421740D01*
X125648000Y-99714260D01*
X125705068Y-100001158D01*
X125817010Y-100271411D01*
X125979525Y-100514632D01*
X126186368Y-100721475D01*
X126429589Y-100883990D01*
X126699842Y-100995932D01*
X126986740Y-101053000D01*
X127279260Y-101053000D01*
X127566158Y-100995932D01*
X127836411Y-100883990D01*
X128079632Y-100721475D01*
X128286475Y-100514632D01*
X128404100Y-100338594D01*
X128575412Y-100568269D01*
X128791645Y-100763178D01*
X129041748Y-100912157D01*
X129316109Y-101009481D01*
X129546000Y-100888814D01*
X129546000Y-99695000D01*
X129800000Y-99695000D01*
X129800000Y-100888814D01*
X130029891Y-101009481D01*
X130304252Y-100912157D01*
X130554355Y-100763178D01*
X130770588Y-100568269D01*
X130944641Y-100334920D01*
X131069825Y-100072099D01*
X131114476Y-99924890D01*
X130993155Y-99695000D01*
X129800000Y-99695000D01*
X129546000Y-99695000D01*
X129526000Y-99695000D01*
X129526000Y-99441000D01*
X129546000Y-99441000D01*
X129546000Y-99421000D01*
X129800000Y-99421000D01*
X129800000Y-99441000D01*
X130993155Y-99441000D01*
X131114476Y-99211110D01*
X131069825Y-99063901D01*
X130944641Y-98801080D01*
X130770588Y-98567731D01*
X130554355Y-98372822D01*
X130437466Y-98303195D01*
X130619632Y-98181475D01*
X130826475Y-97974632D01*
X130988990Y-97731411D01*
X131100932Y-97461158D01*
X131158000Y-97174260D01*
X131158000Y-96883189D01*
X131343061Y-96920000D01*
X131546939Y-96920000D01*
X131746898Y-96880226D01*
X131935256Y-96802205D01*
X132104774Y-96688937D01*
X132248937Y-96544774D01*
X132362205Y-96375256D01*
X132440226Y-96186898D01*
X132480000Y-95986939D01*
X132480000Y-95924801D01*
X135294802Y-93110000D01*
X135356939Y-93110000D01*
X135556898Y-93070226D01*
X135745256Y-92992205D01*
X135815088Y-92945545D01*
X135763000Y-93207408D01*
X135763000Y-93482592D01*
X135816686Y-93752490D01*
X135921995Y-94006727D01*
X136074880Y-94235535D01*
X136269465Y-94430120D01*
X136498273Y-94583005D01*
X136575515Y-94615000D01*
X136498273Y-94646995D01*
X136269465Y-94799880D01*
X136074880Y-94994465D01*
X135921995Y-95223273D01*
X135816686Y-95477510D01*
X135763000Y-95747408D01*
X135763000Y-96022592D01*
X135816686Y-96292490D01*
X135921995Y-96546727D01*
X136074880Y-96775535D01*
X136269465Y-96970120D01*
X136498273Y-97123005D01*
X136575515Y-97155000D01*
X136498273Y-97186995D01*
X136269465Y-97339880D01*
X136074880Y-97534465D01*
X135921995Y-97763273D01*
X135816686Y-98017510D01*
X135763000Y-98287408D01*
X135763000Y-98562592D01*
X135816686Y-98832490D01*
X135921995Y-99086727D01*
X136074880Y-99315535D01*
X136269465Y-99510120D01*
X136498273Y-99663005D01*
X136569943Y-99692692D01*
X136556977Y-99697364D01*
X136441020Y-99759344D01*
X136374040Y-99999435D01*
X137160000Y-100785395D01*
X137945960Y-99999435D01*
X137878980Y-99759344D01*
X137743240Y-99695515D01*
X137821727Y-99663005D01*
X138050535Y-99510120D01*
X138245120Y-99315535D01*
X138398005Y-99086727D01*
X138430000Y-99009485D01*
X138461995Y-99086727D01*
X138614880Y-99315535D01*
X138809465Y-99510120D01*
X139038273Y-99663005D01*
X139115515Y-99695000D01*
X139038273Y-99726995D01*
X138809465Y-99879880D01*
X138614880Y-100074465D01*
X138461995Y-100303273D01*
X138432308Y-100374943D01*
X138427636Y-100361977D01*
X138365656Y-100246020D01*
X138125565Y-100179040D01*
X137339605Y-100965000D01*
X138125565Y-101750960D01*
X138365656Y-101683980D01*
X138429485Y-101548240D01*
X138461995Y-101626727D01*
X138614880Y-101855535D01*
X138809465Y-102050120D01*
X139038273Y-102203005D01*
X139292510Y-102308314D01*
X139562408Y-102362000D01*
X139837592Y-102362000D01*
X140107490Y-102308314D01*
X140361727Y-102203005D01*
X140590535Y-102050120D01*
X140785120Y-101855535D01*
X140938005Y-101626727D01*
X141043314Y-101372490D01*
X141097000Y-101102592D01*
X141097000Y-100827408D01*
X141043314Y-100557510D01*
X140938005Y-100303273D01*
X140785120Y-100074465D01*
X140590535Y-99879880D01*
X140361727Y-99726995D01*
X140284485Y-99695000D01*
X140361727Y-99663005D01*
X140590535Y-99510120D01*
X140785120Y-99315535D01*
X140938005Y-99086727D01*
X141043314Y-98832490D01*
X141097000Y-98562592D01*
X141097000Y-98287408D01*
X141043314Y-98017510D01*
X140938005Y-97763273D01*
X140785120Y-97534465D01*
X140590535Y-97339880D01*
X140361727Y-97186995D01*
X140284485Y-97155000D01*
X140361727Y-97123005D01*
X140590535Y-96970120D01*
X140785120Y-96775535D01*
X140938005Y-96546727D01*
X141043314Y-96292490D01*
X141097000Y-96022592D01*
X141097000Y-95747408D01*
X141043314Y-95477510D01*
X140938005Y-95223273D01*
X140785120Y-94994465D01*
X140590535Y-94799880D01*
X140361727Y-94646995D01*
X140284485Y-94615000D01*
X140361727Y-94583005D01*
X140590535Y-94430120D01*
X140785120Y-94235535D01*
X140938005Y-94006727D01*
X141043314Y-93752490D01*
X141097000Y-93482592D01*
X141097000Y-93207408D01*
X141043314Y-92937510D01*
X140938005Y-92683273D01*
X140785120Y-92454465D01*
X140590535Y-92259880D01*
X140361727Y-92106995D01*
X140284485Y-92075000D01*
X140361727Y-92043005D01*
X140590535Y-91890120D01*
X140785120Y-91695535D01*
X140938005Y-91466727D01*
X141043314Y-91212490D01*
X141097000Y-90942592D01*
X141097000Y-90667408D01*
X141043314Y-90397510D01*
X140938005Y-90143273D01*
X140785120Y-89914465D01*
X140590535Y-89719880D01*
X140361727Y-89566995D01*
X140107490Y-89461686D01*
X139837592Y-89408000D01*
X139562408Y-89408000D01*
X139292510Y-89461686D01*
X139038273Y-89566995D01*
X138809465Y-89719880D01*
X138614880Y-89914465D01*
X138461995Y-90143273D01*
X138430000Y-90220515D01*
X138398005Y-90143273D01*
X138245120Y-89914465D01*
X138188103Y-89857448D01*
X138285256Y-89817205D01*
X138454774Y-89703937D01*
X138598937Y-89559774D01*
X138712205Y-89390256D01*
X138790226Y-89201898D01*
X138830000Y-89001939D01*
X138830000Y-88798061D01*
X138790226Y-88598102D01*
X138712205Y-88409744D01*
X138598937Y-88240226D01*
X138454774Y-88096063D01*
X138285256Y-87982795D01*
X138096898Y-87904774D01*
X137896939Y-87865000D01*
X137693061Y-87865000D01*
X137493102Y-87904774D01*
X137304744Y-87982795D01*
X137135226Y-88096063D01*
X137091289Y-88140000D01*
X129577322Y-88140000D01*
X129539999Y-88136324D01*
X129502676Y-88140000D01*
X129502667Y-88140000D01*
X129391014Y-88150997D01*
X129247753Y-88194454D01*
X129115723Y-88265026D01*
X129032083Y-88333668D01*
X128999999Y-88359999D01*
X128976201Y-88388997D01*
X126325199Y-91040000D01*
X126263061Y-91040000D01*
X126063102Y-91079774D01*
X125874744Y-91157795D01*
X125705226Y-91271063D01*
X125561063Y-91415226D01*
X125447795Y-91584744D01*
X125369774Y-91773102D01*
X125330000Y-91973061D01*
X124860319Y-91973061D01*
X131083381Y-85750000D01*
X145390000Y-85750000D01*
X145390001Y-127610000D01*
G37*
X145390001Y-127610000D02*
X131083381Y-127610000D01*
X126993946Y-123520565D01*
X136374040Y-123520565D01*
X136441020Y-123760656D01*
X136690048Y-123877756D01*
X136957135Y-123944023D01*
X137232017Y-123956910D01*
X137504133Y-123915922D01*
X137763023Y-123822636D01*
X137878980Y-123760656D01*
X137945960Y-123520565D01*
X137160000Y-122734605D01*
X136374040Y-123520565D01*
X126993946Y-123520565D01*
X126100398Y-122627017D01*
X135758090Y-122627017D01*
X135799078Y-122899133D01*
X135892364Y-123158023D01*
X135954344Y-123273980D01*
X136194435Y-123340960D01*
X136980395Y-122555000D01*
X136194435Y-121769040D01*
X135954344Y-121836020D01*
X135837244Y-122085048D01*
X135770977Y-122352135D01*
X135758090Y-122627017D01*
X126100398Y-122627017D01*
X123850000Y-120376620D01*
X123850000Y-117196890D01*
X124288524Y-117196890D01*
X124333175Y-117344099D01*
X124458359Y-117606920D01*
X124632412Y-117840269D01*
X124848645Y-118035178D01*
X125098748Y-118184157D01*
X125373109Y-118281481D01*
X125603000Y-118160814D01*
X125603000Y-116967000D01*
X124409845Y-116967000D01*
X124288524Y-117196890D01*
X123850000Y-117196890D01*
X123850000Y-105830000D01*
X124241928Y-105830000D01*
X124241928Y-107530000D01*
X124254188Y-107654482D01*
X124290498Y-107774180D01*
X124349463Y-107884494D01*
X124428815Y-107981185D01*
X124525506Y-108060537D01*
X124635820Y-108119502D01*
X124708380Y-108141513D01*
X124576525Y-108273368D01*
X124414010Y-108516589D01*
X124302068Y-108786842D01*
X124245000Y-109073740D01*
X124245000Y-109366260D01*
X124302068Y-109653158D01*
X124414010Y-109923411D01*
X124576525Y-110166632D01*
X124783368Y-110373475D01*
X124957760Y-110490000D01*
X124783368Y-110606525D01*
X124576525Y-110813368D01*
X124414010Y-111056589D01*
X124302068Y-111326842D01*
X124245000Y-111613740D01*
X124245000Y-111906260D01*
X124302068Y-112193158D01*
X124414010Y-112463411D01*
X124576525Y-112706632D01*
X124783368Y-112913475D01*
X124957760Y-113030000D01*
X124783368Y-113146525D01*
X124576525Y-113353368D01*
X124414010Y-113596589D01*
X124302068Y-113866842D01*
X124245000Y-114153740D01*
X124245000Y-114446260D01*
X124302068Y-114733158D01*
X124414010Y-115003411D01*
X124576525Y-115246632D01*
X124783368Y-115453475D01*
X124965534Y-115575195D01*
X124848645Y-115644822D01*
X124632412Y-115839731D01*
X124458359Y-116073080D01*
X124333175Y-116335901D01*
X124288524Y-116483110D01*
X124409845Y-116713000D01*
X125603000Y-116713000D01*
X125603000Y-116693000D01*
X125857000Y-116693000D01*
X125857000Y-116713000D01*
X125877000Y-116713000D01*
X125877000Y-116967000D01*
X125857000Y-116967000D01*
X125857000Y-118160814D01*
X126086891Y-118281481D01*
X126361252Y-118184157D01*
X126611355Y-118035178D01*
X126827588Y-117840269D01*
X126998900Y-117610594D01*
X127116525Y-117786632D01*
X127323368Y-117993475D01*
X127566589Y-118155990D01*
X127836842Y-118267932D01*
X128123740Y-118325000D01*
X128416260Y-118325000D01*
X128703158Y-118267932D01*
X128973411Y-118155990D01*
X129216632Y-117993475D01*
X129423475Y-117786632D01*
X129585990Y-117543411D01*
X129697932Y-117273158D01*
X129755000Y-116986260D01*
X129755000Y-116693740D01*
X129697932Y-116406842D01*
X129585990Y-116136589D01*
X129423475Y-115893368D01*
X129216632Y-115686525D01*
X129042240Y-115570000D01*
X129216632Y-115453475D01*
X129423475Y-115246632D01*
X129585990Y-115003411D01*
X129697932Y-114733158D01*
X129755000Y-114446260D01*
X129755000Y-114153740D01*
X129697932Y-113866842D01*
X129585990Y-113596589D01*
X129423475Y-113353368D01*
X129216632Y-113146525D01*
X129042240Y-113030000D01*
X129216632Y-112913475D01*
X129423475Y-112706632D01*
X129585990Y-112463411D01*
X129671318Y-112257408D01*
X135763000Y-112257408D01*
X135763000Y-112532592D01*
X135816686Y-112802490D01*
X135921995Y-113056727D01*
X136074880Y-113285535D01*
X136269465Y-113480120D01*
X136498273Y-113633005D01*
X136575515Y-113665000D01*
X136498273Y-113696995D01*
X136269465Y-113849880D01*
X136074880Y-114044465D01*
X135921995Y-114273273D01*
X135816686Y-114527510D01*
X135763000Y-114797408D01*
X135763000Y-115072592D01*
X135816686Y-115342490D01*
X135921995Y-115596727D01*
X136074880Y-115825535D01*
X136269465Y-116020120D01*
X136498273Y-116173005D01*
X136575515Y-116205000D01*
X136498273Y-116236995D01*
X136269465Y-116389880D01*
X136074880Y-116584465D01*
X135921995Y-116813273D01*
X135816686Y-117067510D01*
X135763000Y-117337408D01*
X135763000Y-117612592D01*
X135816686Y-117882490D01*
X135921995Y-118136727D01*
X136074880Y-118365535D01*
X136269465Y-118560120D01*
X136498273Y-118713005D01*
X136575515Y-118745000D01*
X136498273Y-118776995D01*
X136269465Y-118929880D01*
X136074880Y-119124465D01*
X135921995Y-119353273D01*
X135816686Y-119607510D01*
X135763000Y-119877408D01*
X135763000Y-120152592D01*
X135816686Y-120422490D01*
X135921995Y-120676727D01*
X136074880Y-120905535D01*
X136269465Y-121100120D01*
X136498273Y-121253005D01*
X136569943Y-121282692D01*
X136556977Y-121287364D01*
X136441020Y-121349344D01*
X136374040Y-121589435D01*
X137160000Y-122375395D01*
X137945960Y-121589435D01*
X137878980Y-121349344D01*
X137743240Y-121285515D01*
X137821727Y-121253005D01*
X138050535Y-121100120D01*
X138245120Y-120905535D01*
X138398005Y-120676727D01*
X138430000Y-120599485D01*
X138461995Y-120676727D01*
X138614880Y-120905535D01*
X138809465Y-121100120D01*
X139038273Y-121253005D01*
X139115515Y-121285000D01*
X139038273Y-121316995D01*
X138809465Y-121469880D01*
X138614880Y-121664465D01*
X138461995Y-121893273D01*
X138432308Y-121964943D01*
X138427636Y-121951977D01*
X138365656Y-121836020D01*
X138125565Y-121769040D01*
X137339605Y-122555000D01*
X138125565Y-123340960D01*
X138365656Y-123273980D01*
X138429485Y-123138240D01*
X138461995Y-123216727D01*
X138614880Y-123445535D01*
X138809465Y-123640120D01*
X139038273Y-123793005D01*
X139292510Y-123898314D01*
X139562408Y-123952000D01*
X139837592Y-123952000D01*
X140107490Y-123898314D01*
X140361727Y-123793005D01*
X140590535Y-123640120D01*
X140785120Y-123445535D01*
X140938005Y-123216727D01*
X141043314Y-122962490D01*
X141097000Y-122692592D01*
X141097000Y-122417408D01*
X141043314Y-122147510D01*
X140938005Y-121893273D01*
X140785120Y-121664465D01*
X140590535Y-121469880D01*
X140361727Y-121316995D01*
X140284485Y-121285000D01*
X140361727Y-121253005D01*
X140590535Y-121100120D01*
X140785120Y-120905535D01*
X140938005Y-120676727D01*
X141043314Y-120422490D01*
X141097000Y-120152592D01*
X141097000Y-119877408D01*
X141043314Y-119607510D01*
X140938005Y-119353273D01*
X140785120Y-119124465D01*
X140590535Y-118929880D01*
X140361727Y-118776995D01*
X140284485Y-118745000D01*
X140361727Y-118713005D01*
X140590535Y-118560120D01*
X140785120Y-118365535D01*
X140938005Y-118136727D01*
X141043314Y-117882490D01*
X141097000Y-117612592D01*
X141097000Y-117337408D01*
X141043314Y-117067510D01*
X140938005Y-116813273D01*
X140785120Y-116584465D01*
X140590535Y-116389880D01*
X140361727Y-116236995D01*
X140284485Y-116205000D01*
X140361727Y-116173005D01*
X140590535Y-116020120D01*
X140785120Y-115825535D01*
X140938005Y-115596727D01*
X141043314Y-115342490D01*
X141097000Y-115072592D01*
X141097000Y-114797408D01*
X141043314Y-114527510D01*
X140938005Y-114273273D01*
X140785120Y-114044465D01*
X140590535Y-113849880D01*
X140361727Y-113696995D01*
X140284485Y-113665000D01*
X140361727Y-113633005D01*
X140590535Y-113480120D01*
X140785120Y-113285535D01*
X140938005Y-113056727D01*
X141043314Y-112802490D01*
X141097000Y-112532592D01*
X141097000Y-112257408D01*
X141043314Y-111987510D01*
X140938005Y-111733273D01*
X140785120Y-111504465D01*
X140590535Y-111309880D01*
X140361727Y-111156995D01*
X140107490Y-111051686D01*
X139837592Y-110998000D01*
X139562408Y-110998000D01*
X139292510Y-111051686D01*
X139038273Y-111156995D01*
X138809465Y-111309880D01*
X138614880Y-111504465D01*
X138461995Y-111733273D01*
X138430000Y-111810515D01*
X138398005Y-111733273D01*
X138245120Y-111504465D01*
X138050535Y-111309880D01*
X137821727Y-111156995D01*
X137567490Y-111051686D01*
X137297592Y-110998000D01*
X137022408Y-110998000D01*
X136752510Y-111051686D01*
X136498273Y-111156995D01*
X136269465Y-111309880D01*
X136074880Y-111504465D01*
X135921995Y-111733273D01*
X135816686Y-111987510D01*
X135763000Y-112257408D01*
X129671318Y-112257408D01*
X129697932Y-112193158D01*
X129755000Y-111906260D01*
X129755000Y-111613740D01*
X129701544Y-111344999D01*
X130679089Y-111344999D01*
X130716411Y-111348675D01*
X130753733Y-111344999D01*
X130753744Y-111344999D01*
X130865397Y-111334002D01*
X131008658Y-111290545D01*
X131140687Y-111219973D01*
X131256412Y-111125000D01*
X131280215Y-111095996D01*
X133861003Y-108515209D01*
X133890001Y-108491411D01*
X133984974Y-108375686D01*
X134055546Y-108243657D01*
X134099003Y-108100396D01*
X134110000Y-107988743D01*
X134110000Y-107988734D01*
X134113676Y-107951411D01*
X134110000Y-107914088D01*
X134110000Y-107584013D01*
X134129744Y-107597205D01*
X134318102Y-107675226D01*
X134518061Y-107715000D01*
X134721939Y-107715000D01*
X134921898Y-107675226D01*
X135110256Y-107597205D01*
X135279774Y-107483937D01*
X135423937Y-107339774D01*
X135537205Y-107170256D01*
X135615226Y-106981898D01*
X135655000Y-106781939D01*
X135655000Y-106578061D01*
X135615226Y-106378102D01*
X135537205Y-106189744D01*
X135423937Y-106020226D01*
X135380000Y-105976289D01*
X135380000Y-102303711D01*
X135423937Y-102259774D01*
X135537205Y-102090256D01*
X135603351Y-101930565D01*
X136374040Y-101930565D01*
X136441020Y-102170656D01*
X136690048Y-102287756D01*
X136957135Y-102354023D01*
X137232017Y-102366910D01*
X137504133Y-102325922D01*
X137763023Y-102232636D01*
X137878980Y-102170656D01*
X137945960Y-101930565D01*
X137160000Y-101144605D01*
X136374040Y-101930565D01*
X135603351Y-101930565D01*
X135615226Y-101901898D01*
X135655000Y-101701939D01*
X135655000Y-101498061D01*
X135615226Y-101298102D01*
X135537205Y-101109744D01*
X135488611Y-101037017D01*
X135758090Y-101037017D01*
X135799078Y-101309133D01*
X135892364Y-101568023D01*
X135954344Y-101683980D01*
X136194435Y-101750960D01*
X136980395Y-100965000D01*
X136194435Y-100179040D01*
X135954344Y-100246020D01*
X135837244Y-100495048D01*
X135770977Y-100762135D01*
X135758090Y-101037017D01*
X135488611Y-101037017D01*
X135423937Y-100940226D01*
X135279774Y-100796063D01*
X135110256Y-100682795D01*
X134921898Y-100604774D01*
X134721939Y-100565000D01*
X134518061Y-100565000D01*
X134318102Y-100604774D01*
X134129744Y-100682795D01*
X134110000Y-100695987D01*
X134110000Y-100398711D01*
X134153937Y-100354774D01*
X134267205Y-100185256D01*
X134345226Y-99996898D01*
X134385000Y-99796939D01*
X134385000Y-99593061D01*
X134345226Y-99393102D01*
X134267205Y-99204744D01*
X134153937Y-99035226D01*
X134009774Y-98891063D01*
X133840256Y-98777795D01*
X133651898Y-98699774D01*
X133451939Y-98660000D01*
X133248061Y-98660000D01*
X133048102Y-98699774D01*
X132859744Y-98777795D01*
X132690226Y-98891063D01*
X132546063Y-99035226D01*
X132432795Y-99204744D01*
X132354774Y-99393102D01*
X132315000Y-99593061D01*
X132315000Y-99796939D01*
X132354774Y-99996898D01*
X132432795Y-100185256D01*
X132546063Y-100354774D01*
X132590000Y-100398711D01*
X132590000Y-101965988D01*
X132570256Y-101952795D01*
X132381898Y-101874774D01*
X132181939Y-101835000D01*
X131978061Y-101835000D01*
X131778102Y-101874774D01*
X131589744Y-101952795D01*
X131420226Y-102066063D01*
X131376289Y-102110000D01*
X129608711Y-102110000D01*
X129564774Y-102066063D01*
X129395256Y-101952795D01*
X129206898Y-101874774D01*
X129006939Y-101835000D01*
X128803061Y-101835000D01*
X128603102Y-101874774D01*
X128414744Y-101952795D01*
X128245226Y-102066063D01*
X128101063Y-102210226D01*
X127987795Y-102379744D01*
X127909774Y-102568102D01*
X127870000Y-102768061D01*
X127870000Y-102971939D01*
X127909774Y-103171898D01*
X127987795Y-103360256D01*
X128101063Y-103529774D01*
X128245226Y-103673937D01*
X128414744Y-103787205D01*
X128603102Y-103865226D01*
X128803061Y-103905000D01*
X129006939Y-103905000D01*
X129206898Y-103865226D01*
X129395256Y-103787205D01*
X129564774Y-103673937D01*
X129608711Y-103630000D01*
X131376289Y-103630000D01*
X131420226Y-103673937D01*
X131589744Y-103787205D01*
X131778102Y-103865226D01*
X131978061Y-103905000D01*
X132181939Y-103905000D01*
X132381898Y-103865226D01*
X132570256Y-103787205D01*
X132590000Y-103774012D01*
X132590001Y-106280000D01*
X132523061Y-106280000D01*
X132323102Y-106319774D01*
X132134744Y-106397795D01*
X131965226Y-106511063D01*
X131821063Y-106655226D01*
X131707795Y-106824744D01*
X131629774Y-107013102D01*
X131590000Y-107213061D01*
X131590000Y-107275198D01*
X131580199Y-107284999D01*
X129626753Y-107284999D01*
X129697932Y-107113158D01*
X129755000Y-106826260D01*
X129755000Y-106533740D01*
X129697932Y-106246842D01*
X129585990Y-105976589D01*
X129423475Y-105733368D01*
X129216632Y-105526525D01*
X128973411Y-105364010D01*
X128703158Y-105252068D01*
X128416260Y-105195000D01*
X128123740Y-105195000D01*
X127836842Y-105252068D01*
X127566589Y-105364010D01*
X127323368Y-105526525D01*
X127191513Y-105658380D01*
X127169502Y-105585820D01*
X127110537Y-105475506D01*
X127031185Y-105378815D01*
X126934494Y-105299463D01*
X126824180Y-105240498D01*
X126704482Y-105204188D01*
X126580000Y-105191928D01*
X124880000Y-105191928D01*
X124755518Y-105204188D01*
X124635820Y-105240498D01*
X124525506Y-105299463D01*
X124428815Y-105378815D01*
X124349463Y-105475506D01*
X124290498Y-105585820D01*
X124254188Y-105705518D01*
X124241928Y-105830000D01*
X123850000Y-105830000D01*
X123850000Y-92983380D01*
X124860319Y-91973061D01*
X125330000Y-91973061D01*
X125330000Y-92176939D01*
X125369774Y-92376898D01*
X125447795Y-92565256D01*
X125561063Y-92734774D01*
X125705226Y-92878937D01*
X125874744Y-92992205D01*
X126026519Y-93055073D01*
X125928506Y-93107463D01*
X125831815Y-93186815D01*
X125752463Y-93283506D01*
X125693498Y-93393820D01*
X125657188Y-93513518D01*
X125644928Y-93638000D01*
X125644928Y-95338000D01*
X125657188Y-95462482D01*
X125693498Y-95582180D01*
X125752463Y-95692494D01*
X125831815Y-95789185D01*
X125928506Y-95868537D01*
X126038820Y-95927502D01*
X126111380Y-95949513D01*
X125979525Y-96081368D01*
X125817010Y-96324589D01*
X125705068Y-96594842D01*
X125648000Y-96881740D01*
X125648000Y-97174260D01*
X125705068Y-97461158D01*
X125817010Y-97731411D01*
X125979525Y-97974632D01*
X126186368Y-98181475D01*
X126360760Y-98298000D01*
X126186368Y-98414525D01*
X125979525Y-98621368D01*
X125817010Y-98864589D01*
X125705068Y-99134842D01*
X125648000Y-99421740D01*
X125648000Y-99714260D01*
X125705068Y-100001158D01*
X125817010Y-100271411D01*
X125979525Y-100514632D01*
X126186368Y-100721475D01*
X126429589Y-100883990D01*
X126699842Y-100995932D01*
X126986740Y-101053000D01*
X127279260Y-101053000D01*
X127566158Y-100995932D01*
X127836411Y-100883990D01*
X128079632Y-100721475D01*
X128286475Y-100514632D01*
X128404100Y-100338594D01*
X128575412Y-100568269D01*
X128791645Y-100763178D01*
X129041748Y-100912157D01*
X129316109Y-101009481D01*
X129546000Y-100888814D01*
X129546000Y-99695000D01*
X129800000Y-99695000D01*
X129800000Y-100888814D01*
X130029891Y-101009481D01*
X130304252Y-100912157D01*
X130554355Y-100763178D01*
X130770588Y-100568269D01*
X130944641Y-100334920D01*
X131069825Y-100072099D01*
X131114476Y-99924890D01*
X130993155Y-99695000D01*
X129800000Y-99695000D01*
X129546000Y-99695000D01*
X129526000Y-99695000D01*
X129526000Y-99441000D01*
X129546000Y-99441000D01*
X129546000Y-99421000D01*
X129800000Y-99421000D01*
X129800000Y-99441000D01*
X130993155Y-99441000D01*
X131114476Y-99211110D01*
X131069825Y-99063901D01*
X130944641Y-98801080D01*
X130770588Y-98567731D01*
X130554355Y-98372822D01*
X130437466Y-98303195D01*
X130619632Y-98181475D01*
X130826475Y-97974632D01*
X130988990Y-97731411D01*
X131100932Y-97461158D01*
X131158000Y-97174260D01*
X131158000Y-96883189D01*
X131343061Y-96920000D01*
X131546939Y-96920000D01*
X131746898Y-96880226D01*
X131935256Y-96802205D01*
X132104774Y-96688937D01*
X132248937Y-96544774D01*
X132362205Y-96375256D01*
X132440226Y-96186898D01*
X132480000Y-95986939D01*
X132480000Y-95924801D01*
X135294802Y-93110000D01*
X135356939Y-93110000D01*
X135556898Y-93070226D01*
X135745256Y-92992205D01*
X135815088Y-92945545D01*
X135763000Y-93207408D01*
X135763000Y-93482592D01*
X135816686Y-93752490D01*
X135921995Y-94006727D01*
X136074880Y-94235535D01*
X136269465Y-94430120D01*
X136498273Y-94583005D01*
X136575515Y-94615000D01*
X136498273Y-94646995D01*
X136269465Y-94799880D01*
X136074880Y-94994465D01*
X135921995Y-95223273D01*
X135816686Y-95477510D01*
X135763000Y-95747408D01*
X135763000Y-96022592D01*
X135816686Y-96292490D01*
X135921995Y-96546727D01*
X136074880Y-96775535D01*
X136269465Y-96970120D01*
X136498273Y-97123005D01*
X136575515Y-97155000D01*
X136498273Y-97186995D01*
X136269465Y-97339880D01*
X136074880Y-97534465D01*
X135921995Y-97763273D01*
X135816686Y-98017510D01*
X135763000Y-98287408D01*
X135763000Y-98562592D01*
X135816686Y-98832490D01*
X135921995Y-99086727D01*
X136074880Y-99315535D01*
X136269465Y-99510120D01*
X136498273Y-99663005D01*
X136569943Y-99692692D01*
X136556977Y-99697364D01*
X136441020Y-99759344D01*
X136374040Y-99999435D01*
X137160000Y-100785395D01*
X137945960Y-99999435D01*
X137878980Y-99759344D01*
X137743240Y-99695515D01*
X137821727Y-99663005D01*
X138050535Y-99510120D01*
X138245120Y-99315535D01*
X138398005Y-99086727D01*
X138430000Y-99009485D01*
X138461995Y-99086727D01*
X138614880Y-99315535D01*
X138809465Y-99510120D01*
X139038273Y-99663005D01*
X139115515Y-99695000D01*
X139038273Y-99726995D01*
X138809465Y-99879880D01*
X138614880Y-100074465D01*
X138461995Y-100303273D01*
X138432308Y-100374943D01*
X138427636Y-100361977D01*
X138365656Y-100246020D01*
X138125565Y-100179040D01*
X137339605Y-100965000D01*
X138125565Y-101750960D01*
X138365656Y-101683980D01*
X138429485Y-101548240D01*
X138461995Y-101626727D01*
X138614880Y-101855535D01*
X138809465Y-102050120D01*
X139038273Y-102203005D01*
X139292510Y-102308314D01*
X139562408Y-102362000D01*
X139837592Y-102362000D01*
X140107490Y-102308314D01*
X140361727Y-102203005D01*
X140590535Y-102050120D01*
X140785120Y-101855535D01*
X140938005Y-101626727D01*
X141043314Y-101372490D01*
X141097000Y-101102592D01*
X141097000Y-100827408D01*
X141043314Y-100557510D01*
X140938005Y-100303273D01*
X140785120Y-100074465D01*
X140590535Y-99879880D01*
X140361727Y-99726995D01*
X140284485Y-99695000D01*
X140361727Y-99663005D01*
X140590535Y-99510120D01*
X140785120Y-99315535D01*
X140938005Y-99086727D01*
X141043314Y-98832490D01*
X141097000Y-98562592D01*
X141097000Y-98287408D01*
X141043314Y-98017510D01*
X140938005Y-97763273D01*
X140785120Y-97534465D01*
X140590535Y-97339880D01*
X140361727Y-97186995D01*
X140284485Y-97155000D01*
X140361727Y-97123005D01*
X140590535Y-96970120D01*
X140785120Y-96775535D01*
X140938005Y-96546727D01*
X141043314Y-96292490D01*
X141097000Y-96022592D01*
X141097000Y-95747408D01*
X141043314Y-95477510D01*
X140938005Y-95223273D01*
X140785120Y-94994465D01*
X140590535Y-94799880D01*
X140361727Y-94646995D01*
X140284485Y-94615000D01*
X140361727Y-94583005D01*
X140590535Y-94430120D01*
X140785120Y-94235535D01*
X140938005Y-94006727D01*
X141043314Y-93752490D01*
X141097000Y-93482592D01*
X141097000Y-93207408D01*
X141043314Y-92937510D01*
X140938005Y-92683273D01*
X140785120Y-92454465D01*
X140590535Y-92259880D01*
X140361727Y-92106995D01*
X140284485Y-92075000D01*
X140361727Y-92043005D01*
X140590535Y-91890120D01*
X140785120Y-91695535D01*
X140938005Y-91466727D01*
X141043314Y-91212490D01*
X141097000Y-90942592D01*
X141097000Y-90667408D01*
X141043314Y-90397510D01*
X140938005Y-90143273D01*
X140785120Y-89914465D01*
X140590535Y-89719880D01*
X140361727Y-89566995D01*
X140107490Y-89461686D01*
X139837592Y-89408000D01*
X139562408Y-89408000D01*
X139292510Y-89461686D01*
X139038273Y-89566995D01*
X138809465Y-89719880D01*
X138614880Y-89914465D01*
X138461995Y-90143273D01*
X138430000Y-90220515D01*
X138398005Y-90143273D01*
X138245120Y-89914465D01*
X138188103Y-89857448D01*
X138285256Y-89817205D01*
X138454774Y-89703937D01*
X138598937Y-89559774D01*
X138712205Y-89390256D01*
X138790226Y-89201898D01*
X138830000Y-89001939D01*
X138830000Y-88798061D01*
X138790226Y-88598102D01*
X138712205Y-88409744D01*
X138598937Y-88240226D01*
X138454774Y-88096063D01*
X138285256Y-87982795D01*
X138096898Y-87904774D01*
X137896939Y-87865000D01*
X137693061Y-87865000D01*
X137493102Y-87904774D01*
X137304744Y-87982795D01*
X137135226Y-88096063D01*
X137091289Y-88140000D01*
X129577322Y-88140000D01*
X129539999Y-88136324D01*
X129502676Y-88140000D01*
X129502667Y-88140000D01*
X129391014Y-88150997D01*
X129247753Y-88194454D01*
X129115723Y-88265026D01*
X129032083Y-88333668D01*
X128999999Y-88359999D01*
X128976201Y-88388997D01*
X126325199Y-91040000D01*
X126263061Y-91040000D01*
X126063102Y-91079774D01*
X125874744Y-91157795D01*
X125705226Y-91271063D01*
X125561063Y-91415226D01*
X125447795Y-91584744D01*
X125369774Y-91773102D01*
X125330000Y-91973061D01*
X124860319Y-91973061D01*
X131083381Y-85750000D01*
X145390000Y-85750000D01*
X145390001Y-127610000D01*
M02*
