G04 #@! TF.GenerationSoftware,KiCad,Pcbnew,(5.1.5)-3*
G04 #@! TF.CreationDate,2021-11-14T23:27:47-05:00*
G04 #@! TF.ProjectId,SKR-Mini_Screen,534b522d-4d69-46e6-995f-53637265656e,rev?*
G04 #@! TF.SameCoordinates,Original*
G04 #@! TF.FileFunction,Copper,L1,Top*
G04 #@! TF.FilePolarity,Positive*
%FSLAX46Y46*%
G04 Gerber Fmt 4.6, Leading zero omitted, Abs format (unit mm)*
G04 Created by KiCad (PCBNEW (5.1.5)-3) date 2021-11-14 23:27:47*
%MOMM*%
%LPD*%
G04 APERTURE LIST*
%ADD10C,0.100000*%
%ADD11O,1.700000X1.700000*%
%ADD12R,1.700000X1.700000*%
%ADD13C,1.524000*%
%ADD14C,0.800000*%
%ADD15C,0.250000*%
%ADD16C,0.254000*%
G04 APERTURE END LIST*
D10*
G36*
X127250000Y-102570000D02*
G01*
X126750000Y-102570000D01*
X126750000Y-103170000D01*
X127250000Y-103170000D01*
X127250000Y-102570000D01*
G37*
G04 #@! TA.AperFunction,SMDPad,CuDef*
G36*
X126850000Y-103620000D02*
G01*
X126350000Y-103620000D01*
X126350000Y-103619398D01*
X126325466Y-103619398D01*
X126276635Y-103614588D01*
X126228510Y-103605016D01*
X126181555Y-103590772D01*
X126136222Y-103571995D01*
X126092949Y-103548864D01*
X126052150Y-103521604D01*
X126014221Y-103490476D01*
X125979524Y-103455779D01*
X125948396Y-103417850D01*
X125921136Y-103377051D01*
X125898005Y-103333778D01*
X125879228Y-103288445D01*
X125864984Y-103241490D01*
X125855412Y-103193365D01*
X125850602Y-103144534D01*
X125850602Y-103120000D01*
X125850000Y-103120000D01*
X125850000Y-102620000D01*
X125850602Y-102620000D01*
X125850602Y-102595466D01*
X125855412Y-102546635D01*
X125864984Y-102498510D01*
X125879228Y-102451555D01*
X125898005Y-102406222D01*
X125921136Y-102362949D01*
X125948396Y-102322150D01*
X125979524Y-102284221D01*
X126014221Y-102249524D01*
X126052150Y-102218396D01*
X126092949Y-102191136D01*
X126136222Y-102168005D01*
X126181555Y-102149228D01*
X126228510Y-102134984D01*
X126276635Y-102125412D01*
X126325466Y-102120602D01*
X126350000Y-102120602D01*
X126350000Y-102120000D01*
X126850000Y-102120000D01*
X126850000Y-103620000D01*
G37*
G04 #@! TD.AperFunction*
G04 #@! TA.AperFunction,SMDPad,CuDef*
G36*
X127650000Y-102120602D02*
G01*
X127674534Y-102120602D01*
X127723365Y-102125412D01*
X127771490Y-102134984D01*
X127818445Y-102149228D01*
X127863778Y-102168005D01*
X127907051Y-102191136D01*
X127947850Y-102218396D01*
X127985779Y-102249524D01*
X128020476Y-102284221D01*
X128051604Y-102322150D01*
X128078864Y-102362949D01*
X128101995Y-102406222D01*
X128120772Y-102451555D01*
X128135016Y-102498510D01*
X128144588Y-102546635D01*
X128149398Y-102595466D01*
X128149398Y-102620000D01*
X128150000Y-102620000D01*
X128150000Y-103120000D01*
X128149398Y-103120000D01*
X128149398Y-103144534D01*
X128144588Y-103193365D01*
X128135016Y-103241490D01*
X128120772Y-103288445D01*
X128101995Y-103333778D01*
X128078864Y-103377051D01*
X128051604Y-103417850D01*
X128020476Y-103455779D01*
X127985779Y-103490476D01*
X127947850Y-103521604D01*
X127907051Y-103548864D01*
X127863778Y-103571995D01*
X127818445Y-103590772D01*
X127771490Y-103605016D01*
X127723365Y-103614588D01*
X127674534Y-103619398D01*
X127650000Y-103619398D01*
X127650000Y-103620000D01*
X127150000Y-103620000D01*
X127150000Y-102120000D01*
X127650000Y-102120000D01*
X127650000Y-102120602D01*
G37*
G04 #@! TD.AperFunction*
D11*
X128270000Y-116840000D03*
X125730000Y-116840000D03*
X128270000Y-114300000D03*
X125730000Y-114300000D03*
X128270000Y-111760000D03*
X125730000Y-111760000D03*
X128270000Y-109220000D03*
X125730000Y-109220000D03*
X128270000Y-106680000D03*
D12*
X125730000Y-106680000D03*
D13*
X139700000Y-100965000D03*
X137160000Y-100965000D03*
X139700000Y-98425000D03*
X137160000Y-98425000D03*
X139700000Y-95885000D03*
X137160000Y-95885000D03*
X139700000Y-93345000D03*
X137160000Y-93345000D03*
X139700000Y-90805000D03*
X137160000Y-90805000D03*
X139700000Y-122555000D03*
X137160000Y-122555000D03*
X139700000Y-120015000D03*
X137160000Y-120015000D03*
X139700000Y-117475000D03*
X137160000Y-117475000D03*
X139700000Y-114935000D03*
X137160000Y-114935000D03*
X139700000Y-112395000D03*
X137160000Y-112395000D03*
D11*
X129673000Y-99568000D03*
X127133000Y-99568000D03*
X129673000Y-97028000D03*
X127133000Y-97028000D03*
X129673000Y-94488000D03*
D12*
X127133000Y-94488000D03*
D14*
X133350000Y-99695000D03*
X132625000Y-107315000D03*
X134620000Y-106680000D03*
X134620000Y-101600000D03*
X131445000Y-95885000D03*
X135255000Y-92075000D03*
X137795000Y-88900000D03*
X126365000Y-92075000D03*
X133985000Y-90805000D03*
X127723000Y-92798000D03*
X132080000Y-102870000D03*
X128905000Y-102870000D03*
D15*
X138938001Y-121793001D02*
X139700000Y-122555000D01*
X131695918Y-121467999D02*
X138612999Y-121467999D01*
X138612999Y-121467999D02*
X138938001Y-121793001D01*
X128270000Y-118042081D02*
X131695918Y-121467999D01*
X128270000Y-116840000D02*
X128270000Y-118042081D01*
X140461999Y-115696999D02*
X139700000Y-114935000D01*
X132715000Y-118745000D02*
X140335000Y-118745000D01*
X140335000Y-118745000D02*
X140787001Y-118292999D01*
X128270000Y-114300000D02*
X132715000Y-118745000D01*
X140787001Y-118292999D02*
X140787001Y-116022001D01*
X140787001Y-116022001D02*
X140461999Y-115696999D01*
X128834001Y-110584999D02*
X127540001Y-110584999D01*
X137160000Y-114935000D02*
X133184002Y-114935000D01*
X133184002Y-114935000D02*
X128834001Y-110584999D01*
X127540001Y-110584999D02*
X127000000Y-111125000D01*
X127000000Y-113030000D02*
X125730000Y-114300000D01*
X127000000Y-111125000D02*
X127000000Y-113030000D01*
X137160000Y-117475000D02*
X133985000Y-117475000D01*
X133985000Y-117475000D02*
X128270000Y-111760000D01*
X133350000Y-99695000D02*
X133350000Y-99058590D01*
X135890000Y-96518590D02*
X135890000Y-93537370D01*
X136082370Y-93345000D02*
X137160000Y-93345000D01*
X135890000Y-93537370D02*
X136082370Y-93345000D01*
X133350000Y-99058590D02*
X135890000Y-96518590D01*
X126365000Y-100330000D02*
X126365000Y-102235000D01*
X127133000Y-99568000D02*
X127127000Y-99568000D01*
X127127000Y-99568000D02*
X126365000Y-100330000D01*
X124460000Y-104760000D02*
X126350000Y-102870000D01*
X127469002Y-109220000D02*
X126199002Y-107950000D01*
X128270000Y-109220000D02*
X127469002Y-109220000D01*
X126199002Y-107950000D02*
X124714998Y-107950000D01*
X124460000Y-107695002D02*
X124460000Y-104760000D01*
X124714998Y-107950000D02*
X124460000Y-107695002D01*
X132625000Y-107315000D02*
X133985000Y-107315000D01*
X133985000Y-107315000D02*
X134620000Y-106680000D01*
X134620000Y-106680000D02*
X134620000Y-106680000D01*
X134620000Y-98425000D02*
X137160000Y-95885000D01*
X134620000Y-101600000D02*
X134620000Y-98425000D01*
X139700000Y-117475000D02*
X138430000Y-116205000D01*
X138430000Y-116205000D02*
X138430000Y-114300000D01*
X138430000Y-114300000D02*
X137795000Y-113665000D01*
X137795000Y-113665000D02*
X135255000Y-113665000D01*
X135255000Y-113665000D02*
X128270000Y-106680000D01*
X139700000Y-112395000D02*
X138430000Y-111125000D01*
X138430000Y-111125000D02*
X134620000Y-111125000D01*
X134620000Y-111125000D02*
X128905000Y-105410000D01*
X125730000Y-105580000D02*
X125730000Y-106680000D01*
X125900000Y-105410000D02*
X125730000Y-105580000D01*
X128905000Y-105410000D02*
X125900000Y-105410000D01*
X135255000Y-92075000D02*
X135255000Y-92075000D01*
X138938001Y-95123001D02*
X139700000Y-95885000D01*
X138612999Y-94797999D02*
X138938001Y-95123001D01*
X138612999Y-92892999D02*
X138612999Y-94797999D01*
X137795000Y-92075000D02*
X138612999Y-92892999D01*
X135255000Y-92075000D02*
X137795000Y-92075000D01*
X130302000Y-97028000D02*
X131445000Y-95885000D01*
X129673000Y-97028000D02*
X130302000Y-97028000D01*
X127133000Y-97028000D02*
X125730000Y-95625000D01*
X139700000Y-89727370D02*
X138872630Y-88900000D01*
X139700000Y-90805000D02*
X139700000Y-89727370D01*
X138872630Y-88900000D02*
X137795000Y-88900000D01*
X125730000Y-92710000D02*
X125730000Y-95625000D01*
X126365000Y-92075000D02*
X125730000Y-92710000D01*
X136082370Y-90805000D02*
X137160000Y-90805000D01*
X127133000Y-93388000D02*
X127723000Y-92798000D01*
X127133000Y-94488000D02*
X127133000Y-93388000D01*
X133985000Y-90805000D02*
X136082370Y-90805000D01*
X137795000Y-102870000D02*
X139700000Y-100965000D01*
X127650000Y-102870000D02*
X128905000Y-102870000D01*
X132080000Y-102870000D02*
X137795000Y-102870000D01*
D16*
G36*
X145390001Y-127610000D02*
G01*
X131083381Y-127610000D01*
X123850000Y-120376620D01*
X123850000Y-108149709D01*
X123855009Y-108155812D01*
X123919999Y-108235003D01*
X123949003Y-108258806D01*
X124151194Y-108460997D01*
X124174997Y-108490001D01*
X124290722Y-108584974D01*
X124368470Y-108626532D01*
X124302068Y-108786842D01*
X124245000Y-109073740D01*
X124245000Y-109366260D01*
X124302068Y-109653158D01*
X124414010Y-109923411D01*
X124576525Y-110166632D01*
X124783368Y-110373475D01*
X124957760Y-110490000D01*
X124783368Y-110606525D01*
X124576525Y-110813368D01*
X124414010Y-111056589D01*
X124302068Y-111326842D01*
X124245000Y-111613740D01*
X124245000Y-111906260D01*
X124302068Y-112193158D01*
X124414010Y-112463411D01*
X124576525Y-112706632D01*
X124783368Y-112913475D01*
X124957760Y-113030000D01*
X124783368Y-113146525D01*
X124576525Y-113353368D01*
X124414010Y-113596589D01*
X124302068Y-113866842D01*
X124245000Y-114153740D01*
X124245000Y-114446260D01*
X124302068Y-114733158D01*
X124414010Y-115003411D01*
X124576525Y-115246632D01*
X124783368Y-115453475D01*
X124957760Y-115570000D01*
X124783368Y-115686525D01*
X124576525Y-115893368D01*
X124414010Y-116136589D01*
X124302068Y-116406842D01*
X124245000Y-116693740D01*
X124245000Y-116986260D01*
X124302068Y-117273158D01*
X124414010Y-117543411D01*
X124576525Y-117786632D01*
X124783368Y-117993475D01*
X125026589Y-118155990D01*
X125296842Y-118267932D01*
X125583740Y-118325000D01*
X125876260Y-118325000D01*
X126163158Y-118267932D01*
X126433411Y-118155990D01*
X126676632Y-117993475D01*
X126883475Y-117786632D01*
X127001100Y-117610594D01*
X127172412Y-117840269D01*
X127388645Y-118035178D01*
X127638748Y-118184157D01*
X127913109Y-118281481D01*
X128143000Y-118160814D01*
X128143000Y-116967000D01*
X128123000Y-116967000D01*
X128123000Y-116713000D01*
X128143000Y-116713000D01*
X128143000Y-116693000D01*
X128397000Y-116693000D01*
X128397000Y-116713000D01*
X128417000Y-116713000D01*
X128417000Y-116967000D01*
X128397000Y-116967000D01*
X128397000Y-118160814D01*
X128626891Y-118281481D01*
X128901252Y-118184157D01*
X129151355Y-118035178D01*
X129367588Y-117840269D01*
X129541641Y-117606920D01*
X129666825Y-117344099D01*
X129711476Y-117196890D01*
X129590156Y-116967002D01*
X129755000Y-116967002D01*
X129755000Y-116859801D01*
X132151201Y-119256003D01*
X132174999Y-119285001D01*
X132290724Y-119379974D01*
X132422753Y-119450546D01*
X132566014Y-119494003D01*
X132677667Y-119505000D01*
X132677676Y-119505000D01*
X132714999Y-119508676D01*
X132752322Y-119505000D01*
X135859147Y-119505000D01*
X135816686Y-119607510D01*
X135763000Y-119877408D01*
X135763000Y-120152592D01*
X135816686Y-120422490D01*
X135921995Y-120676727D01*
X136074880Y-120905535D01*
X136269465Y-121100120D01*
X136498273Y-121253005D01*
X136575515Y-121285000D01*
X136498273Y-121316995D01*
X136269465Y-121469880D01*
X136074880Y-121664465D01*
X135921995Y-121893273D01*
X135816686Y-122147510D01*
X135763000Y-122417408D01*
X135763000Y-122692592D01*
X135816686Y-122962490D01*
X135921995Y-123216727D01*
X136074880Y-123445535D01*
X136269465Y-123640120D01*
X136498273Y-123793005D01*
X136752510Y-123898314D01*
X137022408Y-123952000D01*
X137297592Y-123952000D01*
X137567490Y-123898314D01*
X137821727Y-123793005D01*
X138050535Y-123640120D01*
X138170090Y-123520565D01*
X138914040Y-123520565D01*
X138981020Y-123760656D01*
X139230048Y-123877756D01*
X139497135Y-123944023D01*
X139772017Y-123956910D01*
X140044133Y-123915922D01*
X140303023Y-123822636D01*
X140418980Y-123760656D01*
X140485960Y-123520565D01*
X139700000Y-122734605D01*
X138914040Y-123520565D01*
X138170090Y-123520565D01*
X138245120Y-123445535D01*
X138398005Y-123216727D01*
X138427692Y-123145057D01*
X138432364Y-123158023D01*
X138494344Y-123273980D01*
X138734435Y-123340960D01*
X139520395Y-122555000D01*
X139879605Y-122555000D01*
X140665565Y-123340960D01*
X140905656Y-123273980D01*
X141022756Y-123024952D01*
X141089023Y-122757865D01*
X141101910Y-122482983D01*
X141060922Y-122210867D01*
X140967636Y-121951977D01*
X140905656Y-121836020D01*
X140665565Y-121769040D01*
X139879605Y-122555000D01*
X139520395Y-122555000D01*
X138734435Y-121769040D01*
X138494344Y-121836020D01*
X138430515Y-121971760D01*
X138398005Y-121893273D01*
X138245120Y-121664465D01*
X138050535Y-121469880D01*
X137821727Y-121316995D01*
X137744485Y-121285000D01*
X137821727Y-121253005D01*
X138050535Y-121100120D01*
X138245120Y-120905535D01*
X138398005Y-120676727D01*
X138430000Y-120599485D01*
X138461995Y-120676727D01*
X138614880Y-120905535D01*
X138809465Y-121100120D01*
X139038273Y-121253005D01*
X139109943Y-121282692D01*
X139096977Y-121287364D01*
X138981020Y-121349344D01*
X138914040Y-121589435D01*
X139700000Y-122375395D01*
X140485960Y-121589435D01*
X140418980Y-121349344D01*
X140283240Y-121285515D01*
X140361727Y-121253005D01*
X140590535Y-121100120D01*
X140785120Y-120905535D01*
X140938005Y-120676727D01*
X141043314Y-120422490D01*
X141097000Y-120152592D01*
X141097000Y-119877408D01*
X141043314Y-119607510D01*
X140938005Y-119353273D01*
X140884584Y-119273324D01*
X140898804Y-119255997D01*
X141297999Y-118856802D01*
X141327002Y-118833000D01*
X141399223Y-118744999D01*
X141421975Y-118717276D01*
X141492547Y-118585246D01*
X141500169Y-118560120D01*
X141536004Y-118441985D01*
X141547001Y-118330332D01*
X141547001Y-118330322D01*
X141550677Y-118292999D01*
X141547001Y-118255676D01*
X141547001Y-116059323D01*
X141550677Y-116022000D01*
X141547001Y-115984677D01*
X141547001Y-115984668D01*
X141536004Y-115873015D01*
X141492547Y-115729754D01*
X141421975Y-115597725D01*
X141327002Y-115482000D01*
X141297998Y-115458197D01*
X141066372Y-115226571D01*
X141097000Y-115072592D01*
X141097000Y-114797408D01*
X141043314Y-114527510D01*
X140938005Y-114273273D01*
X140785120Y-114044465D01*
X140590535Y-113849880D01*
X140361727Y-113696995D01*
X140284485Y-113665000D01*
X140361727Y-113633005D01*
X140590535Y-113480120D01*
X140785120Y-113285535D01*
X140938005Y-113056727D01*
X141043314Y-112802490D01*
X141097000Y-112532592D01*
X141097000Y-112257408D01*
X141043314Y-111987510D01*
X140938005Y-111733273D01*
X140785120Y-111504465D01*
X140590535Y-111309880D01*
X140361727Y-111156995D01*
X140107490Y-111051686D01*
X139837592Y-110998000D01*
X139562408Y-110998000D01*
X139408430Y-111028628D01*
X138993804Y-110614003D01*
X138970001Y-110584999D01*
X138854276Y-110490026D01*
X138722247Y-110419454D01*
X138578986Y-110375997D01*
X138467333Y-110365000D01*
X138467322Y-110365000D01*
X138430000Y-110361324D01*
X138392678Y-110365000D01*
X134934802Y-110365000D01*
X132887804Y-108318002D01*
X132926898Y-108310226D01*
X133115256Y-108232205D01*
X133284774Y-108118937D01*
X133328711Y-108075000D01*
X133947678Y-108075000D01*
X133985000Y-108078676D01*
X134022322Y-108075000D01*
X134022333Y-108075000D01*
X134133986Y-108064003D01*
X134277247Y-108020546D01*
X134409276Y-107949974D01*
X134525001Y-107855001D01*
X134548803Y-107825998D01*
X134659801Y-107715000D01*
X134721939Y-107715000D01*
X134921898Y-107675226D01*
X135110256Y-107597205D01*
X135279774Y-107483937D01*
X135423937Y-107339774D01*
X135537205Y-107170256D01*
X135615226Y-106981898D01*
X135655000Y-106781939D01*
X135655000Y-106578061D01*
X135615226Y-106378102D01*
X135537205Y-106189744D01*
X135423937Y-106020226D01*
X135279774Y-105876063D01*
X135110256Y-105762795D01*
X134921898Y-105684774D01*
X134721939Y-105645000D01*
X134518061Y-105645000D01*
X134318102Y-105684774D01*
X134129744Y-105762795D01*
X133960226Y-105876063D01*
X133816063Y-106020226D01*
X133702795Y-106189744D01*
X133624774Y-106378102D01*
X133589587Y-106555000D01*
X133328711Y-106555000D01*
X133284774Y-106511063D01*
X133115256Y-106397795D01*
X132926898Y-106319774D01*
X132726939Y-106280000D01*
X132523061Y-106280000D01*
X132323102Y-106319774D01*
X132134744Y-106397795D01*
X131965226Y-106511063D01*
X131821063Y-106655226D01*
X131707795Y-106824744D01*
X131629774Y-107013102D01*
X131621998Y-107052196D01*
X129468804Y-104899003D01*
X129445001Y-104869999D01*
X129329276Y-104775026D01*
X129197247Y-104704454D01*
X129053986Y-104660997D01*
X128942333Y-104650000D01*
X128942322Y-104650000D01*
X128905000Y-104646324D01*
X128867678Y-104650000D01*
X125937322Y-104650000D01*
X125899999Y-104646324D01*
X125862676Y-104650000D01*
X125862667Y-104650000D01*
X125751014Y-104660997D01*
X125607753Y-104704454D01*
X125570360Y-104724441D01*
X126072814Y-104221988D01*
X126080377Y-104224282D01*
X126176510Y-104243404D01*
X126300991Y-104255664D01*
X126325550Y-104255664D01*
X126350000Y-104258072D01*
X126850000Y-104258072D01*
X126974482Y-104245812D01*
X127000000Y-104238071D01*
X127025518Y-104245812D01*
X127150000Y-104258072D01*
X127650000Y-104258072D01*
X127674450Y-104255664D01*
X127699009Y-104255664D01*
X127823490Y-104243404D01*
X127919623Y-104224282D01*
X128039319Y-104187973D01*
X128129875Y-104150464D01*
X128240192Y-104091498D01*
X128321691Y-104037042D01*
X128418382Y-103957690D01*
X128487690Y-103888382D01*
X128531152Y-103835423D01*
X128603102Y-103865226D01*
X128803061Y-103905000D01*
X129006939Y-103905000D01*
X129206898Y-103865226D01*
X129395256Y-103787205D01*
X129564774Y-103673937D01*
X129708937Y-103529774D01*
X129822205Y-103360256D01*
X129900226Y-103171898D01*
X129940000Y-102971939D01*
X129940000Y-102768061D01*
X131045000Y-102768061D01*
X131045000Y-102971939D01*
X131084774Y-103171898D01*
X131162795Y-103360256D01*
X131276063Y-103529774D01*
X131420226Y-103673937D01*
X131589744Y-103787205D01*
X131778102Y-103865226D01*
X131978061Y-103905000D01*
X132181939Y-103905000D01*
X132381898Y-103865226D01*
X132570256Y-103787205D01*
X132739774Y-103673937D01*
X132783711Y-103630000D01*
X137757678Y-103630000D01*
X137795000Y-103633676D01*
X137832322Y-103630000D01*
X137832333Y-103630000D01*
X137943986Y-103619003D01*
X138087247Y-103575546D01*
X138219276Y-103504974D01*
X138335001Y-103410001D01*
X138358804Y-103380997D01*
X139408430Y-102331372D01*
X139562408Y-102362000D01*
X139837592Y-102362000D01*
X140107490Y-102308314D01*
X140361727Y-102203005D01*
X140590535Y-102050120D01*
X140785120Y-101855535D01*
X140938005Y-101626727D01*
X141043314Y-101372490D01*
X141097000Y-101102592D01*
X141097000Y-100827408D01*
X141043314Y-100557510D01*
X140938005Y-100303273D01*
X140785120Y-100074465D01*
X140590535Y-99879880D01*
X140361727Y-99726995D01*
X140284485Y-99695000D01*
X140361727Y-99663005D01*
X140590535Y-99510120D01*
X140785120Y-99315535D01*
X140938005Y-99086727D01*
X141043314Y-98832490D01*
X141097000Y-98562592D01*
X141097000Y-98287408D01*
X141043314Y-98017510D01*
X140938005Y-97763273D01*
X140785120Y-97534465D01*
X140590535Y-97339880D01*
X140361727Y-97186995D01*
X140284485Y-97155000D01*
X140361727Y-97123005D01*
X140590535Y-96970120D01*
X140785120Y-96775535D01*
X140938005Y-96546727D01*
X141043314Y-96292490D01*
X141097000Y-96022592D01*
X141097000Y-95747408D01*
X141043314Y-95477510D01*
X140938005Y-95223273D01*
X140785120Y-94994465D01*
X140590535Y-94799880D01*
X140361727Y-94646995D01*
X140284485Y-94615000D01*
X140361727Y-94583005D01*
X140590535Y-94430120D01*
X140785120Y-94235535D01*
X140938005Y-94006727D01*
X141043314Y-93752490D01*
X141097000Y-93482592D01*
X141097000Y-93207408D01*
X141043314Y-92937510D01*
X140938005Y-92683273D01*
X140785120Y-92454465D01*
X140590535Y-92259880D01*
X140361727Y-92106995D01*
X140284485Y-92075000D01*
X140361727Y-92043005D01*
X140590535Y-91890120D01*
X140785120Y-91695535D01*
X140938005Y-91466727D01*
X141043314Y-91212490D01*
X141097000Y-90942592D01*
X141097000Y-90667408D01*
X141043314Y-90397510D01*
X140938005Y-90143273D01*
X140785120Y-89914465D01*
X140590535Y-89719880D01*
X140453951Y-89628617D01*
X140449003Y-89578384D01*
X140405546Y-89435123D01*
X140381564Y-89390256D01*
X140334974Y-89303093D01*
X140263799Y-89216367D01*
X140240001Y-89187369D01*
X140211002Y-89163571D01*
X139436433Y-88389002D01*
X139412631Y-88359999D01*
X139296906Y-88265026D01*
X139164877Y-88194454D01*
X139021616Y-88150997D01*
X138909963Y-88140000D01*
X138909952Y-88140000D01*
X138872630Y-88136324D01*
X138835308Y-88140000D01*
X138498711Y-88140000D01*
X138454774Y-88096063D01*
X138285256Y-87982795D01*
X138096898Y-87904774D01*
X137896939Y-87865000D01*
X137693061Y-87865000D01*
X137493102Y-87904774D01*
X137304744Y-87982795D01*
X137135226Y-88096063D01*
X136991063Y-88240226D01*
X136877795Y-88409744D01*
X136799774Y-88598102D01*
X136760000Y-88798061D01*
X136760000Y-89001939D01*
X136799774Y-89201898D01*
X136877795Y-89390256D01*
X136905226Y-89431309D01*
X136752510Y-89461686D01*
X136498273Y-89566995D01*
X136269465Y-89719880D01*
X136074880Y-89914465D01*
X135987659Y-90045000D01*
X134688711Y-90045000D01*
X134644774Y-90001063D01*
X134475256Y-89887795D01*
X134286898Y-89809774D01*
X134086939Y-89770000D01*
X133883061Y-89770000D01*
X133683102Y-89809774D01*
X133494744Y-89887795D01*
X133325226Y-90001063D01*
X133181063Y-90145226D01*
X133067795Y-90314744D01*
X132989774Y-90503102D01*
X132950000Y-90703061D01*
X132950000Y-90906939D01*
X132989774Y-91106898D01*
X133067795Y-91295256D01*
X133181063Y-91464774D01*
X133325226Y-91608937D01*
X133494744Y-91722205D01*
X133683102Y-91800226D01*
X133883061Y-91840000D01*
X134086939Y-91840000D01*
X134253039Y-91806961D01*
X134220000Y-91973061D01*
X134220000Y-92176939D01*
X134259774Y-92376898D01*
X134337795Y-92565256D01*
X134451063Y-92734774D01*
X134595226Y-92878937D01*
X134764744Y-92992205D01*
X134953102Y-93070226D01*
X135153061Y-93110000D01*
X135257565Y-93110000D01*
X135255026Y-93113094D01*
X135184454Y-93245124D01*
X135154180Y-93344928D01*
X135141115Y-93388000D01*
X135140998Y-93388385D01*
X135126324Y-93537370D01*
X135130001Y-93574702D01*
X135130000Y-96203787D01*
X132838998Y-98494791D01*
X132810000Y-98518589D01*
X132786202Y-98547587D01*
X132786201Y-98547588D01*
X132715026Y-98634314D01*
X132680037Y-98699774D01*
X132644454Y-98766343D01*
X132600997Y-98909604D01*
X132593274Y-98988015D01*
X132546063Y-99035226D01*
X132432795Y-99204744D01*
X132354774Y-99393102D01*
X132315000Y-99593061D01*
X132315000Y-99796939D01*
X132354774Y-99996898D01*
X132432795Y-100185256D01*
X132546063Y-100354774D01*
X132690226Y-100498937D01*
X132859744Y-100612205D01*
X133048102Y-100690226D01*
X133248061Y-100730000D01*
X133451939Y-100730000D01*
X133651898Y-100690226D01*
X133840256Y-100612205D01*
X133860000Y-100599012D01*
X133860000Y-100896289D01*
X133816063Y-100940226D01*
X133702795Y-101109744D01*
X133624774Y-101298102D01*
X133585000Y-101498061D01*
X133585000Y-101701939D01*
X133624774Y-101901898D01*
X133702795Y-102090256D01*
X133715987Y-102110000D01*
X132783711Y-102110000D01*
X132739774Y-102066063D01*
X132570256Y-101952795D01*
X132381898Y-101874774D01*
X132181939Y-101835000D01*
X131978061Y-101835000D01*
X131778102Y-101874774D01*
X131589744Y-101952795D01*
X131420226Y-102066063D01*
X131276063Y-102210226D01*
X131162795Y-102379744D01*
X131084774Y-102568102D01*
X131045000Y-102768061D01*
X129940000Y-102768061D01*
X129900226Y-102568102D01*
X129822205Y-102379744D01*
X129708937Y-102210226D01*
X129564774Y-102066063D01*
X129395256Y-101952795D01*
X129206898Y-101874774D01*
X129006939Y-101835000D01*
X128803061Y-101835000D01*
X128603102Y-101874774D01*
X128531152Y-101904577D01*
X128487690Y-101851618D01*
X128418382Y-101782310D01*
X128321691Y-101702958D01*
X128240192Y-101648502D01*
X128129875Y-101589536D01*
X128039319Y-101552027D01*
X127919623Y-101515718D01*
X127823490Y-101496596D01*
X127699009Y-101484336D01*
X127674450Y-101484336D01*
X127650000Y-101481928D01*
X127150000Y-101481928D01*
X127125000Y-101484390D01*
X127125000Y-101053000D01*
X127279260Y-101053000D01*
X127566158Y-100995932D01*
X127836411Y-100883990D01*
X128079632Y-100721475D01*
X128286475Y-100514632D01*
X128403000Y-100340240D01*
X128519525Y-100514632D01*
X128726368Y-100721475D01*
X128969589Y-100883990D01*
X129239842Y-100995932D01*
X129526740Y-101053000D01*
X129819260Y-101053000D01*
X130106158Y-100995932D01*
X130376411Y-100883990D01*
X130619632Y-100721475D01*
X130826475Y-100514632D01*
X130988990Y-100271411D01*
X131100932Y-100001158D01*
X131158000Y-99714260D01*
X131158000Y-99421740D01*
X131100932Y-99134842D01*
X130988990Y-98864589D01*
X130826475Y-98621368D01*
X130619632Y-98414525D01*
X130445240Y-98298000D01*
X130619632Y-98181475D01*
X130826475Y-97974632D01*
X130988990Y-97731411D01*
X131100932Y-97461158D01*
X131139988Y-97264814D01*
X131484802Y-96920000D01*
X131546939Y-96920000D01*
X131746898Y-96880226D01*
X131935256Y-96802205D01*
X132104774Y-96688937D01*
X132248937Y-96544774D01*
X132362205Y-96375256D01*
X132440226Y-96186898D01*
X132480000Y-95986939D01*
X132480000Y-95783061D01*
X132440226Y-95583102D01*
X132362205Y-95394744D01*
X132248937Y-95225226D01*
X132104774Y-95081063D01*
X131935256Y-94967795D01*
X131746898Y-94889774D01*
X131546939Y-94850000D01*
X131343061Y-94850000D01*
X131143102Y-94889774D01*
X131094792Y-94909785D01*
X131114476Y-94844890D01*
X130993155Y-94615000D01*
X129800000Y-94615000D01*
X129800000Y-94635000D01*
X129546000Y-94635000D01*
X129546000Y-94615000D01*
X129526000Y-94615000D01*
X129526000Y-94361000D01*
X129546000Y-94361000D01*
X129546000Y-93167186D01*
X129800000Y-93167186D01*
X129800000Y-94361000D01*
X130993155Y-94361000D01*
X131114476Y-94131110D01*
X131069825Y-93983901D01*
X130944641Y-93721080D01*
X130770588Y-93487731D01*
X130554355Y-93292822D01*
X130304252Y-93143843D01*
X130029891Y-93046519D01*
X129800000Y-93167186D01*
X129546000Y-93167186D01*
X129316109Y-93046519D01*
X129041748Y-93143843D01*
X128791645Y-93292822D01*
X128595498Y-93469626D01*
X128572502Y-93393820D01*
X128571243Y-93391465D01*
X128640205Y-93288256D01*
X128718226Y-93099898D01*
X128758000Y-92899939D01*
X128758000Y-92696061D01*
X128718226Y-92496102D01*
X128640205Y-92307744D01*
X128526937Y-92138226D01*
X128382774Y-91994063D01*
X128213256Y-91880795D01*
X128024898Y-91802774D01*
X127824939Y-91763000D01*
X127621061Y-91763000D01*
X127421102Y-91802774D01*
X127370313Y-91823812D01*
X127360226Y-91773102D01*
X127282205Y-91584744D01*
X127168937Y-91415226D01*
X127024774Y-91271063D01*
X126855256Y-91157795D01*
X126666898Y-91079774D01*
X126466939Y-91040000D01*
X126263061Y-91040000D01*
X126063102Y-91079774D01*
X125874744Y-91157795D01*
X125705226Y-91271063D01*
X125561063Y-91415226D01*
X125447795Y-91584744D01*
X125369774Y-91773102D01*
X125330000Y-91973061D01*
X125330000Y-92035199D01*
X125219002Y-92146197D01*
X125189999Y-92169999D01*
X125137310Y-92234201D01*
X125095026Y-92285724D01*
X125083256Y-92307744D01*
X125024454Y-92417754D01*
X124980997Y-92561015D01*
X124970000Y-92672668D01*
X124970000Y-92672678D01*
X124966324Y-92710000D01*
X124970000Y-92747323D01*
X124970001Y-95587668D01*
X124966324Y-95625000D01*
X124970001Y-95662333D01*
X124980998Y-95773986D01*
X124991563Y-95808814D01*
X125024454Y-95917246D01*
X125095026Y-96049276D01*
X125166201Y-96136002D01*
X125190000Y-96165001D01*
X125218998Y-96188799D01*
X125691791Y-96661592D01*
X125648000Y-96881740D01*
X125648000Y-97174260D01*
X125705068Y-97461158D01*
X125817010Y-97731411D01*
X125979525Y-97974632D01*
X126186368Y-98181475D01*
X126360760Y-98298000D01*
X126186368Y-98414525D01*
X125979525Y-98621368D01*
X125817010Y-98864589D01*
X125705068Y-99134842D01*
X125648000Y-99421740D01*
X125648000Y-99714260D01*
X125698002Y-99965636D01*
X125686451Y-99987246D01*
X125659454Y-100037754D01*
X125615997Y-100181015D01*
X125605000Y-100292668D01*
X125605000Y-100292678D01*
X125601324Y-100330000D01*
X125605000Y-100367323D01*
X125605001Y-101763120D01*
X125581618Y-101782310D01*
X125512310Y-101851618D01*
X125432958Y-101948309D01*
X125378502Y-102029808D01*
X125319536Y-102140125D01*
X125282027Y-102230681D01*
X125245718Y-102350377D01*
X125226596Y-102446510D01*
X125214336Y-102570991D01*
X125214336Y-102595550D01*
X125211928Y-102620000D01*
X125211928Y-102933270D01*
X123948998Y-104196201D01*
X123920000Y-104219999D01*
X123896202Y-104248997D01*
X123896201Y-104248998D01*
X123850000Y-104305293D01*
X123850000Y-92983380D01*
X131083381Y-85750000D01*
X145390000Y-85750000D01*
X145390001Y-127610000D01*
G37*
X145390001Y-127610000D02*
X131083381Y-127610000D01*
X123850000Y-120376620D01*
X123850000Y-108149709D01*
X123855009Y-108155812D01*
X123919999Y-108235003D01*
X123949003Y-108258806D01*
X124151194Y-108460997D01*
X124174997Y-108490001D01*
X124290722Y-108584974D01*
X124368470Y-108626532D01*
X124302068Y-108786842D01*
X124245000Y-109073740D01*
X124245000Y-109366260D01*
X124302068Y-109653158D01*
X124414010Y-109923411D01*
X124576525Y-110166632D01*
X124783368Y-110373475D01*
X124957760Y-110490000D01*
X124783368Y-110606525D01*
X124576525Y-110813368D01*
X124414010Y-111056589D01*
X124302068Y-111326842D01*
X124245000Y-111613740D01*
X124245000Y-111906260D01*
X124302068Y-112193158D01*
X124414010Y-112463411D01*
X124576525Y-112706632D01*
X124783368Y-112913475D01*
X124957760Y-113030000D01*
X124783368Y-113146525D01*
X124576525Y-113353368D01*
X124414010Y-113596589D01*
X124302068Y-113866842D01*
X124245000Y-114153740D01*
X124245000Y-114446260D01*
X124302068Y-114733158D01*
X124414010Y-115003411D01*
X124576525Y-115246632D01*
X124783368Y-115453475D01*
X124957760Y-115570000D01*
X124783368Y-115686525D01*
X124576525Y-115893368D01*
X124414010Y-116136589D01*
X124302068Y-116406842D01*
X124245000Y-116693740D01*
X124245000Y-116986260D01*
X124302068Y-117273158D01*
X124414010Y-117543411D01*
X124576525Y-117786632D01*
X124783368Y-117993475D01*
X125026589Y-118155990D01*
X125296842Y-118267932D01*
X125583740Y-118325000D01*
X125876260Y-118325000D01*
X126163158Y-118267932D01*
X126433411Y-118155990D01*
X126676632Y-117993475D01*
X126883475Y-117786632D01*
X127001100Y-117610594D01*
X127172412Y-117840269D01*
X127388645Y-118035178D01*
X127638748Y-118184157D01*
X127913109Y-118281481D01*
X128143000Y-118160814D01*
X128143000Y-116967000D01*
X128123000Y-116967000D01*
X128123000Y-116713000D01*
X128143000Y-116713000D01*
X128143000Y-116693000D01*
X128397000Y-116693000D01*
X128397000Y-116713000D01*
X128417000Y-116713000D01*
X128417000Y-116967000D01*
X128397000Y-116967000D01*
X128397000Y-118160814D01*
X128626891Y-118281481D01*
X128901252Y-118184157D01*
X129151355Y-118035178D01*
X129367588Y-117840269D01*
X129541641Y-117606920D01*
X129666825Y-117344099D01*
X129711476Y-117196890D01*
X129590156Y-116967002D01*
X129755000Y-116967002D01*
X129755000Y-116859801D01*
X132151201Y-119256003D01*
X132174999Y-119285001D01*
X132290724Y-119379974D01*
X132422753Y-119450546D01*
X132566014Y-119494003D01*
X132677667Y-119505000D01*
X132677676Y-119505000D01*
X132714999Y-119508676D01*
X132752322Y-119505000D01*
X135859147Y-119505000D01*
X135816686Y-119607510D01*
X135763000Y-119877408D01*
X135763000Y-120152592D01*
X135816686Y-120422490D01*
X135921995Y-120676727D01*
X136074880Y-120905535D01*
X136269465Y-121100120D01*
X136498273Y-121253005D01*
X136575515Y-121285000D01*
X136498273Y-121316995D01*
X136269465Y-121469880D01*
X136074880Y-121664465D01*
X135921995Y-121893273D01*
X135816686Y-122147510D01*
X135763000Y-122417408D01*
X135763000Y-122692592D01*
X135816686Y-122962490D01*
X135921995Y-123216727D01*
X136074880Y-123445535D01*
X136269465Y-123640120D01*
X136498273Y-123793005D01*
X136752510Y-123898314D01*
X137022408Y-123952000D01*
X137297592Y-123952000D01*
X137567490Y-123898314D01*
X137821727Y-123793005D01*
X138050535Y-123640120D01*
X138170090Y-123520565D01*
X138914040Y-123520565D01*
X138981020Y-123760656D01*
X139230048Y-123877756D01*
X139497135Y-123944023D01*
X139772017Y-123956910D01*
X140044133Y-123915922D01*
X140303023Y-123822636D01*
X140418980Y-123760656D01*
X140485960Y-123520565D01*
X139700000Y-122734605D01*
X138914040Y-123520565D01*
X138170090Y-123520565D01*
X138245120Y-123445535D01*
X138398005Y-123216727D01*
X138427692Y-123145057D01*
X138432364Y-123158023D01*
X138494344Y-123273980D01*
X138734435Y-123340960D01*
X139520395Y-122555000D01*
X139879605Y-122555000D01*
X140665565Y-123340960D01*
X140905656Y-123273980D01*
X141022756Y-123024952D01*
X141089023Y-122757865D01*
X141101910Y-122482983D01*
X141060922Y-122210867D01*
X140967636Y-121951977D01*
X140905656Y-121836020D01*
X140665565Y-121769040D01*
X139879605Y-122555000D01*
X139520395Y-122555000D01*
X138734435Y-121769040D01*
X138494344Y-121836020D01*
X138430515Y-121971760D01*
X138398005Y-121893273D01*
X138245120Y-121664465D01*
X138050535Y-121469880D01*
X137821727Y-121316995D01*
X137744485Y-121285000D01*
X137821727Y-121253005D01*
X138050535Y-121100120D01*
X138245120Y-120905535D01*
X138398005Y-120676727D01*
X138430000Y-120599485D01*
X138461995Y-120676727D01*
X138614880Y-120905535D01*
X138809465Y-121100120D01*
X139038273Y-121253005D01*
X139109943Y-121282692D01*
X139096977Y-121287364D01*
X138981020Y-121349344D01*
X138914040Y-121589435D01*
X139700000Y-122375395D01*
X140485960Y-121589435D01*
X140418980Y-121349344D01*
X140283240Y-121285515D01*
X140361727Y-121253005D01*
X140590535Y-121100120D01*
X140785120Y-120905535D01*
X140938005Y-120676727D01*
X141043314Y-120422490D01*
X141097000Y-120152592D01*
X141097000Y-119877408D01*
X141043314Y-119607510D01*
X140938005Y-119353273D01*
X140884584Y-119273324D01*
X140898804Y-119255997D01*
X141297999Y-118856802D01*
X141327002Y-118833000D01*
X141399223Y-118744999D01*
X141421975Y-118717276D01*
X141492547Y-118585246D01*
X141500169Y-118560120D01*
X141536004Y-118441985D01*
X141547001Y-118330332D01*
X141547001Y-118330322D01*
X141550677Y-118292999D01*
X141547001Y-118255676D01*
X141547001Y-116059323D01*
X141550677Y-116022000D01*
X141547001Y-115984677D01*
X141547001Y-115984668D01*
X141536004Y-115873015D01*
X141492547Y-115729754D01*
X141421975Y-115597725D01*
X141327002Y-115482000D01*
X141297998Y-115458197D01*
X141066372Y-115226571D01*
X141097000Y-115072592D01*
X141097000Y-114797408D01*
X141043314Y-114527510D01*
X140938005Y-114273273D01*
X140785120Y-114044465D01*
X140590535Y-113849880D01*
X140361727Y-113696995D01*
X140284485Y-113665000D01*
X140361727Y-113633005D01*
X140590535Y-113480120D01*
X140785120Y-113285535D01*
X140938005Y-113056727D01*
X141043314Y-112802490D01*
X141097000Y-112532592D01*
X141097000Y-112257408D01*
X141043314Y-111987510D01*
X140938005Y-111733273D01*
X140785120Y-111504465D01*
X140590535Y-111309880D01*
X140361727Y-111156995D01*
X140107490Y-111051686D01*
X139837592Y-110998000D01*
X139562408Y-110998000D01*
X139408430Y-111028628D01*
X138993804Y-110614003D01*
X138970001Y-110584999D01*
X138854276Y-110490026D01*
X138722247Y-110419454D01*
X138578986Y-110375997D01*
X138467333Y-110365000D01*
X138467322Y-110365000D01*
X138430000Y-110361324D01*
X138392678Y-110365000D01*
X134934802Y-110365000D01*
X132887804Y-108318002D01*
X132926898Y-108310226D01*
X133115256Y-108232205D01*
X133284774Y-108118937D01*
X133328711Y-108075000D01*
X133947678Y-108075000D01*
X133985000Y-108078676D01*
X134022322Y-108075000D01*
X134022333Y-108075000D01*
X134133986Y-108064003D01*
X134277247Y-108020546D01*
X134409276Y-107949974D01*
X134525001Y-107855001D01*
X134548803Y-107825998D01*
X134659801Y-107715000D01*
X134721939Y-107715000D01*
X134921898Y-107675226D01*
X135110256Y-107597205D01*
X135279774Y-107483937D01*
X135423937Y-107339774D01*
X135537205Y-107170256D01*
X135615226Y-106981898D01*
X135655000Y-106781939D01*
X135655000Y-106578061D01*
X135615226Y-106378102D01*
X135537205Y-106189744D01*
X135423937Y-106020226D01*
X135279774Y-105876063D01*
X135110256Y-105762795D01*
X134921898Y-105684774D01*
X134721939Y-105645000D01*
X134518061Y-105645000D01*
X134318102Y-105684774D01*
X134129744Y-105762795D01*
X133960226Y-105876063D01*
X133816063Y-106020226D01*
X133702795Y-106189744D01*
X133624774Y-106378102D01*
X133589587Y-106555000D01*
X133328711Y-106555000D01*
X133284774Y-106511063D01*
X133115256Y-106397795D01*
X132926898Y-106319774D01*
X132726939Y-106280000D01*
X132523061Y-106280000D01*
X132323102Y-106319774D01*
X132134744Y-106397795D01*
X131965226Y-106511063D01*
X131821063Y-106655226D01*
X131707795Y-106824744D01*
X131629774Y-107013102D01*
X131621998Y-107052196D01*
X129468804Y-104899003D01*
X129445001Y-104869999D01*
X129329276Y-104775026D01*
X129197247Y-104704454D01*
X129053986Y-104660997D01*
X128942333Y-104650000D01*
X128942322Y-104650000D01*
X128905000Y-104646324D01*
X128867678Y-104650000D01*
X125937322Y-104650000D01*
X125899999Y-104646324D01*
X125862676Y-104650000D01*
X125862667Y-104650000D01*
X125751014Y-104660997D01*
X125607753Y-104704454D01*
X125570360Y-104724441D01*
X126072814Y-104221988D01*
X126080377Y-104224282D01*
X126176510Y-104243404D01*
X126300991Y-104255664D01*
X126325550Y-104255664D01*
X126350000Y-104258072D01*
X126850000Y-104258072D01*
X126974482Y-104245812D01*
X127000000Y-104238071D01*
X127025518Y-104245812D01*
X127150000Y-104258072D01*
X127650000Y-104258072D01*
X127674450Y-104255664D01*
X127699009Y-104255664D01*
X127823490Y-104243404D01*
X127919623Y-104224282D01*
X128039319Y-104187973D01*
X128129875Y-104150464D01*
X128240192Y-104091498D01*
X128321691Y-104037042D01*
X128418382Y-103957690D01*
X128487690Y-103888382D01*
X128531152Y-103835423D01*
X128603102Y-103865226D01*
X128803061Y-103905000D01*
X129006939Y-103905000D01*
X129206898Y-103865226D01*
X129395256Y-103787205D01*
X129564774Y-103673937D01*
X129708937Y-103529774D01*
X129822205Y-103360256D01*
X129900226Y-103171898D01*
X129940000Y-102971939D01*
X129940000Y-102768061D01*
X131045000Y-102768061D01*
X131045000Y-102971939D01*
X131084774Y-103171898D01*
X131162795Y-103360256D01*
X131276063Y-103529774D01*
X131420226Y-103673937D01*
X131589744Y-103787205D01*
X131778102Y-103865226D01*
X131978061Y-103905000D01*
X132181939Y-103905000D01*
X132381898Y-103865226D01*
X132570256Y-103787205D01*
X132739774Y-103673937D01*
X132783711Y-103630000D01*
X137757678Y-103630000D01*
X137795000Y-103633676D01*
X137832322Y-103630000D01*
X137832333Y-103630000D01*
X137943986Y-103619003D01*
X138087247Y-103575546D01*
X138219276Y-103504974D01*
X138335001Y-103410001D01*
X138358804Y-103380997D01*
X139408430Y-102331372D01*
X139562408Y-102362000D01*
X139837592Y-102362000D01*
X140107490Y-102308314D01*
X140361727Y-102203005D01*
X140590535Y-102050120D01*
X140785120Y-101855535D01*
X140938005Y-101626727D01*
X141043314Y-101372490D01*
X141097000Y-101102592D01*
X141097000Y-100827408D01*
X141043314Y-100557510D01*
X140938005Y-100303273D01*
X140785120Y-100074465D01*
X140590535Y-99879880D01*
X140361727Y-99726995D01*
X140284485Y-99695000D01*
X140361727Y-99663005D01*
X140590535Y-99510120D01*
X140785120Y-99315535D01*
X140938005Y-99086727D01*
X141043314Y-98832490D01*
X141097000Y-98562592D01*
X141097000Y-98287408D01*
X141043314Y-98017510D01*
X140938005Y-97763273D01*
X140785120Y-97534465D01*
X140590535Y-97339880D01*
X140361727Y-97186995D01*
X140284485Y-97155000D01*
X140361727Y-97123005D01*
X140590535Y-96970120D01*
X140785120Y-96775535D01*
X140938005Y-96546727D01*
X141043314Y-96292490D01*
X141097000Y-96022592D01*
X141097000Y-95747408D01*
X141043314Y-95477510D01*
X140938005Y-95223273D01*
X140785120Y-94994465D01*
X140590535Y-94799880D01*
X140361727Y-94646995D01*
X140284485Y-94615000D01*
X140361727Y-94583005D01*
X140590535Y-94430120D01*
X140785120Y-94235535D01*
X140938005Y-94006727D01*
X141043314Y-93752490D01*
X141097000Y-93482592D01*
X141097000Y-93207408D01*
X141043314Y-92937510D01*
X140938005Y-92683273D01*
X140785120Y-92454465D01*
X140590535Y-92259880D01*
X140361727Y-92106995D01*
X140284485Y-92075000D01*
X140361727Y-92043005D01*
X140590535Y-91890120D01*
X140785120Y-91695535D01*
X140938005Y-91466727D01*
X141043314Y-91212490D01*
X141097000Y-90942592D01*
X141097000Y-90667408D01*
X141043314Y-90397510D01*
X140938005Y-90143273D01*
X140785120Y-89914465D01*
X140590535Y-89719880D01*
X140453951Y-89628617D01*
X140449003Y-89578384D01*
X140405546Y-89435123D01*
X140381564Y-89390256D01*
X140334974Y-89303093D01*
X140263799Y-89216367D01*
X140240001Y-89187369D01*
X140211002Y-89163571D01*
X139436433Y-88389002D01*
X139412631Y-88359999D01*
X139296906Y-88265026D01*
X139164877Y-88194454D01*
X139021616Y-88150997D01*
X138909963Y-88140000D01*
X138909952Y-88140000D01*
X138872630Y-88136324D01*
X138835308Y-88140000D01*
X138498711Y-88140000D01*
X138454774Y-88096063D01*
X138285256Y-87982795D01*
X138096898Y-87904774D01*
X137896939Y-87865000D01*
X137693061Y-87865000D01*
X137493102Y-87904774D01*
X137304744Y-87982795D01*
X137135226Y-88096063D01*
X136991063Y-88240226D01*
X136877795Y-88409744D01*
X136799774Y-88598102D01*
X136760000Y-88798061D01*
X136760000Y-89001939D01*
X136799774Y-89201898D01*
X136877795Y-89390256D01*
X136905226Y-89431309D01*
X136752510Y-89461686D01*
X136498273Y-89566995D01*
X136269465Y-89719880D01*
X136074880Y-89914465D01*
X135987659Y-90045000D01*
X134688711Y-90045000D01*
X134644774Y-90001063D01*
X134475256Y-89887795D01*
X134286898Y-89809774D01*
X134086939Y-89770000D01*
X133883061Y-89770000D01*
X133683102Y-89809774D01*
X133494744Y-89887795D01*
X133325226Y-90001063D01*
X133181063Y-90145226D01*
X133067795Y-90314744D01*
X132989774Y-90503102D01*
X132950000Y-90703061D01*
X132950000Y-90906939D01*
X132989774Y-91106898D01*
X133067795Y-91295256D01*
X133181063Y-91464774D01*
X133325226Y-91608937D01*
X133494744Y-91722205D01*
X133683102Y-91800226D01*
X133883061Y-91840000D01*
X134086939Y-91840000D01*
X134253039Y-91806961D01*
X134220000Y-91973061D01*
X134220000Y-92176939D01*
X134259774Y-92376898D01*
X134337795Y-92565256D01*
X134451063Y-92734774D01*
X134595226Y-92878937D01*
X134764744Y-92992205D01*
X134953102Y-93070226D01*
X135153061Y-93110000D01*
X135257565Y-93110000D01*
X135255026Y-93113094D01*
X135184454Y-93245124D01*
X135154180Y-93344928D01*
X135141115Y-93388000D01*
X135140998Y-93388385D01*
X135126324Y-93537370D01*
X135130001Y-93574702D01*
X135130000Y-96203787D01*
X132838998Y-98494791D01*
X132810000Y-98518589D01*
X132786202Y-98547587D01*
X132786201Y-98547588D01*
X132715026Y-98634314D01*
X132680037Y-98699774D01*
X132644454Y-98766343D01*
X132600997Y-98909604D01*
X132593274Y-98988015D01*
X132546063Y-99035226D01*
X132432795Y-99204744D01*
X132354774Y-99393102D01*
X132315000Y-99593061D01*
X132315000Y-99796939D01*
X132354774Y-99996898D01*
X132432795Y-100185256D01*
X132546063Y-100354774D01*
X132690226Y-100498937D01*
X132859744Y-100612205D01*
X133048102Y-100690226D01*
X133248061Y-100730000D01*
X133451939Y-100730000D01*
X133651898Y-100690226D01*
X133840256Y-100612205D01*
X133860000Y-100599012D01*
X133860000Y-100896289D01*
X133816063Y-100940226D01*
X133702795Y-101109744D01*
X133624774Y-101298102D01*
X133585000Y-101498061D01*
X133585000Y-101701939D01*
X133624774Y-101901898D01*
X133702795Y-102090256D01*
X133715987Y-102110000D01*
X132783711Y-102110000D01*
X132739774Y-102066063D01*
X132570256Y-101952795D01*
X132381898Y-101874774D01*
X132181939Y-101835000D01*
X131978061Y-101835000D01*
X131778102Y-101874774D01*
X131589744Y-101952795D01*
X131420226Y-102066063D01*
X131276063Y-102210226D01*
X131162795Y-102379744D01*
X131084774Y-102568102D01*
X131045000Y-102768061D01*
X129940000Y-102768061D01*
X129900226Y-102568102D01*
X129822205Y-102379744D01*
X129708937Y-102210226D01*
X129564774Y-102066063D01*
X129395256Y-101952795D01*
X129206898Y-101874774D01*
X129006939Y-101835000D01*
X128803061Y-101835000D01*
X128603102Y-101874774D01*
X128531152Y-101904577D01*
X128487690Y-101851618D01*
X128418382Y-101782310D01*
X128321691Y-101702958D01*
X128240192Y-101648502D01*
X128129875Y-101589536D01*
X128039319Y-101552027D01*
X127919623Y-101515718D01*
X127823490Y-101496596D01*
X127699009Y-101484336D01*
X127674450Y-101484336D01*
X127650000Y-101481928D01*
X127150000Y-101481928D01*
X127125000Y-101484390D01*
X127125000Y-101053000D01*
X127279260Y-101053000D01*
X127566158Y-100995932D01*
X127836411Y-100883990D01*
X128079632Y-100721475D01*
X128286475Y-100514632D01*
X128403000Y-100340240D01*
X128519525Y-100514632D01*
X128726368Y-100721475D01*
X128969589Y-100883990D01*
X129239842Y-100995932D01*
X129526740Y-101053000D01*
X129819260Y-101053000D01*
X130106158Y-100995932D01*
X130376411Y-100883990D01*
X130619632Y-100721475D01*
X130826475Y-100514632D01*
X130988990Y-100271411D01*
X131100932Y-100001158D01*
X131158000Y-99714260D01*
X131158000Y-99421740D01*
X131100932Y-99134842D01*
X130988990Y-98864589D01*
X130826475Y-98621368D01*
X130619632Y-98414525D01*
X130445240Y-98298000D01*
X130619632Y-98181475D01*
X130826475Y-97974632D01*
X130988990Y-97731411D01*
X131100932Y-97461158D01*
X131139988Y-97264814D01*
X131484802Y-96920000D01*
X131546939Y-96920000D01*
X131746898Y-96880226D01*
X131935256Y-96802205D01*
X132104774Y-96688937D01*
X132248937Y-96544774D01*
X132362205Y-96375256D01*
X132440226Y-96186898D01*
X132480000Y-95986939D01*
X132480000Y-95783061D01*
X132440226Y-95583102D01*
X132362205Y-95394744D01*
X132248937Y-95225226D01*
X132104774Y-95081063D01*
X131935256Y-94967795D01*
X131746898Y-94889774D01*
X131546939Y-94850000D01*
X131343061Y-94850000D01*
X131143102Y-94889774D01*
X131094792Y-94909785D01*
X131114476Y-94844890D01*
X130993155Y-94615000D01*
X129800000Y-94615000D01*
X129800000Y-94635000D01*
X129546000Y-94635000D01*
X129546000Y-94615000D01*
X129526000Y-94615000D01*
X129526000Y-94361000D01*
X129546000Y-94361000D01*
X129546000Y-93167186D01*
X129800000Y-93167186D01*
X129800000Y-94361000D01*
X130993155Y-94361000D01*
X131114476Y-94131110D01*
X131069825Y-93983901D01*
X130944641Y-93721080D01*
X130770588Y-93487731D01*
X130554355Y-93292822D01*
X130304252Y-93143843D01*
X130029891Y-93046519D01*
X129800000Y-93167186D01*
X129546000Y-93167186D01*
X129316109Y-93046519D01*
X129041748Y-93143843D01*
X128791645Y-93292822D01*
X128595498Y-93469626D01*
X128572502Y-93393820D01*
X128571243Y-93391465D01*
X128640205Y-93288256D01*
X128718226Y-93099898D01*
X128758000Y-92899939D01*
X128758000Y-92696061D01*
X128718226Y-92496102D01*
X128640205Y-92307744D01*
X128526937Y-92138226D01*
X128382774Y-91994063D01*
X128213256Y-91880795D01*
X128024898Y-91802774D01*
X127824939Y-91763000D01*
X127621061Y-91763000D01*
X127421102Y-91802774D01*
X127370313Y-91823812D01*
X127360226Y-91773102D01*
X127282205Y-91584744D01*
X127168937Y-91415226D01*
X127024774Y-91271063D01*
X126855256Y-91157795D01*
X126666898Y-91079774D01*
X126466939Y-91040000D01*
X126263061Y-91040000D01*
X126063102Y-91079774D01*
X125874744Y-91157795D01*
X125705226Y-91271063D01*
X125561063Y-91415226D01*
X125447795Y-91584744D01*
X125369774Y-91773102D01*
X125330000Y-91973061D01*
X125330000Y-92035199D01*
X125219002Y-92146197D01*
X125189999Y-92169999D01*
X125137310Y-92234201D01*
X125095026Y-92285724D01*
X125083256Y-92307744D01*
X125024454Y-92417754D01*
X124980997Y-92561015D01*
X124970000Y-92672668D01*
X124970000Y-92672678D01*
X124966324Y-92710000D01*
X124970000Y-92747323D01*
X124970001Y-95587668D01*
X124966324Y-95625000D01*
X124970001Y-95662333D01*
X124980998Y-95773986D01*
X124991563Y-95808814D01*
X125024454Y-95917246D01*
X125095026Y-96049276D01*
X125166201Y-96136002D01*
X125190000Y-96165001D01*
X125218998Y-96188799D01*
X125691791Y-96661592D01*
X125648000Y-96881740D01*
X125648000Y-97174260D01*
X125705068Y-97461158D01*
X125817010Y-97731411D01*
X125979525Y-97974632D01*
X126186368Y-98181475D01*
X126360760Y-98298000D01*
X126186368Y-98414525D01*
X125979525Y-98621368D01*
X125817010Y-98864589D01*
X125705068Y-99134842D01*
X125648000Y-99421740D01*
X125648000Y-99714260D01*
X125698002Y-99965636D01*
X125686451Y-99987246D01*
X125659454Y-100037754D01*
X125615997Y-100181015D01*
X125605000Y-100292668D01*
X125605000Y-100292678D01*
X125601324Y-100330000D01*
X125605000Y-100367323D01*
X125605001Y-101763120D01*
X125581618Y-101782310D01*
X125512310Y-101851618D01*
X125432958Y-101948309D01*
X125378502Y-102029808D01*
X125319536Y-102140125D01*
X125282027Y-102230681D01*
X125245718Y-102350377D01*
X125226596Y-102446510D01*
X125214336Y-102570991D01*
X125214336Y-102595550D01*
X125211928Y-102620000D01*
X125211928Y-102933270D01*
X123948998Y-104196201D01*
X123920000Y-104219999D01*
X123896202Y-104248997D01*
X123896201Y-104248998D01*
X123850000Y-104305293D01*
X123850000Y-92983380D01*
X131083381Y-85750000D01*
X145390000Y-85750000D01*
X145390001Y-127610000D01*
M02*
