G04 #@! TF.GenerationSoftware,KiCad,Pcbnew,(6.0.0)*
G04 #@! TF.CreationDate,2022-01-07T01:27:54-05:00*
G04 #@! TF.ProjectId,SKR-Mini_Screen,534b522d-4d69-46e6-995f-53637265656e,rev?*
G04 #@! TF.SameCoordinates,Original*
G04 #@! TF.FileFunction,Legend,Top*
G04 #@! TF.FilePolarity,Positive*
%FSLAX46Y46*%
G04 Gerber Fmt 4.6, Leading zero omitted, Abs format (unit mm)*
G04 Created by KiCad (PCBNEW (6.0.0)) date 2022-01-07 01:27:54*
%MOMM*%
%LPD*%
G01*
G04 APERTURE LIST*
%ADD10C,0.250000*%
%ADD11C,0.150000*%
%ADD12C,0.300000*%
%ADD13C,0.200000*%
%ADD14C,0.120000*%
G04 APERTURE END LIST*
D10*
X144650952Y-124566904D02*
X144710476Y-124388333D01*
X144710476Y-124090714D01*
X144650952Y-123971666D01*
X144591428Y-123912142D01*
X144472380Y-123852619D01*
X144353333Y-123852619D01*
X144234285Y-123912142D01*
X144174761Y-123971666D01*
X144115238Y-124090714D01*
X144055714Y-124328809D01*
X143996190Y-124447857D01*
X143936666Y-124507380D01*
X143817619Y-124566904D01*
X143698571Y-124566904D01*
X143579523Y-124507380D01*
X143520000Y-124447857D01*
X143460476Y-124328809D01*
X143460476Y-124031190D01*
X143520000Y-123852619D01*
X144710476Y-123316904D02*
X143460476Y-123316904D01*
X144710476Y-122602619D02*
X143996190Y-123138333D01*
X143460476Y-122602619D02*
X144174761Y-123316904D01*
X144710476Y-121352619D02*
X144115238Y-121769285D01*
X144710476Y-122066904D02*
X143460476Y-122066904D01*
X143460476Y-121590714D01*
X143520000Y-121471666D01*
X143579523Y-121412142D01*
X143698571Y-121352619D01*
X143877142Y-121352619D01*
X143996190Y-121412142D01*
X144055714Y-121471666D01*
X144115238Y-121590714D01*
X144115238Y-122066904D01*
X144710476Y-119864523D02*
X143460476Y-119864523D01*
X144353333Y-119447857D01*
X143460476Y-119031190D01*
X144710476Y-119031190D01*
X144710476Y-118435952D02*
X143877142Y-118435952D01*
X143460476Y-118435952D02*
X143520000Y-118495476D01*
X143579523Y-118435952D01*
X143520000Y-118376428D01*
X143460476Y-118435952D01*
X143579523Y-118435952D01*
X143877142Y-117840714D02*
X144710476Y-117840714D01*
X143996190Y-117840714D02*
X143936666Y-117781190D01*
X143877142Y-117662142D01*
X143877142Y-117483571D01*
X143936666Y-117364523D01*
X144055714Y-117305000D01*
X144710476Y-117305000D01*
X144710476Y-116709761D02*
X143877142Y-116709761D01*
X143460476Y-116709761D02*
X143520000Y-116769285D01*
X143579523Y-116709761D01*
X143520000Y-116650238D01*
X143460476Y-116709761D01*
X143579523Y-116709761D01*
X144055714Y-115162142D02*
X144055714Y-114745476D01*
X144710476Y-114566904D02*
X144710476Y-115162142D01*
X143460476Y-115162142D01*
X143460476Y-114566904D01*
X143460476Y-114150238D02*
X143460476Y-113376428D01*
X143936666Y-113793095D01*
X143936666Y-113614523D01*
X143996190Y-113495476D01*
X144055714Y-113435952D01*
X144174761Y-113376428D01*
X144472380Y-113376428D01*
X144591428Y-113435952D01*
X144650952Y-113495476D01*
X144710476Y-113614523D01*
X144710476Y-113971666D01*
X144650952Y-114090714D01*
X144591428Y-114150238D01*
X143460476Y-112066904D02*
X144710476Y-111650238D01*
X143460476Y-111233571D01*
X144710476Y-110162142D02*
X144710476Y-110876428D01*
X144710476Y-110519285D02*
X143460476Y-110519285D01*
X143639047Y-110638333D01*
X143758095Y-110757380D01*
X143817619Y-110876428D01*
X144591428Y-109626428D02*
X144650952Y-109566904D01*
X144710476Y-109626428D01*
X144650952Y-109685952D01*
X144591428Y-109626428D01*
X144710476Y-109626428D01*
X143579523Y-109090714D02*
X143520000Y-109031190D01*
X143460476Y-108912142D01*
X143460476Y-108614523D01*
X143520000Y-108495476D01*
X143579523Y-108435952D01*
X143698571Y-108376428D01*
X143817619Y-108376428D01*
X143996190Y-108435952D01*
X144710476Y-109150238D01*
X144710476Y-108376428D01*
X143400952Y-106947857D02*
X145008095Y-108019285D01*
X143579523Y-106590714D02*
X143520000Y-106531190D01*
X143460476Y-106412142D01*
X143460476Y-106114523D01*
X143520000Y-105995476D01*
X143579523Y-105935952D01*
X143698571Y-105876428D01*
X143817619Y-105876428D01*
X143996190Y-105935952D01*
X144710476Y-106650238D01*
X144710476Y-105876428D01*
X144591428Y-105340714D02*
X144650952Y-105281190D01*
X144710476Y-105340714D01*
X144650952Y-105400238D01*
X144591428Y-105340714D01*
X144710476Y-105340714D01*
X143460476Y-104507380D02*
X143460476Y-104388333D01*
X143520000Y-104269285D01*
X143579523Y-104209761D01*
X143698571Y-104150238D01*
X143936666Y-104090714D01*
X144234285Y-104090714D01*
X144472380Y-104150238D01*
X144591428Y-104209761D01*
X144650952Y-104269285D01*
X144710476Y-104388333D01*
X144710476Y-104507380D01*
X144650952Y-104626428D01*
X144591428Y-104685952D01*
X144472380Y-104745476D01*
X144234285Y-104805000D01*
X143936666Y-104805000D01*
X143698571Y-104745476D01*
X143579523Y-104685952D01*
X143520000Y-104626428D01*
X143460476Y-104507380D01*
X144650952Y-102662142D02*
X144710476Y-102483571D01*
X144710476Y-102185952D01*
X144650952Y-102066904D01*
X144591428Y-102007380D01*
X144472380Y-101947857D01*
X144353333Y-101947857D01*
X144234285Y-102007380D01*
X144174761Y-102066904D01*
X144115238Y-102185952D01*
X144055714Y-102424047D01*
X143996190Y-102543095D01*
X143936666Y-102602619D01*
X143817619Y-102662142D01*
X143698571Y-102662142D01*
X143579523Y-102602619D01*
X143520000Y-102543095D01*
X143460476Y-102424047D01*
X143460476Y-102126428D01*
X143520000Y-101947857D01*
X144650952Y-100876428D02*
X144710476Y-100995476D01*
X144710476Y-101233571D01*
X144650952Y-101352619D01*
X144591428Y-101412142D01*
X144472380Y-101471666D01*
X144115238Y-101471666D01*
X143996190Y-101412142D01*
X143936666Y-101352619D01*
X143877142Y-101233571D01*
X143877142Y-100995476D01*
X143936666Y-100876428D01*
X144710476Y-100340714D02*
X143877142Y-100340714D01*
X144115238Y-100340714D02*
X143996190Y-100281190D01*
X143936666Y-100221666D01*
X143877142Y-100102619D01*
X143877142Y-99983571D01*
X144650952Y-99090714D02*
X144710476Y-99209761D01*
X144710476Y-99447857D01*
X144650952Y-99566904D01*
X144531904Y-99626428D01*
X144055714Y-99626428D01*
X143936666Y-99566904D01*
X143877142Y-99447857D01*
X143877142Y-99209761D01*
X143936666Y-99090714D01*
X144055714Y-99031190D01*
X144174761Y-99031190D01*
X144293809Y-99626428D01*
X144650952Y-98019285D02*
X144710476Y-98138333D01*
X144710476Y-98376428D01*
X144650952Y-98495476D01*
X144531904Y-98555000D01*
X144055714Y-98555000D01*
X143936666Y-98495476D01*
X143877142Y-98376428D01*
X143877142Y-98138333D01*
X143936666Y-98019285D01*
X144055714Y-97959761D01*
X144174761Y-97959761D01*
X144293809Y-98555000D01*
X143877142Y-97424047D02*
X144710476Y-97424047D01*
X143996190Y-97424047D02*
X143936666Y-97364523D01*
X143877142Y-97245476D01*
X143877142Y-97066904D01*
X143936666Y-96947857D01*
X144055714Y-96888333D01*
X144710476Y-96888333D01*
X144353333Y-95400238D02*
X144353333Y-94805000D01*
X144710476Y-95519285D02*
X143460476Y-95102619D01*
X144710476Y-94685952D01*
X144710476Y-93733571D02*
X143460476Y-93733571D01*
X144650952Y-93733571D02*
X144710476Y-93852619D01*
X144710476Y-94090714D01*
X144650952Y-94209761D01*
X144591428Y-94269285D01*
X144472380Y-94328809D01*
X144115238Y-94328809D01*
X143996190Y-94269285D01*
X143936666Y-94209761D01*
X143877142Y-94090714D01*
X143877142Y-93852619D01*
X143936666Y-93733571D01*
X144710476Y-92602619D02*
X144055714Y-92602619D01*
X143936666Y-92662142D01*
X143877142Y-92781190D01*
X143877142Y-93019285D01*
X143936666Y-93138333D01*
X144650952Y-92602619D02*
X144710476Y-92721666D01*
X144710476Y-93019285D01*
X144650952Y-93138333D01*
X144531904Y-93197857D01*
X144412857Y-93197857D01*
X144293809Y-93138333D01*
X144234285Y-93019285D01*
X144234285Y-92721666D01*
X144174761Y-92602619D01*
X143877142Y-92007380D02*
X145127142Y-92007380D01*
X143936666Y-92007380D02*
X143877142Y-91888333D01*
X143877142Y-91650238D01*
X143936666Y-91531190D01*
X143996190Y-91471666D01*
X144115238Y-91412142D01*
X144472380Y-91412142D01*
X144591428Y-91471666D01*
X144650952Y-91531190D01*
X144710476Y-91650238D01*
X144710476Y-91888333D01*
X144650952Y-92007380D01*
X143877142Y-91055000D02*
X143877142Y-90578809D01*
X143460476Y-90876428D02*
X144531904Y-90876428D01*
X144650952Y-90816904D01*
X144710476Y-90697857D01*
X144710476Y-90578809D01*
X144710476Y-89983571D02*
X144650952Y-90102619D01*
X144591428Y-90162142D01*
X144472380Y-90221666D01*
X144115238Y-90221666D01*
X143996190Y-90162142D01*
X143936666Y-90102619D01*
X143877142Y-89983571D01*
X143877142Y-89805000D01*
X143936666Y-89685952D01*
X143996190Y-89626428D01*
X144115238Y-89566904D01*
X144472380Y-89566904D01*
X144591428Y-89626428D01*
X144650952Y-89685952D01*
X144710476Y-89805000D01*
X144710476Y-89983571D01*
X144710476Y-89031190D02*
X143877142Y-89031190D01*
X144115238Y-89031190D02*
X143996190Y-88971666D01*
X143936666Y-88912142D01*
X143877142Y-88793095D01*
X143877142Y-88674047D01*
D11*
X126928571Y-122316666D02*
X126928571Y-121983333D01*
X127452380Y-121840476D02*
X127452380Y-122316666D01*
X126452380Y-122316666D01*
X126452380Y-121840476D01*
X126452380Y-121507142D02*
X127452380Y-120840476D01*
X126452380Y-120840476D02*
X127452380Y-121507142D01*
X127452380Y-120459523D02*
X126452380Y-120459523D01*
X126452380Y-120078571D01*
X126500000Y-119983333D01*
X126547619Y-119935714D01*
X126642857Y-119888095D01*
X126785714Y-119888095D01*
X126880952Y-119935714D01*
X126928571Y-119983333D01*
X126976190Y-120078571D01*
X126976190Y-120459523D01*
X127452380Y-118935714D02*
X127452380Y-119507142D01*
X127452380Y-119221428D02*
X126452380Y-119221428D01*
X126595238Y-119316666D01*
X126690476Y-119411904D01*
X126738095Y-119507142D01*
X129309761Y-92463809D02*
X129357380Y-92320952D01*
X129357380Y-92082857D01*
X129309761Y-91987619D01*
X129262142Y-91940000D01*
X129166904Y-91892380D01*
X129071666Y-91892380D01*
X128976428Y-91940000D01*
X128928809Y-91987619D01*
X128881190Y-92082857D01*
X128833571Y-92273333D01*
X128785952Y-92368571D01*
X128738333Y-92416190D01*
X128643095Y-92463809D01*
X128547857Y-92463809D01*
X128452619Y-92416190D01*
X128405000Y-92368571D01*
X128357380Y-92273333D01*
X128357380Y-92035238D01*
X128405000Y-91892380D01*
X129357380Y-91463809D02*
X128357380Y-91463809D01*
X128357380Y-91082857D01*
X128405000Y-90987619D01*
X128452619Y-90940000D01*
X128547857Y-90892380D01*
X128690714Y-90892380D01*
X128785952Y-90940000D01*
X128833571Y-90987619D01*
X128881190Y-91082857D01*
X128881190Y-91463809D01*
X129357380Y-90463809D02*
X128357380Y-90463809D01*
D12*
X132607857Y-93305000D02*
X132607857Y-92805000D01*
X133393571Y-92590714D02*
X133393571Y-93305000D01*
X131893571Y-93305000D01*
X131893571Y-92590714D01*
X131893571Y-92090714D02*
X133393571Y-91090714D01*
X131893571Y-91090714D02*
X133393571Y-92090714D01*
X133393571Y-90519285D02*
X131893571Y-90519285D01*
X131893571Y-89947857D01*
X131965000Y-89805000D01*
X132036428Y-89733571D01*
X132179285Y-89662142D01*
X132393571Y-89662142D01*
X132536428Y-89733571D01*
X132607857Y-89805000D01*
X132679285Y-89947857D01*
X132679285Y-90519285D01*
X132036428Y-89090714D02*
X131965000Y-89019285D01*
X131893571Y-88876428D01*
X131893571Y-88519285D01*
X131965000Y-88376428D01*
X132036428Y-88305000D01*
X132179285Y-88233571D01*
X132322142Y-88233571D01*
X132536428Y-88305000D01*
X133393571Y-89162142D01*
X133393571Y-88233571D01*
X132607857Y-125055000D02*
X132607857Y-124555000D01*
X133393571Y-124340714D02*
X133393571Y-125055000D01*
X131893571Y-125055000D01*
X131893571Y-124340714D01*
X131893571Y-123840714D02*
X133393571Y-122840714D01*
X131893571Y-122840714D02*
X133393571Y-123840714D01*
X133393571Y-122269285D02*
X131893571Y-122269285D01*
X131893571Y-121697857D01*
X131965000Y-121555000D01*
X132036428Y-121483571D01*
X132179285Y-121412142D01*
X132393571Y-121412142D01*
X132536428Y-121483571D01*
X132607857Y-121555000D01*
X132679285Y-121697857D01*
X132679285Y-122269285D01*
X133393571Y-119983571D02*
X133393571Y-120840714D01*
X133393571Y-120412142D02*
X131893571Y-120412142D01*
X132107857Y-120555000D01*
X132250714Y-120697857D01*
X132322142Y-120840714D01*
D13*
X130457380Y-103893809D02*
X129457380Y-103893809D01*
X130457380Y-103322380D02*
X129885952Y-103750952D01*
X129457380Y-103322380D02*
X130028809Y-103893809D01*
X130457380Y-102893809D02*
X129790714Y-102893809D01*
X129457380Y-102893809D02*
X129505000Y-102941428D01*
X129552619Y-102893809D01*
X129505000Y-102846190D01*
X129457380Y-102893809D01*
X129552619Y-102893809D01*
X130457380Y-102274761D02*
X130409761Y-102370000D01*
X130314523Y-102417619D01*
X129457380Y-102417619D01*
X130457380Y-101750952D02*
X130409761Y-101846190D01*
X130314523Y-101893809D01*
X129457380Y-101893809D01*
X131067380Y-105036666D02*
X131781666Y-105036666D01*
X131924523Y-105084285D01*
X132019761Y-105179523D01*
X132067380Y-105322380D01*
X132067380Y-105417619D01*
X131400714Y-104131904D02*
X132067380Y-104131904D01*
X131400714Y-104560476D02*
X131924523Y-104560476D01*
X132019761Y-104512857D01*
X132067380Y-104417619D01*
X132067380Y-104274761D01*
X132019761Y-104179523D01*
X131972142Y-104131904D01*
X132067380Y-103655714D02*
X131400714Y-103655714D01*
X131495952Y-103655714D02*
X131448333Y-103608095D01*
X131400714Y-103512857D01*
X131400714Y-103370000D01*
X131448333Y-103274761D01*
X131543571Y-103227142D01*
X132067380Y-103227142D01*
X131543571Y-103227142D02*
X131448333Y-103179523D01*
X131400714Y-103084285D01*
X131400714Y-102941428D01*
X131448333Y-102846190D01*
X131543571Y-102798571D01*
X132067380Y-102798571D01*
X131400714Y-102322380D02*
X132400714Y-102322380D01*
X131448333Y-102322380D02*
X131400714Y-102227142D01*
X131400714Y-102036666D01*
X131448333Y-101941428D01*
X131495952Y-101893809D01*
X131591190Y-101846190D01*
X131876904Y-101846190D01*
X131972142Y-101893809D01*
X132019761Y-101941428D01*
X132067380Y-102036666D01*
X132067380Y-102227142D01*
X132019761Y-102322380D01*
X132019761Y-101036666D02*
X132067380Y-101131904D01*
X132067380Y-101322380D01*
X132019761Y-101417619D01*
X131924523Y-101465238D01*
X131543571Y-101465238D01*
X131448333Y-101417619D01*
X131400714Y-101322380D01*
X131400714Y-101131904D01*
X131448333Y-101036666D01*
X131543571Y-100989047D01*
X131638809Y-100989047D01*
X131734047Y-101465238D01*
X132067380Y-100560476D02*
X131400714Y-100560476D01*
X131591190Y-100560476D02*
X131495952Y-100512857D01*
X131448333Y-100465238D01*
X131400714Y-100370000D01*
X131400714Y-100274761D01*
D11*
X137882380Y-87963333D02*
X138596666Y-87963333D01*
X138739523Y-88010952D01*
X138834761Y-88106190D01*
X138882380Y-88249047D01*
X138882380Y-88344285D01*
X138215714Y-87058571D02*
X138882380Y-87058571D01*
X137834761Y-87296666D02*
X138549047Y-87534761D01*
X138549047Y-86915714D01*
X137882380Y-126063333D02*
X138596666Y-126063333D01*
X138739523Y-126110952D01*
X138834761Y-126206190D01*
X138882380Y-126349047D01*
X138882380Y-126444285D01*
X137882380Y-125682380D02*
X137882380Y-125063333D01*
X138263333Y-125396666D01*
X138263333Y-125253809D01*
X138310952Y-125158571D01*
X138358571Y-125110952D01*
X138453809Y-125063333D01*
X138691904Y-125063333D01*
X138787142Y-125110952D01*
X138834761Y-125158571D01*
X138882380Y-125253809D01*
X138882380Y-125539523D01*
X138834761Y-125634761D01*
X138787142Y-125682380D01*
D14*
X124049285Y-103495000D02*
X124585000Y-103495000D01*
X124692142Y-103530714D01*
X124763571Y-103602142D01*
X124799285Y-103709285D01*
X124799285Y-103780714D01*
X124799285Y-103137857D02*
X124049285Y-103137857D01*
X124049285Y-102852142D01*
X124085000Y-102780714D01*
X124120714Y-102745000D01*
X124192142Y-102709285D01*
X124299285Y-102709285D01*
X124370714Y-102745000D01*
X124406428Y-102780714D01*
X124442142Y-102852142D01*
X124442142Y-103137857D01*
X124799285Y-101995000D02*
X124799285Y-102423571D01*
X124799285Y-102209285D02*
X124049285Y-102209285D01*
X124156428Y-102280714D01*
X124227857Y-102352142D01*
X124263571Y-102423571D01*
D11*
X133985000Y-106045000D02*
X133985000Y-97940000D01*
X142875000Y-106045000D02*
X133985000Y-106045000D01*
X142875000Y-95885000D02*
X142875000Y-106045000D01*
X142875000Y-95885000D02*
X142875000Y-85725000D01*
X133985000Y-93830000D02*
X133985000Y-85725000D01*
X133985000Y-85725000D02*
X142875000Y-85725000D01*
X133985000Y-127635000D02*
X133985000Y-119530000D01*
X142875000Y-127635000D02*
X133985000Y-127635000D01*
X142875000Y-117475000D02*
X142875000Y-127635000D01*
X142875000Y-117475000D02*
X142875000Y-107315000D01*
X133985000Y-115420000D02*
X133985000Y-107315000D01*
X133985000Y-107315000D02*
X142875000Y-107315000D01*
D14*
X126300000Y-101870000D02*
X127700000Y-101870000D01*
X128400000Y-102570000D02*
X128400000Y-103170000D01*
X127700000Y-103870000D02*
X126300000Y-103870000D01*
X125600000Y-103170000D02*
X125600000Y-102570000D01*
X126300000Y-101870000D02*
G75*
G03*
X125600000Y-102570000I0J-700000D01*
G01*
X125600000Y-103170000D02*
G75*
G03*
X126300000Y-103870000I700000J0D01*
G01*
X127700000Y-103870000D02*
G75*
G03*
X128400000Y-103170000I0J700000D01*
G01*
X128400000Y-102570000D02*
G75*
G03*
X127700000Y-101870000I-700000J0D01*
G01*
M02*
