M48
; DRILL file {KiCad (5.1.5)-3} date 07/01/20 01:16:44
; FORMAT={-:-/ absolute / inch / decimal}
; #@! TF.CreationDate,2020-07-01T01:16:44-04:00
; #@! TF.GenerationSoftware,Kicad,Pcbnew,(5.1.5)-3
; #@! TF.FileFunction,Plated,1,2,PTH
FMAT,2
INCH
T1C0.0157
T2C0.0300
T3C0.0374
T4C0.0394
T5C0.0433
%
G90
G05
T1
X-0.4Y-0.48
X-0.265Y0.0719
X-0.265Y0.0305
X-0.24Y0.18
X-0.2205Y0.315
X-0.2035Y-0.175
X-0.2Y-0.32
X-0.175Y-0.125
X-0.1102Y0.315
X-0.1Y-0.46
X-0.0543Y0.0156
X-0.02Y0.18
X0.0Y-0.425
X0.0197Y0.128
X0.05Y0.0
X0.0591Y0.128
X0.18Y0.0447
X0.2Y-0.4867
X0.22Y0.3647
X0.2395Y-0.1805
X0.2396Y-0.1404
X0.2398Y-0.1002
X0.24Y-0.06
X0.3Y0.1447
X0.3Y-0.05
X0.3874Y-0.2634
X0.4374Y-0.2634
X0.4874Y-0.2634
X0.975Y-0.125
T2
X-0.15Y0.5
X-0.05Y0.5
X0.05Y0.5
X0.15Y0.5
T3
X-0.4Y0.0
X-0.4Y-0.0984
X-0.4Y-0.1969
X-0.4Y-0.2953
T4
X-0.4Y0.3
X-0.4Y0.2
T5
X-0.9378Y0.0886
X-0.9378Y-0.0886
X-0.6819Y0.0886
X-0.6819Y-0.0886
T0
M30
