G04 #@! TF.GenerationSoftware,KiCad,Pcbnew,(5.1.5)-3*
G04 #@! TF.CreationDate,2020-07-01T01:16:44-04:00*
G04 #@! TF.ProjectId,V0_Micro_Display,56305f4d-6963-4726-9f5f-446973706c61,rev?*
G04 #@! TF.SameCoordinates,Original*
G04 #@! TF.FileFunction,Paste,Bot*
G04 #@! TF.FilePolarity,Positive*
%FSLAX46Y46*%
G04 Gerber Fmt 4.6, Leading zero omitted, Abs format (unit mm)*
G04 Created by KiCad (PCBNEW (5.1.5)-3) date 2020-07-01 01:16:44*
%MOMM*%
%LPD*%
G04 APERTURE LIST*
%ADD10R,0.750000X1.000000*%
%ADD11R,0.600000X1.050000*%
%ADD12R,0.650000X1.060000*%
%ADD13C,0.100000*%
%ADD14R,1.450000X0.450000*%
G04 APERTURE END LIST*
D10*
X8793000Y4232000D03*
X12543000Y10232000D03*
X8793000Y10232000D03*
X12543000Y4232000D03*
D11*
X-6284000Y-9445000D03*
X-5334000Y-9445000D03*
X-4384000Y-9445000D03*
X-4384000Y-12145000D03*
X-6284000Y-12145000D03*
D12*
X11110000Y-9230000D03*
X9210000Y-9230000D03*
X9210000Y-11430000D03*
X10160000Y-11430000D03*
X11110000Y-11430000D03*
D13*
G36*
X-12727858Y7519826D02*
G01*
X-12704197Y7516316D01*
X-12680993Y7510504D01*
X-12658471Y7502446D01*
X-12636847Y7492218D01*
X-12616330Y7479921D01*
X-12597117Y7465671D01*
X-12579393Y7449607D01*
X-12563329Y7431883D01*
X-12549079Y7412670D01*
X-12536782Y7392153D01*
X-12526554Y7370529D01*
X-12518496Y7348007D01*
X-12512684Y7324803D01*
X-12509174Y7301142D01*
X-12508000Y7277250D01*
X-12508000Y6789750D01*
X-12509174Y6765858D01*
X-12512684Y6742197D01*
X-12518496Y6718993D01*
X-12526554Y6696471D01*
X-12536782Y6674847D01*
X-12549079Y6654330D01*
X-12563329Y6635117D01*
X-12579393Y6617393D01*
X-12597117Y6601329D01*
X-12616330Y6587079D01*
X-12636847Y6574782D01*
X-12658471Y6564554D01*
X-12680993Y6556496D01*
X-12704197Y6550684D01*
X-12727858Y6547174D01*
X-12751750Y6546000D01*
X-13664250Y6546000D01*
X-13688142Y6547174D01*
X-13711803Y6550684D01*
X-13735007Y6556496D01*
X-13757529Y6564554D01*
X-13779153Y6574782D01*
X-13799670Y6587079D01*
X-13818883Y6601329D01*
X-13836607Y6617393D01*
X-13852671Y6635117D01*
X-13866921Y6654330D01*
X-13879218Y6674847D01*
X-13889446Y6696471D01*
X-13897504Y6718993D01*
X-13903316Y6742197D01*
X-13906826Y6765858D01*
X-13908000Y6789750D01*
X-13908000Y7277250D01*
X-13906826Y7301142D01*
X-13903316Y7324803D01*
X-13897504Y7348007D01*
X-13889446Y7370529D01*
X-13879218Y7392153D01*
X-13866921Y7412670D01*
X-13852671Y7431883D01*
X-13836607Y7449607D01*
X-13818883Y7465671D01*
X-13799670Y7479921D01*
X-13779153Y7492218D01*
X-13757529Y7502446D01*
X-13735007Y7510504D01*
X-13711803Y7516316D01*
X-13688142Y7519826D01*
X-13664250Y7521000D01*
X-12751750Y7521000D01*
X-12727858Y7519826D01*
G37*
G36*
X-12727858Y5644826D02*
G01*
X-12704197Y5641316D01*
X-12680993Y5635504D01*
X-12658471Y5627446D01*
X-12636847Y5617218D01*
X-12616330Y5604921D01*
X-12597117Y5590671D01*
X-12579393Y5574607D01*
X-12563329Y5556883D01*
X-12549079Y5537670D01*
X-12536782Y5517153D01*
X-12526554Y5495529D01*
X-12518496Y5473007D01*
X-12512684Y5449803D01*
X-12509174Y5426142D01*
X-12508000Y5402250D01*
X-12508000Y4914750D01*
X-12509174Y4890858D01*
X-12512684Y4867197D01*
X-12518496Y4843993D01*
X-12526554Y4821471D01*
X-12536782Y4799847D01*
X-12549079Y4779330D01*
X-12563329Y4760117D01*
X-12579393Y4742393D01*
X-12597117Y4726329D01*
X-12616330Y4712079D01*
X-12636847Y4699782D01*
X-12658471Y4689554D01*
X-12680993Y4681496D01*
X-12704197Y4675684D01*
X-12727858Y4672174D01*
X-12751750Y4671000D01*
X-13664250Y4671000D01*
X-13688142Y4672174D01*
X-13711803Y4675684D01*
X-13735007Y4681496D01*
X-13757529Y4689554D01*
X-13779153Y4699782D01*
X-13799670Y4712079D01*
X-13818883Y4726329D01*
X-13836607Y4742393D01*
X-13852671Y4760117D01*
X-13866921Y4779330D01*
X-13879218Y4799847D01*
X-13889446Y4821471D01*
X-13897504Y4843993D01*
X-13903316Y4867197D01*
X-13906826Y4890858D01*
X-13908000Y4914750D01*
X-13908000Y5402250D01*
X-13906826Y5426142D01*
X-13903316Y5449803D01*
X-13897504Y5473007D01*
X-13889446Y5495529D01*
X-13879218Y5517153D01*
X-13866921Y5537670D01*
X-13852671Y5556883D01*
X-13836607Y5574607D01*
X-13818883Y5590671D01*
X-13799670Y5604921D01*
X-13779153Y5617218D01*
X-13757529Y5627446D01*
X-13735007Y5635504D01*
X-13711803Y5641316D01*
X-13688142Y5644826D01*
X-13664250Y5646000D01*
X-12751750Y5646000D01*
X-12727858Y5644826D01*
G37*
G36*
X6793142Y7930826D02*
G01*
X6816803Y7927316D01*
X6840007Y7921504D01*
X6862529Y7913446D01*
X6884153Y7903218D01*
X6904670Y7890921D01*
X6923883Y7876671D01*
X6941607Y7860607D01*
X6957671Y7842883D01*
X6971921Y7823670D01*
X6984218Y7803153D01*
X6994446Y7781529D01*
X7002504Y7759007D01*
X7008316Y7735803D01*
X7011826Y7712142D01*
X7013000Y7688250D01*
X7013000Y6775750D01*
X7011826Y6751858D01*
X7008316Y6728197D01*
X7002504Y6704993D01*
X6994446Y6682471D01*
X6984218Y6660847D01*
X6971921Y6640330D01*
X6957671Y6621117D01*
X6941607Y6603393D01*
X6923883Y6587329D01*
X6904670Y6573079D01*
X6884153Y6560782D01*
X6862529Y6550554D01*
X6840007Y6542496D01*
X6816803Y6536684D01*
X6793142Y6533174D01*
X6769250Y6532000D01*
X6281750Y6532000D01*
X6257858Y6533174D01*
X6234197Y6536684D01*
X6210993Y6542496D01*
X6188471Y6550554D01*
X6166847Y6560782D01*
X6146330Y6573079D01*
X6127117Y6587329D01*
X6109393Y6603393D01*
X6093329Y6621117D01*
X6079079Y6640330D01*
X6066782Y6660847D01*
X6056554Y6682471D01*
X6048496Y6704993D01*
X6042684Y6728197D01*
X6039174Y6751858D01*
X6038000Y6775750D01*
X6038000Y7688250D01*
X6039174Y7712142D01*
X6042684Y7735803D01*
X6048496Y7759007D01*
X6056554Y7781529D01*
X6066782Y7803153D01*
X6079079Y7823670D01*
X6093329Y7842883D01*
X6109393Y7860607D01*
X6127117Y7876671D01*
X6146330Y7890921D01*
X6166847Y7903218D01*
X6188471Y7913446D01*
X6210993Y7921504D01*
X6234197Y7927316D01*
X6257858Y7930826D01*
X6281750Y7932000D01*
X6769250Y7932000D01*
X6793142Y7930826D01*
G37*
G36*
X4918142Y7930826D02*
G01*
X4941803Y7927316D01*
X4965007Y7921504D01*
X4987529Y7913446D01*
X5009153Y7903218D01*
X5029670Y7890921D01*
X5048883Y7876671D01*
X5066607Y7860607D01*
X5082671Y7842883D01*
X5096921Y7823670D01*
X5109218Y7803153D01*
X5119446Y7781529D01*
X5127504Y7759007D01*
X5133316Y7735803D01*
X5136826Y7712142D01*
X5138000Y7688250D01*
X5138000Y6775750D01*
X5136826Y6751858D01*
X5133316Y6728197D01*
X5127504Y6704993D01*
X5119446Y6682471D01*
X5109218Y6660847D01*
X5096921Y6640330D01*
X5082671Y6621117D01*
X5066607Y6603393D01*
X5048883Y6587329D01*
X5029670Y6573079D01*
X5009153Y6560782D01*
X4987529Y6550554D01*
X4965007Y6542496D01*
X4941803Y6536684D01*
X4918142Y6533174D01*
X4894250Y6532000D01*
X4406750Y6532000D01*
X4382858Y6533174D01*
X4359197Y6536684D01*
X4335993Y6542496D01*
X4313471Y6550554D01*
X4291847Y6560782D01*
X4271330Y6573079D01*
X4252117Y6587329D01*
X4234393Y6603393D01*
X4218329Y6621117D01*
X4204079Y6640330D01*
X4191782Y6660847D01*
X4181554Y6682471D01*
X4173496Y6704993D01*
X4167684Y6728197D01*
X4164174Y6751858D01*
X4163000Y6775750D01*
X4163000Y7688250D01*
X4164174Y7712142D01*
X4167684Y7735803D01*
X4173496Y7759007D01*
X4181554Y7781529D01*
X4191782Y7803153D01*
X4204079Y7823670D01*
X4218329Y7842883D01*
X4234393Y7860607D01*
X4252117Y7876671D01*
X4271330Y7890921D01*
X4291847Y7903218D01*
X4313471Y7913446D01*
X4335993Y7921504D01*
X4359197Y7927316D01*
X4382858Y7930826D01*
X4406750Y7932000D01*
X4894250Y7932000D01*
X4918142Y7930826D01*
G37*
G36*
X8825142Y1333826D02*
G01*
X8848803Y1330316D01*
X8872007Y1324504D01*
X8894529Y1316446D01*
X8916153Y1306218D01*
X8936670Y1293921D01*
X8955883Y1279671D01*
X8973607Y1263607D01*
X8989671Y1245883D01*
X9003921Y1226670D01*
X9016218Y1206153D01*
X9026446Y1184529D01*
X9034504Y1162007D01*
X9040316Y1138803D01*
X9043826Y1115142D01*
X9045000Y1091250D01*
X9045000Y178750D01*
X9043826Y154858D01*
X9040316Y131197D01*
X9034504Y107993D01*
X9026446Y85471D01*
X9016218Y63847D01*
X9003921Y43330D01*
X8989671Y24117D01*
X8973607Y6393D01*
X8955883Y-9671D01*
X8936670Y-23921D01*
X8916153Y-36218D01*
X8894529Y-46446D01*
X8872007Y-54504D01*
X8848803Y-60316D01*
X8825142Y-63826D01*
X8801250Y-65000D01*
X8313750Y-65000D01*
X8289858Y-63826D01*
X8266197Y-60316D01*
X8242993Y-54504D01*
X8220471Y-46446D01*
X8198847Y-36218D01*
X8178330Y-23921D01*
X8159117Y-9671D01*
X8141393Y6393D01*
X8125329Y24117D01*
X8111079Y43330D01*
X8098782Y63847D01*
X8088554Y85471D01*
X8080496Y107993D01*
X8074684Y131197D01*
X8071174Y154858D01*
X8070000Y178750D01*
X8070000Y1091250D01*
X8071174Y1115142D01*
X8074684Y1138803D01*
X8080496Y1162007D01*
X8088554Y1184529D01*
X8098782Y1206153D01*
X8111079Y1226670D01*
X8125329Y1245883D01*
X8141393Y1263607D01*
X8159117Y1279671D01*
X8178330Y1293921D01*
X8198847Y1306218D01*
X8220471Y1316446D01*
X8242993Y1324504D01*
X8266197Y1330316D01*
X8289858Y1333826D01*
X8313750Y1335000D01*
X8801250Y1335000D01*
X8825142Y1333826D01*
G37*
G36*
X6950142Y1333826D02*
G01*
X6973803Y1330316D01*
X6997007Y1324504D01*
X7019529Y1316446D01*
X7041153Y1306218D01*
X7061670Y1293921D01*
X7080883Y1279671D01*
X7098607Y1263607D01*
X7114671Y1245883D01*
X7128921Y1226670D01*
X7141218Y1206153D01*
X7151446Y1184529D01*
X7159504Y1162007D01*
X7165316Y1138803D01*
X7168826Y1115142D01*
X7170000Y1091250D01*
X7170000Y178750D01*
X7168826Y154858D01*
X7165316Y131197D01*
X7159504Y107993D01*
X7151446Y85471D01*
X7141218Y63847D01*
X7128921Y43330D01*
X7114671Y24117D01*
X7098607Y6393D01*
X7080883Y-9671D01*
X7061670Y-23921D01*
X7041153Y-36218D01*
X7019529Y-46446D01*
X6997007Y-54504D01*
X6973803Y-60316D01*
X6950142Y-63826D01*
X6926250Y-65000D01*
X6438750Y-65000D01*
X6414858Y-63826D01*
X6391197Y-60316D01*
X6367993Y-54504D01*
X6345471Y-46446D01*
X6323847Y-36218D01*
X6303330Y-23921D01*
X6284117Y-9671D01*
X6266393Y6393D01*
X6250329Y24117D01*
X6236079Y43330D01*
X6223782Y63847D01*
X6213554Y85471D01*
X6205496Y107993D01*
X6199684Y131197D01*
X6196174Y154858D01*
X6195000Y178750D01*
X6195000Y1091250D01*
X6196174Y1115142D01*
X6199684Y1138803D01*
X6205496Y1162007D01*
X6213554Y1184529D01*
X6223782Y1206153D01*
X6236079Y1226670D01*
X6250329Y1245883D01*
X6266393Y1263607D01*
X6284117Y1279671D01*
X6303330Y1293921D01*
X6323847Y1306218D01*
X6345471Y1316446D01*
X6367993Y1324504D01*
X6391197Y1330316D01*
X6414858Y1333826D01*
X6438750Y1335000D01*
X6926250Y1335000D01*
X6950142Y1333826D01*
G37*
G36*
X-5234858Y-1721174D02*
G01*
X-5211197Y-1724684D01*
X-5187993Y-1730496D01*
X-5165471Y-1738554D01*
X-5143847Y-1748782D01*
X-5123330Y-1761079D01*
X-5104117Y-1775329D01*
X-5086393Y-1791393D01*
X-5070329Y-1809117D01*
X-5056079Y-1828330D01*
X-5043782Y-1848847D01*
X-5033554Y-1870471D01*
X-5025496Y-1892993D01*
X-5019684Y-1916197D01*
X-5016174Y-1939858D01*
X-5015000Y-1963750D01*
X-5015000Y-2451250D01*
X-5016174Y-2475142D01*
X-5019684Y-2498803D01*
X-5025496Y-2522007D01*
X-5033554Y-2544529D01*
X-5043782Y-2566153D01*
X-5056079Y-2586670D01*
X-5070329Y-2605883D01*
X-5086393Y-2623607D01*
X-5104117Y-2639671D01*
X-5123330Y-2653921D01*
X-5143847Y-2666218D01*
X-5165471Y-2676446D01*
X-5187993Y-2684504D01*
X-5211197Y-2690316D01*
X-5234858Y-2693826D01*
X-5258750Y-2695000D01*
X-6171250Y-2695000D01*
X-6195142Y-2693826D01*
X-6218803Y-2690316D01*
X-6242007Y-2684504D01*
X-6264529Y-2676446D01*
X-6286153Y-2666218D01*
X-6306670Y-2653921D01*
X-6325883Y-2639671D01*
X-6343607Y-2623607D01*
X-6359671Y-2605883D01*
X-6373921Y-2586670D01*
X-6386218Y-2566153D01*
X-6396446Y-2544529D01*
X-6404504Y-2522007D01*
X-6410316Y-2498803D01*
X-6413826Y-2475142D01*
X-6415000Y-2451250D01*
X-6415000Y-1963750D01*
X-6413826Y-1939858D01*
X-6410316Y-1916197D01*
X-6404504Y-1892993D01*
X-6396446Y-1870471D01*
X-6386218Y-1848847D01*
X-6373921Y-1828330D01*
X-6359671Y-1809117D01*
X-6343607Y-1791393D01*
X-6325883Y-1775329D01*
X-6306670Y-1761079D01*
X-6286153Y-1748782D01*
X-6264529Y-1738554D01*
X-6242007Y-1730496D01*
X-6218803Y-1724684D01*
X-6195142Y-1721174D01*
X-6171250Y-1720000D01*
X-5258750Y-1720000D01*
X-5234858Y-1721174D01*
G37*
G36*
X-5234858Y153826D02*
G01*
X-5211197Y150316D01*
X-5187993Y144504D01*
X-5165471Y136446D01*
X-5143847Y126218D01*
X-5123330Y113921D01*
X-5104117Y99671D01*
X-5086393Y83607D01*
X-5070329Y65883D01*
X-5056079Y46670D01*
X-5043782Y26153D01*
X-5033554Y4529D01*
X-5025496Y-17993D01*
X-5019684Y-41197D01*
X-5016174Y-64858D01*
X-5015000Y-88750D01*
X-5015000Y-576250D01*
X-5016174Y-600142D01*
X-5019684Y-623803D01*
X-5025496Y-647007D01*
X-5033554Y-669529D01*
X-5043782Y-691153D01*
X-5056079Y-711670D01*
X-5070329Y-730883D01*
X-5086393Y-748607D01*
X-5104117Y-764671D01*
X-5123330Y-778921D01*
X-5143847Y-791218D01*
X-5165471Y-801446D01*
X-5187993Y-809504D01*
X-5211197Y-815316D01*
X-5234858Y-818826D01*
X-5258750Y-820000D01*
X-6171250Y-820000D01*
X-6195142Y-818826D01*
X-6218803Y-815316D01*
X-6242007Y-809504D01*
X-6264529Y-801446D01*
X-6286153Y-791218D01*
X-6306670Y-778921D01*
X-6325883Y-764671D01*
X-6343607Y-748607D01*
X-6359671Y-730883D01*
X-6373921Y-711670D01*
X-6386218Y-691153D01*
X-6396446Y-669529D01*
X-6404504Y-647007D01*
X-6410316Y-623803D01*
X-6413826Y-600142D01*
X-6415000Y-576250D01*
X-6415000Y-88750D01*
X-6413826Y-64858D01*
X-6410316Y-41197D01*
X-6404504Y-17993D01*
X-6396446Y4529D01*
X-6386218Y26153D01*
X-6373921Y46670D01*
X-6359671Y65883D01*
X-6343607Y83607D01*
X-6325883Y99671D01*
X-6306670Y113921D01*
X-6286153Y126218D01*
X-6264529Y136446D01*
X-6242007Y144504D01*
X-6218803Y150316D01*
X-6195142Y153826D01*
X-6171250Y155000D01*
X-5258750Y155000D01*
X-5234858Y153826D01*
G37*
G36*
X13815142Y-10943674D02*
G01*
X13838803Y-10947184D01*
X13862007Y-10952996D01*
X13884529Y-10961054D01*
X13906153Y-10971282D01*
X13926670Y-10983579D01*
X13945883Y-10997829D01*
X13963607Y-11013893D01*
X13979671Y-11031617D01*
X13993921Y-11050830D01*
X14006218Y-11071347D01*
X14016446Y-11092971D01*
X14024504Y-11115493D01*
X14030316Y-11138697D01*
X14033826Y-11162358D01*
X14035000Y-11186250D01*
X14035000Y-11673750D01*
X14033826Y-11697642D01*
X14030316Y-11721303D01*
X14024504Y-11744507D01*
X14016446Y-11767029D01*
X14006218Y-11788653D01*
X13993921Y-11809170D01*
X13979671Y-11828383D01*
X13963607Y-11846107D01*
X13945883Y-11862171D01*
X13926670Y-11876421D01*
X13906153Y-11888718D01*
X13884529Y-11898946D01*
X13862007Y-11907004D01*
X13838803Y-11912816D01*
X13815142Y-11916326D01*
X13791250Y-11917500D01*
X12878750Y-11917500D01*
X12854858Y-11916326D01*
X12831197Y-11912816D01*
X12807993Y-11907004D01*
X12785471Y-11898946D01*
X12763847Y-11888718D01*
X12743330Y-11876421D01*
X12724117Y-11862171D01*
X12706393Y-11846107D01*
X12690329Y-11828383D01*
X12676079Y-11809170D01*
X12663782Y-11788653D01*
X12653554Y-11767029D01*
X12645496Y-11744507D01*
X12639684Y-11721303D01*
X12636174Y-11697642D01*
X12635000Y-11673750D01*
X12635000Y-11186250D01*
X12636174Y-11162358D01*
X12639684Y-11138697D01*
X12645496Y-11115493D01*
X12653554Y-11092971D01*
X12663782Y-11071347D01*
X12676079Y-11050830D01*
X12690329Y-11031617D01*
X12706393Y-11013893D01*
X12724117Y-10997829D01*
X12743330Y-10983579D01*
X12763847Y-10971282D01*
X12785471Y-10961054D01*
X12807993Y-10952996D01*
X12831197Y-10947184D01*
X12854858Y-10943674D01*
X12878750Y-10942500D01*
X13791250Y-10942500D01*
X13815142Y-10943674D01*
G37*
G36*
X13815142Y-9068674D02*
G01*
X13838803Y-9072184D01*
X13862007Y-9077996D01*
X13884529Y-9086054D01*
X13906153Y-9096282D01*
X13926670Y-9108579D01*
X13945883Y-9122829D01*
X13963607Y-9138893D01*
X13979671Y-9156617D01*
X13993921Y-9175830D01*
X14006218Y-9196347D01*
X14016446Y-9217971D01*
X14024504Y-9240493D01*
X14030316Y-9263697D01*
X14033826Y-9287358D01*
X14035000Y-9311250D01*
X14035000Y-9798750D01*
X14033826Y-9822642D01*
X14030316Y-9846303D01*
X14024504Y-9869507D01*
X14016446Y-9892029D01*
X14006218Y-9913653D01*
X13993921Y-9934170D01*
X13979671Y-9953383D01*
X13963607Y-9971107D01*
X13945883Y-9987171D01*
X13926670Y-10001421D01*
X13906153Y-10013718D01*
X13884529Y-10023946D01*
X13862007Y-10032004D01*
X13838803Y-10037816D01*
X13815142Y-10041326D01*
X13791250Y-10042500D01*
X12878750Y-10042500D01*
X12854858Y-10041326D01*
X12831197Y-10037816D01*
X12807993Y-10032004D01*
X12785471Y-10023946D01*
X12763847Y-10013718D01*
X12743330Y-10001421D01*
X12724117Y-9987171D01*
X12706393Y-9971107D01*
X12690329Y-9953383D01*
X12676079Y-9934170D01*
X12663782Y-9913653D01*
X12653554Y-9892029D01*
X12645496Y-9869507D01*
X12639684Y-9846303D01*
X12636174Y-9822642D01*
X12635000Y-9798750D01*
X12635000Y-9311250D01*
X12636174Y-9287358D01*
X12639684Y-9263697D01*
X12645496Y-9240493D01*
X12653554Y-9217971D01*
X12663782Y-9196347D01*
X12676079Y-9175830D01*
X12690329Y-9156617D01*
X12706393Y-9138893D01*
X12724117Y-9122829D01*
X12743330Y-9108579D01*
X12763847Y-9096282D01*
X12785471Y-9086054D01*
X12807993Y-9077996D01*
X12831197Y-9072184D01*
X12854858Y-9068674D01*
X12878750Y-9067500D01*
X13791250Y-9067500D01*
X13815142Y-9068674D01*
G37*
G36*
X7465142Y-9068674D02*
G01*
X7488803Y-9072184D01*
X7512007Y-9077996D01*
X7534529Y-9086054D01*
X7556153Y-9096282D01*
X7576670Y-9108579D01*
X7595883Y-9122829D01*
X7613607Y-9138893D01*
X7629671Y-9156617D01*
X7643921Y-9175830D01*
X7656218Y-9196347D01*
X7666446Y-9217971D01*
X7674504Y-9240493D01*
X7680316Y-9263697D01*
X7683826Y-9287358D01*
X7685000Y-9311250D01*
X7685000Y-9798750D01*
X7683826Y-9822642D01*
X7680316Y-9846303D01*
X7674504Y-9869507D01*
X7666446Y-9892029D01*
X7656218Y-9913653D01*
X7643921Y-9934170D01*
X7629671Y-9953383D01*
X7613607Y-9971107D01*
X7595883Y-9987171D01*
X7576670Y-10001421D01*
X7556153Y-10013718D01*
X7534529Y-10023946D01*
X7512007Y-10032004D01*
X7488803Y-10037816D01*
X7465142Y-10041326D01*
X7441250Y-10042500D01*
X6528750Y-10042500D01*
X6504858Y-10041326D01*
X6481197Y-10037816D01*
X6457993Y-10032004D01*
X6435471Y-10023946D01*
X6413847Y-10013718D01*
X6393330Y-10001421D01*
X6374117Y-9987171D01*
X6356393Y-9971107D01*
X6340329Y-9953383D01*
X6326079Y-9934170D01*
X6313782Y-9913653D01*
X6303554Y-9892029D01*
X6295496Y-9869507D01*
X6289684Y-9846303D01*
X6286174Y-9822642D01*
X6285000Y-9798750D01*
X6285000Y-9311250D01*
X6286174Y-9287358D01*
X6289684Y-9263697D01*
X6295496Y-9240493D01*
X6303554Y-9217971D01*
X6313782Y-9196347D01*
X6326079Y-9175830D01*
X6340329Y-9156617D01*
X6356393Y-9138893D01*
X6374117Y-9122829D01*
X6393330Y-9108579D01*
X6413847Y-9096282D01*
X6435471Y-9086054D01*
X6457993Y-9077996D01*
X6481197Y-9072184D01*
X6504858Y-9068674D01*
X6528750Y-9067500D01*
X7441250Y-9067500D01*
X7465142Y-9068674D01*
G37*
G36*
X7465142Y-10943674D02*
G01*
X7488803Y-10947184D01*
X7512007Y-10952996D01*
X7534529Y-10961054D01*
X7556153Y-10971282D01*
X7576670Y-10983579D01*
X7595883Y-10997829D01*
X7613607Y-11013893D01*
X7629671Y-11031617D01*
X7643921Y-11050830D01*
X7656218Y-11071347D01*
X7666446Y-11092971D01*
X7674504Y-11115493D01*
X7680316Y-11138697D01*
X7683826Y-11162358D01*
X7685000Y-11186250D01*
X7685000Y-11673750D01*
X7683826Y-11697642D01*
X7680316Y-11721303D01*
X7674504Y-11744507D01*
X7666446Y-11767029D01*
X7656218Y-11788653D01*
X7643921Y-11809170D01*
X7629671Y-11828383D01*
X7613607Y-11846107D01*
X7595883Y-11862171D01*
X7576670Y-11876421D01*
X7556153Y-11888718D01*
X7534529Y-11898946D01*
X7512007Y-11907004D01*
X7488803Y-11912816D01*
X7465142Y-11916326D01*
X7441250Y-11917500D01*
X6528750Y-11917500D01*
X6504858Y-11916326D01*
X6481197Y-11912816D01*
X6457993Y-11907004D01*
X6435471Y-11898946D01*
X6413847Y-11888718D01*
X6393330Y-11876421D01*
X6374117Y-11862171D01*
X6356393Y-11846107D01*
X6340329Y-11828383D01*
X6326079Y-11809170D01*
X6313782Y-11788653D01*
X6303554Y-11767029D01*
X6295496Y-11744507D01*
X6289684Y-11721303D01*
X6286174Y-11697642D01*
X6285000Y-11673750D01*
X6285000Y-11186250D01*
X6286174Y-11162358D01*
X6289684Y-11138697D01*
X6295496Y-11115493D01*
X6303554Y-11092971D01*
X6313782Y-11071347D01*
X6326079Y-11050830D01*
X6340329Y-11031617D01*
X6356393Y-11013893D01*
X6374117Y-10997829D01*
X6393330Y-10983579D01*
X6413847Y-10971282D01*
X6435471Y-10961054D01*
X6457993Y-10952996D01*
X6481197Y-10947184D01*
X6504858Y-10943674D01*
X6528750Y-10942500D01*
X7441250Y-10942500D01*
X7465142Y-10943674D01*
G37*
D14*
X2950000Y2925000D03*
X2950000Y2275000D03*
X2950000Y1625000D03*
X2950000Y975000D03*
X2950000Y325000D03*
X2950000Y-325000D03*
X2950000Y-975000D03*
X2950000Y-1625000D03*
X2950000Y-2275000D03*
X2950000Y-2925000D03*
X-2950000Y-2925000D03*
X-2950000Y-2275000D03*
X-2950000Y-1625000D03*
X-2950000Y-975000D03*
X-2950000Y-325000D03*
X-2950000Y325000D03*
X-2950000Y975000D03*
X-2950000Y1625000D03*
X-2950000Y2275000D03*
X-2950000Y2925000D03*
M02*
