G04 #@! TF.GenerationSoftware,KiCad,Pcbnew,(5.1.5)-3*
G04 #@! TF.CreationDate,2020-02-02T22:30:26-05:00*
G04 #@! TF.ProjectId,STM32_Klipper_Expander,53544d33-325f-44b6-9c69-707065725f45,rev?*
G04 #@! TF.SameCoordinates,Original*
G04 #@! TF.FileFunction,Copper,L2,Bot*
G04 #@! TF.FilePolarity,Positive*
%FSLAX46Y46*%
G04 Gerber Fmt 4.6, Leading zero omitted, Abs format (unit mm)*
G04 Created by KiCad (PCBNEW (5.1.5)-3) date 2020-02-02 22:30:26*
%MOMM*%
%LPD*%
G04 APERTURE LIST*
%ADD10O,1.700000X1.700000*%
%ADD11R,1.700000X1.700000*%
%ADD12O,1.200000X1.900000*%
%ADD13C,1.450000*%
%ADD14O,1.700000X2.000000*%
%ADD15C,0.100000*%
%ADD16C,2.500000*%
%ADD17R,2.600000X2.600000*%
%ADD18C,2.600000*%
%ADD19C,1.750000*%
%ADD20C,0.800000*%
%ADD21C,0.250000*%
%ADD22C,0.254000*%
G04 APERTURE END LIST*
D10*
X172540000Y-79000000D03*
D11*
X170000000Y-79000000D03*
D12*
X178242000Y-77421500D03*
X185242000Y-77421500D03*
D13*
X179242000Y-80121500D03*
X184242000Y-80121500D03*
D11*
X197250000Y-96500000D03*
D14*
X180500000Y-95500000D03*
G04 #@! TA.AperFunction,ComponentPad*
D15*
G36*
X183624504Y-94501204D02*
G01*
X183648773Y-94504804D01*
X183672571Y-94510765D01*
X183695671Y-94519030D01*
X183717849Y-94529520D01*
X183738893Y-94542133D01*
X183758598Y-94556747D01*
X183776777Y-94573223D01*
X183793253Y-94591402D01*
X183807867Y-94611107D01*
X183820480Y-94632151D01*
X183830970Y-94654329D01*
X183839235Y-94677429D01*
X183845196Y-94701227D01*
X183848796Y-94725496D01*
X183850000Y-94750000D01*
X183850000Y-96250000D01*
X183848796Y-96274504D01*
X183845196Y-96298773D01*
X183839235Y-96322571D01*
X183830970Y-96345671D01*
X183820480Y-96367849D01*
X183807867Y-96388893D01*
X183793253Y-96408598D01*
X183776777Y-96426777D01*
X183758598Y-96443253D01*
X183738893Y-96457867D01*
X183717849Y-96470480D01*
X183695671Y-96480970D01*
X183672571Y-96489235D01*
X183648773Y-96495196D01*
X183624504Y-96498796D01*
X183600000Y-96500000D01*
X182400000Y-96500000D01*
X182375496Y-96498796D01*
X182351227Y-96495196D01*
X182327429Y-96489235D01*
X182304329Y-96480970D01*
X182282151Y-96470480D01*
X182261107Y-96457867D01*
X182241402Y-96443253D01*
X182223223Y-96426777D01*
X182206747Y-96408598D01*
X182192133Y-96388893D01*
X182179520Y-96367849D01*
X182169030Y-96345671D01*
X182160765Y-96322571D01*
X182154804Y-96298773D01*
X182151204Y-96274504D01*
X182150000Y-96250000D01*
X182150000Y-94750000D01*
X182151204Y-94725496D01*
X182154804Y-94701227D01*
X182160765Y-94677429D01*
X182169030Y-94654329D01*
X182179520Y-94632151D01*
X182192133Y-94611107D01*
X182206747Y-94591402D01*
X182223223Y-94573223D01*
X182241402Y-94556747D01*
X182261107Y-94542133D01*
X182282151Y-94529520D01*
X182304329Y-94519030D01*
X182327429Y-94510765D01*
X182351227Y-94504804D01*
X182375496Y-94501204D01*
X182400000Y-94500000D01*
X183600000Y-94500000D01*
X183624504Y-94501204D01*
G37*
G04 #@! TD.AperFunction*
D16*
X153000000Y-78845000D03*
X153000000Y-82505000D03*
X153000000Y-86975000D03*
X153000000Y-90635000D03*
D17*
X164350000Y-82500000D03*
D18*
X159270000Y-82500000D03*
G04 #@! TA.AperFunction,ComponentPad*
D15*
G36*
X192374504Y-94501204D02*
G01*
X192398773Y-94504804D01*
X192422571Y-94510765D01*
X192445671Y-94519030D01*
X192467849Y-94529520D01*
X192488893Y-94542133D01*
X192508598Y-94556747D01*
X192526777Y-94573223D01*
X192543253Y-94591402D01*
X192557867Y-94611107D01*
X192570480Y-94632151D01*
X192580970Y-94654329D01*
X192589235Y-94677429D01*
X192595196Y-94701227D01*
X192598796Y-94725496D01*
X192600000Y-94750000D01*
X192600000Y-96250000D01*
X192598796Y-96274504D01*
X192595196Y-96298773D01*
X192589235Y-96322571D01*
X192580970Y-96345671D01*
X192570480Y-96367849D01*
X192557867Y-96388893D01*
X192543253Y-96408598D01*
X192526777Y-96426777D01*
X192508598Y-96443253D01*
X192488893Y-96457867D01*
X192467849Y-96470480D01*
X192445671Y-96480970D01*
X192422571Y-96489235D01*
X192398773Y-96495196D01*
X192374504Y-96498796D01*
X192350000Y-96500000D01*
X191150000Y-96500000D01*
X191125496Y-96498796D01*
X191101227Y-96495196D01*
X191077429Y-96489235D01*
X191054329Y-96480970D01*
X191032151Y-96470480D01*
X191011107Y-96457867D01*
X190991402Y-96443253D01*
X190973223Y-96426777D01*
X190956747Y-96408598D01*
X190942133Y-96388893D01*
X190929520Y-96367849D01*
X190919030Y-96345671D01*
X190910765Y-96322571D01*
X190904804Y-96298773D01*
X190901204Y-96274504D01*
X190900000Y-96250000D01*
X190900000Y-94750000D01*
X190901204Y-94725496D01*
X190904804Y-94701227D01*
X190910765Y-94677429D01*
X190919030Y-94654329D01*
X190929520Y-94632151D01*
X190942133Y-94611107D01*
X190956747Y-94591402D01*
X190973223Y-94573223D01*
X190991402Y-94556747D01*
X191011107Y-94542133D01*
X191032151Y-94529520D01*
X191054329Y-94519030D01*
X191077429Y-94510765D01*
X191101227Y-94504804D01*
X191125496Y-94501204D01*
X191150000Y-94500000D01*
X192350000Y-94500000D01*
X192374504Y-94501204D01*
G37*
G04 #@! TD.AperFunction*
D14*
X189250000Y-95500000D03*
D11*
X175500000Y-90750000D03*
D10*
X175500000Y-93290000D03*
D11*
X197250000Y-91500000D03*
D10*
X197250000Y-88960000D03*
X197250000Y-86420000D03*
X163874000Y-96778000D03*
X166414000Y-96778000D03*
X168954000Y-96778000D03*
D11*
X171494000Y-96778000D03*
D10*
X151670000Y-96750000D03*
X154210000Y-96750000D03*
D11*
X156750000Y-96750000D03*
D19*
X144500000Y-96750000D03*
X138000000Y-96750000D03*
D18*
X111190000Y-82500000D03*
X116270000Y-82500000D03*
X121350000Y-82500000D03*
X126430000Y-82500000D03*
X131510000Y-82500000D03*
X136590000Y-82500000D03*
X141670000Y-82500000D03*
D17*
X146750000Y-82500000D03*
D20*
X133625000Y-88710000D03*
X137435000Y-87440000D03*
X136165000Y-86170000D03*
X134895000Y-88710000D03*
X113305000Y-87440000D03*
X137435000Y-86170000D03*
X136165000Y-87440000D03*
X123465000Y-87440000D03*
X124735000Y-87440000D03*
X115845000Y-86170000D03*
X115845000Y-87440000D03*
X114575000Y-88710000D03*
X114575000Y-86170000D03*
X134895000Y-86170000D03*
X124735000Y-88710000D03*
X126005000Y-87440000D03*
X113305000Y-86170000D03*
X117115000Y-87440000D03*
X123465000Y-88710000D03*
X127275000Y-86170000D03*
X114575000Y-87440000D03*
X117115000Y-86170000D03*
X126005000Y-88710000D03*
X117115000Y-88710000D03*
X127275000Y-88710000D03*
X115845000Y-88710000D03*
X123465000Y-86170000D03*
X127275000Y-87440000D03*
X124735000Y-86170000D03*
X113305000Y-88710000D03*
X126005000Y-86170000D03*
X137435000Y-88710000D03*
X133625000Y-86170000D03*
X145055000Y-87440000D03*
X143785000Y-87440000D03*
X146325000Y-88710000D03*
X143785000Y-86170000D03*
X147595000Y-88710000D03*
X145055000Y-86170000D03*
X146325000Y-87440000D03*
X147595000Y-86170000D03*
X145055000Y-88710000D03*
X146325000Y-86170000D03*
X147595000Y-87440000D03*
X143785000Y-88710000D03*
X136165000Y-88710000D03*
X133625000Y-87440000D03*
X134895000Y-87440000D03*
X186822000Y-76829000D03*
X181350200Y-77459000D03*
X178918000Y-81834000D03*
X186538000Y-79802000D03*
X176666500Y-76833500D03*
X191750000Y-77250000D03*
X173250000Y-85750000D03*
X193750000Y-86500000D03*
X189500000Y-82250000D03*
X167750000Y-90000000D03*
X181750000Y-85000000D03*
X170417948Y-84054701D03*
X167000000Y-92250000D03*
X170475000Y-82725000D03*
X169000000Y-92250000D03*
X159500000Y-85000000D03*
X158036563Y-90011563D03*
X161750000Y-95000000D03*
X173250000Y-81999997D03*
X161750000Y-96250000D03*
X173250000Y-83000000D03*
X163500000Y-86250000D03*
X166750000Y-85250000D03*
X163500000Y-87250000D03*
X166750000Y-86250000D03*
X163500000Y-88250000D03*
X166750000Y-87250000D03*
X163500000Y-89250000D03*
X166750000Y-88250000D03*
X167000000Y-89250000D03*
X163500000Y-90500000D03*
X176500000Y-87000000D03*
X189500000Y-88750000D03*
X176250000Y-88000000D03*
X180750000Y-88750000D03*
X176250000Y-86000000D03*
X191250000Y-86000000D03*
D21*
X167000000Y-92250000D02*
X167818205Y-91431795D01*
X167818205Y-91431795D02*
X169181795Y-91431795D01*
X169181795Y-91431795D02*
X170417948Y-90195642D01*
X170417948Y-90195642D02*
X170417948Y-84054701D01*
X170475000Y-82725000D02*
X171250000Y-83500000D01*
X171250000Y-89750000D02*
X171250000Y-83500000D01*
X171250000Y-89750000D02*
X171250000Y-90000000D01*
X171250000Y-90000000D02*
X169000000Y-92250000D01*
X159500000Y-88548126D02*
X158036563Y-90011563D01*
X159500000Y-85000000D02*
X159500000Y-88548126D01*
X171975001Y-90348001D02*
X167323002Y-95000000D01*
X171975001Y-89661409D02*
X171975001Y-90348001D01*
X167323002Y-95000000D02*
X161750000Y-95000000D01*
X171975000Y-82775000D02*
X171975000Y-89661409D01*
X171975000Y-82709312D02*
X171975000Y-82775000D01*
X172684315Y-81999997D02*
X171975000Y-82709312D01*
X173250000Y-81999997D02*
X172684315Y-81999997D01*
X167509402Y-95450010D02*
X162549990Y-95450010D01*
X172425010Y-90534402D02*
X167509402Y-95450010D01*
X173250000Y-83000000D02*
X172425010Y-83824990D01*
X162549990Y-95450010D02*
X161750000Y-96250000D01*
X172425010Y-83824990D02*
X172425010Y-90534402D01*
X165250000Y-86250000D02*
X166250000Y-85250000D01*
X163500000Y-86250000D02*
X165250000Y-86250000D01*
X166250000Y-85250000D02*
X166750000Y-85250000D01*
X165250000Y-87250000D02*
X166250000Y-86250000D01*
X163500000Y-87250000D02*
X165250000Y-87250000D01*
X166250000Y-86250000D02*
X166750000Y-86250000D01*
X165250000Y-88250000D02*
X166250000Y-87250000D01*
X163500000Y-88250000D02*
X165250000Y-88250000D01*
X166250000Y-87250000D02*
X166750000Y-87250000D01*
X163500000Y-89250000D02*
X165250000Y-89250000D01*
X165250000Y-89250000D02*
X166250000Y-88250000D01*
X166250000Y-88250000D02*
X166750000Y-88250000D01*
X167000000Y-89250000D02*
X165750000Y-90500000D01*
X165750000Y-90500000D02*
X163500000Y-90500000D01*
X176500000Y-87000000D02*
X182500000Y-87000000D01*
X182500000Y-87000000D02*
X188000000Y-87000000D01*
X188000000Y-87000000D02*
X189500000Y-88500000D01*
X189500000Y-88500000D02*
X189500000Y-88750000D01*
X176250000Y-88000000D02*
X180000000Y-88000000D01*
X180000000Y-88000000D02*
X180250000Y-88000000D01*
X180250000Y-88000000D02*
X180750000Y-88500000D01*
X180750000Y-88500000D02*
X180750000Y-88750000D01*
X191250000Y-86000000D02*
X176250000Y-86000000D01*
D22*
G36*
X155373000Y-84873000D02*
G01*
X100660000Y-84873000D01*
X100660000Y-82309419D01*
X109255000Y-82309419D01*
X109255000Y-82690581D01*
X109329361Y-83064419D01*
X109475225Y-83416566D01*
X109686987Y-83733491D01*
X109956509Y-84003013D01*
X110273434Y-84214775D01*
X110625581Y-84360639D01*
X110999419Y-84435000D01*
X111380581Y-84435000D01*
X111754419Y-84360639D01*
X112106566Y-84214775D01*
X112423491Y-84003013D01*
X112577280Y-83849224D01*
X115100381Y-83849224D01*
X115232317Y-84144312D01*
X115573045Y-84315159D01*
X115940557Y-84416250D01*
X116320729Y-84443701D01*
X116698951Y-84396457D01*
X117060690Y-84276333D01*
X117307683Y-84144312D01*
X117439619Y-83849224D01*
X116270000Y-82679605D01*
X115100381Y-83849224D01*
X112577280Y-83849224D01*
X112693013Y-83733491D01*
X112904775Y-83416566D01*
X113050639Y-83064419D01*
X113125000Y-82690581D01*
X113125000Y-82550729D01*
X114326299Y-82550729D01*
X114373543Y-82928951D01*
X114493667Y-83290690D01*
X114625688Y-83537683D01*
X114920776Y-83669619D01*
X116090395Y-82500000D01*
X116449605Y-82500000D01*
X117619224Y-83669619D01*
X117914312Y-83537683D01*
X118085159Y-83196955D01*
X118186250Y-82829443D01*
X118213701Y-82449271D01*
X118196232Y-82309419D01*
X119415000Y-82309419D01*
X119415000Y-82690581D01*
X119489361Y-83064419D01*
X119635225Y-83416566D01*
X119846987Y-83733491D01*
X120116509Y-84003013D01*
X120433434Y-84214775D01*
X120785581Y-84360639D01*
X121159419Y-84435000D01*
X121540581Y-84435000D01*
X121914419Y-84360639D01*
X122266566Y-84214775D01*
X122583491Y-84003013D01*
X122737280Y-83849224D01*
X125260381Y-83849224D01*
X125392317Y-84144312D01*
X125733045Y-84315159D01*
X126100557Y-84416250D01*
X126480729Y-84443701D01*
X126858951Y-84396457D01*
X127220690Y-84276333D01*
X127467683Y-84144312D01*
X127599619Y-83849224D01*
X126430000Y-82679605D01*
X125260381Y-83849224D01*
X122737280Y-83849224D01*
X122853013Y-83733491D01*
X123064775Y-83416566D01*
X123210639Y-83064419D01*
X123285000Y-82690581D01*
X123285000Y-82550729D01*
X124486299Y-82550729D01*
X124533543Y-82928951D01*
X124653667Y-83290690D01*
X124785688Y-83537683D01*
X125080776Y-83669619D01*
X126250395Y-82500000D01*
X126609605Y-82500000D01*
X127779224Y-83669619D01*
X128074312Y-83537683D01*
X128245159Y-83196955D01*
X128346250Y-82829443D01*
X128373701Y-82449271D01*
X128356232Y-82309419D01*
X129575000Y-82309419D01*
X129575000Y-82690581D01*
X129649361Y-83064419D01*
X129795225Y-83416566D01*
X130006987Y-83733491D01*
X130276509Y-84003013D01*
X130593434Y-84214775D01*
X130945581Y-84360639D01*
X131319419Y-84435000D01*
X131700581Y-84435000D01*
X132074419Y-84360639D01*
X132426566Y-84214775D01*
X132743491Y-84003013D01*
X132897280Y-83849224D01*
X135420381Y-83849224D01*
X135552317Y-84144312D01*
X135893045Y-84315159D01*
X136260557Y-84416250D01*
X136640729Y-84443701D01*
X137018951Y-84396457D01*
X137380690Y-84276333D01*
X137627683Y-84144312D01*
X137759619Y-83849224D01*
X136590000Y-82679605D01*
X135420381Y-83849224D01*
X132897280Y-83849224D01*
X133013013Y-83733491D01*
X133224775Y-83416566D01*
X133370639Y-83064419D01*
X133445000Y-82690581D01*
X133445000Y-82550729D01*
X134646299Y-82550729D01*
X134693543Y-82928951D01*
X134813667Y-83290690D01*
X134945688Y-83537683D01*
X135240776Y-83669619D01*
X136410395Y-82500000D01*
X136769605Y-82500000D01*
X137939224Y-83669619D01*
X138234312Y-83537683D01*
X138405159Y-83196955D01*
X138506250Y-82829443D01*
X138533701Y-82449271D01*
X138516232Y-82309419D01*
X139735000Y-82309419D01*
X139735000Y-82690581D01*
X139809361Y-83064419D01*
X139955225Y-83416566D01*
X140166987Y-83733491D01*
X140436509Y-84003013D01*
X140753434Y-84214775D01*
X141105581Y-84360639D01*
X141479419Y-84435000D01*
X141860581Y-84435000D01*
X142234419Y-84360639D01*
X142586566Y-84214775D01*
X142903491Y-84003013D01*
X143106504Y-83800000D01*
X144811928Y-83800000D01*
X144824188Y-83924482D01*
X144860498Y-84044180D01*
X144919463Y-84154494D01*
X144998815Y-84251185D01*
X145095506Y-84330537D01*
X145205820Y-84389502D01*
X145325518Y-84425812D01*
X145450000Y-84438072D01*
X146464250Y-84435000D01*
X146623000Y-84276250D01*
X146623000Y-82627000D01*
X146877000Y-82627000D01*
X146877000Y-84276250D01*
X147035750Y-84435000D01*
X148050000Y-84438072D01*
X148174482Y-84425812D01*
X148294180Y-84389502D01*
X148404494Y-84330537D01*
X148501185Y-84251185D01*
X148580537Y-84154494D01*
X148639502Y-84044180D01*
X148675812Y-83924482D01*
X148686239Y-83818605D01*
X151866000Y-83818605D01*
X151991914Y-84108577D01*
X152324126Y-84274433D01*
X152682312Y-84372290D01*
X153052706Y-84398389D01*
X153421075Y-84351725D01*
X153773262Y-84234094D01*
X154008086Y-84108577D01*
X154134000Y-83818605D01*
X153000000Y-82684605D01*
X151866000Y-83818605D01*
X148686239Y-83818605D01*
X148688072Y-83800000D01*
X148685000Y-82785750D01*
X148526250Y-82627000D01*
X146877000Y-82627000D01*
X146623000Y-82627000D01*
X144973750Y-82627000D01*
X144815000Y-82785750D01*
X144811928Y-83800000D01*
X143106504Y-83800000D01*
X143173013Y-83733491D01*
X143384775Y-83416566D01*
X143530639Y-83064419D01*
X143605000Y-82690581D01*
X143605000Y-82557706D01*
X151106611Y-82557706D01*
X151153275Y-82926075D01*
X151270906Y-83278262D01*
X151396423Y-83513086D01*
X151686395Y-83639000D01*
X152820395Y-82505000D01*
X153179605Y-82505000D01*
X154313605Y-83639000D01*
X154603577Y-83513086D01*
X154769433Y-83180874D01*
X154867290Y-82822688D01*
X154893389Y-82452294D01*
X154846725Y-82083925D01*
X154729094Y-81731738D01*
X154603577Y-81496914D01*
X154313605Y-81371000D01*
X153179605Y-82505000D01*
X152820395Y-82505000D01*
X151686395Y-81371000D01*
X151396423Y-81496914D01*
X151230567Y-81829126D01*
X151132710Y-82187312D01*
X151106611Y-82557706D01*
X143605000Y-82557706D01*
X143605000Y-82309419D01*
X143530639Y-81935581D01*
X143384775Y-81583434D01*
X143173013Y-81266509D01*
X143106504Y-81200000D01*
X144811928Y-81200000D01*
X144815000Y-82214250D01*
X144973750Y-82373000D01*
X146623000Y-82373000D01*
X146623000Y-80723750D01*
X146877000Y-80723750D01*
X146877000Y-82373000D01*
X148526250Y-82373000D01*
X148685000Y-82214250D01*
X148688072Y-81200000D01*
X148675812Y-81075518D01*
X148639502Y-80955820D01*
X148580537Y-80845506D01*
X148501185Y-80748815D01*
X148404494Y-80669463D01*
X148294180Y-80610498D01*
X148174482Y-80574188D01*
X148050000Y-80561928D01*
X147035750Y-80565000D01*
X146877000Y-80723750D01*
X146623000Y-80723750D01*
X146464250Y-80565000D01*
X145450000Y-80561928D01*
X145325518Y-80574188D01*
X145205820Y-80610498D01*
X145095506Y-80669463D01*
X144998815Y-80748815D01*
X144919463Y-80845506D01*
X144860498Y-80955820D01*
X144824188Y-81075518D01*
X144811928Y-81200000D01*
X143106504Y-81200000D01*
X142903491Y-80996987D01*
X142586566Y-80785225D01*
X142234419Y-80639361D01*
X141860581Y-80565000D01*
X141479419Y-80565000D01*
X141105581Y-80639361D01*
X140753434Y-80785225D01*
X140436509Y-80996987D01*
X140166987Y-81266509D01*
X139955225Y-81583434D01*
X139809361Y-81935581D01*
X139735000Y-82309419D01*
X138516232Y-82309419D01*
X138486457Y-82071049D01*
X138366333Y-81709310D01*
X138234312Y-81462317D01*
X137939224Y-81330381D01*
X136769605Y-82500000D01*
X136410395Y-82500000D01*
X135240776Y-81330381D01*
X134945688Y-81462317D01*
X134774841Y-81803045D01*
X134673750Y-82170557D01*
X134646299Y-82550729D01*
X133445000Y-82550729D01*
X133445000Y-82309419D01*
X133370639Y-81935581D01*
X133224775Y-81583434D01*
X133013013Y-81266509D01*
X132897280Y-81150776D01*
X135420381Y-81150776D01*
X136590000Y-82320395D01*
X137759619Y-81150776D01*
X137627683Y-80855688D01*
X137286955Y-80684841D01*
X136919443Y-80583750D01*
X136539271Y-80556299D01*
X136161049Y-80603543D01*
X135799310Y-80723667D01*
X135552317Y-80855688D01*
X135420381Y-81150776D01*
X132897280Y-81150776D01*
X132743491Y-80996987D01*
X132426566Y-80785225D01*
X132074419Y-80639361D01*
X131700581Y-80565000D01*
X131319419Y-80565000D01*
X130945581Y-80639361D01*
X130593434Y-80785225D01*
X130276509Y-80996987D01*
X130006987Y-81266509D01*
X129795225Y-81583434D01*
X129649361Y-81935581D01*
X129575000Y-82309419D01*
X128356232Y-82309419D01*
X128326457Y-82071049D01*
X128206333Y-81709310D01*
X128074312Y-81462317D01*
X127779224Y-81330381D01*
X126609605Y-82500000D01*
X126250395Y-82500000D01*
X125080776Y-81330381D01*
X124785688Y-81462317D01*
X124614841Y-81803045D01*
X124513750Y-82170557D01*
X124486299Y-82550729D01*
X123285000Y-82550729D01*
X123285000Y-82309419D01*
X123210639Y-81935581D01*
X123064775Y-81583434D01*
X122853013Y-81266509D01*
X122737280Y-81150776D01*
X125260381Y-81150776D01*
X126430000Y-82320395D01*
X127599619Y-81150776D01*
X127467683Y-80855688D01*
X127126955Y-80684841D01*
X126759443Y-80583750D01*
X126379271Y-80556299D01*
X126001049Y-80603543D01*
X125639310Y-80723667D01*
X125392317Y-80855688D01*
X125260381Y-81150776D01*
X122737280Y-81150776D01*
X122583491Y-80996987D01*
X122266566Y-80785225D01*
X121914419Y-80639361D01*
X121540581Y-80565000D01*
X121159419Y-80565000D01*
X120785581Y-80639361D01*
X120433434Y-80785225D01*
X120116509Y-80996987D01*
X119846987Y-81266509D01*
X119635225Y-81583434D01*
X119489361Y-81935581D01*
X119415000Y-82309419D01*
X118196232Y-82309419D01*
X118166457Y-82071049D01*
X118046333Y-81709310D01*
X117914312Y-81462317D01*
X117619224Y-81330381D01*
X116449605Y-82500000D01*
X116090395Y-82500000D01*
X114920776Y-81330381D01*
X114625688Y-81462317D01*
X114454841Y-81803045D01*
X114353750Y-82170557D01*
X114326299Y-82550729D01*
X113125000Y-82550729D01*
X113125000Y-82309419D01*
X113050639Y-81935581D01*
X112904775Y-81583434D01*
X112693013Y-81266509D01*
X112577280Y-81150776D01*
X115100381Y-81150776D01*
X116270000Y-82320395D01*
X117439619Y-81150776D01*
X117307683Y-80855688D01*
X116966955Y-80684841D01*
X116599443Y-80583750D01*
X116219271Y-80556299D01*
X115841049Y-80603543D01*
X115479310Y-80723667D01*
X115232317Y-80855688D01*
X115100381Y-81150776D01*
X112577280Y-81150776D01*
X112423491Y-80996987D01*
X112106566Y-80785225D01*
X111754419Y-80639361D01*
X111380581Y-80565000D01*
X110999419Y-80565000D01*
X110625581Y-80639361D01*
X110273434Y-80785225D01*
X109956509Y-80996987D01*
X109686987Y-81266509D01*
X109475225Y-81583434D01*
X109329361Y-81935581D01*
X109255000Y-82309419D01*
X100660000Y-82309419D01*
X100660000Y-79779872D01*
X101765000Y-79779872D01*
X101765000Y-80220128D01*
X101850890Y-80651925D01*
X102019369Y-81058669D01*
X102263962Y-81424729D01*
X102575271Y-81736038D01*
X102941331Y-81980631D01*
X103348075Y-82149110D01*
X103779872Y-82235000D01*
X104220128Y-82235000D01*
X104651925Y-82149110D01*
X105058669Y-81980631D01*
X105424729Y-81736038D01*
X105736038Y-81424729D01*
X105980631Y-81058669D01*
X106149110Y-80651925D01*
X106235000Y-80220128D01*
X106235000Y-80158605D01*
X151866000Y-80158605D01*
X151991914Y-80448577D01*
X152324126Y-80614433D01*
X152536485Y-80672450D01*
X152226738Y-80775906D01*
X151991914Y-80901423D01*
X151866000Y-81191395D01*
X153000000Y-82325395D01*
X154134000Y-81191395D01*
X154008086Y-80901423D01*
X153675874Y-80735567D01*
X153463515Y-80677550D01*
X153773262Y-80574094D01*
X154008086Y-80448577D01*
X154134000Y-80158605D01*
X153000000Y-79024605D01*
X151866000Y-80158605D01*
X106235000Y-80158605D01*
X106235000Y-79779872D01*
X106149110Y-79348075D01*
X105980631Y-78941331D01*
X105951482Y-78897706D01*
X151106611Y-78897706D01*
X151153275Y-79266075D01*
X151270906Y-79618262D01*
X151396423Y-79853086D01*
X151686395Y-79979000D01*
X152820395Y-78845000D01*
X153179605Y-78845000D01*
X154313605Y-79979000D01*
X154603577Y-79853086D01*
X154769433Y-79520874D01*
X154867290Y-79162688D01*
X154893389Y-78792294D01*
X154846725Y-78423925D01*
X154729094Y-78071738D01*
X154603577Y-77836914D01*
X154313605Y-77711000D01*
X153179605Y-78845000D01*
X152820395Y-78845000D01*
X151686395Y-77711000D01*
X151396423Y-77836914D01*
X151230567Y-78169126D01*
X151132710Y-78527312D01*
X151106611Y-78897706D01*
X105951482Y-78897706D01*
X105736038Y-78575271D01*
X105424729Y-78263962D01*
X105058669Y-78019369D01*
X104651925Y-77850890D01*
X104220128Y-77765000D01*
X103779872Y-77765000D01*
X103348075Y-77850890D01*
X102941331Y-78019369D01*
X102575271Y-78263962D01*
X102263962Y-78575271D01*
X102019369Y-78941331D01*
X101850890Y-79348075D01*
X101765000Y-79779872D01*
X100660000Y-79779872D01*
X100660000Y-77531395D01*
X151866000Y-77531395D01*
X153000000Y-78665395D01*
X154134000Y-77531395D01*
X154008086Y-77241423D01*
X153675874Y-77075567D01*
X153317688Y-76977710D01*
X152947294Y-76951611D01*
X152578925Y-76998275D01*
X152226738Y-77115906D01*
X151991914Y-77241423D01*
X151866000Y-77531395D01*
X100660000Y-77531395D01*
X100660000Y-76660000D01*
X155373000Y-76660000D01*
X155373000Y-84873000D01*
G37*
X155373000Y-84873000D02*
X100660000Y-84873000D01*
X100660000Y-82309419D01*
X109255000Y-82309419D01*
X109255000Y-82690581D01*
X109329361Y-83064419D01*
X109475225Y-83416566D01*
X109686987Y-83733491D01*
X109956509Y-84003013D01*
X110273434Y-84214775D01*
X110625581Y-84360639D01*
X110999419Y-84435000D01*
X111380581Y-84435000D01*
X111754419Y-84360639D01*
X112106566Y-84214775D01*
X112423491Y-84003013D01*
X112577280Y-83849224D01*
X115100381Y-83849224D01*
X115232317Y-84144312D01*
X115573045Y-84315159D01*
X115940557Y-84416250D01*
X116320729Y-84443701D01*
X116698951Y-84396457D01*
X117060690Y-84276333D01*
X117307683Y-84144312D01*
X117439619Y-83849224D01*
X116270000Y-82679605D01*
X115100381Y-83849224D01*
X112577280Y-83849224D01*
X112693013Y-83733491D01*
X112904775Y-83416566D01*
X113050639Y-83064419D01*
X113125000Y-82690581D01*
X113125000Y-82550729D01*
X114326299Y-82550729D01*
X114373543Y-82928951D01*
X114493667Y-83290690D01*
X114625688Y-83537683D01*
X114920776Y-83669619D01*
X116090395Y-82500000D01*
X116449605Y-82500000D01*
X117619224Y-83669619D01*
X117914312Y-83537683D01*
X118085159Y-83196955D01*
X118186250Y-82829443D01*
X118213701Y-82449271D01*
X118196232Y-82309419D01*
X119415000Y-82309419D01*
X119415000Y-82690581D01*
X119489361Y-83064419D01*
X119635225Y-83416566D01*
X119846987Y-83733491D01*
X120116509Y-84003013D01*
X120433434Y-84214775D01*
X120785581Y-84360639D01*
X121159419Y-84435000D01*
X121540581Y-84435000D01*
X121914419Y-84360639D01*
X122266566Y-84214775D01*
X122583491Y-84003013D01*
X122737280Y-83849224D01*
X125260381Y-83849224D01*
X125392317Y-84144312D01*
X125733045Y-84315159D01*
X126100557Y-84416250D01*
X126480729Y-84443701D01*
X126858951Y-84396457D01*
X127220690Y-84276333D01*
X127467683Y-84144312D01*
X127599619Y-83849224D01*
X126430000Y-82679605D01*
X125260381Y-83849224D01*
X122737280Y-83849224D01*
X122853013Y-83733491D01*
X123064775Y-83416566D01*
X123210639Y-83064419D01*
X123285000Y-82690581D01*
X123285000Y-82550729D01*
X124486299Y-82550729D01*
X124533543Y-82928951D01*
X124653667Y-83290690D01*
X124785688Y-83537683D01*
X125080776Y-83669619D01*
X126250395Y-82500000D01*
X126609605Y-82500000D01*
X127779224Y-83669619D01*
X128074312Y-83537683D01*
X128245159Y-83196955D01*
X128346250Y-82829443D01*
X128373701Y-82449271D01*
X128356232Y-82309419D01*
X129575000Y-82309419D01*
X129575000Y-82690581D01*
X129649361Y-83064419D01*
X129795225Y-83416566D01*
X130006987Y-83733491D01*
X130276509Y-84003013D01*
X130593434Y-84214775D01*
X130945581Y-84360639D01*
X131319419Y-84435000D01*
X131700581Y-84435000D01*
X132074419Y-84360639D01*
X132426566Y-84214775D01*
X132743491Y-84003013D01*
X132897280Y-83849224D01*
X135420381Y-83849224D01*
X135552317Y-84144312D01*
X135893045Y-84315159D01*
X136260557Y-84416250D01*
X136640729Y-84443701D01*
X137018951Y-84396457D01*
X137380690Y-84276333D01*
X137627683Y-84144312D01*
X137759619Y-83849224D01*
X136590000Y-82679605D01*
X135420381Y-83849224D01*
X132897280Y-83849224D01*
X133013013Y-83733491D01*
X133224775Y-83416566D01*
X133370639Y-83064419D01*
X133445000Y-82690581D01*
X133445000Y-82550729D01*
X134646299Y-82550729D01*
X134693543Y-82928951D01*
X134813667Y-83290690D01*
X134945688Y-83537683D01*
X135240776Y-83669619D01*
X136410395Y-82500000D01*
X136769605Y-82500000D01*
X137939224Y-83669619D01*
X138234312Y-83537683D01*
X138405159Y-83196955D01*
X138506250Y-82829443D01*
X138533701Y-82449271D01*
X138516232Y-82309419D01*
X139735000Y-82309419D01*
X139735000Y-82690581D01*
X139809361Y-83064419D01*
X139955225Y-83416566D01*
X140166987Y-83733491D01*
X140436509Y-84003013D01*
X140753434Y-84214775D01*
X141105581Y-84360639D01*
X141479419Y-84435000D01*
X141860581Y-84435000D01*
X142234419Y-84360639D01*
X142586566Y-84214775D01*
X142903491Y-84003013D01*
X143106504Y-83800000D01*
X144811928Y-83800000D01*
X144824188Y-83924482D01*
X144860498Y-84044180D01*
X144919463Y-84154494D01*
X144998815Y-84251185D01*
X145095506Y-84330537D01*
X145205820Y-84389502D01*
X145325518Y-84425812D01*
X145450000Y-84438072D01*
X146464250Y-84435000D01*
X146623000Y-84276250D01*
X146623000Y-82627000D01*
X146877000Y-82627000D01*
X146877000Y-84276250D01*
X147035750Y-84435000D01*
X148050000Y-84438072D01*
X148174482Y-84425812D01*
X148294180Y-84389502D01*
X148404494Y-84330537D01*
X148501185Y-84251185D01*
X148580537Y-84154494D01*
X148639502Y-84044180D01*
X148675812Y-83924482D01*
X148686239Y-83818605D01*
X151866000Y-83818605D01*
X151991914Y-84108577D01*
X152324126Y-84274433D01*
X152682312Y-84372290D01*
X153052706Y-84398389D01*
X153421075Y-84351725D01*
X153773262Y-84234094D01*
X154008086Y-84108577D01*
X154134000Y-83818605D01*
X153000000Y-82684605D01*
X151866000Y-83818605D01*
X148686239Y-83818605D01*
X148688072Y-83800000D01*
X148685000Y-82785750D01*
X148526250Y-82627000D01*
X146877000Y-82627000D01*
X146623000Y-82627000D01*
X144973750Y-82627000D01*
X144815000Y-82785750D01*
X144811928Y-83800000D01*
X143106504Y-83800000D01*
X143173013Y-83733491D01*
X143384775Y-83416566D01*
X143530639Y-83064419D01*
X143605000Y-82690581D01*
X143605000Y-82557706D01*
X151106611Y-82557706D01*
X151153275Y-82926075D01*
X151270906Y-83278262D01*
X151396423Y-83513086D01*
X151686395Y-83639000D01*
X152820395Y-82505000D01*
X153179605Y-82505000D01*
X154313605Y-83639000D01*
X154603577Y-83513086D01*
X154769433Y-83180874D01*
X154867290Y-82822688D01*
X154893389Y-82452294D01*
X154846725Y-82083925D01*
X154729094Y-81731738D01*
X154603577Y-81496914D01*
X154313605Y-81371000D01*
X153179605Y-82505000D01*
X152820395Y-82505000D01*
X151686395Y-81371000D01*
X151396423Y-81496914D01*
X151230567Y-81829126D01*
X151132710Y-82187312D01*
X151106611Y-82557706D01*
X143605000Y-82557706D01*
X143605000Y-82309419D01*
X143530639Y-81935581D01*
X143384775Y-81583434D01*
X143173013Y-81266509D01*
X143106504Y-81200000D01*
X144811928Y-81200000D01*
X144815000Y-82214250D01*
X144973750Y-82373000D01*
X146623000Y-82373000D01*
X146623000Y-80723750D01*
X146877000Y-80723750D01*
X146877000Y-82373000D01*
X148526250Y-82373000D01*
X148685000Y-82214250D01*
X148688072Y-81200000D01*
X148675812Y-81075518D01*
X148639502Y-80955820D01*
X148580537Y-80845506D01*
X148501185Y-80748815D01*
X148404494Y-80669463D01*
X148294180Y-80610498D01*
X148174482Y-80574188D01*
X148050000Y-80561928D01*
X147035750Y-80565000D01*
X146877000Y-80723750D01*
X146623000Y-80723750D01*
X146464250Y-80565000D01*
X145450000Y-80561928D01*
X145325518Y-80574188D01*
X145205820Y-80610498D01*
X145095506Y-80669463D01*
X144998815Y-80748815D01*
X144919463Y-80845506D01*
X144860498Y-80955820D01*
X144824188Y-81075518D01*
X144811928Y-81200000D01*
X143106504Y-81200000D01*
X142903491Y-80996987D01*
X142586566Y-80785225D01*
X142234419Y-80639361D01*
X141860581Y-80565000D01*
X141479419Y-80565000D01*
X141105581Y-80639361D01*
X140753434Y-80785225D01*
X140436509Y-80996987D01*
X140166987Y-81266509D01*
X139955225Y-81583434D01*
X139809361Y-81935581D01*
X139735000Y-82309419D01*
X138516232Y-82309419D01*
X138486457Y-82071049D01*
X138366333Y-81709310D01*
X138234312Y-81462317D01*
X137939224Y-81330381D01*
X136769605Y-82500000D01*
X136410395Y-82500000D01*
X135240776Y-81330381D01*
X134945688Y-81462317D01*
X134774841Y-81803045D01*
X134673750Y-82170557D01*
X134646299Y-82550729D01*
X133445000Y-82550729D01*
X133445000Y-82309419D01*
X133370639Y-81935581D01*
X133224775Y-81583434D01*
X133013013Y-81266509D01*
X132897280Y-81150776D01*
X135420381Y-81150776D01*
X136590000Y-82320395D01*
X137759619Y-81150776D01*
X137627683Y-80855688D01*
X137286955Y-80684841D01*
X136919443Y-80583750D01*
X136539271Y-80556299D01*
X136161049Y-80603543D01*
X135799310Y-80723667D01*
X135552317Y-80855688D01*
X135420381Y-81150776D01*
X132897280Y-81150776D01*
X132743491Y-80996987D01*
X132426566Y-80785225D01*
X132074419Y-80639361D01*
X131700581Y-80565000D01*
X131319419Y-80565000D01*
X130945581Y-80639361D01*
X130593434Y-80785225D01*
X130276509Y-80996987D01*
X130006987Y-81266509D01*
X129795225Y-81583434D01*
X129649361Y-81935581D01*
X129575000Y-82309419D01*
X128356232Y-82309419D01*
X128326457Y-82071049D01*
X128206333Y-81709310D01*
X128074312Y-81462317D01*
X127779224Y-81330381D01*
X126609605Y-82500000D01*
X126250395Y-82500000D01*
X125080776Y-81330381D01*
X124785688Y-81462317D01*
X124614841Y-81803045D01*
X124513750Y-82170557D01*
X124486299Y-82550729D01*
X123285000Y-82550729D01*
X123285000Y-82309419D01*
X123210639Y-81935581D01*
X123064775Y-81583434D01*
X122853013Y-81266509D01*
X122737280Y-81150776D01*
X125260381Y-81150776D01*
X126430000Y-82320395D01*
X127599619Y-81150776D01*
X127467683Y-80855688D01*
X127126955Y-80684841D01*
X126759443Y-80583750D01*
X126379271Y-80556299D01*
X126001049Y-80603543D01*
X125639310Y-80723667D01*
X125392317Y-80855688D01*
X125260381Y-81150776D01*
X122737280Y-81150776D01*
X122583491Y-80996987D01*
X122266566Y-80785225D01*
X121914419Y-80639361D01*
X121540581Y-80565000D01*
X121159419Y-80565000D01*
X120785581Y-80639361D01*
X120433434Y-80785225D01*
X120116509Y-80996987D01*
X119846987Y-81266509D01*
X119635225Y-81583434D01*
X119489361Y-81935581D01*
X119415000Y-82309419D01*
X118196232Y-82309419D01*
X118166457Y-82071049D01*
X118046333Y-81709310D01*
X117914312Y-81462317D01*
X117619224Y-81330381D01*
X116449605Y-82500000D01*
X116090395Y-82500000D01*
X114920776Y-81330381D01*
X114625688Y-81462317D01*
X114454841Y-81803045D01*
X114353750Y-82170557D01*
X114326299Y-82550729D01*
X113125000Y-82550729D01*
X113125000Y-82309419D01*
X113050639Y-81935581D01*
X112904775Y-81583434D01*
X112693013Y-81266509D01*
X112577280Y-81150776D01*
X115100381Y-81150776D01*
X116270000Y-82320395D01*
X117439619Y-81150776D01*
X117307683Y-80855688D01*
X116966955Y-80684841D01*
X116599443Y-80583750D01*
X116219271Y-80556299D01*
X115841049Y-80603543D01*
X115479310Y-80723667D01*
X115232317Y-80855688D01*
X115100381Y-81150776D01*
X112577280Y-81150776D01*
X112423491Y-80996987D01*
X112106566Y-80785225D01*
X111754419Y-80639361D01*
X111380581Y-80565000D01*
X110999419Y-80565000D01*
X110625581Y-80639361D01*
X110273434Y-80785225D01*
X109956509Y-80996987D01*
X109686987Y-81266509D01*
X109475225Y-81583434D01*
X109329361Y-81935581D01*
X109255000Y-82309419D01*
X100660000Y-82309419D01*
X100660000Y-79779872D01*
X101765000Y-79779872D01*
X101765000Y-80220128D01*
X101850890Y-80651925D01*
X102019369Y-81058669D01*
X102263962Y-81424729D01*
X102575271Y-81736038D01*
X102941331Y-81980631D01*
X103348075Y-82149110D01*
X103779872Y-82235000D01*
X104220128Y-82235000D01*
X104651925Y-82149110D01*
X105058669Y-81980631D01*
X105424729Y-81736038D01*
X105736038Y-81424729D01*
X105980631Y-81058669D01*
X106149110Y-80651925D01*
X106235000Y-80220128D01*
X106235000Y-80158605D01*
X151866000Y-80158605D01*
X151991914Y-80448577D01*
X152324126Y-80614433D01*
X152536485Y-80672450D01*
X152226738Y-80775906D01*
X151991914Y-80901423D01*
X151866000Y-81191395D01*
X153000000Y-82325395D01*
X154134000Y-81191395D01*
X154008086Y-80901423D01*
X153675874Y-80735567D01*
X153463515Y-80677550D01*
X153773262Y-80574094D01*
X154008086Y-80448577D01*
X154134000Y-80158605D01*
X153000000Y-79024605D01*
X151866000Y-80158605D01*
X106235000Y-80158605D01*
X106235000Y-79779872D01*
X106149110Y-79348075D01*
X105980631Y-78941331D01*
X105951482Y-78897706D01*
X151106611Y-78897706D01*
X151153275Y-79266075D01*
X151270906Y-79618262D01*
X151396423Y-79853086D01*
X151686395Y-79979000D01*
X152820395Y-78845000D01*
X153179605Y-78845000D01*
X154313605Y-79979000D01*
X154603577Y-79853086D01*
X154769433Y-79520874D01*
X154867290Y-79162688D01*
X154893389Y-78792294D01*
X154846725Y-78423925D01*
X154729094Y-78071738D01*
X154603577Y-77836914D01*
X154313605Y-77711000D01*
X153179605Y-78845000D01*
X152820395Y-78845000D01*
X151686395Y-77711000D01*
X151396423Y-77836914D01*
X151230567Y-78169126D01*
X151132710Y-78527312D01*
X151106611Y-78897706D01*
X105951482Y-78897706D01*
X105736038Y-78575271D01*
X105424729Y-78263962D01*
X105058669Y-78019369D01*
X104651925Y-77850890D01*
X104220128Y-77765000D01*
X103779872Y-77765000D01*
X103348075Y-77850890D01*
X102941331Y-78019369D01*
X102575271Y-78263962D01*
X102263962Y-78575271D01*
X102019369Y-78941331D01*
X101850890Y-79348075D01*
X101765000Y-79779872D01*
X100660000Y-79779872D01*
X100660000Y-77531395D01*
X151866000Y-77531395D01*
X153000000Y-78665395D01*
X154134000Y-77531395D01*
X154008086Y-77241423D01*
X153675874Y-77075567D01*
X153317688Y-76977710D01*
X152947294Y-76951611D01*
X152578925Y-76998275D01*
X152226738Y-77115906D01*
X151991914Y-77241423D01*
X151866000Y-77531395D01*
X100660000Y-77531395D01*
X100660000Y-76660000D01*
X155373000Y-76660000D01*
X155373000Y-84873000D01*
G36*
X177055507Y-76706004D02*
G01*
X177007000Y-76944500D01*
X177007000Y-77294500D01*
X178115000Y-77294500D01*
X178115000Y-77274500D01*
X178369000Y-77274500D01*
X178369000Y-77294500D01*
X179477000Y-77294500D01*
X179477000Y-76944500D01*
X179428493Y-76706004D01*
X179409205Y-76660000D01*
X184074795Y-76660000D01*
X184055507Y-76706004D01*
X184007000Y-76944500D01*
X184007000Y-77294500D01*
X185115000Y-77294500D01*
X185115000Y-77274500D01*
X185369000Y-77274500D01*
X185369000Y-77294500D01*
X186477000Y-77294500D01*
X186477000Y-76944500D01*
X186428493Y-76706004D01*
X186409205Y-76660000D01*
X199340001Y-76660000D01*
X199340000Y-99340000D01*
X100660000Y-99340000D01*
X100660000Y-97796240D01*
X137133365Y-97796240D01*
X137214025Y-98047868D01*
X137482329Y-98176267D01*
X137770526Y-98249855D01*
X138067543Y-98265804D01*
X138361963Y-98223501D01*
X138642474Y-98124572D01*
X138785975Y-98047868D01*
X138866635Y-97796240D01*
X138000000Y-96929605D01*
X137133365Y-97796240D01*
X100660000Y-97796240D01*
X100660000Y-96817543D01*
X136484196Y-96817543D01*
X136526499Y-97111963D01*
X136625428Y-97392474D01*
X136702132Y-97535975D01*
X136953760Y-97616635D01*
X137820395Y-96750000D01*
X138179605Y-96750000D01*
X139046240Y-97616635D01*
X139297868Y-97535975D01*
X139426267Y-97267671D01*
X139499855Y-96979474D01*
X139515804Y-96682457D01*
X139504140Y-96601278D01*
X142990000Y-96601278D01*
X142990000Y-96898722D01*
X143048029Y-97190451D01*
X143161856Y-97465253D01*
X143327107Y-97712569D01*
X143537431Y-97922893D01*
X143784747Y-98088144D01*
X144059549Y-98201971D01*
X144351278Y-98260000D01*
X144648722Y-98260000D01*
X144940451Y-98201971D01*
X145215253Y-98088144D01*
X145462569Y-97922893D01*
X145672893Y-97712569D01*
X145838144Y-97465253D01*
X145951971Y-97190451D01*
X146010000Y-96898722D01*
X146010000Y-96603740D01*
X150185000Y-96603740D01*
X150185000Y-96896260D01*
X150242068Y-97183158D01*
X150354010Y-97453411D01*
X150516525Y-97696632D01*
X150723368Y-97903475D01*
X150966589Y-98065990D01*
X151236842Y-98177932D01*
X151523740Y-98235000D01*
X151816260Y-98235000D01*
X152103158Y-98177932D01*
X152373411Y-98065990D01*
X152616632Y-97903475D01*
X152823475Y-97696632D01*
X152940000Y-97522240D01*
X153056525Y-97696632D01*
X153263368Y-97903475D01*
X153506589Y-98065990D01*
X153776842Y-98177932D01*
X154063740Y-98235000D01*
X154356260Y-98235000D01*
X154643158Y-98177932D01*
X154913411Y-98065990D01*
X155156632Y-97903475D01*
X155288487Y-97771620D01*
X155310498Y-97844180D01*
X155369463Y-97954494D01*
X155448815Y-98051185D01*
X155545506Y-98130537D01*
X155655820Y-98189502D01*
X155775518Y-98225812D01*
X155900000Y-98238072D01*
X157600000Y-98238072D01*
X157724482Y-98225812D01*
X157844180Y-98189502D01*
X157954494Y-98130537D01*
X158051185Y-98051185D01*
X158130537Y-97954494D01*
X158189502Y-97844180D01*
X158225812Y-97724482D01*
X158238072Y-97600000D01*
X158238072Y-95900000D01*
X158225812Y-95775518D01*
X158189502Y-95655820D01*
X158130537Y-95545506D01*
X158051185Y-95448815D01*
X157954494Y-95369463D01*
X157844180Y-95310498D01*
X157724482Y-95274188D01*
X157600000Y-95261928D01*
X155900000Y-95261928D01*
X155775518Y-95274188D01*
X155655820Y-95310498D01*
X155545506Y-95369463D01*
X155448815Y-95448815D01*
X155369463Y-95545506D01*
X155310498Y-95655820D01*
X155288487Y-95728380D01*
X155156632Y-95596525D01*
X154913411Y-95434010D01*
X154643158Y-95322068D01*
X154356260Y-95265000D01*
X154063740Y-95265000D01*
X153776842Y-95322068D01*
X153506589Y-95434010D01*
X153263368Y-95596525D01*
X153056525Y-95803368D01*
X152940000Y-95977760D01*
X152823475Y-95803368D01*
X152616632Y-95596525D01*
X152373411Y-95434010D01*
X152103158Y-95322068D01*
X151816260Y-95265000D01*
X151523740Y-95265000D01*
X151236842Y-95322068D01*
X150966589Y-95434010D01*
X150723368Y-95596525D01*
X150516525Y-95803368D01*
X150354010Y-96046589D01*
X150242068Y-96316842D01*
X150185000Y-96603740D01*
X146010000Y-96603740D01*
X146010000Y-96601278D01*
X145951971Y-96309549D01*
X145838144Y-96034747D01*
X145672893Y-95787431D01*
X145462569Y-95577107D01*
X145215253Y-95411856D01*
X144940451Y-95298029D01*
X144648722Y-95240000D01*
X144351278Y-95240000D01*
X144059549Y-95298029D01*
X143784747Y-95411856D01*
X143537431Y-95577107D01*
X143327107Y-95787431D01*
X143161856Y-96034747D01*
X143048029Y-96309549D01*
X142990000Y-96601278D01*
X139504140Y-96601278D01*
X139473501Y-96388037D01*
X139374572Y-96107526D01*
X139297868Y-95964025D01*
X139046240Y-95883365D01*
X138179605Y-96750000D01*
X137820395Y-96750000D01*
X136953760Y-95883365D01*
X136702132Y-95964025D01*
X136573733Y-96232329D01*
X136500145Y-96520526D01*
X136484196Y-96817543D01*
X100660000Y-96817543D01*
X100660000Y-95703760D01*
X137133365Y-95703760D01*
X138000000Y-96570395D01*
X138866635Y-95703760D01*
X138785975Y-95452132D01*
X138517671Y-95323733D01*
X138229474Y-95250145D01*
X137932457Y-95234196D01*
X137638037Y-95276499D01*
X137357526Y-95375428D01*
X137214025Y-95452132D01*
X137133365Y-95703760D01*
X100660000Y-95703760D01*
X100660000Y-94898061D01*
X160715000Y-94898061D01*
X160715000Y-95101939D01*
X160754774Y-95301898D01*
X160832795Y-95490256D01*
X160922828Y-95625000D01*
X160832795Y-95759744D01*
X160754774Y-95948102D01*
X160715000Y-96148061D01*
X160715000Y-96351939D01*
X160754774Y-96551898D01*
X160832795Y-96740256D01*
X160946063Y-96909774D01*
X161090226Y-97053937D01*
X161259744Y-97167205D01*
X161448102Y-97245226D01*
X161648061Y-97285000D01*
X161851939Y-97285000D01*
X162051898Y-97245226D01*
X162240256Y-97167205D01*
X162409774Y-97053937D01*
X162547082Y-96916629D01*
X162432519Y-97134891D01*
X162529843Y-97409252D01*
X162678822Y-97659355D01*
X162873731Y-97875588D01*
X163107080Y-98049641D01*
X163369901Y-98174825D01*
X163517110Y-98219476D01*
X163747000Y-98098155D01*
X163747000Y-96905000D01*
X163727000Y-96905000D01*
X163727000Y-96651000D01*
X163747000Y-96651000D01*
X163747000Y-96631000D01*
X164001000Y-96631000D01*
X164001000Y-96651000D01*
X164021000Y-96651000D01*
X164021000Y-96905000D01*
X164001000Y-96905000D01*
X164001000Y-98098155D01*
X164230890Y-98219476D01*
X164378099Y-98174825D01*
X164640920Y-98049641D01*
X164874269Y-97875588D01*
X165069178Y-97659355D01*
X165138805Y-97542466D01*
X165260525Y-97724632D01*
X165467368Y-97931475D01*
X165710589Y-98093990D01*
X165980842Y-98205932D01*
X166267740Y-98263000D01*
X166560260Y-98263000D01*
X166847158Y-98205932D01*
X167117411Y-98093990D01*
X167360632Y-97931475D01*
X167567475Y-97724632D01*
X167684000Y-97550240D01*
X167800525Y-97724632D01*
X168007368Y-97931475D01*
X168250589Y-98093990D01*
X168520842Y-98205932D01*
X168807740Y-98263000D01*
X169100260Y-98263000D01*
X169387158Y-98205932D01*
X169657411Y-98093990D01*
X169900632Y-97931475D01*
X170032487Y-97799620D01*
X170054498Y-97872180D01*
X170113463Y-97982494D01*
X170192815Y-98079185D01*
X170289506Y-98158537D01*
X170399820Y-98217502D01*
X170519518Y-98253812D01*
X170644000Y-98266072D01*
X172344000Y-98266072D01*
X172468482Y-98253812D01*
X172588180Y-98217502D01*
X172698494Y-98158537D01*
X172795185Y-98079185D01*
X172874537Y-97982494D01*
X172933502Y-97872180D01*
X172969812Y-97752482D01*
X172982072Y-97628000D01*
X172982072Y-95928000D01*
X172969812Y-95803518D01*
X172933502Y-95683820D01*
X172874537Y-95573506D01*
X172795185Y-95476815D01*
X172698494Y-95397463D01*
X172588180Y-95338498D01*
X172468482Y-95302188D01*
X172344000Y-95289928D01*
X170644000Y-95289928D01*
X170519518Y-95302188D01*
X170399820Y-95338498D01*
X170289506Y-95397463D01*
X170192815Y-95476815D01*
X170113463Y-95573506D01*
X170054498Y-95683820D01*
X170032487Y-95756380D01*
X169900632Y-95624525D01*
X169657411Y-95462010D01*
X169387158Y-95350068D01*
X169100260Y-95293000D01*
X168807740Y-95293000D01*
X168724694Y-95309519D01*
X168757163Y-95277050D01*
X179015000Y-95277050D01*
X179015000Y-95722949D01*
X179036487Y-95941110D01*
X179121401Y-96221033D01*
X179259294Y-96479013D01*
X179444866Y-96705134D01*
X179670986Y-96890706D01*
X179928966Y-97028599D01*
X180208889Y-97113513D01*
X180500000Y-97142185D01*
X180791110Y-97113513D01*
X181071033Y-97028599D01*
X181329013Y-96890706D01*
X181549945Y-96709392D01*
X181560498Y-96744180D01*
X181619463Y-96854494D01*
X181698815Y-96951185D01*
X181795506Y-97030537D01*
X181905820Y-97089502D01*
X182025518Y-97125812D01*
X182150000Y-97138072D01*
X182714250Y-97135000D01*
X182873000Y-96976250D01*
X182873000Y-95627000D01*
X183127000Y-95627000D01*
X183127000Y-96976250D01*
X183285750Y-97135000D01*
X183850000Y-97138072D01*
X183974482Y-97125812D01*
X184094180Y-97089502D01*
X184204494Y-97030537D01*
X184301185Y-96951185D01*
X184380537Y-96854494D01*
X184439502Y-96744180D01*
X184475812Y-96624482D01*
X184488072Y-96500000D01*
X184485000Y-95785750D01*
X184326250Y-95627000D01*
X183127000Y-95627000D01*
X182873000Y-95627000D01*
X182853000Y-95627000D01*
X182853000Y-95373000D01*
X182873000Y-95373000D01*
X182873000Y-94023750D01*
X183127000Y-94023750D01*
X183127000Y-95373000D01*
X184326250Y-95373000D01*
X184422200Y-95277050D01*
X187765000Y-95277050D01*
X187765000Y-95722949D01*
X187786487Y-95941110D01*
X187871401Y-96221033D01*
X188009294Y-96479013D01*
X188194866Y-96705134D01*
X188420986Y-96890706D01*
X188678966Y-97028599D01*
X188958889Y-97113513D01*
X189250000Y-97142185D01*
X189541110Y-97113513D01*
X189821033Y-97028599D01*
X190079013Y-96890706D01*
X190299945Y-96709392D01*
X190310498Y-96744180D01*
X190369463Y-96854494D01*
X190448815Y-96951185D01*
X190545506Y-97030537D01*
X190655820Y-97089502D01*
X190775518Y-97125812D01*
X190900000Y-97138072D01*
X191464250Y-97135000D01*
X191623000Y-96976250D01*
X191623000Y-95627000D01*
X191877000Y-95627000D01*
X191877000Y-96976250D01*
X192035750Y-97135000D01*
X192600000Y-97138072D01*
X192724482Y-97125812D01*
X192844180Y-97089502D01*
X192954494Y-97030537D01*
X193051185Y-96951185D01*
X193130537Y-96854494D01*
X193189502Y-96744180D01*
X193225812Y-96624482D01*
X193238072Y-96500000D01*
X193235000Y-95785750D01*
X193099250Y-95650000D01*
X195761928Y-95650000D01*
X195761928Y-97350000D01*
X195774188Y-97474482D01*
X195810498Y-97594180D01*
X195869463Y-97704494D01*
X195948815Y-97801185D01*
X196045506Y-97880537D01*
X196155820Y-97939502D01*
X196275518Y-97975812D01*
X196400000Y-97988072D01*
X198100000Y-97988072D01*
X198224482Y-97975812D01*
X198344180Y-97939502D01*
X198454494Y-97880537D01*
X198551185Y-97801185D01*
X198630537Y-97704494D01*
X198689502Y-97594180D01*
X198725812Y-97474482D01*
X198738072Y-97350000D01*
X198738072Y-95650000D01*
X198725812Y-95525518D01*
X198689502Y-95405820D01*
X198630537Y-95295506D01*
X198551185Y-95198815D01*
X198454494Y-95119463D01*
X198344180Y-95060498D01*
X198224482Y-95024188D01*
X198100000Y-95011928D01*
X196400000Y-95011928D01*
X196275518Y-95024188D01*
X196155820Y-95060498D01*
X196045506Y-95119463D01*
X195948815Y-95198815D01*
X195869463Y-95295506D01*
X195810498Y-95405820D01*
X195774188Y-95525518D01*
X195761928Y-95650000D01*
X193099250Y-95650000D01*
X193076250Y-95627000D01*
X191877000Y-95627000D01*
X191623000Y-95627000D01*
X191603000Y-95627000D01*
X191603000Y-95373000D01*
X191623000Y-95373000D01*
X191623000Y-94023750D01*
X191877000Y-94023750D01*
X191877000Y-95373000D01*
X193076250Y-95373000D01*
X193235000Y-95214250D01*
X193238072Y-94500000D01*
X193225812Y-94375518D01*
X193189502Y-94255820D01*
X193130537Y-94145506D01*
X193051185Y-94048815D01*
X192954494Y-93969463D01*
X192844180Y-93910498D01*
X192724482Y-93874188D01*
X192600000Y-93861928D01*
X192035750Y-93865000D01*
X191877000Y-94023750D01*
X191623000Y-94023750D01*
X191464250Y-93865000D01*
X190900000Y-93861928D01*
X190775518Y-93874188D01*
X190655820Y-93910498D01*
X190545506Y-93969463D01*
X190448815Y-94048815D01*
X190369463Y-94145506D01*
X190310498Y-94255820D01*
X190299945Y-94290608D01*
X190079014Y-94109294D01*
X189821034Y-93971401D01*
X189541111Y-93886487D01*
X189250000Y-93857815D01*
X188958890Y-93886487D01*
X188678967Y-93971401D01*
X188420987Y-94109294D01*
X188194866Y-94294866D01*
X188009294Y-94520986D01*
X187871401Y-94778966D01*
X187786487Y-95058889D01*
X187765000Y-95277050D01*
X184422200Y-95277050D01*
X184485000Y-95214250D01*
X184488072Y-94500000D01*
X184475812Y-94375518D01*
X184439502Y-94255820D01*
X184380537Y-94145506D01*
X184301185Y-94048815D01*
X184204494Y-93969463D01*
X184094180Y-93910498D01*
X183974482Y-93874188D01*
X183850000Y-93861928D01*
X183285750Y-93865000D01*
X183127000Y-94023750D01*
X182873000Y-94023750D01*
X182714250Y-93865000D01*
X182150000Y-93861928D01*
X182025518Y-93874188D01*
X181905820Y-93910498D01*
X181795506Y-93969463D01*
X181698815Y-94048815D01*
X181619463Y-94145506D01*
X181560498Y-94255820D01*
X181549945Y-94290608D01*
X181329014Y-94109294D01*
X181071034Y-93971401D01*
X180791111Y-93886487D01*
X180500000Y-93857815D01*
X180208890Y-93886487D01*
X179928967Y-93971401D01*
X179670987Y-94109294D01*
X179444866Y-94294866D01*
X179259294Y-94520986D01*
X179121401Y-94778966D01*
X179036487Y-95058889D01*
X179015000Y-95277050D01*
X168757163Y-95277050D01*
X170387323Y-93646890D01*
X174058524Y-93646890D01*
X174103175Y-93794099D01*
X174228359Y-94056920D01*
X174402412Y-94290269D01*
X174618645Y-94485178D01*
X174868748Y-94634157D01*
X175143109Y-94731481D01*
X175373000Y-94610814D01*
X175373000Y-93417000D01*
X175627000Y-93417000D01*
X175627000Y-94610814D01*
X175856891Y-94731481D01*
X176131252Y-94634157D01*
X176381355Y-94485178D01*
X176597588Y-94290269D01*
X176771641Y-94056920D01*
X176896825Y-93794099D01*
X176941476Y-93646890D01*
X176820155Y-93417000D01*
X175627000Y-93417000D01*
X175373000Y-93417000D01*
X174179845Y-93417000D01*
X174058524Y-93646890D01*
X170387323Y-93646890D01*
X172936013Y-91098201D01*
X172965011Y-91074403D01*
X173059984Y-90958678D01*
X173130556Y-90826649D01*
X173174013Y-90683388D01*
X173185010Y-90571735D01*
X173188687Y-90534402D01*
X173185010Y-90497069D01*
X173185010Y-89900000D01*
X174011928Y-89900000D01*
X174011928Y-91600000D01*
X174024188Y-91724482D01*
X174060498Y-91844180D01*
X174119463Y-91954494D01*
X174198815Y-92051185D01*
X174295506Y-92130537D01*
X174405820Y-92189502D01*
X174486466Y-92213966D01*
X174402412Y-92289731D01*
X174228359Y-92523080D01*
X174103175Y-92785901D01*
X174058524Y-92933110D01*
X174179845Y-93163000D01*
X175373000Y-93163000D01*
X175373000Y-93143000D01*
X175627000Y-93143000D01*
X175627000Y-93163000D01*
X176820155Y-93163000D01*
X176941476Y-92933110D01*
X176896825Y-92785901D01*
X176771641Y-92523080D01*
X176597588Y-92289731D01*
X176513534Y-92213966D01*
X176594180Y-92189502D01*
X176704494Y-92130537D01*
X176801185Y-92051185D01*
X176880537Y-91954494D01*
X176939502Y-91844180D01*
X176975812Y-91724482D01*
X176988072Y-91600000D01*
X176988072Y-90650000D01*
X195761928Y-90650000D01*
X195761928Y-92350000D01*
X195774188Y-92474482D01*
X195810498Y-92594180D01*
X195869463Y-92704494D01*
X195948815Y-92801185D01*
X196045506Y-92880537D01*
X196155820Y-92939502D01*
X196275518Y-92975812D01*
X196400000Y-92988072D01*
X198100000Y-92988072D01*
X198224482Y-92975812D01*
X198344180Y-92939502D01*
X198454494Y-92880537D01*
X198551185Y-92801185D01*
X198630537Y-92704494D01*
X198689502Y-92594180D01*
X198725812Y-92474482D01*
X198738072Y-92350000D01*
X198738072Y-90650000D01*
X198725812Y-90525518D01*
X198689502Y-90405820D01*
X198630537Y-90295506D01*
X198551185Y-90198815D01*
X198454494Y-90119463D01*
X198344180Y-90060498D01*
X198271620Y-90038487D01*
X198403475Y-89906632D01*
X198565990Y-89663411D01*
X198677932Y-89393158D01*
X198735000Y-89106260D01*
X198735000Y-88813740D01*
X198677932Y-88526842D01*
X198565990Y-88256589D01*
X198403475Y-88013368D01*
X198196632Y-87806525D01*
X198014466Y-87684805D01*
X198131355Y-87615178D01*
X198347588Y-87420269D01*
X198521641Y-87186920D01*
X198646825Y-86924099D01*
X198691476Y-86776890D01*
X198570155Y-86547000D01*
X197377000Y-86547000D01*
X197377000Y-86567000D01*
X197123000Y-86567000D01*
X197123000Y-86547000D01*
X195929845Y-86547000D01*
X195808524Y-86776890D01*
X195853175Y-86924099D01*
X195978359Y-87186920D01*
X196152412Y-87420269D01*
X196368645Y-87615178D01*
X196485534Y-87684805D01*
X196303368Y-87806525D01*
X196096525Y-88013368D01*
X195934010Y-88256589D01*
X195822068Y-88526842D01*
X195765000Y-88813740D01*
X195765000Y-89106260D01*
X195822068Y-89393158D01*
X195934010Y-89663411D01*
X196096525Y-89906632D01*
X196228380Y-90038487D01*
X196155820Y-90060498D01*
X196045506Y-90119463D01*
X195948815Y-90198815D01*
X195869463Y-90295506D01*
X195810498Y-90405820D01*
X195774188Y-90525518D01*
X195761928Y-90650000D01*
X176988072Y-90650000D01*
X176988072Y-89900000D01*
X176975812Y-89775518D01*
X176939502Y-89655820D01*
X176880537Y-89545506D01*
X176801185Y-89448815D01*
X176704494Y-89369463D01*
X176594180Y-89310498D01*
X176474482Y-89274188D01*
X176350000Y-89261928D01*
X174650000Y-89261928D01*
X174525518Y-89274188D01*
X174405820Y-89310498D01*
X174295506Y-89369463D01*
X174198815Y-89448815D01*
X174119463Y-89545506D01*
X174060498Y-89655820D01*
X174024188Y-89775518D01*
X174011928Y-89900000D01*
X173185010Y-89900000D01*
X173185010Y-85898061D01*
X175215000Y-85898061D01*
X175215000Y-86101939D01*
X175254774Y-86301898D01*
X175332795Y-86490256D01*
X175446063Y-86659774D01*
X175501392Y-86715103D01*
X175465000Y-86898061D01*
X175465000Y-87101939D01*
X175501392Y-87284897D01*
X175446063Y-87340226D01*
X175332795Y-87509744D01*
X175254774Y-87698102D01*
X175215000Y-87898061D01*
X175215000Y-88101939D01*
X175254774Y-88301898D01*
X175332795Y-88490256D01*
X175446063Y-88659774D01*
X175590226Y-88803937D01*
X175759744Y-88917205D01*
X175948102Y-88995226D01*
X176148061Y-89035000D01*
X176351939Y-89035000D01*
X176551898Y-88995226D01*
X176740256Y-88917205D01*
X176909774Y-88803937D01*
X176953711Y-88760000D01*
X179715000Y-88760000D01*
X179715000Y-88851939D01*
X179754774Y-89051898D01*
X179832795Y-89240256D01*
X179946063Y-89409774D01*
X180090226Y-89553937D01*
X180259744Y-89667205D01*
X180448102Y-89745226D01*
X180648061Y-89785000D01*
X180851939Y-89785000D01*
X181051898Y-89745226D01*
X181240256Y-89667205D01*
X181409774Y-89553937D01*
X181553937Y-89409774D01*
X181667205Y-89240256D01*
X181745226Y-89051898D01*
X181785000Y-88851939D01*
X181785000Y-88648061D01*
X181745226Y-88448102D01*
X181667205Y-88259744D01*
X181553937Y-88090226D01*
X181409774Y-87946063D01*
X181240256Y-87832795D01*
X181099146Y-87774345D01*
X181084801Y-87760000D01*
X187685199Y-87760000D01*
X188482961Y-88557763D01*
X188465000Y-88648061D01*
X188465000Y-88851939D01*
X188504774Y-89051898D01*
X188582795Y-89240256D01*
X188696063Y-89409774D01*
X188840226Y-89553937D01*
X189009744Y-89667205D01*
X189198102Y-89745226D01*
X189398061Y-89785000D01*
X189601939Y-89785000D01*
X189801898Y-89745226D01*
X189990256Y-89667205D01*
X190159774Y-89553937D01*
X190303937Y-89409774D01*
X190417205Y-89240256D01*
X190495226Y-89051898D01*
X190535000Y-88851939D01*
X190535000Y-88648061D01*
X190495226Y-88448102D01*
X190417205Y-88259744D01*
X190303937Y-88090226D01*
X190159774Y-87946063D01*
X189990256Y-87832795D01*
X189849147Y-87774345D01*
X188834801Y-86760000D01*
X190546289Y-86760000D01*
X190590226Y-86803937D01*
X190759744Y-86917205D01*
X190948102Y-86995226D01*
X191148061Y-87035000D01*
X191351939Y-87035000D01*
X191551898Y-86995226D01*
X191740256Y-86917205D01*
X191909774Y-86803937D01*
X192053937Y-86659774D01*
X192167205Y-86490256D01*
X192245226Y-86301898D01*
X192285000Y-86101939D01*
X192285000Y-86063110D01*
X195808524Y-86063110D01*
X195929845Y-86293000D01*
X197123000Y-86293000D01*
X197123000Y-85099186D01*
X197377000Y-85099186D01*
X197377000Y-86293000D01*
X198570155Y-86293000D01*
X198691476Y-86063110D01*
X198646825Y-85915901D01*
X198521641Y-85653080D01*
X198347588Y-85419731D01*
X198131355Y-85224822D01*
X197881252Y-85075843D01*
X197606891Y-84978519D01*
X197377000Y-85099186D01*
X197123000Y-85099186D01*
X196893109Y-84978519D01*
X196618748Y-85075843D01*
X196368645Y-85224822D01*
X196152412Y-85419731D01*
X195978359Y-85653080D01*
X195853175Y-85915901D01*
X195808524Y-86063110D01*
X192285000Y-86063110D01*
X192285000Y-85898061D01*
X192245226Y-85698102D01*
X192167205Y-85509744D01*
X192053937Y-85340226D01*
X191909774Y-85196063D01*
X191740256Y-85082795D01*
X191551898Y-85004774D01*
X191351939Y-84965000D01*
X191148061Y-84965000D01*
X190948102Y-85004774D01*
X190759744Y-85082795D01*
X190590226Y-85196063D01*
X190546289Y-85240000D01*
X176953711Y-85240000D01*
X176909774Y-85196063D01*
X176740256Y-85082795D01*
X176551898Y-85004774D01*
X176351939Y-84965000D01*
X176148061Y-84965000D01*
X175948102Y-85004774D01*
X175759744Y-85082795D01*
X175590226Y-85196063D01*
X175446063Y-85340226D01*
X175332795Y-85509744D01*
X175254774Y-85698102D01*
X175215000Y-85898061D01*
X173185010Y-85898061D01*
X173185010Y-84139791D01*
X173289801Y-84035000D01*
X173351939Y-84035000D01*
X173551898Y-83995226D01*
X173740256Y-83917205D01*
X173909774Y-83803937D01*
X174053937Y-83659774D01*
X174167205Y-83490256D01*
X174245226Y-83301898D01*
X174285000Y-83101939D01*
X174285000Y-82898061D01*
X174245226Y-82698102D01*
X174167205Y-82509744D01*
X174160693Y-82499999D01*
X174167205Y-82490253D01*
X174245226Y-82301895D01*
X174285000Y-82101936D01*
X174285000Y-81898058D01*
X174245226Y-81698099D01*
X174167205Y-81509741D01*
X174053937Y-81340223D01*
X173909774Y-81196060D01*
X173740256Y-81082792D01*
X173686760Y-81060633D01*
X178482472Y-81060633D01*
X178544965Y-81296950D01*
X178787678Y-81410350D01*
X179047849Y-81474219D01*
X179315482Y-81486104D01*
X179580291Y-81445548D01*
X179832100Y-81354109D01*
X179939035Y-81296950D01*
X180001528Y-81060633D01*
X183482472Y-81060633D01*
X183544965Y-81296950D01*
X183787678Y-81410350D01*
X184047849Y-81474219D01*
X184315482Y-81486104D01*
X184580291Y-81445548D01*
X184832100Y-81354109D01*
X184939035Y-81296950D01*
X185001528Y-81060633D01*
X184242000Y-80301105D01*
X183482472Y-81060633D01*
X180001528Y-81060633D01*
X179242000Y-80301105D01*
X178482472Y-81060633D01*
X173686760Y-81060633D01*
X173551898Y-81004771D01*
X173351939Y-80964997D01*
X173148061Y-80964997D01*
X172948102Y-81004771D01*
X172759744Y-81082792D01*
X172590226Y-81196060D01*
X172535276Y-81251010D01*
X172392068Y-81294451D01*
X172260038Y-81365023D01*
X172204808Y-81410350D01*
X172144314Y-81459996D01*
X172120516Y-81488995D01*
X171464002Y-82145509D01*
X171434999Y-82169311D01*
X171398119Y-82214250D01*
X171387311Y-82227420D01*
X171278937Y-82065226D01*
X171134774Y-81921063D01*
X170965256Y-81807795D01*
X170776898Y-81729774D01*
X170576939Y-81690000D01*
X170373061Y-81690000D01*
X170173102Y-81729774D01*
X169984744Y-81807795D01*
X169815226Y-81921063D01*
X169671063Y-82065226D01*
X169557795Y-82234744D01*
X169479774Y-82423102D01*
X169440000Y-82623061D01*
X169440000Y-82826939D01*
X169479774Y-83026898D01*
X169557795Y-83215256D01*
X169652278Y-83356660D01*
X169614011Y-83394927D01*
X169500743Y-83564445D01*
X169422722Y-83752803D01*
X169382948Y-83952762D01*
X169382948Y-84156640D01*
X169422722Y-84356599D01*
X169500743Y-84544957D01*
X169614011Y-84714475D01*
X169657949Y-84758413D01*
X169657948Y-89880840D01*
X168866994Y-90671795D01*
X167855538Y-90671795D01*
X167818205Y-90668118D01*
X167780872Y-90671795D01*
X167669219Y-90682792D01*
X167525958Y-90726249D01*
X167393929Y-90796821D01*
X167278204Y-90891794D01*
X167254406Y-90920793D01*
X166960198Y-91215000D01*
X166898061Y-91215000D01*
X166698102Y-91254774D01*
X166509744Y-91332795D01*
X166340226Y-91446063D01*
X166196063Y-91590226D01*
X166082795Y-91759744D01*
X166004774Y-91948102D01*
X165965000Y-92148061D01*
X165965000Y-92351939D01*
X166004774Y-92551898D01*
X166082795Y-92740256D01*
X166196063Y-92909774D01*
X166340226Y-93053937D01*
X166509744Y-93167205D01*
X166698102Y-93245226D01*
X166898061Y-93285000D01*
X167101939Y-93285000D01*
X167301898Y-93245226D01*
X167490256Y-93167205D01*
X167659774Y-93053937D01*
X167803937Y-92909774D01*
X167917205Y-92740256D01*
X167995226Y-92551898D01*
X168000000Y-92527897D01*
X168004774Y-92551898D01*
X168082795Y-92740256D01*
X168196063Y-92909774D01*
X168267245Y-92980956D01*
X167008201Y-94240000D01*
X162453711Y-94240000D01*
X162409774Y-94196063D01*
X162240256Y-94082795D01*
X162051898Y-94004774D01*
X161851939Y-93965000D01*
X161648061Y-93965000D01*
X161448102Y-94004774D01*
X161259744Y-94082795D01*
X161090226Y-94196063D01*
X160946063Y-94340226D01*
X160832795Y-94509744D01*
X160754774Y-94698102D01*
X160715000Y-94898061D01*
X100660000Y-94898061D01*
X100660000Y-85877000D01*
X151466590Y-85877000D01*
X151329534Y-86082118D01*
X151187439Y-86425166D01*
X151115000Y-86789344D01*
X151115000Y-87160656D01*
X151187439Y-87524834D01*
X151329534Y-87867882D01*
X151535825Y-88176618D01*
X151798382Y-88439175D01*
X152107118Y-88645466D01*
X152450166Y-88787561D01*
X152537838Y-88805000D01*
X152450166Y-88822439D01*
X152107118Y-88964534D01*
X151798382Y-89170825D01*
X151535825Y-89433382D01*
X151329534Y-89742118D01*
X151187439Y-90085166D01*
X151115000Y-90449344D01*
X151115000Y-90820656D01*
X151187439Y-91184834D01*
X151329534Y-91527882D01*
X151535825Y-91836618D01*
X151798382Y-92099175D01*
X152107118Y-92305466D01*
X152450166Y-92447561D01*
X152814344Y-92520000D01*
X153185656Y-92520000D01*
X153549834Y-92447561D01*
X153892882Y-92305466D01*
X154201618Y-92099175D01*
X154464175Y-91836618D01*
X154670466Y-91527882D01*
X154812561Y-91184834D01*
X154885000Y-90820656D01*
X154885000Y-90449344D01*
X154812561Y-90085166D01*
X154739850Y-89909624D01*
X157001563Y-89909624D01*
X157001563Y-90113502D01*
X157041337Y-90313461D01*
X157119358Y-90501819D01*
X157232626Y-90671337D01*
X157376789Y-90815500D01*
X157546307Y-90928768D01*
X157734665Y-91006789D01*
X157934624Y-91046563D01*
X158138502Y-91046563D01*
X158338461Y-91006789D01*
X158526819Y-90928768D01*
X158696337Y-90815500D01*
X158840500Y-90671337D01*
X158953768Y-90501819D01*
X159031789Y-90313461D01*
X159071563Y-90113502D01*
X159071563Y-90051365D01*
X160011008Y-89111921D01*
X160040001Y-89088127D01*
X160063795Y-89059134D01*
X160063799Y-89059130D01*
X160134973Y-88972403D01*
X160134974Y-88972402D01*
X160205546Y-88840373D01*
X160249003Y-88697112D01*
X160260000Y-88585459D01*
X160260000Y-88585450D01*
X160263676Y-88548127D01*
X160260000Y-88510804D01*
X160260000Y-86148061D01*
X162465000Y-86148061D01*
X162465000Y-86351939D01*
X162504774Y-86551898D01*
X162582795Y-86740256D01*
X162589306Y-86750000D01*
X162582795Y-86759744D01*
X162504774Y-86948102D01*
X162465000Y-87148061D01*
X162465000Y-87351939D01*
X162504774Y-87551898D01*
X162582795Y-87740256D01*
X162589306Y-87750000D01*
X162582795Y-87759744D01*
X162504774Y-87948102D01*
X162465000Y-88148061D01*
X162465000Y-88351939D01*
X162504774Y-88551898D01*
X162582795Y-88740256D01*
X162589306Y-88750000D01*
X162582795Y-88759744D01*
X162504774Y-88948102D01*
X162465000Y-89148061D01*
X162465000Y-89351939D01*
X162504774Y-89551898D01*
X162582795Y-89740256D01*
X162672828Y-89875000D01*
X162582795Y-90009744D01*
X162504774Y-90198102D01*
X162465000Y-90398061D01*
X162465000Y-90601939D01*
X162504774Y-90801898D01*
X162582795Y-90990256D01*
X162696063Y-91159774D01*
X162840226Y-91303937D01*
X163009744Y-91417205D01*
X163198102Y-91495226D01*
X163398061Y-91535000D01*
X163601939Y-91535000D01*
X163801898Y-91495226D01*
X163990256Y-91417205D01*
X164159774Y-91303937D01*
X164203711Y-91260000D01*
X165712678Y-91260000D01*
X165750000Y-91263676D01*
X165787322Y-91260000D01*
X165787333Y-91260000D01*
X165898986Y-91249003D01*
X166042247Y-91205546D01*
X166174276Y-91134974D01*
X166290001Y-91040001D01*
X166313804Y-91010997D01*
X167039802Y-90285000D01*
X167101939Y-90285000D01*
X167301898Y-90245226D01*
X167490256Y-90167205D01*
X167659774Y-90053937D01*
X167803937Y-89909774D01*
X167917205Y-89740256D01*
X167995226Y-89551898D01*
X168035000Y-89351939D01*
X168035000Y-89148061D01*
X167995226Y-88948102D01*
X167917205Y-88759744D01*
X167803937Y-88590226D01*
X167748608Y-88534897D01*
X167785000Y-88351939D01*
X167785000Y-88148061D01*
X167745226Y-87948102D01*
X167667205Y-87759744D01*
X167660694Y-87750000D01*
X167667205Y-87740256D01*
X167745226Y-87551898D01*
X167785000Y-87351939D01*
X167785000Y-87148061D01*
X167745226Y-86948102D01*
X167667205Y-86759744D01*
X167660694Y-86750000D01*
X167667205Y-86740256D01*
X167745226Y-86551898D01*
X167785000Y-86351939D01*
X167785000Y-86148061D01*
X167745226Y-85948102D01*
X167667205Y-85759744D01*
X167660694Y-85750000D01*
X167667205Y-85740256D01*
X167745226Y-85551898D01*
X167785000Y-85351939D01*
X167785000Y-85148061D01*
X167745226Y-84948102D01*
X167667205Y-84759744D01*
X167553937Y-84590226D01*
X167409774Y-84446063D01*
X167240256Y-84332795D01*
X167051898Y-84254774D01*
X166851939Y-84215000D01*
X166648061Y-84215000D01*
X166448102Y-84254774D01*
X166259744Y-84332795D01*
X166090226Y-84446063D01*
X166006675Y-84529614D01*
X165957753Y-84544454D01*
X165825724Y-84615026D01*
X165709999Y-84709999D01*
X165686201Y-84738997D01*
X164935199Y-85490000D01*
X164203711Y-85490000D01*
X164159774Y-85446063D01*
X163990256Y-85332795D01*
X163801898Y-85254774D01*
X163601939Y-85215000D01*
X163398061Y-85215000D01*
X163198102Y-85254774D01*
X163009744Y-85332795D01*
X162840226Y-85446063D01*
X162696063Y-85590226D01*
X162582795Y-85759744D01*
X162504774Y-85948102D01*
X162465000Y-86148061D01*
X160260000Y-86148061D01*
X160260000Y-85703711D01*
X160303937Y-85659774D01*
X160417205Y-85490256D01*
X160495226Y-85301898D01*
X160535000Y-85101939D01*
X160535000Y-84898061D01*
X160495226Y-84698102D01*
X160417205Y-84509744D01*
X160303937Y-84340226D01*
X160180853Y-84217142D01*
X160186566Y-84214775D01*
X160503491Y-84003013D01*
X160706504Y-83800000D01*
X162411928Y-83800000D01*
X162424188Y-83924482D01*
X162460498Y-84044180D01*
X162519463Y-84154494D01*
X162598815Y-84251185D01*
X162695506Y-84330537D01*
X162805820Y-84389502D01*
X162925518Y-84425812D01*
X163050000Y-84438072D01*
X164064250Y-84435000D01*
X164223000Y-84276250D01*
X164223000Y-82627000D01*
X164477000Y-82627000D01*
X164477000Y-84276250D01*
X164635750Y-84435000D01*
X165650000Y-84438072D01*
X165774482Y-84425812D01*
X165894180Y-84389502D01*
X166004494Y-84330537D01*
X166101185Y-84251185D01*
X166180537Y-84154494D01*
X166239502Y-84044180D01*
X166275812Y-83924482D01*
X166288072Y-83800000D01*
X166285000Y-82785750D01*
X166126250Y-82627000D01*
X164477000Y-82627000D01*
X164223000Y-82627000D01*
X162573750Y-82627000D01*
X162415000Y-82785750D01*
X162411928Y-83800000D01*
X160706504Y-83800000D01*
X160773013Y-83733491D01*
X160984775Y-83416566D01*
X161130639Y-83064419D01*
X161205000Y-82690581D01*
X161205000Y-82309419D01*
X161130639Y-81935581D01*
X160984775Y-81583434D01*
X160773013Y-81266509D01*
X160706504Y-81200000D01*
X162411928Y-81200000D01*
X162415000Y-82214250D01*
X162573750Y-82373000D01*
X164223000Y-82373000D01*
X164223000Y-80723750D01*
X164477000Y-80723750D01*
X164477000Y-82373000D01*
X166126250Y-82373000D01*
X166285000Y-82214250D01*
X166288072Y-81200000D01*
X166275812Y-81075518D01*
X166239502Y-80955820D01*
X166180537Y-80845506D01*
X166101185Y-80748815D01*
X166004494Y-80669463D01*
X165894180Y-80610498D01*
X165774482Y-80574188D01*
X165650000Y-80561928D01*
X164635750Y-80565000D01*
X164477000Y-80723750D01*
X164223000Y-80723750D01*
X164064250Y-80565000D01*
X163050000Y-80561928D01*
X162925518Y-80574188D01*
X162805820Y-80610498D01*
X162695506Y-80669463D01*
X162598815Y-80748815D01*
X162519463Y-80845506D01*
X162460498Y-80955820D01*
X162424188Y-81075518D01*
X162411928Y-81200000D01*
X160706504Y-81200000D01*
X160503491Y-80996987D01*
X160186566Y-80785225D01*
X159834419Y-80639361D01*
X159460581Y-80565000D01*
X159079419Y-80565000D01*
X158705581Y-80639361D01*
X158353434Y-80785225D01*
X158036509Y-80996987D01*
X157766987Y-81266509D01*
X157555225Y-81583434D01*
X157409361Y-81935581D01*
X157335000Y-82309419D01*
X157335000Y-82690581D01*
X157409361Y-83064419D01*
X157555225Y-83416566D01*
X157766987Y-83733491D01*
X158036509Y-84003013D01*
X158353434Y-84214775D01*
X158687443Y-84353126D01*
X158582795Y-84509744D01*
X158504774Y-84698102D01*
X158465000Y-84898061D01*
X158465000Y-85101939D01*
X158504774Y-85301898D01*
X158582795Y-85490256D01*
X158696063Y-85659774D01*
X158740000Y-85703711D01*
X158740001Y-88233322D01*
X157996761Y-88976563D01*
X157934624Y-88976563D01*
X157734665Y-89016337D01*
X157546307Y-89094358D01*
X157376789Y-89207626D01*
X157232626Y-89351789D01*
X157119358Y-89521307D01*
X157041337Y-89709665D01*
X157001563Y-89909624D01*
X154739850Y-89909624D01*
X154670466Y-89742118D01*
X154464175Y-89433382D01*
X154201618Y-89170825D01*
X153892882Y-88964534D01*
X153549834Y-88822439D01*
X153462162Y-88805000D01*
X153549834Y-88787561D01*
X153892882Y-88645466D01*
X154201618Y-88439175D01*
X154464175Y-88176618D01*
X154670466Y-87867882D01*
X154812561Y-87524834D01*
X154885000Y-87160656D01*
X154885000Y-86789344D01*
X154812561Y-86425166D01*
X154670466Y-86082118D01*
X154533410Y-85877000D01*
X156250000Y-85877000D01*
X156274776Y-85874560D01*
X156298601Y-85867333D01*
X156320557Y-85855597D01*
X156339803Y-85839803D01*
X156355597Y-85820557D01*
X156367333Y-85798601D01*
X156374560Y-85774776D01*
X156377000Y-85750000D01*
X156377000Y-78150000D01*
X168511928Y-78150000D01*
X168511928Y-79850000D01*
X168524188Y-79974482D01*
X168560498Y-80094180D01*
X168619463Y-80204494D01*
X168698815Y-80301185D01*
X168795506Y-80380537D01*
X168905820Y-80439502D01*
X169025518Y-80475812D01*
X169150000Y-80488072D01*
X170850000Y-80488072D01*
X170974482Y-80475812D01*
X171094180Y-80439502D01*
X171204494Y-80380537D01*
X171301185Y-80301185D01*
X171380537Y-80204494D01*
X171439502Y-80094180D01*
X171461513Y-80021620D01*
X171593368Y-80153475D01*
X171836589Y-80315990D01*
X172106842Y-80427932D01*
X172393740Y-80485000D01*
X172686260Y-80485000D01*
X172973158Y-80427932D01*
X173243411Y-80315990D01*
X173424512Y-80194982D01*
X177877396Y-80194982D01*
X177917952Y-80459791D01*
X178009391Y-80711600D01*
X178066550Y-80818535D01*
X178302867Y-80881028D01*
X179062395Y-80121500D01*
X179421605Y-80121500D01*
X180181133Y-80881028D01*
X180417450Y-80818535D01*
X180530850Y-80575822D01*
X180594719Y-80315651D01*
X180600077Y-80194982D01*
X182877396Y-80194982D01*
X182917952Y-80459791D01*
X183009391Y-80711600D01*
X183066550Y-80818535D01*
X183302867Y-80881028D01*
X184062395Y-80121500D01*
X184421605Y-80121500D01*
X185181133Y-80881028D01*
X185417450Y-80818535D01*
X185530850Y-80575822D01*
X185594719Y-80315651D01*
X185606604Y-80048018D01*
X185566048Y-79783209D01*
X185564837Y-79779872D01*
X193765000Y-79779872D01*
X193765000Y-80220128D01*
X193850890Y-80651925D01*
X194019369Y-81058669D01*
X194263962Y-81424729D01*
X194575271Y-81736038D01*
X194941331Y-81980631D01*
X195348075Y-82149110D01*
X195779872Y-82235000D01*
X196220128Y-82235000D01*
X196651925Y-82149110D01*
X197058669Y-81980631D01*
X197424729Y-81736038D01*
X197736038Y-81424729D01*
X197980631Y-81058669D01*
X198149110Y-80651925D01*
X198235000Y-80220128D01*
X198235000Y-79779872D01*
X198149110Y-79348075D01*
X197980631Y-78941331D01*
X197736038Y-78575271D01*
X197424729Y-78263962D01*
X197058669Y-78019369D01*
X196651925Y-77850890D01*
X196220128Y-77765000D01*
X195779872Y-77765000D01*
X195348075Y-77850890D01*
X194941331Y-78019369D01*
X194575271Y-78263962D01*
X194263962Y-78575271D01*
X194019369Y-78941331D01*
X193850890Y-79348075D01*
X193765000Y-79779872D01*
X185564837Y-79779872D01*
X185474609Y-79531400D01*
X185417450Y-79424465D01*
X185181133Y-79361972D01*
X184421605Y-80121500D01*
X184062395Y-80121500D01*
X183302867Y-79361972D01*
X183066550Y-79424465D01*
X182953150Y-79667178D01*
X182889281Y-79927349D01*
X182877396Y-80194982D01*
X180600077Y-80194982D01*
X180606604Y-80048018D01*
X180566048Y-79783209D01*
X180474609Y-79531400D01*
X180417450Y-79424465D01*
X180181133Y-79361972D01*
X179421605Y-80121500D01*
X179062395Y-80121500D01*
X178302867Y-79361972D01*
X178066550Y-79424465D01*
X177953150Y-79667178D01*
X177889281Y-79927349D01*
X177877396Y-80194982D01*
X173424512Y-80194982D01*
X173486632Y-80153475D01*
X173693475Y-79946632D01*
X173855990Y-79703411D01*
X173967932Y-79433158D01*
X174025000Y-79146260D01*
X174025000Y-78853740D01*
X173967932Y-78566842D01*
X173855990Y-78296589D01*
X173693475Y-78053368D01*
X173486632Y-77846525D01*
X173243411Y-77684010D01*
X172973158Y-77572068D01*
X172854675Y-77548500D01*
X177007000Y-77548500D01*
X177007000Y-77898500D01*
X177055507Y-78136996D01*
X177149610Y-78361446D01*
X177285693Y-78563225D01*
X177458526Y-78734578D01*
X177661467Y-78868921D01*
X177886718Y-78961091D01*
X177924391Y-78964962D01*
X178115000Y-78840231D01*
X178115000Y-77548500D01*
X178369000Y-77548500D01*
X178369000Y-78840231D01*
X178542862Y-78954003D01*
X178482472Y-79182367D01*
X179242000Y-79941895D01*
X180001528Y-79182367D01*
X183482472Y-79182367D01*
X184242000Y-79941895D01*
X185001528Y-79182367D01*
X184941138Y-78954003D01*
X185115000Y-78840231D01*
X185115000Y-77548500D01*
X185369000Y-77548500D01*
X185369000Y-78840231D01*
X185559609Y-78964962D01*
X185597282Y-78961091D01*
X185822533Y-78868921D01*
X186025474Y-78734578D01*
X186198307Y-78563225D01*
X186334390Y-78361446D01*
X186428493Y-78136996D01*
X186477000Y-77898500D01*
X186477000Y-77548500D01*
X185369000Y-77548500D01*
X185115000Y-77548500D01*
X184007000Y-77548500D01*
X184007000Y-77898500D01*
X184055507Y-78136996D01*
X184149610Y-78361446D01*
X184285693Y-78563225D01*
X184458526Y-78734578D01*
X184553836Y-78797671D01*
X184436151Y-78768781D01*
X184168518Y-78756896D01*
X183903709Y-78797452D01*
X183651900Y-78888891D01*
X183544965Y-78946050D01*
X183482472Y-79182367D01*
X180001528Y-79182367D01*
X179939035Y-78946050D01*
X179696322Y-78832650D01*
X179436151Y-78768781D01*
X179168518Y-78756896D01*
X178938558Y-78792115D01*
X179025474Y-78734578D01*
X179198307Y-78563225D01*
X179334390Y-78361446D01*
X179428493Y-78136996D01*
X179477000Y-77898500D01*
X179477000Y-77548500D01*
X178369000Y-77548500D01*
X178115000Y-77548500D01*
X177007000Y-77548500D01*
X172854675Y-77548500D01*
X172686260Y-77515000D01*
X172393740Y-77515000D01*
X172106842Y-77572068D01*
X171836589Y-77684010D01*
X171593368Y-77846525D01*
X171461513Y-77978380D01*
X171439502Y-77905820D01*
X171380537Y-77795506D01*
X171301185Y-77698815D01*
X171204494Y-77619463D01*
X171094180Y-77560498D01*
X170974482Y-77524188D01*
X170850000Y-77511928D01*
X169150000Y-77511928D01*
X169025518Y-77524188D01*
X168905820Y-77560498D01*
X168795506Y-77619463D01*
X168698815Y-77698815D01*
X168619463Y-77795506D01*
X168560498Y-77905820D01*
X168524188Y-78025518D01*
X168511928Y-78150000D01*
X156377000Y-78150000D01*
X156377000Y-76660000D01*
X177074795Y-76660000D01*
X177055507Y-76706004D01*
G37*
X177055507Y-76706004D02*
X177007000Y-76944500D01*
X177007000Y-77294500D01*
X178115000Y-77294500D01*
X178115000Y-77274500D01*
X178369000Y-77274500D01*
X178369000Y-77294500D01*
X179477000Y-77294500D01*
X179477000Y-76944500D01*
X179428493Y-76706004D01*
X179409205Y-76660000D01*
X184074795Y-76660000D01*
X184055507Y-76706004D01*
X184007000Y-76944500D01*
X184007000Y-77294500D01*
X185115000Y-77294500D01*
X185115000Y-77274500D01*
X185369000Y-77274500D01*
X185369000Y-77294500D01*
X186477000Y-77294500D01*
X186477000Y-76944500D01*
X186428493Y-76706004D01*
X186409205Y-76660000D01*
X199340001Y-76660000D01*
X199340000Y-99340000D01*
X100660000Y-99340000D01*
X100660000Y-97796240D01*
X137133365Y-97796240D01*
X137214025Y-98047868D01*
X137482329Y-98176267D01*
X137770526Y-98249855D01*
X138067543Y-98265804D01*
X138361963Y-98223501D01*
X138642474Y-98124572D01*
X138785975Y-98047868D01*
X138866635Y-97796240D01*
X138000000Y-96929605D01*
X137133365Y-97796240D01*
X100660000Y-97796240D01*
X100660000Y-96817543D01*
X136484196Y-96817543D01*
X136526499Y-97111963D01*
X136625428Y-97392474D01*
X136702132Y-97535975D01*
X136953760Y-97616635D01*
X137820395Y-96750000D01*
X138179605Y-96750000D01*
X139046240Y-97616635D01*
X139297868Y-97535975D01*
X139426267Y-97267671D01*
X139499855Y-96979474D01*
X139515804Y-96682457D01*
X139504140Y-96601278D01*
X142990000Y-96601278D01*
X142990000Y-96898722D01*
X143048029Y-97190451D01*
X143161856Y-97465253D01*
X143327107Y-97712569D01*
X143537431Y-97922893D01*
X143784747Y-98088144D01*
X144059549Y-98201971D01*
X144351278Y-98260000D01*
X144648722Y-98260000D01*
X144940451Y-98201971D01*
X145215253Y-98088144D01*
X145462569Y-97922893D01*
X145672893Y-97712569D01*
X145838144Y-97465253D01*
X145951971Y-97190451D01*
X146010000Y-96898722D01*
X146010000Y-96603740D01*
X150185000Y-96603740D01*
X150185000Y-96896260D01*
X150242068Y-97183158D01*
X150354010Y-97453411D01*
X150516525Y-97696632D01*
X150723368Y-97903475D01*
X150966589Y-98065990D01*
X151236842Y-98177932D01*
X151523740Y-98235000D01*
X151816260Y-98235000D01*
X152103158Y-98177932D01*
X152373411Y-98065990D01*
X152616632Y-97903475D01*
X152823475Y-97696632D01*
X152940000Y-97522240D01*
X153056525Y-97696632D01*
X153263368Y-97903475D01*
X153506589Y-98065990D01*
X153776842Y-98177932D01*
X154063740Y-98235000D01*
X154356260Y-98235000D01*
X154643158Y-98177932D01*
X154913411Y-98065990D01*
X155156632Y-97903475D01*
X155288487Y-97771620D01*
X155310498Y-97844180D01*
X155369463Y-97954494D01*
X155448815Y-98051185D01*
X155545506Y-98130537D01*
X155655820Y-98189502D01*
X155775518Y-98225812D01*
X155900000Y-98238072D01*
X157600000Y-98238072D01*
X157724482Y-98225812D01*
X157844180Y-98189502D01*
X157954494Y-98130537D01*
X158051185Y-98051185D01*
X158130537Y-97954494D01*
X158189502Y-97844180D01*
X158225812Y-97724482D01*
X158238072Y-97600000D01*
X158238072Y-95900000D01*
X158225812Y-95775518D01*
X158189502Y-95655820D01*
X158130537Y-95545506D01*
X158051185Y-95448815D01*
X157954494Y-95369463D01*
X157844180Y-95310498D01*
X157724482Y-95274188D01*
X157600000Y-95261928D01*
X155900000Y-95261928D01*
X155775518Y-95274188D01*
X155655820Y-95310498D01*
X155545506Y-95369463D01*
X155448815Y-95448815D01*
X155369463Y-95545506D01*
X155310498Y-95655820D01*
X155288487Y-95728380D01*
X155156632Y-95596525D01*
X154913411Y-95434010D01*
X154643158Y-95322068D01*
X154356260Y-95265000D01*
X154063740Y-95265000D01*
X153776842Y-95322068D01*
X153506589Y-95434010D01*
X153263368Y-95596525D01*
X153056525Y-95803368D01*
X152940000Y-95977760D01*
X152823475Y-95803368D01*
X152616632Y-95596525D01*
X152373411Y-95434010D01*
X152103158Y-95322068D01*
X151816260Y-95265000D01*
X151523740Y-95265000D01*
X151236842Y-95322068D01*
X150966589Y-95434010D01*
X150723368Y-95596525D01*
X150516525Y-95803368D01*
X150354010Y-96046589D01*
X150242068Y-96316842D01*
X150185000Y-96603740D01*
X146010000Y-96603740D01*
X146010000Y-96601278D01*
X145951971Y-96309549D01*
X145838144Y-96034747D01*
X145672893Y-95787431D01*
X145462569Y-95577107D01*
X145215253Y-95411856D01*
X144940451Y-95298029D01*
X144648722Y-95240000D01*
X144351278Y-95240000D01*
X144059549Y-95298029D01*
X143784747Y-95411856D01*
X143537431Y-95577107D01*
X143327107Y-95787431D01*
X143161856Y-96034747D01*
X143048029Y-96309549D01*
X142990000Y-96601278D01*
X139504140Y-96601278D01*
X139473501Y-96388037D01*
X139374572Y-96107526D01*
X139297868Y-95964025D01*
X139046240Y-95883365D01*
X138179605Y-96750000D01*
X137820395Y-96750000D01*
X136953760Y-95883365D01*
X136702132Y-95964025D01*
X136573733Y-96232329D01*
X136500145Y-96520526D01*
X136484196Y-96817543D01*
X100660000Y-96817543D01*
X100660000Y-95703760D01*
X137133365Y-95703760D01*
X138000000Y-96570395D01*
X138866635Y-95703760D01*
X138785975Y-95452132D01*
X138517671Y-95323733D01*
X138229474Y-95250145D01*
X137932457Y-95234196D01*
X137638037Y-95276499D01*
X137357526Y-95375428D01*
X137214025Y-95452132D01*
X137133365Y-95703760D01*
X100660000Y-95703760D01*
X100660000Y-94898061D01*
X160715000Y-94898061D01*
X160715000Y-95101939D01*
X160754774Y-95301898D01*
X160832795Y-95490256D01*
X160922828Y-95625000D01*
X160832795Y-95759744D01*
X160754774Y-95948102D01*
X160715000Y-96148061D01*
X160715000Y-96351939D01*
X160754774Y-96551898D01*
X160832795Y-96740256D01*
X160946063Y-96909774D01*
X161090226Y-97053937D01*
X161259744Y-97167205D01*
X161448102Y-97245226D01*
X161648061Y-97285000D01*
X161851939Y-97285000D01*
X162051898Y-97245226D01*
X162240256Y-97167205D01*
X162409774Y-97053937D01*
X162547082Y-96916629D01*
X162432519Y-97134891D01*
X162529843Y-97409252D01*
X162678822Y-97659355D01*
X162873731Y-97875588D01*
X163107080Y-98049641D01*
X163369901Y-98174825D01*
X163517110Y-98219476D01*
X163747000Y-98098155D01*
X163747000Y-96905000D01*
X163727000Y-96905000D01*
X163727000Y-96651000D01*
X163747000Y-96651000D01*
X163747000Y-96631000D01*
X164001000Y-96631000D01*
X164001000Y-96651000D01*
X164021000Y-96651000D01*
X164021000Y-96905000D01*
X164001000Y-96905000D01*
X164001000Y-98098155D01*
X164230890Y-98219476D01*
X164378099Y-98174825D01*
X164640920Y-98049641D01*
X164874269Y-97875588D01*
X165069178Y-97659355D01*
X165138805Y-97542466D01*
X165260525Y-97724632D01*
X165467368Y-97931475D01*
X165710589Y-98093990D01*
X165980842Y-98205932D01*
X166267740Y-98263000D01*
X166560260Y-98263000D01*
X166847158Y-98205932D01*
X167117411Y-98093990D01*
X167360632Y-97931475D01*
X167567475Y-97724632D01*
X167684000Y-97550240D01*
X167800525Y-97724632D01*
X168007368Y-97931475D01*
X168250589Y-98093990D01*
X168520842Y-98205932D01*
X168807740Y-98263000D01*
X169100260Y-98263000D01*
X169387158Y-98205932D01*
X169657411Y-98093990D01*
X169900632Y-97931475D01*
X170032487Y-97799620D01*
X170054498Y-97872180D01*
X170113463Y-97982494D01*
X170192815Y-98079185D01*
X170289506Y-98158537D01*
X170399820Y-98217502D01*
X170519518Y-98253812D01*
X170644000Y-98266072D01*
X172344000Y-98266072D01*
X172468482Y-98253812D01*
X172588180Y-98217502D01*
X172698494Y-98158537D01*
X172795185Y-98079185D01*
X172874537Y-97982494D01*
X172933502Y-97872180D01*
X172969812Y-97752482D01*
X172982072Y-97628000D01*
X172982072Y-95928000D01*
X172969812Y-95803518D01*
X172933502Y-95683820D01*
X172874537Y-95573506D01*
X172795185Y-95476815D01*
X172698494Y-95397463D01*
X172588180Y-95338498D01*
X172468482Y-95302188D01*
X172344000Y-95289928D01*
X170644000Y-95289928D01*
X170519518Y-95302188D01*
X170399820Y-95338498D01*
X170289506Y-95397463D01*
X170192815Y-95476815D01*
X170113463Y-95573506D01*
X170054498Y-95683820D01*
X170032487Y-95756380D01*
X169900632Y-95624525D01*
X169657411Y-95462010D01*
X169387158Y-95350068D01*
X169100260Y-95293000D01*
X168807740Y-95293000D01*
X168724694Y-95309519D01*
X168757163Y-95277050D01*
X179015000Y-95277050D01*
X179015000Y-95722949D01*
X179036487Y-95941110D01*
X179121401Y-96221033D01*
X179259294Y-96479013D01*
X179444866Y-96705134D01*
X179670986Y-96890706D01*
X179928966Y-97028599D01*
X180208889Y-97113513D01*
X180500000Y-97142185D01*
X180791110Y-97113513D01*
X181071033Y-97028599D01*
X181329013Y-96890706D01*
X181549945Y-96709392D01*
X181560498Y-96744180D01*
X181619463Y-96854494D01*
X181698815Y-96951185D01*
X181795506Y-97030537D01*
X181905820Y-97089502D01*
X182025518Y-97125812D01*
X182150000Y-97138072D01*
X182714250Y-97135000D01*
X182873000Y-96976250D01*
X182873000Y-95627000D01*
X183127000Y-95627000D01*
X183127000Y-96976250D01*
X183285750Y-97135000D01*
X183850000Y-97138072D01*
X183974482Y-97125812D01*
X184094180Y-97089502D01*
X184204494Y-97030537D01*
X184301185Y-96951185D01*
X184380537Y-96854494D01*
X184439502Y-96744180D01*
X184475812Y-96624482D01*
X184488072Y-96500000D01*
X184485000Y-95785750D01*
X184326250Y-95627000D01*
X183127000Y-95627000D01*
X182873000Y-95627000D01*
X182853000Y-95627000D01*
X182853000Y-95373000D01*
X182873000Y-95373000D01*
X182873000Y-94023750D01*
X183127000Y-94023750D01*
X183127000Y-95373000D01*
X184326250Y-95373000D01*
X184422200Y-95277050D01*
X187765000Y-95277050D01*
X187765000Y-95722949D01*
X187786487Y-95941110D01*
X187871401Y-96221033D01*
X188009294Y-96479013D01*
X188194866Y-96705134D01*
X188420986Y-96890706D01*
X188678966Y-97028599D01*
X188958889Y-97113513D01*
X189250000Y-97142185D01*
X189541110Y-97113513D01*
X189821033Y-97028599D01*
X190079013Y-96890706D01*
X190299945Y-96709392D01*
X190310498Y-96744180D01*
X190369463Y-96854494D01*
X190448815Y-96951185D01*
X190545506Y-97030537D01*
X190655820Y-97089502D01*
X190775518Y-97125812D01*
X190900000Y-97138072D01*
X191464250Y-97135000D01*
X191623000Y-96976250D01*
X191623000Y-95627000D01*
X191877000Y-95627000D01*
X191877000Y-96976250D01*
X192035750Y-97135000D01*
X192600000Y-97138072D01*
X192724482Y-97125812D01*
X192844180Y-97089502D01*
X192954494Y-97030537D01*
X193051185Y-96951185D01*
X193130537Y-96854494D01*
X193189502Y-96744180D01*
X193225812Y-96624482D01*
X193238072Y-96500000D01*
X193235000Y-95785750D01*
X193099250Y-95650000D01*
X195761928Y-95650000D01*
X195761928Y-97350000D01*
X195774188Y-97474482D01*
X195810498Y-97594180D01*
X195869463Y-97704494D01*
X195948815Y-97801185D01*
X196045506Y-97880537D01*
X196155820Y-97939502D01*
X196275518Y-97975812D01*
X196400000Y-97988072D01*
X198100000Y-97988072D01*
X198224482Y-97975812D01*
X198344180Y-97939502D01*
X198454494Y-97880537D01*
X198551185Y-97801185D01*
X198630537Y-97704494D01*
X198689502Y-97594180D01*
X198725812Y-97474482D01*
X198738072Y-97350000D01*
X198738072Y-95650000D01*
X198725812Y-95525518D01*
X198689502Y-95405820D01*
X198630537Y-95295506D01*
X198551185Y-95198815D01*
X198454494Y-95119463D01*
X198344180Y-95060498D01*
X198224482Y-95024188D01*
X198100000Y-95011928D01*
X196400000Y-95011928D01*
X196275518Y-95024188D01*
X196155820Y-95060498D01*
X196045506Y-95119463D01*
X195948815Y-95198815D01*
X195869463Y-95295506D01*
X195810498Y-95405820D01*
X195774188Y-95525518D01*
X195761928Y-95650000D01*
X193099250Y-95650000D01*
X193076250Y-95627000D01*
X191877000Y-95627000D01*
X191623000Y-95627000D01*
X191603000Y-95627000D01*
X191603000Y-95373000D01*
X191623000Y-95373000D01*
X191623000Y-94023750D01*
X191877000Y-94023750D01*
X191877000Y-95373000D01*
X193076250Y-95373000D01*
X193235000Y-95214250D01*
X193238072Y-94500000D01*
X193225812Y-94375518D01*
X193189502Y-94255820D01*
X193130537Y-94145506D01*
X193051185Y-94048815D01*
X192954494Y-93969463D01*
X192844180Y-93910498D01*
X192724482Y-93874188D01*
X192600000Y-93861928D01*
X192035750Y-93865000D01*
X191877000Y-94023750D01*
X191623000Y-94023750D01*
X191464250Y-93865000D01*
X190900000Y-93861928D01*
X190775518Y-93874188D01*
X190655820Y-93910498D01*
X190545506Y-93969463D01*
X190448815Y-94048815D01*
X190369463Y-94145506D01*
X190310498Y-94255820D01*
X190299945Y-94290608D01*
X190079014Y-94109294D01*
X189821034Y-93971401D01*
X189541111Y-93886487D01*
X189250000Y-93857815D01*
X188958890Y-93886487D01*
X188678967Y-93971401D01*
X188420987Y-94109294D01*
X188194866Y-94294866D01*
X188009294Y-94520986D01*
X187871401Y-94778966D01*
X187786487Y-95058889D01*
X187765000Y-95277050D01*
X184422200Y-95277050D01*
X184485000Y-95214250D01*
X184488072Y-94500000D01*
X184475812Y-94375518D01*
X184439502Y-94255820D01*
X184380537Y-94145506D01*
X184301185Y-94048815D01*
X184204494Y-93969463D01*
X184094180Y-93910498D01*
X183974482Y-93874188D01*
X183850000Y-93861928D01*
X183285750Y-93865000D01*
X183127000Y-94023750D01*
X182873000Y-94023750D01*
X182714250Y-93865000D01*
X182150000Y-93861928D01*
X182025518Y-93874188D01*
X181905820Y-93910498D01*
X181795506Y-93969463D01*
X181698815Y-94048815D01*
X181619463Y-94145506D01*
X181560498Y-94255820D01*
X181549945Y-94290608D01*
X181329014Y-94109294D01*
X181071034Y-93971401D01*
X180791111Y-93886487D01*
X180500000Y-93857815D01*
X180208890Y-93886487D01*
X179928967Y-93971401D01*
X179670987Y-94109294D01*
X179444866Y-94294866D01*
X179259294Y-94520986D01*
X179121401Y-94778966D01*
X179036487Y-95058889D01*
X179015000Y-95277050D01*
X168757163Y-95277050D01*
X170387323Y-93646890D01*
X174058524Y-93646890D01*
X174103175Y-93794099D01*
X174228359Y-94056920D01*
X174402412Y-94290269D01*
X174618645Y-94485178D01*
X174868748Y-94634157D01*
X175143109Y-94731481D01*
X175373000Y-94610814D01*
X175373000Y-93417000D01*
X175627000Y-93417000D01*
X175627000Y-94610814D01*
X175856891Y-94731481D01*
X176131252Y-94634157D01*
X176381355Y-94485178D01*
X176597588Y-94290269D01*
X176771641Y-94056920D01*
X176896825Y-93794099D01*
X176941476Y-93646890D01*
X176820155Y-93417000D01*
X175627000Y-93417000D01*
X175373000Y-93417000D01*
X174179845Y-93417000D01*
X174058524Y-93646890D01*
X170387323Y-93646890D01*
X172936013Y-91098201D01*
X172965011Y-91074403D01*
X173059984Y-90958678D01*
X173130556Y-90826649D01*
X173174013Y-90683388D01*
X173185010Y-90571735D01*
X173188687Y-90534402D01*
X173185010Y-90497069D01*
X173185010Y-89900000D01*
X174011928Y-89900000D01*
X174011928Y-91600000D01*
X174024188Y-91724482D01*
X174060498Y-91844180D01*
X174119463Y-91954494D01*
X174198815Y-92051185D01*
X174295506Y-92130537D01*
X174405820Y-92189502D01*
X174486466Y-92213966D01*
X174402412Y-92289731D01*
X174228359Y-92523080D01*
X174103175Y-92785901D01*
X174058524Y-92933110D01*
X174179845Y-93163000D01*
X175373000Y-93163000D01*
X175373000Y-93143000D01*
X175627000Y-93143000D01*
X175627000Y-93163000D01*
X176820155Y-93163000D01*
X176941476Y-92933110D01*
X176896825Y-92785901D01*
X176771641Y-92523080D01*
X176597588Y-92289731D01*
X176513534Y-92213966D01*
X176594180Y-92189502D01*
X176704494Y-92130537D01*
X176801185Y-92051185D01*
X176880537Y-91954494D01*
X176939502Y-91844180D01*
X176975812Y-91724482D01*
X176988072Y-91600000D01*
X176988072Y-90650000D01*
X195761928Y-90650000D01*
X195761928Y-92350000D01*
X195774188Y-92474482D01*
X195810498Y-92594180D01*
X195869463Y-92704494D01*
X195948815Y-92801185D01*
X196045506Y-92880537D01*
X196155820Y-92939502D01*
X196275518Y-92975812D01*
X196400000Y-92988072D01*
X198100000Y-92988072D01*
X198224482Y-92975812D01*
X198344180Y-92939502D01*
X198454494Y-92880537D01*
X198551185Y-92801185D01*
X198630537Y-92704494D01*
X198689502Y-92594180D01*
X198725812Y-92474482D01*
X198738072Y-92350000D01*
X198738072Y-90650000D01*
X198725812Y-90525518D01*
X198689502Y-90405820D01*
X198630537Y-90295506D01*
X198551185Y-90198815D01*
X198454494Y-90119463D01*
X198344180Y-90060498D01*
X198271620Y-90038487D01*
X198403475Y-89906632D01*
X198565990Y-89663411D01*
X198677932Y-89393158D01*
X198735000Y-89106260D01*
X198735000Y-88813740D01*
X198677932Y-88526842D01*
X198565990Y-88256589D01*
X198403475Y-88013368D01*
X198196632Y-87806525D01*
X198014466Y-87684805D01*
X198131355Y-87615178D01*
X198347588Y-87420269D01*
X198521641Y-87186920D01*
X198646825Y-86924099D01*
X198691476Y-86776890D01*
X198570155Y-86547000D01*
X197377000Y-86547000D01*
X197377000Y-86567000D01*
X197123000Y-86567000D01*
X197123000Y-86547000D01*
X195929845Y-86547000D01*
X195808524Y-86776890D01*
X195853175Y-86924099D01*
X195978359Y-87186920D01*
X196152412Y-87420269D01*
X196368645Y-87615178D01*
X196485534Y-87684805D01*
X196303368Y-87806525D01*
X196096525Y-88013368D01*
X195934010Y-88256589D01*
X195822068Y-88526842D01*
X195765000Y-88813740D01*
X195765000Y-89106260D01*
X195822068Y-89393158D01*
X195934010Y-89663411D01*
X196096525Y-89906632D01*
X196228380Y-90038487D01*
X196155820Y-90060498D01*
X196045506Y-90119463D01*
X195948815Y-90198815D01*
X195869463Y-90295506D01*
X195810498Y-90405820D01*
X195774188Y-90525518D01*
X195761928Y-90650000D01*
X176988072Y-90650000D01*
X176988072Y-89900000D01*
X176975812Y-89775518D01*
X176939502Y-89655820D01*
X176880537Y-89545506D01*
X176801185Y-89448815D01*
X176704494Y-89369463D01*
X176594180Y-89310498D01*
X176474482Y-89274188D01*
X176350000Y-89261928D01*
X174650000Y-89261928D01*
X174525518Y-89274188D01*
X174405820Y-89310498D01*
X174295506Y-89369463D01*
X174198815Y-89448815D01*
X174119463Y-89545506D01*
X174060498Y-89655820D01*
X174024188Y-89775518D01*
X174011928Y-89900000D01*
X173185010Y-89900000D01*
X173185010Y-85898061D01*
X175215000Y-85898061D01*
X175215000Y-86101939D01*
X175254774Y-86301898D01*
X175332795Y-86490256D01*
X175446063Y-86659774D01*
X175501392Y-86715103D01*
X175465000Y-86898061D01*
X175465000Y-87101939D01*
X175501392Y-87284897D01*
X175446063Y-87340226D01*
X175332795Y-87509744D01*
X175254774Y-87698102D01*
X175215000Y-87898061D01*
X175215000Y-88101939D01*
X175254774Y-88301898D01*
X175332795Y-88490256D01*
X175446063Y-88659774D01*
X175590226Y-88803937D01*
X175759744Y-88917205D01*
X175948102Y-88995226D01*
X176148061Y-89035000D01*
X176351939Y-89035000D01*
X176551898Y-88995226D01*
X176740256Y-88917205D01*
X176909774Y-88803937D01*
X176953711Y-88760000D01*
X179715000Y-88760000D01*
X179715000Y-88851939D01*
X179754774Y-89051898D01*
X179832795Y-89240256D01*
X179946063Y-89409774D01*
X180090226Y-89553937D01*
X180259744Y-89667205D01*
X180448102Y-89745226D01*
X180648061Y-89785000D01*
X180851939Y-89785000D01*
X181051898Y-89745226D01*
X181240256Y-89667205D01*
X181409774Y-89553937D01*
X181553937Y-89409774D01*
X181667205Y-89240256D01*
X181745226Y-89051898D01*
X181785000Y-88851939D01*
X181785000Y-88648061D01*
X181745226Y-88448102D01*
X181667205Y-88259744D01*
X181553937Y-88090226D01*
X181409774Y-87946063D01*
X181240256Y-87832795D01*
X181099146Y-87774345D01*
X181084801Y-87760000D01*
X187685199Y-87760000D01*
X188482961Y-88557763D01*
X188465000Y-88648061D01*
X188465000Y-88851939D01*
X188504774Y-89051898D01*
X188582795Y-89240256D01*
X188696063Y-89409774D01*
X188840226Y-89553937D01*
X189009744Y-89667205D01*
X189198102Y-89745226D01*
X189398061Y-89785000D01*
X189601939Y-89785000D01*
X189801898Y-89745226D01*
X189990256Y-89667205D01*
X190159774Y-89553937D01*
X190303937Y-89409774D01*
X190417205Y-89240256D01*
X190495226Y-89051898D01*
X190535000Y-88851939D01*
X190535000Y-88648061D01*
X190495226Y-88448102D01*
X190417205Y-88259744D01*
X190303937Y-88090226D01*
X190159774Y-87946063D01*
X189990256Y-87832795D01*
X189849147Y-87774345D01*
X188834801Y-86760000D01*
X190546289Y-86760000D01*
X190590226Y-86803937D01*
X190759744Y-86917205D01*
X190948102Y-86995226D01*
X191148061Y-87035000D01*
X191351939Y-87035000D01*
X191551898Y-86995226D01*
X191740256Y-86917205D01*
X191909774Y-86803937D01*
X192053937Y-86659774D01*
X192167205Y-86490256D01*
X192245226Y-86301898D01*
X192285000Y-86101939D01*
X192285000Y-86063110D01*
X195808524Y-86063110D01*
X195929845Y-86293000D01*
X197123000Y-86293000D01*
X197123000Y-85099186D01*
X197377000Y-85099186D01*
X197377000Y-86293000D01*
X198570155Y-86293000D01*
X198691476Y-86063110D01*
X198646825Y-85915901D01*
X198521641Y-85653080D01*
X198347588Y-85419731D01*
X198131355Y-85224822D01*
X197881252Y-85075843D01*
X197606891Y-84978519D01*
X197377000Y-85099186D01*
X197123000Y-85099186D01*
X196893109Y-84978519D01*
X196618748Y-85075843D01*
X196368645Y-85224822D01*
X196152412Y-85419731D01*
X195978359Y-85653080D01*
X195853175Y-85915901D01*
X195808524Y-86063110D01*
X192285000Y-86063110D01*
X192285000Y-85898061D01*
X192245226Y-85698102D01*
X192167205Y-85509744D01*
X192053937Y-85340226D01*
X191909774Y-85196063D01*
X191740256Y-85082795D01*
X191551898Y-85004774D01*
X191351939Y-84965000D01*
X191148061Y-84965000D01*
X190948102Y-85004774D01*
X190759744Y-85082795D01*
X190590226Y-85196063D01*
X190546289Y-85240000D01*
X176953711Y-85240000D01*
X176909774Y-85196063D01*
X176740256Y-85082795D01*
X176551898Y-85004774D01*
X176351939Y-84965000D01*
X176148061Y-84965000D01*
X175948102Y-85004774D01*
X175759744Y-85082795D01*
X175590226Y-85196063D01*
X175446063Y-85340226D01*
X175332795Y-85509744D01*
X175254774Y-85698102D01*
X175215000Y-85898061D01*
X173185010Y-85898061D01*
X173185010Y-84139791D01*
X173289801Y-84035000D01*
X173351939Y-84035000D01*
X173551898Y-83995226D01*
X173740256Y-83917205D01*
X173909774Y-83803937D01*
X174053937Y-83659774D01*
X174167205Y-83490256D01*
X174245226Y-83301898D01*
X174285000Y-83101939D01*
X174285000Y-82898061D01*
X174245226Y-82698102D01*
X174167205Y-82509744D01*
X174160693Y-82499999D01*
X174167205Y-82490253D01*
X174245226Y-82301895D01*
X174285000Y-82101936D01*
X174285000Y-81898058D01*
X174245226Y-81698099D01*
X174167205Y-81509741D01*
X174053937Y-81340223D01*
X173909774Y-81196060D01*
X173740256Y-81082792D01*
X173686760Y-81060633D01*
X178482472Y-81060633D01*
X178544965Y-81296950D01*
X178787678Y-81410350D01*
X179047849Y-81474219D01*
X179315482Y-81486104D01*
X179580291Y-81445548D01*
X179832100Y-81354109D01*
X179939035Y-81296950D01*
X180001528Y-81060633D01*
X183482472Y-81060633D01*
X183544965Y-81296950D01*
X183787678Y-81410350D01*
X184047849Y-81474219D01*
X184315482Y-81486104D01*
X184580291Y-81445548D01*
X184832100Y-81354109D01*
X184939035Y-81296950D01*
X185001528Y-81060633D01*
X184242000Y-80301105D01*
X183482472Y-81060633D01*
X180001528Y-81060633D01*
X179242000Y-80301105D01*
X178482472Y-81060633D01*
X173686760Y-81060633D01*
X173551898Y-81004771D01*
X173351939Y-80964997D01*
X173148061Y-80964997D01*
X172948102Y-81004771D01*
X172759744Y-81082792D01*
X172590226Y-81196060D01*
X172535276Y-81251010D01*
X172392068Y-81294451D01*
X172260038Y-81365023D01*
X172204808Y-81410350D01*
X172144314Y-81459996D01*
X172120516Y-81488995D01*
X171464002Y-82145509D01*
X171434999Y-82169311D01*
X171398119Y-82214250D01*
X171387311Y-82227420D01*
X171278937Y-82065226D01*
X171134774Y-81921063D01*
X170965256Y-81807795D01*
X170776898Y-81729774D01*
X170576939Y-81690000D01*
X170373061Y-81690000D01*
X170173102Y-81729774D01*
X169984744Y-81807795D01*
X169815226Y-81921063D01*
X169671063Y-82065226D01*
X169557795Y-82234744D01*
X169479774Y-82423102D01*
X169440000Y-82623061D01*
X169440000Y-82826939D01*
X169479774Y-83026898D01*
X169557795Y-83215256D01*
X169652278Y-83356660D01*
X169614011Y-83394927D01*
X169500743Y-83564445D01*
X169422722Y-83752803D01*
X169382948Y-83952762D01*
X169382948Y-84156640D01*
X169422722Y-84356599D01*
X169500743Y-84544957D01*
X169614011Y-84714475D01*
X169657949Y-84758413D01*
X169657948Y-89880840D01*
X168866994Y-90671795D01*
X167855538Y-90671795D01*
X167818205Y-90668118D01*
X167780872Y-90671795D01*
X167669219Y-90682792D01*
X167525958Y-90726249D01*
X167393929Y-90796821D01*
X167278204Y-90891794D01*
X167254406Y-90920793D01*
X166960198Y-91215000D01*
X166898061Y-91215000D01*
X166698102Y-91254774D01*
X166509744Y-91332795D01*
X166340226Y-91446063D01*
X166196063Y-91590226D01*
X166082795Y-91759744D01*
X166004774Y-91948102D01*
X165965000Y-92148061D01*
X165965000Y-92351939D01*
X166004774Y-92551898D01*
X166082795Y-92740256D01*
X166196063Y-92909774D01*
X166340226Y-93053937D01*
X166509744Y-93167205D01*
X166698102Y-93245226D01*
X166898061Y-93285000D01*
X167101939Y-93285000D01*
X167301898Y-93245226D01*
X167490256Y-93167205D01*
X167659774Y-93053937D01*
X167803937Y-92909774D01*
X167917205Y-92740256D01*
X167995226Y-92551898D01*
X168000000Y-92527897D01*
X168004774Y-92551898D01*
X168082795Y-92740256D01*
X168196063Y-92909774D01*
X168267245Y-92980956D01*
X167008201Y-94240000D01*
X162453711Y-94240000D01*
X162409774Y-94196063D01*
X162240256Y-94082795D01*
X162051898Y-94004774D01*
X161851939Y-93965000D01*
X161648061Y-93965000D01*
X161448102Y-94004774D01*
X161259744Y-94082795D01*
X161090226Y-94196063D01*
X160946063Y-94340226D01*
X160832795Y-94509744D01*
X160754774Y-94698102D01*
X160715000Y-94898061D01*
X100660000Y-94898061D01*
X100660000Y-85877000D01*
X151466590Y-85877000D01*
X151329534Y-86082118D01*
X151187439Y-86425166D01*
X151115000Y-86789344D01*
X151115000Y-87160656D01*
X151187439Y-87524834D01*
X151329534Y-87867882D01*
X151535825Y-88176618D01*
X151798382Y-88439175D01*
X152107118Y-88645466D01*
X152450166Y-88787561D01*
X152537838Y-88805000D01*
X152450166Y-88822439D01*
X152107118Y-88964534D01*
X151798382Y-89170825D01*
X151535825Y-89433382D01*
X151329534Y-89742118D01*
X151187439Y-90085166D01*
X151115000Y-90449344D01*
X151115000Y-90820656D01*
X151187439Y-91184834D01*
X151329534Y-91527882D01*
X151535825Y-91836618D01*
X151798382Y-92099175D01*
X152107118Y-92305466D01*
X152450166Y-92447561D01*
X152814344Y-92520000D01*
X153185656Y-92520000D01*
X153549834Y-92447561D01*
X153892882Y-92305466D01*
X154201618Y-92099175D01*
X154464175Y-91836618D01*
X154670466Y-91527882D01*
X154812561Y-91184834D01*
X154885000Y-90820656D01*
X154885000Y-90449344D01*
X154812561Y-90085166D01*
X154739850Y-89909624D01*
X157001563Y-89909624D01*
X157001563Y-90113502D01*
X157041337Y-90313461D01*
X157119358Y-90501819D01*
X157232626Y-90671337D01*
X157376789Y-90815500D01*
X157546307Y-90928768D01*
X157734665Y-91006789D01*
X157934624Y-91046563D01*
X158138502Y-91046563D01*
X158338461Y-91006789D01*
X158526819Y-90928768D01*
X158696337Y-90815500D01*
X158840500Y-90671337D01*
X158953768Y-90501819D01*
X159031789Y-90313461D01*
X159071563Y-90113502D01*
X159071563Y-90051365D01*
X160011008Y-89111921D01*
X160040001Y-89088127D01*
X160063795Y-89059134D01*
X160063799Y-89059130D01*
X160134973Y-88972403D01*
X160134974Y-88972402D01*
X160205546Y-88840373D01*
X160249003Y-88697112D01*
X160260000Y-88585459D01*
X160260000Y-88585450D01*
X160263676Y-88548127D01*
X160260000Y-88510804D01*
X160260000Y-86148061D01*
X162465000Y-86148061D01*
X162465000Y-86351939D01*
X162504774Y-86551898D01*
X162582795Y-86740256D01*
X162589306Y-86750000D01*
X162582795Y-86759744D01*
X162504774Y-86948102D01*
X162465000Y-87148061D01*
X162465000Y-87351939D01*
X162504774Y-87551898D01*
X162582795Y-87740256D01*
X162589306Y-87750000D01*
X162582795Y-87759744D01*
X162504774Y-87948102D01*
X162465000Y-88148061D01*
X162465000Y-88351939D01*
X162504774Y-88551898D01*
X162582795Y-88740256D01*
X162589306Y-88750000D01*
X162582795Y-88759744D01*
X162504774Y-88948102D01*
X162465000Y-89148061D01*
X162465000Y-89351939D01*
X162504774Y-89551898D01*
X162582795Y-89740256D01*
X162672828Y-89875000D01*
X162582795Y-90009744D01*
X162504774Y-90198102D01*
X162465000Y-90398061D01*
X162465000Y-90601939D01*
X162504774Y-90801898D01*
X162582795Y-90990256D01*
X162696063Y-91159774D01*
X162840226Y-91303937D01*
X163009744Y-91417205D01*
X163198102Y-91495226D01*
X163398061Y-91535000D01*
X163601939Y-91535000D01*
X163801898Y-91495226D01*
X163990256Y-91417205D01*
X164159774Y-91303937D01*
X164203711Y-91260000D01*
X165712678Y-91260000D01*
X165750000Y-91263676D01*
X165787322Y-91260000D01*
X165787333Y-91260000D01*
X165898986Y-91249003D01*
X166042247Y-91205546D01*
X166174276Y-91134974D01*
X166290001Y-91040001D01*
X166313804Y-91010997D01*
X167039802Y-90285000D01*
X167101939Y-90285000D01*
X167301898Y-90245226D01*
X167490256Y-90167205D01*
X167659774Y-90053937D01*
X167803937Y-89909774D01*
X167917205Y-89740256D01*
X167995226Y-89551898D01*
X168035000Y-89351939D01*
X168035000Y-89148061D01*
X167995226Y-88948102D01*
X167917205Y-88759744D01*
X167803937Y-88590226D01*
X167748608Y-88534897D01*
X167785000Y-88351939D01*
X167785000Y-88148061D01*
X167745226Y-87948102D01*
X167667205Y-87759744D01*
X167660694Y-87750000D01*
X167667205Y-87740256D01*
X167745226Y-87551898D01*
X167785000Y-87351939D01*
X167785000Y-87148061D01*
X167745226Y-86948102D01*
X167667205Y-86759744D01*
X167660694Y-86750000D01*
X167667205Y-86740256D01*
X167745226Y-86551898D01*
X167785000Y-86351939D01*
X167785000Y-86148061D01*
X167745226Y-85948102D01*
X167667205Y-85759744D01*
X167660694Y-85750000D01*
X167667205Y-85740256D01*
X167745226Y-85551898D01*
X167785000Y-85351939D01*
X167785000Y-85148061D01*
X167745226Y-84948102D01*
X167667205Y-84759744D01*
X167553937Y-84590226D01*
X167409774Y-84446063D01*
X167240256Y-84332795D01*
X167051898Y-84254774D01*
X166851939Y-84215000D01*
X166648061Y-84215000D01*
X166448102Y-84254774D01*
X166259744Y-84332795D01*
X166090226Y-84446063D01*
X166006675Y-84529614D01*
X165957753Y-84544454D01*
X165825724Y-84615026D01*
X165709999Y-84709999D01*
X165686201Y-84738997D01*
X164935199Y-85490000D01*
X164203711Y-85490000D01*
X164159774Y-85446063D01*
X163990256Y-85332795D01*
X163801898Y-85254774D01*
X163601939Y-85215000D01*
X163398061Y-85215000D01*
X163198102Y-85254774D01*
X163009744Y-85332795D01*
X162840226Y-85446063D01*
X162696063Y-85590226D01*
X162582795Y-85759744D01*
X162504774Y-85948102D01*
X162465000Y-86148061D01*
X160260000Y-86148061D01*
X160260000Y-85703711D01*
X160303937Y-85659774D01*
X160417205Y-85490256D01*
X160495226Y-85301898D01*
X160535000Y-85101939D01*
X160535000Y-84898061D01*
X160495226Y-84698102D01*
X160417205Y-84509744D01*
X160303937Y-84340226D01*
X160180853Y-84217142D01*
X160186566Y-84214775D01*
X160503491Y-84003013D01*
X160706504Y-83800000D01*
X162411928Y-83800000D01*
X162424188Y-83924482D01*
X162460498Y-84044180D01*
X162519463Y-84154494D01*
X162598815Y-84251185D01*
X162695506Y-84330537D01*
X162805820Y-84389502D01*
X162925518Y-84425812D01*
X163050000Y-84438072D01*
X164064250Y-84435000D01*
X164223000Y-84276250D01*
X164223000Y-82627000D01*
X164477000Y-82627000D01*
X164477000Y-84276250D01*
X164635750Y-84435000D01*
X165650000Y-84438072D01*
X165774482Y-84425812D01*
X165894180Y-84389502D01*
X166004494Y-84330537D01*
X166101185Y-84251185D01*
X166180537Y-84154494D01*
X166239502Y-84044180D01*
X166275812Y-83924482D01*
X166288072Y-83800000D01*
X166285000Y-82785750D01*
X166126250Y-82627000D01*
X164477000Y-82627000D01*
X164223000Y-82627000D01*
X162573750Y-82627000D01*
X162415000Y-82785750D01*
X162411928Y-83800000D01*
X160706504Y-83800000D01*
X160773013Y-83733491D01*
X160984775Y-83416566D01*
X161130639Y-83064419D01*
X161205000Y-82690581D01*
X161205000Y-82309419D01*
X161130639Y-81935581D01*
X160984775Y-81583434D01*
X160773013Y-81266509D01*
X160706504Y-81200000D01*
X162411928Y-81200000D01*
X162415000Y-82214250D01*
X162573750Y-82373000D01*
X164223000Y-82373000D01*
X164223000Y-80723750D01*
X164477000Y-80723750D01*
X164477000Y-82373000D01*
X166126250Y-82373000D01*
X166285000Y-82214250D01*
X166288072Y-81200000D01*
X166275812Y-81075518D01*
X166239502Y-80955820D01*
X166180537Y-80845506D01*
X166101185Y-80748815D01*
X166004494Y-80669463D01*
X165894180Y-80610498D01*
X165774482Y-80574188D01*
X165650000Y-80561928D01*
X164635750Y-80565000D01*
X164477000Y-80723750D01*
X164223000Y-80723750D01*
X164064250Y-80565000D01*
X163050000Y-80561928D01*
X162925518Y-80574188D01*
X162805820Y-80610498D01*
X162695506Y-80669463D01*
X162598815Y-80748815D01*
X162519463Y-80845506D01*
X162460498Y-80955820D01*
X162424188Y-81075518D01*
X162411928Y-81200000D01*
X160706504Y-81200000D01*
X160503491Y-80996987D01*
X160186566Y-80785225D01*
X159834419Y-80639361D01*
X159460581Y-80565000D01*
X159079419Y-80565000D01*
X158705581Y-80639361D01*
X158353434Y-80785225D01*
X158036509Y-80996987D01*
X157766987Y-81266509D01*
X157555225Y-81583434D01*
X157409361Y-81935581D01*
X157335000Y-82309419D01*
X157335000Y-82690581D01*
X157409361Y-83064419D01*
X157555225Y-83416566D01*
X157766987Y-83733491D01*
X158036509Y-84003013D01*
X158353434Y-84214775D01*
X158687443Y-84353126D01*
X158582795Y-84509744D01*
X158504774Y-84698102D01*
X158465000Y-84898061D01*
X158465000Y-85101939D01*
X158504774Y-85301898D01*
X158582795Y-85490256D01*
X158696063Y-85659774D01*
X158740000Y-85703711D01*
X158740001Y-88233322D01*
X157996761Y-88976563D01*
X157934624Y-88976563D01*
X157734665Y-89016337D01*
X157546307Y-89094358D01*
X157376789Y-89207626D01*
X157232626Y-89351789D01*
X157119358Y-89521307D01*
X157041337Y-89709665D01*
X157001563Y-89909624D01*
X154739850Y-89909624D01*
X154670466Y-89742118D01*
X154464175Y-89433382D01*
X154201618Y-89170825D01*
X153892882Y-88964534D01*
X153549834Y-88822439D01*
X153462162Y-88805000D01*
X153549834Y-88787561D01*
X153892882Y-88645466D01*
X154201618Y-88439175D01*
X154464175Y-88176618D01*
X154670466Y-87867882D01*
X154812561Y-87524834D01*
X154885000Y-87160656D01*
X154885000Y-86789344D01*
X154812561Y-86425166D01*
X154670466Y-86082118D01*
X154533410Y-85877000D01*
X156250000Y-85877000D01*
X156274776Y-85874560D01*
X156298601Y-85867333D01*
X156320557Y-85855597D01*
X156339803Y-85839803D01*
X156355597Y-85820557D01*
X156367333Y-85798601D01*
X156374560Y-85774776D01*
X156377000Y-85750000D01*
X156377000Y-78150000D01*
X168511928Y-78150000D01*
X168511928Y-79850000D01*
X168524188Y-79974482D01*
X168560498Y-80094180D01*
X168619463Y-80204494D01*
X168698815Y-80301185D01*
X168795506Y-80380537D01*
X168905820Y-80439502D01*
X169025518Y-80475812D01*
X169150000Y-80488072D01*
X170850000Y-80488072D01*
X170974482Y-80475812D01*
X171094180Y-80439502D01*
X171204494Y-80380537D01*
X171301185Y-80301185D01*
X171380537Y-80204494D01*
X171439502Y-80094180D01*
X171461513Y-80021620D01*
X171593368Y-80153475D01*
X171836589Y-80315990D01*
X172106842Y-80427932D01*
X172393740Y-80485000D01*
X172686260Y-80485000D01*
X172973158Y-80427932D01*
X173243411Y-80315990D01*
X173424512Y-80194982D01*
X177877396Y-80194982D01*
X177917952Y-80459791D01*
X178009391Y-80711600D01*
X178066550Y-80818535D01*
X178302867Y-80881028D01*
X179062395Y-80121500D01*
X179421605Y-80121500D01*
X180181133Y-80881028D01*
X180417450Y-80818535D01*
X180530850Y-80575822D01*
X180594719Y-80315651D01*
X180600077Y-80194982D01*
X182877396Y-80194982D01*
X182917952Y-80459791D01*
X183009391Y-80711600D01*
X183066550Y-80818535D01*
X183302867Y-80881028D01*
X184062395Y-80121500D01*
X184421605Y-80121500D01*
X185181133Y-80881028D01*
X185417450Y-80818535D01*
X185530850Y-80575822D01*
X185594719Y-80315651D01*
X185606604Y-80048018D01*
X185566048Y-79783209D01*
X185564837Y-79779872D01*
X193765000Y-79779872D01*
X193765000Y-80220128D01*
X193850890Y-80651925D01*
X194019369Y-81058669D01*
X194263962Y-81424729D01*
X194575271Y-81736038D01*
X194941331Y-81980631D01*
X195348075Y-82149110D01*
X195779872Y-82235000D01*
X196220128Y-82235000D01*
X196651925Y-82149110D01*
X197058669Y-81980631D01*
X197424729Y-81736038D01*
X197736038Y-81424729D01*
X197980631Y-81058669D01*
X198149110Y-80651925D01*
X198235000Y-80220128D01*
X198235000Y-79779872D01*
X198149110Y-79348075D01*
X197980631Y-78941331D01*
X197736038Y-78575271D01*
X197424729Y-78263962D01*
X197058669Y-78019369D01*
X196651925Y-77850890D01*
X196220128Y-77765000D01*
X195779872Y-77765000D01*
X195348075Y-77850890D01*
X194941331Y-78019369D01*
X194575271Y-78263962D01*
X194263962Y-78575271D01*
X194019369Y-78941331D01*
X193850890Y-79348075D01*
X193765000Y-79779872D01*
X185564837Y-79779872D01*
X185474609Y-79531400D01*
X185417450Y-79424465D01*
X185181133Y-79361972D01*
X184421605Y-80121500D01*
X184062395Y-80121500D01*
X183302867Y-79361972D01*
X183066550Y-79424465D01*
X182953150Y-79667178D01*
X182889281Y-79927349D01*
X182877396Y-80194982D01*
X180600077Y-80194982D01*
X180606604Y-80048018D01*
X180566048Y-79783209D01*
X180474609Y-79531400D01*
X180417450Y-79424465D01*
X180181133Y-79361972D01*
X179421605Y-80121500D01*
X179062395Y-80121500D01*
X178302867Y-79361972D01*
X178066550Y-79424465D01*
X177953150Y-79667178D01*
X177889281Y-79927349D01*
X177877396Y-80194982D01*
X173424512Y-80194982D01*
X173486632Y-80153475D01*
X173693475Y-79946632D01*
X173855990Y-79703411D01*
X173967932Y-79433158D01*
X174025000Y-79146260D01*
X174025000Y-78853740D01*
X173967932Y-78566842D01*
X173855990Y-78296589D01*
X173693475Y-78053368D01*
X173486632Y-77846525D01*
X173243411Y-77684010D01*
X172973158Y-77572068D01*
X172854675Y-77548500D01*
X177007000Y-77548500D01*
X177007000Y-77898500D01*
X177055507Y-78136996D01*
X177149610Y-78361446D01*
X177285693Y-78563225D01*
X177458526Y-78734578D01*
X177661467Y-78868921D01*
X177886718Y-78961091D01*
X177924391Y-78964962D01*
X178115000Y-78840231D01*
X178115000Y-77548500D01*
X178369000Y-77548500D01*
X178369000Y-78840231D01*
X178542862Y-78954003D01*
X178482472Y-79182367D01*
X179242000Y-79941895D01*
X180001528Y-79182367D01*
X183482472Y-79182367D01*
X184242000Y-79941895D01*
X185001528Y-79182367D01*
X184941138Y-78954003D01*
X185115000Y-78840231D01*
X185115000Y-77548500D01*
X185369000Y-77548500D01*
X185369000Y-78840231D01*
X185559609Y-78964962D01*
X185597282Y-78961091D01*
X185822533Y-78868921D01*
X186025474Y-78734578D01*
X186198307Y-78563225D01*
X186334390Y-78361446D01*
X186428493Y-78136996D01*
X186477000Y-77898500D01*
X186477000Y-77548500D01*
X185369000Y-77548500D01*
X185115000Y-77548500D01*
X184007000Y-77548500D01*
X184007000Y-77898500D01*
X184055507Y-78136996D01*
X184149610Y-78361446D01*
X184285693Y-78563225D01*
X184458526Y-78734578D01*
X184553836Y-78797671D01*
X184436151Y-78768781D01*
X184168518Y-78756896D01*
X183903709Y-78797452D01*
X183651900Y-78888891D01*
X183544965Y-78946050D01*
X183482472Y-79182367D01*
X180001528Y-79182367D01*
X179939035Y-78946050D01*
X179696322Y-78832650D01*
X179436151Y-78768781D01*
X179168518Y-78756896D01*
X178938558Y-78792115D01*
X179025474Y-78734578D01*
X179198307Y-78563225D01*
X179334390Y-78361446D01*
X179428493Y-78136996D01*
X179477000Y-77898500D01*
X179477000Y-77548500D01*
X178369000Y-77548500D01*
X178115000Y-77548500D01*
X177007000Y-77548500D01*
X172854675Y-77548500D01*
X172686260Y-77515000D01*
X172393740Y-77515000D01*
X172106842Y-77572068D01*
X171836589Y-77684010D01*
X171593368Y-77846525D01*
X171461513Y-77978380D01*
X171439502Y-77905820D01*
X171380537Y-77795506D01*
X171301185Y-77698815D01*
X171204494Y-77619463D01*
X171094180Y-77560498D01*
X170974482Y-77524188D01*
X170850000Y-77511928D01*
X169150000Y-77511928D01*
X169025518Y-77524188D01*
X168905820Y-77560498D01*
X168795506Y-77619463D01*
X168698815Y-77698815D01*
X168619463Y-77795506D01*
X168560498Y-77905820D01*
X168524188Y-78025518D01*
X168511928Y-78150000D01*
X156377000Y-78150000D01*
X156377000Y-76660000D01*
X177074795Y-76660000D01*
X177055507Y-76706004D01*
M02*
