G04 #@! TF.GenerationSoftware,KiCad,Pcbnew,(5.0.0)*
G04 #@! TF.CreationDate,2018-10-21T23:28:39-04:00*
G04 #@! TF.ProjectId,Voron_Klipper_Board,566F726F6E5F4B6C69707065725F426F,A*
G04 #@! TF.SameCoordinates,Original*
G04 #@! TF.FileFunction,Soldermask,Bot*
G04 #@! TF.FilePolarity,Negative*
%FSLAX46Y46*%
G04 Gerber Fmt 4.6, Leading zero omitted, Abs format (unit mm)*
G04 Created by KiCad (PCBNEW (5.0.0)) date 10/21/18 23:28:39*
%MOMM*%
%LPD*%
G01*
G04 APERTURE LIST*
%ADD10C,2.305000*%
%ADD11C,2.540000*%
%ADD12C,3.600000*%
%ADD13C,3.448000*%
%ADD14C,3.180000*%
%ADD15O,2.100000X2.100000*%
%ADD16R,2.100000X2.100000*%
%ADD17C,2.500000*%
%ADD18R,2.500000X2.500000*%
%ADD19C,1.400000*%
G04 APERTURE END LIST*
D10*
G04 #@! TO.C,J8*
X158810000Y-149500000D03*
X156270000Y-149500000D03*
X153730000Y-149500000D03*
X151190000Y-149500000D03*
G04 #@! TD*
G04 #@! TO.C,J17*
X190610000Y-76740000D03*
X188070000Y-76740000D03*
G04 #@! TD*
G04 #@! TO.C,J18*
X185028000Y-76740000D03*
X182488000Y-76740000D03*
G04 #@! TD*
G04 #@! TO.C,J13*
X178424000Y-76740000D03*
X175884000Y-76740000D03*
G04 #@! TD*
G04 #@! TO.C,J14*
X172836000Y-76740000D03*
X170296000Y-76740000D03*
G04 #@! TD*
G04 #@! TO.C,J15*
X167248000Y-76740000D03*
X164708000Y-76740000D03*
G04 #@! TD*
G04 #@! TO.C,J16*
X161660000Y-76740000D03*
X159120000Y-76740000D03*
G04 #@! TD*
G04 #@! TO.C,J19*
X156072000Y-76740000D03*
X153532000Y-76740000D03*
G04 #@! TD*
G04 #@! TO.C,J21*
X191130000Y-116500000D03*
X193670000Y-116500000D03*
G04 #@! TD*
G04 #@! TO.C,J22*
X197230000Y-116500000D03*
X199770000Y-116500000D03*
G04 #@! TD*
G04 #@! TO.C,J23*
X203340000Y-116500000D03*
X205880000Y-116500000D03*
G04 #@! TD*
G04 #@! TO.C,J24*
X209430000Y-116500000D03*
X211970000Y-116500000D03*
G04 #@! TD*
G04 #@! TO.C,J20*
X185030000Y-116500000D03*
X187570000Y-116500000D03*
G04 #@! TD*
G04 #@! TO.C,J33*
X181540000Y-116500000D03*
X176460000Y-116500000D03*
X179000000Y-116500000D03*
G04 #@! TD*
G04 #@! TO.C,J31*
X172990000Y-116500000D03*
X167910000Y-116500000D03*
X170450000Y-116500000D03*
G04 #@! TD*
G04 #@! TO.C,J32*
X164440000Y-116500000D03*
X159360000Y-116500000D03*
X161900000Y-116500000D03*
G04 #@! TD*
G04 #@! TO.C,J30*
X155890000Y-116500000D03*
X150810000Y-116500000D03*
X153350000Y-116500000D03*
G04 #@! TD*
G04 #@! TO.C,J29*
X147340000Y-116500000D03*
X142260000Y-116500000D03*
X144800000Y-116500000D03*
G04 #@! TD*
G04 #@! TO.C,J4*
X142190000Y-43500000D03*
X144730000Y-43500000D03*
X147270000Y-43500000D03*
X149810000Y-43500000D03*
G04 #@! TD*
G04 #@! TO.C,J5*
X162240000Y-43500000D03*
X164780000Y-43500000D03*
X167320000Y-43500000D03*
X169860000Y-43500000D03*
G04 #@! TD*
G04 #@! TO.C,J6*
X182190000Y-43500000D03*
X184730000Y-43500000D03*
X187270000Y-43500000D03*
X189810000Y-43500000D03*
G04 #@! TD*
G04 #@! TO.C,J7*
X202190000Y-43500000D03*
X204730000Y-43500000D03*
X207270000Y-43500000D03*
X209810000Y-43500000D03*
G04 #@! TD*
G04 #@! TO.C,J3*
X225525000Y-67570000D03*
X225525000Y-70110000D03*
X225525000Y-72650000D03*
X225525000Y-75190000D03*
G04 #@! TD*
G04 #@! TO.C,J11*
X218810000Y-149500000D03*
X216270000Y-149500000D03*
X213730000Y-149500000D03*
X211190000Y-149500000D03*
G04 #@! TD*
G04 #@! TO.C,J10*
X198750000Y-149500000D03*
X196210000Y-149500000D03*
X193670000Y-149500000D03*
X191130000Y-149500000D03*
G04 #@! TD*
G04 #@! TO.C,J9*
X178810000Y-149500000D03*
X176270000Y-149500000D03*
X173730000Y-149500000D03*
X171190000Y-149500000D03*
G04 #@! TD*
D11*
G04 #@! TO.C,FID1*
X130475000Y-47575000D03*
G04 #@! TD*
D12*
G04 #@! TO.C,MH4*
X115000000Y-125000000D03*
G04 #@! TD*
D11*
G04 #@! TO.C,FID3*
X112850000Y-120175000D03*
G04 #@! TD*
G04 #@! TO.C,FID2*
X197750000Y-72650000D03*
G04 #@! TD*
D13*
G04 #@! TO.C,J25*
X125500000Y-111313000D03*
X125500000Y-100187800D03*
X125500000Y-89062600D03*
X125500000Y-77937400D03*
X125500000Y-66812200D03*
X125500000Y-55687000D03*
G04 #@! TD*
D14*
G04 #@! TO.C,F3*
X133350000Y-113156000D03*
X136750000Y-113156000D03*
X133350000Y-99694000D03*
X136750000Y-99694000D03*
G04 #@! TD*
D15*
G04 #@! TO.C,J1*
X224010000Y-93160000D03*
X226550000Y-93160000D03*
X224010000Y-90620000D03*
X226550000Y-90620000D03*
X224010000Y-88080000D03*
X226550000Y-88080000D03*
X224010000Y-85540000D03*
X226550000Y-85540000D03*
X224010000Y-83000000D03*
D16*
X226550000Y-83000000D03*
G04 #@! TD*
D15*
G04 #@! TO.C,J2*
X224010000Y-114160000D03*
X226550000Y-114160000D03*
X224010000Y-111620000D03*
X226550000Y-111620000D03*
X224010000Y-109080000D03*
X226550000Y-109080000D03*
X224010000Y-106540000D03*
X226550000Y-106540000D03*
X224010000Y-104000000D03*
D16*
X226550000Y-104000000D03*
G04 #@! TD*
D15*
G04 #@! TO.C,J12*
X149130000Y-74410000D03*
X149130000Y-76950000D03*
X146590000Y-74410000D03*
X146590000Y-76950000D03*
X144050000Y-74410000D03*
D16*
X144050000Y-76950000D03*
G04 #@! TD*
D17*
G04 #@! TO.C,J27*
X114580000Y-133900000D03*
D18*
X114580000Y-131360000D03*
G04 #@! TD*
D17*
G04 #@! TO.C,J28*
X114580000Y-149806000D03*
D18*
X114580000Y-147266000D03*
G04 #@! TD*
D14*
G04 #@! TO.C,F1*
X133300000Y-67500000D03*
X136700000Y-67500000D03*
X133300000Y-54038000D03*
X136700000Y-54038000D03*
G04 #@! TD*
G04 #@! TO.C,F2*
X133300000Y-90231000D03*
X136700000Y-90231000D03*
X133300000Y-76769000D03*
X136700000Y-76769000D03*
G04 #@! TD*
D12*
G04 #@! TO.C,MH1*
X115000000Y-44000000D03*
G04 #@! TD*
G04 #@! TO.C,MH2*
X225000000Y-44000000D03*
G04 #@! TD*
G04 #@! TO.C,MH3*
X225000000Y-147975000D03*
G04 #@! TD*
D19*
G04 #@! TO.C,J34*
X224475000Y-123525000D03*
X224475000Y-127925000D03*
G04 #@! TD*
D15*
G04 #@! TO.C,J36*
X226525000Y-59520000D03*
X223985000Y-59520000D03*
X226525000Y-56980000D03*
X223985000Y-56980000D03*
X226525000Y-54440000D03*
X223985000Y-54440000D03*
X226525000Y-51900000D03*
D16*
X223985000Y-51900000D03*
G04 #@! TD*
D18*
G04 #@! TO.C,J26*
X114580000Y-139313000D03*
D17*
X114580000Y-141853000D03*
G04 #@! TD*
M02*
