M48
;DRILL file {KiCad (5.0.0)} date 10/21/18 23:28:42
;FORMAT={3:3/ absolute / metric / suppress leading zeros}
FMAT,2
METRIC,TZ
T1C0.300
T2C0.400
T3C1.000
T4C1.016
T5C1.100
T6C1.780
T7C1.880
T8C1.000
T9C3.200
%
G90
G05
M71
T1
X153060Y-88070
X153060Y-89570
X153810Y-88820
X154560Y-88070
X154560Y-89570
X152920Y-104580
X152920Y-106080
X153670Y-105330
X154420Y-104580
X154420Y-106080
T2
X112899Y-42788
X112899Y-45214
X112899Y-123788
X112899Y-126214
X115000Y-41575
X115000Y-46427
X115000Y-122575
X115000Y-127427
X116700Y-134120
X116700Y-135390
X116700Y-142100
X116700Y-143370
X116700Y-150050
X116700Y-151320
X117101Y-42788
X117101Y-45214
X117101Y-123788
X117101Y-126214
X117970Y-134120
X117970Y-135390
X117970Y-142100
X117970Y-143370
X117970Y-150050
X117970Y-151320
X119240Y-134120
X119240Y-135390
X119240Y-142100
X119240Y-143370
X119240Y-150050
X119240Y-151320
X119550Y-45850
X120510Y-134120
X120510Y-135390
X120510Y-142100
X120510Y-143370
X120510Y-150050
X120510Y-151320
X125200Y-45800
X126500Y-118645
X126500Y-119915
X126975Y-105000
X126975Y-106270
X126975Y-107540
X127770Y-118645
X127770Y-119915
X128050Y-45750
X128245Y-105000
X128245Y-106270
X128245Y-107540
X129040Y-118645
X129040Y-119915
X129515Y-105000
X129515Y-106270
X129515Y-107540
X130310Y-118645
X130310Y-119915
X130975Y-45800
X133500Y-45800
X134100Y-96250
X134100Y-123400
X134100Y-124670
X134100Y-125940
X134100Y-127210
X134100Y-131500
X134100Y-132770
X134100Y-134040
X134100Y-135310
X134100Y-139450
X134100Y-140720
X134100Y-141990
X134100Y-143260
X134100Y-147400
X134100Y-148670
X134100Y-149940
X134100Y-151210
X134950Y-119150
X135370Y-123400
X135370Y-124670
X135370Y-125940
X135370Y-127210
X135370Y-131500
X135370Y-132770
X135370Y-134040
X135370Y-135310
X135370Y-139450
X135370Y-140720
X135370Y-141990
X135370Y-143260
X135370Y-147400
X135370Y-148670
X135370Y-149940
X135370Y-151210
X135900Y-96250
X136525Y-45800
X137050Y-49350
X138000Y-73675
X139100Y-45825
X139300Y-120025
X139459Y-121509
X140573Y-121392
X141029Y-122257
X141300Y-149050
X141300Y-150300
X141300Y-151550
X141400Y-143300
X141400Y-144550
X141400Y-145800
X141840Y-124461
X142550Y-149050
X142550Y-150300
X142550Y-151550
X142650Y-143300
X142650Y-144550
X142650Y-145800
X142750Y-58150
X142850Y-68350
X143000Y-131675
X143100Y-51500
X143100Y-53000
X143250Y-124550
X143400Y-96400
X143425Y-61325
X143425Y-128475
X143775Y-64525
X143875Y-58275
X144050Y-131675
X144100Y-68350
X144350Y-128600
X144500Y-124550
X144525Y-61325
X144700Y-64425
X144975Y-130950
X145000Y-129250
X145100Y-96400
X145250Y-59400
X145350Y-62025
X145350Y-68350
X145375Y-63800
X145400Y-133900
X145550Y-60350
X145750Y-124550
X146175Y-133150
X146375Y-135575
X146456Y-136574
X146600Y-68350
X146660Y-103620
X146660Y-109560
X146660Y-106670
X146800Y-87110
X146800Y-93050
X146800Y-90160
X147250Y-96950
X147550Y-142700
X147550Y-149050
X147550Y-150300
X147550Y-151550
X147575Y-135300
X148300Y-126725
X148400Y-134875
X148650Y-124450
X148750Y-80750
X148800Y-128900
X148800Y-129850
X148800Y-130800
X148800Y-131750
X148800Y-147800
X148800Y-149050
X148800Y-150300
X148800Y-151550
X148900Y-96950
X149025Y-56150
X149200Y-61250
X149200Y-62200
X149200Y-63150
X149200Y-64100
X149350Y-83125
X149800Y-51350
X149800Y-52800
X149800Y-128900
X149800Y-129850
X149800Y-130800
X149800Y-131750
X149800Y-131750
X149800Y-131750
X149811Y-70090
X149850Y-71121
X150100Y-56125
X150200Y-61250
X150200Y-62200
X150200Y-63150
X150200Y-64100
X150376Y-69292
X150475Y-125275
X150475Y-126272
X150500Y-104950
X150504Y-124146
X150525Y-123150
X150577Y-68335
X150600Y-88425
X150790Y-71840
X150800Y-128900
X150800Y-129850
X150800Y-130800
X150800Y-131750
X150900Y-136875
X150960Y-109420
X151100Y-92910
X151200Y-61250
X151200Y-61250
X151200Y-61250
X151200Y-62200
X151200Y-63150
X151200Y-64100
X151200Y-140200
X151200Y-141650
X151800Y-128900
X151800Y-129850
X151800Y-130800
X151800Y-131750
X151960Y-102145
X151975Y-136850
X152100Y-85635
X152200Y-41450
X152200Y-42700
X152200Y-43950
X152200Y-45200
X152200Y-61250
X152200Y-62200
X152200Y-63150
X152200Y-64100
X152317Y-72150
X152600Y-58125
X152600Y-68300
X152700Y-66250
X153425Y-57700
X153450Y-41450
X153450Y-42700
X153450Y-43950
X153450Y-50300
X154400Y-124520
X154550Y-56500
X154625Y-57525
X154825Y-59850
X154910Y-102145
X155050Y-85635
X155250Y-68320
X155450Y-132650
X155600Y-59100
X155625Y-129200
X155650Y-124520
X155650Y-130975
X155750Y-133600
X156000Y-63750
X156025Y-62050
X156300Y-128575
X156475Y-131675
X156500Y-68320
X156560Y-107645
X156650Y-64400
X156700Y-91135
X156900Y-124520
X156925Y-134750
X156950Y-61325
X157225Y-128475
X157575Y-64525
X157575Y-131675
X157750Y-68320
X157860Y-102145
X157900Y-140000
X157900Y-141500
X158000Y-61325
X158000Y-85635
X158150Y-124520
X158250Y-134850
X158350Y-47200
X158350Y-48450
X158350Y-49700
X158360Y-97910
X158450Y-41450
X158450Y-42700
X158450Y-43950
X158500Y-81400
X159000Y-68320
X159600Y-47200
X159600Y-48450
X159600Y-49700
X159700Y-41450
X159700Y-42700
X159700Y-43950
X160960Y-97670
X160960Y-99120
X161100Y-81160
X161100Y-82610
X161300Y-149050
X161300Y-150300
X161300Y-151550
X161400Y-143300
X161400Y-144550
X161400Y-145800
X162000Y-124520
X162550Y-149050
X162550Y-150300
X162550Y-151550
X162650Y-143300
X162650Y-144550
X162650Y-145800
X162800Y-58150
X162900Y-68320
X163000Y-131675
X163150Y-51500
X163150Y-53000
X163160Y-97670
X163160Y-99120
X163250Y-124520
X163300Y-81160
X163300Y-82610
X163425Y-128475
X163475Y-61325
X163825Y-64525
X163925Y-58275
X164050Y-131675
X164150Y-68320
X164350Y-128600
X164500Y-124520
X164575Y-61325
X164750Y-64425
X164850Y-119225
X164975Y-130950
X165000Y-129250
X165300Y-59400
X165400Y-62025
X165400Y-68320
X165400Y-133900
X165425Y-63800
X165600Y-60350
X165750Y-124520
X166175Y-133150
X166450Y-135450
X166450Y-136500
X166650Y-68320
X167550Y-142725
X167550Y-149050
X167550Y-150300
X167550Y-151550
X167575Y-135300
X168266Y-126909
X168325Y-106475
X168400Y-134875
X168625Y-124375
X168750Y-82000
X168800Y-128900
X168800Y-129850
X168800Y-130800
X168800Y-131750
X168800Y-147800
X168800Y-149050
X168800Y-150300
X168800Y-151550
X169075Y-56150
X169250Y-61250
X169250Y-62200
X169250Y-63150
X169250Y-64100
X169800Y-128900
X169800Y-129850
X169800Y-130800
X169800Y-131750
X169800Y-131750
X169800Y-131750
X169850Y-51350
X169850Y-52800
X169925Y-71200
X170150Y-56125
X170250Y-61250
X170250Y-62200
X170250Y-63150
X170250Y-64100
X170250Y-69175
X170400Y-72320
X170475Y-125300
X170475Y-126297
X170498Y-124237
X170525Y-123259
X170550Y-70275
X170759Y-68292
X170800Y-128900
X170800Y-129850
X170800Y-130800
X170800Y-131750
X170900Y-136875
X171200Y-140200
X171200Y-141650
X171250Y-61250
X171250Y-61250
X171250Y-61250
X171250Y-62200
X171250Y-63150
X171250Y-64100
X171800Y-128900
X171800Y-129850
X171800Y-130800
X171800Y-131750
X171975Y-136850
X172025Y-98750
X172050Y-100250
X172150Y-102250
X172250Y-41450
X172250Y-42700
X172250Y-43950
X172250Y-45200
X172250Y-61250
X172250Y-62200
X172250Y-63150
X172250Y-64100
X172275Y-103750
X172350Y-88600
X172550Y-110800
X172650Y-58125
X172650Y-68370
X172750Y-66250
X173475Y-57700
X173500Y-41450
X173500Y-42700
X173500Y-43950
X173500Y-50300
X174095Y-90395
X174125Y-82000
X174330Y-73122
X174400Y-124624
X174600Y-56500
X174700Y-57500
X174725Y-99625
X174875Y-59850
X175300Y-68370
X175400Y-89800
X175450Y-132650
X175625Y-129200
X175650Y-59100
X175650Y-124624
X175650Y-130975
X175750Y-133600
X176050Y-63750
X176075Y-62050
X176300Y-128575
X176325Y-100150
X176475Y-131675
X176550Y-68370
X176600Y-89600
X176700Y-64400
X176900Y-124624
X176925Y-134725
X177000Y-61325
X177225Y-128475
X177575Y-131675
X177582Y-100342
X177625Y-64525
X177800Y-68370
X177875Y-95091
X177900Y-140000
X177900Y-141500
X178050Y-61325
X178150Y-124624
X178250Y-134850
X178400Y-47200
X178400Y-48450
X178400Y-49700
X178500Y-41450
X178500Y-42700
X178500Y-43950
X179050Y-68370
X179200Y-94025
X179260Y-102151
X179325Y-82000
X179500Y-92400
X179650Y-47200
X179650Y-48450
X179650Y-49700
X179750Y-41450
X179750Y-42700
X179750Y-43950
X180000Y-97875
X180157Y-93136
X180825Y-110750
X181075Y-105950
X181250Y-149050
X181250Y-150300
X181250Y-151550
X181350Y-143300
X181350Y-144550
X181350Y-145800
X181500Y-107200
X181600Y-88000
X181950Y-124550
X182500Y-149050
X182500Y-150300
X182500Y-151550
X182600Y-143300
X182600Y-144550
X182600Y-145800
X182750Y-58150
X182850Y-68350
X182950Y-131675
X183100Y-51500
X183100Y-53000
X183200Y-124550
X183375Y-128475
X183425Y-61325
X183775Y-64525
X183875Y-58275
X184000Y-131675
X184100Y-68350
X184300Y-128600
X184450Y-124550
X184525Y-61325
X184525Y-82000
X184700Y-64425
X184925Y-130950
X184950Y-129250
X185250Y-59400
X185350Y-62025
X185350Y-68350
X185350Y-133900
X185375Y-63800
X185550Y-60350
X185700Y-124550
X186125Y-133150
X186325Y-135425
X186400Y-136500
X186600Y-68350
X186756Y-109852
X187125Y-91875
X187500Y-142675
X187500Y-149050
X187500Y-150300
X187500Y-151550
X187525Y-135300
X187550Y-102750
X187575Y-96675
X187700Y-93000
X187700Y-95600
X187735Y-97775
X187850Y-98746
X187900Y-113550
X187980Y-109577
X188100Y-93900
X188219Y-126909
X188300Y-91950
X188350Y-134875
X188575Y-124325
X188750Y-128900
X188750Y-129850
X188750Y-130800
X188750Y-131750
X188750Y-147800
X188750Y-149050
X188750Y-150300
X188750Y-151550
X188800Y-95075
X189025Y-56150
X189110Y-109680
X189200Y-61250
X189200Y-62200
X189200Y-63150
X189200Y-64100
X189725Y-82000
X189750Y-128900
X189750Y-129850
X189750Y-130800
X189750Y-131750
X189750Y-131750
X189750Y-131750
X189800Y-51350
X189800Y-52800
X189900Y-70225
X190000Y-96100
X190100Y-56125
X190100Y-92400
X190140Y-71270
X190200Y-61250
X190200Y-62200
X190200Y-63150
X190200Y-64100
X190342Y-69326
X190429Y-126200
X190448Y-124237
X190475Y-123259
X190500Y-97000
X190575Y-68275
X190750Y-128900
X190750Y-129850
X190750Y-130800
X190750Y-131750
X190775Y-125200
X190850Y-136875
X191025Y-91700
X191150Y-101800
X191150Y-140200
X191150Y-141650
X191200Y-61250
X191200Y-61250
X191200Y-61250
X191200Y-62200
X191200Y-63150
X191200Y-64100
X191300Y-92975
X191373Y-97731
X191653Y-102645
X191750Y-128900
X191750Y-129850
X191750Y-130800
X191750Y-131750
X191925Y-136850
X192000Y-123500
X192200Y-41450
X192200Y-42700
X192200Y-43950
X192200Y-45200
X192200Y-61250
X192200Y-62200
X192200Y-63150
X192200Y-64100
X192475Y-68295
X192594Y-92603
X192600Y-58125
X192700Y-66250
X193375Y-98041
X193425Y-57700
X193450Y-41450
X193450Y-42700
X193450Y-43950
X193450Y-50300
X193550Y-93325
X194000Y-109500
X194000Y-113550
X194025Y-102000
X194300Y-91500
X194350Y-124624
X194362Y-85660
X194538Y-56445
X194650Y-57575
X194700Y-93100
X194825Y-59850
X195204Y-92094
X195250Y-68295
X195400Y-132650
X195425Y-85000
X195450Y-102020
X195575Y-129200
X195600Y-59100
X195600Y-124624
X195600Y-130975
X195700Y-133600
X195800Y-103100
X195900Y-97950
X196000Y-63750
X196025Y-62050
X196250Y-128575
X196425Y-131675
X196500Y-68295
X196625Y-100400
X196650Y-64400
X196850Y-124624
X196875Y-134725
X196950Y-61325
X197000Y-84600
X197050Y-102430
X197100Y-82050
X197175Y-128475
X197198Y-95863
X197200Y-83175
X197525Y-131675
X197575Y-64525
X197594Y-100269
X197750Y-68295
X197807Y-87900
X197830Y-86830
X197850Y-140000
X197850Y-141500
X198000Y-61325
X198050Y-103000
X198100Y-124624
X198200Y-134850
X198235Y-101882
X198350Y-47200
X198350Y-48450
X198350Y-49700
X198400Y-93900
X198450Y-41450
X198450Y-42700
X198450Y-43950
X199000Y-68295
X199000Y-87100
X199000Y-103400
X199099Y-95559
X199100Y-98029
X199556Y-94694
X199600Y-47200
X199600Y-48450
X199600Y-49700
X199700Y-41450
X199700Y-42700
X199700Y-43950
X200000Y-109550
X200000Y-113550
X200400Y-87300
X201300Y-149050
X201300Y-150300
X201300Y-151550
X201400Y-143300
X201400Y-144550
X201400Y-145800
X202000Y-124550
X202350Y-81150
X202550Y-149050
X202550Y-150300
X202550Y-151550
X202650Y-143300
X202650Y-144550
X202650Y-145800
X202750Y-58150
X202850Y-68295
X203000Y-131675
X203100Y-51500
X203100Y-53000
X203250Y-124550
X203425Y-61325
X203425Y-128475
X203775Y-64525
X203875Y-58275
X204050Y-131675
X204100Y-68295
X204350Y-128600
X204500Y-124550
X204525Y-61325
X204700Y-64425
X204975Y-130950
X205000Y-129250
X205250Y-59400
X205325Y-103675
X205350Y-62025
X205350Y-68295
X205375Y-63800
X205400Y-133900
X205550Y-60350
X205750Y-124550
X206175Y-133150
X206200Y-109500
X206200Y-113550
X206425Y-135500
X206451Y-136527
X206600Y-68295
X206750Y-99850
X207550Y-142700
X207550Y-149050
X207550Y-150300
X207550Y-151550
X207575Y-135300
X208212Y-126897
X208400Y-134875
X208496Y-124606
X208800Y-128900
X208800Y-129850
X208800Y-130800
X208800Y-131750
X208800Y-147800
X208800Y-149050
X208800Y-150300
X208800Y-151550
X208900Y-72600
X209025Y-56150
X209075Y-123475
X209200Y-61250
X209200Y-62200
X209200Y-63150
X209200Y-64100
X209415Y-101329
X209539Y-71370
X209600Y-83650
X209770Y-82380
X209800Y-51350
X209800Y-52800
X209800Y-128900
X209800Y-129850
X209800Y-130800
X209800Y-131750
X209800Y-131750
X209800Y-131750
X209900Y-89500
X210100Y-56125
X210175Y-90925
X210200Y-61250
X210200Y-62200
X210200Y-63150
X210200Y-64100
X210325Y-70650
X210363Y-69549
X210460Y-126416
X210475Y-125300
X210503Y-124175
X210525Y-123150
X210675Y-68575
X210707Y-99680
X210800Y-128900
X210800Y-129850
X210800Y-130800
X210800Y-131750
X210900Y-136875
X211073Y-72300
X211200Y-61250
X211200Y-61250
X211200Y-61250
X211200Y-62200
X211200Y-63150
X211200Y-64100
X211200Y-140200
X211200Y-141650
X211500Y-98455
X211675Y-95850
X211700Y-73500
X211800Y-128900
X211800Y-129850
X211800Y-130800
X211800Y-131750
X211975Y-136850
X212105Y-124195
X212200Y-41450
X212200Y-42700
X212200Y-43950
X212200Y-45200
X212200Y-61250
X212200Y-62200
X212200Y-63150
X212200Y-64100
X212300Y-113550
X212300Y-109500
X212550Y-68400
X212600Y-58125
X212700Y-66250
X213425Y-57700
X213450Y-41450
X213450Y-42700
X213450Y-43950
X213450Y-50300
X214525Y-93225
X214525Y-101800
X214550Y-56500
X214564Y-124822
X214675Y-57675
X214725Y-75250
X214825Y-59850
X215250Y-68450
X215450Y-132650
X215525Y-129250
X215525Y-129250
X215525Y-129250
X215600Y-59100
X215650Y-130975
X215750Y-133600
X216000Y-63750
X216025Y-62050
X216167Y-124600
X216300Y-128575
X216475Y-131675
X216500Y-68450
X216650Y-64400
X216950Y-61325
X217025Y-134975
X217200Y-123050
X217250Y-128400
X217300Y-108250
X217325Y-80225
X217400Y-107100
X217575Y-64525
X217575Y-131675
X217750Y-68450
X217900Y-140000
X217900Y-141500
X217933Y-124600
X218000Y-61325
X218050Y-104875
X218250Y-134850
X218350Y-47200
X218350Y-48450
X218350Y-49700
X218450Y-41450
X218450Y-42700
X218450Y-43950
X218500Y-80471
X218750Y-108975
X219000Y-68450
X219000Y-79575
X219233Y-103425
X219297Y-111700
X219600Y-47200
X219600Y-48450
X219600Y-49700
X219613Y-121063
X219700Y-41450
X219700Y-42700
X219700Y-43950
X220050Y-80125
X221309Y-114672
X222150Y-77150
X222899Y-42788
X222899Y-45214
X222899Y-146788
X222899Y-149214
X225000Y-41575
X225000Y-46427
X225000Y-145575
X225000Y-150427
X227101Y-42788
X227101Y-45214
X227101Y-146788
X227101Y-149214
T3
X144050Y-74410
X144050Y-76950
X146590Y-74410
X146590Y-76950
X149130Y-74410
X149130Y-76950
X224010Y-104000
X224010Y-106540
X224010Y-109080
X224010Y-111620
X224010Y-114160
X226550Y-104000
X226550Y-106540
X226550Y-109080
X226550Y-111620
X226550Y-114160
X223985Y-51900
X223985Y-54440
X223985Y-56980
X223985Y-59520
X226525Y-51900
X226525Y-54440
X226525Y-56980
X226525Y-59520
X224010Y-83000
X224010Y-85540
X224010Y-88080
X224010Y-90620
X224010Y-93160
X226550Y-83000
X226550Y-85540
X226550Y-88080
X226550Y-90620
X226550Y-93160
T4
X203340Y-116500
X205880Y-116500
X153532Y-76740
X156072Y-76740
X150810Y-116500
X153350Y-116500
X155890Y-116500
X159360Y-116500
X161900Y-116500
X164440Y-116500
X167910Y-116500
X170450Y-116500
X172990Y-116500
X191130Y-116500
X193670Y-116500
X171190Y-149500
X173730Y-149500
X176270Y-149500
X178810Y-149500
X191130Y-149500
X193670Y-149500
X196210Y-149500
X198750Y-149500
X197230Y-116500
X199770Y-116500
X182190Y-43500
X184730Y-43500
X187270Y-43500
X189810Y-43500
X225525Y-67570
X225525Y-70110
X225525Y-72650
X225525Y-75190
X182488Y-76740
X185028Y-76740
X185030Y-116500
X187570Y-116500
X211190Y-149500
X213730Y-149500
X216270Y-149500
X218810Y-149500
X142190Y-43500
X144730Y-43500
X147270Y-43500
X149810Y-43500
X209430Y-116500
X211970Y-116500
X164708Y-76740
X167248Y-76740
X151190Y-149500
X153730Y-149500
X156270Y-149500
X158810Y-149500
X162240Y-43500
X164780Y-43500
X167320Y-43500
X169860Y-43500
X142260Y-116500
X144800Y-116500
X147340Y-116500
X170296Y-76740
X172836Y-76740
X176460Y-116500
X179000Y-116500
X181540Y-116500
X175884Y-76740
X178424Y-76740
X202190Y-43500
X204730Y-43500
X207270Y-43500
X209810Y-43500
X159120Y-76740
X161660Y-76740
X188070Y-76740
X190610Y-76740
T5
X114580Y-139313
X114580Y-141853
X114580Y-131360
X114580Y-133900
X114580Y-147266
X114580Y-149806
T6
X133300Y-76769
X133300Y-90231
X136700Y-76769
X136700Y-90231
X133350Y-99694
X133350Y-113156
X136750Y-99694
X136750Y-113156
X133300Y-54038
X133300Y-67500
X136700Y-54038
X136700Y-67500
T7
X125500Y-55687
X125500Y-66812
X125500Y-77937
X125500Y-89063
X125500Y-100188
X125500Y-111313
T8
X224475Y-123525
X224475Y-127925
T9
X115000Y-44000
X225000Y-147975
X225000Y-44000
X115000Y-125000
T0
M30
