G04 #@! TF.GenerationSoftware,KiCad,Pcbnew,(5.1.5)-3*
G04 #@! TF.CreationDate,2020-04-08T23:05:28-04:00*
G04 #@! TF.ProjectId,Voron_Klipper_Board,566f726f-6e5f-44b6-9c69-707065725f42,A*
G04 #@! TF.SameCoordinates,Original*
G04 #@! TF.FileFunction,Paste,Top*
G04 #@! TF.FilePolarity,Positive*
%FSLAX46Y46*%
G04 Gerber Fmt 4.6, Leading zero omitted, Abs format (unit mm)*
G04 Created by KiCad (PCBNEW (5.1.5)-3) date 2020-04-08 23:05:28*
%MOMM*%
%LPD*%
G04 APERTURE LIST*
%ADD10C,0.100000*%
%ADD11C,0.150000*%
%ADD12C,0.300000*%
%ADD13C,0.400000*%
%ADD14C,0.050000*%
%ADD15R,0.800000X0.750000*%
%ADD16R,0.750000X0.800000*%
%ADD17R,2.500000X1.000000*%
%ADD18R,0.900000X1.700000*%
%ADD19R,0.500000X0.900000*%
%ADD20R,0.600000X0.450000*%
%ADD21R,0.700000X1.300000*%
%ADD22R,4.150000X3.650000*%
%ADD23R,0.800000X0.250000*%
%ADD24R,0.250000X0.800000*%
%ADD25R,2.400000X0.740000*%
%ADD26R,0.800000X0.900000*%
%ADD27R,1.100000X1.100000*%
%ADD28R,0.900000X0.500000*%
%ADD29R,3.429000X2.413000*%
%ADD30R,1.600000X3.500000*%
%ADD31R,0.900000X0.900000*%
%ADD32C,0.350000*%
%ADD33R,0.350000X0.825000*%
%ADD34R,0.825000X0.350000*%
%ADD35R,1.200000X1.200000*%
%ADD36R,1.300000X0.700000*%
%ADD37R,1.000000X1.250000*%
%ADD38R,1.500000X0.300000*%
%ADD39R,0.300000X1.500000*%
%ADD40R,1.700000X2.000000*%
%ADD41R,2.000000X0.500000*%
%ADD42R,0.600000X1.550000*%
%ADD43R,1.250000X1.000000*%
%ADD44R,1.060000X0.650000*%
%ADD45R,0.900000X0.800000*%
%ADD46R,0.490000X0.490000*%
%ADD47R,1.585000X1.570000*%
%ADD48R,1.235000X1.570000*%
%ADD49R,1.300000X1.550000*%
G04 APERTURE END LIST*
D10*
D11*
X177002200Y-166007200D02*
X177002200Y-198007200D01*
X285002200Y-198007200D01*
X285002200Y-166007200D01*
X177002200Y-166007200D01*
D10*
D11*
X10000000Y-10000000D02*
X10000000Y-200007200D01*
X287002200Y-200007200D01*
X287002200Y-10000000D01*
X10000000Y-10000000D01*
D10*
D11*
X12000000Y-12000000D02*
X12000000Y-198007200D01*
X285002200Y-198007200D01*
X285002200Y-12000000D01*
X12000000Y-12000000D01*
D10*
D11*
X60000000Y-12000000D02*
X60000000Y-10000000D01*
D10*
D11*
X110000000Y-12000000D02*
X110000000Y-10000000D01*
D10*
D11*
X160000000Y-12000000D02*
X160000000Y-10000000D01*
D10*
D11*
X210000000Y-12000000D02*
X210000000Y-10000000D01*
D10*
D11*
X260000000Y-12000000D02*
X260000000Y-10000000D01*
D10*
D11*
X36065476Y-11588095D02*
X35322619Y-11588095D01*
X35694047Y-11588095D02*
X35694047Y-10288095D01*
X35570238Y-10473809D01*
X35446428Y-10597619D01*
X35322619Y-10659523D01*
D10*
D11*
X85322619Y-10411904D02*
X85384523Y-10350000D01*
X85508333Y-10288095D01*
X85817857Y-10288095D01*
X85941666Y-10350000D01*
X86003571Y-10411904D01*
X86065476Y-10535714D01*
X86065476Y-10659523D01*
X86003571Y-10845238D01*
X85260714Y-11588095D01*
X86065476Y-11588095D01*
D10*
D11*
X135260714Y-10288095D02*
X136065476Y-10288095D01*
X135632142Y-10783333D01*
X135817857Y-10783333D01*
X135941666Y-10845238D01*
X136003571Y-10907142D01*
X136065476Y-11030952D01*
X136065476Y-11340476D01*
X136003571Y-11464285D01*
X135941666Y-11526190D01*
X135817857Y-11588095D01*
X135446428Y-11588095D01*
X135322619Y-11526190D01*
X135260714Y-11464285D01*
D10*
D11*
X185941666Y-10721428D02*
X185941666Y-11588095D01*
X185632142Y-10226190D02*
X185322619Y-11154761D01*
X186127380Y-11154761D01*
D10*
D11*
X236003571Y-10288095D02*
X235384523Y-10288095D01*
X235322619Y-10907142D01*
X235384523Y-10845238D01*
X235508333Y-10783333D01*
X235817857Y-10783333D01*
X235941666Y-10845238D01*
X236003571Y-10907142D01*
X236065476Y-11030952D01*
X236065476Y-11340476D01*
X236003571Y-11464285D01*
X235941666Y-11526190D01*
X235817857Y-11588095D01*
X235508333Y-11588095D01*
X235384523Y-11526190D01*
X235322619Y-11464285D01*
D10*
D11*
X285941666Y-10288095D02*
X285694047Y-10288095D01*
X285570238Y-10350000D01*
X285508333Y-10411904D01*
X285384523Y-10597619D01*
X285322619Y-10845238D01*
X285322619Y-11340476D01*
X285384523Y-11464285D01*
X285446428Y-11526190D01*
X285570238Y-11588095D01*
X285817857Y-11588095D01*
X285941666Y-11526190D01*
X286003571Y-11464285D01*
X286065476Y-11340476D01*
X286065476Y-11030952D01*
X286003571Y-10907142D01*
X285941666Y-10845238D01*
X285817857Y-10783333D01*
X285570238Y-10783333D01*
X285446428Y-10845238D01*
X285384523Y-10907142D01*
X285322619Y-11030952D01*
D10*
D11*
X60000000Y-198007200D02*
X60000000Y-200007200D01*
D10*
D11*
X110000000Y-198007200D02*
X110000000Y-200007200D01*
D10*
D11*
X160000000Y-198007200D02*
X160000000Y-200007200D01*
D10*
D11*
X210000000Y-198007200D02*
X210000000Y-200007200D01*
D10*
D11*
X260000000Y-198007200D02*
X260000000Y-200007200D01*
D10*
D11*
X36065476Y-199595295D02*
X35322619Y-199595295D01*
X35694047Y-199595295D02*
X35694047Y-198295295D01*
X35570238Y-198481009D01*
X35446428Y-198604819D01*
X35322619Y-198666723D01*
D10*
D11*
X85322619Y-198419104D02*
X85384523Y-198357200D01*
X85508333Y-198295295D01*
X85817857Y-198295295D01*
X85941666Y-198357200D01*
X86003571Y-198419104D01*
X86065476Y-198542914D01*
X86065476Y-198666723D01*
X86003571Y-198852438D01*
X85260714Y-199595295D01*
X86065476Y-199595295D01*
D10*
D11*
X135260714Y-198295295D02*
X136065476Y-198295295D01*
X135632142Y-198790533D01*
X135817857Y-198790533D01*
X135941666Y-198852438D01*
X136003571Y-198914342D01*
X136065476Y-199038152D01*
X136065476Y-199347676D01*
X136003571Y-199471485D01*
X135941666Y-199533390D01*
X135817857Y-199595295D01*
X135446428Y-199595295D01*
X135322619Y-199533390D01*
X135260714Y-199471485D01*
D10*
D11*
X185941666Y-198728628D02*
X185941666Y-199595295D01*
X185632142Y-198233390D02*
X185322619Y-199161961D01*
X186127380Y-199161961D01*
D10*
D11*
X236003571Y-198295295D02*
X235384523Y-198295295D01*
X235322619Y-198914342D01*
X235384523Y-198852438D01*
X235508333Y-198790533D01*
X235817857Y-198790533D01*
X235941666Y-198852438D01*
X236003571Y-198914342D01*
X236065476Y-199038152D01*
X236065476Y-199347676D01*
X236003571Y-199471485D01*
X235941666Y-199533390D01*
X235817857Y-199595295D01*
X235508333Y-199595295D01*
X235384523Y-199533390D01*
X235322619Y-199471485D01*
D10*
D11*
X285941666Y-198295295D02*
X285694047Y-198295295D01*
X285570238Y-198357200D01*
X285508333Y-198419104D01*
X285384523Y-198604819D01*
X285322619Y-198852438D01*
X285322619Y-199347676D01*
X285384523Y-199471485D01*
X285446428Y-199533390D01*
X285570238Y-199595295D01*
X285817857Y-199595295D01*
X285941666Y-199533390D01*
X286003571Y-199471485D01*
X286065476Y-199347676D01*
X286065476Y-199038152D01*
X286003571Y-198914342D01*
X285941666Y-198852438D01*
X285817857Y-198790533D01*
X285570238Y-198790533D01*
X285446428Y-198852438D01*
X285384523Y-198914342D01*
X285322619Y-199038152D01*
D10*
D11*
X10000000Y-60000000D02*
X12000000Y-60000000D01*
D10*
D11*
X10000000Y-110000000D02*
X12000000Y-110000000D01*
D10*
D11*
X10000000Y-160000000D02*
X12000000Y-160000000D01*
D10*
D11*
X10690476Y-35216666D02*
X11309523Y-35216666D01*
X10566666Y-35588095D02*
X11000000Y-34288095D01*
X11433333Y-35588095D01*
D10*
D11*
X11092857Y-84907142D02*
X11278571Y-84969047D01*
X11340476Y-85030952D01*
X11402380Y-85154761D01*
X11402380Y-85340476D01*
X11340476Y-85464285D01*
X11278571Y-85526190D01*
X11154761Y-85588095D01*
X10659523Y-85588095D01*
X10659523Y-84288095D01*
X11092857Y-84288095D01*
X11216666Y-84350000D01*
X11278571Y-84411904D01*
X11340476Y-84535714D01*
X11340476Y-84659523D01*
X11278571Y-84783333D01*
X11216666Y-84845238D01*
X11092857Y-84907142D01*
X10659523Y-84907142D01*
D10*
D11*
X11402380Y-135464285D02*
X11340476Y-135526190D01*
X11154761Y-135588095D01*
X11030952Y-135588095D01*
X10845238Y-135526190D01*
X10721428Y-135402380D01*
X10659523Y-135278571D01*
X10597619Y-135030952D01*
X10597619Y-134845238D01*
X10659523Y-134597619D01*
X10721428Y-134473809D01*
X10845238Y-134350000D01*
X11030952Y-134288095D01*
X11154761Y-134288095D01*
X11340476Y-134350000D01*
X11402380Y-134411904D01*
D10*
D11*
X10659523Y-185588095D02*
X10659523Y-184288095D01*
X10969047Y-184288095D01*
X11154761Y-184350000D01*
X11278571Y-184473809D01*
X11340476Y-184597619D01*
X11402380Y-184845238D01*
X11402380Y-185030952D01*
X11340476Y-185278571D01*
X11278571Y-185402380D01*
X11154761Y-185526190D01*
X10969047Y-185588095D01*
X10659523Y-185588095D01*
D10*
D11*
X287002200Y-60000000D02*
X285002200Y-60000000D01*
D10*
D11*
X287002200Y-110000000D02*
X285002200Y-110000000D01*
D10*
D11*
X287002200Y-160000000D02*
X285002200Y-160000000D01*
D10*
D11*
X285692676Y-35216666D02*
X286311723Y-35216666D01*
X285568866Y-35588095D02*
X286002200Y-34288095D01*
X286435533Y-35588095D01*
D10*
D11*
X286095057Y-84907142D02*
X286280771Y-84969047D01*
X286342676Y-85030952D01*
X286404580Y-85154761D01*
X286404580Y-85340476D01*
X286342676Y-85464285D01*
X286280771Y-85526190D01*
X286156961Y-85588095D01*
X285661723Y-85588095D01*
X285661723Y-84288095D01*
X286095057Y-84288095D01*
X286218866Y-84350000D01*
X286280771Y-84411904D01*
X286342676Y-84535714D01*
X286342676Y-84659523D01*
X286280771Y-84783333D01*
X286218866Y-84845238D01*
X286095057Y-84907142D01*
X285661723Y-84907142D01*
D10*
D11*
X286404580Y-135464285D02*
X286342676Y-135526190D01*
X286156961Y-135588095D01*
X286033152Y-135588095D01*
X285847438Y-135526190D01*
X285723628Y-135402380D01*
X285661723Y-135278571D01*
X285599819Y-135030952D01*
X285599819Y-134845238D01*
X285661723Y-134597619D01*
X285723628Y-134473809D01*
X285847438Y-134350000D01*
X286033152Y-134288095D01*
X286156961Y-134288095D01*
X286342676Y-134350000D01*
X286404580Y-134411904D01*
D10*
D11*
X285661723Y-185588095D02*
X285661723Y-184288095D01*
X285971247Y-184288095D01*
X286156961Y-184350000D01*
X286280771Y-184473809D01*
X286342676Y-184597619D01*
X286404580Y-184845238D01*
X286404580Y-185030952D01*
X286342676Y-185278571D01*
X286280771Y-185402380D01*
X286156961Y-185526190D01*
X285971247Y-185588095D01*
X285661723Y-185588095D01*
D10*
D11*
X200434342Y-193785771D02*
X200434342Y-192285771D01*
X200791485Y-192285771D01*
X201005771Y-192357200D01*
X201148628Y-192500057D01*
X201220057Y-192642914D01*
X201291485Y-192928628D01*
X201291485Y-193142914D01*
X201220057Y-193428628D01*
X201148628Y-193571485D01*
X201005771Y-193714342D01*
X200791485Y-193785771D01*
X200434342Y-193785771D01*
X202577200Y-193785771D02*
X202577200Y-193000057D01*
X202505771Y-192857200D01*
X202362914Y-192785771D01*
X202077200Y-192785771D01*
X201934342Y-192857200D01*
X202577200Y-193714342D02*
X202434342Y-193785771D01*
X202077200Y-193785771D01*
X201934342Y-193714342D01*
X201862914Y-193571485D01*
X201862914Y-193428628D01*
X201934342Y-193285771D01*
X202077200Y-193214342D01*
X202434342Y-193214342D01*
X202577200Y-193142914D01*
X203077200Y-192785771D02*
X203648628Y-192785771D01*
X203291485Y-192285771D02*
X203291485Y-193571485D01*
X203362914Y-193714342D01*
X203505771Y-193785771D01*
X203648628Y-193785771D01*
X204720057Y-193714342D02*
X204577200Y-193785771D01*
X204291485Y-193785771D01*
X204148628Y-193714342D01*
X204077200Y-193571485D01*
X204077200Y-193000057D01*
X204148628Y-192857200D01*
X204291485Y-192785771D01*
X204577200Y-192785771D01*
X204720057Y-192857200D01*
X204791485Y-193000057D01*
X204791485Y-193142914D01*
X204077200Y-193285771D01*
X205434342Y-193642914D02*
X205505771Y-193714342D01*
X205434342Y-193785771D01*
X205362914Y-193714342D01*
X205434342Y-193642914D01*
X205434342Y-193785771D01*
X205434342Y-192857200D02*
X205505771Y-192928628D01*
X205434342Y-193000057D01*
X205362914Y-192928628D01*
X205434342Y-192857200D01*
X205434342Y-193000057D01*
X207220057Y-192428628D02*
X207291485Y-192357200D01*
X207434342Y-192285771D01*
X207791485Y-192285771D01*
X207934342Y-192357200D01*
X208005771Y-192428628D01*
X208077200Y-192571485D01*
X208077200Y-192714342D01*
X208005771Y-192928628D01*
X207148628Y-193785771D01*
X208077200Y-193785771D01*
X209005771Y-192285771D02*
X209148628Y-192285771D01*
X209291485Y-192357200D01*
X209362914Y-192428628D01*
X209434342Y-192571485D01*
X209505771Y-192857200D01*
X209505771Y-193214342D01*
X209434342Y-193500057D01*
X209362914Y-193642914D01*
X209291485Y-193714342D01*
X209148628Y-193785771D01*
X209005771Y-193785771D01*
X208862914Y-193714342D01*
X208791485Y-193642914D01*
X208720057Y-193500057D01*
X208648628Y-193214342D01*
X208648628Y-192857200D01*
X208720057Y-192571485D01*
X208791485Y-192428628D01*
X208862914Y-192357200D01*
X209005771Y-192285771D01*
X210934342Y-193785771D02*
X210077200Y-193785771D01*
X210505771Y-193785771D02*
X210505771Y-192285771D01*
X210362914Y-192500057D01*
X210220057Y-192642914D01*
X210077200Y-192714342D01*
X211791485Y-192928628D02*
X211648628Y-192857200D01*
X211577200Y-192785771D01*
X211505771Y-192642914D01*
X211505771Y-192571485D01*
X211577200Y-192428628D01*
X211648628Y-192357200D01*
X211791485Y-192285771D01*
X212077200Y-192285771D01*
X212220057Y-192357200D01*
X212291485Y-192428628D01*
X212362914Y-192571485D01*
X212362914Y-192642914D01*
X212291485Y-192785771D01*
X212220057Y-192857200D01*
X212077200Y-192928628D01*
X211791485Y-192928628D01*
X211648628Y-193000057D01*
X211577200Y-193071485D01*
X211505771Y-193214342D01*
X211505771Y-193500057D01*
X211577200Y-193642914D01*
X211648628Y-193714342D01*
X211791485Y-193785771D01*
X212077200Y-193785771D01*
X212220057Y-193714342D01*
X212291485Y-193642914D01*
X212362914Y-193500057D01*
X212362914Y-193214342D01*
X212291485Y-193071485D01*
X212220057Y-193000057D01*
X212077200Y-192928628D01*
X213005771Y-193214342D02*
X214148628Y-193214342D01*
X215648628Y-193785771D02*
X214791485Y-193785771D01*
X215220057Y-193785771D02*
X215220057Y-192285771D01*
X215077200Y-192500057D01*
X214934342Y-192642914D01*
X214791485Y-192714342D01*
X216577200Y-192285771D02*
X216720057Y-192285771D01*
X216862914Y-192357200D01*
X216934342Y-192428628D01*
X217005771Y-192571485D01*
X217077200Y-192857200D01*
X217077200Y-193214342D01*
X217005771Y-193500057D01*
X216934342Y-193642914D01*
X216862914Y-193714342D01*
X216720057Y-193785771D01*
X216577200Y-193785771D01*
X216434342Y-193714342D01*
X216362914Y-193642914D01*
X216291485Y-193500057D01*
X216220057Y-193214342D01*
X216220057Y-192857200D01*
X216291485Y-192571485D01*
X216362914Y-192428628D01*
X216434342Y-192357200D01*
X216577200Y-192285771D01*
X217720057Y-193214342D02*
X218862914Y-193214342D01*
X219505771Y-192428628D02*
X219577200Y-192357200D01*
X219720057Y-192285771D01*
X220077200Y-192285771D01*
X220220057Y-192357200D01*
X220291485Y-192428628D01*
X220362914Y-192571485D01*
X220362914Y-192714342D01*
X220291485Y-192928628D01*
X219434342Y-193785771D01*
X220362914Y-193785771D01*
X221791485Y-193785771D02*
X220934342Y-193785771D01*
X221362914Y-193785771D02*
X221362914Y-192285771D01*
X221220057Y-192500057D01*
X221077200Y-192642914D01*
X220934342Y-192714342D01*
D10*
D11*
X177002200Y-194507200D02*
X285002200Y-194507200D01*
D10*
D11*
X178434342Y-196585771D02*
X178434342Y-195085771D01*
X179291485Y-196585771D02*
X178648628Y-195728628D01*
X179291485Y-195085771D02*
X178434342Y-195942914D01*
X179934342Y-196585771D02*
X179934342Y-195585771D01*
X179934342Y-195085771D02*
X179862914Y-195157200D01*
X179934342Y-195228628D01*
X180005771Y-195157200D01*
X179934342Y-195085771D01*
X179934342Y-195228628D01*
X181505771Y-196442914D02*
X181434342Y-196514342D01*
X181220057Y-196585771D01*
X181077200Y-196585771D01*
X180862914Y-196514342D01*
X180720057Y-196371485D01*
X180648628Y-196228628D01*
X180577200Y-195942914D01*
X180577200Y-195728628D01*
X180648628Y-195442914D01*
X180720057Y-195300057D01*
X180862914Y-195157200D01*
X181077200Y-195085771D01*
X181220057Y-195085771D01*
X181434342Y-195157200D01*
X181505771Y-195228628D01*
X182791485Y-196585771D02*
X182791485Y-195800057D01*
X182720057Y-195657200D01*
X182577200Y-195585771D01*
X182291485Y-195585771D01*
X182148628Y-195657200D01*
X182791485Y-196514342D02*
X182648628Y-196585771D01*
X182291485Y-196585771D01*
X182148628Y-196514342D01*
X182077200Y-196371485D01*
X182077200Y-196228628D01*
X182148628Y-196085771D01*
X182291485Y-196014342D01*
X182648628Y-196014342D01*
X182791485Y-195942914D01*
X184148628Y-196585771D02*
X184148628Y-195085771D01*
X184148628Y-196514342D02*
X184005771Y-196585771D01*
X183720057Y-196585771D01*
X183577200Y-196514342D01*
X183505771Y-196442914D01*
X183434342Y-196300057D01*
X183434342Y-195871485D01*
X183505771Y-195728628D01*
X183577200Y-195657200D01*
X183720057Y-195585771D01*
X184005771Y-195585771D01*
X184148628Y-195657200D01*
X186005771Y-195800057D02*
X186505771Y-195800057D01*
X186720057Y-196585771D02*
X186005771Y-196585771D01*
X186005771Y-195085771D01*
X186720057Y-195085771D01*
X187362914Y-196442914D02*
X187434342Y-196514342D01*
X187362914Y-196585771D01*
X187291485Y-196514342D01*
X187362914Y-196442914D01*
X187362914Y-196585771D01*
X188077200Y-196585771D02*
X188077200Y-195085771D01*
X188434342Y-195085771D01*
X188648628Y-195157200D01*
X188791485Y-195300057D01*
X188862914Y-195442914D01*
X188934342Y-195728628D01*
X188934342Y-195942914D01*
X188862914Y-196228628D01*
X188791485Y-196371485D01*
X188648628Y-196514342D01*
X188434342Y-196585771D01*
X188077200Y-196585771D01*
X189577200Y-196442914D02*
X189648628Y-196514342D01*
X189577200Y-196585771D01*
X189505771Y-196514342D01*
X189577200Y-196442914D01*
X189577200Y-196585771D01*
X190220057Y-196157200D02*
X190934342Y-196157200D01*
X190077200Y-196585771D02*
X190577200Y-195085771D01*
X191077200Y-196585771D01*
X191577200Y-196442914D02*
X191648628Y-196514342D01*
X191577200Y-196585771D01*
X191505771Y-196514342D01*
X191577200Y-196442914D01*
X191577200Y-196585771D01*
X194577200Y-196585771D02*
X194577200Y-195085771D01*
X194720057Y-196014342D02*
X195148628Y-196585771D01*
X195148628Y-195585771D02*
X194577200Y-196157200D01*
X195791485Y-196585771D02*
X195791485Y-195585771D01*
X195791485Y-195085771D02*
X195720057Y-195157200D01*
X195791485Y-195228628D01*
X195862914Y-195157200D01*
X195791485Y-195085771D01*
X195791485Y-195228628D01*
X197148628Y-196514342D02*
X197005771Y-196585771D01*
X196720057Y-196585771D01*
X196577200Y-196514342D01*
X196505771Y-196442914D01*
X196434342Y-196300057D01*
X196434342Y-195871485D01*
X196505771Y-195728628D01*
X196577200Y-195657200D01*
X196720057Y-195585771D01*
X197005771Y-195585771D01*
X197148628Y-195657200D01*
X198434342Y-196585771D02*
X198434342Y-195800057D01*
X198362914Y-195657200D01*
X198220057Y-195585771D01*
X197934342Y-195585771D01*
X197791485Y-195657200D01*
X198434342Y-196514342D02*
X198291485Y-196585771D01*
X197934342Y-196585771D01*
X197791485Y-196514342D01*
X197720057Y-196371485D01*
X197720057Y-196228628D01*
X197791485Y-196085771D01*
X197934342Y-196014342D01*
X198291485Y-196014342D01*
X198434342Y-195942914D01*
X199791485Y-196585771D02*
X199791485Y-195085771D01*
X199791485Y-196514342D02*
X199648628Y-196585771D01*
X199362914Y-196585771D01*
X199220057Y-196514342D01*
X199148628Y-196442914D01*
X199077200Y-196300057D01*
X199077200Y-195871485D01*
X199148628Y-195728628D01*
X199220057Y-195657200D01*
X199362914Y-195585771D01*
X199648628Y-195585771D01*
X199791485Y-195657200D01*
X202077200Y-197157200D02*
X202005771Y-197085771D01*
X201862914Y-196871485D01*
X201791485Y-196728628D01*
X201720057Y-196514342D01*
X201648628Y-196157200D01*
X201648628Y-195871485D01*
X201720057Y-195514342D01*
X201791485Y-195300057D01*
X201862914Y-195157200D01*
X202005771Y-194942914D01*
X202077200Y-194871485D01*
X203362914Y-195085771D02*
X202648628Y-195085771D01*
X202577200Y-195800057D01*
X202648628Y-195728628D01*
X202791485Y-195657200D01*
X203148628Y-195657200D01*
X203291485Y-195728628D01*
X203362914Y-195800057D01*
X203434342Y-195942914D01*
X203434342Y-196300057D01*
X203362914Y-196442914D01*
X203291485Y-196514342D01*
X203148628Y-196585771D01*
X202791485Y-196585771D01*
X202648628Y-196514342D01*
X202577200Y-196442914D01*
X204077200Y-196442914D02*
X204148628Y-196514342D01*
X204077200Y-196585771D01*
X204005771Y-196514342D01*
X204077200Y-196442914D01*
X204077200Y-196585771D01*
X205577200Y-196585771D02*
X204720057Y-196585771D01*
X205148628Y-196585771D02*
X205148628Y-195085771D01*
X205005771Y-195300057D01*
X204862914Y-195442914D01*
X204720057Y-195514342D01*
X206220057Y-196442914D02*
X206291485Y-196514342D01*
X206220057Y-196585771D01*
X206148628Y-196514342D01*
X206220057Y-196442914D01*
X206220057Y-196585771D01*
X207648628Y-195085771D02*
X206934342Y-195085771D01*
X206862914Y-195800057D01*
X206934342Y-195728628D01*
X207077200Y-195657200D01*
X207434342Y-195657200D01*
X207577200Y-195728628D01*
X207648628Y-195800057D01*
X207720057Y-195942914D01*
X207720057Y-196300057D01*
X207648628Y-196442914D01*
X207577200Y-196514342D01*
X207434342Y-196585771D01*
X207077200Y-196585771D01*
X206934342Y-196514342D01*
X206862914Y-196442914D01*
X208220057Y-197157200D02*
X208291485Y-197085771D01*
X208434342Y-196871485D01*
X208505771Y-196728628D01*
X208577200Y-196514342D01*
X208648628Y-196157200D01*
X208648628Y-195871485D01*
X208577200Y-195514342D01*
X208505771Y-195300057D01*
X208434342Y-195157200D01*
X208291485Y-194942914D01*
X208220057Y-194871485D01*
X209362914Y-196014342D02*
X210505771Y-196014342D01*
X211077200Y-195085771D02*
X212005771Y-195085771D01*
X211505771Y-195657200D01*
X211720057Y-195657200D01*
X211862914Y-195728628D01*
X211934342Y-195800057D01*
X212005771Y-195942914D01*
X212005771Y-196300057D01*
X211934342Y-196442914D01*
X211862914Y-196514342D01*
X211720057Y-196585771D01*
X211291485Y-196585771D01*
X211148628Y-196514342D01*
X211077200Y-196442914D01*
D10*
D11*
X177002200Y-191507200D02*
X285002200Y-191507200D01*
D10*
D12*
X264411485Y-193785771D02*
X263911485Y-193071485D01*
X263554342Y-193785771D02*
X263554342Y-192285771D01*
X264125771Y-192285771D01*
X264268628Y-192357200D01*
X264340057Y-192428628D01*
X264411485Y-192571485D01*
X264411485Y-192785771D01*
X264340057Y-192928628D01*
X264268628Y-193000057D01*
X264125771Y-193071485D01*
X263554342Y-193071485D01*
X265625771Y-193714342D02*
X265482914Y-193785771D01*
X265197200Y-193785771D01*
X265054342Y-193714342D01*
X264982914Y-193571485D01*
X264982914Y-193000057D01*
X265054342Y-192857200D01*
X265197200Y-192785771D01*
X265482914Y-192785771D01*
X265625771Y-192857200D01*
X265697200Y-193000057D01*
X265697200Y-193142914D01*
X264982914Y-193285771D01*
X266197200Y-192785771D02*
X266554342Y-193785771D01*
X266911485Y-192785771D01*
X267482914Y-193642914D02*
X267554342Y-193714342D01*
X267482914Y-193785771D01*
X267411485Y-193714342D01*
X267482914Y-193642914D01*
X267482914Y-193785771D01*
X267482914Y-192857200D02*
X267554342Y-192928628D01*
X267482914Y-193000057D01*
X267411485Y-192928628D01*
X267482914Y-192857200D01*
X267482914Y-193000057D01*
X269268628Y-193357200D02*
X269982914Y-193357200D01*
X269125771Y-193785771D02*
X269625771Y-192285771D01*
X270125771Y-193785771D01*
D10*
D11*
X178362914Y-193714342D02*
X178577200Y-193785771D01*
X178934342Y-193785771D01*
X179077200Y-193714342D01*
X179148628Y-193642914D01*
X179220057Y-193500057D01*
X179220057Y-193357200D01*
X179148628Y-193214342D01*
X179077200Y-193142914D01*
X178934342Y-193071485D01*
X178648628Y-193000057D01*
X178505771Y-192928628D01*
X178434342Y-192857200D01*
X178362914Y-192714342D01*
X178362914Y-192571485D01*
X178434342Y-192428628D01*
X178505771Y-192357200D01*
X178648628Y-192285771D01*
X179005771Y-192285771D01*
X179220057Y-192357200D01*
X179862914Y-193785771D02*
X179862914Y-192785771D01*
X179862914Y-192285771D02*
X179791485Y-192357200D01*
X179862914Y-192428628D01*
X179934342Y-192357200D01*
X179862914Y-192285771D01*
X179862914Y-192428628D01*
X180434342Y-192785771D02*
X181220057Y-192785771D01*
X180434342Y-193785771D01*
X181220057Y-193785771D01*
X182362914Y-193714342D02*
X182220057Y-193785771D01*
X181934342Y-193785771D01*
X181791485Y-193714342D01*
X181720057Y-193571485D01*
X181720057Y-193000057D01*
X181791485Y-192857200D01*
X181934342Y-192785771D01*
X182220057Y-192785771D01*
X182362914Y-192857200D01*
X182434342Y-193000057D01*
X182434342Y-193142914D01*
X181720057Y-193285771D01*
X183077200Y-193642914D02*
X183148628Y-193714342D01*
X183077200Y-193785771D01*
X183005771Y-193714342D01*
X183077200Y-193642914D01*
X183077200Y-193785771D01*
X183077200Y-192857200D02*
X183148628Y-192928628D01*
X183077200Y-193000057D01*
X183005771Y-192928628D01*
X183077200Y-192857200D01*
X183077200Y-193000057D01*
X184862914Y-193357200D02*
X185577200Y-193357200D01*
X184720057Y-193785771D02*
X185220057Y-192285771D01*
X185720057Y-193785771D01*
X186862914Y-192785771D02*
X186862914Y-193785771D01*
X186505771Y-192214342D02*
X186148628Y-193285771D01*
X187077200Y-193285771D01*
D10*
D11*
X263434342Y-196585771D02*
X263434342Y-195085771D01*
X264791485Y-196585771D02*
X264791485Y-195085771D01*
X264791485Y-196514342D02*
X264648628Y-196585771D01*
X264362914Y-196585771D01*
X264220057Y-196514342D01*
X264148628Y-196442914D01*
X264077200Y-196300057D01*
X264077200Y-195871485D01*
X264148628Y-195728628D01*
X264220057Y-195657200D01*
X264362914Y-195585771D01*
X264648628Y-195585771D01*
X264791485Y-195657200D01*
X265505771Y-196442914D02*
X265577200Y-196514342D01*
X265505771Y-196585771D01*
X265434342Y-196514342D01*
X265505771Y-196442914D01*
X265505771Y-196585771D01*
X265505771Y-195657200D02*
X265577200Y-195728628D01*
X265505771Y-195800057D01*
X265434342Y-195728628D01*
X265505771Y-195657200D01*
X265505771Y-195800057D01*
X268148628Y-196585771D02*
X267291485Y-196585771D01*
X267720057Y-196585771D02*
X267720057Y-195085771D01*
X267577200Y-195300057D01*
X267434342Y-195442914D01*
X267291485Y-195514342D01*
X269862914Y-195014342D02*
X268577200Y-196942914D01*
X271148628Y-196585771D02*
X270291485Y-196585771D01*
X270720057Y-196585771D02*
X270720057Y-195085771D01*
X270577200Y-195300057D01*
X270434342Y-195442914D01*
X270291485Y-195514342D01*
D10*
D11*
X177002200Y-187507200D02*
X285002200Y-187507200D01*
D10*
D13*
X178714580Y-188211961D02*
X179857438Y-188211961D01*
X179036009Y-190211961D02*
X179286009Y-188211961D01*
X180274104Y-190211961D02*
X180440771Y-188878628D01*
X180524104Y-188211961D02*
X180416961Y-188307200D01*
X180500295Y-188402438D01*
X180607438Y-188307200D01*
X180524104Y-188211961D01*
X180500295Y-188402438D01*
X181107438Y-188878628D02*
X181869342Y-188878628D01*
X181476485Y-188211961D02*
X181262200Y-189926247D01*
X181333628Y-190116723D01*
X181512200Y-190211961D01*
X181702676Y-190211961D01*
X182655057Y-190211961D02*
X182476485Y-190116723D01*
X182405057Y-189926247D01*
X182619342Y-188211961D01*
X184190771Y-190116723D02*
X183988390Y-190211961D01*
X183607438Y-190211961D01*
X183428866Y-190116723D01*
X183357438Y-189926247D01*
X183452676Y-189164342D01*
X183571723Y-188973866D01*
X183774104Y-188878628D01*
X184155057Y-188878628D01*
X184333628Y-188973866D01*
X184405057Y-189164342D01*
X184381247Y-189354819D01*
X183405057Y-189545295D01*
X185155057Y-190021485D02*
X185238390Y-190116723D01*
X185131247Y-190211961D01*
X185047914Y-190116723D01*
X185155057Y-190021485D01*
X185131247Y-190211961D01*
X185286009Y-188973866D02*
X185369342Y-189069104D01*
X185262200Y-189164342D01*
X185178866Y-189069104D01*
X185286009Y-188973866D01*
X185262200Y-189164342D01*
X187571723Y-188211961D02*
X188714580Y-188211961D01*
X187893152Y-190211961D02*
X188143152Y-188211961D01*
X189988390Y-190211961D02*
X190119342Y-189164342D01*
X190047914Y-188973866D01*
X189869342Y-188878628D01*
X189488390Y-188878628D01*
X189286009Y-188973866D01*
X190000295Y-190116723D02*
X189797914Y-190211961D01*
X189321723Y-190211961D01*
X189143152Y-190116723D01*
X189071723Y-189926247D01*
X189095533Y-189735771D01*
X189214580Y-189545295D01*
X189416961Y-189450057D01*
X189893152Y-189450057D01*
X190095533Y-189354819D01*
X191809819Y-190116723D02*
X191607438Y-190211961D01*
X191226485Y-190211961D01*
X191047914Y-190116723D01*
X190964580Y-190021485D01*
X190893152Y-189831009D01*
X190964580Y-189259580D01*
X191083628Y-189069104D01*
X191190771Y-188973866D01*
X191393152Y-188878628D01*
X191774104Y-188878628D01*
X191952676Y-188973866D01*
X192940771Y-190211961D02*
X192762200Y-190116723D01*
X192678866Y-190021485D01*
X192607438Y-189831009D01*
X192678866Y-189259580D01*
X192797914Y-189069104D01*
X192905057Y-188973866D01*
X193107438Y-188878628D01*
X193393152Y-188878628D01*
X193571723Y-188973866D01*
X193655057Y-189069104D01*
X193726485Y-189259580D01*
X193655057Y-189831009D01*
X193536009Y-190021485D01*
X193428866Y-190116723D01*
X193226485Y-190211961D01*
X192940771Y-190211961D01*
X197131247Y-190211961D02*
X196583628Y-189259580D01*
X195988390Y-190211961D02*
X196238390Y-188211961D01*
X197000295Y-188211961D01*
X197178866Y-188307200D01*
X197262200Y-188402438D01*
X197333628Y-188592914D01*
X197297914Y-188878628D01*
X197178866Y-189069104D01*
X197071723Y-189164342D01*
X196869342Y-189259580D01*
X196107438Y-189259580D01*
X198845533Y-190211961D02*
X198976485Y-189164342D01*
X198905057Y-188973866D01*
X198726485Y-188878628D01*
X198345533Y-188878628D01*
X198143152Y-188973866D01*
X198857438Y-190116723D02*
X198655057Y-190211961D01*
X198178866Y-190211961D01*
X198000295Y-190116723D01*
X197928866Y-189926247D01*
X197952676Y-189735771D01*
X198071723Y-189545295D01*
X198274104Y-189450057D01*
X198750295Y-189450057D01*
X198952676Y-189354819D01*
X199774104Y-188878628D02*
X200083628Y-190211961D01*
X200726485Y-188878628D01*
X202095533Y-190116723D02*
X201893152Y-190211961D01*
X201512200Y-190211961D01*
X201333628Y-190116723D01*
X201262200Y-189926247D01*
X201357438Y-189164342D01*
X201476485Y-188973866D01*
X201678866Y-188878628D01*
X202059819Y-188878628D01*
X202238390Y-188973866D01*
X202309819Y-189164342D01*
X202286009Y-189354819D01*
X201309819Y-189545295D01*
X203202676Y-188878628D02*
X203036009Y-190211961D01*
X203178866Y-189069104D02*
X203286009Y-188973866D01*
X203488390Y-188878628D01*
X203774104Y-188878628D01*
X203952676Y-188973866D01*
X204024104Y-189164342D01*
X203893152Y-190211961D01*
D10*
D11*
X178934342Y-185600057D02*
X178434342Y-185600057D01*
X178434342Y-186385771D02*
X178434342Y-184885771D01*
X179148628Y-184885771D01*
X179720057Y-186385771D02*
X179720057Y-185385771D01*
X179720057Y-184885771D02*
X179648628Y-184957200D01*
X179720057Y-185028628D01*
X179791485Y-184957200D01*
X179720057Y-184885771D01*
X179720057Y-185028628D01*
X180648628Y-186385771D02*
X180505771Y-186314342D01*
X180434342Y-186171485D01*
X180434342Y-184885771D01*
X181791485Y-186314342D02*
X181648628Y-186385771D01*
X181362914Y-186385771D01*
X181220057Y-186314342D01*
X181148628Y-186171485D01*
X181148628Y-185600057D01*
X181220057Y-185457200D01*
X181362914Y-185385771D01*
X181648628Y-185385771D01*
X181791485Y-185457200D01*
X181862914Y-185600057D01*
X181862914Y-185742914D01*
X181148628Y-185885771D01*
X182505771Y-186242914D02*
X182577200Y-186314342D01*
X182505771Y-186385771D01*
X182434342Y-186314342D01*
X182505771Y-186242914D01*
X182505771Y-186385771D01*
X182505771Y-185457200D02*
X182577200Y-185528628D01*
X182505771Y-185600057D01*
X182434342Y-185528628D01*
X182505771Y-185457200D01*
X182505771Y-185600057D01*
X184148628Y-184885771D02*
X184648628Y-186385771D01*
X185148628Y-184885771D01*
X185862914Y-186385771D02*
X185720057Y-186314342D01*
X185648628Y-186242914D01*
X185577200Y-186100057D01*
X185577200Y-185671485D01*
X185648628Y-185528628D01*
X185720057Y-185457200D01*
X185862914Y-185385771D01*
X186077200Y-185385771D01*
X186220057Y-185457200D01*
X186291485Y-185528628D01*
X186362914Y-185671485D01*
X186362914Y-186100057D01*
X186291485Y-186242914D01*
X186220057Y-186314342D01*
X186077200Y-186385771D01*
X185862914Y-186385771D01*
X187005771Y-186385771D02*
X187005771Y-185385771D01*
X187005771Y-185671485D02*
X187077200Y-185528628D01*
X187148628Y-185457200D01*
X187291485Y-185385771D01*
X187434342Y-185385771D01*
X188148628Y-186385771D02*
X188005771Y-186314342D01*
X187934342Y-186242914D01*
X187862914Y-186100057D01*
X187862914Y-185671485D01*
X187934342Y-185528628D01*
X188005771Y-185457200D01*
X188148628Y-185385771D01*
X188362914Y-185385771D01*
X188505771Y-185457200D01*
X188577200Y-185528628D01*
X188648628Y-185671485D01*
X188648628Y-186100057D01*
X188577200Y-186242914D01*
X188505771Y-186314342D01*
X188362914Y-186385771D01*
X188148628Y-186385771D01*
X189291485Y-185385771D02*
X189291485Y-186385771D01*
X189291485Y-185528628D02*
X189362914Y-185457200D01*
X189505771Y-185385771D01*
X189720057Y-185385771D01*
X189862914Y-185457200D01*
X189934342Y-185600057D01*
X189934342Y-186385771D01*
X190291485Y-186528628D02*
X191434342Y-186528628D01*
X191791485Y-186385771D02*
X191791485Y-184885771D01*
X192648628Y-186385771D02*
X192005771Y-185528628D01*
X192648628Y-184885771D02*
X191791485Y-185742914D01*
X193505771Y-186385771D02*
X193362914Y-186314342D01*
X193291485Y-186171485D01*
X193291485Y-184885771D01*
X194077200Y-186385771D02*
X194077200Y-185385771D01*
X194077200Y-184885771D02*
X194005771Y-184957200D01*
X194077200Y-185028628D01*
X194148628Y-184957200D01*
X194077200Y-184885771D01*
X194077200Y-185028628D01*
X194791485Y-185385771D02*
X194791485Y-186885771D01*
X194791485Y-185457200D02*
X194934342Y-185385771D01*
X195220057Y-185385771D01*
X195362914Y-185457200D01*
X195434342Y-185528628D01*
X195505771Y-185671485D01*
X195505771Y-186100057D01*
X195434342Y-186242914D01*
X195362914Y-186314342D01*
X195220057Y-186385771D01*
X194934342Y-186385771D01*
X194791485Y-186314342D01*
X196148628Y-185385771D02*
X196148628Y-186885771D01*
X196148628Y-185457200D02*
X196291485Y-185385771D01*
X196577200Y-185385771D01*
X196720057Y-185457200D01*
X196791485Y-185528628D01*
X196862914Y-185671485D01*
X196862914Y-186100057D01*
X196791485Y-186242914D01*
X196720057Y-186314342D01*
X196577200Y-186385771D01*
X196291485Y-186385771D01*
X196148628Y-186314342D01*
X198077200Y-186314342D02*
X197934342Y-186385771D01*
X197648628Y-186385771D01*
X197505771Y-186314342D01*
X197434342Y-186171485D01*
X197434342Y-185600057D01*
X197505771Y-185457200D01*
X197648628Y-185385771D01*
X197934342Y-185385771D01*
X198077200Y-185457200D01*
X198148628Y-185600057D01*
X198148628Y-185742914D01*
X197434342Y-185885771D01*
X198791485Y-186385771D02*
X198791485Y-185385771D01*
X198791485Y-185671485D02*
X198862914Y-185528628D01*
X198934342Y-185457200D01*
X199077200Y-185385771D01*
X199220057Y-185385771D01*
X199362914Y-186528628D02*
X200505771Y-186528628D01*
X201362914Y-185600057D02*
X201577200Y-185671485D01*
X201648628Y-185742914D01*
X201720057Y-185885771D01*
X201720057Y-186100057D01*
X201648628Y-186242914D01*
X201577200Y-186314342D01*
X201434342Y-186385771D01*
X200862914Y-186385771D01*
X200862914Y-184885771D01*
X201362914Y-184885771D01*
X201505771Y-184957200D01*
X201577200Y-185028628D01*
X201648628Y-185171485D01*
X201648628Y-185314342D01*
X201577200Y-185457200D01*
X201505771Y-185528628D01*
X201362914Y-185600057D01*
X200862914Y-185600057D01*
X202577200Y-186385771D02*
X202434342Y-186314342D01*
X202362914Y-186242914D01*
X202291485Y-186100057D01*
X202291485Y-185671485D01*
X202362914Y-185528628D01*
X202434342Y-185457200D01*
X202577200Y-185385771D01*
X202791485Y-185385771D01*
X202934342Y-185457200D01*
X203005771Y-185528628D01*
X203077200Y-185671485D01*
X203077200Y-186100057D01*
X203005771Y-186242914D01*
X202934342Y-186314342D01*
X202791485Y-186385771D01*
X202577200Y-186385771D01*
X204362914Y-186385771D02*
X204362914Y-185600057D01*
X204291485Y-185457200D01*
X204148628Y-185385771D01*
X203862914Y-185385771D01*
X203720057Y-185457200D01*
X204362914Y-186314342D02*
X204220057Y-186385771D01*
X203862914Y-186385771D01*
X203720057Y-186314342D01*
X203648628Y-186171485D01*
X203648628Y-186028628D01*
X203720057Y-185885771D01*
X203862914Y-185814342D01*
X204220057Y-185814342D01*
X204362914Y-185742914D01*
X205077200Y-186385771D02*
X205077200Y-185385771D01*
X205077200Y-185671485D02*
X205148628Y-185528628D01*
X205220057Y-185457200D01*
X205362914Y-185385771D01*
X205505771Y-185385771D01*
X206648628Y-186385771D02*
X206648628Y-184885771D01*
X206648628Y-186314342D02*
X206505771Y-186385771D01*
X206220057Y-186385771D01*
X206077200Y-186314342D01*
X206005771Y-186242914D01*
X205934342Y-186100057D01*
X205934342Y-185671485D01*
X206005771Y-185528628D01*
X206077200Y-185457200D01*
X206220057Y-185385771D01*
X206505771Y-185385771D01*
X206648628Y-185457200D01*
X207362914Y-186242914D02*
X207434342Y-186314342D01*
X207362914Y-186385771D01*
X207291485Y-186314342D01*
X207362914Y-186242914D01*
X207362914Y-186385771D01*
X208077200Y-186385771D02*
X208077200Y-184885771D01*
X208220057Y-185814342D02*
X208648628Y-186385771D01*
X208648628Y-185385771D02*
X208077200Y-185957200D01*
X209291485Y-186385771D02*
X209291485Y-185385771D01*
X209291485Y-184885771D02*
X209220057Y-184957200D01*
X209291485Y-185028628D01*
X209362914Y-184957200D01*
X209291485Y-184885771D01*
X209291485Y-185028628D01*
X210648628Y-186314342D02*
X210505771Y-186385771D01*
X210220057Y-186385771D01*
X210077200Y-186314342D01*
X210005771Y-186242914D01*
X209934342Y-186100057D01*
X209934342Y-185671485D01*
X210005771Y-185528628D01*
X210077200Y-185457200D01*
X210220057Y-185385771D01*
X210505771Y-185385771D01*
X210648628Y-185457200D01*
X211934342Y-186385771D02*
X211934342Y-185600057D01*
X211862914Y-185457200D01*
X211720057Y-185385771D01*
X211434342Y-185385771D01*
X211291485Y-185457200D01*
X211934342Y-186314342D02*
X211791485Y-186385771D01*
X211434342Y-186385771D01*
X211291485Y-186314342D01*
X211220057Y-186171485D01*
X211220057Y-186028628D01*
X211291485Y-185885771D01*
X211434342Y-185814342D01*
X211791485Y-185814342D01*
X211934342Y-185742914D01*
X213291485Y-186385771D02*
X213291485Y-184885771D01*
X213291485Y-186314342D02*
X213148628Y-186385771D01*
X212862914Y-186385771D01*
X212720057Y-186314342D01*
X212648628Y-186242914D01*
X212577200Y-186100057D01*
X212577200Y-185671485D01*
X212648628Y-185528628D01*
X212720057Y-185457200D01*
X212862914Y-185385771D01*
X213148628Y-185385771D01*
X213291485Y-185457200D01*
X213648628Y-186528628D02*
X214791485Y-186528628D01*
X215148628Y-185385771D02*
X215148628Y-186885771D01*
X215148628Y-185457200D02*
X215291485Y-185385771D01*
X215577200Y-185385771D01*
X215720057Y-185457200D01*
X215791485Y-185528628D01*
X215862914Y-185671485D01*
X215862914Y-186100057D01*
X215791485Y-186242914D01*
X215720057Y-186314342D01*
X215577200Y-186385771D01*
X215291485Y-186385771D01*
X215148628Y-186314342D01*
X217148628Y-186314342D02*
X217005771Y-186385771D01*
X216720057Y-186385771D01*
X216577200Y-186314342D01*
X216505771Y-186242914D01*
X216434342Y-186100057D01*
X216434342Y-185671485D01*
X216505771Y-185528628D01*
X216577200Y-185457200D01*
X216720057Y-185385771D01*
X217005771Y-185385771D01*
X217148628Y-185457200D01*
X217791485Y-186385771D02*
X217791485Y-184885771D01*
X217791485Y-185457200D02*
X217934342Y-185385771D01*
X218220057Y-185385771D01*
X218362914Y-185457200D01*
X218434342Y-185528628D01*
X218505771Y-185671485D01*
X218505771Y-186100057D01*
X218434342Y-186242914D01*
X218362914Y-186314342D01*
X218220057Y-186385771D01*
X217934342Y-186385771D01*
X217791485Y-186314342D01*
D10*
D11*
X177002200Y-181507200D02*
X285002200Y-181507200D01*
D10*
D11*
X178362914Y-183614342D02*
X178577200Y-183685771D01*
X178934342Y-183685771D01*
X179077200Y-183614342D01*
X179148628Y-183542914D01*
X179220057Y-183400057D01*
X179220057Y-183257200D01*
X179148628Y-183114342D01*
X179077200Y-183042914D01*
X178934342Y-182971485D01*
X178648628Y-182900057D01*
X178505771Y-182828628D01*
X178434342Y-182757200D01*
X178362914Y-182614342D01*
X178362914Y-182471485D01*
X178434342Y-182328628D01*
X178505771Y-182257200D01*
X178648628Y-182185771D01*
X179005771Y-182185771D01*
X179220057Y-182257200D01*
X179862914Y-183685771D02*
X179862914Y-182185771D01*
X180505771Y-183685771D02*
X180505771Y-182900057D01*
X180434342Y-182757200D01*
X180291485Y-182685771D01*
X180077200Y-182685771D01*
X179934342Y-182757200D01*
X179862914Y-182828628D01*
X181791485Y-183614342D02*
X181648628Y-183685771D01*
X181362914Y-183685771D01*
X181220057Y-183614342D01*
X181148628Y-183471485D01*
X181148628Y-182900057D01*
X181220057Y-182757200D01*
X181362914Y-182685771D01*
X181648628Y-182685771D01*
X181791485Y-182757200D01*
X181862914Y-182900057D01*
X181862914Y-183042914D01*
X181148628Y-183185771D01*
X183077200Y-183614342D02*
X182934342Y-183685771D01*
X182648628Y-183685771D01*
X182505771Y-183614342D01*
X182434342Y-183471485D01*
X182434342Y-182900057D01*
X182505771Y-182757200D01*
X182648628Y-182685771D01*
X182934342Y-182685771D01*
X183077200Y-182757200D01*
X183148628Y-182900057D01*
X183148628Y-183042914D01*
X182434342Y-183185771D01*
X183577200Y-182685771D02*
X184148628Y-182685771D01*
X183791485Y-182185771D02*
X183791485Y-183471485D01*
X183862914Y-183614342D01*
X184005771Y-183685771D01*
X184148628Y-183685771D01*
X184648628Y-183542914D02*
X184720057Y-183614342D01*
X184648628Y-183685771D01*
X184577200Y-183614342D01*
X184648628Y-183542914D01*
X184648628Y-183685771D01*
X184648628Y-182757200D02*
X184720057Y-182828628D01*
X184648628Y-182900057D01*
X184577200Y-182828628D01*
X184648628Y-182757200D01*
X184648628Y-182900057D01*
D10*
D12*
X178340057Y-179185771D02*
X178840057Y-180685771D01*
X179340057Y-179185771D01*
X180125771Y-179185771D02*
X180411485Y-179185771D01*
X180554342Y-179257200D01*
X180697200Y-179400057D01*
X180768628Y-179685771D01*
X180768628Y-180185771D01*
X180697200Y-180471485D01*
X180554342Y-180614342D01*
X180411485Y-180685771D01*
X180125771Y-180685771D01*
X179982914Y-180614342D01*
X179840057Y-180471485D01*
X179768628Y-180185771D01*
X179768628Y-179685771D01*
X179840057Y-179400057D01*
X179982914Y-179257200D01*
X180125771Y-179185771D01*
X182268628Y-180685771D02*
X181768628Y-179971485D01*
X181411485Y-180685771D02*
X181411485Y-179185771D01*
X181982914Y-179185771D01*
X182125771Y-179257200D01*
X182197200Y-179328628D01*
X182268628Y-179471485D01*
X182268628Y-179685771D01*
X182197200Y-179828628D01*
X182125771Y-179900057D01*
X181982914Y-179971485D01*
X181411485Y-179971485D01*
X183197200Y-179185771D02*
X183482914Y-179185771D01*
X183625771Y-179257200D01*
X183768628Y-179400057D01*
X183840057Y-179685771D01*
X183840057Y-180185771D01*
X183768628Y-180471485D01*
X183625771Y-180614342D01*
X183482914Y-180685771D01*
X183197200Y-180685771D01*
X183054342Y-180614342D01*
X182911485Y-180471485D01*
X182840057Y-180185771D01*
X182840057Y-179685771D01*
X182911485Y-179400057D01*
X183054342Y-179257200D01*
X183197200Y-179185771D01*
X184482914Y-180685771D02*
X184482914Y-179185771D01*
X185340057Y-180685771D01*
X185340057Y-179185771D01*
X187197200Y-180685771D02*
X187197200Y-179185771D01*
X187554342Y-179185771D01*
X187768628Y-179257200D01*
X187911485Y-179400057D01*
X187982914Y-179542914D01*
X188054342Y-179828628D01*
X188054342Y-180042914D01*
X187982914Y-180328628D01*
X187911485Y-180471485D01*
X187768628Y-180614342D01*
X187554342Y-180685771D01*
X187197200Y-180685771D01*
X189268628Y-180614342D02*
X189125771Y-180685771D01*
X188840057Y-180685771D01*
X188697200Y-180614342D01*
X188625771Y-180471485D01*
X188625771Y-179900057D01*
X188697200Y-179757200D01*
X188840057Y-179685771D01*
X189125771Y-179685771D01*
X189268628Y-179757200D01*
X189340057Y-179900057D01*
X189340057Y-180042914D01*
X188625771Y-180185771D01*
X189911485Y-180614342D02*
X190054342Y-180685771D01*
X190340057Y-180685771D01*
X190482914Y-180614342D01*
X190554342Y-180471485D01*
X190554342Y-180400057D01*
X190482914Y-180257200D01*
X190340057Y-180185771D01*
X190125771Y-180185771D01*
X189982914Y-180114342D01*
X189911485Y-179971485D01*
X189911485Y-179900057D01*
X189982914Y-179757200D01*
X190125771Y-179685771D01*
X190340057Y-179685771D01*
X190482914Y-179757200D01*
X191197200Y-180685771D02*
X191197200Y-179685771D01*
X191197200Y-179185771D02*
X191125771Y-179257200D01*
X191197200Y-179328628D01*
X191268628Y-179257200D01*
X191197200Y-179185771D01*
X191197200Y-179328628D01*
X192554342Y-179685771D02*
X192554342Y-180900057D01*
X192482914Y-181042914D01*
X192411485Y-181114342D01*
X192268628Y-181185771D01*
X192054342Y-181185771D01*
X191911485Y-181114342D01*
X192554342Y-180614342D02*
X192411485Y-180685771D01*
X192125771Y-180685771D01*
X191982914Y-180614342D01*
X191911485Y-180542914D01*
X191840057Y-180400057D01*
X191840057Y-179971485D01*
X191911485Y-179828628D01*
X191982914Y-179757200D01*
X192125771Y-179685771D01*
X192411485Y-179685771D01*
X192554342Y-179757200D01*
X193268628Y-179685771D02*
X193268628Y-180685771D01*
X193268628Y-179828628D02*
X193340057Y-179757200D01*
X193482914Y-179685771D01*
X193697200Y-179685771D01*
X193840057Y-179757200D01*
X193911485Y-179900057D01*
X193911485Y-180685771D01*
D10*
D11*
X197002200Y-191507200D02*
X197002200Y-194507200D01*
D10*
D11*
X261002200Y-191507200D02*
X261002200Y-198007200D01*
D14*
G36*
X189473000Y-128832600D02*
G01*
X189473000Y-130032600D01*
X188273000Y-130032600D01*
X188273000Y-128832600D01*
X189473000Y-128832600D01*
G37*
X189473000Y-128832600D02*
X189473000Y-130032600D01*
X188273000Y-130032600D01*
X188273000Y-128832600D01*
X189473000Y-128832600D01*
G36*
X190873000Y-128832600D02*
G01*
X190873000Y-130032600D01*
X189673000Y-130032600D01*
X189673000Y-128832600D01*
X190873000Y-128832600D01*
G37*
X190873000Y-128832600D02*
X190873000Y-130032600D01*
X189673000Y-130032600D01*
X189673000Y-128832600D01*
X190873000Y-128832600D01*
G36*
X192273000Y-128832600D02*
G01*
X192273000Y-130032600D01*
X191073000Y-130032600D01*
X191073000Y-128832600D01*
X192273000Y-128832600D01*
G37*
X192273000Y-128832600D02*
X192273000Y-130032600D01*
X191073000Y-130032600D01*
X191073000Y-128832600D01*
X192273000Y-128832600D01*
G36*
X189473000Y-130532600D02*
G01*
X189473000Y-131732600D01*
X188273000Y-131732600D01*
X188273000Y-130532600D01*
X189473000Y-130532600D01*
G37*
X189473000Y-130532600D02*
X189473000Y-131732600D01*
X188273000Y-131732600D01*
X188273000Y-130532600D01*
X189473000Y-130532600D01*
G36*
X190873000Y-130532600D02*
G01*
X190873000Y-131732600D01*
X189673000Y-131732600D01*
X189673000Y-130532600D01*
X190873000Y-130532600D01*
G37*
X190873000Y-130532600D02*
X190873000Y-131732600D01*
X189673000Y-131732600D01*
X189673000Y-130532600D01*
X190873000Y-130532600D01*
G36*
X192273000Y-130532600D02*
G01*
X192273000Y-131732600D01*
X191073000Y-131732600D01*
X191073000Y-130532600D01*
X192273000Y-130532600D01*
G37*
X192273000Y-130532600D02*
X192273000Y-131732600D01*
X191073000Y-131732600D01*
X191073000Y-130532600D01*
X192273000Y-130532600D01*
G36*
X209523000Y-128832600D02*
G01*
X209523000Y-130032600D01*
X208323000Y-130032600D01*
X208323000Y-128832600D01*
X209523000Y-128832600D01*
G37*
X209523000Y-128832600D02*
X209523000Y-130032600D01*
X208323000Y-130032600D01*
X208323000Y-128832600D01*
X209523000Y-128832600D01*
G36*
X210923000Y-128832600D02*
G01*
X210923000Y-130032600D01*
X209723000Y-130032600D01*
X209723000Y-128832600D01*
X210923000Y-128832600D01*
G37*
X210923000Y-128832600D02*
X210923000Y-130032600D01*
X209723000Y-130032600D01*
X209723000Y-128832600D01*
X210923000Y-128832600D01*
G36*
X212323000Y-128832600D02*
G01*
X212323000Y-130032600D01*
X211123000Y-130032600D01*
X211123000Y-128832600D01*
X212323000Y-128832600D01*
G37*
X212323000Y-128832600D02*
X212323000Y-130032600D01*
X211123000Y-130032600D01*
X211123000Y-128832600D01*
X212323000Y-128832600D01*
G36*
X209523000Y-130532600D02*
G01*
X209523000Y-131732600D01*
X208323000Y-131732600D01*
X208323000Y-130532600D01*
X209523000Y-130532600D01*
G37*
X209523000Y-130532600D02*
X209523000Y-131732600D01*
X208323000Y-131732600D01*
X208323000Y-130532600D01*
X209523000Y-130532600D01*
G36*
X210923000Y-130532600D02*
G01*
X210923000Y-131732600D01*
X209723000Y-131732600D01*
X209723000Y-130532600D01*
X210923000Y-130532600D01*
G37*
X210923000Y-130532600D02*
X210923000Y-131732600D01*
X209723000Y-131732600D01*
X209723000Y-130532600D01*
X210923000Y-130532600D01*
G36*
X212323000Y-130532600D02*
G01*
X212323000Y-131732600D01*
X211123000Y-131732600D01*
X211123000Y-130532600D01*
X212323000Y-130532600D01*
G37*
X212323000Y-130532600D02*
X212323000Y-131732600D01*
X211123000Y-131732600D01*
X211123000Y-130532600D01*
X212323000Y-130532600D01*
G36*
X151477000Y-64167400D02*
G01*
X151477000Y-62967400D01*
X152677000Y-62967400D01*
X152677000Y-64167400D01*
X151477000Y-64167400D01*
G37*
X151477000Y-64167400D02*
X151477000Y-62967400D01*
X152677000Y-62967400D01*
X152677000Y-64167400D01*
X151477000Y-64167400D01*
G36*
X150077000Y-64167400D02*
G01*
X150077000Y-62967400D01*
X151277000Y-62967400D01*
X151277000Y-64167400D01*
X150077000Y-64167400D01*
G37*
X150077000Y-64167400D02*
X150077000Y-62967400D01*
X151277000Y-62967400D01*
X151277000Y-64167400D01*
X150077000Y-64167400D01*
G36*
X148677000Y-64167400D02*
G01*
X148677000Y-62967400D01*
X149877000Y-62967400D01*
X149877000Y-64167400D01*
X148677000Y-64167400D01*
G37*
X148677000Y-64167400D02*
X148677000Y-62967400D01*
X149877000Y-62967400D01*
X149877000Y-64167400D01*
X148677000Y-64167400D01*
G36*
X151477000Y-62467400D02*
G01*
X151477000Y-61267400D01*
X152677000Y-61267400D01*
X152677000Y-62467400D01*
X151477000Y-62467400D01*
G37*
X151477000Y-62467400D02*
X151477000Y-61267400D01*
X152677000Y-61267400D01*
X152677000Y-62467400D01*
X151477000Y-62467400D01*
G36*
X150077000Y-62467400D02*
G01*
X150077000Y-61267400D01*
X151277000Y-61267400D01*
X151277000Y-62467400D01*
X150077000Y-62467400D01*
G37*
X150077000Y-62467400D02*
X150077000Y-61267400D01*
X151277000Y-61267400D01*
X151277000Y-62467400D01*
X150077000Y-62467400D01*
G36*
X148677000Y-62467400D02*
G01*
X148677000Y-61267400D01*
X149877000Y-61267400D01*
X149877000Y-62467400D01*
X148677000Y-62467400D01*
G37*
X148677000Y-62467400D02*
X148677000Y-61267400D01*
X149877000Y-61267400D01*
X149877000Y-62467400D01*
X148677000Y-62467400D01*
G36*
X171527000Y-64167400D02*
G01*
X171527000Y-62967400D01*
X172727000Y-62967400D01*
X172727000Y-64167400D01*
X171527000Y-64167400D01*
G37*
X171527000Y-64167400D02*
X171527000Y-62967400D01*
X172727000Y-62967400D01*
X172727000Y-64167400D01*
X171527000Y-64167400D01*
G36*
X170127000Y-64167400D02*
G01*
X170127000Y-62967400D01*
X171327000Y-62967400D01*
X171327000Y-64167400D01*
X170127000Y-64167400D01*
G37*
X170127000Y-64167400D02*
X170127000Y-62967400D01*
X171327000Y-62967400D01*
X171327000Y-64167400D01*
X170127000Y-64167400D01*
G36*
X168727000Y-64167400D02*
G01*
X168727000Y-62967400D01*
X169927000Y-62967400D01*
X169927000Y-64167400D01*
X168727000Y-64167400D01*
G37*
X168727000Y-64167400D02*
X168727000Y-62967400D01*
X169927000Y-62967400D01*
X169927000Y-64167400D01*
X168727000Y-64167400D01*
G36*
X171527000Y-62467400D02*
G01*
X171527000Y-61267400D01*
X172727000Y-61267400D01*
X172727000Y-62467400D01*
X171527000Y-62467400D01*
G37*
X171527000Y-62467400D02*
X171527000Y-61267400D01*
X172727000Y-61267400D01*
X172727000Y-62467400D01*
X171527000Y-62467400D01*
G36*
X170127000Y-62467400D02*
G01*
X170127000Y-61267400D01*
X171327000Y-61267400D01*
X171327000Y-62467400D01*
X170127000Y-62467400D01*
G37*
X170127000Y-62467400D02*
X170127000Y-61267400D01*
X171327000Y-61267400D01*
X171327000Y-62467400D01*
X170127000Y-62467400D01*
G36*
X168727000Y-62467400D02*
G01*
X168727000Y-61267400D01*
X169927000Y-61267400D01*
X169927000Y-62467400D01*
X168727000Y-62467400D01*
G37*
X168727000Y-62467400D02*
X168727000Y-61267400D01*
X169927000Y-61267400D01*
X169927000Y-62467400D01*
X168727000Y-62467400D01*
G36*
X191477000Y-64167400D02*
G01*
X191477000Y-62967400D01*
X192677000Y-62967400D01*
X192677000Y-64167400D01*
X191477000Y-64167400D01*
G37*
X191477000Y-64167400D02*
X191477000Y-62967400D01*
X192677000Y-62967400D01*
X192677000Y-64167400D01*
X191477000Y-64167400D01*
G36*
X190077000Y-64167400D02*
G01*
X190077000Y-62967400D01*
X191277000Y-62967400D01*
X191277000Y-64167400D01*
X190077000Y-64167400D01*
G37*
X190077000Y-64167400D02*
X190077000Y-62967400D01*
X191277000Y-62967400D01*
X191277000Y-64167400D01*
X190077000Y-64167400D01*
G36*
X188677000Y-64167400D02*
G01*
X188677000Y-62967400D01*
X189877000Y-62967400D01*
X189877000Y-64167400D01*
X188677000Y-64167400D01*
G37*
X188677000Y-64167400D02*
X188677000Y-62967400D01*
X189877000Y-62967400D01*
X189877000Y-64167400D01*
X188677000Y-64167400D01*
G36*
X191477000Y-62467400D02*
G01*
X191477000Y-61267400D01*
X192677000Y-61267400D01*
X192677000Y-62467400D01*
X191477000Y-62467400D01*
G37*
X191477000Y-62467400D02*
X191477000Y-61267400D01*
X192677000Y-61267400D01*
X192677000Y-62467400D01*
X191477000Y-62467400D01*
G36*
X190077000Y-62467400D02*
G01*
X190077000Y-61267400D01*
X191277000Y-61267400D01*
X191277000Y-62467400D01*
X190077000Y-62467400D01*
G37*
X190077000Y-62467400D02*
X190077000Y-61267400D01*
X191277000Y-61267400D01*
X191277000Y-62467400D01*
X190077000Y-62467400D01*
G36*
X188677000Y-62467400D02*
G01*
X188677000Y-61267400D01*
X189877000Y-61267400D01*
X189877000Y-62467400D01*
X188677000Y-62467400D01*
G37*
X188677000Y-62467400D02*
X188677000Y-61267400D01*
X189877000Y-61267400D01*
X189877000Y-62467400D01*
X188677000Y-62467400D01*
G36*
X211477000Y-64167400D02*
G01*
X211477000Y-62967400D01*
X212677000Y-62967400D01*
X212677000Y-64167400D01*
X211477000Y-64167400D01*
G37*
X211477000Y-64167400D02*
X211477000Y-62967400D01*
X212677000Y-62967400D01*
X212677000Y-64167400D01*
X211477000Y-64167400D01*
G36*
X210077000Y-64167400D02*
G01*
X210077000Y-62967400D01*
X211277000Y-62967400D01*
X211277000Y-64167400D01*
X210077000Y-64167400D01*
G37*
X210077000Y-64167400D02*
X210077000Y-62967400D01*
X211277000Y-62967400D01*
X211277000Y-64167400D01*
X210077000Y-64167400D01*
G36*
X208677000Y-64167400D02*
G01*
X208677000Y-62967400D01*
X209877000Y-62967400D01*
X209877000Y-64167400D01*
X208677000Y-64167400D01*
G37*
X208677000Y-64167400D02*
X208677000Y-62967400D01*
X209877000Y-62967400D01*
X209877000Y-64167400D01*
X208677000Y-64167400D01*
G36*
X211477000Y-62467400D02*
G01*
X211477000Y-61267400D01*
X212677000Y-61267400D01*
X212677000Y-62467400D01*
X211477000Y-62467400D01*
G37*
X211477000Y-62467400D02*
X211477000Y-61267400D01*
X212677000Y-61267400D01*
X212677000Y-62467400D01*
X211477000Y-62467400D01*
G36*
X210077000Y-62467400D02*
G01*
X210077000Y-61267400D01*
X211277000Y-61267400D01*
X211277000Y-62467400D01*
X210077000Y-62467400D01*
G37*
X210077000Y-62467400D02*
X210077000Y-61267400D01*
X211277000Y-61267400D01*
X211277000Y-62467400D01*
X210077000Y-62467400D01*
G36*
X208677000Y-62467400D02*
G01*
X208677000Y-61267400D01*
X209877000Y-61267400D01*
X209877000Y-62467400D01*
X208677000Y-62467400D01*
G37*
X208677000Y-62467400D02*
X208677000Y-61267400D01*
X209877000Y-61267400D01*
X209877000Y-62467400D01*
X208677000Y-62467400D01*
G36*
X149523000Y-128832600D02*
G01*
X149523000Y-130032600D01*
X148323000Y-130032600D01*
X148323000Y-128832600D01*
X149523000Y-128832600D01*
G37*
X149523000Y-128832600D02*
X149523000Y-130032600D01*
X148323000Y-130032600D01*
X148323000Y-128832600D01*
X149523000Y-128832600D01*
G36*
X150923000Y-128832600D02*
G01*
X150923000Y-130032600D01*
X149723000Y-130032600D01*
X149723000Y-128832600D01*
X150923000Y-128832600D01*
G37*
X150923000Y-128832600D02*
X150923000Y-130032600D01*
X149723000Y-130032600D01*
X149723000Y-128832600D01*
X150923000Y-128832600D01*
G36*
X152323000Y-128832600D02*
G01*
X152323000Y-130032600D01*
X151123000Y-130032600D01*
X151123000Y-128832600D01*
X152323000Y-128832600D01*
G37*
X152323000Y-128832600D02*
X152323000Y-130032600D01*
X151123000Y-130032600D01*
X151123000Y-128832600D01*
X152323000Y-128832600D01*
G36*
X149523000Y-130532600D02*
G01*
X149523000Y-131732600D01*
X148323000Y-131732600D01*
X148323000Y-130532600D01*
X149523000Y-130532600D01*
G37*
X149523000Y-130532600D02*
X149523000Y-131732600D01*
X148323000Y-131732600D01*
X148323000Y-130532600D01*
X149523000Y-130532600D01*
G36*
X150923000Y-130532600D02*
G01*
X150923000Y-131732600D01*
X149723000Y-131732600D01*
X149723000Y-130532600D01*
X150923000Y-130532600D01*
G37*
X150923000Y-130532600D02*
X150923000Y-131732600D01*
X149723000Y-131732600D01*
X149723000Y-130532600D01*
X150923000Y-130532600D01*
G36*
X152323000Y-130532600D02*
G01*
X152323000Y-131732600D01*
X151123000Y-131732600D01*
X151123000Y-130532600D01*
X152323000Y-130532600D01*
G37*
X152323000Y-130532600D02*
X152323000Y-131732600D01*
X151123000Y-131732600D01*
X151123000Y-130532600D01*
X152323000Y-130532600D01*
G36*
X169523000Y-128832600D02*
G01*
X169523000Y-130032600D01*
X168323000Y-130032600D01*
X168323000Y-128832600D01*
X169523000Y-128832600D01*
G37*
X169523000Y-128832600D02*
X169523000Y-130032600D01*
X168323000Y-130032600D01*
X168323000Y-128832600D01*
X169523000Y-128832600D01*
G36*
X170923000Y-128832600D02*
G01*
X170923000Y-130032600D01*
X169723000Y-130032600D01*
X169723000Y-128832600D01*
X170923000Y-128832600D01*
G37*
X170923000Y-128832600D02*
X170923000Y-130032600D01*
X169723000Y-130032600D01*
X169723000Y-128832600D01*
X170923000Y-128832600D01*
G36*
X172323000Y-128832600D02*
G01*
X172323000Y-130032600D01*
X171123000Y-130032600D01*
X171123000Y-128832600D01*
X172323000Y-128832600D01*
G37*
X172323000Y-128832600D02*
X172323000Y-130032600D01*
X171123000Y-130032600D01*
X171123000Y-128832600D01*
X172323000Y-128832600D01*
G36*
X169523000Y-130532600D02*
G01*
X169523000Y-131732600D01*
X168323000Y-131732600D01*
X168323000Y-130532600D01*
X169523000Y-130532600D01*
G37*
X169523000Y-130532600D02*
X169523000Y-131732600D01*
X168323000Y-131732600D01*
X168323000Y-130532600D01*
X169523000Y-130532600D01*
G36*
X170923000Y-130532600D02*
G01*
X170923000Y-131732600D01*
X169723000Y-131732600D01*
X169723000Y-130532600D01*
X170923000Y-130532600D01*
G37*
X170923000Y-130532600D02*
X170923000Y-131732600D01*
X169723000Y-131732600D01*
X169723000Y-130532600D01*
X170923000Y-130532600D01*
G36*
X172323000Y-130532600D02*
G01*
X172323000Y-131732600D01*
X171123000Y-131732600D01*
X171123000Y-130532600D01*
X172323000Y-130532600D01*
G37*
X172323000Y-130532600D02*
X172323000Y-131732600D01*
X171123000Y-131732600D01*
X171123000Y-130532600D01*
X172323000Y-130532600D01*
D15*
X170850000Y-105075000D03*
X169350000Y-105075000D03*
X144275000Y-133925000D03*
X142775000Y-133925000D03*
D16*
X157860000Y-105750000D03*
X157860000Y-104250000D03*
D15*
X149360000Y-108245000D03*
X147860000Y-108245000D03*
X147860000Y-106745000D03*
X149360000Y-106745000D03*
X147810000Y-103600000D03*
X149310000Y-103600000D03*
D16*
X158060000Y-100650000D03*
X158060000Y-99150000D03*
D15*
X178500000Y-136000000D03*
X177000000Y-136000000D03*
X198450000Y-136000000D03*
X196950000Y-136000000D03*
D16*
X172500000Y-139904600D03*
X172500000Y-138404600D03*
D15*
X147850000Y-136350000D03*
X149350000Y-136350000D03*
X205000000Y-127025000D03*
X203500000Y-127025000D03*
X147125000Y-125700000D03*
X148625000Y-125700000D03*
X165225000Y-66000000D03*
X163725000Y-66000000D03*
D16*
X162240000Y-49750000D03*
X162240000Y-48250000D03*
D15*
X135550000Y-49375000D03*
X134050000Y-49375000D03*
D16*
X139750000Y-75625000D03*
X139750000Y-77125000D03*
D15*
X134075000Y-94975000D03*
X132575000Y-94975000D03*
D16*
X139675000Y-68600000D03*
X139675000Y-67100000D03*
D15*
X135925000Y-95000000D03*
X137425000Y-95000000D03*
X135850000Y-117300000D03*
X134350000Y-117300000D03*
D16*
X213375000Y-104600000D03*
X213375000Y-103100000D03*
D15*
X147950000Y-87150000D03*
X149450000Y-87150000D03*
X148000000Y-90235000D03*
X149500000Y-90235000D03*
D16*
X158000000Y-89235000D03*
X158000000Y-87735000D03*
D15*
X149500000Y-91650000D03*
X148000000Y-91650000D03*
X153875000Y-67300000D03*
X152375000Y-67300000D03*
X142500000Y-57000000D03*
X144000000Y-57000000D03*
D16*
X148500000Y-53095400D03*
X148500000Y-54595400D03*
D15*
X153150000Y-56650000D03*
X151650000Y-56650000D03*
D16*
X146500000Y-53095400D03*
X146500000Y-54595400D03*
D15*
X156000000Y-65975000D03*
X157500000Y-65975000D03*
X142500000Y-59500000D03*
X144000000Y-59500000D03*
D16*
X142190000Y-49750000D03*
X142190000Y-48250000D03*
D15*
X145175000Y-66000000D03*
X143675000Y-66000000D03*
D16*
X144730000Y-49750000D03*
X144730000Y-48250000D03*
X147270000Y-49750000D03*
X147270000Y-48250000D03*
X149810000Y-49750000D03*
X149810000Y-48250000D03*
D15*
X156725000Y-59075000D03*
X158225000Y-59075000D03*
X173925000Y-67300000D03*
X172425000Y-67300000D03*
X162550000Y-57000000D03*
X164050000Y-57000000D03*
D16*
X168550000Y-53095400D03*
X168550000Y-54595400D03*
D15*
X173200000Y-56650000D03*
X171700000Y-56650000D03*
D16*
X166550000Y-53095400D03*
X166550000Y-54595400D03*
D15*
X176050000Y-65975000D03*
X177550000Y-65975000D03*
X162550000Y-59500000D03*
X164050000Y-59500000D03*
X176775000Y-59075000D03*
X178275000Y-59075000D03*
D16*
X164780000Y-49750000D03*
X164780000Y-48250000D03*
X167320000Y-49750000D03*
X167320000Y-48250000D03*
X169860000Y-49750000D03*
X169860000Y-48250000D03*
D15*
X193917000Y-67300000D03*
X192417000Y-67300000D03*
X213875000Y-67300000D03*
X212375000Y-67300000D03*
X182500000Y-57000000D03*
X184000000Y-57000000D03*
X202500000Y-57000000D03*
X204000000Y-57000000D03*
D16*
X188500000Y-53095400D03*
X188500000Y-54595400D03*
X208500000Y-53095400D03*
X208500000Y-54595400D03*
D15*
X193150000Y-56650000D03*
X191650000Y-56650000D03*
X213150000Y-56650000D03*
X211650000Y-56650000D03*
D16*
X186500000Y-53095400D03*
X186500000Y-54595400D03*
X206500000Y-53095400D03*
X206500000Y-54595400D03*
D15*
X196000000Y-65975000D03*
X197500000Y-65975000D03*
X216000000Y-65975000D03*
X217500000Y-65975000D03*
X182500000Y-59500000D03*
X184000000Y-59500000D03*
X202500000Y-59500000D03*
X204000000Y-59500000D03*
D16*
X182190000Y-49750000D03*
X182190000Y-48250000D03*
X202190000Y-49750000D03*
X202190000Y-48250000D03*
D15*
X185175000Y-66000000D03*
X183675000Y-66000000D03*
X205175000Y-66000000D03*
X203675000Y-66000000D03*
X196725000Y-59075000D03*
X198225000Y-59075000D03*
X216725000Y-59075000D03*
X218225000Y-59075000D03*
D16*
X184730000Y-49750000D03*
X184730000Y-48250000D03*
X204730000Y-49750000D03*
X204730000Y-48250000D03*
X187270000Y-49750000D03*
X187270000Y-48250000D03*
X207270000Y-49750000D03*
X207270000Y-48250000D03*
X189800000Y-49750000D03*
X189800000Y-48250000D03*
X209810000Y-49750000D03*
X209810000Y-48250000D03*
D15*
X167125000Y-125700000D03*
X168625000Y-125700000D03*
X158500000Y-136000000D03*
X157000000Y-136000000D03*
D16*
X152500000Y-139904600D03*
X152500000Y-138404600D03*
D15*
X167850000Y-136350000D03*
X169350000Y-136350000D03*
D16*
X154500000Y-139900000D03*
X154500000Y-138400000D03*
X174500000Y-139900000D03*
X174500000Y-138400000D03*
D15*
X145000000Y-127025000D03*
X143500000Y-127025000D03*
X165000000Y-127025000D03*
X163500000Y-127025000D03*
X158500000Y-133500000D03*
X157000000Y-133500000D03*
X178500000Y-133500000D03*
X177000000Y-133500000D03*
D16*
X158810000Y-143250000D03*
X158810000Y-144750000D03*
X178810000Y-143250000D03*
X178810000Y-144750000D03*
D15*
X155825000Y-127000000D03*
X157325000Y-127000000D03*
X175825000Y-127000000D03*
X177325000Y-127000000D03*
X164275000Y-133925000D03*
X162775000Y-133925000D03*
D16*
X156270000Y-143250000D03*
X156270000Y-144750000D03*
X176270000Y-143250000D03*
X176270000Y-144750000D03*
X153730000Y-143250000D03*
X153730000Y-144750000D03*
X173730000Y-143250000D03*
X173730000Y-144750000D03*
X151190000Y-143250000D03*
X151190000Y-144750000D03*
X171200000Y-143250000D03*
X171200000Y-144750000D03*
D15*
X187075000Y-125700000D03*
X188575000Y-125700000D03*
X207125000Y-125700000D03*
X208625000Y-125700000D03*
X218500000Y-136000000D03*
X217000000Y-136000000D03*
D16*
X192450000Y-139904600D03*
X192450000Y-138404600D03*
X212500000Y-139904600D03*
X212500000Y-138404600D03*
D15*
X187800000Y-136350000D03*
X189300000Y-136350000D03*
X207850000Y-136350000D03*
X209350000Y-136350000D03*
D16*
X194450000Y-139904600D03*
X194450000Y-138404600D03*
X214500000Y-139904600D03*
X214500000Y-138404600D03*
D15*
X184950000Y-127025000D03*
X183450000Y-127025000D03*
X198450000Y-133500000D03*
X196950000Y-133500000D03*
X218500000Y-133500000D03*
X217000000Y-133500000D03*
D16*
X198760000Y-143250000D03*
X198760000Y-144750000D03*
X218810000Y-143250000D03*
X218810000Y-144750000D03*
D15*
X195775000Y-127000000D03*
X197275000Y-127000000D03*
X215825000Y-127000000D03*
X217325000Y-127000000D03*
X184225000Y-133925000D03*
X182725000Y-133925000D03*
X204275000Y-133925000D03*
X202775000Y-133925000D03*
D16*
X196220000Y-143250000D03*
X196220000Y-144750000D03*
X216270000Y-143250000D03*
X216270000Y-144750000D03*
X193675000Y-143250000D03*
X193675000Y-144750000D03*
X213730000Y-143250000D03*
X213730000Y-144750000D03*
X191140000Y-143250000D03*
X191140000Y-144750000D03*
X211190000Y-143250000D03*
X211190000Y-144750000D03*
X187900000Y-112150000D03*
X187900000Y-110650000D03*
X194000000Y-112150000D03*
X194000000Y-110650000D03*
X200000000Y-112150000D03*
X200000000Y-110650000D03*
X206200000Y-112150000D03*
X206200000Y-110650000D03*
X212300000Y-112150000D03*
X212300000Y-110650000D03*
X158200000Y-84135000D03*
X158200000Y-82635000D03*
X171000000Y-100250000D03*
X171000000Y-98750000D03*
X170975000Y-103750000D03*
X170975000Y-102250000D03*
X171400000Y-112250000D03*
X171400000Y-110750000D03*
X179700000Y-112250000D03*
X179700000Y-110750000D03*
D15*
X191750000Y-107600000D03*
X193250000Y-107600000D03*
D16*
X203900000Y-103800000D03*
X203900000Y-102300000D03*
D15*
X183000000Y-88000000D03*
X184500000Y-88000000D03*
X210150000Y-92225000D03*
X208650000Y-92225000D03*
X209530000Y-98850000D03*
X208030000Y-98850000D03*
X183000000Y-105800000D03*
X184500000Y-105800000D03*
X181400000Y-93200000D03*
X182900000Y-93200000D03*
X209520000Y-97200000D03*
X208020000Y-97200000D03*
X194900000Y-87400000D03*
X193400000Y-87400000D03*
X209530000Y-95710000D03*
X208030000Y-95710000D03*
X181375000Y-97725000D03*
X182875000Y-97725000D03*
X219625000Y-114700000D03*
X218125000Y-114700000D03*
X214525000Y-98700000D03*
X213025000Y-98700000D03*
D17*
X152700000Y-84350000D03*
X152700000Y-81350000D03*
X148450000Y-98350000D03*
X148450000Y-101350000D03*
X155750000Y-100850000D03*
X155750000Y-97850000D03*
X152500000Y-100850000D03*
X152500000Y-97850000D03*
X148600000Y-81850000D03*
X148600000Y-84850000D03*
X155950000Y-84350000D03*
X155950000Y-81350000D03*
D18*
X155283200Y-93114200D03*
X152383200Y-93114200D03*
X155273200Y-95504200D03*
X152373200Y-95504200D03*
X155143200Y-109624200D03*
X152243200Y-109624200D03*
D19*
X225123200Y-65334000D03*
X223623200Y-65334000D03*
X220726200Y-65334000D03*
X222226200Y-65334000D03*
D20*
X171275000Y-108350000D03*
X169175000Y-108350000D03*
D19*
X170850000Y-106575000D03*
X169350000Y-106575000D03*
D21*
X121500000Y-138200000D03*
X119600000Y-138200000D03*
D22*
X190273000Y-130332600D03*
D23*
X193223000Y-128582600D03*
X193223000Y-129082600D03*
X193223000Y-129582600D03*
X193223000Y-130082600D03*
X193223000Y-130582600D03*
X193223000Y-131082600D03*
X193223000Y-131582600D03*
X193223000Y-132082600D03*
D24*
X192523000Y-132782600D03*
X192023000Y-132782600D03*
X191523000Y-132782600D03*
X191023000Y-132782600D03*
X190523000Y-132782600D03*
X190023000Y-132782600D03*
X189523000Y-132782600D03*
X189023000Y-132782600D03*
X188523000Y-132782600D03*
X188023000Y-132782600D03*
D23*
X187323000Y-132082600D03*
X187323000Y-131582600D03*
X187323000Y-131082600D03*
X187323000Y-130582600D03*
X187323000Y-130082600D03*
X187323000Y-129582600D03*
X187323000Y-129082600D03*
X187323000Y-128582600D03*
D24*
X188023000Y-127882600D03*
X188523000Y-127882600D03*
X189023000Y-127882600D03*
X189523000Y-127882600D03*
X190023000Y-127882600D03*
X190523000Y-127882600D03*
X191023000Y-127882600D03*
X191523000Y-127882600D03*
X192023000Y-127882600D03*
X192523000Y-127882600D03*
D19*
X147900000Y-120750000D03*
X146400000Y-120750000D03*
D25*
X215700000Y-87459998D03*
X211800000Y-87459998D03*
X215700000Y-86189998D03*
X211800000Y-86189998D03*
X215700000Y-84919998D03*
X211800000Y-84919998D03*
X215700000Y-83649998D03*
X211800000Y-83649998D03*
X215700000Y-82379998D03*
X211800000Y-82379998D03*
D26*
X173000000Y-81300000D03*
X173950000Y-83300000D03*
X172050000Y-83300000D03*
D27*
X142200000Y-99750000D03*
X145000000Y-99750000D03*
D19*
X149460000Y-109650000D03*
X147960000Y-109650000D03*
D28*
X157860000Y-108795000D03*
X157860000Y-107295000D03*
D18*
X155133200Y-112014200D03*
X152233200Y-112014200D03*
D29*
X162360000Y-101399000D03*
X162360000Y-107241000D03*
D27*
X159660000Y-110445000D03*
X162460000Y-110445000D03*
D19*
X147940000Y-111215000D03*
X149440000Y-111215000D03*
X149460000Y-105245000D03*
X147960000Y-105245000D03*
D30*
X143360000Y-109340000D03*
X143360000Y-103940000D03*
D31*
X153070000Y-104730000D03*
X153070000Y-105930000D03*
X154270000Y-105930000D03*
X154270000Y-104730000D03*
D32*
X152695000Y-103755000D03*
D33*
X152695000Y-103342500D03*
D32*
X153345000Y-103755000D03*
D33*
X153345000Y-103342500D03*
D32*
X153995000Y-103755000D03*
D33*
X153995000Y-103342500D03*
D32*
X154645000Y-103755000D03*
D33*
X154645000Y-103342500D03*
D32*
X155245000Y-104355000D03*
D34*
X155657500Y-104355000D03*
D32*
X155245000Y-105005000D03*
D34*
X155657500Y-105005000D03*
D32*
X155245000Y-105655000D03*
D34*
X155657500Y-105655000D03*
D32*
X155245000Y-106305000D03*
D34*
X155657500Y-106305000D03*
D32*
X154645000Y-106905000D03*
D33*
X154645000Y-107317500D03*
D32*
X153995000Y-106905000D03*
D33*
X153995000Y-107317500D03*
D32*
X153345000Y-106905000D03*
D33*
X153345000Y-107317500D03*
D32*
X152695000Y-106905000D03*
D33*
X152695000Y-107317500D03*
D32*
X152095000Y-106305000D03*
D34*
X151682500Y-106305000D03*
D32*
X152095000Y-105655000D03*
D34*
X151682500Y-105655000D03*
D32*
X152095000Y-105005000D03*
D34*
X151682500Y-105005000D03*
D32*
X152095000Y-104355000D03*
D34*
X151682500Y-104355000D03*
D28*
X180800000Y-82000000D03*
X180800000Y-83500000D03*
D29*
X162500000Y-84893000D03*
X162500000Y-90735000D03*
D21*
X219050000Y-130050000D03*
X217150000Y-130050000D03*
D22*
X210323000Y-130332600D03*
D23*
X213273000Y-128582600D03*
X213273000Y-129082600D03*
X213273000Y-129582600D03*
X213273000Y-130082600D03*
X213273000Y-130582600D03*
X213273000Y-131082600D03*
X213273000Y-131582600D03*
X213273000Y-132082600D03*
D24*
X212573000Y-132782600D03*
X212073000Y-132782600D03*
X211573000Y-132782600D03*
X211073000Y-132782600D03*
X210573000Y-132782600D03*
X210073000Y-132782600D03*
X209573000Y-132782600D03*
X209073000Y-132782600D03*
X208573000Y-132782600D03*
X208073000Y-132782600D03*
D23*
X207373000Y-132082600D03*
X207373000Y-131582600D03*
X207373000Y-131082600D03*
X207373000Y-130582600D03*
X207373000Y-130082600D03*
X207373000Y-129582600D03*
X207373000Y-129082600D03*
X207373000Y-128582600D03*
D24*
X208073000Y-127882600D03*
X208573000Y-127882600D03*
X209073000Y-127882600D03*
X209573000Y-127882600D03*
X210073000Y-127882600D03*
X210573000Y-127882600D03*
X211073000Y-127882600D03*
X211573000Y-127882600D03*
X212073000Y-127882600D03*
X212573000Y-127882600D03*
D19*
X211750000Y-54750000D03*
X210250000Y-54750000D03*
D21*
X179450000Y-62900000D03*
X177550000Y-62900000D03*
D30*
X156000000Y-43000000D03*
X156000000Y-48400000D03*
D22*
X150677000Y-62667400D03*
D23*
X147727000Y-64417400D03*
X147727000Y-63917400D03*
X147727000Y-63417400D03*
X147727000Y-62917400D03*
X147727000Y-62417400D03*
X147727000Y-61917400D03*
X147727000Y-61417400D03*
X147727000Y-60917400D03*
D24*
X148427000Y-60217400D03*
X148927000Y-60217400D03*
X149427000Y-60217400D03*
X149927000Y-60217400D03*
X150427000Y-60217400D03*
X150927000Y-60217400D03*
X151427000Y-60217400D03*
X151927000Y-60217400D03*
X152427000Y-60217400D03*
X152927000Y-60217400D03*
D23*
X153627000Y-60917400D03*
X153627000Y-61417400D03*
X153627000Y-61917400D03*
X153627000Y-62417400D03*
X153627000Y-62917400D03*
X153627000Y-63417400D03*
X153627000Y-63917400D03*
X153627000Y-64417400D03*
D24*
X152927000Y-65117400D03*
X152427000Y-65117400D03*
X151927000Y-65117400D03*
X151427000Y-65117400D03*
X150927000Y-65117400D03*
X150427000Y-65117400D03*
X149927000Y-65117400D03*
X149427000Y-65117400D03*
X148927000Y-65117400D03*
X148427000Y-65117400D03*
D35*
X123100000Y-124775000D03*
X120900000Y-124775000D03*
X121668000Y-140250000D03*
X119468000Y-140250000D03*
X121700000Y-132300000D03*
X119500000Y-132300000D03*
X121700000Y-148200000D03*
X119500000Y-148200000D03*
X142150000Y-120750000D03*
X144350000Y-120750000D03*
X150700000Y-120750000D03*
X152900000Y-120750000D03*
X159250000Y-120750000D03*
X161450000Y-120750000D03*
X167800000Y-120750000D03*
X170000000Y-120750000D03*
X176450000Y-120750000D03*
X178650000Y-120750000D03*
X119550000Y-44150000D03*
X119550000Y-41950000D03*
X125178570Y-44150000D03*
X125178570Y-41950000D03*
X130807140Y-44150000D03*
X130807140Y-41950000D03*
X136435710Y-44150000D03*
X136435710Y-41950000D03*
D21*
X159400000Y-62900000D03*
X157500000Y-62900000D03*
X141950000Y-62950000D03*
X143850000Y-62950000D03*
X162000000Y-62950000D03*
X163900000Y-62950000D03*
X199400000Y-62900000D03*
X197500000Y-62900000D03*
X219400000Y-62900000D03*
X217500000Y-62900000D03*
X181950000Y-62950000D03*
X183850000Y-62950000D03*
X201950000Y-62950000D03*
X203850000Y-62950000D03*
X141600000Y-130100000D03*
X143500000Y-130100000D03*
X161600000Y-130100000D03*
X163500000Y-130100000D03*
X159050000Y-130050000D03*
X157150000Y-130050000D03*
X179050000Y-130050000D03*
X177150000Y-130050000D03*
X181550000Y-130100000D03*
X183450000Y-130100000D03*
X201600000Y-130100000D03*
X203500000Y-130100000D03*
X199000000Y-130050000D03*
X197100000Y-130050000D03*
X122850000Y-122825000D03*
X120950000Y-122825000D03*
X121500000Y-130250000D03*
X119600000Y-130250000D03*
X121500000Y-146150000D03*
X119600000Y-146150000D03*
D36*
X122364285Y-41700000D03*
X122364285Y-43600000D03*
X127992855Y-41700000D03*
X127992855Y-43600000D03*
D19*
X154700000Y-54750000D03*
X153200000Y-54750000D03*
X151750000Y-54750000D03*
X150250000Y-54750000D03*
D30*
X176050000Y-43000000D03*
X176050000Y-48400000D03*
X196000000Y-43000000D03*
X196000000Y-48400000D03*
X216000000Y-43000000D03*
X216000000Y-48400000D03*
D19*
X174750000Y-54750000D03*
X173250000Y-54750000D03*
X171800000Y-54750000D03*
X170300000Y-54750000D03*
X194700000Y-54750000D03*
X193200000Y-54750000D03*
X214700000Y-54750000D03*
X213200000Y-54750000D03*
X191750000Y-54750000D03*
X190250000Y-54750000D03*
D26*
X188600000Y-81300000D03*
X189550000Y-83300000D03*
X187650000Y-83300000D03*
X183400000Y-81300000D03*
X184350000Y-83300000D03*
X182450000Y-83300000D03*
X178200000Y-81300000D03*
X179150000Y-83300000D03*
X177250000Y-83300000D03*
X167650000Y-81300000D03*
X168600000Y-83300000D03*
X166700000Y-83300000D03*
D30*
X145000000Y-150000000D03*
X145000000Y-144600000D03*
X165000000Y-150000000D03*
X165000000Y-144600000D03*
X184950000Y-150000000D03*
X184950000Y-144600000D03*
X205000000Y-150000000D03*
X205000000Y-144600000D03*
D19*
X166300000Y-138250000D03*
X167800000Y-138250000D03*
X149250000Y-138250000D03*
X150750000Y-138250000D03*
X169250000Y-138250000D03*
X170750000Y-138250000D03*
X186250000Y-138250000D03*
X187750000Y-138250000D03*
X206300000Y-138250000D03*
X207800000Y-138250000D03*
X189200000Y-138250000D03*
X190700000Y-138250000D03*
X209250000Y-138250000D03*
X210750000Y-138250000D03*
D22*
X170727000Y-62667400D03*
D23*
X167777000Y-64417400D03*
X167777000Y-63917400D03*
X167777000Y-63417400D03*
X167777000Y-62917400D03*
X167777000Y-62417400D03*
X167777000Y-61917400D03*
X167777000Y-61417400D03*
X167777000Y-60917400D03*
D24*
X168477000Y-60217400D03*
X168977000Y-60217400D03*
X169477000Y-60217400D03*
X169977000Y-60217400D03*
X170477000Y-60217400D03*
X170977000Y-60217400D03*
X171477000Y-60217400D03*
X171977000Y-60217400D03*
X172477000Y-60217400D03*
X172977000Y-60217400D03*
D23*
X173677000Y-60917400D03*
X173677000Y-61417400D03*
X173677000Y-61917400D03*
X173677000Y-62417400D03*
X173677000Y-62917400D03*
X173677000Y-63417400D03*
X173677000Y-63917400D03*
X173677000Y-64417400D03*
D24*
X172977000Y-65117400D03*
X172477000Y-65117400D03*
X171977000Y-65117400D03*
X171477000Y-65117400D03*
X170977000Y-65117400D03*
X170477000Y-65117400D03*
X169977000Y-65117400D03*
X169477000Y-65117400D03*
X168977000Y-65117400D03*
X168477000Y-65117400D03*
D22*
X190677000Y-62667400D03*
D23*
X187727000Y-64417400D03*
X187727000Y-63917400D03*
X187727000Y-63417400D03*
X187727000Y-62917400D03*
X187727000Y-62417400D03*
X187727000Y-61917400D03*
X187727000Y-61417400D03*
X187727000Y-60917400D03*
D24*
X188427000Y-60217400D03*
X188927000Y-60217400D03*
X189427000Y-60217400D03*
X189927000Y-60217400D03*
X190427000Y-60217400D03*
X190927000Y-60217400D03*
X191427000Y-60217400D03*
X191927000Y-60217400D03*
X192427000Y-60217400D03*
X192927000Y-60217400D03*
D23*
X193627000Y-60917400D03*
X193627000Y-61417400D03*
X193627000Y-61917400D03*
X193627000Y-62417400D03*
X193627000Y-62917400D03*
X193627000Y-63417400D03*
X193627000Y-63917400D03*
X193627000Y-64417400D03*
D24*
X192927000Y-65117400D03*
X192427000Y-65117400D03*
X191927000Y-65117400D03*
X191427000Y-65117400D03*
X190927000Y-65117400D03*
X190427000Y-65117400D03*
X189927000Y-65117400D03*
X189427000Y-65117400D03*
X188927000Y-65117400D03*
X188427000Y-65117400D03*
D22*
X210677000Y-62667400D03*
D23*
X207727000Y-64417400D03*
X207727000Y-63917400D03*
X207727000Y-63417400D03*
X207727000Y-62917400D03*
X207727000Y-62417400D03*
X207727000Y-61917400D03*
X207727000Y-61417400D03*
X207727000Y-60917400D03*
D24*
X208427000Y-60217400D03*
X208927000Y-60217400D03*
X209427000Y-60217400D03*
X209927000Y-60217400D03*
X210427000Y-60217400D03*
X210927000Y-60217400D03*
X211427000Y-60217400D03*
X211927000Y-60217400D03*
X212427000Y-60217400D03*
X212927000Y-60217400D03*
D23*
X213627000Y-60917400D03*
X213627000Y-61417400D03*
X213627000Y-61917400D03*
X213627000Y-62417400D03*
X213627000Y-62917400D03*
X213627000Y-63417400D03*
X213627000Y-63917400D03*
X213627000Y-64417400D03*
D24*
X212927000Y-65117400D03*
X212427000Y-65117400D03*
X211927000Y-65117400D03*
X211427000Y-65117400D03*
X210927000Y-65117400D03*
X210427000Y-65117400D03*
X209927000Y-65117400D03*
X209427000Y-65117400D03*
X208927000Y-65117400D03*
X208427000Y-65117400D03*
D22*
X150323000Y-130332600D03*
D23*
X153273000Y-128582600D03*
X153273000Y-129082600D03*
X153273000Y-129582600D03*
X153273000Y-130082600D03*
X153273000Y-130582600D03*
X153273000Y-131082600D03*
X153273000Y-131582600D03*
X153273000Y-132082600D03*
D24*
X152573000Y-132782600D03*
X152073000Y-132782600D03*
X151573000Y-132782600D03*
X151073000Y-132782600D03*
X150573000Y-132782600D03*
X150073000Y-132782600D03*
X149573000Y-132782600D03*
X149073000Y-132782600D03*
X148573000Y-132782600D03*
X148073000Y-132782600D03*
D23*
X147373000Y-132082600D03*
X147373000Y-131582600D03*
X147373000Y-131082600D03*
X147373000Y-130582600D03*
X147373000Y-130082600D03*
X147373000Y-129582600D03*
X147373000Y-129082600D03*
X147373000Y-128582600D03*
D24*
X148073000Y-127882600D03*
X148573000Y-127882600D03*
X149073000Y-127882600D03*
X149573000Y-127882600D03*
X150073000Y-127882600D03*
X150573000Y-127882600D03*
X151073000Y-127882600D03*
X151573000Y-127882600D03*
X152073000Y-127882600D03*
X152573000Y-127882600D03*
D22*
X170323000Y-130332600D03*
D23*
X173273000Y-128582600D03*
X173273000Y-129082600D03*
X173273000Y-129582600D03*
X173273000Y-130082600D03*
X173273000Y-130582600D03*
X173273000Y-131082600D03*
X173273000Y-131582600D03*
X173273000Y-132082600D03*
D24*
X172573000Y-132782600D03*
X172073000Y-132782600D03*
X171573000Y-132782600D03*
X171073000Y-132782600D03*
X170573000Y-132782600D03*
X170073000Y-132782600D03*
X169573000Y-132782600D03*
X169073000Y-132782600D03*
X168573000Y-132782600D03*
X168073000Y-132782600D03*
D23*
X167373000Y-132082600D03*
X167373000Y-131582600D03*
X167373000Y-131082600D03*
X167373000Y-130582600D03*
X167373000Y-130082600D03*
X167373000Y-129582600D03*
X167373000Y-129082600D03*
X167373000Y-128582600D03*
D24*
X168073000Y-127882600D03*
X168573000Y-127882600D03*
X169073000Y-127882600D03*
X169573000Y-127882600D03*
X170073000Y-127882600D03*
X170573000Y-127882600D03*
X171073000Y-127882600D03*
X171573000Y-127882600D03*
X172073000Y-127882600D03*
X172573000Y-127882600D03*
D19*
X146300000Y-138250000D03*
X147800000Y-138250000D03*
D30*
X143500000Y-92835000D03*
X143500000Y-87435000D03*
D27*
X142300000Y-83135000D03*
X145100000Y-83135000D03*
X159800000Y-93935000D03*
X162600000Y-93935000D03*
D28*
X186400000Y-110800000D03*
X186400000Y-112300000D03*
X192500000Y-110800000D03*
X192500000Y-112300000D03*
X184825000Y-110800000D03*
X184825000Y-112300000D03*
X190925000Y-110800000D03*
X190925000Y-112300000D03*
X198482500Y-110800000D03*
X198482500Y-112300000D03*
X204709487Y-110800000D03*
X204709487Y-112300000D03*
X196900000Y-110800000D03*
X196900000Y-112300000D03*
X203159487Y-110800000D03*
X203159487Y-112300000D03*
X210782500Y-110800000D03*
X210782500Y-112300000D03*
X209200000Y-110800000D03*
X209200000Y-112300000D03*
D31*
X153210000Y-88220000D03*
X153210000Y-89420000D03*
X154410000Y-89420000D03*
X154410000Y-88220000D03*
D32*
X152835000Y-87245000D03*
D33*
X152835000Y-86832500D03*
D32*
X153485000Y-87245000D03*
D33*
X153485000Y-86832500D03*
D32*
X154135000Y-87245000D03*
D33*
X154135000Y-86832500D03*
D32*
X154785000Y-87245000D03*
D33*
X154785000Y-86832500D03*
D32*
X155385000Y-87845000D03*
D34*
X155797500Y-87845000D03*
D32*
X155385000Y-88495000D03*
D34*
X155797500Y-88495000D03*
D32*
X155385000Y-89145000D03*
D34*
X155797500Y-89145000D03*
D32*
X155385000Y-89795000D03*
D34*
X155797500Y-89795000D03*
D32*
X154785000Y-90395000D03*
D33*
X154785000Y-90807500D03*
D32*
X154135000Y-90395000D03*
D33*
X154135000Y-90807500D03*
D32*
X153485000Y-90395000D03*
D33*
X153485000Y-90807500D03*
D32*
X152835000Y-90395000D03*
D33*
X152835000Y-90807500D03*
D32*
X152235000Y-89795000D03*
D34*
X151822500Y-89795000D03*
D32*
X152235000Y-89145000D03*
D34*
X151822500Y-89145000D03*
D32*
X152235000Y-88495000D03*
D34*
X151822500Y-88495000D03*
D32*
X152235000Y-87845000D03*
D34*
X151822500Y-87845000D03*
D28*
X158000000Y-92285000D03*
X158000000Y-90785000D03*
D19*
X149600000Y-88735000D03*
X148100000Y-88735000D03*
X149600000Y-93135000D03*
X148100000Y-93135000D03*
X148080000Y-94705000D03*
X149580000Y-94705000D03*
D28*
X191200000Y-82000000D03*
X191200000Y-83500000D03*
X186000000Y-82000000D03*
X186000000Y-83500000D03*
D19*
X189350000Y-84900000D03*
X187850000Y-84900000D03*
X184150000Y-84900000D03*
X182650000Y-84900000D03*
D28*
X175600000Y-82000000D03*
X175600000Y-83500000D03*
D19*
X179000000Y-84900000D03*
X177500000Y-84900000D03*
X173800000Y-84900000D03*
X172300000Y-84900000D03*
D28*
X170300000Y-81950000D03*
X170300000Y-83450000D03*
D19*
X168400000Y-84900000D03*
X166900000Y-84900000D03*
D28*
X169550000Y-100400000D03*
X169550000Y-98900000D03*
X169500000Y-103900000D03*
X169500000Y-102400000D03*
D19*
X156300000Y-120750000D03*
X154800000Y-120750000D03*
D28*
X169825000Y-110900000D03*
X169825000Y-112400000D03*
D19*
X164850000Y-120750000D03*
X163350000Y-120750000D03*
X173100000Y-120750000D03*
X171600000Y-120750000D03*
D28*
X178150000Y-110900000D03*
X178150000Y-112400000D03*
D19*
X181750000Y-120750000D03*
X180250000Y-120750000D03*
D37*
X208190000Y-93910000D03*
X210190000Y-93910000D03*
D19*
X207920000Y-100340000D03*
X209420000Y-100340000D03*
D38*
X200950000Y-91400000D03*
X200950000Y-91900000D03*
X200950000Y-92400000D03*
X200950000Y-92900000D03*
X200950000Y-93400000D03*
X200950000Y-93900000D03*
X200950000Y-94400000D03*
X200950000Y-94900000D03*
X200950000Y-95400000D03*
X200950000Y-95900000D03*
X200950000Y-96400000D03*
X200950000Y-96900000D03*
X200950000Y-97400000D03*
X200950000Y-97900000D03*
X200950000Y-98400000D03*
X200950000Y-98900000D03*
X200950000Y-99400000D03*
X200950000Y-99900000D03*
X200950000Y-100400000D03*
X200950000Y-100900000D03*
X200950000Y-101400000D03*
X200950000Y-101900000D03*
X200950000Y-102400000D03*
X200950000Y-102900000D03*
X200950000Y-103400000D03*
D39*
X199300000Y-105050000D03*
X198800000Y-105050000D03*
X198300000Y-105050000D03*
X197800000Y-105050000D03*
X197300000Y-105050000D03*
X196800000Y-105050000D03*
X196300000Y-105050000D03*
X195800000Y-105050000D03*
X195300000Y-105050000D03*
X194800000Y-105050000D03*
X194300000Y-105050000D03*
X193800000Y-105050000D03*
X193300000Y-105050000D03*
X192800000Y-105050000D03*
X192300000Y-105050000D03*
X191800000Y-105050000D03*
X191300000Y-105050000D03*
X190800000Y-105050000D03*
X190300000Y-105050000D03*
X189800000Y-105050000D03*
X189300000Y-105050000D03*
X188800000Y-105050000D03*
X188300000Y-105050000D03*
X187800000Y-105050000D03*
X187300000Y-105050000D03*
D38*
X185650000Y-103400000D03*
X185650000Y-102900000D03*
X185650000Y-102400000D03*
X185650000Y-101900000D03*
X185650000Y-101400000D03*
X185650000Y-100900000D03*
X185650000Y-100400000D03*
X185650000Y-99900000D03*
X185650000Y-99400000D03*
X185650000Y-98900000D03*
X185650000Y-98400000D03*
X185650000Y-97900000D03*
X185650000Y-97400000D03*
X185650000Y-96900000D03*
X185650000Y-96400000D03*
X185650000Y-95900000D03*
X185650000Y-95400000D03*
X185650000Y-94900000D03*
X185650000Y-94400000D03*
X185650000Y-93900000D03*
X185650000Y-93400000D03*
X185650000Y-92900000D03*
X185650000Y-92400000D03*
X185650000Y-91900000D03*
X185650000Y-91400000D03*
D39*
X187300000Y-89750000D03*
X187800000Y-89750000D03*
X188300000Y-89750000D03*
X188800000Y-89750000D03*
X189300000Y-89750000D03*
X189800000Y-89750000D03*
X190300000Y-89750000D03*
X190800000Y-89750000D03*
X191300000Y-89750000D03*
X191800000Y-89750000D03*
X192300000Y-89750000D03*
X192800000Y-89750000D03*
X193300000Y-89750000D03*
X193800000Y-89750000D03*
X194300000Y-89750000D03*
X194800000Y-89750000D03*
X195300000Y-89750000D03*
X195800000Y-89750000D03*
X196300000Y-89750000D03*
X196800000Y-89750000D03*
X197300000Y-89750000D03*
X197800000Y-89750000D03*
X198300000Y-89750000D03*
X198800000Y-89750000D03*
X199300000Y-89750000D03*
D40*
X227325000Y-121275000D03*
X221875000Y-121275000D03*
X227325000Y-130175000D03*
X221875000Y-130175000D03*
D41*
X221775000Y-124125000D03*
X221775000Y-124925000D03*
X221775000Y-125725000D03*
X221775000Y-126525000D03*
X221775000Y-127325000D03*
D28*
X172350000Y-91400000D03*
X172350000Y-89900000D03*
D19*
X207700000Y-90650000D03*
X209200000Y-90650000D03*
D42*
X174110000Y-88225000D03*
X175380000Y-88225000D03*
X176650000Y-88225000D03*
X177920000Y-88225000D03*
X177920000Y-93625000D03*
X176650000Y-93625000D03*
X175380000Y-93625000D03*
X174110000Y-93625000D03*
D10*
G36*
X206640142Y-93128674D02*
G01*
X206663803Y-93132184D01*
X206687007Y-93137996D01*
X206709529Y-93146054D01*
X206731153Y-93156282D01*
X206751670Y-93168579D01*
X206770883Y-93182829D01*
X206788607Y-93198893D01*
X206804671Y-93216617D01*
X206818921Y-93235830D01*
X206831218Y-93256347D01*
X206841446Y-93277971D01*
X206849504Y-93300493D01*
X206855316Y-93323697D01*
X206858826Y-93347358D01*
X206860000Y-93371250D01*
X206860000Y-93858750D01*
X206858826Y-93882642D01*
X206855316Y-93906303D01*
X206849504Y-93929507D01*
X206841446Y-93952029D01*
X206831218Y-93973653D01*
X206818921Y-93994170D01*
X206804671Y-94013383D01*
X206788607Y-94031107D01*
X206770883Y-94047171D01*
X206751670Y-94061421D01*
X206731153Y-94073718D01*
X206709529Y-94083946D01*
X206687007Y-94092004D01*
X206663803Y-94097816D01*
X206640142Y-94101326D01*
X206616250Y-94102500D01*
X205703750Y-94102500D01*
X205679858Y-94101326D01*
X205656197Y-94097816D01*
X205632993Y-94092004D01*
X205610471Y-94083946D01*
X205588847Y-94073718D01*
X205568330Y-94061421D01*
X205549117Y-94047171D01*
X205531393Y-94031107D01*
X205515329Y-94013383D01*
X205501079Y-93994170D01*
X205488782Y-93973653D01*
X205478554Y-93952029D01*
X205470496Y-93929507D01*
X205464684Y-93906303D01*
X205461174Y-93882642D01*
X205460000Y-93858750D01*
X205460000Y-93371250D01*
X205461174Y-93347358D01*
X205464684Y-93323697D01*
X205470496Y-93300493D01*
X205478554Y-93277971D01*
X205488782Y-93256347D01*
X205501079Y-93235830D01*
X205515329Y-93216617D01*
X205531393Y-93198893D01*
X205549117Y-93182829D01*
X205568330Y-93168579D01*
X205588847Y-93156282D01*
X205610471Y-93146054D01*
X205632993Y-93137996D01*
X205656197Y-93132184D01*
X205679858Y-93128674D01*
X205703750Y-93127500D01*
X206616250Y-93127500D01*
X206640142Y-93128674D01*
G37*
G36*
X206640142Y-95003674D02*
G01*
X206663803Y-95007184D01*
X206687007Y-95012996D01*
X206709529Y-95021054D01*
X206731153Y-95031282D01*
X206751670Y-95043579D01*
X206770883Y-95057829D01*
X206788607Y-95073893D01*
X206804671Y-95091617D01*
X206818921Y-95110830D01*
X206831218Y-95131347D01*
X206841446Y-95152971D01*
X206849504Y-95175493D01*
X206855316Y-95198697D01*
X206858826Y-95222358D01*
X206860000Y-95246250D01*
X206860000Y-95733750D01*
X206858826Y-95757642D01*
X206855316Y-95781303D01*
X206849504Y-95804507D01*
X206841446Y-95827029D01*
X206831218Y-95848653D01*
X206818921Y-95869170D01*
X206804671Y-95888383D01*
X206788607Y-95906107D01*
X206770883Y-95922171D01*
X206751670Y-95936421D01*
X206731153Y-95948718D01*
X206709529Y-95958946D01*
X206687007Y-95967004D01*
X206663803Y-95972816D01*
X206640142Y-95976326D01*
X206616250Y-95977500D01*
X205703750Y-95977500D01*
X205679858Y-95976326D01*
X205656197Y-95972816D01*
X205632993Y-95967004D01*
X205610471Y-95958946D01*
X205588847Y-95948718D01*
X205568330Y-95936421D01*
X205549117Y-95922171D01*
X205531393Y-95906107D01*
X205515329Y-95888383D01*
X205501079Y-95869170D01*
X205488782Y-95848653D01*
X205478554Y-95827029D01*
X205470496Y-95804507D01*
X205464684Y-95781303D01*
X205461174Y-95757642D01*
X205460000Y-95733750D01*
X205460000Y-95246250D01*
X205461174Y-95222358D01*
X205464684Y-95198697D01*
X205470496Y-95175493D01*
X205478554Y-95152971D01*
X205488782Y-95131347D01*
X205501079Y-95110830D01*
X205515329Y-95091617D01*
X205531393Y-95073893D01*
X205549117Y-95057829D01*
X205568330Y-95043579D01*
X205588847Y-95031282D01*
X205610471Y-95021054D01*
X205632993Y-95012996D01*
X205656197Y-95007184D01*
X205679858Y-95003674D01*
X205703750Y-95002500D01*
X206616250Y-95002500D01*
X206640142Y-95003674D01*
G37*
D37*
X217875000Y-116600000D03*
X219875000Y-116600000D03*
D43*
X216425000Y-102850000D03*
X216425000Y-104850000D03*
D27*
X215950000Y-117325000D03*
X215950000Y-114525000D03*
D10*
G36*
X218142642Y-117901174D02*
G01*
X218166303Y-117904684D01*
X218189507Y-117910496D01*
X218212029Y-117918554D01*
X218233653Y-117928782D01*
X218254170Y-117941079D01*
X218273383Y-117955329D01*
X218291107Y-117971393D01*
X218307171Y-117989117D01*
X218321421Y-118008330D01*
X218333718Y-118028847D01*
X218343946Y-118050471D01*
X218352004Y-118072993D01*
X218357816Y-118096197D01*
X218361326Y-118119858D01*
X218362500Y-118143750D01*
X218362500Y-119056250D01*
X218361326Y-119080142D01*
X218357816Y-119103803D01*
X218352004Y-119127007D01*
X218343946Y-119149529D01*
X218333718Y-119171153D01*
X218321421Y-119191670D01*
X218307171Y-119210883D01*
X218291107Y-119228607D01*
X218273383Y-119244671D01*
X218254170Y-119258921D01*
X218233653Y-119271218D01*
X218212029Y-119281446D01*
X218189507Y-119289504D01*
X218166303Y-119295316D01*
X218142642Y-119298826D01*
X218118750Y-119300000D01*
X217631250Y-119300000D01*
X217607358Y-119298826D01*
X217583697Y-119295316D01*
X217560493Y-119289504D01*
X217537971Y-119281446D01*
X217516347Y-119271218D01*
X217495830Y-119258921D01*
X217476617Y-119244671D01*
X217458893Y-119228607D01*
X217442829Y-119210883D01*
X217428579Y-119191670D01*
X217416282Y-119171153D01*
X217406054Y-119149529D01*
X217397996Y-119127007D01*
X217392184Y-119103803D01*
X217388674Y-119080142D01*
X217387500Y-119056250D01*
X217387500Y-118143750D01*
X217388674Y-118119858D01*
X217392184Y-118096197D01*
X217397996Y-118072993D01*
X217406054Y-118050471D01*
X217416282Y-118028847D01*
X217428579Y-118008330D01*
X217442829Y-117989117D01*
X217458893Y-117971393D01*
X217476617Y-117955329D01*
X217495830Y-117941079D01*
X217516347Y-117928782D01*
X217537971Y-117918554D01*
X217560493Y-117910496D01*
X217583697Y-117904684D01*
X217607358Y-117901174D01*
X217631250Y-117900000D01*
X218118750Y-117900000D01*
X218142642Y-117901174D01*
G37*
G36*
X220017642Y-117901174D02*
G01*
X220041303Y-117904684D01*
X220064507Y-117910496D01*
X220087029Y-117918554D01*
X220108653Y-117928782D01*
X220129170Y-117941079D01*
X220148383Y-117955329D01*
X220166107Y-117971393D01*
X220182171Y-117989117D01*
X220196421Y-118008330D01*
X220208718Y-118028847D01*
X220218946Y-118050471D01*
X220227004Y-118072993D01*
X220232816Y-118096197D01*
X220236326Y-118119858D01*
X220237500Y-118143750D01*
X220237500Y-119056250D01*
X220236326Y-119080142D01*
X220232816Y-119103803D01*
X220227004Y-119127007D01*
X220218946Y-119149529D01*
X220208718Y-119171153D01*
X220196421Y-119191670D01*
X220182171Y-119210883D01*
X220166107Y-119228607D01*
X220148383Y-119244671D01*
X220129170Y-119258921D01*
X220108653Y-119271218D01*
X220087029Y-119281446D01*
X220064507Y-119289504D01*
X220041303Y-119295316D01*
X220017642Y-119298826D01*
X219993750Y-119300000D01*
X219506250Y-119300000D01*
X219482358Y-119298826D01*
X219458697Y-119295316D01*
X219435493Y-119289504D01*
X219412971Y-119281446D01*
X219391347Y-119271218D01*
X219370830Y-119258921D01*
X219351617Y-119244671D01*
X219333893Y-119228607D01*
X219317829Y-119210883D01*
X219303579Y-119191670D01*
X219291282Y-119171153D01*
X219281054Y-119149529D01*
X219272996Y-119127007D01*
X219267184Y-119103803D01*
X219263674Y-119080142D01*
X219262500Y-119056250D01*
X219262500Y-118143750D01*
X219263674Y-118119858D01*
X219267184Y-118096197D01*
X219272996Y-118072993D01*
X219281054Y-118050471D01*
X219291282Y-118028847D01*
X219303579Y-118008330D01*
X219317829Y-117989117D01*
X219333893Y-117971393D01*
X219351617Y-117955329D01*
X219370830Y-117941079D01*
X219391347Y-117928782D01*
X219412971Y-117918554D01*
X219435493Y-117910496D01*
X219458697Y-117904684D01*
X219482358Y-117901174D01*
X219506250Y-117900000D01*
X219993750Y-117900000D01*
X220017642Y-117901174D01*
G37*
D19*
X218700000Y-101825000D03*
X220200000Y-101825000D03*
X220225000Y-96425000D03*
X218725000Y-96425000D03*
D28*
X216700000Y-96700000D03*
X216700000Y-95200000D03*
D44*
X212675000Y-96850000D03*
X212675000Y-94950000D03*
X214875000Y-94950000D03*
X214875000Y-95900000D03*
X214875000Y-96850000D03*
D45*
X216750000Y-99225000D03*
X218750000Y-98275000D03*
X218750000Y-100175000D03*
D46*
X127050000Y-123170000D03*
X127050000Y-124440000D03*
X127050000Y-125710000D03*
X127050000Y-121900000D03*
X132650000Y-121900000D03*
X132650000Y-125710000D03*
X132650000Y-124440000D03*
X132650000Y-123170000D03*
D47*
X128737500Y-122710000D03*
X128737500Y-124900000D03*
D48*
X130647500Y-122710000D03*
X130647500Y-124900000D03*
D46*
X127050000Y-139233332D03*
X127050000Y-140503332D03*
X127050000Y-141773332D03*
X127050000Y-137963332D03*
X132650000Y-137963332D03*
X132650000Y-141773332D03*
X132650000Y-140503332D03*
X132650000Y-139233332D03*
D47*
X128737500Y-138773332D03*
X128737500Y-140963332D03*
D48*
X130647500Y-138773332D03*
X130647500Y-140963332D03*
D46*
X127050000Y-147265000D03*
X127050000Y-148535000D03*
X127050000Y-149805000D03*
X127050000Y-145995000D03*
X132650000Y-145995000D03*
X132650000Y-149805000D03*
X132650000Y-148535000D03*
X132650000Y-147265000D03*
D47*
X128737500Y-146805000D03*
X128737500Y-148995000D03*
D48*
X130647500Y-146805000D03*
X130647500Y-148995000D03*
D46*
X127050000Y-131201666D03*
X127050000Y-132471666D03*
X127050000Y-133741666D03*
X127050000Y-129931666D03*
X132650000Y-129931666D03*
X132650000Y-133741666D03*
X132650000Y-132471666D03*
X132650000Y-131201666D03*
D47*
X128737500Y-130741666D03*
X128737500Y-132931666D03*
D48*
X130647500Y-130741666D03*
X130647500Y-132931666D03*
D37*
X212800000Y-100575000D03*
X214800000Y-100575000D03*
D28*
X137626000Y-126911571D03*
X137626000Y-125411571D03*
X137586000Y-142932855D03*
X137586000Y-141432855D03*
X137626000Y-121615000D03*
X137626000Y-123115000D03*
X137586000Y-137636284D03*
X137586000Y-139136284D03*
X137586000Y-134979713D03*
X137586000Y-133479713D03*
X137586000Y-150876000D03*
X137586000Y-149376000D03*
X137586000Y-129683142D03*
X137586000Y-131183142D03*
X137586000Y-145579426D03*
X137586000Y-147079426D03*
X133621425Y-41900000D03*
X133621425Y-43400000D03*
X139250000Y-41900000D03*
X139250000Y-43400000D03*
D49*
X227500000Y-134325000D03*
X227500000Y-142275000D03*
X223000000Y-134325000D03*
X223000000Y-142275000D03*
D19*
X225354800Y-132202000D03*
X223854800Y-132202000D03*
M02*
