%TF.GenerationSoftware,KiCad,Pcbnew,(6.0.0)*%
%TF.CreationDate,2022-01-17T21:10:59+01:00*%
%TF.ProjectId,Daylight,4461796c-6967-4687-942e-6b696361645f,rev?*%
%TF.SameCoordinates,Original*%
%TF.FileFunction,Soldermask,Top*%
%TF.FilePolarity,Negative*%
%FSLAX46Y46*%
G04 Gerber Fmt 4.6, Leading zero omitted, Abs format (unit mm)*
G04 Created by KiCad (PCBNEW (6.0.0)) date 2022-01-17 21:10:59*
%MOMM*%
%LPD*%
G01*
G04 APERTURE LIST*
G04 Aperture macros list*
%AMRoundRect*
0 Rectangle with rounded corners*
0 $1 Rounding radius*
0 $2 $3 $4 $5 $6 $7 $8 $9 X,Y pos of 4 corners*
0 Add a 4 corners polygon primitive as box body*
4,1,4,$2,$3,$4,$5,$6,$7,$8,$9,$2,$3,0*
0 Add four circle primitives for the rounded corners*
1,1,$1+$1,$2,$3*
1,1,$1+$1,$4,$5*
1,1,$1+$1,$6,$7*
1,1,$1+$1,$8,$9*
0 Add four rect primitives between the rounded corners*
20,1,$1+$1,$2,$3,$4,$5,0*
20,1,$1+$1,$4,$5,$6,$7,0*
20,1,$1+$1,$6,$7,$8,$9,0*
20,1,$1+$1,$8,$9,$2,$3,0*%
G04 Aperture macros list end*
%ADD10RoundRect,0.250000X-1.075000X0.400000X-1.075000X-0.400000X1.075000X-0.400000X1.075000X0.400000X0*%
%ADD11C,0.800000*%
%ADD12C,6.400000*%
%ADD13R,2.200000X2.500000*%
%ADD14R,2.200000X1.550000*%
%ADD15R,1.700000X1.700000*%
%ADD16O,1.700000X1.700000*%
G04 APERTURE END LIST*
D10*
%TO.C,R6*%
X232750000Y-31450000D03*
X232750000Y-34550000D03*
%TD*%
D11*
%TO.C,H2*%
X248520584Y-31302944D03*
D12*
X246823528Y-33000000D03*
D11*
X245126472Y-34697056D03*
X246823528Y-35400000D03*
X249223528Y-33000000D03*
X244423528Y-33000000D03*
X246823528Y-30600000D03*
X248520584Y-34697056D03*
X245126472Y-31302944D03*
%TD*%
D13*
%TO.C,D8*%
X126823529Y-34050000D03*
D14*
X126823529Y-31475000D03*
%TD*%
D10*
%TO.C,R4*%
X162117646Y-31450000D03*
X162117646Y-34550000D03*
%TD*%
D13*
%TO.C,D18*%
X268000000Y-34050000D03*
D14*
X268000000Y-31475000D03*
%TD*%
D13*
%TO.C,D17*%
X253882352Y-34050000D03*
D14*
X253882352Y-31475000D03*
%TD*%
D13*
%TO.C,D13*%
X197411764Y-34050000D03*
D14*
X197411764Y-31475000D03*
%TD*%
D13*
%TO.C,D2*%
X42117647Y-34050000D03*
D14*
X42117647Y-31475000D03*
%TD*%
D13*
%TO.C,D11*%
X169176470Y-34050000D03*
D14*
X169176470Y-31475000D03*
%TD*%
D13*
%TO.C,D10*%
X155058822Y-34050000D03*
D14*
X155058822Y-31475000D03*
%TD*%
D13*
%TO.C,D12*%
X183294117Y-34050000D03*
D14*
X183294117Y-31475000D03*
%TD*%
D13*
%TO.C,D4*%
X70352941Y-34050000D03*
D14*
X70352941Y-31475000D03*
%TD*%
D11*
%TO.C,H1*%
X50697056Y-34697056D03*
X51400000Y-33000000D03*
X50697056Y-31302944D03*
X49000000Y-35400000D03*
X47302944Y-31302944D03*
X46600000Y-33000000D03*
D12*
X49000000Y-33000000D03*
D11*
X49000000Y-30600000D03*
X47302944Y-34697056D03*
%TD*%
D13*
%TO.C,D6*%
X98588235Y-34050000D03*
D14*
X98588235Y-31475000D03*
%TD*%
D13*
%TO.C,D1*%
X28000000Y-34050000D03*
D14*
X28000000Y-31475000D03*
%TD*%
D13*
%TO.C,D5*%
X84470588Y-34050000D03*
D14*
X84470588Y-31475000D03*
%TD*%
D13*
%TO.C,D7*%
X112705882Y-34050000D03*
D14*
X112705882Y-31475000D03*
%TD*%
D13*
%TO.C,D15*%
X225647058Y-34050000D03*
D14*
X225647058Y-31475000D03*
%TD*%
D10*
%TO.C,R1*%
X63500000Y-31450000D03*
X63500000Y-34550000D03*
%TD*%
D13*
%TO.C,D9*%
X140941175Y-34050000D03*
D14*
X140941175Y-31475000D03*
%TD*%
D13*
%TO.C,D3*%
X56235294Y-34050000D03*
D14*
X56235294Y-31475000D03*
%TD*%
D10*
%TO.C,R5*%
X218588234Y-31450000D03*
X218588234Y-34550000D03*
%TD*%
%TO.C,R3*%
X133882352Y-31450000D03*
X133882352Y-34550000D03*
%TD*%
D13*
%TO.C,D14*%
X211529411Y-34050000D03*
D14*
X211529411Y-31475000D03*
%TD*%
D13*
%TO.C,D16*%
X239764705Y-34050000D03*
D14*
X239764705Y-31475000D03*
%TD*%
D10*
%TO.C,R2*%
X77411764Y-31450000D03*
X77411764Y-34550000D03*
%TD*%
D15*
%TO.C,J1*%
X38500000Y-34265000D03*
D16*
X38500000Y-31725000D03*
%TD*%
D15*
%TO.C,J2*%
X257500000Y-34275000D03*
D16*
X257500000Y-31735000D03*
%TD*%
M02*
