%TF.GenerationSoftware,KiCad,Pcbnew,(6.0.0)*%
%TF.CreationDate,2022-01-17T21:10:59+01:00*%
%TF.ProjectId,Daylight,4461796c-6967-4687-942e-6b696361645f,rev?*%
%TF.SameCoordinates,Original*%
%TF.FileFunction,Legend,Top*%
%TF.FilePolarity,Positive*%
%FSLAX46Y46*%
G04 Gerber Fmt 4.6, Leading zero omitted, Abs format (unit mm)*
G04 Created by KiCad (PCBNEW (6.0.0)) date 2022-01-17 21:10:59*
%MOMM*%
%LPD*%
G01*
G04 APERTURE LIST*
%ADD10C,0.150000*%
%ADD11C,0.120000*%
G04 APERTURE END LIST*
D10*
%TO.C,R6*%
X232633333Y-37052380D02*
X232300000Y-36576190D01*
X232061904Y-37052380D02*
X232061904Y-36052380D01*
X232442857Y-36052380D01*
X232538095Y-36100000D01*
X232585714Y-36147619D01*
X232633333Y-36242857D01*
X232633333Y-36385714D01*
X232585714Y-36480952D01*
X232538095Y-36528571D01*
X232442857Y-36576190D01*
X232061904Y-36576190D01*
X233490476Y-36052380D02*
X233300000Y-36052380D01*
X233204761Y-36100000D01*
X233157142Y-36147619D01*
X233061904Y-36290476D01*
X233014285Y-36480952D01*
X233014285Y-36861904D01*
X233061904Y-36957142D01*
X233109523Y-37004761D01*
X233204761Y-37052380D01*
X233395238Y-37052380D01*
X233490476Y-37004761D01*
X233538095Y-36957142D01*
X233585714Y-36861904D01*
X233585714Y-36623809D01*
X233538095Y-36528571D01*
X233490476Y-36480952D01*
X233395238Y-36433333D01*
X233204761Y-36433333D01*
X233109523Y-36480952D01*
X233061904Y-36528571D01*
X233014285Y-36623809D01*
%TO.C,R4*%
X162033333Y-37052380D02*
X161700000Y-36576190D01*
X161461904Y-37052380D02*
X161461904Y-36052380D01*
X161842857Y-36052380D01*
X161938095Y-36100000D01*
X161985714Y-36147619D01*
X162033333Y-36242857D01*
X162033333Y-36385714D01*
X161985714Y-36480952D01*
X161938095Y-36528571D01*
X161842857Y-36576190D01*
X161461904Y-36576190D01*
X162890476Y-36385714D02*
X162890476Y-37052380D01*
X162652380Y-36004761D02*
X162414285Y-36719047D01*
X163033333Y-36719047D01*
%TO.C,R1*%
X63433333Y-37052380D02*
X63100000Y-36576190D01*
X62861904Y-37052380D02*
X62861904Y-36052380D01*
X63242857Y-36052380D01*
X63338095Y-36100000D01*
X63385714Y-36147619D01*
X63433333Y-36242857D01*
X63433333Y-36385714D01*
X63385714Y-36480952D01*
X63338095Y-36528571D01*
X63242857Y-36576190D01*
X62861904Y-36576190D01*
X64385714Y-37052380D02*
X63814285Y-37052380D01*
X64100000Y-37052380D02*
X64100000Y-36052380D01*
X64004761Y-36195238D01*
X63909523Y-36290476D01*
X63814285Y-36338095D01*
%TO.C,R5*%
X218433333Y-37052380D02*
X218100000Y-36576190D01*
X217861904Y-37052380D02*
X217861904Y-36052380D01*
X218242857Y-36052380D01*
X218338095Y-36100000D01*
X218385714Y-36147619D01*
X218433333Y-36242857D01*
X218433333Y-36385714D01*
X218385714Y-36480952D01*
X218338095Y-36528571D01*
X218242857Y-36576190D01*
X217861904Y-36576190D01*
X219338095Y-36052380D02*
X218861904Y-36052380D01*
X218814285Y-36528571D01*
X218861904Y-36480952D01*
X218957142Y-36433333D01*
X219195238Y-36433333D01*
X219290476Y-36480952D01*
X219338095Y-36528571D01*
X219385714Y-36623809D01*
X219385714Y-36861904D01*
X219338095Y-36957142D01*
X219290476Y-37004761D01*
X219195238Y-37052380D01*
X218957142Y-37052380D01*
X218861904Y-37004761D01*
X218814285Y-36957142D01*
%TO.C,R3*%
X133633333Y-37052380D02*
X133300000Y-36576190D01*
X133061904Y-37052380D02*
X133061904Y-36052380D01*
X133442857Y-36052380D01*
X133538095Y-36100000D01*
X133585714Y-36147619D01*
X133633333Y-36242857D01*
X133633333Y-36385714D01*
X133585714Y-36480952D01*
X133538095Y-36528571D01*
X133442857Y-36576190D01*
X133061904Y-36576190D01*
X133966666Y-36052380D02*
X134585714Y-36052380D01*
X134252380Y-36433333D01*
X134395238Y-36433333D01*
X134490476Y-36480952D01*
X134538095Y-36528571D01*
X134585714Y-36623809D01*
X134585714Y-36861904D01*
X134538095Y-36957142D01*
X134490476Y-37004761D01*
X134395238Y-37052380D01*
X134109523Y-37052380D01*
X134014285Y-37004761D01*
X133966666Y-36957142D01*
%TO.C,R2*%
X77233333Y-37052380D02*
X76900000Y-36576190D01*
X76661904Y-37052380D02*
X76661904Y-36052380D01*
X77042857Y-36052380D01*
X77138095Y-36100000D01*
X77185714Y-36147619D01*
X77233333Y-36242857D01*
X77233333Y-36385714D01*
X77185714Y-36480952D01*
X77138095Y-36528571D01*
X77042857Y-36576190D01*
X76661904Y-36576190D01*
X77614285Y-36147619D02*
X77661904Y-36100000D01*
X77757142Y-36052380D01*
X77995238Y-36052380D01*
X78090476Y-36100000D01*
X78138095Y-36147619D01*
X78185714Y-36242857D01*
X78185714Y-36338095D01*
X78138095Y-36480952D01*
X77566666Y-37052380D01*
X78185714Y-37052380D01*
D11*
%TO.C,R6*%
X231395000Y-32276263D02*
X231395000Y-33723737D01*
X234105000Y-32276263D02*
X234105000Y-33723737D01*
%TO.C,D8*%
X125223529Y-31600000D02*
X125223529Y-35500000D01*
X125223529Y-35500000D02*
X128423529Y-35500000D01*
X128423529Y-31600000D02*
X128423529Y-35500000D01*
%TO.C,R4*%
X160762646Y-32276263D02*
X160762646Y-33723737D01*
X163472646Y-32276263D02*
X163472646Y-33723737D01*
%TO.C,D18*%
X266400000Y-31600000D02*
X266400000Y-35500000D01*
X266400000Y-35500000D02*
X269600000Y-35500000D01*
X269600000Y-31600000D02*
X269600000Y-35500000D01*
%TO.C,D17*%
X255482352Y-31600000D02*
X255482352Y-35500000D01*
X252282352Y-31600000D02*
X252282352Y-35500000D01*
X252282352Y-35500000D02*
X255482352Y-35500000D01*
%TO.C,D13*%
X195811764Y-35500000D02*
X199011764Y-35500000D01*
X199011764Y-31600000D02*
X199011764Y-35500000D01*
X195811764Y-31600000D02*
X195811764Y-35500000D01*
%TO.C,D2*%
X40517647Y-31600000D02*
X40517647Y-35500000D01*
X43717647Y-31600000D02*
X43717647Y-35500000D01*
X40517647Y-35500000D02*
X43717647Y-35500000D01*
%TO.C,D11*%
X167576470Y-31600000D02*
X167576470Y-35500000D01*
X167576470Y-35500000D02*
X170776470Y-35500000D01*
X170776470Y-31600000D02*
X170776470Y-35500000D01*
%TO.C,D10*%
X153458822Y-35500000D02*
X156658822Y-35500000D01*
X156658822Y-31600000D02*
X156658822Y-35500000D01*
X153458822Y-31600000D02*
X153458822Y-35500000D01*
%TO.C,D12*%
X181694117Y-31600000D02*
X181694117Y-35500000D01*
X181694117Y-35500000D02*
X184894117Y-35500000D01*
X184894117Y-31600000D02*
X184894117Y-35500000D01*
%TO.C,D4*%
X68752941Y-35500000D02*
X71952941Y-35500000D01*
X68752941Y-31600000D02*
X68752941Y-35500000D01*
X71952941Y-31600000D02*
X71952941Y-35500000D01*
%TO.C,D6*%
X96988235Y-35500000D02*
X100188235Y-35500000D01*
X96988235Y-31600000D02*
X96988235Y-35500000D01*
X100188235Y-31600000D02*
X100188235Y-35500000D01*
%TO.C,D1*%
X26400000Y-31600000D02*
X26400000Y-35500000D01*
X29600000Y-31600000D02*
X29600000Y-35500000D01*
X26400000Y-35500000D02*
X29600000Y-35500000D01*
%TO.C,D5*%
X82870588Y-35500000D02*
X86070588Y-35500000D01*
X82870588Y-31600000D02*
X82870588Y-35500000D01*
X86070588Y-31600000D02*
X86070588Y-35500000D01*
%TO.C,D7*%
X114305882Y-31600000D02*
X114305882Y-35500000D01*
X111105882Y-31600000D02*
X111105882Y-35500000D01*
X111105882Y-35500000D02*
X114305882Y-35500000D01*
%TO.C,D15*%
X224047058Y-31600000D02*
X224047058Y-35500000D01*
X227247058Y-31600000D02*
X227247058Y-35500000D01*
X224047058Y-35500000D02*
X227247058Y-35500000D01*
%TO.C,R1*%
X62145000Y-32276263D02*
X62145000Y-33723737D01*
X64855000Y-32276263D02*
X64855000Y-33723737D01*
%TO.C,D9*%
X142541175Y-31600000D02*
X142541175Y-35500000D01*
X139341175Y-31600000D02*
X139341175Y-35500000D01*
X139341175Y-35500000D02*
X142541175Y-35500000D01*
%TO.C,D3*%
X54635294Y-35500000D02*
X57835294Y-35500000D01*
X54635294Y-31600000D02*
X54635294Y-35500000D01*
X57835294Y-31600000D02*
X57835294Y-35500000D01*
%TO.C,R5*%
X217233234Y-32276263D02*
X217233234Y-33723737D01*
X219943234Y-32276263D02*
X219943234Y-33723737D01*
%TO.C,R3*%
X135237352Y-32276263D02*
X135237352Y-33723737D01*
X132527352Y-32276263D02*
X132527352Y-33723737D01*
%TO.C,D14*%
X209929411Y-31600000D02*
X209929411Y-35500000D01*
X209929411Y-35500000D02*
X213129411Y-35500000D01*
X213129411Y-31600000D02*
X213129411Y-35500000D01*
%TO.C,D16*%
X238164705Y-35500000D02*
X241364705Y-35500000D01*
X238164705Y-31600000D02*
X238164705Y-35500000D01*
X241364705Y-31600000D02*
X241364705Y-35500000D01*
%TO.C,R2*%
X76056764Y-32276263D02*
X76056764Y-33723737D01*
X78766764Y-32276263D02*
X78766764Y-33723737D01*
%TD*%
M02*
