%TF.GenerationSoftware,KiCad,Pcbnew,(6.0.0)*%
%TF.CreationDate,2022-01-17T21:10:59+01:00*%
%TF.ProjectId,Daylight,4461796c-6967-4687-942e-6b696361645f,rev?*%
%TF.SameCoordinates,Original*%
%TF.FileFunction,Copper,L2,Bot*%
%TF.FilePolarity,Positive*%
%FSLAX46Y46*%
G04 Gerber Fmt 4.6, Leading zero omitted, Abs format (unit mm)*
G04 Created by KiCad (PCBNEW (6.0.0)) date 2022-01-17 21:10:59*
%MOMM*%
%LPD*%
G01*
G04 APERTURE LIST*
%TA.AperFunction,ComponentPad*%
%ADD10C,0.800000*%
%TD*%
%TA.AperFunction,ComponentPad*%
%ADD11C,6.400000*%
%TD*%
%TA.AperFunction,ComponentPad*%
%ADD12R,1.700000X1.700000*%
%TD*%
%TA.AperFunction,ComponentPad*%
%ADD13O,1.700000X1.700000*%
%TD*%
%TA.AperFunction,ViaPad*%
%ADD14C,0.800000*%
%TD*%
G04 APERTURE END LIST*
D10*
%TO.P,H2,1,1*%
%TO.N,GND*%
X248520584Y-31302944D03*
D11*
X246823528Y-33000000D03*
D10*
X245126472Y-34697056D03*
X246823528Y-35400000D03*
X249223528Y-33000000D03*
X244423528Y-33000000D03*
X246823528Y-30600000D03*
X248520584Y-34697056D03*
X245126472Y-31302944D03*
%TD*%
%TO.P,H1,1,1*%
%TO.N,GND*%
X50697056Y-34697056D03*
X51400000Y-33000000D03*
X50697056Y-31302944D03*
X49000000Y-35400000D03*
X47302944Y-31302944D03*
X46600000Y-33000000D03*
D11*
X49000000Y-33000000D03*
D10*
X49000000Y-30600000D03*
X47302944Y-34697056D03*
%TD*%
D12*
%TO.P,J1,1,Pin_1*%
%TO.N,GND*%
X38500000Y-34265000D03*
D13*
%TO.P,J1,2,Pin_2*%
%TO.N,+24V*%
X38500000Y-31725000D03*
%TD*%
D12*
%TO.P,J2,1,Pin_1*%
%TO.N,GND*%
X257500000Y-34275000D03*
D13*
%TO.P,J2,2,Pin_2*%
%TO.N,+24V*%
X257500000Y-31735000D03*
%TD*%
D14*
%TO.N,GND*%
X137500000Y-34250000D03*
X98600000Y-36600000D03*
X185750000Y-34250000D03*
X261000000Y-34250000D03*
X259500000Y-34250000D03*
X239500000Y-37000000D03*
X252250000Y-37000000D03*
X268000000Y-36450000D03*
X222250000Y-34250000D03*
X101000000Y-34250000D03*
X35500000Y-34250000D03*
X195000000Y-34250000D03*
X36500000Y-34250000D03*
X41750000Y-37000000D03*
X272250000Y-34250000D03*
X165750000Y-34250000D03*
X272250000Y-37250000D03*
X183250000Y-36750000D03*
X24800000Y-37200000D03*
X270450000Y-34250000D03*
X56000000Y-37000000D03*
X24800000Y-34200000D03*
X110000000Y-34250000D03*
X81000000Y-34200000D03*
X236250000Y-34250000D03*
X67000000Y-34200000D03*
%TD*%
%TA.AperFunction,Conductor*%
%TO.N,GND*%
G36*
X278892662Y-28025006D02*
G01*
X282294594Y-29998126D01*
X282429216Y-30076207D01*
X282478108Y-30127687D01*
X282492000Y-30185201D01*
X282492000Y-35814799D01*
X282471998Y-35882920D01*
X282429217Y-35923792D01*
X278892661Y-37974994D01*
X278829445Y-37992000D01*
X17170553Y-37992000D01*
X17107337Y-37974994D01*
X14896865Y-36692920D01*
X13570783Y-35923792D01*
X13521892Y-35872313D01*
X13508000Y-35814799D01*
X13508000Y-35797386D01*
X46567759Y-35797386D01*
X46575216Y-35807753D01*
X46814935Y-36001874D01*
X46820272Y-36005751D01*
X47140685Y-36213830D01*
X47146394Y-36217127D01*
X47486811Y-36390578D01*
X47492836Y-36393260D01*
X47849502Y-36530171D01*
X47855784Y-36532212D01*
X48224816Y-36631094D01*
X48231266Y-36632465D01*
X48608629Y-36692234D01*
X48615167Y-36692920D01*
X48996699Y-36712916D01*
X49003301Y-36712916D01*
X49384833Y-36692920D01*
X49391371Y-36692234D01*
X49768734Y-36632465D01*
X49775184Y-36631094D01*
X50144216Y-36532212D01*
X50150498Y-36530171D01*
X50507164Y-36393260D01*
X50513189Y-36390578D01*
X50853606Y-36217127D01*
X50859315Y-36213830D01*
X51179728Y-36005751D01*
X51185065Y-36001874D01*
X51423835Y-35808522D01*
X51431527Y-35797386D01*
X244391287Y-35797386D01*
X244398744Y-35807753D01*
X244638463Y-36001874D01*
X244643800Y-36005751D01*
X244964213Y-36213830D01*
X244969922Y-36217127D01*
X245310339Y-36390578D01*
X245316364Y-36393260D01*
X245673030Y-36530171D01*
X245679312Y-36532212D01*
X246048344Y-36631094D01*
X246054794Y-36632465D01*
X246432157Y-36692234D01*
X246438695Y-36692920D01*
X246820227Y-36712916D01*
X246826829Y-36712916D01*
X247208361Y-36692920D01*
X247214899Y-36692234D01*
X247592262Y-36632465D01*
X247598712Y-36631094D01*
X247967744Y-36532212D01*
X247974026Y-36530171D01*
X248330692Y-36393260D01*
X248336717Y-36390578D01*
X248677134Y-36217127D01*
X248682843Y-36213830D01*
X249003256Y-36005751D01*
X249008593Y-36001874D01*
X249247363Y-35808522D01*
X249255828Y-35796267D01*
X249249494Y-35785176D01*
X246836340Y-33372022D01*
X246822396Y-33364408D01*
X246820563Y-33364539D01*
X246813948Y-33368790D01*
X244398428Y-35784310D01*
X244391287Y-35797386D01*
X51431527Y-35797386D01*
X51432300Y-35796267D01*
X51425966Y-35785176D01*
X49012812Y-33372022D01*
X48998868Y-33364408D01*
X48997035Y-33364539D01*
X48990420Y-33368790D01*
X46574900Y-35784310D01*
X46567759Y-35797386D01*
X13508000Y-35797386D01*
X13508000Y-35159669D01*
X37142001Y-35159669D01*
X37142371Y-35166490D01*
X37147895Y-35217352D01*
X37151521Y-35232604D01*
X37196676Y-35353054D01*
X37205214Y-35368649D01*
X37281715Y-35470724D01*
X37294276Y-35483285D01*
X37396351Y-35559786D01*
X37411946Y-35568324D01*
X37532394Y-35613478D01*
X37547649Y-35617105D01*
X37598514Y-35622631D01*
X37605328Y-35623000D01*
X38227885Y-35623000D01*
X38243124Y-35618525D01*
X38244329Y-35617135D01*
X38246000Y-35609452D01*
X38246000Y-35604884D01*
X38754000Y-35604884D01*
X38758475Y-35620123D01*
X38759865Y-35621328D01*
X38767548Y-35622999D01*
X39394669Y-35622999D01*
X39401490Y-35622629D01*
X39452352Y-35617105D01*
X39467604Y-35613479D01*
X39588054Y-35568324D01*
X39603649Y-35559786D01*
X39705724Y-35483285D01*
X39718285Y-35470724D01*
X39794786Y-35368649D01*
X39803324Y-35353054D01*
X39848478Y-35232606D01*
X39852105Y-35217351D01*
X39857631Y-35166486D01*
X39858000Y-35159672D01*
X39858000Y-34537115D01*
X39853525Y-34521876D01*
X39852135Y-34520671D01*
X39844452Y-34519000D01*
X38772115Y-34519000D01*
X38756876Y-34523475D01*
X38755671Y-34524865D01*
X38754000Y-34532548D01*
X38754000Y-35604884D01*
X38246000Y-35604884D01*
X38246000Y-34537115D01*
X38241525Y-34521876D01*
X38240135Y-34520671D01*
X38232452Y-34519000D01*
X37160116Y-34519000D01*
X37144877Y-34523475D01*
X37143672Y-34524865D01*
X37142001Y-34532548D01*
X37142001Y-35159669D01*
X13508000Y-35159669D01*
X13508000Y-31691695D01*
X37137251Y-31691695D01*
X37137548Y-31696848D01*
X37137548Y-31696851D01*
X37143011Y-31791590D01*
X37150110Y-31914715D01*
X37151247Y-31919761D01*
X37151248Y-31919767D01*
X37153502Y-31929767D01*
X37199222Y-32132639D01*
X37283266Y-32339616D01*
X37399987Y-32530088D01*
X37546250Y-32698938D01*
X37550225Y-32702238D01*
X37550231Y-32702244D01*
X37555425Y-32706556D01*
X37595059Y-32765460D01*
X37596555Y-32836441D01*
X37559439Y-32896962D01*
X37519168Y-32921480D01*
X37411946Y-32961676D01*
X37396351Y-32970214D01*
X37294276Y-33046715D01*
X37281715Y-33059276D01*
X37205214Y-33161351D01*
X37196676Y-33176946D01*
X37151522Y-33297394D01*
X37147895Y-33312649D01*
X37142369Y-33363514D01*
X37142000Y-33370328D01*
X37142000Y-33992885D01*
X37146475Y-34008124D01*
X37147865Y-34009329D01*
X37155548Y-34011000D01*
X39839884Y-34011000D01*
X39855123Y-34006525D01*
X39856328Y-34005135D01*
X39857999Y-33997452D01*
X39857999Y-33370331D01*
X39857629Y-33363510D01*
X39852105Y-33312648D01*
X39848479Y-33297396D01*
X39803324Y-33176946D01*
X39794786Y-33161351D01*
X39718285Y-33059276D01*
X39705724Y-33046715D01*
X39647797Y-33003301D01*
X45287084Y-33003301D01*
X45307080Y-33384833D01*
X45307766Y-33391371D01*
X45367535Y-33768734D01*
X45368906Y-33775184D01*
X45467788Y-34144216D01*
X45469829Y-34150498D01*
X45606740Y-34507164D01*
X45609422Y-34513189D01*
X45782872Y-34853603D01*
X45786169Y-34859313D01*
X45994253Y-35179735D01*
X45998123Y-35185061D01*
X46191478Y-35423835D01*
X46203733Y-35432300D01*
X46214824Y-35425966D01*
X48627978Y-33012812D01*
X48634356Y-33001132D01*
X49364408Y-33001132D01*
X49364539Y-33002965D01*
X49368790Y-33009580D01*
X51784310Y-35425100D01*
X51797386Y-35432241D01*
X51807753Y-35424784D01*
X52001877Y-35185061D01*
X52005747Y-35179735D01*
X52213831Y-34859313D01*
X52217128Y-34853603D01*
X52390578Y-34513189D01*
X52393260Y-34507164D01*
X52530171Y-34150498D01*
X52532212Y-34144216D01*
X52631094Y-33775184D01*
X52632465Y-33768734D01*
X52692234Y-33391371D01*
X52692920Y-33384833D01*
X52712916Y-33003301D01*
X243110612Y-33003301D01*
X243130608Y-33384833D01*
X243131294Y-33391371D01*
X243191063Y-33768734D01*
X243192434Y-33775184D01*
X243291316Y-34144216D01*
X243293357Y-34150498D01*
X243430268Y-34507164D01*
X243432950Y-34513189D01*
X243606400Y-34853603D01*
X243609697Y-34859313D01*
X243817781Y-35179735D01*
X243821651Y-35185061D01*
X244015006Y-35423835D01*
X244027261Y-35432300D01*
X244038352Y-35425966D01*
X246451506Y-33012812D01*
X246457884Y-33001132D01*
X247187936Y-33001132D01*
X247188067Y-33002965D01*
X247192318Y-33009580D01*
X249607838Y-35425100D01*
X249620914Y-35432241D01*
X249631281Y-35424784D01*
X249825405Y-35185061D01*
X249829275Y-35179735D01*
X249835812Y-35169669D01*
X256142001Y-35169669D01*
X256142371Y-35176490D01*
X256147895Y-35227352D01*
X256151521Y-35242604D01*
X256196676Y-35363054D01*
X256205214Y-35378649D01*
X256281715Y-35480724D01*
X256294276Y-35493285D01*
X256396351Y-35569786D01*
X256411946Y-35578324D01*
X256532394Y-35623478D01*
X256547649Y-35627105D01*
X256598514Y-35632631D01*
X256605328Y-35633000D01*
X257227885Y-35633000D01*
X257243124Y-35628525D01*
X257244329Y-35627135D01*
X257246000Y-35619452D01*
X257246000Y-35614884D01*
X257754000Y-35614884D01*
X257758475Y-35630123D01*
X257759865Y-35631328D01*
X257767548Y-35632999D01*
X258394669Y-35632999D01*
X258401490Y-35632629D01*
X258452352Y-35627105D01*
X258467604Y-35623479D01*
X258588054Y-35578324D01*
X258603649Y-35569786D01*
X258705724Y-35493285D01*
X258718285Y-35480724D01*
X258794786Y-35378649D01*
X258803324Y-35363054D01*
X258848478Y-35242606D01*
X258852105Y-35227351D01*
X258857631Y-35176486D01*
X258858000Y-35169672D01*
X258858000Y-34547115D01*
X258853525Y-34531876D01*
X258852135Y-34530671D01*
X258844452Y-34529000D01*
X257772115Y-34529000D01*
X257756876Y-34533475D01*
X257755671Y-34534865D01*
X257754000Y-34542548D01*
X257754000Y-35614884D01*
X257246000Y-35614884D01*
X257246000Y-34547115D01*
X257241525Y-34531876D01*
X257240135Y-34530671D01*
X257232452Y-34529000D01*
X256160116Y-34529000D01*
X256144877Y-34533475D01*
X256143672Y-34534865D01*
X256142001Y-34542548D01*
X256142001Y-35169669D01*
X249835812Y-35169669D01*
X250037359Y-34859313D01*
X250040656Y-34853603D01*
X250214106Y-34513189D01*
X250216788Y-34507164D01*
X250353699Y-34150498D01*
X250355740Y-34144216D01*
X250454622Y-33775184D01*
X250455993Y-33768734D01*
X250515762Y-33391371D01*
X250516448Y-33384833D01*
X250536444Y-33003301D01*
X250536444Y-32996699D01*
X250516448Y-32615167D01*
X250515762Y-32608629D01*
X250455993Y-32231266D01*
X250454622Y-32224816D01*
X250355740Y-31855784D01*
X250353699Y-31849502D01*
X250296961Y-31701695D01*
X256137251Y-31701695D01*
X256137548Y-31706848D01*
X256137548Y-31706851D01*
X256149235Y-31909547D01*
X256150110Y-31924715D01*
X256151247Y-31929761D01*
X256151248Y-31929767D01*
X256170022Y-32013069D01*
X256199222Y-32142639D01*
X256237461Y-32236811D01*
X256277262Y-32334829D01*
X256283266Y-32349616D01*
X256399987Y-32540088D01*
X256546250Y-32708938D01*
X256550225Y-32712238D01*
X256550231Y-32712244D01*
X256555425Y-32716556D01*
X256595059Y-32775460D01*
X256596555Y-32846441D01*
X256559439Y-32906962D01*
X256519168Y-32931480D01*
X256411946Y-32971676D01*
X256396351Y-32980214D01*
X256294276Y-33056715D01*
X256281715Y-33069276D01*
X256205214Y-33171351D01*
X256196676Y-33186946D01*
X256151522Y-33307394D01*
X256147895Y-33322649D01*
X256142369Y-33373514D01*
X256142000Y-33380328D01*
X256142000Y-34002885D01*
X256146475Y-34018124D01*
X256147865Y-34019329D01*
X256155548Y-34021000D01*
X258839884Y-34021000D01*
X258855123Y-34016525D01*
X258856328Y-34015135D01*
X258857999Y-34007452D01*
X258857999Y-33380331D01*
X258857629Y-33373510D01*
X258852105Y-33322648D01*
X258848479Y-33307396D01*
X258803324Y-33186946D01*
X258794786Y-33171351D01*
X258718285Y-33069276D01*
X258705724Y-33056715D01*
X258603649Y-32980214D01*
X258588054Y-32971676D01*
X258477813Y-32930348D01*
X258421049Y-32887706D01*
X258396349Y-32821145D01*
X258411557Y-32751796D01*
X258433104Y-32723115D01*
X258534430Y-32622144D01*
X258534440Y-32622132D01*
X258538096Y-32618489D01*
X258597594Y-32535689D01*
X258665435Y-32441277D01*
X258668453Y-32437077D01*
X258673396Y-32427077D01*
X258765136Y-32241453D01*
X258765137Y-32241451D01*
X258767430Y-32236811D01*
X258832370Y-32023069D01*
X258861529Y-31801590D01*
X258863156Y-31735000D01*
X258844852Y-31512361D01*
X258790431Y-31295702D01*
X258701354Y-31090840D01*
X258580014Y-30903277D01*
X258429670Y-30738051D01*
X258425619Y-30734852D01*
X258425615Y-30734848D01*
X258258414Y-30602800D01*
X258258410Y-30602798D01*
X258254359Y-30599598D01*
X258242045Y-30592800D01*
X258199144Y-30569118D01*
X258058789Y-30491638D01*
X258053920Y-30489914D01*
X258053916Y-30489912D01*
X257853087Y-30418795D01*
X257853083Y-30418794D01*
X257848212Y-30417069D01*
X257843119Y-30416162D01*
X257843116Y-30416161D01*
X257633373Y-30378800D01*
X257633367Y-30378799D01*
X257628284Y-30377894D01*
X257554452Y-30376992D01*
X257410081Y-30375228D01*
X257410079Y-30375228D01*
X257404911Y-30375165D01*
X257184091Y-30408955D01*
X256971756Y-30478357D01*
X256941443Y-30494137D01*
X256800017Y-30567759D01*
X256773607Y-30581507D01*
X256769474Y-30584610D01*
X256769471Y-30584612D01*
X256603305Y-30709373D01*
X256594965Y-30715635D01*
X256440629Y-30877138D01*
X256437715Y-30881410D01*
X256437714Y-30881411D01*
X256429620Y-30893277D01*
X256314743Y-31061680D01*
X256299003Y-31095590D01*
X256223013Y-31259297D01*
X256220688Y-31264305D01*
X256160989Y-31479570D01*
X256137251Y-31701695D01*
X250296961Y-31701695D01*
X250216788Y-31492836D01*
X250214106Y-31486811D01*
X250040656Y-31146397D01*
X250037359Y-31140687D01*
X249829275Y-30820265D01*
X249825405Y-30814939D01*
X249632050Y-30576165D01*
X249619795Y-30567700D01*
X249608704Y-30574034D01*
X247195550Y-32987188D01*
X247187936Y-33001132D01*
X246457884Y-33001132D01*
X246459120Y-32998868D01*
X246458989Y-32997035D01*
X246454738Y-32990420D01*
X244039218Y-30574900D01*
X244026142Y-30567759D01*
X244015775Y-30575216D01*
X243821651Y-30814939D01*
X243817781Y-30820265D01*
X243609697Y-31140687D01*
X243606400Y-31146397D01*
X243432950Y-31486811D01*
X243430268Y-31492836D01*
X243293357Y-31849502D01*
X243291316Y-31855784D01*
X243192434Y-32224816D01*
X243191063Y-32231266D01*
X243131294Y-32608629D01*
X243130608Y-32615167D01*
X243110612Y-32996699D01*
X243110612Y-33003301D01*
X52712916Y-33003301D01*
X52712916Y-32996699D01*
X52692920Y-32615167D01*
X52692234Y-32608629D01*
X52632465Y-32231266D01*
X52631094Y-32224816D01*
X52532212Y-31855784D01*
X52530171Y-31849502D01*
X52393260Y-31492836D01*
X52390578Y-31486811D01*
X52217128Y-31146397D01*
X52213831Y-31140687D01*
X52005747Y-30820265D01*
X52001877Y-30814939D01*
X51808522Y-30576165D01*
X51796267Y-30567700D01*
X51785176Y-30574034D01*
X49372022Y-32987188D01*
X49364408Y-33001132D01*
X48634356Y-33001132D01*
X48635592Y-32998868D01*
X48635461Y-32997035D01*
X48631210Y-32990420D01*
X46215690Y-30574900D01*
X46202614Y-30567759D01*
X46192247Y-30575216D01*
X45998123Y-30814939D01*
X45994253Y-30820265D01*
X45786169Y-31140687D01*
X45782872Y-31146397D01*
X45609422Y-31486811D01*
X45606740Y-31492836D01*
X45469829Y-31849502D01*
X45467788Y-31855784D01*
X45368906Y-32224816D01*
X45367535Y-32231266D01*
X45307766Y-32608629D01*
X45307080Y-32615167D01*
X45287084Y-32996699D01*
X45287084Y-33003301D01*
X39647797Y-33003301D01*
X39603649Y-32970214D01*
X39588054Y-32961676D01*
X39477813Y-32920348D01*
X39421049Y-32877706D01*
X39396349Y-32811145D01*
X39411557Y-32741796D01*
X39433104Y-32713115D01*
X39534430Y-32612144D01*
X39534440Y-32612132D01*
X39538096Y-32608489D01*
X39597594Y-32525689D01*
X39665435Y-32431277D01*
X39668453Y-32427077D01*
X39706737Y-32349616D01*
X39765136Y-32231453D01*
X39765137Y-32231451D01*
X39767430Y-32226811D01*
X39832370Y-32013069D01*
X39861529Y-31791590D01*
X39861611Y-31788240D01*
X39863074Y-31728365D01*
X39863074Y-31728361D01*
X39863156Y-31725000D01*
X39844852Y-31502361D01*
X39790431Y-31285702D01*
X39701354Y-31080840D01*
X39589291Y-30907617D01*
X39582822Y-30897617D01*
X39582820Y-30897614D01*
X39580014Y-30893277D01*
X39429670Y-30728051D01*
X39425619Y-30724852D01*
X39425615Y-30724848D01*
X39258414Y-30592800D01*
X39258410Y-30592798D01*
X39254359Y-30589598D01*
X39235375Y-30579118D01*
X39202136Y-30560769D01*
X39058789Y-30481638D01*
X39053920Y-30479914D01*
X39053916Y-30479912D01*
X38853087Y-30408795D01*
X38853083Y-30408794D01*
X38848212Y-30407069D01*
X38843119Y-30406162D01*
X38843116Y-30406161D01*
X38633373Y-30368800D01*
X38633367Y-30368799D01*
X38628284Y-30367894D01*
X38554452Y-30366992D01*
X38410081Y-30365228D01*
X38410079Y-30365228D01*
X38404911Y-30365165D01*
X38184091Y-30398955D01*
X37971756Y-30468357D01*
X37773607Y-30571507D01*
X37769474Y-30574610D01*
X37769471Y-30574612D01*
X37599100Y-30702530D01*
X37594965Y-30705635D01*
X37591393Y-30709373D01*
X37490512Y-30814939D01*
X37440629Y-30867138D01*
X37437715Y-30871410D01*
X37437714Y-30871411D01*
X37425404Y-30889457D01*
X37314743Y-31051680D01*
X37220688Y-31254305D01*
X37160989Y-31469570D01*
X37137251Y-31691695D01*
X13508000Y-31691695D01*
X13508000Y-30203733D01*
X46567700Y-30203733D01*
X46574034Y-30214824D01*
X48987188Y-32627978D01*
X49001132Y-32635592D01*
X49002965Y-32635461D01*
X49009580Y-32631210D01*
X51425100Y-30215690D01*
X51431630Y-30203733D01*
X244391228Y-30203733D01*
X244397562Y-30214824D01*
X246810716Y-32627978D01*
X246824660Y-32635592D01*
X246826493Y-32635461D01*
X246833108Y-32631210D01*
X249248628Y-30215690D01*
X249255769Y-30202614D01*
X249248312Y-30192247D01*
X249008593Y-29998126D01*
X249003256Y-29994249D01*
X248682843Y-29786170D01*
X248677134Y-29782873D01*
X248336717Y-29609422D01*
X248330692Y-29606740D01*
X247974026Y-29469829D01*
X247967744Y-29467788D01*
X247598712Y-29368906D01*
X247592262Y-29367535D01*
X247214899Y-29307766D01*
X247208361Y-29307080D01*
X246826829Y-29287084D01*
X246820227Y-29287084D01*
X246438695Y-29307080D01*
X246432157Y-29307766D01*
X246054794Y-29367535D01*
X246048344Y-29368906D01*
X245679312Y-29467788D01*
X245673030Y-29469829D01*
X245316364Y-29606740D01*
X245310339Y-29609422D01*
X244969925Y-29782872D01*
X244964215Y-29786169D01*
X244643793Y-29994253D01*
X244638467Y-29998123D01*
X244399693Y-30191478D01*
X244391228Y-30203733D01*
X51431630Y-30203733D01*
X51432241Y-30202614D01*
X51424784Y-30192247D01*
X51185065Y-29998126D01*
X51179728Y-29994249D01*
X50859315Y-29786170D01*
X50853606Y-29782873D01*
X50513189Y-29609422D01*
X50507164Y-29606740D01*
X50150498Y-29469829D01*
X50144216Y-29467788D01*
X49775184Y-29368906D01*
X49768734Y-29367535D01*
X49391371Y-29307766D01*
X49384833Y-29307080D01*
X49003301Y-29287084D01*
X48996699Y-29287084D01*
X48615167Y-29307080D01*
X48608629Y-29307766D01*
X48231266Y-29367535D01*
X48224816Y-29368906D01*
X47855784Y-29467788D01*
X47849502Y-29469829D01*
X47492836Y-29606740D01*
X47486811Y-29609422D01*
X47146397Y-29782872D01*
X47140687Y-29786169D01*
X46820265Y-29994253D01*
X46814939Y-29998123D01*
X46576165Y-30191478D01*
X46567700Y-30203733D01*
X13508000Y-30203733D01*
X13508000Y-30185201D01*
X13528002Y-30117080D01*
X13570783Y-30076208D01*
X17107340Y-28025006D01*
X17170555Y-28008000D01*
X278829447Y-28008000D01*
X278892662Y-28025006D01*
G37*
%TD.AperFunction*%
%TD*%
M02*
