G04 #@! TF.GenerationSoftware,KiCad,Pcbnew,(5.1.5)-3*
G04 #@! TF.CreationDate,2021-01-22T12:57:20-06:00*
G04 #@! TF.ProjectId,pt100stick,70743130-3073-4746-9963-6b2e6b696361,rev?*
G04 #@! TF.SameCoordinates,Original*
G04 #@! TF.FileFunction,Soldermask,Bot*
G04 #@! TF.FilePolarity,Negative*
%FSLAX46Y46*%
G04 Gerber Fmt 4.6, Leading zero omitted, Abs format (unit mm)*
G04 Created by KiCad (PCBNEW (5.1.5)-3) date 2021-01-22 12:57:20*
%MOMM*%
%LPD*%
G04 APERTURE LIST*
%ADD10C,0.100000*%
G04 APERTURE END LIST*
D10*
G36*
X142488228Y-88081703D02*
G01*
X142643100Y-88145853D01*
X142782481Y-88238985D01*
X142901015Y-88357519D01*
X142994147Y-88496900D01*
X143058297Y-88651772D01*
X143091000Y-88816184D01*
X143091000Y-88983816D01*
X143058297Y-89148228D01*
X142994147Y-89303100D01*
X142901015Y-89442481D01*
X142782481Y-89561015D01*
X142643100Y-89654147D01*
X142488228Y-89718297D01*
X142323816Y-89751000D01*
X142156184Y-89751000D01*
X141991772Y-89718297D01*
X141836900Y-89654147D01*
X141697519Y-89561015D01*
X141578985Y-89442481D01*
X141485853Y-89303100D01*
X141421703Y-89148228D01*
X141389000Y-88983816D01*
X141389000Y-88816184D01*
X141421703Y-88651772D01*
X141485853Y-88496900D01*
X141578985Y-88357519D01*
X141697519Y-88238985D01*
X141836900Y-88145853D01*
X141991772Y-88081703D01*
X142156184Y-88049000D01*
X142323816Y-88049000D01*
X142488228Y-88081703D01*
G37*
G36*
X155188228Y-88081703D02*
G01*
X155343100Y-88145853D01*
X155482481Y-88238985D01*
X155601015Y-88357519D01*
X155694147Y-88496900D01*
X155758297Y-88651772D01*
X155791000Y-88816184D01*
X155791000Y-88983816D01*
X155758297Y-89148228D01*
X155694147Y-89303100D01*
X155601015Y-89442481D01*
X155482481Y-89561015D01*
X155343100Y-89654147D01*
X155188228Y-89718297D01*
X155023816Y-89751000D01*
X154856184Y-89751000D01*
X154691772Y-89718297D01*
X154536900Y-89654147D01*
X154397519Y-89561015D01*
X154278985Y-89442481D01*
X154185853Y-89303100D01*
X154121703Y-89148228D01*
X154089000Y-88983816D01*
X154089000Y-88816184D01*
X154121703Y-88651772D01*
X154185853Y-88496900D01*
X154278985Y-88357519D01*
X154397519Y-88238985D01*
X154536900Y-88145853D01*
X154691772Y-88081703D01*
X154856184Y-88049000D01*
X155023816Y-88049000D01*
X155188228Y-88081703D01*
G37*
G36*
X155188228Y-85541703D02*
G01*
X155343100Y-85605853D01*
X155482481Y-85698985D01*
X155601015Y-85817519D01*
X155694147Y-85956900D01*
X155758297Y-86111772D01*
X155791000Y-86276184D01*
X155791000Y-86443816D01*
X155758297Y-86608228D01*
X155694147Y-86763100D01*
X155601015Y-86902481D01*
X155482481Y-87021015D01*
X155343100Y-87114147D01*
X155188228Y-87178297D01*
X155023816Y-87211000D01*
X154856184Y-87211000D01*
X154691772Y-87178297D01*
X154536900Y-87114147D01*
X154397519Y-87021015D01*
X154278985Y-86902481D01*
X154185853Y-86763100D01*
X154121703Y-86608228D01*
X154089000Y-86443816D01*
X154089000Y-86276184D01*
X154121703Y-86111772D01*
X154185853Y-85956900D01*
X154278985Y-85817519D01*
X154397519Y-85698985D01*
X154536900Y-85605853D01*
X154691772Y-85541703D01*
X154856184Y-85509000D01*
X155023816Y-85509000D01*
X155188228Y-85541703D01*
G37*
G36*
X142488228Y-85541703D02*
G01*
X142643100Y-85605853D01*
X142782481Y-85698985D01*
X142901015Y-85817519D01*
X142994147Y-85956900D01*
X143058297Y-86111772D01*
X143091000Y-86276184D01*
X143091000Y-86443816D01*
X143058297Y-86608228D01*
X142994147Y-86763100D01*
X142901015Y-86902481D01*
X142782481Y-87021015D01*
X142643100Y-87114147D01*
X142488228Y-87178297D01*
X142323816Y-87211000D01*
X142156184Y-87211000D01*
X141991772Y-87178297D01*
X141836900Y-87114147D01*
X141697519Y-87021015D01*
X141578985Y-86902481D01*
X141485853Y-86763100D01*
X141421703Y-86608228D01*
X141389000Y-86443816D01*
X141389000Y-86276184D01*
X141421703Y-86111772D01*
X141485853Y-85956900D01*
X141578985Y-85817519D01*
X141697519Y-85698985D01*
X141836900Y-85605853D01*
X141991772Y-85541703D01*
X142156184Y-85509000D01*
X142323816Y-85509000D01*
X142488228Y-85541703D01*
G37*
G36*
X142488228Y-83001703D02*
G01*
X142643100Y-83065853D01*
X142782481Y-83158985D01*
X142901015Y-83277519D01*
X142994147Y-83416900D01*
X143058297Y-83571772D01*
X143091000Y-83736184D01*
X143091000Y-83903816D01*
X143058297Y-84068228D01*
X142994147Y-84223100D01*
X142901015Y-84362481D01*
X142782481Y-84481015D01*
X142643100Y-84574147D01*
X142488228Y-84638297D01*
X142323816Y-84671000D01*
X142156184Y-84671000D01*
X141991772Y-84638297D01*
X141836900Y-84574147D01*
X141697519Y-84481015D01*
X141578985Y-84362481D01*
X141485853Y-84223100D01*
X141421703Y-84068228D01*
X141389000Y-83903816D01*
X141389000Y-83736184D01*
X141421703Y-83571772D01*
X141485853Y-83416900D01*
X141578985Y-83277519D01*
X141697519Y-83158985D01*
X141836900Y-83065853D01*
X141991772Y-83001703D01*
X142156184Y-82969000D01*
X142323816Y-82969000D01*
X142488228Y-83001703D01*
G37*
G36*
X155188228Y-83001703D02*
G01*
X155343100Y-83065853D01*
X155482481Y-83158985D01*
X155601015Y-83277519D01*
X155694147Y-83416900D01*
X155758297Y-83571772D01*
X155791000Y-83736184D01*
X155791000Y-83903816D01*
X155758297Y-84068228D01*
X155694147Y-84223100D01*
X155601015Y-84362481D01*
X155482481Y-84481015D01*
X155343100Y-84574147D01*
X155188228Y-84638297D01*
X155023816Y-84671000D01*
X154856184Y-84671000D01*
X154691772Y-84638297D01*
X154536900Y-84574147D01*
X154397519Y-84481015D01*
X154278985Y-84362481D01*
X154185853Y-84223100D01*
X154121703Y-84068228D01*
X154089000Y-83903816D01*
X154089000Y-83736184D01*
X154121703Y-83571772D01*
X154185853Y-83416900D01*
X154278985Y-83277519D01*
X154397519Y-83158985D01*
X154536900Y-83065853D01*
X154691772Y-83001703D01*
X154856184Y-82969000D01*
X155023816Y-82969000D01*
X155188228Y-83001703D01*
G37*
G36*
X155188228Y-80461703D02*
G01*
X155343100Y-80525853D01*
X155482481Y-80618985D01*
X155601015Y-80737519D01*
X155694147Y-80876900D01*
X155758297Y-81031772D01*
X155791000Y-81196184D01*
X155791000Y-81363816D01*
X155758297Y-81528228D01*
X155694147Y-81683100D01*
X155601015Y-81822481D01*
X155482481Y-81941015D01*
X155343100Y-82034147D01*
X155188228Y-82098297D01*
X155023816Y-82131000D01*
X154856184Y-82131000D01*
X154691772Y-82098297D01*
X154536900Y-82034147D01*
X154397519Y-81941015D01*
X154278985Y-81822481D01*
X154185853Y-81683100D01*
X154121703Y-81528228D01*
X154089000Y-81363816D01*
X154089000Y-81196184D01*
X154121703Y-81031772D01*
X154185853Y-80876900D01*
X154278985Y-80737519D01*
X154397519Y-80618985D01*
X154536900Y-80525853D01*
X154691772Y-80461703D01*
X154856184Y-80429000D01*
X155023816Y-80429000D01*
X155188228Y-80461703D01*
G37*
G36*
X142488228Y-80461703D02*
G01*
X142643100Y-80525853D01*
X142782481Y-80618985D01*
X142901015Y-80737519D01*
X142994147Y-80876900D01*
X143058297Y-81031772D01*
X143091000Y-81196184D01*
X143091000Y-81363816D01*
X143058297Y-81528228D01*
X142994147Y-81683100D01*
X142901015Y-81822481D01*
X142782481Y-81941015D01*
X142643100Y-82034147D01*
X142488228Y-82098297D01*
X142323816Y-82131000D01*
X142156184Y-82131000D01*
X141991772Y-82098297D01*
X141836900Y-82034147D01*
X141697519Y-81941015D01*
X141578985Y-81822481D01*
X141485853Y-81683100D01*
X141421703Y-81528228D01*
X141389000Y-81363816D01*
X141389000Y-81196184D01*
X141421703Y-81031772D01*
X141485853Y-80876900D01*
X141578985Y-80737519D01*
X141697519Y-80618985D01*
X141836900Y-80525853D01*
X141991772Y-80461703D01*
X142156184Y-80429000D01*
X142323816Y-80429000D01*
X142488228Y-80461703D01*
G37*
G36*
X142488228Y-77921703D02*
G01*
X142643100Y-77985853D01*
X142782481Y-78078985D01*
X142901015Y-78197519D01*
X142994147Y-78336900D01*
X143058297Y-78491772D01*
X143091000Y-78656184D01*
X143091000Y-78823816D01*
X143058297Y-78988228D01*
X142994147Y-79143100D01*
X142901015Y-79282481D01*
X142782481Y-79401015D01*
X142643100Y-79494147D01*
X142488228Y-79558297D01*
X142323816Y-79591000D01*
X142156184Y-79591000D01*
X141991772Y-79558297D01*
X141836900Y-79494147D01*
X141697519Y-79401015D01*
X141578985Y-79282481D01*
X141485853Y-79143100D01*
X141421703Y-78988228D01*
X141389000Y-78823816D01*
X141389000Y-78656184D01*
X141421703Y-78491772D01*
X141485853Y-78336900D01*
X141578985Y-78197519D01*
X141697519Y-78078985D01*
X141836900Y-77985853D01*
X141991772Y-77921703D01*
X142156184Y-77889000D01*
X142323816Y-77889000D01*
X142488228Y-77921703D01*
G37*
G36*
X155188228Y-77921703D02*
G01*
X155343100Y-77985853D01*
X155482481Y-78078985D01*
X155601015Y-78197519D01*
X155694147Y-78336900D01*
X155758297Y-78491772D01*
X155791000Y-78656184D01*
X155791000Y-78823816D01*
X155758297Y-78988228D01*
X155694147Y-79143100D01*
X155601015Y-79282481D01*
X155482481Y-79401015D01*
X155343100Y-79494147D01*
X155188228Y-79558297D01*
X155023816Y-79591000D01*
X154856184Y-79591000D01*
X154691772Y-79558297D01*
X154536900Y-79494147D01*
X154397519Y-79401015D01*
X154278985Y-79282481D01*
X154185853Y-79143100D01*
X154121703Y-78988228D01*
X154089000Y-78823816D01*
X154089000Y-78656184D01*
X154121703Y-78491772D01*
X154185853Y-78336900D01*
X154278985Y-78197519D01*
X154397519Y-78078985D01*
X154536900Y-77985853D01*
X154691772Y-77921703D01*
X154856184Y-77889000D01*
X155023816Y-77889000D01*
X155188228Y-77921703D01*
G37*
G36*
X155188228Y-75381703D02*
G01*
X155343100Y-75445853D01*
X155482481Y-75538985D01*
X155601015Y-75657519D01*
X155694147Y-75796900D01*
X155758297Y-75951772D01*
X155791000Y-76116184D01*
X155791000Y-76283816D01*
X155758297Y-76448228D01*
X155694147Y-76603100D01*
X155601015Y-76742481D01*
X155482481Y-76861015D01*
X155343100Y-76954147D01*
X155188228Y-77018297D01*
X155023816Y-77051000D01*
X154856184Y-77051000D01*
X154691772Y-77018297D01*
X154536900Y-76954147D01*
X154397519Y-76861015D01*
X154278985Y-76742481D01*
X154185853Y-76603100D01*
X154121703Y-76448228D01*
X154089000Y-76283816D01*
X154089000Y-76116184D01*
X154121703Y-75951772D01*
X154185853Y-75796900D01*
X154278985Y-75657519D01*
X154397519Y-75538985D01*
X154536900Y-75445853D01*
X154691772Y-75381703D01*
X154856184Y-75349000D01*
X155023816Y-75349000D01*
X155188228Y-75381703D01*
G37*
G36*
X142488228Y-75381703D02*
G01*
X142643100Y-75445853D01*
X142782481Y-75538985D01*
X142901015Y-75657519D01*
X142994147Y-75796900D01*
X143058297Y-75951772D01*
X143091000Y-76116184D01*
X143091000Y-76283816D01*
X143058297Y-76448228D01*
X142994147Y-76603100D01*
X142901015Y-76742481D01*
X142782481Y-76861015D01*
X142643100Y-76954147D01*
X142488228Y-77018297D01*
X142323816Y-77051000D01*
X142156184Y-77051000D01*
X141991772Y-77018297D01*
X141836900Y-76954147D01*
X141697519Y-76861015D01*
X141578985Y-76742481D01*
X141485853Y-76603100D01*
X141421703Y-76448228D01*
X141389000Y-76283816D01*
X141389000Y-76116184D01*
X141421703Y-75951772D01*
X141485853Y-75796900D01*
X141578985Y-75657519D01*
X141697519Y-75538985D01*
X141836900Y-75445853D01*
X141991772Y-75381703D01*
X142156184Y-75349000D01*
X142323816Y-75349000D01*
X142488228Y-75381703D01*
G37*
G36*
X155188228Y-72841703D02*
G01*
X155343100Y-72905853D01*
X155482481Y-72998985D01*
X155601015Y-73117519D01*
X155694147Y-73256900D01*
X155758297Y-73411772D01*
X155791000Y-73576184D01*
X155791000Y-73743816D01*
X155758297Y-73908228D01*
X155694147Y-74063100D01*
X155601015Y-74202481D01*
X155482481Y-74321015D01*
X155343100Y-74414147D01*
X155188228Y-74478297D01*
X155023816Y-74511000D01*
X154856184Y-74511000D01*
X154691772Y-74478297D01*
X154536900Y-74414147D01*
X154397519Y-74321015D01*
X154278985Y-74202481D01*
X154185853Y-74063100D01*
X154121703Y-73908228D01*
X154089000Y-73743816D01*
X154089000Y-73576184D01*
X154121703Y-73411772D01*
X154185853Y-73256900D01*
X154278985Y-73117519D01*
X154397519Y-72998985D01*
X154536900Y-72905853D01*
X154691772Y-72841703D01*
X154856184Y-72809000D01*
X155023816Y-72809000D01*
X155188228Y-72841703D01*
G37*
G36*
X142488228Y-72841703D02*
G01*
X142643100Y-72905853D01*
X142782481Y-72998985D01*
X142901015Y-73117519D01*
X142994147Y-73256900D01*
X143058297Y-73411772D01*
X143091000Y-73576184D01*
X143091000Y-73743816D01*
X143058297Y-73908228D01*
X142994147Y-74063100D01*
X142901015Y-74202481D01*
X142782481Y-74321015D01*
X142643100Y-74414147D01*
X142488228Y-74478297D01*
X142323816Y-74511000D01*
X142156184Y-74511000D01*
X141991772Y-74478297D01*
X141836900Y-74414147D01*
X141697519Y-74321015D01*
X141578985Y-74202481D01*
X141485853Y-74063100D01*
X141421703Y-73908228D01*
X141389000Y-73743816D01*
X141389000Y-73576184D01*
X141421703Y-73411772D01*
X141485853Y-73256900D01*
X141578985Y-73117519D01*
X141697519Y-72998985D01*
X141836900Y-72905853D01*
X141991772Y-72841703D01*
X142156184Y-72809000D01*
X142323816Y-72809000D01*
X142488228Y-72841703D01*
G37*
G36*
X143091000Y-71971000D02*
G01*
X141389000Y-71971000D01*
X141389000Y-70269000D01*
X143091000Y-70269000D01*
X143091000Y-71971000D01*
G37*
G36*
X155188228Y-70301703D02*
G01*
X155343100Y-70365853D01*
X155482481Y-70458985D01*
X155601015Y-70577519D01*
X155694147Y-70716900D01*
X155758297Y-70871772D01*
X155791000Y-71036184D01*
X155791000Y-71203816D01*
X155758297Y-71368228D01*
X155694147Y-71523100D01*
X155601015Y-71662481D01*
X155482481Y-71781015D01*
X155343100Y-71874147D01*
X155188228Y-71938297D01*
X155023816Y-71971000D01*
X154856184Y-71971000D01*
X154691772Y-71938297D01*
X154536900Y-71874147D01*
X154397519Y-71781015D01*
X154278985Y-71662481D01*
X154185853Y-71523100D01*
X154121703Y-71368228D01*
X154089000Y-71203816D01*
X154089000Y-71036184D01*
X154121703Y-70871772D01*
X154185853Y-70716900D01*
X154278985Y-70577519D01*
X154397519Y-70458985D01*
X154536900Y-70365853D01*
X154691772Y-70301703D01*
X154856184Y-70269000D01*
X155023816Y-70269000D01*
X155188228Y-70301703D01*
G37*
M02*
