G04 #@! TF.GenerationSoftware,KiCad,Pcbnew,(5.1.4)-1*
G04 #@! TF.CreationDate,2021-05-31T18:31:04-05:00*
G04 #@! TF.ProjectId,pt100stick,70743130-3073-4746-9963-6b2e6b696361,rev?*
G04 #@! TF.SameCoordinates,Original*
G04 #@! TF.FileFunction,Paste,Top*
G04 #@! TF.FilePolarity,Positive*
%FSLAX46Y46*%
G04 Gerber Fmt 4.6, Leading zero omitted, Abs format (unit mm)*
G04 Created by KiCad (PCBNEW (5.1.4)-1) date 2021-05-31 18:31:04*
%MOMM*%
%LPD*%
G04 APERTURE LIST*
%ADD10C,0.100000*%
%ADD11C,0.950000*%
%ADD12R,0.900000X0.800000*%
%ADD13C,1.250000*%
%ADD14C,0.300000*%
G04 APERTURE END LIST*
D10*
G36*
X151619379Y-88336744D02*
G01*
X151642434Y-88340163D01*
X151665043Y-88345827D01*
X151686987Y-88353679D01*
X151708057Y-88363644D01*
X151728048Y-88375626D01*
X151746768Y-88389510D01*
X151764038Y-88405162D01*
X151779690Y-88422432D01*
X151793574Y-88441152D01*
X151805556Y-88461143D01*
X151815521Y-88482213D01*
X151823373Y-88504157D01*
X151829037Y-88526766D01*
X151832456Y-88549821D01*
X151833600Y-88573100D01*
X151833600Y-89148100D01*
X151832456Y-89171379D01*
X151829037Y-89194434D01*
X151823373Y-89217043D01*
X151815521Y-89238987D01*
X151805556Y-89260057D01*
X151793574Y-89280048D01*
X151779690Y-89298768D01*
X151764038Y-89316038D01*
X151746768Y-89331690D01*
X151728048Y-89345574D01*
X151708057Y-89357556D01*
X151686987Y-89367521D01*
X151665043Y-89375373D01*
X151642434Y-89381037D01*
X151619379Y-89384456D01*
X151596100Y-89385600D01*
X151121100Y-89385600D01*
X151097821Y-89384456D01*
X151074766Y-89381037D01*
X151052157Y-89375373D01*
X151030213Y-89367521D01*
X151009143Y-89357556D01*
X150989152Y-89345574D01*
X150970432Y-89331690D01*
X150953162Y-89316038D01*
X150937510Y-89298768D01*
X150923626Y-89280048D01*
X150911644Y-89260057D01*
X150901679Y-89238987D01*
X150893827Y-89217043D01*
X150888163Y-89194434D01*
X150884744Y-89171379D01*
X150883600Y-89148100D01*
X150883600Y-88573100D01*
X150884744Y-88549821D01*
X150888163Y-88526766D01*
X150893827Y-88504157D01*
X150901679Y-88482213D01*
X150911644Y-88461143D01*
X150923626Y-88441152D01*
X150937510Y-88422432D01*
X150953162Y-88405162D01*
X150970432Y-88389510D01*
X150989152Y-88375626D01*
X151009143Y-88363644D01*
X151030213Y-88353679D01*
X151052157Y-88345827D01*
X151074766Y-88340163D01*
X151097821Y-88336744D01*
X151121100Y-88335600D01*
X151596100Y-88335600D01*
X151619379Y-88336744D01*
X151619379Y-88336744D01*
G37*
D11*
X151358600Y-88860600D03*
D10*
G36*
X151619379Y-86586744D02*
G01*
X151642434Y-86590163D01*
X151665043Y-86595827D01*
X151686987Y-86603679D01*
X151708057Y-86613644D01*
X151728048Y-86625626D01*
X151746768Y-86639510D01*
X151764038Y-86655162D01*
X151779690Y-86672432D01*
X151793574Y-86691152D01*
X151805556Y-86711143D01*
X151815521Y-86732213D01*
X151823373Y-86754157D01*
X151829037Y-86776766D01*
X151832456Y-86799821D01*
X151833600Y-86823100D01*
X151833600Y-87398100D01*
X151832456Y-87421379D01*
X151829037Y-87444434D01*
X151823373Y-87467043D01*
X151815521Y-87488987D01*
X151805556Y-87510057D01*
X151793574Y-87530048D01*
X151779690Y-87548768D01*
X151764038Y-87566038D01*
X151746768Y-87581690D01*
X151728048Y-87595574D01*
X151708057Y-87607556D01*
X151686987Y-87617521D01*
X151665043Y-87625373D01*
X151642434Y-87631037D01*
X151619379Y-87634456D01*
X151596100Y-87635600D01*
X151121100Y-87635600D01*
X151097821Y-87634456D01*
X151074766Y-87631037D01*
X151052157Y-87625373D01*
X151030213Y-87617521D01*
X151009143Y-87607556D01*
X150989152Y-87595574D01*
X150970432Y-87581690D01*
X150953162Y-87566038D01*
X150937510Y-87548768D01*
X150923626Y-87530048D01*
X150911644Y-87510057D01*
X150901679Y-87488987D01*
X150893827Y-87467043D01*
X150888163Y-87444434D01*
X150884744Y-87421379D01*
X150883600Y-87398100D01*
X150883600Y-86823100D01*
X150884744Y-86799821D01*
X150888163Y-86776766D01*
X150893827Y-86754157D01*
X150901679Y-86732213D01*
X150911644Y-86711143D01*
X150923626Y-86691152D01*
X150937510Y-86672432D01*
X150953162Y-86655162D01*
X150970432Y-86639510D01*
X150989152Y-86625626D01*
X151009143Y-86613644D01*
X151030213Y-86603679D01*
X151052157Y-86595827D01*
X151074766Y-86590163D01*
X151097821Y-86586744D01*
X151121100Y-86585600D01*
X151596100Y-86585600D01*
X151619379Y-86586744D01*
X151619379Y-86586744D01*
G37*
D11*
X151358600Y-87110600D03*
D10*
G36*
X149917579Y-88336744D02*
G01*
X149940634Y-88340163D01*
X149963243Y-88345827D01*
X149985187Y-88353679D01*
X150006257Y-88363644D01*
X150026248Y-88375626D01*
X150044968Y-88389510D01*
X150062238Y-88405162D01*
X150077890Y-88422432D01*
X150091774Y-88441152D01*
X150103756Y-88461143D01*
X150113721Y-88482213D01*
X150121573Y-88504157D01*
X150127237Y-88526766D01*
X150130656Y-88549821D01*
X150131800Y-88573100D01*
X150131800Y-89148100D01*
X150130656Y-89171379D01*
X150127237Y-89194434D01*
X150121573Y-89217043D01*
X150113721Y-89238987D01*
X150103756Y-89260057D01*
X150091774Y-89280048D01*
X150077890Y-89298768D01*
X150062238Y-89316038D01*
X150044968Y-89331690D01*
X150026248Y-89345574D01*
X150006257Y-89357556D01*
X149985187Y-89367521D01*
X149963243Y-89375373D01*
X149940634Y-89381037D01*
X149917579Y-89384456D01*
X149894300Y-89385600D01*
X149419300Y-89385600D01*
X149396021Y-89384456D01*
X149372966Y-89381037D01*
X149350357Y-89375373D01*
X149328413Y-89367521D01*
X149307343Y-89357556D01*
X149287352Y-89345574D01*
X149268632Y-89331690D01*
X149251362Y-89316038D01*
X149235710Y-89298768D01*
X149221826Y-89280048D01*
X149209844Y-89260057D01*
X149199879Y-89238987D01*
X149192027Y-89217043D01*
X149186363Y-89194434D01*
X149182944Y-89171379D01*
X149181800Y-89148100D01*
X149181800Y-88573100D01*
X149182944Y-88549821D01*
X149186363Y-88526766D01*
X149192027Y-88504157D01*
X149199879Y-88482213D01*
X149209844Y-88461143D01*
X149221826Y-88441152D01*
X149235710Y-88422432D01*
X149251362Y-88405162D01*
X149268632Y-88389510D01*
X149287352Y-88375626D01*
X149307343Y-88363644D01*
X149328413Y-88353679D01*
X149350357Y-88345827D01*
X149372966Y-88340163D01*
X149396021Y-88336744D01*
X149419300Y-88335600D01*
X149894300Y-88335600D01*
X149917579Y-88336744D01*
X149917579Y-88336744D01*
G37*
D11*
X149656800Y-88860600D03*
D10*
G36*
X149917579Y-86586744D02*
G01*
X149940634Y-86590163D01*
X149963243Y-86595827D01*
X149985187Y-86603679D01*
X150006257Y-86613644D01*
X150026248Y-86625626D01*
X150044968Y-86639510D01*
X150062238Y-86655162D01*
X150077890Y-86672432D01*
X150091774Y-86691152D01*
X150103756Y-86711143D01*
X150113721Y-86732213D01*
X150121573Y-86754157D01*
X150127237Y-86776766D01*
X150130656Y-86799821D01*
X150131800Y-86823100D01*
X150131800Y-87398100D01*
X150130656Y-87421379D01*
X150127237Y-87444434D01*
X150121573Y-87467043D01*
X150113721Y-87488987D01*
X150103756Y-87510057D01*
X150091774Y-87530048D01*
X150077890Y-87548768D01*
X150062238Y-87566038D01*
X150044968Y-87581690D01*
X150026248Y-87595574D01*
X150006257Y-87607556D01*
X149985187Y-87617521D01*
X149963243Y-87625373D01*
X149940634Y-87631037D01*
X149917579Y-87634456D01*
X149894300Y-87635600D01*
X149419300Y-87635600D01*
X149396021Y-87634456D01*
X149372966Y-87631037D01*
X149350357Y-87625373D01*
X149328413Y-87617521D01*
X149307343Y-87607556D01*
X149287352Y-87595574D01*
X149268632Y-87581690D01*
X149251362Y-87566038D01*
X149235710Y-87548768D01*
X149221826Y-87530048D01*
X149209844Y-87510057D01*
X149199879Y-87488987D01*
X149192027Y-87467043D01*
X149186363Y-87444434D01*
X149182944Y-87421379D01*
X149181800Y-87398100D01*
X149181800Y-86823100D01*
X149182944Y-86799821D01*
X149186363Y-86776766D01*
X149192027Y-86754157D01*
X149199879Y-86732213D01*
X149209844Y-86711143D01*
X149221826Y-86691152D01*
X149235710Y-86672432D01*
X149251362Y-86655162D01*
X149268632Y-86639510D01*
X149287352Y-86625626D01*
X149307343Y-86613644D01*
X149328413Y-86603679D01*
X149350357Y-86595827D01*
X149372966Y-86590163D01*
X149396021Y-86586744D01*
X149419300Y-86585600D01*
X149894300Y-86585600D01*
X149917579Y-86586744D01*
X149917579Y-86586744D01*
G37*
D11*
X149656800Y-87110600D03*
D12*
X145948400Y-87934800D03*
X147948400Y-86984800D03*
X147948400Y-88884800D03*
D10*
G36*
X144685179Y-86473744D02*
G01*
X144708234Y-86477163D01*
X144730843Y-86482827D01*
X144752787Y-86490679D01*
X144773857Y-86500644D01*
X144793848Y-86512626D01*
X144812568Y-86526510D01*
X144829838Y-86542162D01*
X144845490Y-86559432D01*
X144859374Y-86578152D01*
X144871356Y-86598143D01*
X144881321Y-86619213D01*
X144889173Y-86641157D01*
X144894837Y-86663766D01*
X144898256Y-86686821D01*
X144899400Y-86710100D01*
X144899400Y-87285100D01*
X144898256Y-87308379D01*
X144894837Y-87331434D01*
X144889173Y-87354043D01*
X144881321Y-87375987D01*
X144871356Y-87397057D01*
X144859374Y-87417048D01*
X144845490Y-87435768D01*
X144829838Y-87453038D01*
X144812568Y-87468690D01*
X144793848Y-87482574D01*
X144773857Y-87494556D01*
X144752787Y-87504521D01*
X144730843Y-87512373D01*
X144708234Y-87518037D01*
X144685179Y-87521456D01*
X144661900Y-87522600D01*
X144186900Y-87522600D01*
X144163621Y-87521456D01*
X144140566Y-87518037D01*
X144117957Y-87512373D01*
X144096013Y-87504521D01*
X144074943Y-87494556D01*
X144054952Y-87482574D01*
X144036232Y-87468690D01*
X144018962Y-87453038D01*
X144003310Y-87435768D01*
X143989426Y-87417048D01*
X143977444Y-87397057D01*
X143967479Y-87375987D01*
X143959627Y-87354043D01*
X143953963Y-87331434D01*
X143950544Y-87308379D01*
X143949400Y-87285100D01*
X143949400Y-86710100D01*
X143950544Y-86686821D01*
X143953963Y-86663766D01*
X143959627Y-86641157D01*
X143967479Y-86619213D01*
X143977444Y-86598143D01*
X143989426Y-86578152D01*
X144003310Y-86559432D01*
X144018962Y-86542162D01*
X144036232Y-86526510D01*
X144054952Y-86512626D01*
X144074943Y-86500644D01*
X144096013Y-86490679D01*
X144117957Y-86482827D01*
X144140566Y-86477163D01*
X144163621Y-86473744D01*
X144186900Y-86472600D01*
X144661900Y-86472600D01*
X144685179Y-86473744D01*
X144685179Y-86473744D01*
G37*
D11*
X144424400Y-86997600D03*
D10*
G36*
X144685179Y-88223744D02*
G01*
X144708234Y-88227163D01*
X144730843Y-88232827D01*
X144752787Y-88240679D01*
X144773857Y-88250644D01*
X144793848Y-88262626D01*
X144812568Y-88276510D01*
X144829838Y-88292162D01*
X144845490Y-88309432D01*
X144859374Y-88328152D01*
X144871356Y-88348143D01*
X144881321Y-88369213D01*
X144889173Y-88391157D01*
X144894837Y-88413766D01*
X144898256Y-88436821D01*
X144899400Y-88460100D01*
X144899400Y-89035100D01*
X144898256Y-89058379D01*
X144894837Y-89081434D01*
X144889173Y-89104043D01*
X144881321Y-89125987D01*
X144871356Y-89147057D01*
X144859374Y-89167048D01*
X144845490Y-89185768D01*
X144829838Y-89203038D01*
X144812568Y-89218690D01*
X144793848Y-89232574D01*
X144773857Y-89244556D01*
X144752787Y-89254521D01*
X144730843Y-89262373D01*
X144708234Y-89268037D01*
X144685179Y-89271456D01*
X144661900Y-89272600D01*
X144186900Y-89272600D01*
X144163621Y-89271456D01*
X144140566Y-89268037D01*
X144117957Y-89262373D01*
X144096013Y-89254521D01*
X144074943Y-89244556D01*
X144054952Y-89232574D01*
X144036232Y-89218690D01*
X144018962Y-89203038D01*
X144003310Y-89185768D01*
X143989426Y-89167048D01*
X143977444Y-89147057D01*
X143967479Y-89125987D01*
X143959627Y-89104043D01*
X143953963Y-89081434D01*
X143950544Y-89058379D01*
X143949400Y-89035100D01*
X143949400Y-88460100D01*
X143950544Y-88436821D01*
X143953963Y-88413766D01*
X143959627Y-88391157D01*
X143967479Y-88369213D01*
X143977444Y-88348143D01*
X143989426Y-88328152D01*
X144003310Y-88309432D01*
X144018962Y-88292162D01*
X144036232Y-88276510D01*
X144054952Y-88262626D01*
X144074943Y-88250644D01*
X144096013Y-88240679D01*
X144117957Y-88232827D01*
X144140566Y-88227163D01*
X144163621Y-88223744D01*
X144186900Y-88222600D01*
X144661900Y-88222600D01*
X144685179Y-88223744D01*
X144685179Y-88223744D01*
G37*
D11*
X144424400Y-88747600D03*
D10*
G36*
X145929779Y-73870144D02*
G01*
X145952834Y-73873563D01*
X145975443Y-73879227D01*
X145997387Y-73887079D01*
X146018457Y-73897044D01*
X146038448Y-73909026D01*
X146057168Y-73922910D01*
X146074438Y-73938562D01*
X146090090Y-73955832D01*
X146103974Y-73974552D01*
X146115956Y-73994543D01*
X146125921Y-74015613D01*
X146133773Y-74037557D01*
X146139437Y-74060166D01*
X146142856Y-74083221D01*
X146144000Y-74106500D01*
X146144000Y-74681500D01*
X146142856Y-74704779D01*
X146139437Y-74727834D01*
X146133773Y-74750443D01*
X146125921Y-74772387D01*
X146115956Y-74793457D01*
X146103974Y-74813448D01*
X146090090Y-74832168D01*
X146074438Y-74849438D01*
X146057168Y-74865090D01*
X146038448Y-74878974D01*
X146018457Y-74890956D01*
X145997387Y-74900921D01*
X145975443Y-74908773D01*
X145952834Y-74914437D01*
X145929779Y-74917856D01*
X145906500Y-74919000D01*
X145431500Y-74919000D01*
X145408221Y-74917856D01*
X145385166Y-74914437D01*
X145362557Y-74908773D01*
X145340613Y-74900921D01*
X145319543Y-74890956D01*
X145299552Y-74878974D01*
X145280832Y-74865090D01*
X145263562Y-74849438D01*
X145247910Y-74832168D01*
X145234026Y-74813448D01*
X145222044Y-74793457D01*
X145212079Y-74772387D01*
X145204227Y-74750443D01*
X145198563Y-74727834D01*
X145195144Y-74704779D01*
X145194000Y-74681500D01*
X145194000Y-74106500D01*
X145195144Y-74083221D01*
X145198563Y-74060166D01*
X145204227Y-74037557D01*
X145212079Y-74015613D01*
X145222044Y-73994543D01*
X145234026Y-73974552D01*
X145247910Y-73955832D01*
X145263562Y-73938562D01*
X145280832Y-73922910D01*
X145299552Y-73909026D01*
X145319543Y-73897044D01*
X145340613Y-73887079D01*
X145362557Y-73879227D01*
X145385166Y-73873563D01*
X145408221Y-73870144D01*
X145431500Y-73869000D01*
X145906500Y-73869000D01*
X145929779Y-73870144D01*
X145929779Y-73870144D01*
G37*
D11*
X145669000Y-74394000D03*
D10*
G36*
X145929779Y-72120144D02*
G01*
X145952834Y-72123563D01*
X145975443Y-72129227D01*
X145997387Y-72137079D01*
X146018457Y-72147044D01*
X146038448Y-72159026D01*
X146057168Y-72172910D01*
X146074438Y-72188562D01*
X146090090Y-72205832D01*
X146103974Y-72224552D01*
X146115956Y-72244543D01*
X146125921Y-72265613D01*
X146133773Y-72287557D01*
X146139437Y-72310166D01*
X146142856Y-72333221D01*
X146144000Y-72356500D01*
X146144000Y-72931500D01*
X146142856Y-72954779D01*
X146139437Y-72977834D01*
X146133773Y-73000443D01*
X146125921Y-73022387D01*
X146115956Y-73043457D01*
X146103974Y-73063448D01*
X146090090Y-73082168D01*
X146074438Y-73099438D01*
X146057168Y-73115090D01*
X146038448Y-73128974D01*
X146018457Y-73140956D01*
X145997387Y-73150921D01*
X145975443Y-73158773D01*
X145952834Y-73164437D01*
X145929779Y-73167856D01*
X145906500Y-73169000D01*
X145431500Y-73169000D01*
X145408221Y-73167856D01*
X145385166Y-73164437D01*
X145362557Y-73158773D01*
X145340613Y-73150921D01*
X145319543Y-73140956D01*
X145299552Y-73128974D01*
X145280832Y-73115090D01*
X145263562Y-73099438D01*
X145247910Y-73082168D01*
X145234026Y-73063448D01*
X145222044Y-73043457D01*
X145212079Y-73022387D01*
X145204227Y-73000443D01*
X145198563Y-72977834D01*
X145195144Y-72954779D01*
X145194000Y-72931500D01*
X145194000Y-72356500D01*
X145195144Y-72333221D01*
X145198563Y-72310166D01*
X145204227Y-72287557D01*
X145212079Y-72265613D01*
X145222044Y-72244543D01*
X145234026Y-72224552D01*
X145247910Y-72205832D01*
X145263562Y-72188562D01*
X145280832Y-72172910D01*
X145299552Y-72159026D01*
X145319543Y-72147044D01*
X145340613Y-72137079D01*
X145362557Y-72129227D01*
X145385166Y-72123563D01*
X145408221Y-72120144D01*
X145431500Y-72119000D01*
X145906500Y-72119000D01*
X145929779Y-72120144D01*
X145929779Y-72120144D01*
G37*
D11*
X145669000Y-72644000D03*
D10*
G36*
X144483779Y-75599144D02*
G01*
X144506834Y-75602563D01*
X144529443Y-75608227D01*
X144551387Y-75616079D01*
X144572457Y-75626044D01*
X144592448Y-75638026D01*
X144611168Y-75651910D01*
X144628438Y-75667562D01*
X144644090Y-75684832D01*
X144657974Y-75703552D01*
X144669956Y-75723543D01*
X144679921Y-75744613D01*
X144687773Y-75766557D01*
X144693437Y-75789166D01*
X144696856Y-75812221D01*
X144698000Y-75835500D01*
X144698000Y-76310500D01*
X144696856Y-76333779D01*
X144693437Y-76356834D01*
X144687773Y-76379443D01*
X144679921Y-76401387D01*
X144669956Y-76422457D01*
X144657974Y-76442448D01*
X144644090Y-76461168D01*
X144628438Y-76478438D01*
X144611168Y-76494090D01*
X144592448Y-76507974D01*
X144572457Y-76519956D01*
X144551387Y-76529921D01*
X144529443Y-76537773D01*
X144506834Y-76543437D01*
X144483779Y-76546856D01*
X144460500Y-76548000D01*
X143885500Y-76548000D01*
X143862221Y-76546856D01*
X143839166Y-76543437D01*
X143816557Y-76537773D01*
X143794613Y-76529921D01*
X143773543Y-76519956D01*
X143753552Y-76507974D01*
X143734832Y-76494090D01*
X143717562Y-76478438D01*
X143701910Y-76461168D01*
X143688026Y-76442448D01*
X143676044Y-76422457D01*
X143666079Y-76401387D01*
X143658227Y-76379443D01*
X143652563Y-76356834D01*
X143649144Y-76333779D01*
X143648000Y-76310500D01*
X143648000Y-75835500D01*
X143649144Y-75812221D01*
X143652563Y-75789166D01*
X143658227Y-75766557D01*
X143666079Y-75744613D01*
X143676044Y-75723543D01*
X143688026Y-75703552D01*
X143701910Y-75684832D01*
X143717562Y-75667562D01*
X143734832Y-75651910D01*
X143753552Y-75638026D01*
X143773543Y-75626044D01*
X143794613Y-75616079D01*
X143816557Y-75608227D01*
X143839166Y-75602563D01*
X143862221Y-75599144D01*
X143885500Y-75598000D01*
X144460500Y-75598000D01*
X144483779Y-75599144D01*
X144483779Y-75599144D01*
G37*
D11*
X144173000Y-76073000D03*
D10*
G36*
X146233779Y-75599144D02*
G01*
X146256834Y-75602563D01*
X146279443Y-75608227D01*
X146301387Y-75616079D01*
X146322457Y-75626044D01*
X146342448Y-75638026D01*
X146361168Y-75651910D01*
X146378438Y-75667562D01*
X146394090Y-75684832D01*
X146407974Y-75703552D01*
X146419956Y-75723543D01*
X146429921Y-75744613D01*
X146437773Y-75766557D01*
X146443437Y-75789166D01*
X146446856Y-75812221D01*
X146448000Y-75835500D01*
X146448000Y-76310500D01*
X146446856Y-76333779D01*
X146443437Y-76356834D01*
X146437773Y-76379443D01*
X146429921Y-76401387D01*
X146419956Y-76422457D01*
X146407974Y-76442448D01*
X146394090Y-76461168D01*
X146378438Y-76478438D01*
X146361168Y-76494090D01*
X146342448Y-76507974D01*
X146322457Y-76519956D01*
X146301387Y-76529921D01*
X146279443Y-76537773D01*
X146256834Y-76543437D01*
X146233779Y-76546856D01*
X146210500Y-76548000D01*
X145635500Y-76548000D01*
X145612221Y-76546856D01*
X145589166Y-76543437D01*
X145566557Y-76537773D01*
X145544613Y-76529921D01*
X145523543Y-76519956D01*
X145503552Y-76507974D01*
X145484832Y-76494090D01*
X145467562Y-76478438D01*
X145451910Y-76461168D01*
X145438026Y-76442448D01*
X145426044Y-76422457D01*
X145416079Y-76401387D01*
X145408227Y-76379443D01*
X145402563Y-76356834D01*
X145399144Y-76333779D01*
X145398000Y-76310500D01*
X145398000Y-75835500D01*
X145399144Y-75812221D01*
X145402563Y-75789166D01*
X145408227Y-75766557D01*
X145416079Y-75744613D01*
X145426044Y-75723543D01*
X145438026Y-75703552D01*
X145451910Y-75684832D01*
X145467562Y-75667562D01*
X145484832Y-75651910D01*
X145503552Y-75638026D01*
X145523543Y-75626044D01*
X145544613Y-75616079D01*
X145566557Y-75608227D01*
X145589166Y-75602563D01*
X145612221Y-75599144D01*
X145635500Y-75598000D01*
X146210500Y-75598000D01*
X146233779Y-75599144D01*
X146233779Y-75599144D01*
G37*
D11*
X145923000Y-76073000D03*
D10*
G36*
X144456579Y-73870144D02*
G01*
X144479634Y-73873563D01*
X144502243Y-73879227D01*
X144524187Y-73887079D01*
X144545257Y-73897044D01*
X144565248Y-73909026D01*
X144583968Y-73922910D01*
X144601238Y-73938562D01*
X144616890Y-73955832D01*
X144630774Y-73974552D01*
X144642756Y-73994543D01*
X144652721Y-74015613D01*
X144660573Y-74037557D01*
X144666237Y-74060166D01*
X144669656Y-74083221D01*
X144670800Y-74106500D01*
X144670800Y-74681500D01*
X144669656Y-74704779D01*
X144666237Y-74727834D01*
X144660573Y-74750443D01*
X144652721Y-74772387D01*
X144642756Y-74793457D01*
X144630774Y-74813448D01*
X144616890Y-74832168D01*
X144601238Y-74849438D01*
X144583968Y-74865090D01*
X144565248Y-74878974D01*
X144545257Y-74890956D01*
X144524187Y-74900921D01*
X144502243Y-74908773D01*
X144479634Y-74914437D01*
X144456579Y-74917856D01*
X144433300Y-74919000D01*
X143958300Y-74919000D01*
X143935021Y-74917856D01*
X143911966Y-74914437D01*
X143889357Y-74908773D01*
X143867413Y-74900921D01*
X143846343Y-74890956D01*
X143826352Y-74878974D01*
X143807632Y-74865090D01*
X143790362Y-74849438D01*
X143774710Y-74832168D01*
X143760826Y-74813448D01*
X143748844Y-74793457D01*
X143738879Y-74772387D01*
X143731027Y-74750443D01*
X143725363Y-74727834D01*
X143721944Y-74704779D01*
X143720800Y-74681500D01*
X143720800Y-74106500D01*
X143721944Y-74083221D01*
X143725363Y-74060166D01*
X143731027Y-74037557D01*
X143738879Y-74015613D01*
X143748844Y-73994543D01*
X143760826Y-73974552D01*
X143774710Y-73955832D01*
X143790362Y-73938562D01*
X143807632Y-73922910D01*
X143826352Y-73909026D01*
X143846343Y-73897044D01*
X143867413Y-73887079D01*
X143889357Y-73879227D01*
X143911966Y-73873563D01*
X143935021Y-73870144D01*
X143958300Y-73869000D01*
X144433300Y-73869000D01*
X144456579Y-73870144D01*
X144456579Y-73870144D01*
G37*
D11*
X144195800Y-74394000D03*
D10*
G36*
X144456579Y-72120144D02*
G01*
X144479634Y-72123563D01*
X144502243Y-72129227D01*
X144524187Y-72137079D01*
X144545257Y-72147044D01*
X144565248Y-72159026D01*
X144583968Y-72172910D01*
X144601238Y-72188562D01*
X144616890Y-72205832D01*
X144630774Y-72224552D01*
X144642756Y-72244543D01*
X144652721Y-72265613D01*
X144660573Y-72287557D01*
X144666237Y-72310166D01*
X144669656Y-72333221D01*
X144670800Y-72356500D01*
X144670800Y-72931500D01*
X144669656Y-72954779D01*
X144666237Y-72977834D01*
X144660573Y-73000443D01*
X144652721Y-73022387D01*
X144642756Y-73043457D01*
X144630774Y-73063448D01*
X144616890Y-73082168D01*
X144601238Y-73099438D01*
X144583968Y-73115090D01*
X144565248Y-73128974D01*
X144545257Y-73140956D01*
X144524187Y-73150921D01*
X144502243Y-73158773D01*
X144479634Y-73164437D01*
X144456579Y-73167856D01*
X144433300Y-73169000D01*
X143958300Y-73169000D01*
X143935021Y-73167856D01*
X143911966Y-73164437D01*
X143889357Y-73158773D01*
X143867413Y-73150921D01*
X143846343Y-73140956D01*
X143826352Y-73128974D01*
X143807632Y-73115090D01*
X143790362Y-73099438D01*
X143774710Y-73082168D01*
X143760826Y-73063448D01*
X143748844Y-73043457D01*
X143738879Y-73022387D01*
X143731027Y-73000443D01*
X143725363Y-72977834D01*
X143721944Y-72954779D01*
X143720800Y-72931500D01*
X143720800Y-72356500D01*
X143721944Y-72333221D01*
X143725363Y-72310166D01*
X143731027Y-72287557D01*
X143738879Y-72265613D01*
X143748844Y-72244543D01*
X143760826Y-72224552D01*
X143774710Y-72205832D01*
X143790362Y-72188562D01*
X143807632Y-72172910D01*
X143826352Y-72159026D01*
X143846343Y-72147044D01*
X143867413Y-72137079D01*
X143889357Y-72129227D01*
X143911966Y-72123563D01*
X143935021Y-72120144D01*
X143958300Y-72119000D01*
X144433300Y-72119000D01*
X144456579Y-72120144D01*
X144456579Y-72120144D01*
G37*
D11*
X144195800Y-72644000D03*
D10*
G36*
X145294779Y-81758144D02*
G01*
X145317834Y-81761563D01*
X145340443Y-81767227D01*
X145362387Y-81775079D01*
X145383457Y-81785044D01*
X145403448Y-81797026D01*
X145422168Y-81810910D01*
X145439438Y-81826562D01*
X145455090Y-81843832D01*
X145468974Y-81862552D01*
X145480956Y-81882543D01*
X145490921Y-81903613D01*
X145498773Y-81925557D01*
X145504437Y-81948166D01*
X145507856Y-81971221D01*
X145509000Y-81994500D01*
X145509000Y-82569500D01*
X145507856Y-82592779D01*
X145504437Y-82615834D01*
X145498773Y-82638443D01*
X145490921Y-82660387D01*
X145480956Y-82681457D01*
X145468974Y-82701448D01*
X145455090Y-82720168D01*
X145439438Y-82737438D01*
X145422168Y-82753090D01*
X145403448Y-82766974D01*
X145383457Y-82778956D01*
X145362387Y-82788921D01*
X145340443Y-82796773D01*
X145317834Y-82802437D01*
X145294779Y-82805856D01*
X145271500Y-82807000D01*
X144796500Y-82807000D01*
X144773221Y-82805856D01*
X144750166Y-82802437D01*
X144727557Y-82796773D01*
X144705613Y-82788921D01*
X144684543Y-82778956D01*
X144664552Y-82766974D01*
X144645832Y-82753090D01*
X144628562Y-82737438D01*
X144612910Y-82720168D01*
X144599026Y-82701448D01*
X144587044Y-82681457D01*
X144577079Y-82660387D01*
X144569227Y-82638443D01*
X144563563Y-82615834D01*
X144560144Y-82592779D01*
X144559000Y-82569500D01*
X144559000Y-81994500D01*
X144560144Y-81971221D01*
X144563563Y-81948166D01*
X144569227Y-81925557D01*
X144577079Y-81903613D01*
X144587044Y-81882543D01*
X144599026Y-81862552D01*
X144612910Y-81843832D01*
X144628562Y-81826562D01*
X144645832Y-81810910D01*
X144664552Y-81797026D01*
X144684543Y-81785044D01*
X144705613Y-81775079D01*
X144727557Y-81767227D01*
X144750166Y-81761563D01*
X144773221Y-81758144D01*
X144796500Y-81757000D01*
X145271500Y-81757000D01*
X145294779Y-81758144D01*
X145294779Y-81758144D01*
G37*
D11*
X145034000Y-82282000D03*
D10*
G36*
X145294779Y-80008144D02*
G01*
X145317834Y-80011563D01*
X145340443Y-80017227D01*
X145362387Y-80025079D01*
X145383457Y-80035044D01*
X145403448Y-80047026D01*
X145422168Y-80060910D01*
X145439438Y-80076562D01*
X145455090Y-80093832D01*
X145468974Y-80112552D01*
X145480956Y-80132543D01*
X145490921Y-80153613D01*
X145498773Y-80175557D01*
X145504437Y-80198166D01*
X145507856Y-80221221D01*
X145509000Y-80244500D01*
X145509000Y-80819500D01*
X145507856Y-80842779D01*
X145504437Y-80865834D01*
X145498773Y-80888443D01*
X145490921Y-80910387D01*
X145480956Y-80931457D01*
X145468974Y-80951448D01*
X145455090Y-80970168D01*
X145439438Y-80987438D01*
X145422168Y-81003090D01*
X145403448Y-81016974D01*
X145383457Y-81028956D01*
X145362387Y-81038921D01*
X145340443Y-81046773D01*
X145317834Y-81052437D01*
X145294779Y-81055856D01*
X145271500Y-81057000D01*
X144796500Y-81057000D01*
X144773221Y-81055856D01*
X144750166Y-81052437D01*
X144727557Y-81046773D01*
X144705613Y-81038921D01*
X144684543Y-81028956D01*
X144664552Y-81016974D01*
X144645832Y-81003090D01*
X144628562Y-80987438D01*
X144612910Y-80970168D01*
X144599026Y-80951448D01*
X144587044Y-80931457D01*
X144577079Y-80910387D01*
X144569227Y-80888443D01*
X144563563Y-80865834D01*
X144560144Y-80842779D01*
X144559000Y-80819500D01*
X144559000Y-80244500D01*
X144560144Y-80221221D01*
X144563563Y-80198166D01*
X144569227Y-80175557D01*
X144577079Y-80153613D01*
X144587044Y-80132543D01*
X144599026Y-80112552D01*
X144612910Y-80093832D01*
X144628562Y-80076562D01*
X144645832Y-80060910D01*
X144664552Y-80047026D01*
X144684543Y-80035044D01*
X144705613Y-80025079D01*
X144727557Y-80017227D01*
X144750166Y-80011563D01*
X144773221Y-80008144D01*
X144796500Y-80007000D01*
X145271500Y-80007000D01*
X145294779Y-80008144D01*
X145294779Y-80008144D01*
G37*
D11*
X145034000Y-80532000D03*
D10*
G36*
X149738504Y-72134204D02*
G01*
X149762773Y-72137804D01*
X149786571Y-72143765D01*
X149809671Y-72152030D01*
X149831849Y-72162520D01*
X149852893Y-72175133D01*
X149872598Y-72189747D01*
X149890777Y-72206223D01*
X149907253Y-72224402D01*
X149921867Y-72244107D01*
X149934480Y-72265151D01*
X149944970Y-72287329D01*
X149953235Y-72310429D01*
X149959196Y-72334227D01*
X149962796Y-72358496D01*
X149964000Y-72383000D01*
X149964000Y-73133000D01*
X149962796Y-73157504D01*
X149959196Y-73181773D01*
X149953235Y-73205571D01*
X149944970Y-73228671D01*
X149934480Y-73250849D01*
X149921867Y-73271893D01*
X149907253Y-73291598D01*
X149890777Y-73309777D01*
X149872598Y-73326253D01*
X149852893Y-73340867D01*
X149831849Y-73353480D01*
X149809671Y-73363970D01*
X149786571Y-73372235D01*
X149762773Y-73378196D01*
X149738504Y-73381796D01*
X149714000Y-73383000D01*
X148964000Y-73383000D01*
X148939496Y-73381796D01*
X148915227Y-73378196D01*
X148891429Y-73372235D01*
X148868329Y-73363970D01*
X148846151Y-73353480D01*
X148825107Y-73340867D01*
X148805402Y-73326253D01*
X148787223Y-73309777D01*
X148770747Y-73291598D01*
X148756133Y-73271893D01*
X148743520Y-73250849D01*
X148733030Y-73228671D01*
X148724765Y-73205571D01*
X148718804Y-73181773D01*
X148715204Y-73157504D01*
X148714000Y-73133000D01*
X148714000Y-72383000D01*
X148715204Y-72358496D01*
X148718804Y-72334227D01*
X148724765Y-72310429D01*
X148733030Y-72287329D01*
X148743520Y-72265151D01*
X148756133Y-72244107D01*
X148770747Y-72224402D01*
X148787223Y-72206223D01*
X148805402Y-72189747D01*
X148825107Y-72175133D01*
X148846151Y-72162520D01*
X148868329Y-72152030D01*
X148891429Y-72143765D01*
X148915227Y-72137804D01*
X148939496Y-72134204D01*
X148964000Y-72133000D01*
X149714000Y-72133000D01*
X149738504Y-72134204D01*
X149738504Y-72134204D01*
G37*
D13*
X149339000Y-72758000D03*
D10*
G36*
X149738504Y-73684204D02*
G01*
X149762773Y-73687804D01*
X149786571Y-73693765D01*
X149809671Y-73702030D01*
X149831849Y-73712520D01*
X149852893Y-73725133D01*
X149872598Y-73739747D01*
X149890777Y-73756223D01*
X149907253Y-73774402D01*
X149921867Y-73794107D01*
X149934480Y-73815151D01*
X149944970Y-73837329D01*
X149953235Y-73860429D01*
X149959196Y-73884227D01*
X149962796Y-73908496D01*
X149964000Y-73933000D01*
X149964000Y-74683000D01*
X149962796Y-74707504D01*
X149959196Y-74731773D01*
X149953235Y-74755571D01*
X149944970Y-74778671D01*
X149934480Y-74800849D01*
X149921867Y-74821893D01*
X149907253Y-74841598D01*
X149890777Y-74859777D01*
X149872598Y-74876253D01*
X149852893Y-74890867D01*
X149831849Y-74903480D01*
X149809671Y-74913970D01*
X149786571Y-74922235D01*
X149762773Y-74928196D01*
X149738504Y-74931796D01*
X149714000Y-74933000D01*
X148964000Y-74933000D01*
X148939496Y-74931796D01*
X148915227Y-74928196D01*
X148891429Y-74922235D01*
X148868329Y-74913970D01*
X148846151Y-74903480D01*
X148825107Y-74890867D01*
X148805402Y-74876253D01*
X148787223Y-74859777D01*
X148770747Y-74841598D01*
X148756133Y-74821893D01*
X148743520Y-74800849D01*
X148733030Y-74778671D01*
X148724765Y-74755571D01*
X148718804Y-74731773D01*
X148715204Y-74707504D01*
X148714000Y-74683000D01*
X148714000Y-73933000D01*
X148715204Y-73908496D01*
X148718804Y-73884227D01*
X148724765Y-73860429D01*
X148733030Y-73837329D01*
X148743520Y-73815151D01*
X148756133Y-73794107D01*
X148770747Y-73774402D01*
X148787223Y-73756223D01*
X148805402Y-73739747D01*
X148825107Y-73725133D01*
X148846151Y-73712520D01*
X148868329Y-73702030D01*
X148891429Y-73693765D01*
X148915227Y-73687804D01*
X148939496Y-73684204D01*
X148964000Y-73683000D01*
X149714000Y-73683000D01*
X149738504Y-73684204D01*
X149738504Y-73684204D01*
G37*
D13*
X149339000Y-74308000D03*
D10*
G36*
X151288504Y-72134204D02*
G01*
X151312773Y-72137804D01*
X151336571Y-72143765D01*
X151359671Y-72152030D01*
X151381849Y-72162520D01*
X151402893Y-72175133D01*
X151422598Y-72189747D01*
X151440777Y-72206223D01*
X151457253Y-72224402D01*
X151471867Y-72244107D01*
X151484480Y-72265151D01*
X151494970Y-72287329D01*
X151503235Y-72310429D01*
X151509196Y-72334227D01*
X151512796Y-72358496D01*
X151514000Y-72383000D01*
X151514000Y-73133000D01*
X151512796Y-73157504D01*
X151509196Y-73181773D01*
X151503235Y-73205571D01*
X151494970Y-73228671D01*
X151484480Y-73250849D01*
X151471867Y-73271893D01*
X151457253Y-73291598D01*
X151440777Y-73309777D01*
X151422598Y-73326253D01*
X151402893Y-73340867D01*
X151381849Y-73353480D01*
X151359671Y-73363970D01*
X151336571Y-73372235D01*
X151312773Y-73378196D01*
X151288504Y-73381796D01*
X151264000Y-73383000D01*
X150514000Y-73383000D01*
X150489496Y-73381796D01*
X150465227Y-73378196D01*
X150441429Y-73372235D01*
X150418329Y-73363970D01*
X150396151Y-73353480D01*
X150375107Y-73340867D01*
X150355402Y-73326253D01*
X150337223Y-73309777D01*
X150320747Y-73291598D01*
X150306133Y-73271893D01*
X150293520Y-73250849D01*
X150283030Y-73228671D01*
X150274765Y-73205571D01*
X150268804Y-73181773D01*
X150265204Y-73157504D01*
X150264000Y-73133000D01*
X150264000Y-72383000D01*
X150265204Y-72358496D01*
X150268804Y-72334227D01*
X150274765Y-72310429D01*
X150283030Y-72287329D01*
X150293520Y-72265151D01*
X150306133Y-72244107D01*
X150320747Y-72224402D01*
X150337223Y-72206223D01*
X150355402Y-72189747D01*
X150375107Y-72175133D01*
X150396151Y-72162520D01*
X150418329Y-72152030D01*
X150441429Y-72143765D01*
X150465227Y-72137804D01*
X150489496Y-72134204D01*
X150514000Y-72133000D01*
X151264000Y-72133000D01*
X151288504Y-72134204D01*
X151288504Y-72134204D01*
G37*
D13*
X150889000Y-72758000D03*
D10*
G36*
X151288504Y-73684204D02*
G01*
X151312773Y-73687804D01*
X151336571Y-73693765D01*
X151359671Y-73702030D01*
X151381849Y-73712520D01*
X151402893Y-73725133D01*
X151422598Y-73739747D01*
X151440777Y-73756223D01*
X151457253Y-73774402D01*
X151471867Y-73794107D01*
X151484480Y-73815151D01*
X151494970Y-73837329D01*
X151503235Y-73860429D01*
X151509196Y-73884227D01*
X151512796Y-73908496D01*
X151514000Y-73933000D01*
X151514000Y-74683000D01*
X151512796Y-74707504D01*
X151509196Y-74731773D01*
X151503235Y-74755571D01*
X151494970Y-74778671D01*
X151484480Y-74800849D01*
X151471867Y-74821893D01*
X151457253Y-74841598D01*
X151440777Y-74859777D01*
X151422598Y-74876253D01*
X151402893Y-74890867D01*
X151381849Y-74903480D01*
X151359671Y-74913970D01*
X151336571Y-74922235D01*
X151312773Y-74928196D01*
X151288504Y-74931796D01*
X151264000Y-74933000D01*
X150514000Y-74933000D01*
X150489496Y-74931796D01*
X150465227Y-74928196D01*
X150441429Y-74922235D01*
X150418329Y-74913970D01*
X150396151Y-74903480D01*
X150375107Y-74890867D01*
X150355402Y-74876253D01*
X150337223Y-74859777D01*
X150320747Y-74841598D01*
X150306133Y-74821893D01*
X150293520Y-74800849D01*
X150283030Y-74778671D01*
X150274765Y-74755571D01*
X150268804Y-74731773D01*
X150265204Y-74707504D01*
X150264000Y-74683000D01*
X150264000Y-73933000D01*
X150265204Y-73908496D01*
X150268804Y-73884227D01*
X150274765Y-73860429D01*
X150283030Y-73837329D01*
X150293520Y-73815151D01*
X150306133Y-73794107D01*
X150320747Y-73774402D01*
X150337223Y-73756223D01*
X150355402Y-73739747D01*
X150375107Y-73725133D01*
X150396151Y-73712520D01*
X150418329Y-73702030D01*
X150441429Y-73693765D01*
X150465227Y-73687804D01*
X150489496Y-73684204D01*
X150514000Y-73683000D01*
X151264000Y-73683000D01*
X151288504Y-73684204D01*
X151288504Y-73684204D01*
G37*
D13*
X150889000Y-74308000D03*
D10*
G36*
X148171351Y-72083361D02*
G01*
X148178632Y-72084441D01*
X148185771Y-72086229D01*
X148192701Y-72088709D01*
X148199355Y-72091856D01*
X148205668Y-72095640D01*
X148211579Y-72100024D01*
X148217033Y-72104967D01*
X148221976Y-72110421D01*
X148226360Y-72116332D01*
X148230144Y-72122645D01*
X148233291Y-72129299D01*
X148235771Y-72136229D01*
X148237559Y-72143368D01*
X148238639Y-72150649D01*
X148239000Y-72158000D01*
X148239000Y-72308000D01*
X148238639Y-72315351D01*
X148237559Y-72322632D01*
X148235771Y-72329771D01*
X148233291Y-72336701D01*
X148230144Y-72343355D01*
X148226360Y-72349668D01*
X148221976Y-72355579D01*
X148217033Y-72361033D01*
X148211579Y-72365976D01*
X148205668Y-72370360D01*
X148199355Y-72374144D01*
X148192701Y-72377291D01*
X148185771Y-72379771D01*
X148178632Y-72381559D01*
X148171351Y-72382639D01*
X148164000Y-72383000D01*
X147339000Y-72383000D01*
X147331649Y-72382639D01*
X147324368Y-72381559D01*
X147317229Y-72379771D01*
X147310299Y-72377291D01*
X147303645Y-72374144D01*
X147297332Y-72370360D01*
X147291421Y-72365976D01*
X147285967Y-72361033D01*
X147281024Y-72355579D01*
X147276640Y-72349668D01*
X147272856Y-72343355D01*
X147269709Y-72336701D01*
X147267229Y-72329771D01*
X147265441Y-72322632D01*
X147264361Y-72315351D01*
X147264000Y-72308000D01*
X147264000Y-72158000D01*
X147264361Y-72150649D01*
X147265441Y-72143368D01*
X147267229Y-72136229D01*
X147269709Y-72129299D01*
X147272856Y-72122645D01*
X147276640Y-72116332D01*
X147281024Y-72110421D01*
X147285967Y-72104967D01*
X147291421Y-72100024D01*
X147297332Y-72095640D01*
X147303645Y-72091856D01*
X147310299Y-72088709D01*
X147317229Y-72086229D01*
X147324368Y-72084441D01*
X147331649Y-72083361D01*
X147339000Y-72083000D01*
X148164000Y-72083000D01*
X148171351Y-72083361D01*
X148171351Y-72083361D01*
G37*
D14*
X147751500Y-72233000D03*
D10*
G36*
X148171351Y-72733361D02*
G01*
X148178632Y-72734441D01*
X148185771Y-72736229D01*
X148192701Y-72738709D01*
X148199355Y-72741856D01*
X148205668Y-72745640D01*
X148211579Y-72750024D01*
X148217033Y-72754967D01*
X148221976Y-72760421D01*
X148226360Y-72766332D01*
X148230144Y-72772645D01*
X148233291Y-72779299D01*
X148235771Y-72786229D01*
X148237559Y-72793368D01*
X148238639Y-72800649D01*
X148239000Y-72808000D01*
X148239000Y-72958000D01*
X148238639Y-72965351D01*
X148237559Y-72972632D01*
X148235771Y-72979771D01*
X148233291Y-72986701D01*
X148230144Y-72993355D01*
X148226360Y-72999668D01*
X148221976Y-73005579D01*
X148217033Y-73011033D01*
X148211579Y-73015976D01*
X148205668Y-73020360D01*
X148199355Y-73024144D01*
X148192701Y-73027291D01*
X148185771Y-73029771D01*
X148178632Y-73031559D01*
X148171351Y-73032639D01*
X148164000Y-73033000D01*
X147339000Y-73033000D01*
X147331649Y-73032639D01*
X147324368Y-73031559D01*
X147317229Y-73029771D01*
X147310299Y-73027291D01*
X147303645Y-73024144D01*
X147297332Y-73020360D01*
X147291421Y-73015976D01*
X147285967Y-73011033D01*
X147281024Y-73005579D01*
X147276640Y-72999668D01*
X147272856Y-72993355D01*
X147269709Y-72986701D01*
X147267229Y-72979771D01*
X147265441Y-72972632D01*
X147264361Y-72965351D01*
X147264000Y-72958000D01*
X147264000Y-72808000D01*
X147264361Y-72800649D01*
X147265441Y-72793368D01*
X147267229Y-72786229D01*
X147269709Y-72779299D01*
X147272856Y-72772645D01*
X147276640Y-72766332D01*
X147281024Y-72760421D01*
X147285967Y-72754967D01*
X147291421Y-72750024D01*
X147297332Y-72745640D01*
X147303645Y-72741856D01*
X147310299Y-72738709D01*
X147317229Y-72736229D01*
X147324368Y-72734441D01*
X147331649Y-72733361D01*
X147339000Y-72733000D01*
X148164000Y-72733000D01*
X148171351Y-72733361D01*
X148171351Y-72733361D01*
G37*
D14*
X147751500Y-72883000D03*
D10*
G36*
X148171351Y-73383361D02*
G01*
X148178632Y-73384441D01*
X148185771Y-73386229D01*
X148192701Y-73388709D01*
X148199355Y-73391856D01*
X148205668Y-73395640D01*
X148211579Y-73400024D01*
X148217033Y-73404967D01*
X148221976Y-73410421D01*
X148226360Y-73416332D01*
X148230144Y-73422645D01*
X148233291Y-73429299D01*
X148235771Y-73436229D01*
X148237559Y-73443368D01*
X148238639Y-73450649D01*
X148239000Y-73458000D01*
X148239000Y-73608000D01*
X148238639Y-73615351D01*
X148237559Y-73622632D01*
X148235771Y-73629771D01*
X148233291Y-73636701D01*
X148230144Y-73643355D01*
X148226360Y-73649668D01*
X148221976Y-73655579D01*
X148217033Y-73661033D01*
X148211579Y-73665976D01*
X148205668Y-73670360D01*
X148199355Y-73674144D01*
X148192701Y-73677291D01*
X148185771Y-73679771D01*
X148178632Y-73681559D01*
X148171351Y-73682639D01*
X148164000Y-73683000D01*
X147339000Y-73683000D01*
X147331649Y-73682639D01*
X147324368Y-73681559D01*
X147317229Y-73679771D01*
X147310299Y-73677291D01*
X147303645Y-73674144D01*
X147297332Y-73670360D01*
X147291421Y-73665976D01*
X147285967Y-73661033D01*
X147281024Y-73655579D01*
X147276640Y-73649668D01*
X147272856Y-73643355D01*
X147269709Y-73636701D01*
X147267229Y-73629771D01*
X147265441Y-73622632D01*
X147264361Y-73615351D01*
X147264000Y-73608000D01*
X147264000Y-73458000D01*
X147264361Y-73450649D01*
X147265441Y-73443368D01*
X147267229Y-73436229D01*
X147269709Y-73429299D01*
X147272856Y-73422645D01*
X147276640Y-73416332D01*
X147281024Y-73410421D01*
X147285967Y-73404967D01*
X147291421Y-73400024D01*
X147297332Y-73395640D01*
X147303645Y-73391856D01*
X147310299Y-73388709D01*
X147317229Y-73386229D01*
X147324368Y-73384441D01*
X147331649Y-73383361D01*
X147339000Y-73383000D01*
X148164000Y-73383000D01*
X148171351Y-73383361D01*
X148171351Y-73383361D01*
G37*
D14*
X147751500Y-73533000D03*
D10*
G36*
X148171351Y-74033361D02*
G01*
X148178632Y-74034441D01*
X148185771Y-74036229D01*
X148192701Y-74038709D01*
X148199355Y-74041856D01*
X148205668Y-74045640D01*
X148211579Y-74050024D01*
X148217033Y-74054967D01*
X148221976Y-74060421D01*
X148226360Y-74066332D01*
X148230144Y-74072645D01*
X148233291Y-74079299D01*
X148235771Y-74086229D01*
X148237559Y-74093368D01*
X148238639Y-74100649D01*
X148239000Y-74108000D01*
X148239000Y-74258000D01*
X148238639Y-74265351D01*
X148237559Y-74272632D01*
X148235771Y-74279771D01*
X148233291Y-74286701D01*
X148230144Y-74293355D01*
X148226360Y-74299668D01*
X148221976Y-74305579D01*
X148217033Y-74311033D01*
X148211579Y-74315976D01*
X148205668Y-74320360D01*
X148199355Y-74324144D01*
X148192701Y-74327291D01*
X148185771Y-74329771D01*
X148178632Y-74331559D01*
X148171351Y-74332639D01*
X148164000Y-74333000D01*
X147339000Y-74333000D01*
X147331649Y-74332639D01*
X147324368Y-74331559D01*
X147317229Y-74329771D01*
X147310299Y-74327291D01*
X147303645Y-74324144D01*
X147297332Y-74320360D01*
X147291421Y-74315976D01*
X147285967Y-74311033D01*
X147281024Y-74305579D01*
X147276640Y-74299668D01*
X147272856Y-74293355D01*
X147269709Y-74286701D01*
X147267229Y-74279771D01*
X147265441Y-74272632D01*
X147264361Y-74265351D01*
X147264000Y-74258000D01*
X147264000Y-74108000D01*
X147264361Y-74100649D01*
X147265441Y-74093368D01*
X147267229Y-74086229D01*
X147269709Y-74079299D01*
X147272856Y-74072645D01*
X147276640Y-74066332D01*
X147281024Y-74060421D01*
X147285967Y-74054967D01*
X147291421Y-74050024D01*
X147297332Y-74045640D01*
X147303645Y-74041856D01*
X147310299Y-74038709D01*
X147317229Y-74036229D01*
X147324368Y-74034441D01*
X147331649Y-74033361D01*
X147339000Y-74033000D01*
X148164000Y-74033000D01*
X148171351Y-74033361D01*
X148171351Y-74033361D01*
G37*
D14*
X147751500Y-74183000D03*
D10*
G36*
X148171351Y-74683361D02*
G01*
X148178632Y-74684441D01*
X148185771Y-74686229D01*
X148192701Y-74688709D01*
X148199355Y-74691856D01*
X148205668Y-74695640D01*
X148211579Y-74700024D01*
X148217033Y-74704967D01*
X148221976Y-74710421D01*
X148226360Y-74716332D01*
X148230144Y-74722645D01*
X148233291Y-74729299D01*
X148235771Y-74736229D01*
X148237559Y-74743368D01*
X148238639Y-74750649D01*
X148239000Y-74758000D01*
X148239000Y-74908000D01*
X148238639Y-74915351D01*
X148237559Y-74922632D01*
X148235771Y-74929771D01*
X148233291Y-74936701D01*
X148230144Y-74943355D01*
X148226360Y-74949668D01*
X148221976Y-74955579D01*
X148217033Y-74961033D01*
X148211579Y-74965976D01*
X148205668Y-74970360D01*
X148199355Y-74974144D01*
X148192701Y-74977291D01*
X148185771Y-74979771D01*
X148178632Y-74981559D01*
X148171351Y-74982639D01*
X148164000Y-74983000D01*
X147339000Y-74983000D01*
X147331649Y-74982639D01*
X147324368Y-74981559D01*
X147317229Y-74979771D01*
X147310299Y-74977291D01*
X147303645Y-74974144D01*
X147297332Y-74970360D01*
X147291421Y-74965976D01*
X147285967Y-74961033D01*
X147281024Y-74955579D01*
X147276640Y-74949668D01*
X147272856Y-74943355D01*
X147269709Y-74936701D01*
X147267229Y-74929771D01*
X147265441Y-74922632D01*
X147264361Y-74915351D01*
X147264000Y-74908000D01*
X147264000Y-74758000D01*
X147264361Y-74750649D01*
X147265441Y-74743368D01*
X147267229Y-74736229D01*
X147269709Y-74729299D01*
X147272856Y-74722645D01*
X147276640Y-74716332D01*
X147281024Y-74710421D01*
X147285967Y-74704967D01*
X147291421Y-74700024D01*
X147297332Y-74695640D01*
X147303645Y-74691856D01*
X147310299Y-74688709D01*
X147317229Y-74686229D01*
X147324368Y-74684441D01*
X147331649Y-74683361D01*
X147339000Y-74683000D01*
X148164000Y-74683000D01*
X148171351Y-74683361D01*
X148171351Y-74683361D01*
G37*
D14*
X147751500Y-74833000D03*
D10*
G36*
X148896351Y-75408361D02*
G01*
X148903632Y-75409441D01*
X148910771Y-75411229D01*
X148917701Y-75413709D01*
X148924355Y-75416856D01*
X148930668Y-75420640D01*
X148936579Y-75425024D01*
X148942033Y-75429967D01*
X148946976Y-75435421D01*
X148951360Y-75441332D01*
X148955144Y-75447645D01*
X148958291Y-75454299D01*
X148960771Y-75461229D01*
X148962559Y-75468368D01*
X148963639Y-75475649D01*
X148964000Y-75483000D01*
X148964000Y-76308000D01*
X148963639Y-76315351D01*
X148962559Y-76322632D01*
X148960771Y-76329771D01*
X148958291Y-76336701D01*
X148955144Y-76343355D01*
X148951360Y-76349668D01*
X148946976Y-76355579D01*
X148942033Y-76361033D01*
X148936579Y-76365976D01*
X148930668Y-76370360D01*
X148924355Y-76374144D01*
X148917701Y-76377291D01*
X148910771Y-76379771D01*
X148903632Y-76381559D01*
X148896351Y-76382639D01*
X148889000Y-76383000D01*
X148739000Y-76383000D01*
X148731649Y-76382639D01*
X148724368Y-76381559D01*
X148717229Y-76379771D01*
X148710299Y-76377291D01*
X148703645Y-76374144D01*
X148697332Y-76370360D01*
X148691421Y-76365976D01*
X148685967Y-76361033D01*
X148681024Y-76355579D01*
X148676640Y-76349668D01*
X148672856Y-76343355D01*
X148669709Y-76336701D01*
X148667229Y-76329771D01*
X148665441Y-76322632D01*
X148664361Y-76315351D01*
X148664000Y-76308000D01*
X148664000Y-75483000D01*
X148664361Y-75475649D01*
X148665441Y-75468368D01*
X148667229Y-75461229D01*
X148669709Y-75454299D01*
X148672856Y-75447645D01*
X148676640Y-75441332D01*
X148681024Y-75435421D01*
X148685967Y-75429967D01*
X148691421Y-75425024D01*
X148697332Y-75420640D01*
X148703645Y-75416856D01*
X148710299Y-75413709D01*
X148717229Y-75411229D01*
X148724368Y-75409441D01*
X148731649Y-75408361D01*
X148739000Y-75408000D01*
X148889000Y-75408000D01*
X148896351Y-75408361D01*
X148896351Y-75408361D01*
G37*
D14*
X148814000Y-75895500D03*
D10*
G36*
X149546351Y-75408361D02*
G01*
X149553632Y-75409441D01*
X149560771Y-75411229D01*
X149567701Y-75413709D01*
X149574355Y-75416856D01*
X149580668Y-75420640D01*
X149586579Y-75425024D01*
X149592033Y-75429967D01*
X149596976Y-75435421D01*
X149601360Y-75441332D01*
X149605144Y-75447645D01*
X149608291Y-75454299D01*
X149610771Y-75461229D01*
X149612559Y-75468368D01*
X149613639Y-75475649D01*
X149614000Y-75483000D01*
X149614000Y-76308000D01*
X149613639Y-76315351D01*
X149612559Y-76322632D01*
X149610771Y-76329771D01*
X149608291Y-76336701D01*
X149605144Y-76343355D01*
X149601360Y-76349668D01*
X149596976Y-76355579D01*
X149592033Y-76361033D01*
X149586579Y-76365976D01*
X149580668Y-76370360D01*
X149574355Y-76374144D01*
X149567701Y-76377291D01*
X149560771Y-76379771D01*
X149553632Y-76381559D01*
X149546351Y-76382639D01*
X149539000Y-76383000D01*
X149389000Y-76383000D01*
X149381649Y-76382639D01*
X149374368Y-76381559D01*
X149367229Y-76379771D01*
X149360299Y-76377291D01*
X149353645Y-76374144D01*
X149347332Y-76370360D01*
X149341421Y-76365976D01*
X149335967Y-76361033D01*
X149331024Y-76355579D01*
X149326640Y-76349668D01*
X149322856Y-76343355D01*
X149319709Y-76336701D01*
X149317229Y-76329771D01*
X149315441Y-76322632D01*
X149314361Y-76315351D01*
X149314000Y-76308000D01*
X149314000Y-75483000D01*
X149314361Y-75475649D01*
X149315441Y-75468368D01*
X149317229Y-75461229D01*
X149319709Y-75454299D01*
X149322856Y-75447645D01*
X149326640Y-75441332D01*
X149331024Y-75435421D01*
X149335967Y-75429967D01*
X149341421Y-75425024D01*
X149347332Y-75420640D01*
X149353645Y-75416856D01*
X149360299Y-75413709D01*
X149367229Y-75411229D01*
X149374368Y-75409441D01*
X149381649Y-75408361D01*
X149389000Y-75408000D01*
X149539000Y-75408000D01*
X149546351Y-75408361D01*
X149546351Y-75408361D01*
G37*
D14*
X149464000Y-75895500D03*
D10*
G36*
X150196351Y-75408361D02*
G01*
X150203632Y-75409441D01*
X150210771Y-75411229D01*
X150217701Y-75413709D01*
X150224355Y-75416856D01*
X150230668Y-75420640D01*
X150236579Y-75425024D01*
X150242033Y-75429967D01*
X150246976Y-75435421D01*
X150251360Y-75441332D01*
X150255144Y-75447645D01*
X150258291Y-75454299D01*
X150260771Y-75461229D01*
X150262559Y-75468368D01*
X150263639Y-75475649D01*
X150264000Y-75483000D01*
X150264000Y-76308000D01*
X150263639Y-76315351D01*
X150262559Y-76322632D01*
X150260771Y-76329771D01*
X150258291Y-76336701D01*
X150255144Y-76343355D01*
X150251360Y-76349668D01*
X150246976Y-76355579D01*
X150242033Y-76361033D01*
X150236579Y-76365976D01*
X150230668Y-76370360D01*
X150224355Y-76374144D01*
X150217701Y-76377291D01*
X150210771Y-76379771D01*
X150203632Y-76381559D01*
X150196351Y-76382639D01*
X150189000Y-76383000D01*
X150039000Y-76383000D01*
X150031649Y-76382639D01*
X150024368Y-76381559D01*
X150017229Y-76379771D01*
X150010299Y-76377291D01*
X150003645Y-76374144D01*
X149997332Y-76370360D01*
X149991421Y-76365976D01*
X149985967Y-76361033D01*
X149981024Y-76355579D01*
X149976640Y-76349668D01*
X149972856Y-76343355D01*
X149969709Y-76336701D01*
X149967229Y-76329771D01*
X149965441Y-76322632D01*
X149964361Y-76315351D01*
X149964000Y-76308000D01*
X149964000Y-75483000D01*
X149964361Y-75475649D01*
X149965441Y-75468368D01*
X149967229Y-75461229D01*
X149969709Y-75454299D01*
X149972856Y-75447645D01*
X149976640Y-75441332D01*
X149981024Y-75435421D01*
X149985967Y-75429967D01*
X149991421Y-75425024D01*
X149997332Y-75420640D01*
X150003645Y-75416856D01*
X150010299Y-75413709D01*
X150017229Y-75411229D01*
X150024368Y-75409441D01*
X150031649Y-75408361D01*
X150039000Y-75408000D01*
X150189000Y-75408000D01*
X150196351Y-75408361D01*
X150196351Y-75408361D01*
G37*
D14*
X150114000Y-75895500D03*
D10*
G36*
X150846351Y-75408361D02*
G01*
X150853632Y-75409441D01*
X150860771Y-75411229D01*
X150867701Y-75413709D01*
X150874355Y-75416856D01*
X150880668Y-75420640D01*
X150886579Y-75425024D01*
X150892033Y-75429967D01*
X150896976Y-75435421D01*
X150901360Y-75441332D01*
X150905144Y-75447645D01*
X150908291Y-75454299D01*
X150910771Y-75461229D01*
X150912559Y-75468368D01*
X150913639Y-75475649D01*
X150914000Y-75483000D01*
X150914000Y-76308000D01*
X150913639Y-76315351D01*
X150912559Y-76322632D01*
X150910771Y-76329771D01*
X150908291Y-76336701D01*
X150905144Y-76343355D01*
X150901360Y-76349668D01*
X150896976Y-76355579D01*
X150892033Y-76361033D01*
X150886579Y-76365976D01*
X150880668Y-76370360D01*
X150874355Y-76374144D01*
X150867701Y-76377291D01*
X150860771Y-76379771D01*
X150853632Y-76381559D01*
X150846351Y-76382639D01*
X150839000Y-76383000D01*
X150689000Y-76383000D01*
X150681649Y-76382639D01*
X150674368Y-76381559D01*
X150667229Y-76379771D01*
X150660299Y-76377291D01*
X150653645Y-76374144D01*
X150647332Y-76370360D01*
X150641421Y-76365976D01*
X150635967Y-76361033D01*
X150631024Y-76355579D01*
X150626640Y-76349668D01*
X150622856Y-76343355D01*
X150619709Y-76336701D01*
X150617229Y-76329771D01*
X150615441Y-76322632D01*
X150614361Y-76315351D01*
X150614000Y-76308000D01*
X150614000Y-75483000D01*
X150614361Y-75475649D01*
X150615441Y-75468368D01*
X150617229Y-75461229D01*
X150619709Y-75454299D01*
X150622856Y-75447645D01*
X150626640Y-75441332D01*
X150631024Y-75435421D01*
X150635967Y-75429967D01*
X150641421Y-75425024D01*
X150647332Y-75420640D01*
X150653645Y-75416856D01*
X150660299Y-75413709D01*
X150667229Y-75411229D01*
X150674368Y-75409441D01*
X150681649Y-75408361D01*
X150689000Y-75408000D01*
X150839000Y-75408000D01*
X150846351Y-75408361D01*
X150846351Y-75408361D01*
G37*
D14*
X150764000Y-75895500D03*
D10*
G36*
X151496351Y-75408361D02*
G01*
X151503632Y-75409441D01*
X151510771Y-75411229D01*
X151517701Y-75413709D01*
X151524355Y-75416856D01*
X151530668Y-75420640D01*
X151536579Y-75425024D01*
X151542033Y-75429967D01*
X151546976Y-75435421D01*
X151551360Y-75441332D01*
X151555144Y-75447645D01*
X151558291Y-75454299D01*
X151560771Y-75461229D01*
X151562559Y-75468368D01*
X151563639Y-75475649D01*
X151564000Y-75483000D01*
X151564000Y-76308000D01*
X151563639Y-76315351D01*
X151562559Y-76322632D01*
X151560771Y-76329771D01*
X151558291Y-76336701D01*
X151555144Y-76343355D01*
X151551360Y-76349668D01*
X151546976Y-76355579D01*
X151542033Y-76361033D01*
X151536579Y-76365976D01*
X151530668Y-76370360D01*
X151524355Y-76374144D01*
X151517701Y-76377291D01*
X151510771Y-76379771D01*
X151503632Y-76381559D01*
X151496351Y-76382639D01*
X151489000Y-76383000D01*
X151339000Y-76383000D01*
X151331649Y-76382639D01*
X151324368Y-76381559D01*
X151317229Y-76379771D01*
X151310299Y-76377291D01*
X151303645Y-76374144D01*
X151297332Y-76370360D01*
X151291421Y-76365976D01*
X151285967Y-76361033D01*
X151281024Y-76355579D01*
X151276640Y-76349668D01*
X151272856Y-76343355D01*
X151269709Y-76336701D01*
X151267229Y-76329771D01*
X151265441Y-76322632D01*
X151264361Y-76315351D01*
X151264000Y-76308000D01*
X151264000Y-75483000D01*
X151264361Y-75475649D01*
X151265441Y-75468368D01*
X151267229Y-75461229D01*
X151269709Y-75454299D01*
X151272856Y-75447645D01*
X151276640Y-75441332D01*
X151281024Y-75435421D01*
X151285967Y-75429967D01*
X151291421Y-75425024D01*
X151297332Y-75420640D01*
X151303645Y-75416856D01*
X151310299Y-75413709D01*
X151317229Y-75411229D01*
X151324368Y-75409441D01*
X151331649Y-75408361D01*
X151339000Y-75408000D01*
X151489000Y-75408000D01*
X151496351Y-75408361D01*
X151496351Y-75408361D01*
G37*
D14*
X151414000Y-75895500D03*
D10*
G36*
X152896351Y-74683361D02*
G01*
X152903632Y-74684441D01*
X152910771Y-74686229D01*
X152917701Y-74688709D01*
X152924355Y-74691856D01*
X152930668Y-74695640D01*
X152936579Y-74700024D01*
X152942033Y-74704967D01*
X152946976Y-74710421D01*
X152951360Y-74716332D01*
X152955144Y-74722645D01*
X152958291Y-74729299D01*
X152960771Y-74736229D01*
X152962559Y-74743368D01*
X152963639Y-74750649D01*
X152964000Y-74758000D01*
X152964000Y-74908000D01*
X152963639Y-74915351D01*
X152962559Y-74922632D01*
X152960771Y-74929771D01*
X152958291Y-74936701D01*
X152955144Y-74943355D01*
X152951360Y-74949668D01*
X152946976Y-74955579D01*
X152942033Y-74961033D01*
X152936579Y-74965976D01*
X152930668Y-74970360D01*
X152924355Y-74974144D01*
X152917701Y-74977291D01*
X152910771Y-74979771D01*
X152903632Y-74981559D01*
X152896351Y-74982639D01*
X152889000Y-74983000D01*
X152064000Y-74983000D01*
X152056649Y-74982639D01*
X152049368Y-74981559D01*
X152042229Y-74979771D01*
X152035299Y-74977291D01*
X152028645Y-74974144D01*
X152022332Y-74970360D01*
X152016421Y-74965976D01*
X152010967Y-74961033D01*
X152006024Y-74955579D01*
X152001640Y-74949668D01*
X151997856Y-74943355D01*
X151994709Y-74936701D01*
X151992229Y-74929771D01*
X151990441Y-74922632D01*
X151989361Y-74915351D01*
X151989000Y-74908000D01*
X151989000Y-74758000D01*
X151989361Y-74750649D01*
X151990441Y-74743368D01*
X151992229Y-74736229D01*
X151994709Y-74729299D01*
X151997856Y-74722645D01*
X152001640Y-74716332D01*
X152006024Y-74710421D01*
X152010967Y-74704967D01*
X152016421Y-74700024D01*
X152022332Y-74695640D01*
X152028645Y-74691856D01*
X152035299Y-74688709D01*
X152042229Y-74686229D01*
X152049368Y-74684441D01*
X152056649Y-74683361D01*
X152064000Y-74683000D01*
X152889000Y-74683000D01*
X152896351Y-74683361D01*
X152896351Y-74683361D01*
G37*
D14*
X152476500Y-74833000D03*
D10*
G36*
X152896351Y-74033361D02*
G01*
X152903632Y-74034441D01*
X152910771Y-74036229D01*
X152917701Y-74038709D01*
X152924355Y-74041856D01*
X152930668Y-74045640D01*
X152936579Y-74050024D01*
X152942033Y-74054967D01*
X152946976Y-74060421D01*
X152951360Y-74066332D01*
X152955144Y-74072645D01*
X152958291Y-74079299D01*
X152960771Y-74086229D01*
X152962559Y-74093368D01*
X152963639Y-74100649D01*
X152964000Y-74108000D01*
X152964000Y-74258000D01*
X152963639Y-74265351D01*
X152962559Y-74272632D01*
X152960771Y-74279771D01*
X152958291Y-74286701D01*
X152955144Y-74293355D01*
X152951360Y-74299668D01*
X152946976Y-74305579D01*
X152942033Y-74311033D01*
X152936579Y-74315976D01*
X152930668Y-74320360D01*
X152924355Y-74324144D01*
X152917701Y-74327291D01*
X152910771Y-74329771D01*
X152903632Y-74331559D01*
X152896351Y-74332639D01*
X152889000Y-74333000D01*
X152064000Y-74333000D01*
X152056649Y-74332639D01*
X152049368Y-74331559D01*
X152042229Y-74329771D01*
X152035299Y-74327291D01*
X152028645Y-74324144D01*
X152022332Y-74320360D01*
X152016421Y-74315976D01*
X152010967Y-74311033D01*
X152006024Y-74305579D01*
X152001640Y-74299668D01*
X151997856Y-74293355D01*
X151994709Y-74286701D01*
X151992229Y-74279771D01*
X151990441Y-74272632D01*
X151989361Y-74265351D01*
X151989000Y-74258000D01*
X151989000Y-74108000D01*
X151989361Y-74100649D01*
X151990441Y-74093368D01*
X151992229Y-74086229D01*
X151994709Y-74079299D01*
X151997856Y-74072645D01*
X152001640Y-74066332D01*
X152006024Y-74060421D01*
X152010967Y-74054967D01*
X152016421Y-74050024D01*
X152022332Y-74045640D01*
X152028645Y-74041856D01*
X152035299Y-74038709D01*
X152042229Y-74036229D01*
X152049368Y-74034441D01*
X152056649Y-74033361D01*
X152064000Y-74033000D01*
X152889000Y-74033000D01*
X152896351Y-74033361D01*
X152896351Y-74033361D01*
G37*
D14*
X152476500Y-74183000D03*
D10*
G36*
X152896351Y-73383361D02*
G01*
X152903632Y-73384441D01*
X152910771Y-73386229D01*
X152917701Y-73388709D01*
X152924355Y-73391856D01*
X152930668Y-73395640D01*
X152936579Y-73400024D01*
X152942033Y-73404967D01*
X152946976Y-73410421D01*
X152951360Y-73416332D01*
X152955144Y-73422645D01*
X152958291Y-73429299D01*
X152960771Y-73436229D01*
X152962559Y-73443368D01*
X152963639Y-73450649D01*
X152964000Y-73458000D01*
X152964000Y-73608000D01*
X152963639Y-73615351D01*
X152962559Y-73622632D01*
X152960771Y-73629771D01*
X152958291Y-73636701D01*
X152955144Y-73643355D01*
X152951360Y-73649668D01*
X152946976Y-73655579D01*
X152942033Y-73661033D01*
X152936579Y-73665976D01*
X152930668Y-73670360D01*
X152924355Y-73674144D01*
X152917701Y-73677291D01*
X152910771Y-73679771D01*
X152903632Y-73681559D01*
X152896351Y-73682639D01*
X152889000Y-73683000D01*
X152064000Y-73683000D01*
X152056649Y-73682639D01*
X152049368Y-73681559D01*
X152042229Y-73679771D01*
X152035299Y-73677291D01*
X152028645Y-73674144D01*
X152022332Y-73670360D01*
X152016421Y-73665976D01*
X152010967Y-73661033D01*
X152006024Y-73655579D01*
X152001640Y-73649668D01*
X151997856Y-73643355D01*
X151994709Y-73636701D01*
X151992229Y-73629771D01*
X151990441Y-73622632D01*
X151989361Y-73615351D01*
X151989000Y-73608000D01*
X151989000Y-73458000D01*
X151989361Y-73450649D01*
X151990441Y-73443368D01*
X151992229Y-73436229D01*
X151994709Y-73429299D01*
X151997856Y-73422645D01*
X152001640Y-73416332D01*
X152006024Y-73410421D01*
X152010967Y-73404967D01*
X152016421Y-73400024D01*
X152022332Y-73395640D01*
X152028645Y-73391856D01*
X152035299Y-73388709D01*
X152042229Y-73386229D01*
X152049368Y-73384441D01*
X152056649Y-73383361D01*
X152064000Y-73383000D01*
X152889000Y-73383000D01*
X152896351Y-73383361D01*
X152896351Y-73383361D01*
G37*
D14*
X152476500Y-73533000D03*
D10*
G36*
X152896351Y-72733361D02*
G01*
X152903632Y-72734441D01*
X152910771Y-72736229D01*
X152917701Y-72738709D01*
X152924355Y-72741856D01*
X152930668Y-72745640D01*
X152936579Y-72750024D01*
X152942033Y-72754967D01*
X152946976Y-72760421D01*
X152951360Y-72766332D01*
X152955144Y-72772645D01*
X152958291Y-72779299D01*
X152960771Y-72786229D01*
X152962559Y-72793368D01*
X152963639Y-72800649D01*
X152964000Y-72808000D01*
X152964000Y-72958000D01*
X152963639Y-72965351D01*
X152962559Y-72972632D01*
X152960771Y-72979771D01*
X152958291Y-72986701D01*
X152955144Y-72993355D01*
X152951360Y-72999668D01*
X152946976Y-73005579D01*
X152942033Y-73011033D01*
X152936579Y-73015976D01*
X152930668Y-73020360D01*
X152924355Y-73024144D01*
X152917701Y-73027291D01*
X152910771Y-73029771D01*
X152903632Y-73031559D01*
X152896351Y-73032639D01*
X152889000Y-73033000D01*
X152064000Y-73033000D01*
X152056649Y-73032639D01*
X152049368Y-73031559D01*
X152042229Y-73029771D01*
X152035299Y-73027291D01*
X152028645Y-73024144D01*
X152022332Y-73020360D01*
X152016421Y-73015976D01*
X152010967Y-73011033D01*
X152006024Y-73005579D01*
X152001640Y-72999668D01*
X151997856Y-72993355D01*
X151994709Y-72986701D01*
X151992229Y-72979771D01*
X151990441Y-72972632D01*
X151989361Y-72965351D01*
X151989000Y-72958000D01*
X151989000Y-72808000D01*
X151989361Y-72800649D01*
X151990441Y-72793368D01*
X151992229Y-72786229D01*
X151994709Y-72779299D01*
X151997856Y-72772645D01*
X152001640Y-72766332D01*
X152006024Y-72760421D01*
X152010967Y-72754967D01*
X152016421Y-72750024D01*
X152022332Y-72745640D01*
X152028645Y-72741856D01*
X152035299Y-72738709D01*
X152042229Y-72736229D01*
X152049368Y-72734441D01*
X152056649Y-72733361D01*
X152064000Y-72733000D01*
X152889000Y-72733000D01*
X152896351Y-72733361D01*
X152896351Y-72733361D01*
G37*
D14*
X152476500Y-72883000D03*
D10*
G36*
X152896351Y-72083361D02*
G01*
X152903632Y-72084441D01*
X152910771Y-72086229D01*
X152917701Y-72088709D01*
X152924355Y-72091856D01*
X152930668Y-72095640D01*
X152936579Y-72100024D01*
X152942033Y-72104967D01*
X152946976Y-72110421D01*
X152951360Y-72116332D01*
X152955144Y-72122645D01*
X152958291Y-72129299D01*
X152960771Y-72136229D01*
X152962559Y-72143368D01*
X152963639Y-72150649D01*
X152964000Y-72158000D01*
X152964000Y-72308000D01*
X152963639Y-72315351D01*
X152962559Y-72322632D01*
X152960771Y-72329771D01*
X152958291Y-72336701D01*
X152955144Y-72343355D01*
X152951360Y-72349668D01*
X152946976Y-72355579D01*
X152942033Y-72361033D01*
X152936579Y-72365976D01*
X152930668Y-72370360D01*
X152924355Y-72374144D01*
X152917701Y-72377291D01*
X152910771Y-72379771D01*
X152903632Y-72381559D01*
X152896351Y-72382639D01*
X152889000Y-72383000D01*
X152064000Y-72383000D01*
X152056649Y-72382639D01*
X152049368Y-72381559D01*
X152042229Y-72379771D01*
X152035299Y-72377291D01*
X152028645Y-72374144D01*
X152022332Y-72370360D01*
X152016421Y-72365976D01*
X152010967Y-72361033D01*
X152006024Y-72355579D01*
X152001640Y-72349668D01*
X151997856Y-72343355D01*
X151994709Y-72336701D01*
X151992229Y-72329771D01*
X151990441Y-72322632D01*
X151989361Y-72315351D01*
X151989000Y-72308000D01*
X151989000Y-72158000D01*
X151989361Y-72150649D01*
X151990441Y-72143368D01*
X151992229Y-72136229D01*
X151994709Y-72129299D01*
X151997856Y-72122645D01*
X152001640Y-72116332D01*
X152006024Y-72110421D01*
X152010967Y-72104967D01*
X152016421Y-72100024D01*
X152022332Y-72095640D01*
X152028645Y-72091856D01*
X152035299Y-72088709D01*
X152042229Y-72086229D01*
X152049368Y-72084441D01*
X152056649Y-72083361D01*
X152064000Y-72083000D01*
X152889000Y-72083000D01*
X152896351Y-72083361D01*
X152896351Y-72083361D01*
G37*
D14*
X152476500Y-72233000D03*
D10*
G36*
X151496351Y-70683361D02*
G01*
X151503632Y-70684441D01*
X151510771Y-70686229D01*
X151517701Y-70688709D01*
X151524355Y-70691856D01*
X151530668Y-70695640D01*
X151536579Y-70700024D01*
X151542033Y-70704967D01*
X151546976Y-70710421D01*
X151551360Y-70716332D01*
X151555144Y-70722645D01*
X151558291Y-70729299D01*
X151560771Y-70736229D01*
X151562559Y-70743368D01*
X151563639Y-70750649D01*
X151564000Y-70758000D01*
X151564000Y-71583000D01*
X151563639Y-71590351D01*
X151562559Y-71597632D01*
X151560771Y-71604771D01*
X151558291Y-71611701D01*
X151555144Y-71618355D01*
X151551360Y-71624668D01*
X151546976Y-71630579D01*
X151542033Y-71636033D01*
X151536579Y-71640976D01*
X151530668Y-71645360D01*
X151524355Y-71649144D01*
X151517701Y-71652291D01*
X151510771Y-71654771D01*
X151503632Y-71656559D01*
X151496351Y-71657639D01*
X151489000Y-71658000D01*
X151339000Y-71658000D01*
X151331649Y-71657639D01*
X151324368Y-71656559D01*
X151317229Y-71654771D01*
X151310299Y-71652291D01*
X151303645Y-71649144D01*
X151297332Y-71645360D01*
X151291421Y-71640976D01*
X151285967Y-71636033D01*
X151281024Y-71630579D01*
X151276640Y-71624668D01*
X151272856Y-71618355D01*
X151269709Y-71611701D01*
X151267229Y-71604771D01*
X151265441Y-71597632D01*
X151264361Y-71590351D01*
X151264000Y-71583000D01*
X151264000Y-70758000D01*
X151264361Y-70750649D01*
X151265441Y-70743368D01*
X151267229Y-70736229D01*
X151269709Y-70729299D01*
X151272856Y-70722645D01*
X151276640Y-70716332D01*
X151281024Y-70710421D01*
X151285967Y-70704967D01*
X151291421Y-70700024D01*
X151297332Y-70695640D01*
X151303645Y-70691856D01*
X151310299Y-70688709D01*
X151317229Y-70686229D01*
X151324368Y-70684441D01*
X151331649Y-70683361D01*
X151339000Y-70683000D01*
X151489000Y-70683000D01*
X151496351Y-70683361D01*
X151496351Y-70683361D01*
G37*
D14*
X151414000Y-71170500D03*
D10*
G36*
X150846351Y-70683361D02*
G01*
X150853632Y-70684441D01*
X150860771Y-70686229D01*
X150867701Y-70688709D01*
X150874355Y-70691856D01*
X150880668Y-70695640D01*
X150886579Y-70700024D01*
X150892033Y-70704967D01*
X150896976Y-70710421D01*
X150901360Y-70716332D01*
X150905144Y-70722645D01*
X150908291Y-70729299D01*
X150910771Y-70736229D01*
X150912559Y-70743368D01*
X150913639Y-70750649D01*
X150914000Y-70758000D01*
X150914000Y-71583000D01*
X150913639Y-71590351D01*
X150912559Y-71597632D01*
X150910771Y-71604771D01*
X150908291Y-71611701D01*
X150905144Y-71618355D01*
X150901360Y-71624668D01*
X150896976Y-71630579D01*
X150892033Y-71636033D01*
X150886579Y-71640976D01*
X150880668Y-71645360D01*
X150874355Y-71649144D01*
X150867701Y-71652291D01*
X150860771Y-71654771D01*
X150853632Y-71656559D01*
X150846351Y-71657639D01*
X150839000Y-71658000D01*
X150689000Y-71658000D01*
X150681649Y-71657639D01*
X150674368Y-71656559D01*
X150667229Y-71654771D01*
X150660299Y-71652291D01*
X150653645Y-71649144D01*
X150647332Y-71645360D01*
X150641421Y-71640976D01*
X150635967Y-71636033D01*
X150631024Y-71630579D01*
X150626640Y-71624668D01*
X150622856Y-71618355D01*
X150619709Y-71611701D01*
X150617229Y-71604771D01*
X150615441Y-71597632D01*
X150614361Y-71590351D01*
X150614000Y-71583000D01*
X150614000Y-70758000D01*
X150614361Y-70750649D01*
X150615441Y-70743368D01*
X150617229Y-70736229D01*
X150619709Y-70729299D01*
X150622856Y-70722645D01*
X150626640Y-70716332D01*
X150631024Y-70710421D01*
X150635967Y-70704967D01*
X150641421Y-70700024D01*
X150647332Y-70695640D01*
X150653645Y-70691856D01*
X150660299Y-70688709D01*
X150667229Y-70686229D01*
X150674368Y-70684441D01*
X150681649Y-70683361D01*
X150689000Y-70683000D01*
X150839000Y-70683000D01*
X150846351Y-70683361D01*
X150846351Y-70683361D01*
G37*
D14*
X150764000Y-71170500D03*
D10*
G36*
X150196351Y-70683361D02*
G01*
X150203632Y-70684441D01*
X150210771Y-70686229D01*
X150217701Y-70688709D01*
X150224355Y-70691856D01*
X150230668Y-70695640D01*
X150236579Y-70700024D01*
X150242033Y-70704967D01*
X150246976Y-70710421D01*
X150251360Y-70716332D01*
X150255144Y-70722645D01*
X150258291Y-70729299D01*
X150260771Y-70736229D01*
X150262559Y-70743368D01*
X150263639Y-70750649D01*
X150264000Y-70758000D01*
X150264000Y-71583000D01*
X150263639Y-71590351D01*
X150262559Y-71597632D01*
X150260771Y-71604771D01*
X150258291Y-71611701D01*
X150255144Y-71618355D01*
X150251360Y-71624668D01*
X150246976Y-71630579D01*
X150242033Y-71636033D01*
X150236579Y-71640976D01*
X150230668Y-71645360D01*
X150224355Y-71649144D01*
X150217701Y-71652291D01*
X150210771Y-71654771D01*
X150203632Y-71656559D01*
X150196351Y-71657639D01*
X150189000Y-71658000D01*
X150039000Y-71658000D01*
X150031649Y-71657639D01*
X150024368Y-71656559D01*
X150017229Y-71654771D01*
X150010299Y-71652291D01*
X150003645Y-71649144D01*
X149997332Y-71645360D01*
X149991421Y-71640976D01*
X149985967Y-71636033D01*
X149981024Y-71630579D01*
X149976640Y-71624668D01*
X149972856Y-71618355D01*
X149969709Y-71611701D01*
X149967229Y-71604771D01*
X149965441Y-71597632D01*
X149964361Y-71590351D01*
X149964000Y-71583000D01*
X149964000Y-70758000D01*
X149964361Y-70750649D01*
X149965441Y-70743368D01*
X149967229Y-70736229D01*
X149969709Y-70729299D01*
X149972856Y-70722645D01*
X149976640Y-70716332D01*
X149981024Y-70710421D01*
X149985967Y-70704967D01*
X149991421Y-70700024D01*
X149997332Y-70695640D01*
X150003645Y-70691856D01*
X150010299Y-70688709D01*
X150017229Y-70686229D01*
X150024368Y-70684441D01*
X150031649Y-70683361D01*
X150039000Y-70683000D01*
X150189000Y-70683000D01*
X150196351Y-70683361D01*
X150196351Y-70683361D01*
G37*
D14*
X150114000Y-71170500D03*
D10*
G36*
X149546351Y-70683361D02*
G01*
X149553632Y-70684441D01*
X149560771Y-70686229D01*
X149567701Y-70688709D01*
X149574355Y-70691856D01*
X149580668Y-70695640D01*
X149586579Y-70700024D01*
X149592033Y-70704967D01*
X149596976Y-70710421D01*
X149601360Y-70716332D01*
X149605144Y-70722645D01*
X149608291Y-70729299D01*
X149610771Y-70736229D01*
X149612559Y-70743368D01*
X149613639Y-70750649D01*
X149614000Y-70758000D01*
X149614000Y-71583000D01*
X149613639Y-71590351D01*
X149612559Y-71597632D01*
X149610771Y-71604771D01*
X149608291Y-71611701D01*
X149605144Y-71618355D01*
X149601360Y-71624668D01*
X149596976Y-71630579D01*
X149592033Y-71636033D01*
X149586579Y-71640976D01*
X149580668Y-71645360D01*
X149574355Y-71649144D01*
X149567701Y-71652291D01*
X149560771Y-71654771D01*
X149553632Y-71656559D01*
X149546351Y-71657639D01*
X149539000Y-71658000D01*
X149389000Y-71658000D01*
X149381649Y-71657639D01*
X149374368Y-71656559D01*
X149367229Y-71654771D01*
X149360299Y-71652291D01*
X149353645Y-71649144D01*
X149347332Y-71645360D01*
X149341421Y-71640976D01*
X149335967Y-71636033D01*
X149331024Y-71630579D01*
X149326640Y-71624668D01*
X149322856Y-71618355D01*
X149319709Y-71611701D01*
X149317229Y-71604771D01*
X149315441Y-71597632D01*
X149314361Y-71590351D01*
X149314000Y-71583000D01*
X149314000Y-70758000D01*
X149314361Y-70750649D01*
X149315441Y-70743368D01*
X149317229Y-70736229D01*
X149319709Y-70729299D01*
X149322856Y-70722645D01*
X149326640Y-70716332D01*
X149331024Y-70710421D01*
X149335967Y-70704967D01*
X149341421Y-70700024D01*
X149347332Y-70695640D01*
X149353645Y-70691856D01*
X149360299Y-70688709D01*
X149367229Y-70686229D01*
X149374368Y-70684441D01*
X149381649Y-70683361D01*
X149389000Y-70683000D01*
X149539000Y-70683000D01*
X149546351Y-70683361D01*
X149546351Y-70683361D01*
G37*
D14*
X149464000Y-71170500D03*
D10*
G36*
X148896351Y-70683361D02*
G01*
X148903632Y-70684441D01*
X148910771Y-70686229D01*
X148917701Y-70688709D01*
X148924355Y-70691856D01*
X148930668Y-70695640D01*
X148936579Y-70700024D01*
X148942033Y-70704967D01*
X148946976Y-70710421D01*
X148951360Y-70716332D01*
X148955144Y-70722645D01*
X148958291Y-70729299D01*
X148960771Y-70736229D01*
X148962559Y-70743368D01*
X148963639Y-70750649D01*
X148964000Y-70758000D01*
X148964000Y-71583000D01*
X148963639Y-71590351D01*
X148962559Y-71597632D01*
X148960771Y-71604771D01*
X148958291Y-71611701D01*
X148955144Y-71618355D01*
X148951360Y-71624668D01*
X148946976Y-71630579D01*
X148942033Y-71636033D01*
X148936579Y-71640976D01*
X148930668Y-71645360D01*
X148924355Y-71649144D01*
X148917701Y-71652291D01*
X148910771Y-71654771D01*
X148903632Y-71656559D01*
X148896351Y-71657639D01*
X148889000Y-71658000D01*
X148739000Y-71658000D01*
X148731649Y-71657639D01*
X148724368Y-71656559D01*
X148717229Y-71654771D01*
X148710299Y-71652291D01*
X148703645Y-71649144D01*
X148697332Y-71645360D01*
X148691421Y-71640976D01*
X148685967Y-71636033D01*
X148681024Y-71630579D01*
X148676640Y-71624668D01*
X148672856Y-71618355D01*
X148669709Y-71611701D01*
X148667229Y-71604771D01*
X148665441Y-71597632D01*
X148664361Y-71590351D01*
X148664000Y-71583000D01*
X148664000Y-70758000D01*
X148664361Y-70750649D01*
X148665441Y-70743368D01*
X148667229Y-70736229D01*
X148669709Y-70729299D01*
X148672856Y-70722645D01*
X148676640Y-70716332D01*
X148681024Y-70710421D01*
X148685967Y-70704967D01*
X148691421Y-70700024D01*
X148697332Y-70695640D01*
X148703645Y-70691856D01*
X148710299Y-70688709D01*
X148717229Y-70686229D01*
X148724368Y-70684441D01*
X148731649Y-70683361D01*
X148739000Y-70683000D01*
X148889000Y-70683000D01*
X148896351Y-70683361D01*
X148896351Y-70683361D01*
G37*
D14*
X148814000Y-71170500D03*
M02*
