G04 #@! TF.GenerationSoftware,KiCad,Pcbnew,(5.1.4)-1*
G04 #@! TF.CreationDate,2021-05-31T18:31:04-05:00*
G04 #@! TF.ProjectId,pt100stick,70743130-3073-4746-9963-6b2e6b696361,rev?*
G04 #@! TF.SameCoordinates,Original*
G04 #@! TF.FileFunction,Soldermask,Bot*
G04 #@! TF.FilePolarity,Negative*
%FSLAX46Y46*%
G04 Gerber Fmt 4.6, Leading zero omitted, Abs format (unit mm)*
G04 Created by KiCad (PCBNEW (5.1.4)-1) date 2021-05-31 18:31:04*
%MOMM*%
%LPD*%
G04 APERTURE LIST*
%ADD10C,0.100000*%
G04 APERTURE END LIST*
D10*
G36*
X142406823Y-88061313D02*
G01*
X142567242Y-88109976D01*
X142699906Y-88180886D01*
X142715078Y-88188996D01*
X142844659Y-88295341D01*
X142951004Y-88424922D01*
X142951005Y-88424924D01*
X143030024Y-88572758D01*
X143078687Y-88733177D01*
X143095117Y-88900000D01*
X143078687Y-89066823D01*
X143030024Y-89227242D01*
X142959114Y-89359906D01*
X142951004Y-89375078D01*
X142844659Y-89504659D01*
X142715078Y-89611004D01*
X142715076Y-89611005D01*
X142567242Y-89690024D01*
X142406823Y-89738687D01*
X142281804Y-89751000D01*
X142198196Y-89751000D01*
X142073177Y-89738687D01*
X141912758Y-89690024D01*
X141764924Y-89611005D01*
X141764922Y-89611004D01*
X141635341Y-89504659D01*
X141528996Y-89375078D01*
X141520886Y-89359906D01*
X141449976Y-89227242D01*
X141401313Y-89066823D01*
X141384883Y-88900000D01*
X141401313Y-88733177D01*
X141449976Y-88572758D01*
X141528995Y-88424924D01*
X141528996Y-88424922D01*
X141635341Y-88295341D01*
X141764922Y-88188996D01*
X141780094Y-88180886D01*
X141912758Y-88109976D01*
X142073177Y-88061313D01*
X142198196Y-88049000D01*
X142281804Y-88049000D01*
X142406823Y-88061313D01*
X142406823Y-88061313D01*
G37*
G36*
X155106823Y-88061313D02*
G01*
X155267242Y-88109976D01*
X155399906Y-88180886D01*
X155415078Y-88188996D01*
X155544659Y-88295341D01*
X155651004Y-88424922D01*
X155651005Y-88424924D01*
X155730024Y-88572758D01*
X155778687Y-88733177D01*
X155795117Y-88900000D01*
X155778687Y-89066823D01*
X155730024Y-89227242D01*
X155659114Y-89359906D01*
X155651004Y-89375078D01*
X155544659Y-89504659D01*
X155415078Y-89611004D01*
X155415076Y-89611005D01*
X155267242Y-89690024D01*
X155106823Y-89738687D01*
X154981804Y-89751000D01*
X154898196Y-89751000D01*
X154773177Y-89738687D01*
X154612758Y-89690024D01*
X154464924Y-89611005D01*
X154464922Y-89611004D01*
X154335341Y-89504659D01*
X154228996Y-89375078D01*
X154220886Y-89359906D01*
X154149976Y-89227242D01*
X154101313Y-89066823D01*
X154084883Y-88900000D01*
X154101313Y-88733177D01*
X154149976Y-88572758D01*
X154228995Y-88424924D01*
X154228996Y-88424922D01*
X154335341Y-88295341D01*
X154464922Y-88188996D01*
X154480094Y-88180886D01*
X154612758Y-88109976D01*
X154773177Y-88061313D01*
X154898196Y-88049000D01*
X154981804Y-88049000D01*
X155106823Y-88061313D01*
X155106823Y-88061313D01*
G37*
G36*
X155106823Y-85521313D02*
G01*
X155267242Y-85569976D01*
X155399906Y-85640886D01*
X155415078Y-85648996D01*
X155544659Y-85755341D01*
X155651004Y-85884922D01*
X155651005Y-85884924D01*
X155730024Y-86032758D01*
X155778687Y-86193177D01*
X155795117Y-86360000D01*
X155778687Y-86526823D01*
X155730024Y-86687242D01*
X155659114Y-86819906D01*
X155651004Y-86835078D01*
X155544659Y-86964659D01*
X155415078Y-87071004D01*
X155415076Y-87071005D01*
X155267242Y-87150024D01*
X155106823Y-87198687D01*
X154981804Y-87211000D01*
X154898196Y-87211000D01*
X154773177Y-87198687D01*
X154612758Y-87150024D01*
X154464924Y-87071005D01*
X154464922Y-87071004D01*
X154335341Y-86964659D01*
X154228996Y-86835078D01*
X154220886Y-86819906D01*
X154149976Y-86687242D01*
X154101313Y-86526823D01*
X154084883Y-86360000D01*
X154101313Y-86193177D01*
X154149976Y-86032758D01*
X154228995Y-85884924D01*
X154228996Y-85884922D01*
X154335341Y-85755341D01*
X154464922Y-85648996D01*
X154480094Y-85640886D01*
X154612758Y-85569976D01*
X154773177Y-85521313D01*
X154898196Y-85509000D01*
X154981804Y-85509000D01*
X155106823Y-85521313D01*
X155106823Y-85521313D01*
G37*
G36*
X142406823Y-85521313D02*
G01*
X142567242Y-85569976D01*
X142699906Y-85640886D01*
X142715078Y-85648996D01*
X142844659Y-85755341D01*
X142951004Y-85884922D01*
X142951005Y-85884924D01*
X143030024Y-86032758D01*
X143078687Y-86193177D01*
X143095117Y-86360000D01*
X143078687Y-86526823D01*
X143030024Y-86687242D01*
X142959114Y-86819906D01*
X142951004Y-86835078D01*
X142844659Y-86964659D01*
X142715078Y-87071004D01*
X142715076Y-87071005D01*
X142567242Y-87150024D01*
X142406823Y-87198687D01*
X142281804Y-87211000D01*
X142198196Y-87211000D01*
X142073177Y-87198687D01*
X141912758Y-87150024D01*
X141764924Y-87071005D01*
X141764922Y-87071004D01*
X141635341Y-86964659D01*
X141528996Y-86835078D01*
X141520886Y-86819906D01*
X141449976Y-86687242D01*
X141401313Y-86526823D01*
X141384883Y-86360000D01*
X141401313Y-86193177D01*
X141449976Y-86032758D01*
X141528995Y-85884924D01*
X141528996Y-85884922D01*
X141635341Y-85755341D01*
X141764922Y-85648996D01*
X141780094Y-85640886D01*
X141912758Y-85569976D01*
X142073177Y-85521313D01*
X142198196Y-85509000D01*
X142281804Y-85509000D01*
X142406823Y-85521313D01*
X142406823Y-85521313D01*
G37*
G36*
X142406823Y-82981313D02*
G01*
X142567242Y-83029976D01*
X142699906Y-83100886D01*
X142715078Y-83108996D01*
X142844659Y-83215341D01*
X142951004Y-83344922D01*
X142951005Y-83344924D01*
X143030024Y-83492758D01*
X143078687Y-83653177D01*
X143095117Y-83820000D01*
X143078687Y-83986823D01*
X143030024Y-84147242D01*
X142959114Y-84279906D01*
X142951004Y-84295078D01*
X142844659Y-84424659D01*
X142715078Y-84531004D01*
X142715076Y-84531005D01*
X142567242Y-84610024D01*
X142406823Y-84658687D01*
X142281804Y-84671000D01*
X142198196Y-84671000D01*
X142073177Y-84658687D01*
X141912758Y-84610024D01*
X141764924Y-84531005D01*
X141764922Y-84531004D01*
X141635341Y-84424659D01*
X141528996Y-84295078D01*
X141520886Y-84279906D01*
X141449976Y-84147242D01*
X141401313Y-83986823D01*
X141384883Y-83820000D01*
X141401313Y-83653177D01*
X141449976Y-83492758D01*
X141528995Y-83344924D01*
X141528996Y-83344922D01*
X141635341Y-83215341D01*
X141764922Y-83108996D01*
X141780094Y-83100886D01*
X141912758Y-83029976D01*
X142073177Y-82981313D01*
X142198196Y-82969000D01*
X142281804Y-82969000D01*
X142406823Y-82981313D01*
X142406823Y-82981313D01*
G37*
G36*
X155106823Y-82981313D02*
G01*
X155267242Y-83029976D01*
X155399906Y-83100886D01*
X155415078Y-83108996D01*
X155544659Y-83215341D01*
X155651004Y-83344922D01*
X155651005Y-83344924D01*
X155730024Y-83492758D01*
X155778687Y-83653177D01*
X155795117Y-83820000D01*
X155778687Y-83986823D01*
X155730024Y-84147242D01*
X155659114Y-84279906D01*
X155651004Y-84295078D01*
X155544659Y-84424659D01*
X155415078Y-84531004D01*
X155415076Y-84531005D01*
X155267242Y-84610024D01*
X155106823Y-84658687D01*
X154981804Y-84671000D01*
X154898196Y-84671000D01*
X154773177Y-84658687D01*
X154612758Y-84610024D01*
X154464924Y-84531005D01*
X154464922Y-84531004D01*
X154335341Y-84424659D01*
X154228996Y-84295078D01*
X154220886Y-84279906D01*
X154149976Y-84147242D01*
X154101313Y-83986823D01*
X154084883Y-83820000D01*
X154101313Y-83653177D01*
X154149976Y-83492758D01*
X154228995Y-83344924D01*
X154228996Y-83344922D01*
X154335341Y-83215341D01*
X154464922Y-83108996D01*
X154480094Y-83100886D01*
X154612758Y-83029976D01*
X154773177Y-82981313D01*
X154898196Y-82969000D01*
X154981804Y-82969000D01*
X155106823Y-82981313D01*
X155106823Y-82981313D01*
G37*
G36*
X155106823Y-80441313D02*
G01*
X155267242Y-80489976D01*
X155399906Y-80560886D01*
X155415078Y-80568996D01*
X155544659Y-80675341D01*
X155651004Y-80804922D01*
X155651005Y-80804924D01*
X155730024Y-80952758D01*
X155778687Y-81113177D01*
X155795117Y-81280000D01*
X155778687Y-81446823D01*
X155730024Y-81607242D01*
X155659114Y-81739906D01*
X155651004Y-81755078D01*
X155544659Y-81884659D01*
X155415078Y-81991004D01*
X155415076Y-81991005D01*
X155267242Y-82070024D01*
X155106823Y-82118687D01*
X154981804Y-82131000D01*
X154898196Y-82131000D01*
X154773177Y-82118687D01*
X154612758Y-82070024D01*
X154464924Y-81991005D01*
X154464922Y-81991004D01*
X154335341Y-81884659D01*
X154228996Y-81755078D01*
X154220886Y-81739906D01*
X154149976Y-81607242D01*
X154101313Y-81446823D01*
X154084883Y-81280000D01*
X154101313Y-81113177D01*
X154149976Y-80952758D01*
X154228995Y-80804924D01*
X154228996Y-80804922D01*
X154335341Y-80675341D01*
X154464922Y-80568996D01*
X154480094Y-80560886D01*
X154612758Y-80489976D01*
X154773177Y-80441313D01*
X154898196Y-80429000D01*
X154981804Y-80429000D01*
X155106823Y-80441313D01*
X155106823Y-80441313D01*
G37*
G36*
X142406823Y-80441313D02*
G01*
X142567242Y-80489976D01*
X142699906Y-80560886D01*
X142715078Y-80568996D01*
X142844659Y-80675341D01*
X142951004Y-80804922D01*
X142951005Y-80804924D01*
X143030024Y-80952758D01*
X143078687Y-81113177D01*
X143095117Y-81280000D01*
X143078687Y-81446823D01*
X143030024Y-81607242D01*
X142959114Y-81739906D01*
X142951004Y-81755078D01*
X142844659Y-81884659D01*
X142715078Y-81991004D01*
X142715076Y-81991005D01*
X142567242Y-82070024D01*
X142406823Y-82118687D01*
X142281804Y-82131000D01*
X142198196Y-82131000D01*
X142073177Y-82118687D01*
X141912758Y-82070024D01*
X141764924Y-81991005D01*
X141764922Y-81991004D01*
X141635341Y-81884659D01*
X141528996Y-81755078D01*
X141520886Y-81739906D01*
X141449976Y-81607242D01*
X141401313Y-81446823D01*
X141384883Y-81280000D01*
X141401313Y-81113177D01*
X141449976Y-80952758D01*
X141528995Y-80804924D01*
X141528996Y-80804922D01*
X141635341Y-80675341D01*
X141764922Y-80568996D01*
X141780094Y-80560886D01*
X141912758Y-80489976D01*
X142073177Y-80441313D01*
X142198196Y-80429000D01*
X142281804Y-80429000D01*
X142406823Y-80441313D01*
X142406823Y-80441313D01*
G37*
G36*
X142406823Y-77901313D02*
G01*
X142567242Y-77949976D01*
X142699906Y-78020886D01*
X142715078Y-78028996D01*
X142844659Y-78135341D01*
X142951004Y-78264922D01*
X142951005Y-78264924D01*
X143030024Y-78412758D01*
X143078687Y-78573177D01*
X143095117Y-78740000D01*
X143078687Y-78906823D01*
X143030024Y-79067242D01*
X142959114Y-79199906D01*
X142951004Y-79215078D01*
X142844659Y-79344659D01*
X142715078Y-79451004D01*
X142715076Y-79451005D01*
X142567242Y-79530024D01*
X142406823Y-79578687D01*
X142281804Y-79591000D01*
X142198196Y-79591000D01*
X142073177Y-79578687D01*
X141912758Y-79530024D01*
X141764924Y-79451005D01*
X141764922Y-79451004D01*
X141635341Y-79344659D01*
X141528996Y-79215078D01*
X141520886Y-79199906D01*
X141449976Y-79067242D01*
X141401313Y-78906823D01*
X141384883Y-78740000D01*
X141401313Y-78573177D01*
X141449976Y-78412758D01*
X141528995Y-78264924D01*
X141528996Y-78264922D01*
X141635341Y-78135341D01*
X141764922Y-78028996D01*
X141780094Y-78020886D01*
X141912758Y-77949976D01*
X142073177Y-77901313D01*
X142198196Y-77889000D01*
X142281804Y-77889000D01*
X142406823Y-77901313D01*
X142406823Y-77901313D01*
G37*
G36*
X155106823Y-77901313D02*
G01*
X155267242Y-77949976D01*
X155399906Y-78020886D01*
X155415078Y-78028996D01*
X155544659Y-78135341D01*
X155651004Y-78264922D01*
X155651005Y-78264924D01*
X155730024Y-78412758D01*
X155778687Y-78573177D01*
X155795117Y-78740000D01*
X155778687Y-78906823D01*
X155730024Y-79067242D01*
X155659114Y-79199906D01*
X155651004Y-79215078D01*
X155544659Y-79344659D01*
X155415078Y-79451004D01*
X155415076Y-79451005D01*
X155267242Y-79530024D01*
X155106823Y-79578687D01*
X154981804Y-79591000D01*
X154898196Y-79591000D01*
X154773177Y-79578687D01*
X154612758Y-79530024D01*
X154464924Y-79451005D01*
X154464922Y-79451004D01*
X154335341Y-79344659D01*
X154228996Y-79215078D01*
X154220886Y-79199906D01*
X154149976Y-79067242D01*
X154101313Y-78906823D01*
X154084883Y-78740000D01*
X154101313Y-78573177D01*
X154149976Y-78412758D01*
X154228995Y-78264924D01*
X154228996Y-78264922D01*
X154335341Y-78135341D01*
X154464922Y-78028996D01*
X154480094Y-78020886D01*
X154612758Y-77949976D01*
X154773177Y-77901313D01*
X154898196Y-77889000D01*
X154981804Y-77889000D01*
X155106823Y-77901313D01*
X155106823Y-77901313D01*
G37*
G36*
X155106823Y-75361313D02*
G01*
X155267242Y-75409976D01*
X155399906Y-75480886D01*
X155415078Y-75488996D01*
X155544659Y-75595341D01*
X155651004Y-75724922D01*
X155651005Y-75724924D01*
X155730024Y-75872758D01*
X155778687Y-76033177D01*
X155795117Y-76200000D01*
X155778687Y-76366823D01*
X155730024Y-76527242D01*
X155659114Y-76659906D01*
X155651004Y-76675078D01*
X155544659Y-76804659D01*
X155415078Y-76911004D01*
X155415076Y-76911005D01*
X155267242Y-76990024D01*
X155106823Y-77038687D01*
X154981804Y-77051000D01*
X154898196Y-77051000D01*
X154773177Y-77038687D01*
X154612758Y-76990024D01*
X154464924Y-76911005D01*
X154464922Y-76911004D01*
X154335341Y-76804659D01*
X154228996Y-76675078D01*
X154220886Y-76659906D01*
X154149976Y-76527242D01*
X154101313Y-76366823D01*
X154084883Y-76200000D01*
X154101313Y-76033177D01*
X154149976Y-75872758D01*
X154228995Y-75724924D01*
X154228996Y-75724922D01*
X154335341Y-75595341D01*
X154464922Y-75488996D01*
X154480094Y-75480886D01*
X154612758Y-75409976D01*
X154773177Y-75361313D01*
X154898196Y-75349000D01*
X154981804Y-75349000D01*
X155106823Y-75361313D01*
X155106823Y-75361313D01*
G37*
G36*
X142406823Y-75361313D02*
G01*
X142567242Y-75409976D01*
X142699906Y-75480886D01*
X142715078Y-75488996D01*
X142844659Y-75595341D01*
X142951004Y-75724922D01*
X142951005Y-75724924D01*
X143030024Y-75872758D01*
X143078687Y-76033177D01*
X143095117Y-76200000D01*
X143078687Y-76366823D01*
X143030024Y-76527242D01*
X142959114Y-76659906D01*
X142951004Y-76675078D01*
X142844659Y-76804659D01*
X142715078Y-76911004D01*
X142715076Y-76911005D01*
X142567242Y-76990024D01*
X142406823Y-77038687D01*
X142281804Y-77051000D01*
X142198196Y-77051000D01*
X142073177Y-77038687D01*
X141912758Y-76990024D01*
X141764924Y-76911005D01*
X141764922Y-76911004D01*
X141635341Y-76804659D01*
X141528996Y-76675078D01*
X141520886Y-76659906D01*
X141449976Y-76527242D01*
X141401313Y-76366823D01*
X141384883Y-76200000D01*
X141401313Y-76033177D01*
X141449976Y-75872758D01*
X141528995Y-75724924D01*
X141528996Y-75724922D01*
X141635341Y-75595341D01*
X141764922Y-75488996D01*
X141780094Y-75480886D01*
X141912758Y-75409976D01*
X142073177Y-75361313D01*
X142198196Y-75349000D01*
X142281804Y-75349000D01*
X142406823Y-75361313D01*
X142406823Y-75361313D01*
G37*
G36*
X155106823Y-72821313D02*
G01*
X155267242Y-72869976D01*
X155399906Y-72940886D01*
X155415078Y-72948996D01*
X155544659Y-73055341D01*
X155651004Y-73184922D01*
X155651005Y-73184924D01*
X155730024Y-73332758D01*
X155778687Y-73493177D01*
X155795117Y-73660000D01*
X155778687Y-73826823D01*
X155730024Y-73987242D01*
X155659114Y-74119906D01*
X155651004Y-74135078D01*
X155544659Y-74264659D01*
X155415078Y-74371004D01*
X155415076Y-74371005D01*
X155267242Y-74450024D01*
X155106823Y-74498687D01*
X154981804Y-74511000D01*
X154898196Y-74511000D01*
X154773177Y-74498687D01*
X154612758Y-74450024D01*
X154464924Y-74371005D01*
X154464922Y-74371004D01*
X154335341Y-74264659D01*
X154228996Y-74135078D01*
X154220886Y-74119906D01*
X154149976Y-73987242D01*
X154101313Y-73826823D01*
X154084883Y-73660000D01*
X154101313Y-73493177D01*
X154149976Y-73332758D01*
X154228995Y-73184924D01*
X154228996Y-73184922D01*
X154335341Y-73055341D01*
X154464922Y-72948996D01*
X154480094Y-72940886D01*
X154612758Y-72869976D01*
X154773177Y-72821313D01*
X154898196Y-72809000D01*
X154981804Y-72809000D01*
X155106823Y-72821313D01*
X155106823Y-72821313D01*
G37*
G36*
X142406823Y-72821313D02*
G01*
X142567242Y-72869976D01*
X142699906Y-72940886D01*
X142715078Y-72948996D01*
X142844659Y-73055341D01*
X142951004Y-73184922D01*
X142951005Y-73184924D01*
X143030024Y-73332758D01*
X143078687Y-73493177D01*
X143095117Y-73660000D01*
X143078687Y-73826823D01*
X143030024Y-73987242D01*
X142959114Y-74119906D01*
X142951004Y-74135078D01*
X142844659Y-74264659D01*
X142715078Y-74371004D01*
X142715076Y-74371005D01*
X142567242Y-74450024D01*
X142406823Y-74498687D01*
X142281804Y-74511000D01*
X142198196Y-74511000D01*
X142073177Y-74498687D01*
X141912758Y-74450024D01*
X141764924Y-74371005D01*
X141764922Y-74371004D01*
X141635341Y-74264659D01*
X141528996Y-74135078D01*
X141520886Y-74119906D01*
X141449976Y-73987242D01*
X141401313Y-73826823D01*
X141384883Y-73660000D01*
X141401313Y-73493177D01*
X141449976Y-73332758D01*
X141528995Y-73184924D01*
X141528996Y-73184922D01*
X141635341Y-73055341D01*
X141764922Y-72948996D01*
X141780094Y-72940886D01*
X141912758Y-72869976D01*
X142073177Y-72821313D01*
X142198196Y-72809000D01*
X142281804Y-72809000D01*
X142406823Y-72821313D01*
X142406823Y-72821313D01*
G37*
G36*
X143091000Y-71971000D02*
G01*
X141389000Y-71971000D01*
X141389000Y-70269000D01*
X143091000Y-70269000D01*
X143091000Y-71971000D01*
X143091000Y-71971000D01*
G37*
G36*
X155106823Y-70281313D02*
G01*
X155267242Y-70329976D01*
X155399906Y-70400886D01*
X155415078Y-70408996D01*
X155544659Y-70515341D01*
X155651004Y-70644922D01*
X155651005Y-70644924D01*
X155730024Y-70792758D01*
X155778687Y-70953177D01*
X155795117Y-71120000D01*
X155778687Y-71286823D01*
X155730024Y-71447242D01*
X155659114Y-71579906D01*
X155651004Y-71595078D01*
X155544659Y-71724659D01*
X155415078Y-71831004D01*
X155415076Y-71831005D01*
X155267242Y-71910024D01*
X155106823Y-71958687D01*
X154981804Y-71971000D01*
X154898196Y-71971000D01*
X154773177Y-71958687D01*
X154612758Y-71910024D01*
X154464924Y-71831005D01*
X154464922Y-71831004D01*
X154335341Y-71724659D01*
X154228996Y-71595078D01*
X154220886Y-71579906D01*
X154149976Y-71447242D01*
X154101313Y-71286823D01*
X154084883Y-71120000D01*
X154101313Y-70953177D01*
X154149976Y-70792758D01*
X154228995Y-70644924D01*
X154228996Y-70644922D01*
X154335341Y-70515341D01*
X154464922Y-70408996D01*
X154480094Y-70400886D01*
X154612758Y-70329976D01*
X154773177Y-70281313D01*
X154898196Y-70269000D01*
X154981804Y-70269000D01*
X155106823Y-70281313D01*
X155106823Y-70281313D01*
G37*
M02*
