G04 #@! TF.GenerationSoftware,KiCad,Pcbnew,(5.1.4)-1*
G04 #@! TF.CreationDate,2021-05-31T18:31:04-05:00*
G04 #@! TF.ProjectId,pt100stick,70743130-3073-4746-9963-6b2e6b696361,rev?*
G04 #@! TF.SameCoordinates,Original*
G04 #@! TF.FileFunction,Soldermask,Top*
G04 #@! TF.FilePolarity,Negative*
%FSLAX46Y46*%
G04 Gerber Fmt 4.6, Leading zero omitted, Abs format (unit mm)*
G04 Created by KiCad (PCBNEW (5.1.4)-1) date 2021-05-31 18:31:04*
%MOMM*%
%LPD*%
G04 APERTURE LIST*
%ADD10C,0.100000*%
G04 APERTURE END LIST*
D10*
G36*
X155106823Y-88061313D02*
G01*
X155267242Y-88109976D01*
X155382532Y-88171600D01*
X155415078Y-88188996D01*
X155544659Y-88295341D01*
X155651004Y-88424922D01*
X155651005Y-88424924D01*
X155730024Y-88572758D01*
X155778687Y-88733177D01*
X155795117Y-88900000D01*
X155778687Y-89066823D01*
X155730024Y-89227242D01*
X155671998Y-89335800D01*
X155651004Y-89375078D01*
X155544659Y-89504659D01*
X155415078Y-89611004D01*
X155415076Y-89611005D01*
X155267242Y-89690024D01*
X155106823Y-89738687D01*
X154981804Y-89751000D01*
X154898196Y-89751000D01*
X154773177Y-89738687D01*
X154612758Y-89690024D01*
X154464924Y-89611005D01*
X154464922Y-89611004D01*
X154335341Y-89504659D01*
X154228996Y-89375078D01*
X154208002Y-89335800D01*
X154149976Y-89227242D01*
X154101313Y-89066823D01*
X154084883Y-88900000D01*
X154101313Y-88733177D01*
X154149976Y-88572758D01*
X154228995Y-88424924D01*
X154228996Y-88424922D01*
X154335341Y-88295341D01*
X154464922Y-88188996D01*
X154497468Y-88171600D01*
X154612758Y-88109976D01*
X154773177Y-88061313D01*
X154898196Y-88049000D01*
X154981804Y-88049000D01*
X155106823Y-88061313D01*
X155106823Y-88061313D01*
G37*
G36*
X142406823Y-88061313D02*
G01*
X142567242Y-88109976D01*
X142682532Y-88171600D01*
X142715078Y-88188996D01*
X142844659Y-88295341D01*
X142951004Y-88424922D01*
X142951005Y-88424924D01*
X143030024Y-88572758D01*
X143078687Y-88733177D01*
X143095117Y-88900000D01*
X143078687Y-89066823D01*
X143030024Y-89227242D01*
X142971998Y-89335800D01*
X142951004Y-89375078D01*
X142844659Y-89504659D01*
X142715078Y-89611004D01*
X142715076Y-89611005D01*
X142567242Y-89690024D01*
X142406823Y-89738687D01*
X142281804Y-89751000D01*
X142198196Y-89751000D01*
X142073177Y-89738687D01*
X141912758Y-89690024D01*
X141764924Y-89611005D01*
X141764922Y-89611004D01*
X141635341Y-89504659D01*
X141528996Y-89375078D01*
X141508002Y-89335800D01*
X141449976Y-89227242D01*
X141401313Y-89066823D01*
X141384883Y-88900000D01*
X141401313Y-88733177D01*
X141449976Y-88572758D01*
X141528995Y-88424924D01*
X141528996Y-88424922D01*
X141635341Y-88295341D01*
X141764922Y-88188996D01*
X141797468Y-88171600D01*
X141912758Y-88109976D01*
X142073177Y-88061313D01*
X142198196Y-88049000D01*
X142281804Y-88049000D01*
X142406823Y-88061313D01*
X142406823Y-88061313D01*
G37*
G36*
X150021299Y-88289045D02*
G01*
X150058795Y-88300420D01*
X150093354Y-88318892D01*
X150123647Y-88343753D01*
X150148508Y-88374046D01*
X150166980Y-88408605D01*
X150178355Y-88446101D01*
X150182800Y-88491238D01*
X150182800Y-89229962D01*
X150178355Y-89275099D01*
X150166980Y-89312595D01*
X150148508Y-89347154D01*
X150123647Y-89377447D01*
X150093354Y-89402308D01*
X150058795Y-89420780D01*
X150021299Y-89432155D01*
X149976162Y-89436600D01*
X149337438Y-89436600D01*
X149292301Y-89432155D01*
X149254805Y-89420780D01*
X149220246Y-89402308D01*
X149189953Y-89377447D01*
X149165092Y-89347154D01*
X149146620Y-89312595D01*
X149135245Y-89275099D01*
X149130800Y-89229962D01*
X149130800Y-88491238D01*
X149135245Y-88446101D01*
X149146620Y-88408605D01*
X149165092Y-88374046D01*
X149189953Y-88343753D01*
X149220246Y-88318892D01*
X149254805Y-88300420D01*
X149292301Y-88289045D01*
X149337438Y-88284600D01*
X149976162Y-88284600D01*
X150021299Y-88289045D01*
X150021299Y-88289045D01*
G37*
G36*
X151723099Y-88289045D02*
G01*
X151760595Y-88300420D01*
X151795154Y-88318892D01*
X151825447Y-88343753D01*
X151850308Y-88374046D01*
X151868780Y-88408605D01*
X151880155Y-88446101D01*
X151884600Y-88491238D01*
X151884600Y-89229962D01*
X151880155Y-89275099D01*
X151868780Y-89312595D01*
X151850308Y-89347154D01*
X151825447Y-89377447D01*
X151795154Y-89402308D01*
X151760595Y-89420780D01*
X151723099Y-89432155D01*
X151677962Y-89436600D01*
X151039238Y-89436600D01*
X150994101Y-89432155D01*
X150956605Y-89420780D01*
X150922046Y-89402308D01*
X150891753Y-89377447D01*
X150866892Y-89347154D01*
X150848420Y-89312595D01*
X150837045Y-89275099D01*
X150832600Y-89229962D01*
X150832600Y-88491238D01*
X150837045Y-88446101D01*
X150848420Y-88408605D01*
X150866892Y-88374046D01*
X150891753Y-88343753D01*
X150922046Y-88318892D01*
X150956605Y-88300420D01*
X150994101Y-88289045D01*
X151039238Y-88284600D01*
X151677962Y-88284600D01*
X151723099Y-88289045D01*
X151723099Y-88289045D01*
G37*
G36*
X148449400Y-89335800D02*
G01*
X147447400Y-89335800D01*
X147447400Y-88433800D01*
X148449400Y-88433800D01*
X148449400Y-89335800D01*
X148449400Y-89335800D01*
G37*
G36*
X144788899Y-88176045D02*
G01*
X144826395Y-88187420D01*
X144860954Y-88205892D01*
X144891247Y-88230753D01*
X144916108Y-88261046D01*
X144934580Y-88295605D01*
X144945955Y-88333101D01*
X144950400Y-88378238D01*
X144950400Y-89116962D01*
X144945955Y-89162099D01*
X144934580Y-89199595D01*
X144916108Y-89234154D01*
X144891247Y-89264447D01*
X144860954Y-89289308D01*
X144826395Y-89307780D01*
X144788899Y-89319155D01*
X144743762Y-89323600D01*
X144105038Y-89323600D01*
X144059901Y-89319155D01*
X144022405Y-89307780D01*
X143987846Y-89289308D01*
X143957553Y-89264447D01*
X143932692Y-89234154D01*
X143914220Y-89199595D01*
X143902845Y-89162099D01*
X143898400Y-89116962D01*
X143898400Y-88378238D01*
X143902845Y-88333101D01*
X143914220Y-88295605D01*
X143932692Y-88261046D01*
X143957553Y-88230753D01*
X143987846Y-88205892D01*
X144022405Y-88187420D01*
X144059901Y-88176045D01*
X144105038Y-88171600D01*
X144743762Y-88171600D01*
X144788899Y-88176045D01*
X144788899Y-88176045D01*
G37*
G36*
X146449400Y-88385800D02*
G01*
X145447400Y-88385800D01*
X145447400Y-87483800D01*
X146449400Y-87483800D01*
X146449400Y-88385800D01*
X146449400Y-88385800D01*
G37*
G36*
X151723099Y-86539045D02*
G01*
X151760595Y-86550420D01*
X151795154Y-86568892D01*
X151825447Y-86593753D01*
X151850308Y-86624046D01*
X151868780Y-86658605D01*
X151880155Y-86696101D01*
X151884600Y-86741238D01*
X151884600Y-87479962D01*
X151880155Y-87525099D01*
X151868780Y-87562595D01*
X151850308Y-87597154D01*
X151825447Y-87627447D01*
X151795154Y-87652308D01*
X151760595Y-87670780D01*
X151723099Y-87682155D01*
X151677962Y-87686600D01*
X151039238Y-87686600D01*
X150994101Y-87682155D01*
X150956605Y-87670780D01*
X150922046Y-87652308D01*
X150891753Y-87627447D01*
X150866892Y-87597154D01*
X150848420Y-87562595D01*
X150837045Y-87525099D01*
X150832600Y-87479962D01*
X150832600Y-86741238D01*
X150837045Y-86696101D01*
X150848420Y-86658605D01*
X150866892Y-86624046D01*
X150891753Y-86593753D01*
X150922046Y-86568892D01*
X150956605Y-86550420D01*
X150994101Y-86539045D01*
X151039238Y-86534600D01*
X151677962Y-86534600D01*
X151723099Y-86539045D01*
X151723099Y-86539045D01*
G37*
G36*
X150021299Y-86539045D02*
G01*
X150058795Y-86550420D01*
X150093354Y-86568892D01*
X150123647Y-86593753D01*
X150148508Y-86624046D01*
X150166980Y-86658605D01*
X150178355Y-86696101D01*
X150182800Y-86741238D01*
X150182800Y-87479962D01*
X150178355Y-87525099D01*
X150166980Y-87562595D01*
X150148508Y-87597154D01*
X150123647Y-87627447D01*
X150093354Y-87652308D01*
X150058795Y-87670780D01*
X150021299Y-87682155D01*
X149976162Y-87686600D01*
X149337438Y-87686600D01*
X149292301Y-87682155D01*
X149254805Y-87670780D01*
X149220246Y-87652308D01*
X149189953Y-87627447D01*
X149165092Y-87597154D01*
X149146620Y-87562595D01*
X149135245Y-87525099D01*
X149130800Y-87479962D01*
X149130800Y-86741238D01*
X149135245Y-86696101D01*
X149146620Y-86658605D01*
X149165092Y-86624046D01*
X149189953Y-86593753D01*
X149220246Y-86568892D01*
X149254805Y-86550420D01*
X149292301Y-86539045D01*
X149337438Y-86534600D01*
X149976162Y-86534600D01*
X150021299Y-86539045D01*
X150021299Y-86539045D01*
G37*
G36*
X144788899Y-86426045D02*
G01*
X144826395Y-86437420D01*
X144860954Y-86455892D01*
X144891247Y-86480753D01*
X144916108Y-86511046D01*
X144934580Y-86545605D01*
X144945955Y-86583101D01*
X144950400Y-86628238D01*
X144950400Y-87366962D01*
X144945955Y-87412099D01*
X144934580Y-87449595D01*
X144916108Y-87484154D01*
X144891247Y-87514447D01*
X144860954Y-87539308D01*
X144826395Y-87557780D01*
X144788899Y-87569155D01*
X144743762Y-87573600D01*
X144105038Y-87573600D01*
X144059901Y-87569155D01*
X144022405Y-87557780D01*
X143987846Y-87539308D01*
X143957553Y-87514447D01*
X143932692Y-87484154D01*
X143914220Y-87449595D01*
X143902845Y-87412099D01*
X143898400Y-87366962D01*
X143898400Y-86628238D01*
X143902845Y-86583101D01*
X143914220Y-86545605D01*
X143932692Y-86511046D01*
X143957553Y-86480753D01*
X143987846Y-86455892D01*
X144022405Y-86437420D01*
X144059901Y-86426045D01*
X144105038Y-86421600D01*
X144743762Y-86421600D01*
X144788899Y-86426045D01*
X144788899Y-86426045D01*
G37*
G36*
X148449400Y-87435800D02*
G01*
X147447400Y-87435800D01*
X147447400Y-86533800D01*
X148449400Y-86533800D01*
X148449400Y-87435800D01*
X148449400Y-87435800D01*
G37*
G36*
X142406823Y-85521313D02*
G01*
X142567242Y-85569976D01*
X142699906Y-85640886D01*
X142715078Y-85648996D01*
X142844659Y-85755341D01*
X142951004Y-85884922D01*
X142951005Y-85884924D01*
X143030024Y-86032758D01*
X143078687Y-86193177D01*
X143095117Y-86360000D01*
X143078687Y-86526823D01*
X143049194Y-86624046D01*
X143030826Y-86684600D01*
X143030024Y-86687242D01*
X142971036Y-86797600D01*
X142951004Y-86835078D01*
X142844659Y-86964659D01*
X142715078Y-87071004D01*
X142715076Y-87071005D01*
X142567242Y-87150024D01*
X142406823Y-87198687D01*
X142281804Y-87211000D01*
X142198196Y-87211000D01*
X142073177Y-87198687D01*
X141912758Y-87150024D01*
X141764924Y-87071005D01*
X141764922Y-87071004D01*
X141635341Y-86964659D01*
X141528996Y-86835078D01*
X141508964Y-86797600D01*
X141449976Y-86687242D01*
X141449175Y-86684600D01*
X141430806Y-86624046D01*
X141401313Y-86526823D01*
X141384883Y-86360000D01*
X141401313Y-86193177D01*
X141449976Y-86032758D01*
X141528995Y-85884924D01*
X141528996Y-85884922D01*
X141635341Y-85755341D01*
X141764922Y-85648996D01*
X141780094Y-85640886D01*
X141912758Y-85569976D01*
X142073177Y-85521313D01*
X142198196Y-85509000D01*
X142281804Y-85509000D01*
X142406823Y-85521313D01*
X142406823Y-85521313D01*
G37*
G36*
X155106823Y-85521313D02*
G01*
X155267242Y-85569976D01*
X155399906Y-85640886D01*
X155415078Y-85648996D01*
X155544659Y-85755341D01*
X155651004Y-85884922D01*
X155651005Y-85884924D01*
X155730024Y-86032758D01*
X155778687Y-86193177D01*
X155795117Y-86360000D01*
X155778687Y-86526823D01*
X155749194Y-86624046D01*
X155730826Y-86684600D01*
X155730024Y-86687242D01*
X155671036Y-86797600D01*
X155651004Y-86835078D01*
X155544659Y-86964659D01*
X155415078Y-87071004D01*
X155415076Y-87071005D01*
X155267242Y-87150024D01*
X155106823Y-87198687D01*
X154981804Y-87211000D01*
X154898196Y-87211000D01*
X154773177Y-87198687D01*
X154612758Y-87150024D01*
X154464924Y-87071005D01*
X154464922Y-87071004D01*
X154335341Y-86964659D01*
X154228996Y-86835078D01*
X154208964Y-86797600D01*
X154149976Y-86687242D01*
X154149175Y-86684600D01*
X154130806Y-86624046D01*
X154101313Y-86526823D01*
X154084883Y-86360000D01*
X154101313Y-86193177D01*
X154149976Y-86032758D01*
X154228995Y-85884924D01*
X154228996Y-85884922D01*
X154335341Y-85755341D01*
X154464922Y-85648996D01*
X154480094Y-85640886D01*
X154612758Y-85569976D01*
X154773177Y-85521313D01*
X154898196Y-85509000D01*
X154981804Y-85509000D01*
X155106823Y-85521313D01*
X155106823Y-85521313D01*
G37*
G36*
X145296199Y-83254954D02*
G01*
X145308450Y-83255556D01*
X145326869Y-83255556D01*
X145349149Y-83257750D01*
X145433233Y-83274476D01*
X145454660Y-83280976D01*
X145533858Y-83313780D01*
X145539303Y-83316691D01*
X145539309Y-83316693D01*
X145548169Y-83321429D01*
X145548173Y-83321432D01*
X145553614Y-83324340D01*
X145624899Y-83371971D01*
X145642204Y-83386172D01*
X145702828Y-83446796D01*
X145717029Y-83464101D01*
X145764660Y-83535386D01*
X145767568Y-83540827D01*
X145767571Y-83540831D01*
X145772307Y-83549691D01*
X145772309Y-83549697D01*
X145775220Y-83555142D01*
X145808024Y-83634340D01*
X145814524Y-83655767D01*
X145831250Y-83739851D01*
X145833444Y-83762131D01*
X145833444Y-83780550D01*
X145834046Y-83792801D01*
X145835852Y-83811139D01*
X145835852Y-84298860D01*
X145834263Y-84314999D01*
X145831348Y-84324608D01*
X145826610Y-84333472D01*
X145820237Y-84341237D01*
X145807794Y-84351448D01*
X145797425Y-84358378D01*
X145780098Y-84375705D01*
X145766485Y-84396080D01*
X145757109Y-84418720D01*
X145752329Y-84442753D01*
X145752330Y-84467257D01*
X145757112Y-84491290D01*
X145766490Y-84513929D01*
X145780105Y-84534302D01*
X145797432Y-84551629D01*
X145807802Y-84558558D01*
X145820237Y-84568763D01*
X145826610Y-84576528D01*
X145831348Y-84585392D01*
X145834263Y-84595001D01*
X145835852Y-84611140D01*
X145835852Y-85098862D01*
X145834046Y-85117199D01*
X145833444Y-85129450D01*
X145833444Y-85147869D01*
X145831250Y-85170149D01*
X145814524Y-85254233D01*
X145808024Y-85275660D01*
X145775220Y-85354858D01*
X145772309Y-85360303D01*
X145772307Y-85360309D01*
X145767571Y-85369169D01*
X145767568Y-85369173D01*
X145764660Y-85374614D01*
X145717029Y-85445899D01*
X145702828Y-85463204D01*
X145642204Y-85523828D01*
X145624899Y-85538029D01*
X145553614Y-85585660D01*
X145548173Y-85588568D01*
X145548169Y-85588571D01*
X145539309Y-85593307D01*
X145539303Y-85593309D01*
X145533858Y-85596220D01*
X145454660Y-85629024D01*
X145433233Y-85635524D01*
X145349149Y-85652250D01*
X145326869Y-85654444D01*
X145308450Y-85654444D01*
X145296199Y-85655046D01*
X145277862Y-85656852D01*
X144790138Y-85656852D01*
X144771801Y-85655046D01*
X144759550Y-85654444D01*
X144741131Y-85654444D01*
X144718851Y-85652250D01*
X144634767Y-85635524D01*
X144613340Y-85629024D01*
X144534142Y-85596220D01*
X144528697Y-85593309D01*
X144528691Y-85593307D01*
X144519831Y-85588571D01*
X144519827Y-85588568D01*
X144514386Y-85585660D01*
X144443101Y-85538029D01*
X144425796Y-85523828D01*
X144365172Y-85463204D01*
X144350971Y-85445899D01*
X144303340Y-85374614D01*
X144300432Y-85369173D01*
X144300429Y-85369169D01*
X144295693Y-85360309D01*
X144295691Y-85360303D01*
X144292780Y-85354858D01*
X144259976Y-85275660D01*
X144253476Y-85254233D01*
X144236750Y-85170149D01*
X144234556Y-85147869D01*
X144234556Y-85129450D01*
X144233954Y-85117199D01*
X144232148Y-85098862D01*
X144232148Y-84611140D01*
X144233737Y-84595001D01*
X144236652Y-84585392D01*
X144241390Y-84576528D01*
X144247763Y-84568763D01*
X144260206Y-84558552D01*
X144270575Y-84551622D01*
X144287902Y-84534295D01*
X144301515Y-84513920D01*
X144310891Y-84491280D01*
X144315671Y-84467247D01*
X144315670Y-84442743D01*
X144310888Y-84418710D01*
X144301510Y-84396071D01*
X144287895Y-84375698D01*
X144270568Y-84358371D01*
X144260198Y-84351442D01*
X144247763Y-84341237D01*
X144241390Y-84333472D01*
X144236652Y-84324608D01*
X144233737Y-84314999D01*
X144232148Y-84298860D01*
X144232148Y-83811139D01*
X144233954Y-83792801D01*
X144234556Y-83780550D01*
X144234556Y-83762131D01*
X144236750Y-83739851D01*
X144253476Y-83655767D01*
X144259976Y-83634340D01*
X144292780Y-83555142D01*
X144295691Y-83549697D01*
X144295693Y-83549691D01*
X144300429Y-83540831D01*
X144300432Y-83540827D01*
X144303340Y-83535386D01*
X144350971Y-83464101D01*
X144365172Y-83446796D01*
X144425796Y-83386172D01*
X144443101Y-83371971D01*
X144514386Y-83324340D01*
X144519827Y-83321432D01*
X144519831Y-83321429D01*
X144528691Y-83316693D01*
X144528697Y-83316691D01*
X144534142Y-83313780D01*
X144613340Y-83280976D01*
X144634767Y-83274476D01*
X144718851Y-83257750D01*
X144741131Y-83255556D01*
X144759550Y-83255556D01*
X144771801Y-83254954D01*
X144790139Y-83253148D01*
X145277861Y-83253148D01*
X145296199Y-83254954D01*
X145296199Y-83254954D01*
G37*
G36*
X142406823Y-82981313D02*
G01*
X142567242Y-83029976D01*
X142699906Y-83100886D01*
X142715078Y-83108996D01*
X142844659Y-83215341D01*
X142951004Y-83344922D01*
X142951005Y-83344924D01*
X143030024Y-83492758D01*
X143078687Y-83653177D01*
X143095117Y-83820000D01*
X143078687Y-83986823D01*
X143030024Y-84147242D01*
X142959114Y-84279906D01*
X142951004Y-84295078D01*
X142844659Y-84424659D01*
X142715078Y-84531004D01*
X142715076Y-84531005D01*
X142567242Y-84610024D01*
X142406823Y-84658687D01*
X142281804Y-84671000D01*
X142198196Y-84671000D01*
X142073177Y-84658687D01*
X141912758Y-84610024D01*
X141764924Y-84531005D01*
X141764922Y-84531004D01*
X141635341Y-84424659D01*
X141528996Y-84295078D01*
X141520886Y-84279906D01*
X141449976Y-84147242D01*
X141401313Y-83986823D01*
X141384883Y-83820000D01*
X141401313Y-83653177D01*
X141449976Y-83492758D01*
X141528995Y-83344924D01*
X141528996Y-83344922D01*
X141635341Y-83215341D01*
X141764922Y-83108996D01*
X141780094Y-83100886D01*
X141912758Y-83029976D01*
X142073177Y-82981313D01*
X142198196Y-82969000D01*
X142281804Y-82969000D01*
X142406823Y-82981313D01*
X142406823Y-82981313D01*
G37*
G36*
X155106823Y-82981313D02*
G01*
X155267242Y-83029976D01*
X155399906Y-83100886D01*
X155415078Y-83108996D01*
X155544659Y-83215341D01*
X155651004Y-83344922D01*
X155651005Y-83344924D01*
X155730024Y-83492758D01*
X155778687Y-83653177D01*
X155795117Y-83820000D01*
X155778687Y-83986823D01*
X155730024Y-84147242D01*
X155659114Y-84279906D01*
X155651004Y-84295078D01*
X155544659Y-84424659D01*
X155415078Y-84531004D01*
X155415076Y-84531005D01*
X155267242Y-84610024D01*
X155106823Y-84658687D01*
X154981804Y-84671000D01*
X154898196Y-84671000D01*
X154773177Y-84658687D01*
X154612758Y-84610024D01*
X154464924Y-84531005D01*
X154464922Y-84531004D01*
X154335341Y-84424659D01*
X154228996Y-84295078D01*
X154220886Y-84279906D01*
X154149976Y-84147242D01*
X154101313Y-83986823D01*
X154084883Y-83820000D01*
X154101313Y-83653177D01*
X154149976Y-83492758D01*
X154228995Y-83344924D01*
X154228996Y-83344922D01*
X154335341Y-83215341D01*
X154464922Y-83108996D01*
X154480094Y-83100886D01*
X154612758Y-83029976D01*
X154773177Y-82981313D01*
X154898196Y-82969000D01*
X154981804Y-82969000D01*
X155106823Y-82981313D01*
X155106823Y-82981313D01*
G37*
G36*
X147328199Y-79556954D02*
G01*
X147340450Y-79557556D01*
X147358869Y-79557556D01*
X147381149Y-79559750D01*
X147465233Y-79576476D01*
X147486660Y-79582976D01*
X147565858Y-79615780D01*
X147571303Y-79618691D01*
X147571309Y-79618693D01*
X147580169Y-79623429D01*
X147580173Y-79623432D01*
X147585614Y-79626340D01*
X147656899Y-79673971D01*
X147674204Y-79688172D01*
X147734828Y-79748796D01*
X147749029Y-79766101D01*
X147796660Y-79837386D01*
X147799568Y-79842827D01*
X147799571Y-79842831D01*
X147804307Y-79851691D01*
X147804309Y-79851697D01*
X147807220Y-79857142D01*
X147840024Y-79936340D01*
X147846524Y-79957767D01*
X147863250Y-80041851D01*
X147865444Y-80064131D01*
X147865444Y-80082550D01*
X147866046Y-80094801D01*
X147867852Y-80113139D01*
X147867852Y-80650860D01*
X147866263Y-80666999D01*
X147861855Y-80681528D01*
X147856394Y-80694711D01*
X147851612Y-80718745D01*
X147851611Y-80743249D01*
X147856391Y-80767282D01*
X147865768Y-80789921D01*
X147867000Y-80791765D01*
X147867000Y-82023050D01*
X147860525Y-82035164D01*
X147853412Y-82058613D01*
X147851010Y-82082999D01*
X147853412Y-82107385D01*
X147860525Y-82130834D01*
X147862848Y-82135746D01*
X147866263Y-82147001D01*
X147867852Y-82163140D01*
X147867852Y-82700862D01*
X147866046Y-82719199D01*
X147865444Y-82731450D01*
X147865444Y-82749869D01*
X147863250Y-82772149D01*
X147846524Y-82856233D01*
X147840024Y-82877660D01*
X147807220Y-82956858D01*
X147804309Y-82962303D01*
X147804307Y-82962309D01*
X147799571Y-82971169D01*
X147799568Y-82971173D01*
X147796660Y-82976614D01*
X147749029Y-83047899D01*
X147734828Y-83065204D01*
X147674204Y-83125828D01*
X147656899Y-83140029D01*
X147585614Y-83187660D01*
X147580173Y-83190568D01*
X147580169Y-83190571D01*
X147571309Y-83195307D01*
X147571303Y-83195309D01*
X147565858Y-83198220D01*
X147486660Y-83231024D01*
X147465233Y-83237524D01*
X147381149Y-83254250D01*
X147358869Y-83256444D01*
X147340450Y-83256444D01*
X147328199Y-83257046D01*
X147309862Y-83258852D01*
X146822138Y-83258852D01*
X146803801Y-83257046D01*
X146791550Y-83256444D01*
X146773131Y-83256444D01*
X146750851Y-83254250D01*
X146666767Y-83237524D01*
X146645340Y-83231024D01*
X146566142Y-83198220D01*
X146560697Y-83195309D01*
X146560691Y-83195307D01*
X146551831Y-83190571D01*
X146551827Y-83190568D01*
X146546386Y-83187660D01*
X146475101Y-83140029D01*
X146457796Y-83125828D01*
X146397172Y-83065204D01*
X146382971Y-83047899D01*
X146335340Y-82976614D01*
X146332432Y-82971173D01*
X146332429Y-82971169D01*
X146327693Y-82962309D01*
X146327691Y-82962303D01*
X146324780Y-82956858D01*
X146291976Y-82877660D01*
X146285476Y-82856233D01*
X146268750Y-82772149D01*
X146266556Y-82749869D01*
X146266556Y-82731450D01*
X146265954Y-82719199D01*
X146264148Y-82700862D01*
X146264148Y-82163140D01*
X146265737Y-82147001D01*
X146270145Y-82132472D01*
X146275606Y-82119289D01*
X146280388Y-82095255D01*
X146280389Y-82070751D01*
X146275609Y-82046718D01*
X146266232Y-82024079D01*
X146265000Y-82022235D01*
X146265000Y-80790950D01*
X146271475Y-80778836D01*
X146278588Y-80755387D01*
X146280990Y-80731001D01*
X146278588Y-80706615D01*
X146271475Y-80683166D01*
X146269152Y-80678254D01*
X146265737Y-80666999D01*
X146264148Y-80650860D01*
X146264148Y-80113139D01*
X146265954Y-80094801D01*
X146266556Y-80082550D01*
X146266556Y-80064131D01*
X146268750Y-80041851D01*
X146285476Y-79957767D01*
X146291976Y-79936340D01*
X146324780Y-79857142D01*
X146327691Y-79851697D01*
X146327693Y-79851691D01*
X146332429Y-79842831D01*
X146332432Y-79842827D01*
X146335340Y-79837386D01*
X146382971Y-79766101D01*
X146397172Y-79748796D01*
X146457796Y-79688172D01*
X146475101Y-79673971D01*
X146546386Y-79626340D01*
X146551827Y-79623432D01*
X146551831Y-79623429D01*
X146560691Y-79618693D01*
X146560697Y-79618691D01*
X146566142Y-79615780D01*
X146645340Y-79582976D01*
X146666767Y-79576476D01*
X146750851Y-79559750D01*
X146773131Y-79557556D01*
X146791550Y-79557556D01*
X146803801Y-79556954D01*
X146822139Y-79555148D01*
X147309861Y-79555148D01*
X147328199Y-79556954D01*
X147328199Y-79556954D01*
G37*
G36*
X145398499Y-81710445D02*
G01*
X145435995Y-81721820D01*
X145470554Y-81740292D01*
X145500847Y-81765153D01*
X145525708Y-81795446D01*
X145544180Y-81830005D01*
X145555555Y-81867501D01*
X145560000Y-81912638D01*
X145560000Y-82651362D01*
X145555555Y-82696499D01*
X145544180Y-82733995D01*
X145525708Y-82768554D01*
X145500847Y-82798847D01*
X145470554Y-82823708D01*
X145435995Y-82842180D01*
X145398499Y-82853555D01*
X145353362Y-82858000D01*
X144714638Y-82858000D01*
X144669501Y-82853555D01*
X144632005Y-82842180D01*
X144597446Y-82823708D01*
X144567153Y-82798847D01*
X144542292Y-82768554D01*
X144523820Y-82733995D01*
X144512445Y-82696499D01*
X144508000Y-82651362D01*
X144508000Y-81912638D01*
X144512445Y-81867501D01*
X144523820Y-81830005D01*
X144542292Y-81795446D01*
X144567153Y-81765153D01*
X144597446Y-81740292D01*
X144632005Y-81721820D01*
X144669501Y-81710445D01*
X144714638Y-81706000D01*
X145353362Y-81706000D01*
X145398499Y-81710445D01*
X145398499Y-81710445D01*
G37*
G36*
X155106823Y-80441313D02*
G01*
X155267242Y-80489976D01*
X155399906Y-80560886D01*
X155415078Y-80568996D01*
X155544659Y-80675341D01*
X155651004Y-80804922D01*
X155651005Y-80804924D01*
X155730024Y-80952758D01*
X155778687Y-81113177D01*
X155795117Y-81280000D01*
X155778687Y-81446823D01*
X155730024Y-81607242D01*
X155677237Y-81706000D01*
X155651004Y-81755078D01*
X155544659Y-81884659D01*
X155415078Y-81991004D01*
X155415076Y-81991005D01*
X155267242Y-82070024D01*
X155267239Y-82070025D01*
X155237380Y-82079083D01*
X155106823Y-82118687D01*
X154981804Y-82131000D01*
X154898196Y-82131000D01*
X154773177Y-82118687D01*
X154642620Y-82079083D01*
X154612761Y-82070025D01*
X154612758Y-82070024D01*
X154464924Y-81991005D01*
X154464922Y-81991004D01*
X154335341Y-81884659D01*
X154228996Y-81755078D01*
X154202763Y-81706000D01*
X154149976Y-81607242D01*
X154101313Y-81446823D01*
X154084883Y-81280000D01*
X154101313Y-81113177D01*
X154149976Y-80952758D01*
X154228995Y-80804924D01*
X154228996Y-80804922D01*
X154335341Y-80675341D01*
X154464922Y-80568996D01*
X154480094Y-80560886D01*
X154612758Y-80489976D01*
X154773177Y-80441313D01*
X154898196Y-80429000D01*
X154981804Y-80429000D01*
X155106823Y-80441313D01*
X155106823Y-80441313D01*
G37*
G36*
X142406823Y-80441313D02*
G01*
X142567242Y-80489976D01*
X142699906Y-80560886D01*
X142715078Y-80568996D01*
X142844659Y-80675341D01*
X142951004Y-80804922D01*
X142951005Y-80804924D01*
X143030024Y-80952758D01*
X143078687Y-81113177D01*
X143095117Y-81280000D01*
X143078687Y-81446823D01*
X143030024Y-81607242D01*
X142977237Y-81706000D01*
X142951004Y-81755078D01*
X142844659Y-81884659D01*
X142715078Y-81991004D01*
X142715076Y-81991005D01*
X142567242Y-82070024D01*
X142567239Y-82070025D01*
X142537380Y-82079083D01*
X142406823Y-82118687D01*
X142281804Y-82131000D01*
X142198196Y-82131000D01*
X142073177Y-82118687D01*
X141942620Y-82079083D01*
X141912761Y-82070025D01*
X141912758Y-82070024D01*
X141764924Y-81991005D01*
X141764922Y-81991004D01*
X141635341Y-81884659D01*
X141528996Y-81755078D01*
X141502763Y-81706000D01*
X141449976Y-81607242D01*
X141401313Y-81446823D01*
X141384883Y-81280000D01*
X141401313Y-81113177D01*
X141449976Y-80952758D01*
X141528995Y-80804924D01*
X141528996Y-80804922D01*
X141635341Y-80675341D01*
X141764922Y-80568996D01*
X141780094Y-80560886D01*
X141912758Y-80489976D01*
X142073177Y-80441313D01*
X142198196Y-80429000D01*
X142281804Y-80429000D01*
X142406823Y-80441313D01*
X142406823Y-80441313D01*
G37*
G36*
X145398499Y-79960445D02*
G01*
X145435995Y-79971820D01*
X145470554Y-79990292D01*
X145500847Y-80015153D01*
X145525708Y-80045446D01*
X145544180Y-80080005D01*
X145555555Y-80117501D01*
X145560000Y-80162638D01*
X145560000Y-80901362D01*
X145555555Y-80946499D01*
X145544180Y-80983995D01*
X145525708Y-81018554D01*
X145500847Y-81048847D01*
X145470554Y-81073708D01*
X145435995Y-81092180D01*
X145398499Y-81103555D01*
X145353362Y-81108000D01*
X144714638Y-81108000D01*
X144669501Y-81103555D01*
X144632005Y-81092180D01*
X144597446Y-81073708D01*
X144567153Y-81048847D01*
X144542292Y-81018554D01*
X144523820Y-80983995D01*
X144512445Y-80946499D01*
X144508000Y-80901362D01*
X144508000Y-80162638D01*
X144512445Y-80117501D01*
X144523820Y-80080005D01*
X144542292Y-80045446D01*
X144567153Y-80015153D01*
X144597446Y-79990292D01*
X144632005Y-79971820D01*
X144669501Y-79960445D01*
X144714638Y-79956000D01*
X145353362Y-79956000D01*
X145398499Y-79960445D01*
X145398499Y-79960445D01*
G37*
G36*
X145296199Y-77195954D02*
G01*
X145308450Y-77196556D01*
X145326869Y-77196556D01*
X145349149Y-77198750D01*
X145433233Y-77215476D01*
X145454660Y-77221976D01*
X145533858Y-77254780D01*
X145539303Y-77257691D01*
X145539309Y-77257693D01*
X145548169Y-77262429D01*
X145548173Y-77262432D01*
X145553614Y-77265340D01*
X145624899Y-77312971D01*
X145642204Y-77327172D01*
X145702828Y-77387796D01*
X145717029Y-77405101D01*
X145764660Y-77476386D01*
X145767568Y-77481827D01*
X145767571Y-77481831D01*
X145772307Y-77490691D01*
X145772309Y-77490697D01*
X145775220Y-77496142D01*
X145808024Y-77575340D01*
X145814524Y-77596767D01*
X145831250Y-77680851D01*
X145833444Y-77703131D01*
X145833444Y-77721550D01*
X145834046Y-77733801D01*
X145835852Y-77752139D01*
X145835852Y-78239860D01*
X145834263Y-78255999D01*
X145831348Y-78265608D01*
X145826610Y-78274472D01*
X145820237Y-78282237D01*
X145807794Y-78292448D01*
X145797425Y-78299378D01*
X145780098Y-78316705D01*
X145766485Y-78337080D01*
X145757109Y-78359720D01*
X145752329Y-78383753D01*
X145752330Y-78408257D01*
X145757112Y-78432290D01*
X145766490Y-78454929D01*
X145780105Y-78475302D01*
X145797432Y-78492629D01*
X145807802Y-78499558D01*
X145820237Y-78509763D01*
X145826610Y-78517528D01*
X145831348Y-78526392D01*
X145834263Y-78536001D01*
X145835852Y-78552140D01*
X145835852Y-79039862D01*
X145834046Y-79058199D01*
X145833444Y-79070450D01*
X145833444Y-79088869D01*
X145831250Y-79111149D01*
X145814524Y-79195233D01*
X145808024Y-79216660D01*
X145775220Y-79295858D01*
X145772309Y-79301303D01*
X145772307Y-79301309D01*
X145767571Y-79310169D01*
X145767568Y-79310173D01*
X145764660Y-79315614D01*
X145717029Y-79386899D01*
X145702828Y-79404204D01*
X145642204Y-79464828D01*
X145624899Y-79479029D01*
X145553614Y-79526660D01*
X145548173Y-79529568D01*
X145548169Y-79529571D01*
X145539309Y-79534307D01*
X145539303Y-79534309D01*
X145533858Y-79537220D01*
X145454660Y-79570024D01*
X145433233Y-79576524D01*
X145349149Y-79593250D01*
X145326869Y-79595444D01*
X145308450Y-79595444D01*
X145296199Y-79596046D01*
X145277862Y-79597852D01*
X144790138Y-79597852D01*
X144771801Y-79596046D01*
X144759550Y-79595444D01*
X144741131Y-79595444D01*
X144718851Y-79593250D01*
X144634767Y-79576524D01*
X144613340Y-79570024D01*
X144534142Y-79537220D01*
X144528697Y-79534309D01*
X144528691Y-79534307D01*
X144519831Y-79529571D01*
X144519827Y-79529568D01*
X144514386Y-79526660D01*
X144443101Y-79479029D01*
X144425796Y-79464828D01*
X144365172Y-79404204D01*
X144350971Y-79386899D01*
X144303340Y-79315614D01*
X144300432Y-79310173D01*
X144300429Y-79310169D01*
X144295693Y-79301309D01*
X144295691Y-79301303D01*
X144292780Y-79295858D01*
X144259976Y-79216660D01*
X144253476Y-79195233D01*
X144236750Y-79111149D01*
X144234556Y-79088869D01*
X144234556Y-79070450D01*
X144233954Y-79058199D01*
X144232148Y-79039862D01*
X144232148Y-78552140D01*
X144233737Y-78536001D01*
X144236652Y-78526392D01*
X144241390Y-78517528D01*
X144247763Y-78509763D01*
X144260206Y-78499552D01*
X144270575Y-78492622D01*
X144287902Y-78475295D01*
X144301515Y-78454920D01*
X144310891Y-78432280D01*
X144315671Y-78408247D01*
X144315670Y-78383743D01*
X144310888Y-78359710D01*
X144301510Y-78337071D01*
X144287895Y-78316698D01*
X144270568Y-78299371D01*
X144260198Y-78292442D01*
X144247763Y-78282237D01*
X144241390Y-78274472D01*
X144236652Y-78265608D01*
X144233737Y-78255999D01*
X144232148Y-78239860D01*
X144232148Y-77752139D01*
X144233954Y-77733801D01*
X144234556Y-77721550D01*
X144234556Y-77703131D01*
X144236750Y-77680851D01*
X144253476Y-77596767D01*
X144259976Y-77575340D01*
X144292780Y-77496142D01*
X144295691Y-77490697D01*
X144295693Y-77490691D01*
X144300429Y-77481831D01*
X144300432Y-77481827D01*
X144303340Y-77476386D01*
X144350971Y-77405101D01*
X144365172Y-77387796D01*
X144425796Y-77327172D01*
X144443101Y-77312971D01*
X144514386Y-77265340D01*
X144519827Y-77262432D01*
X144519831Y-77262429D01*
X144528691Y-77257693D01*
X144528697Y-77257691D01*
X144534142Y-77254780D01*
X144613340Y-77221976D01*
X144634767Y-77215476D01*
X144718851Y-77198750D01*
X144741131Y-77196556D01*
X144759550Y-77196556D01*
X144771801Y-77195954D01*
X144790139Y-77194148D01*
X145277861Y-77194148D01*
X145296199Y-77195954D01*
X145296199Y-77195954D01*
G37*
G36*
X155106823Y-77901313D02*
G01*
X155267242Y-77949976D01*
X155399906Y-78020886D01*
X155415078Y-78028996D01*
X155544659Y-78135341D01*
X155651004Y-78264922D01*
X155651005Y-78264924D01*
X155730024Y-78412758D01*
X155778687Y-78573177D01*
X155795117Y-78740000D01*
X155778687Y-78906823D01*
X155730024Y-79067242D01*
X155728309Y-79070450D01*
X155651004Y-79215078D01*
X155544659Y-79344659D01*
X155415078Y-79451004D01*
X155415076Y-79451005D01*
X155267242Y-79530024D01*
X155106823Y-79578687D01*
X154981804Y-79591000D01*
X154898196Y-79591000D01*
X154773177Y-79578687D01*
X154612758Y-79530024D01*
X154464924Y-79451005D01*
X154464922Y-79451004D01*
X154335341Y-79344659D01*
X154228996Y-79215078D01*
X154151691Y-79070450D01*
X154149976Y-79067242D01*
X154101313Y-78906823D01*
X154084883Y-78740000D01*
X154101313Y-78573177D01*
X154149976Y-78412758D01*
X154228995Y-78264924D01*
X154228996Y-78264922D01*
X154335341Y-78135341D01*
X154464922Y-78028996D01*
X154480094Y-78020886D01*
X154612758Y-77949976D01*
X154773177Y-77901313D01*
X154898196Y-77889000D01*
X154981804Y-77889000D01*
X155106823Y-77901313D01*
X155106823Y-77901313D01*
G37*
G36*
X142406823Y-77901313D02*
G01*
X142567242Y-77949976D01*
X142699906Y-78020886D01*
X142715078Y-78028996D01*
X142844659Y-78135341D01*
X142951004Y-78264922D01*
X142951005Y-78264924D01*
X143030024Y-78412758D01*
X143078687Y-78573177D01*
X143095117Y-78740000D01*
X143078687Y-78906823D01*
X143030024Y-79067242D01*
X143028309Y-79070450D01*
X142951004Y-79215078D01*
X142844659Y-79344659D01*
X142715078Y-79451004D01*
X142715076Y-79451005D01*
X142567242Y-79530024D01*
X142406823Y-79578687D01*
X142281804Y-79591000D01*
X142198196Y-79591000D01*
X142073177Y-79578687D01*
X141912758Y-79530024D01*
X141764924Y-79451005D01*
X141764922Y-79451004D01*
X141635341Y-79344659D01*
X141528996Y-79215078D01*
X141451691Y-79070450D01*
X141449976Y-79067242D01*
X141401313Y-78906823D01*
X141384883Y-78740000D01*
X141401313Y-78573177D01*
X141449976Y-78412758D01*
X141528995Y-78264924D01*
X141528996Y-78264922D01*
X141635341Y-78135341D01*
X141764922Y-78028996D01*
X141780094Y-78020886D01*
X141912758Y-77949976D01*
X142073177Y-77901313D01*
X142198196Y-77889000D01*
X142281804Y-77889000D01*
X142406823Y-77901313D01*
X142406823Y-77901313D01*
G37*
G36*
X142406823Y-75361313D02*
G01*
X142567242Y-75409976D01*
X142699906Y-75480886D01*
X142715078Y-75488996D01*
X142844659Y-75595341D01*
X142951004Y-75724922D01*
X142951005Y-75724924D01*
X143030024Y-75872758D01*
X143078687Y-76033177D01*
X143095117Y-76200000D01*
X143078687Y-76366823D01*
X143030024Y-76527242D01*
X142959114Y-76659906D01*
X142951004Y-76675078D01*
X142844659Y-76804659D01*
X142715078Y-76911004D01*
X142715076Y-76911005D01*
X142567242Y-76990024D01*
X142406823Y-77038687D01*
X142281804Y-77051000D01*
X142198196Y-77051000D01*
X142073177Y-77038687D01*
X141912758Y-76990024D01*
X141764924Y-76911005D01*
X141764922Y-76911004D01*
X141635341Y-76804659D01*
X141528996Y-76675078D01*
X141520886Y-76659906D01*
X141449976Y-76527242D01*
X141401313Y-76366823D01*
X141384883Y-76200000D01*
X141401313Y-76033177D01*
X141449976Y-75872758D01*
X141528995Y-75724924D01*
X141528996Y-75724922D01*
X141635341Y-75595341D01*
X141764922Y-75488996D01*
X141780094Y-75480886D01*
X141912758Y-75409976D01*
X142073177Y-75361313D01*
X142198196Y-75349000D01*
X142281804Y-75349000D01*
X142406823Y-75361313D01*
X142406823Y-75361313D01*
G37*
G36*
X155106823Y-75361313D02*
G01*
X155267242Y-75409976D01*
X155399906Y-75480886D01*
X155415078Y-75488996D01*
X155544659Y-75595341D01*
X155651004Y-75724922D01*
X155651005Y-75724924D01*
X155730024Y-75872758D01*
X155778687Y-76033177D01*
X155795117Y-76200000D01*
X155778687Y-76366823D01*
X155730024Y-76527242D01*
X155659114Y-76659906D01*
X155651004Y-76675078D01*
X155544659Y-76804659D01*
X155415078Y-76911004D01*
X155415076Y-76911005D01*
X155267242Y-76990024D01*
X155106823Y-77038687D01*
X154981804Y-77051000D01*
X154898196Y-77051000D01*
X154773177Y-77038687D01*
X154612758Y-76990024D01*
X154464924Y-76911005D01*
X154464922Y-76911004D01*
X154335341Y-76804659D01*
X154228996Y-76675078D01*
X154220886Y-76659906D01*
X154149976Y-76527242D01*
X154101313Y-76366823D01*
X154084883Y-76200000D01*
X154101313Y-76033177D01*
X154149976Y-75872758D01*
X154228995Y-75724924D01*
X154228996Y-75724922D01*
X154335341Y-75595341D01*
X154464922Y-75488996D01*
X154480094Y-75480886D01*
X154612758Y-75409976D01*
X154773177Y-75361313D01*
X154898196Y-75349000D01*
X154981804Y-75349000D01*
X155106823Y-75361313D01*
X155106823Y-75361313D01*
G37*
G36*
X144587499Y-75551445D02*
G01*
X144624995Y-75562820D01*
X144659554Y-75581292D01*
X144689847Y-75606153D01*
X144714708Y-75636446D01*
X144733180Y-75671005D01*
X144744555Y-75708501D01*
X144749000Y-75753638D01*
X144749000Y-76392362D01*
X144744555Y-76437499D01*
X144733180Y-76474995D01*
X144714708Y-76509554D01*
X144689847Y-76539847D01*
X144659554Y-76564708D01*
X144624995Y-76583180D01*
X144587499Y-76594555D01*
X144542362Y-76599000D01*
X143803638Y-76599000D01*
X143758501Y-76594555D01*
X143721005Y-76583180D01*
X143686446Y-76564708D01*
X143656153Y-76539847D01*
X143631292Y-76509554D01*
X143612820Y-76474995D01*
X143601445Y-76437499D01*
X143597000Y-76392362D01*
X143597000Y-75753638D01*
X143601445Y-75708501D01*
X143612820Y-75671005D01*
X143631292Y-75636446D01*
X143656153Y-75606153D01*
X143686446Y-75581292D01*
X143721005Y-75562820D01*
X143758501Y-75551445D01*
X143803638Y-75547000D01*
X144542362Y-75547000D01*
X144587499Y-75551445D01*
X144587499Y-75551445D01*
G37*
G36*
X146337499Y-75551445D02*
G01*
X146374995Y-75562820D01*
X146409554Y-75581292D01*
X146439847Y-75606153D01*
X146464708Y-75636446D01*
X146483180Y-75671005D01*
X146494555Y-75708501D01*
X146499000Y-75753638D01*
X146499000Y-76392362D01*
X146494555Y-76437499D01*
X146483180Y-76474995D01*
X146464708Y-76509554D01*
X146439847Y-76539847D01*
X146409554Y-76564708D01*
X146374995Y-76583180D01*
X146337499Y-76594555D01*
X146292362Y-76599000D01*
X145553638Y-76599000D01*
X145508501Y-76594555D01*
X145471005Y-76583180D01*
X145436446Y-76564708D01*
X145406153Y-76539847D01*
X145381292Y-76509554D01*
X145362820Y-76474995D01*
X145351445Y-76437499D01*
X145347000Y-76392362D01*
X145347000Y-75753638D01*
X145351445Y-75708501D01*
X145362820Y-75671005D01*
X145381292Y-75636446D01*
X145406153Y-75606153D01*
X145436446Y-75581292D01*
X145471005Y-75562820D01*
X145508501Y-75551445D01*
X145553638Y-75547000D01*
X146292362Y-75547000D01*
X146337499Y-75551445D01*
X146337499Y-75551445D01*
G37*
G36*
X148984295Y-70633323D02*
G01*
X148991310Y-70635451D01*
X148997776Y-70638908D01*
X149003442Y-70643558D01*
X149008092Y-70649224D01*
X149011549Y-70655690D01*
X149013677Y-70662705D01*
X149014603Y-70672109D01*
X149019383Y-70696142D01*
X149028761Y-70718781D01*
X149042374Y-70739155D01*
X149059701Y-70756482D01*
X149080076Y-70770096D01*
X149102715Y-70779474D01*
X149126748Y-70784254D01*
X149151252Y-70784254D01*
X149175285Y-70779474D01*
X149197924Y-70770096D01*
X149218298Y-70756483D01*
X149235625Y-70739156D01*
X149249239Y-70718781D01*
X149258617Y-70696142D01*
X149263397Y-70672109D01*
X149264323Y-70662705D01*
X149266451Y-70655690D01*
X149269908Y-70649224D01*
X149274558Y-70643558D01*
X149280224Y-70638908D01*
X149286690Y-70635451D01*
X149293705Y-70633323D01*
X149307140Y-70632000D01*
X149620860Y-70632000D01*
X149634295Y-70633323D01*
X149641310Y-70635451D01*
X149647776Y-70638908D01*
X149653442Y-70643558D01*
X149658092Y-70649224D01*
X149661549Y-70655690D01*
X149663677Y-70662705D01*
X149664603Y-70672109D01*
X149669383Y-70696142D01*
X149678761Y-70718781D01*
X149692374Y-70739155D01*
X149709701Y-70756482D01*
X149730076Y-70770096D01*
X149752715Y-70779474D01*
X149776748Y-70784254D01*
X149801252Y-70784254D01*
X149825285Y-70779474D01*
X149847924Y-70770096D01*
X149868298Y-70756483D01*
X149885625Y-70739156D01*
X149899239Y-70718781D01*
X149908617Y-70696142D01*
X149913397Y-70672109D01*
X149914323Y-70662705D01*
X149916451Y-70655690D01*
X149919908Y-70649224D01*
X149924558Y-70643558D01*
X149930224Y-70638908D01*
X149936690Y-70635451D01*
X149943705Y-70633323D01*
X149957140Y-70632000D01*
X150270860Y-70632000D01*
X150284295Y-70633323D01*
X150291310Y-70635451D01*
X150297776Y-70638908D01*
X150303442Y-70643558D01*
X150308092Y-70649224D01*
X150311549Y-70655690D01*
X150313677Y-70662705D01*
X150314603Y-70672109D01*
X150319383Y-70696142D01*
X150328761Y-70718781D01*
X150342374Y-70739155D01*
X150359701Y-70756482D01*
X150380076Y-70770096D01*
X150402715Y-70779474D01*
X150426748Y-70784254D01*
X150451252Y-70784254D01*
X150475285Y-70779474D01*
X150497924Y-70770096D01*
X150518298Y-70756483D01*
X150535625Y-70739156D01*
X150549239Y-70718781D01*
X150558617Y-70696142D01*
X150563397Y-70672109D01*
X150564323Y-70662705D01*
X150566451Y-70655690D01*
X150569908Y-70649224D01*
X150574558Y-70643558D01*
X150580224Y-70638908D01*
X150586690Y-70635451D01*
X150593705Y-70633323D01*
X150607140Y-70632000D01*
X150920860Y-70632000D01*
X150934295Y-70633323D01*
X150941310Y-70635451D01*
X150947776Y-70638908D01*
X150953442Y-70643558D01*
X150958092Y-70649224D01*
X150961549Y-70655690D01*
X150963677Y-70662705D01*
X150964603Y-70672109D01*
X150969383Y-70696142D01*
X150978761Y-70718781D01*
X150992374Y-70739155D01*
X151009701Y-70756482D01*
X151030076Y-70770096D01*
X151052715Y-70779474D01*
X151076748Y-70784254D01*
X151101252Y-70784254D01*
X151125285Y-70779474D01*
X151147924Y-70770096D01*
X151168298Y-70756483D01*
X151185625Y-70739156D01*
X151199239Y-70718781D01*
X151208617Y-70696142D01*
X151213397Y-70672109D01*
X151214323Y-70662705D01*
X151216451Y-70655690D01*
X151219908Y-70649224D01*
X151224558Y-70643558D01*
X151230224Y-70638908D01*
X151236690Y-70635451D01*
X151243705Y-70633323D01*
X151257140Y-70632000D01*
X151570860Y-70632000D01*
X151584295Y-70633323D01*
X151591310Y-70635451D01*
X151597776Y-70638908D01*
X151603442Y-70643558D01*
X151608092Y-70649224D01*
X151611549Y-70655690D01*
X151613677Y-70662705D01*
X151615000Y-70676140D01*
X151615000Y-71664859D01*
X151613677Y-71678295D01*
X151611549Y-71685310D01*
X151608092Y-71691776D01*
X151603442Y-71697442D01*
X151597774Y-71702094D01*
X151582991Y-71709996D01*
X151562616Y-71723610D01*
X151545289Y-71740937D01*
X151531676Y-71761311D01*
X151522298Y-71783950D01*
X151517518Y-71807983D01*
X151517518Y-71832487D01*
X151522298Y-71856521D01*
X151531676Y-71879159D01*
X151545290Y-71899534D01*
X151562617Y-71916861D01*
X151582991Y-71930474D01*
X151605631Y-71939852D01*
X151620080Y-71944235D01*
X151646495Y-71958354D01*
X151669646Y-71977354D01*
X151688646Y-72000505D01*
X151702765Y-72026920D01*
X151707148Y-72041369D01*
X151716525Y-72064008D01*
X151730138Y-72084382D01*
X151747465Y-72101709D01*
X151767839Y-72115323D01*
X151790478Y-72124701D01*
X151814511Y-72129482D01*
X151839015Y-72129482D01*
X151863049Y-72124702D01*
X151885688Y-72115325D01*
X151906062Y-72101712D01*
X151923389Y-72084385D01*
X151937004Y-72064009D01*
X151944906Y-72049226D01*
X151949558Y-72043558D01*
X151955224Y-72038908D01*
X151961690Y-72035451D01*
X151968705Y-72033323D01*
X151982140Y-72032000D01*
X152970860Y-72032000D01*
X152984295Y-72033323D01*
X152991310Y-72035451D01*
X152997776Y-72038908D01*
X153003442Y-72043558D01*
X153008092Y-72049224D01*
X153011549Y-72055690D01*
X153013677Y-72062705D01*
X153015000Y-72076140D01*
X153015000Y-72389860D01*
X153013677Y-72403295D01*
X153011549Y-72410310D01*
X153008092Y-72416776D01*
X153003442Y-72422442D01*
X152997776Y-72427092D01*
X152991310Y-72430549D01*
X152984295Y-72432677D01*
X152974891Y-72433603D01*
X152950858Y-72438383D01*
X152928219Y-72447761D01*
X152907845Y-72461374D01*
X152890518Y-72478701D01*
X152876904Y-72499076D01*
X152867526Y-72521715D01*
X152862746Y-72545748D01*
X152862746Y-72570252D01*
X152867526Y-72594285D01*
X152876904Y-72616924D01*
X152890517Y-72637298D01*
X152907844Y-72654625D01*
X152928219Y-72668239D01*
X152950858Y-72677617D01*
X152974891Y-72682397D01*
X152984295Y-72683323D01*
X152991310Y-72685451D01*
X152997776Y-72688908D01*
X153003442Y-72693558D01*
X153008092Y-72699224D01*
X153011549Y-72705690D01*
X153013677Y-72712705D01*
X153015000Y-72726140D01*
X153015000Y-73039860D01*
X153013677Y-73053295D01*
X153011549Y-73060310D01*
X153008092Y-73066776D01*
X153003442Y-73072442D01*
X152997776Y-73077092D01*
X152991310Y-73080549D01*
X152984295Y-73082677D01*
X152974891Y-73083603D01*
X152950858Y-73088383D01*
X152928219Y-73097761D01*
X152907845Y-73111374D01*
X152890518Y-73128701D01*
X152876904Y-73149076D01*
X152867526Y-73171715D01*
X152862746Y-73195748D01*
X152862746Y-73220252D01*
X152867526Y-73244285D01*
X152876904Y-73266924D01*
X152890517Y-73287298D01*
X152907844Y-73304625D01*
X152928219Y-73318239D01*
X152950858Y-73327617D01*
X152974891Y-73332397D01*
X152984295Y-73333323D01*
X152991310Y-73335451D01*
X152997776Y-73338908D01*
X153003442Y-73343558D01*
X153008092Y-73349224D01*
X153011549Y-73355690D01*
X153013677Y-73362705D01*
X153015000Y-73376140D01*
X153015000Y-73689860D01*
X153013677Y-73703295D01*
X153011549Y-73710310D01*
X153008092Y-73716776D01*
X153003442Y-73722442D01*
X152997776Y-73727092D01*
X152991310Y-73730549D01*
X152984295Y-73732677D01*
X152974891Y-73733603D01*
X152950858Y-73738383D01*
X152928219Y-73747761D01*
X152907845Y-73761374D01*
X152890518Y-73778701D01*
X152876904Y-73799076D01*
X152867526Y-73821715D01*
X152862746Y-73845748D01*
X152862746Y-73870252D01*
X152867526Y-73894285D01*
X152876904Y-73916924D01*
X152890517Y-73937298D01*
X152907844Y-73954625D01*
X152928219Y-73968239D01*
X152950858Y-73977617D01*
X152974891Y-73982397D01*
X152984295Y-73983323D01*
X152991310Y-73985451D01*
X152997776Y-73988908D01*
X153003442Y-73993558D01*
X153008092Y-73999224D01*
X153011549Y-74005690D01*
X153013677Y-74012705D01*
X153015000Y-74026140D01*
X153015000Y-74339860D01*
X153013677Y-74353295D01*
X153011549Y-74360310D01*
X153008092Y-74366776D01*
X153003442Y-74372442D01*
X152997776Y-74377092D01*
X152991310Y-74380549D01*
X152984295Y-74382677D01*
X152974891Y-74383603D01*
X152950858Y-74388383D01*
X152928219Y-74397761D01*
X152907845Y-74411374D01*
X152890518Y-74428701D01*
X152876904Y-74449076D01*
X152867526Y-74471715D01*
X152862746Y-74495748D01*
X152862746Y-74520252D01*
X152867526Y-74544285D01*
X152876904Y-74566924D01*
X152890517Y-74587298D01*
X152907844Y-74604625D01*
X152928219Y-74618239D01*
X152950858Y-74627617D01*
X152974891Y-74632397D01*
X152984295Y-74633323D01*
X152991310Y-74635451D01*
X152997776Y-74638908D01*
X153003442Y-74643558D01*
X153008092Y-74649224D01*
X153011549Y-74655690D01*
X153013677Y-74662705D01*
X153015000Y-74676140D01*
X153015000Y-74989860D01*
X153013677Y-75003295D01*
X153011549Y-75010310D01*
X153008092Y-75016776D01*
X153003442Y-75022442D01*
X152997776Y-75027092D01*
X152991310Y-75030549D01*
X152984295Y-75032677D01*
X152970860Y-75034000D01*
X151982140Y-75034000D01*
X151968705Y-75032677D01*
X151961690Y-75030549D01*
X151955224Y-75027092D01*
X151949558Y-75022442D01*
X151944906Y-75016774D01*
X151937004Y-75001991D01*
X151923390Y-74981616D01*
X151906063Y-74964289D01*
X151885689Y-74950676D01*
X151863050Y-74941298D01*
X151839017Y-74936518D01*
X151814513Y-74936518D01*
X151790479Y-74941298D01*
X151767841Y-74950676D01*
X151747466Y-74964290D01*
X151730139Y-74981617D01*
X151716526Y-75001991D01*
X151707148Y-75024631D01*
X151702765Y-75039080D01*
X151688646Y-75065495D01*
X151669646Y-75088646D01*
X151646495Y-75107646D01*
X151620080Y-75121765D01*
X151605631Y-75126148D01*
X151582992Y-75135525D01*
X151562618Y-75149138D01*
X151545291Y-75166465D01*
X151531677Y-75186839D01*
X151522299Y-75209478D01*
X151517518Y-75233511D01*
X151517518Y-75258015D01*
X151522298Y-75282049D01*
X151531675Y-75304688D01*
X151545288Y-75325062D01*
X151562615Y-75342389D01*
X151582991Y-75356004D01*
X151597774Y-75363906D01*
X151603442Y-75368558D01*
X151608092Y-75374224D01*
X151611549Y-75380690D01*
X151613677Y-75387705D01*
X151615000Y-75401140D01*
X151615000Y-76389860D01*
X151613677Y-76403295D01*
X151611549Y-76410310D01*
X151608092Y-76416776D01*
X151603442Y-76422442D01*
X151597776Y-76427092D01*
X151591310Y-76430549D01*
X151584295Y-76432677D01*
X151570860Y-76434000D01*
X151257140Y-76434000D01*
X151243705Y-76432677D01*
X151236690Y-76430549D01*
X151230224Y-76427092D01*
X151224558Y-76422442D01*
X151219908Y-76416776D01*
X151216451Y-76410310D01*
X151214323Y-76403295D01*
X151213397Y-76393891D01*
X151208617Y-76369858D01*
X151199239Y-76347219D01*
X151185626Y-76326845D01*
X151168299Y-76309518D01*
X151147924Y-76295904D01*
X151125285Y-76286526D01*
X151101252Y-76281746D01*
X151076748Y-76281746D01*
X151052715Y-76286526D01*
X151030076Y-76295904D01*
X151009702Y-76309517D01*
X150992375Y-76326844D01*
X150978761Y-76347219D01*
X150969383Y-76369858D01*
X150964603Y-76393891D01*
X150963677Y-76403295D01*
X150961549Y-76410310D01*
X150958092Y-76416776D01*
X150953442Y-76422442D01*
X150947776Y-76427092D01*
X150941310Y-76430549D01*
X150934295Y-76432677D01*
X150920860Y-76434000D01*
X150607140Y-76434000D01*
X150593705Y-76432677D01*
X150586690Y-76430549D01*
X150580224Y-76427092D01*
X150574558Y-76422442D01*
X150569908Y-76416776D01*
X150566451Y-76410310D01*
X150564323Y-76403295D01*
X150563397Y-76393891D01*
X150558617Y-76369858D01*
X150549239Y-76347219D01*
X150535626Y-76326845D01*
X150518299Y-76309518D01*
X150497924Y-76295904D01*
X150475285Y-76286526D01*
X150451252Y-76281746D01*
X150426748Y-76281746D01*
X150402715Y-76286526D01*
X150380076Y-76295904D01*
X150359702Y-76309517D01*
X150342375Y-76326844D01*
X150328761Y-76347219D01*
X150319383Y-76369858D01*
X150314603Y-76393891D01*
X150313677Y-76403295D01*
X150311549Y-76410310D01*
X150308092Y-76416776D01*
X150303442Y-76422442D01*
X150297776Y-76427092D01*
X150291310Y-76430549D01*
X150284295Y-76432677D01*
X150270860Y-76434000D01*
X149957140Y-76434000D01*
X149943705Y-76432677D01*
X149936690Y-76430549D01*
X149930224Y-76427092D01*
X149924558Y-76422442D01*
X149919908Y-76416776D01*
X149916451Y-76410310D01*
X149914323Y-76403295D01*
X149913397Y-76393891D01*
X149908617Y-76369858D01*
X149899239Y-76347219D01*
X149885626Y-76326845D01*
X149868299Y-76309518D01*
X149847924Y-76295904D01*
X149825285Y-76286526D01*
X149801252Y-76281746D01*
X149776748Y-76281746D01*
X149752715Y-76286526D01*
X149730076Y-76295904D01*
X149709702Y-76309517D01*
X149692375Y-76326844D01*
X149678761Y-76347219D01*
X149669383Y-76369858D01*
X149664603Y-76393891D01*
X149663677Y-76403295D01*
X149661549Y-76410310D01*
X149658092Y-76416776D01*
X149653442Y-76422442D01*
X149647776Y-76427092D01*
X149641310Y-76430549D01*
X149634295Y-76432677D01*
X149620860Y-76434000D01*
X149307140Y-76434000D01*
X149293705Y-76432677D01*
X149286690Y-76430549D01*
X149280224Y-76427092D01*
X149274558Y-76422442D01*
X149269908Y-76416776D01*
X149266451Y-76410310D01*
X149264323Y-76403295D01*
X149263397Y-76393891D01*
X149258617Y-76369858D01*
X149249239Y-76347219D01*
X149235626Y-76326845D01*
X149218299Y-76309518D01*
X149197924Y-76295904D01*
X149175285Y-76286526D01*
X149151252Y-76281746D01*
X149126748Y-76281746D01*
X149102715Y-76286526D01*
X149080076Y-76295904D01*
X149059702Y-76309517D01*
X149042375Y-76326844D01*
X149028761Y-76347219D01*
X149019383Y-76369858D01*
X149014603Y-76393891D01*
X149013677Y-76403295D01*
X149011549Y-76410310D01*
X149008092Y-76416776D01*
X149003442Y-76422442D01*
X148997776Y-76427092D01*
X148991310Y-76430549D01*
X148984295Y-76432677D01*
X148970860Y-76434000D01*
X148657140Y-76434000D01*
X148643705Y-76432677D01*
X148636690Y-76430549D01*
X148630224Y-76427092D01*
X148624558Y-76422442D01*
X148619908Y-76416776D01*
X148616451Y-76410310D01*
X148614323Y-76403295D01*
X148613000Y-76389860D01*
X148613000Y-75401140D01*
X148614323Y-75387705D01*
X148616451Y-75380690D01*
X148619908Y-75374224D01*
X148624558Y-75368558D01*
X148630226Y-75363906D01*
X148645009Y-75356004D01*
X148665384Y-75342390D01*
X148682711Y-75325063D01*
X148696324Y-75304689D01*
X148705702Y-75282050D01*
X148710286Y-75258999D01*
X148941675Y-75258999D01*
X148944077Y-75283385D01*
X148951190Y-75306834D01*
X148962741Y-75328445D01*
X148978286Y-75347387D01*
X148988930Y-75355281D01*
X148988260Y-75356098D01*
X149003442Y-75368558D01*
X149008092Y-75374224D01*
X149011549Y-75380690D01*
X149013677Y-75387705D01*
X149014603Y-75397109D01*
X149019383Y-75421142D01*
X149028761Y-75443781D01*
X149042374Y-75464155D01*
X149059701Y-75481482D01*
X149080076Y-75495096D01*
X149102715Y-75504474D01*
X149126748Y-75509254D01*
X149151252Y-75509254D01*
X149175285Y-75504474D01*
X149197924Y-75495096D01*
X149218298Y-75481483D01*
X149235625Y-75464156D01*
X149249239Y-75443781D01*
X149258617Y-75421142D01*
X149263397Y-75397109D01*
X149264323Y-75387705D01*
X149266451Y-75380690D01*
X149269908Y-75374224D01*
X149274558Y-75368558D01*
X149288968Y-75356732D01*
X149290627Y-75355623D01*
X149307953Y-75338295D01*
X149321567Y-75317921D01*
X149330943Y-75295281D01*
X149335723Y-75271248D01*
X149335723Y-75258999D01*
X149591675Y-75258999D01*
X149594077Y-75283385D01*
X149601190Y-75306834D01*
X149612741Y-75328445D01*
X149628286Y-75347387D01*
X149638930Y-75355281D01*
X149638260Y-75356098D01*
X149653442Y-75368558D01*
X149658092Y-75374224D01*
X149661549Y-75380690D01*
X149663677Y-75387705D01*
X149664603Y-75397109D01*
X149669383Y-75421142D01*
X149678761Y-75443781D01*
X149692374Y-75464155D01*
X149709701Y-75481482D01*
X149730076Y-75495096D01*
X149752715Y-75504474D01*
X149776748Y-75509254D01*
X149801252Y-75509254D01*
X149825285Y-75504474D01*
X149847924Y-75495096D01*
X149868298Y-75481483D01*
X149885625Y-75464156D01*
X149899239Y-75443781D01*
X149908617Y-75421142D01*
X149913397Y-75397109D01*
X149914323Y-75387705D01*
X149916451Y-75380690D01*
X149919908Y-75374224D01*
X149924558Y-75368558D01*
X149938968Y-75356732D01*
X149940627Y-75355623D01*
X149957953Y-75338295D01*
X149971567Y-75317921D01*
X149980943Y-75295281D01*
X149985723Y-75271248D01*
X149985723Y-75258999D01*
X150241675Y-75258999D01*
X150244077Y-75283385D01*
X150251190Y-75306834D01*
X150262741Y-75328445D01*
X150278286Y-75347387D01*
X150288930Y-75355281D01*
X150288260Y-75356098D01*
X150303442Y-75368558D01*
X150308092Y-75374224D01*
X150311549Y-75380690D01*
X150313677Y-75387705D01*
X150314603Y-75397109D01*
X150319383Y-75421142D01*
X150328761Y-75443781D01*
X150342374Y-75464155D01*
X150359701Y-75481482D01*
X150380076Y-75495096D01*
X150402715Y-75504474D01*
X150426748Y-75509254D01*
X150451252Y-75509254D01*
X150475285Y-75504474D01*
X150497924Y-75495096D01*
X150518298Y-75481483D01*
X150535625Y-75464156D01*
X150549239Y-75443781D01*
X150558617Y-75421142D01*
X150563397Y-75397109D01*
X150564323Y-75387705D01*
X150566451Y-75380690D01*
X150569908Y-75374224D01*
X150574558Y-75368558D01*
X150588968Y-75356732D01*
X150590627Y-75355623D01*
X150607953Y-75338295D01*
X150621567Y-75317921D01*
X150630943Y-75295281D01*
X150635723Y-75271248D01*
X150635723Y-75258999D01*
X150891675Y-75258999D01*
X150894077Y-75283385D01*
X150901190Y-75306834D01*
X150912741Y-75328445D01*
X150928286Y-75347387D01*
X150938930Y-75355281D01*
X150938260Y-75356098D01*
X150953442Y-75368558D01*
X150958092Y-75374224D01*
X150961549Y-75380690D01*
X150963677Y-75387705D01*
X150964603Y-75397109D01*
X150969383Y-75421142D01*
X150978761Y-75443781D01*
X150992374Y-75464155D01*
X151009701Y-75481482D01*
X151030076Y-75495096D01*
X151052715Y-75504474D01*
X151076748Y-75509254D01*
X151101252Y-75509254D01*
X151125285Y-75504474D01*
X151147924Y-75495096D01*
X151168298Y-75481483D01*
X151185625Y-75464156D01*
X151199239Y-75443781D01*
X151208617Y-75421142D01*
X151213397Y-75397109D01*
X151214323Y-75387705D01*
X151216451Y-75380690D01*
X151219908Y-75374224D01*
X151224558Y-75368558D01*
X151238968Y-75356732D01*
X151240627Y-75355623D01*
X151257953Y-75338295D01*
X151271567Y-75317921D01*
X151280943Y-75295281D01*
X151285723Y-75271248D01*
X151285723Y-75246744D01*
X151280942Y-75222711D01*
X151271564Y-75200072D01*
X151257950Y-75179698D01*
X151240622Y-75162372D01*
X151220248Y-75148758D01*
X151197608Y-75139382D01*
X151161326Y-75134000D01*
X151016674Y-75134000D01*
X150992288Y-75136402D01*
X150968839Y-75143515D01*
X150947228Y-75155066D01*
X150928286Y-75170611D01*
X150912741Y-75189553D01*
X150901190Y-75211164D01*
X150894077Y-75234613D01*
X150891675Y-75258999D01*
X150635723Y-75258999D01*
X150635723Y-75246744D01*
X150630942Y-75222711D01*
X150621564Y-75200072D01*
X150607950Y-75179698D01*
X150590622Y-75162372D01*
X150570248Y-75148758D01*
X150547608Y-75139382D01*
X150511326Y-75134000D01*
X150366674Y-75134000D01*
X150342288Y-75136402D01*
X150318839Y-75143515D01*
X150297228Y-75155066D01*
X150278286Y-75170611D01*
X150262741Y-75189553D01*
X150251190Y-75211164D01*
X150244077Y-75234613D01*
X150241675Y-75258999D01*
X149985723Y-75258999D01*
X149985723Y-75246744D01*
X149980942Y-75222711D01*
X149971564Y-75200072D01*
X149957950Y-75179698D01*
X149940622Y-75162372D01*
X149920248Y-75148758D01*
X149897608Y-75139382D01*
X149861326Y-75134000D01*
X149716674Y-75134000D01*
X149692288Y-75136402D01*
X149668839Y-75143515D01*
X149647228Y-75155066D01*
X149628286Y-75170611D01*
X149612741Y-75189553D01*
X149601190Y-75211164D01*
X149594077Y-75234613D01*
X149591675Y-75258999D01*
X149335723Y-75258999D01*
X149335723Y-75246744D01*
X149330942Y-75222711D01*
X149321564Y-75200072D01*
X149307950Y-75179698D01*
X149290622Y-75162372D01*
X149270248Y-75148758D01*
X149247608Y-75139382D01*
X149211326Y-75134000D01*
X149066674Y-75134000D01*
X149042288Y-75136402D01*
X149018839Y-75143515D01*
X148997228Y-75155066D01*
X148978286Y-75170611D01*
X148962741Y-75189553D01*
X148951190Y-75211164D01*
X148944077Y-75234613D01*
X148941675Y-75258999D01*
X148710286Y-75258999D01*
X148710482Y-75258017D01*
X148710482Y-75233513D01*
X148705702Y-75209479D01*
X148696324Y-75186841D01*
X148682710Y-75166466D01*
X148665383Y-75149139D01*
X148645009Y-75135526D01*
X148622369Y-75126148D01*
X148607920Y-75121765D01*
X148581505Y-75107646D01*
X148558354Y-75088646D01*
X148539354Y-75065495D01*
X148525235Y-75039080D01*
X148520852Y-75024631D01*
X148511475Y-75001992D01*
X148497862Y-74981618D01*
X148480535Y-74964291D01*
X148460161Y-74950677D01*
X148437522Y-74941299D01*
X148413489Y-74936518D01*
X148388985Y-74936518D01*
X148364951Y-74941298D01*
X148342312Y-74950675D01*
X148321938Y-74964288D01*
X148304611Y-74981615D01*
X148290996Y-75001991D01*
X148283094Y-75016774D01*
X148278442Y-75022442D01*
X148272776Y-75027092D01*
X148266310Y-75030549D01*
X148259295Y-75032677D01*
X148245860Y-75034000D01*
X147257140Y-75034000D01*
X147243705Y-75032677D01*
X147236690Y-75030549D01*
X147230224Y-75027092D01*
X147224558Y-75022442D01*
X147219908Y-75016776D01*
X147216451Y-75010310D01*
X147214323Y-75003295D01*
X147213000Y-74989860D01*
X147213000Y-74676140D01*
X147214323Y-74662705D01*
X147216451Y-74655690D01*
X147219908Y-74649224D01*
X147224558Y-74643558D01*
X147230224Y-74638908D01*
X147236690Y-74635451D01*
X147243705Y-74633323D01*
X147253109Y-74632397D01*
X147277142Y-74627617D01*
X147299781Y-74618239D01*
X147320155Y-74604626D01*
X147337482Y-74587299D01*
X147351096Y-74566924D01*
X147360474Y-74544285D01*
X147365254Y-74520252D01*
X147365254Y-74495748D01*
X148137746Y-74495748D01*
X148137746Y-74520252D01*
X148142526Y-74544285D01*
X148151904Y-74566924D01*
X148165517Y-74587298D01*
X148182844Y-74604625D01*
X148203219Y-74618239D01*
X148225858Y-74627617D01*
X148249891Y-74632397D01*
X148259295Y-74633323D01*
X148266310Y-74635451D01*
X148272776Y-74638908D01*
X148278442Y-74643558D01*
X148290268Y-74657968D01*
X148291377Y-74659627D01*
X148308705Y-74676953D01*
X148329079Y-74690567D01*
X148351719Y-74699943D01*
X148375752Y-74704723D01*
X148400256Y-74704723D01*
X148424289Y-74699942D01*
X148446928Y-74690564D01*
X148467302Y-74676950D01*
X148484628Y-74659622D01*
X148498242Y-74639248D01*
X148507618Y-74616608D01*
X148513000Y-74580326D01*
X148513000Y-74435674D01*
X151715000Y-74435674D01*
X151715000Y-74580326D01*
X151717402Y-74604712D01*
X151724515Y-74628161D01*
X151736066Y-74649772D01*
X151751611Y-74668714D01*
X151770553Y-74684259D01*
X151792164Y-74695810D01*
X151815613Y-74702923D01*
X151839999Y-74705325D01*
X151864385Y-74702923D01*
X151887834Y-74695810D01*
X151909445Y-74684259D01*
X151928387Y-74668714D01*
X151936281Y-74658070D01*
X151937098Y-74658740D01*
X151949558Y-74643558D01*
X151955224Y-74638908D01*
X151961690Y-74635451D01*
X151968705Y-74633323D01*
X151978109Y-74632397D01*
X152002142Y-74627617D01*
X152024781Y-74618239D01*
X152045155Y-74604626D01*
X152062482Y-74587299D01*
X152076096Y-74566924D01*
X152085474Y-74544285D01*
X152090254Y-74520252D01*
X152090254Y-74495748D01*
X152085474Y-74471715D01*
X152076096Y-74449076D01*
X152062483Y-74428702D01*
X152045156Y-74411375D01*
X152024781Y-74397761D01*
X152002142Y-74388383D01*
X151978109Y-74383603D01*
X151968705Y-74382677D01*
X151961690Y-74380549D01*
X151955224Y-74377092D01*
X151949558Y-74372442D01*
X151937732Y-74358032D01*
X151936623Y-74356373D01*
X151919295Y-74339047D01*
X151898921Y-74325433D01*
X151876281Y-74316057D01*
X151852248Y-74311277D01*
X151827744Y-74311277D01*
X151803711Y-74316058D01*
X151781072Y-74325436D01*
X151760698Y-74339050D01*
X151743372Y-74356378D01*
X151729758Y-74376752D01*
X151720382Y-74399392D01*
X151715000Y-74435674D01*
X148513000Y-74435674D01*
X148510598Y-74411288D01*
X148503485Y-74387839D01*
X148491934Y-74366228D01*
X148476389Y-74347286D01*
X148457447Y-74331741D01*
X148435836Y-74320190D01*
X148412387Y-74313077D01*
X148388001Y-74310675D01*
X148363615Y-74313077D01*
X148340166Y-74320190D01*
X148318555Y-74331741D01*
X148299613Y-74347286D01*
X148291719Y-74357930D01*
X148290902Y-74357260D01*
X148278442Y-74372442D01*
X148272776Y-74377092D01*
X148266310Y-74380549D01*
X148259295Y-74382677D01*
X148249891Y-74383603D01*
X148225858Y-74388383D01*
X148203219Y-74397761D01*
X148182845Y-74411374D01*
X148165518Y-74428701D01*
X148151904Y-74449076D01*
X148142526Y-74471715D01*
X148137746Y-74495748D01*
X147365254Y-74495748D01*
X147360474Y-74471715D01*
X147351096Y-74449076D01*
X147337483Y-74428702D01*
X147320156Y-74411375D01*
X147299781Y-74397761D01*
X147277142Y-74388383D01*
X147253109Y-74383603D01*
X147243705Y-74382677D01*
X147236690Y-74380549D01*
X147230224Y-74377092D01*
X147224558Y-74372442D01*
X147219908Y-74366776D01*
X147216451Y-74360310D01*
X147214323Y-74353295D01*
X147213000Y-74339860D01*
X147213000Y-74026140D01*
X147214323Y-74012705D01*
X147216451Y-74005690D01*
X147219908Y-73999224D01*
X147224558Y-73993558D01*
X147230224Y-73988908D01*
X147236690Y-73985451D01*
X147243705Y-73983323D01*
X147253109Y-73982397D01*
X147277142Y-73977617D01*
X147299781Y-73968239D01*
X147320155Y-73954626D01*
X147337482Y-73937299D01*
X147351096Y-73916924D01*
X147360474Y-73894285D01*
X147365254Y-73870252D01*
X147365254Y-73845748D01*
X148137746Y-73845748D01*
X148137746Y-73870252D01*
X148142526Y-73894285D01*
X148151904Y-73916924D01*
X148165517Y-73937298D01*
X148182844Y-73954625D01*
X148203219Y-73968239D01*
X148225858Y-73977617D01*
X148249891Y-73982397D01*
X148259295Y-73983323D01*
X148266310Y-73985451D01*
X148272776Y-73988908D01*
X148278442Y-73993558D01*
X148290268Y-74007968D01*
X148291377Y-74009627D01*
X148308705Y-74026953D01*
X148329079Y-74040567D01*
X148351719Y-74049943D01*
X148375752Y-74054723D01*
X148400256Y-74054723D01*
X148424289Y-74049942D01*
X148446928Y-74040564D01*
X148467302Y-74026950D01*
X148484628Y-74009622D01*
X148498242Y-73989248D01*
X148507618Y-73966608D01*
X148513000Y-73930326D01*
X148513000Y-73785674D01*
X151715000Y-73785674D01*
X151715000Y-73930326D01*
X151717402Y-73954712D01*
X151724515Y-73978161D01*
X151736066Y-73999772D01*
X151751611Y-74018714D01*
X151770553Y-74034259D01*
X151792164Y-74045810D01*
X151815613Y-74052923D01*
X151839999Y-74055325D01*
X151864385Y-74052923D01*
X151887834Y-74045810D01*
X151909445Y-74034259D01*
X151928387Y-74018714D01*
X151936281Y-74008070D01*
X151937098Y-74008740D01*
X151949558Y-73993558D01*
X151955224Y-73988908D01*
X151961690Y-73985451D01*
X151968705Y-73983323D01*
X151978109Y-73982397D01*
X152002142Y-73977617D01*
X152024781Y-73968239D01*
X152045155Y-73954626D01*
X152062482Y-73937299D01*
X152076096Y-73916924D01*
X152085474Y-73894285D01*
X152090254Y-73870252D01*
X152090254Y-73845748D01*
X152085474Y-73821715D01*
X152076096Y-73799076D01*
X152062483Y-73778702D01*
X152045156Y-73761375D01*
X152024781Y-73747761D01*
X152002142Y-73738383D01*
X151978109Y-73733603D01*
X151968705Y-73732677D01*
X151961690Y-73730549D01*
X151955224Y-73727092D01*
X151949558Y-73722442D01*
X151937732Y-73708032D01*
X151936623Y-73706373D01*
X151919295Y-73689047D01*
X151898921Y-73675433D01*
X151876281Y-73666057D01*
X151852248Y-73661277D01*
X151827744Y-73661277D01*
X151803711Y-73666058D01*
X151781072Y-73675436D01*
X151760698Y-73689050D01*
X151743372Y-73706378D01*
X151729758Y-73726752D01*
X151720382Y-73749392D01*
X151715000Y-73785674D01*
X148513000Y-73785674D01*
X148510598Y-73761288D01*
X148503485Y-73737839D01*
X148491934Y-73716228D01*
X148476389Y-73697286D01*
X148457447Y-73681741D01*
X148435836Y-73670190D01*
X148412387Y-73663077D01*
X148388001Y-73660675D01*
X148363615Y-73663077D01*
X148340166Y-73670190D01*
X148318555Y-73681741D01*
X148299613Y-73697286D01*
X148291719Y-73707930D01*
X148290902Y-73707260D01*
X148278442Y-73722442D01*
X148272776Y-73727092D01*
X148266310Y-73730549D01*
X148259295Y-73732677D01*
X148249891Y-73733603D01*
X148225858Y-73738383D01*
X148203219Y-73747761D01*
X148182845Y-73761374D01*
X148165518Y-73778701D01*
X148151904Y-73799076D01*
X148142526Y-73821715D01*
X148137746Y-73845748D01*
X147365254Y-73845748D01*
X147360474Y-73821715D01*
X147351096Y-73799076D01*
X147337483Y-73778702D01*
X147320156Y-73761375D01*
X147299781Y-73747761D01*
X147277142Y-73738383D01*
X147253109Y-73733603D01*
X147243705Y-73732677D01*
X147236690Y-73730549D01*
X147230224Y-73727092D01*
X147224558Y-73722442D01*
X147219908Y-73716776D01*
X147216451Y-73710310D01*
X147214323Y-73703295D01*
X147213000Y-73689860D01*
X147213000Y-73376140D01*
X147214323Y-73362705D01*
X147216451Y-73355690D01*
X147219908Y-73349224D01*
X147224558Y-73343558D01*
X147230224Y-73338908D01*
X147236690Y-73335451D01*
X147243705Y-73333323D01*
X147253109Y-73332397D01*
X147277142Y-73327617D01*
X147299781Y-73318239D01*
X147320155Y-73304626D01*
X147337482Y-73287299D01*
X147351096Y-73266924D01*
X147360474Y-73244285D01*
X147365254Y-73220252D01*
X147365254Y-73195748D01*
X148137746Y-73195748D01*
X148137746Y-73220252D01*
X148142526Y-73244285D01*
X148151904Y-73266924D01*
X148165517Y-73287298D01*
X148182844Y-73304625D01*
X148203219Y-73318239D01*
X148225858Y-73327617D01*
X148249891Y-73332397D01*
X148259295Y-73333323D01*
X148266310Y-73335451D01*
X148272776Y-73338908D01*
X148278442Y-73343558D01*
X148290268Y-73357968D01*
X148291377Y-73359627D01*
X148308705Y-73376953D01*
X148329079Y-73390567D01*
X148351719Y-73399943D01*
X148375752Y-73404723D01*
X148400256Y-73404723D01*
X148424289Y-73399942D01*
X148446928Y-73390564D01*
X148467302Y-73376950D01*
X148484628Y-73359622D01*
X148498242Y-73339248D01*
X148507618Y-73316608D01*
X148513000Y-73280326D01*
X148513000Y-73135674D01*
X151715000Y-73135674D01*
X151715000Y-73280326D01*
X151717402Y-73304712D01*
X151724515Y-73328161D01*
X151736066Y-73349772D01*
X151751611Y-73368714D01*
X151770553Y-73384259D01*
X151792164Y-73395810D01*
X151815613Y-73402923D01*
X151839999Y-73405325D01*
X151864385Y-73402923D01*
X151887834Y-73395810D01*
X151909445Y-73384259D01*
X151928387Y-73368714D01*
X151936281Y-73358070D01*
X151937098Y-73358740D01*
X151949558Y-73343558D01*
X151955224Y-73338908D01*
X151961690Y-73335451D01*
X151968705Y-73333323D01*
X151978109Y-73332397D01*
X152002142Y-73327617D01*
X152024781Y-73318239D01*
X152045155Y-73304626D01*
X152062482Y-73287299D01*
X152076096Y-73266924D01*
X152085474Y-73244285D01*
X152090254Y-73220252D01*
X152090254Y-73195748D01*
X152085474Y-73171715D01*
X152076096Y-73149076D01*
X152062483Y-73128702D01*
X152045156Y-73111375D01*
X152024781Y-73097761D01*
X152002142Y-73088383D01*
X151978109Y-73083603D01*
X151968705Y-73082677D01*
X151961690Y-73080549D01*
X151955224Y-73077092D01*
X151949558Y-73072442D01*
X151937732Y-73058032D01*
X151936623Y-73056373D01*
X151919295Y-73039047D01*
X151898921Y-73025433D01*
X151876281Y-73016057D01*
X151852248Y-73011277D01*
X151827744Y-73011277D01*
X151803711Y-73016058D01*
X151781072Y-73025436D01*
X151760698Y-73039050D01*
X151743372Y-73056378D01*
X151729758Y-73076752D01*
X151720382Y-73099392D01*
X151715000Y-73135674D01*
X148513000Y-73135674D01*
X148510598Y-73111288D01*
X148503485Y-73087839D01*
X148491934Y-73066228D01*
X148476389Y-73047286D01*
X148457447Y-73031741D01*
X148435836Y-73020190D01*
X148412387Y-73013077D01*
X148388001Y-73010675D01*
X148363615Y-73013077D01*
X148340166Y-73020190D01*
X148318555Y-73031741D01*
X148299613Y-73047286D01*
X148291719Y-73057930D01*
X148290902Y-73057260D01*
X148278442Y-73072442D01*
X148272776Y-73077092D01*
X148266310Y-73080549D01*
X148259295Y-73082677D01*
X148249891Y-73083603D01*
X148225858Y-73088383D01*
X148203219Y-73097761D01*
X148182845Y-73111374D01*
X148165518Y-73128701D01*
X148151904Y-73149076D01*
X148142526Y-73171715D01*
X148137746Y-73195748D01*
X147365254Y-73195748D01*
X147360474Y-73171715D01*
X147351096Y-73149076D01*
X147337483Y-73128702D01*
X147320156Y-73111375D01*
X147299781Y-73097761D01*
X147277142Y-73088383D01*
X147253109Y-73083603D01*
X147243705Y-73082677D01*
X147236690Y-73080549D01*
X147230224Y-73077092D01*
X147224558Y-73072442D01*
X147219908Y-73066776D01*
X147216451Y-73060310D01*
X147214323Y-73053295D01*
X147213000Y-73039860D01*
X147213000Y-72726140D01*
X147214323Y-72712705D01*
X147216451Y-72705690D01*
X147219908Y-72699224D01*
X147224558Y-72693558D01*
X147230224Y-72688908D01*
X147236690Y-72685451D01*
X147243705Y-72683323D01*
X147253109Y-72682397D01*
X147277142Y-72677617D01*
X147299781Y-72668239D01*
X147320155Y-72654626D01*
X147337482Y-72637299D01*
X147351096Y-72616924D01*
X147360474Y-72594285D01*
X147365254Y-72570252D01*
X147365254Y-72545748D01*
X148137746Y-72545748D01*
X148137746Y-72570252D01*
X148142526Y-72594285D01*
X148151904Y-72616924D01*
X148165517Y-72637298D01*
X148182844Y-72654625D01*
X148203219Y-72668239D01*
X148225858Y-72677617D01*
X148249891Y-72682397D01*
X148259295Y-72683323D01*
X148266310Y-72685451D01*
X148272776Y-72688908D01*
X148278442Y-72693558D01*
X148290268Y-72707968D01*
X148291377Y-72709627D01*
X148308705Y-72726953D01*
X148329079Y-72740567D01*
X148351719Y-72749943D01*
X148375752Y-72754723D01*
X148400256Y-72754723D01*
X148424289Y-72749942D01*
X148446928Y-72740564D01*
X148467302Y-72726950D01*
X148484628Y-72709622D01*
X148498242Y-72689248D01*
X148507618Y-72666608D01*
X148513000Y-72630326D01*
X148513000Y-72485674D01*
X151715000Y-72485674D01*
X151715000Y-72630326D01*
X151717402Y-72654712D01*
X151724515Y-72678161D01*
X151736066Y-72699772D01*
X151751611Y-72718714D01*
X151770553Y-72734259D01*
X151792164Y-72745810D01*
X151815613Y-72752923D01*
X151839999Y-72755325D01*
X151864385Y-72752923D01*
X151887834Y-72745810D01*
X151909445Y-72734259D01*
X151928387Y-72718714D01*
X151936281Y-72708070D01*
X151937098Y-72708740D01*
X151949558Y-72693558D01*
X151955224Y-72688908D01*
X151961690Y-72685451D01*
X151968705Y-72683323D01*
X151978109Y-72682397D01*
X152002142Y-72677617D01*
X152024781Y-72668239D01*
X152045155Y-72654626D01*
X152062482Y-72637299D01*
X152076096Y-72616924D01*
X152085474Y-72594285D01*
X152090254Y-72570252D01*
X152090254Y-72545748D01*
X152085474Y-72521715D01*
X152076096Y-72499076D01*
X152062483Y-72478702D01*
X152045156Y-72461375D01*
X152024781Y-72447761D01*
X152002142Y-72438383D01*
X151978109Y-72433603D01*
X151968705Y-72432677D01*
X151961690Y-72430549D01*
X151955224Y-72427092D01*
X151949558Y-72422442D01*
X151937732Y-72408032D01*
X151936623Y-72406373D01*
X151919295Y-72389047D01*
X151898921Y-72375433D01*
X151876281Y-72366057D01*
X151852248Y-72361277D01*
X151827744Y-72361277D01*
X151803711Y-72366058D01*
X151781072Y-72375436D01*
X151760698Y-72389050D01*
X151743372Y-72406378D01*
X151729758Y-72426752D01*
X151720382Y-72449392D01*
X151715000Y-72485674D01*
X148513000Y-72485674D01*
X148510598Y-72461288D01*
X148503485Y-72437839D01*
X148491934Y-72416228D01*
X148476389Y-72397286D01*
X148457447Y-72381741D01*
X148435836Y-72370190D01*
X148412387Y-72363077D01*
X148388001Y-72360675D01*
X148363615Y-72363077D01*
X148340166Y-72370190D01*
X148318555Y-72381741D01*
X148299613Y-72397286D01*
X148291719Y-72407930D01*
X148290902Y-72407260D01*
X148278442Y-72422442D01*
X148272776Y-72427092D01*
X148266310Y-72430549D01*
X148259295Y-72432677D01*
X148249891Y-72433603D01*
X148225858Y-72438383D01*
X148203219Y-72447761D01*
X148182845Y-72461374D01*
X148165518Y-72478701D01*
X148151904Y-72499076D01*
X148142526Y-72521715D01*
X148137746Y-72545748D01*
X147365254Y-72545748D01*
X147360474Y-72521715D01*
X147351096Y-72499076D01*
X147337483Y-72478702D01*
X147320156Y-72461375D01*
X147299781Y-72447761D01*
X147277142Y-72438383D01*
X147253109Y-72433603D01*
X147243705Y-72432677D01*
X147236690Y-72430549D01*
X147230224Y-72427092D01*
X147224558Y-72422442D01*
X147219908Y-72416776D01*
X147216451Y-72410310D01*
X147214323Y-72403295D01*
X147213000Y-72389860D01*
X147213000Y-72076140D01*
X147214323Y-72062705D01*
X147216451Y-72055690D01*
X147219908Y-72049224D01*
X147224558Y-72043558D01*
X147230224Y-72038908D01*
X147236690Y-72035451D01*
X147243705Y-72033323D01*
X147257140Y-72032000D01*
X148245860Y-72032000D01*
X148259295Y-72033323D01*
X148266310Y-72035451D01*
X148272776Y-72038908D01*
X148278442Y-72043558D01*
X148283094Y-72049226D01*
X148290996Y-72064009D01*
X148304610Y-72084384D01*
X148321937Y-72101711D01*
X148342311Y-72115324D01*
X148364950Y-72124702D01*
X148388983Y-72129482D01*
X148413487Y-72129482D01*
X148437521Y-72124702D01*
X148460159Y-72115324D01*
X148480534Y-72101710D01*
X148497861Y-72084383D01*
X148511474Y-72064009D01*
X148520852Y-72041369D01*
X148525235Y-72026920D01*
X148539354Y-72000505D01*
X148558354Y-71977354D01*
X148581505Y-71958354D01*
X148607920Y-71944235D01*
X148622369Y-71939852D01*
X148645008Y-71930475D01*
X148665382Y-71916862D01*
X148682709Y-71899535D01*
X148696323Y-71879161D01*
X148705701Y-71856522D01*
X148710482Y-71832489D01*
X148710482Y-71807985D01*
X148707851Y-71794752D01*
X148942277Y-71794752D01*
X148942277Y-71819256D01*
X148947058Y-71843289D01*
X148956436Y-71865928D01*
X148970050Y-71886302D01*
X148987378Y-71903628D01*
X149007752Y-71917242D01*
X149030392Y-71926618D01*
X149066674Y-71932000D01*
X149211326Y-71932000D01*
X149235712Y-71929598D01*
X149259161Y-71922485D01*
X149280772Y-71910934D01*
X149299714Y-71895389D01*
X149315259Y-71876447D01*
X149326810Y-71854836D01*
X149333923Y-71831387D01*
X149336325Y-71807001D01*
X149335119Y-71794752D01*
X149592277Y-71794752D01*
X149592277Y-71819256D01*
X149597058Y-71843289D01*
X149606436Y-71865928D01*
X149620050Y-71886302D01*
X149637378Y-71903628D01*
X149657752Y-71917242D01*
X149680392Y-71926618D01*
X149716674Y-71932000D01*
X149861326Y-71932000D01*
X149885712Y-71929598D01*
X149909161Y-71922485D01*
X149930772Y-71910934D01*
X149949714Y-71895389D01*
X149965259Y-71876447D01*
X149976810Y-71854836D01*
X149983923Y-71831387D01*
X149986325Y-71807001D01*
X149985119Y-71794752D01*
X150242277Y-71794752D01*
X150242277Y-71819256D01*
X150247058Y-71843289D01*
X150256436Y-71865928D01*
X150270050Y-71886302D01*
X150287378Y-71903628D01*
X150307752Y-71917242D01*
X150330392Y-71926618D01*
X150366674Y-71932000D01*
X150511326Y-71932000D01*
X150535712Y-71929598D01*
X150559161Y-71922485D01*
X150580772Y-71910934D01*
X150599714Y-71895389D01*
X150615259Y-71876447D01*
X150626810Y-71854836D01*
X150633923Y-71831387D01*
X150636325Y-71807001D01*
X150635119Y-71794752D01*
X150892277Y-71794752D01*
X150892277Y-71819256D01*
X150897058Y-71843289D01*
X150906436Y-71865928D01*
X150920050Y-71886302D01*
X150937378Y-71903628D01*
X150957752Y-71917242D01*
X150980392Y-71926618D01*
X151016674Y-71932000D01*
X151161326Y-71932000D01*
X151185712Y-71929598D01*
X151209161Y-71922485D01*
X151230772Y-71910934D01*
X151249714Y-71895389D01*
X151265259Y-71876447D01*
X151276810Y-71854836D01*
X151283923Y-71831387D01*
X151286325Y-71807001D01*
X151283923Y-71782615D01*
X151276810Y-71759166D01*
X151265259Y-71737555D01*
X151249714Y-71718613D01*
X151239070Y-71710719D01*
X151239740Y-71709902D01*
X151224558Y-71697442D01*
X151219908Y-71691776D01*
X151216451Y-71685310D01*
X151214323Y-71678295D01*
X151213397Y-71668891D01*
X151208617Y-71644858D01*
X151199239Y-71622219D01*
X151185626Y-71601845D01*
X151168299Y-71584518D01*
X151147924Y-71570904D01*
X151125285Y-71561526D01*
X151101252Y-71556746D01*
X151076748Y-71556746D01*
X151052715Y-71561526D01*
X151030076Y-71570904D01*
X151009702Y-71584517D01*
X150992375Y-71601844D01*
X150978761Y-71622219D01*
X150969383Y-71644858D01*
X150964603Y-71668891D01*
X150963677Y-71678295D01*
X150961549Y-71685310D01*
X150958092Y-71691776D01*
X150953442Y-71697442D01*
X150939032Y-71709268D01*
X150937373Y-71710377D01*
X150920047Y-71727705D01*
X150906433Y-71748079D01*
X150897057Y-71770719D01*
X150892277Y-71794752D01*
X150635119Y-71794752D01*
X150633923Y-71782615D01*
X150626810Y-71759166D01*
X150615259Y-71737555D01*
X150599714Y-71718613D01*
X150589070Y-71710719D01*
X150589740Y-71709902D01*
X150574558Y-71697442D01*
X150569908Y-71691776D01*
X150566451Y-71685310D01*
X150564323Y-71678295D01*
X150563397Y-71668891D01*
X150558617Y-71644858D01*
X150549239Y-71622219D01*
X150535626Y-71601845D01*
X150518299Y-71584518D01*
X150497924Y-71570904D01*
X150475285Y-71561526D01*
X150451252Y-71556746D01*
X150426748Y-71556746D01*
X150402715Y-71561526D01*
X150380076Y-71570904D01*
X150359702Y-71584517D01*
X150342375Y-71601844D01*
X150328761Y-71622219D01*
X150319383Y-71644858D01*
X150314603Y-71668891D01*
X150313677Y-71678295D01*
X150311549Y-71685310D01*
X150308092Y-71691776D01*
X150303442Y-71697442D01*
X150289032Y-71709268D01*
X150287373Y-71710377D01*
X150270047Y-71727705D01*
X150256433Y-71748079D01*
X150247057Y-71770719D01*
X150242277Y-71794752D01*
X149985119Y-71794752D01*
X149983923Y-71782615D01*
X149976810Y-71759166D01*
X149965259Y-71737555D01*
X149949714Y-71718613D01*
X149939070Y-71710719D01*
X149939740Y-71709902D01*
X149924558Y-71697442D01*
X149919908Y-71691776D01*
X149916451Y-71685310D01*
X149914323Y-71678295D01*
X149913397Y-71668891D01*
X149908617Y-71644858D01*
X149899239Y-71622219D01*
X149885626Y-71601845D01*
X149868299Y-71584518D01*
X149847924Y-71570904D01*
X149825285Y-71561526D01*
X149801252Y-71556746D01*
X149776748Y-71556746D01*
X149752715Y-71561526D01*
X149730076Y-71570904D01*
X149709702Y-71584517D01*
X149692375Y-71601844D01*
X149678761Y-71622219D01*
X149669383Y-71644858D01*
X149664603Y-71668891D01*
X149663677Y-71678295D01*
X149661549Y-71685310D01*
X149658092Y-71691776D01*
X149653442Y-71697442D01*
X149639032Y-71709268D01*
X149637373Y-71710377D01*
X149620047Y-71727705D01*
X149606433Y-71748079D01*
X149597057Y-71770719D01*
X149592277Y-71794752D01*
X149335119Y-71794752D01*
X149333923Y-71782615D01*
X149326810Y-71759166D01*
X149315259Y-71737555D01*
X149299714Y-71718613D01*
X149289070Y-71710719D01*
X149289740Y-71709902D01*
X149274558Y-71697442D01*
X149269908Y-71691776D01*
X149266451Y-71685310D01*
X149264323Y-71678295D01*
X149263397Y-71668891D01*
X149258617Y-71644858D01*
X149249239Y-71622219D01*
X149235626Y-71601845D01*
X149218299Y-71584518D01*
X149197924Y-71570904D01*
X149175285Y-71561526D01*
X149151252Y-71556746D01*
X149126748Y-71556746D01*
X149102715Y-71561526D01*
X149080076Y-71570904D01*
X149059702Y-71584517D01*
X149042375Y-71601844D01*
X149028761Y-71622219D01*
X149019383Y-71644858D01*
X149014603Y-71668891D01*
X149013677Y-71678295D01*
X149011549Y-71685310D01*
X149008092Y-71691776D01*
X149003442Y-71697442D01*
X148989032Y-71709268D01*
X148987373Y-71710377D01*
X148970047Y-71727705D01*
X148956433Y-71748079D01*
X148947057Y-71770719D01*
X148942277Y-71794752D01*
X148707851Y-71794752D01*
X148705702Y-71783951D01*
X148696325Y-71761312D01*
X148682712Y-71740938D01*
X148665385Y-71723611D01*
X148645009Y-71709996D01*
X148630226Y-71702094D01*
X148624558Y-71697442D01*
X148619908Y-71691776D01*
X148616451Y-71685310D01*
X148614323Y-71678295D01*
X148613000Y-71664859D01*
X148613000Y-70676140D01*
X148614323Y-70662705D01*
X148616451Y-70655690D01*
X148619908Y-70649224D01*
X148624558Y-70643558D01*
X148630224Y-70638908D01*
X148636690Y-70635451D01*
X148643705Y-70633323D01*
X148657140Y-70632000D01*
X148970860Y-70632000D01*
X148984295Y-70633323D01*
X148984295Y-70633323D01*
G37*
G36*
X146033499Y-73822445D02*
G01*
X146070995Y-73833820D01*
X146105554Y-73852292D01*
X146135847Y-73877153D01*
X146160708Y-73907446D01*
X146179180Y-73942005D01*
X146190555Y-73979501D01*
X146195000Y-74024638D01*
X146195000Y-74763362D01*
X146190555Y-74808499D01*
X146179180Y-74845995D01*
X146160708Y-74880554D01*
X146135847Y-74910847D01*
X146105554Y-74935708D01*
X146070995Y-74954180D01*
X146033499Y-74965555D01*
X145988362Y-74970000D01*
X145349638Y-74970000D01*
X145304501Y-74965555D01*
X145267005Y-74954180D01*
X145232446Y-74935708D01*
X145202153Y-74910847D01*
X145177292Y-74880554D01*
X145158820Y-74845995D01*
X145147445Y-74808499D01*
X145143000Y-74763362D01*
X145143000Y-74024638D01*
X145147445Y-73979501D01*
X145158820Y-73942005D01*
X145177292Y-73907446D01*
X145202153Y-73877153D01*
X145232446Y-73852292D01*
X145267005Y-73833820D01*
X145304501Y-73822445D01*
X145349638Y-73818000D01*
X145988362Y-73818000D01*
X146033499Y-73822445D01*
X146033499Y-73822445D01*
G37*
G36*
X144560299Y-73822445D02*
G01*
X144597795Y-73833820D01*
X144632354Y-73852292D01*
X144662647Y-73877153D01*
X144687508Y-73907446D01*
X144705980Y-73942005D01*
X144717355Y-73979501D01*
X144721800Y-74024638D01*
X144721800Y-74763362D01*
X144717355Y-74808499D01*
X144705980Y-74845995D01*
X144687508Y-74880554D01*
X144662647Y-74910847D01*
X144632354Y-74935708D01*
X144597795Y-74954180D01*
X144560299Y-74965555D01*
X144515162Y-74970000D01*
X143876438Y-74970000D01*
X143831301Y-74965555D01*
X143793805Y-74954180D01*
X143759246Y-74935708D01*
X143728953Y-74910847D01*
X143704092Y-74880554D01*
X143685620Y-74845995D01*
X143674245Y-74808499D01*
X143669800Y-74763362D01*
X143669800Y-74024638D01*
X143674245Y-73979501D01*
X143685620Y-73942005D01*
X143704092Y-73907446D01*
X143728953Y-73877153D01*
X143759246Y-73852292D01*
X143793805Y-73833820D01*
X143831301Y-73822445D01*
X143876438Y-73818000D01*
X144515162Y-73818000D01*
X144560299Y-73822445D01*
X144560299Y-73822445D01*
G37*
G36*
X142406823Y-72821313D02*
G01*
X142567242Y-72869976D01*
X142699906Y-72940886D01*
X142715078Y-72948996D01*
X142844659Y-73055341D01*
X142951004Y-73184922D01*
X142951005Y-73184924D01*
X143030024Y-73332758D01*
X143078687Y-73493177D01*
X143095117Y-73660000D01*
X143078687Y-73826823D01*
X143078686Y-73826825D01*
X143032114Y-73980354D01*
X143030024Y-73987242D01*
X142979909Y-74081000D01*
X142951004Y-74135078D01*
X142844659Y-74264659D01*
X142715078Y-74371004D01*
X142715076Y-74371005D01*
X142567242Y-74450024D01*
X142406823Y-74498687D01*
X142281804Y-74511000D01*
X142198196Y-74511000D01*
X142073177Y-74498687D01*
X141912758Y-74450024D01*
X141764924Y-74371005D01*
X141764922Y-74371004D01*
X141635341Y-74264659D01*
X141528996Y-74135078D01*
X141500091Y-74081000D01*
X141449976Y-73987242D01*
X141447887Y-73980354D01*
X141401314Y-73826825D01*
X141401313Y-73826823D01*
X141384883Y-73660000D01*
X141401313Y-73493177D01*
X141449976Y-73332758D01*
X141528995Y-73184924D01*
X141528996Y-73184922D01*
X141635341Y-73055341D01*
X141764922Y-72948996D01*
X141780094Y-72940886D01*
X141912758Y-72869976D01*
X142073177Y-72821313D01*
X142198196Y-72809000D01*
X142281804Y-72809000D01*
X142406823Y-72821313D01*
X142406823Y-72821313D01*
G37*
G36*
X155106823Y-72821313D02*
G01*
X155267242Y-72869976D01*
X155399906Y-72940886D01*
X155415078Y-72948996D01*
X155544659Y-73055341D01*
X155651004Y-73184922D01*
X155651005Y-73184924D01*
X155730024Y-73332758D01*
X155778687Y-73493177D01*
X155795117Y-73660000D01*
X155778687Y-73826823D01*
X155778686Y-73826825D01*
X155732114Y-73980354D01*
X155730024Y-73987242D01*
X155679909Y-74081000D01*
X155651004Y-74135078D01*
X155544659Y-74264659D01*
X155415078Y-74371004D01*
X155415076Y-74371005D01*
X155267242Y-74450024D01*
X155106823Y-74498687D01*
X154981804Y-74511000D01*
X154898196Y-74511000D01*
X154773177Y-74498687D01*
X154612758Y-74450024D01*
X154464924Y-74371005D01*
X154464922Y-74371004D01*
X154335341Y-74264659D01*
X154228996Y-74135078D01*
X154200091Y-74081000D01*
X154149976Y-73987242D01*
X154147887Y-73980354D01*
X154101314Y-73826825D01*
X154101313Y-73826823D01*
X154084883Y-73660000D01*
X154101313Y-73493177D01*
X154149976Y-73332758D01*
X154228995Y-73184924D01*
X154228996Y-73184922D01*
X154335341Y-73055341D01*
X154464922Y-72948996D01*
X154480094Y-72940886D01*
X154612758Y-72869976D01*
X154773177Y-72821313D01*
X154898196Y-72809000D01*
X154981804Y-72809000D01*
X155106823Y-72821313D01*
X155106823Y-72821313D01*
G37*
G36*
X144560299Y-72072445D02*
G01*
X144597795Y-72083820D01*
X144632354Y-72102292D01*
X144662647Y-72127153D01*
X144687508Y-72157446D01*
X144705980Y-72192005D01*
X144717355Y-72229501D01*
X144721800Y-72274638D01*
X144721800Y-73013362D01*
X144717355Y-73058499D01*
X144705980Y-73095995D01*
X144687508Y-73130554D01*
X144662647Y-73160847D01*
X144632354Y-73185708D01*
X144597795Y-73204180D01*
X144560299Y-73215555D01*
X144515162Y-73220000D01*
X143876438Y-73220000D01*
X143831301Y-73215555D01*
X143793805Y-73204180D01*
X143759246Y-73185708D01*
X143728953Y-73160847D01*
X143704092Y-73130554D01*
X143685620Y-73095995D01*
X143674245Y-73058499D01*
X143669800Y-73013362D01*
X143669800Y-72274638D01*
X143674245Y-72229501D01*
X143685620Y-72192005D01*
X143704092Y-72157446D01*
X143728953Y-72127153D01*
X143759246Y-72102292D01*
X143793805Y-72083820D01*
X143831301Y-72072445D01*
X143876438Y-72068000D01*
X144515162Y-72068000D01*
X144560299Y-72072445D01*
X144560299Y-72072445D01*
G37*
G36*
X146033499Y-72072445D02*
G01*
X146070995Y-72083820D01*
X146105554Y-72102292D01*
X146135847Y-72127153D01*
X146160708Y-72157446D01*
X146179180Y-72192005D01*
X146190555Y-72229501D01*
X146195000Y-72274638D01*
X146195000Y-73013362D01*
X146190555Y-73058499D01*
X146179180Y-73095995D01*
X146160708Y-73130554D01*
X146135847Y-73160847D01*
X146105554Y-73185708D01*
X146070995Y-73204180D01*
X146033499Y-73215555D01*
X145988362Y-73220000D01*
X145349638Y-73220000D01*
X145304501Y-73215555D01*
X145267005Y-73204180D01*
X145232446Y-73185708D01*
X145202153Y-73160847D01*
X145177292Y-73130554D01*
X145158820Y-73095995D01*
X145147445Y-73058499D01*
X145143000Y-73013362D01*
X145143000Y-72274638D01*
X145147445Y-72229501D01*
X145158820Y-72192005D01*
X145177292Y-72157446D01*
X145202153Y-72127153D01*
X145232446Y-72102292D01*
X145267005Y-72083820D01*
X145304501Y-72072445D01*
X145349638Y-72068000D01*
X145988362Y-72068000D01*
X146033499Y-72072445D01*
X146033499Y-72072445D01*
G37*
G36*
X155106823Y-70281313D02*
G01*
X155267242Y-70329976D01*
X155399906Y-70400886D01*
X155415078Y-70408996D01*
X155544659Y-70515341D01*
X155651004Y-70644922D01*
X155651005Y-70644924D01*
X155730024Y-70792758D01*
X155778687Y-70953177D01*
X155795117Y-71120000D01*
X155778687Y-71286823D01*
X155730024Y-71447242D01*
X155671493Y-71556746D01*
X155651004Y-71595078D01*
X155544659Y-71724659D01*
X155415078Y-71831004D01*
X155415076Y-71831005D01*
X155267242Y-71910024D01*
X155106823Y-71958687D01*
X154981804Y-71971000D01*
X154898196Y-71971000D01*
X154773177Y-71958687D01*
X154612758Y-71910024D01*
X154464924Y-71831005D01*
X154464922Y-71831004D01*
X154335341Y-71724659D01*
X154228996Y-71595078D01*
X154208507Y-71556746D01*
X154149976Y-71447242D01*
X154101313Y-71286823D01*
X154084883Y-71120000D01*
X154101313Y-70953177D01*
X154149976Y-70792758D01*
X154228995Y-70644924D01*
X154228996Y-70644922D01*
X154335341Y-70515341D01*
X154464922Y-70408996D01*
X154480094Y-70400886D01*
X154612758Y-70329976D01*
X154773177Y-70281313D01*
X154898196Y-70269000D01*
X154981804Y-70269000D01*
X155106823Y-70281313D01*
X155106823Y-70281313D01*
G37*
G36*
X143091000Y-71971000D02*
G01*
X141389000Y-71971000D01*
X141389000Y-70269000D01*
X143091000Y-70269000D01*
X143091000Y-71971000D01*
X143091000Y-71971000D01*
G37*
M02*
