%TF.GenerationSoftware,KiCad,Pcbnew,(6.0.0)*%
%TF.CreationDate,2022-07-21T11:34:00+02:00*%
%TF.ProjectId,Daylight_Matchstick,4461796c-6967-4687-945f-4d6174636873,rev?*%
%TF.SameCoordinates,Original*%
%TF.FileFunction,Legend,Bot*%
%TF.FilePolarity,Positive*%
%FSLAX46Y46*%
G04 Gerber Fmt 4.6, Leading zero omitted, Abs format (unit mm)*
G04 Created by KiCad (PCBNEW (6.0.0)) date 2022-07-21 11:34:00*
%MOMM*%
%LPD*%
G01*
G04 APERTURE LIST*
%ADD10C,0.250000*%
%ADD11C,0.150000*%
%ADD12C,0.120000*%
G04 APERTURE END LIST*
D10*
X188051785Y-67618928D02*
X187980357Y-67547500D01*
X187837500Y-67476071D01*
X187480357Y-67476071D01*
X187337500Y-67547500D01*
X187266071Y-67618928D01*
X187194642Y-67761785D01*
X187194642Y-67904642D01*
X187266071Y-68118928D01*
X188123214Y-68976071D01*
X187194642Y-68976071D01*
X185908928Y-67976071D02*
X185908928Y-68976071D01*
X186266071Y-67404642D02*
X186623214Y-68476071D01*
X185694642Y-68476071D01*
X185337500Y-67476071D02*
X184837500Y-68976071D01*
X184337500Y-67476071D01*
X187194642Y-69962500D02*
X187337500Y-69891071D01*
X187551785Y-69891071D01*
X187766071Y-69962500D01*
X187908928Y-70105357D01*
X187980357Y-70248214D01*
X188051785Y-70533928D01*
X188051785Y-70748214D01*
X187980357Y-71033928D01*
X187908928Y-71176785D01*
X187766071Y-71319642D01*
X187551785Y-71391071D01*
X187408928Y-71391071D01*
X187194642Y-71319642D01*
X187123214Y-71248214D01*
X187123214Y-70748214D01*
X187408928Y-70748214D01*
X186480357Y-71391071D02*
X186480357Y-69891071D01*
X185623214Y-71391071D01*
X185623214Y-69891071D01*
X184908928Y-71391071D02*
X184908928Y-69891071D01*
X184551785Y-69891071D01*
X184337500Y-69962500D01*
X184194642Y-70105357D01*
X184123214Y-70248214D01*
X184051785Y-70533928D01*
X184051785Y-70748214D01*
X184123214Y-71033928D01*
X184194642Y-71176785D01*
X184337500Y-71319642D01*
X184551785Y-71391071D01*
X184908928Y-71391071D01*
X72019642Y-67613928D02*
X71948214Y-67542500D01*
X71805357Y-67471071D01*
X71448214Y-67471071D01*
X71305357Y-67542500D01*
X71233928Y-67613928D01*
X71162500Y-67756785D01*
X71162500Y-67899642D01*
X71233928Y-68113928D01*
X72091071Y-68971071D01*
X71162500Y-68971071D01*
X69876785Y-67971071D02*
X69876785Y-68971071D01*
X70233928Y-67399642D02*
X70591071Y-68471071D01*
X69662500Y-68471071D01*
X69305357Y-67471071D02*
X68805357Y-68971071D01*
X68305357Y-67471071D01*
X71591071Y-69957500D02*
X71733928Y-69886071D01*
X71948214Y-69886071D01*
X72162500Y-69957500D01*
X72305357Y-70100357D01*
X72376785Y-70243214D01*
X72448214Y-70528928D01*
X72448214Y-70743214D01*
X72376785Y-71028928D01*
X72305357Y-71171785D01*
X72162500Y-71314642D01*
X71948214Y-71386071D01*
X71805357Y-71386071D01*
X71591071Y-71314642D01*
X71519642Y-71243214D01*
X71519642Y-70743214D01*
X71805357Y-70743214D01*
X70876785Y-71386071D02*
X70876785Y-69886071D01*
X70019642Y-71386071D01*
X70019642Y-69886071D01*
X69305357Y-71386071D02*
X69305357Y-69886071D01*
X68948214Y-69886071D01*
X68733928Y-69957500D01*
X68591071Y-70100357D01*
X68519642Y-70243214D01*
X68448214Y-70528928D01*
X68448214Y-70743214D01*
X68519642Y-71028928D01*
X68591071Y-71171785D01*
X68733928Y-71314642D01*
X68948214Y-71386071D01*
X69305357Y-71386071D01*
D11*
X137833333Y-69647380D02*
X137833333Y-68647380D01*
X137595238Y-68647380D01*
X137452380Y-68695000D01*
X137357142Y-68790238D01*
X137309523Y-68885476D01*
X137261904Y-69075952D01*
X137261904Y-69218809D01*
X137309523Y-69409285D01*
X137357142Y-69504523D01*
X137452380Y-69599761D01*
X137595238Y-69647380D01*
X137833333Y-69647380D01*
X136404761Y-69647380D02*
X136404761Y-69123571D01*
X136452380Y-69028333D01*
X136547619Y-68980714D01*
X136738095Y-68980714D01*
X136833333Y-69028333D01*
X136404761Y-69599761D02*
X136500000Y-69647380D01*
X136738095Y-69647380D01*
X136833333Y-69599761D01*
X136880952Y-69504523D01*
X136880952Y-69409285D01*
X136833333Y-69314047D01*
X136738095Y-69266428D01*
X136500000Y-69266428D01*
X136404761Y-69218809D01*
X136023809Y-68980714D02*
X135785714Y-69647380D01*
X135547619Y-68980714D02*
X135785714Y-69647380D01*
X135880952Y-69885476D01*
X135928571Y-69933095D01*
X136023809Y-69980714D01*
X135023809Y-69647380D02*
X135119047Y-69599761D01*
X135166666Y-69504523D01*
X135166666Y-68647380D01*
X134642857Y-69647380D02*
X134642857Y-68980714D01*
X134642857Y-68647380D02*
X134690476Y-68695000D01*
X134642857Y-68742619D01*
X134595238Y-68695000D01*
X134642857Y-68647380D01*
X134642857Y-68742619D01*
X133738095Y-68980714D02*
X133738095Y-69790238D01*
X133785714Y-69885476D01*
X133833333Y-69933095D01*
X133928571Y-69980714D01*
X134071428Y-69980714D01*
X134166666Y-69933095D01*
X133738095Y-69599761D02*
X133833333Y-69647380D01*
X134023809Y-69647380D01*
X134119047Y-69599761D01*
X134166666Y-69552142D01*
X134214285Y-69456904D01*
X134214285Y-69171190D01*
X134166666Y-69075952D01*
X134119047Y-69028333D01*
X134023809Y-68980714D01*
X133833333Y-68980714D01*
X133738095Y-69028333D01*
X133261904Y-69647380D02*
X133261904Y-68647380D01*
X132833333Y-69647380D02*
X132833333Y-69123571D01*
X132880952Y-69028333D01*
X132976190Y-68980714D01*
X133119047Y-68980714D01*
X133214285Y-69028333D01*
X133261904Y-69075952D01*
X132500000Y-68980714D02*
X132119047Y-68980714D01*
X132357142Y-68647380D02*
X132357142Y-69504523D01*
X132309523Y-69599761D01*
X132214285Y-69647380D01*
X132119047Y-69647380D01*
X130880952Y-69647380D02*
X130976190Y-69599761D01*
X131023809Y-69552142D01*
X131071428Y-69456904D01*
X131071428Y-69171190D01*
X131023809Y-69075952D01*
X130976190Y-69028333D01*
X130880952Y-68980714D01*
X130738095Y-68980714D01*
X130642857Y-69028333D01*
X130595238Y-69075952D01*
X130547619Y-69171190D01*
X130547619Y-69456904D01*
X130595238Y-69552142D01*
X130642857Y-69599761D01*
X130738095Y-69647380D01*
X130880952Y-69647380D01*
X130119047Y-68980714D02*
X130119047Y-69647380D01*
X130119047Y-69075952D02*
X130071428Y-69028333D01*
X129976190Y-68980714D01*
X129833333Y-68980714D01*
X129738095Y-69028333D01*
X129690476Y-69123571D01*
X129690476Y-69647380D01*
X128023809Y-69647380D02*
X128023809Y-69123571D01*
X128071428Y-69028333D01*
X128166666Y-68980714D01*
X128357142Y-68980714D01*
X128452380Y-69028333D01*
X128023809Y-69599761D02*
X128119047Y-69647380D01*
X128357142Y-69647380D01*
X128452380Y-69599761D01*
X128500000Y-69504523D01*
X128500000Y-69409285D01*
X128452380Y-69314047D01*
X128357142Y-69266428D01*
X128119047Y-69266428D01*
X128023809Y-69218809D01*
X126785714Y-69647380D02*
X126785714Y-68980714D01*
X126785714Y-69075952D02*
X126738095Y-69028333D01*
X126642857Y-68980714D01*
X126500000Y-68980714D01*
X126404761Y-69028333D01*
X126357142Y-69123571D01*
X126357142Y-69647380D01*
X126357142Y-69123571D02*
X126309523Y-69028333D01*
X126214285Y-68980714D01*
X126071428Y-68980714D01*
X125976190Y-69028333D01*
X125928571Y-69123571D01*
X125928571Y-69647380D01*
X125023809Y-69647380D02*
X125023809Y-69123571D01*
X125071428Y-69028333D01*
X125166666Y-68980714D01*
X125357142Y-68980714D01*
X125452380Y-69028333D01*
X125023809Y-69599761D02*
X125119047Y-69647380D01*
X125357142Y-69647380D01*
X125452380Y-69599761D01*
X125500000Y-69504523D01*
X125500000Y-69409285D01*
X125452380Y-69314047D01*
X125357142Y-69266428D01*
X125119047Y-69266428D01*
X125023809Y-69218809D01*
X124690476Y-68980714D02*
X124309523Y-68980714D01*
X124547619Y-68647380D02*
X124547619Y-69504523D01*
X124500000Y-69599761D01*
X124404761Y-69647380D01*
X124309523Y-69647380D01*
X123547619Y-69599761D02*
X123642857Y-69647380D01*
X123833333Y-69647380D01*
X123928571Y-69599761D01*
X123976190Y-69552142D01*
X124023809Y-69456904D01*
X124023809Y-69171190D01*
X123976190Y-69075952D01*
X123928571Y-69028333D01*
X123833333Y-68980714D01*
X123642857Y-68980714D01*
X123547619Y-69028333D01*
X123119047Y-69647380D02*
X123119047Y-68647380D01*
X122690476Y-69647380D02*
X122690476Y-69123571D01*
X122738095Y-69028333D01*
X122833333Y-68980714D01*
X122976190Y-68980714D01*
X123071428Y-69028333D01*
X123119047Y-69075952D01*
X122261904Y-69599761D02*
X122166666Y-69647380D01*
X121976190Y-69647380D01*
X121880952Y-69599761D01*
X121833333Y-69504523D01*
X121833333Y-69456904D01*
X121880952Y-69361666D01*
X121976190Y-69314047D01*
X122119047Y-69314047D01*
X122214285Y-69266428D01*
X122261904Y-69171190D01*
X122261904Y-69123571D01*
X122214285Y-69028333D01*
X122119047Y-68980714D01*
X121976190Y-68980714D01*
X121880952Y-69028333D01*
X121547619Y-68980714D02*
X121166666Y-68980714D01*
X121404761Y-68647380D02*
X121404761Y-69504523D01*
X121357142Y-69599761D01*
X121261904Y-69647380D01*
X121166666Y-69647380D01*
X120833333Y-69647380D02*
X120833333Y-68980714D01*
X120833333Y-68647380D02*
X120880952Y-68695000D01*
X120833333Y-68742619D01*
X120785714Y-68695000D01*
X120833333Y-68647380D01*
X120833333Y-68742619D01*
X119928571Y-69599761D02*
X120023809Y-69647380D01*
X120214285Y-69647380D01*
X120309523Y-69599761D01*
X120357142Y-69552142D01*
X120404761Y-69456904D01*
X120404761Y-69171190D01*
X120357142Y-69075952D01*
X120309523Y-69028333D01*
X120214285Y-68980714D01*
X120023809Y-68980714D01*
X119928571Y-69028333D01*
X119500000Y-69647380D02*
X119500000Y-68647380D01*
X119404761Y-69266428D02*
X119119047Y-69647380D01*
X119119047Y-68980714D02*
X119500000Y-69361666D01*
X134071428Y-70590714D02*
X133833333Y-71257380D01*
X133595238Y-70590714D01*
X132690476Y-71257380D02*
X133261904Y-71257380D01*
X132976190Y-71257380D02*
X132976190Y-70257380D01*
X133071428Y-70400238D01*
X133166666Y-70495476D01*
X133261904Y-70543095D01*
X132261904Y-71162142D02*
X132214285Y-71209761D01*
X132261904Y-71257380D01*
X132309523Y-71209761D01*
X132261904Y-71162142D01*
X132261904Y-71257380D01*
X131595238Y-70257380D02*
X131500000Y-70257380D01*
X131404761Y-70305000D01*
X131357142Y-70352619D01*
X131309523Y-70447857D01*
X131261904Y-70638333D01*
X131261904Y-70876428D01*
X131309523Y-71066904D01*
X131357142Y-71162142D01*
X131404761Y-71209761D01*
X131500000Y-71257380D01*
X131595238Y-71257380D01*
X131690476Y-71209761D01*
X131738095Y-71162142D01*
X131785714Y-71066904D01*
X131833333Y-70876428D01*
X131833333Y-70638333D01*
X131785714Y-70447857D01*
X131738095Y-70352619D01*
X131690476Y-70305000D01*
X131595238Y-70257380D01*
X130071428Y-71257380D02*
X130071428Y-70257380D01*
X130071428Y-70638333D02*
X129976190Y-70590714D01*
X129785714Y-70590714D01*
X129690476Y-70638333D01*
X129642857Y-70685952D01*
X129595238Y-70781190D01*
X129595238Y-71066904D01*
X129642857Y-71162142D01*
X129690476Y-71209761D01*
X129785714Y-71257380D01*
X129976190Y-71257380D01*
X130071428Y-71209761D01*
X129261904Y-70590714D02*
X129023809Y-71257380D01*
X128785714Y-70590714D02*
X129023809Y-71257380D01*
X129119047Y-71495476D01*
X129166666Y-71543095D01*
X129261904Y-71590714D01*
X127309523Y-70733571D02*
X127166666Y-70781190D01*
X127119047Y-70828809D01*
X127071428Y-70924047D01*
X127071428Y-71066904D01*
X127119047Y-71162142D01*
X127166666Y-71209761D01*
X127261904Y-71257380D01*
X127642857Y-71257380D01*
X127642857Y-70257380D01*
X127309523Y-70257380D01*
X127214285Y-70305000D01*
X127166666Y-70352619D01*
X127119047Y-70447857D01*
X127119047Y-70543095D01*
X127166666Y-70638333D01*
X127214285Y-70685952D01*
X127309523Y-70733571D01*
X127642857Y-70733571D01*
X126500000Y-71257380D02*
X126595238Y-71209761D01*
X126642857Y-71114523D01*
X126642857Y-70257380D01*
X125690476Y-71257380D02*
X125690476Y-70733571D01*
X125738095Y-70638333D01*
X125833333Y-70590714D01*
X126023809Y-70590714D01*
X126119047Y-70638333D01*
X125690476Y-71209761D02*
X125785714Y-71257380D01*
X126023809Y-71257380D01*
X126119047Y-71209761D01*
X126166666Y-71114523D01*
X126166666Y-71019285D01*
X126119047Y-70924047D01*
X126023809Y-70876428D01*
X125785714Y-70876428D01*
X125690476Y-70828809D01*
X125214285Y-71257380D02*
X125214285Y-70590714D01*
X125214285Y-70685952D02*
X125166666Y-70638333D01*
X125071428Y-70590714D01*
X124928571Y-70590714D01*
X124833333Y-70638333D01*
X124785714Y-70733571D01*
X124785714Y-71257380D01*
X124785714Y-70733571D02*
X124738095Y-70638333D01*
X124642857Y-70590714D01*
X124500000Y-70590714D01*
X124404761Y-70638333D01*
X124357142Y-70733571D01*
X124357142Y-71257380D01*
X123880952Y-71257380D02*
X123880952Y-70590714D01*
X123880952Y-70685952D02*
X123833333Y-70638333D01*
X123738095Y-70590714D01*
X123595238Y-70590714D01*
X123500000Y-70638333D01*
X123452380Y-70733571D01*
X123452380Y-71257380D01*
X123452380Y-70733571D02*
X123404761Y-70638333D01*
X123309523Y-70590714D01*
X123166666Y-70590714D01*
X123071428Y-70638333D01*
X123023809Y-70733571D01*
X123023809Y-71257380D01*
D12*
%TO.C,J1*%
X65265000Y-68605000D02*
X64935000Y-68605000D01*
X65332071Y-71145000D02*
X64935000Y-71145000D01*
X62275000Y-72095000D02*
X62275000Y-66895000D01*
X56275000Y-70385000D02*
X56275000Y-71145000D01*
X62275000Y-67845000D02*
X56275000Y-67845000D01*
X67645000Y-68225000D02*
X67645000Y-66955000D01*
X64935000Y-66895000D02*
X64935000Y-72095000D01*
X64935000Y-72095000D02*
X62275000Y-72095000D01*
X67645000Y-66955000D02*
X66375000Y-66955000D01*
X65332071Y-70385000D02*
X64935000Y-70385000D01*
X62275000Y-66895000D02*
X64935000Y-66895000D01*
X56275000Y-71145000D02*
X62275000Y-71145000D01*
X65265000Y-67845000D02*
X64935000Y-67845000D01*
X64935000Y-69495000D02*
X62275000Y-69495000D01*
X56275000Y-67845000D02*
X56275000Y-68605000D01*
X56275000Y-68605000D02*
X62275000Y-68605000D01*
X62275000Y-70385000D02*
X56275000Y-70385000D01*
%TO.C,J2*%
X188855000Y-70775000D02*
X188855000Y-72045000D01*
X191167929Y-68615000D02*
X191565000Y-68615000D01*
X191235000Y-70395000D02*
X191565000Y-70395000D01*
X200225000Y-67855000D02*
X194225000Y-67855000D01*
X200225000Y-71155000D02*
X200225000Y-70395000D01*
X191167929Y-67855000D02*
X191565000Y-67855000D01*
X200225000Y-70395000D02*
X194225000Y-70395000D01*
X191565000Y-72105000D02*
X191565000Y-66905000D01*
X191565000Y-69505000D02*
X194225000Y-69505000D01*
X194225000Y-72105000D02*
X191565000Y-72105000D01*
X188855000Y-72045000D02*
X190125000Y-72045000D01*
X191565000Y-66905000D02*
X194225000Y-66905000D01*
X194225000Y-68615000D02*
X200225000Y-68615000D01*
X191235000Y-71155000D02*
X191565000Y-71155000D01*
X194225000Y-71155000D02*
X200225000Y-71155000D01*
X194225000Y-66905000D02*
X194225000Y-72105000D01*
X200225000Y-68615000D02*
X200225000Y-67855000D01*
%TD*%
M02*
