M48
; DRILL file {KiCad (6.0.0)} date Thu Jul 21 11:34:00 2022
; FORMAT={-:-/ absolute / inch / decimal}
; #@! TF.CreationDate,2022-07-21T11:34:00+02:00
; #@! TF.GenerationSoftware,Kicad,Pcbnew,(6.0.0)
; #@! TF.FileFunction,Plated,1,2,PTH
FMAT,2
INCH
; #@! TA.AperFunction,Plated,PTH,ViaDrill
T1C0.0157
; #@! TA.AperFunction,Plated,PTH,ComponentDrill
T2C0.0197
; #@! TA.AperFunction,Plated,PTH,ComponentDrill
T3C0.0394
; #@! TA.AperFunction,Plated,PTH,ComponentDrill
T4C0.1260
%
G90
G05
T1
X2.3819Y-2.8937
X2.8543Y-2.8937
X3.3465Y-2.8937
X3.8386Y-2.8937
X4.3307Y-2.8937
X4.8228Y-2.8937
X5.2953Y-2.8937
X5.7874Y-2.8937
X6.2795Y-2.8937
X6.752Y-2.8937
X7.2244Y-2.8937
X7.7362Y-2.8937
T2
X3.0175Y-2.7362
X3.0452Y-2.6694
X3.0452Y-2.803
X3.112Y-2.6417
X3.112Y-2.8307
X3.1788Y-2.6694
X3.1788Y-2.803
X3.2065Y-2.7362
X6.9116Y-2.7362
X6.9393Y-2.6694
X6.9393Y-2.803
X7.0061Y-2.6417
X7.0061Y-2.8307
X7.0729Y-2.6694
X7.0729Y-2.803
X7.1006Y-2.7362
T3
X2.6132Y-2.686
X2.6132Y-2.786
X7.4852Y-2.6864
X7.4852Y-2.7864
T4
X3.112Y-2.7362
X7.0061Y-2.7362
T0
M30
