%TF.GenerationSoftware,KiCad,Pcbnew,(6.0.0)*%
%TF.CreationDate,2022-07-21T11:34:00+02:00*%
%TF.ProjectId,Daylight_Matchstick,4461796c-6967-4687-945f-4d6174636873,rev?*%
%TF.SameCoordinates,Original*%
%TF.FileFunction,Legend,Top*%
%TF.FilePolarity,Positive*%
%FSLAX46Y46*%
G04 Gerber Fmt 4.6, Leading zero omitted, Abs format (unit mm)*
G04 Created by KiCad (PCBNEW (6.0.0)) date 2022-07-21 11:34:00*
%MOMM*%
%LPD*%
G01*
G04 APERTURE LIST*
%ADD10C,0.150000*%
%ADD11C,0.120000*%
G04 APERTURE END LIST*
D10*
%TO.C,R4*%
X165506593Y-73552380D02*
X165173260Y-73076190D01*
X164935164Y-73552380D02*
X164935164Y-72552380D01*
X165316117Y-72552380D01*
X165411355Y-72600000D01*
X165458974Y-72647619D01*
X165506593Y-72742857D01*
X165506593Y-72885714D01*
X165458974Y-72980952D01*
X165411355Y-73028571D01*
X165316117Y-73076190D01*
X164935164Y-73076190D01*
X166363736Y-72885714D02*
X166363736Y-73552380D01*
X166125640Y-72504761D02*
X165887545Y-73219047D01*
X166506593Y-73219047D01*
%TO.C,R1*%
X91342423Y-73552380D02*
X91009090Y-73076190D01*
X90770994Y-73552380D02*
X90770994Y-72552380D01*
X91151947Y-72552380D01*
X91247185Y-72600000D01*
X91294804Y-72647619D01*
X91342423Y-72742857D01*
X91342423Y-72885714D01*
X91294804Y-72980952D01*
X91247185Y-73028571D01*
X91151947Y-73076190D01*
X90770994Y-73076190D01*
X92294804Y-73552380D02*
X91723375Y-73552380D01*
X92009090Y-73552380D02*
X92009090Y-72552380D01*
X91913851Y-72695238D01*
X91818613Y-72790476D01*
X91723375Y-72838095D01*
%TO.C,R3*%
X152978251Y-73552380D02*
X152644918Y-73076190D01*
X152406822Y-73552380D02*
X152406822Y-72552380D01*
X152787775Y-72552380D01*
X152883013Y-72600000D01*
X152930632Y-72647619D01*
X152978251Y-72742857D01*
X152978251Y-72885714D01*
X152930632Y-72980952D01*
X152883013Y-73028571D01*
X152787775Y-73076190D01*
X152406822Y-73076190D01*
X153311584Y-72552380D02*
X153930632Y-72552380D01*
X153597298Y-72933333D01*
X153740156Y-72933333D01*
X153835394Y-72980952D01*
X153883013Y-73028571D01*
X153930632Y-73123809D01*
X153930632Y-73361904D01*
X153883013Y-73457142D01*
X153835394Y-73504761D01*
X153740156Y-73552380D01*
X153454441Y-73552380D01*
X153359203Y-73504761D01*
X153311584Y-73457142D01*
%TO.C,R2*%
X103594295Y-73552380D02*
X103260962Y-73076190D01*
X103022866Y-73552380D02*
X103022866Y-72552380D01*
X103403819Y-72552380D01*
X103499057Y-72600000D01*
X103546676Y-72647619D01*
X103594295Y-72742857D01*
X103594295Y-72885714D01*
X103546676Y-72980952D01*
X103499057Y-73028571D01*
X103403819Y-73076190D01*
X103022866Y-73076190D01*
X103975247Y-72647619D02*
X104022866Y-72600000D01*
X104118104Y-72552380D01*
X104356200Y-72552380D01*
X104451438Y-72600000D01*
X104499057Y-72647619D01*
X104546676Y-72742857D01*
X104546676Y-72838095D01*
X104499057Y-72980952D01*
X103927628Y-73552380D01*
X104546676Y-73552380D01*
D11*
%TO.C,D8*%
X145445452Y-68100000D02*
X145445452Y-72000000D01*
X145445452Y-72000000D02*
X148645452Y-72000000D01*
X148645452Y-68100000D02*
X148645452Y-72000000D01*
%TO.C,R4*%
X166945906Y-68776263D02*
X166945906Y-70223737D01*
X164235906Y-68776263D02*
X164235906Y-70223737D01*
%TO.C,D2*%
X71263636Y-72000000D02*
X74463636Y-72000000D01*
X71263636Y-68100000D02*
X71263636Y-72000000D01*
X74463636Y-68100000D02*
X74463636Y-72000000D01*
%TO.C,D11*%
X185736360Y-68100000D02*
X185736360Y-72000000D01*
X182536360Y-68100000D02*
X182536360Y-72000000D01*
X182536360Y-72000000D02*
X185736360Y-72000000D01*
%TO.C,D10*%
X170172724Y-72000000D02*
X173372724Y-72000000D01*
X170172724Y-68100000D02*
X170172724Y-72000000D01*
X173372724Y-68100000D02*
X173372724Y-72000000D01*
%TO.C,D12*%
X194900000Y-72000000D02*
X198100000Y-72000000D01*
X198100000Y-68100000D02*
X198100000Y-72000000D01*
X194900000Y-68100000D02*
X194900000Y-72000000D01*
%TO.C,D4*%
X95990908Y-68100000D02*
X95990908Y-72000000D01*
X95990908Y-72000000D02*
X99190908Y-72000000D01*
X99190908Y-68100000D02*
X99190908Y-72000000D01*
%TO.C,D6*%
X120718180Y-68100000D02*
X120718180Y-72000000D01*
X123918180Y-68100000D02*
X123918180Y-72000000D01*
X120718180Y-72000000D02*
X123918180Y-72000000D01*
%TO.C,D1*%
X58900000Y-68100000D02*
X58900000Y-72000000D01*
X58900000Y-72000000D02*
X62100000Y-72000000D01*
X62100000Y-68100000D02*
X62100000Y-72000000D01*
%TO.C,D5*%
X111554544Y-68100000D02*
X111554544Y-72000000D01*
X108354544Y-72000000D02*
X111554544Y-72000000D01*
X108354544Y-68100000D02*
X108354544Y-72000000D01*
%TO.C,D7*%
X133081816Y-68100000D02*
X133081816Y-72000000D01*
X136281816Y-68100000D02*
X136281816Y-72000000D01*
X133081816Y-72000000D02*
X136281816Y-72000000D01*
%TO.C,R1*%
X90054090Y-68776263D02*
X90054090Y-70223737D01*
X92764090Y-68776263D02*
X92764090Y-70223737D01*
%TO.C,D9*%
X157809088Y-72000000D02*
X161009088Y-72000000D01*
X157809088Y-68100000D02*
X157809088Y-72000000D01*
X161009088Y-68100000D02*
X161009088Y-72000000D01*
%TO.C,D3*%
X86827272Y-68100000D02*
X86827272Y-72000000D01*
X83627272Y-68100000D02*
X83627272Y-72000000D01*
X83627272Y-72000000D02*
X86827272Y-72000000D01*
%TO.C,R3*%
X154582270Y-68776263D02*
X154582270Y-70223737D01*
X151872270Y-68776263D02*
X151872270Y-70223737D01*
%TO.C,R2*%
X105127726Y-68776263D02*
X105127726Y-70223737D01*
X102417726Y-68776263D02*
X102417726Y-70223737D01*
%TD*%
M02*
