G04 #@! TF.GenerationSoftware,KiCad,Pcbnew,(5.1.6)-1*
G04 #@! TF.CreationDate,2020-09-11T15:30:33-05:00*
G04 #@! TF.ProjectId,MicroswitchXY-Endstop,4d696372-6f73-4776-9974-636858592d45,A*
G04 #@! TF.SameCoordinates,Original*
G04 #@! TF.FileFunction,Copper,L1,Top*
G04 #@! TF.FilePolarity,Positive*
%FSLAX46Y46*%
G04 Gerber Fmt 4.6, Leading zero omitted, Abs format (unit mm)*
G04 Created by KiCad (PCBNEW (5.1.6)-1) date 2020-09-11 15:30:33*
%MOMM*%
%LPD*%
G01*
G04 APERTURE LIST*
G04 #@! TA.AperFunction,ConnectorPad*
%ADD10R,4.000000X2.000000*%
G04 #@! TD*
G04 #@! TA.AperFunction,ConnectorPad*
%ADD11R,2.000000X4.000000*%
G04 #@! TD*
G04 #@! TA.AperFunction,ComponentPad*
%ADD12C,2.032000*%
G04 #@! TD*
G04 #@! TA.AperFunction,Conductor*
%ADD13C,0.254000*%
G04 #@! TD*
G04 APERTURE END LIST*
D10*
X127850000Y-56400000D03*
X127850000Y-61500000D03*
X127850000Y-66600000D03*
D11*
X175600000Y-54850000D03*
X170500000Y-54850000D03*
X165400000Y-54850000D03*
D12*
X145000000Y-66400000D03*
X147540000Y-66400000D03*
X150080000Y-66400000D03*
X152620000Y-66400000D03*
D13*
X165400000Y-54850000D02*
X165400000Y-56500000D01*
X148400000Y-67260000D02*
X147540000Y-66400000D01*
X175600000Y-62000000D02*
X175600000Y-54850000D01*
X169400000Y-68200000D02*
X175600000Y-62000000D01*
X147540000Y-66400000D02*
X149340000Y-68200000D01*
X149340000Y-68200000D02*
X169400000Y-68200000D01*
X146680000Y-63000000D02*
X150080000Y-66400000D01*
X141800000Y-63000000D02*
X146680000Y-63000000D01*
X126650000Y-66600000D02*
X138200000Y-66600000D01*
X138200000Y-66600000D02*
X141800000Y-63000000D01*
G36*
X163765000Y-54564250D02*
G01*
X163923750Y-54723000D01*
X165273000Y-54723000D01*
X165273000Y-53710000D01*
X165527000Y-53710000D01*
X165527000Y-54723000D01*
X166876250Y-54723000D01*
X167035000Y-54564250D01*
X167036531Y-53710000D01*
X168861928Y-53710000D01*
X168861928Y-56850000D01*
X168874188Y-56974482D01*
X168910498Y-57094180D01*
X168969463Y-57204494D01*
X169048815Y-57301185D01*
X169145506Y-57380537D01*
X169255820Y-57439502D01*
X169375518Y-57475812D01*
X169500000Y-57488072D01*
X171500000Y-57488072D01*
X171624482Y-57475812D01*
X171744180Y-57439502D01*
X171854494Y-57380537D01*
X171951185Y-57301185D01*
X172030537Y-57204494D01*
X172089502Y-57094180D01*
X172125812Y-56974482D01*
X172138072Y-56850000D01*
X172138072Y-53710000D01*
X173961928Y-53710000D01*
X173961928Y-56850000D01*
X173974188Y-56974482D01*
X174010498Y-57094180D01*
X174069463Y-57204494D01*
X174148815Y-57301185D01*
X174245506Y-57380537D01*
X174355820Y-57439502D01*
X174475518Y-57475812D01*
X174600000Y-57488072D01*
X174838001Y-57488072D01*
X174838000Y-61684369D01*
X169084370Y-67438000D01*
X153837607Y-67438000D01*
X153766825Y-67367217D01*
X154032860Y-67269522D01*
X154175348Y-66977179D01*
X154258064Y-66662656D01*
X154277831Y-66338038D01*
X154233888Y-66015802D01*
X154127924Y-65708330D01*
X154032860Y-65530478D01*
X153766823Y-65432782D01*
X152799605Y-66400000D01*
X152813748Y-66414143D01*
X152634143Y-66593748D01*
X152620000Y-66579605D01*
X152605858Y-66593748D01*
X152426253Y-66414143D01*
X152440395Y-66400000D01*
X151473177Y-65432782D01*
X151429968Y-65448649D01*
X151362415Y-65347549D01*
X151268043Y-65253177D01*
X151652782Y-65253177D01*
X152620000Y-66220395D01*
X153587218Y-65253177D01*
X153489522Y-64987140D01*
X153197179Y-64844652D01*
X152882656Y-64761936D01*
X152558038Y-64742169D01*
X152235802Y-64786112D01*
X151928330Y-64892076D01*
X151750478Y-64987140D01*
X151652782Y-65253177D01*
X151268043Y-65253177D01*
X151132451Y-65117585D01*
X150862042Y-64936903D01*
X150561579Y-64812447D01*
X150242609Y-64749000D01*
X149917391Y-64749000D01*
X149598421Y-64812447D01*
X149578379Y-64820749D01*
X147245284Y-62487654D01*
X147221422Y-62458578D01*
X147105392Y-62363355D01*
X146973015Y-62292598D01*
X146829378Y-62249026D01*
X146717426Y-62238000D01*
X146717423Y-62238000D01*
X146680000Y-62234314D01*
X146642577Y-62238000D01*
X141837423Y-62238000D01*
X141800000Y-62234314D01*
X141762577Y-62238000D01*
X141762574Y-62238000D01*
X141650622Y-62249026D01*
X141506985Y-62292598D01*
X141470024Y-62312354D01*
X141374607Y-62363355D01*
X141299017Y-62425391D01*
X141258578Y-62458578D01*
X141234721Y-62487648D01*
X137884370Y-65838000D01*
X130488072Y-65838000D01*
X130488072Y-65600000D01*
X130475812Y-65475518D01*
X130439502Y-65355820D01*
X130380537Y-65245506D01*
X130301185Y-65148815D01*
X130204494Y-65069463D01*
X130094180Y-65010498D01*
X129974482Y-64974188D01*
X129850000Y-64961928D01*
X126710000Y-64961928D01*
X126710000Y-63138072D01*
X129850000Y-63138072D01*
X129974482Y-63125812D01*
X130094180Y-63089502D01*
X130204494Y-63030537D01*
X130301185Y-62951185D01*
X130380537Y-62854494D01*
X130439502Y-62744180D01*
X130475812Y-62624482D01*
X130488072Y-62500000D01*
X130488072Y-61225701D01*
X131715000Y-61225701D01*
X131715000Y-61774299D01*
X131822026Y-62312354D01*
X132031965Y-62819192D01*
X132336750Y-63275334D01*
X132724666Y-63663250D01*
X133180808Y-63968035D01*
X133687646Y-64177974D01*
X134225701Y-64285000D01*
X134774299Y-64285000D01*
X135312354Y-64177974D01*
X135819192Y-63968035D01*
X136275334Y-63663250D01*
X136663250Y-63275334D01*
X136968035Y-62819192D01*
X137177974Y-62312354D01*
X137285000Y-61774299D01*
X137285000Y-61225701D01*
X165215000Y-61225701D01*
X165215000Y-61774299D01*
X165322026Y-62312354D01*
X165531965Y-62819192D01*
X165836750Y-63275334D01*
X166224666Y-63663250D01*
X166680808Y-63968035D01*
X167187646Y-64177974D01*
X167725701Y-64285000D01*
X168274299Y-64285000D01*
X168812354Y-64177974D01*
X169319192Y-63968035D01*
X169775334Y-63663250D01*
X170163250Y-63275334D01*
X170468035Y-62819192D01*
X170677974Y-62312354D01*
X170785000Y-61774299D01*
X170785000Y-61225701D01*
X170677974Y-60687646D01*
X170468035Y-60180808D01*
X170163250Y-59724666D01*
X169775334Y-59336750D01*
X169319192Y-59031965D01*
X168812354Y-58822026D01*
X168274299Y-58715000D01*
X167725701Y-58715000D01*
X167187646Y-58822026D01*
X166680808Y-59031965D01*
X166224666Y-59336750D01*
X165836750Y-59724666D01*
X165531965Y-60180808D01*
X165322026Y-60687646D01*
X165215000Y-61225701D01*
X137285000Y-61225701D01*
X137177974Y-60687646D01*
X136968035Y-60180808D01*
X136663250Y-59724666D01*
X136275334Y-59336750D01*
X135819192Y-59031965D01*
X135312354Y-58822026D01*
X134774299Y-58715000D01*
X134225701Y-58715000D01*
X133687646Y-58822026D01*
X133180808Y-59031965D01*
X132724666Y-59336750D01*
X132336750Y-59724666D01*
X132031965Y-60180808D01*
X131822026Y-60687646D01*
X131715000Y-61225701D01*
X130488072Y-61225701D01*
X130488072Y-60500000D01*
X130475812Y-60375518D01*
X130439502Y-60255820D01*
X130380537Y-60145506D01*
X130301185Y-60048815D01*
X130204494Y-59969463D01*
X130094180Y-59910498D01*
X129974482Y-59874188D01*
X129850000Y-59861928D01*
X126710000Y-59861928D01*
X126710000Y-58036531D01*
X127564250Y-58035000D01*
X127723000Y-57876250D01*
X127723000Y-56527000D01*
X127977000Y-56527000D01*
X127977000Y-57876250D01*
X128135750Y-58035000D01*
X129850000Y-58038072D01*
X129974482Y-58025812D01*
X130094180Y-57989502D01*
X130204494Y-57930537D01*
X130301185Y-57851185D01*
X130380537Y-57754494D01*
X130439502Y-57644180D01*
X130475812Y-57524482D01*
X130488072Y-57400000D01*
X130485707Y-56850000D01*
X163761928Y-56850000D01*
X163774188Y-56974482D01*
X163810498Y-57094180D01*
X163869463Y-57204494D01*
X163948815Y-57301185D01*
X164045506Y-57380537D01*
X164155820Y-57439502D01*
X164275518Y-57475812D01*
X164400000Y-57488072D01*
X165114250Y-57485000D01*
X165273000Y-57326250D01*
X165273000Y-54977000D01*
X165527000Y-54977000D01*
X165527000Y-57326250D01*
X165685750Y-57485000D01*
X166400000Y-57488072D01*
X166524482Y-57475812D01*
X166644180Y-57439502D01*
X166754494Y-57380537D01*
X166851185Y-57301185D01*
X166930537Y-57204494D01*
X166989502Y-57094180D01*
X167025812Y-56974482D01*
X167038072Y-56850000D01*
X167035000Y-55135750D01*
X166876250Y-54977000D01*
X165527000Y-54977000D01*
X165273000Y-54977000D01*
X163923750Y-54977000D01*
X163765000Y-55135750D01*
X163761928Y-56850000D01*
X130485707Y-56850000D01*
X130485000Y-56685750D01*
X130326250Y-56527000D01*
X127977000Y-56527000D01*
X127723000Y-56527000D01*
X126710000Y-56527000D01*
X126710000Y-56273000D01*
X127723000Y-56273000D01*
X127723000Y-54923750D01*
X127977000Y-54923750D01*
X127977000Y-56273000D01*
X130326250Y-56273000D01*
X130485000Y-56114250D01*
X130488072Y-55400000D01*
X130475812Y-55275518D01*
X130439502Y-55155820D01*
X130380537Y-55045506D01*
X130301185Y-54948815D01*
X130204494Y-54869463D01*
X130094180Y-54810498D01*
X129974482Y-54774188D01*
X129850000Y-54761928D01*
X128135750Y-54765000D01*
X127977000Y-54923750D01*
X127723000Y-54923750D01*
X127564250Y-54765000D01*
X126710000Y-54763469D01*
X126710000Y-54534729D01*
X126728386Y-54347215D01*
X126772757Y-54200252D01*
X126844829Y-54064703D01*
X126941852Y-53945742D01*
X127060144Y-53847882D01*
X127195181Y-53774868D01*
X127341833Y-53729471D01*
X127527092Y-53710000D01*
X163763469Y-53710000D01*
X163765000Y-54564250D01*
G37*
X163765000Y-54564250D02*
X163923750Y-54723000D01*
X165273000Y-54723000D01*
X165273000Y-53710000D01*
X165527000Y-53710000D01*
X165527000Y-54723000D01*
X166876250Y-54723000D01*
X167035000Y-54564250D01*
X167036531Y-53710000D01*
X168861928Y-53710000D01*
X168861928Y-56850000D01*
X168874188Y-56974482D01*
X168910498Y-57094180D01*
X168969463Y-57204494D01*
X169048815Y-57301185D01*
X169145506Y-57380537D01*
X169255820Y-57439502D01*
X169375518Y-57475812D01*
X169500000Y-57488072D01*
X171500000Y-57488072D01*
X171624482Y-57475812D01*
X171744180Y-57439502D01*
X171854494Y-57380537D01*
X171951185Y-57301185D01*
X172030537Y-57204494D01*
X172089502Y-57094180D01*
X172125812Y-56974482D01*
X172138072Y-56850000D01*
X172138072Y-53710000D01*
X173961928Y-53710000D01*
X173961928Y-56850000D01*
X173974188Y-56974482D01*
X174010498Y-57094180D01*
X174069463Y-57204494D01*
X174148815Y-57301185D01*
X174245506Y-57380537D01*
X174355820Y-57439502D01*
X174475518Y-57475812D01*
X174600000Y-57488072D01*
X174838001Y-57488072D01*
X174838000Y-61684369D01*
X169084370Y-67438000D01*
X153837607Y-67438000D01*
X153766825Y-67367217D01*
X154032860Y-67269522D01*
X154175348Y-66977179D01*
X154258064Y-66662656D01*
X154277831Y-66338038D01*
X154233888Y-66015802D01*
X154127924Y-65708330D01*
X154032860Y-65530478D01*
X153766823Y-65432782D01*
X152799605Y-66400000D01*
X152813748Y-66414143D01*
X152634143Y-66593748D01*
X152620000Y-66579605D01*
X152605858Y-66593748D01*
X152426253Y-66414143D01*
X152440395Y-66400000D01*
X151473177Y-65432782D01*
X151429968Y-65448649D01*
X151362415Y-65347549D01*
X151268043Y-65253177D01*
X151652782Y-65253177D01*
X152620000Y-66220395D01*
X153587218Y-65253177D01*
X153489522Y-64987140D01*
X153197179Y-64844652D01*
X152882656Y-64761936D01*
X152558038Y-64742169D01*
X152235802Y-64786112D01*
X151928330Y-64892076D01*
X151750478Y-64987140D01*
X151652782Y-65253177D01*
X151268043Y-65253177D01*
X151132451Y-65117585D01*
X150862042Y-64936903D01*
X150561579Y-64812447D01*
X150242609Y-64749000D01*
X149917391Y-64749000D01*
X149598421Y-64812447D01*
X149578379Y-64820749D01*
X147245284Y-62487654D01*
X147221422Y-62458578D01*
X147105392Y-62363355D01*
X146973015Y-62292598D01*
X146829378Y-62249026D01*
X146717426Y-62238000D01*
X146717423Y-62238000D01*
X146680000Y-62234314D01*
X146642577Y-62238000D01*
X141837423Y-62238000D01*
X141800000Y-62234314D01*
X141762577Y-62238000D01*
X141762574Y-62238000D01*
X141650622Y-62249026D01*
X141506985Y-62292598D01*
X141470024Y-62312354D01*
X141374607Y-62363355D01*
X141299017Y-62425391D01*
X141258578Y-62458578D01*
X141234721Y-62487648D01*
X137884370Y-65838000D01*
X130488072Y-65838000D01*
X130488072Y-65600000D01*
X130475812Y-65475518D01*
X130439502Y-65355820D01*
X130380537Y-65245506D01*
X130301185Y-65148815D01*
X130204494Y-65069463D01*
X130094180Y-65010498D01*
X129974482Y-64974188D01*
X129850000Y-64961928D01*
X126710000Y-64961928D01*
X126710000Y-63138072D01*
X129850000Y-63138072D01*
X129974482Y-63125812D01*
X130094180Y-63089502D01*
X130204494Y-63030537D01*
X130301185Y-62951185D01*
X130380537Y-62854494D01*
X130439502Y-62744180D01*
X130475812Y-62624482D01*
X130488072Y-62500000D01*
X130488072Y-61225701D01*
X131715000Y-61225701D01*
X131715000Y-61774299D01*
X131822026Y-62312354D01*
X132031965Y-62819192D01*
X132336750Y-63275334D01*
X132724666Y-63663250D01*
X133180808Y-63968035D01*
X133687646Y-64177974D01*
X134225701Y-64285000D01*
X134774299Y-64285000D01*
X135312354Y-64177974D01*
X135819192Y-63968035D01*
X136275334Y-63663250D01*
X136663250Y-63275334D01*
X136968035Y-62819192D01*
X137177974Y-62312354D01*
X137285000Y-61774299D01*
X137285000Y-61225701D01*
X165215000Y-61225701D01*
X165215000Y-61774299D01*
X165322026Y-62312354D01*
X165531965Y-62819192D01*
X165836750Y-63275334D01*
X166224666Y-63663250D01*
X166680808Y-63968035D01*
X167187646Y-64177974D01*
X167725701Y-64285000D01*
X168274299Y-64285000D01*
X168812354Y-64177974D01*
X169319192Y-63968035D01*
X169775334Y-63663250D01*
X170163250Y-63275334D01*
X170468035Y-62819192D01*
X170677974Y-62312354D01*
X170785000Y-61774299D01*
X170785000Y-61225701D01*
X170677974Y-60687646D01*
X170468035Y-60180808D01*
X170163250Y-59724666D01*
X169775334Y-59336750D01*
X169319192Y-59031965D01*
X168812354Y-58822026D01*
X168274299Y-58715000D01*
X167725701Y-58715000D01*
X167187646Y-58822026D01*
X166680808Y-59031965D01*
X166224666Y-59336750D01*
X165836750Y-59724666D01*
X165531965Y-60180808D01*
X165322026Y-60687646D01*
X165215000Y-61225701D01*
X137285000Y-61225701D01*
X137177974Y-60687646D01*
X136968035Y-60180808D01*
X136663250Y-59724666D01*
X136275334Y-59336750D01*
X135819192Y-59031965D01*
X135312354Y-58822026D01*
X134774299Y-58715000D01*
X134225701Y-58715000D01*
X133687646Y-58822026D01*
X133180808Y-59031965D01*
X132724666Y-59336750D01*
X132336750Y-59724666D01*
X132031965Y-60180808D01*
X131822026Y-60687646D01*
X131715000Y-61225701D01*
X130488072Y-61225701D01*
X130488072Y-60500000D01*
X130475812Y-60375518D01*
X130439502Y-60255820D01*
X130380537Y-60145506D01*
X130301185Y-60048815D01*
X130204494Y-59969463D01*
X130094180Y-59910498D01*
X129974482Y-59874188D01*
X129850000Y-59861928D01*
X126710000Y-59861928D01*
X126710000Y-58036531D01*
X127564250Y-58035000D01*
X127723000Y-57876250D01*
X127723000Y-56527000D01*
X127977000Y-56527000D01*
X127977000Y-57876250D01*
X128135750Y-58035000D01*
X129850000Y-58038072D01*
X129974482Y-58025812D01*
X130094180Y-57989502D01*
X130204494Y-57930537D01*
X130301185Y-57851185D01*
X130380537Y-57754494D01*
X130439502Y-57644180D01*
X130475812Y-57524482D01*
X130488072Y-57400000D01*
X130485707Y-56850000D01*
X163761928Y-56850000D01*
X163774188Y-56974482D01*
X163810498Y-57094180D01*
X163869463Y-57204494D01*
X163948815Y-57301185D01*
X164045506Y-57380537D01*
X164155820Y-57439502D01*
X164275518Y-57475812D01*
X164400000Y-57488072D01*
X165114250Y-57485000D01*
X165273000Y-57326250D01*
X165273000Y-54977000D01*
X165527000Y-54977000D01*
X165527000Y-57326250D01*
X165685750Y-57485000D01*
X166400000Y-57488072D01*
X166524482Y-57475812D01*
X166644180Y-57439502D01*
X166754494Y-57380537D01*
X166851185Y-57301185D01*
X166930537Y-57204494D01*
X166989502Y-57094180D01*
X167025812Y-56974482D01*
X167038072Y-56850000D01*
X167035000Y-55135750D01*
X166876250Y-54977000D01*
X165527000Y-54977000D01*
X165273000Y-54977000D01*
X163923750Y-54977000D01*
X163765000Y-55135750D01*
X163761928Y-56850000D01*
X130485707Y-56850000D01*
X130485000Y-56685750D01*
X130326250Y-56527000D01*
X127977000Y-56527000D01*
X127723000Y-56527000D01*
X126710000Y-56527000D01*
X126710000Y-56273000D01*
X127723000Y-56273000D01*
X127723000Y-54923750D01*
X127977000Y-54923750D01*
X127977000Y-56273000D01*
X130326250Y-56273000D01*
X130485000Y-56114250D01*
X130488072Y-55400000D01*
X130475812Y-55275518D01*
X130439502Y-55155820D01*
X130380537Y-55045506D01*
X130301185Y-54948815D01*
X130204494Y-54869463D01*
X130094180Y-54810498D01*
X129974482Y-54774188D01*
X129850000Y-54761928D01*
X128135750Y-54765000D01*
X127977000Y-54923750D01*
X127723000Y-54923750D01*
X127564250Y-54765000D01*
X126710000Y-54763469D01*
X126710000Y-54534729D01*
X126728386Y-54347215D01*
X126772757Y-54200252D01*
X126844829Y-54064703D01*
X126941852Y-53945742D01*
X127060144Y-53847882D01*
X127195181Y-53774868D01*
X127341833Y-53729471D01*
X127527092Y-53710000D01*
X163763469Y-53710000D01*
X163765000Y-54564250D01*
M02*
