M48
; DRILL file {KiCad (6.0.1-0)} date 2022 February 27, Sunday 22:01:18
; FORMAT={-:-/ absolute / inch / decimal}
; #@! TF.CreationDate,2022-02-27T22:01:18+07:00
; #@! TF.GenerationSoftware,Kicad,Pcbnew,(6.0.1-0)
; #@! TF.FileFunction,Plated,1,2,PTH
FMAT,2
INCH
; #@! TA.AperFunction,Plated,PTH,ViaDrill
T1C0.0157
; #@! TA.AperFunction,Plated,PTH,ComponentDrill
T2C0.0300
; #@! TA.AperFunction,Plated,PTH,ComponentDrill
T3C0.0315
; #@! TA.AperFunction,Plated,PTH,ComponentDrill
T4C0.0394
; #@! TA.AperFunction,Plated,PTH,ComponentDrill
T5C0.0402
; #@! TA.AperFunction,Plated,PTH,ComponentDrill
T6C0.0433
; #@! TA.AperFunction,Plated,PTH,ComponentDrill
T7C0.0787
%
G90
G05
T1
X4.7058Y-2.0837
X4.7858Y-2.0837
X6.0258Y-2.4637
X6.0861Y-2.404
X6.2458Y-3.0037
X6.3458Y-3.0037
T2
X4.3158Y-2.0909
X4.4158Y-2.0909
X4.5158Y-2.0909
X4.6158Y-2.0909
T3
X3.8658Y-2.5837
X3.8658Y-2.6837
T4
X4.3154Y-3.2237
X4.4154Y-3.2237
X4.5154Y-3.2237
X4.6154Y-3.2237
X6.2356Y-2.5637
X6.3356Y-2.5637
T5
X3.3958Y-2.3035
X3.3958Y-3.0035
X3.4958Y-2.3035
X3.4958Y-3.0035
X3.5958Y-2.3035
X3.5958Y-3.0035
X3.6958Y-2.3035
X3.6958Y-3.0035
X3.7958Y-2.3035
X3.7958Y-3.0035
X3.8958Y-2.3035
X3.8958Y-3.0035
X3.9958Y-2.3035
X3.9958Y-3.0035
X4.0958Y-2.3035
X4.0958Y-3.0035
X4.1958Y-2.3035
X4.1958Y-3.0035
X4.2958Y-2.3035
X4.2958Y-3.0035
X4.3958Y-2.3035
X4.3958Y-3.0035
X4.4958Y-2.3035
X4.4958Y-3.0035
X4.5958Y-2.3035
X4.5958Y-3.0035
X4.6958Y-2.3035
X4.6958Y-3.0035
X4.7958Y-2.3035
X4.7958Y-3.0035
X4.8958Y-2.3035
X4.8958Y-3.0035
X4.9958Y-2.3035
X4.9958Y-3.0035
X5.0958Y-2.3035
X5.0958Y-3.0035
X5.1958Y-2.3035
X5.1958Y-3.0035
X5.2868Y-2.5535
X5.2868Y-2.6535
X5.2868Y-2.7535
X5.2958Y-2.3035
X5.2958Y-3.0035
T6
X5.5579Y-3.0751
X5.5579Y-3.2523
X5.5874Y-2.3681
X5.5874Y-2.939
X5.6858Y-2.939
X5.7843Y-2.3681
X5.7843Y-2.939
X5.8138Y-3.0751
X5.8138Y-3.2523
X6.1681Y-2.752
X6.1681Y-2.9291
X6.424Y-2.752
X6.424Y-2.9291
T7
G00X5.4858Y-2.624
M15
G01X5.4858Y-2.6634
M16
G05
G00X5.8858Y-2.6634
M15
G01X5.8858Y-2.624
M16
G05
T0
M30
