G04 #@! TF.GenerationSoftware,KiCad,Pcbnew,(6.0.1-0)*
G04 #@! TF.CreationDate,2022-02-27T22:00:48+07:00*
G04 #@! TF.ProjectId,V0_Display,56305f44-6973-4706-9c61-792e6b696361,rev?*
G04 #@! TF.SameCoordinates,Original*
G04 #@! TF.FileFunction,Soldermask,Bot*
G04 #@! TF.FilePolarity,Negative*
%FSLAX46Y46*%
G04 Gerber Fmt 4.6, Leading zero omitted, Abs format (unit mm)*
G04 Created by KiCad (PCBNEW (6.0.1-0)) date 2022-02-27 22:00:48*
%MOMM*%
%LPD*%
G01*
G04 APERTURE LIST*
G04 Aperture macros list*
%AMRoundRect*
0 Rectangle with rounded corners*
0 $1 Rounding radius*
0 $2 $3 $4 $5 $6 $7 $8 $9 X,Y pos of 4 corners*
0 Add a 4 corners polygon primitive as box body*
4,1,4,$2,$3,$4,$5,$6,$7,$8,$9,$2,$3,0*
0 Add four circle primitives for the rounded corners*
1,1,$1+$1,$2,$3*
1,1,$1+$1,$4,$5*
1,1,$1+$1,$6,$7*
1,1,$1+$1,$8,$9*
0 Add four rect primitives between the rounded corners*
20,1,$1+$1,$2,$3,$4,$5,0*
20,1,$1+$1,$4,$5,$6,$7,0*
20,1,$1+$1,$6,$7,$8,$9,0*
20,1,$1+$1,$8,$9,$2,$3,0*%
G04 Aperture macros list end*
G04 #@! TA.AperFunction,Profile*
%ADD10C,0.050000*%
G04 #@! TD*
%ADD11C,2.802000*%
%ADD12C,2.102000*%
%ADD13O,2.602000X4.102000*%
%ADD14C,1.502000*%
%ADD15C,1.626000*%
%ADD16RoundRect,0.051000X0.850000X-0.850000X0.850000X0.850000X-0.850000X0.850000X-0.850000X-0.850000X0*%
%ADD17O,1.802000X1.802000*%
%ADD18RoundRect,0.051000X0.500000X0.750000X-0.500000X0.750000X-0.500000X-0.750000X0.500000X-0.750000X0*%
%ADD19RoundRect,0.051000X-0.850000X0.850000X-0.850000X-0.850000X0.850000X-0.850000X0.850000X0.850000X0*%
%ADD20O,1.902000X1.902000*%
%ADD21O,1.602000X1.602000*%
%ADD22RoundRect,0.051000X-0.850000X1.750000X-0.850000X-1.750000X0.850000X-1.750000X0.850000X1.750000X0*%
%ADD23RoundRect,0.051000X1.750000X0.850000X-1.750000X0.850000X-1.750000X-0.850000X1.750000X-0.850000X0*%
G04 APERTURE END LIST*
D10*
X85170000Y-61562000D02*
X85170000Y-49650000D01*
X165170000Y-84650000D02*
X85170000Y-84650000D01*
X85170000Y-84650000D02*
X85170000Y-72738000D01*
X85170000Y-61562000D02*
X95144000Y-61562000D01*
X85170000Y-72738000D02*
X95144000Y-72738000D01*
X95144000Y-61562000D02*
X95144000Y-72738000D01*
X85170000Y-49650000D02*
X165170000Y-49650000D01*
X165170000Y-49650000D02*
X165170000Y-84650000D01*
X85170000Y-61562000D02*
X85170000Y-49650000D01*
X165170000Y-84650000D02*
X85170000Y-84650000D01*
X85170000Y-84650000D02*
X85170000Y-72738000D01*
X85170000Y-61562000D02*
X95144000Y-61562000D01*
X85170000Y-72738000D02*
X95144000Y-72738000D01*
X95144000Y-61562000D02*
X95144000Y-72738000D01*
X85170000Y-49650000D02*
X165170000Y-49650000D01*
X165170000Y-49650000D02*
X165170000Y-84650000D01*
D11*
X162200000Y-81882000D03*
X162200000Y-52418000D03*
D12*
X156670000Y-69900000D03*
X163170000Y-69900000D03*
X163170000Y-74400000D03*
X156670000Y-74400000D03*
X141920000Y-74650000D03*
X146920000Y-74650000D03*
X144420000Y-74650000D03*
D13*
X149500000Y-67150000D03*
X139340000Y-67150000D03*
D12*
X141920000Y-60150000D03*
X146920000Y-60150000D03*
D11*
X88032000Y-81882000D03*
X88032000Y-52418000D03*
D14*
X98192000Y-65626000D03*
X98192000Y-68166000D03*
D15*
X109622000Y-53108000D03*
X112162000Y-53108000D03*
X114702000Y-53108000D03*
X117242000Y-53108000D03*
D16*
X117232000Y-81882000D03*
D17*
X114692000Y-81882000D03*
X112152000Y-81882000D03*
X109612000Y-81882000D03*
D12*
X147670000Y-78108000D03*
X141170000Y-78108000D03*
X147670000Y-82608000D03*
X141170000Y-82608000D03*
D18*
X126132000Y-52926000D03*
X124832000Y-52926000D03*
X123532000Y-52926000D03*
D19*
X158385000Y-65118000D03*
D17*
X160925000Y-65118000D03*
D18*
X131720000Y-52926000D03*
X130420000Y-52926000D03*
X129120000Y-52926000D03*
D20*
X86384000Y-64675000D03*
X86384000Y-70125000D03*
D21*
X89414000Y-64975000D03*
X89414000Y-69825000D03*
D22*
X86254000Y-57610000D03*
D17*
X86254000Y-58510000D03*
D22*
X88794000Y-57610000D03*
D17*
X88794000Y-58510000D03*
D19*
X91334000Y-58510000D03*
D22*
X91334000Y-57610000D03*
D17*
X93874000Y-58510000D03*
D22*
X93874000Y-57610000D03*
D17*
X96414000Y-58510000D03*
D22*
X96414000Y-57610000D03*
X98954000Y-57610000D03*
D17*
X98954000Y-58510000D03*
D22*
X101494000Y-57610000D03*
D17*
X101494000Y-58510000D03*
D19*
X104034000Y-58510000D03*
D22*
X104034000Y-57610000D03*
D17*
X106574000Y-58510000D03*
D22*
X106574000Y-57610000D03*
X109114000Y-57610000D03*
D17*
X109114000Y-58510000D03*
X111654000Y-58510000D03*
D22*
X111654000Y-57610000D03*
X114194000Y-57610000D03*
D17*
X114194000Y-58510000D03*
D22*
X116734000Y-57610000D03*
D19*
X116734000Y-58510000D03*
D17*
X119274000Y-58510000D03*
D22*
X119274000Y-57610000D03*
D17*
X121814000Y-58510000D03*
D22*
X121814000Y-57610000D03*
X124354000Y-57610000D03*
D17*
X124354000Y-58510000D03*
D22*
X126894000Y-57610000D03*
D17*
X126894000Y-58510000D03*
D19*
X129434000Y-58510000D03*
D22*
X129434000Y-57610000D03*
X131974000Y-57610000D03*
D17*
X131974000Y-58510000D03*
X134514000Y-58510000D03*
D22*
X134514000Y-57610000D03*
D17*
X134514000Y-76290000D03*
D22*
X134514000Y-77190000D03*
X131974000Y-77190000D03*
D17*
X131974000Y-76290000D03*
D22*
X129434000Y-77190000D03*
D19*
X129434000Y-76290000D03*
D22*
X126894000Y-77190000D03*
D17*
X126894000Y-76290000D03*
X124354000Y-76290000D03*
D22*
X124354000Y-77190000D03*
X121814000Y-77190000D03*
D17*
X121814000Y-76290000D03*
D22*
X119274000Y-77190000D03*
D17*
X119274000Y-76290000D03*
D22*
X116734000Y-77190000D03*
D19*
X116734000Y-76290000D03*
D17*
X114194000Y-76290000D03*
D22*
X114194000Y-77190000D03*
D17*
X111654000Y-76290000D03*
D22*
X111654000Y-77190000D03*
D17*
X109114000Y-76290000D03*
D22*
X109114000Y-77190000D03*
D17*
X106574000Y-76290000D03*
D22*
X106574000Y-77190000D03*
D19*
X104034000Y-76290000D03*
D22*
X104034000Y-77190000D03*
D17*
X101494000Y-76290000D03*
D22*
X101494000Y-77190000D03*
X98954000Y-77190000D03*
D17*
X98954000Y-76290000D03*
D22*
X96414000Y-77190000D03*
D17*
X96414000Y-76290000D03*
D22*
X93874000Y-77190000D03*
D17*
X93874000Y-76290000D03*
D22*
X91334000Y-77190000D03*
D19*
X91334000Y-76290000D03*
D22*
X88794000Y-77190000D03*
D17*
X88794000Y-76290000D03*
D22*
X86254000Y-77190000D03*
D17*
X86254000Y-76290000D03*
X134284000Y-64860000D03*
D23*
X135184000Y-64860000D03*
D19*
X134284000Y-67400000D03*
D23*
X135184000Y-67400000D03*
D17*
X134284000Y-69940000D03*
D23*
X135184000Y-69940000D03*
G36*
X124081267Y-52159301D02*
G01*
X124132946Y-52202489D01*
X124201661Y-52211120D01*
X124264291Y-52181156D01*
X124282348Y-52160318D01*
X124284238Y-52159664D01*
X124285749Y-52160974D01*
X124285821Y-52162018D01*
X124283000Y-52176199D01*
X124283000Y-53675801D01*
X124285978Y-53690774D01*
X124285335Y-53692668D01*
X124283373Y-53693058D01*
X124282733Y-53692699D01*
X124231054Y-53649511D01*
X124162339Y-53640880D01*
X124099709Y-53670844D01*
X124081652Y-53691682D01*
X124079762Y-53692336D01*
X124078251Y-53691026D01*
X124078179Y-53689982D01*
X124081000Y-53675801D01*
X124081000Y-52176199D01*
X124078022Y-52161226D01*
X124078665Y-52159332D01*
X124080627Y-52158942D01*
X124081267Y-52159301D01*
G37*
G36*
X125381267Y-52159301D02*
G01*
X125432946Y-52202489D01*
X125501661Y-52211120D01*
X125564291Y-52181156D01*
X125582348Y-52160318D01*
X125584238Y-52159664D01*
X125585749Y-52160974D01*
X125585821Y-52162018D01*
X125583000Y-52176199D01*
X125583000Y-53675801D01*
X125585978Y-53690774D01*
X125585335Y-53692668D01*
X125583373Y-53693058D01*
X125582733Y-53692699D01*
X125531054Y-53649511D01*
X125462339Y-53640880D01*
X125399709Y-53670844D01*
X125381652Y-53691682D01*
X125379762Y-53692336D01*
X125378251Y-53691026D01*
X125378179Y-53689982D01*
X125381000Y-53675801D01*
X125381000Y-52176199D01*
X125378022Y-52161226D01*
X125378665Y-52159332D01*
X125380627Y-52158942D01*
X125381267Y-52159301D01*
G37*
G36*
X130969267Y-52159301D02*
G01*
X131020946Y-52202489D01*
X131089661Y-52211120D01*
X131152291Y-52181156D01*
X131170348Y-52160318D01*
X131172238Y-52159664D01*
X131173749Y-52160974D01*
X131173821Y-52162018D01*
X131171000Y-52176199D01*
X131171000Y-53675801D01*
X131173978Y-53690774D01*
X131173335Y-53692668D01*
X131171373Y-53693058D01*
X131170733Y-53692699D01*
X131119054Y-53649511D01*
X131050339Y-53640880D01*
X130987709Y-53670844D01*
X130969652Y-53691682D01*
X130967762Y-53692336D01*
X130966251Y-53691026D01*
X130966179Y-53689982D01*
X130969000Y-53675801D01*
X130969000Y-52176199D01*
X130966022Y-52161226D01*
X130966665Y-52159332D01*
X130968627Y-52158942D01*
X130969267Y-52159301D01*
G37*
G36*
X129669267Y-52159301D02*
G01*
X129720946Y-52202489D01*
X129789661Y-52211120D01*
X129852291Y-52181156D01*
X129870348Y-52160318D01*
X129872238Y-52159664D01*
X129873749Y-52160974D01*
X129873821Y-52162018D01*
X129871000Y-52176199D01*
X129871000Y-53675801D01*
X129873978Y-53690774D01*
X129873335Y-53692668D01*
X129871373Y-53693058D01*
X129870733Y-53692699D01*
X129819054Y-53649511D01*
X129750339Y-53640880D01*
X129687709Y-53670844D01*
X129669652Y-53691682D01*
X129667762Y-53692336D01*
X129666251Y-53691026D01*
X129666179Y-53689982D01*
X129669000Y-53675801D01*
X129669000Y-52176199D01*
X129666022Y-52161226D01*
X129666665Y-52159332D01*
X129668627Y-52158942D01*
X129669267Y-52159301D01*
G37*
M02*
