G04 #@! TF.GenerationSoftware,KiCad,Pcbnew,(6.0.1-0)*
G04 #@! TF.CreationDate,2022-03-02T13:09:52+07:00*
G04 #@! TF.ProjectId,V0_Display,56305f44-6973-4706-9c61-792e6b696361,rev?*
G04 #@! TF.SameCoordinates,Original*
G04 #@! TF.FileFunction,Legend,Top*
G04 #@! TF.FilePolarity,Positive*
%FSLAX46Y46*%
G04 Gerber Fmt 4.6, Leading zero omitted, Abs format (unit mm)*
G04 Created by KiCad (PCBNEW (6.0.1-0)) date 2022-03-02 13:09:52*
%MOMM*%
%LPD*%
G01*
G04 APERTURE LIST*
G04 Aperture macros list*
%AMRoundRect*
0 Rectangle with rounded corners*
0 $1 Rounding radius*
0 $2 $3 $4 $5 $6 $7 $8 $9 X,Y pos of 4 corners*
0 Add a 4 corners polygon primitive as box body*
4,1,4,$2,$3,$4,$5,$6,$7,$8,$9,$2,$3,0*
0 Add four circle primitives for the rounded corners*
1,1,$1+$1,$2,$3*
1,1,$1+$1,$4,$5*
1,1,$1+$1,$6,$7*
1,1,$1+$1,$8,$9*
0 Add four rect primitives between the rounded corners*
20,1,$1+$1,$2,$3,$4,$5,0*
20,1,$1+$1,$4,$5,$6,$7,0*
20,1,$1+$1,$6,$7,$8,$9,0*
20,1,$1+$1,$8,$9,$2,$3,0*%
G04 Aperture macros list end*
G04 #@! TA.AperFunction,Profile*
%ADD10C,0.050000*%
G04 #@! TD*
%ADD11C,0.075000*%
%ADD12C,0.100000*%
%ADD13C,0.250000*%
%ADD14C,0.150000*%
%ADD15C,0.120000*%
%ADD16C,2.802000*%
%ADD17C,2.102000*%
%ADD18O,2.602000X4.102000*%
%ADD19RoundRect,0.051000X-0.750000X-0.500000X0.750000X-0.500000X0.750000X0.500000X-0.750000X0.500000X0*%
%ADD20C,1.502000*%
%ADD21RoundRect,0.070000X-0.525000X0.300000X-0.525000X-0.300000X0.525000X-0.300000X0.525000X0.300000X0*%
%ADD22C,1.626000*%
%ADD23RoundRect,0.294750X-0.243750X-0.456250X0.243750X-0.456250X0.243750X0.456250X-0.243750X0.456250X0*%
%ADD24RoundRect,0.051000X0.850000X-0.850000X0.850000X0.850000X-0.850000X0.850000X-0.850000X-0.850000X0*%
%ADD25O,1.802000X1.802000*%
%ADD26RoundRect,0.051000X-0.850000X0.850000X-0.850000X-0.850000X0.850000X-0.850000X0.850000X0.850000X0*%
%ADD27O,1.902000X1.902000*%
%ADD28O,1.602000X1.602000*%
G04 APERTURE END LIST*
D10*
X85170000Y-61562000D02*
X85170000Y-49650000D01*
X165170000Y-84650000D02*
X85170000Y-84650000D01*
X85170000Y-84650000D02*
X85170000Y-72738000D01*
X85170000Y-61562000D02*
X95144000Y-61562000D01*
X85170000Y-72738000D02*
X95144000Y-72738000D01*
X95144000Y-61562000D02*
X95144000Y-72738000D01*
X85170000Y-49650000D02*
X165170000Y-49650000D01*
X165170000Y-49650000D02*
X165170000Y-84650000D01*
D11*
X154738809Y-57986190D02*
X154905476Y-58486190D01*
X155072142Y-57986190D01*
X155238809Y-58295714D02*
X155619761Y-58295714D01*
X155429285Y-58486190D02*
X155429285Y-58105238D01*
D12*
X107902142Y-51687285D02*
X107902142Y-50937285D01*
X108187857Y-50937285D01*
X108259285Y-50973000D01*
X108295000Y-51008714D01*
X108330714Y-51080142D01*
X108330714Y-51187285D01*
X108295000Y-51258714D01*
X108259285Y-51294428D01*
X108187857Y-51330142D01*
X107902142Y-51330142D01*
X108652142Y-51687285D02*
X108652142Y-51187285D01*
X108652142Y-50937285D02*
X108616428Y-50973000D01*
X108652142Y-51008714D01*
X108687857Y-50973000D01*
X108652142Y-50937285D01*
X108652142Y-51008714D01*
X109009285Y-51187285D02*
X109009285Y-51687285D01*
X109009285Y-51258714D02*
X109045000Y-51223000D01*
X109116428Y-51187285D01*
X109223571Y-51187285D01*
X109295000Y-51223000D01*
X109330714Y-51294428D01*
X109330714Y-51687285D01*
X110080714Y-51687285D02*
X109652142Y-51687285D01*
X109866428Y-51687285D02*
X109866428Y-50937285D01*
X109795000Y-51044428D01*
X109723571Y-51115857D01*
X109652142Y-51151571D01*
X110973571Y-51687285D02*
X110973571Y-50937285D01*
X111259285Y-50937285D01*
X111330714Y-50973000D01*
X111366428Y-51008714D01*
X111402142Y-51080142D01*
X111402142Y-51187285D01*
X111366428Y-51258714D01*
X111330714Y-51294428D01*
X111259285Y-51330142D01*
X110973571Y-51330142D01*
X111723571Y-51687285D02*
X111723571Y-51187285D01*
X111723571Y-50937285D02*
X111687857Y-50973000D01*
X111723571Y-51008714D01*
X111759285Y-50973000D01*
X111723571Y-50937285D01*
X111723571Y-51008714D01*
X112080714Y-51187285D02*
X112080714Y-51687285D01*
X112080714Y-51258714D02*
X112116428Y-51223000D01*
X112187857Y-51187285D01*
X112295000Y-51187285D01*
X112366428Y-51223000D01*
X112402142Y-51294428D01*
X112402142Y-51687285D01*
X112723571Y-51008714D02*
X112759285Y-50973000D01*
X112830714Y-50937285D01*
X113009285Y-50937285D01*
X113080714Y-50973000D01*
X113116428Y-51008714D01*
X113152142Y-51080142D01*
X113152142Y-51151571D01*
X113116428Y-51258714D01*
X112687857Y-51687285D01*
X113152142Y-51687285D01*
X114009285Y-51651571D02*
X114116428Y-51687285D01*
X114295000Y-51687285D01*
X114366428Y-51651571D01*
X114402142Y-51615857D01*
X114437857Y-51544428D01*
X114437857Y-51473000D01*
X114402142Y-51401571D01*
X114366428Y-51365857D01*
X114295000Y-51330142D01*
X114152142Y-51294428D01*
X114080714Y-51258714D01*
X114045000Y-51223000D01*
X114009285Y-51151571D01*
X114009285Y-51080142D01*
X114045000Y-51008714D01*
X114080714Y-50973000D01*
X114152142Y-50937285D01*
X114330714Y-50937285D01*
X114437857Y-50973000D01*
X115187857Y-51615857D02*
X115152142Y-51651571D01*
X115045000Y-51687285D01*
X114973571Y-51687285D01*
X114866428Y-51651571D01*
X114795000Y-51580142D01*
X114759285Y-51508714D01*
X114723571Y-51365857D01*
X114723571Y-51258714D01*
X114759285Y-51115857D01*
X114795000Y-51044428D01*
X114866428Y-50973000D01*
X114973571Y-50937285D01*
X115045000Y-50937285D01*
X115152142Y-50973000D01*
X115187857Y-51008714D01*
X115866428Y-51687285D02*
X115509285Y-51687285D01*
X115509285Y-50937285D01*
X116652142Y-51651571D02*
X116759285Y-51687285D01*
X116937857Y-51687285D01*
X117009285Y-51651571D01*
X117045000Y-51615857D01*
X117080714Y-51544428D01*
X117080714Y-51473000D01*
X117045000Y-51401571D01*
X117009285Y-51365857D01*
X116937857Y-51330142D01*
X116795000Y-51294428D01*
X116723571Y-51258714D01*
X116687857Y-51223000D01*
X116652142Y-51151571D01*
X116652142Y-51080142D01*
X116687857Y-51008714D01*
X116723571Y-50973000D01*
X116795000Y-50937285D01*
X116973571Y-50937285D01*
X117080714Y-50973000D01*
X117402142Y-51687285D02*
X117402142Y-50937285D01*
X117580714Y-50937285D01*
X117687857Y-50973000D01*
X117759285Y-51044428D01*
X117795000Y-51115857D01*
X117830714Y-51258714D01*
X117830714Y-51365857D01*
X117795000Y-51508714D01*
X117759285Y-51580142D01*
X117687857Y-51651571D01*
X117580714Y-51687285D01*
X117402142Y-51687285D01*
X118116428Y-51473000D02*
X118473571Y-51473000D01*
X118045000Y-51687285D02*
X118295000Y-50937285D01*
X118545000Y-51687285D01*
X99813285Y-68892000D02*
X99813285Y-68463428D01*
X100563285Y-68677714D02*
X99813285Y-68677714D01*
X100563285Y-68213428D02*
X99813285Y-68213428D01*
X99813285Y-67927714D01*
X99849000Y-67856285D01*
X99884714Y-67820571D01*
X99956142Y-67784857D01*
X100063285Y-67784857D01*
X100134714Y-67820571D01*
X100170428Y-67856285D01*
X100206142Y-67927714D01*
X100206142Y-68213428D01*
X99884714Y-67499142D02*
X99849000Y-67463428D01*
X99813285Y-67392000D01*
X99813285Y-67213428D01*
X99849000Y-67142000D01*
X99884714Y-67106285D01*
X99956142Y-67070571D01*
X100027571Y-67070571D01*
X100134714Y-67106285D01*
X100563285Y-67534857D01*
X100563285Y-67070571D01*
X99813285Y-66284857D02*
X99813285Y-65856285D01*
X100563285Y-66070571D02*
X99813285Y-66070571D01*
X100563285Y-65606285D02*
X99813285Y-65606285D01*
X99813285Y-65320571D01*
X99849000Y-65249142D01*
X99884714Y-65213428D01*
X99956142Y-65177714D01*
X100063285Y-65177714D01*
X100134714Y-65213428D01*
X100170428Y-65249142D01*
X100206142Y-65320571D01*
X100206142Y-65606285D01*
X99813285Y-64927714D02*
X99813285Y-64463428D01*
X100099000Y-64713428D01*
X100099000Y-64606285D01*
X100134714Y-64534857D01*
X100170428Y-64499142D01*
X100241857Y-64463428D01*
X100420428Y-64463428D01*
X100491857Y-64499142D01*
X100527571Y-64534857D01*
X100563285Y-64606285D01*
X100563285Y-64820571D01*
X100527571Y-64892000D01*
X100491857Y-64927714D01*
D11*
X159818809Y-58486190D02*
X159818809Y-57986190D01*
X159937857Y-57986190D01*
X160009285Y-58010000D01*
X160056904Y-58057619D01*
X160080714Y-58105238D01*
X160104523Y-58200476D01*
X160104523Y-58271904D01*
X160080714Y-58367142D01*
X160056904Y-58414761D01*
X160009285Y-58462380D01*
X159937857Y-58486190D01*
X159818809Y-58486190D01*
X160318809Y-58486190D02*
X160318809Y-58152857D01*
X160318809Y-57986190D02*
X160295000Y-58010000D01*
X160318809Y-58033809D01*
X160342619Y-58010000D01*
X160318809Y-57986190D01*
X160318809Y-58033809D01*
X160556904Y-58152857D02*
X160556904Y-58486190D01*
X160556904Y-58200476D02*
X160580714Y-58176666D01*
X160628333Y-58152857D01*
X160699761Y-58152857D01*
X160747380Y-58176666D01*
X160771190Y-58224285D01*
X160771190Y-58486190D01*
D13*
X106765333Y-64076142D02*
X106717714Y-64123761D01*
X106574857Y-64171380D01*
X106479619Y-64171380D01*
X106336761Y-64123761D01*
X106241523Y-64028523D01*
X106193904Y-63933285D01*
X106146285Y-63742809D01*
X106146285Y-63599952D01*
X106193904Y-63409476D01*
X106241523Y-63314238D01*
X106336761Y-63219000D01*
X106479619Y-63171380D01*
X106574857Y-63171380D01*
X106717714Y-63219000D01*
X106765333Y-63266619D01*
X107193904Y-64171380D02*
X107193904Y-63171380D01*
X107622476Y-64171380D02*
X107622476Y-63647571D01*
X107574857Y-63552333D01*
X107479619Y-63504714D01*
X107336761Y-63504714D01*
X107241523Y-63552333D01*
X107193904Y-63599952D01*
X108479619Y-64123761D02*
X108384380Y-64171380D01*
X108193904Y-64171380D01*
X108098666Y-64123761D01*
X108051047Y-64028523D01*
X108051047Y-63647571D01*
X108098666Y-63552333D01*
X108193904Y-63504714D01*
X108384380Y-63504714D01*
X108479619Y-63552333D01*
X108527238Y-63647571D01*
X108527238Y-63742809D01*
X108051047Y-63838047D01*
X109384380Y-64123761D02*
X109289142Y-64171380D01*
X109098666Y-64171380D01*
X109003428Y-64123761D01*
X108955809Y-64076142D01*
X108908190Y-63980904D01*
X108908190Y-63695190D01*
X108955809Y-63599952D01*
X109003428Y-63552333D01*
X109098666Y-63504714D01*
X109289142Y-63504714D01*
X109384380Y-63552333D01*
X109812952Y-64171380D02*
X109812952Y-63171380D01*
X109908190Y-63790428D02*
X110193904Y-64171380D01*
X110193904Y-63504714D02*
X109812952Y-63885666D01*
X111241523Y-63504714D02*
X111622476Y-63504714D01*
X111384380Y-63171380D02*
X111384380Y-64028523D01*
X111432000Y-64123761D01*
X111527238Y-64171380D01*
X111622476Y-64171380D01*
X111955809Y-64171380D02*
X111955809Y-63171380D01*
X112384380Y-64171380D02*
X112384380Y-63647571D01*
X112336761Y-63552333D01*
X112241523Y-63504714D01*
X112098666Y-63504714D01*
X112003428Y-63552333D01*
X111955809Y-63599952D01*
X113241523Y-64123761D02*
X113146285Y-64171380D01*
X112955809Y-64171380D01*
X112860571Y-64123761D01*
X112812952Y-64028523D01*
X112812952Y-63647571D01*
X112860571Y-63552333D01*
X112955809Y-63504714D01*
X113146285Y-63504714D01*
X113241523Y-63552333D01*
X113289142Y-63647571D01*
X113289142Y-63742809D01*
X112812952Y-63838047D01*
X114479619Y-63504714D02*
X114479619Y-64361857D01*
X114432000Y-64457095D01*
X114336761Y-64504714D01*
X114289142Y-64504714D01*
X114479619Y-63171380D02*
X114432000Y-63219000D01*
X114479619Y-63266619D01*
X114527238Y-63219000D01*
X114479619Y-63171380D01*
X114479619Y-63266619D01*
X115384380Y-63504714D02*
X115384380Y-64171380D01*
X114955809Y-63504714D02*
X114955809Y-64028523D01*
X115003428Y-64123761D01*
X115098666Y-64171380D01*
X115241523Y-64171380D01*
X115336761Y-64123761D01*
X115384380Y-64076142D01*
X115860571Y-64171380D02*
X115860571Y-63504714D01*
X115860571Y-63599952D02*
X115908190Y-63552333D01*
X116003428Y-63504714D01*
X116146285Y-63504714D01*
X116241523Y-63552333D01*
X116289142Y-63647571D01*
X116289142Y-64171380D01*
X116289142Y-63647571D02*
X116336761Y-63552333D01*
X116432000Y-63504714D01*
X116574857Y-63504714D01*
X116670095Y-63552333D01*
X116717714Y-63647571D01*
X116717714Y-64171380D01*
X117193904Y-63504714D02*
X117193904Y-64504714D01*
X117193904Y-63552333D02*
X117289142Y-63504714D01*
X117479619Y-63504714D01*
X117574857Y-63552333D01*
X117622476Y-63599952D01*
X117670095Y-63695190D01*
X117670095Y-63980904D01*
X117622476Y-64076142D01*
X117574857Y-64123761D01*
X117479619Y-64171380D01*
X117289142Y-64171380D01*
X117193904Y-64123761D01*
X118479619Y-64123761D02*
X118384380Y-64171380D01*
X118193904Y-64171380D01*
X118098666Y-64123761D01*
X118051047Y-64028523D01*
X118051047Y-63647571D01*
X118098666Y-63552333D01*
X118193904Y-63504714D01*
X118384380Y-63504714D01*
X118479619Y-63552333D01*
X118527238Y-63647571D01*
X118527238Y-63742809D01*
X118051047Y-63838047D01*
X118955809Y-64171380D02*
X118955809Y-63504714D01*
X118955809Y-63695190D02*
X119003428Y-63599952D01*
X119051047Y-63552333D01*
X119146285Y-63504714D01*
X119241523Y-63504714D01*
X119527238Y-64123761D02*
X119622476Y-64171380D01*
X119812952Y-64171380D01*
X119908190Y-64123761D01*
X119955809Y-64028523D01*
X119955809Y-63980904D01*
X119908190Y-63885666D01*
X119812952Y-63838047D01*
X119670095Y-63838047D01*
X119574857Y-63790428D01*
X119527238Y-63695190D01*
X119527238Y-63647571D01*
X119574857Y-63552333D01*
X119670095Y-63504714D01*
X119812952Y-63504714D01*
X119908190Y-63552333D01*
X105408190Y-65781380D02*
X105312952Y-65733761D01*
X105265333Y-65686142D01*
X105217714Y-65590904D01*
X105217714Y-65305190D01*
X105265333Y-65209952D01*
X105312952Y-65162333D01*
X105408190Y-65114714D01*
X105551047Y-65114714D01*
X105646285Y-65162333D01*
X105693904Y-65209952D01*
X105741523Y-65305190D01*
X105741523Y-65590904D01*
X105693904Y-65686142D01*
X105646285Y-65733761D01*
X105551047Y-65781380D01*
X105408190Y-65781380D01*
X106170095Y-65114714D02*
X106170095Y-65781380D01*
X106170095Y-65209952D02*
X106217714Y-65162333D01*
X106312952Y-65114714D01*
X106455809Y-65114714D01*
X106551047Y-65162333D01*
X106598666Y-65257571D01*
X106598666Y-65781380D01*
X107693904Y-65114714D02*
X108074857Y-65114714D01*
X107836761Y-64781380D02*
X107836761Y-65638523D01*
X107884380Y-65733761D01*
X107979619Y-65781380D01*
X108074857Y-65781380D01*
X108408190Y-65781380D02*
X108408190Y-64781380D01*
X108836761Y-65781380D02*
X108836761Y-65257571D01*
X108789142Y-65162333D01*
X108693904Y-65114714D01*
X108551047Y-65114714D01*
X108455809Y-65162333D01*
X108408190Y-65209952D01*
X109693904Y-65733761D02*
X109598666Y-65781380D01*
X109408190Y-65781380D01*
X109312952Y-65733761D01*
X109265333Y-65638523D01*
X109265333Y-65257571D01*
X109312952Y-65162333D01*
X109408190Y-65114714D01*
X109598666Y-65114714D01*
X109693904Y-65162333D01*
X109741523Y-65257571D01*
X109741523Y-65352809D01*
X109265333Y-65448047D01*
X110932000Y-65781380D02*
X110932000Y-64781380D01*
X110932000Y-65162333D02*
X111027238Y-65114714D01*
X111217714Y-65114714D01*
X111312952Y-65162333D01*
X111360571Y-65209952D01*
X111408190Y-65305190D01*
X111408190Y-65590904D01*
X111360571Y-65686142D01*
X111312952Y-65733761D01*
X111217714Y-65781380D01*
X111027238Y-65781380D01*
X110932000Y-65733761D01*
X112265333Y-65781380D02*
X112265333Y-65257571D01*
X112217714Y-65162333D01*
X112122476Y-65114714D01*
X111932000Y-65114714D01*
X111836761Y-65162333D01*
X112265333Y-65733761D02*
X112170095Y-65781380D01*
X111932000Y-65781380D01*
X111836761Y-65733761D01*
X111789142Y-65638523D01*
X111789142Y-65543285D01*
X111836761Y-65448047D01*
X111932000Y-65400428D01*
X112170095Y-65400428D01*
X112265333Y-65352809D01*
X113170095Y-65733761D02*
X113074857Y-65781380D01*
X112884380Y-65781380D01*
X112789142Y-65733761D01*
X112741523Y-65686142D01*
X112693904Y-65590904D01*
X112693904Y-65305190D01*
X112741523Y-65209952D01*
X112789142Y-65162333D01*
X112884380Y-65114714D01*
X113074857Y-65114714D01*
X113170095Y-65162333D01*
X113598666Y-65781380D02*
X113598666Y-64781380D01*
X113693904Y-65400428D02*
X113979619Y-65781380D01*
X113979619Y-65114714D02*
X113598666Y-65495666D01*
X115027238Y-65114714D02*
X115408190Y-65114714D01*
X115170095Y-64781380D02*
X115170095Y-65638523D01*
X115217714Y-65733761D01*
X115312952Y-65781380D01*
X115408190Y-65781380D01*
X115884380Y-65781380D02*
X115789142Y-65733761D01*
X115741523Y-65686142D01*
X115693904Y-65590904D01*
X115693904Y-65305190D01*
X115741523Y-65209952D01*
X115789142Y-65162333D01*
X115884380Y-65114714D01*
X116027238Y-65114714D01*
X116122476Y-65162333D01*
X116170095Y-65209952D01*
X116217714Y-65305190D01*
X116217714Y-65590904D01*
X116170095Y-65686142D01*
X116122476Y-65733761D01*
X116027238Y-65781380D01*
X115884380Y-65781380D01*
X117408190Y-65781380D02*
X117408190Y-65114714D01*
X117408190Y-65209952D02*
X117455809Y-65162333D01*
X117551047Y-65114714D01*
X117693904Y-65114714D01*
X117789142Y-65162333D01*
X117836761Y-65257571D01*
X117836761Y-65781380D01*
X117836761Y-65257571D02*
X117884380Y-65162333D01*
X117979619Y-65114714D01*
X118122476Y-65114714D01*
X118217714Y-65162333D01*
X118265333Y-65257571D01*
X118265333Y-65781380D01*
X119170095Y-65781380D02*
X119170095Y-65257571D01*
X119122476Y-65162333D01*
X119027238Y-65114714D01*
X118836761Y-65114714D01*
X118741523Y-65162333D01*
X119170095Y-65733761D02*
X119074857Y-65781380D01*
X118836761Y-65781380D01*
X118741523Y-65733761D01*
X118693904Y-65638523D01*
X118693904Y-65543285D01*
X118741523Y-65448047D01*
X118836761Y-65400428D01*
X119074857Y-65400428D01*
X119170095Y-65352809D01*
X119646285Y-65781380D02*
X119646285Y-64781380D01*
X119741523Y-65400428D02*
X120027238Y-65781380D01*
X120027238Y-65114714D02*
X119646285Y-65495666D01*
X120836761Y-65733761D02*
X120741523Y-65781380D01*
X120551047Y-65781380D01*
X120455809Y-65733761D01*
X120408190Y-65638523D01*
X120408190Y-65257571D01*
X120455809Y-65162333D01*
X120551047Y-65114714D01*
X120741523Y-65114714D01*
X120836761Y-65162333D01*
X120884380Y-65257571D01*
X120884380Y-65352809D01*
X120408190Y-65448047D01*
X104432000Y-67343761D02*
X104527238Y-67391380D01*
X104717714Y-67391380D01*
X104812952Y-67343761D01*
X104860571Y-67248523D01*
X104860571Y-67200904D01*
X104812952Y-67105666D01*
X104717714Y-67058047D01*
X104574857Y-67058047D01*
X104479619Y-67010428D01*
X104432000Y-66915190D01*
X104432000Y-66867571D01*
X104479619Y-66772333D01*
X104574857Y-66724714D01*
X104717714Y-66724714D01*
X104812952Y-66772333D01*
X105717714Y-66724714D02*
X105717714Y-67391380D01*
X105289142Y-66724714D02*
X105289142Y-67248523D01*
X105336761Y-67343761D01*
X105432000Y-67391380D01*
X105574857Y-67391380D01*
X105670095Y-67343761D01*
X105717714Y-67296142D01*
X106193904Y-67391380D02*
X106193904Y-66724714D01*
X106193904Y-66915190D02*
X106241523Y-66819952D01*
X106289142Y-66772333D01*
X106384380Y-66724714D01*
X106479619Y-66724714D01*
X107193904Y-67343761D02*
X107098666Y-67391380D01*
X106908190Y-67391380D01*
X106812952Y-67343761D01*
X106765333Y-67248523D01*
X106765333Y-66867571D01*
X106812952Y-66772333D01*
X106908190Y-66724714D01*
X107098666Y-66724714D01*
X107193904Y-66772333D01*
X107241523Y-66867571D01*
X107241523Y-66962809D01*
X106765333Y-67058047D01*
X108289142Y-66724714D02*
X108670095Y-66724714D01*
X108432000Y-66391380D02*
X108432000Y-67248523D01*
X108479619Y-67343761D01*
X108574857Y-67391380D01*
X108670095Y-67391380D01*
X109003428Y-67391380D02*
X109003428Y-66391380D01*
X109432000Y-67391380D02*
X109432000Y-66867571D01*
X109384380Y-66772333D01*
X109289142Y-66724714D01*
X109146285Y-66724714D01*
X109051047Y-66772333D01*
X109003428Y-66819952D01*
X110289142Y-67343761D02*
X110193904Y-67391380D01*
X110003428Y-67391380D01*
X109908190Y-67343761D01*
X109860571Y-67248523D01*
X109860571Y-66867571D01*
X109908190Y-66772333D01*
X110003428Y-66724714D01*
X110193904Y-66724714D01*
X110289142Y-66772333D01*
X110336761Y-66867571D01*
X110336761Y-66962809D01*
X109860571Y-67058047D01*
X111527238Y-66724714D02*
X111527238Y-67724714D01*
X111527238Y-66772333D02*
X111622476Y-66724714D01*
X111812952Y-66724714D01*
X111908190Y-66772333D01*
X111955809Y-66819952D01*
X112003428Y-66915190D01*
X112003428Y-67200904D01*
X111955809Y-67296142D01*
X111908190Y-67343761D01*
X111812952Y-67391380D01*
X111622476Y-67391380D01*
X111527238Y-67343761D01*
X112574857Y-67391380D02*
X112479619Y-67343761D01*
X112432000Y-67296142D01*
X112384380Y-67200904D01*
X112384380Y-66915190D01*
X112432000Y-66819952D01*
X112479619Y-66772333D01*
X112574857Y-66724714D01*
X112717714Y-66724714D01*
X112812952Y-66772333D01*
X112860571Y-66819952D01*
X112908190Y-66915190D01*
X112908190Y-67200904D01*
X112860571Y-67296142D01*
X112812952Y-67343761D01*
X112717714Y-67391380D01*
X112574857Y-67391380D01*
X113241523Y-66724714D02*
X113432000Y-67391380D01*
X113622476Y-66915190D01*
X113812952Y-67391380D01*
X114003428Y-66724714D01*
X114765333Y-67343761D02*
X114670095Y-67391380D01*
X114479619Y-67391380D01*
X114384380Y-67343761D01*
X114336761Y-67248523D01*
X114336761Y-66867571D01*
X114384380Y-66772333D01*
X114479619Y-66724714D01*
X114670095Y-66724714D01*
X114765333Y-66772333D01*
X114812952Y-66867571D01*
X114812952Y-66962809D01*
X114336761Y-67058047D01*
X115241523Y-67391380D02*
X115241523Y-66724714D01*
X115241523Y-66915190D02*
X115289142Y-66819952D01*
X115336761Y-66772333D01*
X115432000Y-66724714D01*
X115527238Y-66724714D01*
X116622476Y-66724714D02*
X116622476Y-67724714D01*
X116622476Y-66772333D02*
X116717714Y-66724714D01*
X116908190Y-66724714D01*
X117003428Y-66772333D01*
X117051047Y-66819952D01*
X117098666Y-66915190D01*
X117098666Y-67200904D01*
X117051047Y-67296142D01*
X117003428Y-67343761D01*
X116908190Y-67391380D01*
X116717714Y-67391380D01*
X116622476Y-67343761D01*
X117527238Y-67391380D02*
X117527238Y-66724714D01*
X117527238Y-66391380D02*
X117479619Y-66439000D01*
X117527238Y-66486619D01*
X117574857Y-66439000D01*
X117527238Y-66391380D01*
X117527238Y-66486619D01*
X118003428Y-66724714D02*
X118003428Y-67391380D01*
X118003428Y-66819952D02*
X118051047Y-66772333D01*
X118146285Y-66724714D01*
X118289142Y-66724714D01*
X118384380Y-66772333D01*
X118432000Y-66867571D01*
X118432000Y-67391380D01*
X118860571Y-67343761D02*
X118955809Y-67391380D01*
X119146285Y-67391380D01*
X119241523Y-67343761D01*
X119289142Y-67248523D01*
X119289142Y-67200904D01*
X119241523Y-67105666D01*
X119146285Y-67058047D01*
X119003428Y-67058047D01*
X118908190Y-67010428D01*
X118860571Y-66915190D01*
X118860571Y-66867571D01*
X118908190Y-66772333D01*
X119003428Y-66724714D01*
X119146285Y-66724714D01*
X119241523Y-66772333D01*
X120908190Y-67391380D02*
X120908190Y-66867571D01*
X120860571Y-66772333D01*
X120765333Y-66724714D01*
X120574857Y-66724714D01*
X120479619Y-66772333D01*
X120908190Y-67343761D02*
X120812952Y-67391380D01*
X120574857Y-67391380D01*
X120479619Y-67343761D01*
X120432000Y-67248523D01*
X120432000Y-67153285D01*
X120479619Y-67058047D01*
X120574857Y-67010428D01*
X120812952Y-67010428D01*
X120908190Y-66962809D01*
X121384380Y-67391380D02*
X121384380Y-66724714D01*
X121384380Y-66915190D02*
X121432000Y-66819952D01*
X121479619Y-66772333D01*
X121574857Y-66724714D01*
X121670095Y-66724714D01*
X122384380Y-67343761D02*
X122289142Y-67391380D01*
X122098666Y-67391380D01*
X122003428Y-67343761D01*
X121955809Y-67248523D01*
X121955809Y-66867571D01*
X122003428Y-66772333D01*
X122098666Y-66724714D01*
X122289142Y-66724714D01*
X122384380Y-66772333D01*
X122432000Y-66867571D01*
X122432000Y-66962809D01*
X121955809Y-67058047D01*
X104051047Y-68953761D02*
X103955809Y-69001380D01*
X103765333Y-69001380D01*
X103670095Y-68953761D01*
X103622476Y-68906142D01*
X103574857Y-68810904D01*
X103574857Y-68525190D01*
X103622476Y-68429952D01*
X103670095Y-68382333D01*
X103765333Y-68334714D01*
X103955809Y-68334714D01*
X104051047Y-68382333D01*
X104622476Y-69001380D02*
X104527238Y-68953761D01*
X104479619Y-68906142D01*
X104432000Y-68810904D01*
X104432000Y-68525190D01*
X104479619Y-68429952D01*
X104527238Y-68382333D01*
X104622476Y-68334714D01*
X104765333Y-68334714D01*
X104860571Y-68382333D01*
X104908190Y-68429952D01*
X104955809Y-68525190D01*
X104955809Y-68810904D01*
X104908190Y-68906142D01*
X104860571Y-68953761D01*
X104765333Y-69001380D01*
X104622476Y-69001380D01*
X105384380Y-68334714D02*
X105384380Y-69001380D01*
X105384380Y-68429952D02*
X105432000Y-68382333D01*
X105527238Y-68334714D01*
X105670095Y-68334714D01*
X105765333Y-68382333D01*
X105812952Y-68477571D01*
X105812952Y-69001380D01*
X106146285Y-68334714D02*
X106527238Y-68334714D01*
X106289142Y-69001380D02*
X106289142Y-68144238D01*
X106336761Y-68049000D01*
X106432000Y-68001380D01*
X106527238Y-68001380D01*
X106860571Y-69001380D02*
X106860571Y-68334714D01*
X106860571Y-68001380D02*
X106812952Y-68049000D01*
X106860571Y-68096619D01*
X106908190Y-68049000D01*
X106860571Y-68001380D01*
X106860571Y-68096619D01*
X107765333Y-68334714D02*
X107765333Y-69144238D01*
X107717714Y-69239476D01*
X107670095Y-69287095D01*
X107574857Y-69334714D01*
X107432000Y-69334714D01*
X107336761Y-69287095D01*
X107765333Y-68953761D02*
X107670095Y-69001380D01*
X107479619Y-69001380D01*
X107384380Y-68953761D01*
X107336761Y-68906142D01*
X107289142Y-68810904D01*
X107289142Y-68525190D01*
X107336761Y-68429952D01*
X107384380Y-68382333D01*
X107479619Y-68334714D01*
X107670095Y-68334714D01*
X107765333Y-68382333D01*
X108670095Y-68334714D02*
X108670095Y-69001380D01*
X108241523Y-68334714D02*
X108241523Y-68858523D01*
X108289142Y-68953761D01*
X108384380Y-69001380D01*
X108527238Y-69001380D01*
X108622476Y-68953761D01*
X108670095Y-68906142D01*
X109146285Y-69001380D02*
X109146285Y-68334714D01*
X109146285Y-68525190D02*
X109193904Y-68429952D01*
X109241523Y-68382333D01*
X109336761Y-68334714D01*
X109432000Y-68334714D01*
X110146285Y-68953761D02*
X110051047Y-69001380D01*
X109860571Y-69001380D01*
X109765333Y-68953761D01*
X109717714Y-68858523D01*
X109717714Y-68477571D01*
X109765333Y-68382333D01*
X109860571Y-68334714D01*
X110051047Y-68334714D01*
X110146285Y-68382333D01*
X110193904Y-68477571D01*
X110193904Y-68572809D01*
X109717714Y-68668047D01*
X111051047Y-69001380D02*
X111051047Y-68001380D01*
X111051047Y-68953761D02*
X110955809Y-69001380D01*
X110765333Y-69001380D01*
X110670095Y-68953761D01*
X110622476Y-68906142D01*
X110574857Y-68810904D01*
X110574857Y-68525190D01*
X110622476Y-68429952D01*
X110670095Y-68382333D01*
X110765333Y-68334714D01*
X110955809Y-68334714D01*
X111051047Y-68382333D01*
X112146285Y-68334714D02*
X112527238Y-68334714D01*
X112289142Y-69001380D02*
X112289142Y-68144238D01*
X112336761Y-68049000D01*
X112432000Y-68001380D01*
X112527238Y-68001380D01*
X113003428Y-69001380D02*
X112908190Y-68953761D01*
X112860571Y-68906142D01*
X112812952Y-68810904D01*
X112812952Y-68525190D01*
X112860571Y-68429952D01*
X112908190Y-68382333D01*
X113003428Y-68334714D01*
X113146285Y-68334714D01*
X113241523Y-68382333D01*
X113289142Y-68429952D01*
X113336761Y-68525190D01*
X113336761Y-68810904D01*
X113289142Y-68906142D01*
X113241523Y-68953761D01*
X113146285Y-69001380D01*
X113003428Y-69001380D01*
X113765333Y-69001380D02*
X113765333Y-68334714D01*
X113765333Y-68525190D02*
X113812952Y-68429952D01*
X113860571Y-68382333D01*
X113955809Y-68334714D01*
X114051047Y-68334714D01*
X115051047Y-68334714D02*
X115289142Y-69001380D01*
X115527238Y-68334714D02*
X115289142Y-69001380D01*
X115193904Y-69239476D01*
X115146285Y-69287095D01*
X115051047Y-69334714D01*
X116051047Y-69001380D02*
X115955809Y-68953761D01*
X115908190Y-68906142D01*
X115860571Y-68810904D01*
X115860571Y-68525190D01*
X115908190Y-68429952D01*
X115955809Y-68382333D01*
X116051047Y-68334714D01*
X116193904Y-68334714D01*
X116289142Y-68382333D01*
X116336761Y-68429952D01*
X116384380Y-68525190D01*
X116384380Y-68810904D01*
X116336761Y-68906142D01*
X116289142Y-68953761D01*
X116193904Y-69001380D01*
X116051047Y-69001380D01*
X117241523Y-68334714D02*
X117241523Y-69001380D01*
X116812952Y-68334714D02*
X116812952Y-68858523D01*
X116860571Y-68953761D01*
X116955809Y-69001380D01*
X117098666Y-69001380D01*
X117193904Y-68953761D01*
X117241523Y-68906142D01*
X117717714Y-69001380D02*
X117717714Y-68334714D01*
X117717714Y-68525190D02*
X117765333Y-68429952D01*
X117812952Y-68382333D01*
X117908190Y-68334714D01*
X118003428Y-68334714D01*
X119051047Y-68953761D02*
X119146285Y-69001380D01*
X119336761Y-69001380D01*
X119432000Y-68953761D01*
X119479619Y-68858523D01*
X119479619Y-68810904D01*
X119432000Y-68715666D01*
X119336761Y-68668047D01*
X119193904Y-68668047D01*
X119098666Y-68620428D01*
X119051047Y-68525190D01*
X119051047Y-68477571D01*
X119098666Y-68382333D01*
X119193904Y-68334714D01*
X119336761Y-68334714D01*
X119432000Y-68382333D01*
X120336761Y-68953761D02*
X120241523Y-69001380D01*
X120051047Y-69001380D01*
X119955809Y-68953761D01*
X119908190Y-68906142D01*
X119860571Y-68810904D01*
X119860571Y-68525190D01*
X119908190Y-68429952D01*
X119955809Y-68382333D01*
X120051047Y-68334714D01*
X120241523Y-68334714D01*
X120336761Y-68382333D01*
X120765333Y-69001380D02*
X120765333Y-68334714D01*
X120765333Y-68525190D02*
X120812952Y-68429952D01*
X120860571Y-68382333D01*
X120955809Y-68334714D01*
X121051047Y-68334714D01*
X121765333Y-68953761D02*
X121670095Y-69001380D01*
X121479619Y-69001380D01*
X121384380Y-68953761D01*
X121336761Y-68858523D01*
X121336761Y-68477571D01*
X121384380Y-68382333D01*
X121479619Y-68334714D01*
X121670095Y-68334714D01*
X121765333Y-68382333D01*
X121812952Y-68477571D01*
X121812952Y-68572809D01*
X121336761Y-68668047D01*
X122622476Y-68953761D02*
X122527238Y-69001380D01*
X122336761Y-69001380D01*
X122241523Y-68953761D01*
X122193904Y-68858523D01*
X122193904Y-68477571D01*
X122241523Y-68382333D01*
X122336761Y-68334714D01*
X122527238Y-68334714D01*
X122622476Y-68382333D01*
X122670095Y-68477571D01*
X122670095Y-68572809D01*
X122193904Y-68668047D01*
X123098666Y-68334714D02*
X123098666Y-69001380D01*
X123098666Y-68429952D02*
X123146285Y-68382333D01*
X123241523Y-68334714D01*
X123384380Y-68334714D01*
X123479619Y-68382333D01*
X123527238Y-68477571D01*
X123527238Y-69001380D01*
X124003428Y-68906142D02*
X124051047Y-68953761D01*
X124003428Y-69001380D01*
X123955809Y-68953761D01*
X124003428Y-68906142D01*
X124003428Y-69001380D01*
D14*
X161438095Y-78634380D02*
X161438095Y-77634380D01*
X161438095Y-78110571D02*
X162009523Y-78110571D01*
X162009523Y-78634380D02*
X162009523Y-77634380D01*
X162438095Y-77729619D02*
X162485714Y-77682000D01*
X162580952Y-77634380D01*
X162819047Y-77634380D01*
X162914285Y-77682000D01*
X162961904Y-77729619D01*
X163009523Y-77824857D01*
X163009523Y-77920095D01*
X162961904Y-78062952D01*
X162390476Y-78634380D01*
X163009523Y-78634380D01*
X161438095Y-55918380D02*
X161438095Y-54918380D01*
X161438095Y-55394571D02*
X162009523Y-55394571D01*
X162009523Y-55918380D02*
X162009523Y-54918380D01*
X162390476Y-54918380D02*
X163009523Y-54918380D01*
X162676190Y-55299333D01*
X162819047Y-55299333D01*
X162914285Y-55346952D01*
X162961904Y-55394571D01*
X163009523Y-55489809D01*
X163009523Y-55727904D01*
X162961904Y-55823142D01*
X162914285Y-55870761D01*
X162819047Y-55918380D01*
X162533333Y-55918380D01*
X162438095Y-55870761D01*
X162390476Y-55823142D01*
X158586666Y-72634761D02*
X158729523Y-72682380D01*
X158967619Y-72682380D01*
X159062857Y-72634761D01*
X159110476Y-72587142D01*
X159158095Y-72491904D01*
X159158095Y-72396666D01*
X159110476Y-72301428D01*
X159062857Y-72253809D01*
X158967619Y-72206190D01*
X158777142Y-72158571D01*
X158681904Y-72110952D01*
X158634285Y-72063333D01*
X158586666Y-71968095D01*
X158586666Y-71872857D01*
X158634285Y-71777619D01*
X158681904Y-71730000D01*
X158777142Y-71682380D01*
X159015238Y-71682380D01*
X159158095Y-71730000D01*
X159491428Y-71682380D02*
X159729523Y-72682380D01*
X159920000Y-71968095D01*
X160110476Y-72682380D01*
X160348571Y-71682380D01*
X161158095Y-71682380D02*
X160967619Y-71682380D01*
X160872380Y-71730000D01*
X160824761Y-71777619D01*
X160729523Y-71920476D01*
X160681904Y-72110952D01*
X160681904Y-72491904D01*
X160729523Y-72587142D01*
X160777142Y-72634761D01*
X160872380Y-72682380D01*
X161062857Y-72682380D01*
X161158095Y-72634761D01*
X161205714Y-72587142D01*
X161253333Y-72491904D01*
X161253333Y-72253809D01*
X161205714Y-72158571D01*
X161158095Y-72110952D01*
X161062857Y-72063333D01*
X160872380Y-72063333D01*
X160777142Y-72110952D01*
X160729523Y-72158571D01*
X160681904Y-72253809D01*
X143086666Y-67554761D02*
X143229523Y-67602380D01*
X143467619Y-67602380D01*
X143562857Y-67554761D01*
X143610476Y-67507142D01*
X143658095Y-67411904D01*
X143658095Y-67316666D01*
X143610476Y-67221428D01*
X143562857Y-67173809D01*
X143467619Y-67126190D01*
X143277142Y-67078571D01*
X143181904Y-67030952D01*
X143134285Y-66983333D01*
X143086666Y-66888095D01*
X143086666Y-66792857D01*
X143134285Y-66697619D01*
X143181904Y-66650000D01*
X143277142Y-66602380D01*
X143515238Y-66602380D01*
X143658095Y-66650000D01*
X143991428Y-66602380D02*
X144229523Y-67602380D01*
X144420000Y-66888095D01*
X144610476Y-67602380D01*
X144848571Y-66602380D01*
X145134285Y-66602380D02*
X145800952Y-66602380D01*
X145372380Y-67602380D01*
X87270095Y-79286380D02*
X87270095Y-78286380D01*
X87270095Y-78762571D02*
X87841523Y-78762571D01*
X87841523Y-79286380D02*
X87841523Y-78286380D01*
X88746285Y-78619714D02*
X88746285Y-79286380D01*
X88508190Y-78238761D02*
X88270095Y-78953047D01*
X88889142Y-78953047D01*
X90826095Y-52870380D02*
X90826095Y-51870380D01*
X90826095Y-52346571D02*
X91397523Y-52346571D01*
X91397523Y-52870380D02*
X91397523Y-51870380D01*
X92397523Y-52870380D02*
X91826095Y-52870380D01*
X92111809Y-52870380D02*
X92111809Y-51870380D01*
X92016571Y-52013238D01*
X91921333Y-52108476D01*
X91826095Y-52156095D01*
X158921904Y-60617380D02*
X158921904Y-59617380D01*
X159160000Y-59617380D01*
X159302857Y-59665000D01*
X159398095Y-59760238D01*
X159445714Y-59855476D01*
X159493333Y-60045952D01*
X159493333Y-60188809D01*
X159445714Y-60379285D01*
X159398095Y-60474523D01*
X159302857Y-60569761D01*
X159160000Y-60617380D01*
X158921904Y-60617380D01*
X160445714Y-60617380D02*
X159874285Y-60617380D01*
X160160000Y-60617380D02*
X160160000Y-59617380D01*
X160064761Y-59760238D01*
X159969523Y-59855476D01*
X159874285Y-59903095D01*
X95612380Y-67935714D02*
X95612380Y-67364285D01*
X96612380Y-67650000D02*
X95612380Y-67650000D01*
X96612380Y-67030952D02*
X95612380Y-67030952D01*
X95612380Y-66650000D01*
X95660000Y-66554761D01*
X95707619Y-66507142D01*
X95802857Y-66459523D01*
X95945714Y-66459523D01*
X96040952Y-66507142D01*
X96088571Y-66554761D01*
X96136190Y-66650000D01*
X96136190Y-67030952D01*
X153016380Y-52671904D02*
X153825904Y-52671904D01*
X153921142Y-52624285D01*
X153968761Y-52576666D01*
X154016380Y-52481428D01*
X154016380Y-52290952D01*
X153968761Y-52195714D01*
X153921142Y-52148095D01*
X153825904Y-52100476D01*
X153016380Y-52100476D01*
X153016380Y-51719523D02*
X153016380Y-51100476D01*
X153397333Y-51433809D01*
X153397333Y-51290952D01*
X153444952Y-51195714D01*
X153492571Y-51148095D01*
X153587809Y-51100476D01*
X153825904Y-51100476D01*
X153921142Y-51148095D01*
X153968761Y-51195714D01*
X154016380Y-51290952D01*
X154016380Y-51576666D01*
X153968761Y-51671904D01*
X153921142Y-51719523D01*
X113098666Y-82810380D02*
X113098666Y-83524666D01*
X113051047Y-83667523D01*
X112955809Y-83762761D01*
X112812952Y-83810380D01*
X112717714Y-83810380D01*
X113527238Y-82905619D02*
X113574857Y-82858000D01*
X113670095Y-82810380D01*
X113908190Y-82810380D01*
X114003428Y-82858000D01*
X114051047Y-82905619D01*
X114098666Y-83000857D01*
X114098666Y-83096095D01*
X114051047Y-83238952D01*
X113479619Y-83810380D01*
X114098666Y-83810380D01*
X100565333Y-72556380D02*
X100232000Y-72080190D01*
X99993904Y-72556380D02*
X99993904Y-71556380D01*
X100374857Y-71556380D01*
X100470095Y-71604000D01*
X100517714Y-71651619D01*
X100565333Y-71746857D01*
X100565333Y-71889714D01*
X100517714Y-71984952D01*
X100470095Y-72032571D01*
X100374857Y-72080190D01*
X99993904Y-72080190D01*
X101517714Y-72556380D02*
X100946285Y-72556380D01*
X101232000Y-72556380D02*
X101232000Y-71556380D01*
X101136761Y-71699238D01*
X101041523Y-71794476D01*
X100946285Y-71842095D01*
D15*
X163420000Y-72900000D02*
X163420000Y-71400000D01*
X156420000Y-71400000D02*
X156420000Y-72900000D01*
X162170000Y-68900000D02*
X157670000Y-68900000D01*
X157670000Y-75400000D02*
X162170000Y-75400000D01*
D14*
X148170000Y-67150000D02*
G75*
G03*
X148170000Y-67150000I-3750000J0D01*
G01*
D15*
X156010000Y-62788000D02*
X163310000Y-62788000D01*
X156010000Y-57288000D02*
X163310000Y-57288000D01*
X163310000Y-62788000D02*
X163310000Y-61638000D01*
D14*
X97792000Y-69450000D02*
X97292000Y-68950000D01*
X98592000Y-64850000D02*
X99092000Y-65350000D01*
X99092000Y-68950000D02*
X98592000Y-69450000D01*
X97792000Y-64850000D02*
X98592000Y-64850000D01*
X98592000Y-69450000D02*
X97792000Y-69450000D01*
X97292000Y-68950000D02*
X97292000Y-65350000D01*
X99092000Y-65350000D02*
X99092000Y-68950000D01*
X97292000Y-65350000D02*
X97792000Y-64850000D01*
D12*
X154564000Y-53125000D02*
X154564000Y-52800000D01*
X154564000Y-52800000D02*
X154264000Y-52800000D01*
X152889000Y-52800000D02*
X152564000Y-53025000D01*
X152564000Y-53025000D02*
X152564000Y-53125000D01*
X152564000Y-56100000D02*
X152864000Y-56100000D01*
X154564000Y-56100000D02*
X154239000Y-56100000D01*
X152564000Y-55775000D02*
X152564000Y-56100000D01*
X152889000Y-52800000D02*
X153264000Y-52800000D01*
X152564000Y-53125000D02*
X152039000Y-53125000D01*
X154564000Y-55800000D02*
X154564000Y-56100000D01*
D14*
X95732000Y-50908000D02*
X131132000Y-50908000D01*
X131132000Y-50908000D02*
X131132000Y-84408000D01*
X95732000Y-50908000D02*
X95732000Y-84408000D01*
X95732000Y-84408000D02*
X131132000Y-84408000D01*
D15*
X100473422Y-73044000D02*
X100990578Y-73044000D01*
X100473422Y-74464000D02*
X100990578Y-74464000D01*
%LPC*%
D16*
X162200000Y-81882000D03*
X162200000Y-52418000D03*
D17*
X156670000Y-69900000D03*
X163170000Y-69900000D03*
X163170000Y-74400000D03*
X156670000Y-74400000D03*
X141920000Y-74650000D03*
X146920000Y-74650000D03*
X144420000Y-74650000D03*
D18*
X149500000Y-67150000D03*
X139340000Y-67150000D03*
D17*
X141920000Y-60150000D03*
X146920000Y-60150000D03*
D16*
X88032000Y-81882000D03*
X88032000Y-52418000D03*
D19*
X157210000Y-58438000D03*
X157210000Y-61638000D03*
X162110000Y-61638000D03*
X162110000Y-58438000D03*
D20*
X98192000Y-65880000D03*
X98192000Y-68420000D03*
D21*
X152214000Y-53500000D03*
X152214000Y-54450000D03*
X152214000Y-55400000D03*
X154914000Y-55400000D03*
X154914000Y-53500000D03*
D22*
X109622000Y-53108000D03*
X112162000Y-53108000D03*
X114702000Y-53108000D03*
X117242000Y-53108000D03*
D23*
X99794500Y-73754000D03*
X101669500Y-73754000D03*
D24*
X117232000Y-81882000D03*
D25*
X114692000Y-81882000D03*
X112152000Y-81882000D03*
X109612000Y-81882000D03*
D17*
X147670000Y-78108000D03*
X141170000Y-78108000D03*
X147670000Y-82608000D03*
X141170000Y-82608000D03*
D26*
X158385000Y-65118000D03*
D25*
X160925000Y-65118000D03*
D27*
X86384000Y-64675000D03*
X86384000Y-70125000D03*
D28*
X89414000Y-64975000D03*
X89414000Y-69825000D03*
D25*
X86254000Y-58510000D03*
X88794000Y-58510000D03*
D26*
X91334000Y-58510000D03*
D25*
X93874000Y-58510000D03*
X96414000Y-58510000D03*
X98954000Y-58510000D03*
X101494000Y-58510000D03*
D26*
X104034000Y-58510000D03*
D25*
X106574000Y-58510000D03*
X109114000Y-58510000D03*
X111654000Y-58510000D03*
X114194000Y-58510000D03*
D26*
X116734000Y-58510000D03*
D25*
X119274000Y-58510000D03*
X121814000Y-58510000D03*
X124354000Y-58510000D03*
X126894000Y-58510000D03*
D26*
X129434000Y-58510000D03*
D25*
X131974000Y-58510000D03*
X134514000Y-58510000D03*
X134514000Y-76290000D03*
X131974000Y-76290000D03*
D26*
X129434000Y-76290000D03*
D25*
X126894000Y-76290000D03*
X124354000Y-76290000D03*
X121814000Y-76290000D03*
X119274000Y-76290000D03*
D26*
X116734000Y-76290000D03*
D25*
X114194000Y-76290000D03*
X111654000Y-76290000D03*
X109114000Y-76290000D03*
X106574000Y-76290000D03*
D26*
X104034000Y-76290000D03*
D25*
X101494000Y-76290000D03*
X98954000Y-76290000D03*
X96414000Y-76290000D03*
X93874000Y-76290000D03*
D26*
X91334000Y-76290000D03*
D25*
X88794000Y-76290000D03*
X86254000Y-76290000D03*
X134284000Y-64860000D03*
D26*
X134284000Y-67400000D03*
D25*
X134284000Y-69940000D03*
M02*
