G04 #@! TF.GenerationSoftware,KiCad,Pcbnew,(6.0.1-0)*
G04 #@! TF.CreationDate,2022-02-27T22:00:48+07:00*
G04 #@! TF.ProjectId,V0_Display,56305f44-6973-4706-9c61-792e6b696361,rev?*
G04 #@! TF.SameCoordinates,Original*
G04 #@! TF.FileFunction,Soldermask,Top*
G04 #@! TF.FilePolarity,Negative*
%FSLAX46Y46*%
G04 Gerber Fmt 4.6, Leading zero omitted, Abs format (unit mm)*
G04 Created by KiCad (PCBNEW (6.0.1-0)) date 2022-02-27 22:00:48*
%MOMM*%
%LPD*%
G01*
G04 APERTURE LIST*
G04 Aperture macros list*
%AMRoundRect*
0 Rectangle with rounded corners*
0 $1 Rounding radius*
0 $2 $3 $4 $5 $6 $7 $8 $9 X,Y pos of 4 corners*
0 Add a 4 corners polygon primitive as box body*
4,1,4,$2,$3,$4,$5,$6,$7,$8,$9,$2,$3,0*
0 Add four circle primitives for the rounded corners*
1,1,$1+$1,$2,$3*
1,1,$1+$1,$4,$5*
1,1,$1+$1,$6,$7*
1,1,$1+$1,$8,$9*
0 Add four rect primitives between the rounded corners*
20,1,$1+$1,$2,$3,$4,$5,0*
20,1,$1+$1,$4,$5,$6,$7,0*
20,1,$1+$1,$6,$7,$8,$9,0*
20,1,$1+$1,$8,$9,$2,$3,0*%
G04 Aperture macros list end*
G04 #@! TA.AperFunction,Profile*
%ADD10C,0.050000*%
G04 #@! TD*
%ADD11C,2.802000*%
%ADD12C,2.102000*%
%ADD13O,2.602000X4.102000*%
%ADD14RoundRect,0.051000X-0.750000X-0.500000X0.750000X-0.500000X0.750000X0.500000X-0.750000X0.500000X0*%
%ADD15C,1.502000*%
%ADD16RoundRect,0.070000X-0.525000X0.300000X-0.525000X-0.300000X0.525000X-0.300000X0.525000X0.300000X0*%
%ADD17C,1.626000*%
%ADD18RoundRect,0.294750X-0.243750X-0.456250X0.243750X-0.456250X0.243750X0.456250X-0.243750X0.456250X0*%
%ADD19RoundRect,0.051000X0.850000X-0.850000X0.850000X0.850000X-0.850000X0.850000X-0.850000X-0.850000X0*%
%ADD20O,1.802000X1.802000*%
%ADD21RoundRect,0.051000X-0.850000X0.850000X-0.850000X-0.850000X0.850000X-0.850000X0.850000X0.850000X0*%
%ADD22O,1.902000X1.902000*%
%ADD23O,1.602000X1.602000*%
G04 APERTURE END LIST*
D10*
X85170000Y-61562000D02*
X85170000Y-49650000D01*
X165170000Y-84650000D02*
X85170000Y-84650000D01*
X85170000Y-84650000D02*
X85170000Y-72738000D01*
X85170000Y-61562000D02*
X95144000Y-61562000D01*
X85170000Y-72738000D02*
X95144000Y-72738000D01*
X95144000Y-61562000D02*
X95144000Y-72738000D01*
X85170000Y-49650000D02*
X165170000Y-49650000D01*
X165170000Y-49650000D02*
X165170000Y-84650000D01*
X85170000Y-61562000D02*
X85170000Y-49650000D01*
X165170000Y-84650000D02*
X85170000Y-84650000D01*
X85170000Y-84650000D02*
X85170000Y-72738000D01*
X85170000Y-61562000D02*
X95144000Y-61562000D01*
X85170000Y-72738000D02*
X95144000Y-72738000D01*
X95144000Y-61562000D02*
X95144000Y-72738000D01*
X85170000Y-49650000D02*
X165170000Y-49650000D01*
X165170000Y-49650000D02*
X165170000Y-84650000D01*
D11*
X162200000Y-81882000D03*
X162200000Y-52418000D03*
D12*
X156670000Y-69900000D03*
X163170000Y-69900000D03*
X163170000Y-74400000D03*
X156670000Y-74400000D03*
X141920000Y-74650000D03*
X146920000Y-74650000D03*
X144420000Y-74650000D03*
D13*
X149500000Y-67150000D03*
X139340000Y-67150000D03*
D12*
X141920000Y-60150000D03*
X146920000Y-60150000D03*
D11*
X88032000Y-81882000D03*
X88032000Y-52418000D03*
D14*
X157210000Y-58438000D03*
X157210000Y-61638000D03*
X162110000Y-61638000D03*
X162110000Y-58438000D03*
D15*
X98192000Y-65626000D03*
X98192000Y-68166000D03*
D16*
X152214000Y-53500000D03*
X152214000Y-54450000D03*
X152214000Y-55400000D03*
X154914000Y-55400000D03*
X154914000Y-53500000D03*
D17*
X109622000Y-53108000D03*
X112162000Y-53108000D03*
X114702000Y-53108000D03*
X117242000Y-53108000D03*
D18*
X99794500Y-73754000D03*
X101669500Y-73754000D03*
D19*
X117232000Y-81882000D03*
D20*
X114692000Y-81882000D03*
X112152000Y-81882000D03*
X109612000Y-81882000D03*
D12*
X147670000Y-78108000D03*
X141170000Y-78108000D03*
X147670000Y-82608000D03*
X141170000Y-82608000D03*
D21*
X158385000Y-65118000D03*
D20*
X160925000Y-65118000D03*
D22*
X86384000Y-64675000D03*
X86384000Y-70125000D03*
D23*
X89414000Y-64975000D03*
X89414000Y-69825000D03*
D20*
X86254000Y-58510000D03*
X88794000Y-58510000D03*
D21*
X91334000Y-58510000D03*
D20*
X93874000Y-58510000D03*
X96414000Y-58510000D03*
X98954000Y-58510000D03*
X101494000Y-58510000D03*
D21*
X104034000Y-58510000D03*
D20*
X106574000Y-58510000D03*
X109114000Y-58510000D03*
X111654000Y-58510000D03*
X114194000Y-58510000D03*
D21*
X116734000Y-58510000D03*
D20*
X119274000Y-58510000D03*
X121814000Y-58510000D03*
X124354000Y-58510000D03*
X126894000Y-58510000D03*
D21*
X129434000Y-58510000D03*
D20*
X131974000Y-58510000D03*
X134514000Y-58510000D03*
X134514000Y-76290000D03*
X131974000Y-76290000D03*
D21*
X129434000Y-76290000D03*
D20*
X126894000Y-76290000D03*
X124354000Y-76290000D03*
X121814000Y-76290000D03*
X119274000Y-76290000D03*
D21*
X116734000Y-76290000D03*
D20*
X114194000Y-76290000D03*
X111654000Y-76290000D03*
X109114000Y-76290000D03*
X106574000Y-76290000D03*
D21*
X104034000Y-76290000D03*
D20*
X101494000Y-76290000D03*
X98954000Y-76290000D03*
X96414000Y-76290000D03*
X93874000Y-76290000D03*
D21*
X91334000Y-76290000D03*
D20*
X88794000Y-76290000D03*
X86254000Y-76290000D03*
X134284000Y-64860000D03*
D21*
X134284000Y-67400000D03*
D20*
X134284000Y-69940000D03*
G36*
X152761135Y-54814578D02*
G01*
X152761525Y-54816540D01*
X152760742Y-54817560D01*
X152753245Y-54822569D01*
X152708638Y-54875946D01*
X152700007Y-54944661D01*
X152729972Y-55007291D01*
X152753107Y-55027339D01*
X152760742Y-55032440D01*
X152761627Y-55034234D01*
X152760516Y-55035897D01*
X152759241Y-55036065D01*
X152738801Y-55032000D01*
X151689199Y-55032000D01*
X151668759Y-55036065D01*
X151666865Y-55035422D01*
X151666475Y-55033460D01*
X151667258Y-55032440D01*
X151674755Y-55027431D01*
X151719362Y-54974054D01*
X151727993Y-54905339D01*
X151698028Y-54842709D01*
X151674893Y-54822661D01*
X151667258Y-54817560D01*
X151666373Y-54815766D01*
X151667484Y-54814103D01*
X151668759Y-54813935D01*
X151689199Y-54818000D01*
X152738801Y-54818000D01*
X152759241Y-54813935D01*
X152761135Y-54814578D01*
G37*
G36*
X152761135Y-53864578D02*
G01*
X152761525Y-53866540D01*
X152760742Y-53867560D01*
X152753245Y-53872569D01*
X152708638Y-53925946D01*
X152700007Y-53994661D01*
X152729972Y-54057291D01*
X152753107Y-54077339D01*
X152760742Y-54082440D01*
X152761627Y-54084234D01*
X152760516Y-54085897D01*
X152759241Y-54086065D01*
X152738801Y-54082000D01*
X151689199Y-54082000D01*
X151668759Y-54086065D01*
X151666865Y-54085422D01*
X151666475Y-54083460D01*
X151667258Y-54082440D01*
X151674755Y-54077431D01*
X151719362Y-54024054D01*
X151727993Y-53955339D01*
X151698028Y-53892709D01*
X151674893Y-53872661D01*
X151667258Y-53867560D01*
X151666373Y-53865766D01*
X151667484Y-53864103D01*
X151668759Y-53863935D01*
X151689199Y-53868000D01*
X152738801Y-53868000D01*
X152759241Y-53863935D01*
X152761135Y-53864578D01*
G37*
M02*
