G04 #@! TF.GenerationSoftware,KiCad,Pcbnew,(5.1.5)-3*
G04 #@! TF.CreationDate,2021-06-02T01:16:35-04:00*
G04 #@! TF.ProjectId,Toolhead_PCB,546f6f6c-6865-4616-945f-5043422e6b69,rev?*
G04 #@! TF.SameCoordinates,Original*
G04 #@! TF.FileFunction,Soldermask,Top*
G04 #@! TF.FilePolarity,Negative*
%FSLAX46Y46*%
G04 Gerber Fmt 4.6, Leading zero omitted, Abs format (unit mm)*
G04 Created by KiCad (PCBNEW (5.1.5)-3) date 2021-06-02 01:16:35*
%MOMM*%
%LPD*%
G04 APERTURE LIST*
%ADD10C,0.100000*%
G04 APERTURE END LIST*
D10*
G36*
X85611627Y-106582037D02*
G01*
X85781466Y-106633557D01*
X85937991Y-106717222D01*
X85961359Y-106736400D01*
X86075186Y-106829814D01*
X86158448Y-106931271D01*
X86187778Y-106967009D01*
X86271443Y-107123534D01*
X86322963Y-107293374D01*
X86336000Y-107425743D01*
X86336000Y-107814258D01*
X86322963Y-107946627D01*
X86271443Y-108116466D01*
X86187778Y-108272991D01*
X86158448Y-108308729D01*
X86075186Y-108410186D01*
X85937989Y-108522779D01*
X85805120Y-108593799D01*
X85781465Y-108606443D01*
X85611626Y-108657963D01*
X85435000Y-108675359D01*
X85258373Y-108657963D01*
X85088534Y-108606443D01*
X84932009Y-108522778D01*
X84882822Y-108482411D01*
X84794814Y-108410186D01*
X84682221Y-108272989D01*
X84598558Y-108116467D01*
X84598557Y-108116465D01*
X84547037Y-107946626D01*
X84534000Y-107814257D01*
X84534000Y-107425742D01*
X84547037Y-107293373D01*
X84598557Y-107123534D01*
X84682222Y-106967009D01*
X84794815Y-106829815D01*
X84932010Y-106717222D01*
X85088535Y-106633557D01*
X85258374Y-106582037D01*
X85435000Y-106564641D01*
X85611627Y-106582037D01*
G37*
G36*
X112281627Y-106582037D02*
G01*
X112451466Y-106633557D01*
X112607991Y-106717222D01*
X112631359Y-106736400D01*
X112745186Y-106829814D01*
X112828448Y-106931271D01*
X112857778Y-106967009D01*
X112941443Y-107123534D01*
X112992963Y-107293374D01*
X113006000Y-107425743D01*
X113006000Y-107814258D01*
X112992963Y-107946627D01*
X112941443Y-108116466D01*
X112857778Y-108272991D01*
X112828448Y-108308729D01*
X112745186Y-108410186D01*
X112607989Y-108522779D01*
X112475120Y-108593799D01*
X112451465Y-108606443D01*
X112281626Y-108657963D01*
X112105000Y-108675359D01*
X111928373Y-108657963D01*
X111758534Y-108606443D01*
X111602009Y-108522778D01*
X111552822Y-108482411D01*
X111464814Y-108410186D01*
X111352221Y-108272989D01*
X111268558Y-108116467D01*
X111268557Y-108116465D01*
X111217037Y-107946626D01*
X111204000Y-107814257D01*
X111204000Y-107425742D01*
X111217037Y-107293373D01*
X111268557Y-107123534D01*
X111352222Y-106967009D01*
X111464815Y-106829815D01*
X111602010Y-106717222D01*
X111758535Y-106633557D01*
X111928374Y-106582037D01*
X112105000Y-106564641D01*
X112281627Y-106582037D01*
G37*
G36*
X88693600Y-106572989D02*
G01*
X88726652Y-106583015D01*
X88757103Y-106599292D01*
X88783799Y-106621201D01*
X88805708Y-106647897D01*
X88821985Y-106678348D01*
X88832011Y-106711400D01*
X88836000Y-106751903D01*
X88836000Y-108488097D01*
X88832011Y-108528600D01*
X88821985Y-108561652D01*
X88805708Y-108592103D01*
X88783799Y-108618799D01*
X88757103Y-108640708D01*
X88726652Y-108656985D01*
X88693600Y-108667011D01*
X88653097Y-108671000D01*
X87216903Y-108671000D01*
X87176400Y-108667011D01*
X87143348Y-108656985D01*
X87112897Y-108640708D01*
X87086201Y-108618799D01*
X87064292Y-108592103D01*
X87048015Y-108561652D01*
X87037989Y-108528600D01*
X87034000Y-108488097D01*
X87034000Y-106751903D01*
X87037989Y-106711400D01*
X87048015Y-106678348D01*
X87064292Y-106647897D01*
X87086201Y-106621201D01*
X87112897Y-106599292D01*
X87143348Y-106583015D01*
X87176400Y-106572989D01*
X87216903Y-106569000D01*
X88653097Y-106569000D01*
X88693600Y-106572989D01*
G37*
G36*
X115363600Y-106572989D02*
G01*
X115396652Y-106583015D01*
X115427103Y-106599292D01*
X115453799Y-106621201D01*
X115475708Y-106647897D01*
X115491985Y-106678348D01*
X115502011Y-106711400D01*
X115506000Y-106751903D01*
X115506000Y-108488097D01*
X115502011Y-108528600D01*
X115491985Y-108561652D01*
X115475708Y-108592103D01*
X115453799Y-108618799D01*
X115427103Y-108640708D01*
X115396652Y-108656985D01*
X115363600Y-108667011D01*
X115323097Y-108671000D01*
X113886903Y-108671000D01*
X113846400Y-108667011D01*
X113813348Y-108656985D01*
X113782897Y-108640708D01*
X113756201Y-108618799D01*
X113734292Y-108592103D01*
X113718015Y-108561652D01*
X113707989Y-108528600D01*
X113704000Y-108488097D01*
X113704000Y-106751903D01*
X113707989Y-106711400D01*
X113718015Y-106678348D01*
X113734292Y-106647897D01*
X113756201Y-106621201D01*
X113782897Y-106599292D01*
X113813348Y-106583015D01*
X113846400Y-106572989D01*
X113886903Y-106569000D01*
X115323097Y-106569000D01*
X115363600Y-106572989D01*
G37*
G36*
X96446627Y-106607037D02*
G01*
X96616466Y-106658557D01*
X96772991Y-106742222D01*
X96808729Y-106771552D01*
X96910186Y-106854814D01*
X96993448Y-106956271D01*
X97022778Y-106992009D01*
X97106443Y-107148534D01*
X97157963Y-107318374D01*
X97157963Y-107318376D01*
X97168538Y-107425740D01*
X97171000Y-107450743D01*
X97171000Y-107789258D01*
X97157963Y-107921627D01*
X97106443Y-108091466D01*
X97022778Y-108247991D01*
X97002262Y-108272990D01*
X96910186Y-108385186D01*
X96772989Y-108497779D01*
X96616467Y-108581442D01*
X96616465Y-108581443D01*
X96446626Y-108632963D01*
X96270000Y-108650359D01*
X96093373Y-108632963D01*
X95923534Y-108581443D01*
X95767009Y-108497778D01*
X95718173Y-108457699D01*
X95629814Y-108385186D01*
X95517221Y-108247989D01*
X95433558Y-108091467D01*
X95433557Y-108091465D01*
X95382037Y-107921626D01*
X95375518Y-107855441D01*
X95369000Y-107789259D01*
X95369000Y-107450740D01*
X95382037Y-107318375D01*
X95382037Y-107318373D01*
X95433557Y-107148534D01*
X95517222Y-106992009D01*
X95629815Y-106854815D01*
X95767010Y-106742222D01*
X95923535Y-106658557D01*
X96093374Y-106607037D01*
X96270000Y-106589641D01*
X96446627Y-106607037D01*
G37*
G36*
X98946627Y-106607037D02*
G01*
X99116466Y-106658557D01*
X99272991Y-106742222D01*
X99308729Y-106771552D01*
X99410186Y-106854814D01*
X99493448Y-106956271D01*
X99522778Y-106992009D01*
X99606443Y-107148534D01*
X99657963Y-107318374D01*
X99657963Y-107318376D01*
X99668538Y-107425740D01*
X99671000Y-107450743D01*
X99671000Y-107789258D01*
X99657963Y-107921627D01*
X99606443Y-108091466D01*
X99522778Y-108247991D01*
X99502262Y-108272990D01*
X99410186Y-108385186D01*
X99272989Y-108497779D01*
X99116467Y-108581442D01*
X99116465Y-108581443D01*
X98946626Y-108632963D01*
X98770000Y-108650359D01*
X98593373Y-108632963D01*
X98423534Y-108581443D01*
X98267009Y-108497778D01*
X98218173Y-108457699D01*
X98129814Y-108385186D01*
X98017221Y-108247989D01*
X97933558Y-108091467D01*
X97933557Y-108091465D01*
X97882037Y-107921626D01*
X97875518Y-107855441D01*
X97869000Y-107789259D01*
X97869000Y-107450740D01*
X97882037Y-107318375D01*
X97882037Y-107318373D01*
X97933557Y-107148534D01*
X98017222Y-106992009D01*
X98129815Y-106854815D01*
X98267010Y-106742222D01*
X98423535Y-106658557D01*
X98593374Y-106607037D01*
X98770000Y-106589641D01*
X98946627Y-106607037D01*
G37*
G36*
X101446627Y-106607037D02*
G01*
X101616466Y-106658557D01*
X101772991Y-106742222D01*
X101808729Y-106771552D01*
X101910186Y-106854814D01*
X101993448Y-106956271D01*
X102022778Y-106992009D01*
X102106443Y-107148534D01*
X102157963Y-107318374D01*
X102157963Y-107318376D01*
X102168538Y-107425740D01*
X102171000Y-107450743D01*
X102171000Y-107789258D01*
X102157963Y-107921627D01*
X102106443Y-108091466D01*
X102022778Y-108247991D01*
X102002262Y-108272990D01*
X101910186Y-108385186D01*
X101772989Y-108497779D01*
X101616467Y-108581442D01*
X101616465Y-108581443D01*
X101446626Y-108632963D01*
X101270000Y-108650359D01*
X101093373Y-108632963D01*
X100923534Y-108581443D01*
X100767009Y-108497778D01*
X100718173Y-108457699D01*
X100629814Y-108385186D01*
X100517221Y-108247989D01*
X100433558Y-108091467D01*
X100433557Y-108091465D01*
X100382037Y-107921626D01*
X100375518Y-107855441D01*
X100369000Y-107789259D01*
X100369000Y-107450740D01*
X100382037Y-107318375D01*
X100382037Y-107318373D01*
X100433557Y-107148534D01*
X100517222Y-106992009D01*
X100629815Y-106854815D01*
X100767010Y-106742222D01*
X100923535Y-106658557D01*
X101093374Y-106607037D01*
X101270000Y-106589641D01*
X101446627Y-106607037D01*
G37*
G36*
X104528600Y-106597989D02*
G01*
X104561652Y-106608015D01*
X104592103Y-106624292D01*
X104618799Y-106646201D01*
X104640708Y-106672897D01*
X104656985Y-106703348D01*
X104667011Y-106736400D01*
X104671000Y-106776903D01*
X104671000Y-108463097D01*
X104667011Y-108503600D01*
X104656985Y-108536652D01*
X104640708Y-108567103D01*
X104618799Y-108593799D01*
X104592103Y-108615708D01*
X104561652Y-108631985D01*
X104528600Y-108642011D01*
X104488097Y-108646000D01*
X103051903Y-108646000D01*
X103011400Y-108642011D01*
X102978348Y-108631985D01*
X102947897Y-108615708D01*
X102921201Y-108593799D01*
X102899292Y-108567103D01*
X102883015Y-108536652D01*
X102872989Y-108503600D01*
X102869000Y-108463097D01*
X102869000Y-106776903D01*
X102872989Y-106736400D01*
X102883015Y-106703348D01*
X102899292Y-106672897D01*
X102921201Y-106646201D01*
X102947897Y-106624292D01*
X102978348Y-106608015D01*
X103011400Y-106597989D01*
X103051903Y-106594000D01*
X104488097Y-106594000D01*
X104528600Y-106597989D01*
G37*
G36*
X122295256Y-98391298D02*
G01*
X122401579Y-98412447D01*
X122702042Y-98536903D01*
X122972451Y-98717585D01*
X123202415Y-98947549D01*
X123383097Y-99217958D01*
X123501387Y-99503534D01*
X123507553Y-99518422D01*
X123571000Y-99837389D01*
X123571000Y-100162611D01*
X123538375Y-100326625D01*
X123507553Y-100481579D01*
X123383097Y-100782042D01*
X123202415Y-101052451D01*
X122972451Y-101282415D01*
X122702042Y-101463097D01*
X122401579Y-101587553D01*
X122295256Y-101608702D01*
X122082611Y-101651000D01*
X121757389Y-101651000D01*
X121544744Y-101608702D01*
X121438421Y-101587553D01*
X121137958Y-101463097D01*
X120867549Y-101282415D01*
X120637585Y-101052451D01*
X120456903Y-100782042D01*
X120332447Y-100481579D01*
X120301625Y-100326625D01*
X120269000Y-100162611D01*
X120269000Y-99837389D01*
X120332447Y-99518422D01*
X120338614Y-99503534D01*
X120456903Y-99217958D01*
X120637585Y-98947549D01*
X120867549Y-98717585D01*
X121137958Y-98536903D01*
X121438421Y-98412447D01*
X121544744Y-98391298D01*
X121757389Y-98349000D01*
X122082611Y-98349000D01*
X122295256Y-98391298D01*
G37*
G36*
X78455256Y-98391298D02*
G01*
X78561579Y-98412447D01*
X78862042Y-98536903D01*
X79132451Y-98717585D01*
X79362415Y-98947549D01*
X79543097Y-99217958D01*
X79661387Y-99503534D01*
X79667553Y-99518422D01*
X79731000Y-99837389D01*
X79731000Y-100162611D01*
X79698375Y-100326625D01*
X79667553Y-100481579D01*
X79543097Y-100782042D01*
X79362415Y-101052451D01*
X79132451Y-101282415D01*
X78862042Y-101463097D01*
X78561579Y-101587553D01*
X78455256Y-101608702D01*
X78242611Y-101651000D01*
X77917389Y-101651000D01*
X77704744Y-101608702D01*
X77598421Y-101587553D01*
X77297958Y-101463097D01*
X77027549Y-101282415D01*
X76797585Y-101052451D01*
X76616903Y-100782042D01*
X76492447Y-100481579D01*
X76461625Y-100326625D01*
X76429000Y-100162611D01*
X76429000Y-99837389D01*
X76492447Y-99518422D01*
X76498614Y-99503534D01*
X76616903Y-99217958D01*
X76797585Y-98947549D01*
X77027549Y-98717585D01*
X77297958Y-98536903D01*
X77598421Y-98412447D01*
X77704744Y-98391298D01*
X77917389Y-98349000D01*
X78242611Y-98349000D01*
X78455256Y-98391298D01*
G37*
G36*
X85611627Y-98962037D02*
G01*
X85781466Y-99013557D01*
X85937991Y-99097222D01*
X85973729Y-99126552D01*
X86075186Y-99209814D01*
X86158448Y-99311271D01*
X86187778Y-99347009D01*
X86271443Y-99503534D01*
X86322963Y-99673374D01*
X86336000Y-99805743D01*
X86336000Y-100194258D01*
X86322963Y-100326627D01*
X86271443Y-100496466D01*
X86187778Y-100652991D01*
X86158448Y-100688729D01*
X86075186Y-100790186D01*
X85937989Y-100902779D01*
X85781467Y-100986442D01*
X85781465Y-100986443D01*
X85611626Y-101037963D01*
X85435000Y-101055359D01*
X85258373Y-101037963D01*
X85088534Y-100986443D01*
X84932009Y-100902778D01*
X84889750Y-100868097D01*
X84794814Y-100790186D01*
X84682221Y-100652989D01*
X84598558Y-100496467D01*
X84598557Y-100496465D01*
X84547037Y-100326626D01*
X84534000Y-100194257D01*
X84534000Y-99805742D01*
X84547037Y-99673373D01*
X84598557Y-99503534D01*
X84682222Y-99347009D01*
X84794815Y-99209815D01*
X84932010Y-99097222D01*
X85088535Y-99013557D01*
X85258374Y-98962037D01*
X85435000Y-98944641D01*
X85611627Y-98962037D01*
G37*
G36*
X94501627Y-98962037D02*
G01*
X94671466Y-99013557D01*
X94827991Y-99097222D01*
X94863729Y-99126552D01*
X94965186Y-99209814D01*
X95048448Y-99311271D01*
X95077778Y-99347009D01*
X95161443Y-99503534D01*
X95212963Y-99673374D01*
X95226000Y-99805743D01*
X95226000Y-100194258D01*
X95212963Y-100326627D01*
X95161443Y-100496466D01*
X95077778Y-100652991D01*
X95048448Y-100688729D01*
X94965186Y-100790186D01*
X94827989Y-100902779D01*
X94671467Y-100986442D01*
X94671465Y-100986443D01*
X94501626Y-101037963D01*
X94325000Y-101055359D01*
X94148373Y-101037963D01*
X93978534Y-100986443D01*
X93822009Y-100902778D01*
X93779750Y-100868097D01*
X93684814Y-100790186D01*
X93572221Y-100652989D01*
X93488558Y-100496467D01*
X93488557Y-100496465D01*
X93437037Y-100326626D01*
X93424000Y-100194257D01*
X93424000Y-99805742D01*
X93437037Y-99673373D01*
X93488557Y-99503534D01*
X93572222Y-99347009D01*
X93684815Y-99209815D01*
X93822010Y-99097222D01*
X93978535Y-99013557D01*
X94148374Y-98962037D01*
X94325000Y-98944641D01*
X94501627Y-98962037D01*
G37*
G36*
X103351627Y-98962037D02*
G01*
X103521466Y-99013557D01*
X103677991Y-99097222D01*
X103713729Y-99126552D01*
X103815186Y-99209814D01*
X103898448Y-99311271D01*
X103927778Y-99347009D01*
X104011443Y-99503534D01*
X104062963Y-99673374D01*
X104076000Y-99805743D01*
X104076000Y-100194258D01*
X104062963Y-100326627D01*
X104011443Y-100496466D01*
X103927778Y-100652991D01*
X103898448Y-100688729D01*
X103815186Y-100790186D01*
X103677989Y-100902779D01*
X103521467Y-100986442D01*
X103521465Y-100986443D01*
X103351626Y-101037963D01*
X103175000Y-101055359D01*
X102998373Y-101037963D01*
X102828534Y-100986443D01*
X102672009Y-100902778D01*
X102629750Y-100868097D01*
X102534814Y-100790186D01*
X102422221Y-100652989D01*
X102338558Y-100496467D01*
X102338557Y-100496465D01*
X102287037Y-100326626D01*
X102274000Y-100194257D01*
X102274000Y-99805742D01*
X102287037Y-99673373D01*
X102338557Y-99503534D01*
X102422222Y-99347009D01*
X102534815Y-99209815D01*
X102672010Y-99097222D01*
X102828535Y-99013557D01*
X102998374Y-98962037D01*
X103175000Y-98944641D01*
X103351627Y-98962037D01*
G37*
G36*
X112281627Y-98962037D02*
G01*
X112451466Y-99013557D01*
X112607991Y-99097222D01*
X112643729Y-99126552D01*
X112745186Y-99209814D01*
X112828448Y-99311271D01*
X112857778Y-99347009D01*
X112941443Y-99503534D01*
X112992963Y-99673374D01*
X113006000Y-99805743D01*
X113006000Y-100194258D01*
X112992963Y-100326627D01*
X112941443Y-100496466D01*
X112857778Y-100652991D01*
X112828448Y-100688729D01*
X112745186Y-100790186D01*
X112607989Y-100902779D01*
X112451467Y-100986442D01*
X112451465Y-100986443D01*
X112281626Y-101037963D01*
X112105000Y-101055359D01*
X111928373Y-101037963D01*
X111758534Y-100986443D01*
X111602009Y-100902778D01*
X111559750Y-100868097D01*
X111464814Y-100790186D01*
X111352221Y-100652989D01*
X111268558Y-100496467D01*
X111268557Y-100496465D01*
X111217037Y-100326626D01*
X111204000Y-100194257D01*
X111204000Y-99805742D01*
X111217037Y-99673373D01*
X111268557Y-99503534D01*
X111352222Y-99347009D01*
X111464815Y-99209815D01*
X111602010Y-99097222D01*
X111758535Y-99013557D01*
X111928374Y-98962037D01*
X112105000Y-98944641D01*
X112281627Y-98962037D01*
G37*
G36*
X115363600Y-98952989D02*
G01*
X115396652Y-98963015D01*
X115427103Y-98979292D01*
X115453799Y-99001201D01*
X115475708Y-99027897D01*
X115491985Y-99058348D01*
X115502011Y-99091400D01*
X115506000Y-99131903D01*
X115506000Y-100868097D01*
X115502011Y-100908600D01*
X115491985Y-100941652D01*
X115475708Y-100972103D01*
X115453799Y-100998799D01*
X115427103Y-101020708D01*
X115396652Y-101036985D01*
X115363600Y-101047011D01*
X115323097Y-101051000D01*
X113886903Y-101051000D01*
X113846400Y-101047011D01*
X113813348Y-101036985D01*
X113782897Y-101020708D01*
X113756201Y-100998799D01*
X113734292Y-100972103D01*
X113718015Y-100941652D01*
X113707989Y-100908600D01*
X113704000Y-100868097D01*
X113704000Y-99131903D01*
X113707989Y-99091400D01*
X113718015Y-99058348D01*
X113734292Y-99027897D01*
X113756201Y-99001201D01*
X113782897Y-98979292D01*
X113813348Y-98963015D01*
X113846400Y-98952989D01*
X113886903Y-98949000D01*
X115323097Y-98949000D01*
X115363600Y-98952989D01*
G37*
G36*
X106433600Y-98952989D02*
G01*
X106466652Y-98963015D01*
X106497103Y-98979292D01*
X106523799Y-99001201D01*
X106545708Y-99027897D01*
X106561985Y-99058348D01*
X106572011Y-99091400D01*
X106576000Y-99131903D01*
X106576000Y-100868097D01*
X106572011Y-100908600D01*
X106561985Y-100941652D01*
X106545708Y-100972103D01*
X106523799Y-100998799D01*
X106497103Y-101020708D01*
X106466652Y-101036985D01*
X106433600Y-101047011D01*
X106393097Y-101051000D01*
X104956903Y-101051000D01*
X104916400Y-101047011D01*
X104883348Y-101036985D01*
X104852897Y-101020708D01*
X104826201Y-100998799D01*
X104804292Y-100972103D01*
X104788015Y-100941652D01*
X104777989Y-100908600D01*
X104774000Y-100868097D01*
X104774000Y-99131903D01*
X104777989Y-99091400D01*
X104788015Y-99058348D01*
X104804292Y-99027897D01*
X104826201Y-99001201D01*
X104852897Y-98979292D01*
X104883348Y-98963015D01*
X104916400Y-98952989D01*
X104956903Y-98949000D01*
X106393097Y-98949000D01*
X106433600Y-98952989D01*
G37*
G36*
X97583600Y-98952989D02*
G01*
X97616652Y-98963015D01*
X97647103Y-98979292D01*
X97673799Y-99001201D01*
X97695708Y-99027897D01*
X97711985Y-99058348D01*
X97722011Y-99091400D01*
X97726000Y-99131903D01*
X97726000Y-100868097D01*
X97722011Y-100908600D01*
X97711985Y-100941652D01*
X97695708Y-100972103D01*
X97673799Y-100998799D01*
X97647103Y-101020708D01*
X97616652Y-101036985D01*
X97583600Y-101047011D01*
X97543097Y-101051000D01*
X96106903Y-101051000D01*
X96066400Y-101047011D01*
X96033348Y-101036985D01*
X96002897Y-101020708D01*
X95976201Y-100998799D01*
X95954292Y-100972103D01*
X95938015Y-100941652D01*
X95927989Y-100908600D01*
X95924000Y-100868097D01*
X95924000Y-99131903D01*
X95927989Y-99091400D01*
X95938015Y-99058348D01*
X95954292Y-99027897D01*
X95976201Y-99001201D01*
X96002897Y-98979292D01*
X96033348Y-98963015D01*
X96066400Y-98952989D01*
X96106903Y-98949000D01*
X97543097Y-98949000D01*
X97583600Y-98952989D01*
G37*
G36*
X88693600Y-98952989D02*
G01*
X88726652Y-98963015D01*
X88757103Y-98979292D01*
X88783799Y-99001201D01*
X88805708Y-99027897D01*
X88821985Y-99058348D01*
X88832011Y-99091400D01*
X88836000Y-99131903D01*
X88836000Y-100868097D01*
X88832011Y-100908600D01*
X88821985Y-100941652D01*
X88805708Y-100972103D01*
X88783799Y-100998799D01*
X88757103Y-101020708D01*
X88726652Y-101036985D01*
X88693600Y-101047011D01*
X88653097Y-101051000D01*
X87216903Y-101051000D01*
X87176400Y-101047011D01*
X87143348Y-101036985D01*
X87112897Y-101020708D01*
X87086201Y-100998799D01*
X87064292Y-100972103D01*
X87048015Y-100941652D01*
X87037989Y-100908600D01*
X87034000Y-100868097D01*
X87034000Y-99131903D01*
X87037989Y-99091400D01*
X87048015Y-99058348D01*
X87064292Y-99027897D01*
X87086201Y-99001201D01*
X87112897Y-98979292D01*
X87143348Y-98963015D01*
X87176400Y-98952989D01*
X87216903Y-98949000D01*
X88653097Y-98949000D01*
X88693600Y-98952989D01*
G37*
G36*
X94233642Y-93259781D02*
G01*
X94379414Y-93320162D01*
X94379416Y-93320163D01*
X94510608Y-93407822D01*
X94622178Y-93519392D01*
X94709837Y-93650584D01*
X94709838Y-93650586D01*
X94770219Y-93796358D01*
X94801000Y-93951107D01*
X94801000Y-94108893D01*
X94770219Y-94263642D01*
X94709838Y-94409414D01*
X94709837Y-94409416D01*
X94622178Y-94540608D01*
X94510608Y-94652178D01*
X94379416Y-94739837D01*
X94379415Y-94739838D01*
X94379414Y-94739838D01*
X94233642Y-94800219D01*
X94078893Y-94831000D01*
X93921107Y-94831000D01*
X93766358Y-94800219D01*
X93620586Y-94739838D01*
X93620585Y-94739838D01*
X93620584Y-94739837D01*
X93489392Y-94652178D01*
X93377822Y-94540608D01*
X93290163Y-94409416D01*
X93290162Y-94409414D01*
X93229781Y-94263642D01*
X93199000Y-94108893D01*
X93199000Y-93951107D01*
X93229781Y-93796358D01*
X93290162Y-93650586D01*
X93290163Y-93650584D01*
X93377822Y-93519392D01*
X93489392Y-93407822D01*
X93620584Y-93320163D01*
X93620586Y-93320162D01*
X93766358Y-93259781D01*
X93921107Y-93229000D01*
X94078893Y-93229000D01*
X94233642Y-93259781D01*
G37*
G36*
X97233642Y-93259781D02*
G01*
X97379414Y-93320162D01*
X97379416Y-93320163D01*
X97510608Y-93407822D01*
X97622178Y-93519392D01*
X97709837Y-93650584D01*
X97709838Y-93650586D01*
X97770219Y-93796358D01*
X97801000Y-93951107D01*
X97801000Y-94108893D01*
X97770219Y-94263642D01*
X97709838Y-94409414D01*
X97709837Y-94409416D01*
X97622178Y-94540608D01*
X97510608Y-94652178D01*
X97379416Y-94739837D01*
X97379415Y-94739838D01*
X97379414Y-94739838D01*
X97233642Y-94800219D01*
X97078893Y-94831000D01*
X96921107Y-94831000D01*
X96766358Y-94800219D01*
X96620586Y-94739838D01*
X96620585Y-94739838D01*
X96620584Y-94739837D01*
X96489392Y-94652178D01*
X96377822Y-94540608D01*
X96290163Y-94409416D01*
X96290162Y-94409414D01*
X96229781Y-94263642D01*
X96199000Y-94108893D01*
X96199000Y-93951107D01*
X96229781Y-93796358D01*
X96290162Y-93650586D01*
X96290163Y-93650584D01*
X96377822Y-93519392D01*
X96489392Y-93407822D01*
X96620584Y-93320163D01*
X96620586Y-93320162D01*
X96766358Y-93259781D01*
X96921107Y-93229000D01*
X97078893Y-93229000D01*
X97233642Y-93259781D01*
G37*
G36*
X106233642Y-93259781D02*
G01*
X106379414Y-93320162D01*
X106379416Y-93320163D01*
X106510608Y-93407822D01*
X106622178Y-93519392D01*
X106709837Y-93650584D01*
X106709838Y-93650586D01*
X106770219Y-93796358D01*
X106801000Y-93951107D01*
X106801000Y-94108893D01*
X106770219Y-94263642D01*
X106709838Y-94409414D01*
X106709837Y-94409416D01*
X106622178Y-94540608D01*
X106510608Y-94652178D01*
X106379416Y-94739837D01*
X106379415Y-94739838D01*
X106379414Y-94739838D01*
X106233642Y-94800219D01*
X106078893Y-94831000D01*
X105921107Y-94831000D01*
X105766358Y-94800219D01*
X105620586Y-94739838D01*
X105620585Y-94739838D01*
X105620584Y-94739837D01*
X105489392Y-94652178D01*
X105377822Y-94540608D01*
X105290163Y-94409416D01*
X105290162Y-94409414D01*
X105229781Y-94263642D01*
X105199000Y-94108893D01*
X105199000Y-93951107D01*
X105229781Y-93796358D01*
X105290162Y-93650586D01*
X105290163Y-93650584D01*
X105377822Y-93519392D01*
X105489392Y-93407822D01*
X105620584Y-93320163D01*
X105620586Y-93320162D01*
X105766358Y-93259781D01*
X105921107Y-93229000D01*
X106078893Y-93229000D01*
X106233642Y-93259781D01*
G37*
G36*
X91233642Y-93259781D02*
G01*
X91379414Y-93320162D01*
X91379416Y-93320163D01*
X91510608Y-93407822D01*
X91622178Y-93519392D01*
X91709837Y-93650584D01*
X91709838Y-93650586D01*
X91770219Y-93796358D01*
X91801000Y-93951107D01*
X91801000Y-94108893D01*
X91770219Y-94263642D01*
X91709838Y-94409414D01*
X91709837Y-94409416D01*
X91622178Y-94540608D01*
X91510608Y-94652178D01*
X91379416Y-94739837D01*
X91379415Y-94739838D01*
X91379414Y-94739838D01*
X91233642Y-94800219D01*
X91078893Y-94831000D01*
X90921107Y-94831000D01*
X90766358Y-94800219D01*
X90620586Y-94739838D01*
X90620585Y-94739838D01*
X90620584Y-94739837D01*
X90489392Y-94652178D01*
X90377822Y-94540608D01*
X90290163Y-94409416D01*
X90290162Y-94409414D01*
X90229781Y-94263642D01*
X90199000Y-94108893D01*
X90199000Y-93951107D01*
X90229781Y-93796358D01*
X90290162Y-93650586D01*
X90290163Y-93650584D01*
X90377822Y-93519392D01*
X90489392Y-93407822D01*
X90620584Y-93320163D01*
X90620586Y-93320162D01*
X90766358Y-93259781D01*
X90921107Y-93229000D01*
X91078893Y-93229000D01*
X91233642Y-93259781D01*
G37*
G36*
X100233642Y-93259781D02*
G01*
X100379414Y-93320162D01*
X100379416Y-93320163D01*
X100510608Y-93407822D01*
X100622178Y-93519392D01*
X100709837Y-93650584D01*
X100709838Y-93650586D01*
X100770219Y-93796358D01*
X100801000Y-93951107D01*
X100801000Y-94108893D01*
X100770219Y-94263642D01*
X100709838Y-94409414D01*
X100709837Y-94409416D01*
X100622178Y-94540608D01*
X100510608Y-94652178D01*
X100379416Y-94739837D01*
X100379415Y-94739838D01*
X100379414Y-94739838D01*
X100233642Y-94800219D01*
X100078893Y-94831000D01*
X99921107Y-94831000D01*
X99766358Y-94800219D01*
X99620586Y-94739838D01*
X99620585Y-94739838D01*
X99620584Y-94739837D01*
X99489392Y-94652178D01*
X99377822Y-94540608D01*
X99290163Y-94409416D01*
X99290162Y-94409414D01*
X99229781Y-94263642D01*
X99199000Y-94108893D01*
X99199000Y-93951107D01*
X99229781Y-93796358D01*
X99290162Y-93650586D01*
X99290163Y-93650584D01*
X99377822Y-93519392D01*
X99489392Y-93407822D01*
X99620584Y-93320163D01*
X99620586Y-93320162D01*
X99766358Y-93259781D01*
X99921107Y-93229000D01*
X100078893Y-93229000D01*
X100233642Y-93259781D01*
G37*
G36*
X103233642Y-93259781D02*
G01*
X103379414Y-93320162D01*
X103379416Y-93320163D01*
X103510608Y-93407822D01*
X103622178Y-93519392D01*
X103709837Y-93650584D01*
X103709838Y-93650586D01*
X103770219Y-93796358D01*
X103801000Y-93951107D01*
X103801000Y-94108893D01*
X103770219Y-94263642D01*
X103709838Y-94409414D01*
X103709837Y-94409416D01*
X103622178Y-94540608D01*
X103510608Y-94652178D01*
X103379416Y-94739837D01*
X103379415Y-94739838D01*
X103379414Y-94739838D01*
X103233642Y-94800219D01*
X103078893Y-94831000D01*
X102921107Y-94831000D01*
X102766358Y-94800219D01*
X102620586Y-94739838D01*
X102620585Y-94739838D01*
X102620584Y-94739837D01*
X102489392Y-94652178D01*
X102377822Y-94540608D01*
X102290163Y-94409416D01*
X102290162Y-94409414D01*
X102229781Y-94263642D01*
X102199000Y-94108893D01*
X102199000Y-93951107D01*
X102229781Y-93796358D01*
X102290162Y-93650586D01*
X102290163Y-93650584D01*
X102377822Y-93519392D01*
X102489392Y-93407822D01*
X102620584Y-93320163D01*
X102620586Y-93320162D01*
X102766358Y-93259781D01*
X102921107Y-93229000D01*
X103078893Y-93229000D01*
X103233642Y-93259781D01*
G37*
G36*
X109233642Y-93259781D02*
G01*
X109379414Y-93320162D01*
X109379416Y-93320163D01*
X109510608Y-93407822D01*
X109622178Y-93519392D01*
X109709837Y-93650584D01*
X109709838Y-93650586D01*
X109770219Y-93796358D01*
X109801000Y-93951107D01*
X109801000Y-94108893D01*
X109770219Y-94263642D01*
X109709838Y-94409414D01*
X109709837Y-94409416D01*
X109622178Y-94540608D01*
X109510608Y-94652178D01*
X109379416Y-94739837D01*
X109379415Y-94739838D01*
X109379414Y-94739838D01*
X109233642Y-94800219D01*
X109078893Y-94831000D01*
X108921107Y-94831000D01*
X108766358Y-94800219D01*
X108620586Y-94739838D01*
X108620585Y-94739838D01*
X108620584Y-94739837D01*
X108489392Y-94652178D01*
X108377822Y-94540608D01*
X108290163Y-94409416D01*
X108290162Y-94409414D01*
X108229781Y-94263642D01*
X108199000Y-94108893D01*
X108199000Y-93951107D01*
X108229781Y-93796358D01*
X108290162Y-93650586D01*
X108290163Y-93650584D01*
X108377822Y-93519392D01*
X108489392Y-93407822D01*
X108620584Y-93320163D01*
X108620586Y-93320162D01*
X108766358Y-93259781D01*
X108921107Y-93229000D01*
X109078893Y-93229000D01*
X109233642Y-93259781D01*
G37*
G36*
X94233642Y-90259781D02*
G01*
X94357208Y-90310964D01*
X94379416Y-90320163D01*
X94510608Y-90407822D01*
X94622178Y-90519392D01*
X94709837Y-90650584D01*
X94709838Y-90650586D01*
X94770219Y-90796358D01*
X94801000Y-90951107D01*
X94801000Y-91108893D01*
X94770219Y-91263642D01*
X94709838Y-91409414D01*
X94709837Y-91409416D01*
X94622178Y-91540608D01*
X94510608Y-91652178D01*
X94379416Y-91739837D01*
X94379415Y-91739838D01*
X94379414Y-91739838D01*
X94233642Y-91800219D01*
X94078893Y-91831000D01*
X93921107Y-91831000D01*
X93766358Y-91800219D01*
X93620586Y-91739838D01*
X93620585Y-91739838D01*
X93620584Y-91739837D01*
X93489392Y-91652178D01*
X93377822Y-91540608D01*
X93290163Y-91409416D01*
X93290162Y-91409414D01*
X93229781Y-91263642D01*
X93199000Y-91108893D01*
X93199000Y-90951107D01*
X93229781Y-90796358D01*
X93290162Y-90650586D01*
X93290163Y-90650584D01*
X93377822Y-90519392D01*
X93489392Y-90407822D01*
X93620584Y-90320163D01*
X93642792Y-90310964D01*
X93766358Y-90259781D01*
X93921107Y-90229000D01*
X94078893Y-90229000D01*
X94233642Y-90259781D01*
G37*
G36*
X91653048Y-90233122D02*
G01*
X91687387Y-90243539D01*
X91719036Y-90260456D01*
X91746778Y-90283222D01*
X91769544Y-90310964D01*
X91786461Y-90342613D01*
X91796878Y-90376952D01*
X91801000Y-90418807D01*
X91801000Y-91641193D01*
X91796878Y-91683048D01*
X91786461Y-91717387D01*
X91769544Y-91749036D01*
X91746778Y-91776778D01*
X91719036Y-91799544D01*
X91687387Y-91816461D01*
X91653048Y-91826878D01*
X91611193Y-91831000D01*
X90388807Y-91831000D01*
X90346952Y-91826878D01*
X90312613Y-91816461D01*
X90280964Y-91799544D01*
X90253222Y-91776778D01*
X90230456Y-91749036D01*
X90213539Y-91717387D01*
X90203122Y-91683048D01*
X90199000Y-91641193D01*
X90199000Y-90418807D01*
X90203122Y-90376952D01*
X90213539Y-90342613D01*
X90230456Y-90310964D01*
X90253222Y-90283222D01*
X90280964Y-90260456D01*
X90312613Y-90243539D01*
X90346952Y-90233122D01*
X90388807Y-90229000D01*
X91611193Y-90229000D01*
X91653048Y-90233122D01*
G37*
G36*
X97233642Y-90259781D02*
G01*
X97357208Y-90310964D01*
X97379416Y-90320163D01*
X97510608Y-90407822D01*
X97622178Y-90519392D01*
X97709837Y-90650584D01*
X97709838Y-90650586D01*
X97770219Y-90796358D01*
X97801000Y-90951107D01*
X97801000Y-91108893D01*
X97770219Y-91263642D01*
X97709838Y-91409414D01*
X97709837Y-91409416D01*
X97622178Y-91540608D01*
X97510608Y-91652178D01*
X97379416Y-91739837D01*
X97379415Y-91739838D01*
X97379414Y-91739838D01*
X97233642Y-91800219D01*
X97078893Y-91831000D01*
X96921107Y-91831000D01*
X96766358Y-91800219D01*
X96620586Y-91739838D01*
X96620585Y-91739838D01*
X96620584Y-91739837D01*
X96489392Y-91652178D01*
X96377822Y-91540608D01*
X96290163Y-91409416D01*
X96290162Y-91409414D01*
X96229781Y-91263642D01*
X96199000Y-91108893D01*
X96199000Y-90951107D01*
X96229781Y-90796358D01*
X96290162Y-90650586D01*
X96290163Y-90650584D01*
X96377822Y-90519392D01*
X96489392Y-90407822D01*
X96620584Y-90320163D01*
X96642792Y-90310964D01*
X96766358Y-90259781D01*
X96921107Y-90229000D01*
X97078893Y-90229000D01*
X97233642Y-90259781D01*
G37*
G36*
X100233642Y-90259781D02*
G01*
X100357208Y-90310964D01*
X100379416Y-90320163D01*
X100510608Y-90407822D01*
X100622178Y-90519392D01*
X100709837Y-90650584D01*
X100709838Y-90650586D01*
X100770219Y-90796358D01*
X100801000Y-90951107D01*
X100801000Y-91108893D01*
X100770219Y-91263642D01*
X100709838Y-91409414D01*
X100709837Y-91409416D01*
X100622178Y-91540608D01*
X100510608Y-91652178D01*
X100379416Y-91739837D01*
X100379415Y-91739838D01*
X100379414Y-91739838D01*
X100233642Y-91800219D01*
X100078893Y-91831000D01*
X99921107Y-91831000D01*
X99766358Y-91800219D01*
X99620586Y-91739838D01*
X99620585Y-91739838D01*
X99620584Y-91739837D01*
X99489392Y-91652178D01*
X99377822Y-91540608D01*
X99290163Y-91409416D01*
X99290162Y-91409414D01*
X99229781Y-91263642D01*
X99199000Y-91108893D01*
X99199000Y-90951107D01*
X99229781Y-90796358D01*
X99290162Y-90650586D01*
X99290163Y-90650584D01*
X99377822Y-90519392D01*
X99489392Y-90407822D01*
X99620584Y-90320163D01*
X99642792Y-90310964D01*
X99766358Y-90259781D01*
X99921107Y-90229000D01*
X100078893Y-90229000D01*
X100233642Y-90259781D01*
G37*
G36*
X103233642Y-90259781D02*
G01*
X103357208Y-90310964D01*
X103379416Y-90320163D01*
X103510608Y-90407822D01*
X103622178Y-90519392D01*
X103709837Y-90650584D01*
X103709838Y-90650586D01*
X103770219Y-90796358D01*
X103801000Y-90951107D01*
X103801000Y-91108893D01*
X103770219Y-91263642D01*
X103709838Y-91409414D01*
X103709837Y-91409416D01*
X103622178Y-91540608D01*
X103510608Y-91652178D01*
X103379416Y-91739837D01*
X103379415Y-91739838D01*
X103379414Y-91739838D01*
X103233642Y-91800219D01*
X103078893Y-91831000D01*
X102921107Y-91831000D01*
X102766358Y-91800219D01*
X102620586Y-91739838D01*
X102620585Y-91739838D01*
X102620584Y-91739837D01*
X102489392Y-91652178D01*
X102377822Y-91540608D01*
X102290163Y-91409416D01*
X102290162Y-91409414D01*
X102229781Y-91263642D01*
X102199000Y-91108893D01*
X102199000Y-90951107D01*
X102229781Y-90796358D01*
X102290162Y-90650586D01*
X102290163Y-90650584D01*
X102377822Y-90519392D01*
X102489392Y-90407822D01*
X102620584Y-90320163D01*
X102642792Y-90310964D01*
X102766358Y-90259781D01*
X102921107Y-90229000D01*
X103078893Y-90229000D01*
X103233642Y-90259781D01*
G37*
G36*
X106233642Y-90259781D02*
G01*
X106357208Y-90310964D01*
X106379416Y-90320163D01*
X106510608Y-90407822D01*
X106622178Y-90519392D01*
X106709837Y-90650584D01*
X106709838Y-90650586D01*
X106770219Y-90796358D01*
X106801000Y-90951107D01*
X106801000Y-91108893D01*
X106770219Y-91263642D01*
X106709838Y-91409414D01*
X106709837Y-91409416D01*
X106622178Y-91540608D01*
X106510608Y-91652178D01*
X106379416Y-91739837D01*
X106379415Y-91739838D01*
X106379414Y-91739838D01*
X106233642Y-91800219D01*
X106078893Y-91831000D01*
X105921107Y-91831000D01*
X105766358Y-91800219D01*
X105620586Y-91739838D01*
X105620585Y-91739838D01*
X105620584Y-91739837D01*
X105489392Y-91652178D01*
X105377822Y-91540608D01*
X105290163Y-91409416D01*
X105290162Y-91409414D01*
X105229781Y-91263642D01*
X105199000Y-91108893D01*
X105199000Y-90951107D01*
X105229781Y-90796358D01*
X105290162Y-90650586D01*
X105290163Y-90650584D01*
X105377822Y-90519392D01*
X105489392Y-90407822D01*
X105620584Y-90320163D01*
X105642792Y-90310964D01*
X105766358Y-90259781D01*
X105921107Y-90229000D01*
X106078893Y-90229000D01*
X106233642Y-90259781D01*
G37*
G36*
X109233642Y-90259781D02*
G01*
X109357208Y-90310964D01*
X109379416Y-90320163D01*
X109510608Y-90407822D01*
X109622178Y-90519392D01*
X109709837Y-90650584D01*
X109709838Y-90650586D01*
X109770219Y-90796358D01*
X109801000Y-90951107D01*
X109801000Y-91108893D01*
X109770219Y-91263642D01*
X109709838Y-91409414D01*
X109709837Y-91409416D01*
X109622178Y-91540608D01*
X109510608Y-91652178D01*
X109379416Y-91739837D01*
X109379415Y-91739838D01*
X109379414Y-91739838D01*
X109233642Y-91800219D01*
X109078893Y-91831000D01*
X108921107Y-91831000D01*
X108766358Y-91800219D01*
X108620586Y-91739838D01*
X108620585Y-91739838D01*
X108620584Y-91739837D01*
X108489392Y-91652178D01*
X108377822Y-91540608D01*
X108290163Y-91409416D01*
X108290162Y-91409414D01*
X108229781Y-91263642D01*
X108199000Y-91108893D01*
X108199000Y-90951107D01*
X108229781Y-90796358D01*
X108290162Y-90650586D01*
X108290163Y-90650584D01*
X108377822Y-90519392D01*
X108489392Y-90407822D01*
X108620584Y-90320163D01*
X108642792Y-90310964D01*
X108766358Y-90259781D01*
X108921107Y-90229000D01*
X109078893Y-90229000D01*
X109233642Y-90259781D01*
G37*
G36*
X107162585Y-85188802D02*
G01*
X107312410Y-85218604D01*
X107594674Y-85335521D01*
X107848705Y-85505259D01*
X108064741Y-85721295D01*
X108234479Y-85975326D01*
X108351396Y-86257590D01*
X108411000Y-86557240D01*
X108411000Y-86862760D01*
X108351396Y-87162410D01*
X108234479Y-87444674D01*
X108064741Y-87698705D01*
X107848705Y-87914741D01*
X107594674Y-88084479D01*
X107312410Y-88201396D01*
X107162585Y-88231198D01*
X107012761Y-88261000D01*
X106707239Y-88261000D01*
X106557415Y-88231198D01*
X106407590Y-88201396D01*
X106125326Y-88084479D01*
X105871295Y-87914741D01*
X105655259Y-87698705D01*
X105485521Y-87444674D01*
X105368604Y-87162410D01*
X105309000Y-86862760D01*
X105309000Y-86557240D01*
X105368604Y-86257590D01*
X105485521Y-85975326D01*
X105655259Y-85721295D01*
X105871295Y-85505259D01*
X106125326Y-85335521D01*
X106407590Y-85218604D01*
X106557415Y-85188802D01*
X106707239Y-85159000D01*
X107012761Y-85159000D01*
X107162585Y-85188802D01*
G37*
G36*
X93462585Y-85188802D02*
G01*
X93612410Y-85218604D01*
X93894674Y-85335521D01*
X94148705Y-85505259D01*
X94364741Y-85721295D01*
X94534479Y-85975326D01*
X94651396Y-86257590D01*
X94711000Y-86557240D01*
X94711000Y-86862760D01*
X94651396Y-87162410D01*
X94534479Y-87444674D01*
X94364741Y-87698705D01*
X94148705Y-87914741D01*
X93894674Y-88084479D01*
X93612410Y-88201396D01*
X93462585Y-88231198D01*
X93312761Y-88261000D01*
X93007239Y-88261000D01*
X92857415Y-88231198D01*
X92707590Y-88201396D01*
X92425326Y-88084479D01*
X92171295Y-87914741D01*
X91955259Y-87698705D01*
X91785521Y-87444674D01*
X91668604Y-87162410D01*
X91609000Y-86862760D01*
X91609000Y-86557240D01*
X91668604Y-86257590D01*
X91785521Y-85975326D01*
X91955259Y-85721295D01*
X92171295Y-85505259D01*
X92425326Y-85335521D01*
X92707590Y-85218604D01*
X92857415Y-85188802D01*
X93007239Y-85159000D01*
X93312761Y-85159000D01*
X93462585Y-85188802D01*
G37*
M02*
