G04 Layer: BottomLayer*
G04 EasyEDA v6.4.17, 2021-03-20T11:40:53--7:00*
G04 4519132369bf40e390bac680acde2591,debd25b7e7f645e7808fdd9718494454,10*
G04 Gerber Generator version 0.2*
G04 Scale: 100 percent, Rotated: No, Reflected: No *
G04 Dimensions in millimeters *
G04 leading zeros omitted , absolute positions ,4 integer and 5 decimal *
%FSLAX45Y45*%
%MOMM*%

%ADD11C,0.8000*%
%ADD12C,0.6100*%
%ADD16C,1.5240*%
%ADD17C,1.8000*%
%ADD18C,1.7880*%
%ADD19C,1.6000*%
%ADD20C,2.0000*%
%ADD21C,1.7000*%

%LPD*%
G36*
X8840165Y4620310D02*
G01*
X8824772Y4621225D01*
X8811006Y4623612D01*
X8797645Y4627524D01*
X8784793Y4632909D01*
X8772652Y4639716D01*
X8761323Y4647844D01*
X8750960Y4657191D01*
X8741714Y4667605D01*
X8733688Y4678984D01*
X8727033Y4691227D01*
X8721750Y4704130D01*
X8717940Y4717542D01*
X8715654Y4731308D01*
X8714892Y4745634D01*
X8714892Y5948273D01*
X8713927Y5966663D01*
X8710777Y5986119D01*
X8710015Y5989370D01*
X8705494Y6005118D01*
X8704376Y6008268D01*
X8698077Y6023457D01*
X8696604Y6026454D01*
X8688679Y6040780D01*
X8686901Y6043625D01*
X8677351Y6056985D01*
X8675268Y6059576D01*
X8664295Y6071819D01*
X8661958Y6074156D01*
X8649716Y6085078D01*
X8647074Y6087160D01*
X8633663Y6096609D01*
X8630869Y6098387D01*
X8614359Y6107328D01*
X8569655Y6127546D01*
X8524036Y6145987D01*
X8477707Y6162497D01*
X8430768Y6177076D01*
X8383270Y6189726D01*
X8335264Y6200394D01*
X8286851Y6209080D01*
X8238134Y6215735D01*
X8189214Y6220409D01*
X8140090Y6223101D01*
X8090916Y6223711D01*
X8041792Y6222339D01*
X7992719Y6218936D01*
X7943850Y6213500D01*
X7895234Y6206032D01*
X7846974Y6196584D01*
X7799171Y6185204D01*
X7751876Y6171793D01*
X7705140Y6156502D01*
X7659065Y6139281D01*
X7613751Y6120180D01*
X7569301Y6099200D01*
X7525715Y6076442D01*
X7483094Y6051905D01*
X7441539Y6025642D01*
X7401102Y5997651D01*
X7361834Y5968034D01*
X7323836Y5936843D01*
X7287158Y5904077D01*
X7251852Y5869889D01*
X7217968Y5834227D01*
X7185609Y5797194D01*
X7154824Y5758891D01*
X7125563Y5719368D01*
X7098030Y5678627D01*
X7072172Y5636818D01*
X7048042Y5593943D01*
X7025741Y5550154D01*
X7005218Y5505450D01*
X6986574Y5459984D01*
X6969810Y5413756D01*
X6954977Y5366867D01*
X6942074Y5319420D01*
X6931406Y5272836D01*
X6927342Y5257850D01*
X6922109Y5244744D01*
X6915403Y5232298D01*
X6907326Y5220665D01*
X6897979Y5210048D01*
X6887514Y5200548D01*
X6875983Y5192318D01*
X6863638Y5185410D01*
X6850583Y5180025D01*
X6836968Y5176113D01*
X6823049Y5173726D01*
X6808520Y5172913D01*
X5860694Y5172913D01*
X5845200Y5173878D01*
X5831484Y5176266D01*
X5818124Y5180177D01*
X5805271Y5185562D01*
X5793079Y5192369D01*
X5781751Y5200497D01*
X5771438Y5209794D01*
X5762193Y5220258D01*
X5754166Y5231638D01*
X5747461Y5243880D01*
X5742228Y5256784D01*
X5738418Y5270195D01*
X5736132Y5283911D01*
X5735370Y5298236D01*
X5740654Y8060232D01*
X5741822Y8068462D01*
X5742787Y8083803D01*
X5745175Y8097520D01*
X5749086Y8110931D01*
X5754471Y8123783D01*
X5761278Y8135924D01*
X5769406Y8147253D01*
X5778703Y8157616D01*
X5789168Y8166862D01*
X5800547Y8174837D01*
X5812790Y8181543D01*
X5825693Y8186826D01*
X5839104Y8190636D01*
X5852871Y8192871D01*
X5867349Y8193684D01*
X5875782Y8194852D01*
X10030256Y8191500D01*
X10035032Y8190382D01*
X10041382Y8189518D01*
X10057079Y8189214D01*
X10071252Y8187283D01*
X10085120Y8183778D01*
X10098532Y8178647D01*
X10111232Y8172043D01*
X10123068Y8164017D01*
X10133888Y8154670D01*
X10143591Y8144103D01*
X10152024Y8132572D01*
X10159085Y8120075D01*
X10164622Y8106867D01*
X10168636Y8093151D01*
X10171023Y8079028D01*
X10172446Y8051038D01*
X10172446Y4763109D01*
X10173258Y4756505D01*
X10174935Y4751425D01*
X10177170Y4746599D01*
X10177881Y4744262D01*
X10178034Y4741824D01*
X10177576Y4734712D01*
X10175189Y4720996D01*
X10171277Y4707585D01*
X10165892Y4694732D01*
X10159085Y4682591D01*
X10150957Y4671263D01*
X10141610Y4660900D01*
X10131196Y4651654D01*
X10119766Y4643678D01*
X10107574Y4636973D01*
X10094671Y4631690D01*
X10081260Y4627880D01*
X10067493Y4625644D01*
X10053218Y4624832D01*
X10048494Y4624120D01*
X10043363Y4623003D01*
G37*

%LPC*%
G36*
X9059418Y4878171D02*
G01*
X9074556Y4879086D01*
X9089491Y4881829D01*
X9103969Y4886350D01*
X9117787Y4892548D01*
X9130792Y4900422D01*
X9142730Y4909769D01*
X9153448Y4920488D01*
X9162796Y4932426D01*
X9170670Y4945430D01*
X9176867Y4959248D01*
X9179306Y4964023D01*
X9182760Y4966563D01*
X9186926Y4967478D01*
X9191091Y4966563D01*
X9194546Y4964023D01*
X9196984Y4959248D01*
X9203182Y4945430D01*
X9211056Y4932426D01*
X9220403Y4920488D01*
X9231122Y4909769D01*
X9243060Y4900422D01*
X9256064Y4892548D01*
X9269882Y4886350D01*
X9284360Y4881829D01*
X9299295Y4879086D01*
X9314434Y4878171D01*
X9329572Y4879086D01*
X9344507Y4881829D01*
X9358985Y4886350D01*
X9372803Y4892548D01*
X9385808Y4900422D01*
X9397746Y4909769D01*
X9408464Y4920488D01*
X9417812Y4932426D01*
X9425686Y4945430D01*
X9428632Y4951933D01*
X9430816Y4955082D01*
X9434068Y4957165D01*
X9437878Y4957927D01*
X9441688Y4957165D01*
X9444939Y4955082D01*
X9447123Y4951933D01*
X9450070Y4945430D01*
X9457944Y4932426D01*
X9467291Y4920488D01*
X9478010Y4909769D01*
X9489948Y4900422D01*
X9502952Y4892548D01*
X9516770Y4886350D01*
X9531248Y4881829D01*
X9546183Y4879086D01*
X9561322Y4878171D01*
X9576460Y4879086D01*
X9591395Y4881829D01*
X9605873Y4886350D01*
X9619691Y4892548D01*
X9632696Y4900422D01*
X9644634Y4909769D01*
X9655352Y4920488D01*
X9664700Y4932426D01*
X9672574Y4945430D01*
X9678771Y4959248D01*
X9681819Y4968900D01*
X9683902Y4972608D01*
X9687306Y4975148D01*
X9691471Y4976012D01*
X9695688Y4975148D01*
X9699091Y4972608D01*
X9701174Y4968900D01*
X9703968Y4960061D01*
X9710166Y4946243D01*
X9718040Y4933238D01*
X9727387Y4921300D01*
X9738106Y4910582D01*
X9750044Y4901234D01*
X9763048Y4893360D01*
X9776866Y4887163D01*
X9791344Y4882642D01*
X9806279Y4879898D01*
X9821418Y4878984D01*
X9836556Y4879898D01*
X9851491Y4882642D01*
X9865969Y4887163D01*
X9879787Y4893360D01*
X9892792Y4901234D01*
X9904730Y4910582D01*
X9915448Y4921300D01*
X9924796Y4933238D01*
X9932670Y4946243D01*
X9938867Y4960061D01*
X9943388Y4974539D01*
X9946132Y4989474D01*
X9947046Y5004612D01*
X9946132Y5019751D01*
X9944506Y5028590D01*
X9944455Y5031841D01*
X9945420Y5034991D01*
X9947300Y5037632D01*
X10079380Y5169712D01*
X10086340Y5177840D01*
X10091724Y5186629D01*
X10095687Y5196128D01*
X10098074Y5206136D01*
X10098887Y5216804D01*
X10098887Y7072985D01*
X10098074Y7083653D01*
X10095687Y7093661D01*
X10091724Y7103160D01*
X10086340Y7111949D01*
X10079380Y7120077D01*
X9521393Y7678115D01*
X9519107Y7681569D01*
X9518396Y7685633D01*
X9518650Y7693355D01*
X9517329Y7706868D01*
X9514179Y7720126D01*
X9509252Y7732775D01*
X9502749Y7744714D01*
X9494672Y7755686D01*
X9485223Y7765440D01*
X9474555Y7773873D01*
X9462820Y7780832D01*
X9450324Y7786116D01*
X9437166Y7789722D01*
X9423704Y7791551D01*
X9410090Y7791551D01*
X9396628Y7789722D01*
X9383522Y7786116D01*
X9370974Y7780832D01*
X9359290Y7773873D01*
X9348571Y7765440D01*
X9339122Y7755686D01*
X9332823Y7747101D01*
X9329775Y7744358D01*
X9325914Y7743037D01*
X9321850Y7743342D01*
X9318193Y7745222D01*
X9315653Y7748422D01*
X9314484Y7752334D01*
X9314230Y7755636D01*
X9311843Y7765694D01*
X9307931Y7775194D01*
X9302546Y7783982D01*
X9295587Y7792110D01*
X9190532Y7897469D01*
X9186773Y7900670D01*
X9184182Y7904073D01*
X9183217Y7908290D01*
X9184081Y7912455D01*
X9186570Y7915960D01*
X9190075Y7919161D01*
X9198864Y7929524D01*
X9206179Y7941005D01*
X9211919Y7953349D01*
X9215932Y7966354D01*
X9218218Y7979765D01*
X9218676Y7993329D01*
X9217304Y8006892D01*
X9214154Y8020100D01*
X9209278Y8032800D01*
X9202724Y8044738D01*
X9194647Y8055660D01*
X9185198Y8065465D01*
X9174530Y8073898D01*
X9162846Y8080806D01*
X9150299Y8086140D01*
X9137192Y8089747D01*
X9123680Y8091525D01*
X9110116Y8091525D01*
X9096603Y8089747D01*
X9083497Y8086140D01*
X9070949Y8080806D01*
X9059265Y8073898D01*
X9048597Y8065465D01*
X9039148Y8055660D01*
X9031071Y8044738D01*
X9024518Y8032800D01*
X9019641Y8020100D01*
X9016492Y8006892D01*
X9015120Y7993329D01*
X9015577Y7979765D01*
X9017863Y7966354D01*
X9021876Y7953349D01*
X9027617Y7941005D01*
X9032900Y7932674D01*
X9034424Y7928609D01*
X9034068Y7924342D01*
X9032036Y7920532D01*
X9028582Y7917942D01*
X9024366Y7917027D01*
X8807094Y7917027D01*
X8803233Y7917840D01*
X8799931Y7920024D01*
X8677097Y8042808D01*
X8668969Y8049768D01*
X8660180Y8055152D01*
X8650681Y8059115D01*
X8640673Y8061502D01*
X8630005Y8062315D01*
X7565796Y8062315D01*
X7555128Y8061502D01*
X7545120Y8059115D01*
X7535621Y8055152D01*
X7526832Y8049768D01*
X7518704Y8042808D01*
X7224115Y7748219D01*
X7217156Y7740091D01*
X7213041Y7733436D01*
X7210399Y7730540D01*
X7206792Y7728864D01*
X7202830Y7728712D01*
X7199071Y7730083D01*
X7196175Y7732775D01*
X7187946Y7744104D01*
X7178040Y7754670D01*
X7166914Y7763865D01*
X7154722Y7771587D01*
X7141667Y7777734D01*
X7127900Y7782204D01*
X7113727Y7784947D01*
X7099300Y7785811D01*
X7084872Y7784947D01*
X7070699Y7782204D01*
X7056932Y7777734D01*
X7043877Y7771587D01*
X7031685Y7763865D01*
X7020559Y7754670D01*
X7010653Y7744104D01*
X7002170Y7732420D01*
X6995210Y7719771D01*
X6989876Y7706359D01*
X6986320Y7692339D01*
X6984492Y7678013D01*
X6984492Y7663586D01*
X6986320Y7649260D01*
X6989876Y7635240D01*
X6995210Y7621828D01*
X7002170Y7609179D01*
X7010653Y7597495D01*
X7020559Y7586929D01*
X7031685Y7577734D01*
X7043877Y7570012D01*
X7056932Y7563866D01*
X7070699Y7559395D01*
X7082637Y7557109D01*
X7086650Y7555382D01*
X7089597Y7552131D01*
X7090867Y7547965D01*
X7090308Y7543596D01*
X7087920Y7539939D01*
X6487312Y6939330D01*
X6484010Y6937146D01*
X6480149Y6936333D01*
X6411264Y6936333D01*
X6408166Y6936841D01*
X6405321Y6938314D01*
X6403086Y6940550D01*
X6400546Y6944004D01*
X6390640Y6954570D01*
X6379514Y6963765D01*
X6367322Y6971487D01*
X6354267Y6977634D01*
X6340500Y6982104D01*
X6326327Y6984847D01*
X6311900Y6985711D01*
X6297472Y6984847D01*
X6283299Y6982104D01*
X6269532Y6977634D01*
X6256477Y6971487D01*
X6244285Y6963765D01*
X6233160Y6954570D01*
X6223254Y6944004D01*
X6214770Y6932320D01*
X6207810Y6919671D01*
X6202476Y6906259D01*
X6198920Y6892239D01*
X6197092Y6877913D01*
X6197092Y6863486D01*
X6198920Y6849160D01*
X6202476Y6835140D01*
X6207810Y6821728D01*
X6214770Y6809079D01*
X6223254Y6797395D01*
X6233160Y6786829D01*
X6244285Y6777634D01*
X6256477Y6769912D01*
X6269532Y6763766D01*
X6283299Y6759295D01*
X6297472Y6756552D01*
X6311900Y6755688D01*
X6326327Y6756552D01*
X6340500Y6759295D01*
X6354267Y6763766D01*
X6367322Y6769912D01*
X6379514Y6777634D01*
X6390640Y6786829D01*
X6400546Y6797395D01*
X6403086Y6800850D01*
X6405321Y6803085D01*
X6408166Y6804558D01*
X6411264Y6805066D01*
X6511137Y6805066D01*
X6521805Y6805879D01*
X6531813Y6808266D01*
X6541312Y6812229D01*
X6550101Y6817614D01*
X6558229Y6824573D01*
X7316368Y7582712D01*
X7323328Y7590840D01*
X7328712Y7599629D01*
X7332675Y7609128D01*
X7335062Y7619136D01*
X7335875Y7629804D01*
X7335875Y7670139D01*
X7336688Y7674000D01*
X7338872Y7677302D01*
X7501331Y7839811D01*
X7505039Y7842148D01*
X7509357Y7842707D01*
X7513523Y7841437D01*
X7516774Y7838541D01*
X7518653Y7833715D01*
X7518755Y7830413D01*
X7517790Y7827264D01*
X7515859Y7824622D01*
X7430363Y7739075D01*
X7423403Y7730947D01*
X7418019Y7722158D01*
X7414056Y7712659D01*
X7411669Y7702651D01*
X7410856Y7691983D01*
X7410856Y6835800D01*
X7411669Y6825132D01*
X7414056Y6815124D01*
X7418019Y6805625D01*
X7423403Y6796836D01*
X7430363Y6788708D01*
X7886242Y6332829D01*
X7894370Y6325870D01*
X7903159Y6320485D01*
X7912658Y6316522D01*
X7922666Y6314135D01*
X7933334Y6313322D01*
X8674201Y6313322D01*
X8684869Y6314135D01*
X8694877Y6316522D01*
X8704376Y6320485D01*
X8713165Y6325870D01*
X8721293Y6332829D01*
X8959697Y6571183D01*
X8962999Y6573367D01*
X8966860Y6574180D01*
X9033052Y6574180D01*
X9036913Y6573418D01*
X9040215Y6571234D01*
X9042400Y6567982D01*
X9043212Y6564122D01*
X9042501Y6560261D01*
X9040368Y6556959D01*
X9039148Y6555689D01*
X9031071Y6544716D01*
X9025382Y6534404D01*
X9072473Y6534404D01*
X9072473Y6564020D01*
X9073235Y6567881D01*
X9075420Y6571183D01*
X9078722Y6573367D01*
X9082633Y6574180D01*
X9151213Y6574180D01*
X9155074Y6573367D01*
X9158376Y6571183D01*
X9160560Y6567881D01*
X9161373Y6564020D01*
X9161373Y6534404D01*
X9208414Y6534404D01*
X9202724Y6544716D01*
X9194647Y6555689D01*
X9193428Y6556959D01*
X9191294Y6560261D01*
X9190583Y6564122D01*
X9191396Y6567982D01*
X9193631Y6571234D01*
X9196882Y6573418D01*
X9200743Y6574180D01*
X9236303Y6574180D01*
X9240164Y6573367D01*
X9243466Y6571183D01*
X9311386Y6503263D01*
X9313773Y6499504D01*
X9314281Y6494780D01*
X9314738Y6481216D01*
X9317024Y6467805D01*
X9321038Y6454800D01*
X9326778Y6442456D01*
X9334093Y6430975D01*
X9342882Y6420612D01*
X9352940Y6411468D01*
X9364167Y6403797D01*
X9376308Y6397650D01*
X9389160Y6393180D01*
X9402521Y6390487D01*
X9416084Y6389573D01*
X9429648Y6390487D01*
X9442958Y6393180D01*
X9455810Y6397650D01*
X9467951Y6403797D01*
X9479737Y6411874D01*
X9483801Y6413500D01*
X9488170Y6413296D01*
X9492081Y6411264D01*
X9494723Y6407759D01*
X9495688Y6403492D01*
X9495688Y6276797D01*
X9494672Y6272377D01*
X9491878Y6268872D01*
X9487814Y6266891D01*
X9483293Y6266891D01*
X9479229Y6268821D01*
X9471812Y6274663D01*
X9460128Y6281572D01*
X9447580Y6286906D01*
X9434474Y6290462D01*
X9421012Y6292291D01*
X9407398Y6292291D01*
X9393936Y6290462D01*
X9380778Y6286906D01*
X9368282Y6281572D01*
X9356547Y6274663D01*
X9345879Y6266230D01*
X9336430Y6256426D01*
X9328353Y6245504D01*
X9321800Y6233566D01*
X9316923Y6220866D01*
X9313773Y6207607D01*
X9312402Y6194094D01*
X9312656Y6186576D01*
X9311944Y6182512D01*
X9309709Y6179058D01*
X9268307Y6137605D01*
X9261348Y6129477D01*
X9255963Y6120688D01*
X9252000Y6111189D01*
X9249613Y6101181D01*
X9248800Y6090513D01*
X9248800Y5116372D01*
X9248190Y5112969D01*
X9246514Y5109972D01*
X9231122Y5097830D01*
X9220403Y5087112D01*
X9211056Y5075174D01*
X9203182Y5062169D01*
X9196984Y5048351D01*
X9194546Y5043576D01*
X9191091Y5041036D01*
X9186926Y5040122D01*
X9182760Y5041036D01*
X9179306Y5043576D01*
X9176867Y5048351D01*
X9170670Y5062169D01*
X9162796Y5075174D01*
X9153448Y5087112D01*
X9142730Y5097830D01*
X9130792Y5107178D01*
X9117787Y5115052D01*
X9103969Y5121249D01*
X9089491Y5125770D01*
X9074556Y5128514D01*
X9059418Y5129428D01*
X9051239Y5128920D01*
X9047175Y5129530D01*
X9043670Y5131663D01*
X9041333Y5135067D01*
X9040469Y5139080D01*
X9040469Y5553202D01*
X9041434Y5557418D01*
X9044076Y5560923D01*
X9047886Y5562955D01*
X9052255Y5563209D01*
X9056319Y5561634D01*
X9058706Y5560009D01*
X9071102Y5553913D01*
X9084157Y5549442D01*
X9097721Y5546750D01*
X9111538Y5545886D01*
X9125305Y5546750D01*
X9138869Y5549442D01*
X9151924Y5553913D01*
X9164320Y5560009D01*
X9175800Y5567680D01*
X9186214Y5576824D01*
X9195308Y5587187D01*
X9202978Y5598668D01*
X9209125Y5611063D01*
X9213545Y5624169D01*
X9216237Y5637733D01*
X9217152Y5651500D01*
X9216237Y5665266D01*
X9213545Y5678830D01*
X9209125Y5691936D01*
X9202978Y5704332D01*
X9195308Y5715812D01*
X9186214Y5726176D01*
X9175800Y5735320D01*
X9164320Y5742990D01*
X9151924Y5749086D01*
X9138869Y5753557D01*
X9125305Y5756249D01*
X9111538Y5757113D01*
X9097721Y5756249D01*
X9084157Y5753557D01*
X9071102Y5749086D01*
X9058706Y5742990D01*
X9056319Y5741365D01*
X9052255Y5739790D01*
X9047886Y5740044D01*
X9044076Y5742076D01*
X9041434Y5745581D01*
X9040469Y5749798D01*
X9040469Y6016599D01*
X9041282Y6020460D01*
X9043466Y6023762D01*
X9105087Y6085433D01*
X9108694Y6087719D01*
X9112961Y6088380D01*
X9116923Y6088126D01*
X9130487Y6088989D01*
X9143796Y6091732D01*
X9156649Y6096203D01*
X9168790Y6102299D01*
X9180017Y6110020D01*
X9190075Y6119164D01*
X9198864Y6129528D01*
X9206179Y6141008D01*
X9211919Y6153353D01*
X9215932Y6166307D01*
X9218218Y6179718D01*
X9218676Y6193332D01*
X9217304Y6206896D01*
X9214154Y6220104D01*
X9209278Y6232804D01*
X9202724Y6244742D01*
X9194647Y6255664D01*
X9185198Y6265468D01*
X9174530Y6273901D01*
X9162846Y6280810D01*
X9150299Y6286144D01*
X9137192Y6289700D01*
X9123680Y6291529D01*
X9110116Y6291529D01*
X9096603Y6289700D01*
X9083497Y6286144D01*
X9070949Y6280810D01*
X9059265Y6273901D01*
X9048597Y6265468D01*
X9039148Y6255664D01*
X9031071Y6244742D01*
X9024518Y6232804D01*
X9019641Y6220104D01*
X9016492Y6206896D01*
X9015120Y6193332D01*
X9015374Y6185916D01*
X9014663Y6181852D01*
X9012428Y6178397D01*
X8928709Y6094679D01*
X8921750Y6086551D01*
X8916365Y6077762D01*
X8912402Y6068263D01*
X8910015Y6058255D01*
X8909202Y6047587D01*
X8909202Y5088788D01*
X8910015Y5078120D01*
X8912402Y5068112D01*
X8916365Y5058613D01*
X8921750Y5049824D01*
X8928709Y5041696D01*
X8933535Y5036870D01*
X8935415Y5034229D01*
X8936380Y5031079D01*
X8936329Y5027828D01*
X8934704Y5018938D01*
X8933789Y5003800D01*
X8934704Y4988661D01*
X8937447Y4973726D01*
X8941968Y4959248D01*
X8948166Y4945430D01*
X8956040Y4932426D01*
X8965387Y4920488D01*
X8976106Y4909769D01*
X8988044Y4900422D01*
X9001048Y4892548D01*
X9014866Y4886350D01*
X9029344Y4881829D01*
X9044279Y4879086D01*
G37*
G36*
X6757416Y5505602D02*
G01*
X6767677Y5506415D01*
X6777685Y5508802D01*
X6787184Y5512765D01*
X6795973Y5518150D01*
X6803796Y5524855D01*
X6810502Y5532678D01*
X6815886Y5541467D01*
X6819849Y5550966D01*
X6822236Y5560974D01*
X6823049Y5571642D01*
X6823049Y6523583D01*
X6823862Y6527444D01*
X6826046Y6530746D01*
X6882993Y6587693D01*
X6886448Y6589979D01*
X6890512Y6590690D01*
X6894525Y6589674D01*
X6897827Y6587185D01*
X6899859Y6583578D01*
X6900265Y6579463D01*
X6898487Y6562242D01*
X6898487Y6544157D01*
X6900367Y6526174D01*
X6904075Y6508445D01*
X6909562Y6491224D01*
X6916775Y6474663D01*
X6925716Y6458915D01*
X6936181Y6444183D01*
X6948119Y6430619D01*
X6961378Y6418326D01*
X6975856Y6407454D01*
X6991350Y6398158D01*
X7007707Y6390487D01*
X7024827Y6384544D01*
X7042403Y6380429D01*
X7060336Y6378092D01*
X7078421Y6377635D01*
X7096455Y6379006D01*
X7114235Y6382258D01*
X7131608Y6387287D01*
X7148372Y6394145D01*
X7164324Y6402628D01*
X7179309Y6412738D01*
X7193229Y6424320D01*
X7205827Y6437274D01*
X7217054Y6451447D01*
X7226757Y6466687D01*
X7234834Y6482842D01*
X7241235Y6499809D01*
X7245807Y6517284D01*
X7248601Y6535115D01*
X7249515Y6553200D01*
X7248601Y6571234D01*
X7245807Y6589115D01*
X7241235Y6606590D01*
X7234834Y6623558D01*
X7226757Y6639712D01*
X7217054Y6654952D01*
X7205827Y6669125D01*
X7193229Y6682079D01*
X7179309Y6693662D01*
X7164324Y6703771D01*
X7148372Y6712254D01*
X7131608Y6719112D01*
X7114235Y6724142D01*
X7096455Y6727393D01*
X7078421Y6728764D01*
X7060336Y6728307D01*
X7047738Y6726681D01*
X7043572Y6726986D01*
X7039864Y6728968D01*
X7037273Y6732270D01*
X7036257Y6736334D01*
X7036968Y6740448D01*
X7039203Y6743953D01*
X7172959Y6877659D01*
X7176211Y6879844D01*
X7180021Y6880656D01*
X7183881Y6879945D01*
X7188149Y6878218D01*
X7202220Y6874611D01*
X7216648Y6872782D01*
X7231176Y6872782D01*
X7245553Y6874611D01*
X7259624Y6878218D01*
X7273137Y6883552D01*
X7285837Y6890562D01*
X7297623Y6899097D01*
X7308189Y6909053D01*
X7317435Y6920230D01*
X7325207Y6932472D01*
X7331405Y6945630D01*
X7335875Y6959447D01*
X7338618Y6973722D01*
X7339533Y6988200D01*
X7338618Y7002678D01*
X7335875Y7016953D01*
X7331405Y7030770D01*
X7325207Y7043928D01*
X7317435Y7056170D01*
X7308189Y7067346D01*
X7297623Y7077303D01*
X7285837Y7085838D01*
X7273137Y7092848D01*
X7259624Y7098182D01*
X7245553Y7101789D01*
X7231176Y7103618D01*
X7216648Y7103618D01*
X7202220Y7101789D01*
X7188149Y7098182D01*
X7174687Y7092848D01*
X7161936Y7085838D01*
X7150201Y7077303D01*
X7139584Y7067346D01*
X7130338Y7056170D01*
X7122566Y7043928D01*
X7116368Y7030770D01*
X7111898Y7016953D01*
X7109053Y7001967D01*
X7108037Y6999122D01*
X7106259Y6996684D01*
X7049871Y6940296D01*
X7046061Y6937908D01*
X7041642Y6937349D01*
X7037374Y6938822D01*
X7034174Y6941921D01*
X7032599Y6946138D01*
X7033056Y6950608D01*
X7035901Y6959447D01*
X7038644Y6973722D01*
X7039559Y6988200D01*
X7038644Y7002678D01*
X7035901Y7016953D01*
X7031431Y7030770D01*
X7025233Y7043928D01*
X7017461Y7056170D01*
X7008215Y7067346D01*
X6997598Y7077303D01*
X6985863Y7085838D01*
X6973112Y7092848D01*
X6959650Y7098182D01*
X6945579Y7101789D01*
X6931152Y7103618D01*
X6916623Y7103618D01*
X6902246Y7101789D01*
X6888175Y7098182D01*
X6874662Y7092848D01*
X6861962Y7085838D01*
X6850176Y7077303D01*
X6839610Y7067346D01*
X6830364Y7056170D01*
X6822592Y7043928D01*
X6816394Y7030770D01*
X6811924Y7016953D01*
X6809181Y7002678D01*
X6808266Y6988200D01*
X6809181Y6973722D01*
X6811924Y6959447D01*
X6816394Y6945630D01*
X6822592Y6932472D01*
X6830364Y6920230D01*
X6839610Y6909053D01*
X6850176Y6899097D01*
X6861962Y6890562D01*
X6874662Y6883552D01*
X6888175Y6878218D01*
X6902246Y6874611D01*
X6916623Y6872782D01*
X6931152Y6872782D01*
X6945579Y6874611D01*
X6964527Y6879336D01*
X6968388Y6878523D01*
X6971639Y6876288D01*
X6973824Y6873036D01*
X6974586Y6869125D01*
X6973773Y6865264D01*
X6971588Y6862013D01*
X6711289Y6601663D01*
X6704330Y6593535D01*
X6698945Y6584746D01*
X6694982Y6575247D01*
X6692595Y6565239D01*
X6691782Y6554571D01*
X6691782Y5571642D01*
X6692595Y5560974D01*
X6694982Y5550966D01*
X6698945Y5541467D01*
X6704330Y5532678D01*
X6711035Y5524855D01*
X6718858Y5518150D01*
X6727647Y5512765D01*
X6737146Y5508802D01*
X6747154Y5506415D01*
G37*
G36*
X6494373Y5712206D02*
G01*
X6512915Y5713628D01*
X6531203Y5716981D01*
X6549034Y5722162D01*
X6566255Y5729173D01*
X6582714Y5737910D01*
X6598107Y5748324D01*
X6612381Y5760212D01*
X6625386Y5773572D01*
X6636918Y5788152D01*
X6646925Y5803849D01*
X6655206Y5820460D01*
X6661810Y5837885D01*
X6666534Y5855868D01*
X6669379Y5874207D01*
X6670344Y5892800D01*
X6669379Y5911392D01*
X6666534Y5929731D01*
X6661810Y5947714D01*
X6655206Y5965139D01*
X6646925Y5981750D01*
X6636918Y5997448D01*
X6625386Y6012027D01*
X6612381Y6025388D01*
X6598107Y6037275D01*
X6582714Y6047689D01*
X6566255Y6056426D01*
X6549034Y6063437D01*
X6531203Y6068618D01*
X6512915Y6071920D01*
X6494373Y6073394D01*
X6475780Y6072886D01*
X6457289Y6070498D01*
X6439204Y6066231D01*
X6421628Y6060135D01*
X6404813Y6052261D01*
X6388862Y6042660D01*
X6373977Y6031534D01*
X6360312Y6018885D01*
X6348069Y6004915D01*
X6337300Y5989726D01*
X6328105Y5973572D01*
X6320688Y5956503D01*
X6314998Y5938824D01*
X6311188Y5920587D01*
X6309309Y5902096D01*
X6309309Y5883503D01*
X6311188Y5865012D01*
X6314998Y5846775D01*
X6320688Y5829096D01*
X6328105Y5812028D01*
X6337300Y5795873D01*
X6348069Y5780684D01*
X6360312Y5766714D01*
X6373977Y5754065D01*
X6388862Y5742940D01*
X6404813Y5733338D01*
X6421628Y5725464D01*
X6439204Y5719368D01*
X6457289Y5715101D01*
X6475780Y5712714D01*
G37*
G36*
X9161373Y6398564D02*
G01*
X9168790Y6402324D01*
X9180017Y6409994D01*
X9190075Y6419138D01*
X9198864Y6429552D01*
X9206179Y6440982D01*
X9208262Y6445504D01*
X9161373Y6445504D01*
G37*
G36*
X9072473Y6398564D02*
G01*
X9072473Y6445504D01*
X9025534Y6445504D01*
X9027617Y6440982D01*
X9034932Y6429552D01*
X9043720Y6419138D01*
X9053779Y6409994D01*
X9065006Y6402324D01*
G37*
G36*
X6057900Y6755688D02*
G01*
X6072327Y6756552D01*
X6086500Y6759295D01*
X6100267Y6763766D01*
X6113322Y6769912D01*
X6125514Y6777634D01*
X6136640Y6786829D01*
X6146546Y6797395D01*
X6155029Y6809079D01*
X6161989Y6821728D01*
X6167323Y6835140D01*
X6170879Y6849160D01*
X6172708Y6863486D01*
X6172708Y6877913D01*
X6170879Y6892239D01*
X6167323Y6906259D01*
X6161989Y6919671D01*
X6155029Y6932320D01*
X6146546Y6944004D01*
X6136640Y6954570D01*
X6127242Y6962343D01*
X6124498Y6965848D01*
X6123533Y6970166D01*
X6123533Y7571333D01*
X6124498Y7575651D01*
X6127242Y7579156D01*
X6136640Y7586929D01*
X6146546Y7597495D01*
X6155029Y7609179D01*
X6161989Y7621828D01*
X6167323Y7635240D01*
X6170879Y7649260D01*
X6172708Y7663586D01*
X6172708Y7678013D01*
X6170879Y7692339D01*
X6167323Y7706359D01*
X6161989Y7719771D01*
X6155029Y7732420D01*
X6146546Y7744104D01*
X6136640Y7754670D01*
X6125514Y7763865D01*
X6113322Y7771587D01*
X6100267Y7777734D01*
X6086500Y7782204D01*
X6072327Y7784947D01*
X6057900Y7785811D01*
X6043472Y7784947D01*
X6029299Y7782204D01*
X6015532Y7777734D01*
X6002477Y7771587D01*
X5990285Y7763865D01*
X5979160Y7754670D01*
X5969254Y7744104D01*
X5960770Y7732420D01*
X5953810Y7719771D01*
X5948476Y7706359D01*
X5944920Y7692339D01*
X5943092Y7678013D01*
X5943092Y7663586D01*
X5944920Y7649260D01*
X5948476Y7635240D01*
X5953810Y7621828D01*
X5960770Y7609179D01*
X5969254Y7597495D01*
X5979160Y7586929D01*
X5988558Y7579156D01*
X5991301Y7575651D01*
X5992266Y7571333D01*
X5992266Y6970166D01*
X5991301Y6965848D01*
X5988558Y6962343D01*
X5979160Y6954570D01*
X5969254Y6944004D01*
X5960770Y6932320D01*
X5953810Y6919671D01*
X5948476Y6906259D01*
X5944920Y6892239D01*
X5943092Y6877913D01*
X5943092Y6863486D01*
X5944920Y6849160D01*
X5948476Y6835140D01*
X5953810Y6821728D01*
X5960770Y6809079D01*
X5969254Y6797395D01*
X5979160Y6786829D01*
X5990285Y6777634D01*
X6002477Y6769912D01*
X6015532Y6763766D01*
X6029299Y6759295D01*
X6043472Y6756552D01*
G37*
G36*
X6845300Y7555788D02*
G01*
X6859727Y7556652D01*
X6873900Y7559395D01*
X6887667Y7563866D01*
X6900722Y7570012D01*
X6912914Y7577734D01*
X6924040Y7586929D01*
X6933946Y7597495D01*
X6942429Y7609179D01*
X6949389Y7621828D01*
X6954723Y7635240D01*
X6958279Y7649260D01*
X6960108Y7663586D01*
X6960108Y7678013D01*
X6958279Y7692339D01*
X6954723Y7706359D01*
X6949389Y7719771D01*
X6942429Y7732420D01*
X6933946Y7744104D01*
X6924040Y7754670D01*
X6912914Y7763865D01*
X6900722Y7771587D01*
X6887667Y7777734D01*
X6873900Y7782204D01*
X6859727Y7784947D01*
X6845300Y7785811D01*
X6830872Y7784947D01*
X6816699Y7782204D01*
X6802932Y7777734D01*
X6789877Y7771587D01*
X6777685Y7763865D01*
X6766559Y7754670D01*
X6756653Y7744104D01*
X6748170Y7732420D01*
X6741210Y7719771D01*
X6735876Y7706359D01*
X6732320Y7692339D01*
X6730492Y7678013D01*
X6730492Y7663586D01*
X6732320Y7649260D01*
X6735876Y7635240D01*
X6741210Y7621828D01*
X6748170Y7609179D01*
X6756653Y7597495D01*
X6766559Y7586929D01*
X6777685Y7577734D01*
X6789877Y7570012D01*
X6802932Y7563866D01*
X6816699Y7559395D01*
X6830872Y7556652D01*
G37*
G36*
X6311900Y7555788D02*
G01*
X6326327Y7556652D01*
X6340500Y7559395D01*
X6354267Y7563866D01*
X6367322Y7570012D01*
X6379514Y7577734D01*
X6390640Y7586929D01*
X6400546Y7597495D01*
X6409029Y7609179D01*
X6415989Y7621828D01*
X6421323Y7635240D01*
X6424879Y7649260D01*
X6426708Y7663586D01*
X6426708Y7678013D01*
X6424879Y7692339D01*
X6421323Y7706359D01*
X6415989Y7719771D01*
X6409029Y7732420D01*
X6400546Y7744104D01*
X6390640Y7754670D01*
X6379514Y7763865D01*
X6367322Y7771587D01*
X6354267Y7777734D01*
X6340500Y7782204D01*
X6326327Y7784947D01*
X6311900Y7785811D01*
X6297472Y7784947D01*
X6283299Y7782204D01*
X6269532Y7777734D01*
X6256477Y7771587D01*
X6244285Y7763865D01*
X6233160Y7754670D01*
X6223254Y7744104D01*
X6214770Y7732420D01*
X6207810Y7719771D01*
X6202476Y7706359D01*
X6198920Y7692339D01*
X6197092Y7678013D01*
X6197092Y7663586D01*
X6198920Y7649260D01*
X6202476Y7635240D01*
X6207810Y7621828D01*
X6214770Y7609179D01*
X6223254Y7597495D01*
X6233160Y7586929D01*
X6244285Y7577734D01*
X6256477Y7570012D01*
X6269532Y7563866D01*
X6283299Y7559395D01*
X6297472Y7556652D01*
G37*
G36*
X9848291Y7673848D02*
G01*
X9865156Y7674762D01*
X9881819Y7677607D01*
X9898024Y7682280D01*
X9913670Y7688732D01*
X9928453Y7696911D01*
X9942220Y7706715D01*
X9954818Y7717942D01*
X9966045Y7730540D01*
X9975850Y7744307D01*
X9984028Y7759090D01*
X9990480Y7774736D01*
X9995154Y7790942D01*
X9997998Y7807604D01*
X9998913Y7824470D01*
X9997998Y7841335D01*
X9995154Y7857998D01*
X9990480Y7874203D01*
X9984028Y7889849D01*
X9975850Y7904632D01*
X9966045Y7918399D01*
X9954818Y7930997D01*
X9942220Y7942224D01*
X9928453Y7952028D01*
X9913670Y7960207D01*
X9898024Y7966659D01*
X9881819Y7971332D01*
X9865156Y7974177D01*
X9848291Y7975092D01*
X9831425Y7974177D01*
X9814763Y7971332D01*
X9798558Y7966659D01*
X9782911Y7960207D01*
X9768128Y7952028D01*
X9754362Y7942224D01*
X9741763Y7930997D01*
X9730536Y7918399D01*
X9720732Y7904632D01*
X9712553Y7889849D01*
X9706102Y7874203D01*
X9701428Y7857998D01*
X9698583Y7841335D01*
X9697669Y7824470D01*
X9698583Y7807604D01*
X9701428Y7790942D01*
X9706102Y7774736D01*
X9712553Y7759090D01*
X9720732Y7744307D01*
X9730536Y7730540D01*
X9741763Y7717942D01*
X9754362Y7706715D01*
X9768128Y7696911D01*
X9782911Y7688732D01*
X9798558Y7682280D01*
X9814763Y7677607D01*
X9831425Y7674762D01*
G37*
G36*
X9416897Y7888122D02*
G01*
X9430461Y7889036D01*
X9443821Y7891729D01*
X9456674Y7896199D01*
X9468815Y7902295D01*
X9479991Y7910017D01*
X9490100Y7919161D01*
X9498888Y7929524D01*
X9506204Y7941005D01*
X9511944Y7953349D01*
X9515957Y7966354D01*
X9518243Y7979765D01*
X9518650Y7993329D01*
X9517329Y8006892D01*
X9514179Y8020100D01*
X9509252Y8032800D01*
X9502749Y8044738D01*
X9494672Y8055660D01*
X9485223Y8065465D01*
X9474555Y8073898D01*
X9462820Y8080806D01*
X9450324Y8086140D01*
X9437166Y8089747D01*
X9423704Y8091525D01*
X9410090Y8091525D01*
X9396628Y8089747D01*
X9383522Y8086140D01*
X9370974Y8080806D01*
X9359290Y8073898D01*
X9348571Y8065465D01*
X9339122Y8055660D01*
X9331045Y8044738D01*
X9324543Y8032800D01*
X9319615Y8020100D01*
X9316466Y8006892D01*
X9315145Y7993329D01*
X9315602Y7979765D01*
X9317837Y7966354D01*
X9321850Y7953349D01*
X9327591Y7941005D01*
X9334906Y7929524D01*
X9343694Y7919161D01*
X9353804Y7910017D01*
X9364980Y7902295D01*
X9377121Y7896199D01*
X9389973Y7891729D01*
X9403334Y7889036D01*
G37*

%LPD*%
G36*
X7964322Y6444589D02*
G01*
X7960461Y6445402D01*
X7957159Y6447586D01*
X7955280Y6449415D01*
X7953095Y6452717D01*
X7952333Y6456629D01*
X7952333Y6474764D01*
X7934147Y6474764D01*
X7930286Y6475577D01*
X7926984Y6477762D01*
X7545120Y6859625D01*
X7542936Y6862927D01*
X7542123Y6866788D01*
X7542123Y7498689D01*
X7542885Y7502499D01*
X7545070Y7505750D01*
X7548270Y7507986D01*
X7552080Y7508849D01*
X7555941Y7508138D01*
X7559395Y7505953D01*
X7571079Y7497470D01*
X7581646Y7491628D01*
X7581646Y7543546D01*
X7552283Y7543546D01*
X7548422Y7544308D01*
X7545120Y7546543D01*
X7542936Y7549845D01*
X7542123Y7553706D01*
X7542123Y7635494D01*
X7542936Y7639354D01*
X7545120Y7642656D01*
X7548422Y7644892D01*
X7552283Y7645653D01*
X7581646Y7645653D01*
X7581646Y7700518D01*
X7582408Y7704378D01*
X7584643Y7707680D01*
X7608874Y7731912D01*
X7611364Y7733741D01*
X7614259Y7734757D01*
X7617307Y7734808D01*
X7625486Y7733792D01*
X7639913Y7733792D01*
X7654239Y7735620D01*
X7668259Y7739176D01*
X7681671Y7744510D01*
X7694320Y7751470D01*
X7706004Y7759953D01*
X7716570Y7769859D01*
X7725765Y7780985D01*
X7733487Y7793177D01*
X7739634Y7806232D01*
X7744104Y7819999D01*
X7746847Y7834172D01*
X7747711Y7848600D01*
X7746847Y7863027D01*
X7744104Y7877200D01*
X7739634Y7890967D01*
X7733487Y7904022D01*
X7726273Y7915402D01*
X7724800Y7919466D01*
X7725105Y7923784D01*
X7727188Y7927543D01*
X7730642Y7930134D01*
X7734858Y7931048D01*
X8599017Y7931048D01*
X8602878Y7930235D01*
X8606180Y7928051D01*
X8696350Y7837881D01*
X8698585Y7834579D01*
X8699347Y7830667D01*
X8698585Y7826806D01*
X8696350Y7823504D01*
X8693099Y7821320D01*
X8689187Y7820507D01*
X8397138Y7820507D01*
X8386470Y7819694D01*
X8376462Y7817307D01*
X8366963Y7813344D01*
X8358174Y7807959D01*
X8350046Y7801000D01*
X7692999Y7143953D01*
X7686040Y7135825D01*
X7680655Y7127036D01*
X7676692Y7117537D01*
X7674305Y7107529D01*
X7673492Y7096861D01*
X7673492Y6988708D01*
X7674305Y6978040D01*
X7676692Y6968032D01*
X7680655Y6958533D01*
X7686040Y6949744D01*
X7692745Y6941921D01*
X7700568Y6935216D01*
X7709357Y6929831D01*
X7718856Y6925868D01*
X7728864Y6923481D01*
X7739125Y6922668D01*
X7749387Y6923481D01*
X7759395Y6925868D01*
X7768894Y6929831D01*
X7777683Y6935216D01*
X7785506Y6941921D01*
X7792212Y6949744D01*
X7797596Y6958533D01*
X7801559Y6968032D01*
X7803946Y6978040D01*
X7804759Y6988708D01*
X7804759Y7065873D01*
X7805572Y7069734D01*
X7807756Y7073036D01*
X8075523Y7340803D01*
X8078825Y7342987D01*
X8082686Y7343800D01*
X8086598Y7342987D01*
X8089900Y7340803D01*
X8092084Y7337501D01*
X8092846Y7333640D01*
X8092846Y7316724D01*
X8094776Y7298232D01*
X8098586Y7280046D01*
X8104225Y7262317D01*
X8111693Y7245299D01*
X8120837Y7229094D01*
X8131606Y7213955D01*
X8143900Y7199985D01*
X8157565Y7187336D01*
X8172399Y7176160D01*
X8188350Y7166609D01*
X8205216Y7158736D01*
X8222792Y7152589D01*
X8240877Y7148322D01*
X8259318Y7145934D01*
X8277910Y7145477D01*
X8296452Y7146899D01*
X8314740Y7150252D01*
X8332622Y7155434D01*
X8349843Y7162444D01*
X8366252Y7171181D01*
X8381695Y7181545D01*
X8395970Y7193483D01*
X8408924Y7206792D01*
X8420506Y7221372D01*
X8430463Y7237069D01*
X8438794Y7253731D01*
X8445347Y7271105D01*
X8450072Y7289088D01*
X8452967Y7307478D01*
X8453882Y7326020D01*
X8452967Y7344613D01*
X8450072Y7363002D01*
X8445347Y7380986D01*
X8438794Y7398359D01*
X8430463Y7415022D01*
X8420506Y7430719D01*
X8408924Y7445298D01*
X8395970Y7458608D01*
X8381695Y7470546D01*
X8366252Y7480909D01*
X8349843Y7489647D01*
X8332622Y7496657D01*
X8314740Y7501839D01*
X8296452Y7505192D01*
X8277910Y7506614D01*
X8265820Y7506309D01*
X8261858Y7507020D01*
X8258505Y7509154D01*
X8256219Y7512456D01*
X8255406Y7516368D01*
X8256168Y7520330D01*
X8258352Y7523632D01*
X8420963Y7686243D01*
X8424265Y7688427D01*
X8428126Y7689240D01*
X8838031Y7689240D01*
X8848699Y7690053D01*
X8858707Y7692440D01*
X8868206Y7696403D01*
X8876995Y7701788D01*
X8884818Y7708493D01*
X8891524Y7716316D01*
X8896908Y7725105D01*
X8900871Y7734604D01*
X8903258Y7744612D01*
X8904071Y7754874D01*
X8903258Y7765135D01*
X8901328Y7773212D01*
X8901125Y7776870D01*
X8902192Y7780324D01*
X8904478Y7783220D01*
X8907627Y7785100D01*
X8911183Y7785760D01*
X9045041Y7785760D01*
X9049105Y7784896D01*
X9052458Y7782458D01*
X9054592Y7778902D01*
X9055150Y7774787D01*
X9053982Y7770774D01*
X9051340Y7767624D01*
X9048597Y7765440D01*
X9039148Y7755686D01*
X9031071Y7744714D01*
X9024518Y7732775D01*
X9019641Y7720126D01*
X9016492Y7706868D01*
X9015120Y7693355D01*
X9015374Y7685786D01*
X9014663Y7681722D01*
X9012428Y7678267D01*
X8455253Y7121093D01*
X8448294Y7112965D01*
X8442909Y7104176D01*
X8438946Y7094677D01*
X8436559Y7084669D01*
X8435746Y7074001D01*
X8435746Y6810349D01*
X8434933Y6806488D01*
X8432749Y6803186D01*
X8429447Y6801002D01*
X8425586Y6800189D01*
X8066938Y6800189D01*
X8056270Y6799376D01*
X8046262Y6796989D01*
X8036763Y6793026D01*
X8027974Y6787642D01*
X8020151Y6780936D01*
X8013446Y6773113D01*
X8008061Y6764324D01*
X8004098Y6754825D01*
X8001711Y6744817D01*
X8000898Y6734556D01*
X8001711Y6724294D01*
X8004098Y6714286D01*
X8008061Y6704787D01*
X8013446Y6695998D01*
X8020151Y6688175D01*
X8027974Y6681470D01*
X8036763Y6676085D01*
X8046262Y6672122D01*
X8056270Y6669735D01*
X8066938Y6668922D01*
X8425586Y6668922D01*
X8429447Y6668109D01*
X8432749Y6665925D01*
X8434933Y6662623D01*
X8435746Y6658762D01*
X8435746Y6617512D01*
X8434781Y6613245D01*
X8432139Y6609740D01*
X8424316Y6603085D01*
X8414816Y6592620D01*
X8406688Y6580987D01*
X8400135Y6568440D01*
X8395258Y6555130D01*
X8392109Y6541312D01*
X8390737Y6527190D01*
X8391194Y6513017D01*
X8393430Y6498996D01*
X8397494Y6485432D01*
X8403234Y6472478D01*
X8410752Y6460032D01*
X8412124Y6456019D01*
X8411768Y6451752D01*
X8409686Y6448044D01*
X8406231Y6445504D01*
X8402066Y6444589D01*
X8350351Y6444589D01*
X8346186Y6445504D01*
X8342731Y6448044D01*
X8340648Y6451752D01*
X8340293Y6456019D01*
X8341664Y6460032D01*
X8349183Y6472478D01*
X8354923Y6485432D01*
X8358987Y6498996D01*
X8361222Y6513017D01*
X8361680Y6527190D01*
X8360308Y6541312D01*
X8357158Y6555130D01*
X8352281Y6568440D01*
X8345728Y6580987D01*
X8337600Y6592620D01*
X8328101Y6603085D01*
X8317280Y6612280D01*
X8305393Y6620052D01*
X8292642Y6626199D01*
X8279180Y6630670D01*
X8265261Y6633362D01*
X8251139Y6634276D01*
X8236966Y6633362D01*
X8223046Y6630670D01*
X8209584Y6626199D01*
X8196834Y6620052D01*
X8184946Y6612280D01*
X8174126Y6603085D01*
X8164626Y6592620D01*
X8156498Y6580987D01*
X8149945Y6568440D01*
X8145068Y6555130D01*
X8141919Y6541312D01*
X8140547Y6527190D01*
X8141004Y6513017D01*
X8143240Y6498996D01*
X8147303Y6485432D01*
X8153044Y6472478D01*
X8160562Y6460032D01*
X8161934Y6456019D01*
X8161578Y6451752D01*
X8159496Y6448044D01*
X8156041Y6445504D01*
X8151875Y6444589D01*
X8100415Y6444589D01*
X8096250Y6445504D01*
X8092795Y6448044D01*
X8090712Y6451752D01*
X8090357Y6456019D01*
X8091728Y6460032D01*
X8099247Y6472478D01*
X8100314Y6474764D01*
X8050022Y6474764D01*
X8050022Y6454749D01*
X8049259Y6450888D01*
X8047075Y6447586D01*
X8043773Y6445402D01*
X8039862Y6444589D01*
G37*

%LPC*%
G36*
X7902143Y6572503D02*
G01*
X7952333Y6572503D01*
X7952333Y6622643D01*
X7946898Y6620052D01*
X7935010Y6612280D01*
X7924190Y6603085D01*
X7914690Y6592620D01*
X7906562Y6580987D01*
G37*
G36*
X8050022Y6572503D02*
G01*
X8100212Y6572503D01*
X8095792Y6580987D01*
X8087664Y6592620D01*
X8078165Y6603085D01*
X8067344Y6612280D01*
X8055457Y6620052D01*
X8050022Y6622643D01*
G37*
G36*
X7683753Y7491628D02*
G01*
X7694320Y7497470D01*
X7706004Y7505953D01*
X7716570Y7515859D01*
X7725765Y7526985D01*
X7733487Y7539177D01*
X7735570Y7543546D01*
X7683753Y7543546D01*
G37*
G36*
X7683753Y7645653D02*
G01*
X7735570Y7645653D01*
X7733487Y7650022D01*
X7725765Y7662214D01*
X7716570Y7673340D01*
X7706004Y7683246D01*
X7694320Y7691729D01*
X7683753Y7697571D01*
G37*

%LPD*%
D11*
X9416034Y6491478D02*
G01*
X9267697Y6639813D01*
X8935465Y6639813D01*
X8674608Y6378955D01*
X7932927Y6378955D01*
X7476490Y6835394D01*
X7476490Y7692389D01*
X7632700Y7848600D01*
X9314434Y5003800D02*
G01*
X9314434Y6090920D01*
X9414256Y6190742D01*
X9116822Y6789928D02*
G01*
X9116822Y6803644D01*
X8882888Y7037578D01*
X9059418Y5003800D02*
G01*
X8974836Y5088381D01*
X8974836Y6047994D01*
X9116822Y6189979D01*
X9561322Y5003800D02*
G01*
X9561322Y6945121D01*
X9417811Y7088631D01*
X6311900Y6870700D02*
G01*
X6511543Y6870700D01*
X7270241Y7629397D01*
X7270241Y7701534D01*
X7565390Y7996681D01*
X8630411Y7996681D01*
X8775700Y7851394D01*
X9143745Y7851394D01*
X9249409Y7745476D01*
X9249409Y7557515D01*
X9416795Y7389876D01*
X9821418Y5004562D02*
G01*
X10033254Y5216397D01*
X10033254Y7073392D01*
X9416795Y7689850D01*
X8066531Y6734555D02*
G01*
X8501379Y6734555D01*
X8501379Y6523736D02*
G01*
X8501379Y6734555D01*
X8501379Y6734555D02*
G01*
X8501379Y7074408D01*
X9116822Y7689850D01*
X6057900Y6870700D02*
G01*
X6057900Y7670800D01*
X7632700Y7594600D02*
G01*
X7632700Y6892036D01*
X8001254Y6523736D01*
X7224013Y6988302D02*
G01*
X7190740Y6988302D01*
X6757415Y6554978D01*
X6757415Y5571236D01*
X8838438Y7754873D02*
G01*
X8396731Y7754873D01*
X7739125Y7097268D01*
X7739125Y6988302D01*
D16*
G01*
X9416084Y6491401D03*
G01*
X9414205Y6190691D03*
G01*
X9417811Y6787591D03*
G01*
X9417811Y7088759D03*
G01*
X9416897Y7389926D03*
G01*
X9416897Y7689926D03*
G01*
X9416897Y7989925D03*
G01*
X9116898Y7989925D03*
G01*
X9116898Y7689926D03*
G01*
X9116898Y7389926D03*
G01*
X9116898Y7089927D03*
G01*
X9116898Y6789928D03*
G01*
X9116898Y6489928D03*
G01*
X9116898Y6189929D03*
D17*
G01*
X6923887Y6988200D03*
G01*
X7223886Y6988200D03*
D18*
G01*
X7099300Y7670800D03*
G01*
X6845300Y7670800D03*
D19*
G01*
X9811499Y5651500D03*
G01*
X9111500Y5651500D03*
D18*
G01*
X6311900Y6870700D03*
G01*
X6057900Y6870700D03*
G01*
X6311900Y7670800D03*
G01*
X6057900Y7670800D03*
G01*
X7632700Y7594600D03*
G01*
X7632700Y7848600D03*
D20*
G01*
X9561322Y5003800D03*
G01*
X9821418Y5004612D03*
G01*
X9314434Y5003800D03*
G01*
X9059418Y5003800D03*
D21*
G01*
X8501303Y6523634D03*
G01*
X8251113Y6523634D03*
G01*
X8001177Y6523634D03*
D12*
G01*
X8882888Y7037578D03*
G01*
X8066531Y6734555D03*
G01*
X6757415Y5571236D03*
G01*
X7739125Y6988302D03*
G01*
X8838438Y7754873D03*
M02*
