G04 Layer: BottomSilkLayer*
G04 EasyEDA v6.4.19.4, 2021-04-11T16:08:46--7:00*
G04 9cbc2b910eb64c8f9819a69e802af7b9,debd25b7e7f645e7808fdd9718494454,10*
G04 Gerber Generator version 0.2*
G04 Scale: 100 percent, Rotated: No, Reflected: No *
G04 Dimensions in millimeters *
G04 leading zeros omitted , absolute positions ,4 integer and 5 decimal *
%FSLAX45Y45*%
%MOMM*%

%ADD24C,0.2032*%

%LPD*%
G36*
X5985967Y8124596D02*
G01*
X5985967Y7984642D01*
X6004001Y7984642D01*
X6004001Y8124596D01*
G37*
G36*
X6358839Y8124596D02*
G01*
X6358839Y8069478D01*
X6355791Y8075625D01*
X6349441Y8079994D01*
X6339789Y8082584D01*
X6326835Y8083448D01*
X6311087Y8081772D01*
X6300927Y8076590D01*
X6297574Y8072831D01*
X6295237Y8068056D01*
X6293764Y8062264D01*
X6293307Y8055508D01*
X6293307Y7984642D01*
X6311341Y7984642D01*
X6311392Y8056321D01*
X6311849Y8060588D01*
X6312865Y8062975D01*
X6314389Y8065414D01*
X6317030Y8067649D01*
X6320891Y8069224D01*
X6325920Y8070189D01*
X6332169Y8070494D01*
X6337300Y8070443D01*
X6345682Y8069681D01*
X6348933Y8068970D01*
X6351524Y8068106D01*
X6353657Y8066938D01*
X6355334Y8065566D01*
X6357569Y8062112D01*
X6358280Y8059928D01*
X6358686Y8057388D01*
X6358839Y8054492D01*
X6358839Y7984642D01*
X6376619Y7984642D01*
X6376619Y8124596D01*
G37*
G36*
X6764223Y8124596D02*
G01*
X6764223Y8010042D01*
X6782257Y8010042D01*
X6782257Y8057794D01*
X6783933Y8063484D01*
X6788861Y8067548D01*
X6797141Y8069986D01*
X6808673Y8070748D01*
X6815988Y8070646D01*
X6821881Y8070189D01*
X6826402Y8069478D01*
X6829501Y8068462D01*
X6831736Y8066887D01*
X6833311Y8064550D01*
X6834276Y8061553D01*
X6834581Y8057794D01*
X6834581Y8010042D01*
X6834225Y8006283D01*
X6833209Y8003082D01*
X6831431Y8000441D01*
X6828993Y7998358D01*
X6825843Y7996936D01*
X6821678Y7995920D01*
X6816547Y7995310D01*
X6810451Y7995056D01*
X6803390Y7995310D01*
X6797446Y7995920D01*
X6792620Y7996936D01*
X6788861Y7998358D01*
X6785965Y8000441D01*
X6783933Y8003082D01*
X6782663Y8006283D01*
X6782257Y8010042D01*
X6764223Y8010042D01*
X6764223Y7984642D01*
X6781749Y7984642D01*
X6781749Y7996072D01*
X6782308Y7993430D01*
X6783933Y7990941D01*
X6786625Y7988706D01*
X6790385Y7986674D01*
X6795109Y7984896D01*
X6800697Y7983626D01*
X6807047Y7982864D01*
X6814261Y7982610D01*
X6821017Y7982813D01*
X6826961Y7983321D01*
X6832193Y7984185D01*
X6836613Y7985404D01*
X6840524Y7987182D01*
X6843775Y7989366D01*
X6846468Y7992008D01*
X6848551Y7995056D01*
X6850227Y7998714D01*
X6851396Y8002930D01*
X6852107Y8007858D01*
X6852361Y8013344D01*
X6852361Y8056016D01*
X6850075Y8068564D01*
X6843217Y8077098D01*
X6831177Y8081873D01*
X6813245Y8083448D01*
X6807098Y8083245D01*
X6801459Y8082635D01*
X6796176Y8081619D01*
X6791401Y8080146D01*
X6787388Y8078470D01*
X6784543Y8076336D01*
X6782816Y8073898D01*
X6782257Y8071002D01*
X6781749Y8071002D01*
X6782257Y8095640D01*
X6782257Y8124596D01*
G37*
G36*
X7215327Y8116468D02*
G01*
X7215327Y8097672D01*
X7233361Y8097672D01*
X7233361Y8116468D01*
G37*
G36*
X6641033Y8114436D02*
G01*
X6626047Y8113572D01*
X6614617Y8110880D01*
X6610451Y8109254D01*
X6606997Y8107425D01*
X6604355Y8105343D01*
X6602425Y8103006D01*
X6601104Y8100415D01*
X6600139Y8097316D01*
X6599580Y8093811D01*
X6599377Y8089798D01*
X6599377Y8073034D01*
X6617411Y8073034D01*
X6617411Y8088274D01*
X6617766Y8091728D01*
X6618833Y8094573D01*
X6620560Y8096910D01*
X6622999Y8098688D01*
X6626148Y8099958D01*
X6630162Y8100822D01*
X6635140Y8101330D01*
X6667957Y8101482D01*
X6667957Y8057540D01*
X6640271Y8057540D01*
X6634632Y8057794D01*
X6629806Y8058505D01*
X6625844Y8059724D01*
X6622745Y8061350D01*
X6620408Y8063433D01*
X6618731Y8066074D01*
X6617766Y8069275D01*
X6617411Y8073034D01*
X6599377Y8073034D01*
X6599631Y8068716D01*
X6600444Y8065516D01*
X6601815Y8062722D01*
X6603695Y8060334D01*
X6606184Y8058353D01*
X6609232Y8056625D01*
X6612890Y8055152D01*
X6617157Y8053984D01*
X6617157Y8053222D01*
X6612077Y8052104D01*
X6607556Y8050530D01*
X6603593Y8048447D01*
X6600139Y8045856D01*
X6597243Y8043011D01*
X6595211Y8039760D01*
X6593941Y8036153D01*
X6593535Y8032140D01*
X6593535Y8011312D01*
X6612839Y8011312D01*
X6612839Y8030870D01*
X6612991Y8033308D01*
X6613398Y8035442D01*
X6614109Y8037372D01*
X6616293Y8040522D01*
X6617716Y8041792D01*
X6619443Y8042808D01*
X6623710Y8044180D01*
X6627622Y8044942D01*
X6631228Y8045246D01*
X6667957Y8045348D01*
X6667957Y7998104D01*
X6639509Y7998104D01*
X6632803Y7998307D01*
X6627114Y7998815D01*
X6622491Y7999679D01*
X6618935Y8000898D01*
X6616293Y8002727D01*
X6614363Y8005064D01*
X6613245Y8007908D01*
X6612839Y8011312D01*
X6593535Y8011312D01*
X6593535Y8010296D01*
X6596227Y7998256D01*
X6604203Y7990484D01*
X6618224Y7986115D01*
X6639509Y7984642D01*
X6687261Y7984642D01*
X6687261Y8114436D01*
G37*
G36*
X7519873Y8114436D02*
G01*
X7507071Y8113877D01*
X7495997Y8112150D01*
X7486599Y8109203D01*
X7478928Y8105140D01*
X7472934Y8099856D01*
X7468666Y8093456D01*
X7466126Y8085886D01*
X7465263Y8077098D01*
X7465263Y8020202D01*
X7484059Y8020202D01*
X7484059Y8077352D01*
X7484262Y8080908D01*
X7484770Y8084108D01*
X7485634Y8087004D01*
X7486853Y8089544D01*
X7488529Y8091931D01*
X7490459Y8093964D01*
X7492695Y8095640D01*
X7495235Y8096910D01*
X7500823Y8098891D01*
X7506411Y8100212D01*
X7516317Y8100974D01*
X7552131Y8100974D01*
X7552131Y7997850D01*
X7521143Y7997850D01*
X7504938Y7999272D01*
X7493355Y8003438D01*
X7486396Y8010448D01*
X7484059Y8020202D01*
X7465263Y8020202D01*
X7466126Y8011515D01*
X7468666Y8004403D01*
X7472934Y7998358D01*
X7478877Y7993430D01*
X7486497Y7989570D01*
X7495844Y7986877D01*
X7506868Y7985201D01*
X7519619Y7984642D01*
X7571435Y7984642D01*
X7571435Y8114436D01*
G37*
G36*
X6058103Y8111388D02*
G01*
X6058103Y8081416D01*
X6023559Y8081416D01*
X6023559Y8069478D01*
X6058103Y8069478D01*
X6058001Y8008518D01*
X6057646Y8005572D01*
X6057087Y8003031D01*
X6056325Y8000898D01*
X6055410Y7999272D01*
X6054090Y7997850D01*
X6052464Y7996732D01*
X6050483Y7995818D01*
X6048095Y7995158D01*
X6041847Y7994396D01*
X6038037Y7994294D01*
X6033008Y7994751D01*
X6023559Y7996072D01*
X6023559Y7984134D01*
X6033668Y7983016D01*
X6043625Y7982610D01*
X6049518Y7982813D01*
X6054750Y7983321D01*
X6059322Y7984185D01*
X6063183Y7985404D01*
X6066383Y7986928D01*
X6069177Y7988960D01*
X6071463Y7991500D01*
X6073343Y7994548D01*
X6074664Y7998104D01*
X6075629Y8002320D01*
X6076188Y8007248D01*
X6076391Y8012836D01*
X6076391Y8069478D01*
X6097981Y8069478D01*
X6097981Y8081416D01*
X6076391Y8081416D01*
X6076391Y8111388D01*
G37*
G36*
X6102299Y8083448D02*
G01*
X6102299Y8067954D01*
X6112459Y8067954D01*
X6118352Y8067751D01*
X6123381Y8067141D01*
X6127496Y8066125D01*
X6130747Y8064652D01*
X6133287Y8062671D01*
X6135116Y8060029D01*
X6136233Y8056727D01*
X6136589Y8052714D01*
X6136589Y7984642D01*
X6154623Y7984642D01*
X6154623Y8081416D01*
X6137605Y8081416D01*
X6137605Y8065668D01*
X6137351Y8067954D01*
X6136589Y8070138D01*
X6135319Y8072272D01*
X6133541Y8074304D01*
X6131407Y8076285D01*
X6126327Y8079587D01*
X6123381Y8080908D01*
X6120231Y8082025D01*
X6117183Y8082838D01*
X6114135Y8083296D01*
G37*
G36*
X6224473Y8083448D02*
G01*
X6216650Y8083296D01*
X6209944Y8082838D01*
X6204356Y8082025D01*
X6199835Y8080908D01*
X6196076Y8079435D01*
X6192977Y8077504D01*
X6190488Y8075117D01*
X6188659Y8072272D01*
X6187338Y8068716D01*
X6186373Y8064296D01*
X6185814Y8059064D01*
X6185611Y8052968D01*
X6185611Y8030616D01*
X6231585Y8030616D01*
X6239002Y8030311D01*
X6241846Y8029905D01*
X6244031Y8029346D01*
X6245758Y8028584D01*
X6247130Y8027517D01*
X6248196Y8026196D01*
X6249416Y8022386D01*
X6250076Y8016544D01*
X6250076Y8009483D01*
X6249416Y8003895D01*
X6248857Y8001660D01*
X6247993Y7999882D01*
X6246825Y7998358D01*
X6245453Y7997088D01*
X6243777Y7996072D01*
X6241745Y7995310D01*
X6239256Y7994751D01*
X6232855Y7994294D01*
X6224676Y7994396D01*
X6216396Y7995158D01*
X6212789Y7995818D01*
X6208776Y7997037D01*
X6205931Y7998815D01*
X6204204Y8001203D01*
X6203645Y8004200D01*
X6203645Y8030616D01*
X6185611Y8030616D01*
X6185611Y7984642D01*
X6203137Y7984642D01*
X6203137Y7993786D01*
X6205829Y7988909D01*
X6211570Y7985404D01*
X6220409Y7983321D01*
X6232347Y7982610D01*
X6238849Y7982813D01*
X6244539Y7983270D01*
X6249517Y7984083D01*
X6253683Y7985150D01*
X6257137Y7986674D01*
X6260033Y7988706D01*
X6262471Y7991246D01*
X6264351Y7994294D01*
X6265824Y7998002D01*
X6266840Y8002371D01*
X6267450Y8007502D01*
X6267653Y8013344D01*
X6267450Y8018627D01*
X6266891Y8023250D01*
X6265926Y8027263D01*
X6264605Y8030616D01*
X6262776Y8033461D01*
X6260439Y8035848D01*
X6257442Y8037779D01*
X6253937Y8039252D01*
X6249873Y8040370D01*
X6244996Y8041182D01*
X6239306Y8041640D01*
X6203645Y8041792D01*
X6203645Y8057286D01*
X6203797Y8059826D01*
X6204204Y8062010D01*
X6204915Y8063890D01*
X6207150Y8066836D01*
X6208674Y8067954D01*
X6210554Y8068868D01*
X6215481Y8070037D01*
X6222593Y8070697D01*
X6227013Y8070748D01*
X6242964Y8070189D01*
X6260287Y8068462D01*
X6260287Y8081670D01*
X6241440Y8083042D01*
G37*
G36*
X6916623Y8083448D02*
G01*
X6898081Y8081619D01*
X6885635Y8076082D01*
X6878574Y8066024D01*
X6876237Y8050428D01*
X6876237Y8040776D01*
X6894017Y8040776D01*
X6894017Y8056016D01*
X6894372Y8060131D01*
X6895338Y8063534D01*
X6897014Y8066227D01*
X6899351Y8068208D01*
X6902500Y8069681D01*
X6906615Y8070697D01*
X6911644Y8071307D01*
X6917639Y8071510D01*
X6923328Y8071307D01*
X6928205Y8070697D01*
X6932218Y8069681D01*
X6935419Y8068208D01*
X6937959Y8066227D01*
X6939788Y8063534D01*
X6940905Y8060131D01*
X6941261Y8056016D01*
X6941261Y8040776D01*
X6876237Y8040776D01*
X6876237Y8029092D01*
X6941261Y8029092D01*
X6941261Y8014360D01*
X6940803Y8009788D01*
X6939483Y8005825D01*
X6937248Y8002524D01*
X6934149Y7999882D01*
X6930136Y7998002D01*
X6925208Y7996681D01*
X6919366Y7995869D01*
X6912559Y7995564D01*
X6897573Y7996783D01*
X6880047Y8000390D01*
X6880047Y7986674D01*
X6897878Y7983626D01*
X6914845Y7982610D01*
X6928408Y7983474D01*
X6939534Y7985912D01*
X6948170Y7989976D01*
X6954367Y7995716D01*
X6958075Y8003082D01*
X6959295Y8012074D01*
X6959295Y8050428D01*
X6956755Y8065516D01*
X6949135Y8075574D01*
X6936079Y8081518D01*
G37*
G36*
X7020509Y8083448D02*
G01*
X7004710Y8081772D01*
X6994347Y8076590D01*
X6991146Y8072831D01*
X6988809Y8068056D01*
X6987438Y8062264D01*
X6986981Y8055508D01*
X6986981Y7984642D01*
X7005015Y7984642D01*
X7005066Y8056321D01*
X7005320Y8059521D01*
X7005878Y8062010D01*
X7007148Y8064449D01*
X7008063Y8065668D01*
X7010603Y8067802D01*
X7014413Y8069325D01*
X7019493Y8070240D01*
X7025843Y8070494D01*
X7035139Y8070189D01*
X7042099Y8069224D01*
X7044690Y8068360D01*
X7046874Y8067192D01*
X7048652Y8065820D01*
X7049973Y8064144D01*
X7050989Y8062315D01*
X7051700Y8060080D01*
X7052106Y8057489D01*
X7052259Y8054492D01*
X7052259Y7984642D01*
X7070293Y7984642D01*
X7070293Y8081416D01*
X7052259Y8081416D01*
X7052259Y8069478D01*
X7049211Y8075625D01*
X7042912Y8079994D01*
X7033361Y8082584D01*
G37*
G36*
X7148017Y8083448D02*
G01*
X7127900Y8080603D01*
X7118299Y8072018D01*
X7118299Y8081416D01*
X7101535Y8081416D01*
X7101535Y8010804D01*
X7119569Y8010804D01*
X7119569Y8054492D01*
X7120077Y8060334D01*
X7120737Y8062722D01*
X7121601Y8064652D01*
X7122820Y8066227D01*
X7124547Y8067548D01*
X7126630Y8068614D01*
X7129221Y8069478D01*
X7132472Y8070189D01*
X7140702Y8070951D01*
X7150506Y8070951D01*
X7158126Y8070189D01*
X7163308Y8068716D01*
X7165289Y8067649D01*
X7166864Y8066328D01*
X7168083Y8064652D01*
X7168845Y8062722D01*
X7169759Y8057642D01*
X7169759Y8007603D01*
X7169353Y8004860D01*
X7168743Y8002524D01*
X7167829Y8000644D01*
X7166711Y7999018D01*
X7165187Y7997698D01*
X7163155Y7996631D01*
X7160717Y7995818D01*
X7154316Y7994903D01*
X7145223Y7994548D01*
X7138771Y7994802D01*
X7133285Y7995462D01*
X7128865Y7996580D01*
X7125411Y7998104D01*
X7122871Y8000136D01*
X7121042Y8002930D01*
X7119924Y8006486D01*
X7119569Y8010804D01*
X7101535Y8010804D01*
X7101535Y7975498D01*
X7101840Y7969148D01*
X7102805Y7963509D01*
X7104380Y7958632D01*
X7106615Y7954416D01*
X7109358Y7950911D01*
X7112762Y7947964D01*
X7116876Y7945577D01*
X7121601Y7943748D01*
X7133031Y7941462D01*
X7147509Y7940700D01*
X7165797Y7941208D01*
X7181037Y7942732D01*
X7181037Y7955686D01*
X7160209Y7953603D01*
X7145985Y7952892D01*
X7139482Y7953197D01*
X7133996Y7954009D01*
X7129475Y7955330D01*
X7125919Y7957210D01*
X7123125Y7959750D01*
X7121144Y7963001D01*
X7119975Y7967014D01*
X7119569Y7971688D01*
X7119569Y7995056D01*
X7120229Y7992109D01*
X7121855Y7989570D01*
X7124547Y7987436D01*
X7128205Y7985658D01*
X7132675Y7984337D01*
X7137603Y7983372D01*
X7143089Y7982813D01*
X7149033Y7982610D01*
X7156094Y7982813D01*
X7162393Y7983321D01*
X7167778Y7984185D01*
X7172401Y7985404D01*
X7176312Y7987030D01*
X7179564Y7989112D01*
X7182256Y7991602D01*
X7184339Y7994548D01*
X7185812Y7998053D01*
X7186828Y8002117D01*
X7187438Y8006791D01*
X7187641Y8012074D01*
X7187641Y8051444D01*
X7185355Y8066278D01*
X7178497Y8076082D01*
X7166203Y8081619D01*
G37*
G36*
X7292289Y8083448D02*
G01*
X7262825Y8081924D01*
X7262825Y8068716D01*
X7279386Y8070850D01*
X7293051Y8071510D01*
X7299604Y8071358D01*
X7305040Y8070850D01*
X7309408Y8069986D01*
X7312609Y8068716D01*
X7314844Y8067090D01*
X7316419Y8065008D01*
X7317384Y8062417D01*
X7317689Y8059318D01*
X7317689Y8051190D01*
X7313269Y8043773D01*
X7299909Y8041284D01*
X7288733Y8041284D01*
X7275423Y8039912D01*
X7265873Y8035645D01*
X7260183Y8028584D01*
X7258253Y8018678D01*
X7258253Y8010296D01*
X7260793Y7997494D01*
X7268413Y7988960D01*
X7281621Y7984236D01*
X7300417Y7982610D01*
X7316317Y7983220D01*
X7333437Y7984896D01*
X7333437Y7998866D01*
X7313371Y7996021D01*
X7299909Y7995056D01*
X7294016Y7995259D01*
X7288987Y7995716D01*
X7284872Y7996529D01*
X7281621Y7997596D01*
X7279182Y7999069D01*
X7277455Y8001050D01*
X7276388Y8003641D01*
X7276033Y8006740D01*
X7276033Y8016646D01*
X7276287Y8019491D01*
X7277049Y8021878D01*
X7278319Y8023809D01*
X7280097Y8025282D01*
X7282586Y8026552D01*
X7285685Y8027416D01*
X7289444Y8027924D01*
X7304735Y8028076D01*
X7311796Y8028482D01*
X7317943Y8029600D01*
X7323226Y8031530D01*
X7327595Y8034172D01*
X7331049Y8037677D01*
X7333488Y8041741D01*
X7334961Y8046415D01*
X7335469Y8051698D01*
X7335469Y8060588D01*
X7334250Y8067598D01*
X7330694Y8073288D01*
X7324699Y8077758D01*
X7316266Y8080908D01*
X7305497Y8082838D01*
G37*
G36*
X7397699Y8083448D02*
G01*
X7379309Y8081619D01*
X7366711Y8076082D01*
X7359650Y8066024D01*
X7357313Y8050428D01*
X7357313Y8040776D01*
X7375347Y8040776D01*
X7375347Y8056016D01*
X7375702Y8060131D01*
X7376668Y8063534D01*
X7378344Y8066227D01*
X7380681Y8068208D01*
X7383830Y8069681D01*
X7387844Y8070697D01*
X7392822Y8071307D01*
X7398715Y8071510D01*
X7404506Y8071307D01*
X7409434Y8070697D01*
X7413548Y8069681D01*
X7416749Y8068208D01*
X7419187Y8066227D01*
X7420965Y8063534D01*
X7421981Y8060131D01*
X7422337Y8056016D01*
X7422337Y8040776D01*
X7357313Y8040776D01*
X7357313Y8029092D01*
X7422337Y8029092D01*
X7422337Y8014360D01*
X7421880Y8009788D01*
X7420559Y8005825D01*
X7418324Y8002524D01*
X7415225Y7999882D01*
X7411313Y7998002D01*
X7406386Y7996681D01*
X7400493Y7995869D01*
X7393635Y7995564D01*
X7378649Y7996783D01*
X7361123Y8000390D01*
X7361123Y7986674D01*
X7379055Y7983626D01*
X7396175Y7982610D01*
X7409738Y7983474D01*
X7420864Y7985912D01*
X7429500Y7989976D01*
X7435697Y7995716D01*
X7439406Y8003082D01*
X7440625Y8012074D01*
X7440625Y8050428D01*
X7438085Y8065516D01*
X7430465Y8075574D01*
X7417206Y8081518D01*
G37*
G36*
X5920943Y8081416D02*
G01*
X5962853Y8037474D01*
X5917133Y7984642D01*
X5939485Y7984642D01*
X5983681Y8037474D01*
X5943041Y8081416D01*
G37*
G36*
X6452311Y8081416D02*
G01*
X6452311Y8059826D01*
X6475425Y8059826D01*
X6475425Y8081416D01*
G37*
G36*
X6490665Y8081416D02*
G01*
X6539433Y7942986D01*
X6558229Y7942986D01*
X6542989Y7983118D01*
X6580327Y8081416D01*
X6560769Y8081416D01*
X6533845Y8002422D01*
X6533337Y8002422D01*
X6508953Y8081416D01*
G37*
G36*
X7215327Y8081416D02*
G01*
X7215327Y7984642D01*
X7233361Y7984642D01*
X7233361Y8081416D01*
G37*
G36*
X6452311Y8006232D02*
G01*
X6452311Y7984642D01*
X6475425Y7984642D01*
X6475425Y8006232D01*
G37*
D24*
X9922710Y4820630D02*
G01*
X9922710Y4747902D01*
X9927254Y4734267D01*
X9931801Y4729721D01*
X9940891Y4725174D01*
X9949982Y4725174D01*
X9959073Y4729721D01*
X9963617Y4734267D01*
X9968163Y4747902D01*
X9968163Y4756993D01*
X9892708Y4820630D02*
G01*
X9892708Y4725174D01*
X9892708Y4725174D02*
G01*
X9838164Y4725174D01*
X9739983Y4797902D02*
G01*
X9744527Y4806993D01*
X9753617Y4816083D01*
X9762708Y4820630D01*
X9780892Y4820630D01*
X9789982Y4816083D01*
X9799073Y4806993D01*
X9803617Y4797902D01*
X9808164Y4784267D01*
X9808164Y4761539D01*
X9803617Y4747902D01*
X9799073Y4738811D01*
X9789982Y4729721D01*
X9780892Y4725174D01*
X9762708Y4725174D01*
X9753617Y4729721D01*
X9744527Y4738811D01*
X9739983Y4747902D01*
X9664527Y4820630D02*
G01*
X9664527Y4747902D01*
X9669073Y4734267D01*
X9673617Y4729721D01*
X9682708Y4725174D01*
X9691799Y4725174D01*
X9700892Y4729721D01*
X9705436Y4734267D01*
X9709983Y4747902D01*
X9709983Y4756993D01*
X9634527Y4820630D02*
G01*
X9634527Y4725174D01*
X9634527Y4725174D02*
G01*
X9579983Y4725174D01*
X9481799Y4797902D02*
G01*
X9486346Y4806993D01*
X9495436Y4816083D01*
X9504527Y4820630D01*
X9522708Y4820630D01*
X9531799Y4816083D01*
X9540890Y4806993D01*
X9545436Y4797902D01*
X9549980Y4784267D01*
X9549980Y4761539D01*
X9545436Y4747902D01*
X9540890Y4738811D01*
X9531799Y4729721D01*
X9522708Y4725174D01*
X9504527Y4725174D01*
X9495436Y4729721D01*
X9486346Y4738811D01*
X9481799Y4747902D01*
X9406346Y4820630D02*
G01*
X9406346Y4747902D01*
X9410890Y4734267D01*
X9415437Y4729721D01*
X9424527Y4725174D01*
X9433618Y4725174D01*
X9442709Y4729721D01*
X9447255Y4734267D01*
X9451799Y4747902D01*
X9451799Y4756993D01*
X9376346Y4820630D02*
G01*
X9376346Y4725174D01*
X9376346Y4725174D02*
G01*
X9321800Y4725174D01*
X9223618Y4797902D02*
G01*
X9228162Y4806993D01*
X9237256Y4816083D01*
X9246346Y4820630D01*
X9264528Y4820630D01*
X9273618Y4816083D01*
X9282709Y4806993D01*
X9287256Y4797902D01*
X9291800Y4784267D01*
X9291800Y4761539D01*
X9287256Y4747902D01*
X9282709Y4738811D01*
X9273618Y4729721D01*
X9264528Y4725174D01*
X9246346Y4725174D01*
X9237256Y4729721D01*
X9228162Y4738811D01*
X9223618Y4747902D01*
X9148163Y4820630D02*
G01*
X9148163Y4747902D01*
X9152709Y4734267D01*
X9157253Y4729721D01*
X9166346Y4725174D01*
X9175437Y4725174D01*
X9184528Y4729721D01*
X9189072Y4734267D01*
X9193618Y4747902D01*
X9193618Y4756993D01*
X9118163Y4820630D02*
G01*
X9118163Y4725174D01*
X9118163Y4725174D02*
G01*
X9063619Y4725174D01*
X8965435Y4797902D02*
G01*
X8969982Y4806993D01*
X8979072Y4816083D01*
X8988163Y4820630D01*
X9006344Y4820630D01*
X9015437Y4816083D01*
X9024528Y4806993D01*
X9029072Y4797902D01*
X9033619Y4784267D01*
X9033619Y4761539D01*
X9029072Y4747902D01*
X9024528Y4738811D01*
X9015437Y4729721D01*
X9006344Y4725174D01*
X8988163Y4725174D01*
X8979072Y4729721D01*
X8969982Y4738811D01*
X8965435Y4747902D01*
M02*
