G04 Layer: TopLayer*
G04 EasyEDA v6.4.17, 2021-03-16T21:57:32--7:00*
G04 e57ce84d270c476cbb3b8f1c5158f271,debd25b7e7f645e7808fdd9718494454,10*
G04 Gerber Generator version 0.2*
G04 Scale: 100 percent, Rotated: No, Reflected: No *
G04 Dimensions in millimeters *
G04 leading zeros omitted , absolute positions ,4 integer and 5 decimal *
%FSLAX45Y45*%
%MOMM*%

%ADD11C,0.8000*%
%ADD12C,0.6100*%
%ADD14R,1.4699X1.1600*%
%ADD16C,2.0000*%
%ADD17C,1.8001*%
%ADD18C,1.7880*%
%ADD19C,1.7000*%
%ADD20C,1.5000*%
%ADD21C,1.6000*%

%LPD*%
G36*
X8840165Y4620310D02*
G01*
X8824772Y4621225D01*
X8811006Y4623612D01*
X8797645Y4627524D01*
X8784793Y4632909D01*
X8772652Y4639716D01*
X8761323Y4647844D01*
X8750960Y4657191D01*
X8741714Y4667605D01*
X8733688Y4678984D01*
X8727033Y4691227D01*
X8721750Y4704130D01*
X8717940Y4717542D01*
X8715654Y4731308D01*
X8714892Y4745634D01*
X8714892Y5948273D01*
X8713927Y5966663D01*
X8710777Y5986119D01*
X8710015Y5989370D01*
X8705494Y6005118D01*
X8704376Y6008268D01*
X8698077Y6023457D01*
X8696604Y6026454D01*
X8688679Y6040780D01*
X8686901Y6043625D01*
X8677351Y6056985D01*
X8675268Y6059576D01*
X8664295Y6071819D01*
X8661958Y6074156D01*
X8649716Y6085078D01*
X8647074Y6087160D01*
X8633663Y6096609D01*
X8630869Y6098387D01*
X8614359Y6107328D01*
X8569655Y6127546D01*
X8524036Y6145987D01*
X8477707Y6162497D01*
X8430768Y6177076D01*
X8384540Y6189370D01*
X8355279Y6195923D01*
X8351418Y6197701D01*
X8348624Y6200851D01*
X8347354Y6204864D01*
X8347811Y6209030D01*
X8349945Y6212687D01*
X8353348Y6215126D01*
X8357463Y6216040D01*
X9240316Y6216040D01*
X9244330Y6215176D01*
X9247682Y6212840D01*
X9249867Y6209385D01*
X9250476Y6205321D01*
X9249460Y6201359D01*
X9246920Y6198158D01*
X9240875Y6192926D01*
X9234170Y6185103D01*
X9228785Y6176314D01*
X9224822Y6166815D01*
X9222435Y6156807D01*
X9221622Y6146139D01*
X9221622Y6058306D01*
X9222435Y6047638D01*
X9224822Y6037630D01*
X9225788Y6035395D01*
X9226550Y6031484D01*
X9226550Y6028486D01*
X9227261Y6022187D01*
X9229140Y6016802D01*
X9232188Y6011926D01*
X9236252Y6007912D01*
X9241078Y6004864D01*
X9246514Y6002934D01*
X9250629Y6002477D01*
X9254794Y6001054D01*
X9257487Y5999429D01*
X9266986Y5995466D01*
X9276994Y5993079D01*
X9287256Y5992266D01*
X9297517Y5993079D01*
X9307525Y5995466D01*
X9317024Y5999429D01*
X9319717Y6001054D01*
X9323882Y6002528D01*
X9327896Y6002934D01*
X9333331Y6004864D01*
X9338157Y6007912D01*
X9340037Y6009741D01*
X9343288Y6011976D01*
X9347200Y6012738D01*
X9351111Y6011976D01*
X9354362Y6009741D01*
X9356242Y6007912D01*
X9361068Y6004864D01*
X9366504Y6002934D01*
X9372752Y6002223D01*
X9383369Y6002223D01*
X9383369Y6036564D01*
X9362186Y6036564D01*
X9358122Y6037427D01*
X9354718Y6039815D01*
X9352584Y6043371D01*
X9352076Y6047486D01*
X9352889Y6058306D01*
X9352889Y6069076D01*
X9353702Y6072987D01*
X9355886Y6076289D01*
X9359188Y6078474D01*
X9363049Y6079236D01*
X9383369Y6079236D01*
X9383369Y6113526D01*
X9372752Y6113526D01*
X9362592Y6112256D01*
X9358884Y6113170D01*
X9355734Y6115405D01*
X9353651Y6118606D01*
X9352889Y6122416D01*
X9352889Y6146139D01*
X9352076Y6156807D01*
X9349689Y6166815D01*
X9345726Y6176314D01*
X9340342Y6185103D01*
X9333636Y6192926D01*
X9327591Y6198158D01*
X9325051Y6201359D01*
X9324035Y6205321D01*
X9324644Y6209385D01*
X9326829Y6212840D01*
X9330182Y6215176D01*
X9334195Y6216040D01*
X9608667Y6216040D01*
X9619335Y6216853D01*
X9629343Y6219240D01*
X9638842Y6223203D01*
X9647631Y6228588D01*
X9655759Y6235547D01*
X9733229Y6313017D01*
X9735870Y6314897D01*
X9739020Y6315862D01*
X9742271Y6315811D01*
X9751161Y6314186D01*
X9766300Y6313271D01*
X9781438Y6314186D01*
X9796373Y6316929D01*
X9810851Y6321450D01*
X9824669Y6327648D01*
X9837674Y6335522D01*
X9849612Y6344869D01*
X9860330Y6355588D01*
X9869678Y6367526D01*
X9877552Y6380530D01*
X9883749Y6394348D01*
X9888270Y6408826D01*
X9891014Y6423761D01*
X9891928Y6438900D01*
X9891014Y6454038D01*
X9888270Y6468973D01*
X9883749Y6483451D01*
X9877552Y6497269D01*
X9869678Y6510274D01*
X9860330Y6522212D01*
X9849612Y6532930D01*
X9837674Y6542278D01*
X9824669Y6550152D01*
X9810851Y6556349D01*
X9796373Y6560870D01*
X9781438Y6563614D01*
X9766300Y6564528D01*
X9751161Y6563614D01*
X9736226Y6560870D01*
X9721748Y6556349D01*
X9707930Y6550152D01*
X9694926Y6542278D01*
X9682988Y6532930D01*
X9672269Y6522212D01*
X9662922Y6510274D01*
X9655048Y6497269D01*
X9648850Y6483451D01*
X9644329Y6468973D01*
X9641586Y6454038D01*
X9640671Y6438900D01*
X9641586Y6423761D01*
X9643211Y6414871D01*
X9643262Y6411620D01*
X9642297Y6408470D01*
X9640417Y6405829D01*
X9584842Y6350304D01*
X9581540Y6348120D01*
X9577679Y6347307D01*
X9569958Y6347307D01*
X9565538Y6348323D01*
X9562033Y6351117D01*
X9560052Y6355181D01*
X9560001Y6359702D01*
X9561931Y6363766D01*
X9564878Y6367526D01*
X9572752Y6380530D01*
X9578949Y6394348D01*
X9583470Y6408826D01*
X9586214Y6423761D01*
X9587128Y6438900D01*
X9586214Y6454038D01*
X9583470Y6468973D01*
X9578949Y6483451D01*
X9572752Y6497269D01*
X9564878Y6510274D01*
X9555530Y6522212D01*
X9544812Y6532930D01*
X9532874Y6542278D01*
X9519869Y6550152D01*
X9506051Y6556349D01*
X9491573Y6560870D01*
X9476638Y6563614D01*
X9461500Y6564528D01*
X9446361Y6563614D01*
X9431426Y6560870D01*
X9416948Y6556349D01*
X9403130Y6550152D01*
X9390126Y6542278D01*
X9378188Y6532930D01*
X9367469Y6522212D01*
X9355328Y6506819D01*
X9352330Y6505143D01*
X9348927Y6504533D01*
X8604707Y6504533D01*
X8600795Y6505346D01*
X8597493Y6507530D01*
X8474506Y6630720D01*
X8472627Y6633260D01*
X8471611Y6636308D01*
X8472170Y6654190D01*
X8470798Y6668312D01*
X8467648Y6682130D01*
X8462772Y6695440D01*
X8456218Y6707987D01*
X8452104Y6713880D01*
X8450427Y6717944D01*
X8450630Y6722364D01*
X8452662Y6726224D01*
X8456117Y6728917D01*
X8460435Y6729882D01*
X9328099Y6729882D01*
X9331553Y6729272D01*
X9334601Y6727494D01*
X9336836Y6724802D01*
X9338056Y6721551D01*
X9339529Y6713626D01*
X9344050Y6699148D01*
X9350248Y6685330D01*
X9358122Y6672325D01*
X9367469Y6660388D01*
X9378188Y6649669D01*
X9390126Y6640322D01*
X9403130Y6632448D01*
X9416948Y6626250D01*
X9431426Y6621729D01*
X9446361Y6618986D01*
X9461500Y6618071D01*
X9476638Y6618986D01*
X9491573Y6621729D01*
X9506051Y6626250D01*
X9519869Y6632448D01*
X9532874Y6640322D01*
X9544812Y6649669D01*
X9555530Y6660388D01*
X9564878Y6672325D01*
X9572752Y6685330D01*
X9578949Y6699148D01*
X9583470Y6713626D01*
X9586214Y6728561D01*
X9587128Y6743700D01*
X9586214Y6758838D01*
X9583470Y6773773D01*
X9578949Y6788251D01*
X9572752Y6802069D01*
X9564878Y6815074D01*
X9555530Y6827012D01*
X9544812Y6837730D01*
X9532874Y6847078D01*
X9519869Y6854952D01*
X9506051Y6861149D01*
X9491573Y6865670D01*
X9476638Y6868414D01*
X9461500Y6869328D01*
X9446361Y6868414D01*
X9431426Y6865670D01*
X9417253Y6861251D01*
X9413443Y6860844D01*
X9409277Y6861149D01*
X8006994Y6861149D01*
X7996377Y6860336D01*
X7986369Y6857949D01*
X7976870Y6853986D01*
X7968081Y6848652D01*
X7959902Y6841693D01*
X7881518Y6763410D01*
X7877911Y6761124D01*
X7873695Y6760464D01*
X7861503Y6761276D01*
X7847330Y6760362D01*
X7833410Y6757670D01*
X7819948Y6753199D01*
X7807198Y6747052D01*
X7795310Y6739280D01*
X7784490Y6730085D01*
X7774990Y6719620D01*
X7766862Y6707987D01*
X7760309Y6695440D01*
X7755432Y6682130D01*
X7752283Y6668312D01*
X7750911Y6654190D01*
X7751368Y6640017D01*
X7753603Y6625996D01*
X7757668Y6612432D01*
X7763408Y6599478D01*
X7769402Y6589572D01*
X7770774Y6585559D01*
X7770418Y6581292D01*
X7768285Y6577584D01*
X7764881Y6575044D01*
X7760716Y6574129D01*
X7717688Y6574129D01*
X7713776Y6574942D01*
X7710525Y6577126D01*
X7344664Y6942734D01*
X7342784Y6945426D01*
X7341768Y6948525D01*
X7341870Y6951776D01*
X7343495Y6960717D01*
X7344409Y6975856D01*
X7343495Y6991045D01*
X7340752Y7005929D01*
X7336231Y7020407D01*
X7330033Y7034275D01*
X7322159Y7047230D01*
X7312812Y7059168D01*
X7302093Y7069937D01*
X7290155Y7079284D01*
X7277150Y7087108D01*
X7263333Y7093356D01*
X7248855Y7097877D01*
X7233920Y7100620D01*
X7218781Y7101535D01*
X7203643Y7100620D01*
X7194651Y7098944D01*
X7191400Y7098893D01*
X7188250Y7099858D01*
X7185609Y7101738D01*
X7094677Y7192670D01*
X7086549Y7199630D01*
X7077760Y7205014D01*
X7068261Y7208977D01*
X7058253Y7211364D01*
X7047585Y7212177D01*
X6413144Y7212177D01*
X6409283Y7212990D01*
X6405981Y7215174D01*
X6126530Y7494625D01*
X6124346Y7497927D01*
X6123533Y7501788D01*
X6123533Y7571333D01*
X6124498Y7575651D01*
X6127242Y7579156D01*
X6136640Y7586929D01*
X6146546Y7597495D01*
X6155029Y7609179D01*
X6161989Y7621828D01*
X6167323Y7635240D01*
X6170879Y7649260D01*
X6172708Y7663586D01*
X6172708Y7678013D01*
X6170879Y7692339D01*
X6167323Y7706359D01*
X6161989Y7719771D01*
X6155029Y7732420D01*
X6146546Y7744104D01*
X6136640Y7754670D01*
X6125514Y7763865D01*
X6113322Y7771587D01*
X6100267Y7777734D01*
X6086500Y7782204D01*
X6072327Y7784947D01*
X6057900Y7785811D01*
X6043472Y7784947D01*
X6029299Y7782204D01*
X6015532Y7777734D01*
X6002477Y7771587D01*
X5990285Y7763865D01*
X5979160Y7754670D01*
X5969254Y7744104D01*
X5960770Y7732420D01*
X5953810Y7719771D01*
X5948476Y7706359D01*
X5944920Y7692339D01*
X5943092Y7678013D01*
X5943092Y7663586D01*
X5944920Y7649260D01*
X5948476Y7635240D01*
X5953810Y7621828D01*
X5960770Y7609179D01*
X5969254Y7597495D01*
X5979160Y7586929D01*
X5988558Y7579156D01*
X5991301Y7575651D01*
X5992266Y7571333D01*
X5992266Y7470800D01*
X5993079Y7460132D01*
X5995466Y7450124D01*
X5999429Y7440625D01*
X6004814Y7431836D01*
X6011773Y7423708D01*
X6281724Y7153706D01*
X6283909Y7150455D01*
X6284671Y7146544D01*
X6283909Y7142632D01*
X6281724Y7139381D01*
X6118758Y6976364D01*
X6115304Y6974128D01*
X6111240Y6973417D01*
X6107226Y6974382D01*
X6100267Y6977634D01*
X6086500Y6982104D01*
X6072327Y6984847D01*
X6057900Y6985711D01*
X6043472Y6984847D01*
X6029299Y6982104D01*
X6015532Y6977634D01*
X6002477Y6971487D01*
X5990285Y6963765D01*
X5979160Y6954570D01*
X5969254Y6944004D01*
X5960770Y6932320D01*
X5953810Y6919671D01*
X5948476Y6906259D01*
X5944920Y6892239D01*
X5943092Y6877913D01*
X5943092Y6863486D01*
X5944920Y6849160D01*
X5948476Y6835140D01*
X5953810Y6821728D01*
X5960770Y6809079D01*
X5969254Y6797395D01*
X5979160Y6786829D01*
X5988558Y6779056D01*
X5991301Y6775551D01*
X5992266Y6771233D01*
X5992266Y6405270D01*
X5991453Y6401409D01*
X5989269Y6398107D01*
X5859373Y6268161D01*
X5852414Y6260033D01*
X5847029Y6251244D01*
X5843066Y6241745D01*
X5840679Y6231737D01*
X5839866Y6221069D01*
X5839866Y6176822D01*
X5839155Y6173216D01*
X5837275Y6170066D01*
X5834329Y6167780D01*
X5830824Y6166713D01*
X5826302Y6166205D01*
X5820867Y6164326D01*
X5816041Y6161278D01*
X5811977Y6157214D01*
X5808929Y6152388D01*
X5807049Y6146952D01*
X5806338Y6140704D01*
X5806338Y6025845D01*
X5807049Y6019596D01*
X5808929Y6014161D01*
X5811977Y6009335D01*
X5816041Y6005271D01*
X5820867Y6002223D01*
X5826302Y6000343D01*
X5832551Y5999632D01*
X5978398Y5999632D01*
X5984646Y6000343D01*
X5990082Y6002223D01*
X5994908Y6005271D01*
X5998972Y6009335D01*
X6002020Y6014161D01*
X6003899Y6019596D01*
X6004610Y6025845D01*
X6004610Y6140704D01*
X6003899Y6146952D01*
X6002020Y6152388D01*
X5998972Y6157214D01*
X5994908Y6161278D01*
X5990082Y6164326D01*
X5984646Y6166205D01*
X5980176Y6166713D01*
X5976670Y6167780D01*
X5973724Y6170066D01*
X5971844Y6173216D01*
X5971133Y6176822D01*
X5971133Y6190081D01*
X5971946Y6193942D01*
X5974130Y6197244D01*
X6104026Y6327190D01*
X6110986Y6335318D01*
X6116370Y6344107D01*
X6120333Y6353606D01*
X6122720Y6363614D01*
X6123533Y6374282D01*
X6123533Y6771233D01*
X6124498Y6775551D01*
X6127242Y6779056D01*
X6136640Y6786829D01*
X6146546Y6797395D01*
X6155029Y6809079D01*
X6161989Y6821728D01*
X6167323Y6835140D01*
X6169050Y6840474D01*
X6170676Y6842607D01*
X6181852Y6853834D01*
X6185458Y6856120D01*
X6189624Y6856780D01*
X6193739Y6855663D01*
X6196990Y6852970D01*
X6198920Y6849160D01*
X6202476Y6835140D01*
X6207810Y6821728D01*
X6214770Y6809079D01*
X6223254Y6797395D01*
X6233160Y6786829D01*
X6244285Y6777634D01*
X6256477Y6769912D01*
X6269532Y6763766D01*
X6283299Y6759295D01*
X6297472Y6756552D01*
X6311900Y6755688D01*
X6326327Y6756552D01*
X6340500Y6759295D01*
X6354267Y6763766D01*
X6367322Y6769912D01*
X6379514Y6777634D01*
X6390640Y6786829D01*
X6400546Y6797395D01*
X6409029Y6809079D01*
X6415989Y6821728D01*
X6421323Y6835140D01*
X6424879Y6849160D01*
X6426708Y6863486D01*
X6426708Y6877913D01*
X6424879Y6892239D01*
X6421323Y6906259D01*
X6415989Y6919671D01*
X6409029Y6932320D01*
X6400546Y6944004D01*
X6390640Y6954570D01*
X6379514Y6963765D01*
X6367322Y6971487D01*
X6354267Y6977634D01*
X6340500Y6982104D01*
X6333896Y6983374D01*
X6329883Y6985101D01*
X6326936Y6988352D01*
X6325666Y6992518D01*
X6326225Y6996887D01*
X6328613Y7000544D01*
X6405981Y7077913D01*
X6409283Y7080097D01*
X6413144Y7080910D01*
X6821931Y7080910D01*
X6825792Y7080097D01*
X6829094Y7077913D01*
X6831279Y7074611D01*
X6832092Y7070750D01*
X6831279Y7066838D01*
X6829094Y7063536D01*
X6824725Y7059168D01*
X6815378Y7047230D01*
X6807555Y7034275D01*
X6801307Y7020407D01*
X6796786Y7005929D01*
X6794042Y6991045D01*
X6793128Y6975856D01*
X6794042Y6960717D01*
X6796786Y6945833D01*
X6801307Y6931355D01*
X6807555Y6917486D01*
X6815378Y6904532D01*
X6824725Y6892594D01*
X6835444Y6881825D01*
X6850786Y6869785D01*
X6852462Y6866737D01*
X6853072Y6863334D01*
X6853072Y6313017D01*
X6852259Y6309156D01*
X6850075Y6305854D01*
X6759498Y6215024D01*
X6752590Y6206947D01*
X6747205Y6198158D01*
X6743242Y6188659D01*
X6740855Y6178651D01*
X6740042Y6167983D01*
X6740042Y5557113D01*
X6739128Y5552948D01*
X6736638Y5549544D01*
X6732930Y5547410D01*
X6728714Y5547004D01*
X6724954Y5547410D01*
X6610096Y5547410D01*
X6603847Y5546699D01*
X6598412Y5544820D01*
X6593586Y5541772D01*
X6589522Y5537708D01*
X6586474Y5532882D01*
X6584594Y5527446D01*
X6583883Y5521198D01*
X6583883Y5375351D01*
X6584594Y5369102D01*
X6586474Y5363667D01*
X6589522Y5358841D01*
X6593586Y5354777D01*
X6598412Y5351729D01*
X6603847Y5349849D01*
X6610096Y5349138D01*
X6724954Y5349138D01*
X6731203Y5349849D01*
X6736638Y5351729D01*
X6741464Y5354777D01*
X6745528Y5358841D01*
X6748576Y5363667D01*
X6750456Y5369102D01*
X6750964Y5373624D01*
X6752031Y5377129D01*
X6754317Y5380075D01*
X6757466Y5381955D01*
X6761073Y5382666D01*
X6805269Y5382666D01*
X6815937Y5383479D01*
X6825945Y5385866D01*
X6835444Y5389829D01*
X6844233Y5395214D01*
X6852056Y5401919D01*
X6858762Y5409742D01*
X6864146Y5418531D01*
X6868109Y5428030D01*
X6870496Y5438038D01*
X6871309Y5448706D01*
X6871309Y6137046D01*
X6872122Y6140907D01*
X6874306Y6144209D01*
X6942988Y6213043D01*
X6946290Y6215227D01*
X6950151Y6216040D01*
X7841996Y6216040D01*
X7846110Y6215176D01*
X7849514Y6212687D01*
X7851648Y6209080D01*
X7852105Y6204915D01*
X7850886Y6200952D01*
X7848142Y6197752D01*
X7844383Y6195974D01*
X7799171Y6185204D01*
X7751876Y6171793D01*
X7705140Y6156502D01*
X7659065Y6139281D01*
X7613751Y6120180D01*
X7569301Y6099200D01*
X7525715Y6076442D01*
X7483094Y6051905D01*
X7441539Y6025642D01*
X7401102Y5997651D01*
X7361834Y5968034D01*
X7323836Y5936843D01*
X7287158Y5904077D01*
X7251852Y5869889D01*
X7217968Y5834227D01*
X7185609Y5797194D01*
X7154824Y5758891D01*
X7125563Y5719368D01*
X7098030Y5678627D01*
X7072172Y5636818D01*
X7048042Y5593943D01*
X7025741Y5550154D01*
X7005218Y5505450D01*
X6986574Y5459984D01*
X6969810Y5413756D01*
X6954977Y5366867D01*
X6942074Y5319420D01*
X6931406Y5272836D01*
X6927342Y5257850D01*
X6922109Y5244744D01*
X6915403Y5232298D01*
X6907326Y5220665D01*
X6897979Y5210048D01*
X6887514Y5200548D01*
X6875983Y5192318D01*
X6863638Y5185410D01*
X6850583Y5180025D01*
X6836968Y5176113D01*
X6823049Y5173726D01*
X6808520Y5172913D01*
X5860694Y5172913D01*
X5845200Y5173878D01*
X5831484Y5176266D01*
X5818124Y5180177D01*
X5805271Y5185562D01*
X5793079Y5192369D01*
X5781751Y5200497D01*
X5771438Y5209794D01*
X5762193Y5220258D01*
X5754166Y5231638D01*
X5747461Y5243880D01*
X5742228Y5256784D01*
X5738418Y5270195D01*
X5736132Y5283911D01*
X5735370Y5298236D01*
X5740654Y8060232D01*
X5741822Y8068462D01*
X5742787Y8083803D01*
X5745175Y8097520D01*
X5749086Y8110931D01*
X5754471Y8123783D01*
X5761278Y8135924D01*
X5769406Y8147253D01*
X5778703Y8157616D01*
X5789168Y8166862D01*
X5800547Y8174837D01*
X5812790Y8181543D01*
X5825693Y8186826D01*
X5839104Y8190636D01*
X5852871Y8192871D01*
X5867349Y8193684D01*
X5875782Y8194852D01*
X10030256Y8191500D01*
X10035032Y8190382D01*
X10041382Y8189518D01*
X10057079Y8189214D01*
X10071252Y8187283D01*
X10085120Y8183778D01*
X10098532Y8178647D01*
X10111232Y8172043D01*
X10123068Y8164017D01*
X10133888Y8154670D01*
X10143591Y8144103D01*
X10152024Y8132572D01*
X10159085Y8120075D01*
X10164622Y8106867D01*
X10168636Y8093151D01*
X10171023Y8079028D01*
X10172446Y8051038D01*
X10172446Y4763109D01*
X10173258Y4756505D01*
X10174935Y4751425D01*
X10177170Y4746599D01*
X10177881Y4744262D01*
X10178034Y4741824D01*
X10177576Y4734712D01*
X10175189Y4720996D01*
X10171277Y4707585D01*
X10165892Y4694732D01*
X10159085Y4682591D01*
X10150957Y4671263D01*
X10141610Y4660900D01*
X10131196Y4651654D01*
X10119766Y4643678D01*
X10107574Y4636973D01*
X10094671Y4631690D01*
X10081260Y4627880D01*
X10067493Y4625644D01*
X10053218Y4624832D01*
X10048494Y4624120D01*
X10043363Y4623003D01*
G37*

%LPC*%
G36*
X9867900Y4933289D02*
G01*
X9883038Y4934204D01*
X9897973Y4936947D01*
X9912451Y4941468D01*
X9926269Y4947666D01*
X9939274Y4955540D01*
X9951212Y4964887D01*
X9961930Y4975606D01*
X9971278Y4987544D01*
X9979152Y5000548D01*
X9985349Y5014366D01*
X9989870Y5028844D01*
X9992614Y5043779D01*
X9993528Y5058918D01*
X9992614Y5074056D01*
X9989870Y5088991D01*
X9985349Y5103469D01*
X9979152Y5117287D01*
X9971278Y5130292D01*
X9961930Y5142230D01*
X9951212Y5152948D01*
X9939274Y5162296D01*
X9926269Y5170170D01*
X9912451Y5176367D01*
X9907676Y5178806D01*
X9905136Y5182260D01*
X9904222Y5186426D01*
X9905136Y5190591D01*
X9907676Y5194046D01*
X9912451Y5196484D01*
X9926269Y5202682D01*
X9939274Y5210556D01*
X9951212Y5219903D01*
X9961930Y5230622D01*
X9971278Y5242560D01*
X9979152Y5255564D01*
X9985349Y5269382D01*
X9989870Y5283860D01*
X9992614Y5298795D01*
X9993528Y5313934D01*
X9992614Y5329072D01*
X9989870Y5344007D01*
X9985349Y5358485D01*
X9979152Y5372303D01*
X9971278Y5385308D01*
X9961930Y5397246D01*
X9951212Y5407964D01*
X9939274Y5417312D01*
X9926269Y5425186D01*
X9919766Y5428132D01*
X9916617Y5430316D01*
X9914534Y5433568D01*
X9913772Y5437378D01*
X9914534Y5441188D01*
X9916617Y5444439D01*
X9919766Y5446623D01*
X9926269Y5449570D01*
X9939274Y5457444D01*
X9951212Y5466791D01*
X9961930Y5477510D01*
X9971278Y5489448D01*
X9979152Y5502452D01*
X9985349Y5516270D01*
X9989870Y5530748D01*
X9992614Y5545683D01*
X9993528Y5560822D01*
X9992614Y5575960D01*
X9990988Y5584748D01*
X9990937Y5588000D01*
X9991902Y5591149D01*
X9993833Y5593791D01*
X10075062Y5674868D01*
X10081971Y5682996D01*
X10087406Y5691784D01*
X10091318Y5701284D01*
X10093756Y5711291D01*
X10094569Y5722010D01*
X10094569Y7176109D01*
X10093756Y7186777D01*
X10091369Y7196785D01*
X10087406Y7206284D01*
X10082022Y7215073D01*
X10075062Y7223201D01*
X9815880Y7482230D01*
X9813747Y7485380D01*
X9812883Y7489088D01*
X9812426Y7503058D01*
X9810191Y7516317D01*
X9806228Y7529169D01*
X9800539Y7541361D01*
X9793325Y7552690D01*
X9784638Y7562951D01*
X9774682Y7571994D01*
X9763607Y7579563D01*
X9755073Y7583881D01*
X9752025Y7586218D01*
X9750094Y7589520D01*
X9749485Y7593279D01*
X9750348Y7597038D01*
X9752482Y7600188D01*
X9755682Y7602321D01*
X9757664Y7603185D01*
X9769246Y7610043D01*
X9779812Y7618374D01*
X9789160Y7628026D01*
X9797135Y7638846D01*
X9803587Y7650632D01*
X9808413Y7663180D01*
X9811512Y7676235D01*
X9812883Y7689646D01*
X9812426Y7703058D01*
X9810191Y7716316D01*
X9806228Y7729169D01*
X9800539Y7741361D01*
X9793325Y7752689D01*
X9784638Y7762951D01*
X9774682Y7771942D01*
X9763607Y7779562D01*
X9755022Y7783880D01*
X9752025Y7786217D01*
X9750044Y7789519D01*
X9749434Y7793278D01*
X9750298Y7797038D01*
X9752482Y7800187D01*
X9755632Y7802321D01*
X9757664Y7803184D01*
X9769246Y7810042D01*
X9779812Y7818374D01*
X9789160Y7828025D01*
X9797135Y7838846D01*
X9803587Y7850631D01*
X9808413Y7863179D01*
X9811512Y7876235D01*
X9812883Y7889646D01*
X9812426Y7903057D01*
X9810191Y7916316D01*
X9806228Y7929168D01*
X9800539Y7941360D01*
X9793325Y7952689D01*
X9784638Y7962950D01*
X9774682Y7971942D01*
X9763607Y7979562D01*
X9751568Y7985658D01*
X9738868Y7990027D01*
X9725710Y7992719D01*
X9712299Y7993634D01*
X9709556Y7993430D01*
X9705340Y7994040D01*
X9701682Y7996377D01*
X9618421Y8079638D01*
X9610293Y8086598D01*
X9601504Y8091982D01*
X9592005Y8095945D01*
X9581997Y8098332D01*
X9571329Y8099145D01*
X7208418Y8099145D01*
X7197750Y8098332D01*
X7187742Y8095945D01*
X7178243Y8091982D01*
X7169454Y8086598D01*
X7161326Y8079638D01*
X6869277Y7787640D01*
X6866636Y7785709D01*
X6863486Y7784744D01*
X6845300Y7785811D01*
X6830872Y7784947D01*
X6816699Y7782204D01*
X6802932Y7777734D01*
X6789877Y7771587D01*
X6777685Y7763865D01*
X6766559Y7754670D01*
X6756653Y7744104D01*
X6748170Y7732420D01*
X6741210Y7719771D01*
X6735876Y7706359D01*
X6732320Y7692339D01*
X6730492Y7678013D01*
X6730492Y7663586D01*
X6732320Y7649260D01*
X6735876Y7635240D01*
X6741210Y7621828D01*
X6748170Y7609179D01*
X6756653Y7597495D01*
X6766559Y7586929D01*
X6777685Y7577734D01*
X6789877Y7570012D01*
X6802932Y7563866D01*
X6816699Y7559395D01*
X6830872Y7556652D01*
X6845300Y7555788D01*
X6859727Y7556652D01*
X6873900Y7559395D01*
X6887667Y7563866D01*
X6900722Y7570012D01*
X6912914Y7577734D01*
X6924040Y7586929D01*
X6933946Y7597495D01*
X6942429Y7609179D01*
X6949389Y7621828D01*
X6954723Y7635240D01*
X6958279Y7649260D01*
X6960108Y7663586D01*
X6960108Y7678013D01*
X6959092Y7686192D01*
X6959142Y7689240D01*
X6960158Y7692136D01*
X6961987Y7694625D01*
X6986219Y7718856D01*
X6989521Y7721092D01*
X6993381Y7721853D01*
X7048246Y7721853D01*
X7048246Y7776718D01*
X7049008Y7780578D01*
X7051243Y7783880D01*
X7232243Y7964881D01*
X7235545Y7967065D01*
X7239406Y7967878D01*
X7552436Y7967878D01*
X7556195Y7967167D01*
X7559395Y7965084D01*
X7561630Y7962036D01*
X7562596Y7958328D01*
X7562138Y7954568D01*
X7560259Y7951216D01*
X7552334Y7941614D01*
X7544612Y7929422D01*
X7538466Y7916367D01*
X7533995Y7902600D01*
X7531252Y7888427D01*
X7530388Y7874000D01*
X7531252Y7859572D01*
X7533995Y7845399D01*
X7538466Y7831632D01*
X7544612Y7818577D01*
X7552334Y7806385D01*
X7561529Y7795259D01*
X7572095Y7785353D01*
X7583779Y7776870D01*
X7596428Y7769910D01*
X7609840Y7764576D01*
X7623860Y7761020D01*
X7638186Y7759192D01*
X7652613Y7759192D01*
X7666939Y7761020D01*
X7680959Y7764576D01*
X7694371Y7769910D01*
X7707020Y7776870D01*
X7718704Y7785353D01*
X7729270Y7795259D01*
X7738465Y7806385D01*
X7746187Y7818577D01*
X7752334Y7831632D01*
X7756804Y7845399D01*
X7759547Y7859572D01*
X7760411Y7874000D01*
X7759547Y7888427D01*
X7756804Y7902600D01*
X7752334Y7916367D01*
X7746187Y7929422D01*
X7738465Y7941614D01*
X7730540Y7951216D01*
X7728661Y7954568D01*
X7728203Y7958328D01*
X7729169Y7962036D01*
X7731404Y7965084D01*
X7734604Y7967167D01*
X7738364Y7967878D01*
X8256981Y7967878D01*
X8260994Y7967065D01*
X8264296Y7964728D01*
X8266480Y7961274D01*
X8267141Y7957261D01*
X8266125Y7953298D01*
X8263686Y7950047D01*
X8262112Y7948675D01*
X8253018Y7938312D01*
X8245348Y7926831D01*
X8239201Y7914436D01*
X8234781Y7901330D01*
X8232089Y7887766D01*
X8231174Y7874000D01*
X8232089Y7860233D01*
X8234781Y7846669D01*
X8239201Y7833563D01*
X8245348Y7821168D01*
X8253018Y7809687D01*
X8262112Y7799324D01*
X8272525Y7790180D01*
X8284006Y7782509D01*
X8296402Y7776413D01*
X8309457Y7771942D01*
X8323021Y7769250D01*
X8336838Y7768386D01*
X8344204Y7768844D01*
X8348421Y7768234D01*
X8352028Y7765897D01*
X8861094Y7256881D01*
X8869222Y7249922D01*
X8878011Y7244537D01*
X8887510Y7240574D01*
X8897518Y7238187D01*
X8908186Y7237374D01*
X9431782Y7237374D01*
X9435744Y7236561D01*
X9439097Y7234275D01*
X9444786Y7228331D01*
X9455353Y7220000D01*
X9466935Y7213193D01*
X9479280Y7207910D01*
X9483852Y7205725D01*
X9486493Y7202373D01*
X9487509Y7198258D01*
X9486747Y7194042D01*
X9484360Y7190536D01*
X9480702Y7188301D01*
X9473031Y7185659D01*
X9460992Y7179564D01*
X9449917Y7171994D01*
X9439960Y7162952D01*
X9435846Y7159548D01*
X9431578Y7158583D01*
X8380882Y7158583D01*
X8376666Y7159498D01*
X8373211Y7162038D01*
X8371128Y7165797D01*
X8370773Y7170064D01*
X8372246Y7174128D01*
X8375192Y7177176D01*
X8381695Y7181545D01*
X8395970Y7193483D01*
X8408924Y7206792D01*
X8420506Y7221372D01*
X8430463Y7237069D01*
X8438794Y7253731D01*
X8445347Y7271105D01*
X8450072Y7289088D01*
X8452967Y7307478D01*
X8453882Y7326020D01*
X8452967Y7344613D01*
X8450072Y7363002D01*
X8445347Y7380986D01*
X8438794Y7398359D01*
X8430463Y7415022D01*
X8420506Y7430719D01*
X8408924Y7445298D01*
X8395970Y7458608D01*
X8381695Y7470546D01*
X8366252Y7480909D01*
X8349843Y7489647D01*
X8332622Y7496657D01*
X8314740Y7501839D01*
X8296452Y7505192D01*
X8277910Y7506614D01*
X8259318Y7506157D01*
X8240877Y7503769D01*
X8222792Y7499502D01*
X8205216Y7493355D01*
X8188350Y7485481D01*
X8172399Y7475931D01*
X8157565Y7464755D01*
X8143900Y7452106D01*
X8131606Y7438136D01*
X8120837Y7422997D01*
X8111693Y7406792D01*
X8104225Y7389774D01*
X8098586Y7372045D01*
X8094776Y7353858D01*
X8092846Y7335367D01*
X8092846Y7316724D01*
X8094776Y7298232D01*
X8098586Y7280046D01*
X8104225Y7262317D01*
X8111693Y7245299D01*
X8120837Y7229094D01*
X8131606Y7213955D01*
X8143900Y7199985D01*
X8157565Y7187336D01*
X8171484Y7176871D01*
X8174228Y7173722D01*
X8175498Y7169708D01*
X8174990Y7165543D01*
X8172856Y7161936D01*
X8169452Y7159447D01*
X8165388Y7158583D01*
X7706512Y7158583D01*
X7702600Y7159396D01*
X7699298Y7161580D01*
X7421321Y7439355D01*
X7413193Y7446264D01*
X7404404Y7451648D01*
X7394905Y7455611D01*
X7384897Y7457998D01*
X7374229Y7458811D01*
X6620916Y7458811D01*
X6617055Y7459624D01*
X6613753Y7461808D01*
X6428587Y7646974D01*
X6426758Y7649464D01*
X6425742Y7652359D01*
X6425692Y7655407D01*
X6426708Y7663586D01*
X6426708Y7678013D01*
X6424879Y7692339D01*
X6421323Y7706359D01*
X6415989Y7719771D01*
X6409029Y7732420D01*
X6400546Y7744104D01*
X6390640Y7754670D01*
X6379514Y7763865D01*
X6367322Y7771587D01*
X6354267Y7777734D01*
X6340500Y7782204D01*
X6326327Y7784947D01*
X6311900Y7785811D01*
X6297472Y7784947D01*
X6283299Y7782204D01*
X6269532Y7777734D01*
X6256477Y7771587D01*
X6244285Y7763865D01*
X6233160Y7754670D01*
X6223254Y7744104D01*
X6214770Y7732420D01*
X6207810Y7719771D01*
X6202476Y7706359D01*
X6198920Y7692339D01*
X6197092Y7678013D01*
X6197092Y7663586D01*
X6198920Y7649260D01*
X6202476Y7635240D01*
X6207810Y7621828D01*
X6214770Y7609179D01*
X6223254Y7597495D01*
X6233160Y7586929D01*
X6244285Y7577734D01*
X6256477Y7570012D01*
X6269532Y7563866D01*
X6283299Y7559395D01*
X6297472Y7556652D01*
X6311900Y7555788D01*
X6330086Y7556855D01*
X6333236Y7555890D01*
X6335877Y7553959D01*
X6542836Y7347051D01*
X6550964Y7340092D01*
X6559753Y7334707D01*
X6569252Y7330744D01*
X6579260Y7328357D01*
X6589928Y7327544D01*
X7343241Y7327544D01*
X7347153Y7326731D01*
X7350455Y7324547D01*
X7628432Y7046772D01*
X7636560Y7039864D01*
X7645349Y7034479D01*
X7654848Y7030516D01*
X7664856Y7028129D01*
X7675524Y7027316D01*
X9431832Y7027316D01*
X9435846Y7026503D01*
X9439148Y7024217D01*
X9444786Y7018375D01*
X9455353Y7010044D01*
X9466935Y7003186D01*
X9479280Y6997953D01*
X9492234Y6994398D01*
X9505594Y6992569D01*
X9519005Y6992569D01*
X9532366Y6994398D01*
X9545320Y6997953D01*
X9557664Y7003186D01*
X9569246Y7010044D01*
X9579813Y7018375D01*
X9589160Y7028027D01*
X9597136Y7038848D01*
X9603384Y7050278D01*
X9606229Y7053529D01*
X9610140Y7055358D01*
X9614458Y7055358D01*
X9618370Y7053529D01*
X9621215Y7050278D01*
X9627463Y7038848D01*
X9635439Y7028027D01*
X9644786Y7018375D01*
X9655352Y7010044D01*
X9666935Y7003186D01*
X9679279Y6997953D01*
X9692233Y6994398D01*
X9705594Y6992569D01*
X9719005Y6992569D01*
X9732365Y6994398D01*
X9745319Y6997953D01*
X9757664Y7003186D01*
X9769246Y7010044D01*
X9779812Y7018375D01*
X9789160Y7028027D01*
X9797135Y7038848D01*
X9803587Y7050633D01*
X9808413Y7063181D01*
X9811512Y7076236D01*
X9812883Y7089648D01*
X9812426Y7103059D01*
X9810191Y7116318D01*
X9806228Y7129170D01*
X9800539Y7141362D01*
X9793325Y7152690D01*
X9784638Y7162952D01*
X9774682Y7171944D01*
X9763607Y7179564D01*
X9755022Y7183881D01*
X9752025Y7186218D01*
X9750044Y7189520D01*
X9749485Y7193280D01*
X9750298Y7197039D01*
X9752482Y7200188D01*
X9755632Y7202322D01*
X9757664Y7203186D01*
X9769246Y7210044D01*
X9779812Y7218375D01*
X9789160Y7228027D01*
X9797135Y7238847D01*
X9803587Y7250633D01*
X9808413Y7263180D01*
X9812731Y7281011D01*
X9815068Y7284008D01*
X9818319Y7285939D01*
X9822078Y7286498D01*
X9825786Y7285685D01*
X9828936Y7283551D01*
X9960305Y7152284D01*
X9962489Y7148982D01*
X9963302Y7145070D01*
X9963302Y5925718D01*
X9962286Y5921349D01*
X9959492Y5917793D01*
X9955428Y5915812D01*
X9950907Y5915812D01*
X9946843Y5917742D01*
X9938461Y5924296D01*
X9925456Y5932170D01*
X9911638Y5938367D01*
X9897160Y5942888D01*
X9882225Y5945632D01*
X9867087Y5946546D01*
X9851948Y5945632D01*
X9837013Y5942888D01*
X9822535Y5938367D01*
X9808718Y5932170D01*
X9795713Y5924296D01*
X9783775Y5914948D01*
X9773056Y5904230D01*
X9763709Y5892292D01*
X9755835Y5879287D01*
X9749637Y5865469D01*
X9745116Y5850991D01*
X9742373Y5836056D01*
X9741458Y5820918D01*
X9742373Y5805779D01*
X9745116Y5790844D01*
X9749637Y5776366D01*
X9755835Y5762548D01*
X9763709Y5749544D01*
X9773056Y5737606D01*
X9783775Y5726887D01*
X9795713Y5717540D01*
X9808718Y5709666D01*
X9822535Y5703468D01*
X9832187Y5700420D01*
X9835896Y5698337D01*
X9838436Y5694934D01*
X9839299Y5690768D01*
X9838436Y5686552D01*
X9835896Y5683148D01*
X9832187Y5681065D01*
X9823348Y5678271D01*
X9809530Y5672074D01*
X9796526Y5664200D01*
X9784588Y5654852D01*
X9773869Y5644134D01*
X9764522Y5632196D01*
X9756648Y5619191D01*
X9750450Y5605373D01*
X9745929Y5590895D01*
X9743186Y5575960D01*
X9742271Y5560822D01*
X9743186Y5545683D01*
X9745929Y5530748D01*
X9750450Y5516270D01*
X9756648Y5502452D01*
X9764522Y5489448D01*
X9773869Y5477510D01*
X9784588Y5466791D01*
X9796526Y5457444D01*
X9809530Y5449570D01*
X9816033Y5446623D01*
X9819182Y5444439D01*
X9821265Y5441188D01*
X9822027Y5437378D01*
X9821265Y5433568D01*
X9819182Y5430316D01*
X9816033Y5428132D01*
X9809530Y5425186D01*
X9796526Y5417312D01*
X9784588Y5407964D01*
X9773869Y5397246D01*
X9764522Y5385308D01*
X9756648Y5372303D01*
X9750450Y5358485D01*
X9745929Y5344007D01*
X9743186Y5329072D01*
X9742271Y5313934D01*
X9743186Y5298795D01*
X9745929Y5283860D01*
X9750450Y5269382D01*
X9756648Y5255564D01*
X9764522Y5242560D01*
X9773869Y5230622D01*
X9784588Y5219903D01*
X9796526Y5210556D01*
X9809530Y5202682D01*
X9823348Y5196484D01*
X9828123Y5194046D01*
X9830663Y5190591D01*
X9831578Y5186426D01*
X9830663Y5182260D01*
X9828123Y5178806D01*
X9823348Y5176367D01*
X9809530Y5170170D01*
X9796526Y5162296D01*
X9784588Y5152948D01*
X9773869Y5142230D01*
X9764522Y5130292D01*
X9756648Y5117287D01*
X9750450Y5103469D01*
X9745929Y5088991D01*
X9743186Y5074056D01*
X9742271Y5058918D01*
X9743186Y5043779D01*
X9745929Y5028844D01*
X9750450Y5014366D01*
X9756648Y5000548D01*
X9764522Y4987544D01*
X9773869Y4975606D01*
X9784588Y4964887D01*
X9796526Y4955540D01*
X9809530Y4947666D01*
X9823348Y4941468D01*
X9837826Y4936947D01*
X9852761Y4934204D01*
G37*
G36*
X6406896Y5349138D02*
G01*
X6521754Y5349138D01*
X6528003Y5349849D01*
X6533438Y5351729D01*
X6538264Y5354777D01*
X6542328Y5358841D01*
X6545376Y5363667D01*
X6547256Y5369102D01*
X6547967Y5375351D01*
X6547967Y5521198D01*
X6547256Y5527446D01*
X6545376Y5532882D01*
X6542328Y5537708D01*
X6538264Y5541772D01*
X6533438Y5544820D01*
X6528003Y5546699D01*
X6521754Y5547410D01*
X6406896Y5547410D01*
X6400647Y5546699D01*
X6395212Y5544820D01*
X6390386Y5541772D01*
X6386322Y5537708D01*
X6383274Y5532882D01*
X6381394Y5527446D01*
X6380886Y5522976D01*
X6379819Y5519470D01*
X6377533Y5516524D01*
X6374384Y5514644D01*
X6370777Y5513933D01*
X6357518Y5513933D01*
X6353657Y5514746D01*
X6350355Y5516930D01*
X6079185Y5788050D01*
X6071057Y5795010D01*
X6062268Y5800394D01*
X6052769Y5804357D01*
X6042761Y5806744D01*
X6032093Y5807557D01*
X6014313Y5807557D01*
X6010148Y5808472D01*
X6006744Y5810961D01*
X6004610Y5814669D01*
X6004204Y5818886D01*
X6004610Y5822645D01*
X6004610Y5937504D01*
X6003899Y5943752D01*
X6002020Y5949188D01*
X5998972Y5954014D01*
X5994908Y5958078D01*
X5990082Y5961126D01*
X5984646Y5963005D01*
X5978398Y5963716D01*
X5832551Y5963716D01*
X5826302Y5963005D01*
X5820867Y5961126D01*
X5816041Y5958078D01*
X5811977Y5954014D01*
X5808929Y5949188D01*
X5807049Y5943752D01*
X5806338Y5937504D01*
X5806338Y5822645D01*
X5807049Y5816396D01*
X5808929Y5810961D01*
X5811977Y5806135D01*
X5816041Y5802071D01*
X5820867Y5799023D01*
X5826302Y5797143D01*
X5830824Y5796635D01*
X5834329Y5795568D01*
X5837275Y5793282D01*
X5839155Y5790133D01*
X5839866Y5786526D01*
X5839866Y5742330D01*
X5840679Y5731662D01*
X5843066Y5721654D01*
X5847029Y5712155D01*
X5852414Y5703366D01*
X5859119Y5695543D01*
X5866942Y5688838D01*
X5875731Y5683453D01*
X5885230Y5679490D01*
X5895238Y5677103D01*
X5905906Y5676290D01*
X6001105Y5676290D01*
X6004966Y5675477D01*
X6008268Y5673293D01*
X6279438Y5402173D01*
X6287566Y5395214D01*
X6296355Y5389829D01*
X6305854Y5385866D01*
X6315862Y5383479D01*
X6326530Y5382666D01*
X6370777Y5382666D01*
X6374384Y5381955D01*
X6377533Y5380075D01*
X6379819Y5377129D01*
X6380886Y5373624D01*
X6381394Y5369102D01*
X6383274Y5363667D01*
X6386322Y5358841D01*
X6390386Y5354777D01*
X6395212Y5351729D01*
X6400647Y5349849D01*
G37*
G36*
X6494373Y5712206D02*
G01*
X6512915Y5713628D01*
X6531203Y5716981D01*
X6549034Y5722162D01*
X6566255Y5729173D01*
X6582714Y5737910D01*
X6598107Y5748324D01*
X6612381Y5760212D01*
X6625386Y5773572D01*
X6636918Y5788152D01*
X6646925Y5803849D01*
X6655206Y5820460D01*
X6661810Y5837885D01*
X6666534Y5855868D01*
X6669379Y5874207D01*
X6670344Y5892800D01*
X6669379Y5911392D01*
X6666534Y5929731D01*
X6661810Y5947714D01*
X6655206Y5965139D01*
X6646925Y5981750D01*
X6636918Y5997448D01*
X6625386Y6012027D01*
X6612381Y6025388D01*
X6598107Y6037275D01*
X6582714Y6047689D01*
X6566255Y6056426D01*
X6549034Y6063437D01*
X6531203Y6068618D01*
X6512915Y6071920D01*
X6494373Y6073394D01*
X6475780Y6072886D01*
X6457289Y6070498D01*
X6439204Y6066231D01*
X6421628Y6060135D01*
X6404813Y6052261D01*
X6388862Y6042660D01*
X6373977Y6031534D01*
X6360312Y6018885D01*
X6348069Y6004915D01*
X6337300Y5989726D01*
X6328105Y5973572D01*
X6320688Y5956503D01*
X6314998Y5938824D01*
X6311188Y5920587D01*
X6309309Y5902096D01*
X6309309Y5883503D01*
X6311188Y5865012D01*
X6314998Y5846775D01*
X6320688Y5829096D01*
X6328105Y5812028D01*
X6337300Y5795873D01*
X6348069Y5780684D01*
X6360312Y5766714D01*
X6373977Y5754065D01*
X6388862Y5742940D01*
X6404813Y5733338D01*
X6421628Y5725464D01*
X6439204Y5719368D01*
X6457289Y5715101D01*
X6475780Y5712714D01*
G37*
G36*
X9431070Y6002223D02*
G01*
X9441637Y6002223D01*
X9447885Y6002934D01*
X9453321Y6004864D01*
X9458147Y6007912D01*
X9462211Y6011926D01*
X9465259Y6016802D01*
X9467138Y6022187D01*
X9467850Y6028486D01*
X9467850Y6036564D01*
X9431070Y6036564D01*
G37*
G36*
X9431070Y6079236D02*
G01*
X9467850Y6079236D01*
X9467850Y6087313D01*
X9467138Y6093612D01*
X9465259Y6098997D01*
X9462211Y6103874D01*
X9458147Y6107887D01*
X9453321Y6110935D01*
X9447885Y6112865D01*
X9441637Y6113526D01*
X9431070Y6113526D01*
G37*
G36*
X9822637Y6631533D02*
G01*
X9824669Y6632448D01*
X9837674Y6640322D01*
X9849612Y6649669D01*
X9860330Y6660388D01*
X9869678Y6672325D01*
X9877552Y6685330D01*
X9878466Y6687362D01*
X9822637Y6687362D01*
G37*
G36*
X9709962Y6631533D02*
G01*
X9709962Y6687362D01*
X9654133Y6687362D01*
X9655048Y6685330D01*
X9662922Y6672325D01*
X9672269Y6660388D01*
X9682988Y6649669D01*
X9694926Y6640322D01*
X9707930Y6632448D01*
G37*
G36*
X9654133Y6800037D02*
G01*
X9709962Y6800037D01*
X9709962Y6855866D01*
X9707930Y6854952D01*
X9694926Y6847078D01*
X9682988Y6837730D01*
X9672269Y6827012D01*
X9662922Y6815074D01*
X9655048Y6802069D01*
G37*
G36*
X9822637Y6800037D02*
G01*
X9878466Y6800037D01*
X9877552Y6802069D01*
X9869678Y6815074D01*
X9860330Y6827012D01*
X9849612Y6837730D01*
X9837674Y6847078D01*
X9824669Y6854952D01*
X9822637Y6855866D01*
G37*
G36*
X7772552Y7427620D02*
G01*
X8012277Y7427620D01*
X8022945Y7428433D01*
X8032953Y7430820D01*
X8042452Y7434783D01*
X8051241Y7440168D01*
X8059064Y7446873D01*
X8065770Y7454696D01*
X8071154Y7463485D01*
X8075117Y7472984D01*
X8077504Y7482992D01*
X8078317Y7493253D01*
X8077504Y7503515D01*
X8075117Y7513523D01*
X8071154Y7523022D01*
X8065770Y7531811D01*
X8059064Y7539634D01*
X8051241Y7546340D01*
X8042452Y7551724D01*
X8032953Y7555687D01*
X8022945Y7558074D01*
X8012277Y7558887D01*
X7803540Y7558887D01*
X7799679Y7559700D01*
X7796377Y7561884D01*
X7762240Y7596022D01*
X7760309Y7598664D01*
X7759344Y7601813D01*
X7760411Y7620000D01*
X7759547Y7634427D01*
X7756804Y7648600D01*
X7752334Y7662367D01*
X7746187Y7675422D01*
X7738465Y7687614D01*
X7729270Y7698740D01*
X7718704Y7708646D01*
X7707020Y7717129D01*
X7694371Y7724089D01*
X7680959Y7729423D01*
X7666939Y7732979D01*
X7652613Y7734808D01*
X7638186Y7734808D01*
X7623860Y7732979D01*
X7609840Y7729423D01*
X7596428Y7724089D01*
X7583779Y7717129D01*
X7572095Y7708646D01*
X7561529Y7698740D01*
X7552334Y7687614D01*
X7544612Y7675422D01*
X7538466Y7662367D01*
X7533995Y7648600D01*
X7531252Y7634427D01*
X7530388Y7620000D01*
X7531252Y7605572D01*
X7533995Y7591399D01*
X7538466Y7577632D01*
X7544612Y7564577D01*
X7552334Y7552385D01*
X7561529Y7541259D01*
X7572095Y7531353D01*
X7583779Y7522870D01*
X7596428Y7515910D01*
X7609840Y7510576D01*
X7623860Y7507020D01*
X7638186Y7505192D01*
X7652613Y7505192D01*
X7660792Y7506208D01*
X7663840Y7506157D01*
X7666736Y7505141D01*
X7669225Y7503312D01*
X7725460Y7447127D01*
X7733588Y7440168D01*
X7742377Y7434783D01*
X7751876Y7430820D01*
X7761884Y7428433D01*
G37*
G36*
X7048246Y7567930D02*
G01*
X7048246Y7619746D01*
X6996328Y7619746D01*
X7002170Y7609179D01*
X7010653Y7597495D01*
X7020559Y7586929D01*
X7031685Y7577734D01*
X7043877Y7570012D01*
G37*
G36*
X7150353Y7567930D02*
G01*
X7154722Y7570012D01*
X7166914Y7577734D01*
X7178040Y7586929D01*
X7187946Y7597495D01*
X7196429Y7609179D01*
X7202271Y7619746D01*
X7150353Y7619746D01*
G37*
G36*
X7150353Y7721853D02*
G01*
X7202271Y7721853D01*
X7196429Y7732420D01*
X7187946Y7744104D01*
X7178040Y7754670D01*
X7166914Y7763865D01*
X7154722Y7771587D01*
X7150353Y7773670D01*
G37*

%LPD*%
D11*
X8336788Y7874000D02*
G01*
X8907779Y7303008D01*
X9512300Y7303008D01*
X6326124Y5448300D02*
G01*
X6032500Y5741923D01*
X5905500Y5741923D01*
X6464300Y5448300D02*
G01*
X6326124Y5448300D01*
X5905500Y5880100D02*
G01*
X5905500Y5741923D01*
X9712197Y7493000D02*
G01*
X10028936Y7176515D01*
X10028936Y5721604D01*
X9867900Y5560821D01*
X9712197Y7893050D02*
G01*
X9571736Y8033512D01*
X7208011Y8033512D01*
X6845300Y7670800D01*
X6311900Y7670800D02*
G01*
X6589522Y7393178D01*
X7374636Y7393178D01*
X7675118Y7092950D01*
X9512300Y7092950D01*
X8642095Y7737855D02*
G01*
X9357106Y7737855D01*
X9512300Y7893050D01*
X9287256Y6146545D02*
G01*
X9287256Y6057900D01*
X9512300Y7493000D02*
G01*
X9051543Y7493000D01*
X8917177Y7627365D01*
X5905500Y6083300D02*
G01*
X5905500Y6221476D01*
X8361679Y6650736D02*
G01*
X8573261Y6438900D01*
X9461500Y6438900D01*
X5905500Y6221476D02*
G01*
X6057900Y6373876D01*
X6057900Y6812534D01*
X6057900Y6812534D02*
G01*
X6057900Y6870700D01*
X7218679Y6975855D02*
G01*
X7686293Y6508495D01*
X8219440Y6508495D01*
X8361679Y6650736D01*
X6381750Y7146544D02*
G01*
X6057900Y7470394D01*
X6057900Y7670800D01*
X6057900Y6812534D02*
G01*
X6057900Y6822694D01*
X6381750Y7146544D01*
X6381750Y7146544D02*
G01*
X7047991Y7146544D01*
X7218679Y6975855D01*
X6667500Y5448300D02*
G01*
X6805675Y5448300D01*
X6918706Y6281673D02*
G01*
X6918706Y6975855D01*
X6805675Y5448300D02*
G01*
X6805675Y6168389D01*
X6918706Y6281673D01*
X6918706Y6281673D02*
G01*
X9609074Y6281673D01*
X9766300Y6438900D01*
X9407143Y6057900D02*
G01*
X9623806Y6057900D01*
X9932415Y6366510D01*
X9932415Y6577584D01*
X9766300Y6743700D01*
X6564122Y7292086D02*
G01*
X7123684Y7292086D01*
X7453884Y6961631D01*
X9548368Y6961631D01*
X9766300Y6743700D01*
X7861554Y6650736D02*
G01*
X8006588Y6795515D01*
X9409684Y6795515D01*
X9461500Y6743700D01*
X7645400Y7620000D02*
G01*
X7772145Y7493254D01*
X8012684Y7493254D01*
G36*
X9252204Y6087897D02*
G01*
X9322206Y6087897D01*
X9322206Y6027902D01*
X9252204Y6027902D01*
G37*
G36*
X9372193Y6087897D02*
G01*
X9442195Y6087897D01*
X9442195Y6027902D01*
X9372193Y6027902D01*
G37*
D14*
G01*
X5905500Y6083274D03*
G01*
X5905500Y5880074D03*
G36*
X6406311Y5521782D02*
G01*
X6522313Y5521782D01*
X6522313Y5374792D01*
X6406311Y5374792D01*
G37*
G36*
X6609511Y5521782D02*
G01*
X6725513Y5521782D01*
X6725513Y5374792D01*
X6609511Y5374792D01*
G37*
D16*
G01*
X9461500Y6743700D03*
G01*
X9766300Y6743700D03*
G01*
X9766300Y6438900D03*
G01*
X9461500Y6438900D03*
D17*
G01*
X7068794Y6509893D03*
D16*
G01*
X6918782Y6975881D03*
G01*
X7218781Y6975881D03*
D18*
G01*
X7099300Y7670800D03*
G01*
X6845300Y7670800D03*
G01*
X6311900Y6870700D03*
G01*
X6057900Y6870700D03*
G01*
X6311900Y7670800D03*
G01*
X6057900Y7670800D03*
G01*
X7645400Y7620000D03*
G01*
X7645400Y7874000D03*
D16*
G01*
X9867900Y5560821D03*
G01*
X9867087Y5820918D03*
G01*
X9867900Y5313934D03*
G01*
X9867900Y5058918D03*
D19*
G01*
X8361603Y6650634D03*
G01*
X8111413Y6650634D03*
G01*
X7861477Y6650634D03*
D20*
G01*
X9512300Y7093000D03*
G01*
X9512300Y7303008D03*
G01*
X9512300Y7493000D03*
G01*
X9512300Y7692999D03*
G01*
X9512300Y7892999D03*
G01*
X9712299Y7692999D03*
G01*
X9712299Y7493000D03*
G01*
X9712299Y7892999D03*
G01*
X9712299Y7293000D03*
G01*
X9712299Y7093000D03*
D21*
G01*
X9036811Y7874000D03*
G01*
X8336813Y7874000D03*
D12*
G01*
X8642095Y7737855D03*
G01*
X9287256Y6146545D03*
G01*
X8917177Y7627365D03*
G01*
X6564122Y7292086D03*
G01*
X8012684Y7493254D03*
M02*
