G04 Layer: TopSolderMaskLayer*
G04 EasyEDA v6.4.14, 2021-02-16T08:34:30--8:00*
G04 f15f27c0a9244bc199848a9b762d9fb5,debd25b7e7f645e7808fdd9718494454,10*
G04 Gerber Generator version 0.2*
G04 Scale: 100 percent, Rotated: No, Reflected: No *
G04 Dimensions in millimeters *
G04 leading zeros omitted , absolute positions ,4 integer and 5 decimal *
%FSLAX45Y45*%
%MOMM*%

%ADD29C,2.2032*%
%ADD30C,1.9912*%
%ADD32C,2.7032*%
%ADD33C,1.7272*%
%ADD34C,1.9032*%
%ADD35C,1.7032*%
%ADD38C,1.8032*%

%LPD*%
D29*
G01*
X3751798Y2149053D03*
G01*
X4056598Y2149053D03*
G01*
X4056598Y1844253D03*
G01*
X3751798Y1844253D03*
D30*
G01*
X1389598Y3076153D03*
G01*
X1135598Y3076153D03*
G36*
X3532342Y1423121D02*
G01*
X3532342Y1503385D01*
X3622766Y1503385D01*
X3622766Y1423121D01*
G37*
G36*
X3652230Y1423121D02*
G01*
X3652230Y1503385D01*
X3742654Y1503385D01*
X3742654Y1423121D01*
G37*
G01*
X614898Y2301453D03*
G01*
X360898Y2301453D03*
G01*
X602198Y3076153D03*
G01*
X348198Y3076153D03*
G01*
X1935698Y3025353D03*
G01*
X1935698Y3279353D03*
D32*
G01*
X1707098Y2225253D03*
G01*
X1199098Y2225253D03*
D33*
G01*
X4158198Y966175D03*
G01*
X4157385Y1226271D03*
G01*
X4158198Y719287D03*
G01*
X4158198Y464271D03*
D34*
G01*
X2817002Y2055987D03*
G01*
X2566812Y2055987D03*
G01*
X2316876Y2055987D03*
D35*
G01*
X3802598Y2498354D03*
G01*
X3802598Y2708361D03*
G01*
X3802598Y2898353D03*
G01*
X3802598Y3098352D03*
G01*
X3802598Y3298352D03*
G01*
X4002598Y3098352D03*
G01*
X4002598Y2898353D03*
G01*
X4002598Y3298352D03*
G01*
X4002598Y2698353D03*
G01*
X4002598Y2498354D03*
G36*
X112232Y1420581D02*
G01*
X112232Y1556725D01*
X279364Y1556725D01*
X279364Y1420581D01*
G37*
G36*
X112232Y1217381D02*
G01*
X112232Y1353525D01*
X279364Y1353525D01*
X279364Y1217381D01*
G37*
G36*
X686526Y770087D02*
G01*
X686526Y937219D01*
X822670Y937219D01*
X822670Y770087D01*
G37*
G36*
X889726Y770087D02*
G01*
X889726Y937219D01*
X1025870Y937219D01*
X1025870Y770087D01*
G37*
D38*
G01*
X3129498Y2624541D03*
G01*
X3129498Y3324539D03*
M02*
