G04 Layer: BottomLayer*
G04 EasyEDA v6.4.14, 2021-02-16T08:34:30--8:00*
G04 f15f27c0a9244bc199848a9b762d9fb5,debd25b7e7f645e7808fdd9718494454,10*
G04 Gerber Generator version 0.2*
G04 Scale: 100 percent, Rotated: No, Reflected: No *
G04 Dimensions in millimeters *
G04 leading zeros omitted , absolute positions ,4 integer and 5 decimal *
%FSLAX45Y45*%
%MOMM*%

%ADD11C,0.8000*%
%ADD12C,0.6100*%
%ADD16C,2.0000*%
%ADD17C,1.7880*%
%ADD18C,2.5000*%
%ADD19C,1.5240*%
%ADD20C,1.7000*%
%ADD21C,1.5000*%
%ADD22C,1.6000*%

%LPD*%
D11*
X3129498Y3324565D02*
G01*
X3129498Y3285449D01*
X3706840Y2708361D01*
X3802598Y2708361D01*
X3129498Y2624541D02*
G01*
X2566888Y2061931D01*
X2566888Y2056089D01*
X4158198Y464271D02*
G01*
X4292310Y598383D01*
X4292310Y2205949D01*
X4002496Y2495509D01*
X4002496Y2498303D01*
X4158198Y719287D02*
G01*
X4025864Y586699D01*
X4025864Y400263D01*
X4096476Y329651D01*
X4215602Y329651D01*
X4396704Y510753D01*
X4396704Y2237699D01*
X4167342Y2467061D01*
X4167342Y2533609D01*
X4002496Y2698455D01*
X4002496Y3098251D02*
G01*
X4316440Y2784307D01*
X4316440Y2454107D01*
X3802598Y2898353D02*
G01*
X3628862Y3072089D01*
X3479256Y3072089D01*
X3802598Y2498303D02*
G01*
X3545804Y2498303D01*
X3098256Y2946105D01*
X2091908Y2946105D01*
X2021042Y2875239D01*
X803112Y2875239D01*
X602198Y3076153D01*
X3481288Y1794723D02*
G01*
X3702268Y1794723D01*
X3751798Y1844253D01*
X1199098Y2225253D02*
G01*
X1744182Y1680169D01*
X3892768Y1680169D01*
X4056598Y1844253D01*
X2316952Y2056089D02*
G01*
X2316952Y2335235D01*
X1872960Y2778973D01*
X2316952Y2056089D02*
G01*
X2463764Y1909023D01*
X3511768Y1909023D01*
X3751798Y2149053D01*
D16*
G01*
X3751798Y2149053D03*
G01*
X4056598Y2149053D03*
G01*
X4056598Y1844253D03*
G01*
X3751798Y1844253D03*
D17*
G01*
X1389598Y3076153D03*
G01*
X1135598Y3076153D03*
G01*
X614898Y2301453D03*
G01*
X360898Y2301453D03*
G01*
X602198Y3076153D03*
G01*
X348198Y3076153D03*
G01*
X1935698Y3025353D03*
G01*
X1935698Y3279353D03*
D18*
G01*
X1707098Y2225253D03*
G01*
X1199098Y2225253D03*
D19*
G01*
X4158198Y966175D03*
G01*
X4157385Y1226271D03*
G01*
X4158198Y719287D03*
G01*
X4158198Y464271D03*
D20*
G01*
X2817002Y2055987D03*
G01*
X2566812Y2055987D03*
G01*
X2316876Y2055987D03*
D21*
G01*
X3802598Y2498354D03*
G01*
X3802598Y2708361D03*
G01*
X3802598Y2898353D03*
G01*
X3802598Y3098352D03*
G01*
X3802598Y3298352D03*
G01*
X4002598Y3098352D03*
G01*
X4002598Y2898353D03*
G01*
X4002598Y3298352D03*
G01*
X4002598Y2698353D03*
G01*
X4002598Y2498354D03*
D22*
G01*
X3129498Y2624541D03*
G01*
X3129498Y3324539D03*
D12*
G01*
X4316440Y2454107D03*
G01*
X3479256Y3072089D03*
G01*
X3481288Y1794723D03*
G01*
X1872960Y2778973D03*
M02*
