M48
METRIC,LZ,000.000
;FILE_FORMAT=3:3
;TYPE=PLATED
;Layer: Drill PTH
;EasyEDA v6.4.19.4, 2021-04-11T16:08:46--7:00
;9cbc2b910eb64c8f9819a69e802af7b9,debd25b7e7f645e7808fdd9718494454,10
;Gerber Generator version 0.2
;Holesize 1 = 0.310 mm
T01C0.310
;Holesize 2 = 0.800 mm
T02C0.800
;Holesize 3 = 0.915 mm
T03C0.915
;Holesize 4 = 1.000 mm
T04C1.000
;Holesize 5 = 1.101 mm
T05C1.101
%
G05
G90
T01
X092568Y065037
X077523Y073251
X067450Y055738
X069266Y063843
T02
X098115Y056515
X091115Y056515
T03
X094161Y064914
X094142Y061907
X094178Y067876
X094178Y070888
X094169Y073899
X094169Y076899
X094169Y079899
X091169Y079899
X091169Y076899
X091169Y073899
X091169Y070899
X091169Y067899
X091169Y064899
X091169Y061899
T04
X080013Y065237
X082512Y065237
X085014Y065237
X070993Y076708
X068453Y076708
X063119Y068707
X060579Y068707
X063119Y076708
X060579Y076708
X076327Y075946
X076327Y078486
X095613Y050038
X098214Y050046
X093144Y050038
X090594Y050038
T05
X069239Y069882
X072239Y069882
M30
