G04 Layer: TopSilkLayer*
G04 EasyEDA v6.4.17, 2021-03-16T21:57:32--7:00*
G04 e57ce84d270c476cbb3b8f1c5158f271,debd25b7e7f645e7808fdd9718494454,10*
G04 Gerber Generator version 0.2*
G04 Scale: 100 percent, Rotated: No, Reflected: No *
G04 Dimensions in millimeters *
G04 leading zeros omitted , absolute positions ,4 integer and 5 decimal *
%FSLAX45Y45*%
%MOMM*%

%ADD10C,0.2540*%
%ADD22C,0.2499*%
%ADD23C,0.2000*%
%ADD24C,0.1999*%
%ADD25C,0.2032*%
%ADD26C,0.1524*%
%ADD27C,0.2500*%

%LPD*%
G36*
X8904274Y6566916D02*
G01*
X8902598Y6566357D01*
X8891981Y6560972D01*
X8873337Y6550812D01*
X8818422Y6519875D01*
X8702852Y6453479D01*
X8702852Y6339687D01*
X8763406Y6339687D01*
X8843670Y6461556D01*
X8903106Y6461556D01*
X8821216Y6337249D01*
X8776716Y6337350D01*
X8767927Y6337706D01*
X8763914Y6338468D01*
X8763406Y6339687D01*
X8702852Y6339687D01*
X8702852Y6221018D01*
X8717077Y6212840D01*
X8790838Y6212840D01*
X8848344Y6299708D01*
X8931097Y6425539D01*
X8955074Y6461556D01*
X9014307Y6461556D01*
X8851188Y6213805D01*
X8796873Y6212941D01*
X8902293Y6212941D01*
X8984183Y6337249D01*
X9028684Y6337147D01*
X9037523Y6336792D01*
X9041536Y6336030D01*
X9041993Y6334810D01*
X8961729Y6212941D01*
X8717077Y6212840D01*
X8825128Y6150762D01*
X8877147Y6121349D01*
X8893860Y6112154D01*
X8902700Y6107684D01*
X8908592Y6110579D01*
X8945321Y6130899D01*
X9003995Y6164326D01*
X9102547Y6221018D01*
X9102547Y6453479D01*
X8952839Y6539433D01*
G37*
D25*
X9944100Y6464045D02*
G01*
X9944100Y6416294D01*
X9975850Y6464045D02*
G01*
X9975850Y6416294D01*
X9944100Y6441186D02*
G01*
X9975850Y6441186D01*
X9990836Y6464045D02*
G01*
X9990836Y6416294D01*
X9990836Y6464045D02*
G01*
X10020554Y6464045D01*
X9990836Y6441186D02*
G01*
X10009124Y6441186D01*
X9990836Y6416294D02*
G01*
X10020554Y6416294D01*
X10049002Y6464045D02*
G01*
X10042397Y6461760D01*
X10037825Y6454902D01*
X10035540Y6443471D01*
X10035540Y6436613D01*
X10037825Y6425437D01*
X10042397Y6418579D01*
X10049002Y6416294D01*
X10053574Y6416294D01*
X10060431Y6418579D01*
X10065004Y6425437D01*
X10067290Y6436613D01*
X10067290Y6443471D01*
X10065004Y6454902D01*
X10060431Y6461760D01*
X10053574Y6464045D01*
X10049002Y6464045D01*
X9949688Y6756145D02*
G01*
X9931400Y6708394D01*
X9949688Y6756145D02*
G01*
X9967722Y6708394D01*
X9938258Y6724142D02*
G01*
X9960863Y6724142D01*
X10016743Y6744715D02*
G01*
X10014458Y6749287D01*
X10010140Y6753860D01*
X10005568Y6756145D01*
X9996424Y6756145D01*
X9991852Y6753860D01*
X9987279Y6749287D01*
X9984993Y6744715D01*
X9982708Y6737858D01*
X9982708Y6726428D01*
X9984993Y6719570D01*
X9987279Y6715252D01*
X9991852Y6710679D01*
X9996424Y6708394D01*
X10005568Y6708394D01*
X10010140Y6710679D01*
X10014458Y6715252D01*
X10016743Y6719570D01*
X10016743Y6726428D01*
X10005568Y6726428D02*
G01*
X10016743Y6726428D01*
X10031729Y6756145D02*
G01*
X10031729Y6708394D01*
X10031729Y6756145D02*
G01*
X10063734Y6708394D01*
X10063734Y6756145D02*
G01*
X10063734Y6708394D01*
X10078720Y6756145D02*
G01*
X10078720Y6708394D01*
X10078720Y6756145D02*
G01*
X10094468Y6756145D01*
X10101325Y6753860D01*
X10105897Y6749287D01*
X10108184Y6744715D01*
X10110470Y6737858D01*
X10110470Y6726428D01*
X10108184Y6719570D01*
X10105897Y6715252D01*
X10101325Y6710679D01*
X10094468Y6708394D01*
X10078720Y6708394D01*
X9171686Y6490715D02*
G01*
X9171686Y6493002D01*
X9173972Y6497573D01*
X9176258Y6499860D01*
X9180829Y6502145D01*
X9189974Y6502145D01*
X9194291Y6499860D01*
X9196577Y6497573D01*
X9198863Y6493002D01*
X9198863Y6488429D01*
X9196577Y6483857D01*
X9192006Y6477000D01*
X9169400Y6454394D01*
X9201150Y6454394D01*
X9238995Y6502145D02*
G01*
X9216136Y6470142D01*
X9250425Y6470142D01*
X9238995Y6502145D02*
G01*
X9238995Y6454394D01*
X9265411Y6502145D02*
G01*
X9283445Y6454394D01*
X9301734Y6502145D02*
G01*
X9283445Y6454394D01*
X9203436Y6757415D02*
G01*
X9201150Y6761987D01*
X9196577Y6766560D01*
X9192006Y6768845D01*
X9183115Y6768845D01*
X9178543Y6766560D01*
X9173972Y6761987D01*
X9171686Y6757415D01*
X9169400Y6750558D01*
X9169400Y6739128D01*
X9171686Y6732270D01*
X9173972Y6727952D01*
X9178543Y6723379D01*
X9183115Y6721094D01*
X9192006Y6721094D01*
X9196577Y6723379D01*
X9201150Y6727952D01*
X9203436Y6732270D01*
X9203436Y6739128D01*
X9192006Y6739128D02*
G01*
X9203436Y6739128D01*
X9218422Y6768845D02*
G01*
X9218422Y6721094D01*
X9218422Y6768845D02*
G01*
X9250425Y6721094D01*
X9250425Y6768845D02*
G01*
X9250425Y6721094D01*
X9265411Y6768845D02*
G01*
X9265411Y6721094D01*
X9265411Y6768845D02*
G01*
X9281159Y6768845D01*
X9288018Y6766560D01*
X9292590Y6761987D01*
X9294875Y6757415D01*
X9297161Y6750558D01*
X9297161Y6739128D01*
X9294875Y6732270D01*
X9292590Y6727952D01*
X9288018Y6723379D01*
X9281159Y6721094D01*
X9265411Y6721094D01*
X9194800Y7129271D02*
G01*
X9194800Y7052818D01*
X9194800Y7129271D02*
G01*
X9227565Y7129271D01*
X9238488Y7125715D01*
X9242043Y7121905D01*
X9245600Y7114794D01*
X9245600Y7103871D01*
X9242043Y7096505D01*
X9238488Y7092950D01*
X9227565Y7089139D01*
X9194800Y7089139D01*
X9324340Y7110984D02*
G01*
X9320529Y7118350D01*
X9313418Y7125715D01*
X9306052Y7129271D01*
X9291574Y7129271D01*
X9284208Y7125715D01*
X9277095Y7118350D01*
X9273286Y7110984D01*
X9269729Y7100062D01*
X9269729Y7082028D01*
X9273286Y7071105D01*
X9277095Y7063739D01*
X9284208Y7056373D01*
X9291574Y7052818D01*
X9306052Y7052818D01*
X9313418Y7056373D01*
X9320529Y7063739D01*
X9324340Y7071105D01*
X9348215Y7129271D02*
G01*
X9348215Y7052818D01*
X9348215Y7129271D02*
G01*
X9395459Y7129271D01*
X9348215Y7092950D02*
G01*
X9377425Y7092950D01*
X9223941Y7332471D02*
G01*
X9194731Y7256018D01*
X9223941Y7332471D02*
G01*
X9252897Y7256018D01*
X9205653Y7281418D02*
G01*
X9241975Y7281418D01*
X9277027Y7332471D02*
G01*
X9277027Y7256018D01*
X9277027Y7332471D02*
G01*
X9309793Y7332471D01*
X9320715Y7328915D01*
X9324271Y7325105D01*
X9327827Y7317994D01*
X9327827Y7310628D01*
X9324271Y7303262D01*
X9320715Y7299705D01*
X9309793Y7296150D01*
X9277027Y7296150D02*
G01*
X9309793Y7296150D01*
X9320715Y7292339D01*
X9324271Y7288784D01*
X9327827Y7281418D01*
X9327827Y7270495D01*
X9324271Y7263384D01*
X9320715Y7259573D01*
X9309793Y7256018D01*
X9277027Y7256018D01*
X9351957Y7332471D02*
G01*
X9351957Y7256018D01*
X9351957Y7256018D02*
G01*
X9395645Y7256018D01*
X9194800Y7548371D02*
G01*
X9245600Y7471918D01*
X9245600Y7548371D02*
G01*
X9194800Y7471918D01*
X9269729Y7548371D02*
G01*
X9269729Y7471918D01*
X9269729Y7548371D02*
G01*
X9316974Y7548371D01*
X9269729Y7512050D02*
G01*
X9298686Y7512050D01*
X9269729Y7471918D02*
G01*
X9316974Y7471918D01*
X9391904Y7537450D02*
G01*
X9384538Y7544815D01*
X9373615Y7548371D01*
X9359138Y7548371D01*
X9348215Y7544815D01*
X9341104Y7537450D01*
X9341104Y7530084D01*
X9344659Y7522971D01*
X9348215Y7519162D01*
X9355581Y7515605D01*
X9377425Y7508239D01*
X9384538Y7504684D01*
X9388347Y7501128D01*
X9391904Y7493762D01*
X9391904Y7482839D01*
X9384538Y7475473D01*
X9373615Y7471918D01*
X9359138Y7471918D01*
X9348215Y7475473D01*
X9341104Y7482839D01*
X9325571Y7707884D02*
G01*
X9322015Y7715250D01*
X9314649Y7722615D01*
X9307283Y7726171D01*
X9292805Y7726171D01*
X9285439Y7722615D01*
X9278327Y7715250D01*
X9274517Y7707884D01*
X9270961Y7696962D01*
X9270961Y7678928D01*
X9274517Y7668005D01*
X9278327Y7660639D01*
X9285439Y7653273D01*
X9292805Y7649718D01*
X9307283Y7649718D01*
X9314649Y7653273D01*
X9322015Y7660639D01*
X9325571Y7668005D01*
X9375101Y7726171D02*
G01*
X9375101Y7649718D01*
X9349447Y7726171D02*
G01*
X9400501Y7726171D01*
X9207500Y7929371D02*
G01*
X9207500Y7852918D01*
X9258300Y7929371D02*
G01*
X9258300Y7852918D01*
X9207500Y7893050D02*
G01*
X9258300Y7893050D01*
X9282429Y7929371D02*
G01*
X9282429Y7852918D01*
X9282429Y7929371D02*
G01*
X9329674Y7929371D01*
X9282429Y7893050D02*
G01*
X9311386Y7893050D01*
X9282429Y7852918D02*
G01*
X9329674Y7852918D01*
X9353804Y7929371D02*
G01*
X9353804Y7852918D01*
X9353804Y7929371D02*
G01*
X9401047Y7929371D01*
X9353804Y7893050D02*
G01*
X9382759Y7893050D01*
X9855200Y7929371D02*
G01*
X9855200Y7852918D01*
X9829800Y7929371D02*
G01*
X9880600Y7929371D01*
X9904729Y7929371D02*
G01*
X9904729Y7852918D01*
X9955529Y7929371D02*
G01*
X9955529Y7852918D01*
X9904729Y7893050D02*
G01*
X9955529Y7893050D01*
X10001504Y7929371D02*
G01*
X9990581Y7925815D01*
X9983215Y7914894D01*
X9979659Y7896605D01*
X9979659Y7885684D01*
X9983215Y7867395D01*
X9990581Y7856473D01*
X10001504Y7852918D01*
X10008615Y7852918D01*
X10019538Y7856473D01*
X10026904Y7867395D01*
X10030459Y7885684D01*
X10030459Y7896605D01*
X10026904Y7914894D01*
X10019538Y7925815D01*
X10008615Y7929371D01*
X10001504Y7929371D01*
X9906000Y7118350D02*
G01*
X9898888Y7125715D01*
X9887965Y7129271D01*
X9873488Y7129271D01*
X9862565Y7125715D01*
X9855200Y7118350D01*
X9855200Y7110984D01*
X9858756Y7103871D01*
X9862565Y7100062D01*
X9869677Y7096505D01*
X9891522Y7089139D01*
X9898888Y7085584D01*
X9902443Y7082028D01*
X9906000Y7074662D01*
X9906000Y7063739D01*
X9898888Y7056373D01*
X9887965Y7052818D01*
X9873488Y7052818D01*
X9862565Y7056373D01*
X9855200Y7063739D01*
X9930129Y7114794D02*
G01*
X9937495Y7118350D01*
X9948163Y7129271D01*
X9948163Y7052818D01*
X9972293Y7129271D02*
G01*
X9972293Y7052818D01*
X9972293Y7129271D02*
G01*
X10005059Y7129271D01*
X10015981Y7125715D01*
X10019538Y7121905D01*
X10023093Y7114794D01*
X10023093Y7107428D01*
X10019538Y7100062D01*
X10015981Y7096505D01*
X10005059Y7092950D01*
X9972293Y7092950D02*
G01*
X10005059Y7092950D01*
X10015981Y7089139D01*
X10019538Y7085584D01*
X10023093Y7078218D01*
X10023093Y7067295D01*
X10019538Y7060184D01*
X10015981Y7056373D01*
X10005059Y7052818D01*
X9972293Y7052818D01*
X9893300Y7321550D02*
G01*
X9886188Y7328915D01*
X9875265Y7332471D01*
X9860788Y7332471D01*
X9849865Y7328915D01*
X9842500Y7321550D01*
X9842500Y7314184D01*
X9846056Y7307071D01*
X9849865Y7303262D01*
X9856977Y7299705D01*
X9878822Y7292339D01*
X9886188Y7288784D01*
X9889743Y7285228D01*
X9893300Y7277862D01*
X9893300Y7266939D01*
X9886188Y7259573D01*
X9875265Y7256018D01*
X9860788Y7256018D01*
X9849865Y7259573D01*
X9842500Y7266939D01*
X9917429Y7317994D02*
G01*
X9924795Y7321550D01*
X9935463Y7332471D01*
X9935463Y7256018D01*
X9988804Y7332471D02*
G01*
X9959593Y7256018D01*
X9988804Y7332471D02*
G01*
X10017759Y7256018D01*
X9970515Y7281418D02*
G01*
X10006838Y7281418D01*
X9893300Y7524750D02*
G01*
X9886188Y7532115D01*
X9875265Y7535671D01*
X9860788Y7535671D01*
X9849865Y7532115D01*
X9842500Y7524750D01*
X9842500Y7517384D01*
X9846056Y7510271D01*
X9849865Y7506462D01*
X9856977Y7502905D01*
X9878822Y7495539D01*
X9886188Y7491984D01*
X9889743Y7488428D01*
X9893300Y7481062D01*
X9893300Y7470139D01*
X9886188Y7462773D01*
X9875265Y7459218D01*
X9860788Y7459218D01*
X9849865Y7462773D01*
X9842500Y7470139D01*
X9920986Y7517384D02*
G01*
X9920986Y7521194D01*
X9924795Y7528305D01*
X9928352Y7532115D01*
X9935463Y7535671D01*
X9950195Y7535671D01*
X9957308Y7532115D01*
X9961118Y7528305D01*
X9964674Y7521194D01*
X9964674Y7513828D01*
X9961118Y7506462D01*
X9953752Y7495539D01*
X9917429Y7459218D01*
X9968229Y7459218D01*
X10021315Y7535671D02*
G01*
X9992359Y7459218D01*
X10021315Y7535671D02*
G01*
X10050525Y7459218D01*
X10003281Y7484618D02*
G01*
X10039604Y7484618D01*
X9893300Y7715250D02*
G01*
X9886188Y7722615D01*
X9875265Y7726171D01*
X9860788Y7726171D01*
X9849865Y7722615D01*
X9842500Y7715250D01*
X9842500Y7707884D01*
X9846056Y7700771D01*
X9849865Y7696962D01*
X9856977Y7693405D01*
X9878822Y7686039D01*
X9886188Y7682484D01*
X9889743Y7678928D01*
X9893300Y7671562D01*
X9893300Y7660639D01*
X9886188Y7653273D01*
X9875265Y7649718D01*
X9860788Y7649718D01*
X9849865Y7653273D01*
X9842500Y7660639D01*
X9920986Y7707884D02*
G01*
X9920986Y7711694D01*
X9924795Y7718805D01*
X9928352Y7722615D01*
X9935463Y7726171D01*
X9950195Y7726171D01*
X9957308Y7722615D01*
X9961118Y7718805D01*
X9964674Y7711694D01*
X9964674Y7704328D01*
X9961118Y7696962D01*
X9953752Y7686039D01*
X9917429Y7649718D01*
X9968229Y7649718D01*
X9992359Y7726171D02*
G01*
X9992359Y7649718D01*
X9992359Y7726171D02*
G01*
X10025125Y7726171D01*
X10036047Y7722615D01*
X10039604Y7718805D01*
X10043159Y7711694D01*
X10043159Y7704328D01*
X10039604Y7696962D01*
X10036047Y7693405D01*
X10025125Y7689850D01*
X9992359Y7689850D02*
G01*
X10025125Y7689850D01*
X10036047Y7686039D01*
X10039604Y7682484D01*
X10043159Y7675118D01*
X10043159Y7664195D01*
X10039604Y7657084D01*
X10036047Y7653273D01*
X10025125Y7649718D01*
X9992359Y7649718D01*
D26*
X6934200Y6795515D02*
G01*
X6934200Y6686552D01*
X7006843Y6795515D02*
G01*
X7006843Y6686550D01*
X6934197Y6743702D02*
G01*
X7006843Y6743702D01*
X7041134Y6795515D02*
G01*
X7041134Y6686550D01*
X7041134Y6795515D02*
G01*
X7108697Y6795518D01*
X7041134Y6743702D02*
G01*
X7082787Y6743700D01*
X7041134Y6686550D02*
G01*
X7108697Y6686550D01*
X7174229Y6795518D02*
G01*
X7158733Y6790438D01*
X7148322Y6774687D01*
X7142988Y6748779D01*
X7142988Y6733286D01*
X7148319Y6707123D01*
X7158736Y6691629D01*
X7174227Y6686552D01*
X7184643Y6686552D01*
X7200138Y6691629D01*
X7210549Y6707123D01*
X7215886Y6733286D01*
X7215886Y6748779D01*
X7210552Y6774687D01*
X7200138Y6790436D01*
X7184641Y6795515D01*
X7174229Y6795518D01*
X6896100Y8145271D02*
G01*
X6896100Y8068818D01*
X6870700Y8145271D02*
G01*
X6921500Y8145271D01*
X6945629Y8145271D02*
G01*
X6945629Y8068818D01*
X6996429Y8145271D02*
G01*
X6996429Y8068818D01*
X6945629Y8108950D02*
G01*
X6996429Y8108950D01*
X7020559Y8130794D02*
G01*
X7027672Y8134350D01*
X7038593Y8145271D01*
X7038593Y8068818D01*
X7073900Y7340600D02*
G01*
X7131811Y7340600D01*
X6848856Y7369555D02*
G01*
X6848856Y7311644D01*
X6819900Y7340600D02*
G01*
X6877811Y7340600D01*
X9135109Y6082284D02*
G01*
X9131300Y6089650D01*
X9124188Y6097015D01*
X9116822Y6100571D01*
X9102343Y6100571D01*
X9094977Y6097015D01*
X9087865Y6089650D01*
X9084056Y6082284D01*
X9080500Y6071362D01*
X9080500Y6053328D01*
X9084056Y6042405D01*
X9087865Y6035039D01*
X9094977Y6027673D01*
X9102343Y6024118D01*
X9116822Y6024118D01*
X9124188Y6027673D01*
X9131300Y6035039D01*
X9135109Y6042405D01*
X9184386Y6100571D02*
G01*
X9184386Y6024118D01*
X9158986Y6100571D02*
G01*
X9210040Y6100571D01*
X6007100Y7345171D02*
G01*
X6007100Y7268718D01*
X6057900Y7345171D02*
G01*
X6057900Y7268718D01*
X6007100Y7308850D02*
G01*
X6057900Y7308850D01*
X6082029Y7345171D02*
G01*
X6082029Y7268718D01*
X6082029Y7345171D02*
G01*
X6129274Y7345171D01*
X6082029Y7308850D02*
G01*
X6110986Y7308850D01*
X6082029Y7268718D02*
G01*
X6129274Y7268718D01*
X6153404Y7345171D02*
G01*
X6153404Y7268718D01*
X6153404Y7345171D02*
G01*
X6200647Y7345171D01*
X6153404Y7308850D02*
G01*
X6182359Y7308850D01*
X6253734Y7345171D02*
G01*
X6224524Y7268718D01*
X6253734Y7345171D02*
G01*
X6282690Y7268718D01*
X6235445Y7294118D02*
G01*
X6271768Y7294118D01*
X6306820Y7345171D02*
G01*
X6306820Y7268718D01*
X6306820Y7345171D02*
G01*
X6357620Y7268718D01*
X6357620Y7345171D02*
G01*
X6357620Y7268718D01*
X6286500Y6540500D02*
G01*
X6344411Y6540500D01*
X6061456Y6569455D02*
G01*
X6061456Y6511544D01*
X6032500Y6540500D02*
G01*
X6090411Y6540500D01*
X6032500Y8132571D02*
G01*
X6032500Y8056118D01*
X6032500Y8132571D02*
G01*
X6065265Y8132571D01*
X6076188Y8129015D01*
X6079743Y8125205D01*
X6083300Y8118094D01*
X6083300Y8107171D01*
X6079743Y8099805D01*
X6076188Y8096250D01*
X6065265Y8092439D01*
X6032500Y8092439D01*
X6162040Y8114284D02*
G01*
X6158229Y8121650D01*
X6151118Y8129015D01*
X6143752Y8132571D01*
X6129274Y8132571D01*
X6121908Y8129015D01*
X6114795Y8121650D01*
X6110986Y8114284D01*
X6107429Y8103362D01*
X6107429Y8085328D01*
X6110986Y8074405D01*
X6114795Y8067039D01*
X6121908Y8059673D01*
X6129274Y8056118D01*
X6143752Y8056118D01*
X6151118Y8059673D01*
X6158229Y8067039D01*
X6162040Y8074405D01*
X6185915Y8132571D02*
G01*
X6185915Y8056118D01*
X6185915Y8132571D02*
G01*
X6233159Y8132571D01*
X6185915Y8096250D02*
G01*
X6215125Y8096250D01*
X6286245Y8132571D02*
G01*
X6257290Y8056118D01*
X6286245Y8132571D02*
G01*
X6315456Y8056118D01*
X6268211Y8081518D02*
G01*
X6304534Y8081518D01*
X6339331Y8132571D02*
G01*
X6339331Y8056118D01*
X6339331Y8132571D02*
G01*
X6390386Y8056118D01*
X6390386Y8132571D02*
G01*
X6390386Y8056118D01*
X6286500Y7340600D02*
G01*
X6344411Y7340600D01*
X6061456Y7369555D02*
G01*
X6061456Y7311644D01*
X6032500Y7340600D02*
G01*
X6090411Y7340600D01*
X8107172Y8102600D02*
G01*
X8030718Y8051800D01*
X8107172Y8051800D02*
G01*
X8030718Y8102600D01*
X8107172Y8027670D02*
G01*
X8030718Y8027670D01*
X8107172Y8027670D02*
G01*
X8107172Y7980426D01*
X8070850Y8027670D02*
G01*
X8070850Y7998713D01*
X8030718Y8027670D02*
G01*
X8030718Y7980426D01*
X8107172Y7956295D02*
G01*
X8030718Y7956295D01*
X8107172Y7956295D02*
G01*
X8030718Y7905495D01*
X8107172Y7905495D02*
G01*
X8030718Y7905495D01*
X8107172Y7881620D02*
G01*
X8030718Y7881620D01*
X8107172Y7881620D02*
G01*
X8107172Y7855965D01*
X8103615Y7845044D01*
X8096250Y7837931D01*
X8088884Y7834121D01*
X8077961Y7830565D01*
X8059927Y7830565D01*
X8049006Y7834121D01*
X8041640Y7837931D01*
X8034274Y7845044D01*
X8030718Y7855965D01*
X8030718Y7881620D01*
X8096250Y7755636D02*
G01*
X8103615Y7763002D01*
X8107172Y7773923D01*
X8107172Y7788402D01*
X8103615Y7799323D01*
X8096250Y7806689D01*
X8088884Y7806689D01*
X8081772Y7802879D01*
X8077961Y7799323D01*
X8074406Y7791958D01*
X8067040Y7770113D01*
X8063484Y7763002D01*
X8059927Y7759445D01*
X8052561Y7755636D01*
X8041640Y7755636D01*
X8034274Y7763002D01*
X8030718Y7773923D01*
X8030718Y7788402D01*
X8034274Y7799323D01*
X8041640Y7806689D01*
X8107172Y7706360D02*
G01*
X8030718Y7706360D01*
X8107172Y7731760D02*
G01*
X8107172Y7680705D01*
X8107172Y7634986D02*
G01*
X8103615Y7642352D01*
X8096250Y7649463D01*
X8088884Y7653020D01*
X8077961Y7656829D01*
X8059927Y7656829D01*
X8049006Y7653020D01*
X8041640Y7649463D01*
X8034274Y7642352D01*
X8030718Y7634986D01*
X8030718Y7620508D01*
X8034274Y7613142D01*
X8041640Y7605776D01*
X8049006Y7602220D01*
X8059927Y7598663D01*
X8077961Y7598663D01*
X8088884Y7602220D01*
X8096250Y7605776D01*
X8103615Y7613142D01*
X8107172Y7620508D01*
X8107172Y7634986D01*
X8107172Y7574534D02*
G01*
X8030718Y7574534D01*
X8107172Y7574534D02*
G01*
X8107172Y7541768D01*
X8103615Y7530845D01*
X8099806Y7527289D01*
X8092693Y7523734D01*
X8081772Y7523734D01*
X8074406Y7527289D01*
X8070850Y7530845D01*
X8067040Y7541768D01*
X8067040Y7574534D01*
X7315200Y7645400D02*
G01*
X7315200Y7587487D01*
X7344156Y7870444D02*
G01*
X7286243Y7870444D01*
X7315200Y7899400D02*
G01*
X7315200Y7841487D01*
X9588500Y4730750D02*
G01*
X9581388Y4738115D01*
X9570465Y4741671D01*
X9555988Y4741671D01*
X9545065Y4738115D01*
X9537700Y4730750D01*
X9537700Y4723384D01*
X9541256Y4716271D01*
X9545065Y4712462D01*
X9552177Y4708905D01*
X9574022Y4701539D01*
X9581388Y4697984D01*
X9584943Y4694428D01*
X9588500Y4687062D01*
X9588500Y4676139D01*
X9581388Y4668773D01*
X9570465Y4665218D01*
X9555988Y4665218D01*
X9545065Y4668773D01*
X9537700Y4676139D01*
X9638029Y4741671D02*
G01*
X9638029Y4665218D01*
X9612629Y4741671D02*
G01*
X9663429Y4741671D01*
X9687559Y4741671D02*
G01*
X9687559Y4665218D01*
X9687559Y4741671D02*
G01*
X9734804Y4741671D01*
X9687559Y4705350D02*
G01*
X9716515Y4705350D01*
X9687559Y4665218D02*
G01*
X9734804Y4665218D01*
X9758679Y4741671D02*
G01*
X9758679Y4665218D01*
X9758679Y4741671D02*
G01*
X9791445Y4741671D01*
X9802368Y4738115D01*
X9806177Y4734305D01*
X9809734Y4727194D01*
X9809734Y4716271D01*
X9806177Y4708905D01*
X9802368Y4705350D01*
X9791445Y4701539D01*
X9758679Y4701539D01*
X9833609Y4741671D02*
G01*
X9833609Y4665218D01*
X9833609Y4741671D02*
G01*
X9866375Y4741671D01*
X9877297Y4738115D01*
X9880854Y4734305D01*
X9884663Y4727194D01*
X9884663Y4716271D01*
X9880854Y4708905D01*
X9877297Y4705350D01*
X9866375Y4701539D01*
X9833609Y4701539D01*
X9908540Y4741671D02*
G01*
X9908540Y4665218D01*
X9908540Y4741671D02*
G01*
X9955784Y4741671D01*
X9908540Y4705350D02*
G01*
X9937750Y4705350D01*
X9908540Y4665218D02*
G01*
X9955784Y4665218D01*
X9979913Y4741671D02*
G01*
X9979913Y4665218D01*
X9979913Y4741671D02*
G01*
X10012679Y4741671D01*
X10023602Y4738115D01*
X10027158Y4734305D01*
X10030713Y4727194D01*
X10030713Y4719828D01*
X10027158Y4712462D01*
X10023602Y4708905D01*
X10012679Y4705350D01*
X9979913Y4705350D01*
X10005313Y4705350D02*
G01*
X10030713Y4665218D01*
X9531350Y5892800D02*
G01*
X9523984Y5885687D01*
X9520427Y5874765D01*
X9520427Y5860287D01*
X9523984Y5849365D01*
X9531350Y5842000D01*
X9538715Y5842000D01*
X9545827Y5845555D01*
X9549638Y5849365D01*
X9553193Y5856478D01*
X9560559Y5878321D01*
X9564115Y5885687D01*
X9567672Y5889244D01*
X9575038Y5892800D01*
X9585959Y5892800D01*
X9593325Y5885687D01*
X9596881Y5874765D01*
X9596881Y5860287D01*
X9593325Y5849365D01*
X9585959Y5842000D01*
X9538715Y5920486D02*
G01*
X9534906Y5920486D01*
X9527793Y5924295D01*
X9523984Y5927852D01*
X9520427Y5934963D01*
X9520427Y5949695D01*
X9523984Y5956807D01*
X9527793Y5960618D01*
X9534906Y5964173D01*
X9542272Y5964173D01*
X9549638Y5960618D01*
X9560559Y5953252D01*
X9596881Y5916929D01*
X9596881Y5967729D01*
X9520427Y5991860D02*
G01*
X9596881Y5991860D01*
X9520427Y5991860D02*
G01*
X9520427Y6024626D01*
X9523984Y6035547D01*
X9527793Y6039104D01*
X9534906Y6042660D01*
X9542272Y6042660D01*
X9549638Y6039104D01*
X9553193Y6035547D01*
X9556750Y6024626D01*
X9556750Y5991860D02*
G01*
X9556750Y6024626D01*
X9560559Y6035547D01*
X9564115Y6039104D01*
X9571481Y6042660D01*
X9582404Y6042660D01*
X9589515Y6039104D01*
X9593325Y6035547D01*
X9596881Y6024626D01*
X9596881Y5991860D01*
X9531350Y5549900D02*
G01*
X9523984Y5542787D01*
X9520427Y5531865D01*
X9520427Y5517387D01*
X9523984Y5506465D01*
X9531350Y5499100D01*
X9538715Y5499100D01*
X9545827Y5502655D01*
X9549638Y5506465D01*
X9553193Y5513578D01*
X9560559Y5535421D01*
X9564115Y5542787D01*
X9567672Y5546344D01*
X9575038Y5549900D01*
X9585959Y5549900D01*
X9593325Y5542787D01*
X9596881Y5531865D01*
X9596881Y5517387D01*
X9593325Y5506465D01*
X9585959Y5499100D01*
X9538715Y5577586D02*
G01*
X9534906Y5577586D01*
X9527793Y5581395D01*
X9523984Y5584952D01*
X9520427Y5592063D01*
X9520427Y5606795D01*
X9523984Y5613907D01*
X9527793Y5617718D01*
X9534906Y5621273D01*
X9542272Y5621273D01*
X9549638Y5617718D01*
X9560559Y5610352D01*
X9596881Y5574029D01*
X9596881Y5624829D01*
X9520427Y5677915D02*
G01*
X9596881Y5648960D01*
X9520427Y5677915D02*
G01*
X9596881Y5707126D01*
X9571481Y5659881D02*
G01*
X9571481Y5696204D01*
X9531350Y5219700D02*
G01*
X9523984Y5212587D01*
X9520427Y5201665D01*
X9520427Y5187187D01*
X9523984Y5176265D01*
X9531350Y5168900D01*
X9538715Y5168900D01*
X9545827Y5172455D01*
X9549638Y5176265D01*
X9553193Y5183378D01*
X9560559Y5205221D01*
X9564115Y5212587D01*
X9567672Y5216144D01*
X9575038Y5219700D01*
X9585959Y5219700D01*
X9593325Y5212587D01*
X9596881Y5201665D01*
X9596881Y5187187D01*
X9593325Y5176265D01*
X9585959Y5168900D01*
X9534906Y5243829D02*
G01*
X9531350Y5251195D01*
X9520427Y5261863D01*
X9596881Y5261863D01*
X9520427Y5315204D02*
G01*
X9596881Y5285994D01*
X9520427Y5315204D02*
G01*
X9596881Y5344160D01*
X9571481Y5296915D02*
G01*
X9571481Y5333237D01*
X9531350Y4889500D02*
G01*
X9523984Y4882387D01*
X9520427Y4871465D01*
X9520427Y4856987D01*
X9523984Y4846065D01*
X9531350Y4838700D01*
X9538715Y4838700D01*
X9545827Y4842255D01*
X9549638Y4846065D01*
X9553193Y4853178D01*
X9560559Y4875021D01*
X9564115Y4882387D01*
X9567672Y4885944D01*
X9575038Y4889500D01*
X9585959Y4889500D01*
X9593325Y4882387D01*
X9596881Y4871465D01*
X9596881Y4856987D01*
X9593325Y4846065D01*
X9585959Y4838700D01*
X9534906Y4913629D02*
G01*
X9531350Y4920995D01*
X9520427Y4931663D01*
X9596881Y4931663D01*
X9520427Y4955794D02*
G01*
X9596881Y4955794D01*
X9520427Y4955794D02*
G01*
X9520427Y4988560D01*
X9523984Y4999481D01*
X9527793Y5003037D01*
X9534906Y5006594D01*
X9542272Y5006594D01*
X9549638Y5003037D01*
X9553193Y4999481D01*
X9556750Y4988560D01*
X9556750Y4955794D02*
G01*
X9556750Y4988560D01*
X9560559Y4999481D01*
X9564115Y5003037D01*
X9571481Y5006594D01*
X9582404Y5006594D01*
X9589515Y5003037D01*
X9593325Y4999481D01*
X9596881Y4988560D01*
X9596881Y4955794D01*
X8042909Y6379971D02*
G01*
X8013700Y6303518D01*
X8042909Y6379971D02*
G01*
X8071865Y6303518D01*
X8024622Y6328918D02*
G01*
X8060943Y6328918D01*
X8095995Y6379971D02*
G01*
X8095995Y6303518D01*
X8095995Y6379971D02*
G01*
X8128508Y6379971D01*
X8139429Y6376415D01*
X8143240Y6372605D01*
X8146795Y6365494D01*
X8146795Y6358128D01*
X8143240Y6350762D01*
X8139429Y6347205D01*
X8128508Y6343650D01*
X8095995Y6343650D02*
G01*
X8128508Y6343650D01*
X8139429Y6339839D01*
X8143240Y6336284D01*
X8146795Y6328918D01*
X8146795Y6317995D01*
X8143240Y6310884D01*
X8139429Y6307073D01*
X8128508Y6303518D01*
X8095995Y6303518D01*
X8170672Y6379971D02*
G01*
X8170672Y6303518D01*
X8170672Y6303518D02*
G01*
X8214359Y6303518D01*
X6125972Y6070600D02*
G01*
X6049518Y6070600D01*
X6049518Y6070600D02*
G01*
X6049518Y6026912D01*
X6125972Y6003036D02*
G01*
X6049518Y6003036D01*
X6125972Y6003036D02*
G01*
X6125972Y5955792D01*
X6089650Y6003036D02*
G01*
X6089650Y5973826D01*
X6049518Y6003036D02*
G01*
X6049518Y5955792D01*
X6125972Y5931662D02*
G01*
X6049518Y5931662D01*
X6125972Y5931662D02*
G01*
X6125972Y5906262D01*
X6122415Y5895339D01*
X6115050Y5887973D01*
X6107684Y5884418D01*
X6096761Y5880862D01*
X6078727Y5880862D01*
X6067806Y5884418D01*
X6060440Y5887973D01*
X6053074Y5895339D01*
X6049518Y5906262D01*
X6049518Y5931662D01*
D27*
X5905449Y5763376D02*
G01*
X5905449Y5714100D01*
X5927801Y6228732D02*
G01*
X5878779Y6228732D01*
X5903163Y6253370D02*
G01*
X5903163Y6204348D01*
D26*
X6350000Y5681471D02*
G01*
X6350000Y5605018D01*
X6350000Y5681471D02*
G01*
X6382765Y5681471D01*
X6393688Y5677915D01*
X6397243Y5674105D01*
X6400800Y5666994D01*
X6400800Y5659628D01*
X6397243Y5652262D01*
X6393688Y5648705D01*
X6382765Y5645150D01*
X6350000Y5645150D01*
X6375400Y5645150D02*
G01*
X6400800Y5605018D01*
X6424929Y5666994D02*
G01*
X6432295Y5670550D01*
X6442963Y5681471D01*
X6442963Y5605018D01*
X6492493Y5695950D02*
G01*
X6485381Y5688584D01*
X6478015Y5677915D01*
X6470650Y5663184D01*
X6467093Y5645150D01*
X6467093Y5630418D01*
X6470650Y5612384D01*
X6478015Y5597905D01*
X6485381Y5586984D01*
X6492493Y5579618D01*
X6516624Y5666994D02*
G01*
X6523736Y5670550D01*
X6534658Y5681471D01*
X6534658Y5605018D01*
X6562343Y5623305D02*
G01*
X6558788Y5619495D01*
X6562343Y5615939D01*
X6565900Y5619495D01*
X6562343Y5623305D01*
X6633718Y5681471D02*
G01*
X6597395Y5681471D01*
X6593586Y5648705D01*
X6597395Y5652262D01*
X6608063Y5656071D01*
X6618986Y5656071D01*
X6629908Y5652262D01*
X6637274Y5645150D01*
X6640829Y5634228D01*
X6640829Y5626862D01*
X6637274Y5615939D01*
X6629908Y5608573D01*
X6618986Y5605018D01*
X6608063Y5605018D01*
X6597395Y5608573D01*
X6593586Y5612384D01*
X6590029Y5619495D01*
X6664959Y5681471D02*
G01*
X6664959Y5605018D01*
X6715759Y5681471D02*
G01*
X6664959Y5630418D01*
X6682993Y5648705D02*
G01*
X6715759Y5605018D01*
X6739890Y5695950D02*
G01*
X6747002Y5688584D01*
X6754368Y5677915D01*
X6761734Y5663184D01*
X6765290Y5645150D01*
X6765290Y5630418D01*
X6761734Y5612384D01*
X6754368Y5597905D01*
X6747002Y5586984D01*
X6739890Y5579618D01*
X8509000Y7713471D02*
G01*
X8509000Y7637018D01*
X8509000Y7713471D02*
G01*
X8541765Y7713471D01*
X8552688Y7709915D01*
X8556243Y7706105D01*
X8559800Y7698994D01*
X8559800Y7691628D01*
X8556243Y7684262D01*
X8552688Y7680705D01*
X8541765Y7677150D01*
X8509000Y7677150D02*
G01*
X8541765Y7677150D01*
X8552688Y7673339D01*
X8556243Y7669784D01*
X8559800Y7662418D01*
X8559800Y7651495D01*
X8556243Y7644384D01*
X8552688Y7640573D01*
X8541765Y7637018D01*
X8509000Y7637018D01*
X8612886Y7713471D02*
G01*
X8583929Y7637018D01*
X8612886Y7713471D02*
G01*
X8642095Y7637018D01*
X8594852Y7662418D02*
G01*
X8631174Y7662418D01*
X8691625Y7713471D02*
G01*
X8691625Y7637018D01*
X8665972Y7713471D02*
G01*
X8717025Y7713471D01*
X8759190Y7713471D02*
G01*
X8748268Y7709915D01*
X8744711Y7702550D01*
X8744711Y7695184D01*
X8748268Y7688071D01*
X8755634Y7684262D01*
X8770111Y7680705D01*
X8781034Y7677150D01*
X8788145Y7669784D01*
X8791956Y7662418D01*
X8791956Y7651495D01*
X8788145Y7644384D01*
X8784590Y7640573D01*
X8773668Y7637018D01*
X8759190Y7637018D01*
X8748268Y7640573D01*
X8744711Y7644384D01*
X8740902Y7651495D01*
X8740902Y7662418D01*
X8744711Y7669784D01*
X8751824Y7677150D01*
X8762745Y7680705D01*
X8777477Y7684262D01*
X8784590Y7688071D01*
X8788145Y7695184D01*
X8788145Y7702550D01*
X8784590Y7709915D01*
X8773668Y7713471D01*
X8759190Y7713471D01*
X8859520Y7713471D02*
G01*
X8823197Y7713471D01*
X8819641Y7680705D01*
X8823197Y7684262D01*
X8834120Y7688071D01*
X8845041Y7688071D01*
X8855963Y7684262D01*
X8863075Y7677150D01*
X8866886Y7666228D01*
X8866886Y7658862D01*
X8863075Y7647939D01*
X8855963Y7640573D01*
X8845041Y7637018D01*
X8834120Y7637018D01*
X8823197Y7640573D01*
X8819641Y7644384D01*
X8815831Y7651495D01*
G36*
X9335211Y6065926D02*
G01*
X9335211Y6049873D01*
X9359188Y6049873D01*
X9359188Y6065926D01*
G37*
D22*
X8826500Y5842000D02*
G01*
X8826500Y5023586D01*
X9153563Y5301828D01*
X9153563Y5842000D01*
X9085325Y5896998D01*
X8802850Y5896998D01*
X8826860Y5877638D01*
X8826500Y5842000D01*
X8946865Y5327639D02*
G01*
X8946865Y5767638D01*
X9035323Y5766998D01*
X9035323Y5396440D01*
X8946865Y5327639D01*
X9345328Y5696996D02*
G01*
X9075315Y5696996D01*
X9095320Y5676999D01*
X9095320Y4826998D01*
X9413963Y5098331D01*
X9413963Y5236994D01*
X9295323Y5236994D01*
X9295323Y5196997D01*
X9210316Y5122384D01*
X9210316Y5561998D01*
X9295323Y5561998D01*
X9295323Y5537001D01*
X9413963Y5537001D01*
X9413963Y5643542D01*
X9345328Y5696996D01*
D10*
X7343140Y7434579D02*
G01*
X7343140Y8011160D01*
X6601459Y8011160D01*
X6601459Y7434579D01*
X7343140Y7434579D01*
X6842759Y7439660D02*
G01*
X6842759Y7490460D01*
X7101840Y7490460D01*
X7101840Y7439660D01*
X6555740Y6634479D02*
G01*
X6555740Y7211060D01*
X5814059Y7211060D01*
X5814059Y6634479D01*
X6555740Y6634479D01*
X6055359Y6639560D02*
G01*
X6055359Y6690360D01*
X6314440Y6690360D01*
X6314440Y6639560D01*
X6555740Y7434579D02*
G01*
X6555740Y8011160D01*
X5814059Y8011160D01*
X5814059Y7434579D01*
X6555740Y7434579D01*
X6055359Y7439660D02*
G01*
X6055359Y7490460D01*
X6314440Y7490460D01*
X6314440Y7439660D01*
X7409179Y7376160D02*
G01*
X7985759Y7376160D01*
X7985759Y8117839D01*
X7409179Y8117839D01*
X7409179Y7376160D01*
X7414259Y7876539D02*
G01*
X7465059Y7876539D01*
X7465059Y7617460D01*
X7414259Y7617460D01*
X9639300Y5365521D02*
G01*
X9639300Y6076721D01*
X10096500Y6076721D01*
X10101900Y4794600D01*
X9867900Y4794600D01*
X9646899Y4794600D01*
X9639300Y5365521D01*
X9646894Y5054600D02*
G01*
X9646894Y5821603D01*
X9724897Y5821603D01*
X9724897Y5054600D01*
X9646894Y5054600D01*
D23*
X8611529Y6425595D02*
G01*
X7611531Y6425595D01*
X7611531Y7000651D01*
X8611529Y7000651D01*
X8611529Y6425595D01*
X8561491Y6475633D02*
G01*
X8561491Y6950613D01*
X7661569Y6950613D01*
X7661569Y6475633D01*
X8561491Y6475633D01*
X8561527Y6525709D02*
G01*
X8611529Y6525709D01*
X8611529Y6550710D01*
X8561527Y6625714D02*
G01*
X8611529Y6625714D01*
X7661483Y6525709D02*
G01*
X7611480Y6525709D01*
X7661483Y6625714D02*
G01*
X7611480Y6625714D01*
X7786537Y6475633D02*
G01*
X7786489Y6425704D01*
X7886494Y6475707D02*
G01*
X7886494Y6425704D01*
X8436521Y6475707D02*
G01*
X8436521Y6425704D01*
X8336516Y6475707D02*
G01*
X8336516Y6425704D01*
D24*
X5801868Y5926099D02*
G01*
X5801868Y5794247D01*
X6008877Y5794247D01*
X6008877Y5926073D01*
X5801995Y6039408D02*
G01*
X5801995Y6171412D01*
X6009004Y6171412D01*
X6009004Y6039408D01*
X6621399Y5344795D02*
G01*
X6753402Y5344795D01*
X6753402Y5551804D01*
X6621399Y5551804D01*
X6508191Y5344795D02*
G01*
X6376187Y5344795D01*
X6376187Y5551804D01*
X6508191Y5551804D01*
D10*
X8846812Y7794000D02*
G01*
X8526813Y7794000D01*
X8846812Y7954002D02*
G01*
X8526810Y7953999D01*
X8846812Y7794000D02*
G01*
X8846812Y7954002D01*
X8526813Y7794000D02*
G01*
X8526810Y7953999D01*
X8790523Y7794000D02*
G01*
X8790523Y7954002D01*
M02*
