M48
METRIC,LZ,0000.00
;FILE_FORMAT=4:2
;TYPE=PLATED
;Layer: Drill PTH
;EasyEDA v6.4.14, 2021-02-16T08:34:30--8:00
;f15f27c0a9244bc199848a9b762d9fb5,debd25b7e7f645e7808fdd9718494454,10
;Gerber Generator version 0.2
;Holesize 1 = 0.310 mm
T01C0.310
;Holesize 2 = 0.798 mm
T02C0.798
;Holesize 3 = 0.800 mm
T03C0.800
;Holesize 4 = 0.901 mm
T04C0.901
;Holesize 5 = 1.000 mm
T05C1.000
;Holesize 6 = 1.301 mm
T06C1.301
;Holesize 7 = 1.600 mm
T07C1.600
%
G05
G90
T01
X004316Y002454
X003479Y003072
X003481Y001795
X001873Y002779
T02
X004158Y000966
X004157Y001226
X004158Y000719
X004158Y000464
T03
X001390Y003076
X001136Y003076
X000615Y002301
X000361Y002301
X000602Y003076
X000348Y003076
X001936Y003025
X001936Y003279
X003129Y002625
X003129Y003325
T04
X002817Y002056
X002567Y002056
X002317Y002056
T05
X003803Y002498
X003803Y002708
X003803Y002898
X003803Y003098
X003803Y003298
X004003Y003098
X004003Y002898
X004003Y003298
X004003Y002698
X004003Y002498
T06
X003752Y002149
X004057Y002149
X004057Y001844
X003752Y001844
T07
X001707Y002225
X001199Y002225
M30
