G04 #@! TF.GenerationSoftware,KiCad,Pcbnew,(6.0.0)*
G04 #@! TF.CreationDate,2022-04-24T11:32:36-04:00*
G04 #@! TF.ProjectId,SKR-Mini_Screen,534b522d-4d69-46e6-995f-53637265656e,rev?*
G04 #@! TF.SameCoordinates,Original*
G04 #@! TF.FileFunction,Copper,L2,Bot*
G04 #@! TF.FilePolarity,Positive*
%FSLAX46Y46*%
G04 Gerber Fmt 4.6, Leading zero omitted, Abs format (unit mm)*
G04 Created by KiCad (PCBNEW (6.0.0)) date 2022-04-24 11:32:36*
%MOMM*%
%LPD*%
G01*
G04 APERTURE LIST*
G04 #@! TA.AperFunction,ComponentPad*
%ADD10C,1.700000*%
G04 #@! TD*
G04 #@! TA.AperFunction,ComponentPad*
%ADD11R,1.700000X1.700000*%
G04 #@! TD*
G04 #@! TA.AperFunction,ComponentPad*
%ADD12O,1.700000X1.700000*%
G04 #@! TD*
G04 #@! TA.AperFunction,ViaPad*
%ADD13C,0.800000*%
G04 #@! TD*
G04 #@! TA.AperFunction,Conductor*
%ADD14C,0.250000*%
G04 #@! TD*
G04 APERTURE END LIST*
D10*
X137160000Y-112395000D03*
X139700000Y-112395000D03*
X137160000Y-114935000D03*
X139700000Y-114935000D03*
X137160000Y-117475000D03*
X139700000Y-117475000D03*
X137160000Y-120015000D03*
X139700000Y-120015000D03*
X137160000Y-122555000D03*
X139700000Y-122555000D03*
X137160000Y-90805000D03*
X139700000Y-90805000D03*
X137160000Y-93345000D03*
X139700000Y-93345000D03*
X137160000Y-95885000D03*
X139700000Y-95885000D03*
X137160000Y-98425000D03*
X139700000Y-98425000D03*
X137160000Y-100965000D03*
X139700000Y-100965000D03*
D11*
X125730000Y-106680000D03*
D12*
X128270000Y-106680000D03*
X125730000Y-109220000D03*
X128270000Y-109220000D03*
X125730000Y-111760000D03*
X128270000Y-111760000D03*
X125730000Y-114300000D03*
X128270000Y-114300000D03*
X125730000Y-116840000D03*
X128270000Y-116840000D03*
D11*
X127178000Y-92292000D03*
D12*
X129718000Y-92292000D03*
X127178000Y-94832000D03*
X129718000Y-94832000D03*
X127178000Y-97372000D03*
X129718000Y-97372000D03*
X127178000Y-99912000D03*
X129718000Y-99912000D03*
D13*
X133350000Y-99695000D03*
X132625000Y-107315000D03*
X134620000Y-106680000D03*
X134620000Y-101600000D03*
X134620000Y-91350500D03*
X132080000Y-102870000D03*
X128905000Y-102870000D03*
D14*
X126579999Y-110910001D02*
X125730000Y-111760000D01*
X133350000Y-107951410D02*
X130716411Y-110584999D01*
X130716411Y-110584999D02*
X126905001Y-110584999D01*
X126905001Y-110584999D02*
X126579999Y-110910001D01*
X133350000Y-99695000D02*
X133350000Y-107951410D01*
X134620000Y-106680000D02*
X134620000Y-101600000D01*
X131895001Y-108044999D02*
X132625000Y-107315000D01*
X125730000Y-109220000D02*
X126905001Y-108044999D01*
X126905001Y-108044999D02*
X131895001Y-108044999D01*
X134620000Y-93980000D02*
X131228000Y-97372000D01*
X134620000Y-91350500D02*
X134620000Y-93980000D01*
X131228000Y-97372000D02*
X129718000Y-97372000D01*
X128905000Y-102870000D02*
X132080000Y-102870000D01*
G04 #@! TA.AperFunction,Conductor*
G36*
X145484121Y-85618002D02*
G01*
X145530614Y-85671658D01*
X145542000Y-85724000D01*
X145542000Y-127636000D01*
X145521998Y-127704121D01*
X145468342Y-127750614D01*
X145416000Y-127762000D01*
X131072610Y-127762000D01*
X131004489Y-127741998D01*
X130983515Y-127725095D01*
X126938273Y-123679853D01*
X136399977Y-123679853D01*
X136405258Y-123686907D01*
X136566756Y-123781279D01*
X136576042Y-123785729D01*
X136775001Y-123861703D01*
X136784899Y-123864579D01*
X136993595Y-123907038D01*
X137003823Y-123908257D01*
X137216650Y-123916062D01*
X137226936Y-123915595D01*
X137438185Y-123888534D01*
X137448262Y-123886392D01*
X137652255Y-123825191D01*
X137661842Y-123821433D01*
X137853098Y-123727738D01*
X137861944Y-123722465D01*
X137909247Y-123688723D01*
X137917648Y-123678023D01*
X137910660Y-123664870D01*
X137172812Y-122927022D01*
X137158868Y-122919408D01*
X137157035Y-122919539D01*
X137150420Y-122923790D01*
X136406737Y-123667473D01*
X136399977Y-123679853D01*
X126938273Y-123679853D01*
X125785283Y-122526863D01*
X135798050Y-122526863D01*
X135810309Y-122739477D01*
X135811745Y-122749697D01*
X135858565Y-122957446D01*
X135861645Y-122967275D01*
X135941770Y-123164603D01*
X135946413Y-123173794D01*
X136026460Y-123304420D01*
X136036916Y-123313880D01*
X136045694Y-123310096D01*
X136787978Y-122567812D01*
X136795592Y-122553868D01*
X136795461Y-122552035D01*
X136791210Y-122545420D01*
X136049849Y-121804059D01*
X136038313Y-121797759D01*
X136026031Y-121807382D01*
X135978089Y-121877662D01*
X135973004Y-121886613D01*
X135883338Y-122079783D01*
X135879775Y-122089470D01*
X135822864Y-122294681D01*
X135820933Y-122304800D01*
X135798302Y-122516574D01*
X135798050Y-122526863D01*
X125785283Y-122526863D01*
X123734905Y-120476485D01*
X123700879Y-120414173D01*
X123698000Y-120387390D01*
X123698000Y-119981695D01*
X135797251Y-119981695D01*
X135797548Y-119986848D01*
X135797548Y-119986851D01*
X135803011Y-120081590D01*
X135810110Y-120204715D01*
X135811247Y-120209761D01*
X135811248Y-120209767D01*
X135831119Y-120297939D01*
X135859222Y-120422639D01*
X135943266Y-120629616D01*
X135987512Y-120701819D01*
X136057291Y-120815688D01*
X136059987Y-120820088D01*
X136206250Y-120988938D01*
X136378126Y-121131632D01*
X136451445Y-121174476D01*
X136451955Y-121174774D01*
X136500679Y-121226412D01*
X136513750Y-121296195D01*
X136487019Y-121361967D01*
X136446562Y-121395327D01*
X136438460Y-121399544D01*
X136429734Y-121405039D01*
X136409677Y-121420099D01*
X136401223Y-121431427D01*
X136407968Y-121443758D01*
X137147188Y-122182978D01*
X137161132Y-122190592D01*
X137162965Y-122190461D01*
X137169580Y-122186210D01*
X137913389Y-121442401D01*
X137920410Y-121429544D01*
X137913611Y-121420213D01*
X137909559Y-121417521D01*
X137872602Y-121397120D01*
X137822631Y-121346687D01*
X137807859Y-121277245D01*
X137832975Y-121210839D01*
X137860327Y-121184232D01*
X137883797Y-121167491D01*
X138039860Y-121056173D01*
X138198096Y-120898489D01*
X138257594Y-120815689D01*
X138328453Y-120717077D01*
X138329776Y-120718028D01*
X138376645Y-120674857D01*
X138446580Y-120662625D01*
X138512026Y-120690144D01*
X138539875Y-120721994D01*
X138599987Y-120820088D01*
X138746250Y-120988938D01*
X138918126Y-121131632D01*
X138988595Y-121172811D01*
X138991445Y-121174476D01*
X139040169Y-121226114D01*
X139053240Y-121295897D01*
X139026509Y-121361669D01*
X138986055Y-121395027D01*
X138973607Y-121401507D01*
X138969474Y-121404610D01*
X138969471Y-121404612D01*
X138799100Y-121532530D01*
X138794965Y-121535635D01*
X138640629Y-121697138D01*
X138567693Y-121804059D01*
X138532898Y-121855066D01*
X138477987Y-121900069D01*
X138407462Y-121908240D01*
X138343715Y-121876986D01*
X138323017Y-121852501D01*
X138293062Y-121806197D01*
X138282377Y-121796995D01*
X138272812Y-121801398D01*
X137532022Y-122542188D01*
X137524408Y-122556132D01*
X137524539Y-122557965D01*
X137528790Y-122564580D01*
X138270474Y-123306264D01*
X138282484Y-123312823D01*
X138294223Y-123303855D01*
X138328022Y-123256819D01*
X138329277Y-123257721D01*
X138376391Y-123214355D01*
X138446330Y-123202148D01*
X138511767Y-123229691D01*
X138539580Y-123261513D01*
X138597287Y-123355683D01*
X138597291Y-123355688D01*
X138599987Y-123360088D01*
X138746250Y-123528938D01*
X138918126Y-123671632D01*
X139111000Y-123784338D01*
X139319692Y-123864030D01*
X139324760Y-123865061D01*
X139324763Y-123865062D01*
X139429604Y-123886392D01*
X139538597Y-123908567D01*
X139543772Y-123908757D01*
X139543774Y-123908757D01*
X139756673Y-123916564D01*
X139756677Y-123916564D01*
X139761837Y-123916753D01*
X139766957Y-123916097D01*
X139766959Y-123916097D01*
X139978288Y-123889025D01*
X139978289Y-123889025D01*
X139983416Y-123888368D01*
X139988366Y-123886883D01*
X140192429Y-123825661D01*
X140192434Y-123825659D01*
X140197384Y-123824174D01*
X140397994Y-123725896D01*
X140579860Y-123596173D01*
X140738096Y-123438489D01*
X140868453Y-123257077D01*
X140889568Y-123214355D01*
X140965136Y-123061453D01*
X140965137Y-123061451D01*
X140967430Y-123056811D01*
X141032370Y-122843069D01*
X141061529Y-122621590D01*
X141063156Y-122555000D01*
X141044852Y-122332361D01*
X140990431Y-122115702D01*
X140901354Y-121910840D01*
X140780014Y-121723277D01*
X140629670Y-121558051D01*
X140625619Y-121554852D01*
X140625615Y-121554848D01*
X140458414Y-121422800D01*
X140458410Y-121422798D01*
X140454359Y-121419598D01*
X140413053Y-121396796D01*
X140363084Y-121346364D01*
X140348312Y-121276921D01*
X140373428Y-121210516D01*
X140400780Y-121183909D01*
X140444603Y-121152650D01*
X140579860Y-121056173D01*
X140738096Y-120898489D01*
X140797594Y-120815689D01*
X140865435Y-120721277D01*
X140868453Y-120717077D01*
X140883577Y-120686477D01*
X140965136Y-120521453D01*
X140965137Y-120521451D01*
X140967430Y-120516811D01*
X141032370Y-120303069D01*
X141061529Y-120081590D01*
X141063156Y-120015000D01*
X141044852Y-119792361D01*
X140990431Y-119575702D01*
X140901354Y-119370840D01*
X140780014Y-119183277D01*
X140629670Y-119018051D01*
X140625619Y-119014852D01*
X140625615Y-119014848D01*
X140458414Y-118882800D01*
X140458410Y-118882798D01*
X140454359Y-118879598D01*
X140413053Y-118856796D01*
X140363084Y-118806364D01*
X140348312Y-118736921D01*
X140373428Y-118670516D01*
X140400780Y-118643909D01*
X140444603Y-118612650D01*
X140579860Y-118516173D01*
X140738096Y-118358489D01*
X140797594Y-118275689D01*
X140865435Y-118181277D01*
X140868453Y-118177077D01*
X140872243Y-118169410D01*
X140965136Y-117981453D01*
X140965137Y-117981451D01*
X140967430Y-117976811D01*
X141032370Y-117763069D01*
X141061529Y-117541590D01*
X141061611Y-117538240D01*
X141063074Y-117478365D01*
X141063074Y-117478361D01*
X141063156Y-117475000D01*
X141044852Y-117252361D01*
X140990431Y-117035702D01*
X140901354Y-116830840D01*
X140824473Y-116712000D01*
X140782822Y-116647617D01*
X140782820Y-116647614D01*
X140780014Y-116643277D01*
X140629670Y-116478051D01*
X140625619Y-116474852D01*
X140625615Y-116474848D01*
X140458414Y-116342800D01*
X140458410Y-116342798D01*
X140454359Y-116339598D01*
X140413053Y-116316796D01*
X140363084Y-116266364D01*
X140348312Y-116196921D01*
X140373428Y-116130516D01*
X140400780Y-116103909D01*
X140444603Y-116072650D01*
X140579860Y-115976173D01*
X140738096Y-115818489D01*
X140797594Y-115735689D01*
X140865435Y-115641277D01*
X140868453Y-115637077D01*
X140889320Y-115594857D01*
X140965136Y-115441453D01*
X140965137Y-115441451D01*
X140967430Y-115436811D01*
X141032370Y-115223069D01*
X141061529Y-115001590D01*
X141061611Y-114998240D01*
X141063074Y-114938365D01*
X141063074Y-114938361D01*
X141063156Y-114935000D01*
X141044852Y-114712361D01*
X140990431Y-114495702D01*
X140901354Y-114290840D01*
X140780014Y-114103277D01*
X140629670Y-113938051D01*
X140625619Y-113934852D01*
X140625615Y-113934848D01*
X140458414Y-113802800D01*
X140458410Y-113802798D01*
X140454359Y-113799598D01*
X140413053Y-113776796D01*
X140363084Y-113726364D01*
X140348312Y-113656921D01*
X140373428Y-113590516D01*
X140400780Y-113563909D01*
X140444603Y-113532650D01*
X140579860Y-113436173D01*
X140738096Y-113278489D01*
X140797594Y-113195689D01*
X140865435Y-113101277D01*
X140868453Y-113097077D01*
X140889320Y-113054857D01*
X140965136Y-112901453D01*
X140965137Y-112901451D01*
X140967430Y-112896811D01*
X141032370Y-112683069D01*
X141061529Y-112461590D01*
X141061611Y-112458240D01*
X141063074Y-112398365D01*
X141063074Y-112398361D01*
X141063156Y-112395000D01*
X141044852Y-112172361D01*
X140990431Y-111955702D01*
X140901354Y-111750840D01*
X140780014Y-111563277D01*
X140629670Y-111398051D01*
X140625619Y-111394852D01*
X140625615Y-111394848D01*
X140458414Y-111262800D01*
X140458410Y-111262798D01*
X140454359Y-111259598D01*
X140258789Y-111151638D01*
X140253920Y-111149914D01*
X140253916Y-111149912D01*
X140053087Y-111078795D01*
X140053083Y-111078794D01*
X140048212Y-111077069D01*
X140043119Y-111076162D01*
X140043116Y-111076161D01*
X139833373Y-111038800D01*
X139833367Y-111038799D01*
X139828284Y-111037894D01*
X139754452Y-111036992D01*
X139610081Y-111035228D01*
X139610079Y-111035228D01*
X139604911Y-111035165D01*
X139384091Y-111068955D01*
X139171756Y-111138357D01*
X139141443Y-111154137D01*
X139018760Y-111218002D01*
X138973607Y-111241507D01*
X138969474Y-111244610D01*
X138969471Y-111244612D01*
X138903297Y-111294297D01*
X138794965Y-111375635D01*
X138640629Y-111537138D01*
X138533201Y-111694621D01*
X138478293Y-111739621D01*
X138407768Y-111747792D01*
X138344021Y-111716538D01*
X138323324Y-111692054D01*
X138242822Y-111567617D01*
X138242820Y-111567614D01*
X138240014Y-111563277D01*
X138089670Y-111398051D01*
X138085619Y-111394852D01*
X138085615Y-111394848D01*
X137918414Y-111262800D01*
X137918410Y-111262798D01*
X137914359Y-111259598D01*
X137718789Y-111151638D01*
X137713920Y-111149914D01*
X137713916Y-111149912D01*
X137513087Y-111078795D01*
X137513083Y-111078794D01*
X137508212Y-111077069D01*
X137503119Y-111076162D01*
X137503116Y-111076161D01*
X137293373Y-111038800D01*
X137293367Y-111038799D01*
X137288284Y-111037894D01*
X137214452Y-111036992D01*
X137070081Y-111035228D01*
X137070079Y-111035228D01*
X137064911Y-111035165D01*
X136844091Y-111068955D01*
X136631756Y-111138357D01*
X136601443Y-111154137D01*
X136478760Y-111218002D01*
X136433607Y-111241507D01*
X136429474Y-111244610D01*
X136429471Y-111244612D01*
X136363297Y-111294297D01*
X136254965Y-111375635D01*
X136100629Y-111537138D01*
X135974743Y-111721680D01*
X135880688Y-111924305D01*
X135820989Y-112139570D01*
X135797251Y-112361695D01*
X135797548Y-112366848D01*
X135797548Y-112366851D01*
X135803011Y-112461590D01*
X135810110Y-112584715D01*
X135811247Y-112589761D01*
X135811248Y-112589767D01*
X135831119Y-112677939D01*
X135859222Y-112802639D01*
X135943266Y-113009616D01*
X135993361Y-113091364D01*
X136057291Y-113195688D01*
X136059987Y-113200088D01*
X136206250Y-113368938D01*
X136378126Y-113511632D01*
X136448595Y-113552811D01*
X136451445Y-113554476D01*
X136500169Y-113606114D01*
X136513240Y-113675897D01*
X136486509Y-113741669D01*
X136446055Y-113775027D01*
X136433607Y-113781507D01*
X136429474Y-113784610D01*
X136429471Y-113784612D01*
X136259100Y-113912530D01*
X136254965Y-113915635D01*
X136100629Y-114077138D01*
X135974743Y-114261680D01*
X135880688Y-114464305D01*
X135820989Y-114679570D01*
X135797251Y-114901695D01*
X135797548Y-114906848D01*
X135797548Y-114906851D01*
X135803011Y-115001590D01*
X135810110Y-115124715D01*
X135811247Y-115129761D01*
X135811248Y-115129767D01*
X135831119Y-115217939D01*
X135859222Y-115342639D01*
X135943266Y-115549616D01*
X135993361Y-115631364D01*
X136057291Y-115735688D01*
X136059987Y-115740088D01*
X136206250Y-115908938D01*
X136378126Y-116051632D01*
X136448595Y-116092811D01*
X136451445Y-116094476D01*
X136500169Y-116146114D01*
X136513240Y-116215897D01*
X136486509Y-116281669D01*
X136446055Y-116315027D01*
X136433607Y-116321507D01*
X136429474Y-116324610D01*
X136429471Y-116324612D01*
X136259100Y-116452530D01*
X136254965Y-116455635D01*
X136100629Y-116617138D01*
X136097720Y-116621403D01*
X136097714Y-116621411D01*
X136012556Y-116746249D01*
X135974743Y-116801680D01*
X135880688Y-117004305D01*
X135820989Y-117219570D01*
X135797251Y-117441695D01*
X135797548Y-117446848D01*
X135797548Y-117446851D01*
X135808707Y-117640388D01*
X135810110Y-117664715D01*
X135811247Y-117669761D01*
X135811248Y-117669767D01*
X135831119Y-117757939D01*
X135859222Y-117882639D01*
X135943266Y-118089616D01*
X135985488Y-118158517D01*
X136057291Y-118275688D01*
X136059987Y-118280088D01*
X136206250Y-118448938D01*
X136378126Y-118591632D01*
X136448595Y-118632811D01*
X136451445Y-118634476D01*
X136500169Y-118686114D01*
X136513240Y-118755897D01*
X136486509Y-118821669D01*
X136446055Y-118855027D01*
X136433607Y-118861507D01*
X136429474Y-118864610D01*
X136429471Y-118864612D01*
X136405247Y-118882800D01*
X136254965Y-118995635D01*
X136100629Y-119157138D01*
X135974743Y-119341680D01*
X135880688Y-119544305D01*
X135820989Y-119759570D01*
X135797251Y-119981695D01*
X123698000Y-119981695D01*
X123698000Y-117107966D01*
X124398257Y-117107966D01*
X124428565Y-117242446D01*
X124431645Y-117252275D01*
X124511770Y-117449603D01*
X124516413Y-117458794D01*
X124627694Y-117640388D01*
X124633777Y-117648699D01*
X124773213Y-117809667D01*
X124780580Y-117816883D01*
X124944434Y-117952916D01*
X124952881Y-117958831D01*
X125136756Y-118066279D01*
X125146042Y-118070729D01*
X125345001Y-118146703D01*
X125354899Y-118149579D01*
X125458250Y-118170606D01*
X125472299Y-118169410D01*
X125476000Y-118159065D01*
X125476000Y-117112115D01*
X125471525Y-117096876D01*
X125470135Y-117095671D01*
X125462452Y-117094000D01*
X124413225Y-117094000D01*
X124399694Y-117097973D01*
X124398257Y-117107966D01*
X123698000Y-117107966D01*
X123698000Y-114266695D01*
X124367251Y-114266695D01*
X124367548Y-114271848D01*
X124367548Y-114271851D01*
X124373011Y-114366590D01*
X124380110Y-114489715D01*
X124381247Y-114494761D01*
X124381248Y-114494767D01*
X124381459Y-114495702D01*
X124429222Y-114707639D01*
X124513266Y-114914616D01*
X124564019Y-114997438D01*
X124627291Y-115100688D01*
X124629987Y-115105088D01*
X124776250Y-115273938D01*
X124948126Y-115416632D01*
X124990602Y-115441453D01*
X125021955Y-115459774D01*
X125070679Y-115511412D01*
X125083750Y-115581195D01*
X125057019Y-115646967D01*
X125016562Y-115680327D01*
X125008457Y-115684546D01*
X124999738Y-115690036D01*
X124829433Y-115817905D01*
X124821726Y-115824748D01*
X124674590Y-115978717D01*
X124668104Y-115986727D01*
X124548098Y-116162649D01*
X124543000Y-116171623D01*
X124453338Y-116364783D01*
X124449775Y-116374470D01*
X124394389Y-116574183D01*
X124395912Y-116582607D01*
X124408292Y-116586000D01*
X125858000Y-116586000D01*
X125926121Y-116606002D01*
X125972614Y-116659658D01*
X125984000Y-116712000D01*
X125984000Y-118158517D01*
X125988064Y-118172359D01*
X126001478Y-118174393D01*
X126008184Y-118173534D01*
X126018262Y-118171392D01*
X126222255Y-118110191D01*
X126231842Y-118106433D01*
X126423095Y-118012739D01*
X126431945Y-118007464D01*
X126605328Y-117883792D01*
X126613200Y-117877139D01*
X126764052Y-117726812D01*
X126770730Y-117718965D01*
X126898022Y-117541819D01*
X126899279Y-117542722D01*
X126946373Y-117499362D01*
X127016311Y-117487145D01*
X127081751Y-117514678D01*
X127109579Y-117546511D01*
X127169987Y-117645088D01*
X127316250Y-117813938D01*
X127488126Y-117956632D01*
X127681000Y-118069338D01*
X127685825Y-118071180D01*
X127685826Y-118071181D01*
X127758612Y-118098975D01*
X127889692Y-118149030D01*
X127894760Y-118150061D01*
X127894763Y-118150062D01*
X127989862Y-118169410D01*
X128108597Y-118193567D01*
X128113772Y-118193757D01*
X128113774Y-118193757D01*
X128326673Y-118201564D01*
X128326677Y-118201564D01*
X128331837Y-118201753D01*
X128336957Y-118201097D01*
X128336959Y-118201097D01*
X128548288Y-118174025D01*
X128548289Y-118174025D01*
X128553416Y-118173368D01*
X128558366Y-118171883D01*
X128762429Y-118110661D01*
X128762434Y-118110659D01*
X128767384Y-118109174D01*
X128967994Y-118010896D01*
X129149860Y-117881173D01*
X129308096Y-117723489D01*
X129438453Y-117542077D01*
X129451995Y-117514678D01*
X129535136Y-117346453D01*
X129535137Y-117346451D01*
X129537430Y-117341811D01*
X129602370Y-117128069D01*
X129631529Y-116906590D01*
X129633156Y-116840000D01*
X129614852Y-116617361D01*
X129560431Y-116400702D01*
X129471354Y-116195840D01*
X129350014Y-116008277D01*
X129199670Y-115843051D01*
X129195619Y-115839852D01*
X129195615Y-115839848D01*
X129028414Y-115707800D01*
X129028410Y-115707798D01*
X129024359Y-115704598D01*
X128983053Y-115681796D01*
X128933084Y-115631364D01*
X128918312Y-115561921D01*
X128943428Y-115495516D01*
X128970780Y-115468909D01*
X129035591Y-115422680D01*
X129149860Y-115341173D01*
X129308096Y-115183489D01*
X129367594Y-115100689D01*
X129435435Y-115006277D01*
X129438453Y-115002077D01*
X129459320Y-114959857D01*
X129535136Y-114806453D01*
X129535137Y-114806451D01*
X129537430Y-114801811D01*
X129602370Y-114588069D01*
X129631529Y-114366590D01*
X129633156Y-114300000D01*
X129614852Y-114077361D01*
X129560431Y-113860702D01*
X129471354Y-113655840D01*
X129350014Y-113468277D01*
X129199670Y-113303051D01*
X129195619Y-113299852D01*
X129195615Y-113299848D01*
X129028414Y-113167800D01*
X129028410Y-113167798D01*
X129024359Y-113164598D01*
X128983053Y-113141796D01*
X128933084Y-113091364D01*
X128918312Y-113021921D01*
X128943428Y-112955516D01*
X128970780Y-112928909D01*
X129035591Y-112882680D01*
X129149860Y-112801173D01*
X129308096Y-112643489D01*
X129367594Y-112560689D01*
X129435435Y-112466277D01*
X129438453Y-112462077D01*
X129459320Y-112419857D01*
X129535136Y-112266453D01*
X129535137Y-112266451D01*
X129537430Y-112261811D01*
X129602370Y-112048069D01*
X129631529Y-111826590D01*
X129633156Y-111760000D01*
X129614852Y-111537361D01*
X129607906Y-111509707D01*
X129574119Y-111375194D01*
X129576923Y-111304253D01*
X129617636Y-111246090D01*
X129683332Y-111219171D01*
X129696323Y-111218499D01*
X130637644Y-111218499D01*
X130648827Y-111219026D01*
X130656320Y-111220701D01*
X130664246Y-111220452D01*
X130664247Y-111220452D01*
X130724397Y-111218561D01*
X130728356Y-111218499D01*
X130756267Y-111218499D01*
X130760202Y-111218002D01*
X130760267Y-111217994D01*
X130772104Y-111217061D01*
X130804362Y-111216047D01*
X130808381Y-111215921D01*
X130816300Y-111215672D01*
X130835754Y-111210020D01*
X130855111Y-111206012D01*
X130867341Y-111204467D01*
X130867342Y-111204467D01*
X130875208Y-111203473D01*
X130882579Y-111200554D01*
X130882581Y-111200554D01*
X130916323Y-111187195D01*
X130927553Y-111183350D01*
X130962394Y-111173228D01*
X130962395Y-111173228D01*
X130970004Y-111171017D01*
X130976823Y-111166984D01*
X130976828Y-111166982D01*
X130987439Y-111160706D01*
X131005187Y-111152011D01*
X131024028Y-111144551D01*
X131032554Y-111138357D01*
X131059798Y-111118563D01*
X131069718Y-111112047D01*
X131100946Y-111093579D01*
X131100949Y-111093577D01*
X131107773Y-111089541D01*
X131122094Y-111075220D01*
X131137128Y-111062379D01*
X131147105Y-111055130D01*
X131153518Y-111050471D01*
X131181709Y-111016394D01*
X131189699Y-111007615D01*
X133742247Y-108455067D01*
X133750537Y-108447523D01*
X133757018Y-108443410D01*
X133803659Y-108393742D01*
X133806413Y-108390901D01*
X133826134Y-108371180D01*
X133828612Y-108367985D01*
X133836318Y-108358963D01*
X133861158Y-108332511D01*
X133866586Y-108326731D01*
X133876346Y-108308978D01*
X133887199Y-108292455D01*
X133894753Y-108282716D01*
X133899613Y-108276451D01*
X133917176Y-108235867D01*
X133922383Y-108225237D01*
X133943695Y-108186470D01*
X133945666Y-108178793D01*
X133945668Y-108178788D01*
X133948732Y-108166852D01*
X133955138Y-108148140D01*
X133960033Y-108136829D01*
X133963181Y-108129555D01*
X133964421Y-108121727D01*
X133964423Y-108121720D01*
X133970099Y-108085886D01*
X133972505Y-108074266D01*
X133981528Y-108039121D01*
X133981528Y-108039120D01*
X133983500Y-108031440D01*
X133983500Y-108011186D01*
X133985051Y-107991475D01*
X133986980Y-107979296D01*
X133988220Y-107971467D01*
X133984059Y-107927448D01*
X133983500Y-107915591D01*
X133983500Y-107584782D01*
X134003502Y-107516661D01*
X134057158Y-107470168D01*
X134127432Y-107460064D01*
X134162730Y-107472282D01*
X134163248Y-107471118D01*
X134337712Y-107548794D01*
X134431113Y-107568647D01*
X134518056Y-107587128D01*
X134518061Y-107587128D01*
X134524513Y-107588500D01*
X134715487Y-107588500D01*
X134721939Y-107587128D01*
X134721944Y-107587128D01*
X134808888Y-107568647D01*
X134902288Y-107548794D01*
X134908319Y-107546109D01*
X135070722Y-107473803D01*
X135070724Y-107473802D01*
X135076752Y-107471118D01*
X135091967Y-107460064D01*
X135221135Y-107366217D01*
X135231253Y-107358866D01*
X135235675Y-107353955D01*
X135354621Y-107221852D01*
X135354622Y-107221851D01*
X135359040Y-107216944D01*
X135454527Y-107051556D01*
X135513542Y-106869928D01*
X135526157Y-106749908D01*
X135532814Y-106686565D01*
X135533504Y-106680000D01*
X135528485Y-106632251D01*
X135514232Y-106496635D01*
X135514232Y-106496633D01*
X135513542Y-106490072D01*
X135454527Y-106308444D01*
X135438394Y-106280500D01*
X135362341Y-106148774D01*
X135359040Y-106143056D01*
X135285863Y-106061785D01*
X135255147Y-105997779D01*
X135253500Y-105977476D01*
X135253500Y-102302524D01*
X135273502Y-102234403D01*
X135285858Y-102218221D01*
X135359040Y-102136944D01*
X135386228Y-102089853D01*
X136399977Y-102089853D01*
X136405258Y-102096907D01*
X136566756Y-102191279D01*
X136576042Y-102195729D01*
X136775001Y-102271703D01*
X136784899Y-102274579D01*
X136993595Y-102317038D01*
X137003823Y-102318257D01*
X137216650Y-102326062D01*
X137226936Y-102325595D01*
X137438185Y-102298534D01*
X137448262Y-102296392D01*
X137652255Y-102235191D01*
X137661842Y-102231433D01*
X137853098Y-102137738D01*
X137861944Y-102132465D01*
X137909247Y-102098723D01*
X137917648Y-102088023D01*
X137910660Y-102074870D01*
X137172812Y-101337022D01*
X137158868Y-101329408D01*
X137157035Y-101329539D01*
X137150420Y-101333790D01*
X136406737Y-102077473D01*
X136399977Y-102089853D01*
X135386228Y-102089853D01*
X135417314Y-102036010D01*
X135451223Y-101977279D01*
X135451224Y-101977278D01*
X135454527Y-101971556D01*
X135513542Y-101789928D01*
X135521538Y-101713855D01*
X135532814Y-101606565D01*
X135533504Y-101600000D01*
X135519993Y-101471453D01*
X135514232Y-101416635D01*
X135514232Y-101416633D01*
X135513542Y-101410072D01*
X135454527Y-101228444D01*
X135450843Y-101222062D01*
X135371809Y-101085173D01*
X135359040Y-101063056D01*
X135333696Y-101034908D01*
X135245416Y-100936863D01*
X135798050Y-100936863D01*
X135810309Y-101149477D01*
X135811745Y-101159697D01*
X135858565Y-101367446D01*
X135861645Y-101377275D01*
X135941770Y-101574603D01*
X135946413Y-101583794D01*
X136026460Y-101714420D01*
X136036916Y-101723880D01*
X136045694Y-101720096D01*
X136787978Y-100977812D01*
X136795592Y-100963868D01*
X136795461Y-100962035D01*
X136791210Y-100955420D01*
X136049849Y-100214059D01*
X136038313Y-100207759D01*
X136026031Y-100217382D01*
X135978089Y-100287662D01*
X135973004Y-100296613D01*
X135883338Y-100489783D01*
X135879775Y-100499470D01*
X135822864Y-100704681D01*
X135820933Y-100714800D01*
X135798302Y-100926574D01*
X135798050Y-100936863D01*
X135245416Y-100936863D01*
X135235675Y-100926045D01*
X135235674Y-100926044D01*
X135231253Y-100921134D01*
X135076752Y-100808882D01*
X135070724Y-100806198D01*
X135070722Y-100806197D01*
X134908319Y-100733891D01*
X134908318Y-100733891D01*
X134902288Y-100731206D01*
X134800499Y-100709570D01*
X134721944Y-100692872D01*
X134721939Y-100692872D01*
X134715487Y-100691500D01*
X134524513Y-100691500D01*
X134518061Y-100692872D01*
X134518056Y-100692872D01*
X134439501Y-100709570D01*
X134337712Y-100731206D01*
X134331682Y-100733891D01*
X134331681Y-100733891D01*
X134312657Y-100742361D01*
X134163248Y-100808882D01*
X134162323Y-100806804D01*
X134103512Y-100821076D01*
X134036419Y-100797859D01*
X133992528Y-100742055D01*
X133983500Y-100695218D01*
X133983500Y-100397524D01*
X134003502Y-100329403D01*
X134015858Y-100313221D01*
X134089040Y-100231944D01*
X134161311Y-100106767D01*
X134181223Y-100072279D01*
X134181224Y-100072278D01*
X134184527Y-100066556D01*
X134243542Y-99884928D01*
X134249620Y-99827104D01*
X134262814Y-99701565D01*
X134263504Y-99695000D01*
X134257315Y-99636114D01*
X134244232Y-99511635D01*
X134244232Y-99511633D01*
X134243542Y-99505072D01*
X134184527Y-99323444D01*
X134089040Y-99158056D01*
X134061147Y-99127077D01*
X133965675Y-99021045D01*
X133965674Y-99021044D01*
X133961253Y-99016134D01*
X133838311Y-98926811D01*
X133812094Y-98907763D01*
X133812093Y-98907762D01*
X133806752Y-98903882D01*
X133800724Y-98901198D01*
X133800722Y-98901197D01*
X133638319Y-98828891D01*
X133638318Y-98828891D01*
X133632288Y-98826206D01*
X133538888Y-98806353D01*
X133451944Y-98787872D01*
X133451939Y-98787872D01*
X133445487Y-98786500D01*
X133254513Y-98786500D01*
X133248061Y-98787872D01*
X133248056Y-98787872D01*
X133161113Y-98806353D01*
X133067712Y-98826206D01*
X133061682Y-98828891D01*
X133061681Y-98828891D01*
X132899278Y-98901197D01*
X132899276Y-98901198D01*
X132893248Y-98903882D01*
X132887907Y-98907762D01*
X132887906Y-98907763D01*
X132861689Y-98926811D01*
X132738747Y-99016134D01*
X132734326Y-99021044D01*
X132734325Y-99021045D01*
X132638854Y-99127077D01*
X132610960Y-99158056D01*
X132515473Y-99323444D01*
X132456458Y-99505072D01*
X132455768Y-99511633D01*
X132455768Y-99511635D01*
X132442685Y-99636114D01*
X132436496Y-99695000D01*
X132437186Y-99701565D01*
X132450381Y-99827104D01*
X132456458Y-99884928D01*
X132515473Y-100066556D01*
X132518776Y-100072278D01*
X132518777Y-100072279D01*
X132538689Y-100106767D01*
X132610960Y-100231944D01*
X132684137Y-100313215D01*
X132714853Y-100377221D01*
X132716500Y-100397524D01*
X132716500Y-101965218D01*
X132696498Y-102033339D01*
X132642842Y-102079832D01*
X132572568Y-102089936D01*
X132537270Y-102077718D01*
X132536752Y-102078882D01*
X132368319Y-102003891D01*
X132368318Y-102003891D01*
X132362288Y-102001206D01*
X132249721Y-101977279D01*
X132181944Y-101962872D01*
X132181939Y-101962872D01*
X132175487Y-101961500D01*
X131984513Y-101961500D01*
X131978061Y-101962872D01*
X131978056Y-101962872D01*
X131910279Y-101977279D01*
X131797712Y-102001206D01*
X131791682Y-102003891D01*
X131791681Y-102003891D01*
X131629278Y-102076197D01*
X131629276Y-102076198D01*
X131623248Y-102078882D01*
X131617907Y-102082762D01*
X131617906Y-102082763D01*
X131548910Y-102132892D01*
X131468747Y-102191134D01*
X131464332Y-102196037D01*
X131459420Y-102200460D01*
X131458295Y-102199211D01*
X131404986Y-102232051D01*
X131371800Y-102236500D01*
X129613200Y-102236500D01*
X129545079Y-102216498D01*
X129525853Y-102200157D01*
X129525580Y-102200460D01*
X129520668Y-102196037D01*
X129516253Y-102191134D01*
X129436090Y-102132892D01*
X129367094Y-102082763D01*
X129367093Y-102082762D01*
X129361752Y-102078882D01*
X129355724Y-102076198D01*
X129355722Y-102076197D01*
X129193319Y-102003891D01*
X129193318Y-102003891D01*
X129187288Y-102001206D01*
X129074721Y-101977279D01*
X129006944Y-101962872D01*
X129006939Y-101962872D01*
X129000487Y-101961500D01*
X128809513Y-101961500D01*
X128803061Y-101962872D01*
X128803056Y-101962872D01*
X128735279Y-101977279D01*
X128622712Y-102001206D01*
X128616682Y-102003891D01*
X128616681Y-102003891D01*
X128454278Y-102076197D01*
X128454276Y-102076198D01*
X128448248Y-102078882D01*
X128442907Y-102082762D01*
X128442906Y-102082763D01*
X128423439Y-102096907D01*
X128293747Y-102191134D01*
X128289326Y-102196044D01*
X128289325Y-102196045D01*
X128180383Y-102317038D01*
X128165960Y-102333056D01*
X128070473Y-102498444D01*
X128011458Y-102680072D01*
X127991496Y-102870000D01*
X128011458Y-103059928D01*
X128070473Y-103241556D01*
X128165960Y-103406944D01*
X128293747Y-103548866D01*
X128448248Y-103661118D01*
X128454276Y-103663802D01*
X128454278Y-103663803D01*
X128616681Y-103736109D01*
X128622712Y-103738794D01*
X128716112Y-103758647D01*
X128803056Y-103777128D01*
X128803061Y-103777128D01*
X128809513Y-103778500D01*
X129000487Y-103778500D01*
X129006939Y-103777128D01*
X129006944Y-103777128D01*
X129093887Y-103758647D01*
X129187288Y-103738794D01*
X129193319Y-103736109D01*
X129355722Y-103663803D01*
X129355724Y-103663802D01*
X129361752Y-103661118D01*
X129516253Y-103548866D01*
X129520668Y-103543963D01*
X129525580Y-103539540D01*
X129526705Y-103540789D01*
X129580014Y-103507949D01*
X129613200Y-103503500D01*
X131371800Y-103503500D01*
X131439921Y-103523502D01*
X131459147Y-103539843D01*
X131459420Y-103539540D01*
X131464332Y-103543963D01*
X131468747Y-103548866D01*
X131623248Y-103661118D01*
X131629276Y-103663802D01*
X131629278Y-103663803D01*
X131791681Y-103736109D01*
X131797712Y-103738794D01*
X131891112Y-103758647D01*
X131978056Y-103777128D01*
X131978061Y-103777128D01*
X131984513Y-103778500D01*
X132175487Y-103778500D01*
X132181939Y-103777128D01*
X132181944Y-103777128D01*
X132268887Y-103758647D01*
X132362288Y-103738794D01*
X132386656Y-103727945D01*
X132536752Y-103661118D01*
X132537677Y-103663196D01*
X132596488Y-103648924D01*
X132663581Y-103672141D01*
X132707472Y-103727945D01*
X132716500Y-103774782D01*
X132716500Y-106280500D01*
X132696498Y-106348621D01*
X132642842Y-106395114D01*
X132590500Y-106406500D01*
X132529513Y-106406500D01*
X132523061Y-106407872D01*
X132523056Y-106407872D01*
X132436113Y-106426353D01*
X132342712Y-106446206D01*
X132336682Y-106448891D01*
X132336681Y-106448891D01*
X132174278Y-106521197D01*
X132174276Y-106521198D01*
X132168248Y-106523882D01*
X132013747Y-106636134D01*
X132009326Y-106641044D01*
X132009325Y-106641045D01*
X131911305Y-106749908D01*
X131885960Y-106778056D01*
X131790473Y-106943444D01*
X131731458Y-107125072D01*
X131730768Y-107131633D01*
X131730768Y-107131635D01*
X131714093Y-107290292D01*
X131687080Y-107355949D01*
X131677878Y-107366217D01*
X131669501Y-107374594D01*
X131607189Y-107408620D01*
X131580406Y-107411499D01*
X129626733Y-107411499D01*
X129558612Y-107391497D01*
X129512119Y-107337841D01*
X129502015Y-107267567D01*
X129513775Y-107229673D01*
X129517641Y-107221852D01*
X129537430Y-107181811D01*
X129602370Y-106968069D01*
X129631529Y-106746590D01*
X129633156Y-106680000D01*
X129614852Y-106457361D01*
X129560431Y-106240702D01*
X129471354Y-106035840D01*
X129350014Y-105848277D01*
X129199670Y-105683051D01*
X129195619Y-105679852D01*
X129195615Y-105679848D01*
X129028414Y-105547800D01*
X129028410Y-105547798D01*
X129024359Y-105544598D01*
X128828789Y-105436638D01*
X128823920Y-105434914D01*
X128823916Y-105434912D01*
X128623087Y-105363795D01*
X128623083Y-105363794D01*
X128618212Y-105362069D01*
X128613119Y-105361162D01*
X128613116Y-105361161D01*
X128403373Y-105323800D01*
X128403367Y-105323799D01*
X128398284Y-105322894D01*
X128324452Y-105321992D01*
X128180081Y-105320228D01*
X128180079Y-105320228D01*
X128174911Y-105320165D01*
X127954091Y-105353955D01*
X127741756Y-105423357D01*
X127543607Y-105526507D01*
X127539474Y-105529610D01*
X127539471Y-105529612D01*
X127369100Y-105657530D01*
X127364965Y-105660635D01*
X127308537Y-105719684D01*
X127284283Y-105745064D01*
X127222759Y-105780494D01*
X127151846Y-105777037D01*
X127094060Y-105735791D01*
X127075207Y-105702243D01*
X127033767Y-105591703D01*
X127030615Y-105583295D01*
X126943261Y-105466739D01*
X126826705Y-105379385D01*
X126690316Y-105328255D01*
X126628134Y-105321500D01*
X124831866Y-105321500D01*
X124769684Y-105328255D01*
X124633295Y-105379385D01*
X124516739Y-105466739D01*
X124429385Y-105583295D01*
X124378255Y-105719684D01*
X124371500Y-105781866D01*
X124371500Y-107578134D01*
X124378255Y-107640316D01*
X124429385Y-107776705D01*
X124516739Y-107893261D01*
X124633295Y-107980615D01*
X124641704Y-107983767D01*
X124641705Y-107983768D01*
X124750451Y-108024535D01*
X124807216Y-108067176D01*
X124831916Y-108133738D01*
X124816709Y-108203087D01*
X124797316Y-108229568D01*
X124670629Y-108362138D01*
X124667715Y-108366410D01*
X124667714Y-108366411D01*
X124619130Y-108437633D01*
X124544743Y-108546680D01*
X124542564Y-108551375D01*
X124470748Y-108706090D01*
X124450688Y-108749305D01*
X124390989Y-108964570D01*
X124367251Y-109186695D01*
X124367548Y-109191848D01*
X124367548Y-109191851D01*
X124373011Y-109286590D01*
X124380110Y-109409715D01*
X124381247Y-109414761D01*
X124381248Y-109414767D01*
X124401119Y-109502939D01*
X124429222Y-109627639D01*
X124513266Y-109834616D01*
X124515965Y-109839020D01*
X124583128Y-109948620D01*
X124629987Y-110025088D01*
X124776250Y-110193938D01*
X124948126Y-110336632D01*
X125018595Y-110377811D01*
X125021445Y-110379476D01*
X125070169Y-110431114D01*
X125083240Y-110500897D01*
X125056509Y-110566669D01*
X125016055Y-110600027D01*
X125003607Y-110606507D01*
X124999474Y-110609610D01*
X124999471Y-110609612D01*
X124829100Y-110737530D01*
X124824965Y-110740635D01*
X124670629Y-110902138D01*
X124544743Y-111086680D01*
X124507468Y-111166982D01*
X124465637Y-111257101D01*
X124450688Y-111289305D01*
X124390989Y-111504570D01*
X124367251Y-111726695D01*
X124367548Y-111731848D01*
X124367548Y-111731851D01*
X124373011Y-111826590D01*
X124380110Y-111949715D01*
X124381247Y-111954761D01*
X124381248Y-111954767D01*
X124381459Y-111955702D01*
X124429222Y-112167639D01*
X124513266Y-112374616D01*
X124564019Y-112457438D01*
X124627291Y-112560688D01*
X124629987Y-112565088D01*
X124776250Y-112733938D01*
X124948126Y-112876632D01*
X124990602Y-112901453D01*
X125021445Y-112919476D01*
X125070169Y-112971114D01*
X125083240Y-113040897D01*
X125056509Y-113106669D01*
X125016055Y-113140027D01*
X125003607Y-113146507D01*
X124999474Y-113149610D01*
X124999471Y-113149612D01*
X124833413Y-113274292D01*
X124824965Y-113280635D01*
X124821393Y-113284373D01*
X124679812Y-113432529D01*
X124670629Y-113442138D01*
X124544743Y-113626680D01*
X124450688Y-113829305D01*
X124390989Y-114044570D01*
X124367251Y-114266695D01*
X123698000Y-114266695D01*
X123698000Y-99878695D01*
X125815251Y-99878695D01*
X125815548Y-99883848D01*
X125815548Y-99883851D01*
X125819326Y-99949373D01*
X125828110Y-100101715D01*
X125829247Y-100106761D01*
X125829248Y-100106767D01*
X125829332Y-100107138D01*
X125877222Y-100319639D01*
X125961266Y-100526616D01*
X125963965Y-100531020D01*
X126062307Y-100691500D01*
X126077987Y-100717088D01*
X126224250Y-100885938D01*
X126396126Y-101028632D01*
X126589000Y-101141338D01*
X126797692Y-101221030D01*
X126802760Y-101222061D01*
X126802763Y-101222062D01*
X126865024Y-101234729D01*
X127016597Y-101265567D01*
X127021772Y-101265757D01*
X127021774Y-101265757D01*
X127234673Y-101273564D01*
X127234677Y-101273564D01*
X127239837Y-101273753D01*
X127244957Y-101273097D01*
X127244959Y-101273097D01*
X127456288Y-101246025D01*
X127456289Y-101246025D01*
X127461416Y-101245368D01*
X127466366Y-101243883D01*
X127670429Y-101182661D01*
X127670434Y-101182659D01*
X127675384Y-101181174D01*
X127875994Y-101082896D01*
X128057860Y-100953173D01*
X128216096Y-100795489D01*
X128260359Y-100733891D01*
X128346453Y-100614077D01*
X128347640Y-100614930D01*
X128394960Y-100571362D01*
X128464897Y-100559145D01*
X128530338Y-100586678D01*
X128558166Y-100618511D01*
X128615694Y-100712388D01*
X128621777Y-100720699D01*
X128761213Y-100881667D01*
X128768580Y-100888883D01*
X128932434Y-101024916D01*
X128940881Y-101030831D01*
X129124756Y-101138279D01*
X129134042Y-101142729D01*
X129333001Y-101218703D01*
X129342899Y-101221579D01*
X129446250Y-101242606D01*
X129460299Y-101241410D01*
X129464000Y-101231065D01*
X129464000Y-101230517D01*
X129972000Y-101230517D01*
X129976064Y-101244359D01*
X129989478Y-101246393D01*
X129996184Y-101245534D01*
X130006262Y-101243392D01*
X130210255Y-101182191D01*
X130219842Y-101178433D01*
X130411095Y-101084739D01*
X130419945Y-101079464D01*
X130593328Y-100955792D01*
X130601200Y-100949139D01*
X130752052Y-100798812D01*
X130758730Y-100790965D01*
X130883003Y-100618020D01*
X130888313Y-100609183D01*
X130982670Y-100418267D01*
X130986469Y-100408672D01*
X131048377Y-100204910D01*
X131050555Y-100194837D01*
X131051986Y-100183962D01*
X131049775Y-100169778D01*
X131036617Y-100166000D01*
X129990115Y-100166000D01*
X129974876Y-100170475D01*
X129973671Y-100171865D01*
X129972000Y-100179548D01*
X129972000Y-101230517D01*
X129464000Y-101230517D01*
X129464000Y-99784000D01*
X129484002Y-99715879D01*
X129537658Y-99669386D01*
X129590000Y-99658000D01*
X131036344Y-99658000D01*
X131049875Y-99654027D01*
X131051180Y-99644947D01*
X131009214Y-99477875D01*
X131005894Y-99468124D01*
X130920972Y-99272814D01*
X130916105Y-99263739D01*
X130800426Y-99084926D01*
X130794136Y-99076757D01*
X130650806Y-98919240D01*
X130643273Y-98912215D01*
X130476139Y-98780222D01*
X130467556Y-98774520D01*
X130430602Y-98754120D01*
X130380631Y-98703687D01*
X130365859Y-98634245D01*
X130390975Y-98567839D01*
X130418327Y-98541232D01*
X130483271Y-98494908D01*
X130597860Y-98413173D01*
X130619413Y-98391695D01*
X135797251Y-98391695D01*
X135797548Y-98396848D01*
X135797548Y-98396851D01*
X135805328Y-98531774D01*
X135810110Y-98614715D01*
X135811247Y-98619761D01*
X135811248Y-98619767D01*
X135818782Y-98653195D01*
X135859222Y-98832639D01*
X135943266Y-99039616D01*
X135994019Y-99122438D01*
X136057291Y-99225688D01*
X136059987Y-99230088D01*
X136206250Y-99398938D01*
X136378126Y-99541632D01*
X136451445Y-99584476D01*
X136451955Y-99584774D01*
X136500679Y-99636412D01*
X136513750Y-99706195D01*
X136487019Y-99771967D01*
X136446562Y-99805327D01*
X136438460Y-99809544D01*
X136429734Y-99815039D01*
X136409677Y-99830099D01*
X136401223Y-99841427D01*
X136407968Y-99853758D01*
X137147188Y-100592978D01*
X137161132Y-100600592D01*
X137162965Y-100600461D01*
X137169580Y-100596210D01*
X137913389Y-99852401D01*
X137920410Y-99839544D01*
X137913611Y-99830213D01*
X137909559Y-99827521D01*
X137872602Y-99807120D01*
X137822631Y-99756687D01*
X137807859Y-99687245D01*
X137832975Y-99620839D01*
X137860327Y-99594232D01*
X137883797Y-99577491D01*
X138039860Y-99466173D01*
X138069527Y-99436610D01*
X138121209Y-99385107D01*
X138198096Y-99308489D01*
X138257594Y-99225689D01*
X138328453Y-99127077D01*
X138329776Y-99128028D01*
X138376645Y-99084857D01*
X138446580Y-99072625D01*
X138512026Y-99100144D01*
X138539875Y-99131994D01*
X138599987Y-99230088D01*
X138746250Y-99398938D01*
X138918126Y-99541632D01*
X138988595Y-99582811D01*
X138991445Y-99584476D01*
X139040169Y-99636114D01*
X139053240Y-99705897D01*
X139026509Y-99771669D01*
X138986055Y-99805027D01*
X138973607Y-99811507D01*
X138969474Y-99814610D01*
X138969471Y-99814612D01*
X138799100Y-99942530D01*
X138794965Y-99945635D01*
X138640629Y-100107138D01*
X138567693Y-100214059D01*
X138532898Y-100265066D01*
X138477987Y-100310069D01*
X138407462Y-100318240D01*
X138343715Y-100286986D01*
X138323017Y-100262501D01*
X138293062Y-100216197D01*
X138282377Y-100206995D01*
X138272812Y-100211398D01*
X137532022Y-100952188D01*
X137524408Y-100966132D01*
X137524539Y-100967965D01*
X137528790Y-100974580D01*
X138270474Y-101716264D01*
X138282484Y-101722823D01*
X138294223Y-101713855D01*
X138328022Y-101666819D01*
X138329277Y-101667721D01*
X138376391Y-101624355D01*
X138446330Y-101612148D01*
X138511767Y-101639691D01*
X138539580Y-101671513D01*
X138597287Y-101765683D01*
X138597291Y-101765688D01*
X138599987Y-101770088D01*
X138746250Y-101938938D01*
X138827235Y-102006173D01*
X138913412Y-102077718D01*
X138918126Y-102081632D01*
X139111000Y-102194338D01*
X139319692Y-102274030D01*
X139324760Y-102275061D01*
X139324763Y-102275062D01*
X139429604Y-102296392D01*
X139538597Y-102318567D01*
X139543772Y-102318757D01*
X139543774Y-102318757D01*
X139756673Y-102326564D01*
X139756677Y-102326564D01*
X139761837Y-102326753D01*
X139766957Y-102326097D01*
X139766959Y-102326097D01*
X139978288Y-102299025D01*
X139978289Y-102299025D01*
X139983416Y-102298368D01*
X139988366Y-102296883D01*
X140192429Y-102235661D01*
X140192434Y-102235659D01*
X140197384Y-102234174D01*
X140397994Y-102135896D01*
X140579860Y-102006173D01*
X140584845Y-102001206D01*
X140734435Y-101852137D01*
X140738096Y-101848489D01*
X140868453Y-101667077D01*
X140889568Y-101624355D01*
X140965136Y-101471453D01*
X140965137Y-101471451D01*
X140967430Y-101466811D01*
X141032370Y-101253069D01*
X141061529Y-101031590D01*
X141063156Y-100965000D01*
X141044852Y-100742361D01*
X140990431Y-100525702D01*
X140901354Y-100320840D01*
X140861906Y-100259862D01*
X140782822Y-100137617D01*
X140782820Y-100137614D01*
X140780014Y-100133277D01*
X140629670Y-99968051D01*
X140625619Y-99964852D01*
X140625615Y-99964848D01*
X140458414Y-99832800D01*
X140458410Y-99832798D01*
X140454359Y-99829598D01*
X140413053Y-99806796D01*
X140363084Y-99756364D01*
X140348312Y-99686921D01*
X140373428Y-99620516D01*
X140400780Y-99593909D01*
X140444603Y-99562650D01*
X140579860Y-99466173D01*
X140609527Y-99436610D01*
X140661209Y-99385107D01*
X140738096Y-99308489D01*
X140797594Y-99225689D01*
X140865435Y-99131277D01*
X140868453Y-99127077D01*
X140889320Y-99084857D01*
X140965136Y-98931453D01*
X140965137Y-98931451D01*
X140967430Y-98926811D01*
X141017493Y-98762036D01*
X141030865Y-98718023D01*
X141030865Y-98718021D01*
X141032370Y-98713069D01*
X141061529Y-98491590D01*
X141063156Y-98425000D01*
X141044852Y-98202361D01*
X140990431Y-97985702D01*
X140901354Y-97780840D01*
X140780014Y-97593277D01*
X140629670Y-97428051D01*
X140625619Y-97424852D01*
X140625615Y-97424848D01*
X140458414Y-97292800D01*
X140458410Y-97292798D01*
X140454359Y-97289598D01*
X140413053Y-97266796D01*
X140363084Y-97216364D01*
X140348312Y-97146921D01*
X140373428Y-97080516D01*
X140400780Y-97053909D01*
X140444603Y-97022650D01*
X140579860Y-96926173D01*
X140609527Y-96896610D01*
X140734435Y-96772137D01*
X140738096Y-96768489D01*
X140791954Y-96693538D01*
X140865435Y-96591277D01*
X140868453Y-96587077D01*
X140889320Y-96544857D01*
X140965136Y-96391453D01*
X140965137Y-96391451D01*
X140967430Y-96386811D01*
X141013826Y-96234104D01*
X141030865Y-96178023D01*
X141030865Y-96178021D01*
X141032370Y-96173069D01*
X141061529Y-95951590D01*
X141063156Y-95885000D01*
X141044852Y-95662361D01*
X140990431Y-95445702D01*
X140901354Y-95240840D01*
X140780014Y-95053277D01*
X140629670Y-94888051D01*
X140625619Y-94884852D01*
X140625615Y-94884848D01*
X140458414Y-94752800D01*
X140458410Y-94752798D01*
X140454359Y-94749598D01*
X140413053Y-94726796D01*
X140363084Y-94676364D01*
X140348312Y-94606921D01*
X140373428Y-94540516D01*
X140400780Y-94513909D01*
X140467633Y-94466223D01*
X140579860Y-94386173D01*
X140609527Y-94356610D01*
X140734435Y-94232137D01*
X140738096Y-94228489D01*
X140770430Y-94183492D01*
X140865435Y-94051277D01*
X140868453Y-94047077D01*
X140889320Y-94004857D01*
X140965136Y-93851453D01*
X140965137Y-93851451D01*
X140967430Y-93846811D01*
X141013827Y-93694101D01*
X141030865Y-93638023D01*
X141030865Y-93638021D01*
X141032370Y-93633069D01*
X141061529Y-93411590D01*
X141063156Y-93345000D01*
X141044852Y-93122361D01*
X140990431Y-92905702D01*
X140901354Y-92700840D01*
X140835983Y-92599792D01*
X140782822Y-92517617D01*
X140782820Y-92517614D01*
X140780014Y-92513277D01*
X140629670Y-92348051D01*
X140625619Y-92344852D01*
X140625615Y-92344848D01*
X140458414Y-92212800D01*
X140458410Y-92212798D01*
X140454359Y-92209598D01*
X140413053Y-92186796D01*
X140363084Y-92136364D01*
X140348312Y-92066921D01*
X140373428Y-92000516D01*
X140400780Y-91973909D01*
X140444603Y-91942650D01*
X140579860Y-91846173D01*
X140738096Y-91688489D01*
X140797594Y-91605689D01*
X140865435Y-91511277D01*
X140868453Y-91507077D01*
X140889320Y-91464857D01*
X140965136Y-91311453D01*
X140965137Y-91311451D01*
X140967430Y-91306811D01*
X141032370Y-91093069D01*
X141061529Y-90871590D01*
X141063156Y-90805000D01*
X141044852Y-90582361D01*
X140990431Y-90365702D01*
X140901354Y-90160840D01*
X140780014Y-89973277D01*
X140629670Y-89808051D01*
X140625619Y-89804852D01*
X140625615Y-89804848D01*
X140458414Y-89672800D01*
X140458410Y-89672798D01*
X140454359Y-89669598D01*
X140258789Y-89561638D01*
X140253920Y-89559914D01*
X140253916Y-89559912D01*
X140053087Y-89488795D01*
X140053083Y-89488794D01*
X140048212Y-89487069D01*
X140043119Y-89486162D01*
X140043116Y-89486161D01*
X139833373Y-89448800D01*
X139833367Y-89448799D01*
X139828284Y-89447894D01*
X139754452Y-89446992D01*
X139610081Y-89445228D01*
X139610079Y-89445228D01*
X139604911Y-89445165D01*
X139384091Y-89478955D01*
X139171756Y-89548357D01*
X138973607Y-89651507D01*
X138969474Y-89654610D01*
X138969471Y-89654612D01*
X138945247Y-89672800D01*
X138794965Y-89785635D01*
X138640629Y-89947138D01*
X138533201Y-90104621D01*
X138478293Y-90149621D01*
X138407768Y-90157792D01*
X138344021Y-90126538D01*
X138323324Y-90102054D01*
X138242822Y-89977617D01*
X138242820Y-89977614D01*
X138240014Y-89973277D01*
X138089670Y-89808051D01*
X138085619Y-89804852D01*
X138085615Y-89804848D01*
X137918414Y-89672800D01*
X137918410Y-89672798D01*
X137914359Y-89669598D01*
X137718789Y-89561638D01*
X137713920Y-89559914D01*
X137713916Y-89559912D01*
X137513087Y-89488795D01*
X137513083Y-89488794D01*
X137508212Y-89487069D01*
X137503119Y-89486162D01*
X137503116Y-89486161D01*
X137293373Y-89448800D01*
X137293367Y-89448799D01*
X137288284Y-89447894D01*
X137214452Y-89446992D01*
X137070081Y-89445228D01*
X137070079Y-89445228D01*
X137064911Y-89445165D01*
X136844091Y-89478955D01*
X136631756Y-89548357D01*
X136433607Y-89651507D01*
X136429474Y-89654610D01*
X136429471Y-89654612D01*
X136405247Y-89672800D01*
X136254965Y-89785635D01*
X136100629Y-89947138D01*
X135974743Y-90131680D01*
X135880688Y-90334305D01*
X135820989Y-90549570D01*
X135797251Y-90771695D01*
X135797548Y-90776848D01*
X135797548Y-90776851D01*
X135803011Y-90871590D01*
X135810110Y-90994715D01*
X135811247Y-90999761D01*
X135811248Y-90999767D01*
X135827833Y-91073358D01*
X135859222Y-91212639D01*
X135907561Y-91331684D01*
X135934198Y-91397283D01*
X135943266Y-91419616D01*
X135994019Y-91502438D01*
X136057291Y-91605688D01*
X136059987Y-91610088D01*
X136206250Y-91778938D01*
X136378126Y-91921632D01*
X136448595Y-91962811D01*
X136451445Y-91964476D01*
X136500169Y-92016114D01*
X136513240Y-92085897D01*
X136486509Y-92151669D01*
X136446055Y-92185027D01*
X136433607Y-92191507D01*
X136429474Y-92194610D01*
X136429471Y-92194612D01*
X136259100Y-92322530D01*
X136254965Y-92325635D01*
X136251393Y-92329373D01*
X136139013Y-92446972D01*
X136100629Y-92487138D01*
X136097720Y-92491403D01*
X136097714Y-92491411D01*
X136060476Y-92546000D01*
X135974743Y-92671680D01*
X135959003Y-92705590D01*
X135915984Y-92798267D01*
X135880688Y-92874305D01*
X135820989Y-93089570D01*
X135797251Y-93311695D01*
X135797548Y-93316848D01*
X135797548Y-93316851D01*
X135802967Y-93410831D01*
X135810110Y-93534715D01*
X135811247Y-93539761D01*
X135811248Y-93539767D01*
X135823869Y-93595767D01*
X135859222Y-93752639D01*
X135943266Y-93959616D01*
X135986307Y-94029852D01*
X136057291Y-94145688D01*
X136059987Y-94150088D01*
X136206250Y-94318938D01*
X136378126Y-94461632D01*
X136448595Y-94502811D01*
X136451445Y-94504476D01*
X136500169Y-94556114D01*
X136513240Y-94625897D01*
X136486509Y-94691669D01*
X136446055Y-94725027D01*
X136433607Y-94731507D01*
X136429474Y-94734610D01*
X136429471Y-94734612D01*
X136259100Y-94862530D01*
X136254965Y-94865635D01*
X136100629Y-95027138D01*
X135974743Y-95211680D01*
X135880688Y-95414305D01*
X135820989Y-95629570D01*
X135797251Y-95851695D01*
X135797548Y-95856848D01*
X135797548Y-95856851D01*
X135805854Y-96000909D01*
X135810110Y-96074715D01*
X135811247Y-96079761D01*
X135811248Y-96079767D01*
X135819269Y-96115357D01*
X135859222Y-96292639D01*
X135943266Y-96499616D01*
X135994019Y-96582438D01*
X136057291Y-96685688D01*
X136059987Y-96690088D01*
X136206250Y-96858938D01*
X136378126Y-97001632D01*
X136448595Y-97042811D01*
X136451445Y-97044476D01*
X136500169Y-97096114D01*
X136513240Y-97165897D01*
X136486509Y-97231669D01*
X136446055Y-97265027D01*
X136433607Y-97271507D01*
X136429474Y-97274610D01*
X136429471Y-97274612D01*
X136259100Y-97402530D01*
X136254965Y-97405635D01*
X136100629Y-97567138D01*
X135974743Y-97751680D01*
X135959003Y-97785590D01*
X135883751Y-97947707D01*
X135880688Y-97954305D01*
X135820989Y-98169570D01*
X135797251Y-98391695D01*
X130619413Y-98391695D01*
X130756096Y-98255489D01*
X130814144Y-98174707D01*
X130883435Y-98078277D01*
X130886453Y-98074077D01*
X130888746Y-98069437D01*
X130890446Y-98066608D01*
X130942674Y-98018518D01*
X130998451Y-98005500D01*
X131149233Y-98005500D01*
X131160416Y-98006027D01*
X131167909Y-98007702D01*
X131175835Y-98007453D01*
X131175836Y-98007453D01*
X131235986Y-98005562D01*
X131239945Y-98005500D01*
X131267856Y-98005500D01*
X131271791Y-98005003D01*
X131271856Y-98004995D01*
X131283693Y-98004062D01*
X131315951Y-98003048D01*
X131319970Y-98002922D01*
X131327889Y-98002673D01*
X131347343Y-97997021D01*
X131366700Y-97993013D01*
X131378930Y-97991468D01*
X131378931Y-97991468D01*
X131386797Y-97990474D01*
X131394168Y-97987555D01*
X131394170Y-97987555D01*
X131427912Y-97974196D01*
X131439142Y-97970351D01*
X131473983Y-97960229D01*
X131473984Y-97960229D01*
X131481593Y-97958018D01*
X131488412Y-97953985D01*
X131488417Y-97953983D01*
X131499028Y-97947707D01*
X131516776Y-97939012D01*
X131535617Y-97931552D01*
X131571387Y-97905564D01*
X131581307Y-97899048D01*
X131612535Y-97880580D01*
X131612538Y-97880578D01*
X131619362Y-97876542D01*
X131633683Y-97862221D01*
X131648717Y-97849380D01*
X131658694Y-97842131D01*
X131665107Y-97837472D01*
X131693298Y-97803395D01*
X131701288Y-97794616D01*
X135012247Y-94483657D01*
X135020537Y-94476113D01*
X135027018Y-94472000D01*
X135073659Y-94422332D01*
X135076413Y-94419491D01*
X135096134Y-94399770D01*
X135098612Y-94396575D01*
X135106318Y-94387553D01*
X135126279Y-94366297D01*
X135136586Y-94355321D01*
X135146346Y-94337568D01*
X135157199Y-94321045D01*
X135164753Y-94311306D01*
X135169613Y-94305041D01*
X135187176Y-94264457D01*
X135192383Y-94253827D01*
X135213695Y-94215060D01*
X135215666Y-94207383D01*
X135215668Y-94207378D01*
X135218732Y-94195442D01*
X135225138Y-94176730D01*
X135230034Y-94165417D01*
X135233181Y-94158145D01*
X135237383Y-94131618D01*
X135240097Y-94114481D01*
X135242504Y-94102860D01*
X135251528Y-94067711D01*
X135251528Y-94067710D01*
X135253500Y-94060030D01*
X135253500Y-94039769D01*
X135255051Y-94020058D01*
X135256979Y-94007885D01*
X135258219Y-94000057D01*
X135254059Y-93956046D01*
X135253500Y-93944189D01*
X135253500Y-92053024D01*
X135273502Y-91984903D01*
X135285858Y-91968721D01*
X135359040Y-91887444D01*
X135454527Y-91722056D01*
X135513542Y-91540428D01*
X135516531Y-91511994D01*
X135532814Y-91357065D01*
X135533504Y-91350500D01*
X135528912Y-91306811D01*
X135514232Y-91167135D01*
X135514232Y-91167133D01*
X135513542Y-91160572D01*
X135454527Y-90978944D01*
X135446858Y-90965660D01*
X135362341Y-90819274D01*
X135359040Y-90813556D01*
X135316727Y-90766562D01*
X135235675Y-90676545D01*
X135235674Y-90676544D01*
X135231253Y-90671634D01*
X135076752Y-90559382D01*
X135070724Y-90556698D01*
X135070722Y-90556697D01*
X134908319Y-90484391D01*
X134908318Y-90484391D01*
X134902288Y-90481706D01*
X134808888Y-90461853D01*
X134721944Y-90443372D01*
X134721939Y-90443372D01*
X134715487Y-90442000D01*
X134524513Y-90442000D01*
X134518061Y-90443372D01*
X134518056Y-90443372D01*
X134431112Y-90461853D01*
X134337712Y-90481706D01*
X134331682Y-90484391D01*
X134331681Y-90484391D01*
X134169278Y-90556697D01*
X134169276Y-90556698D01*
X134163248Y-90559382D01*
X134008747Y-90671634D01*
X134004326Y-90676544D01*
X134004325Y-90676545D01*
X133923274Y-90766562D01*
X133880960Y-90813556D01*
X133877659Y-90819274D01*
X133793143Y-90965660D01*
X133785473Y-90978944D01*
X133726458Y-91160572D01*
X133725768Y-91167133D01*
X133725768Y-91167135D01*
X133711088Y-91306811D01*
X133706496Y-91350500D01*
X133707186Y-91357065D01*
X133723470Y-91511994D01*
X133726458Y-91540428D01*
X133785473Y-91722056D01*
X133880960Y-91887444D01*
X133954137Y-91968715D01*
X133984853Y-92032721D01*
X133986500Y-92053024D01*
X133986500Y-93665405D01*
X133966498Y-93733526D01*
X133949595Y-93754500D01*
X131051925Y-96652170D01*
X130989613Y-96686196D01*
X130918798Y-96681131D01*
X130861962Y-96638584D01*
X130857046Y-96631526D01*
X130798014Y-96540277D01*
X130647670Y-96375051D01*
X130643619Y-96371852D01*
X130643615Y-96371848D01*
X130476414Y-96239800D01*
X130476410Y-96239798D01*
X130472359Y-96236598D01*
X130431053Y-96213796D01*
X130381084Y-96163364D01*
X130366312Y-96093921D01*
X130391428Y-96027516D01*
X130418780Y-96000909D01*
X130487923Y-95951590D01*
X130597860Y-95873173D01*
X130756096Y-95715489D01*
X130814144Y-95634707D01*
X130883435Y-95538277D01*
X130886453Y-95534077D01*
X130907320Y-95491857D01*
X130983136Y-95338453D01*
X130983137Y-95338451D01*
X130985430Y-95333811D01*
X131024099Y-95206538D01*
X131048865Y-95125023D01*
X131048865Y-95125021D01*
X131050370Y-95120069D01*
X131079529Y-94898590D01*
X131081156Y-94832000D01*
X131062852Y-94609361D01*
X131008431Y-94392702D01*
X130919354Y-94187840D01*
X130836670Y-94060030D01*
X130800822Y-94004617D01*
X130800820Y-94004614D01*
X130798014Y-94000277D01*
X130647670Y-93835051D01*
X130643619Y-93831852D01*
X130643615Y-93831848D01*
X130476414Y-93699800D01*
X130476410Y-93699798D01*
X130472359Y-93696598D01*
X130430569Y-93673529D01*
X130380598Y-93623097D01*
X130365826Y-93553654D01*
X130390942Y-93487248D01*
X130418294Y-93460641D01*
X130593328Y-93335792D01*
X130601200Y-93329139D01*
X130752052Y-93178812D01*
X130758730Y-93170965D01*
X130883003Y-92998020D01*
X130888313Y-92989183D01*
X130982670Y-92798267D01*
X130986469Y-92788672D01*
X131048377Y-92584910D01*
X131050555Y-92574837D01*
X131051986Y-92563962D01*
X131049775Y-92549778D01*
X131036617Y-92546000D01*
X129590000Y-92546000D01*
X129521879Y-92525998D01*
X129475386Y-92472342D01*
X129464000Y-92420000D01*
X129464000Y-92019885D01*
X129972000Y-92019885D01*
X129976475Y-92035124D01*
X129977865Y-92036329D01*
X129985548Y-92038000D01*
X131036344Y-92038000D01*
X131049875Y-92034027D01*
X131051180Y-92024947D01*
X131009214Y-91857875D01*
X131005894Y-91848124D01*
X130920972Y-91652814D01*
X130916105Y-91643739D01*
X130800426Y-91464926D01*
X130794136Y-91456757D01*
X130650806Y-91299240D01*
X130643273Y-91292215D01*
X130476139Y-91160222D01*
X130467552Y-91154517D01*
X130281117Y-91051599D01*
X130271705Y-91047369D01*
X130070959Y-90976280D01*
X130060988Y-90973646D01*
X129989837Y-90960972D01*
X129976540Y-90962432D01*
X129972000Y-90976989D01*
X129972000Y-92019885D01*
X129464000Y-92019885D01*
X129464000Y-90975102D01*
X129460082Y-90961758D01*
X129445806Y-90959771D01*
X129407324Y-90965660D01*
X129397288Y-90968051D01*
X129194868Y-91034212D01*
X129185359Y-91038209D01*
X128996463Y-91136542D01*
X128987738Y-91142036D01*
X128817433Y-91269905D01*
X128809726Y-91276748D01*
X128732478Y-91357584D01*
X128670954Y-91393014D01*
X128600042Y-91389557D01*
X128542255Y-91348311D01*
X128523402Y-91314763D01*
X128481767Y-91203703D01*
X128478615Y-91195295D01*
X128391261Y-91078739D01*
X128274705Y-90991385D01*
X128138316Y-90940255D01*
X128076134Y-90933500D01*
X126279866Y-90933500D01*
X126217684Y-90940255D01*
X126081295Y-90991385D01*
X125964739Y-91078739D01*
X125877385Y-91195295D01*
X125826255Y-91331684D01*
X125819500Y-91393866D01*
X125819500Y-93190134D01*
X125826255Y-93252316D01*
X125877385Y-93388705D01*
X125964739Y-93505261D01*
X126081295Y-93592615D01*
X126089704Y-93595767D01*
X126089705Y-93595768D01*
X126198451Y-93636535D01*
X126255216Y-93679176D01*
X126279916Y-93745738D01*
X126264709Y-93815087D01*
X126245316Y-93841568D01*
X126132507Y-93959616D01*
X126118629Y-93974138D01*
X126115720Y-93978403D01*
X126115714Y-93978411D01*
X126072038Y-94042438D01*
X125992743Y-94158680D01*
X125963349Y-94222005D01*
X125901466Y-94355321D01*
X125898688Y-94361305D01*
X125838989Y-94576570D01*
X125815251Y-94798695D01*
X125815548Y-94803848D01*
X125815548Y-94803851D01*
X125821011Y-94898590D01*
X125828110Y-95021715D01*
X125829247Y-95026761D01*
X125829248Y-95026767D01*
X125829332Y-95027138D01*
X125877222Y-95239639D01*
X125915461Y-95333811D01*
X125946240Y-95409610D01*
X125961266Y-95446616D01*
X126012019Y-95529438D01*
X126075291Y-95632688D01*
X126077987Y-95637088D01*
X126224250Y-95805938D01*
X126396126Y-95948632D01*
X126466595Y-95989811D01*
X126469445Y-95991476D01*
X126518169Y-96043114D01*
X126531240Y-96112897D01*
X126504509Y-96178669D01*
X126464055Y-96212027D01*
X126451607Y-96218507D01*
X126447474Y-96221610D01*
X126447471Y-96221612D01*
X126277100Y-96349530D01*
X126272965Y-96352635D01*
X126269393Y-96356373D01*
X126132507Y-96499616D01*
X126118629Y-96514138D01*
X125992743Y-96698680D01*
X125974259Y-96738500D01*
X125920168Y-96855031D01*
X125898688Y-96901305D01*
X125838989Y-97116570D01*
X125815251Y-97338695D01*
X125815548Y-97343848D01*
X125815548Y-97343851D01*
X125819326Y-97409373D01*
X125828110Y-97561715D01*
X125829247Y-97566761D01*
X125829248Y-97566767D01*
X125829332Y-97567138D01*
X125877222Y-97779639D01*
X125937014Y-97926890D01*
X125954662Y-97970351D01*
X125961266Y-97986616D01*
X126010285Y-98066608D01*
X126075291Y-98172688D01*
X126077987Y-98177088D01*
X126224250Y-98345938D01*
X126396126Y-98488632D01*
X126466595Y-98529811D01*
X126469445Y-98531476D01*
X126518169Y-98583114D01*
X126531240Y-98652897D01*
X126504509Y-98718669D01*
X126464055Y-98752027D01*
X126451607Y-98758507D01*
X126447474Y-98761610D01*
X126447471Y-98761612D01*
X126277100Y-98889530D01*
X126272965Y-98892635D01*
X126269393Y-98896373D01*
X126132507Y-99039616D01*
X126118629Y-99054138D01*
X125992743Y-99238680D01*
X125976899Y-99272814D01*
X125920168Y-99395031D01*
X125898688Y-99441305D01*
X125838989Y-99656570D01*
X125815251Y-99878695D01*
X123698000Y-99878695D01*
X123698000Y-92972610D01*
X123718002Y-92904489D01*
X123734905Y-92883515D01*
X130983515Y-85634905D01*
X131045827Y-85600879D01*
X131072610Y-85598000D01*
X145416000Y-85598000D01*
X145484121Y-85618002D01*
G37*
G04 #@! TD.AperFunction*
M02*
