M48
; DRILL file {KiCad (6.0.0)} date Sun Apr 24 11:32:33 2022
; FORMAT={-:-/ absolute / inch / decimal}
; #@! TF.CreationDate,2022-04-24T11:32:33-04:00
; #@! TF.GenerationSoftware,Kicad,Pcbnew,(6.0.0)
; #@! TF.FileFunction,Plated,1,2,PTH
FMAT,2
INCH
; #@! TA.AperFunction,Plated,PTH,ViaDrill
T1C0.0157
; #@! TA.AperFunction,Plated,PTH,ComponentDrill
T2C0.0394
%
G90
G05
T1
X5.075Y-4.05
X5.2Y-4.05
X5.2215Y-4.225
X5.25Y-3.925
X5.3Y-3.5965
X5.3Y-4.0
X5.3Y-4.2
T2
X4.95Y-4.2
X4.95Y-4.3
X4.95Y-4.4
X4.95Y-4.5
X4.95Y-4.6
X5.007Y-3.6335
X5.007Y-3.7335
X5.007Y-3.8335
X5.007Y-3.9335
X5.05Y-4.2
X5.05Y-4.3
X5.05Y-4.4
X5.05Y-4.5
X5.05Y-4.6
X5.107Y-3.6335
X5.107Y-3.7335
X5.107Y-3.8335
X5.107Y-3.9335
X5.4Y-3.575
X5.4Y-3.675
X5.4Y-3.775
X5.4Y-3.875
X5.4Y-3.975
X5.4Y-4.425
X5.4Y-4.525
X5.4Y-4.625
X5.4Y-4.725
X5.4Y-4.825
X5.5Y-3.575
X5.5Y-3.675
X5.5Y-3.775
X5.5Y-3.875
X5.5Y-3.975
X5.5Y-4.425
X5.5Y-4.525
X5.5Y-4.625
X5.5Y-4.725
X5.5Y-4.825
T0
M30
