G04 #@! TF.GenerationSoftware,KiCad,Pcbnew,(6.0.0)*
G04 #@! TF.CreationDate,2022-04-24T11:32:36-04:00*
G04 #@! TF.ProjectId,SKR-Mini_Screen,534b522d-4d69-46e6-995f-53637265656e,rev?*
G04 #@! TF.SameCoordinates,Original*
G04 #@! TF.FileFunction,Legend,Top*
G04 #@! TF.FilePolarity,Positive*
%FSLAX46Y46*%
G04 Gerber Fmt 4.6, Leading zero omitted, Abs format (unit mm)*
G04 Created by KiCad (PCBNEW (6.0.0)) date 2022-04-24 11:32:36*
%MOMM*%
%LPD*%
G01*
G04 APERTURE LIST*
%ADD10C,0.300000*%
%ADD11C,0.150000*%
%ADD12C,0.250000*%
%ADD13C,0.200000*%
%ADD14C,0.120000*%
G04 APERTURE END LIST*
D10*
X132607857Y-93305000D02*
X132607857Y-92805000D01*
X133393571Y-92590714D02*
X133393571Y-93305000D01*
X131893571Y-93305000D01*
X131893571Y-92590714D01*
X131893571Y-92090714D02*
X133393571Y-91090714D01*
X131893571Y-91090714D02*
X133393571Y-92090714D01*
X133393571Y-90519285D02*
X131893571Y-90519285D01*
X131893571Y-89947857D01*
X131965000Y-89805000D01*
X132036428Y-89733571D01*
X132179285Y-89662142D01*
X132393571Y-89662142D01*
X132536428Y-89733571D01*
X132607857Y-89805000D01*
X132679285Y-89947857D01*
X132679285Y-90519285D01*
X132036428Y-89090714D02*
X131965000Y-89019285D01*
X131893571Y-88876428D01*
X131893571Y-88519285D01*
X131965000Y-88376428D01*
X132036428Y-88305000D01*
X132179285Y-88233571D01*
X132322142Y-88233571D01*
X132536428Y-88305000D01*
X133393571Y-89162142D01*
X133393571Y-88233571D01*
D11*
X126928571Y-122316666D02*
X126928571Y-121983333D01*
X127452380Y-121840476D02*
X127452380Y-122316666D01*
X126452380Y-122316666D01*
X126452380Y-121840476D01*
X126452380Y-121507142D02*
X127452380Y-120840476D01*
X126452380Y-120840476D02*
X127452380Y-121507142D01*
X127452380Y-120459523D02*
X126452380Y-120459523D01*
X126452380Y-120078571D01*
X126500000Y-119983333D01*
X126547619Y-119935714D01*
X126642857Y-119888095D01*
X126785714Y-119888095D01*
X126880952Y-119935714D01*
X126928571Y-119983333D01*
X126976190Y-120078571D01*
X126976190Y-120459523D01*
X127452380Y-118935714D02*
X127452380Y-119507142D01*
X127452380Y-119221428D02*
X126452380Y-119221428D01*
X126595238Y-119316666D01*
X126690476Y-119411904D01*
X126738095Y-119507142D01*
D10*
X132607857Y-125055000D02*
X132607857Y-124555000D01*
X133393571Y-124340714D02*
X133393571Y-125055000D01*
X131893571Y-125055000D01*
X131893571Y-124340714D01*
X131893571Y-123840714D02*
X133393571Y-122840714D01*
X131893571Y-122840714D02*
X133393571Y-123840714D01*
X133393571Y-122269285D02*
X131893571Y-122269285D01*
X131893571Y-121697857D01*
X131965000Y-121555000D01*
X132036428Y-121483571D01*
X132179285Y-121412142D01*
X132393571Y-121412142D01*
X132536428Y-121483571D01*
X132607857Y-121555000D01*
X132679285Y-121697857D01*
X132679285Y-122269285D01*
X133393571Y-119983571D02*
X133393571Y-120840714D01*
X133393571Y-120412142D02*
X131893571Y-120412142D01*
X132107857Y-120555000D01*
X132250714Y-120697857D01*
X132322142Y-120840714D01*
D12*
X144650952Y-122424047D02*
X144710476Y-122245476D01*
X144710476Y-121947857D01*
X144650952Y-121828809D01*
X144591428Y-121769285D01*
X144472380Y-121709761D01*
X144353333Y-121709761D01*
X144234285Y-121769285D01*
X144174761Y-121828809D01*
X144115238Y-121947857D01*
X144055714Y-122185952D01*
X143996190Y-122305000D01*
X143936666Y-122364523D01*
X143817619Y-122424047D01*
X143698571Y-122424047D01*
X143579523Y-122364523D01*
X143520000Y-122305000D01*
X143460476Y-122185952D01*
X143460476Y-121888333D01*
X143520000Y-121709761D01*
X144710476Y-121174047D02*
X143460476Y-121174047D01*
X144710476Y-120459761D02*
X143996190Y-120995476D01*
X143460476Y-120459761D02*
X144174761Y-121174047D01*
X144710476Y-119209761D02*
X144115238Y-119626428D01*
X144710476Y-119924047D02*
X143460476Y-119924047D01*
X143460476Y-119447857D01*
X143520000Y-119328809D01*
X143579523Y-119269285D01*
X143698571Y-119209761D01*
X143877142Y-119209761D01*
X143996190Y-119269285D01*
X144055714Y-119328809D01*
X144115238Y-119447857D01*
X144115238Y-119924047D01*
X144710476Y-117721666D02*
X143460476Y-117721666D01*
X144353333Y-117305000D01*
X143460476Y-116888333D01*
X144710476Y-116888333D01*
X144710476Y-116293095D02*
X143877142Y-116293095D01*
X143460476Y-116293095D02*
X143520000Y-116352619D01*
X143579523Y-116293095D01*
X143520000Y-116233571D01*
X143460476Y-116293095D01*
X143579523Y-116293095D01*
X143877142Y-115697857D02*
X144710476Y-115697857D01*
X143996190Y-115697857D02*
X143936666Y-115638333D01*
X143877142Y-115519285D01*
X143877142Y-115340714D01*
X143936666Y-115221666D01*
X144055714Y-115162142D01*
X144710476Y-115162142D01*
X144710476Y-114566904D02*
X143877142Y-114566904D01*
X143460476Y-114566904D02*
X143520000Y-114626428D01*
X143579523Y-114566904D01*
X143520000Y-114507380D01*
X143460476Y-114566904D01*
X143579523Y-114566904D01*
X144055714Y-113019285D02*
X144055714Y-112602619D01*
X144710476Y-112424047D02*
X144710476Y-113019285D01*
X143460476Y-113019285D01*
X143460476Y-112424047D01*
X143460476Y-112007380D02*
X143460476Y-111233571D01*
X143936666Y-111650238D01*
X143936666Y-111471666D01*
X143996190Y-111352619D01*
X144055714Y-111293095D01*
X144174761Y-111233571D01*
X144472380Y-111233571D01*
X144591428Y-111293095D01*
X144650952Y-111352619D01*
X144710476Y-111471666D01*
X144710476Y-111828809D01*
X144650952Y-111947857D01*
X144591428Y-112007380D01*
X143460476Y-109924047D02*
X144710476Y-109507380D01*
X143460476Y-109090714D01*
X143460476Y-108793095D02*
X143460476Y-108019285D01*
X143936666Y-108435952D01*
X143936666Y-108257380D01*
X143996190Y-108138333D01*
X144055714Y-108078809D01*
X144174761Y-108019285D01*
X144472380Y-108019285D01*
X144591428Y-108078809D01*
X144650952Y-108138333D01*
X144710476Y-108257380D01*
X144710476Y-108614523D01*
X144650952Y-108733571D01*
X144591428Y-108793095D01*
X144591428Y-107483571D02*
X144650952Y-107424047D01*
X144710476Y-107483571D01*
X144650952Y-107543095D01*
X144591428Y-107483571D01*
X144710476Y-107483571D01*
X143460476Y-106650238D02*
X143460476Y-106531190D01*
X143520000Y-106412142D01*
X143579523Y-106352619D01*
X143698571Y-106293095D01*
X143936666Y-106233571D01*
X144234285Y-106233571D01*
X144472380Y-106293095D01*
X144591428Y-106352619D01*
X144650952Y-106412142D01*
X144710476Y-106531190D01*
X144710476Y-106650238D01*
X144650952Y-106769285D01*
X144591428Y-106828809D01*
X144472380Y-106888333D01*
X144234285Y-106947857D01*
X143936666Y-106947857D01*
X143698571Y-106888333D01*
X143579523Y-106828809D01*
X143520000Y-106769285D01*
X143460476Y-106650238D01*
X144650952Y-104805000D02*
X144710476Y-104626428D01*
X144710476Y-104328809D01*
X144650952Y-104209761D01*
X144591428Y-104150238D01*
X144472380Y-104090714D01*
X144353333Y-104090714D01*
X144234285Y-104150238D01*
X144174761Y-104209761D01*
X144115238Y-104328809D01*
X144055714Y-104566904D01*
X143996190Y-104685952D01*
X143936666Y-104745476D01*
X143817619Y-104805000D01*
X143698571Y-104805000D01*
X143579523Y-104745476D01*
X143520000Y-104685952D01*
X143460476Y-104566904D01*
X143460476Y-104269285D01*
X143520000Y-104090714D01*
X144650952Y-103019285D02*
X144710476Y-103138333D01*
X144710476Y-103376428D01*
X144650952Y-103495476D01*
X144591428Y-103555000D01*
X144472380Y-103614523D01*
X144115238Y-103614523D01*
X143996190Y-103555000D01*
X143936666Y-103495476D01*
X143877142Y-103376428D01*
X143877142Y-103138333D01*
X143936666Y-103019285D01*
X144710476Y-102483571D02*
X143877142Y-102483571D01*
X144115238Y-102483571D02*
X143996190Y-102424047D01*
X143936666Y-102364523D01*
X143877142Y-102245476D01*
X143877142Y-102126428D01*
X144650952Y-101233571D02*
X144710476Y-101352619D01*
X144710476Y-101590714D01*
X144650952Y-101709761D01*
X144531904Y-101769285D01*
X144055714Y-101769285D01*
X143936666Y-101709761D01*
X143877142Y-101590714D01*
X143877142Y-101352619D01*
X143936666Y-101233571D01*
X144055714Y-101174047D01*
X144174761Y-101174047D01*
X144293809Y-101769285D01*
X144650952Y-100162142D02*
X144710476Y-100281190D01*
X144710476Y-100519285D01*
X144650952Y-100638333D01*
X144531904Y-100697857D01*
X144055714Y-100697857D01*
X143936666Y-100638333D01*
X143877142Y-100519285D01*
X143877142Y-100281190D01*
X143936666Y-100162142D01*
X144055714Y-100102619D01*
X144174761Y-100102619D01*
X144293809Y-100697857D01*
X143877142Y-99566904D02*
X144710476Y-99566904D01*
X143996190Y-99566904D02*
X143936666Y-99507380D01*
X143877142Y-99388333D01*
X143877142Y-99209761D01*
X143936666Y-99090714D01*
X144055714Y-99031190D01*
X144710476Y-99031190D01*
X144353333Y-97543095D02*
X144353333Y-96947857D01*
X144710476Y-97662142D02*
X143460476Y-97245476D01*
X144710476Y-96828809D01*
X144710476Y-95876428D02*
X143460476Y-95876428D01*
X144650952Y-95876428D02*
X144710476Y-95995476D01*
X144710476Y-96233571D01*
X144650952Y-96352619D01*
X144591428Y-96412142D01*
X144472380Y-96471666D01*
X144115238Y-96471666D01*
X143996190Y-96412142D01*
X143936666Y-96352619D01*
X143877142Y-96233571D01*
X143877142Y-95995476D01*
X143936666Y-95876428D01*
X144710476Y-94745476D02*
X144055714Y-94745476D01*
X143936666Y-94805000D01*
X143877142Y-94924047D01*
X143877142Y-95162142D01*
X143936666Y-95281190D01*
X144650952Y-94745476D02*
X144710476Y-94864523D01*
X144710476Y-95162142D01*
X144650952Y-95281190D01*
X144531904Y-95340714D01*
X144412857Y-95340714D01*
X144293809Y-95281190D01*
X144234285Y-95162142D01*
X144234285Y-94864523D01*
X144174761Y-94745476D01*
X143877142Y-94150238D02*
X145127142Y-94150238D01*
X143936666Y-94150238D02*
X143877142Y-94031190D01*
X143877142Y-93793095D01*
X143936666Y-93674047D01*
X143996190Y-93614523D01*
X144115238Y-93555000D01*
X144472380Y-93555000D01*
X144591428Y-93614523D01*
X144650952Y-93674047D01*
X144710476Y-93793095D01*
X144710476Y-94031190D01*
X144650952Y-94150238D01*
X143877142Y-93197857D02*
X143877142Y-92721666D01*
X143460476Y-93019285D02*
X144531904Y-93019285D01*
X144650952Y-92959761D01*
X144710476Y-92840714D01*
X144710476Y-92721666D01*
X144710476Y-92126428D02*
X144650952Y-92245476D01*
X144591428Y-92305000D01*
X144472380Y-92364523D01*
X144115238Y-92364523D01*
X143996190Y-92305000D01*
X143936666Y-92245476D01*
X143877142Y-92126428D01*
X143877142Y-91947857D01*
X143936666Y-91828809D01*
X143996190Y-91769285D01*
X144115238Y-91709761D01*
X144472380Y-91709761D01*
X144591428Y-91769285D01*
X144650952Y-91828809D01*
X144710476Y-91947857D01*
X144710476Y-92126428D01*
X144710476Y-91174047D02*
X143877142Y-91174047D01*
X144115238Y-91174047D02*
X143996190Y-91114523D01*
X143936666Y-91055000D01*
X143877142Y-90935952D01*
X143877142Y-90816904D01*
D11*
X129944761Y-89923809D02*
X129992380Y-89780952D01*
X129992380Y-89542857D01*
X129944761Y-89447619D01*
X129897142Y-89400000D01*
X129801904Y-89352380D01*
X129706666Y-89352380D01*
X129611428Y-89400000D01*
X129563809Y-89447619D01*
X129516190Y-89542857D01*
X129468571Y-89733333D01*
X129420952Y-89828571D01*
X129373333Y-89876190D01*
X129278095Y-89923809D01*
X129182857Y-89923809D01*
X129087619Y-89876190D01*
X129040000Y-89828571D01*
X128992380Y-89733333D01*
X128992380Y-89495238D01*
X129040000Y-89352380D01*
X129992380Y-88923809D02*
X128992380Y-88923809D01*
X128992380Y-88542857D01*
X129040000Y-88447619D01*
X129087619Y-88400000D01*
X129182857Y-88352380D01*
X129325714Y-88352380D01*
X129420952Y-88400000D01*
X129468571Y-88447619D01*
X129516190Y-88542857D01*
X129516190Y-88923809D01*
X129992380Y-87923809D02*
X128992380Y-87923809D01*
D13*
X130457380Y-103893809D02*
X129457380Y-103893809D01*
X130457380Y-103322380D02*
X129885952Y-103750952D01*
X129457380Y-103322380D02*
X130028809Y-103893809D01*
X130457380Y-102893809D02*
X129790714Y-102893809D01*
X129457380Y-102893809D02*
X129505000Y-102941428D01*
X129552619Y-102893809D01*
X129505000Y-102846190D01*
X129457380Y-102893809D01*
X129552619Y-102893809D01*
X130457380Y-102274761D02*
X130409761Y-102370000D01*
X130314523Y-102417619D01*
X129457380Y-102417619D01*
X130457380Y-101750952D02*
X130409761Y-101846190D01*
X130314523Y-101893809D01*
X129457380Y-101893809D01*
X131067380Y-105036666D02*
X131781666Y-105036666D01*
X131924523Y-105084285D01*
X132019761Y-105179523D01*
X132067380Y-105322380D01*
X132067380Y-105417619D01*
X131400714Y-104131904D02*
X132067380Y-104131904D01*
X131400714Y-104560476D02*
X131924523Y-104560476D01*
X132019761Y-104512857D01*
X132067380Y-104417619D01*
X132067380Y-104274761D01*
X132019761Y-104179523D01*
X131972142Y-104131904D01*
X132067380Y-103655714D02*
X131400714Y-103655714D01*
X131495952Y-103655714D02*
X131448333Y-103608095D01*
X131400714Y-103512857D01*
X131400714Y-103370000D01*
X131448333Y-103274761D01*
X131543571Y-103227142D01*
X132067380Y-103227142D01*
X131543571Y-103227142D02*
X131448333Y-103179523D01*
X131400714Y-103084285D01*
X131400714Y-102941428D01*
X131448333Y-102846190D01*
X131543571Y-102798571D01*
X132067380Y-102798571D01*
X131400714Y-102322380D02*
X132400714Y-102322380D01*
X131448333Y-102322380D02*
X131400714Y-102227142D01*
X131400714Y-102036666D01*
X131448333Y-101941428D01*
X131495952Y-101893809D01*
X131591190Y-101846190D01*
X131876904Y-101846190D01*
X131972142Y-101893809D01*
X132019761Y-101941428D01*
X132067380Y-102036666D01*
X132067380Y-102227142D01*
X132019761Y-102322380D01*
X132019761Y-101036666D02*
X132067380Y-101131904D01*
X132067380Y-101322380D01*
X132019761Y-101417619D01*
X131924523Y-101465238D01*
X131543571Y-101465238D01*
X131448333Y-101417619D01*
X131400714Y-101322380D01*
X131400714Y-101131904D01*
X131448333Y-101036666D01*
X131543571Y-100989047D01*
X131638809Y-100989047D01*
X131734047Y-101465238D01*
X132067380Y-100560476D02*
X131400714Y-100560476D01*
X131591190Y-100560476D02*
X131495952Y-100512857D01*
X131448333Y-100465238D01*
X131400714Y-100370000D01*
X131400714Y-100274761D01*
D11*
X137882380Y-126063333D02*
X138596666Y-126063333D01*
X138739523Y-126110952D01*
X138834761Y-126206190D01*
X138882380Y-126349047D01*
X138882380Y-126444285D01*
X137882380Y-125682380D02*
X137882380Y-125063333D01*
X138263333Y-125396666D01*
X138263333Y-125253809D01*
X138310952Y-125158571D01*
X138358571Y-125110952D01*
X138453809Y-125063333D01*
X138691904Y-125063333D01*
X138787142Y-125110952D01*
X138834761Y-125158571D01*
X138882380Y-125253809D01*
X138882380Y-125539523D01*
X138834761Y-125634761D01*
X138787142Y-125682380D01*
X137882380Y-104473333D02*
X138596666Y-104473333D01*
X138739523Y-104520952D01*
X138834761Y-104616190D01*
X138882380Y-104759047D01*
X138882380Y-104854285D01*
X138215714Y-103568571D02*
X138882380Y-103568571D01*
X137834761Y-103806666D02*
X138549047Y-104044761D01*
X138549047Y-103425714D01*
D14*
X124049285Y-103495000D02*
X124585000Y-103495000D01*
X124692142Y-103530714D01*
X124763571Y-103602142D01*
X124799285Y-103709285D01*
X124799285Y-103780714D01*
X124799285Y-103137857D02*
X124049285Y-103137857D01*
X124049285Y-102852142D01*
X124085000Y-102780714D01*
X124120714Y-102745000D01*
X124192142Y-102709285D01*
X124299285Y-102709285D01*
X124370714Y-102745000D01*
X124406428Y-102780714D01*
X124442142Y-102852142D01*
X124442142Y-103137857D01*
X124799285Y-101995000D02*
X124799285Y-102423571D01*
X124799285Y-102209285D02*
X124049285Y-102209285D01*
X124156428Y-102280714D01*
X124227857Y-102352142D01*
X124263571Y-102423571D01*
D11*
X142875000Y-127635000D02*
X133985000Y-127635000D01*
X133985000Y-115420000D02*
X133985000Y-107315000D01*
X142875000Y-117475000D02*
X142875000Y-107315000D01*
X133985000Y-127635000D02*
X133985000Y-119530000D01*
X142875000Y-117475000D02*
X142875000Y-127635000D01*
X133985000Y-107315000D02*
X142875000Y-107315000D01*
X142875000Y-95885000D02*
X142875000Y-85725000D01*
X142875000Y-95885000D02*
X142875000Y-106045000D01*
X133985000Y-93830000D02*
X133985000Y-85725000D01*
X133985000Y-106045000D02*
X133985000Y-97940000D01*
X142875000Y-106045000D02*
X133985000Y-106045000D01*
X133985000Y-85725000D02*
X142875000Y-85725000D01*
D14*
X126300000Y-101870000D02*
X127700000Y-101870000D01*
X125600000Y-103170000D02*
X125600000Y-102570000D01*
X127700000Y-103870000D02*
X126300000Y-103870000D01*
X128400000Y-102570000D02*
X128400000Y-103170000D01*
X125600000Y-103170000D02*
G75*
G03*
X126300000Y-103870000I699999J-1D01*
G01*
X128400000Y-102570000D02*
G75*
G03*
X127700000Y-101870000I-699999J1D01*
G01*
X127700000Y-103870000D02*
G75*
G03*
X128400000Y-103170000I1J699999D01*
G01*
X126300000Y-101870000D02*
G75*
G03*
X125600000Y-102570000I-1J-699999D01*
G01*
M02*
