G04 #@! TF.GenerationSoftware,KiCad,Pcbnew,(6.0.0)*
G04 #@! TF.CreationDate,2022-04-24T11:32:36-04:00*
G04 #@! TF.ProjectId,SKR-Mini_Screen,534b522d-4d69-46e6-995f-53637265656e,rev?*
G04 #@! TF.SameCoordinates,Original*
G04 #@! TF.FileFunction,Legend,Bot*
G04 #@! TF.FilePolarity,Positive*
%FSLAX46Y46*%
G04 Gerber Fmt 4.6, Leading zero omitted, Abs format (unit mm)*
G04 Created by KiCad (PCBNEW (6.0.0)) date 2022-04-24 11:32:36*
%MOMM*%
%LPD*%
G01*
G04 APERTURE LIST*
%ADD10C,0.150000*%
%ADD11C,0.200000*%
%ADD12C,0.120000*%
%ADD13C,0.010000*%
G04 APERTURE END LIST*
D10*
X126714285Y-91892380D02*
X127285714Y-91892380D01*
X127000000Y-91892380D02*
X127000000Y-90892380D01*
X127095238Y-91035238D01*
X127190476Y-91130476D01*
X127285714Y-91178095D01*
D11*
X143962380Y-87846666D02*
X142962380Y-87846666D01*
X143962380Y-88275238D02*
X143438571Y-88275238D01*
X143343333Y-88227619D01*
X143295714Y-88132380D01*
X143295714Y-87989523D01*
X143343333Y-87894285D01*
X143390952Y-87846666D01*
X143295714Y-88608571D02*
X143295714Y-88989523D01*
X142962380Y-88751428D02*
X143819523Y-88751428D01*
X143914761Y-88799047D01*
X143962380Y-88894285D01*
X143962380Y-88989523D01*
X143295714Y-89180000D02*
X143295714Y-89560952D01*
X142962380Y-89322857D02*
X143819523Y-89322857D01*
X143914761Y-89370476D01*
X143962380Y-89465714D01*
X143962380Y-89560952D01*
X143295714Y-89894285D02*
X144295714Y-89894285D01*
X143343333Y-89894285D02*
X143295714Y-89989523D01*
X143295714Y-90180000D01*
X143343333Y-90275238D01*
X143390952Y-90322857D01*
X143486190Y-90370476D01*
X143771904Y-90370476D01*
X143867142Y-90322857D01*
X143914761Y-90275238D01*
X143962380Y-90180000D01*
X143962380Y-89989523D01*
X143914761Y-89894285D01*
X143914761Y-90751428D02*
X143962380Y-90846666D01*
X143962380Y-91037142D01*
X143914761Y-91132380D01*
X143819523Y-91180000D01*
X143771904Y-91180000D01*
X143676666Y-91132380D01*
X143629047Y-91037142D01*
X143629047Y-90894285D01*
X143581428Y-90799047D01*
X143486190Y-90751428D01*
X143438571Y-90751428D01*
X143343333Y-90799047D01*
X143295714Y-90894285D01*
X143295714Y-91037142D01*
X143343333Y-91132380D01*
X143867142Y-91608571D02*
X143914761Y-91656190D01*
X143962380Y-91608571D01*
X143914761Y-91560952D01*
X143867142Y-91608571D01*
X143962380Y-91608571D01*
X143343333Y-91608571D02*
X143390952Y-91656190D01*
X143438571Y-91608571D01*
X143390952Y-91560952D01*
X143343333Y-91608571D01*
X143438571Y-91608571D01*
X142914761Y-92799047D02*
X144200476Y-91941904D01*
X142914761Y-93846666D02*
X144200476Y-92989523D01*
X143295714Y-94608571D02*
X144105238Y-94608571D01*
X144200476Y-94560952D01*
X144248095Y-94513333D01*
X144295714Y-94418095D01*
X144295714Y-94275238D01*
X144248095Y-94180000D01*
X143914761Y-94608571D02*
X143962380Y-94513333D01*
X143962380Y-94322857D01*
X143914761Y-94227619D01*
X143867142Y-94180000D01*
X143771904Y-94132380D01*
X143486190Y-94132380D01*
X143390952Y-94180000D01*
X143343333Y-94227619D01*
X143295714Y-94322857D01*
X143295714Y-94513333D01*
X143343333Y-94608571D01*
X143962380Y-95084761D02*
X143295714Y-95084761D01*
X142962380Y-95084761D02*
X143010000Y-95037142D01*
X143057619Y-95084761D01*
X143010000Y-95132380D01*
X142962380Y-95084761D01*
X143057619Y-95084761D01*
X143295714Y-95418095D02*
X143295714Y-95799047D01*
X142962380Y-95560952D02*
X143819523Y-95560952D01*
X143914761Y-95608571D01*
X143962380Y-95703809D01*
X143962380Y-95799047D01*
X143962380Y-96132380D02*
X142962380Y-96132380D01*
X143962380Y-96560952D02*
X143438571Y-96560952D01*
X143343333Y-96513333D01*
X143295714Y-96418095D01*
X143295714Y-96275238D01*
X143343333Y-96180000D01*
X143390952Y-96132380D01*
X143295714Y-97465714D02*
X143962380Y-97465714D01*
X143295714Y-97037142D02*
X143819523Y-97037142D01*
X143914761Y-97084761D01*
X143962380Y-97180000D01*
X143962380Y-97322857D01*
X143914761Y-97418095D01*
X143867142Y-97465714D01*
X143962380Y-97941904D02*
X142962380Y-97941904D01*
X143343333Y-97941904D02*
X143295714Y-98037142D01*
X143295714Y-98227619D01*
X143343333Y-98322857D01*
X143390952Y-98370476D01*
X143486190Y-98418095D01*
X143771904Y-98418095D01*
X143867142Y-98370476D01*
X143914761Y-98322857D01*
X143962380Y-98227619D01*
X143962380Y-98037142D01*
X143914761Y-97941904D01*
X143867142Y-98846666D02*
X143914761Y-98894285D01*
X143962380Y-98846666D01*
X143914761Y-98799047D01*
X143867142Y-98846666D01*
X143962380Y-98846666D01*
X143914761Y-99751428D02*
X143962380Y-99656190D01*
X143962380Y-99465714D01*
X143914761Y-99370476D01*
X143867142Y-99322857D01*
X143771904Y-99275238D01*
X143486190Y-99275238D01*
X143390952Y-99322857D01*
X143343333Y-99370476D01*
X143295714Y-99465714D01*
X143295714Y-99656190D01*
X143343333Y-99751428D01*
X143962380Y-100322857D02*
X143914761Y-100227619D01*
X143867142Y-100180000D01*
X143771904Y-100132380D01*
X143486190Y-100132380D01*
X143390952Y-100180000D01*
X143343333Y-100227619D01*
X143295714Y-100322857D01*
X143295714Y-100465714D01*
X143343333Y-100560952D01*
X143390952Y-100608571D01*
X143486190Y-100656190D01*
X143771904Y-100656190D01*
X143867142Y-100608571D01*
X143914761Y-100560952D01*
X143962380Y-100465714D01*
X143962380Y-100322857D01*
X143962380Y-101084761D02*
X143295714Y-101084761D01*
X143390952Y-101084761D02*
X143343333Y-101132380D01*
X143295714Y-101227619D01*
X143295714Y-101370476D01*
X143343333Y-101465714D01*
X143438571Y-101513333D01*
X143962380Y-101513333D01*
X143438571Y-101513333D02*
X143343333Y-101560952D01*
X143295714Y-101656190D01*
X143295714Y-101799047D01*
X143343333Y-101894285D01*
X143438571Y-101941904D01*
X143962380Y-101941904D01*
X142914761Y-103132380D02*
X144200476Y-102275238D01*
X142962380Y-103322857D02*
X143962380Y-103656190D01*
X142962380Y-103989523D01*
X143962380Y-104465714D02*
X143914761Y-104370476D01*
X143867142Y-104322857D01*
X143771904Y-104275238D01*
X143486190Y-104275238D01*
X143390952Y-104322857D01*
X143343333Y-104370476D01*
X143295714Y-104465714D01*
X143295714Y-104608571D01*
X143343333Y-104703809D01*
X143390952Y-104751428D01*
X143486190Y-104799047D01*
X143771904Y-104799047D01*
X143867142Y-104751428D01*
X143914761Y-104703809D01*
X143962380Y-104608571D01*
X143962380Y-104465714D01*
X143962380Y-105227619D02*
X143295714Y-105227619D01*
X143486190Y-105227619D02*
X143390952Y-105275238D01*
X143343333Y-105322857D01*
X143295714Y-105418095D01*
X143295714Y-105513333D01*
X143962380Y-105989523D02*
X143914761Y-105894285D01*
X143867142Y-105846666D01*
X143771904Y-105799047D01*
X143486190Y-105799047D01*
X143390952Y-105846666D01*
X143343333Y-105894285D01*
X143295714Y-105989523D01*
X143295714Y-106132380D01*
X143343333Y-106227619D01*
X143390952Y-106275238D01*
X143486190Y-106322857D01*
X143771904Y-106322857D01*
X143867142Y-106275238D01*
X143914761Y-106227619D01*
X143962380Y-106132380D01*
X143962380Y-105989523D01*
X143295714Y-106751428D02*
X143962380Y-106751428D01*
X143390952Y-106751428D02*
X143343333Y-106799047D01*
X143295714Y-106894285D01*
X143295714Y-107037142D01*
X143343333Y-107132380D01*
X143438571Y-107180000D01*
X143962380Y-107180000D01*
X143962380Y-107656190D02*
X142962380Y-107656190D01*
X142962380Y-107894285D01*
X143010000Y-108037142D01*
X143105238Y-108132380D01*
X143200476Y-108180000D01*
X143390952Y-108227619D01*
X143533809Y-108227619D01*
X143724285Y-108180000D01*
X143819523Y-108132380D01*
X143914761Y-108037142D01*
X143962380Y-107894285D01*
X143962380Y-107656190D01*
X143914761Y-109037142D02*
X143962380Y-108941904D01*
X143962380Y-108751428D01*
X143914761Y-108656190D01*
X143819523Y-108608571D01*
X143438571Y-108608571D01*
X143343333Y-108656190D01*
X143295714Y-108751428D01*
X143295714Y-108941904D01*
X143343333Y-109037142D01*
X143438571Y-109084761D01*
X143533809Y-109084761D01*
X143629047Y-108608571D01*
X143914761Y-109465714D02*
X143962380Y-109560952D01*
X143962380Y-109751428D01*
X143914761Y-109846666D01*
X143819523Y-109894285D01*
X143771904Y-109894285D01*
X143676666Y-109846666D01*
X143629047Y-109751428D01*
X143629047Y-109608571D01*
X143581428Y-109513333D01*
X143486190Y-109465714D01*
X143438571Y-109465714D01*
X143343333Y-109513333D01*
X143295714Y-109608571D01*
X143295714Y-109751428D01*
X143343333Y-109846666D01*
X143962380Y-110322857D02*
X143295714Y-110322857D01*
X142962380Y-110322857D02*
X143010000Y-110275238D01*
X143057619Y-110322857D01*
X143010000Y-110370476D01*
X142962380Y-110322857D01*
X143057619Y-110322857D01*
X143295714Y-111227619D02*
X144105238Y-111227619D01*
X144200476Y-111180000D01*
X144248095Y-111132380D01*
X144295714Y-111037142D01*
X144295714Y-110894285D01*
X144248095Y-110799047D01*
X143914761Y-111227619D02*
X143962380Y-111132380D01*
X143962380Y-110941904D01*
X143914761Y-110846666D01*
X143867142Y-110799047D01*
X143771904Y-110751428D01*
X143486190Y-110751428D01*
X143390952Y-110799047D01*
X143343333Y-110846666D01*
X143295714Y-110941904D01*
X143295714Y-111132380D01*
X143343333Y-111227619D01*
X143295714Y-111703809D02*
X143962380Y-111703809D01*
X143390952Y-111703809D02*
X143343333Y-111751428D01*
X143295714Y-111846666D01*
X143295714Y-111989523D01*
X143343333Y-112084761D01*
X143438571Y-112132380D01*
X143962380Y-112132380D01*
X142914761Y-113322857D02*
X144200476Y-112465714D01*
X142962380Y-113513333D02*
X143962380Y-113846666D01*
X142962380Y-114180000D01*
X143962380Y-114656190D02*
X143914761Y-114560952D01*
X143867142Y-114513333D01*
X143771904Y-114465714D01*
X143486190Y-114465714D01*
X143390952Y-114513333D01*
X143343333Y-114560952D01*
X143295714Y-114656190D01*
X143295714Y-114799047D01*
X143343333Y-114894285D01*
X143390952Y-114941904D01*
X143486190Y-114989523D01*
X143771904Y-114989523D01*
X143867142Y-114941904D01*
X143914761Y-114894285D01*
X143962380Y-114799047D01*
X143962380Y-114656190D01*
X143962380Y-115418095D02*
X143295714Y-115418095D01*
X143486190Y-115418095D02*
X143390952Y-115465714D01*
X143343333Y-115513333D01*
X143295714Y-115608571D01*
X143295714Y-115703809D01*
X143962380Y-116179999D02*
X143914761Y-116084761D01*
X143867142Y-116037142D01*
X143771904Y-115989523D01*
X143486190Y-115989523D01*
X143390952Y-116037142D01*
X143343333Y-116084761D01*
X143295714Y-116179999D01*
X143295714Y-116322857D01*
X143343333Y-116418095D01*
X143390952Y-116465714D01*
X143486190Y-116513333D01*
X143771904Y-116513333D01*
X143867142Y-116465714D01*
X143914761Y-116418095D01*
X143962380Y-116322857D01*
X143962380Y-116179999D01*
X143295714Y-116941904D02*
X143962380Y-116941904D01*
X143390952Y-116941904D02*
X143343333Y-116989523D01*
X143295714Y-117084761D01*
X143295714Y-117227619D01*
X143343333Y-117322857D01*
X143438571Y-117370476D01*
X143962380Y-117370476D01*
X143581428Y-117846666D02*
X143581428Y-118608571D01*
X143962380Y-119084761D02*
X142962380Y-119084761D01*
X143438571Y-119084761D02*
X143438571Y-119656190D01*
X143962380Y-119656190D02*
X142962380Y-119656190D01*
X143962380Y-120560952D02*
X143438571Y-120560952D01*
X143343333Y-120513333D01*
X143295714Y-120418095D01*
X143295714Y-120227619D01*
X143343333Y-120132380D01*
X143914761Y-120560952D02*
X143962380Y-120465714D01*
X143962380Y-120227619D01*
X143914761Y-120132380D01*
X143819523Y-120084761D01*
X143724285Y-120084761D01*
X143629047Y-120132380D01*
X143581428Y-120227619D01*
X143581428Y-120465714D01*
X143533809Y-120560952D01*
X143962380Y-121037142D02*
X143295714Y-121037142D01*
X143486190Y-121037142D02*
X143390952Y-121084761D01*
X143343333Y-121132380D01*
X143295714Y-121227619D01*
X143295714Y-121322857D01*
X143962380Y-122084761D02*
X142962380Y-122084761D01*
X143914761Y-122084761D02*
X143962380Y-121989523D01*
X143962380Y-121799047D01*
X143914761Y-121703809D01*
X143867142Y-121656190D01*
X143771904Y-121608571D01*
X143486190Y-121608571D01*
X143390952Y-121656190D01*
X143343333Y-121703809D01*
X143295714Y-121799047D01*
X143295714Y-121989523D01*
X143343333Y-122084761D01*
X143295714Y-122465714D02*
X143962380Y-122656190D01*
X143486190Y-122846666D01*
X143962380Y-123037142D01*
X143295714Y-123227619D01*
X143962380Y-124037142D02*
X143438571Y-124037142D01*
X143343333Y-123989523D01*
X143295714Y-123894285D01*
X143295714Y-123703809D01*
X143343333Y-123608571D01*
X143914761Y-124037142D02*
X143962380Y-123941904D01*
X143962380Y-123703809D01*
X143914761Y-123608571D01*
X143819523Y-123560952D01*
X143724285Y-123560952D01*
X143629047Y-123608571D01*
X143581428Y-123703809D01*
X143581428Y-123941904D01*
X143533809Y-124037142D01*
X143962380Y-124513333D02*
X143295714Y-124513333D01*
X143486190Y-124513333D02*
X143390952Y-124560952D01*
X143343333Y-124608571D01*
X143295714Y-124703809D01*
X143295714Y-124799047D01*
X143914761Y-125513333D02*
X143962380Y-125418095D01*
X143962380Y-125227619D01*
X143914761Y-125132380D01*
X143819523Y-125084761D01*
X143438571Y-125084761D01*
X143343333Y-125132380D01*
X143295714Y-125227619D01*
X143295714Y-125418095D01*
X143343333Y-125513333D01*
X143438571Y-125560952D01*
X143533809Y-125560952D01*
X143629047Y-125084761D01*
X132167380Y-100132380D02*
X132167380Y-100703809D01*
X133167380Y-100418095D02*
X132167380Y-100418095D01*
X133072142Y-101037142D02*
X133119761Y-101084761D01*
X133167380Y-101037142D01*
X133119761Y-100989523D01*
X133072142Y-101037142D01*
X133167380Y-101037142D01*
X132881666Y-102227619D02*
X132881666Y-102703809D01*
X133167380Y-102132380D02*
X132167380Y-102465714D01*
X133167380Y-102799047D01*
X133167380Y-103132380D02*
X132167380Y-103132380D01*
X132548333Y-103132380D02*
X132500714Y-103227619D01*
X132500714Y-103418095D01*
X132548333Y-103513333D01*
X132595952Y-103560952D01*
X132691190Y-103608571D01*
X132976904Y-103608571D01*
X133072142Y-103560952D01*
X133119761Y-103513333D01*
X133167380Y-103418095D01*
X133167380Y-103227619D01*
X133119761Y-103132380D01*
X133167380Y-104037142D02*
X132500714Y-104037142D01*
X132691190Y-104037142D02*
X132595952Y-104084761D01*
X132548333Y-104132380D01*
X132500714Y-104227619D01*
X132500714Y-104322857D01*
X133167380Y-105084761D02*
X132643571Y-105084761D01*
X132548333Y-105037142D01*
X132500714Y-104941904D01*
X132500714Y-104751428D01*
X132548333Y-104656190D01*
X133119761Y-105084761D02*
X133167380Y-104989523D01*
X133167380Y-104751428D01*
X133119761Y-104656190D01*
X133024523Y-104608571D01*
X132929285Y-104608571D01*
X132834047Y-104656190D01*
X132786428Y-104751428D01*
X132786428Y-104989523D01*
X132738809Y-105084761D01*
X133167380Y-105560952D02*
X132167380Y-105560952D01*
X133167380Y-105989523D02*
X132643571Y-105989523D01*
X132548333Y-105941904D01*
X132500714Y-105846666D01*
X132500714Y-105703809D01*
X132548333Y-105608571D01*
X132595952Y-105560952D01*
X133167380Y-106894285D02*
X132643571Y-106894285D01*
X132548333Y-106846666D01*
X132500714Y-106751428D01*
X132500714Y-106560952D01*
X132548333Y-106465714D01*
X133119761Y-106894285D02*
X133167380Y-106799047D01*
X133167380Y-106560952D01*
X133119761Y-106465714D01*
X133024523Y-106418095D01*
X132929285Y-106418095D01*
X132834047Y-106465714D01*
X132786428Y-106560952D01*
X132786428Y-106799047D01*
X132738809Y-106894285D01*
X133167380Y-107370476D02*
X132500714Y-107370476D01*
X132595952Y-107370476D02*
X132548333Y-107418095D01*
X132500714Y-107513333D01*
X132500714Y-107656190D01*
X132548333Y-107751428D01*
X132643571Y-107799047D01*
X133167380Y-107799047D01*
X132643571Y-107799047D02*
X132548333Y-107846666D01*
X132500714Y-107941904D01*
X132500714Y-108084761D01*
X132548333Y-108180000D01*
X132643571Y-108227619D01*
X133167380Y-108227619D01*
X133167380Y-110037142D02*
X132691190Y-109703809D01*
X133167380Y-109465714D02*
X132167380Y-109465714D01*
X132167380Y-109846666D01*
X132215000Y-109941904D01*
X132262619Y-109989523D01*
X132357857Y-110037142D01*
X132500714Y-110037142D01*
X132595952Y-109989523D01*
X132643571Y-109941904D01*
X132691190Y-109846666D01*
X132691190Y-109465714D01*
X133119761Y-110846666D02*
X133167380Y-110751428D01*
X133167380Y-110560952D01*
X133119761Y-110465714D01*
X133024523Y-110418095D01*
X132643571Y-110418095D01*
X132548333Y-110465714D01*
X132500714Y-110560952D01*
X132500714Y-110751428D01*
X132548333Y-110846666D01*
X132643571Y-110894285D01*
X132738809Y-110894285D01*
X132834047Y-110418095D01*
X132500714Y-111227619D02*
X133167380Y-111465714D01*
X132500714Y-111703809D01*
X133072142Y-112084761D02*
X133119761Y-112132380D01*
X133167380Y-112084761D01*
X133119761Y-112037142D01*
X133072142Y-112084761D01*
X133167380Y-112084761D01*
X132548333Y-112084761D02*
X132595952Y-112132380D01*
X132643571Y-112084761D01*
X132595952Y-112037142D01*
X132548333Y-112084761D01*
X132643571Y-112084761D01*
X132643571Y-112894285D02*
X132691190Y-113037142D01*
X132738809Y-113084761D01*
X132834047Y-113132380D01*
X132976904Y-113132380D01*
X133072142Y-113084761D01*
X133119761Y-113037142D01*
X133167380Y-112941904D01*
X133167380Y-112560952D01*
X132167380Y-112560952D01*
X132167380Y-112894285D01*
X132215000Y-112989523D01*
X132262619Y-113037142D01*
X132357857Y-113084761D01*
X132453095Y-113084761D01*
X132548333Y-113037142D01*
X132595952Y-112989523D01*
X132643571Y-112894285D01*
X132643571Y-112560952D01*
D10*
X125444285Y-104592380D02*
X126015714Y-104592380D01*
X125730000Y-104592380D02*
X125730000Y-103592380D01*
X125825238Y-103735238D01*
X125920476Y-103830476D01*
X126015714Y-103878095D01*
X127333333Y-118832380D02*
X127333333Y-119546666D01*
X127380952Y-119689523D01*
X127476190Y-119784761D01*
X127619047Y-119832380D01*
X127714285Y-119832380D01*
X126333333Y-119832380D02*
X126904761Y-119832380D01*
X126619047Y-119832380D02*
X126619047Y-118832380D01*
X126714285Y-118975238D01*
X126809523Y-119070476D01*
X126904761Y-119118095D01*
X128781333Y-88974380D02*
X128781333Y-89688666D01*
X128828952Y-89831523D01*
X128924190Y-89926761D01*
X129067047Y-89974380D01*
X129162285Y-89974380D01*
X128352761Y-89069619D02*
X128305142Y-89022000D01*
X128209904Y-88974380D01*
X127971809Y-88974380D01*
X127876571Y-89022000D01*
X127828952Y-89069619D01*
X127781333Y-89164857D01*
X127781333Y-89260095D01*
X127828952Y-89402952D01*
X128400380Y-89974380D01*
X127781333Y-89974380D01*
D12*
X129600000Y-118170000D02*
X124400000Y-118170000D01*
X125730000Y-105350000D02*
X124400000Y-105350000D01*
X127000000Y-107950000D02*
X124400000Y-107950000D01*
X124400000Y-105350000D02*
X124400000Y-106680000D01*
X127000000Y-105350000D02*
X127000000Y-107950000D01*
X124400000Y-107950000D02*
X124400000Y-118170000D01*
X129600000Y-105350000D02*
X129600000Y-118170000D01*
X129600000Y-105350000D02*
X127000000Y-105350000D01*
X128448000Y-93562000D02*
X125848000Y-93562000D01*
X128448000Y-90962000D02*
X128448000Y-93562000D01*
X127178000Y-90962000D02*
X125848000Y-90962000D01*
X125848000Y-90962000D02*
X125848000Y-92292000D01*
X131048000Y-90962000D02*
X131048000Y-101242000D01*
X131048000Y-101242000D02*
X125848000Y-101242000D01*
X131048000Y-90962000D02*
X128448000Y-90962000D01*
X125848000Y-93562000D02*
X125848000Y-101242000D01*
D13*
X136780150Y-109448600D02*
X140079849Y-109448600D01*
X140079849Y-109448600D02*
X140880524Y-108059308D01*
X140880524Y-108059308D02*
X141076185Y-107719339D01*
X141076185Y-107719339D02*
X141254267Y-107409012D01*
X141254267Y-107409012D02*
X141408754Y-107138882D01*
X141408754Y-107138882D02*
X141533630Y-106919505D01*
X141533630Y-106919505D02*
X141622877Y-106761439D01*
X141622877Y-106761439D02*
X141670478Y-106675239D01*
X141670478Y-106675239D02*
X141676770Y-106662308D01*
X141676770Y-106662308D02*
X141651166Y-106618181D01*
X141651166Y-106618181D02*
X141580713Y-106496791D01*
X141580713Y-106496791D02*
X141471566Y-106308745D01*
X141471566Y-106308745D02*
X141329881Y-106064649D01*
X141329881Y-106064649D02*
X141161815Y-105775109D01*
X141161815Y-105775109D02*
X140973525Y-105450731D01*
X140973525Y-105450731D02*
X140876162Y-105283000D01*
X140876162Y-105283000D02*
X140164876Y-104057648D01*
X140164876Y-104057648D02*
X140164876Y-105113666D01*
X140164876Y-105113666D02*
X140184402Y-105152441D01*
X140184402Y-105152441D02*
X140199187Y-105270479D01*
X140199187Y-105270479D02*
X140206891Y-105445467D01*
X140206891Y-105445467D02*
X140207479Y-105520066D01*
X140207479Y-105520066D02*
X140206959Y-105943400D01*
X140206959Y-105943400D02*
X140185076Y-105957821D01*
X140185076Y-105957821D02*
X140185076Y-106680000D01*
X140185076Y-106680000D02*
X140195563Y-106726850D01*
X140195563Y-106726850D02*
X140203500Y-106851616D01*
X140203500Y-106851616D02*
X140207596Y-107030623D01*
X140207596Y-107030623D02*
X140207886Y-107099100D01*
X140207886Y-107099100D02*
X140207772Y-107518200D01*
X140207772Y-107518200D02*
X139464043Y-108000800D01*
X139464043Y-108000800D02*
X139209678Y-108165838D01*
X139209678Y-108165838D02*
X138975166Y-108317963D01*
X138975166Y-108317963D02*
X138777951Y-108445863D01*
X138777951Y-108445863D02*
X138635476Y-108538223D01*
X138635476Y-108538223D02*
X138575156Y-108577288D01*
X138575156Y-108577288D02*
X138430000Y-108671177D01*
X138430000Y-108671177D02*
X138430000Y-107809093D01*
X138430000Y-107809093D02*
X139296076Y-107244546D01*
X139296076Y-107244546D02*
X139558735Y-107074034D01*
X139558735Y-107074034D02*
X139791619Y-106924186D01*
X139791619Y-106924186D02*
X139981683Y-106803286D01*
X139981683Y-106803286D02*
X140115882Y-106719618D01*
X140115882Y-106719618D02*
X140181172Y-106681465D01*
X140181172Y-106681465D02*
X140185076Y-106680000D01*
X140185076Y-106680000D02*
X140185076Y-105957821D01*
X140185076Y-105957821D02*
X138472603Y-107086400D01*
X138472603Y-107086400D02*
X138096432Y-107334036D01*
X138096432Y-107334036D02*
X137746255Y-107564037D01*
X137746255Y-107564037D02*
X137431238Y-107770420D01*
X137431238Y-107770420D02*
X137160551Y-107947202D01*
X137160551Y-107947202D02*
X136943361Y-108088399D01*
X136943361Y-108088399D02*
X136788837Y-108188029D01*
X136788837Y-108188029D02*
X136706148Y-108240108D01*
X136706148Y-108240108D02*
X136695123Y-108246333D01*
X136695123Y-108246333D02*
X136675597Y-108207558D01*
X136675597Y-108207558D02*
X136660812Y-108089520D01*
X136660812Y-108089520D02*
X136653108Y-107914532D01*
X136653108Y-107914532D02*
X136652520Y-107839933D01*
X136652520Y-107839933D02*
X136653040Y-107416600D01*
X136653040Y-107416600D02*
X138387396Y-106273600D01*
X138387396Y-106273600D02*
X138763567Y-106025963D01*
X138763567Y-106025963D02*
X139113744Y-105795962D01*
X139113744Y-105795962D02*
X139428761Y-105589579D01*
X139428761Y-105589579D02*
X139699448Y-105412797D01*
X139699448Y-105412797D02*
X139916638Y-105271600D01*
X139916638Y-105271600D02*
X140071162Y-105171970D01*
X140071162Y-105171970D02*
X140153851Y-105119891D01*
X140153851Y-105119891D02*
X140164876Y-105113666D01*
X140164876Y-105113666D02*
X140164876Y-104057648D01*
X140164876Y-104057648D02*
X140079983Y-103911400D01*
X140079983Y-103911400D02*
X138430000Y-103911400D01*
X138430000Y-103911400D02*
X138430000Y-104688822D01*
X138430000Y-104688822D02*
X138430000Y-105550906D01*
X138430000Y-105550906D02*
X137563923Y-106115453D01*
X137563923Y-106115453D02*
X137301264Y-106285965D01*
X137301264Y-106285965D02*
X137068380Y-106435813D01*
X137068380Y-106435813D02*
X136878316Y-106556713D01*
X136878316Y-106556713D02*
X136744117Y-106640381D01*
X136744117Y-106640381D02*
X136678827Y-106678534D01*
X136678827Y-106678534D02*
X136674923Y-106680000D01*
X136674923Y-106680000D02*
X136664436Y-106633149D01*
X136664436Y-106633149D02*
X136656499Y-106508383D01*
X136656499Y-106508383D02*
X136652403Y-106329376D01*
X136652403Y-106329376D02*
X136652113Y-106260900D01*
X136652113Y-106260900D02*
X136652227Y-105841800D01*
X136652227Y-105841800D02*
X137395956Y-105359200D01*
X137395956Y-105359200D02*
X137650321Y-105194161D01*
X137650321Y-105194161D02*
X137884833Y-105042036D01*
X137884833Y-105042036D02*
X138082048Y-104914136D01*
X138082048Y-104914136D02*
X138224523Y-104821776D01*
X138224523Y-104821776D02*
X138284843Y-104782711D01*
X138284843Y-104782711D02*
X138430000Y-104688822D01*
X138430000Y-104688822D02*
X138430000Y-103911400D01*
X138430000Y-103911400D02*
X136780150Y-103911400D01*
X136780150Y-103911400D02*
X135184552Y-106680000D01*
X135184552Y-106680000D02*
X136780150Y-109448600D01*
X136780150Y-109448600D02*
X136780150Y-109448600D01*
G36*
X140973525Y-105450731D02*
G01*
X141161815Y-105775109D01*
X141329881Y-106064649D01*
X141471566Y-106308745D01*
X141580713Y-106496791D01*
X141651166Y-106618181D01*
X141676770Y-106662308D01*
X141670478Y-106675239D01*
X141622877Y-106761439D01*
X141533630Y-106919505D01*
X141408754Y-107138882D01*
X141254267Y-107409012D01*
X141076185Y-107719339D01*
X140880524Y-108059308D01*
X140079849Y-109448600D01*
X136780150Y-109448600D01*
X136332106Y-108671177D01*
X138430000Y-108671177D01*
X138575156Y-108577288D01*
X138635476Y-108538223D01*
X138777951Y-108445863D01*
X138975166Y-108317963D01*
X139209678Y-108165838D01*
X139464043Y-108000800D01*
X140207772Y-107518200D01*
X140207886Y-107099100D01*
X140207596Y-107030623D01*
X140203500Y-106851616D01*
X140195563Y-106726850D01*
X140185076Y-106680000D01*
X140181172Y-106681465D01*
X140115882Y-106719618D01*
X139981683Y-106803286D01*
X139791619Y-106924186D01*
X139558735Y-107074034D01*
X139296076Y-107244546D01*
X138430000Y-107809093D01*
X138430000Y-108671177D01*
X136332106Y-108671177D01*
X135853044Y-107839933D01*
X136652520Y-107839933D01*
X136653108Y-107914532D01*
X136660812Y-108089520D01*
X136675597Y-108207558D01*
X136695123Y-108246333D01*
X136706148Y-108240108D01*
X136788837Y-108188029D01*
X136943361Y-108088399D01*
X137160551Y-107947202D01*
X137431238Y-107770420D01*
X137746255Y-107564037D01*
X138096432Y-107334036D01*
X138472603Y-107086400D01*
X140185076Y-105957821D01*
X140206959Y-105943400D01*
X140207479Y-105520066D01*
X140206891Y-105445467D01*
X140199187Y-105270479D01*
X140184402Y-105152441D01*
X140164876Y-105113666D01*
X140153851Y-105119891D01*
X140071162Y-105171970D01*
X139916638Y-105271600D01*
X139699448Y-105412797D01*
X139428761Y-105589579D01*
X139113744Y-105795962D01*
X138763567Y-106025963D01*
X138387396Y-106273600D01*
X136653040Y-107416600D01*
X136652520Y-107839933D01*
X135853044Y-107839933D01*
X135184552Y-106680000D01*
X135426087Y-106260900D01*
X136652113Y-106260900D01*
X136652403Y-106329376D01*
X136656499Y-106508383D01*
X136664436Y-106633149D01*
X136674923Y-106680000D01*
X136678827Y-106678534D01*
X136744117Y-106640381D01*
X136878316Y-106556713D01*
X137068380Y-106435813D01*
X137301264Y-106285965D01*
X137563923Y-106115453D01*
X138430000Y-105550906D01*
X138430000Y-104688822D01*
X138284843Y-104782711D01*
X138224523Y-104821776D01*
X138082048Y-104914136D01*
X137884833Y-105042036D01*
X137650321Y-105194161D01*
X137395956Y-105359200D01*
X136652227Y-105841800D01*
X136652113Y-106260900D01*
X135426087Y-106260900D01*
X136780150Y-103911400D01*
X140079983Y-103911400D01*
X140164876Y-104057648D01*
X140876162Y-105283000D01*
X140973525Y-105450731D01*
G37*
X140973525Y-105450731D02*
X141161815Y-105775109D01*
X141329881Y-106064649D01*
X141471566Y-106308745D01*
X141580713Y-106496791D01*
X141651166Y-106618181D01*
X141676770Y-106662308D01*
X141670478Y-106675239D01*
X141622877Y-106761439D01*
X141533630Y-106919505D01*
X141408754Y-107138882D01*
X141254267Y-107409012D01*
X141076185Y-107719339D01*
X140880524Y-108059308D01*
X140079849Y-109448600D01*
X136780150Y-109448600D01*
X136332106Y-108671177D01*
X138430000Y-108671177D01*
X138575156Y-108577288D01*
X138635476Y-108538223D01*
X138777951Y-108445863D01*
X138975166Y-108317963D01*
X139209678Y-108165838D01*
X139464043Y-108000800D01*
X140207772Y-107518200D01*
X140207886Y-107099100D01*
X140207596Y-107030623D01*
X140203500Y-106851616D01*
X140195563Y-106726850D01*
X140185076Y-106680000D01*
X140181172Y-106681465D01*
X140115882Y-106719618D01*
X139981683Y-106803286D01*
X139791619Y-106924186D01*
X139558735Y-107074034D01*
X139296076Y-107244546D01*
X138430000Y-107809093D01*
X138430000Y-108671177D01*
X136332106Y-108671177D01*
X135853044Y-107839933D01*
X136652520Y-107839933D01*
X136653108Y-107914532D01*
X136660812Y-108089520D01*
X136675597Y-108207558D01*
X136695123Y-108246333D01*
X136706148Y-108240108D01*
X136788837Y-108188029D01*
X136943361Y-108088399D01*
X137160551Y-107947202D01*
X137431238Y-107770420D01*
X137746255Y-107564037D01*
X138096432Y-107334036D01*
X138472603Y-107086400D01*
X140185076Y-105957821D01*
X140206959Y-105943400D01*
X140207479Y-105520066D01*
X140206891Y-105445467D01*
X140199187Y-105270479D01*
X140184402Y-105152441D01*
X140164876Y-105113666D01*
X140153851Y-105119891D01*
X140071162Y-105171970D01*
X139916638Y-105271600D01*
X139699448Y-105412797D01*
X139428761Y-105589579D01*
X139113744Y-105795962D01*
X138763567Y-106025963D01*
X138387396Y-106273600D01*
X136653040Y-107416600D01*
X136652520Y-107839933D01*
X135853044Y-107839933D01*
X135184552Y-106680000D01*
X135426087Y-106260900D01*
X136652113Y-106260900D01*
X136652403Y-106329376D01*
X136656499Y-106508383D01*
X136664436Y-106633149D01*
X136674923Y-106680000D01*
X136678827Y-106678534D01*
X136744117Y-106640381D01*
X136878316Y-106556713D01*
X137068380Y-106435813D01*
X137301264Y-106285965D01*
X137563923Y-106115453D01*
X138430000Y-105550906D01*
X138430000Y-104688822D01*
X138284843Y-104782711D01*
X138224523Y-104821776D01*
X138082048Y-104914136D01*
X137884833Y-105042036D01*
X137650321Y-105194161D01*
X137395956Y-105359200D01*
X136652227Y-105841800D01*
X136652113Y-106260900D01*
X135426087Y-106260900D01*
X136780150Y-103911400D01*
X140079983Y-103911400D01*
X140164876Y-104057648D01*
X140876162Y-105283000D01*
X140973525Y-105450731D01*
M02*
