G04 #@! TF.GenerationSoftware,KiCad,Pcbnew,(5.1.5)-3*
G04 #@! TF.CreationDate,2020-05-08T15:12:23-04:00*
G04 #@! TF.ProjectId,Hall_Effect_Endstop,48616c6c-5f45-4666-9665-63745f456e64,A*
G04 #@! TF.SameCoordinates,Original*
G04 #@! TF.FileFunction,Copper,L2,Bot*
G04 #@! TF.FilePolarity,Positive*
%FSLAX46Y46*%
G04 Gerber Fmt 4.6, Leading zero omitted, Abs format (unit mm)*
G04 Created by KiCad (PCBNEW (5.1.5)-3) date 2020-05-08 15:12:23*
%MOMM*%
%LPD*%
G04 APERTURE LIST*
%ADD10C,1.524000*%
%ADD11C,0.900000*%
%ADD12C,2.032000*%
%ADD13C,0.600000*%
%ADD14C,0.508000*%
%ADD15C,0.254000*%
G04 APERTURE END LIST*
D10*
X157900000Y-98250000D03*
X152900000Y-98250000D03*
X155400000Y-100750000D03*
X157900000Y-106350000D03*
X152900000Y-106350000D03*
X155400000Y-108850000D03*
D11*
X173230000Y-94500000D03*
X175770000Y-94500000D03*
X174500000Y-94500000D03*
X123500000Y-108250000D03*
X123500000Y-105710000D03*
X123500000Y-106980000D03*
D12*
X138790000Y-107900000D03*
X141330000Y-107900000D03*
X143870000Y-107900000D03*
X146410000Y-107900000D03*
D13*
X132050000Y-104200000D03*
X139100000Y-96700000D03*
X132900000Y-106300000D03*
X133100000Y-98300000D03*
X133100000Y-100300000D03*
X152300000Y-108300000D03*
X146000000Y-103900000D03*
X152200000Y-101200000D03*
X175641000Y-101219000D03*
X130462000Y-105892000D03*
X142200000Y-96200000D03*
X173600000Y-101200000D03*
X130600000Y-108100000D03*
X142200000Y-102200000D03*
D14*
X146000000Y-103900000D02*
X146100000Y-103900000D01*
X123500000Y-106980000D02*
X124633000Y-106980000D01*
X124633000Y-106980000D02*
X124714000Y-107061000D01*
X174500000Y-94500000D02*
X174500000Y-95883000D01*
X174500000Y-95883000D02*
X174498000Y-95885000D01*
X130462000Y-105892000D02*
X130462000Y-105765000D01*
D15*
X144500000Y-93900000D02*
X142200000Y-96200000D01*
X170200000Y-93900000D02*
X144500000Y-93900000D01*
X173600000Y-97300000D02*
X170200000Y-93900000D01*
X173600000Y-101200000D02*
X173600000Y-97300000D01*
X143870000Y-106770000D02*
X143870000Y-107900000D01*
X143000000Y-105900000D02*
X143870000Y-106770000D01*
X137200000Y-105900000D02*
X143000000Y-105900000D01*
X135000000Y-108100000D02*
X137200000Y-105900000D01*
X130600000Y-108100000D02*
X135000000Y-108100000D01*
X123500000Y-108250000D02*
X128550000Y-108250000D01*
X142200000Y-104400000D02*
X142200000Y-102200000D01*
X141500000Y-105100000D02*
X142200000Y-104400000D01*
X136700000Y-105100000D02*
X141500000Y-105100000D01*
X134700000Y-107100000D02*
X136700000Y-105100000D01*
X131200000Y-107100000D02*
X134700000Y-107100000D01*
X131200000Y-107100000D02*
X131200000Y-107100000D01*
X129700000Y-107100000D02*
X131200000Y-107100000D01*
X128550000Y-108250000D02*
X129700000Y-107100000D01*
X173230000Y-94500000D02*
X172986000Y-94500000D01*
G36*
X142044820Y-95277550D02*
G01*
X141927271Y-95300932D01*
X141757111Y-95371414D01*
X141603972Y-95473738D01*
X141473738Y-95603972D01*
X141371414Y-95757111D01*
X141300932Y-95927271D01*
X141265000Y-96107911D01*
X141265000Y-96292089D01*
X141300932Y-96472729D01*
X141371414Y-96642889D01*
X141473738Y-96796028D01*
X141603972Y-96926262D01*
X141757111Y-97028586D01*
X141927271Y-97099068D01*
X142107911Y-97135000D01*
X142292089Y-97135000D01*
X142472729Y-97099068D01*
X142642889Y-97028586D01*
X142796028Y-96926262D01*
X142926262Y-96796028D01*
X143028586Y-96642889D01*
X143099068Y-96472729D01*
X143122450Y-96355180D01*
X144815631Y-94662000D01*
X169884370Y-94662000D01*
X172838001Y-97615632D01*
X172838000Y-100657458D01*
X172771414Y-100757111D01*
X172700932Y-100927271D01*
X172665000Y-101107911D01*
X172665000Y-101292089D01*
X172700932Y-101472729D01*
X172771414Y-101642889D01*
X172873738Y-101796028D01*
X173003972Y-101926262D01*
X173157111Y-102028586D01*
X173327271Y-102099068D01*
X173507911Y-102135000D01*
X173692089Y-102135000D01*
X173872729Y-102099068D01*
X174042889Y-102028586D01*
X174196028Y-101926262D01*
X174326262Y-101796028D01*
X174428586Y-101642889D01*
X174499068Y-101472729D01*
X174535000Y-101292089D01*
X174535000Y-101107911D01*
X174499068Y-100927271D01*
X174428586Y-100757111D01*
X174362000Y-100657458D01*
X174362000Y-97337422D01*
X174365686Y-97299999D01*
X174362000Y-97262574D01*
X174350974Y-97150622D01*
X174307402Y-97006985D01*
X174236645Y-96874608D01*
X174141422Y-96758578D01*
X174112352Y-96734721D01*
X172922776Y-95545146D01*
X173123137Y-95585000D01*
X173336863Y-95585000D01*
X173546483Y-95543304D01*
X173743940Y-95461515D01*
X173921647Y-95342775D01*
X173947644Y-95316778D01*
X173966275Y-95450675D01*
X174161997Y-95536532D01*
X174370710Y-95582556D01*
X174584390Y-95586979D01*
X174794828Y-95549629D01*
X174993936Y-95471943D01*
X175033725Y-95450675D01*
X175052356Y-95316778D01*
X175078353Y-95342775D01*
X175256060Y-95461515D01*
X175453517Y-95543304D01*
X175663137Y-95585000D01*
X175876863Y-95585000D01*
X176086483Y-95543304D01*
X176283940Y-95461515D01*
X176461647Y-95342775D01*
X176612775Y-95191647D01*
X176731515Y-95013940D01*
X176813304Y-94816483D01*
X176855000Y-94606863D01*
X176855000Y-94393137D01*
X176813304Y-94183517D01*
X176731515Y-93986060D01*
X176612775Y-93808353D01*
X176519765Y-93715343D01*
X176652785Y-93728386D01*
X176799748Y-93772757D01*
X176935297Y-93844829D01*
X177054258Y-93941852D01*
X177152118Y-94060144D01*
X177225132Y-94195181D01*
X177270529Y-94341833D01*
X177290001Y-94527101D01*
X177290000Y-102715271D01*
X177271614Y-102902784D01*
X177227243Y-103049748D01*
X177155171Y-103185297D01*
X177058148Y-103304258D01*
X176939856Y-103402118D01*
X176804819Y-103475132D01*
X176658167Y-103520529D01*
X176472908Y-103540000D01*
X162115123Y-103540000D01*
X162084424Y-103543024D01*
X162075180Y-103542959D01*
X162065315Y-103543926D01*
X161774169Y-103574526D01*
X161711138Y-103587464D01*
X161647920Y-103599524D01*
X161638430Y-103602389D01*
X161358774Y-103688957D01*
X161299479Y-103713883D01*
X161239785Y-103738001D01*
X161231033Y-103742655D01*
X160973517Y-103881894D01*
X160920158Y-103917885D01*
X160866323Y-103953114D01*
X160858640Y-103959379D01*
X160633073Y-104145984D01*
X160587735Y-104191640D01*
X160541753Y-104236669D01*
X160535434Y-104244308D01*
X160350408Y-104471172D01*
X160314835Y-104524714D01*
X160278440Y-104577867D01*
X160273725Y-104586588D01*
X160136288Y-104845069D01*
X160111780Y-104904530D01*
X160086416Y-104963710D01*
X160083484Y-104973180D01*
X159998870Y-105253435D01*
X159986377Y-105316532D01*
X159972991Y-105379506D01*
X159971955Y-105389365D01*
X159943388Y-105680717D01*
X159943388Y-105680733D01*
X159940001Y-105715123D01*
X159940000Y-109465271D01*
X159921614Y-109652784D01*
X159877243Y-109799748D01*
X159805171Y-109935297D01*
X159708148Y-110054258D01*
X159589856Y-110152118D01*
X159454819Y-110225132D01*
X159308167Y-110270529D01*
X159122908Y-110290000D01*
X123534729Y-110290000D01*
X123347216Y-110271614D01*
X123200252Y-110227243D01*
X123064703Y-110155171D01*
X122945742Y-110058148D01*
X122847882Y-109939856D01*
X122774868Y-109804819D01*
X122729471Y-109658167D01*
X122710000Y-109472908D01*
X122710000Y-108994422D01*
X122808353Y-109092775D01*
X122986060Y-109211515D01*
X123183517Y-109293304D01*
X123393137Y-109335000D01*
X123606863Y-109335000D01*
X123816483Y-109293304D01*
X124013940Y-109211515D01*
X124191647Y-109092775D01*
X124272422Y-109012000D01*
X128512577Y-109012000D01*
X128550000Y-109015686D01*
X128587423Y-109012000D01*
X128587426Y-109012000D01*
X128699378Y-109000974D01*
X128843015Y-108957402D01*
X128975392Y-108886645D01*
X129091422Y-108791422D01*
X129115284Y-108762346D01*
X129668408Y-108209222D01*
X129700932Y-108372729D01*
X129771414Y-108542889D01*
X129873738Y-108696028D01*
X130003972Y-108826262D01*
X130157111Y-108928586D01*
X130327271Y-108999068D01*
X130507911Y-109035000D01*
X130692089Y-109035000D01*
X130872729Y-108999068D01*
X131042889Y-108928586D01*
X131142542Y-108862000D01*
X134962577Y-108862000D01*
X135000000Y-108865686D01*
X135037423Y-108862000D01*
X135037426Y-108862000D01*
X135149378Y-108850974D01*
X135293015Y-108807402D01*
X135425392Y-108736645D01*
X135541422Y-108641422D01*
X135565284Y-108612346D01*
X137515631Y-106662000D01*
X137693134Y-106662000D01*
X137507585Y-106847549D01*
X137326903Y-107117958D01*
X137202447Y-107418421D01*
X137139000Y-107737391D01*
X137139000Y-108062609D01*
X137202447Y-108381579D01*
X137326903Y-108682042D01*
X137507585Y-108952451D01*
X137737549Y-109182415D01*
X138007958Y-109363097D01*
X138308421Y-109487553D01*
X138627391Y-109551000D01*
X138952609Y-109551000D01*
X139271579Y-109487553D01*
X139572042Y-109363097D01*
X139842451Y-109182415D01*
X140060000Y-108964866D01*
X140277549Y-109182415D01*
X140547958Y-109363097D01*
X140848421Y-109487553D01*
X141167391Y-109551000D01*
X141492609Y-109551000D01*
X141811579Y-109487553D01*
X142112042Y-109363097D01*
X142382451Y-109182415D01*
X142600000Y-108964866D01*
X142817549Y-109182415D01*
X143087958Y-109363097D01*
X143388421Y-109487553D01*
X143707391Y-109551000D01*
X144032609Y-109551000D01*
X144351579Y-109487553D01*
X144652042Y-109363097D01*
X144922451Y-109182415D01*
X145058043Y-109046823D01*
X145442782Y-109046823D01*
X145540478Y-109312860D01*
X145832821Y-109455348D01*
X146147344Y-109538064D01*
X146471962Y-109557831D01*
X146794198Y-109513888D01*
X147101670Y-109407924D01*
X147279522Y-109312860D01*
X147377218Y-109046823D01*
X146410000Y-108079605D01*
X145442782Y-109046823D01*
X145058043Y-109046823D01*
X145152415Y-108952451D01*
X145219968Y-108851351D01*
X145263177Y-108867218D01*
X146230395Y-107900000D01*
X146589605Y-107900000D01*
X147556823Y-108867218D01*
X147822860Y-108769522D01*
X147850697Y-108712408D01*
X154003000Y-108712408D01*
X154003000Y-108987592D01*
X154056686Y-109257490D01*
X154161995Y-109511727D01*
X154314880Y-109740535D01*
X154509465Y-109935120D01*
X154738273Y-110088005D01*
X154992510Y-110193314D01*
X155262408Y-110247000D01*
X155537592Y-110247000D01*
X155807490Y-110193314D01*
X156061727Y-110088005D01*
X156290535Y-109935120D01*
X156485120Y-109740535D01*
X156638005Y-109511727D01*
X156743314Y-109257490D01*
X156797000Y-108987592D01*
X156797000Y-108712408D01*
X156743314Y-108442510D01*
X156638005Y-108188273D01*
X156485120Y-107959465D01*
X156290535Y-107764880D01*
X156061727Y-107611995D01*
X155807490Y-107506686D01*
X155537592Y-107453000D01*
X155262408Y-107453000D01*
X154992510Y-107506686D01*
X154738273Y-107611995D01*
X154509465Y-107764880D01*
X154314880Y-107959465D01*
X154161995Y-108188273D01*
X154056686Y-108442510D01*
X154003000Y-108712408D01*
X147850697Y-108712408D01*
X147965348Y-108477179D01*
X148048064Y-108162656D01*
X148067831Y-107838038D01*
X148023888Y-107515802D01*
X147917924Y-107208330D01*
X147822860Y-107030478D01*
X147556823Y-106932782D01*
X146589605Y-107900000D01*
X146230395Y-107900000D01*
X145263177Y-106932782D01*
X145219968Y-106948649D01*
X145152415Y-106847549D01*
X145058043Y-106753177D01*
X145442782Y-106753177D01*
X146410000Y-107720395D01*
X147377218Y-106753177D01*
X147279522Y-106487140D01*
X146987179Y-106344652D01*
X146672656Y-106261936D01*
X146348038Y-106242169D01*
X146025802Y-106286112D01*
X145718330Y-106392076D01*
X145540478Y-106487140D01*
X145442782Y-106753177D01*
X145058043Y-106753177D01*
X144922451Y-106617585D01*
X144652042Y-106436903D01*
X144528661Y-106385797D01*
X144506645Y-106344607D01*
X144435279Y-106257648D01*
X144411422Y-106228578D01*
X144391719Y-106212408D01*
X151503000Y-106212408D01*
X151503000Y-106487592D01*
X151556686Y-106757490D01*
X151661995Y-107011727D01*
X151814880Y-107240535D01*
X152009465Y-107435120D01*
X152238273Y-107588005D01*
X152492510Y-107693314D01*
X152762408Y-107747000D01*
X153037592Y-107747000D01*
X153307490Y-107693314D01*
X153561727Y-107588005D01*
X153790535Y-107435120D01*
X153985120Y-107240535D01*
X154138005Y-107011727D01*
X154243314Y-106757490D01*
X154297000Y-106487592D01*
X154297000Y-106212408D01*
X156503000Y-106212408D01*
X156503000Y-106487592D01*
X156556686Y-106757490D01*
X156661995Y-107011727D01*
X156814880Y-107240535D01*
X157009465Y-107435120D01*
X157238273Y-107588005D01*
X157492510Y-107693314D01*
X157762408Y-107747000D01*
X158037592Y-107747000D01*
X158307490Y-107693314D01*
X158561727Y-107588005D01*
X158790535Y-107435120D01*
X158985120Y-107240535D01*
X159138005Y-107011727D01*
X159243314Y-106757490D01*
X159297000Y-106487592D01*
X159297000Y-106212408D01*
X159243314Y-105942510D01*
X159138005Y-105688273D01*
X158985120Y-105459465D01*
X158790535Y-105264880D01*
X158561727Y-105111995D01*
X158307490Y-105006686D01*
X158037592Y-104953000D01*
X157762408Y-104953000D01*
X157492510Y-105006686D01*
X157238273Y-105111995D01*
X157009465Y-105264880D01*
X156814880Y-105459465D01*
X156661995Y-105688273D01*
X156556686Y-105942510D01*
X156503000Y-106212408D01*
X154297000Y-106212408D01*
X154243314Y-105942510D01*
X154138005Y-105688273D01*
X153985120Y-105459465D01*
X153790535Y-105264880D01*
X153561727Y-105111995D01*
X153307490Y-105006686D01*
X153037592Y-104953000D01*
X152762408Y-104953000D01*
X152492510Y-105006686D01*
X152238273Y-105111995D01*
X152009465Y-105264880D01*
X151814880Y-105459465D01*
X151661995Y-105688273D01*
X151556686Y-105942510D01*
X151503000Y-106212408D01*
X144391719Y-106212408D01*
X144382353Y-106204722D01*
X143565284Y-105387653D01*
X143541422Y-105358578D01*
X143425392Y-105263355D01*
X143293015Y-105192598D01*
X143149378Y-105149026D01*
X143037426Y-105138000D01*
X143037423Y-105138000D01*
X143000000Y-105134314D01*
X142962577Y-105138000D01*
X142539631Y-105138000D01*
X142712353Y-104965278D01*
X142741422Y-104941422D01*
X142836645Y-104825392D01*
X142907402Y-104693015D01*
X142950974Y-104549378D01*
X142962000Y-104437426D01*
X142962000Y-104437417D01*
X142965685Y-104400001D01*
X142962000Y-104362585D01*
X142962000Y-102742542D01*
X143028586Y-102642889D01*
X143099068Y-102472729D01*
X143135000Y-102292089D01*
X143135000Y-102107911D01*
X143099068Y-101927271D01*
X143028586Y-101757111D01*
X142926262Y-101603972D01*
X142796028Y-101473738D01*
X142642889Y-101371414D01*
X142472729Y-101300932D01*
X142292089Y-101265000D01*
X142107911Y-101265000D01*
X141927271Y-101300932D01*
X141757111Y-101371414D01*
X141603972Y-101473738D01*
X141473738Y-101603972D01*
X141371414Y-101757111D01*
X141300932Y-101927271D01*
X141265000Y-102107911D01*
X141265000Y-102292089D01*
X141300932Y-102472729D01*
X141371414Y-102642889D01*
X141438001Y-102742543D01*
X141438000Y-104084369D01*
X141184370Y-104338000D01*
X136737422Y-104338000D01*
X136699999Y-104334314D01*
X136662576Y-104338000D01*
X136662574Y-104338000D01*
X136550622Y-104349026D01*
X136406985Y-104392598D01*
X136274608Y-104463355D01*
X136158578Y-104558578D01*
X136134721Y-104587648D01*
X134384370Y-106338000D01*
X129737423Y-106338000D01*
X129700000Y-106334314D01*
X129662577Y-106338000D01*
X129662574Y-106338000D01*
X129550622Y-106349026D01*
X129406985Y-106392598D01*
X129390056Y-106401647D01*
X129274607Y-106463355D01*
X129245075Y-106487592D01*
X129158578Y-106558578D01*
X129134716Y-106587654D01*
X128234370Y-107488000D01*
X124461960Y-107488000D01*
X124536532Y-107318003D01*
X124582556Y-107109290D01*
X124586979Y-106895610D01*
X124549629Y-106685172D01*
X124471943Y-106486064D01*
X124450675Y-106446275D01*
X124316778Y-106427644D01*
X124342775Y-106401647D01*
X124461515Y-106223940D01*
X124543304Y-106026483D01*
X124585000Y-105816863D01*
X124585000Y-105603137D01*
X124543304Y-105393517D01*
X124461515Y-105196060D01*
X124342775Y-105018353D01*
X124191647Y-104867225D01*
X124013940Y-104748485D01*
X123816483Y-104666696D01*
X123606863Y-104625000D01*
X123393137Y-104625000D01*
X123183517Y-104666696D01*
X122986060Y-104748485D01*
X122808353Y-104867225D01*
X122710000Y-104965578D01*
X122710000Y-98475701D01*
X124965000Y-98475701D01*
X124965000Y-99024299D01*
X125072026Y-99562354D01*
X125281965Y-100069192D01*
X125586750Y-100525334D01*
X125974666Y-100913250D01*
X126430808Y-101218035D01*
X126937646Y-101427974D01*
X127475701Y-101535000D01*
X128024299Y-101535000D01*
X128562354Y-101427974D01*
X129069192Y-101218035D01*
X129525334Y-100913250D01*
X129826176Y-100612408D01*
X154003000Y-100612408D01*
X154003000Y-100887592D01*
X154056686Y-101157490D01*
X154161995Y-101411727D01*
X154314880Y-101640535D01*
X154509465Y-101835120D01*
X154738273Y-101988005D01*
X154992510Y-102093314D01*
X155262408Y-102147000D01*
X155537592Y-102147000D01*
X155807490Y-102093314D01*
X156061727Y-101988005D01*
X156290535Y-101835120D01*
X156485120Y-101640535D01*
X156638005Y-101411727D01*
X156743314Y-101157490D01*
X156797000Y-100887592D01*
X156797000Y-100612408D01*
X156743314Y-100342510D01*
X156638005Y-100088273D01*
X156485120Y-99859465D01*
X156290535Y-99664880D01*
X156061727Y-99511995D01*
X155807490Y-99406686D01*
X155537592Y-99353000D01*
X155262408Y-99353000D01*
X154992510Y-99406686D01*
X154738273Y-99511995D01*
X154509465Y-99664880D01*
X154314880Y-99859465D01*
X154161995Y-100088273D01*
X154056686Y-100342510D01*
X154003000Y-100612408D01*
X129826176Y-100612408D01*
X129913250Y-100525334D01*
X130218035Y-100069192D01*
X130427974Y-99562354D01*
X130535000Y-99024299D01*
X130535000Y-98475701D01*
X130462737Y-98112408D01*
X151503000Y-98112408D01*
X151503000Y-98387592D01*
X151556686Y-98657490D01*
X151661995Y-98911727D01*
X151814880Y-99140535D01*
X152009465Y-99335120D01*
X152238273Y-99488005D01*
X152492510Y-99593314D01*
X152762408Y-99647000D01*
X153037592Y-99647000D01*
X153307490Y-99593314D01*
X153561727Y-99488005D01*
X153790535Y-99335120D01*
X153985120Y-99140535D01*
X154138005Y-98911727D01*
X154243314Y-98657490D01*
X154297000Y-98387592D01*
X154297000Y-98112408D01*
X156503000Y-98112408D01*
X156503000Y-98387592D01*
X156556686Y-98657490D01*
X156661995Y-98911727D01*
X156814880Y-99140535D01*
X157009465Y-99335120D01*
X157238273Y-99488005D01*
X157492510Y-99593314D01*
X157762408Y-99647000D01*
X158037592Y-99647000D01*
X158307490Y-99593314D01*
X158561727Y-99488005D01*
X158790535Y-99335120D01*
X158985120Y-99140535D01*
X159138005Y-98911727D01*
X159243314Y-98657490D01*
X159279474Y-98475701D01*
X164215000Y-98475701D01*
X164215000Y-99024299D01*
X164322026Y-99562354D01*
X164531965Y-100069192D01*
X164836750Y-100525334D01*
X165224666Y-100913250D01*
X165680808Y-101218035D01*
X166187646Y-101427974D01*
X166725701Y-101535000D01*
X167274299Y-101535000D01*
X167812354Y-101427974D01*
X168319192Y-101218035D01*
X168775334Y-100913250D01*
X169163250Y-100525334D01*
X169468035Y-100069192D01*
X169677974Y-99562354D01*
X169785000Y-99024299D01*
X169785000Y-98475701D01*
X169677974Y-97937646D01*
X169468035Y-97430808D01*
X169163250Y-96974666D01*
X168775334Y-96586750D01*
X168319192Y-96281965D01*
X167812354Y-96072026D01*
X167274299Y-95965000D01*
X166725701Y-95965000D01*
X166187646Y-96072026D01*
X165680808Y-96281965D01*
X165224666Y-96586750D01*
X164836750Y-96974666D01*
X164531965Y-97430808D01*
X164322026Y-97937646D01*
X164215000Y-98475701D01*
X159279474Y-98475701D01*
X159297000Y-98387592D01*
X159297000Y-98112408D01*
X159243314Y-97842510D01*
X159138005Y-97588273D01*
X158985120Y-97359465D01*
X158790535Y-97164880D01*
X158561727Y-97011995D01*
X158307490Y-96906686D01*
X158037592Y-96853000D01*
X157762408Y-96853000D01*
X157492510Y-96906686D01*
X157238273Y-97011995D01*
X157009465Y-97164880D01*
X156814880Y-97359465D01*
X156661995Y-97588273D01*
X156556686Y-97842510D01*
X156503000Y-98112408D01*
X154297000Y-98112408D01*
X154243314Y-97842510D01*
X154138005Y-97588273D01*
X153985120Y-97359465D01*
X153790535Y-97164880D01*
X153561727Y-97011995D01*
X153307490Y-96906686D01*
X153037592Y-96853000D01*
X152762408Y-96853000D01*
X152492510Y-96906686D01*
X152238273Y-97011995D01*
X152009465Y-97164880D01*
X151814880Y-97359465D01*
X151661995Y-97588273D01*
X151556686Y-97842510D01*
X151503000Y-98112408D01*
X130462737Y-98112408D01*
X130427974Y-97937646D01*
X130218035Y-97430808D01*
X129913250Y-96974666D01*
X129525334Y-96586750D01*
X129069192Y-96281965D01*
X128562354Y-96072026D01*
X128024299Y-95965000D01*
X127475701Y-95965000D01*
X126937646Y-96072026D01*
X126430808Y-96281965D01*
X125974666Y-96586750D01*
X125586750Y-96974666D01*
X125281965Y-97430808D01*
X125072026Y-97937646D01*
X124965000Y-98475701D01*
X122710000Y-98475701D01*
X122710000Y-94534729D01*
X122728386Y-94347215D01*
X122772757Y-94200252D01*
X122844829Y-94064703D01*
X122941852Y-93945742D01*
X123060144Y-93847882D01*
X123195181Y-93774868D01*
X123341833Y-93729471D01*
X123527092Y-93710000D01*
X143612369Y-93710000D01*
X142044820Y-95277550D01*
G37*
X142044820Y-95277550D02*
X141927271Y-95300932D01*
X141757111Y-95371414D01*
X141603972Y-95473738D01*
X141473738Y-95603972D01*
X141371414Y-95757111D01*
X141300932Y-95927271D01*
X141265000Y-96107911D01*
X141265000Y-96292089D01*
X141300932Y-96472729D01*
X141371414Y-96642889D01*
X141473738Y-96796028D01*
X141603972Y-96926262D01*
X141757111Y-97028586D01*
X141927271Y-97099068D01*
X142107911Y-97135000D01*
X142292089Y-97135000D01*
X142472729Y-97099068D01*
X142642889Y-97028586D01*
X142796028Y-96926262D01*
X142926262Y-96796028D01*
X143028586Y-96642889D01*
X143099068Y-96472729D01*
X143122450Y-96355180D01*
X144815631Y-94662000D01*
X169884370Y-94662000D01*
X172838001Y-97615632D01*
X172838000Y-100657458D01*
X172771414Y-100757111D01*
X172700932Y-100927271D01*
X172665000Y-101107911D01*
X172665000Y-101292089D01*
X172700932Y-101472729D01*
X172771414Y-101642889D01*
X172873738Y-101796028D01*
X173003972Y-101926262D01*
X173157111Y-102028586D01*
X173327271Y-102099068D01*
X173507911Y-102135000D01*
X173692089Y-102135000D01*
X173872729Y-102099068D01*
X174042889Y-102028586D01*
X174196028Y-101926262D01*
X174326262Y-101796028D01*
X174428586Y-101642889D01*
X174499068Y-101472729D01*
X174535000Y-101292089D01*
X174535000Y-101107911D01*
X174499068Y-100927271D01*
X174428586Y-100757111D01*
X174362000Y-100657458D01*
X174362000Y-97337422D01*
X174365686Y-97299999D01*
X174362000Y-97262574D01*
X174350974Y-97150622D01*
X174307402Y-97006985D01*
X174236645Y-96874608D01*
X174141422Y-96758578D01*
X174112352Y-96734721D01*
X172922776Y-95545146D01*
X173123137Y-95585000D01*
X173336863Y-95585000D01*
X173546483Y-95543304D01*
X173743940Y-95461515D01*
X173921647Y-95342775D01*
X173947644Y-95316778D01*
X173966275Y-95450675D01*
X174161997Y-95536532D01*
X174370710Y-95582556D01*
X174584390Y-95586979D01*
X174794828Y-95549629D01*
X174993936Y-95471943D01*
X175033725Y-95450675D01*
X175052356Y-95316778D01*
X175078353Y-95342775D01*
X175256060Y-95461515D01*
X175453517Y-95543304D01*
X175663137Y-95585000D01*
X175876863Y-95585000D01*
X176086483Y-95543304D01*
X176283940Y-95461515D01*
X176461647Y-95342775D01*
X176612775Y-95191647D01*
X176731515Y-95013940D01*
X176813304Y-94816483D01*
X176855000Y-94606863D01*
X176855000Y-94393137D01*
X176813304Y-94183517D01*
X176731515Y-93986060D01*
X176612775Y-93808353D01*
X176519765Y-93715343D01*
X176652785Y-93728386D01*
X176799748Y-93772757D01*
X176935297Y-93844829D01*
X177054258Y-93941852D01*
X177152118Y-94060144D01*
X177225132Y-94195181D01*
X177270529Y-94341833D01*
X177290001Y-94527101D01*
X177290000Y-102715271D01*
X177271614Y-102902784D01*
X177227243Y-103049748D01*
X177155171Y-103185297D01*
X177058148Y-103304258D01*
X176939856Y-103402118D01*
X176804819Y-103475132D01*
X176658167Y-103520529D01*
X176472908Y-103540000D01*
X162115123Y-103540000D01*
X162084424Y-103543024D01*
X162075180Y-103542959D01*
X162065315Y-103543926D01*
X161774169Y-103574526D01*
X161711138Y-103587464D01*
X161647920Y-103599524D01*
X161638430Y-103602389D01*
X161358774Y-103688957D01*
X161299479Y-103713883D01*
X161239785Y-103738001D01*
X161231033Y-103742655D01*
X160973517Y-103881894D01*
X160920158Y-103917885D01*
X160866323Y-103953114D01*
X160858640Y-103959379D01*
X160633073Y-104145984D01*
X160587735Y-104191640D01*
X160541753Y-104236669D01*
X160535434Y-104244308D01*
X160350408Y-104471172D01*
X160314835Y-104524714D01*
X160278440Y-104577867D01*
X160273725Y-104586588D01*
X160136288Y-104845069D01*
X160111780Y-104904530D01*
X160086416Y-104963710D01*
X160083484Y-104973180D01*
X159998870Y-105253435D01*
X159986377Y-105316532D01*
X159972991Y-105379506D01*
X159971955Y-105389365D01*
X159943388Y-105680717D01*
X159943388Y-105680733D01*
X159940001Y-105715123D01*
X159940000Y-109465271D01*
X159921614Y-109652784D01*
X159877243Y-109799748D01*
X159805171Y-109935297D01*
X159708148Y-110054258D01*
X159589856Y-110152118D01*
X159454819Y-110225132D01*
X159308167Y-110270529D01*
X159122908Y-110290000D01*
X123534729Y-110290000D01*
X123347216Y-110271614D01*
X123200252Y-110227243D01*
X123064703Y-110155171D01*
X122945742Y-110058148D01*
X122847882Y-109939856D01*
X122774868Y-109804819D01*
X122729471Y-109658167D01*
X122710000Y-109472908D01*
X122710000Y-108994422D01*
X122808353Y-109092775D01*
X122986060Y-109211515D01*
X123183517Y-109293304D01*
X123393137Y-109335000D01*
X123606863Y-109335000D01*
X123816483Y-109293304D01*
X124013940Y-109211515D01*
X124191647Y-109092775D01*
X124272422Y-109012000D01*
X128512577Y-109012000D01*
X128550000Y-109015686D01*
X128587423Y-109012000D01*
X128587426Y-109012000D01*
X128699378Y-109000974D01*
X128843015Y-108957402D01*
X128975392Y-108886645D01*
X129091422Y-108791422D01*
X129115284Y-108762346D01*
X129668408Y-108209222D01*
X129700932Y-108372729D01*
X129771414Y-108542889D01*
X129873738Y-108696028D01*
X130003972Y-108826262D01*
X130157111Y-108928586D01*
X130327271Y-108999068D01*
X130507911Y-109035000D01*
X130692089Y-109035000D01*
X130872729Y-108999068D01*
X131042889Y-108928586D01*
X131142542Y-108862000D01*
X134962577Y-108862000D01*
X135000000Y-108865686D01*
X135037423Y-108862000D01*
X135037426Y-108862000D01*
X135149378Y-108850974D01*
X135293015Y-108807402D01*
X135425392Y-108736645D01*
X135541422Y-108641422D01*
X135565284Y-108612346D01*
X137515631Y-106662000D01*
X137693134Y-106662000D01*
X137507585Y-106847549D01*
X137326903Y-107117958D01*
X137202447Y-107418421D01*
X137139000Y-107737391D01*
X137139000Y-108062609D01*
X137202447Y-108381579D01*
X137326903Y-108682042D01*
X137507585Y-108952451D01*
X137737549Y-109182415D01*
X138007958Y-109363097D01*
X138308421Y-109487553D01*
X138627391Y-109551000D01*
X138952609Y-109551000D01*
X139271579Y-109487553D01*
X139572042Y-109363097D01*
X139842451Y-109182415D01*
X140060000Y-108964866D01*
X140277549Y-109182415D01*
X140547958Y-109363097D01*
X140848421Y-109487553D01*
X141167391Y-109551000D01*
X141492609Y-109551000D01*
X141811579Y-109487553D01*
X142112042Y-109363097D01*
X142382451Y-109182415D01*
X142600000Y-108964866D01*
X142817549Y-109182415D01*
X143087958Y-109363097D01*
X143388421Y-109487553D01*
X143707391Y-109551000D01*
X144032609Y-109551000D01*
X144351579Y-109487553D01*
X144652042Y-109363097D01*
X144922451Y-109182415D01*
X145058043Y-109046823D01*
X145442782Y-109046823D01*
X145540478Y-109312860D01*
X145832821Y-109455348D01*
X146147344Y-109538064D01*
X146471962Y-109557831D01*
X146794198Y-109513888D01*
X147101670Y-109407924D01*
X147279522Y-109312860D01*
X147377218Y-109046823D01*
X146410000Y-108079605D01*
X145442782Y-109046823D01*
X145058043Y-109046823D01*
X145152415Y-108952451D01*
X145219968Y-108851351D01*
X145263177Y-108867218D01*
X146230395Y-107900000D01*
X146589605Y-107900000D01*
X147556823Y-108867218D01*
X147822860Y-108769522D01*
X147850697Y-108712408D01*
X154003000Y-108712408D01*
X154003000Y-108987592D01*
X154056686Y-109257490D01*
X154161995Y-109511727D01*
X154314880Y-109740535D01*
X154509465Y-109935120D01*
X154738273Y-110088005D01*
X154992510Y-110193314D01*
X155262408Y-110247000D01*
X155537592Y-110247000D01*
X155807490Y-110193314D01*
X156061727Y-110088005D01*
X156290535Y-109935120D01*
X156485120Y-109740535D01*
X156638005Y-109511727D01*
X156743314Y-109257490D01*
X156797000Y-108987592D01*
X156797000Y-108712408D01*
X156743314Y-108442510D01*
X156638005Y-108188273D01*
X156485120Y-107959465D01*
X156290535Y-107764880D01*
X156061727Y-107611995D01*
X155807490Y-107506686D01*
X155537592Y-107453000D01*
X155262408Y-107453000D01*
X154992510Y-107506686D01*
X154738273Y-107611995D01*
X154509465Y-107764880D01*
X154314880Y-107959465D01*
X154161995Y-108188273D01*
X154056686Y-108442510D01*
X154003000Y-108712408D01*
X147850697Y-108712408D01*
X147965348Y-108477179D01*
X148048064Y-108162656D01*
X148067831Y-107838038D01*
X148023888Y-107515802D01*
X147917924Y-107208330D01*
X147822860Y-107030478D01*
X147556823Y-106932782D01*
X146589605Y-107900000D01*
X146230395Y-107900000D01*
X145263177Y-106932782D01*
X145219968Y-106948649D01*
X145152415Y-106847549D01*
X145058043Y-106753177D01*
X145442782Y-106753177D01*
X146410000Y-107720395D01*
X147377218Y-106753177D01*
X147279522Y-106487140D01*
X146987179Y-106344652D01*
X146672656Y-106261936D01*
X146348038Y-106242169D01*
X146025802Y-106286112D01*
X145718330Y-106392076D01*
X145540478Y-106487140D01*
X145442782Y-106753177D01*
X145058043Y-106753177D01*
X144922451Y-106617585D01*
X144652042Y-106436903D01*
X144528661Y-106385797D01*
X144506645Y-106344607D01*
X144435279Y-106257648D01*
X144411422Y-106228578D01*
X144391719Y-106212408D01*
X151503000Y-106212408D01*
X151503000Y-106487592D01*
X151556686Y-106757490D01*
X151661995Y-107011727D01*
X151814880Y-107240535D01*
X152009465Y-107435120D01*
X152238273Y-107588005D01*
X152492510Y-107693314D01*
X152762408Y-107747000D01*
X153037592Y-107747000D01*
X153307490Y-107693314D01*
X153561727Y-107588005D01*
X153790535Y-107435120D01*
X153985120Y-107240535D01*
X154138005Y-107011727D01*
X154243314Y-106757490D01*
X154297000Y-106487592D01*
X154297000Y-106212408D01*
X156503000Y-106212408D01*
X156503000Y-106487592D01*
X156556686Y-106757490D01*
X156661995Y-107011727D01*
X156814880Y-107240535D01*
X157009465Y-107435120D01*
X157238273Y-107588005D01*
X157492510Y-107693314D01*
X157762408Y-107747000D01*
X158037592Y-107747000D01*
X158307490Y-107693314D01*
X158561727Y-107588005D01*
X158790535Y-107435120D01*
X158985120Y-107240535D01*
X159138005Y-107011727D01*
X159243314Y-106757490D01*
X159297000Y-106487592D01*
X159297000Y-106212408D01*
X159243314Y-105942510D01*
X159138005Y-105688273D01*
X158985120Y-105459465D01*
X158790535Y-105264880D01*
X158561727Y-105111995D01*
X158307490Y-105006686D01*
X158037592Y-104953000D01*
X157762408Y-104953000D01*
X157492510Y-105006686D01*
X157238273Y-105111995D01*
X157009465Y-105264880D01*
X156814880Y-105459465D01*
X156661995Y-105688273D01*
X156556686Y-105942510D01*
X156503000Y-106212408D01*
X154297000Y-106212408D01*
X154243314Y-105942510D01*
X154138005Y-105688273D01*
X153985120Y-105459465D01*
X153790535Y-105264880D01*
X153561727Y-105111995D01*
X153307490Y-105006686D01*
X153037592Y-104953000D01*
X152762408Y-104953000D01*
X152492510Y-105006686D01*
X152238273Y-105111995D01*
X152009465Y-105264880D01*
X151814880Y-105459465D01*
X151661995Y-105688273D01*
X151556686Y-105942510D01*
X151503000Y-106212408D01*
X144391719Y-106212408D01*
X144382353Y-106204722D01*
X143565284Y-105387653D01*
X143541422Y-105358578D01*
X143425392Y-105263355D01*
X143293015Y-105192598D01*
X143149378Y-105149026D01*
X143037426Y-105138000D01*
X143037423Y-105138000D01*
X143000000Y-105134314D01*
X142962577Y-105138000D01*
X142539631Y-105138000D01*
X142712353Y-104965278D01*
X142741422Y-104941422D01*
X142836645Y-104825392D01*
X142907402Y-104693015D01*
X142950974Y-104549378D01*
X142962000Y-104437426D01*
X142962000Y-104437417D01*
X142965685Y-104400001D01*
X142962000Y-104362585D01*
X142962000Y-102742542D01*
X143028586Y-102642889D01*
X143099068Y-102472729D01*
X143135000Y-102292089D01*
X143135000Y-102107911D01*
X143099068Y-101927271D01*
X143028586Y-101757111D01*
X142926262Y-101603972D01*
X142796028Y-101473738D01*
X142642889Y-101371414D01*
X142472729Y-101300932D01*
X142292089Y-101265000D01*
X142107911Y-101265000D01*
X141927271Y-101300932D01*
X141757111Y-101371414D01*
X141603972Y-101473738D01*
X141473738Y-101603972D01*
X141371414Y-101757111D01*
X141300932Y-101927271D01*
X141265000Y-102107911D01*
X141265000Y-102292089D01*
X141300932Y-102472729D01*
X141371414Y-102642889D01*
X141438001Y-102742543D01*
X141438000Y-104084369D01*
X141184370Y-104338000D01*
X136737422Y-104338000D01*
X136699999Y-104334314D01*
X136662576Y-104338000D01*
X136662574Y-104338000D01*
X136550622Y-104349026D01*
X136406985Y-104392598D01*
X136274608Y-104463355D01*
X136158578Y-104558578D01*
X136134721Y-104587648D01*
X134384370Y-106338000D01*
X129737423Y-106338000D01*
X129700000Y-106334314D01*
X129662577Y-106338000D01*
X129662574Y-106338000D01*
X129550622Y-106349026D01*
X129406985Y-106392598D01*
X129390056Y-106401647D01*
X129274607Y-106463355D01*
X129245075Y-106487592D01*
X129158578Y-106558578D01*
X129134716Y-106587654D01*
X128234370Y-107488000D01*
X124461960Y-107488000D01*
X124536532Y-107318003D01*
X124582556Y-107109290D01*
X124586979Y-106895610D01*
X124549629Y-106685172D01*
X124471943Y-106486064D01*
X124450675Y-106446275D01*
X124316778Y-106427644D01*
X124342775Y-106401647D01*
X124461515Y-106223940D01*
X124543304Y-106026483D01*
X124585000Y-105816863D01*
X124585000Y-105603137D01*
X124543304Y-105393517D01*
X124461515Y-105196060D01*
X124342775Y-105018353D01*
X124191647Y-104867225D01*
X124013940Y-104748485D01*
X123816483Y-104666696D01*
X123606863Y-104625000D01*
X123393137Y-104625000D01*
X123183517Y-104666696D01*
X122986060Y-104748485D01*
X122808353Y-104867225D01*
X122710000Y-104965578D01*
X122710000Y-98475701D01*
X124965000Y-98475701D01*
X124965000Y-99024299D01*
X125072026Y-99562354D01*
X125281965Y-100069192D01*
X125586750Y-100525334D01*
X125974666Y-100913250D01*
X126430808Y-101218035D01*
X126937646Y-101427974D01*
X127475701Y-101535000D01*
X128024299Y-101535000D01*
X128562354Y-101427974D01*
X129069192Y-101218035D01*
X129525334Y-100913250D01*
X129826176Y-100612408D01*
X154003000Y-100612408D01*
X154003000Y-100887592D01*
X154056686Y-101157490D01*
X154161995Y-101411727D01*
X154314880Y-101640535D01*
X154509465Y-101835120D01*
X154738273Y-101988005D01*
X154992510Y-102093314D01*
X155262408Y-102147000D01*
X155537592Y-102147000D01*
X155807490Y-102093314D01*
X156061727Y-101988005D01*
X156290535Y-101835120D01*
X156485120Y-101640535D01*
X156638005Y-101411727D01*
X156743314Y-101157490D01*
X156797000Y-100887592D01*
X156797000Y-100612408D01*
X156743314Y-100342510D01*
X156638005Y-100088273D01*
X156485120Y-99859465D01*
X156290535Y-99664880D01*
X156061727Y-99511995D01*
X155807490Y-99406686D01*
X155537592Y-99353000D01*
X155262408Y-99353000D01*
X154992510Y-99406686D01*
X154738273Y-99511995D01*
X154509465Y-99664880D01*
X154314880Y-99859465D01*
X154161995Y-100088273D01*
X154056686Y-100342510D01*
X154003000Y-100612408D01*
X129826176Y-100612408D01*
X129913250Y-100525334D01*
X130218035Y-100069192D01*
X130427974Y-99562354D01*
X130535000Y-99024299D01*
X130535000Y-98475701D01*
X130462737Y-98112408D01*
X151503000Y-98112408D01*
X151503000Y-98387592D01*
X151556686Y-98657490D01*
X151661995Y-98911727D01*
X151814880Y-99140535D01*
X152009465Y-99335120D01*
X152238273Y-99488005D01*
X152492510Y-99593314D01*
X152762408Y-99647000D01*
X153037592Y-99647000D01*
X153307490Y-99593314D01*
X153561727Y-99488005D01*
X153790535Y-99335120D01*
X153985120Y-99140535D01*
X154138005Y-98911727D01*
X154243314Y-98657490D01*
X154297000Y-98387592D01*
X154297000Y-98112408D01*
X156503000Y-98112408D01*
X156503000Y-98387592D01*
X156556686Y-98657490D01*
X156661995Y-98911727D01*
X156814880Y-99140535D01*
X157009465Y-99335120D01*
X157238273Y-99488005D01*
X157492510Y-99593314D01*
X157762408Y-99647000D01*
X158037592Y-99647000D01*
X158307490Y-99593314D01*
X158561727Y-99488005D01*
X158790535Y-99335120D01*
X158985120Y-99140535D01*
X159138005Y-98911727D01*
X159243314Y-98657490D01*
X159279474Y-98475701D01*
X164215000Y-98475701D01*
X164215000Y-99024299D01*
X164322026Y-99562354D01*
X164531965Y-100069192D01*
X164836750Y-100525334D01*
X165224666Y-100913250D01*
X165680808Y-101218035D01*
X166187646Y-101427974D01*
X166725701Y-101535000D01*
X167274299Y-101535000D01*
X167812354Y-101427974D01*
X168319192Y-101218035D01*
X168775334Y-100913250D01*
X169163250Y-100525334D01*
X169468035Y-100069192D01*
X169677974Y-99562354D01*
X169785000Y-99024299D01*
X169785000Y-98475701D01*
X169677974Y-97937646D01*
X169468035Y-97430808D01*
X169163250Y-96974666D01*
X168775334Y-96586750D01*
X168319192Y-96281965D01*
X167812354Y-96072026D01*
X167274299Y-95965000D01*
X166725701Y-95965000D01*
X166187646Y-96072026D01*
X165680808Y-96281965D01*
X165224666Y-96586750D01*
X164836750Y-96974666D01*
X164531965Y-97430808D01*
X164322026Y-97937646D01*
X164215000Y-98475701D01*
X159279474Y-98475701D01*
X159297000Y-98387592D01*
X159297000Y-98112408D01*
X159243314Y-97842510D01*
X159138005Y-97588273D01*
X158985120Y-97359465D01*
X158790535Y-97164880D01*
X158561727Y-97011995D01*
X158307490Y-96906686D01*
X158037592Y-96853000D01*
X157762408Y-96853000D01*
X157492510Y-96906686D01*
X157238273Y-97011995D01*
X157009465Y-97164880D01*
X156814880Y-97359465D01*
X156661995Y-97588273D01*
X156556686Y-97842510D01*
X156503000Y-98112408D01*
X154297000Y-98112408D01*
X154243314Y-97842510D01*
X154138005Y-97588273D01*
X153985120Y-97359465D01*
X153790535Y-97164880D01*
X153561727Y-97011995D01*
X153307490Y-96906686D01*
X153037592Y-96853000D01*
X152762408Y-96853000D01*
X152492510Y-96906686D01*
X152238273Y-97011995D01*
X152009465Y-97164880D01*
X151814880Y-97359465D01*
X151661995Y-97588273D01*
X151556686Y-97842510D01*
X151503000Y-98112408D01*
X130462737Y-98112408D01*
X130427974Y-97937646D01*
X130218035Y-97430808D01*
X129913250Y-96974666D01*
X129525334Y-96586750D01*
X129069192Y-96281965D01*
X128562354Y-96072026D01*
X128024299Y-95965000D01*
X127475701Y-95965000D01*
X126937646Y-96072026D01*
X126430808Y-96281965D01*
X125974666Y-96586750D01*
X125586750Y-96974666D01*
X125281965Y-97430808D01*
X125072026Y-97937646D01*
X124965000Y-98475701D01*
X122710000Y-98475701D01*
X122710000Y-94534729D01*
X122728386Y-94347215D01*
X122772757Y-94200252D01*
X122844829Y-94064703D01*
X122941852Y-93945742D01*
X123060144Y-93847882D01*
X123195181Y-93774868D01*
X123341833Y-93729471D01*
X123527092Y-93710000D01*
X143612369Y-93710000D01*
X142044820Y-95277550D01*
G36*
X123500000Y-106800395D02*
G01*
X123505395Y-106795000D01*
X123522890Y-106795000D01*
X123693748Y-106965858D01*
X123679605Y-106980000D01*
X123693748Y-106994143D01*
X123522890Y-107165000D01*
X123505395Y-107165000D01*
X123500000Y-107159605D01*
X123494605Y-107165000D01*
X123477110Y-107165000D01*
X123306253Y-106994143D01*
X123320395Y-106980000D01*
X123306253Y-106965858D01*
X123477110Y-106795000D01*
X123494605Y-106795000D01*
X123500000Y-106800395D01*
G37*
X123500000Y-106800395D02*
X123505395Y-106795000D01*
X123522890Y-106795000D01*
X123693748Y-106965858D01*
X123679605Y-106980000D01*
X123693748Y-106994143D01*
X123522890Y-107165000D01*
X123505395Y-107165000D01*
X123500000Y-107159605D01*
X123494605Y-107165000D01*
X123477110Y-107165000D01*
X123306253Y-106994143D01*
X123320395Y-106980000D01*
X123306253Y-106965858D01*
X123477110Y-106795000D01*
X123494605Y-106795000D01*
X123500000Y-106800395D01*
G36*
X174685000Y-94477110D02*
G01*
X174685000Y-94494605D01*
X174679605Y-94500000D01*
X174685000Y-94505395D01*
X174685000Y-94522890D01*
X174514143Y-94693748D01*
X174500000Y-94679605D01*
X174485858Y-94693748D01*
X174315000Y-94522890D01*
X174315000Y-94505395D01*
X174320395Y-94500000D01*
X174315000Y-94494605D01*
X174315000Y-94477110D01*
X174485858Y-94306253D01*
X174500000Y-94320395D01*
X174514143Y-94306253D01*
X174685000Y-94477110D01*
G37*
X174685000Y-94477110D02*
X174685000Y-94494605D01*
X174679605Y-94500000D01*
X174685000Y-94505395D01*
X174685000Y-94522890D01*
X174514143Y-94693748D01*
X174500000Y-94679605D01*
X174485858Y-94693748D01*
X174315000Y-94522890D01*
X174315000Y-94505395D01*
X174320395Y-94500000D01*
X174315000Y-94494605D01*
X174315000Y-94477110D01*
X174485858Y-94306253D01*
X174500000Y-94320395D01*
X174514143Y-94306253D01*
X174685000Y-94477110D01*
M02*
