M48
; DRILL file {KiCad (6.0.0)} date Sat Jan 14 14:54:32 2023
; FORMAT={-:-/ absolute / inch / decimal}
; #@! TF.CreationDate,2023-01-14T14:54:32+01:00
; #@! TF.GenerationSoftware,Kicad,Pcbnew,(6.0.0)
; #@! TF.FileFunction,Plated,1,2,PTH
FMAT,2
INCH
; #@! TA.AperFunction,Plated,PTH,ViaDrill
T1C0.0157
; #@! TA.AperFunction,Plated,PTH,ComponentDrill
T2C0.0197
; #@! TA.AperFunction,Plated,PTH,ComponentDrill
T3C0.0394
; #@! TA.AperFunction,Plated,PTH,ComponentDrill
T4C0.1260
%
G90
G05
T1
X1.0236Y-1.4567
X1.4803Y-1.4567
X1.9528Y-1.4567
X2.4252Y-1.4567
X2.8898Y-1.4567
X3.3543Y-1.4567
X3.8268Y-1.4567
X4.2913Y-1.4567
X4.7559Y-1.4567
X5.2283Y-1.4567
X5.6929Y-1.4567
X6.1575Y-1.4567
X6.6299Y-1.4567
X7.0945Y-1.4567
X7.5591Y-1.4567
X8.0236Y-1.4567
X8.4961Y-1.4567
X8.9528Y-1.4567
X9.4252Y-1.4567
X9.8898Y-1.4567
X10.3622Y-1.4567
X10.8268Y-1.4567
X11.2992Y-1.4567
X11.7638Y-1.4567
X12.2283Y-1.4567
X12.7008Y-1.4567
X13.1575Y-1.4567
X13.6142Y-1.4567
X13.9783Y-1.4567
X14.5669Y-1.4567
T2
X2.0965Y-1.2953
X2.1242Y-1.2285
X2.1242Y-1.3621
X2.191Y-1.2008
X2.191Y-1.3898
X2.2578Y-1.2285
X2.2578Y-1.3621
X2.2855Y-1.2953
X13.3031Y-1.2953
X13.3308Y-1.2285
X13.3308Y-1.3621
X13.3976Y-1.2008
X13.3976Y-1.3898
X13.4644Y-1.2285
X13.4644Y-1.3621
X13.4921Y-1.2953
T3
X1.7264Y-1.2461
X1.7264Y-1.3461
X13.8622Y-1.2386
X13.8622Y-1.3386
T4
X2.191Y-1.2953
X13.3976Y-1.2953
T0
M30
