%TF.GenerationSoftware,KiCad,Pcbnew,(6.0.0)*%
%TF.CreationDate,2023-01-14T14:54:32+01:00*%
%TF.ProjectId,Daylight_XXL,4461796c-6967-4687-945f-58584c2e6b69,rev?*%
%TF.SameCoordinates,Original*%
%TF.FileFunction,Soldermask,Top*%
%TF.FilePolarity,Negative*%
%FSLAX46Y46*%
G04 Gerber Fmt 4.6, Leading zero omitted, Abs format (unit mm)*
G04 Created by KiCad (PCBNEW (6.0.0)) date 2023-01-14 14:54:32*
%MOMM*%
%LPD*%
G01*
G04 APERTURE LIST*
G04 Aperture macros list*
%AMRoundRect*
0 Rectangle with rounded corners*
0 $1 Rounding radius*
0 $2 $3 $4 $5 $6 $7 $8 $9 X,Y pos of 4 corners*
0 Add a 4 corners polygon primitive as box body*
4,1,4,$2,$3,$4,$5,$6,$7,$8,$9,$2,$3,0*
0 Add four circle primitives for the rounded corners*
1,1,$1+$1,$2,$3*
1,1,$1+$1,$4,$5*
1,1,$1+$1,$6,$7*
1,1,$1+$1,$8,$9*
0 Add four rect primitives between the rounded corners*
20,1,$1+$1,$2,$3,$4,$5,0*
20,1,$1+$1,$4,$5,$6,$7,0*
20,1,$1+$1,$6,$7,$8,$9,0*
20,1,$1+$1,$8,$9,$2,$3,0*%
G04 Aperture macros list end*
%ADD10RoundRect,0.250000X-1.075000X0.400000X-1.075000X-0.400000X1.075000X-0.400000X1.075000X0.400000X0*%
%ADD11C,0.800000*%
%ADD12C,6.400000*%
%ADD13R,2.200000X2.500000*%
%ADD14R,2.200000X1.550000*%
%ADD15R,1.700000X1.700000*%
%ADD16O,1.700000X1.700000*%
G04 APERTURE END LIST*
D10*
%TO.C,R6*%
X209835332Y-31350000D03*
X209835332Y-34450000D03*
%TD*%
D11*
%TO.C,H2*%
X341996172Y-31202944D03*
D12*
X340299116Y-32900000D03*
D11*
X338602060Y-34597056D03*
X340299116Y-35300000D03*
X342699116Y-32900000D03*
X337899116Y-32900000D03*
X340299116Y-30500000D03*
X341996172Y-34597056D03*
X338602060Y-31202944D03*
%TD*%
D13*
%TO.C,D8*%
X109022408Y-33950000D03*
D14*
X109022408Y-31375000D03*
%TD*%
D13*
%TO.C,D30*%
X369950000Y-33950000D03*
D14*
X369950000Y-31375000D03*
%TD*%
D13*
%TO.C,D23*%
X286927568Y-33950000D03*
D14*
X286927568Y-31375000D03*
%TD*%
D10*
%TO.C,R4*%
X138673268Y-31350000D03*
X138673268Y-34450000D03*
%TD*%
D13*
%TO.C,D18*%
X227625848Y-33950000D03*
D14*
X227625848Y-31375000D03*
%TD*%
D13*
%TO.C,D26*%
X322508600Y-33950000D03*
D14*
X322508600Y-31375000D03*
%TD*%
D13*
%TO.C,D17*%
X215765504Y-33950000D03*
D14*
X215765504Y-31375000D03*
%TD*%
D13*
%TO.C,D13*%
X168324128Y-33950000D03*
D14*
X168324128Y-31375000D03*
%TD*%
D13*
%TO.C,D2*%
X37860344Y-33950000D03*
D14*
X37860344Y-31375000D03*
%TD*%
D13*
%TO.C,D11*%
X144603440Y-33950000D03*
D14*
X144603440Y-31375000D03*
%TD*%
D13*
%TO.C,D10*%
X132743096Y-33950000D03*
D14*
X132743096Y-31375000D03*
%TD*%
D13*
%TO.C,D12*%
X156463784Y-33950000D03*
D14*
X156463784Y-31375000D03*
%TD*%
D13*
%TO.C,D21*%
X263206880Y-33950000D03*
D14*
X263206880Y-31375000D03*
%TD*%
D13*
%TO.C,D25*%
X310648256Y-33950000D03*
D14*
X310648256Y-31375000D03*
%TD*%
D13*
%TO.C,D4*%
X61581032Y-33950000D03*
D14*
X61581032Y-31375000D03*
%TD*%
D11*
%TO.C,H1*%
X57347916Y-34597056D03*
X58050860Y-32900000D03*
X57347916Y-31202944D03*
X55650860Y-35300000D03*
X53953804Y-31202944D03*
X53250860Y-32900000D03*
D12*
X55650860Y-32900000D03*
D11*
X55650860Y-30500000D03*
X53953804Y-34597056D03*
%TD*%
D10*
%TO.C,R10*%
X364019816Y-31350000D03*
X364019816Y-34450000D03*
%TD*%
D13*
%TO.C,D29*%
X358089632Y-33950000D03*
D14*
X358089632Y-31375000D03*
%TD*%
D13*
%TO.C,D6*%
X85301720Y-33950000D03*
D14*
X85301720Y-31375000D03*
%TD*%
D13*
%TO.C,D1*%
X26000000Y-33950000D03*
D14*
X26000000Y-31375000D03*
%TD*%
D13*
%TO.C,D5*%
X73441376Y-33950000D03*
D14*
X73441376Y-31375000D03*
%TD*%
D13*
%TO.C,D7*%
X97162064Y-33950000D03*
D14*
X97162064Y-31375000D03*
%TD*%
D13*
%TO.C,D15*%
X192044816Y-33950000D03*
D14*
X192044816Y-31375000D03*
%TD*%
D10*
%TO.C,R1*%
X31930172Y-31350000D03*
X31930172Y-34450000D03*
%TD*%
D13*
%TO.C,D9*%
X120882752Y-33950000D03*
D14*
X120882752Y-31375000D03*
%TD*%
D13*
%TO.C,D3*%
X49720688Y-33950000D03*
D14*
X49720688Y-31375000D03*
%TD*%
D13*
%TO.C,D27*%
X334368944Y-33950000D03*
D14*
X334368944Y-31375000D03*
%TD*%
D10*
%TO.C,R8*%
X280997396Y-31350000D03*
X280997396Y-34450000D03*
%TD*%
D13*
%TO.C,D24*%
X298787912Y-33950000D03*
D14*
X298787912Y-31375000D03*
%TD*%
D13*
%TO.C,D22*%
X275067224Y-33950000D03*
D14*
X275067224Y-31375000D03*
%TD*%
D10*
%TO.C,R5*%
X186114644Y-31350000D03*
X186114644Y-34450000D03*
%TD*%
%TO.C,R3*%
X114952580Y-31350000D03*
X114952580Y-34450000D03*
%TD*%
D13*
%TO.C,D28*%
X346229288Y-33950000D03*
D14*
X346229288Y-31375000D03*
%TD*%
D10*
%TO.C,R7*%
X257276708Y-31350000D03*
X257276708Y-34450000D03*
%TD*%
%TO.C,R9*%
X328438772Y-31350000D03*
X328438772Y-34450000D03*
%TD*%
D13*
%TO.C,D19*%
X239486192Y-33950000D03*
D14*
X239486192Y-31375000D03*
%TD*%
D13*
%TO.C,D14*%
X180184472Y-33950000D03*
D14*
X180184472Y-31375000D03*
%TD*%
D13*
%TO.C,D16*%
X203905160Y-33950000D03*
D14*
X203905160Y-31375000D03*
%TD*%
D10*
%TO.C,R2*%
X67511204Y-31350000D03*
X67511204Y-34450000D03*
%TD*%
D13*
%TO.C,D20*%
X251346536Y-33950000D03*
D14*
X251346536Y-31375000D03*
%TD*%
D15*
%TO.C,J1*%
X43850000Y-34190000D03*
D16*
X43850000Y-31650000D03*
%TD*%
D15*
%TO.C,J2*%
X352100000Y-34000000D03*
D16*
X352100000Y-31460000D03*
%TD*%
M02*
