%TF.GenerationSoftware,KiCad,Pcbnew,(6.0.0)*%
%TF.CreationDate,2023-01-14T14:54:32+01:00*%
%TF.ProjectId,Daylight_XXL,4461796c-6967-4687-945f-58584c2e6b69,rev?*%
%TF.SameCoordinates,Original*%
%TF.FileFunction,Legend,Bot*%
%TF.FilePolarity,Positive*%
%FSLAX46Y46*%
G04 Gerber Fmt 4.6, Leading zero omitted, Abs format (unit mm)*
G04 Created by KiCad (PCBNEW (6.0.0)) date 2023-01-14 14:54:32*
%MOMM*%
%LPD*%
G01*
G04 APERTURE LIST*
%ADD10C,0.250000*%
%ADD11C,0.150000*%
%ADD12C,0.120000*%
G04 APERTURE END LIST*
D10*
X350301785Y-30913928D02*
X350230357Y-30842500D01*
X350087500Y-30771071D01*
X349730357Y-30771071D01*
X349587500Y-30842500D01*
X349516071Y-30913928D01*
X349444642Y-31056785D01*
X349444642Y-31199642D01*
X349516071Y-31413928D01*
X350373214Y-32271071D01*
X349444642Y-32271071D01*
X348158928Y-31271071D02*
X348158928Y-32271071D01*
X348516071Y-30699642D02*
X348873214Y-31771071D01*
X347944642Y-31771071D01*
X347587500Y-30771071D02*
X347087500Y-32271071D01*
X346587500Y-30771071D01*
X349444642Y-33257500D02*
X349587500Y-33186071D01*
X349801785Y-33186071D01*
X350016071Y-33257500D01*
X350158928Y-33400357D01*
X350230357Y-33543214D01*
X350301785Y-33828928D01*
X350301785Y-34043214D01*
X350230357Y-34328928D01*
X350158928Y-34471785D01*
X350016071Y-34614642D01*
X349801785Y-34686071D01*
X349658928Y-34686071D01*
X349444642Y-34614642D01*
X349373214Y-34543214D01*
X349373214Y-34043214D01*
X349658928Y-34043214D01*
X348730357Y-34686071D02*
X348730357Y-33186071D01*
X347873214Y-34686071D01*
X347873214Y-33186071D01*
X347158928Y-34686071D02*
X347158928Y-33186071D01*
X346801785Y-33186071D01*
X346587500Y-33257500D01*
X346444642Y-33400357D01*
X346373214Y-33543214D01*
X346301785Y-33828928D01*
X346301785Y-34043214D01*
X346373214Y-34328928D01*
X346444642Y-34471785D01*
X346587500Y-34614642D01*
X346801785Y-34686071D01*
X347158928Y-34686071D01*
X49669642Y-31163928D02*
X49598214Y-31092500D01*
X49455357Y-31021071D01*
X49098214Y-31021071D01*
X48955357Y-31092500D01*
X48883928Y-31163928D01*
X48812500Y-31306785D01*
X48812500Y-31449642D01*
X48883928Y-31663928D01*
X49741071Y-32521071D01*
X48812500Y-32521071D01*
X47526785Y-31521071D02*
X47526785Y-32521071D01*
X47883928Y-30949642D02*
X48241071Y-32021071D01*
X47312500Y-32021071D01*
X46955357Y-31021071D02*
X46455357Y-32521071D01*
X45955357Y-31021071D01*
X49241071Y-33507500D02*
X49383928Y-33436071D01*
X49598214Y-33436071D01*
X49812500Y-33507500D01*
X49955357Y-33650357D01*
X50026785Y-33793214D01*
X50098214Y-34078928D01*
X50098214Y-34293214D01*
X50026785Y-34578928D01*
X49955357Y-34721785D01*
X49812500Y-34864642D01*
X49598214Y-34936071D01*
X49455357Y-34936071D01*
X49241071Y-34864642D01*
X49169642Y-34793214D01*
X49169642Y-34293214D01*
X49455357Y-34293214D01*
X48526785Y-34936071D02*
X48526785Y-33436071D01*
X47669642Y-34936071D01*
X47669642Y-33436071D01*
X46955357Y-34936071D02*
X46955357Y-33436071D01*
X46598214Y-33436071D01*
X46383928Y-33507500D01*
X46241071Y-33650357D01*
X46169642Y-33793214D01*
X46098214Y-34078928D01*
X46098214Y-34293214D01*
X46169642Y-34578928D01*
X46241071Y-34721785D01*
X46383928Y-34864642D01*
X46598214Y-34936071D01*
X46955357Y-34936071D01*
D11*
X206760713Y-32647380D02*
X206760713Y-31647380D01*
X206522618Y-31647380D01*
X206379760Y-31695000D01*
X206284522Y-31790238D01*
X206236903Y-31885476D01*
X206189284Y-32075952D01*
X206189284Y-32218809D01*
X206236903Y-32409285D01*
X206284522Y-32504523D01*
X206379760Y-32599761D01*
X206522618Y-32647380D01*
X206760713Y-32647380D01*
X205332141Y-32647380D02*
X205332141Y-32123571D01*
X205379760Y-32028333D01*
X205474999Y-31980714D01*
X205665475Y-31980714D01*
X205760713Y-32028333D01*
X205332141Y-32599761D02*
X205427379Y-32647380D01*
X205665475Y-32647380D01*
X205760713Y-32599761D01*
X205808332Y-32504523D01*
X205808332Y-32409285D01*
X205760713Y-32314047D01*
X205665475Y-32266428D01*
X205427379Y-32266428D01*
X205332141Y-32218809D01*
X204951189Y-31980714D02*
X204713094Y-32647380D01*
X204474999Y-31980714D02*
X204713094Y-32647380D01*
X204808332Y-32885476D01*
X204855951Y-32933095D01*
X204951189Y-32980714D01*
X203951189Y-32647380D02*
X204046427Y-32599761D01*
X204094046Y-32504523D01*
X204094046Y-31647380D01*
X203570237Y-32647380D02*
X203570237Y-31980714D01*
X203570237Y-31647380D02*
X203617856Y-31695000D01*
X203570237Y-31742619D01*
X203522618Y-31695000D01*
X203570237Y-31647380D01*
X203570237Y-31742619D01*
X202665475Y-31980714D02*
X202665475Y-32790238D01*
X202713094Y-32885476D01*
X202760713Y-32933095D01*
X202855951Y-32980714D01*
X202998808Y-32980714D01*
X203094046Y-32933095D01*
X202665475Y-32599761D02*
X202760713Y-32647380D01*
X202951189Y-32647380D01*
X203046427Y-32599761D01*
X203094046Y-32552142D01*
X203141665Y-32456904D01*
X203141665Y-32171190D01*
X203094046Y-32075952D01*
X203046427Y-32028333D01*
X202951189Y-31980714D01*
X202760713Y-31980714D01*
X202665475Y-32028333D01*
X202189284Y-32647380D02*
X202189284Y-31647380D01*
X201760713Y-32647380D02*
X201760713Y-32123571D01*
X201808332Y-32028333D01*
X201903570Y-31980714D01*
X202046427Y-31980714D01*
X202141665Y-32028333D01*
X202189284Y-32075952D01*
X201427379Y-31980714D02*
X201046427Y-31980714D01*
X201284522Y-31647380D02*
X201284522Y-32504523D01*
X201236903Y-32599761D01*
X201141665Y-32647380D01*
X201046427Y-32647380D01*
X199808332Y-32647380D02*
X199903570Y-32599761D01*
X199951189Y-32552142D01*
X199998808Y-32456904D01*
X199998808Y-32171190D01*
X199951189Y-32075952D01*
X199903570Y-32028333D01*
X199808332Y-31980714D01*
X199665475Y-31980714D01*
X199570237Y-32028333D01*
X199522618Y-32075952D01*
X199474999Y-32171190D01*
X199474999Y-32456904D01*
X199522618Y-32552142D01*
X199570237Y-32599761D01*
X199665475Y-32647380D01*
X199808332Y-32647380D01*
X199046427Y-31980714D02*
X199046427Y-32647380D01*
X199046427Y-32075952D02*
X198998808Y-32028333D01*
X198903570Y-31980714D01*
X198760713Y-31980714D01*
X198665475Y-32028333D01*
X198617856Y-32123571D01*
X198617856Y-32647380D01*
X196951189Y-32647380D02*
X196951189Y-32123571D01*
X196998808Y-32028333D01*
X197094046Y-31980714D01*
X197284522Y-31980714D01*
X197379760Y-32028333D01*
X196951189Y-32599761D02*
X197046427Y-32647380D01*
X197284522Y-32647380D01*
X197379760Y-32599761D01*
X197427379Y-32504523D01*
X197427379Y-32409285D01*
X197379760Y-32314047D01*
X197284522Y-32266428D01*
X197046427Y-32266428D01*
X196951189Y-32218809D01*
X195760713Y-32599761D02*
X195665475Y-32647380D01*
X195474999Y-32647380D01*
X195379760Y-32599761D01*
X195332141Y-32504523D01*
X195332141Y-32456904D01*
X195379760Y-32361666D01*
X195474999Y-32314047D01*
X195617856Y-32314047D01*
X195713094Y-32266428D01*
X195760713Y-32171190D01*
X195760713Y-32123571D01*
X195713094Y-32028333D01*
X195617856Y-31980714D01*
X195474999Y-31980714D01*
X195379760Y-32028333D01*
X195046427Y-31980714D02*
X194665475Y-31980714D01*
X194903570Y-31647380D02*
X194903570Y-32504523D01*
X194855951Y-32599761D01*
X194760713Y-32647380D01*
X194665475Y-32647380D01*
X194332141Y-32647380D02*
X194332141Y-31980714D01*
X194332141Y-31647380D02*
X194379760Y-31695000D01*
X194332141Y-31742619D01*
X194284522Y-31695000D01*
X194332141Y-31647380D01*
X194332141Y-31742619D01*
X193427379Y-32599761D02*
X193522618Y-32647380D01*
X193713094Y-32647380D01*
X193808332Y-32599761D01*
X193855951Y-32552142D01*
X193903570Y-32456904D01*
X193903570Y-32171190D01*
X193855951Y-32075952D01*
X193808332Y-32028333D01*
X193713094Y-31980714D01*
X193522618Y-31980714D01*
X193427379Y-32028333D01*
X192998808Y-32647380D02*
X192998808Y-31647380D01*
X192903570Y-32266428D02*
X192617856Y-32647380D01*
X192617856Y-31980714D02*
X192998808Y-32361666D01*
X191522618Y-31647380D02*
X190855951Y-32647380D01*
X190855951Y-31647380D02*
X191522618Y-32647380D01*
X190570237Y-31647380D02*
X189903570Y-32647380D01*
X189903570Y-31647380D02*
X190570237Y-32647380D01*
X189046427Y-32647380D02*
X189522618Y-32647380D01*
X189522618Y-31647380D01*
X203546427Y-33590714D02*
X203308332Y-34257380D01*
X203070237Y-33590714D01*
X202165475Y-34257380D02*
X202736903Y-34257380D01*
X202451189Y-34257380D02*
X202451189Y-33257380D01*
X202546427Y-33400238D01*
X202641665Y-33495476D01*
X202736903Y-33543095D01*
X201736903Y-34162142D02*
X201689284Y-34209761D01*
X201736903Y-34257380D01*
X201784522Y-34209761D01*
X201736903Y-34162142D01*
X201736903Y-34257380D01*
X201308332Y-33352619D02*
X201260713Y-33305000D01*
X201165475Y-33257380D01*
X200927379Y-33257380D01*
X200832141Y-33305000D01*
X200784522Y-33352619D01*
X200736903Y-33447857D01*
X200736903Y-33543095D01*
X200784522Y-33685952D01*
X201355951Y-34257380D01*
X200736903Y-34257380D01*
X199546427Y-34257380D02*
X199546427Y-33257380D01*
X199546427Y-33638333D02*
X199451189Y-33590714D01*
X199260713Y-33590714D01*
X199165475Y-33638333D01*
X199117856Y-33685952D01*
X199070237Y-33781190D01*
X199070237Y-34066904D01*
X199117856Y-34162142D01*
X199165475Y-34209761D01*
X199260713Y-34257380D01*
X199451189Y-34257380D01*
X199546427Y-34209761D01*
X198736903Y-33590714D02*
X198498808Y-34257380D01*
X198260713Y-33590714D02*
X198498808Y-34257380D01*
X198594046Y-34495476D01*
X198641665Y-34543095D01*
X198736903Y-34590714D01*
X196784522Y-33733571D02*
X196641665Y-33781190D01*
X196594046Y-33828809D01*
X196546427Y-33924047D01*
X196546427Y-34066904D01*
X196594046Y-34162142D01*
X196641665Y-34209761D01*
X196736903Y-34257380D01*
X197117856Y-34257380D01*
X197117856Y-33257380D01*
X196784522Y-33257380D01*
X196689284Y-33305000D01*
X196641665Y-33352619D01*
X196594046Y-33447857D01*
X196594046Y-33543095D01*
X196641665Y-33638333D01*
X196689284Y-33685952D01*
X196784522Y-33733571D01*
X197117856Y-33733571D01*
X195974999Y-34257380D02*
X196070237Y-34209761D01*
X196117856Y-34114523D01*
X196117856Y-33257380D01*
X195165475Y-34257380D02*
X195165475Y-33733571D01*
X195213094Y-33638333D01*
X195308332Y-33590714D01*
X195498808Y-33590714D01*
X195594046Y-33638333D01*
X195165475Y-34209761D02*
X195260713Y-34257380D01*
X195498808Y-34257380D01*
X195594046Y-34209761D01*
X195641665Y-34114523D01*
X195641665Y-34019285D01*
X195594046Y-33924047D01*
X195498808Y-33876428D01*
X195260713Y-33876428D01*
X195165475Y-33828809D01*
X194689284Y-34257380D02*
X194689284Y-33590714D01*
X194689284Y-33685952D02*
X194641665Y-33638333D01*
X194546427Y-33590714D01*
X194403570Y-33590714D01*
X194308332Y-33638333D01*
X194260713Y-33733571D01*
X194260713Y-34257380D01*
X194260713Y-33733571D02*
X194213094Y-33638333D01*
X194117856Y-33590714D01*
X193974999Y-33590714D01*
X193879760Y-33638333D01*
X193832141Y-33733571D01*
X193832141Y-34257380D01*
X193355951Y-34257380D02*
X193355951Y-33590714D01*
X193355951Y-33685952D02*
X193308332Y-33638333D01*
X193213094Y-33590714D01*
X193070237Y-33590714D01*
X192974999Y-33638333D01*
X192927379Y-33733571D01*
X192927379Y-34257380D01*
X192927379Y-33733571D02*
X192879760Y-33638333D01*
X192784522Y-33590714D01*
X192641665Y-33590714D01*
X192546427Y-33638333D01*
X192498808Y-33733571D01*
X192498808Y-34257380D01*
D12*
%TO.C,J1*%
X42410000Y-35520000D02*
X39750000Y-35520000D01*
X42740000Y-32030000D02*
X42410000Y-32030000D01*
X42740000Y-31270000D02*
X42410000Y-31270000D01*
X42410000Y-32920000D02*
X39750000Y-32920000D01*
X42807071Y-34570000D02*
X42410000Y-34570000D01*
X42807071Y-33810000D02*
X42410000Y-33810000D01*
X33750000Y-31270000D02*
X33750000Y-32030000D01*
X39750000Y-33810000D02*
X33750000Y-33810000D01*
X33750000Y-32030000D02*
X39750000Y-32030000D01*
X39750000Y-31270000D02*
X33750000Y-31270000D01*
X33750000Y-34570000D02*
X39750000Y-34570000D01*
X42410000Y-30320000D02*
X42410000Y-35520000D01*
X45120000Y-30380000D02*
X43850000Y-30380000D01*
X39750000Y-30320000D02*
X42410000Y-30320000D01*
X33750000Y-33810000D02*
X33750000Y-34570000D01*
X39750000Y-35520000D02*
X39750000Y-30320000D01*
X45120000Y-31650000D02*
X45120000Y-30380000D01*
%TO.C,J2*%
X356200000Y-30130000D02*
X356200000Y-35330000D01*
X353210000Y-33620000D02*
X353540000Y-33620000D01*
X362200000Y-31840000D02*
X362200000Y-31080000D01*
X353142929Y-31080000D02*
X353540000Y-31080000D01*
X353540000Y-32730000D02*
X356200000Y-32730000D01*
X350830000Y-35270000D02*
X352100000Y-35270000D01*
X356200000Y-35330000D02*
X353540000Y-35330000D01*
X353142929Y-31840000D02*
X353540000Y-31840000D01*
X362200000Y-31080000D02*
X356200000Y-31080000D01*
X353540000Y-30130000D02*
X356200000Y-30130000D01*
X356200000Y-34380000D02*
X362200000Y-34380000D01*
X353210000Y-34380000D02*
X353540000Y-34380000D01*
X350830000Y-34000000D02*
X350830000Y-35270000D01*
X362200000Y-33620000D02*
X356200000Y-33620000D01*
X362200000Y-34380000D02*
X362200000Y-33620000D01*
X356200000Y-31840000D02*
X362200000Y-31840000D01*
X353540000Y-35330000D02*
X353540000Y-30130000D01*
%TD*%
M02*
