%TF.GenerationSoftware,KiCad,Pcbnew,(6.0.0)*%
%TF.CreationDate,2023-01-14T14:54:32+01:00*%
%TF.ProjectId,Daylight_XXL,4461796c-6967-4687-945f-58584c2e6b69,rev?*%
%TF.SameCoordinates,Original*%
%TF.FileFunction,Copper,L2,Bot*%
%TF.FilePolarity,Positive*%
%FSLAX46Y46*%
G04 Gerber Fmt 4.6, Leading zero omitted, Abs format (unit mm)*
G04 Created by KiCad (PCBNEW (6.0.0)) date 2023-01-14 14:54:32*
%MOMM*%
%LPD*%
G01*
G04 APERTURE LIST*
%TA.AperFunction,ComponentPad*%
%ADD10C,0.800000*%
%TD*%
%TA.AperFunction,ComponentPad*%
%ADD11C,6.400000*%
%TD*%
%TA.AperFunction,ComponentPad*%
%ADD12R,1.700000X1.700000*%
%TD*%
%TA.AperFunction,ComponentPad*%
%ADD13O,1.700000X1.700000*%
%TD*%
%TA.AperFunction,ViaPad*%
%ADD14C,0.800000*%
%TD*%
G04 APERTURE END LIST*
D10*
%TO.P,H2,1,1*%
%TO.N,GND*%
X341996172Y-31202944D03*
D11*
X340299116Y-32900000D03*
D10*
X338602060Y-34597056D03*
X340299116Y-35300000D03*
X342699116Y-32900000D03*
X337899116Y-32900000D03*
X340299116Y-30500000D03*
X341996172Y-34597056D03*
X338602060Y-31202944D03*
%TD*%
%TO.P,H1,1,1*%
%TO.N,GND*%
X57347916Y-34597056D03*
X58050860Y-32900000D03*
X57347916Y-31202944D03*
X55650860Y-35300000D03*
X53953804Y-31202944D03*
X53250860Y-32900000D03*
D11*
X55650860Y-32900000D03*
D10*
X55650860Y-30500000D03*
X53953804Y-34597056D03*
%TD*%
D12*
%TO.P,J1,1,Pin_1*%
%TO.N,GND*%
X43850000Y-34190000D03*
D13*
%TO.P,J1,2,Pin_2*%
%TO.N,+24V*%
X43850000Y-31650000D03*
%TD*%
D12*
%TO.P,J2,1,Pin_1*%
%TO.N,GND*%
X352100000Y-34000000D03*
D13*
%TO.P,J2,2,Pin_2*%
%TO.N,+24V*%
X352100000Y-31460000D03*
%TD*%
D14*
%TO.N,GND*%
X85200000Y-37000000D03*
X239400000Y-37000000D03*
X310600000Y-37000000D03*
X97200000Y-37000000D03*
X61600000Y-37000000D03*
X132800000Y-37000000D03*
X26000000Y-37000000D03*
X37600000Y-37000000D03*
X144600000Y-37000000D03*
X109000000Y-37000000D03*
X215800000Y-37000000D03*
X355050000Y-37000000D03*
X180200000Y-37000000D03*
X203800000Y-37000000D03*
X49600000Y-37000000D03*
X120800000Y-37000000D03*
X227400000Y-37000000D03*
X345800000Y-37000000D03*
X322600000Y-37000000D03*
X156400000Y-37000000D03*
X298800000Y-37000000D03*
X275000000Y-37000000D03*
X251200000Y-37000000D03*
X192000000Y-37000000D03*
X73400000Y-37000000D03*
X334200000Y-37000000D03*
X168400000Y-37000000D03*
X287000000Y-37000000D03*
X263200000Y-37000000D03*
X370000000Y-37000000D03*
%TD*%
%TA.AperFunction,Conductor*%
%TO.N,GND*%
G36*
X378892662Y-28025006D02*
G01*
X382122180Y-29898126D01*
X382429216Y-30076207D01*
X382478108Y-30127687D01*
X382492000Y-30185201D01*
X382492000Y-35814799D01*
X382471998Y-35882920D01*
X382429217Y-35923792D01*
X381241072Y-36612916D01*
X378892661Y-37974994D01*
X378829445Y-37992000D01*
X17170553Y-37992000D01*
X17107337Y-37974994D01*
X14738615Y-36601135D01*
X13570783Y-35923792D01*
X13521892Y-35872313D01*
X13508000Y-35814799D01*
X13508000Y-35697386D01*
X53218619Y-35697386D01*
X53226076Y-35707753D01*
X53465795Y-35901874D01*
X53471132Y-35905751D01*
X53791545Y-36113830D01*
X53797254Y-36117127D01*
X54137671Y-36290578D01*
X54143696Y-36293260D01*
X54500362Y-36430171D01*
X54506644Y-36432212D01*
X54875676Y-36531094D01*
X54882126Y-36532465D01*
X55259489Y-36592234D01*
X55266027Y-36592920D01*
X55647559Y-36612916D01*
X55654161Y-36612916D01*
X56035693Y-36592920D01*
X56042231Y-36592234D01*
X56419594Y-36532465D01*
X56426044Y-36531094D01*
X56795076Y-36432212D01*
X56801358Y-36430171D01*
X57158024Y-36293260D01*
X57164049Y-36290578D01*
X57504466Y-36117127D01*
X57510175Y-36113830D01*
X57830588Y-35905751D01*
X57835925Y-35901874D01*
X58074695Y-35708522D01*
X58082387Y-35697386D01*
X337866875Y-35697386D01*
X337874332Y-35707753D01*
X338114051Y-35901874D01*
X338119388Y-35905751D01*
X338439801Y-36113830D01*
X338445510Y-36117127D01*
X338785927Y-36290578D01*
X338791952Y-36293260D01*
X339148618Y-36430171D01*
X339154900Y-36432212D01*
X339523932Y-36531094D01*
X339530382Y-36532465D01*
X339907745Y-36592234D01*
X339914283Y-36592920D01*
X340295815Y-36612916D01*
X340302417Y-36612916D01*
X340683949Y-36592920D01*
X340690487Y-36592234D01*
X341067850Y-36532465D01*
X341074300Y-36531094D01*
X341443332Y-36432212D01*
X341449614Y-36430171D01*
X341806280Y-36293260D01*
X341812305Y-36290578D01*
X342152722Y-36117127D01*
X342158431Y-36113830D01*
X342478844Y-35905751D01*
X342484181Y-35901874D01*
X342722951Y-35708522D01*
X342731416Y-35696267D01*
X342725082Y-35685176D01*
X340311928Y-33272022D01*
X340297984Y-33264408D01*
X340296151Y-33264539D01*
X340289536Y-33268790D01*
X337874016Y-35684310D01*
X337866875Y-35697386D01*
X58082387Y-35697386D01*
X58083160Y-35696267D01*
X58076826Y-35685176D01*
X55663672Y-33272022D01*
X55649728Y-33264408D01*
X55647895Y-33264539D01*
X55641280Y-33268790D01*
X53225760Y-35684310D01*
X53218619Y-35697386D01*
X13508000Y-35697386D01*
X13508000Y-35084669D01*
X42492001Y-35084669D01*
X42492371Y-35091490D01*
X42497895Y-35142352D01*
X42501521Y-35157604D01*
X42546676Y-35278054D01*
X42555214Y-35293649D01*
X42631715Y-35395724D01*
X42644276Y-35408285D01*
X42746351Y-35484786D01*
X42761946Y-35493324D01*
X42882394Y-35538478D01*
X42897649Y-35542105D01*
X42948514Y-35547631D01*
X42955328Y-35548000D01*
X43577885Y-35548000D01*
X43593124Y-35543525D01*
X43594329Y-35542135D01*
X43596000Y-35534452D01*
X43596000Y-35529884D01*
X44104000Y-35529884D01*
X44108475Y-35545123D01*
X44109865Y-35546328D01*
X44117548Y-35547999D01*
X44744669Y-35547999D01*
X44751490Y-35547629D01*
X44802352Y-35542105D01*
X44817604Y-35538479D01*
X44938054Y-35493324D01*
X44953649Y-35484786D01*
X45055724Y-35408285D01*
X45068285Y-35395724D01*
X45144786Y-35293649D01*
X45153324Y-35278054D01*
X45198478Y-35157606D01*
X45202105Y-35142351D01*
X45207631Y-35091486D01*
X45208000Y-35084672D01*
X45208000Y-34462115D01*
X45203525Y-34446876D01*
X45202135Y-34445671D01*
X45194452Y-34444000D01*
X44122115Y-34444000D01*
X44106876Y-34448475D01*
X44105671Y-34449865D01*
X44104000Y-34457548D01*
X44104000Y-35529884D01*
X43596000Y-35529884D01*
X43596000Y-34462115D01*
X43591525Y-34446876D01*
X43590135Y-34445671D01*
X43582452Y-34444000D01*
X42510116Y-34444000D01*
X42494877Y-34448475D01*
X42493672Y-34449865D01*
X42492001Y-34457548D01*
X42492001Y-35084669D01*
X13508000Y-35084669D01*
X13508000Y-31616695D01*
X42487251Y-31616695D01*
X42487548Y-31621848D01*
X42487548Y-31621851D01*
X42493011Y-31716590D01*
X42500110Y-31839715D01*
X42501247Y-31844761D01*
X42501248Y-31844767D01*
X42521119Y-31932939D01*
X42549222Y-32057639D01*
X42633266Y-32264616D01*
X42635965Y-32269020D01*
X42741695Y-32441556D01*
X42749987Y-32455088D01*
X42896250Y-32623938D01*
X42900225Y-32627238D01*
X42900231Y-32627244D01*
X42905425Y-32631556D01*
X42945059Y-32690460D01*
X42946555Y-32761441D01*
X42909439Y-32821962D01*
X42869168Y-32846480D01*
X42761946Y-32886676D01*
X42746351Y-32895214D01*
X42644276Y-32971715D01*
X42631715Y-32984276D01*
X42555214Y-33086351D01*
X42546676Y-33101946D01*
X42501522Y-33222394D01*
X42497895Y-33237649D01*
X42492369Y-33288514D01*
X42492000Y-33295328D01*
X42492000Y-33917885D01*
X42496475Y-33933124D01*
X42497865Y-33934329D01*
X42505548Y-33936000D01*
X45189884Y-33936000D01*
X45205123Y-33931525D01*
X45206328Y-33930135D01*
X45207999Y-33922452D01*
X45207999Y-33295331D01*
X45207629Y-33288510D01*
X45202105Y-33237648D01*
X45198479Y-33222396D01*
X45153324Y-33101946D01*
X45144786Y-33086351D01*
X45068285Y-32984276D01*
X45055724Y-32971715D01*
X44964439Y-32903301D01*
X51937944Y-32903301D01*
X51957940Y-33284833D01*
X51958626Y-33291371D01*
X52018395Y-33668734D01*
X52019766Y-33675184D01*
X52118648Y-34044216D01*
X52120689Y-34050498D01*
X52257600Y-34407164D01*
X52260282Y-34413189D01*
X52433732Y-34753603D01*
X52437029Y-34759313D01*
X52645113Y-35079735D01*
X52648983Y-35085061D01*
X52842338Y-35323835D01*
X52854593Y-35332300D01*
X52865684Y-35325966D01*
X55278838Y-32912812D01*
X55285216Y-32901132D01*
X56015268Y-32901132D01*
X56015399Y-32902965D01*
X56019650Y-32909580D01*
X58435170Y-35325100D01*
X58448246Y-35332241D01*
X58458613Y-35324784D01*
X58652737Y-35085061D01*
X58656607Y-35079735D01*
X58864691Y-34759313D01*
X58867988Y-34753603D01*
X59041438Y-34413189D01*
X59044120Y-34407164D01*
X59181031Y-34050498D01*
X59183072Y-34044216D01*
X59281954Y-33675184D01*
X59283325Y-33668734D01*
X59343094Y-33291371D01*
X59343780Y-33284833D01*
X59363776Y-32903301D01*
X336586200Y-32903301D01*
X336606196Y-33284833D01*
X336606882Y-33291371D01*
X336666651Y-33668734D01*
X336668022Y-33675184D01*
X336766904Y-34044216D01*
X336768945Y-34050498D01*
X336905856Y-34407164D01*
X336908538Y-34413189D01*
X337081988Y-34753603D01*
X337085285Y-34759313D01*
X337293369Y-35079735D01*
X337297239Y-35085061D01*
X337490594Y-35323835D01*
X337502849Y-35332300D01*
X337513940Y-35325966D01*
X339927094Y-32912812D01*
X339933472Y-32901132D01*
X340663524Y-32901132D01*
X340663655Y-32902965D01*
X340667906Y-32909580D01*
X343083426Y-35325100D01*
X343096502Y-35332241D01*
X343106869Y-35324784D01*
X343300993Y-35085061D01*
X343304863Y-35079735D01*
X343425046Y-34894669D01*
X350742001Y-34894669D01*
X350742371Y-34901490D01*
X350747895Y-34952352D01*
X350751521Y-34967604D01*
X350796676Y-35088054D01*
X350805214Y-35103649D01*
X350881715Y-35205724D01*
X350894276Y-35218285D01*
X350996351Y-35294786D01*
X351011946Y-35303324D01*
X351132394Y-35348478D01*
X351147649Y-35352105D01*
X351198514Y-35357631D01*
X351205328Y-35358000D01*
X351827885Y-35358000D01*
X351843124Y-35353525D01*
X351844329Y-35352135D01*
X351846000Y-35344452D01*
X351846000Y-35339884D01*
X352354000Y-35339884D01*
X352358475Y-35355123D01*
X352359865Y-35356328D01*
X352367548Y-35357999D01*
X352994669Y-35357999D01*
X353001490Y-35357629D01*
X353052352Y-35352105D01*
X353067604Y-35348479D01*
X353188054Y-35303324D01*
X353203649Y-35294786D01*
X353305724Y-35218285D01*
X353318285Y-35205724D01*
X353394786Y-35103649D01*
X353403324Y-35088054D01*
X353448478Y-34967606D01*
X353452105Y-34952351D01*
X353457631Y-34901486D01*
X353458000Y-34894672D01*
X353458000Y-34272115D01*
X353453525Y-34256876D01*
X353452135Y-34255671D01*
X353444452Y-34254000D01*
X352372115Y-34254000D01*
X352356876Y-34258475D01*
X352355671Y-34259865D01*
X352354000Y-34267548D01*
X352354000Y-35339884D01*
X351846000Y-35339884D01*
X351846000Y-34272115D01*
X351841525Y-34256876D01*
X351840135Y-34255671D01*
X351832452Y-34254000D01*
X350760116Y-34254000D01*
X350744877Y-34258475D01*
X350743672Y-34259865D01*
X350742001Y-34267548D01*
X350742001Y-34894669D01*
X343425046Y-34894669D01*
X343512947Y-34759313D01*
X343516244Y-34753603D01*
X343689694Y-34413189D01*
X343692376Y-34407164D01*
X343829287Y-34050498D01*
X343831328Y-34044216D01*
X343930210Y-33675184D01*
X343931581Y-33668734D01*
X343991350Y-33291371D01*
X343992036Y-33284833D01*
X344012032Y-32903301D01*
X344012032Y-32896699D01*
X343992036Y-32515167D01*
X343991350Y-32508629D01*
X343931581Y-32131266D01*
X343930210Y-32124816D01*
X343831328Y-31755784D01*
X343829287Y-31749502D01*
X343705373Y-31426695D01*
X350737251Y-31426695D01*
X350737548Y-31431848D01*
X350737548Y-31431851D01*
X350743011Y-31526590D01*
X350750110Y-31649715D01*
X350751247Y-31654761D01*
X350751248Y-31654767D01*
X350764426Y-31713240D01*
X350799222Y-31867639D01*
X350883266Y-32074616D01*
X350999987Y-32265088D01*
X351146250Y-32433938D01*
X351150225Y-32437238D01*
X351150231Y-32437244D01*
X351155425Y-32441556D01*
X351195059Y-32500460D01*
X351196555Y-32571441D01*
X351159439Y-32631962D01*
X351119168Y-32656480D01*
X351011946Y-32696676D01*
X350996351Y-32705214D01*
X350894276Y-32781715D01*
X350881715Y-32794276D01*
X350805214Y-32896351D01*
X350796676Y-32911946D01*
X350751522Y-33032394D01*
X350747895Y-33047649D01*
X350742369Y-33098514D01*
X350742000Y-33105328D01*
X350742000Y-33727885D01*
X350746475Y-33743124D01*
X350747865Y-33744329D01*
X350755548Y-33746000D01*
X353439884Y-33746000D01*
X353455123Y-33741525D01*
X353456328Y-33740135D01*
X353457999Y-33732452D01*
X353457999Y-33105331D01*
X353457629Y-33098510D01*
X353452105Y-33047648D01*
X353448479Y-33032396D01*
X353403324Y-32911946D01*
X353394786Y-32896351D01*
X353318285Y-32794276D01*
X353305724Y-32781715D01*
X353203649Y-32705214D01*
X353188054Y-32696676D01*
X353077813Y-32655348D01*
X353021049Y-32612706D01*
X352996349Y-32546145D01*
X353011557Y-32476796D01*
X353033104Y-32448115D01*
X353134430Y-32347144D01*
X353134440Y-32347132D01*
X353138096Y-32343489D01*
X353197594Y-32260689D01*
X353265435Y-32166277D01*
X353268453Y-32162077D01*
X353286869Y-32124816D01*
X353365136Y-31966453D01*
X353365137Y-31966451D01*
X353367430Y-31961811D01*
X353432370Y-31748069D01*
X353461529Y-31526590D01*
X353463156Y-31460000D01*
X353444852Y-31237361D01*
X353390431Y-31020702D01*
X353301354Y-30815840D01*
X353180014Y-30628277D01*
X353029670Y-30463051D01*
X353025619Y-30459852D01*
X353025615Y-30459848D01*
X352858414Y-30327800D01*
X352858410Y-30327798D01*
X352854359Y-30324598D01*
X352658789Y-30216638D01*
X352653920Y-30214914D01*
X352653916Y-30214912D01*
X352453087Y-30143795D01*
X352453083Y-30143794D01*
X352448212Y-30142069D01*
X352443119Y-30141162D01*
X352443116Y-30141161D01*
X352233373Y-30103800D01*
X352233367Y-30103799D01*
X352228284Y-30102894D01*
X352154452Y-30101992D01*
X352010081Y-30100228D01*
X352010079Y-30100228D01*
X352004911Y-30100165D01*
X351784091Y-30133955D01*
X351571756Y-30203357D01*
X351541443Y-30219137D01*
X351403496Y-30290948D01*
X351373607Y-30306507D01*
X351369474Y-30309610D01*
X351369471Y-30309612D01*
X351236916Y-30409137D01*
X351194965Y-30440635D01*
X351040629Y-30602138D01*
X351037715Y-30606410D01*
X351037714Y-30606411D01*
X351003293Y-30656870D01*
X350914743Y-30786680D01*
X350900076Y-30818277D01*
X350828535Y-30972401D01*
X350820688Y-30989305D01*
X350760989Y-31204570D01*
X350737251Y-31426695D01*
X343705373Y-31426695D01*
X343692376Y-31392836D01*
X343689694Y-31386811D01*
X343516244Y-31046397D01*
X343512947Y-31040687D01*
X343304863Y-30720265D01*
X343300993Y-30714939D01*
X343107638Y-30476165D01*
X343095383Y-30467700D01*
X343084292Y-30474034D01*
X340671138Y-32887188D01*
X340663524Y-32901132D01*
X339933472Y-32901132D01*
X339934708Y-32898868D01*
X339934577Y-32897035D01*
X339930326Y-32890420D01*
X337514806Y-30474900D01*
X337501730Y-30467759D01*
X337491363Y-30475216D01*
X337297239Y-30714939D01*
X337293369Y-30720265D01*
X337085285Y-31040687D01*
X337081988Y-31046397D01*
X336908538Y-31386811D01*
X336905856Y-31392836D01*
X336768945Y-31749502D01*
X336766904Y-31755784D01*
X336668022Y-32124816D01*
X336666651Y-32131266D01*
X336606882Y-32508629D01*
X336606196Y-32515167D01*
X336586200Y-32896699D01*
X336586200Y-32903301D01*
X59363776Y-32903301D01*
X59363776Y-32896699D01*
X59343780Y-32515167D01*
X59343094Y-32508629D01*
X59283325Y-32131266D01*
X59281954Y-32124816D01*
X59183072Y-31755784D01*
X59181031Y-31749502D01*
X59044120Y-31392836D01*
X59041438Y-31386811D01*
X58867988Y-31046397D01*
X58864691Y-31040687D01*
X58656607Y-30720265D01*
X58652737Y-30714939D01*
X58459382Y-30476165D01*
X58447127Y-30467700D01*
X58436036Y-30474034D01*
X56022882Y-32887188D01*
X56015268Y-32901132D01*
X55285216Y-32901132D01*
X55286452Y-32898868D01*
X55286321Y-32897035D01*
X55282070Y-32890420D01*
X52866550Y-30474900D01*
X52853474Y-30467759D01*
X52843107Y-30475216D01*
X52648983Y-30714939D01*
X52645113Y-30720265D01*
X52437029Y-31040687D01*
X52433732Y-31046397D01*
X52260282Y-31386811D01*
X52257600Y-31392836D01*
X52120689Y-31749502D01*
X52118648Y-31755784D01*
X52019766Y-32124816D01*
X52018395Y-32131266D01*
X51958626Y-32508629D01*
X51957940Y-32515167D01*
X51937944Y-32896699D01*
X51937944Y-32903301D01*
X44964439Y-32903301D01*
X44953649Y-32895214D01*
X44938054Y-32886676D01*
X44827813Y-32845348D01*
X44771049Y-32802706D01*
X44746349Y-32736145D01*
X44761557Y-32666796D01*
X44783104Y-32638115D01*
X44884430Y-32537144D01*
X44884440Y-32537132D01*
X44888096Y-32533489D01*
X44947594Y-32450689D01*
X45015435Y-32356277D01*
X45018453Y-32352077D01*
X45022698Y-32343489D01*
X45115136Y-32156453D01*
X45115137Y-32156451D01*
X45117430Y-32151811D01*
X45182370Y-31938069D01*
X45211529Y-31716590D01*
X45213156Y-31650000D01*
X45194852Y-31427361D01*
X45140431Y-31210702D01*
X45051354Y-31005840D01*
X44930014Y-30818277D01*
X44779670Y-30653051D01*
X44775619Y-30649852D01*
X44775615Y-30649848D01*
X44608414Y-30517800D01*
X44608410Y-30517798D01*
X44604359Y-30514598D01*
X44408789Y-30406638D01*
X44403920Y-30404914D01*
X44403916Y-30404912D01*
X44203087Y-30333795D01*
X44203083Y-30333794D01*
X44198212Y-30332069D01*
X44193119Y-30331162D01*
X44193116Y-30331161D01*
X43983373Y-30293800D01*
X43983367Y-30293799D01*
X43978284Y-30292894D01*
X43904452Y-30291992D01*
X43760081Y-30290228D01*
X43760079Y-30290228D01*
X43754911Y-30290165D01*
X43534091Y-30323955D01*
X43321756Y-30393357D01*
X43291443Y-30409137D01*
X43162684Y-30476165D01*
X43123607Y-30496507D01*
X43119474Y-30499610D01*
X43119471Y-30499612D01*
X42982919Y-30602138D01*
X42944965Y-30630635D01*
X42941393Y-30634373D01*
X42859313Y-30720265D01*
X42790629Y-30792138D01*
X42787715Y-30796410D01*
X42787714Y-30796411D01*
X42772798Y-30818277D01*
X42664743Y-30976680D01*
X42570688Y-31179305D01*
X42510989Y-31394570D01*
X42487251Y-31616695D01*
X13508000Y-31616695D01*
X13508000Y-30185201D01*
X13528002Y-30117080D01*
X13541972Y-30103733D01*
X53218560Y-30103733D01*
X53224894Y-30114824D01*
X55638048Y-32527978D01*
X55651992Y-32535592D01*
X55653825Y-32535461D01*
X55660440Y-32531210D01*
X58075960Y-30115690D01*
X58082490Y-30103733D01*
X337866816Y-30103733D01*
X337873150Y-30114824D01*
X340286304Y-32527978D01*
X340300248Y-32535592D01*
X340302081Y-32535461D01*
X340308696Y-32531210D01*
X342724216Y-30115690D01*
X342731357Y-30102614D01*
X342723900Y-30092247D01*
X342484181Y-29898126D01*
X342478844Y-29894249D01*
X342158431Y-29686170D01*
X342152722Y-29682873D01*
X341812305Y-29509422D01*
X341806280Y-29506740D01*
X341449614Y-29369829D01*
X341443332Y-29367788D01*
X341074300Y-29268906D01*
X341067850Y-29267535D01*
X340690487Y-29207766D01*
X340683949Y-29207080D01*
X340302417Y-29187084D01*
X340295815Y-29187084D01*
X339914283Y-29207080D01*
X339907745Y-29207766D01*
X339530382Y-29267535D01*
X339523932Y-29268906D01*
X339154900Y-29367788D01*
X339148618Y-29369829D01*
X338791952Y-29506740D01*
X338785927Y-29509422D01*
X338445513Y-29682872D01*
X338439803Y-29686169D01*
X338119381Y-29894253D01*
X338114055Y-29898123D01*
X337875281Y-30091478D01*
X337866816Y-30103733D01*
X58082490Y-30103733D01*
X58083101Y-30102614D01*
X58075644Y-30092247D01*
X57835925Y-29898126D01*
X57830588Y-29894249D01*
X57510175Y-29686170D01*
X57504466Y-29682873D01*
X57164049Y-29509422D01*
X57158024Y-29506740D01*
X56801358Y-29369829D01*
X56795076Y-29367788D01*
X56426044Y-29268906D01*
X56419594Y-29267535D01*
X56042231Y-29207766D01*
X56035693Y-29207080D01*
X55654161Y-29187084D01*
X55647559Y-29187084D01*
X55266027Y-29207080D01*
X55259489Y-29207766D01*
X54882126Y-29267535D01*
X54875676Y-29268906D01*
X54506644Y-29367788D01*
X54500362Y-29369829D01*
X54143696Y-29506740D01*
X54137671Y-29509422D01*
X53797257Y-29682872D01*
X53791547Y-29686169D01*
X53471125Y-29894253D01*
X53465799Y-29898123D01*
X53227025Y-30091478D01*
X53218560Y-30103733D01*
X13541972Y-30103733D01*
X13570783Y-30076208D01*
X17107340Y-28025006D01*
X17170555Y-28008000D01*
X378829447Y-28008000D01*
X378892662Y-28025006D01*
G37*
%TD.AperFunction*%
%TD*%
M02*
