%TF.GenerationSoftware,KiCad,Pcbnew,(6.0.0)*%
%TF.CreationDate,2022-09-21T13:56:40+02:00*%
%TF.ProjectId,Rainbow_Matchstick,5261696e-626f-4775-9f4d-617463687374,rev?*%
%TF.SameCoordinates,Original*%
%TF.FileFunction,Paste,Top*%
%TF.FilePolarity,Positive*%
%FSLAX46Y46*%
G04 Gerber Fmt 4.6, Leading zero omitted, Abs format (unit mm)*
G04 Created by KiCad (PCBNEW (6.0.0)) date 2022-09-21 13:56:40*
%MOMM*%
%LPD*%
G01*
G04 APERTURE LIST*
G04 Aperture macros list*
%AMRoundRect*
0 Rectangle with rounded corners*
0 $1 Rounding radius*
0 $2 $3 $4 $5 $6 $7 $8 $9 X,Y pos of 4 corners*
0 Add a 4 corners polygon primitive as box body*
4,1,4,$2,$3,$4,$5,$6,$7,$8,$9,$2,$3,0*
0 Add four circle primitives for the rounded corners*
1,1,$1+$1,$2,$3*
1,1,$1+$1,$4,$5*
1,1,$1+$1,$6,$7*
1,1,$1+$1,$8,$9*
0 Add four rect primitives between the rounded corners*
20,1,$1+$1,$2,$3,$4,$5,0*
20,1,$1+$1,$4,$5,$6,$7,0*
20,1,$1+$1,$6,$7,$8,$9,0*
20,1,$1+$1,$8,$9,$2,$3,0*%
G04 Aperture macros list end*
%ADD10RoundRect,0.250000X-0.475000X0.337500X-0.475000X-0.337500X0.475000X-0.337500X0.475000X0.337500X0*%
%ADD11R,1.500000X1.000000*%
G04 APERTURE END LIST*
D10*
%TO.C,C6*%
X120120855Y-31962500D03*
X120120855Y-34037500D03*
%TD*%
D11*
%TO.C,D2*%
X44601658Y-34600000D03*
X44601658Y-31400000D03*
X39701658Y-31400000D03*
X39701658Y-34600000D03*
%TD*%
%TO.C,D1*%
X30450000Y-34600000D03*
X30450000Y-31400000D03*
X25550000Y-31400000D03*
X25550000Y-34600000D03*
%TD*%
D10*
%TO.C,C2*%
X63514223Y-31962500D03*
X63514223Y-34037500D03*
%TD*%
D11*
%TO.C,D8*%
X129511606Y-34600000D03*
X129511606Y-31400000D03*
X124611606Y-31400000D03*
X124611606Y-34600000D03*
%TD*%
D10*
%TO.C,C4*%
X91817539Y-31962500D03*
X91817539Y-34037500D03*
%TD*%
%TO.C,C5*%
X105969197Y-31962500D03*
X105969197Y-34037500D03*
%TD*%
D11*
%TO.C,D10*%
X157814922Y-34600000D03*
X157814922Y-31400000D03*
X152914922Y-31400000D03*
X152914922Y-34600000D03*
%TD*%
D10*
%TO.C,C1*%
X33500000Y-31962500D03*
X33500000Y-34037500D03*
%TD*%
%TO.C,C7*%
X148424171Y-31962500D03*
X148424171Y-34037500D03*
%TD*%
D11*
%TO.C,D7*%
X115359948Y-34600000D03*
X115359948Y-31400000D03*
X110459948Y-31400000D03*
X110459948Y-34600000D03*
%TD*%
%TO.C,D9*%
X143663264Y-34600000D03*
X143663264Y-31400000D03*
X138763264Y-31400000D03*
X138763264Y-34600000D03*
%TD*%
%TO.C,D5*%
X87056632Y-34600000D03*
X87056632Y-31400000D03*
X82156632Y-31400000D03*
X82156632Y-34600000D03*
%TD*%
%TO.C,D6*%
X101208290Y-34600000D03*
X101208290Y-31400000D03*
X96308290Y-31400000D03*
X96308290Y-34600000D03*
%TD*%
D10*
%TO.C,C3*%
X77665881Y-31962500D03*
X77665881Y-34037500D03*
%TD*%
D11*
%TO.C,D4*%
X72904974Y-34600000D03*
X72904974Y-31400000D03*
X68004974Y-31400000D03*
X68004974Y-34600000D03*
%TD*%
%TO.C,D3*%
X58753316Y-34600000D03*
X58753316Y-31400000D03*
X53853316Y-31400000D03*
X53853316Y-34600000D03*
%TD*%
M02*
