%TF.GenerationSoftware,KiCad,Pcbnew,(6.0.0)*%
%TF.CreationDate,2022-09-21T13:56:40+02:00*%
%TF.ProjectId,Rainbow_Matchstick,5261696e-626f-4775-9f4d-617463687374,rev?*%
%TF.SameCoordinates,Original*%
%TF.FileFunction,Copper,L1,Top*%
%TF.FilePolarity,Positive*%
%FSLAX46Y46*%
G04 Gerber Fmt 4.6, Leading zero omitted, Abs format (unit mm)*
G04 Created by KiCad (PCBNEW (6.0.0)) date 2022-09-21 13:56:40*
%MOMM*%
%LPD*%
G01*
G04 APERTURE LIST*
G04 Aperture macros list*
%AMRoundRect*
0 Rectangle with rounded corners*
0 $1 Rounding radius*
0 $2 $3 $4 $5 $6 $7 $8 $9 X,Y pos of 4 corners*
0 Add a 4 corners polygon primitive as box body*
4,1,4,$2,$3,$4,$5,$6,$7,$8,$9,$2,$3,0*
0 Add four circle primitives for the rounded corners*
1,1,$1+$1,$2,$3*
1,1,$1+$1,$4,$5*
1,1,$1+$1,$6,$7*
1,1,$1+$1,$8,$9*
0 Add four rect primitives between the rounded corners*
20,1,$1+$1,$2,$3,$4,$5,0*
20,1,$1+$1,$4,$5,$6,$7,0*
20,1,$1+$1,$6,$7,$8,$9,0*
20,1,$1+$1,$8,$9,$2,$3,0*%
G04 Aperture macros list end*
%TA.AperFunction,ComponentPad*%
%ADD10O,1.950000X1.700000*%
%TD*%
%TA.AperFunction,ComponentPad*%
%ADD11RoundRect,0.250000X-0.725000X0.600000X-0.725000X-0.600000X0.725000X-0.600000X0.725000X0.600000X0*%
%TD*%
%TA.AperFunction,SMDPad,CuDef*%
%ADD12RoundRect,0.250000X-0.475000X0.337500X-0.475000X-0.337500X0.475000X-0.337500X0.475000X0.337500X0*%
%TD*%
%TA.AperFunction,SMDPad,CuDef*%
%ADD13R,1.500000X1.000000*%
%TD*%
%TA.AperFunction,ComponentPad*%
%ADD14C,0.800000*%
%TD*%
%TA.AperFunction,ComponentPad*%
%ADD15C,6.400000*%
%TD*%
%TA.AperFunction,ComponentPad*%
%ADD16R,1.700000X1.700000*%
%TD*%
%TA.AperFunction,ComponentPad*%
%ADD17RoundRect,0.250000X0.725000X-0.600000X0.725000X0.600000X-0.725000X0.600000X-0.725000X-0.600000X0*%
%TD*%
%TA.AperFunction,ViaPad*%
%ADD18C,0.800000*%
%TD*%
%TA.AperFunction,Conductor*%
%ADD19C,0.500000*%
%TD*%
%TA.AperFunction,Conductor*%
%ADD20C,1.000000*%
%TD*%
G04 APERTURE END LIST*
%TO.C,G\u002A\u002A\u002A*%
G36*
X13740615Y-30461223D02*
G01*
X15870307Y-29232972D01*
X18000000Y-28004720D01*
X20129692Y-29232972D01*
X22259384Y-30461223D01*
X22259384Y-35538929D01*
X20149230Y-36764083D01*
X19628675Y-37065618D01*
X19152311Y-37340212D01*
X18736709Y-37578419D01*
X18398440Y-37770794D01*
X18154074Y-37907891D01*
X18020183Y-37980262D01*
X18000000Y-37989237D01*
X17925297Y-37951449D01*
X17732130Y-37844382D01*
X17437070Y-37677481D01*
X17056687Y-37460193D01*
X16607552Y-37201964D01*
X16106235Y-36912240D01*
X15850769Y-36764083D01*
X13966549Y-35670106D01*
X15590256Y-35670106D01*
X15649910Y-35699609D01*
X15831504Y-35721846D01*
X16100716Y-35733301D01*
X16215487Y-35734104D01*
X16866769Y-35732824D01*
X16907211Y-35671445D01*
X18013025Y-35671445D01*
X18072680Y-35700345D01*
X18254276Y-35722130D01*
X18523490Y-35733357D01*
X18638256Y-35734147D01*
X19289538Y-35732909D01*
X20032000Y-34587933D01*
X20285811Y-34196594D01*
X20519778Y-33835985D01*
X20716515Y-33532891D01*
X20858639Y-33314096D01*
X20918905Y-33221478D01*
X21063349Y-33000000D01*
X19740790Y-33000000D01*
X18889934Y-34303752D01*
X18628387Y-34705672D01*
X18396767Y-35063803D01*
X18208474Y-35357248D01*
X18076905Y-35565109D01*
X18015459Y-35666489D01*
X18013025Y-35671445D01*
X16907211Y-35671445D01*
X18625230Y-33063998D01*
X19006170Y-32485234D01*
X19359985Y-31946504D01*
X19677474Y-31461908D01*
X19949436Y-31045542D01*
X20166667Y-30711505D01*
X20319968Y-30473896D01*
X20400136Y-30346812D01*
X20409743Y-30329894D01*
X20350089Y-30300390D01*
X20168495Y-30278154D01*
X19899284Y-30266698D01*
X19784512Y-30265895D01*
X19133230Y-30267175D01*
X17374769Y-32936001D01*
X16993829Y-33514765D01*
X16640014Y-34053495D01*
X16322525Y-34538092D01*
X16050564Y-34954458D01*
X15833332Y-35288494D01*
X15680031Y-35526103D01*
X15599863Y-35653187D01*
X15590256Y-35670106D01*
X13966549Y-35670106D01*
X13740615Y-35538929D01*
X13740615Y-33000000D01*
X14936650Y-33000000D01*
X16259209Y-33000000D01*
X17110066Y-31696247D01*
X17371612Y-31294328D01*
X17603232Y-30936196D01*
X17791526Y-30642751D01*
X17923095Y-30434890D01*
X17984540Y-30333510D01*
X17986974Y-30328555D01*
X17927319Y-30299654D01*
X17745723Y-30277869D01*
X17476509Y-30266642D01*
X17361743Y-30265852D01*
X16710461Y-30267090D01*
X15968000Y-31412066D01*
X15714189Y-31803406D01*
X15480222Y-32164015D01*
X15283484Y-32467109D01*
X15141360Y-32685903D01*
X15081094Y-32778521D01*
X14936650Y-33000000D01*
X13740615Y-33000000D01*
X13740615Y-30461223D01*
G37*
G36*
X161740615Y-30461223D02*
G01*
X163870307Y-29232972D01*
X166000000Y-28004720D01*
X168129692Y-29232972D01*
X170259384Y-30461223D01*
X170259384Y-35538929D01*
X168149230Y-36764083D01*
X167628675Y-37065618D01*
X167152311Y-37340212D01*
X166736709Y-37578419D01*
X166398440Y-37770794D01*
X166154074Y-37907891D01*
X166020183Y-37980262D01*
X166000000Y-37989237D01*
X165925297Y-37951449D01*
X165732130Y-37844382D01*
X165437070Y-37677481D01*
X165056687Y-37460193D01*
X164607552Y-37201964D01*
X164106235Y-36912240D01*
X163850769Y-36764083D01*
X161966549Y-35670106D01*
X163590256Y-35670106D01*
X163649910Y-35699609D01*
X163831504Y-35721846D01*
X164100716Y-35733301D01*
X164215487Y-35734104D01*
X164866769Y-35732824D01*
X164907211Y-35671445D01*
X166013025Y-35671445D01*
X166072680Y-35700345D01*
X166254276Y-35722130D01*
X166523490Y-35733357D01*
X166638256Y-35734147D01*
X167289538Y-35732909D01*
X168032000Y-34587933D01*
X168285811Y-34196594D01*
X168519778Y-33835985D01*
X168716515Y-33532891D01*
X168858639Y-33314096D01*
X168918905Y-33221478D01*
X169063349Y-33000000D01*
X167740790Y-33000000D01*
X166889934Y-34303752D01*
X166628387Y-34705672D01*
X166396767Y-35063803D01*
X166208474Y-35357248D01*
X166076905Y-35565109D01*
X166015459Y-35666489D01*
X166013025Y-35671445D01*
X164907211Y-35671445D01*
X166625230Y-33063998D01*
X167006170Y-32485234D01*
X167359985Y-31946504D01*
X167677474Y-31461908D01*
X167949436Y-31045542D01*
X168166667Y-30711505D01*
X168319968Y-30473896D01*
X168400136Y-30346812D01*
X168409743Y-30329894D01*
X168350089Y-30300390D01*
X168168495Y-30278154D01*
X167899284Y-30266698D01*
X167784512Y-30265895D01*
X167133230Y-30267175D01*
X165374769Y-32936001D01*
X164993829Y-33514765D01*
X164640014Y-34053495D01*
X164322525Y-34538092D01*
X164050564Y-34954458D01*
X163833332Y-35288494D01*
X163680031Y-35526103D01*
X163599863Y-35653187D01*
X163590256Y-35670106D01*
X161966549Y-35670106D01*
X161740615Y-35538929D01*
X161740615Y-33000000D01*
X162936650Y-33000000D01*
X164259209Y-33000000D01*
X165110066Y-31696247D01*
X165371612Y-31294328D01*
X165603232Y-30936196D01*
X165791526Y-30642751D01*
X165923095Y-30434890D01*
X165984540Y-30333510D01*
X165986974Y-30328555D01*
X165927319Y-30299654D01*
X165745723Y-30277869D01*
X165476509Y-30266642D01*
X165361743Y-30265852D01*
X164710461Y-30267090D01*
X163968000Y-31412066D01*
X163714189Y-31803406D01*
X163480222Y-32164015D01*
X163283484Y-32467109D01*
X163141360Y-32685903D01*
X163081094Y-32778521D01*
X162936650Y-33000000D01*
X161740615Y-33000000D01*
X161740615Y-30461223D01*
G37*
%TD*%
D10*
%TO.P,J2,3,Pin_3*%
%TO.N,DOUT*%
X150600000Y-35500000D03*
%TO.P,J2,2,Pin_2*%
%TO.N,+5V*%
X150600000Y-33000000D03*
D11*
%TO.P,J2,1,Pin_1*%
%TO.N,GND*%
X150600000Y-30500000D03*
%TD*%
D12*
%TO.P,C6,1*%
%TO.N,GND*%
X120120855Y-31962500D03*
%TO.P,C6,2*%
%TO.N,+5V*%
X120120855Y-34037500D03*
%TD*%
D13*
%TO.P,D2,1,VDD*%
%TO.N,+5V*%
X44601658Y-34600000D03*
%TO.P,D2,2,DOUT*%
%TO.N,Net-(D2-Pad2)*%
X44601658Y-31400000D03*
%TO.P,D2,3,VSS*%
%TO.N,GND*%
X39701658Y-31400000D03*
%TO.P,D2,4,DIN*%
%TO.N,Net-(D1-Pad2)*%
X39701658Y-34600000D03*
%TD*%
D14*
%TO.P,H2,1,1*%
%TO.N,GND*%
X131750000Y-32800000D03*
X132452944Y-34497056D03*
X134150000Y-35200000D03*
X135847056Y-34497056D03*
X136550000Y-32800000D03*
X132452944Y-31102944D03*
X134150000Y-30400000D03*
X135847056Y-31102944D03*
D15*
X134150000Y-32800000D03*
%TD*%
D13*
%TO.P,D1,1,VDD*%
%TO.N,+5V*%
X30450000Y-34600000D03*
%TO.P,D1,2,DOUT*%
%TO.N,Net-(D1-Pad2)*%
X30450000Y-31400000D03*
%TO.P,D1,3,VSS*%
%TO.N,GND*%
X25550000Y-31400000D03*
%TO.P,D1,4,DIN*%
%TO.N,DIN*%
X25550000Y-34600000D03*
%TD*%
D12*
%TO.P,C2,1*%
%TO.N,GND*%
X63514223Y-31962500D03*
%TO.P,C2,2*%
%TO.N,+5V*%
X63514223Y-34037500D03*
%TD*%
D13*
%TO.P,D8,1,VDD*%
%TO.N,+5V*%
X129511606Y-34600000D03*
%TO.P,D8,2,DOUT*%
%TO.N,Net-(D8-Pad2)*%
X129511606Y-31400000D03*
%TO.P,D8,3,VSS*%
%TO.N,GND*%
X124611606Y-31400000D03*
%TO.P,D8,4,DIN*%
%TO.N,Net-(D7-Pad2)*%
X124611606Y-34600000D03*
%TD*%
D12*
%TO.P,C4,1*%
%TO.N,GND*%
X91817539Y-31962500D03*
%TO.P,C4,2*%
%TO.N,+5V*%
X91817539Y-34037500D03*
%TD*%
%TO.P,C5,1*%
%TO.N,GND*%
X105969197Y-31962500D03*
%TO.P,C5,2*%
%TO.N,+5V*%
X105969197Y-34037500D03*
%TD*%
D13*
%TO.P,D10,1,VDD*%
%TO.N,+5V*%
X157814922Y-34600000D03*
%TO.P,D10,2,DOUT*%
%TO.N,DOUT*%
X157814922Y-31400000D03*
%TO.P,D10,3,VSS*%
%TO.N,GND*%
X152914922Y-31400000D03*
%TO.P,D10,4,DIN*%
%TO.N,Net-(D10-Pad4)*%
X152914922Y-34600000D03*
%TD*%
D12*
%TO.P,C1,1*%
%TO.N,GND*%
X33500000Y-31962500D03*
%TO.P,C1,2*%
%TO.N,+5V*%
X33500000Y-34037500D03*
%TD*%
D14*
%TO.P,H1,1,1*%
%TO.N,GND*%
X49150000Y-35400000D03*
X47452944Y-34697056D03*
X50847056Y-31302944D03*
X49150000Y-30600000D03*
X51550000Y-33000000D03*
X50847056Y-34697056D03*
D15*
X49150000Y-33000000D03*
D14*
X47452944Y-31302944D03*
X46750000Y-33000000D03*
%TD*%
D12*
%TO.P,C7,1*%
%TO.N,GND*%
X148424171Y-31962500D03*
%TO.P,C7,2*%
%TO.N,+5V*%
X148424171Y-34037500D03*
%TD*%
D13*
%TO.P,D7,1,VDD*%
%TO.N,+5V*%
X115359948Y-34600000D03*
%TO.P,D7,2,DOUT*%
%TO.N,Net-(D7-Pad2)*%
X115359948Y-31400000D03*
%TO.P,D7,3,VSS*%
%TO.N,GND*%
X110459948Y-31400000D03*
%TO.P,D7,4,DIN*%
%TO.N,Net-(D6-Pad2)*%
X110459948Y-34600000D03*
%TD*%
%TO.P,D9,1,VDD*%
%TO.N,+5V*%
X143663264Y-34600000D03*
%TO.P,D9,2,DOUT*%
%TO.N,Net-(D10-Pad4)*%
X143663264Y-31400000D03*
%TO.P,D9,3,VSS*%
%TO.N,GND*%
X138763264Y-31400000D03*
%TO.P,D9,4,DIN*%
%TO.N,Net-(D8-Pad2)*%
X138763264Y-34600000D03*
%TD*%
%TO.P,D5,1,VDD*%
%TO.N,+5V*%
X87056632Y-34600000D03*
%TO.P,D5,2,DOUT*%
%TO.N,Net-(D5-Pad2)*%
X87056632Y-31400000D03*
%TO.P,D5,3,VSS*%
%TO.N,GND*%
X82156632Y-31400000D03*
%TO.P,D5,4,DIN*%
%TO.N,Net-(D4-Pad2)*%
X82156632Y-34600000D03*
%TD*%
%TO.P,D6,1,VDD*%
%TO.N,+5V*%
X101208290Y-34600000D03*
%TO.P,D6,2,DOUT*%
%TO.N,Net-(D6-Pad2)*%
X101208290Y-31400000D03*
%TO.P,D6,3,VSS*%
%TO.N,GND*%
X96308290Y-31400000D03*
%TO.P,D6,4,DIN*%
%TO.N,Net-(D5-Pad2)*%
X96308290Y-34600000D03*
%TD*%
D12*
%TO.P,C3,1*%
%TO.N,GND*%
X77665881Y-31962500D03*
%TO.P,C3,2*%
%TO.N,+5V*%
X77665881Y-34037500D03*
%TD*%
D13*
%TO.P,D4,1,VDD*%
%TO.N,+5V*%
X72904974Y-34600000D03*
%TO.P,D4,2,DOUT*%
%TO.N,Net-(D4-Pad2)*%
X72904974Y-31400000D03*
%TO.P,D4,3,VSS*%
%TO.N,GND*%
X68004974Y-31400000D03*
%TO.P,D4,4,DIN*%
%TO.N,Net-(D3-Pad2)*%
X68004974Y-34600000D03*
%TD*%
%TO.P,D3,1,VDD*%
%TO.N,+5V*%
X58753316Y-34600000D03*
%TO.P,D3,2,DOUT*%
%TO.N,Net-(D3-Pad2)*%
X58753316Y-31400000D03*
%TO.P,D3,3,VSS*%
%TO.N,GND*%
X53853316Y-31400000D03*
%TO.P,D3,4,DIN*%
%TO.N,Net-(D2-Pad2)*%
X53853316Y-34600000D03*
%TD*%
D16*
%TO.P,J3,1,Pin_1*%
%TO.N,DOUT*%
X23400000Y-33000000D03*
%TD*%
D17*
%TO.P,J1,1,Pin_1*%
%TO.N,DIN*%
X36500000Y-35500000D03*
D10*
%TO.P,J1,2,Pin_2*%
%TO.N,+5V*%
X36500000Y-33000000D03*
%TO.P,J1,3,Pin_3*%
%TO.N,GND*%
X36500000Y-30500000D03*
%TD*%
D18*
%TO.N,+5V*%
X147500000Y-36700000D03*
X148500000Y-36700000D03*
%TO.N,GND*%
X143300000Y-29600000D03*
X141500000Y-29600000D03*
X129000000Y-29600000D03*
X127000000Y-29600000D03*
%TO.N,Net-(D10-Pad4)*%
X154200000Y-34600000D03*
X143700000Y-32600000D03*
%TO.N,DOUT*%
X157800000Y-30400002D03*
%TO.N,GND*%
X117600000Y-32200000D03*
X75200000Y-32249500D03*
X34800000Y-32200000D03*
X98625000Y-30850000D03*
X112500000Y-31500000D03*
X53500000Y-33000000D03*
X155600000Y-31500000D03*
X141500000Y-31500000D03*
X61000000Y-32200000D03*
X127000000Y-31500000D03*
X42000000Y-31500000D03*
X89275000Y-31375000D03*
X146200000Y-31800000D03*
X70000000Y-31500000D03*
X138450000Y-32800000D03*
X32200000Y-32200000D03*
X103400000Y-32050000D03*
X107270505Y-29474500D03*
X84500000Y-30950000D03*
X28000000Y-31500000D03*
%TO.N,+5V*%
X40400000Y-37000000D03*
X41600000Y-37000000D03*
X39200000Y-37000000D03*
%TD*%
D19*
%TO.N,+5V*%
X156000000Y-34600000D02*
X157850000Y-34600000D01*
X154400000Y-33000000D02*
X156000000Y-34600000D01*
X150600000Y-33000000D02*
X154400000Y-33000000D01*
%TO.N,Net-(D10-Pad4)*%
X143700000Y-31436736D02*
X143663264Y-31400000D01*
X143700000Y-32600000D02*
X143700000Y-31436736D01*
X154200000Y-34600000D02*
X152914922Y-34600000D01*
%TO.N,DOUT*%
X157814922Y-31400000D02*
X157814922Y-30414924D01*
X157814922Y-30414924D02*
X157800000Y-30400002D01*
D20*
%TO.N,GND*%
X138491176Y-32758824D02*
X138450000Y-32800000D01*
X53500000Y-31753316D02*
X53853316Y-31400000D01*
X138491176Y-31400000D02*
X138491176Y-32758824D01*
X53500000Y-33000000D02*
X53500000Y-31753316D01*
D19*
%TO.N,DIN*%
X36500000Y-35500000D02*
X36450489Y-35549511D01*
X36450489Y-35549511D02*
X26499511Y-35549511D01*
X26499511Y-35549511D02*
X25550000Y-34600000D01*
%TO.N,Net-(D1-Pad2)*%
X38350489Y-30387691D02*
X38350489Y-33400489D01*
X32649520Y-29200480D02*
X37163278Y-29200480D01*
X37163278Y-29200480D02*
X38350489Y-30387691D01*
X30450000Y-31400000D02*
X32649520Y-29200480D01*
X38350489Y-33400489D02*
X39550000Y-34600000D01*
%TO.N,Net-(D2-Pad2)*%
X55125000Y-33025000D02*
X53550000Y-34600000D01*
X44450000Y-31400000D02*
X46499511Y-29350489D01*
X46499511Y-29350489D02*
X53950489Y-29350489D01*
X55125000Y-30525000D02*
X55125000Y-33025000D01*
X53950489Y-29350489D02*
X55125000Y-30525000D01*
%TO.N,Net-(D3-Pad2)*%
X58450000Y-31400000D02*
X59000000Y-30850000D01*
X67550000Y-34150000D02*
X67550000Y-34600000D01*
X64250000Y-30850000D02*
X67550000Y-34150000D01*
X59000000Y-30850000D02*
X64250000Y-30850000D01*
%TO.N,Net-(D4-Pad2)*%
X78500000Y-30800000D02*
X82050000Y-34350000D01*
X82050000Y-34350000D02*
X82050000Y-34600000D01*
X72802941Y-31400000D02*
X73402941Y-30800000D01*
X73402941Y-30800000D02*
X78500000Y-30800000D01*
%TO.N,Net-(D5-Pad2)*%
X87824501Y-30525499D02*
X92450499Y-30525499D01*
X86950000Y-31400000D02*
X87824501Y-30525499D01*
X96050000Y-34125000D02*
X96050000Y-34600000D01*
X92450499Y-30525499D02*
X96050000Y-34125000D01*
%TO.N,Net-(D6-Pad2)*%
X110050000Y-34275000D02*
X110050000Y-34600000D01*
X107143717Y-31335250D02*
X107143717Y-31368717D01*
X106658467Y-30850000D02*
X107143717Y-31335250D01*
X101500000Y-30850000D02*
X106658467Y-30850000D01*
X107143717Y-31368717D02*
X110050000Y-34275000D01*
X100950000Y-31400000D02*
X101500000Y-30850000D01*
%TO.N,Net-(D7-Pad2)*%
X115424520Y-30925480D02*
X121100480Y-30925480D01*
X121100480Y-30925480D02*
X124550000Y-34375000D01*
X114950000Y-31400000D02*
X115424520Y-30925480D01*
X124550000Y-34375000D02*
X124550000Y-34600000D01*
%TO.N,Net-(D8-Pad2)*%
X129273529Y-31400000D02*
X131673529Y-29000000D01*
X140150000Y-32941176D02*
X138491176Y-34600000D01*
X138512286Y-29000000D02*
X140150000Y-30637714D01*
X140150000Y-30637714D02*
X140150000Y-32941176D01*
X131673529Y-29000000D02*
X138512286Y-29000000D01*
D20*
%TO.N,+5V*%
X35549520Y-33950480D02*
X33587980Y-33950480D01*
X30550000Y-34500000D02*
X30450000Y-34600000D01*
X33038460Y-34500000D02*
X30550000Y-34500000D01*
X33587980Y-33950480D02*
X33038460Y-34500000D01*
X36500000Y-33000000D02*
X35549520Y-33950480D01*
%TD*%
%TA.AperFunction,Conductor*%
%TO.N,+5V*%
G36*
X43495013Y-33520002D02*
G01*
X43541506Y-33573658D01*
X43551610Y-33643932D01*
X43522116Y-33708512D01*
X43502458Y-33726826D01*
X43495932Y-33731717D01*
X43483373Y-33744276D01*
X43406872Y-33846351D01*
X43398334Y-33861946D01*
X43353180Y-33982394D01*
X43349553Y-33997649D01*
X43344027Y-34048514D01*
X43343658Y-34055328D01*
X43343658Y-34327885D01*
X43348133Y-34343124D01*
X43349523Y-34344329D01*
X43357206Y-34346000D01*
X44729658Y-34346000D01*
X44797779Y-34366002D01*
X44844272Y-34419658D01*
X44855658Y-34472000D01*
X44855658Y-35589884D01*
X44860133Y-35605123D01*
X44861523Y-35606328D01*
X44869206Y-35607999D01*
X45396327Y-35607999D01*
X45403148Y-35607629D01*
X45454010Y-35602105D01*
X45469262Y-35598479D01*
X45589712Y-35553324D01*
X45605307Y-35544786D01*
X45707382Y-35468285D01*
X45719943Y-35455724D01*
X45796444Y-35353649D01*
X45804982Y-35338054D01*
X45850136Y-35217606D01*
X45853764Y-35202351D01*
X45859197Y-35152332D01*
X45886439Y-35086770D01*
X45944801Y-35046343D01*
X46015755Y-35043887D01*
X46076774Y-35080182D01*
X46090133Y-35097315D01*
X46143848Y-35180029D01*
X46145643Y-35182793D01*
X46206826Y-35258347D01*
X46385206Y-35478627D01*
X46390266Y-35484876D01*
X46665124Y-35759734D01*
X46667682Y-35761806D01*
X46667686Y-35761809D01*
X46770685Y-35845216D01*
X46967207Y-36004357D01*
X46969970Y-36006152D01*
X46969971Y-36006152D01*
X47253934Y-36190559D01*
X47293205Y-36216062D01*
X47296139Y-36217557D01*
X47296146Y-36217561D01*
X47520418Y-36331833D01*
X47639547Y-36392532D01*
X47806215Y-36456510D01*
X47909885Y-36496305D01*
X48002438Y-36531833D01*
X48377901Y-36632438D01*
X48581793Y-36664732D01*
X48758576Y-36692732D01*
X48758584Y-36692733D01*
X48761824Y-36693246D01*
X49150000Y-36713589D01*
X49538176Y-36693246D01*
X49541416Y-36692733D01*
X49541424Y-36692732D01*
X49718207Y-36664732D01*
X49922099Y-36632438D01*
X50297562Y-36531833D01*
X50390116Y-36496305D01*
X50493785Y-36456510D01*
X50660453Y-36392532D01*
X50779582Y-36331833D01*
X51003854Y-36217561D01*
X51003861Y-36217557D01*
X51006795Y-36216062D01*
X51046067Y-36190559D01*
X51330029Y-36006152D01*
X51330030Y-36006152D01*
X51332793Y-36004357D01*
X51529315Y-35845216D01*
X51632314Y-35761809D01*
X51632318Y-35761806D01*
X51634876Y-35759734D01*
X51909734Y-35484876D01*
X51914795Y-35478627D01*
X52093174Y-35258347D01*
X52154357Y-35182793D01*
X52156152Y-35180029D01*
X52363143Y-34861289D01*
X52417020Y-34815052D01*
X52487341Y-34805282D01*
X52551781Y-34835082D01*
X52589880Y-34894990D01*
X52594816Y-34929913D01*
X52594816Y-35148134D01*
X52601571Y-35210316D01*
X52652701Y-35346705D01*
X52740055Y-35463261D01*
X52856611Y-35550615D01*
X52993000Y-35601745D01*
X53055182Y-35608500D01*
X54651450Y-35608500D01*
X54713632Y-35601745D01*
X54850021Y-35550615D01*
X54966577Y-35463261D01*
X55053931Y-35346705D01*
X55105061Y-35210316D01*
X55111816Y-35148134D01*
X55111816Y-35144669D01*
X57495317Y-35144669D01*
X57495687Y-35151490D01*
X57501211Y-35202352D01*
X57504837Y-35217604D01*
X57549992Y-35338054D01*
X57558530Y-35353649D01*
X57635031Y-35455724D01*
X57647592Y-35468285D01*
X57749667Y-35544786D01*
X57765262Y-35553324D01*
X57885710Y-35598478D01*
X57900965Y-35602105D01*
X57951830Y-35607631D01*
X57958644Y-35608000D01*
X58481201Y-35608000D01*
X58496440Y-35603525D01*
X58497645Y-35602135D01*
X58499316Y-35594452D01*
X58499316Y-35589884D01*
X59007316Y-35589884D01*
X59011791Y-35605123D01*
X59013181Y-35606328D01*
X59020864Y-35607999D01*
X59547985Y-35607999D01*
X59554806Y-35607629D01*
X59605668Y-35602105D01*
X59620920Y-35598479D01*
X59741370Y-35553324D01*
X59756965Y-35544786D01*
X59859040Y-35468285D01*
X59871601Y-35455724D01*
X59948102Y-35353649D01*
X59956640Y-35338054D01*
X60001794Y-35217606D01*
X60005421Y-35202351D01*
X60010947Y-35151486D01*
X60011316Y-35144672D01*
X60011316Y-34872115D01*
X60006841Y-34856876D01*
X60005451Y-34855671D01*
X59997768Y-34854000D01*
X59025431Y-34854000D01*
X59010192Y-34858475D01*
X59008987Y-34859865D01*
X59007316Y-34867548D01*
X59007316Y-35589884D01*
X58499316Y-35589884D01*
X58499316Y-34872115D01*
X58494841Y-34856876D01*
X58493451Y-34855671D01*
X58485768Y-34854000D01*
X57513432Y-34854000D01*
X57498193Y-34858475D01*
X57496988Y-34859865D01*
X57495317Y-34867548D01*
X57495317Y-35144669D01*
X55111816Y-35144669D01*
X55111816Y-34422095D01*
X62281224Y-34422095D01*
X62281561Y-34428614D01*
X62291480Y-34524206D01*
X62294372Y-34537600D01*
X62345811Y-34691784D01*
X62351984Y-34704962D01*
X62437286Y-34842807D01*
X62446322Y-34854208D01*
X62561052Y-34968739D01*
X62572463Y-34977751D01*
X62710466Y-35062816D01*
X62723647Y-35068963D01*
X62877933Y-35120138D01*
X62891309Y-35123005D01*
X62985661Y-35132672D01*
X62992077Y-35133000D01*
X63242108Y-35133000D01*
X63257347Y-35128525D01*
X63258552Y-35127135D01*
X63260223Y-35119452D01*
X63260223Y-35114884D01*
X63768223Y-35114884D01*
X63772698Y-35130123D01*
X63774088Y-35131328D01*
X63781771Y-35132999D01*
X64036318Y-35132999D01*
X64042837Y-35132662D01*
X64138429Y-35122743D01*
X64151823Y-35119851D01*
X64306007Y-35068412D01*
X64319185Y-35062239D01*
X64457030Y-34976937D01*
X64468431Y-34967901D01*
X64582962Y-34853171D01*
X64591974Y-34841760D01*
X64677039Y-34703757D01*
X64683186Y-34690576D01*
X64734361Y-34536290D01*
X64737228Y-34522914D01*
X64746895Y-34428562D01*
X64747223Y-34422146D01*
X64747223Y-34309615D01*
X64742748Y-34294376D01*
X64741358Y-34293171D01*
X64733675Y-34291500D01*
X63786338Y-34291500D01*
X63771099Y-34295975D01*
X63769894Y-34297365D01*
X63768223Y-34305048D01*
X63768223Y-35114884D01*
X63260223Y-35114884D01*
X63260223Y-34309615D01*
X63255748Y-34294376D01*
X63254358Y-34293171D01*
X63246675Y-34291500D01*
X62299339Y-34291500D01*
X62284100Y-34295975D01*
X62282895Y-34297365D01*
X62281224Y-34305048D01*
X62281224Y-34422095D01*
X55111816Y-34422095D01*
X55111816Y-34163055D01*
X55131818Y-34094934D01*
X55148721Y-34073960D01*
X55613911Y-33608770D01*
X55628323Y-33596384D01*
X55639918Y-33587851D01*
X55639923Y-33587846D01*
X55645818Y-33583508D01*
X55679027Y-33544419D01*
X55738374Y-33505456D01*
X55775050Y-33500000D01*
X57578550Y-33500000D01*
X57646671Y-33520002D01*
X57693164Y-33573658D01*
X57703268Y-33643932D01*
X57673774Y-33708512D01*
X57654116Y-33726826D01*
X57647590Y-33731717D01*
X57635031Y-33744276D01*
X57558530Y-33846351D01*
X57549992Y-33861946D01*
X57504838Y-33982394D01*
X57501211Y-33997649D01*
X57495685Y-34048514D01*
X57495316Y-34055328D01*
X57495316Y-34327885D01*
X57499791Y-34343124D01*
X57501181Y-34344329D01*
X57508864Y-34346000D01*
X59993200Y-34346000D01*
X60008439Y-34341525D01*
X60009644Y-34340135D01*
X60011315Y-34332452D01*
X60011315Y-34055331D01*
X60010945Y-34048510D01*
X60005421Y-33997648D01*
X60001795Y-33982396D01*
X59956640Y-33861946D01*
X59948102Y-33846351D01*
X59871601Y-33744276D01*
X59859042Y-33731717D01*
X59852516Y-33726826D01*
X59810002Y-33669966D01*
X59804977Y-33599147D01*
X59839037Y-33536854D01*
X59901368Y-33502864D01*
X59928082Y-33500000D01*
X62156985Y-33500000D01*
X62225106Y-33520002D01*
X62271599Y-33573658D01*
X62282329Y-33638842D01*
X62281551Y-33646438D01*
X62281223Y-33652855D01*
X62281223Y-33765385D01*
X62285698Y-33780624D01*
X62287088Y-33781829D01*
X62294771Y-33783500D01*
X64729107Y-33783500D01*
X64744346Y-33779025D01*
X64745551Y-33777635D01*
X64747222Y-33769952D01*
X64747222Y-33652905D01*
X64746885Y-33646393D01*
X64746118Y-33638998D01*
X64758986Y-33569178D01*
X64807559Y-33517398D01*
X64871446Y-33500000D01*
X65775129Y-33500000D01*
X65843250Y-33520002D01*
X65864224Y-33536905D01*
X66709569Y-34382250D01*
X66743595Y-34444562D01*
X66746474Y-34471345D01*
X66746474Y-35148134D01*
X66753229Y-35210316D01*
X66804359Y-35346705D01*
X66891713Y-35463261D01*
X67008269Y-35550615D01*
X67144658Y-35601745D01*
X67206840Y-35608500D01*
X68803108Y-35608500D01*
X68865290Y-35601745D01*
X69001679Y-35550615D01*
X69118235Y-35463261D01*
X69205589Y-35346705D01*
X69256719Y-35210316D01*
X69263474Y-35148134D01*
X69263474Y-35144669D01*
X71646975Y-35144669D01*
X71647345Y-35151490D01*
X71652869Y-35202352D01*
X71656495Y-35217604D01*
X71701650Y-35338054D01*
X71710188Y-35353649D01*
X71786689Y-35455724D01*
X71799250Y-35468285D01*
X71901325Y-35544786D01*
X71916920Y-35553324D01*
X72037368Y-35598478D01*
X72052623Y-35602105D01*
X72103488Y-35607631D01*
X72110302Y-35608000D01*
X72632859Y-35608000D01*
X72648098Y-35603525D01*
X72649303Y-35602135D01*
X72650974Y-35594452D01*
X72650974Y-35589884D01*
X73158974Y-35589884D01*
X73163449Y-35605123D01*
X73164839Y-35606328D01*
X73172522Y-35607999D01*
X73699643Y-35607999D01*
X73706464Y-35607629D01*
X73757326Y-35602105D01*
X73772578Y-35598479D01*
X73893028Y-35553324D01*
X73908623Y-35544786D01*
X74010698Y-35468285D01*
X74023259Y-35455724D01*
X74099760Y-35353649D01*
X74108298Y-35338054D01*
X74153452Y-35217606D01*
X74157079Y-35202351D01*
X74162605Y-35151486D01*
X74162974Y-35144672D01*
X74162974Y-34872115D01*
X74158499Y-34856876D01*
X74157109Y-34855671D01*
X74149426Y-34854000D01*
X73177089Y-34854000D01*
X73161850Y-34858475D01*
X73160645Y-34859865D01*
X73158974Y-34867548D01*
X73158974Y-35589884D01*
X72650974Y-35589884D01*
X72650974Y-34872115D01*
X72646499Y-34856876D01*
X72645109Y-34855671D01*
X72637426Y-34854000D01*
X71665090Y-34854000D01*
X71649851Y-34858475D01*
X71648646Y-34859865D01*
X71646975Y-34867548D01*
X71646975Y-35144669D01*
X69263474Y-35144669D01*
X69263474Y-34422095D01*
X76432882Y-34422095D01*
X76433219Y-34428614D01*
X76443138Y-34524206D01*
X76446030Y-34537600D01*
X76497469Y-34691784D01*
X76503642Y-34704962D01*
X76588944Y-34842807D01*
X76597980Y-34854208D01*
X76712710Y-34968739D01*
X76724121Y-34977751D01*
X76862124Y-35062816D01*
X76875305Y-35068963D01*
X77029591Y-35120138D01*
X77042967Y-35123005D01*
X77137319Y-35132672D01*
X77143735Y-35133000D01*
X77393766Y-35133000D01*
X77409005Y-35128525D01*
X77410210Y-35127135D01*
X77411881Y-35119452D01*
X77411881Y-35114884D01*
X77919881Y-35114884D01*
X77924356Y-35130123D01*
X77925746Y-35131328D01*
X77933429Y-35132999D01*
X78187976Y-35132999D01*
X78194495Y-35132662D01*
X78290087Y-35122743D01*
X78303481Y-35119851D01*
X78457665Y-35068412D01*
X78470843Y-35062239D01*
X78608688Y-34976937D01*
X78620089Y-34967901D01*
X78734620Y-34853171D01*
X78743632Y-34841760D01*
X78828697Y-34703757D01*
X78834844Y-34690576D01*
X78886019Y-34536290D01*
X78888886Y-34522914D01*
X78898553Y-34428562D01*
X78898881Y-34422146D01*
X78898881Y-34309615D01*
X78894406Y-34294376D01*
X78893016Y-34293171D01*
X78885333Y-34291500D01*
X77937996Y-34291500D01*
X77922757Y-34295975D01*
X77921552Y-34297365D01*
X77919881Y-34305048D01*
X77919881Y-35114884D01*
X77411881Y-35114884D01*
X77411881Y-34309615D01*
X77407406Y-34294376D01*
X77406016Y-34293171D01*
X77398333Y-34291500D01*
X76450997Y-34291500D01*
X76435758Y-34295975D01*
X76434553Y-34297365D01*
X76432882Y-34305048D01*
X76432882Y-34422095D01*
X69263474Y-34422095D01*
X69263474Y-34051866D01*
X69256719Y-33989684D01*
X69205589Y-33853295D01*
X69118235Y-33736739D01*
X69105006Y-33726824D01*
X69062493Y-33669967D01*
X69057467Y-33599149D01*
X69091527Y-33536855D01*
X69153858Y-33502865D01*
X69180573Y-33500000D01*
X71730208Y-33500000D01*
X71798329Y-33520002D01*
X71844822Y-33573658D01*
X71854926Y-33643932D01*
X71825432Y-33708512D01*
X71805774Y-33726826D01*
X71799248Y-33731717D01*
X71786689Y-33744276D01*
X71710188Y-33846351D01*
X71701650Y-33861946D01*
X71656496Y-33982394D01*
X71652869Y-33997649D01*
X71647343Y-34048514D01*
X71646974Y-34055328D01*
X71646974Y-34327885D01*
X71651449Y-34343124D01*
X71652839Y-34344329D01*
X71660522Y-34346000D01*
X74144858Y-34346000D01*
X74160097Y-34341525D01*
X74161302Y-34340135D01*
X74162973Y-34332452D01*
X74162973Y-34055331D01*
X74162603Y-34048510D01*
X74157079Y-33997648D01*
X74153453Y-33982396D01*
X74108298Y-33861946D01*
X74099760Y-33846351D01*
X74023259Y-33744276D01*
X74010700Y-33731717D01*
X74004174Y-33726826D01*
X73961660Y-33669966D01*
X73956635Y-33599147D01*
X73990695Y-33536854D01*
X74053026Y-33502864D01*
X74079740Y-33500000D01*
X76308643Y-33500000D01*
X76376764Y-33520002D01*
X76423257Y-33573658D01*
X76433987Y-33638842D01*
X76433209Y-33646438D01*
X76432881Y-33652855D01*
X76432881Y-33765385D01*
X76437356Y-33780624D01*
X76438746Y-33781829D01*
X76446429Y-33783500D01*
X78880765Y-33783500D01*
X78896004Y-33779025D01*
X78897209Y-33777635D01*
X78898880Y-33769952D01*
X78898880Y-33652905D01*
X78898543Y-33646393D01*
X78897776Y-33638998D01*
X78910644Y-33569178D01*
X78959217Y-33517398D01*
X79023104Y-33500000D01*
X80075129Y-33500000D01*
X80143250Y-33520002D01*
X80164224Y-33536905D01*
X80861227Y-34233908D01*
X80895253Y-34296220D01*
X80898132Y-34323003D01*
X80898132Y-35148134D01*
X80904887Y-35210316D01*
X80956017Y-35346705D01*
X81043371Y-35463261D01*
X81159927Y-35550615D01*
X81296316Y-35601745D01*
X81358498Y-35608500D01*
X82954766Y-35608500D01*
X83016948Y-35601745D01*
X83153337Y-35550615D01*
X83269893Y-35463261D01*
X83357247Y-35346705D01*
X83408377Y-35210316D01*
X83415132Y-35148134D01*
X83415132Y-35144669D01*
X85798633Y-35144669D01*
X85799003Y-35151490D01*
X85804527Y-35202352D01*
X85808153Y-35217604D01*
X85853308Y-35338054D01*
X85861846Y-35353649D01*
X85938347Y-35455724D01*
X85950908Y-35468285D01*
X86052983Y-35544786D01*
X86068578Y-35553324D01*
X86189026Y-35598478D01*
X86204281Y-35602105D01*
X86255146Y-35607631D01*
X86261960Y-35608000D01*
X86784517Y-35608000D01*
X86799756Y-35603525D01*
X86800961Y-35602135D01*
X86802632Y-35594452D01*
X86802632Y-35589884D01*
X87310632Y-35589884D01*
X87315107Y-35605123D01*
X87316497Y-35606328D01*
X87324180Y-35607999D01*
X87851301Y-35607999D01*
X87858122Y-35607629D01*
X87908984Y-35602105D01*
X87924236Y-35598479D01*
X88044686Y-35553324D01*
X88060281Y-35544786D01*
X88162356Y-35468285D01*
X88174917Y-35455724D01*
X88251418Y-35353649D01*
X88259956Y-35338054D01*
X88305110Y-35217606D01*
X88308737Y-35202351D01*
X88314263Y-35151486D01*
X88314632Y-35144672D01*
X88314632Y-34872115D01*
X88310157Y-34856876D01*
X88308767Y-34855671D01*
X88301084Y-34854000D01*
X87328747Y-34854000D01*
X87313508Y-34858475D01*
X87312303Y-34859865D01*
X87310632Y-34867548D01*
X87310632Y-35589884D01*
X86802632Y-35589884D01*
X86802632Y-34872115D01*
X86798157Y-34856876D01*
X86796767Y-34855671D01*
X86789084Y-34854000D01*
X85816748Y-34854000D01*
X85801509Y-34858475D01*
X85800304Y-34859865D01*
X85798633Y-34867548D01*
X85798633Y-35144669D01*
X83415132Y-35144669D01*
X83415132Y-34422095D01*
X90584540Y-34422095D01*
X90584877Y-34428614D01*
X90594796Y-34524206D01*
X90597688Y-34537600D01*
X90649127Y-34691784D01*
X90655300Y-34704962D01*
X90740602Y-34842807D01*
X90749638Y-34854208D01*
X90864368Y-34968739D01*
X90875779Y-34977751D01*
X91013782Y-35062816D01*
X91026963Y-35068963D01*
X91181249Y-35120138D01*
X91194625Y-35123005D01*
X91288977Y-35132672D01*
X91295393Y-35133000D01*
X91545424Y-35133000D01*
X91560663Y-35128525D01*
X91561868Y-35127135D01*
X91563539Y-35119452D01*
X91563539Y-35114884D01*
X92071539Y-35114884D01*
X92076014Y-35130123D01*
X92077404Y-35131328D01*
X92085087Y-35132999D01*
X92339634Y-35132999D01*
X92346153Y-35132662D01*
X92441745Y-35122743D01*
X92455139Y-35119851D01*
X92609323Y-35068412D01*
X92622501Y-35062239D01*
X92760346Y-34976937D01*
X92771747Y-34967901D01*
X92886278Y-34853171D01*
X92895290Y-34841760D01*
X92980355Y-34703757D01*
X92986502Y-34690576D01*
X93037677Y-34536290D01*
X93040544Y-34522914D01*
X93050211Y-34428562D01*
X93050539Y-34422146D01*
X93050539Y-34309615D01*
X93046064Y-34294376D01*
X93044674Y-34293171D01*
X93036991Y-34291500D01*
X92089654Y-34291500D01*
X92074415Y-34295975D01*
X92073210Y-34297365D01*
X92071539Y-34305048D01*
X92071539Y-35114884D01*
X91563539Y-35114884D01*
X91563539Y-34309615D01*
X91559064Y-34294376D01*
X91557674Y-34293171D01*
X91549991Y-34291500D01*
X90602655Y-34291500D01*
X90587416Y-34295975D01*
X90586211Y-34297365D01*
X90584540Y-34305048D01*
X90584540Y-34422095D01*
X83415132Y-34422095D01*
X83415132Y-34051866D01*
X83408377Y-33989684D01*
X83357247Y-33853295D01*
X83269893Y-33736739D01*
X83256664Y-33726824D01*
X83214151Y-33669967D01*
X83209125Y-33599149D01*
X83243185Y-33536855D01*
X83305516Y-33502865D01*
X83332231Y-33500000D01*
X85881866Y-33500000D01*
X85949987Y-33520002D01*
X85996480Y-33573658D01*
X86006584Y-33643932D01*
X85977090Y-33708512D01*
X85957432Y-33726826D01*
X85950906Y-33731717D01*
X85938347Y-33744276D01*
X85861846Y-33846351D01*
X85853308Y-33861946D01*
X85808154Y-33982394D01*
X85804527Y-33997649D01*
X85799001Y-34048514D01*
X85798632Y-34055328D01*
X85798632Y-34327885D01*
X85803107Y-34343124D01*
X85804497Y-34344329D01*
X85812180Y-34346000D01*
X88296516Y-34346000D01*
X88311755Y-34341525D01*
X88312960Y-34340135D01*
X88314631Y-34332452D01*
X88314631Y-34055331D01*
X88314261Y-34048510D01*
X88308737Y-33997648D01*
X88305111Y-33982396D01*
X88259956Y-33861946D01*
X88251418Y-33846351D01*
X88174917Y-33744276D01*
X88162358Y-33731717D01*
X88155832Y-33726826D01*
X88113318Y-33669966D01*
X88108293Y-33599147D01*
X88142353Y-33536854D01*
X88204684Y-33502864D01*
X88231398Y-33500000D01*
X90460301Y-33500000D01*
X90528422Y-33520002D01*
X90574915Y-33573658D01*
X90585645Y-33638842D01*
X90584867Y-33646438D01*
X90584539Y-33652855D01*
X90584539Y-33765385D01*
X90589014Y-33780624D01*
X90590404Y-33781829D01*
X90598087Y-33783500D01*
X93032423Y-33783500D01*
X93047662Y-33779025D01*
X93048867Y-33777635D01*
X93050538Y-33769952D01*
X93050538Y-33652905D01*
X93050201Y-33646393D01*
X93049434Y-33638998D01*
X93062302Y-33569178D01*
X93110875Y-33517398D01*
X93174762Y-33500000D01*
X94300129Y-33500000D01*
X94368250Y-33520002D01*
X94389224Y-33536905D01*
X95012885Y-34160566D01*
X95046911Y-34222878D01*
X95049790Y-34249661D01*
X95049790Y-35148134D01*
X95056545Y-35210316D01*
X95107675Y-35346705D01*
X95195029Y-35463261D01*
X95311585Y-35550615D01*
X95447974Y-35601745D01*
X95510156Y-35608500D01*
X97106424Y-35608500D01*
X97168606Y-35601745D01*
X97304995Y-35550615D01*
X97421551Y-35463261D01*
X97508905Y-35346705D01*
X97560035Y-35210316D01*
X97566790Y-35148134D01*
X97566790Y-35144669D01*
X99950291Y-35144669D01*
X99950661Y-35151490D01*
X99956185Y-35202352D01*
X99959811Y-35217604D01*
X100004966Y-35338054D01*
X100013504Y-35353649D01*
X100090005Y-35455724D01*
X100102566Y-35468285D01*
X100204641Y-35544786D01*
X100220236Y-35553324D01*
X100340684Y-35598478D01*
X100355939Y-35602105D01*
X100406804Y-35607631D01*
X100413618Y-35608000D01*
X100936175Y-35608000D01*
X100951414Y-35603525D01*
X100952619Y-35602135D01*
X100954290Y-35594452D01*
X100954290Y-35589884D01*
X101462290Y-35589884D01*
X101466765Y-35605123D01*
X101468155Y-35606328D01*
X101475838Y-35607999D01*
X102002959Y-35607999D01*
X102009780Y-35607629D01*
X102060642Y-35602105D01*
X102075894Y-35598479D01*
X102196344Y-35553324D01*
X102211939Y-35544786D01*
X102314014Y-35468285D01*
X102326575Y-35455724D01*
X102403076Y-35353649D01*
X102411614Y-35338054D01*
X102456768Y-35217606D01*
X102460395Y-35202351D01*
X102465921Y-35151486D01*
X102466290Y-35144672D01*
X102466290Y-34872115D01*
X102461815Y-34856876D01*
X102460425Y-34855671D01*
X102452742Y-34854000D01*
X101480405Y-34854000D01*
X101465166Y-34858475D01*
X101463961Y-34859865D01*
X101462290Y-34867548D01*
X101462290Y-35589884D01*
X100954290Y-35589884D01*
X100954290Y-34872115D01*
X100949815Y-34856876D01*
X100948425Y-34855671D01*
X100940742Y-34854000D01*
X99968406Y-34854000D01*
X99953167Y-34858475D01*
X99951962Y-34859865D01*
X99950291Y-34867548D01*
X99950291Y-35144669D01*
X97566790Y-35144669D01*
X97566790Y-34422095D01*
X104736198Y-34422095D01*
X104736535Y-34428614D01*
X104746454Y-34524206D01*
X104749346Y-34537600D01*
X104800785Y-34691784D01*
X104806958Y-34704962D01*
X104892260Y-34842807D01*
X104901296Y-34854208D01*
X105016026Y-34968739D01*
X105027437Y-34977751D01*
X105165440Y-35062816D01*
X105178621Y-35068963D01*
X105332907Y-35120138D01*
X105346283Y-35123005D01*
X105440635Y-35132672D01*
X105447051Y-35133000D01*
X105697082Y-35133000D01*
X105712321Y-35128525D01*
X105713526Y-35127135D01*
X105715197Y-35119452D01*
X105715197Y-35114884D01*
X106223197Y-35114884D01*
X106227672Y-35130123D01*
X106229062Y-35131328D01*
X106236745Y-35132999D01*
X106491292Y-35132999D01*
X106497811Y-35132662D01*
X106593403Y-35122743D01*
X106606797Y-35119851D01*
X106760981Y-35068412D01*
X106774159Y-35062239D01*
X106912004Y-34976937D01*
X106923405Y-34967901D01*
X107037936Y-34853171D01*
X107046948Y-34841760D01*
X107132013Y-34703757D01*
X107138160Y-34690576D01*
X107189335Y-34536290D01*
X107192202Y-34522914D01*
X107201869Y-34428562D01*
X107202197Y-34422146D01*
X107202197Y-34309615D01*
X107197722Y-34294376D01*
X107196332Y-34293171D01*
X107188649Y-34291500D01*
X106241312Y-34291500D01*
X106226073Y-34295975D01*
X106224868Y-34297365D01*
X106223197Y-34305048D01*
X106223197Y-35114884D01*
X105715197Y-35114884D01*
X105715197Y-34309615D01*
X105710722Y-34294376D01*
X105709332Y-34293171D01*
X105701649Y-34291500D01*
X104754313Y-34291500D01*
X104739074Y-34295975D01*
X104737869Y-34297365D01*
X104736198Y-34305048D01*
X104736198Y-34422095D01*
X97566790Y-34422095D01*
X97566790Y-34051866D01*
X97560035Y-33989684D01*
X97508905Y-33853295D01*
X97421551Y-33736739D01*
X97408322Y-33726824D01*
X97365809Y-33669967D01*
X97360783Y-33599149D01*
X97394843Y-33536855D01*
X97457174Y-33502865D01*
X97483889Y-33500000D01*
X100033524Y-33500000D01*
X100101645Y-33520002D01*
X100148138Y-33573658D01*
X100158242Y-33643932D01*
X100128748Y-33708512D01*
X100109090Y-33726826D01*
X100102564Y-33731717D01*
X100090005Y-33744276D01*
X100013504Y-33846351D01*
X100004966Y-33861946D01*
X99959812Y-33982394D01*
X99956185Y-33997649D01*
X99950659Y-34048514D01*
X99950290Y-34055328D01*
X99950290Y-34327885D01*
X99954765Y-34343124D01*
X99956155Y-34344329D01*
X99963838Y-34346000D01*
X102448174Y-34346000D01*
X102463413Y-34341525D01*
X102464618Y-34340135D01*
X102466289Y-34332452D01*
X102466289Y-34055331D01*
X102465919Y-34048510D01*
X102460395Y-33997648D01*
X102456769Y-33982396D01*
X102411614Y-33861946D01*
X102403076Y-33846351D01*
X102326575Y-33744276D01*
X102314016Y-33731717D01*
X102307490Y-33726826D01*
X102264976Y-33669966D01*
X102259951Y-33599147D01*
X102294011Y-33536854D01*
X102356342Y-33502864D01*
X102383056Y-33500000D01*
X104611959Y-33500000D01*
X104680080Y-33520002D01*
X104726573Y-33573658D01*
X104737303Y-33638842D01*
X104736525Y-33646438D01*
X104736197Y-33652855D01*
X104736197Y-33765385D01*
X104740672Y-33780624D01*
X104742062Y-33781829D01*
X104749745Y-33783500D01*
X107184081Y-33783500D01*
X107199320Y-33779025D01*
X107200525Y-33777635D01*
X107202196Y-33769952D01*
X107202196Y-33652905D01*
X107201859Y-33646393D01*
X107201092Y-33638998D01*
X107213960Y-33569178D01*
X107262533Y-33517398D01*
X107326420Y-33500000D01*
X108150130Y-33500000D01*
X108218251Y-33520002D01*
X108239225Y-33536905D01*
X109164543Y-34462223D01*
X109198569Y-34524535D01*
X109201448Y-34551318D01*
X109201448Y-35148134D01*
X109208203Y-35210316D01*
X109259333Y-35346705D01*
X109346687Y-35463261D01*
X109463243Y-35550615D01*
X109599632Y-35601745D01*
X109661814Y-35608500D01*
X111258082Y-35608500D01*
X111320264Y-35601745D01*
X111456653Y-35550615D01*
X111573209Y-35463261D01*
X111660563Y-35346705D01*
X111711693Y-35210316D01*
X111718448Y-35148134D01*
X111718448Y-35144669D01*
X114101949Y-35144669D01*
X114102319Y-35151490D01*
X114107843Y-35202352D01*
X114111469Y-35217604D01*
X114156624Y-35338054D01*
X114165162Y-35353649D01*
X114241663Y-35455724D01*
X114254224Y-35468285D01*
X114356299Y-35544786D01*
X114371894Y-35553324D01*
X114492342Y-35598478D01*
X114507597Y-35602105D01*
X114558462Y-35607631D01*
X114565276Y-35608000D01*
X115087833Y-35608000D01*
X115103072Y-35603525D01*
X115104277Y-35602135D01*
X115105948Y-35594452D01*
X115105948Y-35589884D01*
X115613948Y-35589884D01*
X115618423Y-35605123D01*
X115619813Y-35606328D01*
X115627496Y-35607999D01*
X116154617Y-35607999D01*
X116161438Y-35607629D01*
X116212300Y-35602105D01*
X116227552Y-35598479D01*
X116348002Y-35553324D01*
X116363597Y-35544786D01*
X116465672Y-35468285D01*
X116478233Y-35455724D01*
X116554734Y-35353649D01*
X116563272Y-35338054D01*
X116608426Y-35217606D01*
X116612053Y-35202351D01*
X116617579Y-35151486D01*
X116617948Y-35144672D01*
X116617948Y-34872115D01*
X116613473Y-34856876D01*
X116612083Y-34855671D01*
X116604400Y-34854000D01*
X115632063Y-34854000D01*
X115616824Y-34858475D01*
X115615619Y-34859865D01*
X115613948Y-34867548D01*
X115613948Y-35589884D01*
X115105948Y-35589884D01*
X115105948Y-34872115D01*
X115101473Y-34856876D01*
X115100083Y-34855671D01*
X115092400Y-34854000D01*
X114120064Y-34854000D01*
X114104825Y-34858475D01*
X114103620Y-34859865D01*
X114101949Y-34867548D01*
X114101949Y-35144669D01*
X111718448Y-35144669D01*
X111718448Y-34422095D01*
X118887856Y-34422095D01*
X118888193Y-34428614D01*
X118898112Y-34524206D01*
X118901004Y-34537600D01*
X118952443Y-34691784D01*
X118958616Y-34704962D01*
X119043918Y-34842807D01*
X119052954Y-34854208D01*
X119167684Y-34968739D01*
X119179095Y-34977751D01*
X119317098Y-35062816D01*
X119330279Y-35068963D01*
X119484565Y-35120138D01*
X119497941Y-35123005D01*
X119592293Y-35132672D01*
X119598709Y-35133000D01*
X119848740Y-35133000D01*
X119863979Y-35128525D01*
X119865184Y-35127135D01*
X119866855Y-35119452D01*
X119866855Y-35114884D01*
X120374855Y-35114884D01*
X120379330Y-35130123D01*
X120380720Y-35131328D01*
X120388403Y-35132999D01*
X120642950Y-35132999D01*
X120649469Y-35132662D01*
X120745061Y-35122743D01*
X120758455Y-35119851D01*
X120912639Y-35068412D01*
X120925817Y-35062239D01*
X121063662Y-34976937D01*
X121075063Y-34967901D01*
X121189594Y-34853171D01*
X121198606Y-34841760D01*
X121283671Y-34703757D01*
X121289818Y-34690576D01*
X121340993Y-34536290D01*
X121343860Y-34522914D01*
X121353527Y-34428562D01*
X121353855Y-34422146D01*
X121353855Y-34309615D01*
X121349380Y-34294376D01*
X121347990Y-34293171D01*
X121340307Y-34291500D01*
X120392970Y-34291500D01*
X120377731Y-34295975D01*
X120376526Y-34297365D01*
X120374855Y-34305048D01*
X120374855Y-35114884D01*
X119866855Y-35114884D01*
X119866855Y-34309615D01*
X119862380Y-34294376D01*
X119860990Y-34293171D01*
X119853307Y-34291500D01*
X118905971Y-34291500D01*
X118890732Y-34295975D01*
X118889527Y-34297365D01*
X118887856Y-34305048D01*
X118887856Y-34422095D01*
X111718448Y-34422095D01*
X111718448Y-34051866D01*
X111711693Y-33989684D01*
X111660563Y-33853295D01*
X111573209Y-33736739D01*
X111559980Y-33726824D01*
X111517467Y-33669967D01*
X111512441Y-33599149D01*
X111546501Y-33536855D01*
X111608832Y-33502865D01*
X111635547Y-33500000D01*
X114185182Y-33500000D01*
X114253303Y-33520002D01*
X114299796Y-33573658D01*
X114309900Y-33643932D01*
X114280406Y-33708512D01*
X114260748Y-33726826D01*
X114254222Y-33731717D01*
X114241663Y-33744276D01*
X114165162Y-33846351D01*
X114156624Y-33861946D01*
X114111470Y-33982394D01*
X114107843Y-33997649D01*
X114102317Y-34048514D01*
X114101948Y-34055328D01*
X114101948Y-34327885D01*
X114106423Y-34343124D01*
X114107813Y-34344329D01*
X114115496Y-34346000D01*
X116599832Y-34346000D01*
X116615071Y-34341525D01*
X116616276Y-34340135D01*
X116617947Y-34332452D01*
X116617947Y-34055331D01*
X116617577Y-34048510D01*
X116612053Y-33997648D01*
X116608427Y-33982396D01*
X116563272Y-33861946D01*
X116554734Y-33846351D01*
X116478233Y-33744276D01*
X116465674Y-33731717D01*
X116459148Y-33726826D01*
X116416634Y-33669966D01*
X116411609Y-33599147D01*
X116445669Y-33536854D01*
X116508000Y-33502864D01*
X116534714Y-33500000D01*
X118763617Y-33500000D01*
X118831738Y-33520002D01*
X118878231Y-33573658D01*
X118888961Y-33638842D01*
X118888183Y-33646438D01*
X118887855Y-33652855D01*
X118887855Y-33765385D01*
X118892330Y-33780624D01*
X118893720Y-33781829D01*
X118901403Y-33783500D01*
X121335739Y-33783500D01*
X121350978Y-33779025D01*
X121352183Y-33777635D01*
X121353854Y-33769952D01*
X121353854Y-33652905D01*
X121353517Y-33646393D01*
X121352750Y-33638998D01*
X121365618Y-33569178D01*
X121414191Y-33517398D01*
X121478078Y-33500000D01*
X122550129Y-33500000D01*
X122618250Y-33520002D01*
X122639224Y-33536905D01*
X123316201Y-34213882D01*
X123350227Y-34276194D01*
X123353106Y-34302977D01*
X123353106Y-35148134D01*
X123359861Y-35210316D01*
X123410991Y-35346705D01*
X123498345Y-35463261D01*
X123614901Y-35550615D01*
X123751290Y-35601745D01*
X123813472Y-35608500D01*
X125409740Y-35608500D01*
X125471922Y-35601745D01*
X125608311Y-35550615D01*
X125724867Y-35463261D01*
X125812221Y-35346705D01*
X125863351Y-35210316D01*
X125870106Y-35148134D01*
X125870106Y-35144669D01*
X128253607Y-35144669D01*
X128253977Y-35151490D01*
X128259501Y-35202352D01*
X128263127Y-35217604D01*
X128308282Y-35338054D01*
X128316820Y-35353649D01*
X128393321Y-35455724D01*
X128405882Y-35468285D01*
X128507957Y-35544786D01*
X128523552Y-35553324D01*
X128644000Y-35598478D01*
X128659255Y-35602105D01*
X128710120Y-35607631D01*
X128716934Y-35608000D01*
X129239491Y-35608000D01*
X129254730Y-35603525D01*
X129255935Y-35602135D01*
X129257606Y-35594452D01*
X129257606Y-34872115D01*
X129253131Y-34856876D01*
X129251741Y-34855671D01*
X129244058Y-34854000D01*
X128271722Y-34854000D01*
X128256483Y-34858475D01*
X128255278Y-34859865D01*
X128253607Y-34867548D01*
X128253607Y-35144669D01*
X125870106Y-35144669D01*
X125870106Y-34051866D01*
X125863351Y-33989684D01*
X125812221Y-33853295D01*
X125724867Y-33736739D01*
X125711638Y-33726824D01*
X125669125Y-33669967D01*
X125664099Y-33599149D01*
X125698159Y-33536855D01*
X125760490Y-33502865D01*
X125787205Y-33500000D01*
X128336840Y-33500000D01*
X128404961Y-33520002D01*
X128451454Y-33573658D01*
X128461558Y-33643932D01*
X128432064Y-33708512D01*
X128412406Y-33726826D01*
X128405880Y-33731717D01*
X128393321Y-33744276D01*
X128316820Y-33846351D01*
X128308282Y-33861946D01*
X128263128Y-33982394D01*
X128259501Y-33997649D01*
X128253975Y-34048514D01*
X128253606Y-34055328D01*
X128253606Y-34327885D01*
X128258081Y-34343124D01*
X128259471Y-34344329D01*
X128267154Y-34346000D01*
X129639606Y-34346000D01*
X129707727Y-34366002D01*
X129754220Y-34419658D01*
X129765606Y-34472000D01*
X129765606Y-35589884D01*
X129770081Y-35605123D01*
X129771471Y-35606328D01*
X129779154Y-35607999D01*
X130306275Y-35607999D01*
X130313096Y-35607629D01*
X130363958Y-35602105D01*
X130379210Y-35598479D01*
X130499660Y-35553324D01*
X130515255Y-35544786D01*
X130617330Y-35468285D01*
X130629891Y-35455724D01*
X130706392Y-35353649D01*
X130714930Y-35338054D01*
X130760084Y-35217606D01*
X130763711Y-35202351D01*
X130769237Y-35151486D01*
X130769606Y-35144672D01*
X130769606Y-34829114D01*
X130789608Y-34760993D01*
X130843264Y-34714500D01*
X130913538Y-34704396D01*
X130978118Y-34733890D01*
X131001277Y-34760488D01*
X131145643Y-34982793D01*
X131252609Y-35114884D01*
X131342131Y-35225434D01*
X131390266Y-35284876D01*
X131665124Y-35559734D01*
X131667682Y-35561806D01*
X131667686Y-35561809D01*
X131724726Y-35607999D01*
X131967207Y-35804357D01*
X131969970Y-35806152D01*
X131969971Y-35806152D01*
X132289876Y-36013900D01*
X132293205Y-36016062D01*
X132296139Y-36017557D01*
X132296146Y-36017561D01*
X132615152Y-36180102D01*
X132639547Y-36192532D01*
X132829062Y-36265280D01*
X132992487Y-36328013D01*
X133002438Y-36331833D01*
X133377901Y-36432438D01*
X133563107Y-36461772D01*
X133758576Y-36492732D01*
X133758584Y-36492733D01*
X133761824Y-36493246D01*
X134150000Y-36513589D01*
X134538176Y-36493246D01*
X134541416Y-36492733D01*
X134541424Y-36492732D01*
X134736893Y-36461772D01*
X134922099Y-36432438D01*
X135297562Y-36331833D01*
X135307514Y-36328013D01*
X135470938Y-36265280D01*
X135660453Y-36192532D01*
X135684848Y-36180102D01*
X136003854Y-36017561D01*
X136003861Y-36017557D01*
X136006795Y-36016062D01*
X136010125Y-36013900D01*
X136330029Y-35806152D01*
X136330030Y-35806152D01*
X136332793Y-35804357D01*
X136575274Y-35607999D01*
X136632314Y-35561809D01*
X136632318Y-35561806D01*
X136634876Y-35559734D01*
X136909734Y-35284876D01*
X136957870Y-35225434D01*
X137047391Y-35114884D01*
X137154357Y-34982793D01*
X137165736Y-34965271D01*
X137273091Y-34799958D01*
X137326968Y-34753721D01*
X137397289Y-34743951D01*
X137461729Y-34773751D01*
X137499828Y-34833659D01*
X137504764Y-34868582D01*
X137504764Y-35148134D01*
X137511519Y-35210316D01*
X137562649Y-35346705D01*
X137650003Y-35463261D01*
X137766559Y-35550615D01*
X137902948Y-35601745D01*
X137965130Y-35608500D01*
X139561398Y-35608500D01*
X139623580Y-35601745D01*
X139759969Y-35550615D01*
X139876525Y-35463261D01*
X139963879Y-35346705D01*
X140015009Y-35210316D01*
X140021764Y-35148134D01*
X140021764Y-35144669D01*
X142405265Y-35144669D01*
X142405635Y-35151490D01*
X142411159Y-35202352D01*
X142414785Y-35217604D01*
X142459940Y-35338054D01*
X142468478Y-35353649D01*
X142544979Y-35455724D01*
X142557540Y-35468285D01*
X142659615Y-35544786D01*
X142675210Y-35553324D01*
X142795658Y-35598478D01*
X142810913Y-35602105D01*
X142861778Y-35607631D01*
X142868592Y-35608000D01*
X143391149Y-35608000D01*
X143406388Y-35603525D01*
X143407593Y-35602135D01*
X143409264Y-35594452D01*
X143409264Y-35589884D01*
X143917264Y-35589884D01*
X143921739Y-35605123D01*
X143923129Y-35606328D01*
X143930812Y-35607999D01*
X144457933Y-35607999D01*
X144464754Y-35607629D01*
X144515616Y-35602105D01*
X144530868Y-35598479D01*
X144651318Y-35553324D01*
X144666913Y-35544786D01*
X144768988Y-35468285D01*
X144781549Y-35455724D01*
X144858050Y-35353649D01*
X144866588Y-35338054D01*
X144911742Y-35217606D01*
X144915369Y-35202351D01*
X144920895Y-35151486D01*
X144921264Y-35144672D01*
X144921264Y-34872115D01*
X144916789Y-34856876D01*
X144915399Y-34855671D01*
X144907716Y-34854000D01*
X143935379Y-34854000D01*
X143920140Y-34858475D01*
X143918935Y-34859865D01*
X143917264Y-34867548D01*
X143917264Y-35589884D01*
X143409264Y-35589884D01*
X143409264Y-34872115D01*
X143404789Y-34856876D01*
X143403399Y-34855671D01*
X143395716Y-34854000D01*
X142423380Y-34854000D01*
X142408141Y-34858475D01*
X142406936Y-34859865D01*
X142405265Y-34867548D01*
X142405265Y-35144669D01*
X140021764Y-35144669D01*
X140021764Y-34422095D01*
X147191172Y-34422095D01*
X147191509Y-34428614D01*
X147201428Y-34524206D01*
X147204320Y-34537600D01*
X147255759Y-34691784D01*
X147261932Y-34704962D01*
X147347234Y-34842807D01*
X147356270Y-34854208D01*
X147471000Y-34968739D01*
X147482411Y-34977751D01*
X147620414Y-35062816D01*
X147633595Y-35068963D01*
X147787881Y-35120138D01*
X147801257Y-35123005D01*
X147895609Y-35132672D01*
X147902025Y-35133000D01*
X148152056Y-35133000D01*
X148167295Y-35128525D01*
X148168500Y-35127135D01*
X148170171Y-35119452D01*
X148170171Y-34309615D01*
X148165696Y-34294376D01*
X148164306Y-34293171D01*
X148156623Y-34291500D01*
X147209287Y-34291500D01*
X147194048Y-34295975D01*
X147192843Y-34297365D01*
X147191172Y-34305048D01*
X147191172Y-34422095D01*
X140021764Y-34422095D01*
X140021764Y-34194283D01*
X140041766Y-34126162D01*
X140058669Y-34105188D01*
X140626952Y-33536905D01*
X140689264Y-33502879D01*
X140716047Y-33500000D01*
X142488498Y-33500000D01*
X142556619Y-33520002D01*
X142603112Y-33573658D01*
X142613216Y-33643932D01*
X142583722Y-33708512D01*
X142564064Y-33726826D01*
X142557538Y-33731717D01*
X142544979Y-33744276D01*
X142468478Y-33846351D01*
X142459940Y-33861946D01*
X142414786Y-33982394D01*
X142411159Y-33997649D01*
X142405633Y-34048514D01*
X142405264Y-34055328D01*
X142405264Y-34327885D01*
X142409739Y-34343124D01*
X142411129Y-34344329D01*
X142418812Y-34346000D01*
X144903148Y-34346000D01*
X144918387Y-34341525D01*
X144919592Y-34340135D01*
X144921263Y-34332452D01*
X144921263Y-34055331D01*
X144920893Y-34048510D01*
X144915369Y-33997648D01*
X144911743Y-33982396D01*
X144866588Y-33861946D01*
X144858050Y-33846351D01*
X144781549Y-33744276D01*
X144768990Y-33731717D01*
X144762464Y-33726826D01*
X144719950Y-33669966D01*
X144714925Y-33599147D01*
X144748985Y-33536854D01*
X144811316Y-33502864D01*
X144838030Y-33500000D01*
X147066933Y-33500000D01*
X147135054Y-33520002D01*
X147181547Y-33573658D01*
X147192277Y-33638842D01*
X147191499Y-33646438D01*
X147191171Y-33652855D01*
X147191171Y-33765385D01*
X147195646Y-33780624D01*
X147197036Y-33781829D01*
X147204719Y-33783500D01*
X148552171Y-33783500D01*
X148620292Y-33803502D01*
X148666785Y-33857158D01*
X148678171Y-33909500D01*
X148678171Y-35114884D01*
X148682646Y-35130123D01*
X148684036Y-35131328D01*
X148691719Y-35132999D01*
X148946266Y-35132999D01*
X148952782Y-35132662D01*
X148997169Y-35128056D01*
X149066990Y-35140920D01*
X149118772Y-35189491D01*
X149136075Y-35258347D01*
X149135081Y-35269938D01*
X149118665Y-35393803D01*
X149113102Y-35435774D01*
X149113302Y-35441103D01*
X149113302Y-35441105D01*
X149114336Y-35468642D01*
X149121751Y-35666158D01*
X149122846Y-35671377D01*
X149128244Y-35697106D01*
X149169093Y-35891791D01*
X149171051Y-35896750D01*
X149171052Y-35896752D01*
X149248603Y-36093121D01*
X149253776Y-36106221D01*
X149256543Y-36110780D01*
X149256544Y-36110783D01*
X149318998Y-36213703D01*
X149373377Y-36303317D01*
X149376874Y-36307347D01*
X149510877Y-36461772D01*
X149524477Y-36477445D01*
X149566030Y-36511516D01*
X149698627Y-36620240D01*
X149698633Y-36620244D01*
X149702755Y-36623624D01*
X149707391Y-36626263D01*
X149707394Y-36626265D01*
X149841025Y-36702332D01*
X149903114Y-36737675D01*
X150119825Y-36816337D01*
X150125074Y-36817286D01*
X150125077Y-36817287D01*
X150342608Y-36856623D01*
X150342615Y-36856624D01*
X150346692Y-36857361D01*
X150363889Y-36858172D01*
X150369356Y-36858430D01*
X150369363Y-36858430D01*
X150370844Y-36858500D01*
X150782890Y-36858500D01*
X150849809Y-36852822D01*
X150949409Y-36844371D01*
X150949413Y-36844370D01*
X150954720Y-36843920D01*
X150959875Y-36842582D01*
X150959881Y-36842581D01*
X151172703Y-36787343D01*
X151172707Y-36787342D01*
X151177872Y-36786001D01*
X151182738Y-36783809D01*
X151182741Y-36783808D01*
X151383202Y-36693507D01*
X151388075Y-36691312D01*
X151579319Y-36562559D01*
X151591879Y-36550578D01*
X151690487Y-36456510D01*
X151746135Y-36403424D01*
X151755354Y-36391034D01*
X151841222Y-36275623D01*
X151883754Y-36218458D01*
X151893523Y-36199245D01*
X151944458Y-36099062D01*
X151988240Y-36012949D01*
X152000647Y-35972994D01*
X152055024Y-35797871D01*
X152056607Y-35792773D01*
X152064780Y-35731113D01*
X152066525Y-35717944D01*
X152095305Y-35653042D01*
X152154604Y-35614003D01*
X152191433Y-35608500D01*
X153713056Y-35608500D01*
X153775238Y-35601745D01*
X153911627Y-35550615D01*
X153952233Y-35520183D01*
X154018738Y-35495335D01*
X154053994Y-35497762D01*
X154098056Y-35507128D01*
X154098060Y-35507128D01*
X154104513Y-35508500D01*
X154295487Y-35508500D01*
X154301939Y-35507128D01*
X154301944Y-35507128D01*
X154395634Y-35487213D01*
X154482288Y-35468794D01*
X154488319Y-35466109D01*
X154650722Y-35393803D01*
X154650724Y-35393802D01*
X154656752Y-35391118D01*
X154811253Y-35278866D01*
X154866412Y-35217606D01*
X154932085Y-35144669D01*
X156556923Y-35144669D01*
X156557293Y-35151490D01*
X156562817Y-35202352D01*
X156566443Y-35217604D01*
X156611598Y-35338054D01*
X156620136Y-35353649D01*
X156696637Y-35455724D01*
X156709198Y-35468285D01*
X156811273Y-35544786D01*
X156826868Y-35553324D01*
X156947316Y-35598478D01*
X156962571Y-35602105D01*
X157013436Y-35607631D01*
X157020250Y-35608000D01*
X157542807Y-35608000D01*
X157558046Y-35603525D01*
X157559251Y-35602135D01*
X157560922Y-35594452D01*
X157560922Y-35589884D01*
X158068922Y-35589884D01*
X158073397Y-35605123D01*
X158074787Y-35606328D01*
X158082470Y-35607999D01*
X158609591Y-35607999D01*
X158616412Y-35607629D01*
X158667274Y-35602105D01*
X158682526Y-35598479D01*
X158802976Y-35553324D01*
X158818571Y-35544786D01*
X158920646Y-35468285D01*
X158933207Y-35455724D01*
X159009708Y-35353649D01*
X159018246Y-35338054D01*
X159063400Y-35217606D01*
X159067027Y-35202351D01*
X159072553Y-35151486D01*
X159072922Y-35144672D01*
X159072922Y-34872115D01*
X159068447Y-34856876D01*
X159067057Y-34855671D01*
X159059374Y-34854000D01*
X158087037Y-34854000D01*
X158071798Y-34858475D01*
X158070593Y-34859865D01*
X158068922Y-34867548D01*
X158068922Y-35589884D01*
X157560922Y-35589884D01*
X157560922Y-34872115D01*
X157556447Y-34856876D01*
X157555057Y-34855671D01*
X157547374Y-34854000D01*
X156575038Y-34854000D01*
X156559799Y-34858475D01*
X156558594Y-34859865D01*
X156556923Y-34867548D01*
X156556923Y-35144669D01*
X154932085Y-35144669D01*
X154934621Y-35141852D01*
X154934622Y-35141851D01*
X154939040Y-35136944D01*
X155034527Y-34971556D01*
X155093542Y-34789928D01*
X155094424Y-34781542D01*
X155112814Y-34606565D01*
X155113504Y-34600000D01*
X155095491Y-34428614D01*
X155094232Y-34416635D01*
X155094232Y-34416633D01*
X155093542Y-34410072D01*
X155034527Y-34228444D01*
X155024439Y-34210970D01*
X154984330Y-34141500D01*
X154939040Y-34063056D01*
X154932085Y-34055331D01*
X154815675Y-33926045D01*
X154815674Y-33926044D01*
X154811253Y-33921134D01*
X154656752Y-33808882D01*
X154650724Y-33806198D01*
X154650722Y-33806197D01*
X154504526Y-33741107D01*
X154450431Y-33695127D01*
X154429781Y-33627200D01*
X154449133Y-33558892D01*
X154502344Y-33511890D01*
X154555775Y-33500000D01*
X156640156Y-33500000D01*
X156708277Y-33520002D01*
X156754770Y-33573658D01*
X156764874Y-33643932D01*
X156735380Y-33708512D01*
X156715722Y-33726826D01*
X156709196Y-33731717D01*
X156696637Y-33744276D01*
X156620136Y-33846351D01*
X156611598Y-33861946D01*
X156566444Y-33982394D01*
X156562817Y-33997649D01*
X156557291Y-34048514D01*
X156556922Y-34055328D01*
X156556922Y-34327885D01*
X156561397Y-34343124D01*
X156562787Y-34344329D01*
X156570470Y-34346000D01*
X159054806Y-34346000D01*
X159070045Y-34341525D01*
X159071250Y-34340135D01*
X159072921Y-34332452D01*
X159072921Y-34055331D01*
X159072551Y-34048510D01*
X159067027Y-33997648D01*
X159063401Y-33982396D01*
X159018246Y-33861946D01*
X159009708Y-33846351D01*
X158933207Y-33744276D01*
X158920648Y-33731717D01*
X158914122Y-33726826D01*
X158871608Y-33669966D01*
X158866583Y-33599147D01*
X158900643Y-33536854D01*
X158962974Y-33502864D01*
X158989688Y-33500000D01*
X161106615Y-33500000D01*
X161174736Y-33520002D01*
X161221229Y-33573658D01*
X161232615Y-33626000D01*
X161232615Y-35467928D01*
X161232108Y-35477544D01*
X161230240Y-35484932D01*
X161231539Y-35520183D01*
X161232530Y-35547082D01*
X161232615Y-35551721D01*
X161232615Y-35575406D01*
X161233250Y-35579838D01*
X161233569Y-35584317D01*
X161233545Y-35584319D01*
X161234150Y-35591055D01*
X161235598Y-35630347D01*
X161238433Y-35638864D01*
X161240601Y-35645378D01*
X161245776Y-35667305D01*
X161248020Y-35682974D01*
X161251735Y-35691144D01*
X161264290Y-35718757D01*
X161269140Y-35731113D01*
X161281556Y-35768414D01*
X161290575Y-35781434D01*
X161301694Y-35801025D01*
X161308248Y-35815439D01*
X161314106Y-35822237D01*
X161314107Y-35822239D01*
X161333906Y-35845216D01*
X161342030Y-35855716D01*
X161364416Y-35888033D01*
X161376723Y-35897995D01*
X161392896Y-35913679D01*
X161397374Y-35918876D01*
X161397377Y-35918879D01*
X161403234Y-35925676D01*
X161410766Y-35930558D01*
X161436224Y-35947059D01*
X161446963Y-35954853D01*
X161451319Y-35958379D01*
X161455521Y-35960819D01*
X161455523Y-35960820D01*
X161471382Y-35970027D01*
X161476630Y-35973248D01*
X161525342Y-36004822D01*
X161533941Y-36007393D01*
X161537424Y-36009003D01*
X161547829Y-36014412D01*
X161657011Y-36077804D01*
X161677151Y-36092327D01*
X161684777Y-36099062D01*
X161692901Y-36102876D01*
X161692905Y-36102879D01*
X161726056Y-36118444D01*
X161735771Y-36123532D01*
X163561528Y-37183565D01*
X163561596Y-37183608D01*
X163561677Y-37183674D01*
X163595650Y-37203376D01*
X163627244Y-37221720D01*
X163627339Y-37221758D01*
X163627423Y-37221803D01*
X163630234Y-37223433D01*
X163817295Y-37331919D01*
X163817529Y-37332067D01*
X163817779Y-37332268D01*
X163851633Y-37351833D01*
X163882934Y-37369986D01*
X163883235Y-37370107D01*
X163883469Y-37370232D01*
X164319330Y-37622127D01*
X164319661Y-37622335D01*
X164320036Y-37622636D01*
X164353944Y-37642131D01*
X164384944Y-37660047D01*
X164385382Y-37660223D01*
X164385742Y-37660414D01*
X164553328Y-37756767D01*
X164602414Y-37808061D01*
X164615976Y-37877751D01*
X164589708Y-37943709D01*
X164531950Y-37984996D01*
X164490525Y-37992000D01*
X19509683Y-37992000D01*
X19441562Y-37971998D01*
X19395069Y-37918342D01*
X19384965Y-37848068D01*
X19414459Y-37783488D01*
X19446758Y-37756838D01*
X19645995Y-37641990D01*
X19848298Y-37525375D01*
X19848640Y-37525195D01*
X19849057Y-37525033D01*
X19850165Y-37524391D01*
X19850173Y-37524387D01*
X19882844Y-37505462D01*
X19883073Y-37505330D01*
X19883495Y-37505087D01*
X19913976Y-37487516D01*
X19914326Y-37487241D01*
X19914657Y-37487034D01*
X20210340Y-37315757D01*
X20369730Y-37223430D01*
X20369874Y-37223354D01*
X20370073Y-37223276D01*
X20370602Y-37222969D01*
X20370615Y-37222962D01*
X20403700Y-37203752D01*
X20403810Y-37203688D01*
X20404404Y-37203344D01*
X20435422Y-37185377D01*
X20435592Y-37185243D01*
X20435738Y-37185151D01*
X21736075Y-36430176D01*
X22453056Y-36013897D01*
X22461619Y-36009512D01*
X22468949Y-36007417D01*
X22521550Y-35974229D01*
X22525516Y-35971828D01*
X22542125Y-35962184D01*
X22545999Y-35959935D01*
X22549517Y-35957158D01*
X22553224Y-35954637D01*
X22553238Y-35954657D01*
X22558764Y-35950749D01*
X22584420Y-35934562D01*
X22584425Y-35934558D01*
X22592015Y-35929769D01*
X22602500Y-35917897D01*
X22618868Y-35902408D01*
X22631290Y-35892602D01*
X22654068Y-35860563D01*
X22662315Y-35850169D01*
X22682400Y-35827427D01*
X22682400Y-35827426D01*
X22688340Y-35820701D01*
X22695070Y-35806366D01*
X22706430Y-35786911D01*
X22715605Y-35774005D01*
X22728472Y-35736872D01*
X22733472Y-35724577D01*
X22746369Y-35697106D01*
X22746370Y-35697102D01*
X22750183Y-35688981D01*
X22752620Y-35673332D01*
X22758064Y-35651467D01*
X22763246Y-35636510D01*
X22764639Y-35608131D01*
X22765173Y-35597259D01*
X22766520Y-35584061D01*
X22766634Y-35583331D01*
X22766635Y-35583314D01*
X22767384Y-35578506D01*
X22767384Y-35555301D01*
X22767536Y-35549123D01*
X22769941Y-35500136D01*
X22769941Y-35500135D01*
X22770381Y-35491171D01*
X22768288Y-35482446D01*
X22767931Y-35478627D01*
X22767384Y-35466904D01*
X22767384Y-34484500D01*
X22787386Y-34416379D01*
X22841042Y-34369886D01*
X22893384Y-34358500D01*
X24165500Y-34358500D01*
X24233621Y-34378502D01*
X24280114Y-34432158D01*
X24291500Y-34484500D01*
X24291500Y-35148134D01*
X24298255Y-35210316D01*
X24349385Y-35346705D01*
X24436739Y-35463261D01*
X24553295Y-35550615D01*
X24689684Y-35601745D01*
X24751866Y-35608500D01*
X25433629Y-35608500D01*
X25501750Y-35628502D01*
X25522724Y-35645405D01*
X25915741Y-36038422D01*
X25928127Y-36052834D01*
X25936660Y-36064429D01*
X25936665Y-36064434D01*
X25941003Y-36070329D01*
X25946581Y-36075068D01*
X25946584Y-36075071D01*
X25981279Y-36104546D01*
X25988795Y-36111476D01*
X25994490Y-36117171D01*
X25997372Y-36119451D01*
X26016762Y-36134792D01*
X26020166Y-36137583D01*
X26035253Y-36150400D01*
X26075796Y-36184844D01*
X26082312Y-36188172D01*
X26087361Y-36191539D01*
X26092490Y-36194706D01*
X26098227Y-36199245D01*
X26164386Y-36230166D01*
X26168280Y-36232069D01*
X26233319Y-36265280D01*
X26240427Y-36267019D01*
X26246070Y-36269118D01*
X26251833Y-36271035D01*
X26258461Y-36274133D01*
X26265623Y-36275623D01*
X26265624Y-36275623D01*
X26329923Y-36288997D01*
X26334207Y-36289967D01*
X26405121Y-36307319D01*
X26410723Y-36307667D01*
X26410726Y-36307667D01*
X26416275Y-36308011D01*
X26416273Y-36308047D01*
X26420266Y-36308286D01*
X26424458Y-36308660D01*
X26431626Y-36310151D01*
X26509031Y-36308057D01*
X26512439Y-36308011D01*
X34953980Y-36308011D01*
X35022101Y-36328013D01*
X35068594Y-36381669D01*
X35073503Y-36394134D01*
X35081129Y-36416993D01*
X35081133Y-36417003D01*
X35083450Y-36423946D01*
X35176522Y-36574348D01*
X35301697Y-36699305D01*
X35307927Y-36703145D01*
X35307928Y-36703146D01*
X35445090Y-36787694D01*
X35452262Y-36792115D01*
X35528154Y-36817287D01*
X35613611Y-36845632D01*
X35613613Y-36845632D01*
X35620139Y-36847797D01*
X35626975Y-36848497D01*
X35626978Y-36848498D01*
X35670031Y-36852909D01*
X35724600Y-36858500D01*
X37275400Y-36858500D01*
X37278646Y-36858163D01*
X37278650Y-36858163D01*
X37374308Y-36848238D01*
X37374312Y-36848237D01*
X37381166Y-36847526D01*
X37387702Y-36845345D01*
X37387704Y-36845345D01*
X37519806Y-36801272D01*
X37548946Y-36791550D01*
X37699348Y-36698478D01*
X37824305Y-36573303D01*
X37838313Y-36550578D01*
X37913275Y-36428968D01*
X37913276Y-36428966D01*
X37917115Y-36422738D01*
X37956725Y-36303317D01*
X37970632Y-36261389D01*
X37970632Y-36261387D01*
X37972797Y-36254861D01*
X37975234Y-36231081D01*
X37983172Y-36153598D01*
X37983500Y-36150400D01*
X37983500Y-34849600D01*
X37981846Y-34833659D01*
X37973238Y-34750692D01*
X37973237Y-34750688D01*
X37972526Y-34743834D01*
X37969209Y-34733890D01*
X37918868Y-34583002D01*
X37916550Y-34576054D01*
X37823478Y-34425652D01*
X37698303Y-34300695D01*
X37552220Y-34210647D01*
X37504727Y-34157876D01*
X37493303Y-34087804D01*
X37521577Y-34022680D01*
X37531364Y-34012219D01*
X37625025Y-33922870D01*
X37688121Y-33890322D01*
X37758798Y-33897053D01*
X37798650Y-33922566D01*
X37820872Y-33943617D01*
X37823314Y-33945995D01*
X38406253Y-34528934D01*
X38440279Y-34591246D01*
X38443158Y-34618029D01*
X38443158Y-35148134D01*
X38449913Y-35210316D01*
X38501043Y-35346705D01*
X38588397Y-35463261D01*
X38704953Y-35550615D01*
X38841342Y-35601745D01*
X38903524Y-35608500D01*
X40499792Y-35608500D01*
X40561974Y-35601745D01*
X40698363Y-35550615D01*
X40814919Y-35463261D01*
X40902273Y-35346705D01*
X40953403Y-35210316D01*
X40960158Y-35148134D01*
X40960158Y-35144669D01*
X43343659Y-35144669D01*
X43344029Y-35151490D01*
X43349553Y-35202352D01*
X43353179Y-35217604D01*
X43398334Y-35338054D01*
X43406872Y-35353649D01*
X43483373Y-35455724D01*
X43495934Y-35468285D01*
X43598009Y-35544786D01*
X43613604Y-35553324D01*
X43734052Y-35598478D01*
X43749307Y-35602105D01*
X43800172Y-35607631D01*
X43806986Y-35608000D01*
X44329543Y-35608000D01*
X44344782Y-35603525D01*
X44345987Y-35602135D01*
X44347658Y-35594452D01*
X44347658Y-34872115D01*
X44343183Y-34856876D01*
X44341793Y-34855671D01*
X44334110Y-34854000D01*
X43361774Y-34854000D01*
X43346535Y-34858475D01*
X43345330Y-34859865D01*
X43343659Y-34867548D01*
X43343659Y-35144669D01*
X40960158Y-35144669D01*
X40960158Y-34051866D01*
X40953403Y-33989684D01*
X40902273Y-33853295D01*
X40814919Y-33736739D01*
X40801690Y-33726824D01*
X40759177Y-33669967D01*
X40754151Y-33599149D01*
X40788211Y-33536855D01*
X40850542Y-33502865D01*
X40877257Y-33500000D01*
X43426892Y-33500000D01*
X43495013Y-33520002D01*
G37*
%TD.AperFunction*%
%TA.AperFunction,Conductor*%
G36*
X29343355Y-33520002D02*
G01*
X29389848Y-33573658D01*
X29399952Y-33643932D01*
X29370458Y-33708512D01*
X29350800Y-33726826D01*
X29344274Y-33731717D01*
X29331715Y-33744276D01*
X29255214Y-33846351D01*
X29246676Y-33861946D01*
X29201522Y-33982394D01*
X29197895Y-33997649D01*
X29192369Y-34048514D01*
X29192000Y-34055328D01*
X29192000Y-34327885D01*
X29196475Y-34343124D01*
X29197865Y-34344329D01*
X29205548Y-34346000D01*
X31689884Y-34346000D01*
X31705123Y-34341525D01*
X31706328Y-34340135D01*
X31707999Y-34332452D01*
X31707999Y-34055331D01*
X31707629Y-34048510D01*
X31702105Y-33997648D01*
X31698479Y-33982396D01*
X31653324Y-33861946D01*
X31644786Y-33846351D01*
X31568285Y-33744276D01*
X31555726Y-33731717D01*
X31549200Y-33726826D01*
X31506686Y-33669966D01*
X31501661Y-33599147D01*
X31535721Y-33536854D01*
X31598052Y-33502864D01*
X31624766Y-33500000D01*
X32142762Y-33500000D01*
X32210883Y-33520002D01*
X32257376Y-33573658D01*
X32268106Y-33638842D01*
X32267328Y-33646438D01*
X32267000Y-33652855D01*
X32267000Y-33765385D01*
X32271475Y-33780624D01*
X32272865Y-33781829D01*
X32280548Y-33783500D01*
X34714884Y-33783500D01*
X34730123Y-33779025D01*
X34731328Y-33777635D01*
X34732999Y-33769952D01*
X34732999Y-33652905D01*
X34732662Y-33646393D01*
X34731895Y-33638998D01*
X34744763Y-33569178D01*
X34793336Y-33517398D01*
X34857223Y-33500000D01*
X35026654Y-33500000D01*
X35094775Y-33520002D01*
X35143846Y-33579719D01*
X35152263Y-33601032D01*
X35156990Y-33610554D01*
X35271016Y-33798462D01*
X35277280Y-33807052D01*
X35421327Y-33973052D01*
X35428956Y-33980470D01*
X35460569Y-34006391D01*
X35500564Y-34065051D01*
X35502496Y-34136021D01*
X35465752Y-34196770D01*
X35446983Y-34210969D01*
X35300652Y-34301522D01*
X35175695Y-34426697D01*
X35171855Y-34432927D01*
X35171854Y-34432928D01*
X35108141Y-34536290D01*
X35082885Y-34577262D01*
X35067006Y-34625136D01*
X35040623Y-34704678D01*
X35000192Y-34763038D01*
X34934628Y-34790275D01*
X34921030Y-34791011D01*
X34810193Y-34791011D01*
X34742072Y-34771009D01*
X34695579Y-34717353D01*
X34685475Y-34647079D01*
X34690600Y-34625344D01*
X34720137Y-34536293D01*
X34723005Y-34522914D01*
X34732672Y-34428562D01*
X34733000Y-34422146D01*
X34733000Y-34309615D01*
X34728525Y-34294376D01*
X34727135Y-34293171D01*
X34719452Y-34291500D01*
X32285116Y-34291500D01*
X32269877Y-34295975D01*
X32268672Y-34297365D01*
X32267001Y-34305048D01*
X32267001Y-34422095D01*
X32267338Y-34428614D01*
X32277257Y-34524206D01*
X32280150Y-34537603D01*
X32309352Y-34625136D01*
X32311936Y-34696085D01*
X32275752Y-34757169D01*
X32212287Y-34788993D01*
X32189828Y-34791011D01*
X26934500Y-34791011D01*
X26866379Y-34771009D01*
X26819886Y-34717353D01*
X26808500Y-34665011D01*
X26808500Y-34051866D01*
X26801745Y-33989684D01*
X26750615Y-33853295D01*
X26663261Y-33736739D01*
X26650032Y-33726824D01*
X26607519Y-33669967D01*
X26602493Y-33599149D01*
X26636553Y-33536855D01*
X26698884Y-33502865D01*
X26725599Y-33500000D01*
X29275234Y-33500000D01*
X29343355Y-33520002D01*
G37*
%TD.AperFunction*%
%TD*%
%TA.AperFunction,Conductor*%
%TO.N,GND*%
G36*
X118888476Y-31703982D02*
G01*
X118891688Y-31706387D01*
X118901403Y-31708500D01*
X120248855Y-31708500D01*
X120316976Y-31728502D01*
X120363469Y-31782158D01*
X120374855Y-31834500D01*
X120374855Y-32090500D01*
X120354853Y-32158621D01*
X120301197Y-32205114D01*
X120248855Y-32216500D01*
X118905971Y-32216500D01*
X118890732Y-32220975D01*
X118889527Y-32222365D01*
X118887856Y-32230048D01*
X118887856Y-32347095D01*
X118888193Y-32353607D01*
X118888960Y-32361002D01*
X118876092Y-32430822D01*
X118827519Y-32482602D01*
X118763632Y-32500000D01*
X116535547Y-32500000D01*
X116467426Y-32479998D01*
X116420933Y-32426342D01*
X116410829Y-32356068D01*
X116440323Y-32291488D01*
X116459976Y-32273179D01*
X116473209Y-32263261D01*
X116560563Y-32146705D01*
X116611693Y-32010316D01*
X116618448Y-31948134D01*
X116618448Y-31809980D01*
X116638450Y-31741859D01*
X116692106Y-31695366D01*
X116744448Y-31683980D01*
X118820355Y-31683980D01*
X118888476Y-31703982D01*
G37*
%TD.AperFunction*%
%TA.AperFunction,Conductor*%
G36*
X104685952Y-31628502D02*
G01*
X104732445Y-31682158D01*
X104738727Y-31699001D01*
X104740672Y-31705624D01*
X104742062Y-31706829D01*
X104749745Y-31708500D01*
X106097197Y-31708500D01*
X106165318Y-31728502D01*
X106211811Y-31782158D01*
X106223197Y-31834500D01*
X106223197Y-32090500D01*
X106203195Y-32158621D01*
X106149539Y-32205114D01*
X106097197Y-32216500D01*
X104754313Y-32216500D01*
X104739074Y-32220975D01*
X104737869Y-32222365D01*
X104736198Y-32230048D01*
X104736198Y-32347095D01*
X104736535Y-32353607D01*
X104737302Y-32361002D01*
X104724434Y-32430822D01*
X104675861Y-32482602D01*
X104611974Y-32500000D01*
X102383889Y-32500000D01*
X102315768Y-32479998D01*
X102269275Y-32426342D01*
X102259171Y-32356068D01*
X102288665Y-32291488D01*
X102308318Y-32273179D01*
X102321551Y-32263261D01*
X102408905Y-32146705D01*
X102460035Y-32010316D01*
X102466790Y-31948134D01*
X102466790Y-31734500D01*
X102486792Y-31666379D01*
X102540448Y-31619886D01*
X102592790Y-31608500D01*
X104617831Y-31608500D01*
X104685952Y-31628502D01*
G37*
%TD.AperFunction*%
%TA.AperFunction,Conductor*%
G36*
X131541503Y-28028002D02*
G01*
X131587996Y-28081658D01*
X131598100Y-28151932D01*
X131568606Y-28216512D01*
X131503040Y-28256213D01*
X131497848Y-28256818D01*
X131490969Y-28259315D01*
X131490965Y-28259316D01*
X131429231Y-28281725D01*
X131425127Y-28283135D01*
X131355630Y-28305648D01*
X131349375Y-28309444D01*
X131343916Y-28311943D01*
X131338468Y-28314671D01*
X131331592Y-28317167D01*
X131270539Y-28357195D01*
X131266866Y-28359513D01*
X131204422Y-28397405D01*
X131196046Y-28404802D01*
X131196022Y-28404775D01*
X131193028Y-28407430D01*
X131189797Y-28410132D01*
X131183677Y-28414144D01*
X131144910Y-28455067D01*
X131130401Y-28470383D01*
X131128023Y-28472825D01*
X129246253Y-30354595D01*
X129183941Y-30388621D01*
X129157158Y-30391500D01*
X128713472Y-30391500D01*
X128651290Y-30398255D01*
X128514901Y-30449385D01*
X128398345Y-30536739D01*
X128310991Y-30653295D01*
X128259861Y-30789684D01*
X128253106Y-30851866D01*
X128253106Y-31948134D01*
X128259861Y-32010316D01*
X128310991Y-32146705D01*
X128398345Y-32263261D01*
X128411574Y-32273176D01*
X128454087Y-32330033D01*
X128459113Y-32400851D01*
X128425053Y-32463145D01*
X128362722Y-32497135D01*
X128336007Y-32500000D01*
X125786372Y-32500000D01*
X125718251Y-32479998D01*
X125671758Y-32426342D01*
X125661654Y-32356068D01*
X125691148Y-32291488D01*
X125710806Y-32273174D01*
X125717332Y-32268283D01*
X125729891Y-32255724D01*
X125806392Y-32153649D01*
X125814930Y-32138054D01*
X125860084Y-32017606D01*
X125863711Y-32002351D01*
X125869237Y-31951486D01*
X125869606Y-31944672D01*
X125869606Y-31672115D01*
X125865131Y-31656876D01*
X125863741Y-31655671D01*
X125856058Y-31654000D01*
X123371722Y-31654000D01*
X123356483Y-31658475D01*
X123355278Y-31659865D01*
X123353607Y-31667548D01*
X123353607Y-31801736D01*
X123333605Y-31869857D01*
X123279949Y-31916350D01*
X123209675Y-31926454D01*
X123145095Y-31896960D01*
X123138512Y-31890831D01*
X122375566Y-31127885D01*
X123353606Y-31127885D01*
X123358081Y-31143124D01*
X123359471Y-31144329D01*
X123367154Y-31146000D01*
X124339491Y-31146000D01*
X124354730Y-31141525D01*
X124355935Y-31140135D01*
X124357606Y-31132452D01*
X124357606Y-31127885D01*
X124865606Y-31127885D01*
X124870081Y-31143124D01*
X124871471Y-31144329D01*
X124879154Y-31146000D01*
X125851490Y-31146000D01*
X125866729Y-31141525D01*
X125867934Y-31140135D01*
X125869605Y-31132452D01*
X125869605Y-30855331D01*
X125869235Y-30848510D01*
X125863711Y-30797648D01*
X125860085Y-30782396D01*
X125814930Y-30661946D01*
X125806392Y-30646351D01*
X125729891Y-30544276D01*
X125717330Y-30531715D01*
X125615255Y-30455214D01*
X125599660Y-30446676D01*
X125479212Y-30401522D01*
X125463957Y-30397895D01*
X125413092Y-30392369D01*
X125406278Y-30392000D01*
X124883721Y-30392000D01*
X124868482Y-30396475D01*
X124867277Y-30397865D01*
X124865606Y-30405548D01*
X124865606Y-31127885D01*
X124357606Y-31127885D01*
X124357606Y-30410116D01*
X124353131Y-30394877D01*
X124351741Y-30393672D01*
X124344058Y-30392001D01*
X123816937Y-30392001D01*
X123810116Y-30392371D01*
X123759254Y-30397895D01*
X123744002Y-30401521D01*
X123623552Y-30446676D01*
X123607957Y-30455214D01*
X123505882Y-30531715D01*
X123493321Y-30544276D01*
X123416820Y-30646351D01*
X123408282Y-30661946D01*
X123363128Y-30782394D01*
X123359501Y-30797649D01*
X123353975Y-30848514D01*
X123353606Y-30855328D01*
X123353606Y-31127885D01*
X122375566Y-31127885D01*
X121684250Y-30436569D01*
X121671864Y-30422157D01*
X121663331Y-30410562D01*
X121663326Y-30410557D01*
X121658988Y-30404662D01*
X121653410Y-30399923D01*
X121653407Y-30399920D01*
X121618712Y-30370445D01*
X121611196Y-30363515D01*
X121605501Y-30357820D01*
X121593232Y-30348113D01*
X121583229Y-30340199D01*
X121579825Y-30337408D01*
X121529777Y-30294889D01*
X121529775Y-30294888D01*
X121524195Y-30290147D01*
X121517679Y-30286819D01*
X121512630Y-30283452D01*
X121507501Y-30280285D01*
X121501764Y-30275746D01*
X121435605Y-30244825D01*
X121431705Y-30242919D01*
X121366672Y-30209711D01*
X121359564Y-30207972D01*
X121353921Y-30205873D01*
X121348158Y-30203956D01*
X121341530Y-30200858D01*
X121270063Y-30185993D01*
X121265779Y-30185023D01*
X121194870Y-30167672D01*
X121189268Y-30167324D01*
X121189265Y-30167324D01*
X121183716Y-30166980D01*
X121183718Y-30166944D01*
X121179725Y-30166705D01*
X121175533Y-30166331D01*
X121168365Y-30164840D01*
X121104600Y-30166565D01*
X121090959Y-30166934D01*
X121087552Y-30166980D01*
X115491590Y-30166980D01*
X115472640Y-30165547D01*
X115458405Y-30163381D01*
X115458401Y-30163381D01*
X115451171Y-30162281D01*
X115443879Y-30162874D01*
X115443876Y-30162874D01*
X115398502Y-30166565D01*
X115388287Y-30166980D01*
X115380227Y-30166980D01*
X115376593Y-30167404D01*
X115376587Y-30167404D01*
X115366279Y-30168606D01*
X115352000Y-30170271D01*
X115347652Y-30170701D01*
X115325579Y-30172496D01*
X115282182Y-30176026D01*
X115282179Y-30176027D01*
X115274884Y-30176620D01*
X115267920Y-30178876D01*
X115261981Y-30180063D01*
X115256110Y-30181450D01*
X115248839Y-30182298D01*
X115241963Y-30184794D01*
X115241954Y-30184796D01*
X115180222Y-30207205D01*
X115176118Y-30208615D01*
X115106621Y-30231128D01*
X115100366Y-30234924D01*
X115094907Y-30237423D01*
X115089459Y-30240151D01*
X115082583Y-30242647D01*
X115021530Y-30282675D01*
X115017857Y-30284993D01*
X114955413Y-30322885D01*
X114951217Y-30326590D01*
X114951215Y-30326592D01*
X114947068Y-30330255D01*
X114947037Y-30330282D01*
X114947013Y-30330255D01*
X114944020Y-30332910D01*
X114940793Y-30335608D01*
X114934668Y-30339624D01*
X114922797Y-30352155D01*
X114861430Y-30387851D01*
X114831327Y-30391500D01*
X114561814Y-30391500D01*
X114499632Y-30398255D01*
X114363243Y-30449385D01*
X114246687Y-30536739D01*
X114159333Y-30653295D01*
X114108203Y-30789684D01*
X114101448Y-30851866D01*
X114101448Y-31948134D01*
X114108203Y-32010316D01*
X114159333Y-32146705D01*
X114246687Y-32263261D01*
X114259916Y-32273176D01*
X114302429Y-32330033D01*
X114307455Y-32400851D01*
X114273395Y-32463145D01*
X114211064Y-32497135D01*
X114184349Y-32500000D01*
X111634714Y-32500000D01*
X111566593Y-32479998D01*
X111520100Y-32426342D01*
X111509996Y-32356068D01*
X111539490Y-32291488D01*
X111559148Y-32273174D01*
X111565674Y-32268283D01*
X111578233Y-32255724D01*
X111654734Y-32153649D01*
X111663272Y-32138054D01*
X111708426Y-32017606D01*
X111712053Y-32002351D01*
X111717579Y-31951486D01*
X111717948Y-31944672D01*
X111717948Y-31672115D01*
X111713473Y-31656876D01*
X111712083Y-31655671D01*
X111704400Y-31654000D01*
X109220064Y-31654000D01*
X109204825Y-31658475D01*
X109203620Y-31659865D01*
X109201949Y-31667548D01*
X109201949Y-31944669D01*
X109202319Y-31951490D01*
X109207843Y-32002352D01*
X109211470Y-32017607D01*
X109214936Y-32026853D01*
X109220120Y-32097660D01*
X109186201Y-32160029D01*
X109123946Y-32194159D01*
X109053122Y-32189214D01*
X109007860Y-32160179D01*
X107975566Y-31127885D01*
X109201948Y-31127885D01*
X109206423Y-31143124D01*
X109207813Y-31144329D01*
X109215496Y-31146000D01*
X110187833Y-31146000D01*
X110203072Y-31141525D01*
X110204277Y-31140135D01*
X110205948Y-31132452D01*
X110205948Y-31127885D01*
X110713948Y-31127885D01*
X110718423Y-31143124D01*
X110719813Y-31144329D01*
X110727496Y-31146000D01*
X111699832Y-31146000D01*
X111715071Y-31141525D01*
X111716276Y-31140135D01*
X111717947Y-31132452D01*
X111717947Y-30855331D01*
X111717577Y-30848510D01*
X111712053Y-30797648D01*
X111708427Y-30782396D01*
X111663272Y-30661946D01*
X111654734Y-30646351D01*
X111578233Y-30544276D01*
X111565672Y-30531715D01*
X111463597Y-30455214D01*
X111448002Y-30446676D01*
X111327554Y-30401522D01*
X111312299Y-30397895D01*
X111261434Y-30392369D01*
X111254620Y-30392000D01*
X110732063Y-30392000D01*
X110716824Y-30396475D01*
X110715619Y-30397865D01*
X110713948Y-30405548D01*
X110713948Y-31127885D01*
X110205948Y-31127885D01*
X110205948Y-30410116D01*
X110201473Y-30394877D01*
X110200083Y-30393672D01*
X110192400Y-30392001D01*
X109665279Y-30392001D01*
X109658458Y-30392371D01*
X109607596Y-30397895D01*
X109592344Y-30401521D01*
X109471894Y-30446676D01*
X109456299Y-30455214D01*
X109354224Y-30531715D01*
X109341663Y-30544276D01*
X109265162Y-30646351D01*
X109256624Y-30661946D01*
X109211470Y-30782394D01*
X109207843Y-30797649D01*
X109202317Y-30848514D01*
X109201948Y-30855328D01*
X109201948Y-31127885D01*
X107975566Y-31127885D01*
X107808219Y-30960538D01*
X107791942Y-30940528D01*
X107786535Y-30932281D01*
X107784188Y-30928561D01*
X107749226Y-30870945D01*
X107749226Y-30870944D01*
X107746312Y-30866143D01*
X107738914Y-30857766D01*
X107738941Y-30857742D01*
X107736288Y-30854750D01*
X107733585Y-30851517D01*
X107729573Y-30845398D01*
X107673334Y-30792122D01*
X107670892Y-30789744D01*
X107242237Y-30361089D01*
X107229851Y-30346677D01*
X107221318Y-30335082D01*
X107221313Y-30335077D01*
X107216975Y-30329182D01*
X107211397Y-30324443D01*
X107211394Y-30324440D01*
X107176699Y-30294965D01*
X107169183Y-30288035D01*
X107163488Y-30282340D01*
X107151461Y-30272825D01*
X107141216Y-30264719D01*
X107137812Y-30261928D01*
X107087764Y-30219409D01*
X107087762Y-30219408D01*
X107082182Y-30214667D01*
X107075666Y-30211339D01*
X107070617Y-30207972D01*
X107065488Y-30204805D01*
X107059751Y-30200266D01*
X106993592Y-30169345D01*
X106989692Y-30167439D01*
X106924659Y-30134231D01*
X106917551Y-30132492D01*
X106911908Y-30130393D01*
X106906145Y-30128476D01*
X106899517Y-30125378D01*
X106884931Y-30122344D01*
X106828055Y-30110514D01*
X106823766Y-30109543D01*
X106812630Y-30106818D01*
X106752857Y-30092192D01*
X106747255Y-30091844D01*
X106747252Y-30091844D01*
X106741703Y-30091500D01*
X106741705Y-30091464D01*
X106737712Y-30091225D01*
X106733520Y-30090851D01*
X106726352Y-30089360D01*
X106662587Y-30091085D01*
X106648946Y-30091454D01*
X106645539Y-30091500D01*
X101567063Y-30091500D01*
X101548114Y-30090067D01*
X101547907Y-30090036D01*
X101526651Y-30086802D01*
X101519359Y-30087395D01*
X101519356Y-30087395D01*
X101473991Y-30091085D01*
X101463777Y-30091500D01*
X101455707Y-30091500D01*
X101452087Y-30091922D01*
X101452069Y-30091923D01*
X101427461Y-30094792D01*
X101423100Y-30095224D01*
X101397981Y-30097267D01*
X101357661Y-30100546D01*
X101357658Y-30100547D01*
X101350363Y-30101140D01*
X101343399Y-30103396D01*
X101337440Y-30104587D01*
X101331585Y-30105971D01*
X101324319Y-30106818D01*
X101255673Y-30131735D01*
X101251545Y-30133152D01*
X101189064Y-30153393D01*
X101189062Y-30153394D01*
X101182101Y-30155649D01*
X101175846Y-30159445D01*
X101170372Y-30161951D01*
X101164942Y-30164670D01*
X101158063Y-30167167D01*
X101097016Y-30207191D01*
X101093327Y-30209518D01*
X101084843Y-30214667D01*
X101035693Y-30244491D01*
X101035688Y-30244495D01*
X101030892Y-30247405D01*
X101022516Y-30254803D01*
X101022493Y-30254777D01*
X101019503Y-30257426D01*
X101016264Y-30260134D01*
X101010148Y-30264144D01*
X101005121Y-30269451D01*
X101005117Y-30269454D01*
X100956872Y-30320383D01*
X100954494Y-30322825D01*
X100922724Y-30354595D01*
X100860412Y-30388621D01*
X100833629Y-30391500D01*
X100410156Y-30391500D01*
X100347974Y-30398255D01*
X100211585Y-30449385D01*
X100095029Y-30536739D01*
X100007675Y-30653295D01*
X99956545Y-30789684D01*
X99949790Y-30851866D01*
X99949790Y-31948134D01*
X99956545Y-32010316D01*
X100007675Y-32146705D01*
X100095029Y-32263261D01*
X100108258Y-32273176D01*
X100150771Y-32330033D01*
X100155797Y-32400851D01*
X100121737Y-32463145D01*
X100059406Y-32497135D01*
X100032691Y-32500000D01*
X97483056Y-32500000D01*
X97414935Y-32479998D01*
X97368442Y-32426342D01*
X97358338Y-32356068D01*
X97387832Y-32291488D01*
X97407490Y-32273174D01*
X97414016Y-32268283D01*
X97426575Y-32255724D01*
X97503076Y-32153649D01*
X97511614Y-32138054D01*
X97556768Y-32017606D01*
X97560395Y-32002351D01*
X97565921Y-31951486D01*
X97566290Y-31944672D01*
X97566290Y-31672115D01*
X97561815Y-31656876D01*
X97560425Y-31655671D01*
X97552742Y-31654000D01*
X95068406Y-31654000D01*
X95053167Y-31658475D01*
X95051962Y-31659865D01*
X95050291Y-31667548D01*
X95050291Y-31748420D01*
X95030289Y-31816541D01*
X94976633Y-31863034D01*
X94906359Y-31873138D01*
X94841779Y-31843644D01*
X94835196Y-31837515D01*
X94125566Y-31127885D01*
X95050290Y-31127885D01*
X95054765Y-31143124D01*
X95056155Y-31144329D01*
X95063838Y-31146000D01*
X96036175Y-31146000D01*
X96051414Y-31141525D01*
X96052619Y-31140135D01*
X96054290Y-31132452D01*
X96054290Y-31127885D01*
X96562290Y-31127885D01*
X96566765Y-31143124D01*
X96568155Y-31144329D01*
X96575838Y-31146000D01*
X97548174Y-31146000D01*
X97563413Y-31141525D01*
X97564618Y-31140135D01*
X97566289Y-31132452D01*
X97566289Y-30855331D01*
X97565919Y-30848510D01*
X97560395Y-30797648D01*
X97556769Y-30782396D01*
X97511614Y-30661946D01*
X97503076Y-30646351D01*
X97426575Y-30544276D01*
X97414014Y-30531715D01*
X97311939Y-30455214D01*
X97296344Y-30446676D01*
X97175896Y-30401522D01*
X97160641Y-30397895D01*
X97109776Y-30392369D01*
X97102962Y-30392000D01*
X96580405Y-30392000D01*
X96565166Y-30396475D01*
X96563961Y-30397865D01*
X96562290Y-30405548D01*
X96562290Y-31127885D01*
X96054290Y-31127885D01*
X96054290Y-30410116D01*
X96049815Y-30394877D01*
X96048425Y-30393672D01*
X96040742Y-30392001D01*
X95513621Y-30392001D01*
X95506800Y-30392371D01*
X95455938Y-30397895D01*
X95440686Y-30401521D01*
X95320236Y-30446676D01*
X95304641Y-30455214D01*
X95202566Y-30531715D01*
X95190005Y-30544276D01*
X95113504Y-30646351D01*
X95104966Y-30661946D01*
X95059812Y-30782394D01*
X95056185Y-30797649D01*
X95050659Y-30848514D01*
X95050290Y-30855328D01*
X95050290Y-31127885D01*
X94125566Y-31127885D01*
X93034269Y-30036588D01*
X93021883Y-30022176D01*
X93013350Y-30010581D01*
X93013345Y-30010576D01*
X93009007Y-30004681D01*
X93003429Y-29999942D01*
X93003426Y-29999939D01*
X92968731Y-29970464D01*
X92961215Y-29963534D01*
X92955520Y-29957839D01*
X92939235Y-29944955D01*
X92933248Y-29940218D01*
X92929844Y-29937427D01*
X92879796Y-29894908D01*
X92879794Y-29894907D01*
X92874214Y-29890166D01*
X92867698Y-29886838D01*
X92862649Y-29883471D01*
X92857520Y-29880304D01*
X92851783Y-29875765D01*
X92785624Y-29844844D01*
X92781724Y-29842938D01*
X92716691Y-29809730D01*
X92709583Y-29807991D01*
X92703940Y-29805892D01*
X92698177Y-29803975D01*
X92691549Y-29800877D01*
X92620082Y-29786012D01*
X92615798Y-29785042D01*
X92614858Y-29784812D01*
X92544889Y-29767691D01*
X92539287Y-29767343D01*
X92539284Y-29767343D01*
X92533735Y-29766999D01*
X92533737Y-29766963D01*
X92529744Y-29766724D01*
X92525552Y-29766350D01*
X92518384Y-29764859D01*
X92454619Y-29766584D01*
X92440978Y-29766953D01*
X92437571Y-29766999D01*
X87891570Y-29766999D01*
X87872622Y-29765566D01*
X87865281Y-29764449D01*
X87858384Y-29763400D01*
X87858382Y-29763400D01*
X87851152Y-29762300D01*
X87843860Y-29762893D01*
X87843857Y-29762893D01*
X87798483Y-29766584D01*
X87788268Y-29766999D01*
X87780208Y-29766999D01*
X87769881Y-29768203D01*
X87751994Y-29770288D01*
X87747619Y-29770721D01*
X87682162Y-29776045D01*
X87682159Y-29776046D01*
X87674864Y-29776639D01*
X87667900Y-29778895D01*
X87661941Y-29780086D01*
X87656086Y-29781470D01*
X87648820Y-29782317D01*
X87580174Y-29807234D01*
X87576046Y-29808651D01*
X87513565Y-29828892D01*
X87513563Y-29828893D01*
X87506602Y-29831148D01*
X87500347Y-29834944D01*
X87494873Y-29837450D01*
X87489443Y-29840169D01*
X87482564Y-29842666D01*
X87476444Y-29846679D01*
X87476443Y-29846679D01*
X87421525Y-29882685D01*
X87417821Y-29885022D01*
X87355394Y-29922904D01*
X87347017Y-29930302D01*
X87346993Y-29930275D01*
X87344001Y-29932928D01*
X87340768Y-29935631D01*
X87334649Y-29939643D01*
X87305452Y-29970464D01*
X87281373Y-29995882D01*
X87278995Y-29998324D01*
X86922724Y-30354595D01*
X86860412Y-30388621D01*
X86833629Y-30391500D01*
X86258498Y-30391500D01*
X86196316Y-30398255D01*
X86059927Y-30449385D01*
X85943371Y-30536739D01*
X85856017Y-30653295D01*
X85804887Y-30789684D01*
X85798132Y-30851866D01*
X85798132Y-31948134D01*
X85804887Y-32010316D01*
X85856017Y-32146705D01*
X85943371Y-32263261D01*
X85956600Y-32273176D01*
X85999113Y-32330033D01*
X86004139Y-32400851D01*
X85970079Y-32463145D01*
X85907748Y-32497135D01*
X85881033Y-32500000D01*
X83331398Y-32500000D01*
X83263277Y-32479998D01*
X83216784Y-32426342D01*
X83206680Y-32356068D01*
X83236174Y-32291488D01*
X83255832Y-32273174D01*
X83262358Y-32268283D01*
X83274917Y-32255724D01*
X83351418Y-32153649D01*
X83359956Y-32138054D01*
X83405110Y-32017606D01*
X83408737Y-32002351D01*
X83414263Y-31951486D01*
X83414632Y-31944672D01*
X83414632Y-31672115D01*
X83410157Y-31656876D01*
X83408767Y-31655671D01*
X83401084Y-31654000D01*
X80916748Y-31654000D01*
X80901509Y-31658475D01*
X80900304Y-31659865D01*
X80898633Y-31667548D01*
X80898633Y-31821762D01*
X80878631Y-31889883D01*
X80824975Y-31936376D01*
X80754701Y-31946480D01*
X80690121Y-31916986D01*
X80683538Y-31910857D01*
X79900566Y-31127885D01*
X80898632Y-31127885D01*
X80903107Y-31143124D01*
X80904497Y-31144329D01*
X80912180Y-31146000D01*
X81884517Y-31146000D01*
X81899756Y-31141525D01*
X81900961Y-31140135D01*
X81902632Y-31132452D01*
X81902632Y-31127885D01*
X82410632Y-31127885D01*
X82415107Y-31143124D01*
X82416497Y-31144329D01*
X82424180Y-31146000D01*
X83396516Y-31146000D01*
X83411755Y-31141525D01*
X83412960Y-31140135D01*
X83414631Y-31132452D01*
X83414631Y-30855331D01*
X83414261Y-30848510D01*
X83408737Y-30797648D01*
X83405111Y-30782396D01*
X83359956Y-30661946D01*
X83351418Y-30646351D01*
X83274917Y-30544276D01*
X83262356Y-30531715D01*
X83160281Y-30455214D01*
X83144686Y-30446676D01*
X83024238Y-30401522D01*
X83008983Y-30397895D01*
X82958118Y-30392369D01*
X82951304Y-30392000D01*
X82428747Y-30392000D01*
X82413508Y-30396475D01*
X82412303Y-30397865D01*
X82410632Y-30405548D01*
X82410632Y-31127885D01*
X81902632Y-31127885D01*
X81902632Y-30410116D01*
X81898157Y-30394877D01*
X81896767Y-30393672D01*
X81889084Y-30392001D01*
X81361963Y-30392001D01*
X81355142Y-30392371D01*
X81304280Y-30397895D01*
X81289028Y-30401521D01*
X81168578Y-30446676D01*
X81152983Y-30455214D01*
X81050908Y-30531715D01*
X81038347Y-30544276D01*
X80961846Y-30646351D01*
X80953308Y-30661946D01*
X80908154Y-30782394D01*
X80904527Y-30797649D01*
X80899001Y-30848514D01*
X80898632Y-30855328D01*
X80898632Y-31127885D01*
X79900566Y-31127885D01*
X79083770Y-30311089D01*
X79071384Y-30296677D01*
X79062851Y-30285082D01*
X79062846Y-30285077D01*
X79058508Y-30279182D01*
X79052930Y-30274443D01*
X79052927Y-30274440D01*
X79018232Y-30244965D01*
X79010716Y-30238035D01*
X79005021Y-30232340D01*
X78988736Y-30219456D01*
X78982749Y-30214719D01*
X78979345Y-30211928D01*
X78929297Y-30169409D01*
X78929295Y-30169408D01*
X78923715Y-30164667D01*
X78917199Y-30161339D01*
X78912150Y-30157972D01*
X78907021Y-30154805D01*
X78901284Y-30150266D01*
X78835125Y-30119345D01*
X78831225Y-30117439D01*
X78766192Y-30084231D01*
X78759084Y-30082492D01*
X78753441Y-30080393D01*
X78747678Y-30078476D01*
X78741050Y-30075378D01*
X78669583Y-30060513D01*
X78665299Y-30059543D01*
X78654163Y-30056818D01*
X78594390Y-30042192D01*
X78588788Y-30041844D01*
X78588785Y-30041844D01*
X78583236Y-30041500D01*
X78583238Y-30041464D01*
X78579245Y-30041225D01*
X78575053Y-30040851D01*
X78567885Y-30039360D01*
X78504120Y-30041085D01*
X78490479Y-30041454D01*
X78487072Y-30041500D01*
X73470010Y-30041500D01*
X73451062Y-30040067D01*
X73443721Y-30038950D01*
X73436824Y-30037901D01*
X73436822Y-30037901D01*
X73429592Y-30036801D01*
X73422300Y-30037394D01*
X73422297Y-30037394D01*
X73376923Y-30041085D01*
X73366708Y-30041500D01*
X73358648Y-30041500D01*
X73345358Y-30043049D01*
X73330434Y-30044789D01*
X73326059Y-30045222D01*
X73260602Y-30050546D01*
X73260599Y-30050547D01*
X73253304Y-30051140D01*
X73246340Y-30053396D01*
X73240381Y-30054587D01*
X73234526Y-30055971D01*
X73227260Y-30056818D01*
X73158614Y-30081735D01*
X73154486Y-30083152D01*
X73092005Y-30103393D01*
X73092003Y-30103394D01*
X73085042Y-30105649D01*
X73078787Y-30109445D01*
X73073313Y-30111951D01*
X73067883Y-30114670D01*
X73061004Y-30117167D01*
X73054884Y-30121180D01*
X73054883Y-30121180D01*
X72999965Y-30157186D01*
X72996261Y-30159523D01*
X72933834Y-30197405D01*
X72929626Y-30201121D01*
X72929625Y-30201122D01*
X72926597Y-30203796D01*
X72925457Y-30204803D01*
X72925433Y-30204776D01*
X72922441Y-30207429D01*
X72919208Y-30210132D01*
X72913089Y-30214144D01*
X72886505Y-30242207D01*
X72859813Y-30270383D01*
X72857435Y-30272825D01*
X72775665Y-30354595D01*
X72713353Y-30388621D01*
X72686570Y-30391500D01*
X72106840Y-30391500D01*
X72044658Y-30398255D01*
X71908269Y-30449385D01*
X71791713Y-30536739D01*
X71704359Y-30653295D01*
X71653229Y-30789684D01*
X71646474Y-30851866D01*
X71646474Y-31948134D01*
X71653229Y-32010316D01*
X71704359Y-32146705D01*
X71791713Y-32263261D01*
X71804942Y-32273176D01*
X71847455Y-32330033D01*
X71852481Y-32400851D01*
X71818421Y-32463145D01*
X71756090Y-32497135D01*
X71729375Y-32500000D01*
X69179740Y-32500000D01*
X69111619Y-32479998D01*
X69065126Y-32426342D01*
X69055022Y-32356068D01*
X69084516Y-32291488D01*
X69104174Y-32273174D01*
X69110700Y-32268283D01*
X69123259Y-32255724D01*
X69199760Y-32153649D01*
X69208298Y-32138054D01*
X69253452Y-32017606D01*
X69257079Y-32002351D01*
X69262605Y-31951486D01*
X69262974Y-31944672D01*
X69262974Y-31672115D01*
X69258499Y-31656876D01*
X69257109Y-31655671D01*
X69249426Y-31654000D01*
X66765090Y-31654000D01*
X66749851Y-31658475D01*
X66748646Y-31659865D01*
X66746975Y-31667548D01*
X66746975Y-31944669D01*
X66747344Y-31951481D01*
X66748090Y-31958347D01*
X66735562Y-32028230D01*
X66687242Y-32080246D01*
X66618471Y-32097881D01*
X66551082Y-32075535D01*
X66533732Y-32061051D01*
X65600566Y-31127885D01*
X66746974Y-31127885D01*
X66751449Y-31143124D01*
X66752839Y-31144329D01*
X66760522Y-31146000D01*
X67732859Y-31146000D01*
X67748098Y-31141525D01*
X67749303Y-31140135D01*
X67750974Y-31132452D01*
X67750974Y-31127885D01*
X68258974Y-31127885D01*
X68263449Y-31143124D01*
X68264839Y-31144329D01*
X68272522Y-31146000D01*
X69244858Y-31146000D01*
X69260097Y-31141525D01*
X69261302Y-31140135D01*
X69262973Y-31132452D01*
X69262973Y-30855331D01*
X69262603Y-30848510D01*
X69257079Y-30797648D01*
X69253453Y-30782396D01*
X69208298Y-30661946D01*
X69199760Y-30646351D01*
X69123259Y-30544276D01*
X69110698Y-30531715D01*
X69008623Y-30455214D01*
X68993028Y-30446676D01*
X68872580Y-30401522D01*
X68857325Y-30397895D01*
X68806460Y-30392369D01*
X68799646Y-30392000D01*
X68277089Y-30392000D01*
X68261850Y-30396475D01*
X68260645Y-30397865D01*
X68258974Y-30405548D01*
X68258974Y-31127885D01*
X67750974Y-31127885D01*
X67750974Y-30410116D01*
X67746499Y-30394877D01*
X67745109Y-30393672D01*
X67737426Y-30392001D01*
X67210305Y-30392001D01*
X67203484Y-30392371D01*
X67152622Y-30397895D01*
X67137370Y-30401521D01*
X67016920Y-30446676D01*
X67001325Y-30455214D01*
X66899250Y-30531715D01*
X66886689Y-30544276D01*
X66810188Y-30646351D01*
X66801650Y-30661946D01*
X66756496Y-30782394D01*
X66752869Y-30797649D01*
X66747343Y-30848514D01*
X66746974Y-30855328D01*
X66746974Y-31127885D01*
X65600566Y-31127885D01*
X64833770Y-30361089D01*
X64821384Y-30346677D01*
X64812851Y-30335082D01*
X64812846Y-30335077D01*
X64808508Y-30329182D01*
X64802930Y-30324443D01*
X64802927Y-30324440D01*
X64768232Y-30294965D01*
X64760716Y-30288035D01*
X64755021Y-30282340D01*
X64742994Y-30272825D01*
X64732749Y-30264719D01*
X64729345Y-30261928D01*
X64679297Y-30219409D01*
X64679295Y-30219408D01*
X64673715Y-30214667D01*
X64667199Y-30211339D01*
X64662150Y-30207972D01*
X64657021Y-30204805D01*
X64651284Y-30200266D01*
X64585125Y-30169345D01*
X64581225Y-30167439D01*
X64516192Y-30134231D01*
X64509084Y-30132492D01*
X64503441Y-30130393D01*
X64497678Y-30128476D01*
X64491050Y-30125378D01*
X64476464Y-30122344D01*
X64419588Y-30110514D01*
X64415299Y-30109543D01*
X64404163Y-30106818D01*
X64344390Y-30092192D01*
X64338788Y-30091844D01*
X64338785Y-30091844D01*
X64333236Y-30091500D01*
X64333238Y-30091464D01*
X64329245Y-30091225D01*
X64325053Y-30090851D01*
X64317885Y-30089360D01*
X64254120Y-30091085D01*
X64240479Y-30091454D01*
X64237072Y-30091500D01*
X59067063Y-30091500D01*
X59048114Y-30090067D01*
X59047907Y-30090036D01*
X59026651Y-30086802D01*
X59019359Y-30087395D01*
X59019356Y-30087395D01*
X58973991Y-30091085D01*
X58963777Y-30091500D01*
X58955707Y-30091500D01*
X58952087Y-30091922D01*
X58952069Y-30091923D01*
X58927461Y-30094792D01*
X58923100Y-30095224D01*
X58897981Y-30097267D01*
X58857661Y-30100546D01*
X58857658Y-30100547D01*
X58850363Y-30101140D01*
X58843399Y-30103396D01*
X58837440Y-30104587D01*
X58831585Y-30105971D01*
X58824319Y-30106818D01*
X58755673Y-30131735D01*
X58751545Y-30133152D01*
X58689064Y-30153393D01*
X58689062Y-30153394D01*
X58682101Y-30155649D01*
X58675846Y-30159445D01*
X58670372Y-30161951D01*
X58664942Y-30164670D01*
X58658063Y-30167167D01*
X58597016Y-30207191D01*
X58593327Y-30209518D01*
X58584843Y-30214667D01*
X58535693Y-30244491D01*
X58535688Y-30244495D01*
X58530892Y-30247405D01*
X58522516Y-30254803D01*
X58522493Y-30254777D01*
X58519503Y-30257426D01*
X58516264Y-30260134D01*
X58510148Y-30264144D01*
X58505121Y-30269451D01*
X58505117Y-30269454D01*
X58456872Y-30320383D01*
X58454494Y-30322825D01*
X58422724Y-30354595D01*
X58360412Y-30388621D01*
X58333629Y-30391500D01*
X57955182Y-30391500D01*
X57893000Y-30398255D01*
X57756611Y-30449385D01*
X57640055Y-30536739D01*
X57552701Y-30653295D01*
X57501571Y-30789684D01*
X57494816Y-30851866D01*
X57494816Y-31948134D01*
X57501571Y-32010316D01*
X57552701Y-32146705D01*
X57640055Y-32263261D01*
X57653284Y-32273176D01*
X57695797Y-32330033D01*
X57700823Y-32400851D01*
X57666763Y-32463145D01*
X57604432Y-32497135D01*
X57577717Y-32500000D01*
X56009500Y-32500000D01*
X55941379Y-32479998D01*
X55894886Y-32426342D01*
X55883500Y-32374000D01*
X55883500Y-30592063D01*
X55884933Y-30573114D01*
X55884964Y-30572907D01*
X55888198Y-30551651D01*
X55885066Y-30513136D01*
X55883915Y-30498991D01*
X55883500Y-30488777D01*
X55883500Y-30480707D01*
X55883078Y-30477087D01*
X55883077Y-30477069D01*
X55880208Y-30452461D01*
X55879775Y-30448086D01*
X55879661Y-30446676D01*
X55876243Y-30404662D01*
X55874454Y-30382661D01*
X55874453Y-30382658D01*
X55873860Y-30375363D01*
X55871604Y-30368399D01*
X55870413Y-30362440D01*
X55869029Y-30356585D01*
X55868182Y-30349319D01*
X55843265Y-30280673D01*
X55841848Y-30276545D01*
X55821607Y-30214064D01*
X55821606Y-30214062D01*
X55819351Y-30207101D01*
X55815555Y-30200846D01*
X55813049Y-30195372D01*
X55810330Y-30189942D01*
X55807833Y-30183063D01*
X55801053Y-30172721D01*
X55789860Y-30155649D01*
X55767809Y-30122016D01*
X55765472Y-30118312D01*
X55764943Y-30117439D01*
X55751008Y-30094476D01*
X55730509Y-30060693D01*
X55730505Y-30060688D01*
X55727595Y-30055892D01*
X55722874Y-30050546D01*
X55720197Y-30047516D01*
X55720223Y-30047493D01*
X55717574Y-30044503D01*
X55714866Y-30041264D01*
X55710856Y-30035148D01*
X55705549Y-30030121D01*
X55705546Y-30030117D01*
X55654617Y-29981872D01*
X55652175Y-29979494D01*
X54534259Y-28861578D01*
X54521873Y-28847166D01*
X54513340Y-28835571D01*
X54513335Y-28835566D01*
X54508997Y-28829671D01*
X54503419Y-28824932D01*
X54503416Y-28824929D01*
X54468721Y-28795454D01*
X54461205Y-28788524D01*
X54455510Y-28782829D01*
X54449369Y-28777971D01*
X54433238Y-28765208D01*
X54429834Y-28762417D01*
X54379786Y-28719898D01*
X54379784Y-28719897D01*
X54374204Y-28715156D01*
X54367688Y-28711828D01*
X54362639Y-28708461D01*
X54357510Y-28705294D01*
X54351773Y-28700755D01*
X54285614Y-28669834D01*
X54281714Y-28667928D01*
X54216681Y-28634720D01*
X54209573Y-28632981D01*
X54203930Y-28630882D01*
X54198167Y-28628965D01*
X54191539Y-28625867D01*
X54120072Y-28611002D01*
X54115788Y-28610032D01*
X54114848Y-28609802D01*
X54044879Y-28592681D01*
X54039277Y-28592333D01*
X54039274Y-28592333D01*
X54033725Y-28591989D01*
X54033727Y-28591953D01*
X54029734Y-28591714D01*
X54025542Y-28591340D01*
X54018374Y-28589849D01*
X53954609Y-28591574D01*
X53940968Y-28591943D01*
X53937561Y-28591989D01*
X46566580Y-28591989D01*
X46547632Y-28590556D01*
X46540291Y-28589439D01*
X46533394Y-28588390D01*
X46533392Y-28588390D01*
X46526162Y-28587290D01*
X46518870Y-28587883D01*
X46518867Y-28587883D01*
X46473493Y-28591574D01*
X46463278Y-28591989D01*
X46455218Y-28591989D01*
X46441928Y-28593538D01*
X46427004Y-28595278D01*
X46422629Y-28595711D01*
X46357172Y-28601035D01*
X46357169Y-28601036D01*
X46349874Y-28601629D01*
X46342910Y-28603885D01*
X46336951Y-28605076D01*
X46331096Y-28606460D01*
X46323830Y-28607307D01*
X46255184Y-28632224D01*
X46251056Y-28633641D01*
X46188575Y-28653882D01*
X46188573Y-28653883D01*
X46181612Y-28656138D01*
X46175357Y-28659934D01*
X46169883Y-28662440D01*
X46164453Y-28665159D01*
X46157574Y-28667656D01*
X46151454Y-28671669D01*
X46151453Y-28671669D01*
X46140477Y-28678865D01*
X46096527Y-28707680D01*
X46092838Y-28710007D01*
X46090265Y-28711569D01*
X46035204Y-28744980D01*
X46035199Y-28744984D01*
X46030403Y-28747894D01*
X46022027Y-28755292D01*
X46022004Y-28755266D01*
X46019014Y-28757915D01*
X46015775Y-28760623D01*
X46009659Y-28764633D01*
X46004632Y-28769940D01*
X46004628Y-28769943D01*
X45956383Y-28820872D01*
X45954005Y-28823314D01*
X44422724Y-30354595D01*
X44360412Y-30388621D01*
X44333629Y-30391500D01*
X43803524Y-30391500D01*
X43741342Y-30398255D01*
X43604953Y-30449385D01*
X43488397Y-30536739D01*
X43401043Y-30653295D01*
X43349913Y-30789684D01*
X43343158Y-30851866D01*
X43343158Y-31948134D01*
X43349913Y-32010316D01*
X43401043Y-32146705D01*
X43488397Y-32263261D01*
X43501626Y-32273176D01*
X43544139Y-32330033D01*
X43549165Y-32400851D01*
X43515105Y-32463145D01*
X43452774Y-32497135D01*
X43426059Y-32500000D01*
X40876424Y-32500000D01*
X40808303Y-32479998D01*
X40761810Y-32426342D01*
X40751706Y-32356068D01*
X40781200Y-32291488D01*
X40800858Y-32273174D01*
X40807384Y-32268283D01*
X40819943Y-32255724D01*
X40896444Y-32153649D01*
X40904982Y-32138054D01*
X40950136Y-32017606D01*
X40953763Y-32002351D01*
X40959289Y-31951486D01*
X40959658Y-31944672D01*
X40959658Y-31672115D01*
X40955183Y-31656876D01*
X40953793Y-31655671D01*
X40946110Y-31654000D01*
X39573658Y-31654000D01*
X39505537Y-31633998D01*
X39459044Y-31580342D01*
X39447658Y-31528000D01*
X39447658Y-31127885D01*
X39955658Y-31127885D01*
X39960133Y-31143124D01*
X39961523Y-31144329D01*
X39969206Y-31146000D01*
X40941542Y-31146000D01*
X40956781Y-31141525D01*
X40957986Y-31140135D01*
X40959657Y-31132452D01*
X40959657Y-30855331D01*
X40959287Y-30848510D01*
X40953763Y-30797648D01*
X40950137Y-30782396D01*
X40904982Y-30661946D01*
X40896444Y-30646351D01*
X40819943Y-30544276D01*
X40807382Y-30531715D01*
X40705307Y-30455214D01*
X40689712Y-30446676D01*
X40569264Y-30401522D01*
X40554009Y-30397895D01*
X40503144Y-30392369D01*
X40496330Y-30392000D01*
X39973773Y-30392000D01*
X39958534Y-30396475D01*
X39957329Y-30397865D01*
X39955658Y-30405548D01*
X39955658Y-31127885D01*
X39447658Y-31127885D01*
X39447658Y-30410116D01*
X39443183Y-30394877D01*
X39441793Y-30393672D01*
X39434110Y-30392001D01*
X39228038Y-30392001D01*
X39159917Y-30371999D01*
X39113424Y-30318343D01*
X39102453Y-30276216D01*
X39102077Y-30271598D01*
X39099349Y-30238055D01*
X39097094Y-30231094D01*
X39095907Y-30225154D01*
X39094518Y-30219279D01*
X39093671Y-30212010D01*
X39068753Y-30143361D01*
X39067336Y-30139233D01*
X39047096Y-30076755D01*
X39047095Y-30076753D01*
X39044840Y-30069792D01*
X39041044Y-30063537D01*
X39038538Y-30058063D01*
X39035819Y-30052633D01*
X39033322Y-30045754D01*
X39027452Y-30036801D01*
X38993303Y-29984715D01*
X38990956Y-29980996D01*
X38980360Y-29963534D01*
X38953084Y-29918584D01*
X38945686Y-29910207D01*
X38945713Y-29910183D01*
X38943060Y-29907191D01*
X38940357Y-29903958D01*
X38936345Y-29897839D01*
X38880106Y-29844563D01*
X38877664Y-29842185D01*
X37747048Y-28711569D01*
X37734662Y-28697157D01*
X37726129Y-28685562D01*
X37726124Y-28685557D01*
X37721786Y-28679662D01*
X37716208Y-28674923D01*
X37716205Y-28674920D01*
X37681510Y-28645445D01*
X37673994Y-28638515D01*
X37668299Y-28632820D01*
X37652014Y-28619936D01*
X37646027Y-28615199D01*
X37642623Y-28612408D01*
X37592575Y-28569889D01*
X37592573Y-28569888D01*
X37586993Y-28565147D01*
X37580477Y-28561819D01*
X37575428Y-28558452D01*
X37570299Y-28555285D01*
X37564562Y-28550746D01*
X37498403Y-28519825D01*
X37494503Y-28517919D01*
X37429470Y-28484711D01*
X37422362Y-28482972D01*
X37416719Y-28480873D01*
X37410956Y-28478956D01*
X37404328Y-28475858D01*
X37389747Y-28472825D01*
X37332866Y-28460994D01*
X37328577Y-28460023D01*
X37294236Y-28451620D01*
X37257668Y-28442672D01*
X37252066Y-28442324D01*
X37252063Y-28442324D01*
X37246514Y-28441980D01*
X37246516Y-28441944D01*
X37242523Y-28441705D01*
X37238331Y-28441331D01*
X37231163Y-28439840D01*
X37167398Y-28441565D01*
X37153757Y-28441934D01*
X37150350Y-28441980D01*
X32716590Y-28441980D01*
X32697640Y-28440547D01*
X32683405Y-28438381D01*
X32683401Y-28438381D01*
X32676171Y-28437281D01*
X32668879Y-28437874D01*
X32668876Y-28437874D01*
X32623502Y-28441565D01*
X32613287Y-28441980D01*
X32605227Y-28441980D01*
X32591937Y-28443529D01*
X32577013Y-28445269D01*
X32572638Y-28445702D01*
X32507181Y-28451026D01*
X32507178Y-28451027D01*
X32499883Y-28451620D01*
X32492919Y-28453876D01*
X32486960Y-28455067D01*
X32481105Y-28456451D01*
X32473839Y-28457298D01*
X32405193Y-28482215D01*
X32401065Y-28483632D01*
X32338584Y-28503873D01*
X32338582Y-28503874D01*
X32331621Y-28506129D01*
X32325366Y-28509925D01*
X32319892Y-28512431D01*
X32314462Y-28515150D01*
X32307583Y-28517647D01*
X32301463Y-28521660D01*
X32301462Y-28521660D01*
X32246544Y-28557666D01*
X32242840Y-28560003D01*
X32180413Y-28597885D01*
X32176205Y-28601601D01*
X32176204Y-28601602D01*
X32172270Y-28605076D01*
X32172036Y-28605283D01*
X32172012Y-28605256D01*
X32169020Y-28607909D01*
X32165787Y-28610612D01*
X32159668Y-28614624D01*
X32130471Y-28645445D01*
X32106392Y-28670863D01*
X32104014Y-28673305D01*
X30422724Y-30354595D01*
X30360412Y-30388621D01*
X30333629Y-30391500D01*
X29651866Y-30391500D01*
X29589684Y-30398255D01*
X29453295Y-30449385D01*
X29336739Y-30536739D01*
X29249385Y-30653295D01*
X29198255Y-30789684D01*
X29191500Y-30851866D01*
X29191500Y-31948134D01*
X29198255Y-32010316D01*
X29249385Y-32146705D01*
X29336739Y-32263261D01*
X29349968Y-32273176D01*
X29392481Y-32330033D01*
X29397507Y-32400851D01*
X29363447Y-32463145D01*
X29301116Y-32497135D01*
X29274401Y-32500000D01*
X26724766Y-32500000D01*
X26656645Y-32479998D01*
X26610152Y-32426342D01*
X26600048Y-32356068D01*
X26629542Y-32291488D01*
X26649200Y-32273174D01*
X26655726Y-32268283D01*
X26668285Y-32255724D01*
X26744786Y-32153649D01*
X26753324Y-32138054D01*
X26798478Y-32017606D01*
X26802105Y-32002351D01*
X26807631Y-31951486D01*
X26808000Y-31944672D01*
X26808000Y-31672115D01*
X26803525Y-31656876D01*
X26802135Y-31655671D01*
X26794452Y-31654000D01*
X24394986Y-31654000D01*
X24366835Y-31650699D01*
X24360316Y-31648255D01*
X24352468Y-31647402D01*
X24352466Y-31647402D01*
X24301531Y-31641869D01*
X24298134Y-31641500D01*
X22893384Y-31641500D01*
X22825263Y-31621498D01*
X22778770Y-31567842D01*
X22767384Y-31515500D01*
X22767384Y-31127885D01*
X24292000Y-31127885D01*
X24296475Y-31143124D01*
X24297865Y-31144329D01*
X24305548Y-31146000D01*
X25277885Y-31146000D01*
X25293124Y-31141525D01*
X25294329Y-31140135D01*
X25296000Y-31132452D01*
X25296000Y-31127885D01*
X25804000Y-31127885D01*
X25808475Y-31143124D01*
X25809865Y-31144329D01*
X25817548Y-31146000D01*
X26789884Y-31146000D01*
X26805123Y-31141525D01*
X26806328Y-31140135D01*
X26807999Y-31132452D01*
X26807999Y-30855331D01*
X26807629Y-30848510D01*
X26802105Y-30797648D01*
X26798479Y-30782396D01*
X26753324Y-30661946D01*
X26744786Y-30646351D01*
X26668285Y-30544276D01*
X26655724Y-30531715D01*
X26553649Y-30455214D01*
X26538054Y-30446676D01*
X26417606Y-30401522D01*
X26402351Y-30397895D01*
X26351486Y-30392369D01*
X26344672Y-30392000D01*
X25822115Y-30392000D01*
X25806876Y-30396475D01*
X25805671Y-30397865D01*
X25804000Y-30405548D01*
X25804000Y-31127885D01*
X25296000Y-31127885D01*
X25296000Y-30410116D01*
X25291525Y-30394877D01*
X25290135Y-30393672D01*
X25282452Y-30392001D01*
X24755331Y-30392001D01*
X24748510Y-30392371D01*
X24697648Y-30397895D01*
X24682396Y-30401521D01*
X24561946Y-30446676D01*
X24546351Y-30455214D01*
X24444276Y-30531715D01*
X24431715Y-30544276D01*
X24355214Y-30646351D01*
X24346676Y-30661946D01*
X24301522Y-30782394D01*
X24297895Y-30797649D01*
X24292369Y-30848514D01*
X24292000Y-30855328D01*
X24292000Y-31127885D01*
X22767384Y-31127885D01*
X22767384Y-30532354D01*
X22767933Y-30521670D01*
X22769913Y-30513740D01*
X22769309Y-30498533D01*
X22767483Y-30452611D01*
X22767384Y-30447606D01*
X22767384Y-30424746D01*
X22766748Y-30420306D01*
X22766547Y-30417479D01*
X22765733Y-30408546D01*
X22764491Y-30377315D01*
X22764490Y-30377307D01*
X22764133Y-30368340D01*
X22759383Y-30354205D01*
X22754094Y-30331943D01*
X22751979Y-30317178D01*
X22747971Y-30308362D01*
X22735327Y-30280552D01*
X22730593Y-30268543D01*
X22724192Y-30249497D01*
X22717776Y-30230408D01*
X22712642Y-30223042D01*
X22709254Y-30218181D01*
X22697919Y-30198279D01*
X22696597Y-30195372D01*
X22691751Y-30184713D01*
X22685024Y-30176905D01*
X22670655Y-30160230D01*
X22665485Y-30154230D01*
X22657584Y-30144048D01*
X22634569Y-30111029D01*
X22627574Y-30105400D01*
X22622950Y-30101679D01*
X22606499Y-30085772D01*
X22596765Y-30074476D01*
X22563001Y-30052592D01*
X22552548Y-30045028D01*
X22551261Y-30043993D01*
X22551260Y-30043993D01*
X22547462Y-30040936D01*
X22543249Y-30038506D01*
X22543243Y-30038502D01*
X22528125Y-30029783D01*
X22522546Y-30026369D01*
X22482190Y-30000212D01*
X22482187Y-30000211D01*
X22474657Y-29995330D01*
X22466057Y-29992758D01*
X22460507Y-29990194D01*
X22450416Y-29984967D01*
X20439000Y-28824929D01*
X20417775Y-28812688D01*
X20417772Y-28812686D01*
X20417771Y-28812685D01*
X19430240Y-28243149D01*
X19381223Y-28191789D01*
X19367754Y-28122082D01*
X19394110Y-28056158D01*
X19451923Y-28014949D01*
X19493189Y-28008000D01*
X131473382Y-28008000D01*
X131541503Y-28028002D01*
G37*
%TD.AperFunction*%
%TA.AperFunction,Conductor*%
G36*
X90550587Y-31304001D02*
G01*
X90597080Y-31357657D01*
X90607184Y-31427931D01*
X90602059Y-31449666D01*
X90597402Y-31463707D01*
X90594534Y-31477085D01*
X90584867Y-31571438D01*
X90584539Y-31577855D01*
X90584539Y-31690385D01*
X90589014Y-31705624D01*
X90590404Y-31706829D01*
X90598087Y-31708500D01*
X91945539Y-31708500D01*
X92013660Y-31728502D01*
X92060153Y-31782158D01*
X92071539Y-31834500D01*
X92071539Y-32090500D01*
X92051537Y-32158621D01*
X91997881Y-32205114D01*
X91945539Y-32216500D01*
X90602655Y-32216500D01*
X90587416Y-32220975D01*
X90586211Y-32222365D01*
X90584540Y-32230048D01*
X90584540Y-32347095D01*
X90584877Y-32353607D01*
X90585644Y-32361002D01*
X90572776Y-32430822D01*
X90524203Y-32482602D01*
X90460316Y-32500000D01*
X88232231Y-32500000D01*
X88164110Y-32479998D01*
X88117617Y-32426342D01*
X88107513Y-32356068D01*
X88137007Y-32291488D01*
X88156660Y-32273179D01*
X88169893Y-32263261D01*
X88257247Y-32146705D01*
X88308377Y-32010316D01*
X88315132Y-31948134D01*
X88315132Y-31409999D01*
X88335134Y-31341878D01*
X88388790Y-31295385D01*
X88441132Y-31283999D01*
X90482466Y-31283999D01*
X90550587Y-31304001D01*
G37*
%TD.AperFunction*%
%TA.AperFunction,Conductor*%
G36*
X76375002Y-31578502D02*
G01*
X76421495Y-31632158D01*
X76432881Y-31684500D01*
X76432881Y-31690385D01*
X76437356Y-31705624D01*
X76438746Y-31706829D01*
X76446429Y-31708500D01*
X77793881Y-31708500D01*
X77862002Y-31728502D01*
X77908495Y-31782158D01*
X77919881Y-31834500D01*
X77919881Y-32090500D01*
X77899879Y-32158621D01*
X77846223Y-32205114D01*
X77793881Y-32216500D01*
X76450997Y-32216500D01*
X76435758Y-32220975D01*
X76434553Y-32222365D01*
X76432882Y-32230048D01*
X76432882Y-32347095D01*
X76433219Y-32353607D01*
X76433986Y-32361002D01*
X76421118Y-32430822D01*
X76372545Y-32482602D01*
X76308658Y-32500000D01*
X74080573Y-32500000D01*
X74012452Y-32479998D01*
X73965959Y-32426342D01*
X73955855Y-32356068D01*
X73985349Y-32291488D01*
X74005002Y-32273179D01*
X74018235Y-32263261D01*
X74105589Y-32146705D01*
X74156719Y-32010316D01*
X74163474Y-31948134D01*
X74163474Y-31684500D01*
X74183476Y-31616379D01*
X74237132Y-31569886D01*
X74289474Y-31558500D01*
X76306881Y-31558500D01*
X76375002Y-31578502D01*
G37*
%TD.AperFunction*%
%TA.AperFunction,Conductor*%
G36*
X62230978Y-31628502D02*
G01*
X62277471Y-31682158D01*
X62283753Y-31699001D01*
X62285698Y-31705624D01*
X62287088Y-31706829D01*
X62294771Y-31708500D01*
X63642223Y-31708500D01*
X63710344Y-31728502D01*
X63756837Y-31782158D01*
X63768223Y-31834500D01*
X63768223Y-32090500D01*
X63748221Y-32158621D01*
X63694565Y-32205114D01*
X63642223Y-32216500D01*
X62299339Y-32216500D01*
X62284100Y-32220975D01*
X62282895Y-32222365D01*
X62281224Y-32230048D01*
X62281224Y-32347095D01*
X62281561Y-32353607D01*
X62282328Y-32361002D01*
X62269460Y-32430822D01*
X62220887Y-32482602D01*
X62157000Y-32500000D01*
X59928915Y-32500000D01*
X59860794Y-32479998D01*
X59814301Y-32426342D01*
X59804197Y-32356068D01*
X59833691Y-32291488D01*
X59853344Y-32273179D01*
X59866577Y-32263261D01*
X59953931Y-32146705D01*
X60005061Y-32010316D01*
X60011816Y-31948134D01*
X60011816Y-31734500D01*
X60031818Y-31666379D01*
X60085474Y-31619886D01*
X60137816Y-31608500D01*
X62162857Y-31608500D01*
X62230978Y-31628502D01*
G37*
%TD.AperFunction*%
%TA.AperFunction,Conductor*%
G36*
X53652239Y-30128991D02*
G01*
X53673213Y-30145894D01*
X53704224Y-30176905D01*
X53738250Y-30239217D01*
X53733185Y-30310032D01*
X53690638Y-30366868D01*
X53624118Y-30391679D01*
X53615129Y-30392000D01*
X53058647Y-30392001D01*
X53051826Y-30392371D01*
X53000964Y-30397895D01*
X52985712Y-30401521D01*
X52865262Y-30446676D01*
X52849667Y-30455214D01*
X52747592Y-30531715D01*
X52735031Y-30544276D01*
X52658530Y-30646351D01*
X52649992Y-30661946D01*
X52604838Y-30782394D01*
X52601211Y-30797649D01*
X52595685Y-30848514D01*
X52595316Y-30855328D01*
X52595316Y-31071774D01*
X52575314Y-31139895D01*
X52521658Y-31186388D01*
X52451384Y-31196492D01*
X52386804Y-31166998D01*
X52363643Y-31140398D01*
X52155747Y-30820265D01*
X52151877Y-30814939D01*
X51958522Y-30576165D01*
X51946267Y-30567700D01*
X51935176Y-30574034D01*
X50009210Y-32500000D01*
X49290790Y-32500000D01*
X51575103Y-30215687D01*
X51597538Y-30174602D01*
X51647741Y-30124400D01*
X51708124Y-30108989D01*
X53584118Y-30108989D01*
X53652239Y-30128991D01*
G37*
%TD.AperFunction*%
%TA.AperFunction,Conductor*%
G36*
X35018062Y-29978982D02*
G01*
X35064555Y-30032638D01*
X35074659Y-30102912D01*
X35070274Y-30122344D01*
X35045466Y-30202240D01*
X35043183Y-30212624D01*
X35041139Y-30228043D01*
X35043335Y-30242207D01*
X35056522Y-30246000D01*
X36628000Y-30246000D01*
X36696121Y-30266002D01*
X36742614Y-30319658D01*
X36754000Y-30372000D01*
X36754000Y-30628000D01*
X36733998Y-30696121D01*
X36680342Y-30742614D01*
X36628000Y-30754000D01*
X35058808Y-30754000D01*
X35045277Y-30757973D01*
X35043752Y-30768580D01*
X35068477Y-30886421D01*
X35071537Y-30896617D01*
X35152263Y-31101029D01*
X35156994Y-31110561D01*
X35271016Y-31298462D01*
X35277280Y-31307052D01*
X35421327Y-31473052D01*
X35428958Y-31480472D01*
X35598911Y-31619826D01*
X35607674Y-31625848D01*
X35634711Y-31641238D01*
X35684018Y-31692320D01*
X35697880Y-31761951D01*
X35671897Y-31828022D01*
X35642747Y-31855261D01*
X35630077Y-31863791D01*
X35520681Y-31937441D01*
X35516824Y-31941120D01*
X35516822Y-31941122D01*
X35509472Y-31948134D01*
X35353865Y-32096576D01*
X35216246Y-32281542D01*
X35213830Y-32286293D01*
X35213828Y-32286297D01*
X35140204Y-32431105D01*
X35091501Y-32482763D01*
X35027887Y-32500000D01*
X34857238Y-32500000D01*
X34789117Y-32479998D01*
X34742624Y-32426342D01*
X34731894Y-32361158D01*
X34732672Y-32353562D01*
X34733000Y-32347146D01*
X34733000Y-32234615D01*
X34728525Y-32219376D01*
X34727135Y-32218171D01*
X34719452Y-32216500D01*
X32285116Y-32216500D01*
X32269877Y-32220975D01*
X32268672Y-32222365D01*
X32267001Y-32230048D01*
X32267001Y-32347095D01*
X32267338Y-32353607D01*
X32268105Y-32361002D01*
X32255237Y-32430822D01*
X32206664Y-32482602D01*
X32142777Y-32500000D01*
X31625599Y-32500000D01*
X31557478Y-32479998D01*
X31510985Y-32426342D01*
X31500881Y-32356068D01*
X31530375Y-32291488D01*
X31550028Y-32273179D01*
X31563261Y-32263261D01*
X31650615Y-32146705D01*
X31701745Y-32010316D01*
X31708500Y-31948134D01*
X31708500Y-31690385D01*
X32267000Y-31690385D01*
X32271475Y-31705624D01*
X32272865Y-31706829D01*
X32280548Y-31708500D01*
X33227885Y-31708500D01*
X33243124Y-31704025D01*
X33244329Y-31702635D01*
X33246000Y-31694952D01*
X33246000Y-31690385D01*
X33754000Y-31690385D01*
X33758475Y-31705624D01*
X33759865Y-31706829D01*
X33767548Y-31708500D01*
X34714884Y-31708500D01*
X34730123Y-31704025D01*
X34731328Y-31702635D01*
X34732999Y-31694952D01*
X34732999Y-31577905D01*
X34732662Y-31571386D01*
X34722743Y-31475794D01*
X34719851Y-31462400D01*
X34668412Y-31308216D01*
X34662239Y-31295038D01*
X34576937Y-31157193D01*
X34567901Y-31145792D01*
X34453171Y-31031261D01*
X34441760Y-31022249D01*
X34303757Y-30937184D01*
X34290576Y-30931037D01*
X34136290Y-30879862D01*
X34122914Y-30876995D01*
X34028562Y-30867328D01*
X34022145Y-30867000D01*
X33772115Y-30867000D01*
X33756876Y-30871475D01*
X33755671Y-30872865D01*
X33754000Y-30880548D01*
X33754000Y-31690385D01*
X33246000Y-31690385D01*
X33246000Y-30885116D01*
X33241525Y-30869877D01*
X33240135Y-30868672D01*
X33232452Y-30867001D01*
X32977905Y-30867001D01*
X32971386Y-30867338D01*
X32875794Y-30877257D01*
X32862400Y-30880149D01*
X32708216Y-30931588D01*
X32695038Y-30937761D01*
X32557193Y-31023063D01*
X32545792Y-31032099D01*
X32431261Y-31146829D01*
X32422249Y-31158240D01*
X32337184Y-31296243D01*
X32331037Y-31309424D01*
X32279862Y-31463710D01*
X32276995Y-31477085D01*
X32267328Y-31571438D01*
X32267000Y-31577855D01*
X32267000Y-31690385D01*
X31708500Y-31690385D01*
X31708500Y-31266371D01*
X31728502Y-31198250D01*
X31745405Y-31177276D01*
X32926796Y-29995885D01*
X32989108Y-29961859D01*
X33015891Y-29958980D01*
X34949941Y-29958980D01*
X35018062Y-29978982D01*
G37*
%TD.AperFunction*%
%TA.AperFunction,Conductor*%
G36*
X164574932Y-28028002D02*
G01*
X164621425Y-28081658D01*
X164631529Y-28151932D01*
X164602035Y-28216512D01*
X164569761Y-28243148D01*
X163584914Y-28811136D01*
X163584913Y-28811137D01*
X163584910Y-28811139D01*
X162988921Y-29154862D01*
X161549591Y-29984962D01*
X161548441Y-29985625D01*
X161538910Y-29990488D01*
X161531050Y-29992735D01*
X161523462Y-29997522D01*
X161523463Y-29997522D01*
X161479295Y-30025389D01*
X161475012Y-30027973D01*
X161459107Y-30037146D01*
X161459104Y-30037148D01*
X161455222Y-30039387D01*
X161451695Y-30042155D01*
X161449365Y-30043729D01*
X161442012Y-30048913D01*
X161407984Y-30070383D01*
X161402044Y-30077109D01*
X161402039Y-30077113D01*
X161398113Y-30081559D01*
X161381463Y-30097269D01*
X161376802Y-30100927D01*
X161376800Y-30100930D01*
X161369737Y-30106472D01*
X161346322Y-30139206D01*
X161338295Y-30149292D01*
X161311659Y-30179451D01*
X161307844Y-30187577D01*
X161307843Y-30187578D01*
X161305328Y-30192936D01*
X161293753Y-30212695D01*
X161292717Y-30214144D01*
X161285077Y-30224824D01*
X161277180Y-30247405D01*
X161271795Y-30262802D01*
X161266915Y-30274753D01*
X161249816Y-30311171D01*
X161248435Y-30320041D01*
X161248434Y-30320044D01*
X161247523Y-30325897D01*
X161241958Y-30348113D01*
X161240000Y-30353710D01*
X161239999Y-30353714D01*
X161237038Y-30362181D01*
X161235076Y-30399920D01*
X161234949Y-30402353D01*
X161233619Y-30415194D01*
X161232615Y-30421646D01*
X161232615Y-30443971D01*
X161232445Y-30450514D01*
X161229482Y-30507499D01*
X161231551Y-30516235D01*
X161232102Y-30522323D01*
X161232615Y-30533684D01*
X161232615Y-32374000D01*
X161212613Y-32442121D01*
X161158957Y-32488614D01*
X161106615Y-32500000D01*
X158990521Y-32500000D01*
X158922400Y-32479998D01*
X158875907Y-32426342D01*
X158865803Y-32356068D01*
X158895297Y-32291488D01*
X158914950Y-32273179D01*
X158928183Y-32263261D01*
X159015537Y-32146705D01*
X159066667Y-32010316D01*
X159073422Y-31948134D01*
X159073422Y-30851866D01*
X159066667Y-30789684D01*
X159015537Y-30653295D01*
X158928183Y-30536739D01*
X158896690Y-30513136D01*
X158818809Y-30454767D01*
X158818806Y-30454765D01*
X158811627Y-30449385D01*
X158787821Y-30440461D01*
X158731057Y-30397821D01*
X158706740Y-30335649D01*
X158706681Y-30335082D01*
X158696481Y-30238035D01*
X158694232Y-30216637D01*
X158694232Y-30216635D01*
X158693542Y-30210074D01*
X158634527Y-30028446D01*
X158618069Y-29999939D01*
X158579929Y-29933880D01*
X158539040Y-29863058D01*
X158524029Y-29846386D01*
X158415675Y-29726047D01*
X158415674Y-29726046D01*
X158411253Y-29721136D01*
X158256752Y-29608884D01*
X158250724Y-29606200D01*
X158250722Y-29606199D01*
X158088319Y-29533893D01*
X158088318Y-29533893D01*
X158082288Y-29531208D01*
X157975889Y-29508592D01*
X157901944Y-29492874D01*
X157901939Y-29492874D01*
X157895487Y-29491502D01*
X157704513Y-29491502D01*
X157698061Y-29492874D01*
X157698056Y-29492874D01*
X157624111Y-29508592D01*
X157517712Y-29531208D01*
X157511682Y-29533893D01*
X157511681Y-29533893D01*
X157349278Y-29606199D01*
X157349276Y-29606200D01*
X157343248Y-29608884D01*
X157188747Y-29721136D01*
X157184326Y-29726046D01*
X157184325Y-29726047D01*
X157075972Y-29846386D01*
X157060960Y-29863058D01*
X157020071Y-29933880D01*
X156981932Y-29999939D01*
X156965473Y-30028446D01*
X156906458Y-30210074D01*
X156905768Y-30216635D01*
X156905768Y-30216637D01*
X156900775Y-30264144D01*
X156892284Y-30344939D01*
X156891896Y-30348626D01*
X156864883Y-30414283D01*
X156827092Y-30445977D01*
X156826623Y-30446234D01*
X156818217Y-30449385D01*
X156701661Y-30536739D01*
X156614307Y-30653295D01*
X156563177Y-30789684D01*
X156556422Y-30851866D01*
X156556422Y-31948134D01*
X156563177Y-32010316D01*
X156614307Y-32146705D01*
X156701661Y-32263261D01*
X156714890Y-32273176D01*
X156757403Y-32330033D01*
X156762429Y-32400851D01*
X156728369Y-32463145D01*
X156666038Y-32497135D01*
X156639323Y-32500000D01*
X155029309Y-32500000D01*
X154961188Y-32479998D01*
X154947735Y-32470030D01*
X154918219Y-32444954D01*
X154910716Y-32438035D01*
X154905021Y-32432340D01*
X154897440Y-32426342D01*
X154882749Y-32414719D01*
X154879345Y-32411928D01*
X154829297Y-32369409D01*
X154829295Y-32369408D01*
X154823715Y-32364667D01*
X154817199Y-32361339D01*
X154812150Y-32357972D01*
X154807021Y-32354805D01*
X154801284Y-32350266D01*
X154735125Y-32319345D01*
X154731225Y-32317439D01*
X154666192Y-32284231D01*
X154659084Y-32282492D01*
X154653441Y-32280393D01*
X154647678Y-32278476D01*
X154641050Y-32275378D01*
X154569583Y-32260513D01*
X154565299Y-32259543D01*
X154549692Y-32255724D01*
X154494390Y-32242192D01*
X154488788Y-32241844D01*
X154488785Y-32241844D01*
X154483236Y-32241500D01*
X154483238Y-32241464D01*
X154479245Y-32241225D01*
X154475053Y-32240851D01*
X154467885Y-32239360D01*
X154401675Y-32241151D01*
X154390479Y-32241454D01*
X154387072Y-32241500D01*
X154261264Y-32241500D01*
X154193143Y-32221498D01*
X154146650Y-32167842D01*
X154136546Y-32097568D01*
X154143282Y-32071270D01*
X154163400Y-32017605D01*
X154167027Y-32002351D01*
X154172553Y-31951486D01*
X154172922Y-31944672D01*
X154172922Y-31672115D01*
X154168447Y-31656876D01*
X154167057Y-31655671D01*
X154159374Y-31654000D01*
X152786922Y-31654000D01*
X152718801Y-31633998D01*
X152672308Y-31580342D01*
X152660922Y-31528000D01*
X152660922Y-31127885D01*
X153168922Y-31127885D01*
X153173397Y-31143124D01*
X153174787Y-31144329D01*
X153182470Y-31146000D01*
X154154806Y-31146000D01*
X154170045Y-31141525D01*
X154171250Y-31140135D01*
X154172921Y-31132452D01*
X154172921Y-30855331D01*
X154172551Y-30848510D01*
X154167027Y-30797648D01*
X154163401Y-30782396D01*
X154118246Y-30661946D01*
X154109708Y-30646351D01*
X154033207Y-30544276D01*
X154020646Y-30531715D01*
X153918571Y-30455214D01*
X153902976Y-30446676D01*
X153782528Y-30401522D01*
X153767273Y-30397895D01*
X153716408Y-30392369D01*
X153709594Y-30392000D01*
X153187037Y-30392000D01*
X153171798Y-30396475D01*
X153170593Y-30397865D01*
X153168922Y-30405548D01*
X153168922Y-31127885D01*
X152660922Y-31127885D01*
X152660922Y-30410116D01*
X152656447Y-30394877D01*
X152655057Y-30393672D01*
X152647374Y-30392001D01*
X152208999Y-30392001D01*
X152140878Y-30371999D01*
X152094385Y-30318343D01*
X152082999Y-30266001D01*
X152082999Y-29852905D01*
X152082662Y-29846386D01*
X152072743Y-29750794D01*
X152069851Y-29737400D01*
X152018412Y-29583216D01*
X152012239Y-29570038D01*
X151926937Y-29432193D01*
X151917901Y-29420792D01*
X151803171Y-29306261D01*
X151791760Y-29297249D01*
X151653757Y-29212184D01*
X151640576Y-29206037D01*
X151486290Y-29154862D01*
X151472914Y-29151995D01*
X151378562Y-29142328D01*
X151372145Y-29142000D01*
X150872115Y-29142000D01*
X150856876Y-29146475D01*
X150855671Y-29147865D01*
X150854000Y-29155548D01*
X150854000Y-30628000D01*
X150833998Y-30696121D01*
X150780342Y-30742614D01*
X150728000Y-30754000D01*
X149135116Y-30754000D01*
X149119877Y-30758475D01*
X149118672Y-30759865D01*
X149116125Y-30771575D01*
X149082101Y-30833888D01*
X149019789Y-30867914D01*
X148980162Y-30870138D01*
X148952733Y-30867328D01*
X148946316Y-30867000D01*
X148696286Y-30867000D01*
X148681047Y-30871475D01*
X148679842Y-30872865D01*
X148678171Y-30880548D01*
X148678171Y-32090500D01*
X148658169Y-32158621D01*
X148604513Y-32205114D01*
X148552171Y-32216500D01*
X147209287Y-32216500D01*
X147194048Y-32220975D01*
X147192843Y-32222365D01*
X147191172Y-32230048D01*
X147191172Y-32347095D01*
X147191509Y-32353607D01*
X147192276Y-32361002D01*
X147179408Y-32430822D01*
X147130835Y-32482602D01*
X147066948Y-32500000D01*
X144838863Y-32500000D01*
X144770742Y-32479998D01*
X144724249Y-32426342D01*
X144714145Y-32356068D01*
X144743639Y-32291488D01*
X144763292Y-32273179D01*
X144776525Y-32263261D01*
X144863879Y-32146705D01*
X144915009Y-32010316D01*
X144921764Y-31948134D01*
X144921764Y-31690385D01*
X147191171Y-31690385D01*
X147195646Y-31705624D01*
X147197036Y-31706829D01*
X147204719Y-31708500D01*
X148152056Y-31708500D01*
X148167295Y-31704025D01*
X148168500Y-31702635D01*
X148170171Y-31694952D01*
X148170171Y-30885116D01*
X148165696Y-30869877D01*
X148164306Y-30868672D01*
X148156623Y-30867001D01*
X147902076Y-30867001D01*
X147895557Y-30867338D01*
X147799965Y-30877257D01*
X147786571Y-30880149D01*
X147632387Y-30931588D01*
X147619209Y-30937761D01*
X147481364Y-31023063D01*
X147469963Y-31032099D01*
X147355432Y-31146829D01*
X147346420Y-31158240D01*
X147261355Y-31296243D01*
X147255208Y-31309424D01*
X147204033Y-31463710D01*
X147201166Y-31477085D01*
X147191499Y-31571438D01*
X147191171Y-31577855D01*
X147191171Y-31690385D01*
X144921764Y-31690385D01*
X144921764Y-30851866D01*
X144915009Y-30789684D01*
X144863879Y-30653295D01*
X144776525Y-30536739D01*
X144659969Y-30449385D01*
X144523580Y-30398255D01*
X144461398Y-30391500D01*
X142865130Y-30391500D01*
X142802948Y-30398255D01*
X142666559Y-30449385D01*
X142550003Y-30536739D01*
X142462649Y-30653295D01*
X142411519Y-30789684D01*
X142404764Y-30851866D01*
X142404764Y-31948134D01*
X142411519Y-32010316D01*
X142462649Y-32146705D01*
X142550003Y-32263261D01*
X142563232Y-32273176D01*
X142605745Y-32330033D01*
X142610771Y-32400851D01*
X142576711Y-32463145D01*
X142514380Y-32497135D01*
X142487665Y-32500000D01*
X141034500Y-32500000D01*
X140966379Y-32479998D01*
X140919886Y-32426342D01*
X140908500Y-32374000D01*
X140908500Y-30704777D01*
X140909933Y-30685828D01*
X140912097Y-30671600D01*
X140913198Y-30664365D01*
X140908915Y-30611704D01*
X140908500Y-30601491D01*
X140908500Y-30593421D01*
X140908078Y-30589801D01*
X140908077Y-30589783D01*
X140905208Y-30565175D01*
X140904775Y-30560800D01*
X140904620Y-30558886D01*
X140902461Y-30532354D01*
X140899454Y-30495375D01*
X140899453Y-30495372D01*
X140898860Y-30488077D01*
X140896604Y-30481113D01*
X140895413Y-30475154D01*
X140894029Y-30469299D01*
X140893182Y-30462033D01*
X140868265Y-30393387D01*
X140866848Y-30389259D01*
X140846607Y-30326778D01*
X140846606Y-30326776D01*
X140844351Y-30319815D01*
X140840555Y-30313560D01*
X140838049Y-30308086D01*
X140835330Y-30302656D01*
X140832833Y-30295777D01*
X140822529Y-30280060D01*
X140813311Y-30266001D01*
X140792809Y-30234730D01*
X140790472Y-30231026D01*
X140789167Y-30228874D01*
X140788567Y-30227885D01*
X149117000Y-30227885D01*
X149121475Y-30243124D01*
X149122865Y-30244329D01*
X149130548Y-30246000D01*
X150327885Y-30246000D01*
X150343124Y-30241525D01*
X150344329Y-30240135D01*
X150346000Y-30232452D01*
X150346000Y-29160116D01*
X150341525Y-29144877D01*
X150340135Y-29143672D01*
X150332452Y-29142001D01*
X149827905Y-29142001D01*
X149821386Y-29142338D01*
X149725794Y-29152257D01*
X149712400Y-29155149D01*
X149558216Y-29206588D01*
X149545038Y-29212761D01*
X149407193Y-29298063D01*
X149395792Y-29307099D01*
X149281261Y-29421829D01*
X149272249Y-29433240D01*
X149187184Y-29571243D01*
X149181037Y-29584424D01*
X149129862Y-29738710D01*
X149126995Y-29752086D01*
X149117328Y-29846438D01*
X149117000Y-29852855D01*
X149117000Y-30227885D01*
X140788567Y-30227885D01*
X140776850Y-30208577D01*
X140755509Y-30173407D01*
X140755505Y-30173402D01*
X140752595Y-30168606D01*
X140747533Y-30162874D01*
X140745197Y-30160230D01*
X140745223Y-30160207D01*
X140742574Y-30157217D01*
X140739866Y-30153978D01*
X140735856Y-30147862D01*
X140730549Y-30142835D01*
X140730546Y-30142831D01*
X140679617Y-30094586D01*
X140677175Y-30092208D01*
X139096056Y-28511089D01*
X139083670Y-28496677D01*
X139075137Y-28485082D01*
X139075132Y-28485077D01*
X139070794Y-28479182D01*
X139065216Y-28474443D01*
X139065213Y-28474440D01*
X139030518Y-28444965D01*
X139023002Y-28438035D01*
X139017307Y-28432340D01*
X139001022Y-28419456D01*
X138995035Y-28414719D01*
X138991631Y-28411928D01*
X138941583Y-28369409D01*
X138941581Y-28369408D01*
X138936001Y-28364667D01*
X138929485Y-28361339D01*
X138924436Y-28357972D01*
X138919307Y-28354805D01*
X138913570Y-28350266D01*
X138847411Y-28319345D01*
X138843511Y-28317439D01*
X138778478Y-28284231D01*
X138771370Y-28282492D01*
X138765727Y-28280393D01*
X138759964Y-28278476D01*
X138753336Y-28275378D01*
X138681869Y-28260513D01*
X138677602Y-28259547D01*
X138664694Y-28256389D01*
X138603281Y-28220768D01*
X138570874Y-28157599D01*
X138577763Y-28086938D01*
X138621761Y-28031218D01*
X138694644Y-28008000D01*
X164506811Y-28008000D01*
X164574932Y-28028002D01*
G37*
%TD.AperFunction*%
%TA.AperFunction,Conductor*%
G36*
X138214036Y-29778502D02*
G01*
X138235010Y-29795405D01*
X138616510Y-30176905D01*
X138650536Y-30239217D01*
X138645471Y-30310032D01*
X138602924Y-30366868D01*
X138536404Y-30391679D01*
X138527415Y-30392000D01*
X137968595Y-30392001D01*
X137961774Y-30392371D01*
X137910912Y-30397895D01*
X137895660Y-30401521D01*
X137775210Y-30446676D01*
X137759615Y-30455214D01*
X137657540Y-30531715D01*
X137644979Y-30544276D01*
X137568478Y-30646351D01*
X137559940Y-30661946D01*
X137512012Y-30789793D01*
X137510770Y-30789327D01*
X137479609Y-30843878D01*
X137416654Y-30876700D01*
X137345949Y-30870276D01*
X137286568Y-30821712D01*
X137155747Y-30620265D01*
X137151877Y-30614939D01*
X136958522Y-30376165D01*
X136946267Y-30367700D01*
X136935176Y-30374034D01*
X134809210Y-32500000D01*
X134090790Y-32500000D01*
X136575100Y-30015690D01*
X136582241Y-30002614D01*
X136574784Y-29992247D01*
X136562649Y-29982420D01*
X136522297Y-29924005D01*
X136519933Y-29853048D01*
X136556306Y-29792076D01*
X136619869Y-29760449D01*
X136641944Y-29758500D01*
X138145915Y-29758500D01*
X138214036Y-29778502D01*
G37*
%TD.AperFunction*%
%TA.AperFunction,Conductor*%
G36*
X47006244Y-30513136D02*
G01*
X47051307Y-30542097D01*
X48213791Y-31704581D01*
X48247817Y-31766893D01*
X48242752Y-31837708D01*
X48213791Y-31882771D01*
X48032771Y-32063791D01*
X47970459Y-32097817D01*
X47899644Y-32092752D01*
X47854581Y-32063791D01*
X46692097Y-30901307D01*
X46658071Y-30838995D01*
X46663136Y-30768180D01*
X46692097Y-30723117D01*
X46873117Y-30542097D01*
X46935429Y-30508071D01*
X47006244Y-30513136D01*
G37*
%TD.AperFunction*%
%TA.AperFunction,Conductor*%
G36*
X132006244Y-30313136D02*
G01*
X132051307Y-30342097D01*
X133213791Y-31504581D01*
X133247817Y-31566893D01*
X133242752Y-31637708D01*
X133213791Y-31682771D01*
X133032771Y-31863791D01*
X132970459Y-31897817D01*
X132899644Y-31892752D01*
X132854581Y-31863791D01*
X131692097Y-30701307D01*
X131658071Y-30638995D01*
X131663136Y-30568180D01*
X131692097Y-30523117D01*
X131873117Y-30342097D01*
X131935429Y-30308071D01*
X132006244Y-30313136D01*
G37*
%TD.AperFunction*%
%TD*%
M02*
