%TF.GenerationSoftware,KiCad,Pcbnew,(6.0.0)*%
%TF.CreationDate,2022-09-21T13:56:40+02:00*%
%TF.ProjectId,Rainbow_Matchstick,5261696e-626f-4775-9f4d-617463687374,rev?*%
%TF.SameCoordinates,Original*%
%TF.FileFunction,Copper,L2,Bot*%
%TF.FilePolarity,Positive*%
%FSLAX46Y46*%
G04 Gerber Fmt 4.6, Leading zero omitted, Abs format (unit mm)*
G04 Created by KiCad (PCBNEW (6.0.0)) date 2022-09-21 13:56:40*
%MOMM*%
%LPD*%
G01*
G04 APERTURE LIST*
G04 Aperture macros list*
%AMRoundRect*
0 Rectangle with rounded corners*
0 $1 Rounding radius*
0 $2 $3 $4 $5 $6 $7 $8 $9 X,Y pos of 4 corners*
0 Add a 4 corners polygon primitive as box body*
4,1,4,$2,$3,$4,$5,$6,$7,$8,$9,$2,$3,0*
0 Add four circle primitives for the rounded corners*
1,1,$1+$1,$2,$3*
1,1,$1+$1,$4,$5*
1,1,$1+$1,$6,$7*
1,1,$1+$1,$8,$9*
0 Add four rect primitives between the rounded corners*
20,1,$1+$1,$2,$3,$4,$5,0*
20,1,$1+$1,$4,$5,$6,$7,0*
20,1,$1+$1,$6,$7,$8,$9,0*
20,1,$1+$1,$8,$9,$2,$3,0*%
G04 Aperture macros list end*
%TA.AperFunction,ComponentPad*%
%ADD10O,1.950000X1.700000*%
%TD*%
%TA.AperFunction,ComponentPad*%
%ADD11RoundRect,0.250000X-0.725000X0.600000X-0.725000X-0.600000X0.725000X-0.600000X0.725000X0.600000X0*%
%TD*%
%TA.AperFunction,ComponentPad*%
%ADD12C,0.800000*%
%TD*%
%TA.AperFunction,ComponentPad*%
%ADD13C,6.400000*%
%TD*%
%TA.AperFunction,ComponentPad*%
%ADD14R,1.700000X1.700000*%
%TD*%
%TA.AperFunction,SMDPad,CuDef*%
%ADD15C,1.700000*%
%TD*%
%TA.AperFunction,SMDPad,CuDef*%
%ADD16R,3.768750X1.700000*%
%TD*%
%TA.AperFunction,ComponentPad*%
%ADD17RoundRect,0.250000X0.725000X-0.600000X0.725000X0.600000X-0.725000X0.600000X-0.725000X-0.600000X0*%
%TD*%
%TA.AperFunction,ViaPad*%
%ADD18C,0.800000*%
%TD*%
%TA.AperFunction,Conductor*%
%ADD19C,1.000000*%
%TD*%
%TA.AperFunction,Conductor*%
%ADD20C,0.500000*%
%TD*%
G04 APERTURE END LIST*
D10*
%TO.P,J2,3,Pin_3*%
%TO.N,DOUT*%
X150600000Y-35500000D03*
%TO.P,J2,2,Pin_2*%
%TO.N,+5V*%
X150600000Y-33000000D03*
D11*
%TO.P,J2,1,Pin_1*%
%TO.N,GND*%
X150600000Y-30500000D03*
%TD*%
D12*
%TO.P,H2,1,1*%
%TO.N,GND*%
X131750000Y-32800000D03*
X132452944Y-34497056D03*
X134150000Y-35200000D03*
X135847056Y-34497056D03*
X136550000Y-32800000D03*
X132452944Y-31102944D03*
X134150000Y-30400000D03*
X135847056Y-31102944D03*
D13*
X134150000Y-32800000D03*
%TD*%
D12*
%TO.P,H1,1,1*%
%TO.N,GND*%
X49150000Y-35400000D03*
X47452944Y-34697056D03*
X50847056Y-31302944D03*
X49150000Y-30600000D03*
X51550000Y-33000000D03*
X50847056Y-34697056D03*
D13*
X49150000Y-33000000D03*
D12*
X47452944Y-31302944D03*
X46750000Y-33000000D03*
%TD*%
D14*
%TO.P,J3,1,Pin_1*%
%TO.N,DOUT*%
X23400000Y-33000000D03*
D15*
X19800000Y-33000000D03*
D16*
X21700000Y-33000000D03*
%TD*%
D17*
%TO.P,J1,1,Pin_1*%
%TO.N,DIN*%
X36500000Y-35500000D03*
D10*
%TO.P,J1,2,Pin_2*%
%TO.N,+5V*%
X36500000Y-33000000D03*
%TO.P,J1,3,Pin_3*%
%TO.N,GND*%
X36500000Y-30500000D03*
%TD*%
D18*
%TO.N,+5V*%
X147500000Y-36700000D03*
X148500000Y-36700000D03*
%TO.N,GND*%
X143300000Y-29600000D03*
X141500000Y-29600000D03*
X129000000Y-29600000D03*
X127000000Y-29600000D03*
%TO.N,Net-(D10-Pad4)*%
X154200000Y-34600000D03*
X143700000Y-32600000D03*
%TO.N,DOUT*%
X157800000Y-30400002D03*
%TO.N,GND*%
X117600000Y-32200000D03*
X75200000Y-32249500D03*
X34800000Y-32200000D03*
X98625000Y-30850000D03*
X112500000Y-31500000D03*
X53500000Y-33000000D03*
X155600000Y-31500000D03*
X141500000Y-31500000D03*
X61000000Y-32200000D03*
X127000000Y-31500000D03*
X42000000Y-31500000D03*
X89275000Y-31375000D03*
X146200000Y-31800000D03*
X70000000Y-31500000D03*
X138450000Y-32800000D03*
X32200000Y-32200000D03*
X103400000Y-32050000D03*
X107270505Y-29474500D03*
X84500000Y-30950000D03*
X28000000Y-31500000D03*
%TO.N,+5V*%
X40400000Y-37000000D03*
X41600000Y-37000000D03*
X39200000Y-37000000D03*
%TD*%
D19*
%TO.N,+5V*%
X147500000Y-34900000D02*
X147500000Y-36700000D01*
X149400000Y-33000000D02*
X147500000Y-34900000D01*
X150600000Y-33000000D02*
X149400000Y-33000000D01*
X150600000Y-33000000D02*
X148500000Y-35100000D01*
X148500000Y-35100000D02*
X148500000Y-36700000D01*
D20*
%TO.N,DOUT*%
X155599998Y-28200000D02*
X157800000Y-30400002D01*
X28000000Y-28200000D02*
X155599998Y-28200000D01*
X23200000Y-33000000D02*
X28000000Y-28200000D01*
%TO.N,Net-(D10-Pad4)*%
X143700000Y-32300000D02*
X143700000Y-32600000D01*
X151614750Y-29200480D02*
X146799520Y-29200480D01*
X146799520Y-29200480D02*
X143700000Y-32300000D01*
X154200000Y-31785730D02*
X151614750Y-29200480D01*
X154200000Y-34600000D02*
X154200000Y-31785730D01*
%TO.N,DOUT*%
X157800000Y-30400000D02*
X157800000Y-33000000D01*
X157800000Y-33000000D02*
X155300000Y-35500000D01*
X155300000Y-35500000D02*
X150700000Y-35500000D01*
D19*
%TO.N,+5V*%
X37600000Y-33000000D02*
X36500000Y-33000000D01*
X39200000Y-35532176D02*
X39200000Y-35800000D01*
X39200000Y-35532176D02*
X40132176Y-35532176D01*
X40132176Y-35532176D02*
X41600000Y-37000000D01*
X41600000Y-37000000D02*
X37600000Y-33000000D01*
X36667824Y-33000000D02*
X39200000Y-35532176D01*
X39200000Y-35532176D02*
X39200000Y-37000000D01*
X36500000Y-33000000D02*
X36667824Y-33000000D01*
X39200000Y-35800000D02*
X40400000Y-37000000D01*
%TD*%
%TA.AperFunction,Conductor*%
%TO.N,GND*%
G36*
X26883250Y-28028002D02*
G01*
X26929743Y-28081658D01*
X26939847Y-28151932D01*
X26910353Y-28216512D01*
X26904224Y-28223095D01*
X23522724Y-31604595D01*
X23460412Y-31638621D01*
X23433629Y-31641500D01*
X19814985Y-31641500D01*
X19813446Y-31641491D01*
X19710081Y-31640228D01*
X19710079Y-31640228D01*
X19704911Y-31640165D01*
X19484091Y-31673955D01*
X19271756Y-31743357D01*
X19267164Y-31745747D01*
X19267165Y-31745747D01*
X19146257Y-31808688D01*
X19073607Y-31846507D01*
X19069474Y-31849610D01*
X19069471Y-31849612D01*
X18913346Y-31966834D01*
X18894965Y-31980635D01*
X18871299Y-32005400D01*
X18756703Y-32125318D01*
X18740629Y-32142138D01*
X18737715Y-32146410D01*
X18737714Y-32146411D01*
X18684230Y-32224816D01*
X18614743Y-32326680D01*
X18583597Y-32393779D01*
X18537936Y-32492148D01*
X18520688Y-32529305D01*
X18460989Y-32744570D01*
X18437251Y-32966695D01*
X18437548Y-32971848D01*
X18437548Y-32971851D01*
X18449053Y-33171377D01*
X18450110Y-33189715D01*
X18451247Y-33194761D01*
X18451248Y-33194767D01*
X18473335Y-33292773D01*
X18499222Y-33407639D01*
X18583266Y-33614616D01*
X18699987Y-33805088D01*
X18846250Y-33973938D01*
X19018126Y-34116632D01*
X19211000Y-34229338D01*
X19215825Y-34231180D01*
X19215826Y-34231181D01*
X19232997Y-34237738D01*
X19419692Y-34309030D01*
X19424760Y-34310061D01*
X19424763Y-34310062D01*
X19512406Y-34327893D01*
X19638597Y-34353567D01*
X19643772Y-34353757D01*
X19643774Y-34353757D01*
X19764620Y-34358188D01*
X19764601Y-34358697D01*
X19766316Y-34358372D01*
X19767491Y-34358500D01*
X19770892Y-34358500D01*
X19770929Y-34358502D01*
X19775443Y-34358585D01*
X19856673Y-34361564D01*
X19856677Y-34361564D01*
X19861837Y-34361753D01*
X19866957Y-34361097D01*
X19866959Y-34361097D01*
X19879261Y-34359521D01*
X19895271Y-34358500D01*
X24298134Y-34358500D01*
X24360316Y-34351745D01*
X24496705Y-34300615D01*
X24613261Y-34213261D01*
X24700615Y-34096705D01*
X24751745Y-33960316D01*
X24758500Y-33898134D01*
X24758500Y-32566371D01*
X24778502Y-32498250D01*
X24795405Y-32477276D01*
X28277276Y-28995405D01*
X28339588Y-28961379D01*
X28366371Y-28958500D01*
X35921513Y-28958500D01*
X35989634Y-28978502D01*
X36036127Y-29032158D01*
X36046231Y-29102432D01*
X36016737Y-29167012D01*
X35953167Y-29206459D01*
X35927465Y-29213130D01*
X35917425Y-29216665D01*
X35717030Y-29306937D01*
X35707744Y-29312106D01*
X35525425Y-29434850D01*
X35517130Y-29441519D01*
X35358100Y-29593228D01*
X35351059Y-29601186D01*
X35219859Y-29777525D01*
X35214255Y-29786562D01*
X35114643Y-29982484D01*
X35110643Y-29992335D01*
X35045466Y-30202240D01*
X35043183Y-30212624D01*
X35041139Y-30228043D01*
X35043335Y-30242207D01*
X35056522Y-30246000D01*
X37941192Y-30246000D01*
X37954723Y-30242027D01*
X37956248Y-30231420D01*
X37950439Y-30203733D01*
X46717700Y-30203733D01*
X46724034Y-30214824D01*
X49137188Y-32627978D01*
X49151132Y-32635592D01*
X49152965Y-32635461D01*
X49159580Y-32631210D01*
X51575100Y-30215690D01*
X51582241Y-30202614D01*
X51574784Y-30192247D01*
X51335065Y-29998126D01*
X51329728Y-29994249D01*
X51009315Y-29786170D01*
X51003606Y-29782873D01*
X50663189Y-29609422D01*
X50657164Y-29606740D01*
X50300498Y-29469829D01*
X50294216Y-29467788D01*
X49925184Y-29368906D01*
X49918734Y-29367535D01*
X49541371Y-29307766D01*
X49534833Y-29307080D01*
X49153301Y-29287084D01*
X49146699Y-29287084D01*
X48765167Y-29307080D01*
X48758629Y-29307766D01*
X48381266Y-29367535D01*
X48374816Y-29368906D01*
X48005784Y-29467788D01*
X47999502Y-29469829D01*
X47642836Y-29606740D01*
X47636811Y-29609422D01*
X47296397Y-29782872D01*
X47290687Y-29786169D01*
X46970265Y-29994253D01*
X46964939Y-29998123D01*
X46726165Y-30191478D01*
X46717700Y-30203733D01*
X37950439Y-30203733D01*
X37931523Y-30113579D01*
X37928463Y-30103383D01*
X37847737Y-29898971D01*
X37843006Y-29889439D01*
X37728984Y-29701538D01*
X37722720Y-29692948D01*
X37578673Y-29526948D01*
X37571042Y-29519528D01*
X37401089Y-29380174D01*
X37392322Y-29374150D01*
X37201318Y-29265424D01*
X37191654Y-29260959D01*
X37031813Y-29202939D01*
X36974605Y-29160894D01*
X36949209Y-29094595D01*
X36963689Y-29025091D01*
X37013447Y-28974448D01*
X37074804Y-28958500D01*
X133202994Y-28958500D01*
X133271115Y-28978502D01*
X133317608Y-29032158D01*
X133327712Y-29102432D01*
X133298218Y-29167012D01*
X133235605Y-29206207D01*
X133005785Y-29267788D01*
X132999502Y-29269829D01*
X132642836Y-29406740D01*
X132636811Y-29409422D01*
X132296397Y-29582872D01*
X132290687Y-29586169D01*
X131970265Y-29794253D01*
X131964939Y-29798123D01*
X131726165Y-29991478D01*
X131717700Y-30003733D01*
X131724034Y-30014824D01*
X134137188Y-32427978D01*
X134151132Y-32435592D01*
X134152965Y-32435461D01*
X134159580Y-32431210D01*
X136575100Y-30015690D01*
X136582241Y-30002614D01*
X136574784Y-29992247D01*
X136335065Y-29798126D01*
X136329728Y-29794249D01*
X136009315Y-29586170D01*
X136003606Y-29582873D01*
X135663189Y-29409422D01*
X135657164Y-29406740D01*
X135300498Y-29269829D01*
X135294215Y-29267788D01*
X135064395Y-29206207D01*
X135003772Y-29169255D01*
X134972751Y-29105394D01*
X134981179Y-29034900D01*
X135026382Y-28980153D01*
X135097006Y-28958500D01*
X145664629Y-28958500D01*
X145732750Y-28978502D01*
X145779243Y-29032158D01*
X145789347Y-29102432D01*
X145759853Y-29167012D01*
X145753724Y-29173595D01*
X143211089Y-31716230D01*
X143196677Y-31728616D01*
X143185082Y-31737149D01*
X143185077Y-31737154D01*
X143179182Y-31741492D01*
X143174443Y-31747070D01*
X143174440Y-31747073D01*
X143144965Y-31781768D01*
X143138035Y-31789284D01*
X143132340Y-31794979D01*
X143130060Y-31797861D01*
X143114719Y-31817251D01*
X143111928Y-31820655D01*
X143084619Y-31852800D01*
X143064667Y-31876285D01*
X143061339Y-31882801D01*
X143057972Y-31887850D01*
X143054805Y-31892979D01*
X143050266Y-31898716D01*
X143019345Y-31964875D01*
X143017442Y-31968769D01*
X142998436Y-32005990D01*
X142987735Y-32026946D01*
X142969153Y-32053957D01*
X142960960Y-32063056D01*
X142957659Y-32068774D01*
X142957658Y-32068775D01*
X142872908Y-32215567D01*
X142865473Y-32228444D01*
X142806458Y-32410072D01*
X142805768Y-32416633D01*
X142805768Y-32416635D01*
X142787186Y-32593435D01*
X142786496Y-32600000D01*
X142787186Y-32606565D01*
X142802231Y-32749707D01*
X142806458Y-32789928D01*
X142865473Y-32971556D01*
X142960960Y-33136944D01*
X142965378Y-33141851D01*
X142965379Y-33141852D01*
X142992544Y-33172022D01*
X143088747Y-33278866D01*
X143243248Y-33391118D01*
X143249276Y-33393802D01*
X143249278Y-33393803D01*
X143411681Y-33466109D01*
X143417712Y-33468794D01*
X143483365Y-33482749D01*
X143598056Y-33507128D01*
X143598061Y-33507128D01*
X143604513Y-33508500D01*
X143795487Y-33508500D01*
X143801939Y-33507128D01*
X143801944Y-33507128D01*
X143916635Y-33482749D01*
X143982288Y-33468794D01*
X143988319Y-33466109D01*
X144150722Y-33393803D01*
X144150724Y-33393802D01*
X144156752Y-33391118D01*
X144311253Y-33278866D01*
X144407456Y-33172022D01*
X144434621Y-33141852D01*
X144434622Y-33141851D01*
X144439040Y-33136944D01*
X144534527Y-32971556D01*
X144593542Y-32789928D01*
X144597770Y-32749707D01*
X144612814Y-32606565D01*
X144613504Y-32600000D01*
X144606393Y-32532338D01*
X144619166Y-32462499D01*
X144642608Y-32430073D01*
X147076796Y-29995885D01*
X147139108Y-29961859D01*
X147165891Y-29958980D01*
X148991000Y-29958980D01*
X149059121Y-29978982D01*
X149105614Y-30032638D01*
X149117000Y-30084980D01*
X149117000Y-30227885D01*
X149121475Y-30243124D01*
X149122865Y-30244329D01*
X149130548Y-30246000D01*
X150728000Y-30246000D01*
X150796121Y-30266002D01*
X150842614Y-30319658D01*
X150854000Y-30372000D01*
X150854000Y-30628000D01*
X150833998Y-30696121D01*
X150780342Y-30742614D01*
X150728000Y-30754000D01*
X149135116Y-30754000D01*
X149119877Y-30758475D01*
X149118672Y-30759865D01*
X149117001Y-30767548D01*
X149117001Y-31147095D01*
X149117338Y-31153614D01*
X149127257Y-31249206D01*
X149130149Y-31262600D01*
X149181588Y-31416784D01*
X149187761Y-31429962D01*
X149273063Y-31567807D01*
X149282099Y-31579208D01*
X149396829Y-31693739D01*
X149408240Y-31702751D01*
X149491907Y-31754324D01*
X149539400Y-31807096D01*
X149550824Y-31877168D01*
X149522550Y-31942292D01*
X149463556Y-31981791D01*
X149422915Y-31985786D01*
X149422898Y-31987406D01*
X149416738Y-31987341D01*
X149410612Y-31986676D01*
X149384362Y-31988973D01*
X149360612Y-31991050D01*
X149355786Y-31991379D01*
X149353314Y-31991500D01*
X149350231Y-31991500D01*
X149338262Y-31992674D01*
X149307494Y-31995690D01*
X149306181Y-31995812D01*
X149261916Y-31999685D01*
X149213587Y-32003913D01*
X149208468Y-32005400D01*
X149203167Y-32005920D01*
X149114166Y-32032791D01*
X149113033Y-32033126D01*
X149029586Y-32057370D01*
X149029582Y-32057372D01*
X149023664Y-32059091D01*
X149018932Y-32061544D01*
X149013831Y-32063084D01*
X149008388Y-32065978D01*
X148931740Y-32106731D01*
X148930574Y-32107343D01*
X148895898Y-32125318D01*
X148848074Y-32150108D01*
X148843911Y-32153431D01*
X148839204Y-32155934D01*
X148834429Y-32159828D01*
X148834428Y-32159829D01*
X148767102Y-32214739D01*
X148766075Y-32215567D01*
X148729792Y-32244531D01*
X148729787Y-32244536D01*
X148727028Y-32246738D01*
X148724527Y-32249239D01*
X148723809Y-32249881D01*
X148719461Y-32253594D01*
X148685938Y-32280935D01*
X148682015Y-32285677D01*
X148682013Y-32285679D01*
X148656703Y-32316273D01*
X148648713Y-32325053D01*
X146830621Y-34143145D01*
X146820478Y-34152247D01*
X146790975Y-34175968D01*
X146787008Y-34180696D01*
X146758709Y-34214421D01*
X146755528Y-34218069D01*
X146753885Y-34219881D01*
X146751691Y-34222075D01*
X146724358Y-34255349D01*
X146723696Y-34256147D01*
X146663846Y-34327474D01*
X146661278Y-34332144D01*
X146657897Y-34336261D01*
X146637802Y-34373738D01*
X146614023Y-34418086D01*
X146613394Y-34419245D01*
X146571538Y-34495381D01*
X146571535Y-34495389D01*
X146568567Y-34500787D01*
X146566955Y-34505869D01*
X146564438Y-34510563D01*
X146537238Y-34599531D01*
X146536918Y-34600559D01*
X146508765Y-34689306D01*
X146508171Y-34694602D01*
X146506613Y-34699698D01*
X146498083Y-34783676D01*
X146497218Y-34792187D01*
X146497089Y-34793393D01*
X146491500Y-34843227D01*
X146491500Y-34846754D01*
X146491445Y-34847739D01*
X146490998Y-34853419D01*
X146486626Y-34896462D01*
X146487206Y-34902593D01*
X146490941Y-34942109D01*
X146491500Y-34953967D01*
X146491500Y-36749769D01*
X146491800Y-36752825D01*
X146491800Y-36752832D01*
X146495597Y-36791550D01*
X146505920Y-36896833D01*
X146563084Y-37086169D01*
X146655934Y-37260796D01*
X146726291Y-37347062D01*
X146777040Y-37409287D01*
X146777043Y-37409290D01*
X146780935Y-37414062D01*
X146785682Y-37417989D01*
X146785684Y-37417991D01*
X146928575Y-37536201D01*
X146928579Y-37536203D01*
X146933325Y-37540130D01*
X147107299Y-37634198D01*
X147296232Y-37692682D01*
X147302357Y-37693326D01*
X147302358Y-37693326D01*
X147486796Y-37712711D01*
X147486798Y-37712711D01*
X147492925Y-37713355D01*
X147575424Y-37705847D01*
X147683749Y-37695989D01*
X147683752Y-37695988D01*
X147689888Y-37695430D01*
X147695794Y-37693692D01*
X147695798Y-37693691D01*
X147873710Y-37641329D01*
X147873709Y-37641329D01*
X147879619Y-37639590D01*
X147941074Y-37607462D01*
X148010709Y-37593627D01*
X148059375Y-37608286D01*
X148107299Y-37634198D01*
X148296232Y-37692682D01*
X148302357Y-37693326D01*
X148302358Y-37693326D01*
X148486796Y-37712711D01*
X148486798Y-37712711D01*
X148492925Y-37713355D01*
X148575424Y-37705847D01*
X148683749Y-37695989D01*
X148683752Y-37695988D01*
X148689888Y-37695430D01*
X148695794Y-37693692D01*
X148695798Y-37693691D01*
X148800924Y-37662751D01*
X148879619Y-37639590D01*
X148885077Y-37636737D01*
X148885081Y-37636735D01*
X148975853Y-37589280D01*
X149054890Y-37547960D01*
X149209025Y-37424032D01*
X149336154Y-37272526D01*
X149339121Y-37267128D01*
X149339125Y-37267123D01*
X149428467Y-37104608D01*
X149431433Y-37099213D01*
X149433846Y-37091608D01*
X149489373Y-36916564D01*
X149489373Y-36916563D01*
X149491235Y-36910694D01*
X149508500Y-36756773D01*
X149508500Y-36729055D01*
X149528502Y-36660934D01*
X149582158Y-36614441D01*
X149652432Y-36604337D01*
X149702580Y-36623931D01*
X149702755Y-36623624D01*
X149707394Y-36626265D01*
X149707396Y-36626266D01*
X149841025Y-36702332D01*
X149903114Y-36737675D01*
X150119825Y-36816337D01*
X150125074Y-36817286D01*
X150125077Y-36817287D01*
X150342608Y-36856623D01*
X150342615Y-36856624D01*
X150346692Y-36857361D01*
X150363889Y-36858172D01*
X150369356Y-36858430D01*
X150369363Y-36858430D01*
X150370844Y-36858500D01*
X150782890Y-36858500D01*
X150849809Y-36852822D01*
X150949409Y-36844371D01*
X150949413Y-36844370D01*
X150954720Y-36843920D01*
X150959875Y-36842582D01*
X150959881Y-36842581D01*
X151172703Y-36787343D01*
X151172707Y-36787342D01*
X151177872Y-36786001D01*
X151182738Y-36783809D01*
X151182741Y-36783808D01*
X151383202Y-36693507D01*
X151388075Y-36691312D01*
X151579319Y-36562559D01*
X151591879Y-36550578D01*
X151704372Y-36443264D01*
X151746135Y-36403424D01*
X151816176Y-36309287D01*
X151872885Y-36266574D01*
X151917264Y-36258500D01*
X155232930Y-36258500D01*
X155251880Y-36259933D01*
X155266115Y-36262099D01*
X155266119Y-36262099D01*
X155273349Y-36263199D01*
X155280641Y-36262606D01*
X155280644Y-36262606D01*
X155326018Y-36258915D01*
X155336233Y-36258500D01*
X155344293Y-36258500D01*
X155357583Y-36256951D01*
X155372507Y-36255211D01*
X155376882Y-36254778D01*
X155442339Y-36249454D01*
X155442342Y-36249453D01*
X155449637Y-36248860D01*
X155456601Y-36246604D01*
X155462560Y-36245413D01*
X155468415Y-36244029D01*
X155475681Y-36243182D01*
X155544327Y-36218265D01*
X155548455Y-36216848D01*
X155610936Y-36196607D01*
X155610938Y-36196606D01*
X155617899Y-36194351D01*
X155624154Y-36190555D01*
X155629628Y-36188049D01*
X155635058Y-36185330D01*
X155641937Y-36182833D01*
X155702976Y-36142814D01*
X155706680Y-36140477D01*
X155769107Y-36102595D01*
X155777484Y-36095197D01*
X155777508Y-36095224D01*
X155780500Y-36092571D01*
X155783733Y-36089868D01*
X155789852Y-36085856D01*
X155843128Y-36029617D01*
X155845506Y-36027175D01*
X158288911Y-33583770D01*
X158303323Y-33571384D01*
X158314918Y-33562851D01*
X158314923Y-33562846D01*
X158320818Y-33558508D01*
X158325557Y-33552930D01*
X158325560Y-33552927D01*
X158355035Y-33518232D01*
X158361965Y-33510716D01*
X158367660Y-33505021D01*
X158385281Y-33482749D01*
X158388072Y-33479345D01*
X158430591Y-33429297D01*
X158430592Y-33429295D01*
X158435333Y-33423715D01*
X158438661Y-33417199D01*
X158442028Y-33412150D01*
X158445195Y-33407021D01*
X158449734Y-33401284D01*
X158480655Y-33335125D01*
X158482561Y-33331225D01*
X158515769Y-33266192D01*
X158517508Y-33259084D01*
X158519607Y-33253441D01*
X158521524Y-33247678D01*
X158524622Y-33241050D01*
X158539487Y-33169583D01*
X158540457Y-33165299D01*
X158547395Y-33136944D01*
X158557808Y-33094390D01*
X158558500Y-33083236D01*
X158558536Y-33083238D01*
X158558775Y-33079245D01*
X158559149Y-33075053D01*
X158560640Y-33067885D01*
X158558546Y-32990479D01*
X158558500Y-32987072D01*
X158558500Y-30937001D01*
X158575381Y-30874001D01*
X158631223Y-30777281D01*
X158631224Y-30777280D01*
X158634527Y-30771558D01*
X158693542Y-30589930D01*
X158695089Y-30575216D01*
X158712814Y-30406567D01*
X158713504Y-30400002D01*
X158696919Y-30242207D01*
X158694232Y-30216637D01*
X158694232Y-30216635D01*
X158693542Y-30210074D01*
X158634527Y-30028446D01*
X158613628Y-29992247D01*
X158554271Y-29889439D01*
X158539040Y-29863058D01*
X158490751Y-29809427D01*
X158415675Y-29726047D01*
X158415674Y-29726046D01*
X158411253Y-29721136D01*
X158256752Y-29608884D01*
X158250724Y-29606200D01*
X158250722Y-29606199D01*
X158088319Y-29533893D01*
X158088318Y-29533893D01*
X158082288Y-29531208D01*
X158075833Y-29529836D01*
X158075824Y-29529833D01*
X158019228Y-29517803D01*
X157956331Y-29483652D01*
X156695774Y-28223095D01*
X156661748Y-28160783D01*
X156666813Y-28089968D01*
X156709360Y-28033132D01*
X156775880Y-28008321D01*
X156784869Y-28008000D01*
X166829447Y-28008000D01*
X166892662Y-28025006D01*
X170357706Y-30034731D01*
X170429216Y-30076207D01*
X170478108Y-30127687D01*
X170492000Y-30185201D01*
X170492000Y-35814799D01*
X170471998Y-35882920D01*
X170429217Y-35923792D01*
X166892661Y-37974994D01*
X166829445Y-37992000D01*
X42333387Y-37992000D01*
X42265266Y-37971998D01*
X42218773Y-37918342D01*
X42208669Y-37848068D01*
X42238163Y-37783488D01*
X42254093Y-37768080D01*
X42306753Y-37725436D01*
X42311548Y-37721553D01*
X42335602Y-37692682D01*
X42434206Y-37574335D01*
X42434209Y-37574330D01*
X42438147Y-37569604D01*
X42532822Y-37395960D01*
X42591965Y-37207232D01*
X42603700Y-37099213D01*
X42612660Y-37016737D01*
X42612660Y-37016733D01*
X42613325Y-37010612D01*
X42600017Y-36858500D01*
X42596624Y-36819720D01*
X42596623Y-36819716D01*
X42596087Y-36813587D01*
X42589685Y-36791550D01*
X42540909Y-36623663D01*
X42449892Y-36448074D01*
X42419251Y-36409690D01*
X42355458Y-36329777D01*
X42355451Y-36329770D01*
X42353262Y-36327027D01*
X41823621Y-35797386D01*
X46717759Y-35797386D01*
X46725216Y-35807753D01*
X46964935Y-36001874D01*
X46970272Y-36005751D01*
X47290685Y-36213830D01*
X47296394Y-36217127D01*
X47636811Y-36390578D01*
X47642836Y-36393260D01*
X47999502Y-36530171D01*
X48005784Y-36532212D01*
X48374816Y-36631094D01*
X48381266Y-36632465D01*
X48758629Y-36692234D01*
X48765167Y-36692920D01*
X49146699Y-36712916D01*
X49153301Y-36712916D01*
X49534833Y-36692920D01*
X49541371Y-36692234D01*
X49918734Y-36632465D01*
X49925184Y-36631094D01*
X50294216Y-36532212D01*
X50300498Y-36530171D01*
X50657164Y-36393260D01*
X50663189Y-36390578D01*
X51003606Y-36217127D01*
X51009315Y-36213830D01*
X51329728Y-36005751D01*
X51335065Y-36001874D01*
X51573835Y-35808522D01*
X51582300Y-35796267D01*
X51575966Y-35785176D01*
X51388176Y-35597386D01*
X131717759Y-35597386D01*
X131725216Y-35607753D01*
X131964935Y-35801874D01*
X131970272Y-35805751D01*
X132290685Y-36013830D01*
X132296394Y-36017127D01*
X132636811Y-36190578D01*
X132642836Y-36193260D01*
X132999502Y-36330171D01*
X133005784Y-36332212D01*
X133374816Y-36431094D01*
X133381266Y-36432465D01*
X133758629Y-36492234D01*
X133765167Y-36492920D01*
X134146699Y-36512916D01*
X134153301Y-36512916D01*
X134534833Y-36492920D01*
X134541371Y-36492234D01*
X134918734Y-36432465D01*
X134925184Y-36431094D01*
X135294216Y-36332212D01*
X135300498Y-36330171D01*
X135657164Y-36193260D01*
X135663189Y-36190578D01*
X136003606Y-36017127D01*
X136009315Y-36013830D01*
X136329728Y-35805751D01*
X136335065Y-35801874D01*
X136573835Y-35608522D01*
X136582300Y-35596267D01*
X136575966Y-35585176D01*
X134162812Y-33172022D01*
X134148868Y-33164408D01*
X134147035Y-33164539D01*
X134140420Y-33168790D01*
X131724900Y-35584310D01*
X131717759Y-35597386D01*
X51388176Y-35597386D01*
X49162812Y-33372022D01*
X49148868Y-33364408D01*
X49147035Y-33364539D01*
X49140420Y-33368790D01*
X46724900Y-35784310D01*
X46717759Y-35797386D01*
X41823621Y-35797386D01*
X40889028Y-34862793D01*
X40879927Y-34852651D01*
X40860068Y-34827952D01*
X40856208Y-34823151D01*
X40818014Y-34791102D01*
X40809911Y-34783676D01*
X39029535Y-33003301D01*
X45437084Y-33003301D01*
X45457080Y-33384833D01*
X45457766Y-33391371D01*
X45517535Y-33768734D01*
X45518906Y-33775184D01*
X45617788Y-34144216D01*
X45619829Y-34150498D01*
X45756740Y-34507164D01*
X45759422Y-34513189D01*
X45932872Y-34853603D01*
X45936169Y-34859313D01*
X46144253Y-35179735D01*
X46148123Y-35185061D01*
X46341478Y-35423835D01*
X46353733Y-35432300D01*
X46364824Y-35425966D01*
X48777978Y-33012812D01*
X48784356Y-33001132D01*
X49514408Y-33001132D01*
X49514539Y-33002965D01*
X49518790Y-33009580D01*
X51934310Y-35425100D01*
X51947386Y-35432241D01*
X51957753Y-35424784D01*
X52151877Y-35185061D01*
X52155747Y-35179735D01*
X52363831Y-34859313D01*
X52367128Y-34853603D01*
X52540578Y-34513189D01*
X52543260Y-34507164D01*
X52680171Y-34150498D01*
X52682212Y-34144216D01*
X52781094Y-33775184D01*
X52782465Y-33768734D01*
X52842234Y-33391371D01*
X52842920Y-33384833D01*
X52862916Y-33003301D01*
X52862916Y-32996699D01*
X52852780Y-32803301D01*
X130437084Y-32803301D01*
X130457080Y-33184833D01*
X130457766Y-33191371D01*
X130517535Y-33568734D01*
X130518906Y-33575184D01*
X130617788Y-33944216D01*
X130619829Y-33950498D01*
X130756740Y-34307164D01*
X130759422Y-34313189D01*
X130932872Y-34653603D01*
X130936169Y-34659313D01*
X131144253Y-34979735D01*
X131148123Y-34985061D01*
X131341478Y-35223835D01*
X131353733Y-35232300D01*
X131364824Y-35225966D01*
X133777978Y-32812812D01*
X133784356Y-32801132D01*
X134514408Y-32801132D01*
X134514539Y-32802965D01*
X134518790Y-32809580D01*
X136934310Y-35225100D01*
X136947386Y-35232241D01*
X136957753Y-35224784D01*
X137151877Y-34985061D01*
X137155747Y-34979735D01*
X137363831Y-34659313D01*
X137367128Y-34653603D01*
X137540578Y-34313189D01*
X137543260Y-34307164D01*
X137680171Y-33950498D01*
X137682212Y-33944216D01*
X137781094Y-33575184D01*
X137782465Y-33568734D01*
X137842234Y-33191371D01*
X137842920Y-33184833D01*
X137862916Y-32803301D01*
X137862916Y-32796699D01*
X137842920Y-32415167D01*
X137842234Y-32408629D01*
X137782465Y-32031266D01*
X137781094Y-32024816D01*
X137682212Y-31655784D01*
X137680171Y-31649502D01*
X137543260Y-31292836D01*
X137540578Y-31286811D01*
X137367128Y-30946397D01*
X137363831Y-30940687D01*
X137155747Y-30620265D01*
X137151877Y-30614939D01*
X136958522Y-30376165D01*
X136946267Y-30367700D01*
X136935176Y-30374034D01*
X134522022Y-32787188D01*
X134514408Y-32801132D01*
X133784356Y-32801132D01*
X133785592Y-32798868D01*
X133785461Y-32797035D01*
X133781210Y-32790420D01*
X131365690Y-30374900D01*
X131352614Y-30367759D01*
X131342247Y-30375216D01*
X131148123Y-30614939D01*
X131144253Y-30620265D01*
X130936169Y-30940687D01*
X130932872Y-30946397D01*
X130759422Y-31286811D01*
X130756740Y-31292836D01*
X130619829Y-31649502D01*
X130617788Y-31655784D01*
X130518906Y-32024816D01*
X130517535Y-32031266D01*
X130457766Y-32408629D01*
X130457080Y-32415167D01*
X130437084Y-32796699D01*
X130437084Y-32803301D01*
X52852780Y-32803301D01*
X52842920Y-32615167D01*
X52842234Y-32608629D01*
X52782465Y-32231266D01*
X52781094Y-32224816D01*
X52682212Y-31855784D01*
X52680171Y-31849502D01*
X52543260Y-31492836D01*
X52540578Y-31486811D01*
X52367128Y-31146397D01*
X52363831Y-31140687D01*
X52155747Y-30820265D01*
X52151877Y-30814939D01*
X51958522Y-30576165D01*
X51946267Y-30567700D01*
X51935176Y-30574034D01*
X49522022Y-32987188D01*
X49514408Y-33001132D01*
X48784356Y-33001132D01*
X48785592Y-32998868D01*
X48785461Y-32997035D01*
X48781210Y-32990420D01*
X46365690Y-30574900D01*
X46352614Y-30567759D01*
X46342247Y-30575216D01*
X46148123Y-30814939D01*
X46144253Y-30820265D01*
X45936169Y-31140687D01*
X45932872Y-31146397D01*
X45759422Y-31486811D01*
X45756740Y-31492836D01*
X45619829Y-31849502D01*
X45617788Y-31855784D01*
X45518906Y-32224816D01*
X45517535Y-32231266D01*
X45457766Y-32608629D01*
X45457080Y-32615167D01*
X45437084Y-32996699D01*
X45437084Y-33003301D01*
X39029535Y-33003301D01*
X38356855Y-32330621D01*
X38347753Y-32320478D01*
X38327897Y-32295782D01*
X38324032Y-32290975D01*
X38285578Y-32258708D01*
X38281931Y-32255528D01*
X38280119Y-32253885D01*
X38277925Y-32251691D01*
X38244651Y-32224358D01*
X38243853Y-32223696D01*
X38172526Y-32163846D01*
X38167856Y-32161278D01*
X38163739Y-32157897D01*
X38081914Y-32114023D01*
X38080755Y-32113394D01*
X38004619Y-32071538D01*
X38004611Y-32071535D01*
X37999213Y-32068567D01*
X37994131Y-32066955D01*
X37989437Y-32064438D01*
X37900469Y-32037238D01*
X37899441Y-32036918D01*
X37810694Y-32008765D01*
X37805398Y-32008171D01*
X37800302Y-32006613D01*
X37707743Y-31997210D01*
X37706607Y-31997089D01*
X37672992Y-31993319D01*
X37660270Y-31991892D01*
X37660266Y-31991892D01*
X37656773Y-31991500D01*
X37653246Y-31991500D01*
X37652261Y-31991445D01*
X37646581Y-31990998D01*
X37615421Y-31987833D01*
X37609663Y-31987248D01*
X37609661Y-31987248D01*
X37603538Y-31986626D01*
X37592867Y-31987635D01*
X37590768Y-31987833D01*
X37521068Y-31974330D01*
X37499020Y-31959826D01*
X37432570Y-31905341D01*
X37397245Y-31876376D01*
X37387279Y-31870703D01*
X37365265Y-31858171D01*
X37315959Y-31807088D01*
X37302098Y-31737458D01*
X37328082Y-31671387D01*
X37357232Y-31644149D01*
X37474578Y-31565148D01*
X37482870Y-31558481D01*
X37641900Y-31406772D01*
X37648941Y-31398814D01*
X37780141Y-31222475D01*
X37785745Y-31213438D01*
X37885357Y-31017516D01*
X37889357Y-31007665D01*
X37954534Y-30797760D01*
X37956817Y-30787376D01*
X37958861Y-30771957D01*
X37956665Y-30757793D01*
X37943478Y-30754000D01*
X35058808Y-30754000D01*
X35045277Y-30757973D01*
X35043752Y-30768580D01*
X35068477Y-30886421D01*
X35071537Y-30896617D01*
X35152263Y-31101029D01*
X35156994Y-31110561D01*
X35271016Y-31298462D01*
X35277280Y-31307052D01*
X35421327Y-31473052D01*
X35428958Y-31480472D01*
X35598911Y-31619826D01*
X35607674Y-31625848D01*
X35634711Y-31641238D01*
X35684018Y-31692320D01*
X35697880Y-31761951D01*
X35671897Y-31828022D01*
X35642747Y-31855261D01*
X35615310Y-31873733D01*
X35520681Y-31937441D01*
X35516824Y-31941120D01*
X35516822Y-31941122D01*
X35464070Y-31991445D01*
X35353865Y-32096576D01*
X35216246Y-32281542D01*
X35213830Y-32286293D01*
X35213828Y-32286297D01*
X35164003Y-32384297D01*
X35111760Y-32487051D01*
X35110178Y-32492145D01*
X35110177Y-32492148D01*
X35068001Y-32627978D01*
X35043393Y-32707227D01*
X35042692Y-32712516D01*
X35027304Y-32828623D01*
X35013102Y-32935774D01*
X35013302Y-32941103D01*
X35013302Y-32941105D01*
X35015156Y-32990479D01*
X35021751Y-33166158D01*
X35069093Y-33391791D01*
X35071051Y-33396750D01*
X35071052Y-33396752D01*
X35144910Y-33583770D01*
X35153776Y-33606221D01*
X35156543Y-33610780D01*
X35156544Y-33610783D01*
X35218998Y-33713703D01*
X35273377Y-33803317D01*
X35276874Y-33807347D01*
X35416034Y-33967715D01*
X35424477Y-33977445D01*
X35460120Y-34006670D01*
X35500114Y-34065329D01*
X35502046Y-34136299D01*
X35465302Y-34197048D01*
X35446532Y-34211248D01*
X35373891Y-34256200D01*
X35300652Y-34301522D01*
X35295479Y-34306704D01*
X35265786Y-34336449D01*
X35175695Y-34426697D01*
X35171855Y-34432927D01*
X35171854Y-34432928D01*
X35120367Y-34516456D01*
X35082885Y-34577262D01*
X35080581Y-34584209D01*
X35047669Y-34683437D01*
X35027203Y-34745139D01*
X35026503Y-34751975D01*
X35026502Y-34751978D01*
X35022855Y-34787571D01*
X35016500Y-34849600D01*
X35016500Y-36150400D01*
X35016837Y-36153646D01*
X35016837Y-36153650D01*
X35026288Y-36244733D01*
X35027474Y-36256166D01*
X35029655Y-36262702D01*
X35029655Y-36262704D01*
X35050120Y-36324045D01*
X35083450Y-36423946D01*
X35176522Y-36574348D01*
X35181704Y-36579521D01*
X35227085Y-36624823D01*
X35301697Y-36699305D01*
X35307927Y-36703145D01*
X35307928Y-36703146D01*
X35445090Y-36787694D01*
X35452262Y-36792115D01*
X35528154Y-36817287D01*
X35613611Y-36845632D01*
X35613613Y-36845632D01*
X35620139Y-36847797D01*
X35626975Y-36848497D01*
X35626978Y-36848498D01*
X35670031Y-36852909D01*
X35724600Y-36858500D01*
X37275400Y-36858500D01*
X37278646Y-36858163D01*
X37278650Y-36858163D01*
X37374308Y-36848238D01*
X37374312Y-36848237D01*
X37381166Y-36847526D01*
X37387702Y-36845345D01*
X37387704Y-36845345D01*
X37519806Y-36801272D01*
X37548946Y-36791550D01*
X37699348Y-36698478D01*
X37824305Y-36573303D01*
X37838313Y-36550578D01*
X37913275Y-36428968D01*
X37913276Y-36428966D01*
X37917115Y-36422738D01*
X37945907Y-36335932D01*
X37986337Y-36277572D01*
X38051901Y-36250335D01*
X38121783Y-36262868D01*
X38173795Y-36311193D01*
X38191500Y-36375599D01*
X38191500Y-37049769D01*
X38191800Y-37052825D01*
X38191800Y-37052832D01*
X38195069Y-37086169D01*
X38205920Y-37196833D01*
X38207702Y-37202734D01*
X38207702Y-37202736D01*
X38210836Y-37213115D01*
X38263084Y-37386169D01*
X38355934Y-37560796D01*
X38420197Y-37639590D01*
X38477040Y-37709287D01*
X38477043Y-37709290D01*
X38480935Y-37714062D01*
X38485682Y-37717989D01*
X38485684Y-37717991D01*
X38547241Y-37768915D01*
X38586980Y-37827749D01*
X38588602Y-37898727D01*
X38551592Y-37959314D01*
X38487702Y-37990275D01*
X38466926Y-37992000D01*
X17170553Y-37992000D01*
X17107337Y-37974994D01*
X13570783Y-35923792D01*
X13521892Y-35872313D01*
X13508000Y-35814799D01*
X13508000Y-30185201D01*
X13528002Y-30117080D01*
X13570783Y-30076208D01*
X17107340Y-28025006D01*
X17170555Y-28008000D01*
X26815129Y-28008000D01*
X26883250Y-28028002D01*
G37*
%TD.AperFunction*%
%TA.AperFunction,Conductor*%
G36*
X155301748Y-28978502D02*
G01*
X155322722Y-28995405D01*
X156879875Y-30552558D01*
X156910613Y-30602716D01*
X156965473Y-30771558D01*
X156968776Y-30777280D01*
X156968777Y-30777281D01*
X157024619Y-30874001D01*
X157041500Y-30937001D01*
X157041500Y-32633629D01*
X157021498Y-32701750D01*
X157004595Y-32722724D01*
X155293793Y-34433526D01*
X155231481Y-34467552D01*
X155160666Y-34462487D01*
X155103830Y-34419940D01*
X155084865Y-34383367D01*
X155062063Y-34313189D01*
X155034527Y-34228444D01*
X155022984Y-34208450D01*
X154988912Y-34149437D01*
X154975381Y-34126000D01*
X154958500Y-34063001D01*
X154958500Y-31852800D01*
X154959933Y-31833850D01*
X154962099Y-31819615D01*
X154962099Y-31819611D01*
X154963199Y-31812381D01*
X154961573Y-31792383D01*
X154958915Y-31759712D01*
X154958500Y-31749497D01*
X154958500Y-31741437D01*
X154955209Y-31713210D01*
X154954778Y-31708851D01*
X154953434Y-31692320D01*
X154949951Y-31649502D01*
X154949454Y-31643392D01*
X154949453Y-31643389D01*
X154948860Y-31636094D01*
X154946604Y-31629130D01*
X154945417Y-31623191D01*
X154944030Y-31617320D01*
X154943182Y-31610049D01*
X154940686Y-31603173D01*
X154940684Y-31603164D01*
X154918275Y-31541432D01*
X154916865Y-31537328D01*
X154894352Y-31467831D01*
X154890556Y-31461576D01*
X154888057Y-31456117D01*
X154885329Y-31450669D01*
X154882833Y-31443793D01*
X154842805Y-31382740D01*
X154840481Y-31379057D01*
X154805500Y-31321410D01*
X154805499Y-31321409D01*
X154802595Y-31316623D01*
X154795198Y-31308247D01*
X154795225Y-31308223D01*
X154792570Y-31305229D01*
X154789868Y-31301998D01*
X154785856Y-31295878D01*
X154729617Y-31242602D01*
X154727175Y-31240224D01*
X152660546Y-29173595D01*
X152626520Y-29111283D01*
X152631585Y-29040468D01*
X152674132Y-28983632D01*
X152740652Y-28958821D01*
X152749641Y-28958500D01*
X155233627Y-28958500D01*
X155301748Y-28978502D01*
G37*
%TD.AperFunction*%
%TD*%
%TA.AperFunction,Conductor*%
%TO.N,GND*%
G36*
X26883250Y-28028002D02*
G01*
X26929743Y-28081658D01*
X26939847Y-28151932D01*
X26910353Y-28216512D01*
X26904224Y-28223095D01*
X23522724Y-31604595D01*
X23460412Y-31638621D01*
X23433629Y-31641500D01*
X19814985Y-31641500D01*
X19813446Y-31641491D01*
X19710081Y-31640228D01*
X19710079Y-31640228D01*
X19704911Y-31640165D01*
X19484091Y-31673955D01*
X19271756Y-31743357D01*
X19267164Y-31745747D01*
X19267165Y-31745747D01*
X19146257Y-31808688D01*
X19073607Y-31846507D01*
X19069474Y-31849610D01*
X19069471Y-31849612D01*
X18913346Y-31966834D01*
X18894965Y-31980635D01*
X18871299Y-32005400D01*
X18756703Y-32125318D01*
X18740629Y-32142138D01*
X18737715Y-32146410D01*
X18737714Y-32146411D01*
X18684230Y-32224816D01*
X18614743Y-32326680D01*
X18583597Y-32393779D01*
X18537936Y-32492148D01*
X18520688Y-32529305D01*
X18460989Y-32744570D01*
X18437251Y-32966695D01*
X18437548Y-32971848D01*
X18437548Y-32971851D01*
X18449053Y-33171377D01*
X18450110Y-33189715D01*
X18451247Y-33194761D01*
X18451248Y-33194767D01*
X18473335Y-33292773D01*
X18499222Y-33407639D01*
X18583266Y-33614616D01*
X18699987Y-33805088D01*
X18846250Y-33973938D01*
X19018126Y-34116632D01*
X19211000Y-34229338D01*
X19215825Y-34231180D01*
X19215826Y-34231181D01*
X19232997Y-34237738D01*
X19419692Y-34309030D01*
X19424760Y-34310061D01*
X19424763Y-34310062D01*
X19512406Y-34327893D01*
X19638597Y-34353567D01*
X19643772Y-34353757D01*
X19643774Y-34353757D01*
X19764620Y-34358188D01*
X19764601Y-34358697D01*
X19766316Y-34358372D01*
X19767491Y-34358500D01*
X19770892Y-34358500D01*
X19770929Y-34358502D01*
X19775443Y-34358585D01*
X19856673Y-34361564D01*
X19856677Y-34361564D01*
X19861837Y-34361753D01*
X19866957Y-34361097D01*
X19866959Y-34361097D01*
X19879261Y-34359521D01*
X19895271Y-34358500D01*
X24298134Y-34358500D01*
X24360316Y-34351745D01*
X24496705Y-34300615D01*
X24613261Y-34213261D01*
X24700615Y-34096705D01*
X24751745Y-33960316D01*
X24758500Y-33898134D01*
X24758500Y-32566371D01*
X24778502Y-32498250D01*
X24795405Y-32477276D01*
X28277276Y-28995405D01*
X28339588Y-28961379D01*
X28366371Y-28958500D01*
X35921513Y-28958500D01*
X35989634Y-28978502D01*
X36036127Y-29032158D01*
X36046231Y-29102432D01*
X36016737Y-29167012D01*
X35953167Y-29206459D01*
X35927465Y-29213130D01*
X35917425Y-29216665D01*
X35717030Y-29306937D01*
X35707744Y-29312106D01*
X35525425Y-29434850D01*
X35517130Y-29441519D01*
X35358100Y-29593228D01*
X35351059Y-29601186D01*
X35219859Y-29777525D01*
X35214255Y-29786562D01*
X35114643Y-29982484D01*
X35110643Y-29992335D01*
X35045466Y-30202240D01*
X35043183Y-30212624D01*
X35041139Y-30228043D01*
X35043335Y-30242207D01*
X35056522Y-30246000D01*
X37941192Y-30246000D01*
X37954723Y-30242027D01*
X37956248Y-30231420D01*
X37950439Y-30203733D01*
X46717700Y-30203733D01*
X46724034Y-30214824D01*
X49137188Y-32627978D01*
X49151132Y-32635592D01*
X49152965Y-32635461D01*
X49159580Y-32631210D01*
X51575100Y-30215690D01*
X51582241Y-30202614D01*
X51574784Y-30192247D01*
X51335065Y-29998126D01*
X51329728Y-29994249D01*
X51009315Y-29786170D01*
X51003606Y-29782873D01*
X50663189Y-29609422D01*
X50657164Y-29606740D01*
X50300498Y-29469829D01*
X50294216Y-29467788D01*
X49925184Y-29368906D01*
X49918734Y-29367535D01*
X49541371Y-29307766D01*
X49534833Y-29307080D01*
X49153301Y-29287084D01*
X49146699Y-29287084D01*
X48765167Y-29307080D01*
X48758629Y-29307766D01*
X48381266Y-29367535D01*
X48374816Y-29368906D01*
X48005784Y-29467788D01*
X47999502Y-29469829D01*
X47642836Y-29606740D01*
X47636811Y-29609422D01*
X47296397Y-29782872D01*
X47290687Y-29786169D01*
X46970265Y-29994253D01*
X46964939Y-29998123D01*
X46726165Y-30191478D01*
X46717700Y-30203733D01*
X37950439Y-30203733D01*
X37931523Y-30113579D01*
X37928463Y-30103383D01*
X37847737Y-29898971D01*
X37843006Y-29889439D01*
X37728984Y-29701538D01*
X37722720Y-29692948D01*
X37578673Y-29526948D01*
X37571042Y-29519528D01*
X37401089Y-29380174D01*
X37392322Y-29374150D01*
X37201318Y-29265424D01*
X37191654Y-29260959D01*
X37031813Y-29202939D01*
X36974605Y-29160894D01*
X36949209Y-29094595D01*
X36963689Y-29025091D01*
X37013447Y-28974448D01*
X37074804Y-28958500D01*
X133202994Y-28958500D01*
X133271115Y-28978502D01*
X133317608Y-29032158D01*
X133327712Y-29102432D01*
X133298218Y-29167012D01*
X133235605Y-29206207D01*
X133005785Y-29267788D01*
X132999502Y-29269829D01*
X132642836Y-29406740D01*
X132636811Y-29409422D01*
X132296397Y-29582872D01*
X132290687Y-29586169D01*
X131970265Y-29794253D01*
X131964939Y-29798123D01*
X131726165Y-29991478D01*
X131717700Y-30003733D01*
X131724034Y-30014824D01*
X134137188Y-32427978D01*
X134151132Y-32435592D01*
X134152965Y-32435461D01*
X134159580Y-32431210D01*
X136575100Y-30015690D01*
X136582241Y-30002614D01*
X136574784Y-29992247D01*
X136335065Y-29798126D01*
X136329728Y-29794249D01*
X136009315Y-29586170D01*
X136003606Y-29582873D01*
X135663189Y-29409422D01*
X135657164Y-29406740D01*
X135300498Y-29269829D01*
X135294215Y-29267788D01*
X135064395Y-29206207D01*
X135003772Y-29169255D01*
X134972751Y-29105394D01*
X134981179Y-29034900D01*
X135026382Y-28980153D01*
X135097006Y-28958500D01*
X145664629Y-28958500D01*
X145732750Y-28978502D01*
X145779243Y-29032158D01*
X145789347Y-29102432D01*
X145759853Y-29167012D01*
X145753724Y-29173595D01*
X143211089Y-31716230D01*
X143196677Y-31728616D01*
X143185082Y-31737149D01*
X143185077Y-31737154D01*
X143179182Y-31741492D01*
X143174443Y-31747070D01*
X143174440Y-31747073D01*
X143144965Y-31781768D01*
X143138035Y-31789284D01*
X143132340Y-31794979D01*
X143130060Y-31797861D01*
X143114719Y-31817251D01*
X143111928Y-31820655D01*
X143084619Y-31852800D01*
X143064667Y-31876285D01*
X143061339Y-31882801D01*
X143057972Y-31887850D01*
X143054805Y-31892979D01*
X143050266Y-31898716D01*
X143019345Y-31964875D01*
X143017442Y-31968769D01*
X142998436Y-32005990D01*
X142987735Y-32026946D01*
X142969153Y-32053957D01*
X142960960Y-32063056D01*
X142957659Y-32068774D01*
X142957658Y-32068775D01*
X142872908Y-32215567D01*
X142865473Y-32228444D01*
X142806458Y-32410072D01*
X142805768Y-32416633D01*
X142805768Y-32416635D01*
X142787186Y-32593435D01*
X142786496Y-32600000D01*
X142787186Y-32606565D01*
X142802231Y-32749707D01*
X142806458Y-32789928D01*
X142865473Y-32971556D01*
X142960960Y-33136944D01*
X142965378Y-33141851D01*
X142965379Y-33141852D01*
X142992544Y-33172022D01*
X143088747Y-33278866D01*
X143243248Y-33391118D01*
X143249276Y-33393802D01*
X143249278Y-33393803D01*
X143411681Y-33466109D01*
X143417712Y-33468794D01*
X143483365Y-33482749D01*
X143598056Y-33507128D01*
X143598061Y-33507128D01*
X143604513Y-33508500D01*
X143795487Y-33508500D01*
X143801939Y-33507128D01*
X143801944Y-33507128D01*
X143916635Y-33482749D01*
X143982288Y-33468794D01*
X143988319Y-33466109D01*
X144150722Y-33393803D01*
X144150724Y-33393802D01*
X144156752Y-33391118D01*
X144311253Y-33278866D01*
X144407456Y-33172022D01*
X144434621Y-33141852D01*
X144434622Y-33141851D01*
X144439040Y-33136944D01*
X144534527Y-32971556D01*
X144593542Y-32789928D01*
X144597770Y-32749707D01*
X144612814Y-32606565D01*
X144613504Y-32600000D01*
X144606393Y-32532338D01*
X144619166Y-32462499D01*
X144642608Y-32430073D01*
X147076796Y-29995885D01*
X147139108Y-29961859D01*
X147165891Y-29958980D01*
X148991000Y-29958980D01*
X149059121Y-29978982D01*
X149105614Y-30032638D01*
X149117000Y-30084980D01*
X149117000Y-30227885D01*
X149121475Y-30243124D01*
X149122865Y-30244329D01*
X149130548Y-30246000D01*
X150728000Y-30246000D01*
X150796121Y-30266002D01*
X150842614Y-30319658D01*
X150854000Y-30372000D01*
X150854000Y-30628000D01*
X150833998Y-30696121D01*
X150780342Y-30742614D01*
X150728000Y-30754000D01*
X149135116Y-30754000D01*
X149119877Y-30758475D01*
X149118672Y-30759865D01*
X149117001Y-30767548D01*
X149117001Y-31147095D01*
X149117338Y-31153614D01*
X149127257Y-31249206D01*
X149130149Y-31262600D01*
X149181588Y-31416784D01*
X149187761Y-31429962D01*
X149273063Y-31567807D01*
X149282099Y-31579208D01*
X149396829Y-31693739D01*
X149408240Y-31702751D01*
X149491907Y-31754324D01*
X149539400Y-31807096D01*
X149550824Y-31877168D01*
X149522550Y-31942292D01*
X149463556Y-31981791D01*
X149422915Y-31985786D01*
X149422898Y-31987406D01*
X149416738Y-31987341D01*
X149410612Y-31986676D01*
X149384362Y-31988973D01*
X149360612Y-31991050D01*
X149355786Y-31991379D01*
X149353314Y-31991500D01*
X149350231Y-31991500D01*
X149338262Y-31992674D01*
X149307494Y-31995690D01*
X149306181Y-31995812D01*
X149261916Y-31999685D01*
X149213587Y-32003913D01*
X149208468Y-32005400D01*
X149203167Y-32005920D01*
X149114166Y-32032791D01*
X149113033Y-32033126D01*
X149029586Y-32057370D01*
X149029582Y-32057372D01*
X149023664Y-32059091D01*
X149018932Y-32061544D01*
X149013831Y-32063084D01*
X149008388Y-32065978D01*
X148931740Y-32106731D01*
X148930574Y-32107343D01*
X148895898Y-32125318D01*
X148848074Y-32150108D01*
X148843911Y-32153431D01*
X148839204Y-32155934D01*
X148834429Y-32159828D01*
X148834428Y-32159829D01*
X148767102Y-32214739D01*
X148766075Y-32215567D01*
X148729792Y-32244531D01*
X148729787Y-32244536D01*
X148727028Y-32246738D01*
X148724527Y-32249239D01*
X148723809Y-32249881D01*
X148719461Y-32253594D01*
X148685938Y-32280935D01*
X148682015Y-32285677D01*
X148682013Y-32285679D01*
X148656703Y-32316273D01*
X148648713Y-32325053D01*
X146830621Y-34143145D01*
X146820478Y-34152247D01*
X146790975Y-34175968D01*
X146787008Y-34180696D01*
X146758709Y-34214421D01*
X146755528Y-34218069D01*
X146753885Y-34219881D01*
X146751691Y-34222075D01*
X146724358Y-34255349D01*
X146723696Y-34256147D01*
X146663846Y-34327474D01*
X146661278Y-34332144D01*
X146657897Y-34336261D01*
X146637802Y-34373738D01*
X146614023Y-34418086D01*
X146613394Y-34419245D01*
X146571538Y-34495381D01*
X146571535Y-34495389D01*
X146568567Y-34500787D01*
X146566955Y-34505869D01*
X146564438Y-34510563D01*
X146537238Y-34599531D01*
X146536918Y-34600559D01*
X146508765Y-34689306D01*
X146508171Y-34694602D01*
X146506613Y-34699698D01*
X146498083Y-34783676D01*
X146497218Y-34792187D01*
X146497089Y-34793393D01*
X146491500Y-34843227D01*
X146491500Y-34846754D01*
X146491445Y-34847739D01*
X146490998Y-34853419D01*
X146486626Y-34896462D01*
X146487206Y-34902593D01*
X146490941Y-34942109D01*
X146491500Y-34953967D01*
X146491500Y-36749769D01*
X146491800Y-36752825D01*
X146491800Y-36752832D01*
X146495597Y-36791550D01*
X146505920Y-36896833D01*
X146563084Y-37086169D01*
X146655934Y-37260796D01*
X146726291Y-37347062D01*
X146777040Y-37409287D01*
X146777043Y-37409290D01*
X146780935Y-37414062D01*
X146785682Y-37417989D01*
X146785684Y-37417991D01*
X146928575Y-37536201D01*
X146928579Y-37536203D01*
X146933325Y-37540130D01*
X147107299Y-37634198D01*
X147296232Y-37692682D01*
X147302357Y-37693326D01*
X147302358Y-37693326D01*
X147486796Y-37712711D01*
X147486798Y-37712711D01*
X147492925Y-37713355D01*
X147575424Y-37705847D01*
X147683749Y-37695989D01*
X147683752Y-37695988D01*
X147689888Y-37695430D01*
X147695794Y-37693692D01*
X147695798Y-37693691D01*
X147873710Y-37641329D01*
X147873709Y-37641329D01*
X147879619Y-37639590D01*
X147941074Y-37607462D01*
X148010709Y-37593627D01*
X148059375Y-37608286D01*
X148107299Y-37634198D01*
X148296232Y-37692682D01*
X148302357Y-37693326D01*
X148302358Y-37693326D01*
X148486796Y-37712711D01*
X148486798Y-37712711D01*
X148492925Y-37713355D01*
X148575424Y-37705847D01*
X148683749Y-37695989D01*
X148683752Y-37695988D01*
X148689888Y-37695430D01*
X148695794Y-37693692D01*
X148695798Y-37693691D01*
X148800924Y-37662751D01*
X148879619Y-37639590D01*
X148885077Y-37636737D01*
X148885081Y-37636735D01*
X148975853Y-37589280D01*
X149054890Y-37547960D01*
X149209025Y-37424032D01*
X149336154Y-37272526D01*
X149339121Y-37267128D01*
X149339125Y-37267123D01*
X149428467Y-37104608D01*
X149431433Y-37099213D01*
X149433846Y-37091608D01*
X149489373Y-36916564D01*
X149489373Y-36916563D01*
X149491235Y-36910694D01*
X149508500Y-36756773D01*
X149508500Y-36729055D01*
X149528502Y-36660934D01*
X149582158Y-36614441D01*
X149652432Y-36604337D01*
X149702580Y-36623931D01*
X149702755Y-36623624D01*
X149707394Y-36626265D01*
X149707396Y-36626266D01*
X149841025Y-36702332D01*
X149903114Y-36737675D01*
X150119825Y-36816337D01*
X150125074Y-36817286D01*
X150125077Y-36817287D01*
X150342608Y-36856623D01*
X150342615Y-36856624D01*
X150346692Y-36857361D01*
X150363889Y-36858172D01*
X150369356Y-36858430D01*
X150369363Y-36858430D01*
X150370844Y-36858500D01*
X150782890Y-36858500D01*
X150849809Y-36852822D01*
X150949409Y-36844371D01*
X150949413Y-36844370D01*
X150954720Y-36843920D01*
X150959875Y-36842582D01*
X150959881Y-36842581D01*
X151172703Y-36787343D01*
X151172707Y-36787342D01*
X151177872Y-36786001D01*
X151182738Y-36783809D01*
X151182741Y-36783808D01*
X151383202Y-36693507D01*
X151388075Y-36691312D01*
X151579319Y-36562559D01*
X151591879Y-36550578D01*
X151704372Y-36443264D01*
X151746135Y-36403424D01*
X151816176Y-36309287D01*
X151872885Y-36266574D01*
X151917264Y-36258500D01*
X155232930Y-36258500D01*
X155251880Y-36259933D01*
X155266115Y-36262099D01*
X155266119Y-36262099D01*
X155273349Y-36263199D01*
X155280641Y-36262606D01*
X155280644Y-36262606D01*
X155326018Y-36258915D01*
X155336233Y-36258500D01*
X155344293Y-36258500D01*
X155357583Y-36256951D01*
X155372507Y-36255211D01*
X155376882Y-36254778D01*
X155442339Y-36249454D01*
X155442342Y-36249453D01*
X155449637Y-36248860D01*
X155456601Y-36246604D01*
X155462560Y-36245413D01*
X155468415Y-36244029D01*
X155475681Y-36243182D01*
X155544327Y-36218265D01*
X155548455Y-36216848D01*
X155610936Y-36196607D01*
X155610938Y-36196606D01*
X155617899Y-36194351D01*
X155624154Y-36190555D01*
X155629628Y-36188049D01*
X155635058Y-36185330D01*
X155641937Y-36182833D01*
X155702976Y-36142814D01*
X155706680Y-36140477D01*
X155769107Y-36102595D01*
X155777484Y-36095197D01*
X155777508Y-36095224D01*
X155780500Y-36092571D01*
X155783733Y-36089868D01*
X155789852Y-36085856D01*
X155843128Y-36029617D01*
X155845506Y-36027175D01*
X158288911Y-33583770D01*
X158303323Y-33571384D01*
X158314918Y-33562851D01*
X158314923Y-33562846D01*
X158320818Y-33558508D01*
X158325557Y-33552930D01*
X158325560Y-33552927D01*
X158355035Y-33518232D01*
X158361965Y-33510716D01*
X158367660Y-33505021D01*
X158385281Y-33482749D01*
X158388072Y-33479345D01*
X158430591Y-33429297D01*
X158430592Y-33429295D01*
X158435333Y-33423715D01*
X158438661Y-33417199D01*
X158442028Y-33412150D01*
X158445195Y-33407021D01*
X158449734Y-33401284D01*
X158480655Y-33335125D01*
X158482561Y-33331225D01*
X158515769Y-33266192D01*
X158517508Y-33259084D01*
X158519607Y-33253441D01*
X158521524Y-33247678D01*
X158524622Y-33241050D01*
X158539487Y-33169583D01*
X158540457Y-33165299D01*
X158547395Y-33136944D01*
X158557808Y-33094390D01*
X158558500Y-33083236D01*
X158558536Y-33083238D01*
X158558775Y-33079245D01*
X158559149Y-33075053D01*
X158560640Y-33067885D01*
X158558546Y-32990479D01*
X158558500Y-32987072D01*
X158558500Y-30937001D01*
X158575381Y-30874001D01*
X158631223Y-30777281D01*
X158631224Y-30777280D01*
X158634527Y-30771558D01*
X158693542Y-30589930D01*
X158695089Y-30575216D01*
X158712814Y-30406567D01*
X158713504Y-30400002D01*
X158696919Y-30242207D01*
X158694232Y-30216637D01*
X158694232Y-30216635D01*
X158693542Y-30210074D01*
X158634527Y-30028446D01*
X158613628Y-29992247D01*
X158554271Y-29889439D01*
X158539040Y-29863058D01*
X158490751Y-29809427D01*
X158415675Y-29726047D01*
X158415674Y-29726046D01*
X158411253Y-29721136D01*
X158256752Y-29608884D01*
X158250724Y-29606200D01*
X158250722Y-29606199D01*
X158088319Y-29533893D01*
X158088318Y-29533893D01*
X158082288Y-29531208D01*
X158075833Y-29529836D01*
X158075824Y-29529833D01*
X158019228Y-29517803D01*
X157956331Y-29483652D01*
X156695774Y-28223095D01*
X156661748Y-28160783D01*
X156666813Y-28089968D01*
X156709360Y-28033132D01*
X156775880Y-28008321D01*
X156784869Y-28008000D01*
X166829447Y-28008000D01*
X166892662Y-28025006D01*
X170357706Y-30034731D01*
X170429216Y-30076207D01*
X170478108Y-30127687D01*
X170492000Y-30185201D01*
X170492000Y-35814799D01*
X170471998Y-35882920D01*
X170429217Y-35923792D01*
X166892661Y-37974994D01*
X166829445Y-37992000D01*
X42333387Y-37992000D01*
X42265266Y-37971998D01*
X42218773Y-37918342D01*
X42208669Y-37848068D01*
X42238163Y-37783488D01*
X42254093Y-37768080D01*
X42306753Y-37725436D01*
X42311548Y-37721553D01*
X42335602Y-37692682D01*
X42434206Y-37574335D01*
X42434209Y-37574330D01*
X42438147Y-37569604D01*
X42532822Y-37395960D01*
X42591965Y-37207232D01*
X42603700Y-37099213D01*
X42612660Y-37016737D01*
X42612660Y-37016733D01*
X42613325Y-37010612D01*
X42600017Y-36858500D01*
X42596624Y-36819720D01*
X42596623Y-36819716D01*
X42596087Y-36813587D01*
X42589685Y-36791550D01*
X42540909Y-36623663D01*
X42449892Y-36448074D01*
X42419251Y-36409690D01*
X42355458Y-36329777D01*
X42355451Y-36329770D01*
X42353262Y-36327027D01*
X41823621Y-35797386D01*
X46717759Y-35797386D01*
X46725216Y-35807753D01*
X46964935Y-36001874D01*
X46970272Y-36005751D01*
X47290685Y-36213830D01*
X47296394Y-36217127D01*
X47636811Y-36390578D01*
X47642836Y-36393260D01*
X47999502Y-36530171D01*
X48005784Y-36532212D01*
X48374816Y-36631094D01*
X48381266Y-36632465D01*
X48758629Y-36692234D01*
X48765167Y-36692920D01*
X49146699Y-36712916D01*
X49153301Y-36712916D01*
X49534833Y-36692920D01*
X49541371Y-36692234D01*
X49918734Y-36632465D01*
X49925184Y-36631094D01*
X50294216Y-36532212D01*
X50300498Y-36530171D01*
X50657164Y-36393260D01*
X50663189Y-36390578D01*
X51003606Y-36217127D01*
X51009315Y-36213830D01*
X51329728Y-36005751D01*
X51335065Y-36001874D01*
X51573835Y-35808522D01*
X51582300Y-35796267D01*
X51575966Y-35785176D01*
X51388176Y-35597386D01*
X131717759Y-35597386D01*
X131725216Y-35607753D01*
X131964935Y-35801874D01*
X131970272Y-35805751D01*
X132290685Y-36013830D01*
X132296394Y-36017127D01*
X132636811Y-36190578D01*
X132642836Y-36193260D01*
X132999502Y-36330171D01*
X133005784Y-36332212D01*
X133374816Y-36431094D01*
X133381266Y-36432465D01*
X133758629Y-36492234D01*
X133765167Y-36492920D01*
X134146699Y-36512916D01*
X134153301Y-36512916D01*
X134534833Y-36492920D01*
X134541371Y-36492234D01*
X134918734Y-36432465D01*
X134925184Y-36431094D01*
X135294216Y-36332212D01*
X135300498Y-36330171D01*
X135657164Y-36193260D01*
X135663189Y-36190578D01*
X136003606Y-36017127D01*
X136009315Y-36013830D01*
X136329728Y-35805751D01*
X136335065Y-35801874D01*
X136573835Y-35608522D01*
X136582300Y-35596267D01*
X136575966Y-35585176D01*
X134162812Y-33172022D01*
X134148868Y-33164408D01*
X134147035Y-33164539D01*
X134140420Y-33168790D01*
X131724900Y-35584310D01*
X131717759Y-35597386D01*
X51388176Y-35597386D01*
X49162812Y-33372022D01*
X49148868Y-33364408D01*
X49147035Y-33364539D01*
X49140420Y-33368790D01*
X46724900Y-35784310D01*
X46717759Y-35797386D01*
X41823621Y-35797386D01*
X40889028Y-34862793D01*
X40879927Y-34852651D01*
X40860068Y-34827952D01*
X40856208Y-34823151D01*
X40818014Y-34791102D01*
X40809911Y-34783676D01*
X39029535Y-33003301D01*
X45437084Y-33003301D01*
X45457080Y-33384833D01*
X45457766Y-33391371D01*
X45517535Y-33768734D01*
X45518906Y-33775184D01*
X45617788Y-34144216D01*
X45619829Y-34150498D01*
X45756740Y-34507164D01*
X45759422Y-34513189D01*
X45932872Y-34853603D01*
X45936169Y-34859313D01*
X46144253Y-35179735D01*
X46148123Y-35185061D01*
X46341478Y-35423835D01*
X46353733Y-35432300D01*
X46364824Y-35425966D01*
X48777978Y-33012812D01*
X48784356Y-33001132D01*
X49514408Y-33001132D01*
X49514539Y-33002965D01*
X49518790Y-33009580D01*
X51934310Y-35425100D01*
X51947386Y-35432241D01*
X51957753Y-35424784D01*
X52151877Y-35185061D01*
X52155747Y-35179735D01*
X52363831Y-34859313D01*
X52367128Y-34853603D01*
X52540578Y-34513189D01*
X52543260Y-34507164D01*
X52680171Y-34150498D01*
X52682212Y-34144216D01*
X52781094Y-33775184D01*
X52782465Y-33768734D01*
X52842234Y-33391371D01*
X52842920Y-33384833D01*
X52862916Y-33003301D01*
X52862916Y-32996699D01*
X52852780Y-32803301D01*
X130437084Y-32803301D01*
X130457080Y-33184833D01*
X130457766Y-33191371D01*
X130517535Y-33568734D01*
X130518906Y-33575184D01*
X130617788Y-33944216D01*
X130619829Y-33950498D01*
X130756740Y-34307164D01*
X130759422Y-34313189D01*
X130932872Y-34653603D01*
X130936169Y-34659313D01*
X131144253Y-34979735D01*
X131148123Y-34985061D01*
X131341478Y-35223835D01*
X131353733Y-35232300D01*
X131364824Y-35225966D01*
X133777978Y-32812812D01*
X133784356Y-32801132D01*
X134514408Y-32801132D01*
X134514539Y-32802965D01*
X134518790Y-32809580D01*
X136934310Y-35225100D01*
X136947386Y-35232241D01*
X136957753Y-35224784D01*
X137151877Y-34985061D01*
X137155747Y-34979735D01*
X137363831Y-34659313D01*
X137367128Y-34653603D01*
X137540578Y-34313189D01*
X137543260Y-34307164D01*
X137680171Y-33950498D01*
X137682212Y-33944216D01*
X137781094Y-33575184D01*
X137782465Y-33568734D01*
X137842234Y-33191371D01*
X137842920Y-33184833D01*
X137862916Y-32803301D01*
X137862916Y-32796699D01*
X137842920Y-32415167D01*
X137842234Y-32408629D01*
X137782465Y-32031266D01*
X137781094Y-32024816D01*
X137682212Y-31655784D01*
X137680171Y-31649502D01*
X137543260Y-31292836D01*
X137540578Y-31286811D01*
X137367128Y-30946397D01*
X137363831Y-30940687D01*
X137155747Y-30620265D01*
X137151877Y-30614939D01*
X136958522Y-30376165D01*
X136946267Y-30367700D01*
X136935176Y-30374034D01*
X134522022Y-32787188D01*
X134514408Y-32801132D01*
X133784356Y-32801132D01*
X133785592Y-32798868D01*
X133785461Y-32797035D01*
X133781210Y-32790420D01*
X131365690Y-30374900D01*
X131352614Y-30367759D01*
X131342247Y-30375216D01*
X131148123Y-30614939D01*
X131144253Y-30620265D01*
X130936169Y-30940687D01*
X130932872Y-30946397D01*
X130759422Y-31286811D01*
X130756740Y-31292836D01*
X130619829Y-31649502D01*
X130617788Y-31655784D01*
X130518906Y-32024816D01*
X130517535Y-32031266D01*
X130457766Y-32408629D01*
X130457080Y-32415167D01*
X130437084Y-32796699D01*
X130437084Y-32803301D01*
X52852780Y-32803301D01*
X52842920Y-32615167D01*
X52842234Y-32608629D01*
X52782465Y-32231266D01*
X52781094Y-32224816D01*
X52682212Y-31855784D01*
X52680171Y-31849502D01*
X52543260Y-31492836D01*
X52540578Y-31486811D01*
X52367128Y-31146397D01*
X52363831Y-31140687D01*
X52155747Y-30820265D01*
X52151877Y-30814939D01*
X51958522Y-30576165D01*
X51946267Y-30567700D01*
X51935176Y-30574034D01*
X49522022Y-32987188D01*
X49514408Y-33001132D01*
X48784356Y-33001132D01*
X48785592Y-32998868D01*
X48785461Y-32997035D01*
X48781210Y-32990420D01*
X46365690Y-30574900D01*
X46352614Y-30567759D01*
X46342247Y-30575216D01*
X46148123Y-30814939D01*
X46144253Y-30820265D01*
X45936169Y-31140687D01*
X45932872Y-31146397D01*
X45759422Y-31486811D01*
X45756740Y-31492836D01*
X45619829Y-31849502D01*
X45617788Y-31855784D01*
X45518906Y-32224816D01*
X45517535Y-32231266D01*
X45457766Y-32608629D01*
X45457080Y-32615167D01*
X45437084Y-32996699D01*
X45437084Y-33003301D01*
X39029535Y-33003301D01*
X38356855Y-32330621D01*
X38347753Y-32320478D01*
X38327897Y-32295782D01*
X38324032Y-32290975D01*
X38285578Y-32258708D01*
X38281931Y-32255528D01*
X38280119Y-32253885D01*
X38277925Y-32251691D01*
X38244651Y-32224358D01*
X38243853Y-32223696D01*
X38172526Y-32163846D01*
X38167856Y-32161278D01*
X38163739Y-32157897D01*
X38081914Y-32114023D01*
X38080755Y-32113394D01*
X38004619Y-32071538D01*
X38004611Y-32071535D01*
X37999213Y-32068567D01*
X37994131Y-32066955D01*
X37989437Y-32064438D01*
X37900469Y-32037238D01*
X37899441Y-32036918D01*
X37810694Y-32008765D01*
X37805398Y-32008171D01*
X37800302Y-32006613D01*
X37707743Y-31997210D01*
X37706607Y-31997089D01*
X37672992Y-31993319D01*
X37660270Y-31991892D01*
X37660266Y-31991892D01*
X37656773Y-31991500D01*
X37653246Y-31991500D01*
X37652261Y-31991445D01*
X37646581Y-31990998D01*
X37615421Y-31987833D01*
X37609663Y-31987248D01*
X37609661Y-31987248D01*
X37603538Y-31986626D01*
X37592867Y-31987635D01*
X37590768Y-31987833D01*
X37521068Y-31974330D01*
X37499020Y-31959826D01*
X37432570Y-31905341D01*
X37397245Y-31876376D01*
X37387279Y-31870703D01*
X37365265Y-31858171D01*
X37315959Y-31807088D01*
X37302098Y-31737458D01*
X37328082Y-31671387D01*
X37357232Y-31644149D01*
X37474578Y-31565148D01*
X37482870Y-31558481D01*
X37641900Y-31406772D01*
X37648941Y-31398814D01*
X37780141Y-31222475D01*
X37785745Y-31213438D01*
X37885357Y-31017516D01*
X37889357Y-31007665D01*
X37954534Y-30797760D01*
X37956817Y-30787376D01*
X37958861Y-30771957D01*
X37956665Y-30757793D01*
X37943478Y-30754000D01*
X35058808Y-30754000D01*
X35045277Y-30757973D01*
X35043752Y-30768580D01*
X35068477Y-30886421D01*
X35071537Y-30896617D01*
X35152263Y-31101029D01*
X35156994Y-31110561D01*
X35271016Y-31298462D01*
X35277280Y-31307052D01*
X35421327Y-31473052D01*
X35428958Y-31480472D01*
X35598911Y-31619826D01*
X35607674Y-31625848D01*
X35634711Y-31641238D01*
X35684018Y-31692320D01*
X35697880Y-31761951D01*
X35671897Y-31828022D01*
X35642747Y-31855261D01*
X35615310Y-31873733D01*
X35520681Y-31937441D01*
X35516824Y-31941120D01*
X35516822Y-31941122D01*
X35464070Y-31991445D01*
X35353865Y-32096576D01*
X35216246Y-32281542D01*
X35213830Y-32286293D01*
X35213828Y-32286297D01*
X35164003Y-32384297D01*
X35111760Y-32487051D01*
X35110178Y-32492145D01*
X35110177Y-32492148D01*
X35068001Y-32627978D01*
X35043393Y-32707227D01*
X35042692Y-32712516D01*
X35027304Y-32828623D01*
X35013102Y-32935774D01*
X35013302Y-32941103D01*
X35013302Y-32941105D01*
X35015156Y-32990479D01*
X35021751Y-33166158D01*
X35069093Y-33391791D01*
X35071051Y-33396750D01*
X35071052Y-33396752D01*
X35144910Y-33583770D01*
X35153776Y-33606221D01*
X35156543Y-33610780D01*
X35156544Y-33610783D01*
X35218998Y-33713703D01*
X35273377Y-33803317D01*
X35276874Y-33807347D01*
X35416034Y-33967715D01*
X35424477Y-33977445D01*
X35460120Y-34006670D01*
X35500114Y-34065329D01*
X35502046Y-34136299D01*
X35465302Y-34197048D01*
X35446532Y-34211248D01*
X35373891Y-34256200D01*
X35300652Y-34301522D01*
X35295479Y-34306704D01*
X35265786Y-34336449D01*
X35175695Y-34426697D01*
X35171855Y-34432927D01*
X35171854Y-34432928D01*
X35120367Y-34516456D01*
X35082885Y-34577262D01*
X35080581Y-34584209D01*
X35047669Y-34683437D01*
X35027203Y-34745139D01*
X35026503Y-34751975D01*
X35026502Y-34751978D01*
X35022855Y-34787571D01*
X35016500Y-34849600D01*
X35016500Y-36150400D01*
X35016837Y-36153646D01*
X35016837Y-36153650D01*
X35026288Y-36244733D01*
X35027474Y-36256166D01*
X35029655Y-36262702D01*
X35029655Y-36262704D01*
X35050120Y-36324045D01*
X35083450Y-36423946D01*
X35176522Y-36574348D01*
X35181704Y-36579521D01*
X35227085Y-36624823D01*
X35301697Y-36699305D01*
X35307927Y-36703145D01*
X35307928Y-36703146D01*
X35445090Y-36787694D01*
X35452262Y-36792115D01*
X35528154Y-36817287D01*
X35613611Y-36845632D01*
X35613613Y-36845632D01*
X35620139Y-36847797D01*
X35626975Y-36848497D01*
X35626978Y-36848498D01*
X35670031Y-36852909D01*
X35724600Y-36858500D01*
X37275400Y-36858500D01*
X37278646Y-36858163D01*
X37278650Y-36858163D01*
X37374308Y-36848238D01*
X37374312Y-36848237D01*
X37381166Y-36847526D01*
X37387702Y-36845345D01*
X37387704Y-36845345D01*
X37519806Y-36801272D01*
X37548946Y-36791550D01*
X37699348Y-36698478D01*
X37824305Y-36573303D01*
X37838313Y-36550578D01*
X37913275Y-36428968D01*
X37913276Y-36428966D01*
X37917115Y-36422738D01*
X37945907Y-36335932D01*
X37986337Y-36277572D01*
X38051901Y-36250335D01*
X38121783Y-36262868D01*
X38173795Y-36311193D01*
X38191500Y-36375599D01*
X38191500Y-37049769D01*
X38191800Y-37052825D01*
X38191800Y-37052832D01*
X38195069Y-37086169D01*
X38205920Y-37196833D01*
X38207702Y-37202734D01*
X38207702Y-37202736D01*
X38210836Y-37213115D01*
X38263084Y-37386169D01*
X38355934Y-37560796D01*
X38420197Y-37639590D01*
X38477040Y-37709287D01*
X38477043Y-37709290D01*
X38480935Y-37714062D01*
X38485682Y-37717989D01*
X38485684Y-37717991D01*
X38547241Y-37768915D01*
X38586980Y-37827749D01*
X38588602Y-37898727D01*
X38551592Y-37959314D01*
X38487702Y-37990275D01*
X38466926Y-37992000D01*
X17170553Y-37992000D01*
X17107337Y-37974994D01*
X13570783Y-35923792D01*
X13521892Y-35872313D01*
X13508000Y-35814799D01*
X13508000Y-30185201D01*
X13528002Y-30117080D01*
X13570783Y-30076208D01*
X17107340Y-28025006D01*
X17170555Y-28008000D01*
X26815129Y-28008000D01*
X26883250Y-28028002D01*
G37*
%TD.AperFunction*%
%TA.AperFunction,Conductor*%
G36*
X155301748Y-28978502D02*
G01*
X155322722Y-28995405D01*
X156879875Y-30552558D01*
X156910613Y-30602716D01*
X156965473Y-30771558D01*
X156968776Y-30777280D01*
X156968777Y-30777281D01*
X157024619Y-30874001D01*
X157041500Y-30937001D01*
X157041500Y-32633629D01*
X157021498Y-32701750D01*
X157004595Y-32722724D01*
X155293793Y-34433526D01*
X155231481Y-34467552D01*
X155160666Y-34462487D01*
X155103830Y-34419940D01*
X155084865Y-34383367D01*
X155062063Y-34313189D01*
X155034527Y-34228444D01*
X155022984Y-34208450D01*
X154988912Y-34149437D01*
X154975381Y-34126000D01*
X154958500Y-34063001D01*
X154958500Y-31852800D01*
X154959933Y-31833850D01*
X154962099Y-31819615D01*
X154962099Y-31819611D01*
X154963199Y-31812381D01*
X154961573Y-31792383D01*
X154958915Y-31759712D01*
X154958500Y-31749497D01*
X154958500Y-31741437D01*
X154955209Y-31713210D01*
X154954778Y-31708851D01*
X154953434Y-31692320D01*
X154949951Y-31649502D01*
X154949454Y-31643392D01*
X154949453Y-31643389D01*
X154948860Y-31636094D01*
X154946604Y-31629130D01*
X154945417Y-31623191D01*
X154944030Y-31617320D01*
X154943182Y-31610049D01*
X154940686Y-31603173D01*
X154940684Y-31603164D01*
X154918275Y-31541432D01*
X154916865Y-31537328D01*
X154894352Y-31467831D01*
X154890556Y-31461576D01*
X154888057Y-31456117D01*
X154885329Y-31450669D01*
X154882833Y-31443793D01*
X154842805Y-31382740D01*
X154840481Y-31379057D01*
X154805500Y-31321410D01*
X154805499Y-31321409D01*
X154802595Y-31316623D01*
X154795198Y-31308247D01*
X154795225Y-31308223D01*
X154792570Y-31305229D01*
X154789868Y-31301998D01*
X154785856Y-31295878D01*
X154729617Y-31242602D01*
X154727175Y-31240224D01*
X152660546Y-29173595D01*
X152626520Y-29111283D01*
X152631585Y-29040468D01*
X152674132Y-28983632D01*
X152740652Y-28958821D01*
X152749641Y-28958500D01*
X155233627Y-28958500D01*
X155301748Y-28978502D01*
G37*
%TD.AperFunction*%
%TD*%
M02*
