M48
; DRILL file {KiCad (6.0.0)} date Thu Jul 21 11:26:25 2022
; FORMAT={-:-/ absolute / inch / decimal}
; #@! TF.CreationDate,2022-07-21T11:26:25+02:00
; #@! TF.GenerationSoftware,Kicad,Pcbnew,(6.0.0)
; #@! TF.FileFunction,Plated,1,2,PTH
FMAT,2
INCH
; #@! TA.AperFunction,Plated,PTH,ViaDrill
T1C0.0157
; #@! TA.AperFunction,Plated,PTH,ComponentDrill
T2C0.0197
; #@! TA.AperFunction,Plated,PTH,ComponentDrill
T3C0.0374
; #@! TA.AperFunction,Plated,PTH,ComponentDrill
T4C0.0394
; #@! TA.AperFunction,Plated,PTH,ComponentDrill
T5C0.1260
%
G90
G05
T1
X1.1024Y-1.2402
X1.2677Y-1.2677
X1.3701Y-1.2677
X1.5433Y-1.4567
X1.5906Y-1.4567
X1.6378Y-1.4567
X1.6535Y-1.2402
X2.1063Y-1.2992
X2.4016Y-1.2677
X2.7559Y-1.2402
X2.9606Y-1.2697
X3.3268Y-1.2185
X3.5148Y-1.2352
X3.8829Y-1.2146
X4.0709Y-1.2618
X4.2232Y-1.1604
X4.4291Y-1.2402
X4.6299Y-1.2677
X5.0Y-1.2402
X5.4508Y-1.2913
X5.5571Y-1.2402
X5.7185Y-1.2441
X6.1024Y-1.2402
T2
X1.8406Y-1.2992
X1.8682Y-1.2324
X1.8682Y-1.366
X1.935Y-1.2047
X1.935Y-1.3937
X2.0019Y-1.2324
X2.0019Y-1.366
X2.0295Y-1.2992
X5.187Y-1.2913
X5.2147Y-1.2245
X5.2147Y-1.3582
X5.2815Y-1.1969
X5.2815Y-1.3858
X5.3483Y-1.2245
X5.3483Y-1.3582
X5.376Y-1.2913
T3
X1.437Y-1.2008
X1.437Y-1.2992
X1.437Y-1.3976
T4
X0.9213Y-1.2992
X6.3031Y-1.2992
T5
X1.935Y-1.2992
X5.2815Y-1.2913
T0
M30
