%TF.GenerationSoftware,KiCad,Pcbnew,(6.0.0)*%
%TF.CreationDate,2022-07-21T11:26:25+02:00*%
%TF.ProjectId,Rainbow_Matchstick,5261696e-626f-4775-9f4d-617463687374,rev?*%
%TF.SameCoordinates,Original*%
%TF.FileFunction,Legend,Top*%
%TF.FilePolarity,Positive*%
%FSLAX46Y46*%
G04 Gerber Fmt 4.6, Leading zero omitted, Abs format (unit mm)*
G04 Created by KiCad (PCBNEW (6.0.0)) date 2022-07-21 11:26:25*
%MOMM*%
%LPD*%
G01*
G04 APERTURE LIST*
%ADD10C,0.120000*%
%ADD11C,0.380156*%
G04 APERTURE END LIST*
D10*
%TO.C,C6*%
X120855855Y-32738748D02*
X120855855Y-33261252D01*
X119385855Y-32738748D02*
X119385855Y-33261252D01*
%TO.C,D2*%
X45801658Y-35750000D02*
X38501658Y-35750000D01*
X45801658Y-30250000D02*
X38501658Y-30250000D01*
D11*
X45941736Y-34600000D02*
G75*
G03*
X45941736Y-34600000I-190078J0D01*
G01*
D10*
X38501658Y-30250000D02*
X39501658Y-30256800D01*
X39501658Y-30256800D02*
X38501658Y-31150000D01*
X38501658Y-31150000D02*
X38501658Y-30250000D01*
G36*
X39501658Y-30256800D02*
G01*
X38501658Y-31150000D01*
X38501658Y-30250000D01*
X39501658Y-30256800D01*
G37*
X39501658Y-30256800D02*
X38501658Y-31150000D01*
X38501658Y-30250000D01*
X39501658Y-30256800D01*
%TO.C,D1*%
X31650000Y-35750000D02*
X24350000Y-35750000D01*
X31650000Y-30250000D02*
X24350000Y-30250000D01*
D11*
X31790078Y-34600000D02*
G75*
G03*
X31790078Y-34600000I-190078J0D01*
G01*
D10*
X24350000Y-30250000D02*
X25350000Y-30256800D01*
X25350000Y-30256800D02*
X24350000Y-31150000D01*
X24350000Y-31150000D02*
X24350000Y-30250000D01*
G36*
X25350000Y-30256800D02*
G01*
X24350000Y-31150000D01*
X24350000Y-30250000D01*
X25350000Y-30256800D01*
G37*
X25350000Y-30256800D02*
X24350000Y-31150000D01*
X24350000Y-30250000D01*
X25350000Y-30256800D01*
%TO.C,C2*%
X64249223Y-32738748D02*
X64249223Y-33261252D01*
X62779223Y-32738748D02*
X62779223Y-33261252D01*
%TO.C,D8*%
X130711606Y-30250000D02*
X123411606Y-30250000D01*
X130711606Y-35750000D02*
X123411606Y-35750000D01*
D11*
X130851684Y-34600000D02*
G75*
G03*
X130851684Y-34600000I-190078J0D01*
G01*
D10*
X123411606Y-30250000D02*
X124411606Y-30256800D01*
X124411606Y-30256800D02*
X123411606Y-31150000D01*
X123411606Y-31150000D02*
X123411606Y-30250000D01*
G36*
X124411606Y-30256800D02*
G01*
X123411606Y-31150000D01*
X123411606Y-30250000D01*
X124411606Y-30256800D01*
G37*
X124411606Y-30256800D02*
X123411606Y-31150000D01*
X123411606Y-30250000D01*
X124411606Y-30256800D01*
%TO.C,C4*%
X92552539Y-32738748D02*
X92552539Y-33261252D01*
X91082539Y-32738748D02*
X91082539Y-33261252D01*
%TO.C,C5*%
X105234197Y-32738748D02*
X105234197Y-33261252D01*
X106704197Y-32738748D02*
X106704197Y-33261252D01*
%TO.C,D10*%
X159014922Y-30250000D02*
X151714922Y-30250000D01*
X159014922Y-35750000D02*
X151714922Y-35750000D01*
D11*
X159155000Y-34600000D02*
G75*
G03*
X159155000Y-34600000I-190078J0D01*
G01*
D10*
X151714922Y-30250000D02*
X152714922Y-30256800D01*
X152714922Y-30256800D02*
X151714922Y-31150000D01*
X151714922Y-31150000D02*
X151714922Y-30250000D01*
G36*
X152714922Y-30256800D02*
G01*
X151714922Y-31150000D01*
X151714922Y-30250000D01*
X152714922Y-30256800D01*
G37*
X152714922Y-30256800D02*
X151714922Y-31150000D01*
X151714922Y-30250000D01*
X152714922Y-30256800D01*
%TO.C,C1*%
X34235000Y-32738748D02*
X34235000Y-33261252D01*
X32765000Y-32738748D02*
X32765000Y-33261252D01*
%TO.C,C7*%
X147689171Y-32738748D02*
X147689171Y-33261252D01*
X149159171Y-32738748D02*
X149159171Y-33261252D01*
%TO.C,D7*%
X116559948Y-35750000D02*
X109259948Y-35750000D01*
X116559948Y-30250000D02*
X109259948Y-30250000D01*
D11*
X116700026Y-34600000D02*
G75*
G03*
X116700026Y-34600000I-190078J0D01*
G01*
D10*
X109259948Y-30250000D02*
X110259948Y-30256800D01*
X110259948Y-30256800D02*
X109259948Y-31150000D01*
X109259948Y-31150000D02*
X109259948Y-30250000D01*
G36*
X110259948Y-30256800D02*
G01*
X109259948Y-31150000D01*
X109259948Y-30250000D01*
X110259948Y-30256800D01*
G37*
X110259948Y-30256800D02*
X109259948Y-31150000D01*
X109259948Y-30250000D01*
X110259948Y-30256800D01*
%TO.C,D9*%
X144863264Y-35750000D02*
X137563264Y-35750000D01*
X144863264Y-30250000D02*
X137563264Y-30250000D01*
D11*
X145003342Y-34600000D02*
G75*
G03*
X145003342Y-34600000I-190078J0D01*
G01*
D10*
X137563264Y-30250000D02*
X138563264Y-30256800D01*
X138563264Y-30256800D02*
X137563264Y-31150000D01*
X137563264Y-31150000D02*
X137563264Y-30250000D01*
G36*
X138563264Y-30256800D02*
G01*
X137563264Y-31150000D01*
X137563264Y-30250000D01*
X138563264Y-30256800D01*
G37*
X138563264Y-30256800D02*
X137563264Y-31150000D01*
X137563264Y-30250000D01*
X138563264Y-30256800D01*
%TO.C,D5*%
X88256632Y-30250000D02*
X80956632Y-30250000D01*
X88256632Y-35750000D02*
X80956632Y-35750000D01*
D11*
X88396710Y-34600000D02*
G75*
G03*
X88396710Y-34600000I-190078J0D01*
G01*
D10*
X80956632Y-30250000D02*
X81956632Y-30256800D01*
X81956632Y-30256800D02*
X80956632Y-31150000D01*
X80956632Y-31150000D02*
X80956632Y-30250000D01*
G36*
X81956632Y-30256800D02*
G01*
X80956632Y-31150000D01*
X80956632Y-30250000D01*
X81956632Y-30256800D01*
G37*
X81956632Y-30256800D02*
X80956632Y-31150000D01*
X80956632Y-30250000D01*
X81956632Y-30256800D01*
%TO.C,D6*%
X102408290Y-35750000D02*
X95108290Y-35750000D01*
X102408290Y-30250000D02*
X95108290Y-30250000D01*
D11*
X102548368Y-34600000D02*
G75*
G03*
X102548368Y-34600000I-190078J0D01*
G01*
D10*
X95108290Y-30250000D02*
X96108290Y-30256800D01*
X96108290Y-30256800D02*
X95108290Y-31150000D01*
X95108290Y-31150000D02*
X95108290Y-30250000D01*
G36*
X96108290Y-30256800D02*
G01*
X95108290Y-31150000D01*
X95108290Y-30250000D01*
X96108290Y-30256800D01*
G37*
X96108290Y-30256800D02*
X95108290Y-31150000D01*
X95108290Y-30250000D01*
X96108290Y-30256800D01*
%TO.C,C3*%
X76930881Y-32738748D02*
X76930881Y-33261252D01*
X78400881Y-32738748D02*
X78400881Y-33261252D01*
%TO.C,D4*%
X74104974Y-30250000D02*
X66804974Y-30250000D01*
X74104974Y-35750000D02*
X66804974Y-35750000D01*
D11*
X74245052Y-34600000D02*
G75*
G03*
X74245052Y-34600000I-190078J0D01*
G01*
D10*
X66804974Y-30250000D02*
X67804974Y-30256800D01*
X67804974Y-30256800D02*
X66804974Y-31150000D01*
X66804974Y-31150000D02*
X66804974Y-30250000D01*
G36*
X67804974Y-30256800D02*
G01*
X66804974Y-31150000D01*
X66804974Y-30250000D01*
X67804974Y-30256800D01*
G37*
X67804974Y-30256800D02*
X66804974Y-31150000D01*
X66804974Y-30250000D01*
X67804974Y-30256800D01*
%TO.C,D3*%
X59953316Y-35750000D02*
X52653316Y-35750000D01*
X59953316Y-30250000D02*
X52653316Y-30250000D01*
D11*
X60093394Y-34600000D02*
G75*
G03*
X60093394Y-34600000I-190078J0D01*
G01*
D10*
X52653316Y-30250000D02*
X53653316Y-30256800D01*
X53653316Y-30256800D02*
X52653316Y-31150000D01*
X52653316Y-31150000D02*
X52653316Y-30250000D01*
G36*
X53653316Y-30256800D02*
G01*
X52653316Y-31150000D01*
X52653316Y-30250000D01*
X53653316Y-30256800D01*
G37*
X53653316Y-30256800D02*
X52653316Y-31150000D01*
X52653316Y-30250000D01*
X53653316Y-30256800D01*
%TD*%
M02*
