%TF.GenerationSoftware,KiCad,Pcbnew,(6.0.0)*%
%TF.CreationDate,2022-09-21T13:58:56+02:00*%
%TF.ProjectId,Daylight_Disco,4461796c-6967-4687-945f-446973636f2e,rev?*%
%TF.SameCoordinates,Original*%
%TF.FileFunction,Paste,Top*%
%TF.FilePolarity,Positive*%
%FSLAX46Y46*%
G04 Gerber Fmt 4.6, Leading zero omitted, Abs format (unit mm)*
G04 Created by KiCad (PCBNEW (6.0.0)) date 2022-09-21 13:58:56*
%MOMM*%
%LPD*%
G01*
G04 APERTURE LIST*
G04 Aperture macros list*
%AMRoundRect*
0 Rectangle with rounded corners*
0 $1 Rounding radius*
0 $2 $3 $4 $5 $6 $7 $8 $9 X,Y pos of 4 corners*
0 Add a 4 corners polygon primitive as box body*
4,1,4,$2,$3,$4,$5,$6,$7,$8,$9,$2,$3,0*
0 Add four circle primitives for the rounded corners*
1,1,$1+$1,$2,$3*
1,1,$1+$1,$4,$5*
1,1,$1+$1,$6,$7*
1,1,$1+$1,$8,$9*
0 Add four rect primitives between the rounded corners*
20,1,$1+$1,$2,$3,$4,$5,0*
20,1,$1+$1,$4,$5,$6,$7,0*
20,1,$1+$1,$6,$7,$8,$9,0*
20,1,$1+$1,$8,$9,$2,$3,0*%
G04 Aperture macros list end*
%ADD10RoundRect,0.250000X-0.475000X0.337500X-0.475000X-0.337500X0.475000X-0.337500X0.475000X0.337500X0*%
%ADD11R,1.500000X1.000000*%
G04 APERTURE END LIST*
D10*
%TO.C,C6*%
X119500000Y-31962500D03*
X119500000Y-34037500D03*
%TD*%
D11*
%TO.C,D16*%
X242214705Y-34600000D03*
X242214705Y-31400000D03*
X237314705Y-31400000D03*
X237314705Y-34600000D03*
%TD*%
%TO.C,D2*%
X44567647Y-34600000D03*
X44567647Y-31400000D03*
X39667647Y-31400000D03*
X39667647Y-34600000D03*
%TD*%
%TO.C,D1*%
X30450000Y-34600000D03*
X30450000Y-31400000D03*
X25550000Y-31400000D03*
X25550000Y-34600000D03*
%TD*%
D10*
%TO.C,C14*%
X233000000Y-31962500D03*
X233000000Y-34037500D03*
%TD*%
D11*
%TO.C,D12*%
X185744117Y-34600000D03*
X185744117Y-31400000D03*
X180844117Y-31400000D03*
X180844117Y-34600000D03*
%TD*%
D10*
%TO.C,C2*%
X63000000Y-31962500D03*
X63000000Y-34037500D03*
%TD*%
D11*
%TO.C,D14*%
X213979411Y-34600000D03*
X213979411Y-31400000D03*
X209079411Y-31400000D03*
X209079411Y-34600000D03*
%TD*%
%TO.C,D13*%
X199861764Y-34600000D03*
X199861764Y-31400000D03*
X194961764Y-31400000D03*
X194961764Y-34600000D03*
%TD*%
D10*
%TO.C,C7*%
X134000000Y-31962500D03*
X134000000Y-34037500D03*
%TD*%
D11*
%TO.C,D8*%
X129273529Y-34600000D03*
X129273529Y-31400000D03*
X124373529Y-31400000D03*
X124373529Y-34600000D03*
%TD*%
D10*
%TO.C,C4*%
X91500000Y-31962500D03*
X91500000Y-34037500D03*
%TD*%
%TO.C,C5*%
X105500000Y-31962500D03*
X105500000Y-34037500D03*
%TD*%
%TO.C,C15*%
X261000000Y-31962500D03*
X261000000Y-34037500D03*
%TD*%
D11*
%TO.C,D10*%
X157508823Y-34600000D03*
X157508823Y-31400000D03*
X152608823Y-31400000D03*
X152608823Y-34600000D03*
%TD*%
%TO.C,D15*%
X228097058Y-34600000D03*
X228097058Y-31400000D03*
X223197058Y-31400000D03*
X223197058Y-34600000D03*
%TD*%
D10*
%TO.C,C1*%
X33500000Y-31962500D03*
X33500000Y-34037500D03*
%TD*%
%TO.C,C8*%
X148000000Y-31962500D03*
X148000000Y-34037500D03*
%TD*%
%TO.C,C12*%
X204500000Y-31962500D03*
X204500000Y-34037500D03*
%TD*%
%TO.C,C9*%
X162250000Y-31962500D03*
X162250000Y-34037500D03*
%TD*%
D11*
%TO.C,D7*%
X115155882Y-34600000D03*
X115155882Y-31400000D03*
X110255882Y-31400000D03*
X110255882Y-34600000D03*
%TD*%
%TO.C,D9*%
X143391176Y-34600000D03*
X143391176Y-31400000D03*
X138491176Y-31400000D03*
X138491176Y-34600000D03*
%TD*%
%TO.C,D5*%
X86920588Y-34600000D03*
X86920588Y-31400000D03*
X82020588Y-31400000D03*
X82020588Y-34600000D03*
%TD*%
%TO.C,D11*%
X171626470Y-34600000D03*
X171626470Y-31400000D03*
X166726470Y-31400000D03*
X166726470Y-34600000D03*
%TD*%
D10*
%TO.C,C10*%
X176200000Y-31962500D03*
X176200000Y-34037500D03*
%TD*%
D11*
%TO.C,D6*%
X101038235Y-34600000D03*
X101038235Y-31400000D03*
X96138235Y-31400000D03*
X96138235Y-34600000D03*
%TD*%
D10*
%TO.C,C3*%
X77000000Y-31962500D03*
X77000000Y-34037500D03*
%TD*%
%TO.C,C13*%
X218500000Y-31962500D03*
X218500000Y-34037500D03*
%TD*%
D11*
%TO.C,D17*%
X256332352Y-34600000D03*
X256332352Y-31400000D03*
X251432352Y-31400000D03*
X251432352Y-34600000D03*
%TD*%
%TO.C,D4*%
X72802941Y-34600000D03*
X72802941Y-31400000D03*
X67902941Y-31400000D03*
X67902941Y-34600000D03*
%TD*%
D10*
%TO.C,C11*%
X190500000Y-31962500D03*
X190500000Y-34037500D03*
%TD*%
D11*
%TO.C,D3*%
X58685294Y-34600000D03*
X58685294Y-31400000D03*
X53785294Y-31400000D03*
X53785294Y-34600000D03*
%TD*%
%TO.C,D18*%
X270450000Y-34600000D03*
X270450000Y-31400000D03*
X265550000Y-31400000D03*
X265550000Y-34600000D03*
%TD*%
M02*
