%TF.GenerationSoftware,KiCad,Pcbnew,(6.0.0)*%
%TF.CreationDate,2022-09-21T13:58:56+02:00*%
%TF.ProjectId,Daylight_Disco,4461796c-6967-4687-945f-446973636f2e,rev?*%
%TF.SameCoordinates,Original*%
%TF.FileFunction,Copper,L2,Bot*%
%TF.FilePolarity,Positive*%
%FSLAX46Y46*%
G04 Gerber Fmt 4.6, Leading zero omitted, Abs format (unit mm)*
G04 Created by KiCad (PCBNEW (6.0.0)) date 2022-09-21 13:58:56*
%MOMM*%
%LPD*%
G01*
G04 APERTURE LIST*
G04 Aperture macros list*
%AMRoundRect*
0 Rectangle with rounded corners*
0 $1 Rounding radius*
0 $2 $3 $4 $5 $6 $7 $8 $9 X,Y pos of 4 corners*
0 Add a 4 corners polygon primitive as box body*
4,1,4,$2,$3,$4,$5,$6,$7,$8,$9,$2,$3,0*
0 Add four circle primitives for the rounded corners*
1,1,$1+$1,$2,$3*
1,1,$1+$1,$4,$5*
1,1,$1+$1,$6,$7*
1,1,$1+$1,$8,$9*
0 Add four rect primitives between the rounded corners*
20,1,$1+$1,$2,$3,$4,$5,0*
20,1,$1+$1,$4,$5,$6,$7,0*
20,1,$1+$1,$6,$7,$8,$9,0*
20,1,$1+$1,$8,$9,$2,$3,0*%
G04 Aperture macros list end*
%TA.AperFunction,ComponentPad*%
%ADD10C,0.800000*%
%TD*%
%TA.AperFunction,ComponentPad*%
%ADD11C,6.400000*%
%TD*%
%TA.AperFunction,ComponentPad*%
%ADD12RoundRect,0.250000X-0.725000X0.600000X-0.725000X-0.600000X0.725000X-0.600000X0.725000X0.600000X0*%
%TD*%
%TA.AperFunction,ComponentPad*%
%ADD13O,1.950000X1.700000*%
%TD*%
%TA.AperFunction,ComponentPad*%
%ADD14R,1.700000X1.700000*%
%TD*%
%TA.AperFunction,SMDPad,CuDef*%
%ADD15C,1.700000*%
%TD*%
%TA.AperFunction,SMDPad,CuDef*%
%ADD16R,3.768750X1.700000*%
%TD*%
%TA.AperFunction,ComponentPad*%
%ADD17RoundRect,0.250000X0.725000X-0.600000X0.725000X0.600000X-0.725000X0.600000X-0.725000X-0.600000X0*%
%TD*%
%TA.AperFunction,ViaPad*%
%ADD18C,0.800000*%
%TD*%
%TA.AperFunction,Conductor*%
%ADD19C,1.000000*%
%TD*%
%TA.AperFunction,Conductor*%
%ADD20C,0.500000*%
%TD*%
G04 APERTURE END LIST*
D10*
%TO.P,H2,1,1*%
%TO.N,GND*%
X244450000Y-33000000D03*
X245152944Y-34697056D03*
X246850000Y-35400000D03*
X248547056Y-34697056D03*
X249250000Y-33000000D03*
X245152944Y-31302944D03*
X246850000Y-30600000D03*
X248547056Y-31302944D03*
D11*
X246850000Y-33000000D03*
%TD*%
D10*
%TO.P,H1,1,1*%
%TO.N,GND*%
X49150000Y-35400000D03*
X47452944Y-34697056D03*
X50847056Y-31302944D03*
X49150000Y-30600000D03*
X51550000Y-33000000D03*
X50847056Y-34697056D03*
D11*
X49150000Y-33000000D03*
D10*
X47452944Y-31302944D03*
X46750000Y-33000000D03*
%TD*%
D12*
%TO.P,J2,1,Pin_1*%
%TO.N,GND*%
X263200000Y-30500000D03*
D13*
%TO.P,J2,2,Pin_2*%
%TO.N,+5V*%
X263200000Y-33000000D03*
%TO.P,J2,3,Pin_3*%
%TO.N,DOUT*%
X263200000Y-35500000D03*
%TD*%
D14*
%TO.P,J3,1,Pin_1*%
%TO.N,DOUT*%
X23400000Y-33000000D03*
D15*
X19800000Y-33000000D03*
D16*
X21700000Y-33000000D03*
%TD*%
D17*
%TO.P,J1,1,Pin_1*%
%TO.N,DIN*%
X36500000Y-35500000D03*
D13*
%TO.P,J1,2,Pin_2*%
%TO.N,+5V*%
X36500000Y-33000000D03*
%TO.P,J1,3,Pin_3*%
%TO.N,GND*%
X36500000Y-30500000D03*
%TD*%
D18*
%TO.N,+5V*%
X260600000Y-36700000D03*
X261700000Y-36700000D03*
%TO.N,GND*%
X117600000Y-32200000D03*
X242200000Y-29800000D03*
X75200000Y-32249500D03*
X34800000Y-32200000D03*
X226000000Y-31500000D03*
X98500000Y-31500000D03*
X112500000Y-31500000D03*
X53500000Y-33000000D03*
X155000000Y-31500000D03*
X268000000Y-31500000D03*
X141000000Y-31500000D03*
X231000000Y-32250000D03*
X61000000Y-32200000D03*
X259300000Y-31700000D03*
X132200000Y-32200000D03*
X254300000Y-29900000D03*
X216750000Y-32250000D03*
X127000000Y-31500000D03*
X174000000Y-32250000D03*
X240000000Y-31500000D03*
X211500000Y-31500000D03*
X197500000Y-31500000D03*
X42000000Y-31500000D03*
X89600000Y-32200000D03*
X145250000Y-31599500D03*
X256300000Y-29900000D03*
X70000000Y-31500000D03*
X183500000Y-31500000D03*
X32200000Y-32200000D03*
X254250000Y-31500000D03*
X188500000Y-32250000D03*
X251500000Y-33000000D03*
X240000000Y-29800000D03*
X103400000Y-32200000D03*
X84500000Y-31500000D03*
X169000000Y-31500000D03*
X202500000Y-32250000D03*
X28000000Y-31500000D03*
%TO.N,Net-(D17-Pad2)*%
X256400000Y-32400000D03*
X266900000Y-34500000D03*
%TO.N,+5V*%
X40400000Y-37000000D03*
X41600000Y-37000000D03*
X39200000Y-37000000D03*
%TO.N,DOUT*%
X270300000Y-30400000D03*
%TD*%
D19*
%TO.N,+5V*%
X262200000Y-33000000D02*
X260600000Y-34600000D01*
X263200000Y-33000000D02*
X262200000Y-33000000D01*
X260600000Y-34600000D02*
X260600000Y-36700000D01*
X261525480Y-36525480D02*
X261700000Y-36700000D01*
X261525480Y-34674520D02*
X261525480Y-36525480D01*
X263200000Y-33000000D02*
X261525480Y-34674520D01*
D20*
%TO.N,Net-(D17-Pad2)*%
X266900000Y-34500000D02*
X266900000Y-31800000D01*
X259599520Y-29200480D02*
X256400000Y-32400000D01*
X264300480Y-29200480D02*
X259599520Y-29200480D01*
X266900000Y-31800000D02*
X264300480Y-29200480D01*
D19*
%TO.N,+5V*%
X37600000Y-33000000D02*
X36500000Y-33000000D01*
X39200000Y-35532176D02*
X39200000Y-35800000D01*
X39200000Y-35532176D02*
X40132176Y-35532176D01*
X40132176Y-35532176D02*
X41600000Y-37000000D01*
X41600000Y-37000000D02*
X37600000Y-33000000D01*
X36667824Y-33000000D02*
X39200000Y-35532176D01*
X39200000Y-35532176D02*
X39200000Y-37000000D01*
X36500000Y-33000000D02*
X36667824Y-33000000D01*
X39200000Y-35800000D02*
X40400000Y-37000000D01*
D20*
%TO.N,DOUT*%
X27699030Y-28500970D02*
X267799030Y-28500970D01*
X267800000Y-35500000D02*
X263200000Y-35500000D01*
X270300000Y-30400000D02*
X270300000Y-33000000D01*
X267800000Y-28500000D02*
X268400000Y-28500000D01*
X270300000Y-33000000D02*
X267800000Y-35500000D01*
X267799030Y-28500970D02*
X267800000Y-28500000D01*
X23200000Y-33000000D02*
X27699030Y-28500970D01*
X268400000Y-28500000D02*
X270300000Y-30400000D01*
%TD*%
%TA.AperFunction,Conductor*%
%TO.N,GND*%
G36*
X26883250Y-28028002D02*
G01*
X26929743Y-28081658D01*
X26939847Y-28151932D01*
X26910353Y-28216512D01*
X26904224Y-28223095D01*
X23522724Y-31604595D01*
X23460412Y-31638621D01*
X23433629Y-31641500D01*
X19814985Y-31641500D01*
X19813446Y-31641491D01*
X19710081Y-31640228D01*
X19710079Y-31640228D01*
X19704911Y-31640165D01*
X19484091Y-31673955D01*
X19271756Y-31743357D01*
X19212909Y-31773991D01*
X19097852Y-31833886D01*
X19073607Y-31846507D01*
X19069474Y-31849610D01*
X19069471Y-31849612D01*
X18956632Y-31934334D01*
X18894965Y-31980635D01*
X18740629Y-32142138D01*
X18737715Y-32146410D01*
X18737714Y-32146411D01*
X18684230Y-32224816D01*
X18614743Y-32326680D01*
X18583597Y-32393779D01*
X18537936Y-32492148D01*
X18520688Y-32529305D01*
X18460989Y-32744570D01*
X18437251Y-32966695D01*
X18437548Y-32971848D01*
X18437548Y-32971851D01*
X18449053Y-33171377D01*
X18450110Y-33189715D01*
X18451247Y-33194761D01*
X18451248Y-33194767D01*
X18473335Y-33292773D01*
X18499222Y-33407639D01*
X18583266Y-33614616D01*
X18699987Y-33805088D01*
X18846250Y-33973938D01*
X19018126Y-34116632D01*
X19211000Y-34229338D01*
X19419692Y-34309030D01*
X19424760Y-34310061D01*
X19424763Y-34310062D01*
X19532379Y-34331957D01*
X19638597Y-34353567D01*
X19643772Y-34353757D01*
X19643774Y-34353757D01*
X19764620Y-34358188D01*
X19764601Y-34358697D01*
X19766316Y-34358372D01*
X19767491Y-34358500D01*
X19770892Y-34358500D01*
X19770929Y-34358502D01*
X19775443Y-34358585D01*
X19856673Y-34361564D01*
X19856677Y-34361564D01*
X19861837Y-34361753D01*
X19866957Y-34361097D01*
X19866959Y-34361097D01*
X19879261Y-34359521D01*
X19895271Y-34358500D01*
X24298134Y-34358500D01*
X24360316Y-34351745D01*
X24496705Y-34300615D01*
X24613261Y-34213261D01*
X24700615Y-34096705D01*
X24751745Y-33960316D01*
X24758500Y-33898134D01*
X24758500Y-32566371D01*
X24778502Y-32498250D01*
X24795405Y-32477276D01*
X27976306Y-29296375D01*
X28038618Y-29262349D01*
X28065401Y-29259470D01*
X35393343Y-29259470D01*
X35461464Y-29279472D01*
X35507957Y-29333128D01*
X35518061Y-29403402D01*
X35488567Y-29467982D01*
X35480315Y-29476639D01*
X35358100Y-29593228D01*
X35351059Y-29601186D01*
X35219859Y-29777525D01*
X35214255Y-29786562D01*
X35114643Y-29982484D01*
X35110643Y-29992335D01*
X35045466Y-30202240D01*
X35043183Y-30212624D01*
X35041139Y-30228043D01*
X35043335Y-30242207D01*
X35056522Y-30246000D01*
X37941192Y-30246000D01*
X37954723Y-30242027D01*
X37956248Y-30231420D01*
X37931523Y-30113579D01*
X37928463Y-30103383D01*
X37847737Y-29898971D01*
X37843006Y-29889439D01*
X37728984Y-29701538D01*
X37722720Y-29692948D01*
X37578673Y-29526948D01*
X37571043Y-29519528D01*
X37526376Y-29482904D01*
X37486381Y-29424245D01*
X37484450Y-29353274D01*
X37521194Y-29292526D01*
X37584949Y-29261287D01*
X37606267Y-29259470D01*
X47867671Y-29259470D01*
X47935792Y-29279472D01*
X47982285Y-29333128D01*
X47992389Y-29403402D01*
X47962895Y-29467982D01*
X47912825Y-29503101D01*
X47642836Y-29606740D01*
X47636811Y-29609422D01*
X47296397Y-29782872D01*
X47290687Y-29786169D01*
X46970265Y-29994253D01*
X46964939Y-29998123D01*
X46726165Y-30191478D01*
X46717700Y-30203733D01*
X46724034Y-30214824D01*
X49137188Y-32627978D01*
X49151132Y-32635592D01*
X49152965Y-32635461D01*
X49159580Y-32631210D01*
X51575100Y-30215690D01*
X51582241Y-30202614D01*
X51574784Y-30192247D01*
X51335065Y-29998126D01*
X51329728Y-29994249D01*
X51009315Y-29786170D01*
X51003606Y-29782873D01*
X50663189Y-29609422D01*
X50657164Y-29606740D01*
X50387175Y-29503101D01*
X50330747Y-29460015D01*
X50306570Y-29393262D01*
X50322321Y-29324035D01*
X50372999Y-29274313D01*
X50432329Y-29259470D01*
X245567671Y-29259470D01*
X245635792Y-29279472D01*
X245682285Y-29333128D01*
X245692389Y-29403402D01*
X245662895Y-29467982D01*
X245612825Y-29503101D01*
X245342836Y-29606740D01*
X245336811Y-29609422D01*
X244996397Y-29782872D01*
X244990687Y-29786169D01*
X244670265Y-29994253D01*
X244664939Y-29998123D01*
X244426165Y-30191478D01*
X244417700Y-30203733D01*
X244424034Y-30214824D01*
X246837188Y-32627978D01*
X246851132Y-32635592D01*
X246852965Y-32635461D01*
X246859580Y-32631210D01*
X249275100Y-30215690D01*
X249282241Y-30202614D01*
X249274784Y-30192247D01*
X249035065Y-29998126D01*
X249029728Y-29994249D01*
X248709315Y-29786170D01*
X248703606Y-29782873D01*
X248363189Y-29609422D01*
X248357164Y-29606740D01*
X248087175Y-29503101D01*
X248030747Y-29460015D01*
X248006570Y-29393262D01*
X248022321Y-29324035D01*
X248072999Y-29274313D01*
X248132329Y-29259470D01*
X258163659Y-29259470D01*
X258231780Y-29279472D01*
X258278273Y-29333128D01*
X258288377Y-29403402D01*
X258258883Y-29467982D01*
X258252754Y-29474565D01*
X256243669Y-31483650D01*
X256180772Y-31517801D01*
X256124176Y-31529831D01*
X256124167Y-31529834D01*
X256117712Y-31531206D01*
X256111682Y-31533891D01*
X256111681Y-31533891D01*
X255949278Y-31606197D01*
X255949276Y-31606198D01*
X255943248Y-31608882D01*
X255788747Y-31721134D01*
X255784326Y-31726044D01*
X255784325Y-31726045D01*
X255667979Y-31855261D01*
X255660960Y-31863056D01*
X255607741Y-31955234D01*
X255570829Y-32019168D01*
X255565473Y-32028444D01*
X255506458Y-32210072D01*
X255505768Y-32216633D01*
X255505768Y-32216635D01*
X255498372Y-32287008D01*
X255486496Y-32400000D01*
X255487186Y-32406565D01*
X255495146Y-32482296D01*
X255506458Y-32589928D01*
X255565473Y-32771556D01*
X255660960Y-32936944D01*
X255665378Y-32941851D01*
X255665379Y-32941852D01*
X255720708Y-33003301D01*
X255788747Y-33078866D01*
X255810114Y-33094390D01*
X255913615Y-33169588D01*
X255943248Y-33191118D01*
X255949276Y-33193802D01*
X255949278Y-33193803D01*
X256082640Y-33253179D01*
X256117712Y-33268794D01*
X256205641Y-33287484D01*
X256298056Y-33307128D01*
X256298061Y-33307128D01*
X256304513Y-33308500D01*
X256495487Y-33308500D01*
X256501939Y-33307128D01*
X256501944Y-33307128D01*
X256594359Y-33287484D01*
X256682288Y-33268794D01*
X256717360Y-33253179D01*
X256850722Y-33193803D01*
X256850724Y-33193802D01*
X256856752Y-33191118D01*
X256886386Y-33169588D01*
X256989886Y-33094390D01*
X257011253Y-33078866D01*
X257079292Y-33003301D01*
X257134621Y-32941852D01*
X257134622Y-32941851D01*
X257139040Y-32936944D01*
X257234527Y-32771556D01*
X257289387Y-32602714D01*
X257320125Y-32552556D01*
X259876796Y-29995885D01*
X259939108Y-29961859D01*
X259965891Y-29958980D01*
X261591000Y-29958980D01*
X261659121Y-29978982D01*
X261705614Y-30032638D01*
X261717000Y-30084980D01*
X261717000Y-30227885D01*
X261721475Y-30243124D01*
X261722865Y-30244329D01*
X261730548Y-30246000D01*
X263328000Y-30246000D01*
X263396121Y-30266002D01*
X263442614Y-30319658D01*
X263454000Y-30372000D01*
X263454000Y-30628000D01*
X263433998Y-30696121D01*
X263380342Y-30742614D01*
X263328000Y-30754000D01*
X261735116Y-30754000D01*
X261719877Y-30758475D01*
X261718672Y-30759865D01*
X261717001Y-30767548D01*
X261717001Y-31147095D01*
X261717338Y-31153614D01*
X261727257Y-31249206D01*
X261730149Y-31262600D01*
X261781588Y-31416784D01*
X261787761Y-31429962D01*
X261873063Y-31567807D01*
X261882099Y-31579208D01*
X261996829Y-31693739D01*
X262008240Y-31702751D01*
X262112905Y-31767267D01*
X262160398Y-31820039D01*
X262171822Y-31890111D01*
X262143548Y-31955234D01*
X262084554Y-31994734D01*
X262057772Y-32000047D01*
X262042779Y-32001359D01*
X262019719Y-32003376D01*
X262019714Y-32003377D01*
X262013587Y-32003913D01*
X262008468Y-32005400D01*
X262003167Y-32005920D01*
X261914166Y-32032791D01*
X261913033Y-32033126D01*
X261829586Y-32057370D01*
X261829582Y-32057372D01*
X261823664Y-32059091D01*
X261818932Y-32061544D01*
X261813831Y-32063084D01*
X261808388Y-32065978D01*
X261731740Y-32106731D01*
X261730574Y-32107343D01*
X261670659Y-32138401D01*
X261648074Y-32150108D01*
X261643911Y-32153431D01*
X261639204Y-32155934D01*
X261634429Y-32159828D01*
X261634428Y-32159829D01*
X261567102Y-32214739D01*
X261566075Y-32215567D01*
X261529792Y-32244531D01*
X261529787Y-32244536D01*
X261527028Y-32246738D01*
X261524527Y-32249239D01*
X261523809Y-32249881D01*
X261519461Y-32253594D01*
X261485938Y-32280935D01*
X261482015Y-32285677D01*
X261482013Y-32285679D01*
X261456703Y-32316273D01*
X261448713Y-32325053D01*
X259930621Y-33843145D01*
X259920478Y-33852247D01*
X259890975Y-33875968D01*
X259871526Y-33899146D01*
X259858709Y-33914421D01*
X259855528Y-33918069D01*
X259853885Y-33919881D01*
X259851691Y-33922075D01*
X259824358Y-33955349D01*
X259823696Y-33956147D01*
X259763846Y-34027474D01*
X259761278Y-34032144D01*
X259757897Y-34036261D01*
X259729996Y-34088297D01*
X259714023Y-34118086D01*
X259713394Y-34119245D01*
X259671538Y-34195381D01*
X259671535Y-34195389D01*
X259668567Y-34200787D01*
X259666955Y-34205869D01*
X259664438Y-34210563D01*
X259637238Y-34299531D01*
X259636918Y-34300559D01*
X259608765Y-34389306D01*
X259608171Y-34394602D01*
X259606613Y-34399698D01*
X259603238Y-34432928D01*
X259597218Y-34492187D01*
X259597089Y-34493393D01*
X259591500Y-34543227D01*
X259591500Y-34546754D01*
X259591445Y-34547739D01*
X259590998Y-34553419D01*
X259586626Y-34596462D01*
X259587206Y-34602593D01*
X259590941Y-34642109D01*
X259591500Y-34653967D01*
X259591500Y-36749769D01*
X259591800Y-36752825D01*
X259591800Y-36752832D01*
X259595597Y-36791550D01*
X259605920Y-36896833D01*
X259607702Y-36902734D01*
X259607702Y-36902736D01*
X259613681Y-36922539D01*
X259663084Y-37086169D01*
X259755934Y-37260796D01*
X259826291Y-37347062D01*
X259877040Y-37409287D01*
X259877043Y-37409290D01*
X259880935Y-37414062D01*
X259885682Y-37417989D01*
X259885684Y-37417991D01*
X260028575Y-37536201D01*
X260028579Y-37536203D01*
X260033325Y-37540130D01*
X260207299Y-37634198D01*
X260396232Y-37692682D01*
X260402357Y-37693326D01*
X260402358Y-37693326D01*
X260586796Y-37712711D01*
X260586798Y-37712711D01*
X260592925Y-37713355D01*
X260675424Y-37705847D01*
X260783749Y-37695989D01*
X260783752Y-37695988D01*
X260789888Y-37695430D01*
X260795794Y-37693692D01*
X260795798Y-37693691D01*
X260973710Y-37641329D01*
X260973709Y-37641329D01*
X260979619Y-37639590D01*
X260985075Y-37636737D01*
X260985079Y-37636736D01*
X261091868Y-37580908D01*
X261161504Y-37567074D01*
X261209784Y-37581526D01*
X261302553Y-37631268D01*
X261310563Y-37635563D01*
X261329423Y-37641329D01*
X261493800Y-37691585D01*
X261493802Y-37691585D01*
X261499698Y-37693388D01*
X261519802Y-37695430D01*
X261690335Y-37712752D01*
X261690339Y-37712752D01*
X261696463Y-37713374D01*
X261805396Y-37703077D01*
X261887230Y-37695342D01*
X261887234Y-37695341D01*
X261893362Y-37694762D01*
X261899260Y-37693004D01*
X261899264Y-37693003D01*
X262076994Y-37640020D01*
X262076996Y-37640019D01*
X262082897Y-37638260D01*
X262257847Y-37546018D01*
X262411548Y-37421553D01*
X262538147Y-37269605D01*
X262632822Y-37095960D01*
X262687169Y-36922536D01*
X262726625Y-36863516D01*
X262791728Y-36835196D01*
X262829823Y-36836228D01*
X262942608Y-36856623D01*
X262942615Y-36856624D01*
X262946692Y-36857361D01*
X262963889Y-36858172D01*
X262969356Y-36858430D01*
X262969363Y-36858430D01*
X262970844Y-36858500D01*
X263382890Y-36858500D01*
X263449809Y-36852822D01*
X263549409Y-36844371D01*
X263549413Y-36844370D01*
X263554720Y-36843920D01*
X263559875Y-36842582D01*
X263559881Y-36842581D01*
X263772703Y-36787343D01*
X263772707Y-36787342D01*
X263777872Y-36786001D01*
X263782738Y-36783809D01*
X263782741Y-36783808D01*
X263983202Y-36693507D01*
X263988075Y-36691312D01*
X264179319Y-36562559D01*
X264191879Y-36550578D01*
X264304372Y-36443264D01*
X264346135Y-36403424D01*
X264416176Y-36309287D01*
X264472885Y-36266574D01*
X264517264Y-36258500D01*
X267732930Y-36258500D01*
X267751880Y-36259933D01*
X267766115Y-36262099D01*
X267766119Y-36262099D01*
X267773349Y-36263199D01*
X267780641Y-36262606D01*
X267780644Y-36262606D01*
X267826018Y-36258915D01*
X267836233Y-36258500D01*
X267844293Y-36258500D01*
X267857583Y-36256951D01*
X267872507Y-36255211D01*
X267876882Y-36254778D01*
X267942339Y-36249454D01*
X267942342Y-36249453D01*
X267949637Y-36248860D01*
X267956601Y-36246604D01*
X267962560Y-36245413D01*
X267968415Y-36244029D01*
X267975681Y-36243182D01*
X268044327Y-36218265D01*
X268048455Y-36216848D01*
X268110936Y-36196607D01*
X268110938Y-36196606D01*
X268117899Y-36194351D01*
X268124154Y-36190555D01*
X268129628Y-36188049D01*
X268135058Y-36185330D01*
X268141937Y-36182833D01*
X268202976Y-36142814D01*
X268206680Y-36140477D01*
X268269107Y-36102595D01*
X268277484Y-36095197D01*
X268277508Y-36095224D01*
X268280500Y-36092571D01*
X268283733Y-36089868D01*
X268289852Y-36085856D01*
X268343128Y-36029617D01*
X268345506Y-36027175D01*
X270788911Y-33583770D01*
X270803323Y-33571384D01*
X270814918Y-33562851D01*
X270814923Y-33562846D01*
X270820818Y-33558508D01*
X270825557Y-33552930D01*
X270825560Y-33552927D01*
X270855035Y-33518232D01*
X270861965Y-33510716D01*
X270867660Y-33505021D01*
X270885281Y-33482749D01*
X270888072Y-33479345D01*
X270930591Y-33429297D01*
X270930592Y-33429295D01*
X270935333Y-33423715D01*
X270938661Y-33417199D01*
X270942028Y-33412150D01*
X270945195Y-33407021D01*
X270949734Y-33401284D01*
X270980655Y-33335125D01*
X270982561Y-33331225D01*
X270994165Y-33308500D01*
X271015769Y-33266192D01*
X271017508Y-33259084D01*
X271019607Y-33253441D01*
X271021524Y-33247678D01*
X271024622Y-33241050D01*
X271039487Y-33169583D01*
X271040457Y-33165299D01*
X271056473Y-33099845D01*
X271057808Y-33094390D01*
X271058500Y-33083236D01*
X271058536Y-33083238D01*
X271058775Y-33079245D01*
X271059149Y-33075053D01*
X271060640Y-33067885D01*
X271058546Y-32990479D01*
X271058500Y-32987072D01*
X271058500Y-30936999D01*
X271075381Y-30873999D01*
X271080781Y-30864647D01*
X271134527Y-30771556D01*
X271193542Y-30589928D01*
X271195122Y-30574900D01*
X271212814Y-30406565D01*
X271213504Y-30400000D01*
X271205060Y-30319658D01*
X271194232Y-30216635D01*
X271194232Y-30216633D01*
X271193542Y-30210072D01*
X271134527Y-30028444D01*
X271114785Y-29994249D01*
X271094422Y-29958980D01*
X271039040Y-29863056D01*
X270911253Y-29721134D01*
X270756752Y-29608882D01*
X270750724Y-29606198D01*
X270750722Y-29606197D01*
X270588319Y-29533891D01*
X270588318Y-29533891D01*
X270582288Y-29531206D01*
X270575833Y-29529834D01*
X270575824Y-29529831D01*
X270519228Y-29517801D01*
X270456331Y-29483650D01*
X269195776Y-28223095D01*
X269161750Y-28160783D01*
X269166815Y-28089968D01*
X269209362Y-28033132D01*
X269275882Y-28008321D01*
X269284871Y-28008000D01*
X278829447Y-28008000D01*
X278892662Y-28025006D01*
X282336999Y-30022721D01*
X282429216Y-30076207D01*
X282478108Y-30127687D01*
X282492000Y-30185201D01*
X282492000Y-35814799D01*
X282471998Y-35882920D01*
X282429217Y-35923792D01*
X278892661Y-37974994D01*
X278829445Y-37992000D01*
X42333387Y-37992000D01*
X42265266Y-37971998D01*
X42218773Y-37918342D01*
X42208669Y-37848068D01*
X42238163Y-37783488D01*
X42254093Y-37768080D01*
X42306753Y-37725436D01*
X42311548Y-37721553D01*
X42336516Y-37691585D01*
X42434206Y-37574335D01*
X42434209Y-37574330D01*
X42438147Y-37569604D01*
X42532822Y-37395960D01*
X42591965Y-37207232D01*
X42603466Y-37101365D01*
X42612660Y-37016737D01*
X42612660Y-37016733D01*
X42613325Y-37010612D01*
X42602834Y-36890699D01*
X42596624Y-36819720D01*
X42596623Y-36819716D01*
X42596087Y-36813587D01*
X42589685Y-36791550D01*
X42540909Y-36623663D01*
X42449892Y-36448074D01*
X42419251Y-36409690D01*
X42355458Y-36329777D01*
X42355451Y-36329770D01*
X42353262Y-36327027D01*
X41823621Y-35797386D01*
X46717759Y-35797386D01*
X46725216Y-35807753D01*
X46964935Y-36001874D01*
X46970272Y-36005751D01*
X47290685Y-36213830D01*
X47296394Y-36217127D01*
X47636811Y-36390578D01*
X47642836Y-36393260D01*
X47999502Y-36530171D01*
X48005784Y-36532212D01*
X48374816Y-36631094D01*
X48381266Y-36632465D01*
X48758629Y-36692234D01*
X48765167Y-36692920D01*
X49146699Y-36712916D01*
X49153301Y-36712916D01*
X49534833Y-36692920D01*
X49541371Y-36692234D01*
X49918734Y-36632465D01*
X49925184Y-36631094D01*
X50294216Y-36532212D01*
X50300498Y-36530171D01*
X50657164Y-36393260D01*
X50663189Y-36390578D01*
X51003606Y-36217127D01*
X51009315Y-36213830D01*
X51329728Y-36005751D01*
X51335065Y-36001874D01*
X51573835Y-35808522D01*
X51581527Y-35797386D01*
X244417759Y-35797386D01*
X244425216Y-35807753D01*
X244664935Y-36001874D01*
X244670272Y-36005751D01*
X244990685Y-36213830D01*
X244996394Y-36217127D01*
X245336811Y-36390578D01*
X245342836Y-36393260D01*
X245699502Y-36530171D01*
X245705784Y-36532212D01*
X246074816Y-36631094D01*
X246081266Y-36632465D01*
X246458629Y-36692234D01*
X246465167Y-36692920D01*
X246846699Y-36712916D01*
X246853301Y-36712916D01*
X247234833Y-36692920D01*
X247241371Y-36692234D01*
X247618734Y-36632465D01*
X247625184Y-36631094D01*
X247994216Y-36532212D01*
X248000498Y-36530171D01*
X248357164Y-36393260D01*
X248363189Y-36390578D01*
X248703606Y-36217127D01*
X248709315Y-36213830D01*
X249029728Y-36005751D01*
X249035065Y-36001874D01*
X249273835Y-35808522D01*
X249282300Y-35796267D01*
X249275966Y-35785176D01*
X246862812Y-33372022D01*
X246848868Y-33364408D01*
X246847035Y-33364539D01*
X246840420Y-33368790D01*
X244424900Y-35784310D01*
X244417759Y-35797386D01*
X51581527Y-35797386D01*
X51582300Y-35796267D01*
X51575966Y-35785176D01*
X49162812Y-33372022D01*
X49148868Y-33364408D01*
X49147035Y-33364539D01*
X49140420Y-33368790D01*
X46724900Y-35784310D01*
X46717759Y-35797386D01*
X41823621Y-35797386D01*
X40889028Y-34862793D01*
X40879927Y-34852651D01*
X40860068Y-34827952D01*
X40856208Y-34823151D01*
X40818014Y-34791102D01*
X40809911Y-34783676D01*
X39029535Y-33003301D01*
X45437084Y-33003301D01*
X45457080Y-33384833D01*
X45457766Y-33391371D01*
X45517535Y-33768734D01*
X45518906Y-33775184D01*
X45617788Y-34144216D01*
X45619829Y-34150498D01*
X45756740Y-34507164D01*
X45759422Y-34513189D01*
X45932872Y-34853603D01*
X45936169Y-34859313D01*
X46144253Y-35179735D01*
X46148123Y-35185061D01*
X46341478Y-35423835D01*
X46353733Y-35432300D01*
X46364824Y-35425966D01*
X48777978Y-33012812D01*
X48784356Y-33001132D01*
X49514408Y-33001132D01*
X49514539Y-33002965D01*
X49518790Y-33009580D01*
X51934310Y-35425100D01*
X51947386Y-35432241D01*
X51957753Y-35424784D01*
X52151877Y-35185061D01*
X52155747Y-35179735D01*
X52363831Y-34859313D01*
X52367128Y-34853603D01*
X52540578Y-34513189D01*
X52543260Y-34507164D01*
X52680171Y-34150498D01*
X52682212Y-34144216D01*
X52781094Y-33775184D01*
X52782465Y-33768734D01*
X52842234Y-33391371D01*
X52842920Y-33384833D01*
X52862916Y-33003301D01*
X243137084Y-33003301D01*
X243157080Y-33384833D01*
X243157766Y-33391371D01*
X243217535Y-33768734D01*
X243218906Y-33775184D01*
X243317788Y-34144216D01*
X243319829Y-34150498D01*
X243456740Y-34507164D01*
X243459422Y-34513189D01*
X243632872Y-34853603D01*
X243636169Y-34859313D01*
X243844253Y-35179735D01*
X243848123Y-35185061D01*
X244041478Y-35423835D01*
X244053733Y-35432300D01*
X244064824Y-35425966D01*
X246477978Y-33012812D01*
X246484356Y-33001132D01*
X247214408Y-33001132D01*
X247214539Y-33002965D01*
X247218790Y-33009580D01*
X249634310Y-35425100D01*
X249647386Y-35432241D01*
X249657753Y-35424784D01*
X249851877Y-35185061D01*
X249855747Y-35179735D01*
X250063831Y-34859313D01*
X250067128Y-34853603D01*
X250240578Y-34513189D01*
X250243260Y-34507164D01*
X250380171Y-34150498D01*
X250382212Y-34144216D01*
X250481094Y-33775184D01*
X250482465Y-33768734D01*
X250542234Y-33391371D01*
X250542920Y-33384833D01*
X250562916Y-33003301D01*
X250562916Y-32996699D01*
X250542920Y-32615167D01*
X250542234Y-32608629D01*
X250482465Y-32231266D01*
X250481094Y-32224816D01*
X250382212Y-31855784D01*
X250380171Y-31849502D01*
X250243260Y-31492836D01*
X250240578Y-31486811D01*
X250067128Y-31146397D01*
X250063831Y-31140687D01*
X249855747Y-30820265D01*
X249851877Y-30814939D01*
X249658522Y-30576165D01*
X249646267Y-30567700D01*
X249635176Y-30574034D01*
X247222022Y-32987188D01*
X247214408Y-33001132D01*
X246484356Y-33001132D01*
X246485592Y-32998868D01*
X246485461Y-32997035D01*
X246481210Y-32990420D01*
X244065690Y-30574900D01*
X244052614Y-30567759D01*
X244042247Y-30575216D01*
X243848123Y-30814939D01*
X243844253Y-30820265D01*
X243636169Y-31140687D01*
X243632872Y-31146397D01*
X243459422Y-31486811D01*
X243456740Y-31492836D01*
X243319829Y-31849502D01*
X243317788Y-31855784D01*
X243218906Y-32224816D01*
X243217535Y-32231266D01*
X243157766Y-32608629D01*
X243157080Y-32615167D01*
X243137084Y-32996699D01*
X243137084Y-33003301D01*
X52862916Y-33003301D01*
X52862916Y-32996699D01*
X52842920Y-32615167D01*
X52842234Y-32608629D01*
X52782465Y-32231266D01*
X52781094Y-32224816D01*
X52682212Y-31855784D01*
X52680171Y-31849502D01*
X52543260Y-31492836D01*
X52540578Y-31486811D01*
X52367128Y-31146397D01*
X52363831Y-31140687D01*
X52155747Y-30820265D01*
X52151877Y-30814939D01*
X51958522Y-30576165D01*
X51946267Y-30567700D01*
X51935176Y-30574034D01*
X49522022Y-32987188D01*
X49514408Y-33001132D01*
X48784356Y-33001132D01*
X48785592Y-32998868D01*
X48785461Y-32997035D01*
X48781210Y-32990420D01*
X46365690Y-30574900D01*
X46352614Y-30567759D01*
X46342247Y-30575216D01*
X46148123Y-30814939D01*
X46144253Y-30820265D01*
X45936169Y-31140687D01*
X45932872Y-31146397D01*
X45759422Y-31486811D01*
X45756740Y-31492836D01*
X45619829Y-31849502D01*
X45617788Y-31855784D01*
X45518906Y-32224816D01*
X45517535Y-32231266D01*
X45457766Y-32608629D01*
X45457080Y-32615167D01*
X45437084Y-32996699D01*
X45437084Y-33003301D01*
X39029535Y-33003301D01*
X38356855Y-32330621D01*
X38347753Y-32320478D01*
X38327897Y-32295782D01*
X38324032Y-32290975D01*
X38285578Y-32258708D01*
X38281931Y-32255528D01*
X38280119Y-32253885D01*
X38277925Y-32251691D01*
X38244651Y-32224358D01*
X38243853Y-32223696D01*
X38172526Y-32163846D01*
X38167856Y-32161278D01*
X38163739Y-32157897D01*
X38105855Y-32126860D01*
X38081914Y-32114023D01*
X38080755Y-32113394D01*
X38004619Y-32071538D01*
X38004611Y-32071535D01*
X37999213Y-32068567D01*
X37994131Y-32066955D01*
X37989437Y-32064438D01*
X37900469Y-32037238D01*
X37899441Y-32036918D01*
X37810694Y-32008765D01*
X37805398Y-32008171D01*
X37800302Y-32006613D01*
X37707743Y-31997210D01*
X37706607Y-31997089D01*
X37672992Y-31993319D01*
X37660270Y-31991892D01*
X37660266Y-31991892D01*
X37656773Y-31991500D01*
X37653246Y-31991500D01*
X37652261Y-31991445D01*
X37646581Y-31990998D01*
X37615421Y-31987833D01*
X37609663Y-31987248D01*
X37609661Y-31987248D01*
X37603538Y-31986626D01*
X37592867Y-31987635D01*
X37590768Y-31987833D01*
X37521068Y-31974330D01*
X37499020Y-31959826D01*
X37401373Y-31879761D01*
X37397245Y-31876376D01*
X37392602Y-31873733D01*
X37365265Y-31858171D01*
X37315959Y-31807088D01*
X37302098Y-31737458D01*
X37328082Y-31671387D01*
X37357232Y-31644149D01*
X37474578Y-31565148D01*
X37482870Y-31558481D01*
X37641900Y-31406772D01*
X37648941Y-31398814D01*
X37780141Y-31222475D01*
X37785745Y-31213438D01*
X37885357Y-31017516D01*
X37889357Y-31007665D01*
X37954534Y-30797760D01*
X37956817Y-30787376D01*
X37958861Y-30771957D01*
X37956665Y-30757793D01*
X37943478Y-30754000D01*
X35058808Y-30754000D01*
X35045277Y-30757973D01*
X35043752Y-30768580D01*
X35068477Y-30886421D01*
X35071537Y-30896617D01*
X35152263Y-31101029D01*
X35156994Y-31110561D01*
X35271016Y-31298462D01*
X35277280Y-31307052D01*
X35421327Y-31473052D01*
X35428958Y-31480472D01*
X35598911Y-31619826D01*
X35607674Y-31625848D01*
X35634711Y-31641238D01*
X35684018Y-31692320D01*
X35697880Y-31761951D01*
X35671897Y-31828022D01*
X35642747Y-31855261D01*
X35625217Y-31867063D01*
X35520681Y-31937441D01*
X35516824Y-31941120D01*
X35516822Y-31941122D01*
X35451001Y-32003913D01*
X35353865Y-32096576D01*
X35216246Y-32281542D01*
X35213830Y-32286293D01*
X35213828Y-32286297D01*
X35164003Y-32384297D01*
X35111760Y-32487051D01*
X35110178Y-32492145D01*
X35110177Y-32492148D01*
X35068001Y-32627978D01*
X35043393Y-32707227D01*
X35042692Y-32712516D01*
X35027304Y-32828623D01*
X35013102Y-32935774D01*
X35013302Y-32941103D01*
X35013302Y-32941105D01*
X35015156Y-32990479D01*
X35021751Y-33166158D01*
X35069093Y-33391791D01*
X35071051Y-33396750D01*
X35071052Y-33396752D01*
X35144910Y-33583770D01*
X35153776Y-33606221D01*
X35156543Y-33610780D01*
X35156544Y-33610783D01*
X35218998Y-33713703D01*
X35273377Y-33803317D01*
X35276874Y-33807347D01*
X35416034Y-33967715D01*
X35424477Y-33977445D01*
X35460120Y-34006670D01*
X35500114Y-34065329D01*
X35502046Y-34136299D01*
X35465302Y-34197048D01*
X35446532Y-34211248D01*
X35363993Y-34262325D01*
X35300652Y-34301522D01*
X35175695Y-34426697D01*
X35171855Y-34432927D01*
X35171854Y-34432928D01*
X35103865Y-34543227D01*
X35082885Y-34577262D01*
X35074483Y-34602593D01*
X35045516Y-34689928D01*
X35027203Y-34745139D01*
X35026503Y-34751975D01*
X35026502Y-34751978D01*
X35022855Y-34787571D01*
X35016500Y-34849600D01*
X35016500Y-36150400D01*
X35016837Y-36153646D01*
X35016837Y-36153650D01*
X35026288Y-36244733D01*
X35027474Y-36256166D01*
X35029655Y-36262702D01*
X35029655Y-36262704D01*
X35050120Y-36324045D01*
X35083450Y-36423946D01*
X35176522Y-36574348D01*
X35301697Y-36699305D01*
X35307927Y-36703145D01*
X35307928Y-36703146D01*
X35445090Y-36787694D01*
X35452262Y-36792115D01*
X35532005Y-36818564D01*
X35613611Y-36845632D01*
X35613613Y-36845632D01*
X35620139Y-36847797D01*
X35626975Y-36848497D01*
X35626978Y-36848498D01*
X35670031Y-36852909D01*
X35724600Y-36858500D01*
X37275400Y-36858500D01*
X37278646Y-36858163D01*
X37278650Y-36858163D01*
X37374308Y-36848238D01*
X37374312Y-36848237D01*
X37381166Y-36847526D01*
X37387702Y-36845345D01*
X37387704Y-36845345D01*
X37519806Y-36801272D01*
X37548946Y-36791550D01*
X37699348Y-36698478D01*
X37824305Y-36573303D01*
X37838313Y-36550578D01*
X37913275Y-36428968D01*
X37913276Y-36428966D01*
X37917115Y-36422738D01*
X37945907Y-36335932D01*
X37986337Y-36277572D01*
X38051901Y-36250335D01*
X38121783Y-36262868D01*
X38173795Y-36311193D01*
X38191500Y-36375599D01*
X38191500Y-37049769D01*
X38191800Y-37052825D01*
X38191800Y-37052832D01*
X38195069Y-37086169D01*
X38205920Y-37196833D01*
X38207702Y-37202734D01*
X38207702Y-37202736D01*
X38210836Y-37213115D01*
X38263084Y-37386169D01*
X38355934Y-37560796D01*
X38413410Y-37631268D01*
X38477040Y-37709287D01*
X38477043Y-37709290D01*
X38480935Y-37714062D01*
X38485682Y-37717989D01*
X38485684Y-37717991D01*
X38547241Y-37768915D01*
X38586980Y-37827749D01*
X38588602Y-37898727D01*
X38551592Y-37959314D01*
X38487702Y-37990275D01*
X38466926Y-37992000D01*
X17170553Y-37992000D01*
X17107337Y-37974994D01*
X13570783Y-35923792D01*
X13521892Y-35872313D01*
X13508000Y-35814799D01*
X13508000Y-30185201D01*
X13528002Y-30117080D01*
X13570783Y-30076208D01*
X17107340Y-28025006D01*
X17170555Y-28008000D01*
X26815129Y-28008000D01*
X26883250Y-28028002D01*
G37*
%TD.AperFunction*%
%TA.AperFunction,Conductor*%
G36*
X268101750Y-29278502D02*
G01*
X268122724Y-29295405D01*
X269379875Y-30552556D01*
X269410613Y-30602714D01*
X269465473Y-30771556D01*
X269519220Y-30864647D01*
X269524619Y-30873999D01*
X269541500Y-30936999D01*
X269541500Y-32633629D01*
X269521498Y-32701750D01*
X269504595Y-32722724D01*
X267969269Y-34258050D01*
X267906957Y-34292076D01*
X267836142Y-34287011D01*
X267779306Y-34244464D01*
X267760341Y-34207891D01*
X267736569Y-34134729D01*
X267734527Y-34128444D01*
X267728918Y-34118728D01*
X267684440Y-34041691D01*
X267675381Y-34026000D01*
X267658500Y-33963001D01*
X267658500Y-31867063D01*
X267659933Y-31848114D01*
X267662097Y-31833886D01*
X267663198Y-31826651D01*
X267658915Y-31773990D01*
X267658500Y-31763777D01*
X267658500Y-31755707D01*
X267658078Y-31752087D01*
X267658077Y-31752069D01*
X267655208Y-31727461D01*
X267654775Y-31723086D01*
X267654301Y-31717251D01*
X267650779Y-31673955D01*
X267649454Y-31657661D01*
X267649453Y-31657658D01*
X267648860Y-31650363D01*
X267646604Y-31643399D01*
X267645413Y-31637440D01*
X267644029Y-31631585D01*
X267643182Y-31624319D01*
X267618265Y-31555673D01*
X267616848Y-31551545D01*
X267596607Y-31489064D01*
X267596606Y-31489062D01*
X267594351Y-31482101D01*
X267590555Y-31475846D01*
X267588049Y-31470372D01*
X267585330Y-31464942D01*
X267582833Y-31458063D01*
X267542809Y-31397016D01*
X267540472Y-31393312D01*
X267505509Y-31335693D01*
X267505505Y-31335688D01*
X267502595Y-31330892D01*
X267495197Y-31322516D01*
X267495223Y-31322493D01*
X267492574Y-31319503D01*
X267489866Y-31316264D01*
X267485856Y-31310148D01*
X267480549Y-31305121D01*
X267480546Y-31305117D01*
X267429617Y-31256872D01*
X267427175Y-31254494D01*
X265647246Y-29474565D01*
X265613220Y-29412253D01*
X265618285Y-29341438D01*
X265660832Y-29284602D01*
X265727352Y-29259791D01*
X265736341Y-29259470D01*
X267731960Y-29259470D01*
X267750910Y-29260903D01*
X267765145Y-29263069D01*
X267765149Y-29263069D01*
X267772379Y-29264169D01*
X267779671Y-29263576D01*
X267779674Y-29263576D01*
X267825048Y-29259885D01*
X267835263Y-29259470D01*
X267843323Y-29259470D01*
X267846964Y-29259045D01*
X267850603Y-29258834D01*
X267850612Y-29258985D01*
X267858960Y-29258500D01*
X268033629Y-29258500D01*
X268101750Y-29278502D01*
G37*
%TD.AperFunction*%
%TD*%
%TA.AperFunction,Conductor*%
%TO.N,GND*%
G36*
X26883250Y-28028002D02*
G01*
X26929743Y-28081658D01*
X26939847Y-28151932D01*
X26910353Y-28216512D01*
X26904224Y-28223095D01*
X23522724Y-31604595D01*
X23460412Y-31638621D01*
X23433629Y-31641500D01*
X19814985Y-31641500D01*
X19813446Y-31641491D01*
X19710081Y-31640228D01*
X19710079Y-31640228D01*
X19704911Y-31640165D01*
X19484091Y-31673955D01*
X19271756Y-31743357D01*
X19212909Y-31773991D01*
X19097852Y-31833886D01*
X19073607Y-31846507D01*
X19069474Y-31849610D01*
X19069471Y-31849612D01*
X18956632Y-31934334D01*
X18894965Y-31980635D01*
X18740629Y-32142138D01*
X18737715Y-32146410D01*
X18737714Y-32146411D01*
X18684230Y-32224816D01*
X18614743Y-32326680D01*
X18583597Y-32393779D01*
X18537936Y-32492148D01*
X18520688Y-32529305D01*
X18460989Y-32744570D01*
X18437251Y-32966695D01*
X18437548Y-32971848D01*
X18437548Y-32971851D01*
X18449053Y-33171377D01*
X18450110Y-33189715D01*
X18451247Y-33194761D01*
X18451248Y-33194767D01*
X18473335Y-33292773D01*
X18499222Y-33407639D01*
X18583266Y-33614616D01*
X18699987Y-33805088D01*
X18846250Y-33973938D01*
X19018126Y-34116632D01*
X19211000Y-34229338D01*
X19419692Y-34309030D01*
X19424760Y-34310061D01*
X19424763Y-34310062D01*
X19532379Y-34331957D01*
X19638597Y-34353567D01*
X19643772Y-34353757D01*
X19643774Y-34353757D01*
X19764620Y-34358188D01*
X19764601Y-34358697D01*
X19766316Y-34358372D01*
X19767491Y-34358500D01*
X19770892Y-34358500D01*
X19770929Y-34358502D01*
X19775443Y-34358585D01*
X19856673Y-34361564D01*
X19856677Y-34361564D01*
X19861837Y-34361753D01*
X19866957Y-34361097D01*
X19866959Y-34361097D01*
X19879261Y-34359521D01*
X19895271Y-34358500D01*
X24298134Y-34358500D01*
X24360316Y-34351745D01*
X24496705Y-34300615D01*
X24613261Y-34213261D01*
X24700615Y-34096705D01*
X24751745Y-33960316D01*
X24758500Y-33898134D01*
X24758500Y-32566371D01*
X24778502Y-32498250D01*
X24795405Y-32477276D01*
X27976306Y-29296375D01*
X28038618Y-29262349D01*
X28065401Y-29259470D01*
X35393343Y-29259470D01*
X35461464Y-29279472D01*
X35507957Y-29333128D01*
X35518061Y-29403402D01*
X35488567Y-29467982D01*
X35480315Y-29476639D01*
X35358100Y-29593228D01*
X35351059Y-29601186D01*
X35219859Y-29777525D01*
X35214255Y-29786562D01*
X35114643Y-29982484D01*
X35110643Y-29992335D01*
X35045466Y-30202240D01*
X35043183Y-30212624D01*
X35041139Y-30228043D01*
X35043335Y-30242207D01*
X35056522Y-30246000D01*
X37941192Y-30246000D01*
X37954723Y-30242027D01*
X37956248Y-30231420D01*
X37931523Y-30113579D01*
X37928463Y-30103383D01*
X37847737Y-29898971D01*
X37843006Y-29889439D01*
X37728984Y-29701538D01*
X37722720Y-29692948D01*
X37578673Y-29526948D01*
X37571043Y-29519528D01*
X37526376Y-29482904D01*
X37486381Y-29424245D01*
X37484450Y-29353274D01*
X37521194Y-29292526D01*
X37584949Y-29261287D01*
X37606267Y-29259470D01*
X47867671Y-29259470D01*
X47935792Y-29279472D01*
X47982285Y-29333128D01*
X47992389Y-29403402D01*
X47962895Y-29467982D01*
X47912825Y-29503101D01*
X47642836Y-29606740D01*
X47636811Y-29609422D01*
X47296397Y-29782872D01*
X47290687Y-29786169D01*
X46970265Y-29994253D01*
X46964939Y-29998123D01*
X46726165Y-30191478D01*
X46717700Y-30203733D01*
X46724034Y-30214824D01*
X49137188Y-32627978D01*
X49151132Y-32635592D01*
X49152965Y-32635461D01*
X49159580Y-32631210D01*
X51575100Y-30215690D01*
X51582241Y-30202614D01*
X51574784Y-30192247D01*
X51335065Y-29998126D01*
X51329728Y-29994249D01*
X51009315Y-29786170D01*
X51003606Y-29782873D01*
X50663189Y-29609422D01*
X50657164Y-29606740D01*
X50387175Y-29503101D01*
X50330747Y-29460015D01*
X50306570Y-29393262D01*
X50322321Y-29324035D01*
X50372999Y-29274313D01*
X50432329Y-29259470D01*
X245567671Y-29259470D01*
X245635792Y-29279472D01*
X245682285Y-29333128D01*
X245692389Y-29403402D01*
X245662895Y-29467982D01*
X245612825Y-29503101D01*
X245342836Y-29606740D01*
X245336811Y-29609422D01*
X244996397Y-29782872D01*
X244990687Y-29786169D01*
X244670265Y-29994253D01*
X244664939Y-29998123D01*
X244426165Y-30191478D01*
X244417700Y-30203733D01*
X244424034Y-30214824D01*
X246837188Y-32627978D01*
X246851132Y-32635592D01*
X246852965Y-32635461D01*
X246859580Y-32631210D01*
X249275100Y-30215690D01*
X249282241Y-30202614D01*
X249274784Y-30192247D01*
X249035065Y-29998126D01*
X249029728Y-29994249D01*
X248709315Y-29786170D01*
X248703606Y-29782873D01*
X248363189Y-29609422D01*
X248357164Y-29606740D01*
X248087175Y-29503101D01*
X248030747Y-29460015D01*
X248006570Y-29393262D01*
X248022321Y-29324035D01*
X248072999Y-29274313D01*
X248132329Y-29259470D01*
X258163659Y-29259470D01*
X258231780Y-29279472D01*
X258278273Y-29333128D01*
X258288377Y-29403402D01*
X258258883Y-29467982D01*
X258252754Y-29474565D01*
X256243669Y-31483650D01*
X256180772Y-31517801D01*
X256124176Y-31529831D01*
X256124167Y-31529834D01*
X256117712Y-31531206D01*
X256111682Y-31533891D01*
X256111681Y-31533891D01*
X255949278Y-31606197D01*
X255949276Y-31606198D01*
X255943248Y-31608882D01*
X255788747Y-31721134D01*
X255784326Y-31726044D01*
X255784325Y-31726045D01*
X255667979Y-31855261D01*
X255660960Y-31863056D01*
X255607741Y-31955234D01*
X255570829Y-32019168D01*
X255565473Y-32028444D01*
X255506458Y-32210072D01*
X255505768Y-32216633D01*
X255505768Y-32216635D01*
X255498372Y-32287008D01*
X255486496Y-32400000D01*
X255487186Y-32406565D01*
X255495146Y-32482296D01*
X255506458Y-32589928D01*
X255565473Y-32771556D01*
X255660960Y-32936944D01*
X255665378Y-32941851D01*
X255665379Y-32941852D01*
X255720708Y-33003301D01*
X255788747Y-33078866D01*
X255810114Y-33094390D01*
X255913615Y-33169588D01*
X255943248Y-33191118D01*
X255949276Y-33193802D01*
X255949278Y-33193803D01*
X256082640Y-33253179D01*
X256117712Y-33268794D01*
X256205641Y-33287484D01*
X256298056Y-33307128D01*
X256298061Y-33307128D01*
X256304513Y-33308500D01*
X256495487Y-33308500D01*
X256501939Y-33307128D01*
X256501944Y-33307128D01*
X256594359Y-33287484D01*
X256682288Y-33268794D01*
X256717360Y-33253179D01*
X256850722Y-33193803D01*
X256850724Y-33193802D01*
X256856752Y-33191118D01*
X256886386Y-33169588D01*
X256989886Y-33094390D01*
X257011253Y-33078866D01*
X257079292Y-33003301D01*
X257134621Y-32941852D01*
X257134622Y-32941851D01*
X257139040Y-32936944D01*
X257234527Y-32771556D01*
X257289387Y-32602714D01*
X257320125Y-32552556D01*
X259876796Y-29995885D01*
X259939108Y-29961859D01*
X259965891Y-29958980D01*
X261591000Y-29958980D01*
X261659121Y-29978982D01*
X261705614Y-30032638D01*
X261717000Y-30084980D01*
X261717000Y-30227885D01*
X261721475Y-30243124D01*
X261722865Y-30244329D01*
X261730548Y-30246000D01*
X263328000Y-30246000D01*
X263396121Y-30266002D01*
X263442614Y-30319658D01*
X263454000Y-30372000D01*
X263454000Y-30628000D01*
X263433998Y-30696121D01*
X263380342Y-30742614D01*
X263328000Y-30754000D01*
X261735116Y-30754000D01*
X261719877Y-30758475D01*
X261718672Y-30759865D01*
X261717001Y-30767548D01*
X261717001Y-31147095D01*
X261717338Y-31153614D01*
X261727257Y-31249206D01*
X261730149Y-31262600D01*
X261781588Y-31416784D01*
X261787761Y-31429962D01*
X261873063Y-31567807D01*
X261882099Y-31579208D01*
X261996829Y-31693739D01*
X262008240Y-31702751D01*
X262112905Y-31767267D01*
X262160398Y-31820039D01*
X262171822Y-31890111D01*
X262143548Y-31955234D01*
X262084554Y-31994734D01*
X262057772Y-32000047D01*
X262042779Y-32001359D01*
X262019719Y-32003376D01*
X262019714Y-32003377D01*
X262013587Y-32003913D01*
X262008468Y-32005400D01*
X262003167Y-32005920D01*
X261914166Y-32032791D01*
X261913033Y-32033126D01*
X261829586Y-32057370D01*
X261829582Y-32057372D01*
X261823664Y-32059091D01*
X261818932Y-32061544D01*
X261813831Y-32063084D01*
X261808388Y-32065978D01*
X261731740Y-32106731D01*
X261730574Y-32107343D01*
X261670659Y-32138401D01*
X261648074Y-32150108D01*
X261643911Y-32153431D01*
X261639204Y-32155934D01*
X261634429Y-32159828D01*
X261634428Y-32159829D01*
X261567102Y-32214739D01*
X261566075Y-32215567D01*
X261529792Y-32244531D01*
X261529787Y-32244536D01*
X261527028Y-32246738D01*
X261524527Y-32249239D01*
X261523809Y-32249881D01*
X261519461Y-32253594D01*
X261485938Y-32280935D01*
X261482015Y-32285677D01*
X261482013Y-32285679D01*
X261456703Y-32316273D01*
X261448713Y-32325053D01*
X259930621Y-33843145D01*
X259920478Y-33852247D01*
X259890975Y-33875968D01*
X259871526Y-33899146D01*
X259858709Y-33914421D01*
X259855528Y-33918069D01*
X259853885Y-33919881D01*
X259851691Y-33922075D01*
X259824358Y-33955349D01*
X259823696Y-33956147D01*
X259763846Y-34027474D01*
X259761278Y-34032144D01*
X259757897Y-34036261D01*
X259729996Y-34088297D01*
X259714023Y-34118086D01*
X259713394Y-34119245D01*
X259671538Y-34195381D01*
X259671535Y-34195389D01*
X259668567Y-34200787D01*
X259666955Y-34205869D01*
X259664438Y-34210563D01*
X259637238Y-34299531D01*
X259636918Y-34300559D01*
X259608765Y-34389306D01*
X259608171Y-34394602D01*
X259606613Y-34399698D01*
X259603238Y-34432928D01*
X259597218Y-34492187D01*
X259597089Y-34493393D01*
X259591500Y-34543227D01*
X259591500Y-34546754D01*
X259591445Y-34547739D01*
X259590998Y-34553419D01*
X259586626Y-34596462D01*
X259587206Y-34602593D01*
X259590941Y-34642109D01*
X259591500Y-34653967D01*
X259591500Y-36749769D01*
X259591800Y-36752825D01*
X259591800Y-36752832D01*
X259595597Y-36791550D01*
X259605920Y-36896833D01*
X259607702Y-36902734D01*
X259607702Y-36902736D01*
X259613681Y-36922539D01*
X259663084Y-37086169D01*
X259755934Y-37260796D01*
X259826291Y-37347062D01*
X259877040Y-37409287D01*
X259877043Y-37409290D01*
X259880935Y-37414062D01*
X259885682Y-37417989D01*
X259885684Y-37417991D01*
X260028575Y-37536201D01*
X260028579Y-37536203D01*
X260033325Y-37540130D01*
X260207299Y-37634198D01*
X260396232Y-37692682D01*
X260402357Y-37693326D01*
X260402358Y-37693326D01*
X260586796Y-37712711D01*
X260586798Y-37712711D01*
X260592925Y-37713355D01*
X260675424Y-37705847D01*
X260783749Y-37695989D01*
X260783752Y-37695988D01*
X260789888Y-37695430D01*
X260795794Y-37693692D01*
X260795798Y-37693691D01*
X260973710Y-37641329D01*
X260973709Y-37641329D01*
X260979619Y-37639590D01*
X260985075Y-37636737D01*
X260985079Y-37636736D01*
X261091868Y-37580908D01*
X261161504Y-37567074D01*
X261209784Y-37581526D01*
X261302553Y-37631268D01*
X261310563Y-37635563D01*
X261329423Y-37641329D01*
X261493800Y-37691585D01*
X261493802Y-37691585D01*
X261499698Y-37693388D01*
X261519802Y-37695430D01*
X261690335Y-37712752D01*
X261690339Y-37712752D01*
X261696463Y-37713374D01*
X261805396Y-37703077D01*
X261887230Y-37695342D01*
X261887234Y-37695341D01*
X261893362Y-37694762D01*
X261899260Y-37693004D01*
X261899264Y-37693003D01*
X262076994Y-37640020D01*
X262076996Y-37640019D01*
X262082897Y-37638260D01*
X262257847Y-37546018D01*
X262411548Y-37421553D01*
X262538147Y-37269605D01*
X262632822Y-37095960D01*
X262687169Y-36922536D01*
X262726625Y-36863516D01*
X262791728Y-36835196D01*
X262829823Y-36836228D01*
X262942608Y-36856623D01*
X262942615Y-36856624D01*
X262946692Y-36857361D01*
X262963889Y-36858172D01*
X262969356Y-36858430D01*
X262969363Y-36858430D01*
X262970844Y-36858500D01*
X263382890Y-36858500D01*
X263449809Y-36852822D01*
X263549409Y-36844371D01*
X263549413Y-36844370D01*
X263554720Y-36843920D01*
X263559875Y-36842582D01*
X263559881Y-36842581D01*
X263772703Y-36787343D01*
X263772707Y-36787342D01*
X263777872Y-36786001D01*
X263782738Y-36783809D01*
X263782741Y-36783808D01*
X263983202Y-36693507D01*
X263988075Y-36691312D01*
X264179319Y-36562559D01*
X264191879Y-36550578D01*
X264304372Y-36443264D01*
X264346135Y-36403424D01*
X264416176Y-36309287D01*
X264472885Y-36266574D01*
X264517264Y-36258500D01*
X267732930Y-36258500D01*
X267751880Y-36259933D01*
X267766115Y-36262099D01*
X267766119Y-36262099D01*
X267773349Y-36263199D01*
X267780641Y-36262606D01*
X267780644Y-36262606D01*
X267826018Y-36258915D01*
X267836233Y-36258500D01*
X267844293Y-36258500D01*
X267857583Y-36256951D01*
X267872507Y-36255211D01*
X267876882Y-36254778D01*
X267942339Y-36249454D01*
X267942342Y-36249453D01*
X267949637Y-36248860D01*
X267956601Y-36246604D01*
X267962560Y-36245413D01*
X267968415Y-36244029D01*
X267975681Y-36243182D01*
X268044327Y-36218265D01*
X268048455Y-36216848D01*
X268110936Y-36196607D01*
X268110938Y-36196606D01*
X268117899Y-36194351D01*
X268124154Y-36190555D01*
X268129628Y-36188049D01*
X268135058Y-36185330D01*
X268141937Y-36182833D01*
X268202976Y-36142814D01*
X268206680Y-36140477D01*
X268269107Y-36102595D01*
X268277484Y-36095197D01*
X268277508Y-36095224D01*
X268280500Y-36092571D01*
X268283733Y-36089868D01*
X268289852Y-36085856D01*
X268343128Y-36029617D01*
X268345506Y-36027175D01*
X270788911Y-33583770D01*
X270803323Y-33571384D01*
X270814918Y-33562851D01*
X270814923Y-33562846D01*
X270820818Y-33558508D01*
X270825557Y-33552930D01*
X270825560Y-33552927D01*
X270855035Y-33518232D01*
X270861965Y-33510716D01*
X270867660Y-33505021D01*
X270885281Y-33482749D01*
X270888072Y-33479345D01*
X270930591Y-33429297D01*
X270930592Y-33429295D01*
X270935333Y-33423715D01*
X270938661Y-33417199D01*
X270942028Y-33412150D01*
X270945195Y-33407021D01*
X270949734Y-33401284D01*
X270980655Y-33335125D01*
X270982561Y-33331225D01*
X270994165Y-33308500D01*
X271015769Y-33266192D01*
X271017508Y-33259084D01*
X271019607Y-33253441D01*
X271021524Y-33247678D01*
X271024622Y-33241050D01*
X271039487Y-33169583D01*
X271040457Y-33165299D01*
X271056473Y-33099845D01*
X271057808Y-33094390D01*
X271058500Y-33083236D01*
X271058536Y-33083238D01*
X271058775Y-33079245D01*
X271059149Y-33075053D01*
X271060640Y-33067885D01*
X271058546Y-32990479D01*
X271058500Y-32987072D01*
X271058500Y-30936999D01*
X271075381Y-30873999D01*
X271080781Y-30864647D01*
X271134527Y-30771556D01*
X271193542Y-30589928D01*
X271195122Y-30574900D01*
X271212814Y-30406565D01*
X271213504Y-30400000D01*
X271205060Y-30319658D01*
X271194232Y-30216635D01*
X271194232Y-30216633D01*
X271193542Y-30210072D01*
X271134527Y-30028444D01*
X271114785Y-29994249D01*
X271094422Y-29958980D01*
X271039040Y-29863056D01*
X270911253Y-29721134D01*
X270756752Y-29608882D01*
X270750724Y-29606198D01*
X270750722Y-29606197D01*
X270588319Y-29533891D01*
X270588318Y-29533891D01*
X270582288Y-29531206D01*
X270575833Y-29529834D01*
X270575824Y-29529831D01*
X270519228Y-29517801D01*
X270456331Y-29483650D01*
X269195776Y-28223095D01*
X269161750Y-28160783D01*
X269166815Y-28089968D01*
X269209362Y-28033132D01*
X269275882Y-28008321D01*
X269284871Y-28008000D01*
X278829447Y-28008000D01*
X278892662Y-28025006D01*
X282336999Y-30022721D01*
X282429216Y-30076207D01*
X282478108Y-30127687D01*
X282492000Y-30185201D01*
X282492000Y-35814799D01*
X282471998Y-35882920D01*
X282429217Y-35923792D01*
X278892661Y-37974994D01*
X278829445Y-37992000D01*
X42333387Y-37992000D01*
X42265266Y-37971998D01*
X42218773Y-37918342D01*
X42208669Y-37848068D01*
X42238163Y-37783488D01*
X42254093Y-37768080D01*
X42306753Y-37725436D01*
X42311548Y-37721553D01*
X42336516Y-37691585D01*
X42434206Y-37574335D01*
X42434209Y-37574330D01*
X42438147Y-37569604D01*
X42532822Y-37395960D01*
X42591965Y-37207232D01*
X42603466Y-37101365D01*
X42612660Y-37016737D01*
X42612660Y-37016733D01*
X42613325Y-37010612D01*
X42602834Y-36890699D01*
X42596624Y-36819720D01*
X42596623Y-36819716D01*
X42596087Y-36813587D01*
X42589685Y-36791550D01*
X42540909Y-36623663D01*
X42449892Y-36448074D01*
X42419251Y-36409690D01*
X42355458Y-36329777D01*
X42355451Y-36329770D01*
X42353262Y-36327027D01*
X41823621Y-35797386D01*
X46717759Y-35797386D01*
X46725216Y-35807753D01*
X46964935Y-36001874D01*
X46970272Y-36005751D01*
X47290685Y-36213830D01*
X47296394Y-36217127D01*
X47636811Y-36390578D01*
X47642836Y-36393260D01*
X47999502Y-36530171D01*
X48005784Y-36532212D01*
X48374816Y-36631094D01*
X48381266Y-36632465D01*
X48758629Y-36692234D01*
X48765167Y-36692920D01*
X49146699Y-36712916D01*
X49153301Y-36712916D01*
X49534833Y-36692920D01*
X49541371Y-36692234D01*
X49918734Y-36632465D01*
X49925184Y-36631094D01*
X50294216Y-36532212D01*
X50300498Y-36530171D01*
X50657164Y-36393260D01*
X50663189Y-36390578D01*
X51003606Y-36217127D01*
X51009315Y-36213830D01*
X51329728Y-36005751D01*
X51335065Y-36001874D01*
X51573835Y-35808522D01*
X51581527Y-35797386D01*
X244417759Y-35797386D01*
X244425216Y-35807753D01*
X244664935Y-36001874D01*
X244670272Y-36005751D01*
X244990685Y-36213830D01*
X244996394Y-36217127D01*
X245336811Y-36390578D01*
X245342836Y-36393260D01*
X245699502Y-36530171D01*
X245705784Y-36532212D01*
X246074816Y-36631094D01*
X246081266Y-36632465D01*
X246458629Y-36692234D01*
X246465167Y-36692920D01*
X246846699Y-36712916D01*
X246853301Y-36712916D01*
X247234833Y-36692920D01*
X247241371Y-36692234D01*
X247618734Y-36632465D01*
X247625184Y-36631094D01*
X247994216Y-36532212D01*
X248000498Y-36530171D01*
X248357164Y-36393260D01*
X248363189Y-36390578D01*
X248703606Y-36217127D01*
X248709315Y-36213830D01*
X249029728Y-36005751D01*
X249035065Y-36001874D01*
X249273835Y-35808522D01*
X249282300Y-35796267D01*
X249275966Y-35785176D01*
X246862812Y-33372022D01*
X246848868Y-33364408D01*
X246847035Y-33364539D01*
X246840420Y-33368790D01*
X244424900Y-35784310D01*
X244417759Y-35797386D01*
X51581527Y-35797386D01*
X51582300Y-35796267D01*
X51575966Y-35785176D01*
X49162812Y-33372022D01*
X49148868Y-33364408D01*
X49147035Y-33364539D01*
X49140420Y-33368790D01*
X46724900Y-35784310D01*
X46717759Y-35797386D01*
X41823621Y-35797386D01*
X40889028Y-34862793D01*
X40879927Y-34852651D01*
X40860068Y-34827952D01*
X40856208Y-34823151D01*
X40818014Y-34791102D01*
X40809911Y-34783676D01*
X39029535Y-33003301D01*
X45437084Y-33003301D01*
X45457080Y-33384833D01*
X45457766Y-33391371D01*
X45517535Y-33768734D01*
X45518906Y-33775184D01*
X45617788Y-34144216D01*
X45619829Y-34150498D01*
X45756740Y-34507164D01*
X45759422Y-34513189D01*
X45932872Y-34853603D01*
X45936169Y-34859313D01*
X46144253Y-35179735D01*
X46148123Y-35185061D01*
X46341478Y-35423835D01*
X46353733Y-35432300D01*
X46364824Y-35425966D01*
X48777978Y-33012812D01*
X48784356Y-33001132D01*
X49514408Y-33001132D01*
X49514539Y-33002965D01*
X49518790Y-33009580D01*
X51934310Y-35425100D01*
X51947386Y-35432241D01*
X51957753Y-35424784D01*
X52151877Y-35185061D01*
X52155747Y-35179735D01*
X52363831Y-34859313D01*
X52367128Y-34853603D01*
X52540578Y-34513189D01*
X52543260Y-34507164D01*
X52680171Y-34150498D01*
X52682212Y-34144216D01*
X52781094Y-33775184D01*
X52782465Y-33768734D01*
X52842234Y-33391371D01*
X52842920Y-33384833D01*
X52862916Y-33003301D01*
X243137084Y-33003301D01*
X243157080Y-33384833D01*
X243157766Y-33391371D01*
X243217535Y-33768734D01*
X243218906Y-33775184D01*
X243317788Y-34144216D01*
X243319829Y-34150498D01*
X243456740Y-34507164D01*
X243459422Y-34513189D01*
X243632872Y-34853603D01*
X243636169Y-34859313D01*
X243844253Y-35179735D01*
X243848123Y-35185061D01*
X244041478Y-35423835D01*
X244053733Y-35432300D01*
X244064824Y-35425966D01*
X246477978Y-33012812D01*
X246484356Y-33001132D01*
X247214408Y-33001132D01*
X247214539Y-33002965D01*
X247218790Y-33009580D01*
X249634310Y-35425100D01*
X249647386Y-35432241D01*
X249657753Y-35424784D01*
X249851877Y-35185061D01*
X249855747Y-35179735D01*
X250063831Y-34859313D01*
X250067128Y-34853603D01*
X250240578Y-34513189D01*
X250243260Y-34507164D01*
X250380171Y-34150498D01*
X250382212Y-34144216D01*
X250481094Y-33775184D01*
X250482465Y-33768734D01*
X250542234Y-33391371D01*
X250542920Y-33384833D01*
X250562916Y-33003301D01*
X250562916Y-32996699D01*
X250542920Y-32615167D01*
X250542234Y-32608629D01*
X250482465Y-32231266D01*
X250481094Y-32224816D01*
X250382212Y-31855784D01*
X250380171Y-31849502D01*
X250243260Y-31492836D01*
X250240578Y-31486811D01*
X250067128Y-31146397D01*
X250063831Y-31140687D01*
X249855747Y-30820265D01*
X249851877Y-30814939D01*
X249658522Y-30576165D01*
X249646267Y-30567700D01*
X249635176Y-30574034D01*
X247222022Y-32987188D01*
X247214408Y-33001132D01*
X246484356Y-33001132D01*
X246485592Y-32998868D01*
X246485461Y-32997035D01*
X246481210Y-32990420D01*
X244065690Y-30574900D01*
X244052614Y-30567759D01*
X244042247Y-30575216D01*
X243848123Y-30814939D01*
X243844253Y-30820265D01*
X243636169Y-31140687D01*
X243632872Y-31146397D01*
X243459422Y-31486811D01*
X243456740Y-31492836D01*
X243319829Y-31849502D01*
X243317788Y-31855784D01*
X243218906Y-32224816D01*
X243217535Y-32231266D01*
X243157766Y-32608629D01*
X243157080Y-32615167D01*
X243137084Y-32996699D01*
X243137084Y-33003301D01*
X52862916Y-33003301D01*
X52862916Y-32996699D01*
X52842920Y-32615167D01*
X52842234Y-32608629D01*
X52782465Y-32231266D01*
X52781094Y-32224816D01*
X52682212Y-31855784D01*
X52680171Y-31849502D01*
X52543260Y-31492836D01*
X52540578Y-31486811D01*
X52367128Y-31146397D01*
X52363831Y-31140687D01*
X52155747Y-30820265D01*
X52151877Y-30814939D01*
X51958522Y-30576165D01*
X51946267Y-30567700D01*
X51935176Y-30574034D01*
X49522022Y-32987188D01*
X49514408Y-33001132D01*
X48784356Y-33001132D01*
X48785592Y-32998868D01*
X48785461Y-32997035D01*
X48781210Y-32990420D01*
X46365690Y-30574900D01*
X46352614Y-30567759D01*
X46342247Y-30575216D01*
X46148123Y-30814939D01*
X46144253Y-30820265D01*
X45936169Y-31140687D01*
X45932872Y-31146397D01*
X45759422Y-31486811D01*
X45756740Y-31492836D01*
X45619829Y-31849502D01*
X45617788Y-31855784D01*
X45518906Y-32224816D01*
X45517535Y-32231266D01*
X45457766Y-32608629D01*
X45457080Y-32615167D01*
X45437084Y-32996699D01*
X45437084Y-33003301D01*
X39029535Y-33003301D01*
X38356855Y-32330621D01*
X38347753Y-32320478D01*
X38327897Y-32295782D01*
X38324032Y-32290975D01*
X38285578Y-32258708D01*
X38281931Y-32255528D01*
X38280119Y-32253885D01*
X38277925Y-32251691D01*
X38244651Y-32224358D01*
X38243853Y-32223696D01*
X38172526Y-32163846D01*
X38167856Y-32161278D01*
X38163739Y-32157897D01*
X38105855Y-32126860D01*
X38081914Y-32114023D01*
X38080755Y-32113394D01*
X38004619Y-32071538D01*
X38004611Y-32071535D01*
X37999213Y-32068567D01*
X37994131Y-32066955D01*
X37989437Y-32064438D01*
X37900469Y-32037238D01*
X37899441Y-32036918D01*
X37810694Y-32008765D01*
X37805398Y-32008171D01*
X37800302Y-32006613D01*
X37707743Y-31997210D01*
X37706607Y-31997089D01*
X37672992Y-31993319D01*
X37660270Y-31991892D01*
X37660266Y-31991892D01*
X37656773Y-31991500D01*
X37653246Y-31991500D01*
X37652261Y-31991445D01*
X37646581Y-31990998D01*
X37615421Y-31987833D01*
X37609663Y-31987248D01*
X37609661Y-31987248D01*
X37603538Y-31986626D01*
X37592867Y-31987635D01*
X37590768Y-31987833D01*
X37521068Y-31974330D01*
X37499020Y-31959826D01*
X37401373Y-31879761D01*
X37397245Y-31876376D01*
X37392602Y-31873733D01*
X37365265Y-31858171D01*
X37315959Y-31807088D01*
X37302098Y-31737458D01*
X37328082Y-31671387D01*
X37357232Y-31644149D01*
X37474578Y-31565148D01*
X37482870Y-31558481D01*
X37641900Y-31406772D01*
X37648941Y-31398814D01*
X37780141Y-31222475D01*
X37785745Y-31213438D01*
X37885357Y-31017516D01*
X37889357Y-31007665D01*
X37954534Y-30797760D01*
X37956817Y-30787376D01*
X37958861Y-30771957D01*
X37956665Y-30757793D01*
X37943478Y-30754000D01*
X35058808Y-30754000D01*
X35045277Y-30757973D01*
X35043752Y-30768580D01*
X35068477Y-30886421D01*
X35071537Y-30896617D01*
X35152263Y-31101029D01*
X35156994Y-31110561D01*
X35271016Y-31298462D01*
X35277280Y-31307052D01*
X35421327Y-31473052D01*
X35428958Y-31480472D01*
X35598911Y-31619826D01*
X35607674Y-31625848D01*
X35634711Y-31641238D01*
X35684018Y-31692320D01*
X35697880Y-31761951D01*
X35671897Y-31828022D01*
X35642747Y-31855261D01*
X35625217Y-31867063D01*
X35520681Y-31937441D01*
X35516824Y-31941120D01*
X35516822Y-31941122D01*
X35451001Y-32003913D01*
X35353865Y-32096576D01*
X35216246Y-32281542D01*
X35213830Y-32286293D01*
X35213828Y-32286297D01*
X35164003Y-32384297D01*
X35111760Y-32487051D01*
X35110178Y-32492145D01*
X35110177Y-32492148D01*
X35068001Y-32627978D01*
X35043393Y-32707227D01*
X35042692Y-32712516D01*
X35027304Y-32828623D01*
X35013102Y-32935774D01*
X35013302Y-32941103D01*
X35013302Y-32941105D01*
X35015156Y-32990479D01*
X35021751Y-33166158D01*
X35069093Y-33391791D01*
X35071051Y-33396750D01*
X35071052Y-33396752D01*
X35144910Y-33583770D01*
X35153776Y-33606221D01*
X35156543Y-33610780D01*
X35156544Y-33610783D01*
X35218998Y-33713703D01*
X35273377Y-33803317D01*
X35276874Y-33807347D01*
X35416034Y-33967715D01*
X35424477Y-33977445D01*
X35460120Y-34006670D01*
X35500114Y-34065329D01*
X35502046Y-34136299D01*
X35465302Y-34197048D01*
X35446532Y-34211248D01*
X35363993Y-34262325D01*
X35300652Y-34301522D01*
X35175695Y-34426697D01*
X35171855Y-34432927D01*
X35171854Y-34432928D01*
X35103865Y-34543227D01*
X35082885Y-34577262D01*
X35074483Y-34602593D01*
X35045516Y-34689928D01*
X35027203Y-34745139D01*
X35026503Y-34751975D01*
X35026502Y-34751978D01*
X35022855Y-34787571D01*
X35016500Y-34849600D01*
X35016500Y-36150400D01*
X35016837Y-36153646D01*
X35016837Y-36153650D01*
X35026288Y-36244733D01*
X35027474Y-36256166D01*
X35029655Y-36262702D01*
X35029655Y-36262704D01*
X35050120Y-36324045D01*
X35083450Y-36423946D01*
X35176522Y-36574348D01*
X35301697Y-36699305D01*
X35307927Y-36703145D01*
X35307928Y-36703146D01*
X35445090Y-36787694D01*
X35452262Y-36792115D01*
X35532005Y-36818564D01*
X35613611Y-36845632D01*
X35613613Y-36845632D01*
X35620139Y-36847797D01*
X35626975Y-36848497D01*
X35626978Y-36848498D01*
X35670031Y-36852909D01*
X35724600Y-36858500D01*
X37275400Y-36858500D01*
X37278646Y-36858163D01*
X37278650Y-36858163D01*
X37374308Y-36848238D01*
X37374312Y-36848237D01*
X37381166Y-36847526D01*
X37387702Y-36845345D01*
X37387704Y-36845345D01*
X37519806Y-36801272D01*
X37548946Y-36791550D01*
X37699348Y-36698478D01*
X37824305Y-36573303D01*
X37838313Y-36550578D01*
X37913275Y-36428968D01*
X37913276Y-36428966D01*
X37917115Y-36422738D01*
X37945907Y-36335932D01*
X37986337Y-36277572D01*
X38051901Y-36250335D01*
X38121783Y-36262868D01*
X38173795Y-36311193D01*
X38191500Y-36375599D01*
X38191500Y-37049769D01*
X38191800Y-37052825D01*
X38191800Y-37052832D01*
X38195069Y-37086169D01*
X38205920Y-37196833D01*
X38207702Y-37202734D01*
X38207702Y-37202736D01*
X38210836Y-37213115D01*
X38263084Y-37386169D01*
X38355934Y-37560796D01*
X38413410Y-37631268D01*
X38477040Y-37709287D01*
X38477043Y-37709290D01*
X38480935Y-37714062D01*
X38485682Y-37717989D01*
X38485684Y-37717991D01*
X38547241Y-37768915D01*
X38586980Y-37827749D01*
X38588602Y-37898727D01*
X38551592Y-37959314D01*
X38487702Y-37990275D01*
X38466926Y-37992000D01*
X17170553Y-37992000D01*
X17107337Y-37974994D01*
X13570783Y-35923792D01*
X13521892Y-35872313D01*
X13508000Y-35814799D01*
X13508000Y-30185201D01*
X13528002Y-30117080D01*
X13570783Y-30076208D01*
X17107340Y-28025006D01*
X17170555Y-28008000D01*
X26815129Y-28008000D01*
X26883250Y-28028002D01*
G37*
%TD.AperFunction*%
%TA.AperFunction,Conductor*%
G36*
X268101750Y-29278502D02*
G01*
X268122724Y-29295405D01*
X269379875Y-30552556D01*
X269410613Y-30602714D01*
X269465473Y-30771556D01*
X269519220Y-30864647D01*
X269524619Y-30873999D01*
X269541500Y-30936999D01*
X269541500Y-32633629D01*
X269521498Y-32701750D01*
X269504595Y-32722724D01*
X267969269Y-34258050D01*
X267906957Y-34292076D01*
X267836142Y-34287011D01*
X267779306Y-34244464D01*
X267760341Y-34207891D01*
X267736569Y-34134729D01*
X267734527Y-34128444D01*
X267728918Y-34118728D01*
X267684440Y-34041691D01*
X267675381Y-34026000D01*
X267658500Y-33963001D01*
X267658500Y-31867063D01*
X267659933Y-31848114D01*
X267662097Y-31833886D01*
X267663198Y-31826651D01*
X267658915Y-31773990D01*
X267658500Y-31763777D01*
X267658500Y-31755707D01*
X267658078Y-31752087D01*
X267658077Y-31752069D01*
X267655208Y-31727461D01*
X267654775Y-31723086D01*
X267654301Y-31717251D01*
X267650779Y-31673955D01*
X267649454Y-31657661D01*
X267649453Y-31657658D01*
X267648860Y-31650363D01*
X267646604Y-31643399D01*
X267645413Y-31637440D01*
X267644029Y-31631585D01*
X267643182Y-31624319D01*
X267618265Y-31555673D01*
X267616848Y-31551545D01*
X267596607Y-31489064D01*
X267596606Y-31489062D01*
X267594351Y-31482101D01*
X267590555Y-31475846D01*
X267588049Y-31470372D01*
X267585330Y-31464942D01*
X267582833Y-31458063D01*
X267542809Y-31397016D01*
X267540472Y-31393312D01*
X267505509Y-31335693D01*
X267505505Y-31335688D01*
X267502595Y-31330892D01*
X267495197Y-31322516D01*
X267495223Y-31322493D01*
X267492574Y-31319503D01*
X267489866Y-31316264D01*
X267485856Y-31310148D01*
X267480549Y-31305121D01*
X267480546Y-31305117D01*
X267429617Y-31256872D01*
X267427175Y-31254494D01*
X265647246Y-29474565D01*
X265613220Y-29412253D01*
X265618285Y-29341438D01*
X265660832Y-29284602D01*
X265727352Y-29259791D01*
X265736341Y-29259470D01*
X267731960Y-29259470D01*
X267750910Y-29260903D01*
X267765145Y-29263069D01*
X267765149Y-29263069D01*
X267772379Y-29264169D01*
X267779671Y-29263576D01*
X267779674Y-29263576D01*
X267825048Y-29259885D01*
X267835263Y-29259470D01*
X267843323Y-29259470D01*
X267846964Y-29259045D01*
X267850603Y-29258834D01*
X267850612Y-29258985D01*
X267858960Y-29258500D01*
X268033629Y-29258500D01*
X268101750Y-29278502D01*
G37*
%TD.AperFunction*%
%TD*%
M02*
