%TF.GenerationSoftware,KiCad,Pcbnew,(6.0.0)*%
%TF.CreationDate,2022-09-21T13:58:56+02:00*%
%TF.ProjectId,Daylight_Disco,4461796c-6967-4687-945f-446973636f2e,rev?*%
%TF.SameCoordinates,Original*%
%TF.FileFunction,Legend,Top*%
%TF.FilePolarity,Positive*%
%FSLAX46Y46*%
G04 Gerber Fmt 4.6, Leading zero omitted, Abs format (unit mm)*
G04 Created by KiCad (PCBNEW (6.0.0)) date 2022-09-21 13:58:56*
%MOMM*%
%LPD*%
G01*
G04 APERTURE LIST*
%ADD10C,0.120000*%
%ADD11C,0.380156*%
G04 APERTURE END LIST*
D10*
%TO.C,C6*%
X120235000Y-32738748D02*
X120235000Y-33261252D01*
X118765000Y-32738748D02*
X118765000Y-33261252D01*
%TO.C,D16*%
X243414705Y-35750000D02*
X236114705Y-35750000D01*
X243414705Y-30250000D02*
X236114705Y-30250000D01*
D11*
X243554783Y-34600000D02*
G75*
G03*
X243554783Y-34600000I-190078J0D01*
G01*
D10*
X236114705Y-30250000D02*
X237114705Y-30256800D01*
X237114705Y-30256800D02*
X236114705Y-31150000D01*
X236114705Y-31150000D02*
X236114705Y-30250000D01*
G36*
X237114705Y-30256800D02*
G01*
X236114705Y-31150000D01*
X236114705Y-30250000D01*
X237114705Y-30256800D01*
G37*
X237114705Y-30256800D02*
X236114705Y-31150000D01*
X236114705Y-30250000D01*
X237114705Y-30256800D01*
%TO.C,D2*%
X45767647Y-35750000D02*
X38467647Y-35750000D01*
X45767647Y-30250000D02*
X38467647Y-30250000D01*
D11*
X45907725Y-34600000D02*
G75*
G03*
X45907725Y-34600000I-190078J0D01*
G01*
D10*
X38467647Y-30250000D02*
X39467647Y-30256800D01*
X39467647Y-30256800D02*
X38467647Y-31150000D01*
X38467647Y-31150000D02*
X38467647Y-30250000D01*
G36*
X39467647Y-30256800D02*
G01*
X38467647Y-31150000D01*
X38467647Y-30250000D01*
X39467647Y-30256800D01*
G37*
X39467647Y-30256800D02*
X38467647Y-31150000D01*
X38467647Y-30250000D01*
X39467647Y-30256800D01*
%TO.C,D1*%
X31650000Y-35750000D02*
X24350000Y-35750000D01*
X31650000Y-30250000D02*
X24350000Y-30250000D01*
D11*
X31790078Y-34600000D02*
G75*
G03*
X31790078Y-34600000I-190078J0D01*
G01*
D10*
X24350000Y-30250000D02*
X25350000Y-30256800D01*
X25350000Y-30256800D02*
X24350000Y-31150000D01*
X24350000Y-31150000D02*
X24350000Y-30250000D01*
G36*
X25350000Y-30256800D02*
G01*
X24350000Y-31150000D01*
X24350000Y-30250000D01*
X25350000Y-30256800D01*
G37*
X25350000Y-30256800D02*
X24350000Y-31150000D01*
X24350000Y-30250000D01*
X25350000Y-30256800D01*
%TO.C,C14*%
X233735000Y-32738748D02*
X233735000Y-33261252D01*
X232265000Y-32738748D02*
X232265000Y-33261252D01*
%TO.C,D12*%
X186944117Y-35750000D02*
X179644117Y-35750000D01*
X186944117Y-30250000D02*
X179644117Y-30250000D01*
D11*
X187084195Y-34600000D02*
G75*
G03*
X187084195Y-34600000I-190078J0D01*
G01*
D10*
X179644117Y-30250000D02*
X180644117Y-30256800D01*
X180644117Y-30256800D02*
X179644117Y-31150000D01*
X179644117Y-31150000D02*
X179644117Y-30250000D01*
G36*
X180644117Y-30256800D02*
G01*
X179644117Y-31150000D01*
X179644117Y-30250000D01*
X180644117Y-30256800D01*
G37*
X180644117Y-30256800D02*
X179644117Y-31150000D01*
X179644117Y-30250000D01*
X180644117Y-30256800D01*
%TO.C,C2*%
X63735000Y-32738748D02*
X63735000Y-33261252D01*
X62265000Y-32738748D02*
X62265000Y-33261252D01*
%TO.C,D14*%
X215179411Y-35750000D02*
X207879411Y-35750000D01*
X215179411Y-30250000D02*
X207879411Y-30250000D01*
D11*
X215319489Y-34600000D02*
G75*
G03*
X215319489Y-34600000I-190078J0D01*
G01*
D10*
X207879411Y-30250000D02*
X208879411Y-30256800D01*
X208879411Y-30256800D02*
X207879411Y-31150000D01*
X207879411Y-31150000D02*
X207879411Y-30250000D01*
G36*
X208879411Y-30256800D02*
G01*
X207879411Y-31150000D01*
X207879411Y-30250000D01*
X208879411Y-30256800D01*
G37*
X208879411Y-30256800D02*
X207879411Y-31150000D01*
X207879411Y-30250000D01*
X208879411Y-30256800D01*
%TO.C,D13*%
X201061764Y-35750000D02*
X193761764Y-35750000D01*
X201061764Y-30250000D02*
X193761764Y-30250000D01*
D11*
X201201842Y-34600000D02*
G75*
G03*
X201201842Y-34600000I-190078J0D01*
G01*
D10*
X193761764Y-30250000D02*
X194761764Y-30256800D01*
X194761764Y-30256800D02*
X193761764Y-31150000D01*
X193761764Y-31150000D02*
X193761764Y-30250000D01*
G36*
X194761764Y-30256800D02*
G01*
X193761764Y-31150000D01*
X193761764Y-30250000D01*
X194761764Y-30256800D01*
G37*
X194761764Y-30256800D02*
X193761764Y-31150000D01*
X193761764Y-30250000D01*
X194761764Y-30256800D01*
%TO.C,C7*%
X133265000Y-32738748D02*
X133265000Y-33261252D01*
X134735000Y-32738748D02*
X134735000Y-33261252D01*
%TO.C,D8*%
X130473529Y-30250000D02*
X123173529Y-30250000D01*
X130473529Y-35750000D02*
X123173529Y-35750000D01*
D11*
X130613607Y-34600000D02*
G75*
G03*
X130613607Y-34600000I-190078J0D01*
G01*
D10*
X123173529Y-30250000D02*
X124173529Y-30256800D01*
X124173529Y-30256800D02*
X123173529Y-31150000D01*
X123173529Y-31150000D02*
X123173529Y-30250000D01*
G36*
X124173529Y-30256800D02*
G01*
X123173529Y-31150000D01*
X123173529Y-30250000D01*
X124173529Y-30256800D01*
G37*
X124173529Y-30256800D02*
X123173529Y-31150000D01*
X123173529Y-30250000D01*
X124173529Y-30256800D01*
%TO.C,C4*%
X92235000Y-32738748D02*
X92235000Y-33261252D01*
X90765000Y-32738748D02*
X90765000Y-33261252D01*
%TO.C,C5*%
X104765000Y-32738748D02*
X104765000Y-33261252D01*
X106235000Y-32738748D02*
X106235000Y-33261252D01*
%TO.C,C15*%
X260265000Y-32738748D02*
X260265000Y-33261252D01*
X261735000Y-32738748D02*
X261735000Y-33261252D01*
%TO.C,D10*%
X158708823Y-30250000D02*
X151408823Y-30250000D01*
X158708823Y-35750000D02*
X151408823Y-35750000D01*
D11*
X158848901Y-34600000D02*
G75*
G03*
X158848901Y-34600000I-190078J0D01*
G01*
D10*
X151408823Y-30250000D02*
X152408823Y-30256800D01*
X152408823Y-30256800D02*
X151408823Y-31150000D01*
X151408823Y-31150000D02*
X151408823Y-30250000D01*
G36*
X152408823Y-30256800D02*
G01*
X151408823Y-31150000D01*
X151408823Y-30250000D01*
X152408823Y-30256800D01*
G37*
X152408823Y-30256800D02*
X151408823Y-31150000D01*
X151408823Y-30250000D01*
X152408823Y-30256800D01*
%TO.C,D15*%
X229297058Y-35750000D02*
X221997058Y-35750000D01*
X229297058Y-30250000D02*
X221997058Y-30250000D01*
D11*
X229437136Y-34600000D02*
G75*
G03*
X229437136Y-34600000I-190078J0D01*
G01*
D10*
X221997058Y-30250000D02*
X222997058Y-30256800D01*
X222997058Y-30256800D02*
X221997058Y-31150000D01*
X221997058Y-31150000D02*
X221997058Y-30250000D01*
G36*
X222997058Y-30256800D02*
G01*
X221997058Y-31150000D01*
X221997058Y-30250000D01*
X222997058Y-30256800D01*
G37*
X222997058Y-30256800D02*
X221997058Y-31150000D01*
X221997058Y-30250000D01*
X222997058Y-30256800D01*
%TO.C,C1*%
X34235000Y-32738748D02*
X34235000Y-33261252D01*
X32765000Y-32738748D02*
X32765000Y-33261252D01*
%TO.C,C8*%
X147265000Y-32738748D02*
X147265000Y-33261252D01*
X148735000Y-32738748D02*
X148735000Y-33261252D01*
%TO.C,C12*%
X205235000Y-32738748D02*
X205235000Y-33261252D01*
X203765000Y-32738748D02*
X203765000Y-33261252D01*
%TO.C,C9*%
X162985000Y-32738748D02*
X162985000Y-33261252D01*
X161515000Y-32738748D02*
X161515000Y-33261252D01*
%TO.C,D7*%
X116355882Y-35750000D02*
X109055882Y-35750000D01*
X116355882Y-30250000D02*
X109055882Y-30250000D01*
D11*
X116495960Y-34600000D02*
G75*
G03*
X116495960Y-34600000I-190078J0D01*
G01*
D10*
X109055882Y-30250000D02*
X110055882Y-30256800D01*
X110055882Y-30256800D02*
X109055882Y-31150000D01*
X109055882Y-31150000D02*
X109055882Y-30250000D01*
G36*
X110055882Y-30256800D02*
G01*
X109055882Y-31150000D01*
X109055882Y-30250000D01*
X110055882Y-30256800D01*
G37*
X110055882Y-30256800D02*
X109055882Y-31150000D01*
X109055882Y-30250000D01*
X110055882Y-30256800D01*
%TO.C,D9*%
X144591176Y-35750000D02*
X137291176Y-35750000D01*
X144591176Y-30250000D02*
X137291176Y-30250000D01*
D11*
X144731254Y-34600000D02*
G75*
G03*
X144731254Y-34600000I-190078J0D01*
G01*
D10*
X137291176Y-30250000D02*
X138291176Y-30256800D01*
X138291176Y-30256800D02*
X137291176Y-31150000D01*
X137291176Y-31150000D02*
X137291176Y-30250000D01*
G36*
X138291176Y-30256800D02*
G01*
X137291176Y-31150000D01*
X137291176Y-30250000D01*
X138291176Y-30256800D01*
G37*
X138291176Y-30256800D02*
X137291176Y-31150000D01*
X137291176Y-30250000D01*
X138291176Y-30256800D01*
%TO.C,D5*%
X88120588Y-30250000D02*
X80820588Y-30250000D01*
X88120588Y-35750000D02*
X80820588Y-35750000D01*
D11*
X88260666Y-34600000D02*
G75*
G03*
X88260666Y-34600000I-190078J0D01*
G01*
D10*
X80820588Y-30250000D02*
X81820588Y-30256800D01*
X81820588Y-30256800D02*
X80820588Y-31150000D01*
X80820588Y-31150000D02*
X80820588Y-30250000D01*
G36*
X81820588Y-30256800D02*
G01*
X80820588Y-31150000D01*
X80820588Y-30250000D01*
X81820588Y-30256800D01*
G37*
X81820588Y-30256800D02*
X80820588Y-31150000D01*
X80820588Y-30250000D01*
X81820588Y-30256800D01*
%TO.C,D11*%
X172826470Y-35750000D02*
X165526470Y-35750000D01*
X172826470Y-30250000D02*
X165526470Y-30250000D01*
D11*
X172966548Y-34600000D02*
G75*
G03*
X172966548Y-34600000I-190078J0D01*
G01*
D10*
X165526470Y-30250000D02*
X166526470Y-30256800D01*
X166526470Y-30256800D02*
X165526470Y-31150000D01*
X165526470Y-31150000D02*
X165526470Y-30250000D01*
G36*
X166526470Y-30256800D02*
G01*
X165526470Y-31150000D01*
X165526470Y-30250000D01*
X166526470Y-30256800D01*
G37*
X166526470Y-30256800D02*
X165526470Y-31150000D01*
X165526470Y-30250000D01*
X166526470Y-30256800D01*
%TO.C,C10*%
X176935000Y-32738748D02*
X176935000Y-33261252D01*
X175465000Y-32738748D02*
X175465000Y-33261252D01*
%TO.C,D6*%
X102238235Y-35750000D02*
X94938235Y-35750000D01*
X102238235Y-30250000D02*
X94938235Y-30250000D01*
D11*
X102378313Y-34600000D02*
G75*
G03*
X102378313Y-34600000I-190078J0D01*
G01*
D10*
X94938235Y-30250000D02*
X95938235Y-30256800D01*
X95938235Y-30256800D02*
X94938235Y-31150000D01*
X94938235Y-31150000D02*
X94938235Y-30250000D01*
G36*
X95938235Y-30256800D02*
G01*
X94938235Y-31150000D01*
X94938235Y-30250000D01*
X95938235Y-30256800D01*
G37*
X95938235Y-30256800D02*
X94938235Y-31150000D01*
X94938235Y-30250000D01*
X95938235Y-30256800D01*
%TO.C,C3*%
X76265000Y-32738748D02*
X76265000Y-33261252D01*
X77735000Y-32738748D02*
X77735000Y-33261252D01*
%TO.C,C13*%
X219235000Y-32738748D02*
X219235000Y-33261252D01*
X217765000Y-32738748D02*
X217765000Y-33261252D01*
%TO.C,D17*%
X257532352Y-35750000D02*
X250232352Y-35750000D01*
X257532352Y-30250000D02*
X250232352Y-30250000D01*
D11*
X257672430Y-34600000D02*
G75*
G03*
X257672430Y-34600000I-190078J0D01*
G01*
D10*
X250232352Y-30250000D02*
X251232352Y-30256800D01*
X251232352Y-30256800D02*
X250232352Y-31150000D01*
X250232352Y-31150000D02*
X250232352Y-30250000D01*
G36*
X251232352Y-30256800D02*
G01*
X250232352Y-31150000D01*
X250232352Y-30250000D01*
X251232352Y-30256800D01*
G37*
X251232352Y-30256800D02*
X250232352Y-31150000D01*
X250232352Y-30250000D01*
X251232352Y-30256800D01*
%TO.C,D4*%
X74002941Y-30250000D02*
X66702941Y-30250000D01*
X74002941Y-35750000D02*
X66702941Y-35750000D01*
D11*
X74143019Y-34600000D02*
G75*
G03*
X74143019Y-34600000I-190078J0D01*
G01*
D10*
X66702941Y-30250000D02*
X67702941Y-30256800D01*
X67702941Y-30256800D02*
X66702941Y-31150000D01*
X66702941Y-31150000D02*
X66702941Y-30250000D01*
G36*
X67702941Y-30256800D02*
G01*
X66702941Y-31150000D01*
X66702941Y-30250000D01*
X67702941Y-30256800D01*
G37*
X67702941Y-30256800D02*
X66702941Y-31150000D01*
X66702941Y-30250000D01*
X67702941Y-30256800D01*
%TO.C,C11*%
X191235000Y-32738748D02*
X191235000Y-33261252D01*
X189765000Y-32738748D02*
X189765000Y-33261252D01*
%TO.C,D3*%
X59885294Y-35750000D02*
X52585294Y-35750000D01*
X59885294Y-30250000D02*
X52585294Y-30250000D01*
D11*
X60025372Y-34600000D02*
G75*
G03*
X60025372Y-34600000I-190078J0D01*
G01*
D10*
X52585294Y-30250000D02*
X53585294Y-30256800D01*
X53585294Y-30256800D02*
X52585294Y-31150000D01*
X52585294Y-31150000D02*
X52585294Y-30250000D01*
G36*
X53585294Y-30256800D02*
G01*
X52585294Y-31150000D01*
X52585294Y-30250000D01*
X53585294Y-30256800D01*
G37*
X53585294Y-30256800D02*
X52585294Y-31150000D01*
X52585294Y-30250000D01*
X53585294Y-30256800D01*
%TO.C,D18*%
X271650000Y-30250000D02*
X264350000Y-30250000D01*
X271650000Y-35750000D02*
X264350000Y-35750000D01*
D11*
X271790078Y-34600000D02*
G75*
G03*
X271790078Y-34600000I-190078J0D01*
G01*
D10*
X264350000Y-30250000D02*
X265350000Y-30256800D01*
X265350000Y-30256800D02*
X264350000Y-31150000D01*
X264350000Y-31150000D02*
X264350000Y-30250000D01*
G36*
X265350000Y-30256800D02*
G01*
X264350000Y-31150000D01*
X264350000Y-30250000D01*
X265350000Y-30256800D01*
G37*
X265350000Y-30256800D02*
X264350000Y-31150000D01*
X264350000Y-30250000D01*
X265350000Y-30256800D01*
%TD*%
M02*
