G04 Layer: TopSilkLayer*
G04 EasyEDA v6.4.17, 2021-03-12T13:34:12--8:00*
G04 3659535c781443348461a5117498f7cd,debd25b7e7f645e7808fdd9718494454,10*
G04 Gerber Generator version 0.2*
G04 Scale: 100 percent, Rotated: No, Reflected: No *
G04 Dimensions in millimeters *
G04 leading zeros omitted , absolute positions ,4 integer and 5 decimal *
%FSLAX45Y45*%
%MOMM*%

%ADD10C,0.2540*%
%ADD14C,0.2500*%
%ADD15C,0.1524*%

%LPD*%
D15*
X7391400Y6795515D02*
G01*
X7391400Y6686550D01*
X7464043Y6795515D02*
G01*
X7464043Y6686550D01*
X7391400Y6743700D02*
G01*
X7464043Y6743700D01*
X7498334Y6795515D02*
G01*
X7498334Y6686550D01*
X7498334Y6795515D02*
G01*
X7565897Y6795515D01*
X7498334Y6743700D02*
G01*
X7539990Y6743700D01*
X7498334Y6686550D02*
G01*
X7565897Y6686550D01*
X7600188Y6774687D02*
G01*
X7610602Y6780021D01*
X7626350Y6795515D01*
X7626350Y6686550D01*
X6881622Y6886955D02*
G01*
X6892036Y6897370D01*
X6897115Y6912863D01*
X6897115Y6933692D01*
X6892036Y6949186D01*
X6881622Y6959600D01*
X6871208Y6959600D01*
X6860793Y6954520D01*
X6855459Y6949186D01*
X6850379Y6938771D01*
X6839965Y6907529D01*
X6834886Y6897370D01*
X6829552Y6892036D01*
X6819138Y6886955D01*
X6803643Y6886955D01*
X6793229Y6897370D01*
X6788150Y6912863D01*
X6788150Y6933692D01*
X6793229Y6949186D01*
X6803643Y6959600D01*
X6897115Y6852665D02*
G01*
X6788150Y6826504D01*
X6897115Y6800595D02*
G01*
X6788150Y6826504D01*
X6897115Y6800595D02*
G01*
X6788150Y6774687D01*
X6897115Y6748779D02*
G01*
X6788150Y6774687D01*
X6876288Y6714489D02*
G01*
X6881622Y6704076D01*
X6897115Y6688328D01*
X6788150Y6688328D01*
D10*
X5863021Y6532600D02*
G01*
X5593011Y6532600D01*
X5613016Y6512600D01*
X5613016Y5662599D01*
X5931656Y5933932D01*
X5931656Y6072596D01*
X5813016Y6072596D01*
X5813016Y6032599D01*
X5728009Y5957986D01*
X5728009Y6397599D01*
X5813016Y6397599D01*
X5813016Y6372603D01*
X5931656Y6372603D01*
X5931656Y6479146D01*
X5863021Y6532600D01*
X5464558Y6163241D02*
G01*
X5464558Y6603240D01*
X5553016Y6602600D01*
X5553016Y6232042D01*
X5464558Y6163241D01*
X5344195Y6677601D02*
G01*
X5344195Y5859190D01*
X5671256Y6137429D01*
X5671256Y6677601D01*
X5603019Y6732600D01*
X5320543Y6732600D01*
X5344553Y6713240D01*
X5344195Y6677601D01*
D14*
X7217514Y5889002D02*
G01*
X7217514Y6019800D01*
X7277100Y6019800D01*
X7327900Y6070600D01*
X7327900Y6438900D01*
X7302500Y6464300D01*
X7264400Y6502400D01*
X7213600Y6502400D01*
X7213600Y6629400D01*
X7838404Y5889002D02*
G01*
X7838404Y6629001D01*
X7838404Y5889002D02*
G01*
X7217514Y5889002D01*
X7217514Y6629001D02*
G01*
X7838404Y6629001D01*
D10*
X6728896Y7021799D02*
G01*
X6728899Y5741802D01*
X6148903Y5741802D02*
G01*
X6148900Y7021799D01*
X6148903Y7021799D02*
G01*
X6728899Y7021799D01*
X6616700Y6889800D02*
G01*
X6616700Y7016800D01*
X6261100Y6889800D02*
G01*
X6261100Y7016800D01*
X6642100Y6889800D02*
G01*
X6572013Y6889800D01*
X6305786Y6889800D02*
G01*
X6235700Y6889800D01*
X6235700Y6889800D02*
G01*
X6235700Y5594400D01*
X6235700Y5594400D02*
G01*
X6642100Y5594400D01*
X6642100Y5594400D02*
G01*
X6642100Y6889800D01*
X6728899Y5741802D02*
G01*
X6642100Y5741802D01*
X6148903Y5741802D02*
G01*
X6235700Y5741802D01*
M02*
