G04 Layer: TopSilkLayer*
G04 EasyEDA v6.4.17, 2021-03-23T13:38:06--7:00*
G04 633469f3016a4f73af4afc1989af9937,debd25b7e7f645e7808fdd9718494454,10*
G04 Gerber Generator version 0.2*
G04 Scale: 100 percent, Rotated: No, Reflected: No *
G04 Dimensions in millimeters *
G04 leading zeros omitted , absolute positions ,4 integer and 5 decimal *
%FSLAX45Y45*%
%MOMM*%

%ADD10C,0.2540*%
%ADD14C,0.2500*%

%LPD*%
G36*
X5585968Y6468668D02*
G01*
X5584393Y6468313D01*
X5578703Y6465976D01*
X5563311Y6457848D01*
X5511850Y6429806D01*
X5426303Y6382461D01*
X5361787Y6346494D01*
X5361787Y6220612D01*
X5430723Y6220612D01*
X5431434Y6223101D01*
X5434076Y6228130D01*
X5439003Y6236157D01*
X5457088Y6263284D01*
X5520182Y6355638D01*
X5588000Y6355740D01*
X5584444Y6349796D01*
X5556199Y6307937D01*
X5496102Y6219596D01*
X5452465Y6219088D01*
X5442000Y6219240D01*
X5434482Y6219596D01*
X5431028Y6220104D01*
X5430723Y6220612D01*
X5361787Y6220612D01*
X5361787Y6090970D01*
X5378386Y6081776D01*
X5462574Y6081776D01*
X5463743Y6085636D01*
X5466588Y6090767D01*
X5483656Y6117488D01*
X5512358Y6160516D01*
X5585764Y6268923D01*
X5644997Y6355943D01*
X5689600Y6355130D01*
X5700014Y6354724D01*
X5707278Y6354216D01*
X5710224Y6353759D01*
X5709107Y6351371D01*
X5699252Y6335674D01*
X5676747Y6301790D01*
X5527620Y6082182D01*
X5585104Y6082182D01*
X5586374Y6084570D01*
X5596686Y6100572D01*
X5614619Y6127496D01*
X5656122Y6188557D01*
X5677052Y6218783D01*
X5722010Y6218682D01*
X5739638Y6217970D01*
X5742533Y6217462D01*
X5740400Y6213398D01*
X5734050Y6203238D01*
X5712510Y6170828D01*
X5653735Y6083909D01*
X5606592Y6082233D01*
X5588101Y6081979D01*
X5585104Y6082182D01*
X5527620Y6082182D01*
X5527344Y6081776D01*
X5378386Y6081776D01*
X5508752Y6009589D01*
X5566765Y5977940D01*
X5586069Y5967933D01*
X5610606Y5980836D01*
X5708040Y6034278D01*
X5810402Y6090970D01*
X5810402Y6346545D01*
X5641086Y6440119D01*
X5602833Y6460693D01*
X5593080Y6465570D01*
X5587136Y6468313D01*
G37*
G36*
X5789828Y6849160D02*
G01*
X5775452Y6849059D01*
X5763666Y6848703D01*
X5755741Y6848246D01*
X5752795Y6847636D01*
X5754014Y6844842D01*
X5757875Y6838340D01*
X5758688Y6835952D01*
X5759399Y6832346D01*
X5759907Y6826758D01*
X5760516Y6806946D01*
X5760770Y6771030D01*
X5760821Y6592874D01*
X5750052Y6585864D01*
X5795975Y6547154D01*
X5805830Y6539433D01*
X5807659Y6538264D01*
X5808014Y6540906D01*
X5808675Y6559600D01*
X5809234Y6591655D01*
X5809945Y6683451D01*
X5835751Y6566916D01*
X5841898Y6539992D01*
X5843168Y6536181D01*
X5844286Y6534302D01*
X5845098Y6534505D01*
X5847435Y6542074D01*
X5878169Y6667652D01*
X5878880Y6544056D01*
X5878830Y6519164D01*
X5878576Y6508546D01*
X5878169Y6501587D01*
X5877458Y6497320D01*
X5876493Y6494881D01*
X5875223Y6493256D01*
X5871260Y6489039D01*
X5925159Y6446672D01*
X5940094Y6435496D01*
X5940958Y6435039D01*
X5940856Y6436207D01*
X5938977Y6442964D01*
X5936386Y6451041D01*
X5935319Y6456375D01*
X5934506Y6464858D01*
X5933948Y6478625D01*
X5933592Y6499910D01*
X5933440Y6530898D01*
X5933338Y6834936D01*
X5943041Y6842861D01*
X5945276Y6844944D01*
X5946800Y6846671D01*
X5947359Y6847687D01*
X5946546Y6847992D01*
X5940602Y6848500D01*
X5915761Y6848805D01*
X5868314Y6848144D01*
X5854293Y6800291D01*
X5850788Y6789572D01*
X5848197Y6782612D01*
X5846826Y6780479D01*
X5844286Y6787438D01*
X5835192Y6820153D01*
X5826861Y6849160D01*
G37*
G36*
X5614822Y6849160D02*
G01*
X5594350Y6830720D01*
X5594350Y6790994D01*
X5688634Y6790994D01*
X5688634Y6634886D01*
X5652516Y6606387D01*
X5652516Y6790994D01*
X5594350Y6790994D01*
X5594350Y6593382D01*
X5637987Y6557568D01*
X5661863Y6538772D01*
X5668264Y6534150D01*
X5669483Y6533489D01*
X5670753Y6534048D01*
X5677306Y6538468D01*
X5688126Y6546392D01*
X5701842Y6556908D01*
X5746800Y6592417D01*
X5746800Y6832955D01*
X5722924Y6849160D01*
G37*
G36*
X5318455Y6849160D02*
G01*
X5288178Y6848805D01*
X5268417Y6848094D01*
X5263388Y6847433D01*
X5263642Y6846519D01*
X5265267Y6844233D01*
X5266690Y6842861D01*
X5267502Y6840067D01*
X5268163Y6833514D01*
X5268620Y6821728D01*
X5269026Y6790994D01*
X5343398Y6790994D01*
X5352338Y6790842D01*
X5357977Y6790385D01*
X5361127Y6789420D01*
X5362448Y6787845D01*
X5362803Y6784340D01*
X5363311Y6763867D01*
X5363616Y6730441D01*
X5363667Y6636766D01*
X5340502Y6617512D01*
X5328107Y6607759D01*
X5327751Y6607759D01*
X5327396Y6608267D01*
X5326837Y6611112D01*
X5326075Y6625234D01*
X5325668Y6653275D01*
X5325567Y6790994D01*
X5269026Y6790944D01*
X5269026Y6692646D01*
X5268722Y6598056D01*
X5268264Y6529781D01*
X5267604Y6481064D01*
X5266639Y6453479D01*
X5266182Y6451600D01*
X5267147Y6451600D01*
X5269585Y6453174D01*
X5425694Y6575704D01*
X5425694Y6576364D01*
X5425033Y6577584D01*
X5422188Y6581038D01*
X5417820Y6585661D01*
X5417820Y6830669D01*
X5390743Y6849160D01*
G37*
G36*
X5562701Y6847179D02*
G01*
X5452922Y6847128D01*
X5429910Y6832142D01*
X5429910Y6789013D01*
X5526125Y6789013D01*
X5526074Y6644894D01*
X5525668Y6617563D01*
X5525211Y6610756D01*
X5524601Y6607251D01*
X5524195Y6606489D01*
X5523738Y6606235D01*
X5522620Y6606794D01*
X5488025Y6634835D01*
X5488025Y6789013D01*
X5429910Y6789013D01*
X5429910Y6591452D01*
X5489295Y6544564D01*
X5506974Y6531254D01*
X5518658Y6540093D01*
X5545124Y6561328D01*
X5582158Y6591452D01*
X5582310Y6830720D01*
G37*
G36*
X5960465Y6846519D02*
G01*
X5959449Y6846366D01*
X5958738Y6846011D01*
X5958433Y6845452D01*
X5958636Y6844792D01*
X5959144Y6844233D01*
X5959906Y6843928D01*
X5960719Y6843928D01*
X5962243Y6844741D01*
X5963412Y6845960D01*
X5962548Y6846316D01*
G37*
G36*
X7653781Y6246368D02*
G01*
X7630159Y6231636D01*
X7630159Y6217666D01*
X7650480Y6228842D01*
X7650480Y6172200D01*
X7667244Y6172200D01*
X7667244Y6246368D01*
G37*
G36*
X7558786Y6246368D02*
G01*
X7558786Y6172200D01*
X7616444Y6172200D01*
X7616444Y6184900D01*
X7576566Y6184900D01*
X7576566Y6203950D01*
X7611618Y6203950D01*
X7611618Y6216650D01*
X7576566Y6216650D01*
X7576566Y6233668D01*
X7615428Y6233668D01*
X7615428Y6246368D01*
G37*
G36*
X7475474Y6246368D02*
G01*
X7475474Y6172200D01*
X7493508Y6172200D01*
X7493508Y6203950D01*
X7525003Y6203950D01*
X7525003Y6172200D01*
X7542784Y6172200D01*
X7542784Y6246368D01*
X7525003Y6246368D01*
X7525003Y6216650D01*
X7493508Y6216650D01*
X7493508Y6246368D01*
G37*
G36*
X5605272Y5891276D02*
G01*
X5605272Y5873242D01*
X5605526Y5858002D01*
X5605272Y5858002D01*
X5604916Y5859678D01*
X5603798Y5861202D01*
X5601970Y5862472D01*
X5599430Y5863590D01*
X5596483Y5864453D01*
X5593283Y5865114D01*
X5585968Y5865622D01*
X5579821Y5865368D01*
X5574690Y5864606D01*
X5570423Y5863336D01*
X5567172Y5861558D01*
X5564733Y5859322D01*
X5563006Y5856427D01*
X5561939Y5852820D01*
X5561584Y5848604D01*
X5561684Y5819648D01*
X5572506Y5819648D01*
X5572506Y5849620D01*
X5572709Y5851956D01*
X5573318Y5853836D01*
X5574385Y5855258D01*
X5575808Y5856224D01*
X5577687Y5856884D01*
X5580430Y5857392D01*
X5588762Y5857748D01*
X5595975Y5857240D01*
X5601157Y5855716D01*
X5604256Y5853176D01*
X5605272Y5849620D01*
X5605272Y5819648D01*
X5605018Y5817311D01*
X5604256Y5815330D01*
X5602986Y5813755D01*
X5601208Y5812536D01*
X5598820Y5811672D01*
X5595823Y5811012D01*
X5587746Y5810504D01*
X5580634Y5811012D01*
X5578043Y5811672D01*
X5576062Y5812536D01*
X5574487Y5813755D01*
X5573420Y5815330D01*
X5572709Y5817311D01*
X5572506Y5819648D01*
X5561684Y5819648D01*
X5562142Y5815380D01*
X5562854Y5812739D01*
X5563870Y5810504D01*
X5565190Y5808522D01*
X5566867Y5806846D01*
X5568848Y5805474D01*
X5571236Y5804408D01*
X5574030Y5803646D01*
X5577332Y5803087D01*
X5581142Y5802731D01*
X5589879Y5802782D01*
X5593842Y5803290D01*
X5597245Y5804052D01*
X5600192Y5805170D01*
X5602528Y5806490D01*
X5604205Y5807913D01*
X5605170Y5809386D01*
X5605526Y5811012D01*
X5605526Y5803900D01*
X5616702Y5803900D01*
X5616702Y5891276D01*
G37*
G36*
X5420360Y5884926D02*
G01*
X5420360Y5803900D01*
X5475986Y5803900D01*
X5475986Y5812282D01*
X5432552Y5812282D01*
X5432552Y5841492D01*
X5470652Y5841492D01*
X5470652Y5850128D01*
X5432552Y5850128D01*
X5432552Y5876544D01*
X5474970Y5876544D01*
X5474970Y5884926D01*
G37*
G36*
X5314950Y5884926D02*
G01*
X5314950Y5876544D01*
X5361432Y5876544D01*
X5313680Y5812282D01*
X5313680Y5803900D01*
X5376164Y5803900D01*
X5376164Y5812282D01*
X5327650Y5812282D01*
X5375402Y5876544D01*
X5375402Y5884926D01*
G37*
G36*
X5700522Y5883148D02*
G01*
X5700522Y5864352D01*
X5687060Y5864352D01*
X5687060Y5856986D01*
X5700522Y5856986D01*
X5700623Y5817971D01*
X5700979Y5814872D01*
X5701538Y5812231D01*
X5702300Y5809996D01*
X5703468Y5808116D01*
X5704890Y5806592D01*
X5706618Y5805322D01*
X5708650Y5804408D01*
X5711139Y5803646D01*
X5713984Y5803087D01*
X5717235Y5802731D01*
X5723991Y5802680D01*
X5730341Y5803188D01*
X5733542Y5803646D01*
X5733542Y5811012D01*
X5724398Y5809996D01*
X5719927Y5810250D01*
X5715508Y5811469D01*
X5713577Y5812993D01*
X5712510Y5815330D01*
X5712002Y5818784D01*
X5711952Y5856986D01*
X5733542Y5856986D01*
X5733542Y5864352D01*
X5711952Y5864352D01*
X5711952Y5883148D01*
G37*
G36*
X5848604Y5865622D02*
G01*
X5833821Y5863742D01*
X5828030Y5858002D01*
X5827776Y5858002D01*
X5827776Y5864352D01*
X5816600Y5864352D01*
X5816600Y5822188D01*
X5828030Y5822188D01*
X5828131Y5847232D01*
X5828334Y5849569D01*
X5828741Y5851448D01*
X5829300Y5852922D01*
X5830163Y5854192D01*
X5831230Y5855208D01*
X5832449Y5855970D01*
X5835751Y5856935D01*
X5840679Y5857443D01*
X5846876Y5857443D01*
X5851956Y5856935D01*
X5855462Y5855970D01*
X5856782Y5855208D01*
X5857900Y5854192D01*
X5858764Y5852922D01*
X5859424Y5851347D01*
X5860186Y5847181D01*
X5860288Y5822188D01*
X5859881Y5817717D01*
X5859424Y5815990D01*
X5858764Y5814568D01*
X5857900Y5813399D01*
X5856782Y5812485D01*
X5855462Y5811774D01*
X5852007Y5810808D01*
X5847029Y5810300D01*
X5841034Y5810300D01*
X5836056Y5810808D01*
X5832602Y5811774D01*
X5831281Y5812485D01*
X5830163Y5813399D01*
X5829300Y5814568D01*
X5828334Y5817768D01*
X5828030Y5822188D01*
X5816600Y5822188D01*
X5816600Y5777992D01*
X5828030Y5777992D01*
X5828030Y5807710D01*
X5828741Y5806541D01*
X5829909Y5805474D01*
X5831535Y5804611D01*
X5835954Y5803341D01*
X5841034Y5802731D01*
X5846114Y5802680D01*
X5854192Y5803341D01*
X5858103Y5804103D01*
X5861913Y5805322D01*
X5864961Y5806998D01*
X5867349Y5809234D01*
X5869381Y5812383D01*
X5870956Y5816447D01*
X5871870Y5821121D01*
X5871972Y5848604D01*
X5871565Y5852109D01*
X5870448Y5855360D01*
X5868568Y5858205D01*
X5865876Y5860796D01*
X5862624Y5862929D01*
X5858611Y5864402D01*
X5853988Y5865317D01*
G37*
G36*
X5769000Y5865622D02*
G01*
X5759958Y5865164D01*
X5756046Y5864402D01*
X5752338Y5863183D01*
X5749544Y5861507D01*
X5747461Y5859272D01*
X5746496Y5857748D01*
X5744972Y5853938D01*
X5743854Y5849315D01*
X5743448Y5844032D01*
X5743494Y5821426D01*
X5754878Y5821426D01*
X5754979Y5848451D01*
X5755741Y5852617D01*
X5756402Y5854192D01*
X5757164Y5855360D01*
X5758180Y5856274D01*
X5759450Y5856986D01*
X5762853Y5857849D01*
X5768086Y5858205D01*
X5774588Y5858205D01*
X5779668Y5857849D01*
X5783072Y5856986D01*
X5784392Y5856274D01*
X5785510Y5855360D01*
X5786374Y5854192D01*
X5787339Y5850686D01*
X5787644Y5845810D01*
X5787593Y5819495D01*
X5787237Y5816346D01*
X5786882Y5815076D01*
X5785561Y5812993D01*
X5783580Y5811774D01*
X5781294Y5810758D01*
X5779008Y5810250D01*
X5768898Y5809996D01*
X5762548Y5810453D01*
X5760262Y5811215D01*
X5758129Y5812282D01*
X5757214Y5812993D01*
X5755894Y5815076D01*
X5755132Y5817819D01*
X5754878Y5821426D01*
X5743494Y5821426D01*
X5743905Y5816600D01*
X5744464Y5814009D01*
X5745226Y5811774D01*
X5746394Y5809792D01*
X5747766Y5808065D01*
X5749442Y5806744D01*
X5751322Y5805678D01*
X5755386Y5804154D01*
X5759450Y5803138D01*
X5764326Y5802731D01*
X5776163Y5802680D01*
X5780786Y5802884D01*
X5784799Y5803493D01*
X5790438Y5804966D01*
X5793232Y5806490D01*
X5794248Y5807456D01*
X5796483Y5810250D01*
X5798058Y5813755D01*
X5799023Y5817971D01*
X5799328Y5822950D01*
X5799226Y5846876D01*
X5798972Y5849518D01*
X5797804Y5854192D01*
X5796127Y5857951D01*
X5794248Y5860542D01*
X5791708Y5862574D01*
X5788152Y5864098D01*
X5784596Y5864910D01*
X5781040Y5865368D01*
G37*
G36*
X5658612Y5865622D02*
G01*
X5646826Y5864707D01*
X5638393Y5862066D01*
X5633364Y5857595D01*
X5631688Y5851398D01*
X5631688Y5845810D01*
X5631992Y5842457D01*
X5632907Y5839510D01*
X5634380Y5837021D01*
X5636514Y5834888D01*
X5639308Y5833211D01*
X5642610Y5832043D01*
X5646420Y5831332D01*
X5650738Y5831078D01*
X5660542Y5830976D01*
X5662879Y5830620D01*
X5664758Y5830062D01*
X5666232Y5829300D01*
X5667349Y5828385D01*
X5668162Y5827217D01*
X5668619Y5825744D01*
X5668772Y5817870D01*
X5668568Y5815888D01*
X5667959Y5814263D01*
X5666892Y5812942D01*
X5665470Y5812028D01*
X5663387Y5811367D01*
X5657545Y5810605D01*
X5653786Y5810504D01*
X5645404Y5811062D01*
X5632958Y5812790D01*
X5632958Y5804154D01*
X5643575Y5802985D01*
X5653532Y5802630D01*
X5659831Y5802884D01*
X5665266Y5803646D01*
X5669889Y5804916D01*
X5673598Y5806694D01*
X5676392Y5808929D01*
X5678373Y5811926D01*
X5679541Y5815533D01*
X5679948Y5819902D01*
X5679948Y5825236D01*
X5675172Y5835904D01*
X5660898Y5839460D01*
X5653786Y5839460D01*
X5648909Y5839815D01*
X5645404Y5840984D01*
X5643321Y5842914D01*
X5642610Y5845556D01*
X5642610Y5850636D01*
X5642813Y5852515D01*
X5643422Y5854141D01*
X5644489Y5855462D01*
X5645912Y5856478D01*
X5647893Y5857240D01*
X5650636Y5857798D01*
X5653989Y5858154D01*
X5662117Y5858154D01*
X5671515Y5857240D01*
X5676900Y5856478D01*
X5676900Y5864606D01*
G37*
G36*
X5523230Y5865622D02*
G01*
X5509260Y5863488D01*
X5503418Y5856986D01*
X5503418Y5864352D01*
X5491988Y5864352D01*
X5491988Y5803900D01*
X5503418Y5803900D01*
X5503519Y5849416D01*
X5504129Y5852464D01*
X5504688Y5853684D01*
X5506720Y5855462D01*
X5508091Y5856173D01*
X5511749Y5857189D01*
X5516829Y5857697D01*
X5523890Y5857544D01*
X5527040Y5856935D01*
X5529427Y5855868D01*
X5531104Y5854446D01*
X5532018Y5852922D01*
X5532729Y5850686D01*
X5532882Y5848756D01*
X5532882Y5803900D01*
X5544312Y5803900D01*
X5544312Y5848350D01*
X5544007Y5852515D01*
X5543092Y5856071D01*
X5541619Y5859119D01*
X5539486Y5861558D01*
X5536742Y5863336D01*
X5533136Y5864606D01*
X5528614Y5865368D01*
G37*
G36*
X6845553Y6421882D02*
G01*
X6837019Y6420358D01*
X6830872Y6415786D01*
X6827215Y6408166D01*
X6825996Y6397498D01*
X6825894Y6386271D01*
X6825538Y6384188D01*
X6824980Y6382461D01*
X6824218Y6381242D01*
X6823100Y6380378D01*
X6821728Y6379718D01*
X6818375Y6379210D01*
X6813803Y6379210D01*
X6810349Y6380124D01*
X6807911Y6382918D01*
X6806438Y6387490D01*
X6805930Y6393942D01*
X6806692Y6404102D01*
X6808978Y6420358D01*
X6795516Y6420358D01*
X6793788Y6406083D01*
X6793230Y6394196D01*
X6793484Y6386931D01*
X6794246Y6380988D01*
X6795668Y6375654D01*
X6797802Y6370828D01*
X6800646Y6366611D01*
X6804558Y6363563D01*
X6809536Y6361785D01*
X6815581Y6361176D01*
X6820662Y6361176D01*
X6825081Y6361531D01*
X6828891Y6362649D01*
X6832193Y6364478D01*
X6834886Y6367018D01*
X6836867Y6370269D01*
X6838340Y6374384D01*
X6839153Y6379413D01*
X6839458Y6385306D01*
X6839458Y6394196D01*
X6839813Y6398514D01*
X6840931Y6401612D01*
X6842759Y6403492D01*
X6845300Y6404102D01*
X6850634Y6404102D01*
X6852208Y6403898D01*
X6853529Y6403289D01*
X6854748Y6402222D01*
X6855714Y6400800D01*
X6856374Y6398920D01*
X6857136Y6392773D01*
X6857136Y6384747D01*
X6856120Y6372961D01*
X6855206Y6364986D01*
X6868414Y6364986D01*
X6869531Y6377736D01*
X6869938Y6388100D01*
X6868820Y6403289D01*
X6865366Y6413754D01*
X6862724Y6417310D01*
X6859473Y6419850D01*
X6855510Y6421374D01*
X6850888Y6421882D01*
G37*
G36*
X6868668Y6356096D02*
G01*
X6794500Y6332982D01*
X6794500Y6315456D01*
X6848348Y6300724D01*
X6794500Y6286754D01*
X6794500Y6268974D01*
X6868668Y6245352D01*
X6868668Y6263386D01*
X6814566Y6276594D01*
X6868668Y6292088D01*
X6868668Y6308598D01*
X6814566Y6323076D01*
X6868668Y6337554D01*
G37*
G36*
X6839966Y6234684D02*
G01*
X6851142Y6214364D01*
X6794500Y6214364D01*
X6794500Y6197600D01*
X6868668Y6197600D01*
X6868668Y6211316D01*
X6853936Y6234684D01*
G37*
D14*
X7217514Y5889002D02*
G01*
X7217514Y6019800D01*
X7277100Y6019800D01*
X7327900Y6070600D01*
X7327900Y6438900D01*
X7302500Y6464300D01*
X7264400Y6502400D01*
X7213600Y6502400D01*
X7213600Y6629400D01*
X7838404Y5889002D02*
G01*
X7838404Y6629001D01*
X7838404Y5889002D02*
G01*
X7217514Y5889002D01*
X7217514Y6629001D02*
G01*
X7838404Y6629001D01*
D10*
X6728896Y7021799D02*
G01*
X6728899Y5741802D01*
X6148903Y5741802D02*
G01*
X6148900Y7021799D01*
X6148903Y7021799D02*
G01*
X6728899Y7021799D01*
X6616700Y6889800D02*
G01*
X6616700Y7016800D01*
X6261100Y6889800D02*
G01*
X6261100Y7016800D01*
X6642100Y6889800D02*
G01*
X6572013Y6889800D01*
X6305786Y6889800D02*
G01*
X6235700Y6889800D01*
X6235700Y6889800D02*
G01*
X6235700Y5594400D01*
X6235700Y5594400D02*
G01*
X6642100Y5594400D01*
X6642100Y5594400D02*
G01*
X6642100Y6889800D01*
X6728899Y5741802D02*
G01*
X6642100Y5741802D01*
X6148903Y5741802D02*
G01*
X6235700Y5741802D01*
M02*
