G04 Layer: BottomSilkLayer*
G04 EasyEDA v6.4.17, 2021-03-23T13:38:06--7:00*
G04 633469f3016a4f73af4afc1989af9937,debd25b7e7f645e7808fdd9718494454,10*
G04 Gerber Generator version 0.2*
G04 Scale: 100 percent, Rotated: No, Reflected: No *
G04 Dimensions in millimeters *
G04 leading zeros omitted , absolute positions ,4 integer and 5 decimal *
%FSLAX45Y45*%
%MOMM*%

%ADD10C,0.0001*%

%LPD*%
G36*
X6275324Y7156703D02*
G01*
X6275324Y7086600D01*
X6284468Y7086600D01*
X6284468Y7156703D01*
G37*
G36*
X6371082Y7156703D02*
G01*
X6371082Y7086600D01*
X6380226Y7086600D01*
X6380226Y7156703D01*
G37*
G36*
X6466840Y7156703D02*
G01*
X6466840Y7086600D01*
X6475730Y7086600D01*
X6475730Y7156703D01*
G37*
G36*
X6562598Y7156703D02*
G01*
X6562598Y7086600D01*
X6571488Y7086600D01*
X6571488Y7156703D01*
G37*
G36*
X6299962Y7152386D02*
G01*
X6299962Y7142988D01*
X6309106Y7142988D01*
X6309106Y7152386D01*
G37*
G36*
X6395720Y7152386D02*
G01*
X6395720Y7142988D01*
X6404610Y7142988D01*
X6404610Y7152386D01*
G37*
G36*
X6491478Y7152386D02*
G01*
X6491478Y7142988D01*
X6500368Y7142988D01*
X6500368Y7152386D01*
G37*
G36*
X6586981Y7152386D02*
G01*
X6586981Y7142988D01*
X6596125Y7142988D01*
X6596125Y7152386D01*
G37*
G36*
X6239256Y7135875D02*
G01*
X6232398Y7135571D01*
X6225540Y7134606D01*
X6225540Y7128002D01*
X6233210Y7129322D01*
X6240526Y7129780D01*
X6244945Y7129627D01*
X6248146Y7129272D01*
X6250127Y7128205D01*
X6251448Y7126478D01*
X6252210Y7123938D01*
X6252464Y7120381D01*
X6252413Y7099046D01*
X6251905Y7096252D01*
X6251448Y7095236D01*
X6249873Y7093712D01*
X6247638Y7092696D01*
X6244183Y7092137D01*
X6239510Y7091934D01*
X6235801Y7092035D01*
X6228486Y7092950D01*
X6224778Y7093712D01*
X6224778Y7087108D01*
X6232093Y7085990D01*
X6240272Y7085584D01*
X6247638Y7085838D01*
X6251346Y7086498D01*
X6254140Y7087260D01*
X6256578Y7088428D01*
X6257544Y7089140D01*
X6259118Y7091222D01*
X6260338Y7093966D01*
X6261303Y7097318D01*
X6261608Y7101331D01*
X6261608Y7119112D01*
X6261404Y7122871D01*
X6260846Y7126071D01*
X6259880Y7128713D01*
X6258560Y7130796D01*
X6256782Y7132574D01*
X6255004Y7133844D01*
X6252972Y7134758D01*
X6250432Y7135368D01*
X6245606Y7135875D01*
G37*
G36*
X6335014Y7135875D02*
G01*
X6328156Y7135571D01*
X6321298Y7134606D01*
X6321298Y7128002D01*
X6328918Y7129322D01*
X6336030Y7129780D01*
X6340602Y7129627D01*
X6343650Y7129272D01*
X6345834Y7128205D01*
X6347206Y7126478D01*
X6347968Y7123938D01*
X6348222Y7120381D01*
X6348120Y7099046D01*
X6347510Y7096252D01*
X6346342Y7094423D01*
X6344412Y7093153D01*
X6341668Y7092340D01*
X6337604Y7091984D01*
X6331458Y7092035D01*
X6324193Y7092950D01*
X6320536Y7093712D01*
X6320536Y7087108D01*
X6327851Y7085990D01*
X6336030Y7085584D01*
X6343142Y7085838D01*
X6348476Y7086853D01*
X6351219Y7087819D01*
X6353302Y7089140D01*
X6354775Y7091222D01*
X6356096Y7093966D01*
X6357061Y7097318D01*
X6357366Y7101331D01*
X6357366Y7119112D01*
X6357162Y7122871D01*
X6356604Y7126071D01*
X6355638Y7128713D01*
X6354318Y7130796D01*
X6352540Y7132574D01*
X6350762Y7133844D01*
X6348730Y7134758D01*
X6346190Y7135368D01*
X6341110Y7135875D01*
G37*
G36*
X6430772Y7135875D02*
G01*
X6423863Y7135571D01*
X6416802Y7134606D01*
X6416802Y7128002D01*
X6424625Y7129322D01*
X6431788Y7129780D01*
X6436360Y7129627D01*
X6439408Y7129272D01*
X6441541Y7128205D01*
X6442964Y7126478D01*
X6443522Y7123938D01*
X6443726Y7120381D01*
X6443675Y7099046D01*
X6443167Y7096252D01*
X6442100Y7094423D01*
X6440170Y7093153D01*
X6437325Y7092340D01*
X6433261Y7091984D01*
X6427114Y7092035D01*
X6419850Y7092950D01*
X6416294Y7093712D01*
X6416294Y7087108D01*
X6423456Y7085990D01*
X6431788Y7085584D01*
X6438900Y7085838D01*
X6442608Y7086498D01*
X6445504Y7087260D01*
X6447942Y7088428D01*
X6449669Y7090105D01*
X6451193Y7092543D01*
X6452412Y7095591D01*
X6453022Y7099249D01*
X6453124Y7119112D01*
X6452920Y7122871D01*
X6452311Y7126071D01*
X6451244Y7128713D01*
X6449060Y7131761D01*
X6447383Y7133285D01*
X6445554Y7134301D01*
X6443268Y7135063D01*
X6436868Y7135875D01*
G37*
G36*
X6526276Y7135875D02*
G01*
X6519418Y7135571D01*
X6512559Y7134606D01*
X6512559Y7128002D01*
X6520383Y7129322D01*
X6527546Y7129780D01*
X6531965Y7129627D01*
X6535166Y7129272D01*
X6537248Y7128205D01*
X6538468Y7126478D01*
X6539230Y7123938D01*
X6539484Y7120381D01*
X6539433Y7099046D01*
X6538925Y7096252D01*
X6537858Y7094423D01*
X6535928Y7093153D01*
X6533083Y7092340D01*
X6529019Y7091984D01*
X6522821Y7092035D01*
X6515506Y7092950D01*
X6511798Y7093712D01*
X6511798Y7087108D01*
X6519113Y7085990D01*
X6527292Y7085584D01*
X6534657Y7085838D01*
X6539738Y7086853D01*
X6542481Y7087819D01*
X6544564Y7089140D01*
X6546189Y7091222D01*
X6547612Y7093966D01*
X6548374Y7097318D01*
X6548628Y7101331D01*
X6548628Y7119112D01*
X6548424Y7122871D01*
X6547866Y7126071D01*
X6546900Y7128713D01*
X6545580Y7130796D01*
X6543802Y7132574D01*
X6542024Y7133844D01*
X6540195Y7134758D01*
X6537706Y7135368D01*
X6532626Y7135875D01*
G37*
G36*
X6299962Y7135114D02*
G01*
X6299962Y7079234D01*
X6300216Y7075474D01*
X6300927Y7072325D01*
X6302095Y7069734D01*
X6303772Y7067803D01*
X6305956Y7066381D01*
X6308801Y7065314D01*
X6312204Y7064705D01*
X6317589Y7064552D01*
X6321298Y7065009D01*
X6321298Y7070852D01*
X6317488Y7070598D01*
X6315354Y7070699D01*
X6313525Y7071055D01*
X6312052Y7071614D01*
X6310884Y7072375D01*
X6310122Y7073341D01*
X6309563Y7074712D01*
X6309207Y7076541D01*
X6309106Y7135114D01*
G37*
G36*
X6395720Y7135114D02*
G01*
X6395720Y7079234D01*
X6395974Y7075474D01*
X6396685Y7072325D01*
X6397853Y7069734D01*
X6399530Y7067803D01*
X6401714Y7066381D01*
X6404508Y7065314D01*
X6407810Y7064705D01*
X6413093Y7064552D01*
X6416802Y7065009D01*
X6416802Y7070852D01*
X6412992Y7070598D01*
X6410960Y7070699D01*
X6409232Y7071055D01*
X6407810Y7071614D01*
X6406642Y7072375D01*
X6405727Y7073341D01*
X6405118Y7074712D01*
X6404711Y7076541D01*
X6404610Y7135114D01*
G37*
G36*
X6491478Y7135114D02*
G01*
X6491478Y7079234D01*
X6491732Y7075474D01*
X6492443Y7072325D01*
X6493611Y7069734D01*
X6495288Y7067803D01*
X6497472Y7066381D01*
X6500215Y7065314D01*
X6503568Y7064705D01*
X6508851Y7064552D01*
X6512559Y7065009D01*
X6512559Y7070852D01*
X6508750Y7070598D01*
X6506718Y7070699D01*
X6504990Y7071055D01*
X6503568Y7071614D01*
X6502400Y7072375D01*
X6501536Y7073341D01*
X6500876Y7074712D01*
X6500368Y7078725D01*
X6500368Y7135114D01*
G37*
G36*
X6586981Y7135114D02*
G01*
X6586981Y7079234D01*
X6587236Y7075474D01*
X6587947Y7072325D01*
X6589115Y7069734D01*
X6590792Y7067803D01*
X6592976Y7066381D01*
X6595821Y7065314D01*
X6599224Y7064705D01*
X6604609Y7064552D01*
X6608318Y7065009D01*
X6608318Y7070852D01*
X6604508Y7070598D01*
X6602475Y7070699D01*
X6600748Y7071055D01*
X6599326Y7071614D01*
X6598158Y7072375D01*
X6597294Y7073341D01*
X6596634Y7074712D01*
X6596227Y7076541D01*
X6596125Y7135114D01*
G37*
G36*
X6475984Y5442204D02*
G01*
X6475984Y5372100D01*
X6484874Y5372100D01*
X6484874Y5442204D01*
G37*
G36*
X6662420Y5442204D02*
G01*
X6662420Y5414518D01*
X6660845Y5417515D01*
X6657644Y5419648D01*
X6652869Y5420969D01*
X6646418Y5421376D01*
X6642100Y5421172D01*
X6638493Y5420563D01*
X6635597Y5419496D01*
X6633464Y5418074D01*
X6631787Y5416194D01*
X6630619Y5413806D01*
X6629908Y5410962D01*
X6629653Y5407660D01*
X6629653Y5372100D01*
X6638544Y5372100D01*
X6638594Y5408726D01*
X6638798Y5410200D01*
X6640068Y5412486D01*
X6641388Y5413603D01*
X6643319Y5414416D01*
X6645808Y5414873D01*
X6651599Y5414975D01*
X6655765Y5414619D01*
X6658609Y5413806D01*
X6660540Y5412536D01*
X6661708Y5410860D01*
X6662318Y5408422D01*
X6662420Y5372100D01*
X6671309Y5372100D01*
X6671309Y5442204D01*
G37*
G36*
X6865112Y5442204D02*
G01*
X6865112Y5384800D01*
X6874002Y5384800D01*
X6874002Y5408676D01*
X6874814Y5411571D01*
X6877303Y5413654D01*
X6881418Y5414873D01*
X6887209Y5415280D01*
X6893864Y5414975D01*
X6896100Y5414568D01*
X6897624Y5414010D01*
X6898741Y5413197D01*
X6899554Y5412028D01*
X6900011Y5410555D01*
X6900164Y5408676D01*
X6900164Y5384800D01*
X6900011Y5382920D01*
X6899452Y5381294D01*
X6898589Y5379974D01*
X6897370Y5378958D01*
X6895744Y5378196D01*
X6893661Y5377637D01*
X6891172Y5377281D01*
X6884670Y5377281D01*
X6881672Y5377637D01*
X6879234Y5378196D01*
X6877303Y5378958D01*
X6875881Y5379974D01*
X6874814Y5381294D01*
X6874205Y5382920D01*
X6874002Y5384800D01*
X6865112Y5384800D01*
X6865112Y5372100D01*
X6873748Y5372100D01*
X6873748Y5377688D01*
X6874002Y5376468D01*
X6874814Y5375300D01*
X6876186Y5374182D01*
X6878066Y5373116D01*
X6880453Y5372252D01*
X6883196Y5371592D01*
X6890003Y5371084D01*
X6896353Y5371490D01*
X6898944Y5371947D01*
X6903161Y5373370D01*
X6904837Y5374386D01*
X6906209Y5375656D01*
X6907275Y5377180D01*
X6908038Y5379008D01*
X6908596Y5381193D01*
X6908952Y5383682D01*
X6909053Y5407914D01*
X6908749Y5411216D01*
X6907936Y5414060D01*
X6906463Y5416448D01*
X6904481Y5418328D01*
X6901840Y5419648D01*
X6898436Y5420614D01*
X6894322Y5421172D01*
X6889496Y5421376D01*
X6883603Y5421020D01*
X6878574Y5419852D01*
X6876592Y5418988D01*
X6875170Y5417972D01*
X6874306Y5416702D01*
X6874002Y5415280D01*
X6873748Y5415280D01*
X6874002Y5427726D01*
X6874002Y5442204D01*
G37*
G36*
X7090664Y5437886D02*
G01*
X7090664Y5428488D01*
X7099553Y5428488D01*
X7099553Y5437886D01*
G37*
G36*
X6803390Y5437124D02*
G01*
X6799427Y5437022D01*
X6795922Y5436666D01*
X6792823Y5436108D01*
X6788099Y5434533D01*
X6786372Y5433568D01*
X6785051Y5432501D01*
X6784086Y5431282D01*
X6783425Y5430012D01*
X6782663Y5426710D01*
X6782562Y5416296D01*
X6791706Y5416296D01*
X6791858Y5425643D01*
X6792417Y5427065D01*
X6793280Y5428183D01*
X6794500Y5428996D01*
X6796024Y5429656D01*
X6800443Y5430418D01*
X6816852Y5430520D01*
X6816852Y5408676D01*
X6800291Y5408777D01*
X6797852Y5409133D01*
X6795871Y5409692D01*
X6794246Y5410454D01*
X6793128Y5411470D01*
X6792315Y5412790D01*
X6791858Y5414416D01*
X6791706Y5416296D01*
X6782562Y5416296D01*
X6782714Y5414162D01*
X6783120Y5412486D01*
X6783831Y5411063D01*
X6786016Y5408980D01*
X6789318Y5407456D01*
X6791452Y5406898D01*
X6791452Y5406390D01*
X6786676Y5405018D01*
X6784746Y5404002D01*
X6783070Y5402834D01*
X6781647Y5401360D01*
X6780580Y5399735D01*
X6779971Y5397906D01*
X6779768Y5395976D01*
X6779768Y5385308D01*
X6789420Y5385308D01*
X6789470Y5396433D01*
X6789978Y5398465D01*
X6791045Y5399989D01*
X6792671Y5401157D01*
X6794855Y5401919D01*
X6801053Y5402580D01*
X6816852Y5402580D01*
X6816852Y5378704D01*
X6799325Y5378805D01*
X6794246Y5379567D01*
X6792468Y5380228D01*
X6791147Y5381142D01*
X6790181Y5382260D01*
X6789623Y5383631D01*
X6789420Y5385308D01*
X6779768Y5385308D01*
X6780123Y5381752D01*
X6781088Y5378958D01*
X6782765Y5376672D01*
X6785102Y5374894D01*
X6788099Y5373674D01*
X6792010Y5372811D01*
X6796887Y5372252D01*
X6826503Y5372100D01*
X6826503Y5437124D01*
G37*
G36*
X7242809Y5437124D02*
G01*
X7230922Y5435955D01*
X7222439Y5432450D01*
X7217308Y5426557D01*
X7215631Y5418328D01*
X7215631Y5389880D01*
X7224775Y5389880D01*
X7224877Y5420309D01*
X7225131Y5421884D01*
X7226300Y5424678D01*
X7228128Y5426811D01*
X7230618Y5428234D01*
X7233412Y5429250D01*
X7239304Y5430113D01*
X7259066Y5430266D01*
X7259066Y5378704D01*
X7243572Y5378704D01*
X7229500Y5381498D01*
X7224775Y5389880D01*
X7215631Y5389880D01*
X7217308Y5381955D01*
X7222439Y5376468D01*
X7230922Y5373217D01*
X7242809Y5372100D01*
X7268718Y5372100D01*
X7268718Y5437124D01*
G37*
G36*
X6512052Y5435600D02*
G01*
X6512052Y5420614D01*
X6494780Y5420614D01*
X6494780Y5414518D01*
X6512052Y5414518D01*
X6512001Y5384038D01*
X6511493Y5381244D01*
X6510578Y5379415D01*
X6509156Y5378145D01*
X6506972Y5377332D01*
X6503822Y5376976D01*
X6500977Y5376976D01*
X6494780Y5377688D01*
X6494780Y5371846D01*
X6499809Y5371287D01*
X6504685Y5371084D01*
X6510324Y5371388D01*
X6514592Y5372354D01*
X6516166Y5373217D01*
X6518706Y5375503D01*
X6519672Y5376926D01*
X6520840Y5380939D01*
X6521196Y5386324D01*
X6521196Y5414518D01*
X6531864Y5414518D01*
X6531864Y5420614D01*
X6521196Y5420614D01*
X6521196Y5435600D01*
G37*
G36*
X6534150Y5421376D02*
G01*
X6534150Y5413756D01*
X6542024Y5413654D01*
X6544614Y5413400D01*
X6546748Y5412892D01*
X6548374Y5412232D01*
X6549593Y5411165D01*
X6550456Y5409844D01*
X6551015Y5408117D01*
X6551168Y5406136D01*
X6551168Y5372100D01*
X6560312Y5372100D01*
X6560312Y5420614D01*
X6551676Y5420614D01*
X6551676Y5412486D01*
X6551168Y5414924D01*
X6549644Y5417058D01*
X6547357Y5418886D01*
X6544564Y5420360D01*
X6541516Y5421122D01*
X6538468Y5421376D01*
G37*
G36*
X6595109Y5421376D02*
G01*
X6587845Y5421122D01*
X6582918Y5420360D01*
X6581038Y5419598D01*
X6579463Y5418582D01*
X6578244Y5417312D01*
X6577330Y5415788D01*
X6576669Y5414060D01*
X6576161Y5411927D01*
X6575806Y5406390D01*
X6575806Y5395214D01*
X6598666Y5395214D01*
X6602425Y5395010D01*
X6605016Y5394452D01*
X6606489Y5393436D01*
X6607302Y5391912D01*
X6607860Y5389626D01*
X6608064Y5386324D01*
X6607860Y5383022D01*
X6607302Y5380736D01*
X6606286Y5379008D01*
X6604762Y5377942D01*
X6602526Y5377180D01*
X6599428Y5376926D01*
X6595313Y5376976D01*
X6591147Y5377332D01*
X6589268Y5377688D01*
X6587286Y5378348D01*
X6585813Y5379262D01*
X6585000Y5380482D01*
X6584696Y5382006D01*
X6584696Y5395214D01*
X6575806Y5395214D01*
X6575806Y5372100D01*
X6584442Y5372100D01*
X6584442Y5376672D01*
X6585813Y5374233D01*
X6588759Y5372506D01*
X6593179Y5371439D01*
X6599174Y5371084D01*
X6605270Y5371388D01*
X6609842Y5372354D01*
X6611518Y5373116D01*
X6612940Y5374132D01*
X6614159Y5375402D01*
X6615175Y5376926D01*
X6615836Y5378754D01*
X6616598Y5383580D01*
X6616598Y5389118D01*
X6615836Y5393283D01*
X6615175Y5394960D01*
X6614261Y5396382D01*
X6613093Y5397550D01*
X6611620Y5398516D01*
X6607860Y5399938D01*
X6602526Y5400700D01*
X6584696Y5400802D01*
X6584797Y5409742D01*
X6585407Y5411774D01*
X6586575Y5413197D01*
X6588201Y5414213D01*
X6590690Y5414873D01*
X6594195Y5415229D01*
X6600291Y5415178D01*
X6608673Y5414568D01*
X6613144Y5414010D01*
X6613144Y5420614D01*
X6603695Y5421172D01*
G37*
G36*
X6941312Y5421376D02*
G01*
X6936231Y5421172D01*
X6931964Y5420461D01*
X6928510Y5419394D01*
X6925818Y5417820D01*
X6923684Y5415584D01*
X6922211Y5412740D01*
X6921296Y5409234D01*
X6920992Y5405120D01*
X6920992Y5400294D01*
X6929881Y5400294D01*
X6930034Y5409895D01*
X6930593Y5411520D01*
X6931456Y5412841D01*
X6932675Y5413756D01*
X6934200Y5414518D01*
X6936231Y5415076D01*
X6938772Y5415432D01*
X6944664Y5415432D01*
X6947103Y5415076D01*
X6949084Y5414518D01*
X6950709Y5413756D01*
X6951929Y5412841D01*
X6952792Y5411520D01*
X6953351Y5409895D01*
X6953503Y5400294D01*
X6920992Y5400294D01*
X6920992Y5394198D01*
X6953503Y5394198D01*
X6953503Y5387086D01*
X6953300Y5384698D01*
X6952640Y5382717D01*
X6951522Y5381040D01*
X6949948Y5379720D01*
X6947966Y5378856D01*
X6945477Y5378196D01*
X6942632Y5377789D01*
X6935673Y5377840D01*
X6927545Y5378958D01*
X6923024Y5379974D01*
X6923024Y5373116D01*
X6931914Y5371592D01*
X6940296Y5371084D01*
X6957059Y5374792D01*
X6962648Y5385816D01*
X6962648Y5405120D01*
X6962343Y5409133D01*
X6961378Y5412536D01*
X6959803Y5415381D01*
X6957568Y5417566D01*
X6954672Y5419242D01*
X6950964Y5420410D01*
X6946493Y5421122D01*
G37*
G36*
X6993128Y5421376D02*
G01*
X6988911Y5421172D01*
X6985304Y5420563D01*
X6982409Y5419496D01*
X6980174Y5418074D01*
X6978497Y5416194D01*
X6977329Y5413806D01*
X6976618Y5410962D01*
X6976364Y5407660D01*
X6976364Y5372100D01*
X6985508Y5372100D01*
X6985558Y5408777D01*
X6986168Y5411419D01*
X6986778Y5412486D01*
X6988098Y5413603D01*
X6990080Y5414416D01*
X6992670Y5414873D01*
X6998309Y5414975D01*
X7002373Y5414619D01*
X7005320Y5413857D01*
X7007250Y5412689D01*
X7008418Y5411012D01*
X7009028Y5408574D01*
X7009130Y5372100D01*
X7018020Y5372100D01*
X7018020Y5420614D01*
X7009130Y5420614D01*
X7009130Y5414518D01*
X7007555Y5417515D01*
X7004354Y5419648D01*
X6999579Y5420969D01*
G37*
G36*
X7056881Y5421376D02*
G01*
X7051192Y5421020D01*
X7046823Y5419953D01*
X7043826Y5418226D01*
X7042150Y5415788D01*
X7042150Y5420614D01*
X7033768Y5420614D01*
X7033768Y5385308D01*
X7042658Y5385308D01*
X7042708Y5408676D01*
X7043216Y5411114D01*
X7044283Y5412790D01*
X7046214Y5414060D01*
X7049058Y5414873D01*
X7053224Y5415229D01*
X7058253Y5415229D01*
X7062063Y5414873D01*
X7064654Y5414162D01*
X7066432Y5413044D01*
X7067042Y5412232D01*
X7067600Y5410047D01*
X7067803Y5407152D01*
X7067753Y5383631D01*
X7067245Y5380990D01*
X7066280Y5379262D01*
X7064502Y5378094D01*
X7061809Y5377484D01*
X7057999Y5377230D01*
X7052309Y5377281D01*
X7049566Y5377535D01*
X7047382Y5378043D01*
X7045706Y5378704D01*
X7044385Y5379770D01*
X7043420Y5381244D01*
X7042861Y5383072D01*
X7042658Y5385308D01*
X7033768Y5385308D01*
X7033768Y5367528D01*
X7033920Y5364378D01*
X7034377Y5361635D01*
X7035190Y5359196D01*
X7036308Y5357114D01*
X7037628Y5355336D01*
X7039305Y5353812D01*
X7041286Y5352542D01*
X7043674Y5351526D01*
X7046366Y5350865D01*
X7052868Y5350103D01*
X7061403Y5350103D01*
X7069785Y5350713D01*
X7073392Y5351272D01*
X7073392Y5357622D01*
X7063028Y5356504D01*
X7055866Y5356098D01*
X7052665Y5356250D01*
X7049973Y5356656D01*
X7047738Y5357368D01*
X7045959Y5358384D01*
X7044537Y5359704D01*
X7043470Y5361381D01*
X7042861Y5363362D01*
X7042658Y5365750D01*
X7042658Y5377180D01*
X7043013Y5375757D01*
X7043877Y5374538D01*
X7045198Y5373471D01*
X7046975Y5372608D01*
X7051751Y5371490D01*
X7057390Y5371084D01*
X7064095Y5371490D01*
X7066838Y5371947D01*
X7071055Y5373370D01*
X7072731Y5374386D01*
X7074103Y5375656D01*
X7075170Y5377180D01*
X7076338Y5380888D01*
X7076694Y5385816D01*
X7076694Y5405374D01*
X7076389Y5409387D01*
X7075525Y5412790D01*
X7074103Y5415635D01*
X7072122Y5417820D01*
X7069429Y5419394D01*
X7066025Y5420512D01*
X7061809Y5421172D01*
G37*
G36*
X7129018Y5421376D02*
G01*
X7114286Y5420614D01*
X7114286Y5414264D01*
X7122515Y5415229D01*
X7129525Y5415534D01*
X7135520Y5415229D01*
X7137603Y5414822D01*
X7139178Y5414264D01*
X7140295Y5413400D01*
X7141108Y5412282D01*
X7141565Y5410962D01*
X7141718Y5405374D01*
X7141159Y5403240D01*
X7139482Y5401767D01*
X7136739Y5400852D01*
X7132828Y5400548D01*
X7127240Y5400548D01*
X7115809Y5397703D01*
X7112000Y5389118D01*
X7112000Y5384800D01*
X7112304Y5381396D01*
X7113270Y5378450D01*
X7114844Y5376062D01*
X7117080Y5374132D01*
X7120077Y5372811D01*
X7123734Y5371846D01*
X7128103Y5371287D01*
X7133081Y5371084D01*
X7141006Y5371388D01*
X7149592Y5372354D01*
X7149592Y5379212D01*
X7139584Y5377688D01*
X7132828Y5377180D01*
X7127341Y5377484D01*
X7123684Y5378450D01*
X7122464Y5379212D01*
X7121601Y5380278D01*
X7121042Y5381650D01*
X7120991Y5389524D01*
X7121398Y5390692D01*
X7122058Y5391658D01*
X7122922Y5392420D01*
X7125766Y5393385D01*
X7129780Y5393690D01*
X7138822Y5393893D01*
X7141921Y5394502D01*
X7144562Y5395569D01*
X7146798Y5396992D01*
X7148474Y5398668D01*
X7149642Y5400700D01*
X7150353Y5402986D01*
X7150608Y5405628D01*
X7150608Y5410200D01*
X7145223Y5418582D01*
G37*
G36*
X7181850Y5421376D02*
G01*
X7176871Y5421172D01*
X7172655Y5420461D01*
X7169150Y5419394D01*
X7166356Y5417820D01*
X7164222Y5415584D01*
X7162749Y5412740D01*
X7161834Y5409234D01*
X7161530Y5405120D01*
X7161530Y5400294D01*
X7170674Y5400294D01*
X7170826Y5409895D01*
X7171334Y5411520D01*
X7172096Y5412841D01*
X7173214Y5413756D01*
X7174839Y5414518D01*
X7176922Y5415076D01*
X7179411Y5415432D01*
X7185202Y5415432D01*
X7187641Y5415076D01*
X7189622Y5414518D01*
X7191248Y5413756D01*
X7192467Y5412841D01*
X7193330Y5411520D01*
X7193889Y5409895D01*
X7194042Y5400294D01*
X7161530Y5400294D01*
X7161530Y5394198D01*
X7194042Y5394198D01*
X7194042Y5387086D01*
X7193838Y5384698D01*
X7193127Y5382717D01*
X7192060Y5381040D01*
X7190486Y5379720D01*
X7188606Y5378856D01*
X7186168Y5378196D01*
X7183272Y5377789D01*
X7176211Y5377840D01*
X7168083Y5378958D01*
X7163562Y5379974D01*
X7163562Y5373116D01*
X7172502Y5371592D01*
X7181088Y5371084D01*
X7197648Y5374792D01*
X7203186Y5385816D01*
X7203186Y5405120D01*
X7202881Y5409133D01*
X7201916Y5412536D01*
X7200341Y5415381D01*
X7198106Y5417566D01*
X7195159Y5419242D01*
X7191502Y5420410D01*
X7187031Y5421122D01*
G37*
G36*
X6443472Y5420614D02*
G01*
X6464300Y5398516D01*
X6441440Y5372100D01*
X6452616Y5372100D01*
X6474714Y5398516D01*
X6454394Y5420614D01*
G37*
G36*
X6709156Y5420614D02*
G01*
X6709156Y5409692D01*
X6720586Y5409692D01*
X6720586Y5420614D01*
G37*
G36*
X6728206Y5420614D02*
G01*
X6752590Y5351272D01*
X6761988Y5351272D01*
X6754368Y5371338D01*
X6773164Y5420614D01*
X6763258Y5420614D01*
X6749796Y5380990D01*
X6749542Y5380990D01*
X6737350Y5420614D01*
G37*
G36*
X7090664Y5420614D02*
G01*
X7090664Y5372100D01*
X7099553Y5372100D01*
X7099553Y5420614D01*
G37*
G36*
X6709156Y5383022D02*
G01*
X6709156Y5372100D01*
X6720586Y5372100D01*
X6720586Y5383022D01*
G37*
M02*
