%TF.GenerationSoftware,KiCad,Pcbnew,(5.1.9)-1*%
%TF.CreationDate,2021-04-21T16:23:38-04:00*%
%TF.ProjectId,V0-UmbilicalBoard,56302d55-6d62-4696-9c69-63616c426f61,rev?*%
%TF.SameCoordinates,Original*%
%TF.FileFunction,Copper,L1,Top*%
%TF.FilePolarity,Positive*%
%FSLAX46Y46*%
G04 Gerber Fmt 4.6, Leading zero omitted, Abs format (unit mm)*
G04 Created by KiCad (PCBNEW (5.1.9)-1) date 2021-04-21 16:23:38*
%MOMM*%
%LPD*%
G01*
G04 APERTURE LIST*
%TA.AperFunction,ComponentPad*%
%ADD10O,1.700000X1.950000*%
%TD*%
%TA.AperFunction,ComponentPad*%
%ADD11O,1.950000X1.700000*%
%TD*%
%TA.AperFunction,ComponentPad*%
%ADD12C,2.600000*%
%TD*%
%TA.AperFunction,ComponentPad*%
%ADD13R,2.600000X2.600000*%
%TD*%
%TA.AperFunction,ComponentPad*%
%ADD14C,1.500000*%
%TD*%
%TA.AperFunction,ComponentPad*%
%ADD15O,1.700000X2.000000*%
%TD*%
%TA.AperFunction,Conductor*%
%ADD16C,0.500000*%
%TD*%
%TA.AperFunction,Conductor*%
%ADD17C,1.000000*%
%TD*%
%TA.AperFunction,Conductor*%
%ADD18C,0.254000*%
%TD*%
%TA.AperFunction,Conductor*%
%ADD19C,0.100000*%
%TD*%
G04 APERTURE END LIST*
D10*
%TO.P,J12,3*%
%TO.N,Ground*%
X64928000Y-108890000D03*
%TO.P,J12,2*%
%TO.N,5V*%
X67428000Y-108890000D03*
%TO.P,J12,1*%
%TO.N,DataOut2*%
%TA.AperFunction,ComponentPad*%
G36*
G01*
X70778000Y-108165000D02*
X70778000Y-109615000D01*
G75*
G02*
X70528000Y-109865000I-250000J0D01*
G01*
X69328000Y-109865000D01*
G75*
G02*
X69078000Y-109615000I0J250000D01*
G01*
X69078000Y-108165000D01*
G75*
G02*
X69328000Y-107915000I250000J0D01*
G01*
X70528000Y-107915000D01*
G75*
G02*
X70778000Y-108165000I0J-250000D01*
G01*
G37*
%TD.AperFunction*%
%TD*%
D11*
%TO.P,J11,4*%
%TO.N,Ground*%
X55000000Y-103750000D03*
%TO.P,J11,3*%
%TO.N,5V*%
X55000000Y-101250000D03*
%TO.P,J11,2*%
%TO.N,DataIn2*%
X55000000Y-98750000D03*
%TO.P,J11,1*%
%TO.N,DataOut2*%
%TA.AperFunction,ComponentPad*%
G36*
G01*
X54275000Y-95400000D02*
X55725000Y-95400000D01*
G75*
G02*
X55975000Y-95650000I0J-250000D01*
G01*
X55975000Y-96850000D01*
G75*
G02*
X55725000Y-97100000I-250000J0D01*
G01*
X54275000Y-97100000D01*
G75*
G02*
X54025000Y-96850000I0J250000D01*
G01*
X54025000Y-95650000D01*
G75*
G02*
X54275000Y-95400000I250000J0D01*
G01*
G37*
%TD.AperFunction*%
%TD*%
%TO.P,J10,4*%
%TO.N,Ground*%
X145000000Y-96250000D03*
%TO.P,J10,3*%
%TO.N,5V*%
X145000000Y-98750000D03*
%TO.P,J10,2*%
%TO.N,Data*%
X145000000Y-101250000D03*
%TO.P,J10,1*%
%TO.N,DataIn2*%
%TA.AperFunction,ComponentPad*%
G36*
G01*
X145725000Y-104600000D02*
X144275000Y-104600000D01*
G75*
G02*
X144025000Y-104350000I0J250000D01*
G01*
X144025000Y-103150000D01*
G75*
G02*
X144275000Y-102900000I250000J0D01*
G01*
X145725000Y-102900000D01*
G75*
G02*
X145975000Y-103150000I0J-250000D01*
G01*
X145975000Y-104350000D01*
G75*
G02*
X145725000Y-104600000I-250000J0D01*
G01*
G37*
%TD.AperFunction*%
%TD*%
D10*
%TO.P,J9,3*%
%TO.N,Ground*%
X131000000Y-90000000D03*
%TO.P,J9,2*%
%TO.N,5V*%
X133500000Y-90000000D03*
%TO.P,J9,1*%
%TO.N,Data*%
%TA.AperFunction,ComponentPad*%
G36*
G01*
X136850000Y-89275000D02*
X136850000Y-90725000D01*
G75*
G02*
X136600000Y-90975000I-250000J0D01*
G01*
X135400000Y-90975000D01*
G75*
G02*
X135150000Y-90725000I0J250000D01*
G01*
X135150000Y-89275000D01*
G75*
G02*
X135400000Y-89025000I250000J0D01*
G01*
X136600000Y-89025000D01*
G75*
G02*
X136850000Y-89275000I0J-250000D01*
G01*
G37*
%TD.AperFunction*%
%TD*%
D12*
%TO.P,J5,2*%
%TO.N,Net-(J1-Pad6)*%
X82500000Y-109000000D03*
D13*
%TO.P,J5,1*%
%TO.N,Net-(J1-Pad7)*%
X77420000Y-109000000D03*
%TD*%
D10*
%TO.P,J2,4*%
%TO.N,/B2*%
X119500000Y-108890000D03*
%TO.P,J2,3*%
%TO.N,/B1*%
X122000000Y-108890000D03*
%TO.P,J2,2*%
%TO.N,/A2*%
X124500000Y-108890000D03*
%TO.P,J2,1*%
%TO.N,/A1*%
%TA.AperFunction,ComponentPad*%
G36*
G01*
X127850000Y-108165000D02*
X127850000Y-109615000D01*
G75*
G02*
X127600000Y-109865000I-250000J0D01*
G01*
X126400000Y-109865000D01*
G75*
G02*
X126150000Y-109615000I0J250000D01*
G01*
X126150000Y-108165000D01*
G75*
G02*
X126400000Y-107915000I250000J0D01*
G01*
X127600000Y-107915000D01*
G75*
G02*
X127850000Y-108165000I0J-250000D01*
G01*
G37*
%TD.AperFunction*%
%TD*%
D14*
%TO.P,J1,14*%
%TO.N,Net-(J1-Pad14)*%
X91000000Y-98500000D03*
%TO.P,J1,13*%
%TO.N,Net-(J1-Pad13)*%
X94000000Y-98500000D03*
%TO.P,J1,12*%
%TO.N,/Hotend_Fan+*%
X97000000Y-98500000D03*
%TO.P,J1,11*%
%TO.N,/Hotend_Fan-*%
X100000000Y-98500000D03*
%TO.P,J1,10*%
%TO.N,/PartFan-*%
X103000000Y-98500000D03*
%TO.P,J1,9*%
%TO.N,/PartFan+*%
X106000000Y-98500000D03*
%TO.P,J1,8*%
%TO.N,Net-(J1-Pad8)*%
X109000000Y-98500000D03*
%TO.P,J1,7*%
%TO.N,Net-(J1-Pad7)*%
X91000000Y-101500000D03*
%TO.P,J1,6*%
%TO.N,Net-(J1-Pad6)*%
X94000000Y-101500000D03*
%TO.P,J1,5*%
%TO.N,Ground*%
X97000000Y-101500000D03*
%TO.P,J1,4*%
%TO.N,/B2*%
X100000000Y-101500000D03*
%TO.P,J1,3*%
%TO.N,/B1*%
X103000000Y-101500000D03*
%TO.P,J1,2*%
%TO.N,/A2*%
X106000000Y-101500000D03*
%TO.P,J1,1*%
%TO.N,/A1*%
%TA.AperFunction,ComponentPad*%
G36*
G01*
X109750000Y-101000000D02*
X109750000Y-102000000D01*
G75*
G02*
X109500000Y-102250000I-250000J0D01*
G01*
X108500000Y-102250000D01*
G75*
G02*
X108250000Y-102000000I0J250000D01*
G01*
X108250000Y-101000000D01*
G75*
G02*
X108500000Y-100750000I250000J0D01*
G01*
X109500000Y-100750000D01*
G75*
G02*
X109750000Y-101000000I0J-250000D01*
G01*
G37*
%TD.AperFunction*%
%TD*%
D15*
%TO.P,J8,2*%
%TO.N,Net-(J8-Pad2)*%
X134000000Y-109000000D03*
%TO.P,J8,1*%
%TO.N,Net-(J8-Pad1)*%
%TA.AperFunction,ComponentPad*%
G36*
G01*
X137350000Y-108250000D02*
X137350000Y-109750000D01*
G75*
G02*
X137100000Y-110000000I-250000J0D01*
G01*
X135900000Y-110000000D01*
G75*
G02*
X135650000Y-109750000I0J250000D01*
G01*
X135650000Y-108250000D01*
G75*
G02*
X135900000Y-108000000I250000J0D01*
G01*
X137100000Y-108000000D01*
G75*
G02*
X137350000Y-108250000I0J-250000D01*
G01*
G37*
%TD.AperFunction*%
%TD*%
%TO.P,J7,2*%
%TO.N,Net-(J1-Pad8)*%
X120000000Y-90000000D03*
%TO.P,J7,1*%
%TO.N,Ground*%
%TA.AperFunction,ComponentPad*%
G36*
G01*
X123350000Y-89250000D02*
X123350000Y-90750000D01*
G75*
G02*
X123100000Y-91000000I-250000J0D01*
G01*
X121900000Y-91000000D01*
G75*
G02*
X121650000Y-90750000I0J250000D01*
G01*
X121650000Y-89250000D01*
G75*
G02*
X121900000Y-89000000I250000J0D01*
G01*
X123100000Y-89000000D01*
G75*
G02*
X123350000Y-89250000I0J-250000D01*
G01*
G37*
%TD.AperFunction*%
%TD*%
%TO.P,J6,2*%
%TO.N,Net-(J1-Pad13)*%
X62500000Y-91110000D03*
%TO.P,J6,1*%
%TO.N,Net-(J1-Pad14)*%
%TA.AperFunction,ComponentPad*%
G36*
G01*
X65850000Y-90360000D02*
X65850000Y-91860000D01*
G75*
G02*
X65600000Y-92110000I-250000J0D01*
G01*
X64400000Y-92110000D01*
G75*
G02*
X64150000Y-91860000I0J250000D01*
G01*
X64150000Y-90360000D01*
G75*
G02*
X64400000Y-90110000I250000J0D01*
G01*
X65600000Y-90110000D01*
G75*
G02*
X65850000Y-90360000I0J-250000D01*
G01*
G37*
%TD.AperFunction*%
%TD*%
%TO.P,J4,2*%
%TO.N,/PartFan-*%
X81500000Y-91110000D03*
%TO.P,J4,1*%
%TO.N,/PartFan+*%
%TA.AperFunction,ComponentPad*%
G36*
G01*
X84850000Y-90360000D02*
X84850000Y-91860000D01*
G75*
G02*
X84600000Y-92110000I-250000J0D01*
G01*
X83400000Y-92110000D01*
G75*
G02*
X83150000Y-91860000I0J250000D01*
G01*
X83150000Y-90360000D01*
G75*
G02*
X83400000Y-90110000I250000J0D01*
G01*
X84600000Y-90110000D01*
G75*
G02*
X84850000Y-90360000I0J-250000D01*
G01*
G37*
%TD.AperFunction*%
%TD*%
%TO.P,J3,2*%
%TO.N,/Hotend_Fan+*%
X72000000Y-91110000D03*
%TO.P,J3,1*%
%TO.N,/Hotend_Fan-*%
%TA.AperFunction,ComponentPad*%
G36*
G01*
X75350000Y-90360000D02*
X75350000Y-91860000D01*
G75*
G02*
X75100000Y-92110000I-250000J0D01*
G01*
X73900000Y-92110000D01*
G75*
G02*
X73650000Y-91860000I0J250000D01*
G01*
X73650000Y-90360000D01*
G75*
G02*
X73900000Y-90110000I250000J0D01*
G01*
X75100000Y-90110000D01*
G75*
G02*
X75350000Y-90360000I0J-250000D01*
G01*
G37*
%TD.AperFunction*%
%TD*%
%TO.P,TH1,2*%
%TO.N,Net-(J8-Pad2)*%
%TA.AperFunction,SMDPad,CuDef*%
G36*
G01*
X100400000Y-113150001D02*
X100400000Y-112249999D01*
G75*
G02*
X100649999Y-112000000I249999J0D01*
G01*
X101350001Y-112000000D01*
G75*
G02*
X101600000Y-112249999I0J-249999D01*
G01*
X101600000Y-113150001D01*
G75*
G02*
X101350001Y-113400000I-249999J0D01*
G01*
X100649999Y-113400000D01*
G75*
G02*
X100400000Y-113150001I0J249999D01*
G01*
G37*
%TD.AperFunction*%
%TO.P,TH1,1*%
%TO.N,Net-(J8-Pad1)*%
%TA.AperFunction,SMDPad,CuDef*%
G36*
G01*
X98400000Y-113150001D02*
X98400000Y-112249999D01*
G75*
G02*
X98649999Y-112000000I249999J0D01*
G01*
X99350001Y-112000000D01*
G75*
G02*
X99600000Y-112249999I0J-249999D01*
G01*
X99600000Y-113150001D01*
G75*
G02*
X99350001Y-113400000I-249999J0D01*
G01*
X98649999Y-113400000D01*
G75*
G02*
X98400000Y-113150001I0J249999D01*
G01*
G37*
%TD.AperFunction*%
%TD*%
D16*
%TO.N,Net-(J1-Pad14)*%
X73139999Y-99249999D02*
X65000000Y-91110000D01*
X90250001Y-99249999D02*
X73139999Y-99249999D01*
X91000000Y-98500000D02*
X90250001Y-99249999D01*
%TO.N,Net-(J1-Pad13)*%
X94000000Y-98500000D02*
X92549991Y-99950009D01*
X71340009Y-99950009D02*
X62500000Y-91110000D01*
X92549991Y-99950009D02*
X71340009Y-99950009D01*
%TO.N,Net-(J1-Pad8)*%
X117500000Y-90000000D02*
X120000000Y-90000000D01*
X109000000Y-98500000D02*
X117500000Y-90000000D01*
D17*
%TO.N,Net-(J1-Pad7)*%
X91000000Y-101500000D02*
X91000000Y-104500000D01*
X91000000Y-104500000D02*
X89250000Y-106250000D01*
X80170000Y-106250000D02*
X77420000Y-109000000D01*
X89250000Y-106250000D02*
X80170000Y-106250000D01*
%TO.N,Net-(J1-Pad6)*%
X94000000Y-106500000D02*
X94000000Y-101500000D01*
X91500000Y-109000000D02*
X94000000Y-106500000D01*
X91500000Y-109000000D02*
X82500000Y-109000000D01*
D16*
%TO.N,Net-(J8-Pad2)*%
X101000000Y-112700000D02*
X101000000Y-113000000D01*
X101000000Y-113000000D02*
X102299990Y-114299990D01*
X134000000Y-111800000D02*
X131500010Y-114299990D01*
X134000000Y-109000000D02*
X134000000Y-111800000D01*
X102299990Y-114299990D02*
X131500010Y-114299990D01*
%TO.N,Net-(J8-Pad1)*%
X99600000Y-115000000D02*
X99000000Y-114400000D01*
X134000000Y-115000000D02*
X99600000Y-115000000D01*
X99000000Y-114400000D02*
X99000000Y-112700000D01*
X136500000Y-112500000D02*
X134000000Y-115000000D01*
X136500000Y-109000000D02*
X136500000Y-112500000D01*
%TO.N,/Hotend_Fan+*%
X97000000Y-98500000D02*
X95000000Y-96500000D01*
X77390000Y-96500000D02*
X72000000Y-91110000D01*
X95000000Y-96500000D02*
X77390000Y-96500000D01*
%TO.N,/Hotend_Fan-*%
X97299990Y-95799990D02*
X100000000Y-98500000D01*
X79189990Y-95799990D02*
X74500000Y-91110000D01*
X97299990Y-95799990D02*
X79189990Y-95799990D01*
%TO.N,/PartFan-*%
X99599980Y-95099980D02*
X103000000Y-98500000D01*
X85489980Y-95099980D02*
X81500000Y-91110000D01*
X99599980Y-95099980D02*
X85489980Y-95099980D01*
%TO.N,/PartFan+*%
X101899972Y-94399972D02*
X106000000Y-98500000D01*
X87289972Y-94399972D02*
X84000000Y-91110000D01*
X101899972Y-94399972D02*
X87289972Y-94399972D01*
D17*
%TO.N,/B2*%
X107390000Y-108890000D02*
X119500000Y-108890000D01*
X100000000Y-101500000D02*
X107390000Y-108890000D01*
%TO.N,/B1*%
X103000000Y-101500000D02*
X107900000Y-106400000D01*
X107900000Y-106400000D02*
X121200000Y-106400000D01*
X122000000Y-107200000D02*
X122000000Y-108890000D01*
X121200000Y-106400000D02*
X122000000Y-107200000D01*
%TO.N,/A2*%
X124500000Y-107000000D02*
X124500000Y-108890000D01*
X121310000Y-103810000D02*
X124500000Y-107000000D01*
X108310000Y-103810000D02*
X121310000Y-103810000D01*
X106000000Y-101500000D02*
X108310000Y-103810000D01*
%TO.N,/A1*%
X127000000Y-106000000D02*
X127000000Y-108890000D01*
X122500000Y-101500000D02*
X127000000Y-106000000D01*
X109000000Y-101500000D02*
X122500000Y-101500000D01*
D16*
%TO.N,Data*%
X145000000Y-101250000D02*
X139250000Y-101250000D01*
X136000000Y-98000000D02*
X136000000Y-90000000D01*
X139250000Y-101250000D02*
X136000000Y-98000000D01*
%TO.N,DataIn2*%
X93200000Y-112600000D02*
X55000000Y-112600000D01*
X102800000Y-109600000D02*
X96200000Y-109600000D01*
X105400000Y-112200000D02*
X102800000Y-109600000D01*
X52850000Y-98750000D02*
X55000000Y-98750000D01*
X129200000Y-112200000D02*
X105400000Y-112200000D01*
X51400000Y-100200000D02*
X52850000Y-98750000D01*
X130400000Y-111000000D02*
X129200000Y-112200000D01*
X96200000Y-109600000D02*
X93200000Y-112600000D01*
X130400000Y-106800000D02*
X130400000Y-111000000D01*
X133450000Y-103750000D02*
X130400000Y-106800000D01*
X51400000Y-109000000D02*
X51400000Y-100200000D01*
X55000000Y-112600000D02*
X51400000Y-109000000D01*
X145000000Y-103750000D02*
X133450000Y-103750000D01*
%TD*%
D18*
%TO.N,5V*%
X97340001Y-90032419D02*
X97343345Y-90066372D01*
X97343345Y-90092329D01*
X97344308Y-90101494D01*
X97387818Y-90489393D01*
X97400249Y-90547873D01*
X97411873Y-90606583D01*
X97414599Y-90615386D01*
X97532623Y-90987447D01*
X97556189Y-91042430D01*
X97578984Y-91097736D01*
X97583367Y-91105842D01*
X97771411Y-91447892D01*
X97805188Y-91497221D01*
X97838309Y-91547074D01*
X97844184Y-91554174D01*
X98095084Y-91853185D01*
X98137814Y-91895029D01*
X98179973Y-91937484D01*
X98187114Y-91943308D01*
X98491316Y-92187892D01*
X98541361Y-92220640D01*
X98590962Y-92254097D01*
X98599099Y-92258423D01*
X98945011Y-92439262D01*
X99000460Y-92461665D01*
X99055619Y-92484852D01*
X99064441Y-92487515D01*
X99438891Y-92597722D01*
X99497621Y-92608925D01*
X99556250Y-92620960D01*
X99565421Y-92621859D01*
X99954147Y-92657235D01*
X100013964Y-92656817D01*
X100073781Y-92657235D01*
X100082952Y-92656335D01*
X100082954Y-92656335D01*
X100471145Y-92615534D01*
X100529708Y-92603513D01*
X100588501Y-92592298D01*
X100597323Y-92589634D01*
X100970198Y-92474210D01*
X101025353Y-92451025D01*
X101080806Y-92428621D01*
X101088943Y-92424294D01*
X101432298Y-92238643D01*
X101481849Y-92205220D01*
X101531946Y-92172438D01*
X101539087Y-92166613D01*
X101839841Y-91917806D01*
X101881981Y-91875371D01*
X101924730Y-91833508D01*
X101930604Y-91826408D01*
X102177305Y-91523923D01*
X102210409Y-91474096D01*
X102244204Y-91424741D01*
X102248587Y-91416635D01*
X102431837Y-91071993D01*
X102454631Y-91016689D01*
X102478198Y-90961705D01*
X102480923Y-90952902D01*
X102593741Y-90579230D01*
X102605361Y-90520542D01*
X102617797Y-90462039D01*
X102618760Y-90452874D01*
X102656850Y-90064405D01*
X102656850Y-90064402D01*
X102660000Y-90032419D01*
X102660000Y-85967582D01*
X102840000Y-85967582D01*
X102840001Y-88032419D01*
X102843247Y-88065377D01*
X102843247Y-88078367D01*
X102844210Y-88087532D01*
X102865965Y-88281481D01*
X102878397Y-88339966D01*
X102890022Y-88398676D01*
X102892747Y-88407479D01*
X102951760Y-88593509D01*
X102975338Y-88648519D01*
X102998120Y-88703794D01*
X103002503Y-88711900D01*
X103096525Y-88882925D01*
X103130308Y-88932264D01*
X103163423Y-88982106D01*
X103169297Y-88989206D01*
X103294747Y-89138712D01*
X103337477Y-89180557D01*
X103379638Y-89223013D01*
X103386780Y-89228837D01*
X103538879Y-89351128D01*
X103588941Y-89383887D01*
X103638523Y-89417331D01*
X103646660Y-89421657D01*
X103646663Y-89421659D01*
X103646667Y-89421660D01*
X103819615Y-89512077D01*
X103875053Y-89534475D01*
X103930228Y-89557669D01*
X103939050Y-89560332D01*
X104126275Y-89615435D01*
X104184983Y-89626633D01*
X104243628Y-89638672D01*
X104252799Y-89639570D01*
X104447161Y-89657259D01*
X104506943Y-89656842D01*
X104566801Y-89657260D01*
X104575972Y-89656360D01*
X104770069Y-89635959D01*
X104828658Y-89623932D01*
X104887423Y-89612723D01*
X104896245Y-89610059D01*
X105082683Y-89552347D01*
X105137838Y-89529162D01*
X105193291Y-89506758D01*
X105201427Y-89502432D01*
X105373104Y-89409607D01*
X105422699Y-89376154D01*
X105472753Y-89343400D01*
X105479894Y-89337576D01*
X105630272Y-89213172D01*
X105672411Y-89170737D01*
X105715161Y-89128874D01*
X105721034Y-89121773D01*
X105844384Y-88970531D01*
X105877477Y-88920723D01*
X105911284Y-88871349D01*
X105915667Y-88863243D01*
X106007292Y-88690920D01*
X106030090Y-88635608D01*
X106053652Y-88580634D01*
X106056377Y-88571831D01*
X106112786Y-88384994D01*
X106124405Y-88326314D01*
X106136842Y-88267804D01*
X106137805Y-88258639D01*
X106156850Y-88064406D01*
X106156850Y-88064402D01*
X106160000Y-88032419D01*
X106160000Y-85967581D01*
X106156753Y-85934613D01*
X106156753Y-85921633D01*
X106155790Y-85912468D01*
X106134035Y-85718518D01*
X106121600Y-85660019D01*
X106109978Y-85601325D01*
X106107253Y-85592522D01*
X106048240Y-85406491D01*
X106024674Y-85351509D01*
X106001880Y-85296206D01*
X105997497Y-85288100D01*
X105903475Y-85117075D01*
X105869702Y-85067752D01*
X105836577Y-85017894D01*
X105830703Y-85010794D01*
X105705253Y-84861288D01*
X105662523Y-84819443D01*
X105620362Y-84776987D01*
X105613220Y-84771163D01*
X105461120Y-84648872D01*
X105411061Y-84616114D01*
X105361477Y-84582669D01*
X105353340Y-84578343D01*
X105353337Y-84578341D01*
X105353333Y-84578340D01*
X105180384Y-84487923D01*
X105124972Y-84465535D01*
X105069772Y-84442331D01*
X105060950Y-84439668D01*
X104873724Y-84384565D01*
X104814986Y-84373360D01*
X104756372Y-84361328D01*
X104747200Y-84360429D01*
X104552839Y-84342741D01*
X104493057Y-84343158D01*
X104433199Y-84342740D01*
X104424028Y-84343640D01*
X104229931Y-84364041D01*
X104171348Y-84376066D01*
X104112577Y-84387277D01*
X104103755Y-84389941D01*
X103917317Y-84447653D01*
X103862162Y-84470838D01*
X103806709Y-84493242D01*
X103798573Y-84497568D01*
X103626896Y-84590393D01*
X103577278Y-84623861D01*
X103527247Y-84656600D01*
X103520106Y-84662424D01*
X103369728Y-84786828D01*
X103327589Y-84829263D01*
X103284839Y-84871126D01*
X103278966Y-84878227D01*
X103155616Y-85029469D01*
X103122534Y-85079262D01*
X103088716Y-85128651D01*
X103084333Y-85136757D01*
X102992708Y-85309079D01*
X102969909Y-85364394D01*
X102946348Y-85419366D01*
X102943623Y-85428169D01*
X102887214Y-85615005D01*
X102875594Y-85673693D01*
X102863158Y-85732196D01*
X102862195Y-85741361D01*
X102843150Y-85935595D01*
X102840000Y-85967582D01*
X102660000Y-85967582D01*
X102660000Y-82160000D01*
X158967721Y-82160000D01*
X159259659Y-82188625D01*
X159509429Y-82264035D01*
X159739792Y-82386522D01*
X159941980Y-82551422D01*
X160108286Y-82752450D01*
X160232378Y-82981954D01*
X160309531Y-83231195D01*
X160340001Y-83521098D01*
X160340000Y-98217721D01*
X160311375Y-98509660D01*
X160235965Y-98759429D01*
X160113477Y-98989794D01*
X159948579Y-99191979D01*
X159747546Y-99358288D01*
X159518046Y-99482378D01*
X159268805Y-99559531D01*
X158978911Y-99590000D01*
X157967581Y-99590000D01*
X157933862Y-99593321D01*
X157911161Y-99593321D01*
X157901996Y-99594284D01*
X157562586Y-99632355D01*
X157504089Y-99644789D01*
X157445395Y-99656411D01*
X157436592Y-99659136D01*
X157111039Y-99762407D01*
X157056092Y-99785958D01*
X157000751Y-99808767D01*
X156992645Y-99813150D01*
X156693351Y-99977688D01*
X156643979Y-100011494D01*
X156594168Y-100044588D01*
X156587068Y-100050462D01*
X156325433Y-100270000D01*
X156283589Y-100312730D01*
X156241135Y-100354888D01*
X156235310Y-100362030D01*
X156021300Y-100628205D01*
X155988547Y-100678257D01*
X155955094Y-100727852D01*
X155950771Y-100735984D01*
X155950768Y-100735988D01*
X155950768Y-100735989D01*
X155792534Y-101038663D01*
X155770138Y-101094095D01*
X155746944Y-101149271D01*
X155744281Y-101158093D01*
X155647850Y-101485738D01*
X155636652Y-101544439D01*
X155624612Y-101603095D01*
X155623713Y-101612266D01*
X155592759Y-101952401D01*
X155593177Y-102012217D01*
X155592759Y-102072033D01*
X155593658Y-102081205D01*
X155629358Y-102420874D01*
X155641390Y-102479486D01*
X155652595Y-102538231D01*
X155655259Y-102547053D01*
X155756255Y-102873319D01*
X155779435Y-102928462D01*
X155801844Y-102983927D01*
X155806171Y-102992064D01*
X155968616Y-103292500D01*
X156002061Y-103342084D01*
X156034821Y-103392147D01*
X156040646Y-103399288D01*
X156258351Y-103662449D01*
X156300823Y-103704626D01*
X156342651Y-103747339D01*
X156349751Y-103753213D01*
X156614426Y-103969076D01*
X156664250Y-104002179D01*
X156713606Y-104035974D01*
X156721713Y-104040357D01*
X157023274Y-104200701D01*
X157078580Y-104223496D01*
X157133563Y-104247062D01*
X157142366Y-104249787D01*
X157469329Y-104348503D01*
X157528000Y-104360120D01*
X157586521Y-104372559D01*
X157595686Y-104373522D01*
X157935596Y-104406850D01*
X157935598Y-104406850D01*
X157967581Y-104410000D01*
X158967721Y-104410000D01*
X159259659Y-104438625D01*
X159509429Y-104514035D01*
X159739792Y-104636522D01*
X159941980Y-104801422D01*
X160108286Y-105002450D01*
X160232378Y-105231954D01*
X160309531Y-105481195D01*
X160340001Y-105771098D01*
X160340000Y-116467721D01*
X160311375Y-116759660D01*
X160235965Y-117009429D01*
X160113477Y-117239794D01*
X159948579Y-117441979D01*
X159747546Y-117608288D01*
X159518046Y-117732378D01*
X159268805Y-117809531D01*
X158978911Y-117840000D01*
X156032279Y-117840000D01*
X155740340Y-117811375D01*
X155490571Y-117735965D01*
X155260206Y-117613477D01*
X155058021Y-117448579D01*
X154891712Y-117247546D01*
X154767622Y-117018046D01*
X154690469Y-116768805D01*
X154660000Y-116478911D01*
X154660000Y-115467581D01*
X154657148Y-115438627D01*
X154657235Y-115426219D01*
X154656335Y-115417047D01*
X154615534Y-115028855D01*
X154603514Y-114970299D01*
X154592298Y-114911498D01*
X154589634Y-114902677D01*
X154474210Y-114529802D01*
X154451025Y-114474647D01*
X154428621Y-114419194D01*
X154424294Y-114411058D01*
X154424294Y-114411057D01*
X154424291Y-114411053D01*
X154238643Y-114067702D01*
X154205187Y-114018101D01*
X154172437Y-113968054D01*
X154166613Y-113960913D01*
X153917806Y-113660158D01*
X153875371Y-113618019D01*
X153833508Y-113575269D01*
X153826407Y-113569396D01*
X153523923Y-113322695D01*
X153474107Y-113289598D01*
X153424741Y-113255795D01*
X153416635Y-113251413D01*
X153071993Y-113068163D01*
X153016687Y-113045368D01*
X152961704Y-113021802D01*
X152952901Y-113019077D01*
X152579230Y-112906259D01*
X152520542Y-112894639D01*
X152462039Y-112882203D01*
X152452874Y-112881240D01*
X152064405Y-112843150D01*
X152064402Y-112843150D01*
X152032419Y-112840000D01*
X148967581Y-112840000D01*
X148938627Y-112842852D01*
X148926219Y-112842765D01*
X148917047Y-112843665D01*
X148528855Y-112884466D01*
X148470299Y-112896486D01*
X148411498Y-112907702D01*
X148402677Y-112910366D01*
X148029802Y-113025790D01*
X147974647Y-113048975D01*
X147919194Y-113071379D01*
X147911062Y-113075704D01*
X147911057Y-113075706D01*
X147911053Y-113075709D01*
X147567702Y-113261357D01*
X147518101Y-113294813D01*
X147468054Y-113327563D01*
X147460913Y-113333387D01*
X147160158Y-113582194D01*
X147118019Y-113624629D01*
X147075269Y-113666492D01*
X147069396Y-113673593D01*
X146822695Y-113976077D01*
X146789598Y-114025893D01*
X146755795Y-114075259D01*
X146751413Y-114083365D01*
X146568163Y-114428007D01*
X146545368Y-114483313D01*
X146521802Y-114538296D01*
X146519077Y-114547099D01*
X146406259Y-114920770D01*
X146394639Y-114979458D01*
X146382203Y-115037961D01*
X146381240Y-115047126D01*
X146343150Y-115435595D01*
X146340000Y-115467582D01*
X146340001Y-116467711D01*
X146311375Y-116759660D01*
X146235965Y-117009429D01*
X146113477Y-117239794D01*
X145948579Y-117441979D01*
X145747546Y-117608288D01*
X145518046Y-117732378D01*
X145268805Y-117809531D01*
X144978911Y-117840000D01*
X41032279Y-117840000D01*
X40740340Y-117811375D01*
X40490571Y-117735965D01*
X40260206Y-117613477D01*
X40058021Y-117448579D01*
X39891712Y-117247546D01*
X39767622Y-117018046D01*
X39690469Y-116768805D01*
X39660000Y-116478911D01*
X39660000Y-105782279D01*
X39688625Y-105490341D01*
X39764035Y-105240571D01*
X39886522Y-105010208D01*
X40051422Y-104808020D01*
X40252450Y-104641714D01*
X40481954Y-104517622D01*
X40731195Y-104440469D01*
X41021088Y-104410000D01*
X42032419Y-104410000D01*
X42066138Y-104406679D01*
X42088839Y-104406679D01*
X42098003Y-104405716D01*
X42437414Y-104367645D01*
X42495917Y-104355209D01*
X42554605Y-104343589D01*
X42563408Y-104340864D01*
X42888961Y-104237593D01*
X42943908Y-104214042D01*
X42999249Y-104191233D01*
X43007355Y-104186850D01*
X43306649Y-104022312D01*
X43356005Y-103988517D01*
X43405832Y-103955412D01*
X43412932Y-103949538D01*
X43674567Y-103730000D01*
X43716411Y-103687270D01*
X43758865Y-103645112D01*
X43764689Y-103637970D01*
X43978700Y-103371796D01*
X44011450Y-103321749D01*
X44044906Y-103272148D01*
X44049232Y-103264011D01*
X44207466Y-102961337D01*
X44229862Y-102905905D01*
X44253056Y-102850729D01*
X44255719Y-102841907D01*
X44352150Y-102514262D01*
X44363349Y-102455554D01*
X44375388Y-102396905D01*
X44376287Y-102387733D01*
X44407241Y-102047599D01*
X44406823Y-101987783D01*
X44407241Y-101927967D01*
X44406342Y-101918796D01*
X44370642Y-101579126D01*
X44358610Y-101520514D01*
X44347405Y-101461769D01*
X44344741Y-101452947D01*
X44243745Y-101126681D01*
X44220565Y-101071538D01*
X44198156Y-101016073D01*
X44193829Y-101007936D01*
X44031384Y-100707500D01*
X43997939Y-100657916D01*
X43965179Y-100607853D01*
X43959354Y-100600712D01*
X43741648Y-100337551D01*
X43699212Y-100295410D01*
X43657349Y-100252661D01*
X43650248Y-100246787D01*
X43592882Y-100200000D01*
X50510719Y-100200000D01*
X50515001Y-100243479D01*
X50515000Y-108956531D01*
X50510719Y-109000000D01*
X50515000Y-109043469D01*
X50515000Y-109043476D01*
X50527805Y-109173489D01*
X50578411Y-109340312D01*
X50660589Y-109494058D01*
X50771183Y-109628817D01*
X50804956Y-109656534D01*
X54343470Y-113195049D01*
X54371183Y-113228817D01*
X54404951Y-113256530D01*
X54404953Y-113256532D01*
X54463808Y-113304833D01*
X54505941Y-113339411D01*
X54659687Y-113421589D01*
X54826510Y-113472195D01*
X54956523Y-113485000D01*
X54956531Y-113485000D01*
X55000000Y-113489281D01*
X55043469Y-113485000D01*
X93156531Y-113485000D01*
X93200000Y-113489281D01*
X93243469Y-113485000D01*
X93243477Y-113485000D01*
X93373490Y-113472195D01*
X93540313Y-113421589D01*
X93694059Y-113339411D01*
X93828817Y-113228817D01*
X93856534Y-113195044D01*
X94801579Y-112249999D01*
X97761928Y-112249999D01*
X97761928Y-113150001D01*
X97778992Y-113323255D01*
X97829528Y-113489851D01*
X97911595Y-113643387D01*
X98022038Y-113777962D01*
X98115000Y-113854254D01*
X98115000Y-114356531D01*
X98110719Y-114400000D01*
X98115000Y-114443469D01*
X98115000Y-114443476D01*
X98122054Y-114515098D01*
X98127805Y-114573490D01*
X98131716Y-114586381D01*
X98178411Y-114740312D01*
X98260589Y-114894058D01*
X98371183Y-115028817D01*
X98404956Y-115056534D01*
X98943470Y-115595049D01*
X98971183Y-115628817D01*
X99004951Y-115656530D01*
X99004953Y-115656532D01*
X99034268Y-115680590D01*
X99105941Y-115739411D01*
X99259687Y-115821589D01*
X99426510Y-115872195D01*
X99556523Y-115885000D01*
X99556533Y-115885000D01*
X99599999Y-115889281D01*
X99643465Y-115885000D01*
X133956531Y-115885000D01*
X134000000Y-115889281D01*
X134043469Y-115885000D01*
X134043477Y-115885000D01*
X134173490Y-115872195D01*
X134340313Y-115821589D01*
X134494059Y-115739411D01*
X134628817Y-115628817D01*
X134656534Y-115595044D01*
X137095049Y-113156530D01*
X137128817Y-113128817D01*
X137157343Y-113094059D01*
X137239411Y-112994059D01*
X137260104Y-112955344D01*
X137321589Y-112840313D01*
X137372195Y-112673490D01*
X137385000Y-112543477D01*
X137385000Y-112543469D01*
X137389281Y-112500000D01*
X137385000Y-112456531D01*
X137385000Y-110587110D01*
X137439850Y-110570472D01*
X137593386Y-110488405D01*
X137727962Y-110377962D01*
X137838405Y-110243386D01*
X137920472Y-110089850D01*
X137971008Y-109923254D01*
X137988072Y-109750000D01*
X137988072Y-108250000D01*
X137971008Y-108076746D01*
X137920472Y-107910150D01*
X137838405Y-107756614D01*
X137727962Y-107622038D01*
X137593386Y-107511595D01*
X137439850Y-107429528D01*
X137273254Y-107378992D01*
X137100000Y-107361928D01*
X135900000Y-107361928D01*
X135726746Y-107378992D01*
X135560150Y-107429528D01*
X135406614Y-107511595D01*
X135272038Y-107622038D01*
X135161595Y-107756614D01*
X135107223Y-107858337D01*
X135055134Y-107794866D01*
X134829014Y-107609294D01*
X134571034Y-107471401D01*
X134291111Y-107386487D01*
X134000000Y-107357815D01*
X133708890Y-107386487D01*
X133428967Y-107471401D01*
X133170987Y-107609294D01*
X132944866Y-107794866D01*
X132759294Y-108020986D01*
X132621401Y-108278966D01*
X132536487Y-108558889D01*
X132515000Y-108777050D01*
X132515000Y-109222949D01*
X132536487Y-109441110D01*
X132621401Y-109721033D01*
X132759294Y-109979013D01*
X132944866Y-110205134D01*
X133115000Y-110344760D01*
X133115001Y-111433420D01*
X131133432Y-113414990D01*
X102666569Y-113414990D01*
X102238072Y-112986494D01*
X102238072Y-112249999D01*
X102221008Y-112076745D01*
X102170472Y-111910149D01*
X102088405Y-111756613D01*
X101977962Y-111622038D01*
X101843387Y-111511595D01*
X101689851Y-111429528D01*
X101523255Y-111378992D01*
X101350001Y-111361928D01*
X100649999Y-111361928D01*
X100476745Y-111378992D01*
X100310149Y-111429528D01*
X100156613Y-111511595D01*
X100022038Y-111622038D01*
X100000000Y-111648891D01*
X99977962Y-111622038D01*
X99843387Y-111511595D01*
X99689851Y-111429528D01*
X99523255Y-111378992D01*
X99350001Y-111361928D01*
X98649999Y-111361928D01*
X98476745Y-111378992D01*
X98310149Y-111429528D01*
X98156613Y-111511595D01*
X98022038Y-111622038D01*
X97911595Y-111756613D01*
X97829528Y-111910149D01*
X97778992Y-112076745D01*
X97761928Y-112249999D01*
X94801579Y-112249999D01*
X96566579Y-110485000D01*
X102433422Y-110485000D01*
X104743470Y-112795049D01*
X104771183Y-112828817D01*
X104804951Y-112856530D01*
X104804953Y-112856532D01*
X104867304Y-112907702D01*
X104905941Y-112939411D01*
X105059687Y-113021589D01*
X105226510Y-113072195D01*
X105356523Y-113085000D01*
X105356533Y-113085000D01*
X105399999Y-113089281D01*
X105443465Y-113085000D01*
X129156531Y-113085000D01*
X129200000Y-113089281D01*
X129243469Y-113085000D01*
X129243477Y-113085000D01*
X129373490Y-113072195D01*
X129540313Y-113021589D01*
X129694059Y-112939411D01*
X129828817Y-112828817D01*
X129856534Y-112795044D01*
X130995049Y-111656530D01*
X131028817Y-111628817D01*
X131076117Y-111571183D01*
X131139410Y-111494060D01*
X131139411Y-111494059D01*
X131221589Y-111340313D01*
X131272195Y-111173490D01*
X131285000Y-111043477D01*
X131285000Y-111043467D01*
X131289281Y-111000001D01*
X131285000Y-110956535D01*
X131285000Y-107166578D01*
X133816579Y-104635000D01*
X143437890Y-104635000D01*
X143454528Y-104689850D01*
X143536595Y-104843386D01*
X143647038Y-104977962D01*
X143781614Y-105088405D01*
X143935150Y-105170472D01*
X144101746Y-105221008D01*
X144275000Y-105238072D01*
X145725000Y-105238072D01*
X145898254Y-105221008D01*
X146064850Y-105170472D01*
X146218386Y-105088405D01*
X146352962Y-104977962D01*
X146463405Y-104843386D01*
X146545472Y-104689850D01*
X146596008Y-104523254D01*
X146613072Y-104350000D01*
X146613072Y-103150000D01*
X146596008Y-102976746D01*
X146545472Y-102810150D01*
X146463405Y-102656614D01*
X146352962Y-102522038D01*
X146218386Y-102411595D01*
X146116663Y-102357223D01*
X146180134Y-102305134D01*
X146365706Y-102079014D01*
X146503599Y-101821034D01*
X146588513Y-101541111D01*
X146617185Y-101250000D01*
X146588513Y-100958889D01*
X146503599Y-100678966D01*
X146365706Y-100420986D01*
X146180134Y-100194866D01*
X145954014Y-100009294D01*
X145928278Y-99995538D01*
X146134429Y-99839049D01*
X146327496Y-99621193D01*
X146474352Y-99369858D01*
X146566476Y-99106890D01*
X146445155Y-98877000D01*
X145127000Y-98877000D01*
X145127000Y-98897000D01*
X144873000Y-98897000D01*
X144873000Y-98877000D01*
X143554845Y-98877000D01*
X143433524Y-99106890D01*
X143525648Y-99369858D01*
X143672504Y-99621193D01*
X143865571Y-99839049D01*
X144071722Y-99995538D01*
X144045986Y-100009294D01*
X143819866Y-100194866D01*
X143680241Y-100365000D01*
X139616579Y-100365000D01*
X136885000Y-97633422D01*
X136885000Y-96250000D01*
X143382815Y-96250000D01*
X143411487Y-96541111D01*
X143496401Y-96821034D01*
X143634294Y-97079014D01*
X143819866Y-97305134D01*
X144045986Y-97490706D01*
X144071722Y-97504462D01*
X143865571Y-97660951D01*
X143672504Y-97878807D01*
X143525648Y-98130142D01*
X143433524Y-98393110D01*
X143554845Y-98623000D01*
X144873000Y-98623000D01*
X144873000Y-98603000D01*
X145127000Y-98603000D01*
X145127000Y-98623000D01*
X146445155Y-98623000D01*
X146566476Y-98393110D01*
X146474352Y-98130142D01*
X146327496Y-97878807D01*
X146134429Y-97660951D01*
X145928278Y-97504462D01*
X145954014Y-97490706D01*
X146180134Y-97305134D01*
X146365706Y-97079014D01*
X146503599Y-96821034D01*
X146588513Y-96541111D01*
X146617185Y-96250000D01*
X146588513Y-95958889D01*
X146503599Y-95678966D01*
X146365706Y-95420986D01*
X146180134Y-95194866D01*
X145954014Y-95009294D01*
X145696034Y-94871401D01*
X145416111Y-94786487D01*
X145197950Y-94765000D01*
X144802050Y-94765000D01*
X144583889Y-94786487D01*
X144303966Y-94871401D01*
X144045986Y-95009294D01*
X143819866Y-95194866D01*
X143634294Y-95420986D01*
X143496401Y-95678966D01*
X143411487Y-95958889D01*
X143382815Y-96250000D01*
X136885000Y-96250000D01*
X136885000Y-91562110D01*
X136939850Y-91545472D01*
X137093386Y-91463405D01*
X137227962Y-91352962D01*
X137338405Y-91218386D01*
X137420472Y-91064850D01*
X137471008Y-90898254D01*
X137488072Y-90725000D01*
X137488072Y-89275000D01*
X137471008Y-89101746D01*
X137420472Y-88935150D01*
X137338405Y-88781614D01*
X137227962Y-88647038D01*
X137093386Y-88536595D01*
X136939850Y-88454528D01*
X136773254Y-88403992D01*
X136600000Y-88386928D01*
X135400000Y-88386928D01*
X135226746Y-88403992D01*
X135060150Y-88454528D01*
X134906614Y-88536595D01*
X134772038Y-88647038D01*
X134661595Y-88781614D01*
X134605286Y-88886961D01*
X134589049Y-88865571D01*
X134371193Y-88672504D01*
X134119858Y-88525648D01*
X133856890Y-88433524D01*
X133627000Y-88554845D01*
X133627000Y-89873000D01*
X133647000Y-89873000D01*
X133647000Y-90127000D01*
X133627000Y-90127000D01*
X133627000Y-91445155D01*
X133856890Y-91566476D01*
X134119858Y-91474352D01*
X134371193Y-91327496D01*
X134589049Y-91134429D01*
X134605286Y-91113039D01*
X134661595Y-91218386D01*
X134772038Y-91352962D01*
X134906614Y-91463405D01*
X135060150Y-91545472D01*
X135115001Y-91562111D01*
X135115000Y-97956531D01*
X135110719Y-98000000D01*
X135115000Y-98043469D01*
X135115000Y-98043476D01*
X135123515Y-98129930D01*
X135127805Y-98173490D01*
X135140164Y-98214230D01*
X135178411Y-98340312D01*
X135260589Y-98494058D01*
X135371183Y-98628817D01*
X135404956Y-98656534D01*
X138593470Y-101845049D01*
X138621183Y-101878817D01*
X138654951Y-101906530D01*
X138654953Y-101906532D01*
X138712402Y-101953679D01*
X138755941Y-101989411D01*
X138909687Y-102071589D01*
X139076510Y-102122195D01*
X139206523Y-102135000D01*
X139206533Y-102135000D01*
X139249999Y-102139281D01*
X139293466Y-102135000D01*
X143680241Y-102135000D01*
X143819866Y-102305134D01*
X143883337Y-102357223D01*
X143781614Y-102411595D01*
X143647038Y-102522038D01*
X143536595Y-102656614D01*
X143454528Y-102810150D01*
X143437890Y-102865000D01*
X133493465Y-102865000D01*
X133449999Y-102860719D01*
X133406533Y-102865000D01*
X133406523Y-102865000D01*
X133276510Y-102877805D01*
X133109687Y-102928411D01*
X132955941Y-103010589D01*
X132955939Y-103010590D01*
X132955940Y-103010590D01*
X132854953Y-103093468D01*
X132854951Y-103093470D01*
X132821183Y-103121183D01*
X132793470Y-103154951D01*
X129804956Y-106143466D01*
X129771183Y-106171183D01*
X129660589Y-106305942D01*
X129578411Y-106459688D01*
X129527805Y-106626511D01*
X129515000Y-106756524D01*
X129515000Y-106756531D01*
X129510719Y-106800000D01*
X129515000Y-106843469D01*
X129515001Y-110633420D01*
X128833422Y-111315000D01*
X105766579Y-111315000D01*
X103456534Y-109004956D01*
X103428817Y-108971183D01*
X103294059Y-108860589D01*
X103140313Y-108778411D01*
X102973490Y-108727805D01*
X102843477Y-108715000D01*
X102843469Y-108715000D01*
X102800000Y-108710719D01*
X102756531Y-108715000D01*
X96243469Y-108715000D01*
X96200000Y-108710719D01*
X96156531Y-108715000D01*
X96156523Y-108715000D01*
X96026510Y-108727805D01*
X95859686Y-108778411D01*
X95705941Y-108860589D01*
X95604953Y-108943468D01*
X95604951Y-108943470D01*
X95571183Y-108971183D01*
X95543470Y-109004951D01*
X92833422Y-111715000D01*
X55366579Y-111715000D01*
X52343629Y-108692050D01*
X63443000Y-108692050D01*
X63443000Y-109087949D01*
X63464487Y-109306110D01*
X63549401Y-109586033D01*
X63687294Y-109844013D01*
X63872866Y-110070134D01*
X64098986Y-110255706D01*
X64356966Y-110393599D01*
X64636889Y-110478513D01*
X64928000Y-110507185D01*
X65219110Y-110478513D01*
X65499033Y-110393599D01*
X65757013Y-110255706D01*
X65983134Y-110070134D01*
X66168706Y-109844014D01*
X66182462Y-109818278D01*
X66338951Y-110024429D01*
X66556807Y-110217496D01*
X66808142Y-110364352D01*
X67071110Y-110456476D01*
X67301000Y-110335155D01*
X67301000Y-109017000D01*
X67281000Y-109017000D01*
X67281000Y-108763000D01*
X67301000Y-108763000D01*
X67301000Y-107444845D01*
X67555000Y-107444845D01*
X67555000Y-108763000D01*
X67575000Y-108763000D01*
X67575000Y-109017000D01*
X67555000Y-109017000D01*
X67555000Y-110335155D01*
X67784890Y-110456476D01*
X68047858Y-110364352D01*
X68299193Y-110217496D01*
X68517049Y-110024429D01*
X68533286Y-110003039D01*
X68589595Y-110108386D01*
X68700038Y-110242962D01*
X68834614Y-110353405D01*
X68988150Y-110435472D01*
X69154746Y-110486008D01*
X69328000Y-110503072D01*
X70528000Y-110503072D01*
X70701254Y-110486008D01*
X70867850Y-110435472D01*
X71021386Y-110353405D01*
X71155962Y-110242962D01*
X71266405Y-110108386D01*
X71348472Y-109954850D01*
X71399008Y-109788254D01*
X71416072Y-109615000D01*
X71416072Y-108165000D01*
X71399008Y-107991746D01*
X71348472Y-107825150D01*
X71266405Y-107671614D01*
X71155962Y-107537038D01*
X71021386Y-107426595D01*
X70867850Y-107344528D01*
X70701254Y-107293992D01*
X70528000Y-107276928D01*
X69328000Y-107276928D01*
X69154746Y-107293992D01*
X68988150Y-107344528D01*
X68834614Y-107426595D01*
X68700038Y-107537038D01*
X68589595Y-107671614D01*
X68533286Y-107776961D01*
X68517049Y-107755571D01*
X68299193Y-107562504D01*
X68047858Y-107415648D01*
X67784890Y-107323524D01*
X67555000Y-107444845D01*
X67301000Y-107444845D01*
X67071110Y-107323524D01*
X66808142Y-107415648D01*
X66556807Y-107562504D01*
X66338951Y-107755571D01*
X66182462Y-107961722D01*
X66168706Y-107935986D01*
X65983134Y-107709866D01*
X65757014Y-107524294D01*
X65499034Y-107386401D01*
X65219111Y-107301487D01*
X64928000Y-107272815D01*
X64636890Y-107301487D01*
X64356967Y-107386401D01*
X64098987Y-107524294D01*
X63872866Y-107709866D01*
X63687294Y-107935986D01*
X63549401Y-108193966D01*
X63464487Y-108473889D01*
X63443000Y-108692050D01*
X52343629Y-108692050D01*
X52285000Y-108633422D01*
X52285000Y-103750000D01*
X53382815Y-103750000D01*
X53411487Y-104041111D01*
X53496401Y-104321034D01*
X53634294Y-104579014D01*
X53819866Y-104805134D01*
X54045986Y-104990706D01*
X54303966Y-105128599D01*
X54583889Y-105213513D01*
X54802050Y-105235000D01*
X55197950Y-105235000D01*
X55416111Y-105213513D01*
X55696034Y-105128599D01*
X55954014Y-104990706D01*
X56180134Y-104805134D01*
X56365706Y-104579014D01*
X56503599Y-104321034D01*
X56588513Y-104041111D01*
X56617185Y-103750000D01*
X56588513Y-103458889D01*
X56503599Y-103178966D01*
X56365706Y-102920986D01*
X56180134Y-102694866D01*
X55954014Y-102509294D01*
X55928278Y-102495538D01*
X56134429Y-102339049D01*
X56327496Y-102121193D01*
X56474352Y-101869858D01*
X56566476Y-101606890D01*
X56445155Y-101377000D01*
X55127000Y-101377000D01*
X55127000Y-101397000D01*
X54873000Y-101397000D01*
X54873000Y-101377000D01*
X53554845Y-101377000D01*
X53433524Y-101606890D01*
X53525648Y-101869858D01*
X53672504Y-102121193D01*
X53865571Y-102339049D01*
X54071722Y-102495538D01*
X54045986Y-102509294D01*
X53819866Y-102694866D01*
X53634294Y-102920986D01*
X53496401Y-103178966D01*
X53411487Y-103458889D01*
X53382815Y-103750000D01*
X52285000Y-103750000D01*
X52285000Y-100566578D01*
X53216579Y-99635000D01*
X53680241Y-99635000D01*
X53819866Y-99805134D01*
X54045986Y-99990706D01*
X54071722Y-100004462D01*
X53865571Y-100160951D01*
X53672504Y-100378807D01*
X53525648Y-100630142D01*
X53433524Y-100893110D01*
X53554845Y-101123000D01*
X54873000Y-101123000D01*
X54873000Y-101103000D01*
X55127000Y-101103000D01*
X55127000Y-101123000D01*
X56445155Y-101123000D01*
X56566476Y-100893110D01*
X56474352Y-100630142D01*
X56327496Y-100378807D01*
X56134429Y-100160951D01*
X55928278Y-100004462D01*
X55954014Y-99990706D01*
X56180134Y-99805134D01*
X56365706Y-99579014D01*
X56503599Y-99321034D01*
X56588513Y-99041111D01*
X56617185Y-98750000D01*
X56588513Y-98458889D01*
X56503599Y-98178966D01*
X56365706Y-97920986D01*
X56180134Y-97694866D01*
X56116663Y-97642777D01*
X56218386Y-97588405D01*
X56352962Y-97477962D01*
X56463405Y-97343386D01*
X56545472Y-97189850D01*
X56596008Y-97023254D01*
X56613072Y-96850000D01*
X56613072Y-95650000D01*
X56596008Y-95476746D01*
X56545472Y-95310150D01*
X56463405Y-95156614D01*
X56352962Y-95022038D01*
X56218386Y-94911595D01*
X56064850Y-94829528D01*
X55898254Y-94778992D01*
X55725000Y-94761928D01*
X54275000Y-94761928D01*
X54101746Y-94778992D01*
X53935150Y-94829528D01*
X53781614Y-94911595D01*
X53647038Y-95022038D01*
X53536595Y-95156614D01*
X53454528Y-95310150D01*
X53403992Y-95476746D01*
X53386928Y-95650000D01*
X53386928Y-96850000D01*
X53403992Y-97023254D01*
X53454528Y-97189850D01*
X53536595Y-97343386D01*
X53647038Y-97477962D01*
X53781614Y-97588405D01*
X53883337Y-97642777D01*
X53819866Y-97694866D01*
X53680241Y-97865000D01*
X52893469Y-97865000D01*
X52850000Y-97860719D01*
X52806531Y-97865000D01*
X52806523Y-97865000D01*
X52676510Y-97877805D01*
X52509686Y-97928411D01*
X52355941Y-98010589D01*
X52254953Y-98093468D01*
X52254951Y-98093470D01*
X52221183Y-98121183D01*
X52193470Y-98154951D01*
X50804951Y-99543471D01*
X50771184Y-99571183D01*
X50743471Y-99604951D01*
X50743468Y-99604954D01*
X50660590Y-99705941D01*
X50578412Y-99859687D01*
X50527805Y-100026510D01*
X50510719Y-100200000D01*
X43592882Y-100200000D01*
X43385574Y-100030924D01*
X43335716Y-99997799D01*
X43286393Y-99964026D01*
X43278287Y-99959643D01*
X42976725Y-99799299D01*
X42921433Y-99776510D01*
X42866437Y-99752938D01*
X42857634Y-99750213D01*
X42530671Y-99651497D01*
X42472000Y-99639880D01*
X42413479Y-99627441D01*
X42404314Y-99626478D01*
X42064404Y-99593150D01*
X42064402Y-99593150D01*
X42032419Y-99590000D01*
X41032269Y-99590000D01*
X40740340Y-99561376D01*
X40490572Y-99485967D01*
X40260206Y-99363479D01*
X40058021Y-99198581D01*
X39891712Y-98997547D01*
X39767621Y-98768046D01*
X39690468Y-98518806D01*
X39660000Y-98228921D01*
X39660000Y-90887050D01*
X61015000Y-90887050D01*
X61015000Y-91332949D01*
X61036487Y-91551110D01*
X61121401Y-91831033D01*
X61259294Y-92089013D01*
X61444866Y-92315134D01*
X61670986Y-92500706D01*
X61928966Y-92638599D01*
X62208889Y-92723513D01*
X62500000Y-92752185D01*
X62791110Y-92723513D01*
X62845451Y-92707029D01*
X70683479Y-100545058D01*
X70711192Y-100578826D01*
X70744960Y-100606539D01*
X70744962Y-100606541D01*
X70845950Y-100689420D01*
X70999695Y-100771598D01*
X71133580Y-100812212D01*
X71166519Y-100822204D01*
X71296532Y-100835009D01*
X71296540Y-100835009D01*
X71340009Y-100839290D01*
X71383478Y-100835009D01*
X89673000Y-100835009D01*
X89673000Y-101084483D01*
X89668225Y-101096011D01*
X89615000Y-101363589D01*
X89615000Y-101636411D01*
X89668225Y-101903989D01*
X89673000Y-101915517D01*
X89673000Y-102600000D01*
X89675440Y-102624776D01*
X89682667Y-102648601D01*
X89694403Y-102670557D01*
X89710197Y-102689803D01*
X89729443Y-102705597D01*
X89751399Y-102717333D01*
X89775224Y-102724560D01*
X89800000Y-102727000D01*
X89865000Y-102727000D01*
X89865001Y-104029867D01*
X88779869Y-105115000D01*
X80225741Y-105115000D01*
X80169999Y-105109510D01*
X80114257Y-105115000D01*
X80114248Y-105115000D01*
X79947501Y-105131423D01*
X79733553Y-105196324D01*
X79536377Y-105301716D01*
X79363551Y-105443551D01*
X79328011Y-105486857D01*
X77752941Y-107061928D01*
X76120000Y-107061928D01*
X75995518Y-107074188D01*
X75875820Y-107110498D01*
X75765506Y-107169463D01*
X75668815Y-107248815D01*
X75589463Y-107345506D01*
X75530498Y-107455820D01*
X75494188Y-107575518D01*
X75481928Y-107700000D01*
X75481928Y-110300000D01*
X75494188Y-110424482D01*
X75530498Y-110544180D01*
X75589463Y-110654494D01*
X75668815Y-110751185D01*
X75765506Y-110830537D01*
X75875820Y-110889502D01*
X75995518Y-110925812D01*
X76120000Y-110938072D01*
X78720000Y-110938072D01*
X78844482Y-110925812D01*
X78964180Y-110889502D01*
X79074494Y-110830537D01*
X79171185Y-110751185D01*
X79250537Y-110654494D01*
X79309502Y-110544180D01*
X79345812Y-110424482D01*
X79358072Y-110300000D01*
X79358072Y-108667059D01*
X80640132Y-107385000D01*
X81434110Y-107385000D01*
X81266509Y-107496987D01*
X80996987Y-107766509D01*
X80785225Y-108083434D01*
X80639361Y-108435581D01*
X80565000Y-108809419D01*
X80565000Y-109190581D01*
X80639361Y-109564419D01*
X80785225Y-109916566D01*
X80996987Y-110233491D01*
X81266509Y-110503013D01*
X81583434Y-110714775D01*
X81935581Y-110860639D01*
X82309419Y-110935000D01*
X82690581Y-110935000D01*
X83064419Y-110860639D01*
X83416566Y-110714775D01*
X83733491Y-110503013D01*
X84003013Y-110233491D01*
X84068822Y-110135000D01*
X91444249Y-110135000D01*
X91500000Y-110140491D01*
X91555751Y-110135000D01*
X91555752Y-110135000D01*
X91722499Y-110118577D01*
X91936447Y-110053676D01*
X92133623Y-109948284D01*
X92306449Y-109806449D01*
X92341996Y-109763135D01*
X94763141Y-107341991D01*
X94806449Y-107306449D01*
X94948284Y-107133623D01*
X95053676Y-106936447D01*
X95118577Y-106722499D01*
X95135000Y-106555752D01*
X95135000Y-106555751D01*
X95140491Y-106500000D01*
X95135000Y-106444249D01*
X95135000Y-102727000D01*
X96343402Y-102727000D01*
X96343957Y-102727371D01*
X96596011Y-102831775D01*
X96863589Y-102885000D01*
X97136411Y-102885000D01*
X97403989Y-102831775D01*
X97656043Y-102727371D01*
X97656598Y-102727000D01*
X99343402Y-102727000D01*
X99343957Y-102727371D01*
X99596011Y-102831775D01*
X99759081Y-102864212D01*
X106548009Y-109653141D01*
X106583551Y-109696449D01*
X106756377Y-109838284D01*
X106953553Y-109943676D01*
X107117705Y-109993471D01*
X107167500Y-110008577D01*
X107188493Y-110010644D01*
X107334248Y-110025000D01*
X107334255Y-110025000D01*
X107389999Y-110030490D01*
X107445743Y-110025000D01*
X118407826Y-110025000D01*
X118444866Y-110070134D01*
X118670986Y-110255706D01*
X118928966Y-110393599D01*
X119208889Y-110478513D01*
X119500000Y-110507185D01*
X119791110Y-110478513D01*
X120071033Y-110393599D01*
X120329013Y-110255706D01*
X120555134Y-110070134D01*
X120740706Y-109844014D01*
X120750000Y-109826626D01*
X120759294Y-109844013D01*
X120944866Y-110070134D01*
X121170986Y-110255706D01*
X121428966Y-110393599D01*
X121708889Y-110478513D01*
X122000000Y-110507185D01*
X122291110Y-110478513D01*
X122571033Y-110393599D01*
X122829013Y-110255706D01*
X123055134Y-110070134D01*
X123240706Y-109844014D01*
X123250000Y-109826626D01*
X123259294Y-109844013D01*
X123444866Y-110070134D01*
X123670986Y-110255706D01*
X123928966Y-110393599D01*
X124208889Y-110478513D01*
X124500000Y-110507185D01*
X124791110Y-110478513D01*
X125071033Y-110393599D01*
X125329013Y-110255706D01*
X125555134Y-110070134D01*
X125607223Y-110006663D01*
X125661595Y-110108386D01*
X125772038Y-110242962D01*
X125906614Y-110353405D01*
X126060150Y-110435472D01*
X126226746Y-110486008D01*
X126400000Y-110503072D01*
X127600000Y-110503072D01*
X127773254Y-110486008D01*
X127939850Y-110435472D01*
X128093386Y-110353405D01*
X128227962Y-110242962D01*
X128338405Y-110108386D01*
X128420472Y-109954850D01*
X128471008Y-109788254D01*
X128488072Y-109615000D01*
X128488072Y-108165000D01*
X128471008Y-107991746D01*
X128420472Y-107825150D01*
X128338405Y-107671614D01*
X128227962Y-107537038D01*
X128135000Y-107460747D01*
X128135000Y-106055751D01*
X128140491Y-105999999D01*
X128118577Y-105777501D01*
X128053676Y-105563553D01*
X128042696Y-105543011D01*
X127948284Y-105366377D01*
X127806449Y-105193551D01*
X127763141Y-105158009D01*
X123341996Y-100736865D01*
X123306449Y-100693551D01*
X123133623Y-100551716D01*
X122936447Y-100446324D01*
X122722499Y-100381423D01*
X122555752Y-100365000D01*
X122555751Y-100365000D01*
X122500000Y-100359509D01*
X122444249Y-100365000D01*
X110327000Y-100365000D01*
X110327000Y-98915517D01*
X110331775Y-98903989D01*
X110385000Y-98636411D01*
X110385000Y-98366578D01*
X110900636Y-97850942D01*
X110908617Y-97891067D01*
X110994176Y-98097624D01*
X111118388Y-98283520D01*
X111276480Y-98441612D01*
X111462376Y-98565824D01*
X111668933Y-98651383D01*
X111888212Y-98695000D01*
X112111788Y-98695000D01*
X112331067Y-98651383D01*
X112537624Y-98565824D01*
X112723520Y-98441612D01*
X112881612Y-98283520D01*
X113005824Y-98097624D01*
X113091383Y-97891067D01*
X113135000Y-97671788D01*
X113135000Y-97448212D01*
X113091383Y-97228933D01*
X113005824Y-97022376D01*
X112881612Y-96836480D01*
X112723520Y-96678388D01*
X112537624Y-96554176D01*
X112331067Y-96468617D01*
X112290943Y-96460636D01*
X117866579Y-90885000D01*
X118709043Y-90885000D01*
X118759294Y-90979013D01*
X118944866Y-91205134D01*
X119170986Y-91390706D01*
X119428966Y-91528599D01*
X119708889Y-91613513D01*
X120000000Y-91642185D01*
X120291110Y-91613513D01*
X120571033Y-91528599D01*
X120829013Y-91390706D01*
X121055134Y-91205134D01*
X121107223Y-91141663D01*
X121161595Y-91243386D01*
X121272038Y-91377962D01*
X121406614Y-91488405D01*
X121560150Y-91570472D01*
X121726746Y-91621008D01*
X121900000Y-91638072D01*
X123100000Y-91638072D01*
X123273254Y-91621008D01*
X123439850Y-91570472D01*
X123593386Y-91488405D01*
X123727962Y-91377962D01*
X123838405Y-91243386D01*
X123920472Y-91089850D01*
X123971008Y-90923254D01*
X123988072Y-90750000D01*
X123988072Y-89802050D01*
X129515000Y-89802050D01*
X129515000Y-90197949D01*
X129536487Y-90416110D01*
X129621401Y-90696033D01*
X129759294Y-90954013D01*
X129944866Y-91180134D01*
X130170986Y-91365706D01*
X130428966Y-91503599D01*
X130708889Y-91588513D01*
X131000000Y-91617185D01*
X131291110Y-91588513D01*
X131571033Y-91503599D01*
X131829013Y-91365706D01*
X132055134Y-91180134D01*
X132240706Y-90954014D01*
X132254462Y-90928278D01*
X132410951Y-91134429D01*
X132628807Y-91327496D01*
X132880142Y-91474352D01*
X133143110Y-91566476D01*
X133373000Y-91445155D01*
X133373000Y-90127000D01*
X133353000Y-90127000D01*
X133353000Y-89873000D01*
X133373000Y-89873000D01*
X133373000Y-88554845D01*
X133143110Y-88433524D01*
X132880142Y-88525648D01*
X132628807Y-88672504D01*
X132410951Y-88865571D01*
X132254462Y-89071722D01*
X132240706Y-89045986D01*
X132055134Y-88819866D01*
X131829014Y-88634294D01*
X131571034Y-88496401D01*
X131291111Y-88411487D01*
X131000000Y-88382815D01*
X130708890Y-88411487D01*
X130428967Y-88496401D01*
X130170987Y-88634294D01*
X129944866Y-88819866D01*
X129759294Y-89045986D01*
X129621401Y-89303966D01*
X129536487Y-89583889D01*
X129515000Y-89802050D01*
X123988072Y-89802050D01*
X123988072Y-89250000D01*
X123971008Y-89076746D01*
X123920472Y-88910150D01*
X123838405Y-88756614D01*
X123727962Y-88622038D01*
X123593386Y-88511595D01*
X123439850Y-88429528D01*
X123273254Y-88378992D01*
X123100000Y-88361928D01*
X121900000Y-88361928D01*
X121726746Y-88378992D01*
X121560150Y-88429528D01*
X121406614Y-88511595D01*
X121272038Y-88622038D01*
X121161595Y-88756614D01*
X121107223Y-88858337D01*
X121055134Y-88794866D01*
X120829014Y-88609294D01*
X120571034Y-88471401D01*
X120291111Y-88386487D01*
X120000000Y-88357815D01*
X119708890Y-88386487D01*
X119428967Y-88471401D01*
X119170987Y-88609294D01*
X118944866Y-88794866D01*
X118759294Y-89020986D01*
X118709043Y-89115000D01*
X117543465Y-89115000D01*
X117499999Y-89110719D01*
X117456533Y-89115000D01*
X117456523Y-89115000D01*
X117326510Y-89127805D01*
X117159687Y-89178411D01*
X117005941Y-89260589D01*
X117005939Y-89260590D01*
X117005940Y-89260590D01*
X116904953Y-89343468D01*
X116904951Y-89343470D01*
X116871183Y-89371183D01*
X116843470Y-89404951D01*
X109175422Y-97073000D01*
X105824579Y-97073000D01*
X102556506Y-93804928D01*
X102528789Y-93771155D01*
X102394031Y-93660561D01*
X102240285Y-93578383D01*
X102073462Y-93527777D01*
X101943449Y-93514972D01*
X101943441Y-93514972D01*
X101899972Y-93510691D01*
X101856503Y-93514972D01*
X87656551Y-93514972D01*
X85488072Y-91346494D01*
X85488072Y-90360000D01*
X85471008Y-90186746D01*
X85420472Y-90020150D01*
X85338405Y-89866614D01*
X85227962Y-89732038D01*
X85093386Y-89621595D01*
X84939850Y-89539528D01*
X84773254Y-89488992D01*
X84600000Y-89471928D01*
X83400000Y-89471928D01*
X83226746Y-89488992D01*
X83060150Y-89539528D01*
X82906614Y-89621595D01*
X82772038Y-89732038D01*
X82661595Y-89866614D01*
X82607223Y-89968337D01*
X82555134Y-89904866D01*
X82329014Y-89719294D01*
X82071034Y-89581401D01*
X81791111Y-89496487D01*
X81500000Y-89467815D01*
X81208890Y-89496487D01*
X80928967Y-89581401D01*
X80670987Y-89719294D01*
X80444866Y-89904866D01*
X80259294Y-90130986D01*
X80121401Y-90388966D01*
X80036487Y-90668889D01*
X80015000Y-90887050D01*
X80015000Y-91332949D01*
X80036487Y-91551110D01*
X80121401Y-91831033D01*
X80259294Y-92089013D01*
X80444866Y-92315134D01*
X80670986Y-92500706D01*
X80928966Y-92638599D01*
X81208889Y-92723513D01*
X81500000Y-92752185D01*
X81791110Y-92723513D01*
X81845451Y-92707029D01*
X84053411Y-94914990D01*
X79556569Y-94914990D01*
X75988072Y-91346494D01*
X75988072Y-90360000D01*
X75971008Y-90186746D01*
X75920472Y-90020150D01*
X75838405Y-89866614D01*
X75727962Y-89732038D01*
X75593386Y-89621595D01*
X75439850Y-89539528D01*
X75273254Y-89488992D01*
X75100000Y-89471928D01*
X73900000Y-89471928D01*
X73726746Y-89488992D01*
X73560150Y-89539528D01*
X73406614Y-89621595D01*
X73272038Y-89732038D01*
X73161595Y-89866614D01*
X73107223Y-89968337D01*
X73055134Y-89904866D01*
X72829014Y-89719294D01*
X72571034Y-89581401D01*
X72291111Y-89496487D01*
X72000000Y-89467815D01*
X71708890Y-89496487D01*
X71428967Y-89581401D01*
X71170987Y-89719294D01*
X70944866Y-89904866D01*
X70759294Y-90130986D01*
X70621401Y-90388966D01*
X70536487Y-90668889D01*
X70515000Y-90887050D01*
X70515000Y-91332949D01*
X70536487Y-91551110D01*
X70621401Y-91831033D01*
X70759294Y-92089013D01*
X70944866Y-92315134D01*
X71170986Y-92500706D01*
X71428966Y-92638599D01*
X71708889Y-92723513D01*
X72000000Y-92752185D01*
X72291110Y-92723513D01*
X72345451Y-92707029D01*
X76733470Y-97095049D01*
X76761183Y-97128817D01*
X76794951Y-97156530D01*
X76794953Y-97156532D01*
X76821614Y-97178412D01*
X76895941Y-97239411D01*
X77049687Y-97321589D01*
X77216510Y-97372195D01*
X77346523Y-97385000D01*
X77346533Y-97385000D01*
X77389999Y-97389281D01*
X77433465Y-97385000D01*
X86877574Y-97385000D01*
X86865000Y-97448212D01*
X86865000Y-97671788D01*
X86908617Y-97891067D01*
X86994176Y-98097624D01*
X87118388Y-98283520D01*
X87199867Y-98364999D01*
X73506578Y-98364999D01*
X66488072Y-91346494D01*
X66488072Y-90360000D01*
X66471008Y-90186746D01*
X66420472Y-90020150D01*
X66338405Y-89866614D01*
X66227962Y-89732038D01*
X66093386Y-89621595D01*
X65939850Y-89539528D01*
X65773254Y-89488992D01*
X65600000Y-89471928D01*
X64400000Y-89471928D01*
X64226746Y-89488992D01*
X64060150Y-89539528D01*
X63906614Y-89621595D01*
X63772038Y-89732038D01*
X63661595Y-89866614D01*
X63607223Y-89968337D01*
X63555134Y-89904866D01*
X63329014Y-89719294D01*
X63071034Y-89581401D01*
X62791111Y-89496487D01*
X62500000Y-89467815D01*
X62208890Y-89496487D01*
X61928967Y-89581401D01*
X61670987Y-89719294D01*
X61444866Y-89904866D01*
X61259294Y-90130986D01*
X61121401Y-90388966D01*
X61036487Y-90668889D01*
X61015000Y-90887050D01*
X39660000Y-90887050D01*
X39660000Y-85967582D01*
X93840000Y-85967582D01*
X93840001Y-88032419D01*
X93843247Y-88065377D01*
X93843247Y-88078367D01*
X93844210Y-88087532D01*
X93865965Y-88281481D01*
X93878397Y-88339966D01*
X93890022Y-88398676D01*
X93892747Y-88407479D01*
X93951760Y-88593509D01*
X93975338Y-88648519D01*
X93998120Y-88703794D01*
X94002503Y-88711900D01*
X94096525Y-88882925D01*
X94130308Y-88932264D01*
X94163423Y-88982106D01*
X94169297Y-88989206D01*
X94294747Y-89138712D01*
X94337477Y-89180557D01*
X94379638Y-89223013D01*
X94386780Y-89228837D01*
X94538879Y-89351128D01*
X94588941Y-89383887D01*
X94638523Y-89417331D01*
X94646660Y-89421657D01*
X94646663Y-89421659D01*
X94646667Y-89421660D01*
X94819615Y-89512077D01*
X94875053Y-89534475D01*
X94930228Y-89557669D01*
X94939050Y-89560332D01*
X95126275Y-89615435D01*
X95184983Y-89626633D01*
X95243628Y-89638672D01*
X95252799Y-89639570D01*
X95447161Y-89657259D01*
X95506943Y-89656842D01*
X95566801Y-89657260D01*
X95575972Y-89656360D01*
X95770069Y-89635959D01*
X95828658Y-89623932D01*
X95887423Y-89612723D01*
X95896245Y-89610059D01*
X96082683Y-89552347D01*
X96137838Y-89529162D01*
X96193291Y-89506758D01*
X96201427Y-89502432D01*
X96373104Y-89409607D01*
X96422699Y-89376154D01*
X96472753Y-89343400D01*
X96479894Y-89337576D01*
X96630272Y-89213172D01*
X96672411Y-89170737D01*
X96715161Y-89128874D01*
X96721034Y-89121773D01*
X96844384Y-88970531D01*
X96877477Y-88920723D01*
X96911284Y-88871349D01*
X96915667Y-88863243D01*
X97007292Y-88690920D01*
X97030090Y-88635608D01*
X97053652Y-88580634D01*
X97056377Y-88571831D01*
X97112786Y-88384994D01*
X97124405Y-88326314D01*
X97136842Y-88267804D01*
X97137805Y-88258639D01*
X97156850Y-88064406D01*
X97156850Y-88064402D01*
X97160000Y-88032419D01*
X97160000Y-85967581D01*
X97156753Y-85934613D01*
X97156753Y-85921633D01*
X97155790Y-85912468D01*
X97134035Y-85718518D01*
X97121600Y-85660019D01*
X97109978Y-85601325D01*
X97107253Y-85592522D01*
X97048240Y-85406491D01*
X97024674Y-85351509D01*
X97001880Y-85296206D01*
X96997497Y-85288100D01*
X96903475Y-85117075D01*
X96869702Y-85067752D01*
X96836577Y-85017894D01*
X96830703Y-85010794D01*
X96705253Y-84861288D01*
X96662523Y-84819443D01*
X96620362Y-84776987D01*
X96613220Y-84771163D01*
X96461120Y-84648872D01*
X96411061Y-84616114D01*
X96361477Y-84582669D01*
X96353340Y-84578343D01*
X96353337Y-84578341D01*
X96353333Y-84578340D01*
X96180384Y-84487923D01*
X96124972Y-84465535D01*
X96069772Y-84442331D01*
X96060950Y-84439668D01*
X95873724Y-84384565D01*
X95814986Y-84373360D01*
X95756372Y-84361328D01*
X95747200Y-84360429D01*
X95552839Y-84342741D01*
X95493057Y-84343158D01*
X95433199Y-84342740D01*
X95424028Y-84343640D01*
X95229931Y-84364041D01*
X95171348Y-84376066D01*
X95112577Y-84387277D01*
X95103755Y-84389941D01*
X94917317Y-84447653D01*
X94862162Y-84470838D01*
X94806709Y-84493242D01*
X94798573Y-84497568D01*
X94626896Y-84590393D01*
X94577278Y-84623861D01*
X94527247Y-84656600D01*
X94520106Y-84662424D01*
X94369728Y-84786828D01*
X94327589Y-84829263D01*
X94284839Y-84871126D01*
X94278966Y-84878227D01*
X94155616Y-85029469D01*
X94122534Y-85079262D01*
X94088716Y-85128651D01*
X94084333Y-85136757D01*
X93992708Y-85309079D01*
X93969909Y-85364394D01*
X93946348Y-85419366D01*
X93943623Y-85428169D01*
X93887214Y-85615005D01*
X93875594Y-85673693D01*
X93863158Y-85732196D01*
X93862195Y-85741361D01*
X93843150Y-85935595D01*
X93840000Y-85967582D01*
X39660000Y-85967582D01*
X39660000Y-83532279D01*
X39688625Y-83240341D01*
X39764035Y-82990571D01*
X39886522Y-82760208D01*
X40051422Y-82558020D01*
X40252450Y-82391714D01*
X40481954Y-82267622D01*
X40731195Y-82190469D01*
X41021088Y-82160000D01*
X97340000Y-82160000D01*
X97340001Y-90032419D01*
%TA.AperFunction,Conductor*%
D19*
G36*
X97340001Y-90032419D02*
G01*
X97343345Y-90066372D01*
X97343345Y-90092329D01*
X97344308Y-90101494D01*
X97387818Y-90489393D01*
X97400249Y-90547873D01*
X97411873Y-90606583D01*
X97414599Y-90615386D01*
X97532623Y-90987447D01*
X97556189Y-91042430D01*
X97578984Y-91097736D01*
X97583367Y-91105842D01*
X97771411Y-91447892D01*
X97805188Y-91497221D01*
X97838309Y-91547074D01*
X97844184Y-91554174D01*
X98095084Y-91853185D01*
X98137814Y-91895029D01*
X98179973Y-91937484D01*
X98187114Y-91943308D01*
X98491316Y-92187892D01*
X98541361Y-92220640D01*
X98590962Y-92254097D01*
X98599099Y-92258423D01*
X98945011Y-92439262D01*
X99000460Y-92461665D01*
X99055619Y-92484852D01*
X99064441Y-92487515D01*
X99438891Y-92597722D01*
X99497621Y-92608925D01*
X99556250Y-92620960D01*
X99565421Y-92621859D01*
X99954147Y-92657235D01*
X100013964Y-92656817D01*
X100073781Y-92657235D01*
X100082952Y-92656335D01*
X100082954Y-92656335D01*
X100471145Y-92615534D01*
X100529708Y-92603513D01*
X100588501Y-92592298D01*
X100597323Y-92589634D01*
X100970198Y-92474210D01*
X101025353Y-92451025D01*
X101080806Y-92428621D01*
X101088943Y-92424294D01*
X101432298Y-92238643D01*
X101481849Y-92205220D01*
X101531946Y-92172438D01*
X101539087Y-92166613D01*
X101839841Y-91917806D01*
X101881981Y-91875371D01*
X101924730Y-91833508D01*
X101930604Y-91826408D01*
X102177305Y-91523923D01*
X102210409Y-91474096D01*
X102244204Y-91424741D01*
X102248587Y-91416635D01*
X102431837Y-91071993D01*
X102454631Y-91016689D01*
X102478198Y-90961705D01*
X102480923Y-90952902D01*
X102593741Y-90579230D01*
X102605361Y-90520542D01*
X102617797Y-90462039D01*
X102618760Y-90452874D01*
X102656850Y-90064405D01*
X102656850Y-90064402D01*
X102660000Y-90032419D01*
X102660000Y-85967582D01*
X102840000Y-85967582D01*
X102840001Y-88032419D01*
X102843247Y-88065377D01*
X102843247Y-88078367D01*
X102844210Y-88087532D01*
X102865965Y-88281481D01*
X102878397Y-88339966D01*
X102890022Y-88398676D01*
X102892747Y-88407479D01*
X102951760Y-88593509D01*
X102975338Y-88648519D01*
X102998120Y-88703794D01*
X103002503Y-88711900D01*
X103096525Y-88882925D01*
X103130308Y-88932264D01*
X103163423Y-88982106D01*
X103169297Y-88989206D01*
X103294747Y-89138712D01*
X103337477Y-89180557D01*
X103379638Y-89223013D01*
X103386780Y-89228837D01*
X103538879Y-89351128D01*
X103588941Y-89383887D01*
X103638523Y-89417331D01*
X103646660Y-89421657D01*
X103646663Y-89421659D01*
X103646667Y-89421660D01*
X103819615Y-89512077D01*
X103875053Y-89534475D01*
X103930228Y-89557669D01*
X103939050Y-89560332D01*
X104126275Y-89615435D01*
X104184983Y-89626633D01*
X104243628Y-89638672D01*
X104252799Y-89639570D01*
X104447161Y-89657259D01*
X104506943Y-89656842D01*
X104566801Y-89657260D01*
X104575972Y-89656360D01*
X104770069Y-89635959D01*
X104828658Y-89623932D01*
X104887423Y-89612723D01*
X104896245Y-89610059D01*
X105082683Y-89552347D01*
X105137838Y-89529162D01*
X105193291Y-89506758D01*
X105201427Y-89502432D01*
X105373104Y-89409607D01*
X105422699Y-89376154D01*
X105472753Y-89343400D01*
X105479894Y-89337576D01*
X105630272Y-89213172D01*
X105672411Y-89170737D01*
X105715161Y-89128874D01*
X105721034Y-89121773D01*
X105844384Y-88970531D01*
X105877477Y-88920723D01*
X105911284Y-88871349D01*
X105915667Y-88863243D01*
X106007292Y-88690920D01*
X106030090Y-88635608D01*
X106053652Y-88580634D01*
X106056377Y-88571831D01*
X106112786Y-88384994D01*
X106124405Y-88326314D01*
X106136842Y-88267804D01*
X106137805Y-88258639D01*
X106156850Y-88064406D01*
X106156850Y-88064402D01*
X106160000Y-88032419D01*
X106160000Y-85967581D01*
X106156753Y-85934613D01*
X106156753Y-85921633D01*
X106155790Y-85912468D01*
X106134035Y-85718518D01*
X106121600Y-85660019D01*
X106109978Y-85601325D01*
X106107253Y-85592522D01*
X106048240Y-85406491D01*
X106024674Y-85351509D01*
X106001880Y-85296206D01*
X105997497Y-85288100D01*
X105903475Y-85117075D01*
X105869702Y-85067752D01*
X105836577Y-85017894D01*
X105830703Y-85010794D01*
X105705253Y-84861288D01*
X105662523Y-84819443D01*
X105620362Y-84776987D01*
X105613220Y-84771163D01*
X105461120Y-84648872D01*
X105411061Y-84616114D01*
X105361477Y-84582669D01*
X105353340Y-84578343D01*
X105353337Y-84578341D01*
X105353333Y-84578340D01*
X105180384Y-84487923D01*
X105124972Y-84465535D01*
X105069772Y-84442331D01*
X105060950Y-84439668D01*
X104873724Y-84384565D01*
X104814986Y-84373360D01*
X104756372Y-84361328D01*
X104747200Y-84360429D01*
X104552839Y-84342741D01*
X104493057Y-84343158D01*
X104433199Y-84342740D01*
X104424028Y-84343640D01*
X104229931Y-84364041D01*
X104171348Y-84376066D01*
X104112577Y-84387277D01*
X104103755Y-84389941D01*
X103917317Y-84447653D01*
X103862162Y-84470838D01*
X103806709Y-84493242D01*
X103798573Y-84497568D01*
X103626896Y-84590393D01*
X103577278Y-84623861D01*
X103527247Y-84656600D01*
X103520106Y-84662424D01*
X103369728Y-84786828D01*
X103327589Y-84829263D01*
X103284839Y-84871126D01*
X103278966Y-84878227D01*
X103155616Y-85029469D01*
X103122534Y-85079262D01*
X103088716Y-85128651D01*
X103084333Y-85136757D01*
X102992708Y-85309079D01*
X102969909Y-85364394D01*
X102946348Y-85419366D01*
X102943623Y-85428169D01*
X102887214Y-85615005D01*
X102875594Y-85673693D01*
X102863158Y-85732196D01*
X102862195Y-85741361D01*
X102843150Y-85935595D01*
X102840000Y-85967582D01*
X102660000Y-85967582D01*
X102660000Y-82160000D01*
X158967721Y-82160000D01*
X159259659Y-82188625D01*
X159509429Y-82264035D01*
X159739792Y-82386522D01*
X159941980Y-82551422D01*
X160108286Y-82752450D01*
X160232378Y-82981954D01*
X160309531Y-83231195D01*
X160340001Y-83521098D01*
X160340000Y-98217721D01*
X160311375Y-98509660D01*
X160235965Y-98759429D01*
X160113477Y-98989794D01*
X159948579Y-99191979D01*
X159747546Y-99358288D01*
X159518046Y-99482378D01*
X159268805Y-99559531D01*
X158978911Y-99590000D01*
X157967581Y-99590000D01*
X157933862Y-99593321D01*
X157911161Y-99593321D01*
X157901996Y-99594284D01*
X157562586Y-99632355D01*
X157504089Y-99644789D01*
X157445395Y-99656411D01*
X157436592Y-99659136D01*
X157111039Y-99762407D01*
X157056092Y-99785958D01*
X157000751Y-99808767D01*
X156992645Y-99813150D01*
X156693351Y-99977688D01*
X156643979Y-100011494D01*
X156594168Y-100044588D01*
X156587068Y-100050462D01*
X156325433Y-100270000D01*
X156283589Y-100312730D01*
X156241135Y-100354888D01*
X156235310Y-100362030D01*
X156021300Y-100628205D01*
X155988547Y-100678257D01*
X155955094Y-100727852D01*
X155950771Y-100735984D01*
X155950768Y-100735988D01*
X155950768Y-100735989D01*
X155792534Y-101038663D01*
X155770138Y-101094095D01*
X155746944Y-101149271D01*
X155744281Y-101158093D01*
X155647850Y-101485738D01*
X155636652Y-101544439D01*
X155624612Y-101603095D01*
X155623713Y-101612266D01*
X155592759Y-101952401D01*
X155593177Y-102012217D01*
X155592759Y-102072033D01*
X155593658Y-102081205D01*
X155629358Y-102420874D01*
X155641390Y-102479486D01*
X155652595Y-102538231D01*
X155655259Y-102547053D01*
X155756255Y-102873319D01*
X155779435Y-102928462D01*
X155801844Y-102983927D01*
X155806171Y-102992064D01*
X155968616Y-103292500D01*
X156002061Y-103342084D01*
X156034821Y-103392147D01*
X156040646Y-103399288D01*
X156258351Y-103662449D01*
X156300823Y-103704626D01*
X156342651Y-103747339D01*
X156349751Y-103753213D01*
X156614426Y-103969076D01*
X156664250Y-104002179D01*
X156713606Y-104035974D01*
X156721713Y-104040357D01*
X157023274Y-104200701D01*
X157078580Y-104223496D01*
X157133563Y-104247062D01*
X157142366Y-104249787D01*
X157469329Y-104348503D01*
X157528000Y-104360120D01*
X157586521Y-104372559D01*
X157595686Y-104373522D01*
X157935596Y-104406850D01*
X157935598Y-104406850D01*
X157967581Y-104410000D01*
X158967721Y-104410000D01*
X159259659Y-104438625D01*
X159509429Y-104514035D01*
X159739792Y-104636522D01*
X159941980Y-104801422D01*
X160108286Y-105002450D01*
X160232378Y-105231954D01*
X160309531Y-105481195D01*
X160340001Y-105771098D01*
X160340000Y-116467721D01*
X160311375Y-116759660D01*
X160235965Y-117009429D01*
X160113477Y-117239794D01*
X159948579Y-117441979D01*
X159747546Y-117608288D01*
X159518046Y-117732378D01*
X159268805Y-117809531D01*
X158978911Y-117840000D01*
X156032279Y-117840000D01*
X155740340Y-117811375D01*
X155490571Y-117735965D01*
X155260206Y-117613477D01*
X155058021Y-117448579D01*
X154891712Y-117247546D01*
X154767622Y-117018046D01*
X154690469Y-116768805D01*
X154660000Y-116478911D01*
X154660000Y-115467581D01*
X154657148Y-115438627D01*
X154657235Y-115426219D01*
X154656335Y-115417047D01*
X154615534Y-115028855D01*
X154603514Y-114970299D01*
X154592298Y-114911498D01*
X154589634Y-114902677D01*
X154474210Y-114529802D01*
X154451025Y-114474647D01*
X154428621Y-114419194D01*
X154424294Y-114411058D01*
X154424294Y-114411057D01*
X154424291Y-114411053D01*
X154238643Y-114067702D01*
X154205187Y-114018101D01*
X154172437Y-113968054D01*
X154166613Y-113960913D01*
X153917806Y-113660158D01*
X153875371Y-113618019D01*
X153833508Y-113575269D01*
X153826407Y-113569396D01*
X153523923Y-113322695D01*
X153474107Y-113289598D01*
X153424741Y-113255795D01*
X153416635Y-113251413D01*
X153071993Y-113068163D01*
X153016687Y-113045368D01*
X152961704Y-113021802D01*
X152952901Y-113019077D01*
X152579230Y-112906259D01*
X152520542Y-112894639D01*
X152462039Y-112882203D01*
X152452874Y-112881240D01*
X152064405Y-112843150D01*
X152064402Y-112843150D01*
X152032419Y-112840000D01*
X148967581Y-112840000D01*
X148938627Y-112842852D01*
X148926219Y-112842765D01*
X148917047Y-112843665D01*
X148528855Y-112884466D01*
X148470299Y-112896486D01*
X148411498Y-112907702D01*
X148402677Y-112910366D01*
X148029802Y-113025790D01*
X147974647Y-113048975D01*
X147919194Y-113071379D01*
X147911062Y-113075704D01*
X147911057Y-113075706D01*
X147911053Y-113075709D01*
X147567702Y-113261357D01*
X147518101Y-113294813D01*
X147468054Y-113327563D01*
X147460913Y-113333387D01*
X147160158Y-113582194D01*
X147118019Y-113624629D01*
X147075269Y-113666492D01*
X147069396Y-113673593D01*
X146822695Y-113976077D01*
X146789598Y-114025893D01*
X146755795Y-114075259D01*
X146751413Y-114083365D01*
X146568163Y-114428007D01*
X146545368Y-114483313D01*
X146521802Y-114538296D01*
X146519077Y-114547099D01*
X146406259Y-114920770D01*
X146394639Y-114979458D01*
X146382203Y-115037961D01*
X146381240Y-115047126D01*
X146343150Y-115435595D01*
X146340000Y-115467582D01*
X146340001Y-116467711D01*
X146311375Y-116759660D01*
X146235965Y-117009429D01*
X146113477Y-117239794D01*
X145948579Y-117441979D01*
X145747546Y-117608288D01*
X145518046Y-117732378D01*
X145268805Y-117809531D01*
X144978911Y-117840000D01*
X41032279Y-117840000D01*
X40740340Y-117811375D01*
X40490571Y-117735965D01*
X40260206Y-117613477D01*
X40058021Y-117448579D01*
X39891712Y-117247546D01*
X39767622Y-117018046D01*
X39690469Y-116768805D01*
X39660000Y-116478911D01*
X39660000Y-105782279D01*
X39688625Y-105490341D01*
X39764035Y-105240571D01*
X39886522Y-105010208D01*
X40051422Y-104808020D01*
X40252450Y-104641714D01*
X40481954Y-104517622D01*
X40731195Y-104440469D01*
X41021088Y-104410000D01*
X42032419Y-104410000D01*
X42066138Y-104406679D01*
X42088839Y-104406679D01*
X42098003Y-104405716D01*
X42437414Y-104367645D01*
X42495917Y-104355209D01*
X42554605Y-104343589D01*
X42563408Y-104340864D01*
X42888961Y-104237593D01*
X42943908Y-104214042D01*
X42999249Y-104191233D01*
X43007355Y-104186850D01*
X43306649Y-104022312D01*
X43356005Y-103988517D01*
X43405832Y-103955412D01*
X43412932Y-103949538D01*
X43674567Y-103730000D01*
X43716411Y-103687270D01*
X43758865Y-103645112D01*
X43764689Y-103637970D01*
X43978700Y-103371796D01*
X44011450Y-103321749D01*
X44044906Y-103272148D01*
X44049232Y-103264011D01*
X44207466Y-102961337D01*
X44229862Y-102905905D01*
X44253056Y-102850729D01*
X44255719Y-102841907D01*
X44352150Y-102514262D01*
X44363349Y-102455554D01*
X44375388Y-102396905D01*
X44376287Y-102387733D01*
X44407241Y-102047599D01*
X44406823Y-101987783D01*
X44407241Y-101927967D01*
X44406342Y-101918796D01*
X44370642Y-101579126D01*
X44358610Y-101520514D01*
X44347405Y-101461769D01*
X44344741Y-101452947D01*
X44243745Y-101126681D01*
X44220565Y-101071538D01*
X44198156Y-101016073D01*
X44193829Y-101007936D01*
X44031384Y-100707500D01*
X43997939Y-100657916D01*
X43965179Y-100607853D01*
X43959354Y-100600712D01*
X43741648Y-100337551D01*
X43699212Y-100295410D01*
X43657349Y-100252661D01*
X43650248Y-100246787D01*
X43592882Y-100200000D01*
X50510719Y-100200000D01*
X50515001Y-100243479D01*
X50515000Y-108956531D01*
X50510719Y-109000000D01*
X50515000Y-109043469D01*
X50515000Y-109043476D01*
X50527805Y-109173489D01*
X50578411Y-109340312D01*
X50660589Y-109494058D01*
X50771183Y-109628817D01*
X50804956Y-109656534D01*
X54343470Y-113195049D01*
X54371183Y-113228817D01*
X54404951Y-113256530D01*
X54404953Y-113256532D01*
X54463808Y-113304833D01*
X54505941Y-113339411D01*
X54659687Y-113421589D01*
X54826510Y-113472195D01*
X54956523Y-113485000D01*
X54956531Y-113485000D01*
X55000000Y-113489281D01*
X55043469Y-113485000D01*
X93156531Y-113485000D01*
X93200000Y-113489281D01*
X93243469Y-113485000D01*
X93243477Y-113485000D01*
X93373490Y-113472195D01*
X93540313Y-113421589D01*
X93694059Y-113339411D01*
X93828817Y-113228817D01*
X93856534Y-113195044D01*
X94801579Y-112249999D01*
X97761928Y-112249999D01*
X97761928Y-113150001D01*
X97778992Y-113323255D01*
X97829528Y-113489851D01*
X97911595Y-113643387D01*
X98022038Y-113777962D01*
X98115000Y-113854254D01*
X98115000Y-114356531D01*
X98110719Y-114400000D01*
X98115000Y-114443469D01*
X98115000Y-114443476D01*
X98122054Y-114515098D01*
X98127805Y-114573490D01*
X98131716Y-114586381D01*
X98178411Y-114740312D01*
X98260589Y-114894058D01*
X98371183Y-115028817D01*
X98404956Y-115056534D01*
X98943470Y-115595049D01*
X98971183Y-115628817D01*
X99004951Y-115656530D01*
X99004953Y-115656532D01*
X99034268Y-115680590D01*
X99105941Y-115739411D01*
X99259687Y-115821589D01*
X99426510Y-115872195D01*
X99556523Y-115885000D01*
X99556533Y-115885000D01*
X99599999Y-115889281D01*
X99643465Y-115885000D01*
X133956531Y-115885000D01*
X134000000Y-115889281D01*
X134043469Y-115885000D01*
X134043477Y-115885000D01*
X134173490Y-115872195D01*
X134340313Y-115821589D01*
X134494059Y-115739411D01*
X134628817Y-115628817D01*
X134656534Y-115595044D01*
X137095049Y-113156530D01*
X137128817Y-113128817D01*
X137157343Y-113094059D01*
X137239411Y-112994059D01*
X137260104Y-112955344D01*
X137321589Y-112840313D01*
X137372195Y-112673490D01*
X137385000Y-112543477D01*
X137385000Y-112543469D01*
X137389281Y-112500000D01*
X137385000Y-112456531D01*
X137385000Y-110587110D01*
X137439850Y-110570472D01*
X137593386Y-110488405D01*
X137727962Y-110377962D01*
X137838405Y-110243386D01*
X137920472Y-110089850D01*
X137971008Y-109923254D01*
X137988072Y-109750000D01*
X137988072Y-108250000D01*
X137971008Y-108076746D01*
X137920472Y-107910150D01*
X137838405Y-107756614D01*
X137727962Y-107622038D01*
X137593386Y-107511595D01*
X137439850Y-107429528D01*
X137273254Y-107378992D01*
X137100000Y-107361928D01*
X135900000Y-107361928D01*
X135726746Y-107378992D01*
X135560150Y-107429528D01*
X135406614Y-107511595D01*
X135272038Y-107622038D01*
X135161595Y-107756614D01*
X135107223Y-107858337D01*
X135055134Y-107794866D01*
X134829014Y-107609294D01*
X134571034Y-107471401D01*
X134291111Y-107386487D01*
X134000000Y-107357815D01*
X133708890Y-107386487D01*
X133428967Y-107471401D01*
X133170987Y-107609294D01*
X132944866Y-107794866D01*
X132759294Y-108020986D01*
X132621401Y-108278966D01*
X132536487Y-108558889D01*
X132515000Y-108777050D01*
X132515000Y-109222949D01*
X132536487Y-109441110D01*
X132621401Y-109721033D01*
X132759294Y-109979013D01*
X132944866Y-110205134D01*
X133115000Y-110344760D01*
X133115001Y-111433420D01*
X131133432Y-113414990D01*
X102666569Y-113414990D01*
X102238072Y-112986494D01*
X102238072Y-112249999D01*
X102221008Y-112076745D01*
X102170472Y-111910149D01*
X102088405Y-111756613D01*
X101977962Y-111622038D01*
X101843387Y-111511595D01*
X101689851Y-111429528D01*
X101523255Y-111378992D01*
X101350001Y-111361928D01*
X100649999Y-111361928D01*
X100476745Y-111378992D01*
X100310149Y-111429528D01*
X100156613Y-111511595D01*
X100022038Y-111622038D01*
X100000000Y-111648891D01*
X99977962Y-111622038D01*
X99843387Y-111511595D01*
X99689851Y-111429528D01*
X99523255Y-111378992D01*
X99350001Y-111361928D01*
X98649999Y-111361928D01*
X98476745Y-111378992D01*
X98310149Y-111429528D01*
X98156613Y-111511595D01*
X98022038Y-111622038D01*
X97911595Y-111756613D01*
X97829528Y-111910149D01*
X97778992Y-112076745D01*
X97761928Y-112249999D01*
X94801579Y-112249999D01*
X96566579Y-110485000D01*
X102433422Y-110485000D01*
X104743470Y-112795049D01*
X104771183Y-112828817D01*
X104804951Y-112856530D01*
X104804953Y-112856532D01*
X104867304Y-112907702D01*
X104905941Y-112939411D01*
X105059687Y-113021589D01*
X105226510Y-113072195D01*
X105356523Y-113085000D01*
X105356533Y-113085000D01*
X105399999Y-113089281D01*
X105443465Y-113085000D01*
X129156531Y-113085000D01*
X129200000Y-113089281D01*
X129243469Y-113085000D01*
X129243477Y-113085000D01*
X129373490Y-113072195D01*
X129540313Y-113021589D01*
X129694059Y-112939411D01*
X129828817Y-112828817D01*
X129856534Y-112795044D01*
X130995049Y-111656530D01*
X131028817Y-111628817D01*
X131076117Y-111571183D01*
X131139410Y-111494060D01*
X131139411Y-111494059D01*
X131221589Y-111340313D01*
X131272195Y-111173490D01*
X131285000Y-111043477D01*
X131285000Y-111043467D01*
X131289281Y-111000001D01*
X131285000Y-110956535D01*
X131285000Y-107166578D01*
X133816579Y-104635000D01*
X143437890Y-104635000D01*
X143454528Y-104689850D01*
X143536595Y-104843386D01*
X143647038Y-104977962D01*
X143781614Y-105088405D01*
X143935150Y-105170472D01*
X144101746Y-105221008D01*
X144275000Y-105238072D01*
X145725000Y-105238072D01*
X145898254Y-105221008D01*
X146064850Y-105170472D01*
X146218386Y-105088405D01*
X146352962Y-104977962D01*
X146463405Y-104843386D01*
X146545472Y-104689850D01*
X146596008Y-104523254D01*
X146613072Y-104350000D01*
X146613072Y-103150000D01*
X146596008Y-102976746D01*
X146545472Y-102810150D01*
X146463405Y-102656614D01*
X146352962Y-102522038D01*
X146218386Y-102411595D01*
X146116663Y-102357223D01*
X146180134Y-102305134D01*
X146365706Y-102079014D01*
X146503599Y-101821034D01*
X146588513Y-101541111D01*
X146617185Y-101250000D01*
X146588513Y-100958889D01*
X146503599Y-100678966D01*
X146365706Y-100420986D01*
X146180134Y-100194866D01*
X145954014Y-100009294D01*
X145928278Y-99995538D01*
X146134429Y-99839049D01*
X146327496Y-99621193D01*
X146474352Y-99369858D01*
X146566476Y-99106890D01*
X146445155Y-98877000D01*
X145127000Y-98877000D01*
X145127000Y-98897000D01*
X144873000Y-98897000D01*
X144873000Y-98877000D01*
X143554845Y-98877000D01*
X143433524Y-99106890D01*
X143525648Y-99369858D01*
X143672504Y-99621193D01*
X143865571Y-99839049D01*
X144071722Y-99995538D01*
X144045986Y-100009294D01*
X143819866Y-100194866D01*
X143680241Y-100365000D01*
X139616579Y-100365000D01*
X136885000Y-97633422D01*
X136885000Y-96250000D01*
X143382815Y-96250000D01*
X143411487Y-96541111D01*
X143496401Y-96821034D01*
X143634294Y-97079014D01*
X143819866Y-97305134D01*
X144045986Y-97490706D01*
X144071722Y-97504462D01*
X143865571Y-97660951D01*
X143672504Y-97878807D01*
X143525648Y-98130142D01*
X143433524Y-98393110D01*
X143554845Y-98623000D01*
X144873000Y-98623000D01*
X144873000Y-98603000D01*
X145127000Y-98603000D01*
X145127000Y-98623000D01*
X146445155Y-98623000D01*
X146566476Y-98393110D01*
X146474352Y-98130142D01*
X146327496Y-97878807D01*
X146134429Y-97660951D01*
X145928278Y-97504462D01*
X145954014Y-97490706D01*
X146180134Y-97305134D01*
X146365706Y-97079014D01*
X146503599Y-96821034D01*
X146588513Y-96541111D01*
X146617185Y-96250000D01*
X146588513Y-95958889D01*
X146503599Y-95678966D01*
X146365706Y-95420986D01*
X146180134Y-95194866D01*
X145954014Y-95009294D01*
X145696034Y-94871401D01*
X145416111Y-94786487D01*
X145197950Y-94765000D01*
X144802050Y-94765000D01*
X144583889Y-94786487D01*
X144303966Y-94871401D01*
X144045986Y-95009294D01*
X143819866Y-95194866D01*
X143634294Y-95420986D01*
X143496401Y-95678966D01*
X143411487Y-95958889D01*
X143382815Y-96250000D01*
X136885000Y-96250000D01*
X136885000Y-91562110D01*
X136939850Y-91545472D01*
X137093386Y-91463405D01*
X137227962Y-91352962D01*
X137338405Y-91218386D01*
X137420472Y-91064850D01*
X137471008Y-90898254D01*
X137488072Y-90725000D01*
X137488072Y-89275000D01*
X137471008Y-89101746D01*
X137420472Y-88935150D01*
X137338405Y-88781614D01*
X137227962Y-88647038D01*
X137093386Y-88536595D01*
X136939850Y-88454528D01*
X136773254Y-88403992D01*
X136600000Y-88386928D01*
X135400000Y-88386928D01*
X135226746Y-88403992D01*
X135060150Y-88454528D01*
X134906614Y-88536595D01*
X134772038Y-88647038D01*
X134661595Y-88781614D01*
X134605286Y-88886961D01*
X134589049Y-88865571D01*
X134371193Y-88672504D01*
X134119858Y-88525648D01*
X133856890Y-88433524D01*
X133627000Y-88554845D01*
X133627000Y-89873000D01*
X133647000Y-89873000D01*
X133647000Y-90127000D01*
X133627000Y-90127000D01*
X133627000Y-91445155D01*
X133856890Y-91566476D01*
X134119858Y-91474352D01*
X134371193Y-91327496D01*
X134589049Y-91134429D01*
X134605286Y-91113039D01*
X134661595Y-91218386D01*
X134772038Y-91352962D01*
X134906614Y-91463405D01*
X135060150Y-91545472D01*
X135115001Y-91562111D01*
X135115000Y-97956531D01*
X135110719Y-98000000D01*
X135115000Y-98043469D01*
X135115000Y-98043476D01*
X135123515Y-98129930D01*
X135127805Y-98173490D01*
X135140164Y-98214230D01*
X135178411Y-98340312D01*
X135260589Y-98494058D01*
X135371183Y-98628817D01*
X135404956Y-98656534D01*
X138593470Y-101845049D01*
X138621183Y-101878817D01*
X138654951Y-101906530D01*
X138654953Y-101906532D01*
X138712402Y-101953679D01*
X138755941Y-101989411D01*
X138909687Y-102071589D01*
X139076510Y-102122195D01*
X139206523Y-102135000D01*
X139206533Y-102135000D01*
X139249999Y-102139281D01*
X139293466Y-102135000D01*
X143680241Y-102135000D01*
X143819866Y-102305134D01*
X143883337Y-102357223D01*
X143781614Y-102411595D01*
X143647038Y-102522038D01*
X143536595Y-102656614D01*
X143454528Y-102810150D01*
X143437890Y-102865000D01*
X133493465Y-102865000D01*
X133449999Y-102860719D01*
X133406533Y-102865000D01*
X133406523Y-102865000D01*
X133276510Y-102877805D01*
X133109687Y-102928411D01*
X132955941Y-103010589D01*
X132955939Y-103010590D01*
X132955940Y-103010590D01*
X132854953Y-103093468D01*
X132854951Y-103093470D01*
X132821183Y-103121183D01*
X132793470Y-103154951D01*
X129804956Y-106143466D01*
X129771183Y-106171183D01*
X129660589Y-106305942D01*
X129578411Y-106459688D01*
X129527805Y-106626511D01*
X129515000Y-106756524D01*
X129515000Y-106756531D01*
X129510719Y-106800000D01*
X129515000Y-106843469D01*
X129515001Y-110633420D01*
X128833422Y-111315000D01*
X105766579Y-111315000D01*
X103456534Y-109004956D01*
X103428817Y-108971183D01*
X103294059Y-108860589D01*
X103140313Y-108778411D01*
X102973490Y-108727805D01*
X102843477Y-108715000D01*
X102843469Y-108715000D01*
X102800000Y-108710719D01*
X102756531Y-108715000D01*
X96243469Y-108715000D01*
X96200000Y-108710719D01*
X96156531Y-108715000D01*
X96156523Y-108715000D01*
X96026510Y-108727805D01*
X95859686Y-108778411D01*
X95705941Y-108860589D01*
X95604953Y-108943468D01*
X95604951Y-108943470D01*
X95571183Y-108971183D01*
X95543470Y-109004951D01*
X92833422Y-111715000D01*
X55366579Y-111715000D01*
X52343629Y-108692050D01*
X63443000Y-108692050D01*
X63443000Y-109087949D01*
X63464487Y-109306110D01*
X63549401Y-109586033D01*
X63687294Y-109844013D01*
X63872866Y-110070134D01*
X64098986Y-110255706D01*
X64356966Y-110393599D01*
X64636889Y-110478513D01*
X64928000Y-110507185D01*
X65219110Y-110478513D01*
X65499033Y-110393599D01*
X65757013Y-110255706D01*
X65983134Y-110070134D01*
X66168706Y-109844014D01*
X66182462Y-109818278D01*
X66338951Y-110024429D01*
X66556807Y-110217496D01*
X66808142Y-110364352D01*
X67071110Y-110456476D01*
X67301000Y-110335155D01*
X67301000Y-109017000D01*
X67281000Y-109017000D01*
X67281000Y-108763000D01*
X67301000Y-108763000D01*
X67301000Y-107444845D01*
X67555000Y-107444845D01*
X67555000Y-108763000D01*
X67575000Y-108763000D01*
X67575000Y-109017000D01*
X67555000Y-109017000D01*
X67555000Y-110335155D01*
X67784890Y-110456476D01*
X68047858Y-110364352D01*
X68299193Y-110217496D01*
X68517049Y-110024429D01*
X68533286Y-110003039D01*
X68589595Y-110108386D01*
X68700038Y-110242962D01*
X68834614Y-110353405D01*
X68988150Y-110435472D01*
X69154746Y-110486008D01*
X69328000Y-110503072D01*
X70528000Y-110503072D01*
X70701254Y-110486008D01*
X70867850Y-110435472D01*
X71021386Y-110353405D01*
X71155962Y-110242962D01*
X71266405Y-110108386D01*
X71348472Y-109954850D01*
X71399008Y-109788254D01*
X71416072Y-109615000D01*
X71416072Y-108165000D01*
X71399008Y-107991746D01*
X71348472Y-107825150D01*
X71266405Y-107671614D01*
X71155962Y-107537038D01*
X71021386Y-107426595D01*
X70867850Y-107344528D01*
X70701254Y-107293992D01*
X70528000Y-107276928D01*
X69328000Y-107276928D01*
X69154746Y-107293992D01*
X68988150Y-107344528D01*
X68834614Y-107426595D01*
X68700038Y-107537038D01*
X68589595Y-107671614D01*
X68533286Y-107776961D01*
X68517049Y-107755571D01*
X68299193Y-107562504D01*
X68047858Y-107415648D01*
X67784890Y-107323524D01*
X67555000Y-107444845D01*
X67301000Y-107444845D01*
X67071110Y-107323524D01*
X66808142Y-107415648D01*
X66556807Y-107562504D01*
X66338951Y-107755571D01*
X66182462Y-107961722D01*
X66168706Y-107935986D01*
X65983134Y-107709866D01*
X65757014Y-107524294D01*
X65499034Y-107386401D01*
X65219111Y-107301487D01*
X64928000Y-107272815D01*
X64636890Y-107301487D01*
X64356967Y-107386401D01*
X64098987Y-107524294D01*
X63872866Y-107709866D01*
X63687294Y-107935986D01*
X63549401Y-108193966D01*
X63464487Y-108473889D01*
X63443000Y-108692050D01*
X52343629Y-108692050D01*
X52285000Y-108633422D01*
X52285000Y-103750000D01*
X53382815Y-103750000D01*
X53411487Y-104041111D01*
X53496401Y-104321034D01*
X53634294Y-104579014D01*
X53819866Y-104805134D01*
X54045986Y-104990706D01*
X54303966Y-105128599D01*
X54583889Y-105213513D01*
X54802050Y-105235000D01*
X55197950Y-105235000D01*
X55416111Y-105213513D01*
X55696034Y-105128599D01*
X55954014Y-104990706D01*
X56180134Y-104805134D01*
X56365706Y-104579014D01*
X56503599Y-104321034D01*
X56588513Y-104041111D01*
X56617185Y-103750000D01*
X56588513Y-103458889D01*
X56503599Y-103178966D01*
X56365706Y-102920986D01*
X56180134Y-102694866D01*
X55954014Y-102509294D01*
X55928278Y-102495538D01*
X56134429Y-102339049D01*
X56327496Y-102121193D01*
X56474352Y-101869858D01*
X56566476Y-101606890D01*
X56445155Y-101377000D01*
X55127000Y-101377000D01*
X55127000Y-101397000D01*
X54873000Y-101397000D01*
X54873000Y-101377000D01*
X53554845Y-101377000D01*
X53433524Y-101606890D01*
X53525648Y-101869858D01*
X53672504Y-102121193D01*
X53865571Y-102339049D01*
X54071722Y-102495538D01*
X54045986Y-102509294D01*
X53819866Y-102694866D01*
X53634294Y-102920986D01*
X53496401Y-103178966D01*
X53411487Y-103458889D01*
X53382815Y-103750000D01*
X52285000Y-103750000D01*
X52285000Y-100566578D01*
X53216579Y-99635000D01*
X53680241Y-99635000D01*
X53819866Y-99805134D01*
X54045986Y-99990706D01*
X54071722Y-100004462D01*
X53865571Y-100160951D01*
X53672504Y-100378807D01*
X53525648Y-100630142D01*
X53433524Y-100893110D01*
X53554845Y-101123000D01*
X54873000Y-101123000D01*
X54873000Y-101103000D01*
X55127000Y-101103000D01*
X55127000Y-101123000D01*
X56445155Y-101123000D01*
X56566476Y-100893110D01*
X56474352Y-100630142D01*
X56327496Y-100378807D01*
X56134429Y-100160951D01*
X55928278Y-100004462D01*
X55954014Y-99990706D01*
X56180134Y-99805134D01*
X56365706Y-99579014D01*
X56503599Y-99321034D01*
X56588513Y-99041111D01*
X56617185Y-98750000D01*
X56588513Y-98458889D01*
X56503599Y-98178966D01*
X56365706Y-97920986D01*
X56180134Y-97694866D01*
X56116663Y-97642777D01*
X56218386Y-97588405D01*
X56352962Y-97477962D01*
X56463405Y-97343386D01*
X56545472Y-97189850D01*
X56596008Y-97023254D01*
X56613072Y-96850000D01*
X56613072Y-95650000D01*
X56596008Y-95476746D01*
X56545472Y-95310150D01*
X56463405Y-95156614D01*
X56352962Y-95022038D01*
X56218386Y-94911595D01*
X56064850Y-94829528D01*
X55898254Y-94778992D01*
X55725000Y-94761928D01*
X54275000Y-94761928D01*
X54101746Y-94778992D01*
X53935150Y-94829528D01*
X53781614Y-94911595D01*
X53647038Y-95022038D01*
X53536595Y-95156614D01*
X53454528Y-95310150D01*
X53403992Y-95476746D01*
X53386928Y-95650000D01*
X53386928Y-96850000D01*
X53403992Y-97023254D01*
X53454528Y-97189850D01*
X53536595Y-97343386D01*
X53647038Y-97477962D01*
X53781614Y-97588405D01*
X53883337Y-97642777D01*
X53819866Y-97694866D01*
X53680241Y-97865000D01*
X52893469Y-97865000D01*
X52850000Y-97860719D01*
X52806531Y-97865000D01*
X52806523Y-97865000D01*
X52676510Y-97877805D01*
X52509686Y-97928411D01*
X52355941Y-98010589D01*
X52254953Y-98093468D01*
X52254951Y-98093470D01*
X52221183Y-98121183D01*
X52193470Y-98154951D01*
X50804951Y-99543471D01*
X50771184Y-99571183D01*
X50743471Y-99604951D01*
X50743468Y-99604954D01*
X50660590Y-99705941D01*
X50578412Y-99859687D01*
X50527805Y-100026510D01*
X50510719Y-100200000D01*
X43592882Y-100200000D01*
X43385574Y-100030924D01*
X43335716Y-99997799D01*
X43286393Y-99964026D01*
X43278287Y-99959643D01*
X42976725Y-99799299D01*
X42921433Y-99776510D01*
X42866437Y-99752938D01*
X42857634Y-99750213D01*
X42530671Y-99651497D01*
X42472000Y-99639880D01*
X42413479Y-99627441D01*
X42404314Y-99626478D01*
X42064404Y-99593150D01*
X42064402Y-99593150D01*
X42032419Y-99590000D01*
X41032269Y-99590000D01*
X40740340Y-99561376D01*
X40490572Y-99485967D01*
X40260206Y-99363479D01*
X40058021Y-99198581D01*
X39891712Y-98997547D01*
X39767621Y-98768046D01*
X39690468Y-98518806D01*
X39660000Y-98228921D01*
X39660000Y-90887050D01*
X61015000Y-90887050D01*
X61015000Y-91332949D01*
X61036487Y-91551110D01*
X61121401Y-91831033D01*
X61259294Y-92089013D01*
X61444866Y-92315134D01*
X61670986Y-92500706D01*
X61928966Y-92638599D01*
X62208889Y-92723513D01*
X62500000Y-92752185D01*
X62791110Y-92723513D01*
X62845451Y-92707029D01*
X70683479Y-100545058D01*
X70711192Y-100578826D01*
X70744960Y-100606539D01*
X70744962Y-100606541D01*
X70845950Y-100689420D01*
X70999695Y-100771598D01*
X71133580Y-100812212D01*
X71166519Y-100822204D01*
X71296532Y-100835009D01*
X71296540Y-100835009D01*
X71340009Y-100839290D01*
X71383478Y-100835009D01*
X89673000Y-100835009D01*
X89673000Y-101084483D01*
X89668225Y-101096011D01*
X89615000Y-101363589D01*
X89615000Y-101636411D01*
X89668225Y-101903989D01*
X89673000Y-101915517D01*
X89673000Y-102600000D01*
X89675440Y-102624776D01*
X89682667Y-102648601D01*
X89694403Y-102670557D01*
X89710197Y-102689803D01*
X89729443Y-102705597D01*
X89751399Y-102717333D01*
X89775224Y-102724560D01*
X89800000Y-102727000D01*
X89865000Y-102727000D01*
X89865001Y-104029867D01*
X88779869Y-105115000D01*
X80225741Y-105115000D01*
X80169999Y-105109510D01*
X80114257Y-105115000D01*
X80114248Y-105115000D01*
X79947501Y-105131423D01*
X79733553Y-105196324D01*
X79536377Y-105301716D01*
X79363551Y-105443551D01*
X79328011Y-105486857D01*
X77752941Y-107061928D01*
X76120000Y-107061928D01*
X75995518Y-107074188D01*
X75875820Y-107110498D01*
X75765506Y-107169463D01*
X75668815Y-107248815D01*
X75589463Y-107345506D01*
X75530498Y-107455820D01*
X75494188Y-107575518D01*
X75481928Y-107700000D01*
X75481928Y-110300000D01*
X75494188Y-110424482D01*
X75530498Y-110544180D01*
X75589463Y-110654494D01*
X75668815Y-110751185D01*
X75765506Y-110830537D01*
X75875820Y-110889502D01*
X75995518Y-110925812D01*
X76120000Y-110938072D01*
X78720000Y-110938072D01*
X78844482Y-110925812D01*
X78964180Y-110889502D01*
X79074494Y-110830537D01*
X79171185Y-110751185D01*
X79250537Y-110654494D01*
X79309502Y-110544180D01*
X79345812Y-110424482D01*
X79358072Y-110300000D01*
X79358072Y-108667059D01*
X80640132Y-107385000D01*
X81434110Y-107385000D01*
X81266509Y-107496987D01*
X80996987Y-107766509D01*
X80785225Y-108083434D01*
X80639361Y-108435581D01*
X80565000Y-108809419D01*
X80565000Y-109190581D01*
X80639361Y-109564419D01*
X80785225Y-109916566D01*
X80996987Y-110233491D01*
X81266509Y-110503013D01*
X81583434Y-110714775D01*
X81935581Y-110860639D01*
X82309419Y-110935000D01*
X82690581Y-110935000D01*
X83064419Y-110860639D01*
X83416566Y-110714775D01*
X83733491Y-110503013D01*
X84003013Y-110233491D01*
X84068822Y-110135000D01*
X91444249Y-110135000D01*
X91500000Y-110140491D01*
X91555751Y-110135000D01*
X91555752Y-110135000D01*
X91722499Y-110118577D01*
X91936447Y-110053676D01*
X92133623Y-109948284D01*
X92306449Y-109806449D01*
X92341996Y-109763135D01*
X94763141Y-107341991D01*
X94806449Y-107306449D01*
X94948284Y-107133623D01*
X95053676Y-106936447D01*
X95118577Y-106722499D01*
X95135000Y-106555752D01*
X95135000Y-106555751D01*
X95140491Y-106500000D01*
X95135000Y-106444249D01*
X95135000Y-102727000D01*
X96343402Y-102727000D01*
X96343957Y-102727371D01*
X96596011Y-102831775D01*
X96863589Y-102885000D01*
X97136411Y-102885000D01*
X97403989Y-102831775D01*
X97656043Y-102727371D01*
X97656598Y-102727000D01*
X99343402Y-102727000D01*
X99343957Y-102727371D01*
X99596011Y-102831775D01*
X99759081Y-102864212D01*
X106548009Y-109653141D01*
X106583551Y-109696449D01*
X106756377Y-109838284D01*
X106953553Y-109943676D01*
X107117705Y-109993471D01*
X107167500Y-110008577D01*
X107188493Y-110010644D01*
X107334248Y-110025000D01*
X107334255Y-110025000D01*
X107389999Y-110030490D01*
X107445743Y-110025000D01*
X118407826Y-110025000D01*
X118444866Y-110070134D01*
X118670986Y-110255706D01*
X118928966Y-110393599D01*
X119208889Y-110478513D01*
X119500000Y-110507185D01*
X119791110Y-110478513D01*
X120071033Y-110393599D01*
X120329013Y-110255706D01*
X120555134Y-110070134D01*
X120740706Y-109844014D01*
X120750000Y-109826626D01*
X120759294Y-109844013D01*
X120944866Y-110070134D01*
X121170986Y-110255706D01*
X121428966Y-110393599D01*
X121708889Y-110478513D01*
X122000000Y-110507185D01*
X122291110Y-110478513D01*
X122571033Y-110393599D01*
X122829013Y-110255706D01*
X123055134Y-110070134D01*
X123240706Y-109844014D01*
X123250000Y-109826626D01*
X123259294Y-109844013D01*
X123444866Y-110070134D01*
X123670986Y-110255706D01*
X123928966Y-110393599D01*
X124208889Y-110478513D01*
X124500000Y-110507185D01*
X124791110Y-110478513D01*
X125071033Y-110393599D01*
X125329013Y-110255706D01*
X125555134Y-110070134D01*
X125607223Y-110006663D01*
X125661595Y-110108386D01*
X125772038Y-110242962D01*
X125906614Y-110353405D01*
X126060150Y-110435472D01*
X126226746Y-110486008D01*
X126400000Y-110503072D01*
X127600000Y-110503072D01*
X127773254Y-110486008D01*
X127939850Y-110435472D01*
X128093386Y-110353405D01*
X128227962Y-110242962D01*
X128338405Y-110108386D01*
X128420472Y-109954850D01*
X128471008Y-109788254D01*
X128488072Y-109615000D01*
X128488072Y-108165000D01*
X128471008Y-107991746D01*
X128420472Y-107825150D01*
X128338405Y-107671614D01*
X128227962Y-107537038D01*
X128135000Y-107460747D01*
X128135000Y-106055751D01*
X128140491Y-105999999D01*
X128118577Y-105777501D01*
X128053676Y-105563553D01*
X128042696Y-105543011D01*
X127948284Y-105366377D01*
X127806449Y-105193551D01*
X127763141Y-105158009D01*
X123341996Y-100736865D01*
X123306449Y-100693551D01*
X123133623Y-100551716D01*
X122936447Y-100446324D01*
X122722499Y-100381423D01*
X122555752Y-100365000D01*
X122555751Y-100365000D01*
X122500000Y-100359509D01*
X122444249Y-100365000D01*
X110327000Y-100365000D01*
X110327000Y-98915517D01*
X110331775Y-98903989D01*
X110385000Y-98636411D01*
X110385000Y-98366578D01*
X110900636Y-97850942D01*
X110908617Y-97891067D01*
X110994176Y-98097624D01*
X111118388Y-98283520D01*
X111276480Y-98441612D01*
X111462376Y-98565824D01*
X111668933Y-98651383D01*
X111888212Y-98695000D01*
X112111788Y-98695000D01*
X112331067Y-98651383D01*
X112537624Y-98565824D01*
X112723520Y-98441612D01*
X112881612Y-98283520D01*
X113005824Y-98097624D01*
X113091383Y-97891067D01*
X113135000Y-97671788D01*
X113135000Y-97448212D01*
X113091383Y-97228933D01*
X113005824Y-97022376D01*
X112881612Y-96836480D01*
X112723520Y-96678388D01*
X112537624Y-96554176D01*
X112331067Y-96468617D01*
X112290943Y-96460636D01*
X117866579Y-90885000D01*
X118709043Y-90885000D01*
X118759294Y-90979013D01*
X118944866Y-91205134D01*
X119170986Y-91390706D01*
X119428966Y-91528599D01*
X119708889Y-91613513D01*
X120000000Y-91642185D01*
X120291110Y-91613513D01*
X120571033Y-91528599D01*
X120829013Y-91390706D01*
X121055134Y-91205134D01*
X121107223Y-91141663D01*
X121161595Y-91243386D01*
X121272038Y-91377962D01*
X121406614Y-91488405D01*
X121560150Y-91570472D01*
X121726746Y-91621008D01*
X121900000Y-91638072D01*
X123100000Y-91638072D01*
X123273254Y-91621008D01*
X123439850Y-91570472D01*
X123593386Y-91488405D01*
X123727962Y-91377962D01*
X123838405Y-91243386D01*
X123920472Y-91089850D01*
X123971008Y-90923254D01*
X123988072Y-90750000D01*
X123988072Y-89802050D01*
X129515000Y-89802050D01*
X129515000Y-90197949D01*
X129536487Y-90416110D01*
X129621401Y-90696033D01*
X129759294Y-90954013D01*
X129944866Y-91180134D01*
X130170986Y-91365706D01*
X130428966Y-91503599D01*
X130708889Y-91588513D01*
X131000000Y-91617185D01*
X131291110Y-91588513D01*
X131571033Y-91503599D01*
X131829013Y-91365706D01*
X132055134Y-91180134D01*
X132240706Y-90954014D01*
X132254462Y-90928278D01*
X132410951Y-91134429D01*
X132628807Y-91327496D01*
X132880142Y-91474352D01*
X133143110Y-91566476D01*
X133373000Y-91445155D01*
X133373000Y-90127000D01*
X133353000Y-90127000D01*
X133353000Y-89873000D01*
X133373000Y-89873000D01*
X133373000Y-88554845D01*
X133143110Y-88433524D01*
X132880142Y-88525648D01*
X132628807Y-88672504D01*
X132410951Y-88865571D01*
X132254462Y-89071722D01*
X132240706Y-89045986D01*
X132055134Y-88819866D01*
X131829014Y-88634294D01*
X131571034Y-88496401D01*
X131291111Y-88411487D01*
X131000000Y-88382815D01*
X130708890Y-88411487D01*
X130428967Y-88496401D01*
X130170987Y-88634294D01*
X129944866Y-88819866D01*
X129759294Y-89045986D01*
X129621401Y-89303966D01*
X129536487Y-89583889D01*
X129515000Y-89802050D01*
X123988072Y-89802050D01*
X123988072Y-89250000D01*
X123971008Y-89076746D01*
X123920472Y-88910150D01*
X123838405Y-88756614D01*
X123727962Y-88622038D01*
X123593386Y-88511595D01*
X123439850Y-88429528D01*
X123273254Y-88378992D01*
X123100000Y-88361928D01*
X121900000Y-88361928D01*
X121726746Y-88378992D01*
X121560150Y-88429528D01*
X121406614Y-88511595D01*
X121272038Y-88622038D01*
X121161595Y-88756614D01*
X121107223Y-88858337D01*
X121055134Y-88794866D01*
X120829014Y-88609294D01*
X120571034Y-88471401D01*
X120291111Y-88386487D01*
X120000000Y-88357815D01*
X119708890Y-88386487D01*
X119428967Y-88471401D01*
X119170987Y-88609294D01*
X118944866Y-88794866D01*
X118759294Y-89020986D01*
X118709043Y-89115000D01*
X117543465Y-89115000D01*
X117499999Y-89110719D01*
X117456533Y-89115000D01*
X117456523Y-89115000D01*
X117326510Y-89127805D01*
X117159687Y-89178411D01*
X117005941Y-89260589D01*
X117005939Y-89260590D01*
X117005940Y-89260590D01*
X116904953Y-89343468D01*
X116904951Y-89343470D01*
X116871183Y-89371183D01*
X116843470Y-89404951D01*
X109175422Y-97073000D01*
X105824579Y-97073000D01*
X102556506Y-93804928D01*
X102528789Y-93771155D01*
X102394031Y-93660561D01*
X102240285Y-93578383D01*
X102073462Y-93527777D01*
X101943449Y-93514972D01*
X101943441Y-93514972D01*
X101899972Y-93510691D01*
X101856503Y-93514972D01*
X87656551Y-93514972D01*
X85488072Y-91346494D01*
X85488072Y-90360000D01*
X85471008Y-90186746D01*
X85420472Y-90020150D01*
X85338405Y-89866614D01*
X85227962Y-89732038D01*
X85093386Y-89621595D01*
X84939850Y-89539528D01*
X84773254Y-89488992D01*
X84600000Y-89471928D01*
X83400000Y-89471928D01*
X83226746Y-89488992D01*
X83060150Y-89539528D01*
X82906614Y-89621595D01*
X82772038Y-89732038D01*
X82661595Y-89866614D01*
X82607223Y-89968337D01*
X82555134Y-89904866D01*
X82329014Y-89719294D01*
X82071034Y-89581401D01*
X81791111Y-89496487D01*
X81500000Y-89467815D01*
X81208890Y-89496487D01*
X80928967Y-89581401D01*
X80670987Y-89719294D01*
X80444866Y-89904866D01*
X80259294Y-90130986D01*
X80121401Y-90388966D01*
X80036487Y-90668889D01*
X80015000Y-90887050D01*
X80015000Y-91332949D01*
X80036487Y-91551110D01*
X80121401Y-91831033D01*
X80259294Y-92089013D01*
X80444866Y-92315134D01*
X80670986Y-92500706D01*
X80928966Y-92638599D01*
X81208889Y-92723513D01*
X81500000Y-92752185D01*
X81791110Y-92723513D01*
X81845451Y-92707029D01*
X84053411Y-94914990D01*
X79556569Y-94914990D01*
X75988072Y-91346494D01*
X75988072Y-90360000D01*
X75971008Y-90186746D01*
X75920472Y-90020150D01*
X75838405Y-89866614D01*
X75727962Y-89732038D01*
X75593386Y-89621595D01*
X75439850Y-89539528D01*
X75273254Y-89488992D01*
X75100000Y-89471928D01*
X73900000Y-89471928D01*
X73726746Y-89488992D01*
X73560150Y-89539528D01*
X73406614Y-89621595D01*
X73272038Y-89732038D01*
X73161595Y-89866614D01*
X73107223Y-89968337D01*
X73055134Y-89904866D01*
X72829014Y-89719294D01*
X72571034Y-89581401D01*
X72291111Y-89496487D01*
X72000000Y-89467815D01*
X71708890Y-89496487D01*
X71428967Y-89581401D01*
X71170987Y-89719294D01*
X70944866Y-89904866D01*
X70759294Y-90130986D01*
X70621401Y-90388966D01*
X70536487Y-90668889D01*
X70515000Y-90887050D01*
X70515000Y-91332949D01*
X70536487Y-91551110D01*
X70621401Y-91831033D01*
X70759294Y-92089013D01*
X70944866Y-92315134D01*
X71170986Y-92500706D01*
X71428966Y-92638599D01*
X71708889Y-92723513D01*
X72000000Y-92752185D01*
X72291110Y-92723513D01*
X72345451Y-92707029D01*
X76733470Y-97095049D01*
X76761183Y-97128817D01*
X76794951Y-97156530D01*
X76794953Y-97156532D01*
X76821614Y-97178412D01*
X76895941Y-97239411D01*
X77049687Y-97321589D01*
X77216510Y-97372195D01*
X77346523Y-97385000D01*
X77346533Y-97385000D01*
X77389999Y-97389281D01*
X77433465Y-97385000D01*
X86877574Y-97385000D01*
X86865000Y-97448212D01*
X86865000Y-97671788D01*
X86908617Y-97891067D01*
X86994176Y-98097624D01*
X87118388Y-98283520D01*
X87199867Y-98364999D01*
X73506578Y-98364999D01*
X66488072Y-91346494D01*
X66488072Y-90360000D01*
X66471008Y-90186746D01*
X66420472Y-90020150D01*
X66338405Y-89866614D01*
X66227962Y-89732038D01*
X66093386Y-89621595D01*
X65939850Y-89539528D01*
X65773254Y-89488992D01*
X65600000Y-89471928D01*
X64400000Y-89471928D01*
X64226746Y-89488992D01*
X64060150Y-89539528D01*
X63906614Y-89621595D01*
X63772038Y-89732038D01*
X63661595Y-89866614D01*
X63607223Y-89968337D01*
X63555134Y-89904866D01*
X63329014Y-89719294D01*
X63071034Y-89581401D01*
X62791111Y-89496487D01*
X62500000Y-89467815D01*
X62208890Y-89496487D01*
X61928967Y-89581401D01*
X61670987Y-89719294D01*
X61444866Y-89904866D01*
X61259294Y-90130986D01*
X61121401Y-90388966D01*
X61036487Y-90668889D01*
X61015000Y-90887050D01*
X39660000Y-90887050D01*
X39660000Y-85967582D01*
X93840000Y-85967582D01*
X93840001Y-88032419D01*
X93843247Y-88065377D01*
X93843247Y-88078367D01*
X93844210Y-88087532D01*
X93865965Y-88281481D01*
X93878397Y-88339966D01*
X93890022Y-88398676D01*
X93892747Y-88407479D01*
X93951760Y-88593509D01*
X93975338Y-88648519D01*
X93998120Y-88703794D01*
X94002503Y-88711900D01*
X94096525Y-88882925D01*
X94130308Y-88932264D01*
X94163423Y-88982106D01*
X94169297Y-88989206D01*
X94294747Y-89138712D01*
X94337477Y-89180557D01*
X94379638Y-89223013D01*
X94386780Y-89228837D01*
X94538879Y-89351128D01*
X94588941Y-89383887D01*
X94638523Y-89417331D01*
X94646660Y-89421657D01*
X94646663Y-89421659D01*
X94646667Y-89421660D01*
X94819615Y-89512077D01*
X94875053Y-89534475D01*
X94930228Y-89557669D01*
X94939050Y-89560332D01*
X95126275Y-89615435D01*
X95184983Y-89626633D01*
X95243628Y-89638672D01*
X95252799Y-89639570D01*
X95447161Y-89657259D01*
X95506943Y-89656842D01*
X95566801Y-89657260D01*
X95575972Y-89656360D01*
X95770069Y-89635959D01*
X95828658Y-89623932D01*
X95887423Y-89612723D01*
X95896245Y-89610059D01*
X96082683Y-89552347D01*
X96137838Y-89529162D01*
X96193291Y-89506758D01*
X96201427Y-89502432D01*
X96373104Y-89409607D01*
X96422699Y-89376154D01*
X96472753Y-89343400D01*
X96479894Y-89337576D01*
X96630272Y-89213172D01*
X96672411Y-89170737D01*
X96715161Y-89128874D01*
X96721034Y-89121773D01*
X96844384Y-88970531D01*
X96877477Y-88920723D01*
X96911284Y-88871349D01*
X96915667Y-88863243D01*
X97007292Y-88690920D01*
X97030090Y-88635608D01*
X97053652Y-88580634D01*
X97056377Y-88571831D01*
X97112786Y-88384994D01*
X97124405Y-88326314D01*
X97136842Y-88267804D01*
X97137805Y-88258639D01*
X97156850Y-88064406D01*
X97156850Y-88064402D01*
X97160000Y-88032419D01*
X97160000Y-85967581D01*
X97156753Y-85934613D01*
X97156753Y-85921633D01*
X97155790Y-85912468D01*
X97134035Y-85718518D01*
X97121600Y-85660019D01*
X97109978Y-85601325D01*
X97107253Y-85592522D01*
X97048240Y-85406491D01*
X97024674Y-85351509D01*
X97001880Y-85296206D01*
X96997497Y-85288100D01*
X96903475Y-85117075D01*
X96869702Y-85067752D01*
X96836577Y-85017894D01*
X96830703Y-85010794D01*
X96705253Y-84861288D01*
X96662523Y-84819443D01*
X96620362Y-84776987D01*
X96613220Y-84771163D01*
X96461120Y-84648872D01*
X96411061Y-84616114D01*
X96361477Y-84582669D01*
X96353340Y-84578343D01*
X96353337Y-84578341D01*
X96353333Y-84578340D01*
X96180384Y-84487923D01*
X96124972Y-84465535D01*
X96069772Y-84442331D01*
X96060950Y-84439668D01*
X95873724Y-84384565D01*
X95814986Y-84373360D01*
X95756372Y-84361328D01*
X95747200Y-84360429D01*
X95552839Y-84342741D01*
X95493057Y-84343158D01*
X95433199Y-84342740D01*
X95424028Y-84343640D01*
X95229931Y-84364041D01*
X95171348Y-84376066D01*
X95112577Y-84387277D01*
X95103755Y-84389941D01*
X94917317Y-84447653D01*
X94862162Y-84470838D01*
X94806709Y-84493242D01*
X94798573Y-84497568D01*
X94626896Y-84590393D01*
X94577278Y-84623861D01*
X94527247Y-84656600D01*
X94520106Y-84662424D01*
X94369728Y-84786828D01*
X94327589Y-84829263D01*
X94284839Y-84871126D01*
X94278966Y-84878227D01*
X94155616Y-85029469D01*
X94122534Y-85079262D01*
X94088716Y-85128651D01*
X94084333Y-85136757D01*
X93992708Y-85309079D01*
X93969909Y-85364394D01*
X93946348Y-85419366D01*
X93943623Y-85428169D01*
X93887214Y-85615005D01*
X93875594Y-85673693D01*
X93863158Y-85732196D01*
X93862195Y-85741361D01*
X93843150Y-85935595D01*
X93840000Y-85967582D01*
X39660000Y-85967582D01*
X39660000Y-83532279D01*
X39688625Y-83240341D01*
X39764035Y-82990571D01*
X39886522Y-82760208D01*
X40051422Y-82558020D01*
X40252450Y-82391714D01*
X40481954Y-82267622D01*
X40731195Y-82190469D01*
X41021088Y-82160000D01*
X97340000Y-82160000D01*
X97340001Y-90032419D01*
G37*
%TD.AperFunction*%
%TD*%
M02*
