%TF.GenerationSoftware,KiCad,Pcbnew,(6.0.0)*%
%TF.CreationDate,2022-08-18T01:52:57-04:00*%
%TF.ProjectId,V0-UmbilicalBoard,56302d55-6d62-4696-9c69-63616c426f61,rev?*%
%TF.SameCoordinates,Original*%
%TF.FileFunction,Copper,L2,Bot*%
%TF.FilePolarity,Positive*%
%FSLAX46Y46*%
G04 Gerber Fmt 4.6, Leading zero omitted, Abs format (unit mm)*
G04 Created by KiCad (PCBNEW (6.0.0)) date 2022-08-18 01:52:57*
%MOMM*%
%LPD*%
G01*
G04 APERTURE LIST*
G04 Aperture macros list*
%AMRoundRect*
0 Rectangle with rounded corners*
0 $1 Rounding radius*
0 $2 $3 $4 $5 $6 $7 $8 $9 X,Y pos of 4 corners*
0 Add a 4 corners polygon primitive as box body*
4,1,4,$2,$3,$4,$5,$6,$7,$8,$9,$2,$3,0*
0 Add four circle primitives for the rounded corners*
1,1,$1+$1,$2,$3*
1,1,$1+$1,$4,$5*
1,1,$1+$1,$6,$7*
1,1,$1+$1,$8,$9*
0 Add four rect primitives between the rounded corners*
20,1,$1+$1,$2,$3,$4,$5,0*
20,1,$1+$1,$4,$5,$6,$7,0*
20,1,$1+$1,$6,$7,$8,$9,0*
20,1,$1+$1,$8,$9,$2,$3,0*%
G04 Aperture macros list end*
%TA.AperFunction,ComponentPad*%
%ADD10RoundRect,0.250000X0.500000X0.500000X-0.500000X0.500000X-0.500000X-0.500000X0.500000X-0.500000X0*%
%TD*%
%TA.AperFunction,ComponentPad*%
%ADD11C,1.500000*%
%TD*%
%TA.AperFunction,ComponentPad*%
%ADD12RoundRect,0.250000X0.600000X0.750000X-0.600000X0.750000X-0.600000X-0.750000X0.600000X-0.750000X0*%
%TD*%
%TA.AperFunction,ComponentPad*%
%ADD13O,1.700000X2.000000*%
%TD*%
%TA.AperFunction,ComponentPad*%
%ADD14RoundRect,0.250000X0.600000X0.725000X-0.600000X0.725000X-0.600000X-0.725000X0.600000X-0.725000X0*%
%TD*%
%TA.AperFunction,ComponentPad*%
%ADD15O,1.700000X1.950000*%
%TD*%
%TA.AperFunction,ComponentPad*%
%ADD16R,2.600000X2.600000*%
%TD*%
%TA.AperFunction,ComponentPad*%
%ADD17C,2.600000*%
%TD*%
%TA.AperFunction,ComponentPad*%
%ADD18RoundRect,0.250000X0.725000X-0.600000X0.725000X0.600000X-0.725000X0.600000X-0.725000X-0.600000X0*%
%TD*%
%TA.AperFunction,ComponentPad*%
%ADD19O,1.950000X1.700000*%
%TD*%
%TA.AperFunction,ComponentPad*%
%ADD20RoundRect,0.250000X-0.725000X0.600000X-0.725000X-0.600000X0.725000X-0.600000X0.725000X0.600000X0*%
%TD*%
%TA.AperFunction,SMDPad,CuDef*%
%ADD21RoundRect,0.250000X0.475000X-0.337500X0.475000X0.337500X-0.475000X0.337500X-0.475000X-0.337500X0*%
%TD*%
%TA.AperFunction,SMDPad,CuDef*%
%ADD22RoundRect,0.250000X0.337500X0.475000X-0.337500X0.475000X-0.337500X-0.475000X0.337500X-0.475000X0*%
%TD*%
%TA.AperFunction,SMDPad,CuDef*%
%ADD23RoundRect,0.250000X-0.475000X0.337500X-0.475000X-0.337500X0.475000X-0.337500X0.475000X0.337500X0*%
%TD*%
%TA.AperFunction,Conductor*%
%ADD24C,0.500000*%
%TD*%
G04 APERTURE END LIST*
D10*
%TO.P,J1,1,Pin_1*%
%TO.N,/A1*%
X109000000Y-101500000D03*
D11*
%TO.P,J1,2,Pin_2*%
%TO.N,/A2*%
X106000000Y-101500000D03*
%TO.P,J1,3,Pin_3*%
%TO.N,/B1*%
X103000000Y-101500000D03*
%TO.P,J1,4,Pin_4*%
%TO.N,/B2*%
X100000000Y-101500000D03*
%TO.P,J1,5,Pin_5*%
%TO.N,Net-(J1-Pad5)*%
X97000000Y-101500000D03*
%TO.P,J1,6,Pin_6*%
%TO.N,Net-(J1-Pad6)*%
X94000000Y-101500000D03*
%TO.P,J1,7,Pin_7*%
%TO.N,Net-(J1-Pad7)*%
X91000000Y-101500000D03*
%TO.P,J1,8,Pin_8*%
%TO.N,Net-(J1-Pad8)*%
X109000000Y-98500000D03*
%TO.P,J1,9,Pin_9*%
%TO.N,/PartFan+*%
X106000000Y-98500000D03*
%TO.P,J1,10,Pin_10*%
%TO.N,/PartFan-*%
X103000000Y-98500000D03*
%TO.P,J1,11,Pin_11*%
%TO.N,/Hotend_Fan-*%
X100000000Y-98500000D03*
%TO.P,J1,12,Pin_12*%
%TO.N,/Hotend_Fan+*%
X97000000Y-98500000D03*
%TO.P,J1,13,Pin_13*%
%TO.N,Net-(J1-Pad13)*%
X94000000Y-98500000D03*
%TO.P,J1,14,Pin_14*%
%TO.N,Net-(J1-Pad14)*%
X91000000Y-98500000D03*
%TD*%
D12*
%TO.P,J3,1,Pin_1*%
%TO.N,/Hotend_Fan-*%
X74500000Y-91110000D03*
D13*
%TO.P,J3,2,Pin_2*%
%TO.N,/Hotend_Fan+*%
X72000000Y-91110000D03*
%TD*%
D12*
%TO.P,J4,1,Pin_1*%
%TO.N,/PartFan+*%
X84000000Y-91110000D03*
D13*
%TO.P,J4,2,Pin_2*%
%TO.N,/PartFan-*%
X81500000Y-91110000D03*
%TD*%
D12*
%TO.P,J6,1,Pin_1*%
%TO.N,Net-(J1-Pad14)*%
X65000000Y-91110000D03*
D13*
%TO.P,J6,2,Pin_2*%
%TO.N,Net-(J1-Pad13)*%
X62500000Y-91110000D03*
%TD*%
D12*
%TO.P,J7,1,Pin_1*%
%TO.N,Net-(J1-Pad5)*%
X122500000Y-90000000D03*
D13*
%TO.P,J7,2,Pin_2*%
%TO.N,Net-(J1-Pad8)*%
X120000000Y-90000000D03*
%TD*%
D12*
%TO.P,J8,1,Pin_1*%
%TO.N,Net-(J8-Pad1)*%
X136500000Y-109000000D03*
D13*
%TO.P,J8,2,Pin_2*%
%TO.N,Net-(J8-Pad2)*%
X134000000Y-109000000D03*
%TD*%
D14*
%TO.P,J2,1,Pin_1*%
%TO.N,/A1*%
X127000000Y-108890000D03*
D15*
%TO.P,J2,2,Pin_2*%
%TO.N,/A2*%
X124500000Y-108890000D03*
%TO.P,J2,3,Pin_3*%
%TO.N,/B1*%
X122000000Y-108890000D03*
%TO.P,J2,4,Pin_4*%
%TO.N,/B2*%
X119500000Y-108890000D03*
%TD*%
D16*
%TO.P,J5,1,Pin_1*%
%TO.N,Net-(J1-Pad7)*%
X77420000Y-109000000D03*
D17*
%TO.P,J5,2,Pin_2*%
%TO.N,Net-(J1-Pad6)*%
X82500000Y-109000000D03*
%TD*%
D14*
%TO.P,J9,1,Pin_1*%
%TO.N,Data*%
X136000000Y-90000000D03*
D15*
%TO.P,J9,2,Pin_2*%
%TO.N,5V*%
X133500000Y-90000000D03*
%TO.P,J9,3,Pin_3*%
%TO.N,GND*%
X131000000Y-90000000D03*
%TD*%
D18*
%TO.P,J10,1,Pin_1*%
%TO.N,DataIn2*%
X145000000Y-103750000D03*
D19*
%TO.P,J10,2,Pin_2*%
%TO.N,Data*%
X145000000Y-101250000D03*
%TO.P,J10,3,Pin_3*%
%TO.N,5V*%
X145000000Y-98750000D03*
%TO.P,J10,4,Pin_4*%
%TO.N,GND*%
X145000000Y-96250000D03*
%TD*%
D20*
%TO.P,J11,1,Pin_1*%
%TO.N,DataIn3*%
X55000000Y-96250000D03*
D19*
%TO.P,J11,2,Pin_2*%
%TO.N,DataIn2*%
X55000000Y-98750000D03*
%TO.P,J11,3,Pin_3*%
%TO.N,5V*%
X55000000Y-101250000D03*
%TO.P,J11,4,Pin_4*%
%TO.N,GND*%
X55000000Y-103750000D03*
%TD*%
D21*
%TO.P,C1,1*%
%TO.N,5V*%
X139600000Y-98400000D03*
%TO.P,C1,2*%
%TO.N,GND*%
X139600000Y-96325000D03*
%TD*%
D22*
%TO.P,C2,1*%
%TO.N,5V*%
X133200000Y-96400000D03*
%TO.P,C2,2*%
%TO.N,GND*%
X131125000Y-96400000D03*
%TD*%
D23*
%TO.P,C3,1*%
%TO.N,5V*%
X60000000Y-99962500D03*
%TO.P,C3,2*%
%TO.N,GND*%
X60000000Y-102037500D03*
%TD*%
D14*
%TO.P,J12,1,Pin_1*%
%TO.N,DataIn3*%
X69928000Y-108890000D03*
D15*
%TO.P,J12,2,Pin_2*%
%TO.N,5V*%
X67428000Y-108890000D03*
%TO.P,J12,3,Pin_3*%
%TO.N,GND*%
X64928000Y-108890000D03*
%TD*%
D24*
%TO.N,5V*%
X139600000Y-98400000D02*
X144650000Y-98400000D01*
X133200000Y-90300000D02*
X133500000Y-90000000D01*
X133200000Y-96400000D02*
X133200000Y-90300000D01*
X57150000Y-101250000D02*
X55000000Y-101250000D01*
X60000000Y-99962500D02*
X58437500Y-99962500D01*
X58437500Y-99962500D02*
X57150000Y-101250000D01*
X144650000Y-98400000D02*
X145000000Y-98750000D01*
%TO.N,DataIn3*%
X55000000Y-96250000D02*
X61706000Y-96250000D01*
X61706000Y-96250000D02*
X69928000Y-104472000D01*
X69928000Y-104472000D02*
X69928000Y-108890000D01*
%TO.N,GND*%
X131125000Y-90125000D02*
X131000000Y-90000000D01*
X131125000Y-96400000D02*
X131125000Y-90125000D01*
X58287500Y-103750000D02*
X60000000Y-102037500D01*
X55000000Y-103750000D02*
X58287500Y-103750000D01*
X144925000Y-96325000D02*
X145000000Y-96250000D01*
X139600000Y-96325000D02*
X144925000Y-96325000D01*
%TO.N,Net-(J1-Pad5)*%
X122500000Y-90000000D02*
X122500000Y-94500000D01*
X97000000Y-103600000D02*
X97000000Y-101500000D01*
X122500000Y-94500000D02*
X112400000Y-104600000D01*
X98000000Y-104600000D02*
X97000000Y-103600000D01*
X112400000Y-104600000D02*
X98000000Y-104600000D01*
%TD*%
%TA.AperFunction,Conductor*%
%TO.N,GND*%
G36*
X97184122Y-82028002D02*
G01*
X97230615Y-82081658D01*
X97242001Y-82134000D01*
X97242001Y-85731629D01*
X97221999Y-85799750D01*
X97168343Y-85846243D01*
X97098069Y-85856347D01*
X97033489Y-85826853D01*
X96993482Y-85761043D01*
X96967328Y-85652103D01*
X96938628Y-85532561D01*
X96936734Y-85527988D01*
X96849687Y-85317837D01*
X96849686Y-85317835D01*
X96847793Y-85313265D01*
X96723770Y-85110879D01*
X96569614Y-84930386D01*
X96389121Y-84776230D01*
X96186735Y-84652207D01*
X96182165Y-84650314D01*
X96182163Y-84650313D01*
X95972012Y-84563266D01*
X95972010Y-84563265D01*
X95967439Y-84561372D01*
X95886340Y-84541902D01*
X95741446Y-84507115D01*
X95741440Y-84507114D01*
X95736633Y-84505960D01*
X95500000Y-84487337D01*
X95263367Y-84505960D01*
X95258560Y-84507114D01*
X95258554Y-84507115D01*
X95113660Y-84541902D01*
X95032561Y-84561372D01*
X95027990Y-84563265D01*
X95027988Y-84563266D01*
X94817837Y-84650313D01*
X94817835Y-84650314D01*
X94813265Y-84652207D01*
X94610879Y-84776230D01*
X94430386Y-84930386D01*
X94276230Y-85110879D01*
X94152207Y-85313265D01*
X94150314Y-85317835D01*
X94150313Y-85317837D01*
X94063266Y-85527988D01*
X94061372Y-85532561D01*
X94041902Y-85613660D01*
X94007115Y-85758554D01*
X94007114Y-85758560D01*
X94005960Y-85763367D01*
X93997359Y-85872661D01*
X93989244Y-85975771D01*
X93988291Y-85983910D01*
X93988328Y-85984003D01*
X93986814Y-85993730D01*
X93987449Y-85998583D01*
X93987337Y-86000000D01*
X93987634Y-86000000D01*
X93988882Y-86009544D01*
X93990936Y-86025250D01*
X93992000Y-86041588D01*
X93992000Y-87950672D01*
X93990500Y-87970056D01*
X93986814Y-87993730D01*
X93987634Y-88000000D01*
X93987337Y-88000000D01*
X93987920Y-88007409D01*
X93987920Y-88007413D01*
X93997359Y-88127339D01*
X94005960Y-88236633D01*
X94007114Y-88241440D01*
X94007115Y-88241446D01*
X94032672Y-88347897D01*
X94061372Y-88467439D01*
X94063265Y-88472010D01*
X94063266Y-88472012D01*
X94147977Y-88676522D01*
X94152207Y-88686735D01*
X94276230Y-88889121D01*
X94430386Y-89069614D01*
X94434142Y-89072822D01*
X94582580Y-89199600D01*
X94610879Y-89223770D01*
X94813265Y-89347793D01*
X94817835Y-89349686D01*
X94817837Y-89349687D01*
X95027988Y-89436734D01*
X95032561Y-89438628D01*
X95113660Y-89458098D01*
X95258554Y-89492885D01*
X95258560Y-89492886D01*
X95263367Y-89494040D01*
X95500000Y-89512663D01*
X95736633Y-89494040D01*
X95741440Y-89492886D01*
X95741446Y-89492885D01*
X95886340Y-89458098D01*
X95967439Y-89438628D01*
X95972012Y-89436734D01*
X96182163Y-89349687D01*
X96182165Y-89349686D01*
X96186735Y-89347793D01*
X96389121Y-89223770D01*
X96417420Y-89199600D01*
X96565858Y-89072822D01*
X96569614Y-89069614D01*
X96723770Y-88889121D01*
X96847793Y-88686735D01*
X96852024Y-88676522D01*
X96936734Y-88472012D01*
X96936735Y-88472010D01*
X96938628Y-88467439D01*
X96993482Y-88238957D01*
X97028834Y-88177388D01*
X97091861Y-88144705D01*
X97162552Y-88151286D01*
X97218463Y-88195040D01*
X97242001Y-88268371D01*
X97242001Y-89950665D01*
X97240501Y-89970050D01*
X97236814Y-89993730D01*
X97237634Y-90000000D01*
X97237326Y-90000000D01*
X97237796Y-90008071D01*
X97248532Y-90192394D01*
X97256006Y-90320727D01*
X97311794Y-90637116D01*
X97312845Y-90640626D01*
X97312846Y-90640631D01*
X97390823Y-90901089D01*
X97403936Y-90944890D01*
X97531184Y-91239886D01*
X97533016Y-91243060D01*
X97533018Y-91243063D01*
X97687827Y-91511198D01*
X97691820Y-91518114D01*
X97883669Y-91775813D01*
X97886178Y-91778472D01*
X97886181Y-91778476D01*
X98018006Y-91918202D01*
X98104138Y-92009496D01*
X98350245Y-92216005D01*
X98353315Y-92218024D01*
X98575854Y-92364390D01*
X98618663Y-92392546D01*
X98621927Y-92394185D01*
X98621930Y-92394187D01*
X98670847Y-92418754D01*
X98905761Y-92536732D01*
X98909213Y-92537988D01*
X98909212Y-92537988D01*
X99204215Y-92645361D01*
X99204222Y-92645363D01*
X99207656Y-92646613D01*
X99520267Y-92720703D01*
X99523891Y-92721127D01*
X99523899Y-92721128D01*
X99791440Y-92752398D01*
X99839365Y-92758000D01*
X100160635Y-92758000D01*
X100208560Y-92752398D01*
X100476101Y-92721128D01*
X100476109Y-92721127D01*
X100479733Y-92720703D01*
X100792344Y-92646613D01*
X100795778Y-92645363D01*
X100795785Y-92645361D01*
X101090788Y-92537988D01*
X101090787Y-92537988D01*
X101094239Y-92536732D01*
X101329153Y-92418754D01*
X101378070Y-92394187D01*
X101378073Y-92394185D01*
X101381337Y-92392546D01*
X101424147Y-92364390D01*
X101646685Y-92218024D01*
X101649755Y-92216005D01*
X101895862Y-92009496D01*
X101981994Y-91918202D01*
X102113819Y-91778476D01*
X102113822Y-91778472D01*
X102116331Y-91775813D01*
X102308180Y-91518114D01*
X102312173Y-91511198D01*
X102466982Y-91243063D01*
X102466984Y-91243060D01*
X102468816Y-91239886D01*
X102596064Y-90944890D01*
X102609177Y-90901089D01*
X102687154Y-90640631D01*
X102687155Y-90640626D01*
X102688206Y-90637116D01*
X102743994Y-90320727D01*
X102744831Y-90306350D01*
X102760950Y-90029612D01*
X102761987Y-90020417D01*
X102762263Y-90017345D01*
X102763071Y-90012539D01*
X102763224Y-90000000D01*
X102759273Y-89972412D01*
X102758000Y-89954549D01*
X102758000Y-88268375D01*
X102778002Y-88200254D01*
X102831658Y-88153761D01*
X102901932Y-88143657D01*
X102966512Y-88173151D01*
X103006519Y-88238961D01*
X103061372Y-88467439D01*
X103063265Y-88472010D01*
X103063266Y-88472012D01*
X103147977Y-88676522D01*
X103152207Y-88686735D01*
X103276230Y-88889121D01*
X103430386Y-89069614D01*
X103434142Y-89072822D01*
X103582580Y-89199600D01*
X103610879Y-89223770D01*
X103813265Y-89347793D01*
X103817835Y-89349686D01*
X103817837Y-89349687D01*
X104027988Y-89436734D01*
X104032561Y-89438628D01*
X104113660Y-89458098D01*
X104258554Y-89492885D01*
X104258560Y-89492886D01*
X104263367Y-89494040D01*
X104500000Y-89512663D01*
X104736633Y-89494040D01*
X104741440Y-89492886D01*
X104741446Y-89492885D01*
X104886340Y-89458098D01*
X104967439Y-89438628D01*
X104972012Y-89436734D01*
X105182163Y-89349687D01*
X105182165Y-89349686D01*
X105186735Y-89347793D01*
X105389121Y-89223770D01*
X105417420Y-89199600D01*
X105565858Y-89072822D01*
X105569614Y-89069614D01*
X105723770Y-88889121D01*
X105847793Y-88686735D01*
X105852024Y-88676522D01*
X105936734Y-88472012D01*
X105936735Y-88472010D01*
X105938628Y-88467439D01*
X105967328Y-88347897D01*
X105992885Y-88241446D01*
X105992886Y-88241440D01*
X105994040Y-88236633D01*
X106010014Y-88033657D01*
X106011372Y-88022637D01*
X106012265Y-88017330D01*
X106012265Y-88017329D01*
X106013071Y-88012539D01*
X106013224Y-88000000D01*
X106009273Y-87972412D01*
X106008000Y-87954549D01*
X106008000Y-86053207D01*
X106009746Y-86032303D01*
X106010279Y-86029137D01*
X106013071Y-86012539D01*
X106013224Y-86000000D01*
X106012534Y-85995184D01*
X106012529Y-85995100D01*
X106011665Y-85987314D01*
X106010667Y-85974634D01*
X105994040Y-85763367D01*
X105992886Y-85758560D01*
X105992885Y-85758554D01*
X105958098Y-85613660D01*
X105938628Y-85532561D01*
X105936734Y-85527988D01*
X105849687Y-85317837D01*
X105849686Y-85317835D01*
X105847793Y-85313265D01*
X105723770Y-85110879D01*
X105569614Y-84930386D01*
X105389121Y-84776230D01*
X105186735Y-84652207D01*
X105182165Y-84650314D01*
X105182163Y-84650313D01*
X104972012Y-84563266D01*
X104972010Y-84563265D01*
X104967439Y-84561372D01*
X104886340Y-84541902D01*
X104741446Y-84507115D01*
X104741440Y-84507114D01*
X104736633Y-84505960D01*
X104500000Y-84487337D01*
X104263367Y-84505960D01*
X104258560Y-84507114D01*
X104258554Y-84507115D01*
X104113660Y-84541902D01*
X104032561Y-84561372D01*
X104027990Y-84563265D01*
X104027988Y-84563266D01*
X103817837Y-84650313D01*
X103817835Y-84650314D01*
X103813265Y-84652207D01*
X103610879Y-84776230D01*
X103430386Y-84930386D01*
X103276230Y-85110879D01*
X103152207Y-85313265D01*
X103150314Y-85317835D01*
X103150313Y-85317837D01*
X103063266Y-85527988D01*
X103061372Y-85532561D01*
X103032672Y-85652103D01*
X103006519Y-85761039D01*
X102971167Y-85822608D01*
X102908140Y-85855291D01*
X102837449Y-85848710D01*
X102781538Y-85804956D01*
X102758000Y-85731625D01*
X102758000Y-82134000D01*
X102778002Y-82065879D01*
X102831658Y-82019386D01*
X102884000Y-82008000D01*
X158950672Y-82008000D01*
X158970056Y-82009500D01*
X158972284Y-82009847D01*
X158984859Y-82011805D01*
X158984861Y-82011805D01*
X158993730Y-82013186D01*
X159002632Y-82012022D01*
X159002634Y-82012022D01*
X159008959Y-82011195D01*
X159034282Y-82010452D01*
X159198126Y-82022170D01*
X159203343Y-82022543D01*
X159221137Y-82025101D01*
X159411540Y-82066521D01*
X159428788Y-82071586D01*
X159611358Y-82139682D01*
X159627710Y-82147149D01*
X159693020Y-82182810D01*
X159798734Y-82240534D01*
X159813848Y-82250248D01*
X159923516Y-82332344D01*
X159969842Y-82367023D01*
X159983428Y-82378796D01*
X160121204Y-82516572D01*
X160132977Y-82530158D01*
X160249752Y-82686152D01*
X160259469Y-82701271D01*
X160352851Y-82872290D01*
X160360318Y-82888642D01*
X160428414Y-83071212D01*
X160433480Y-83088462D01*
X160474899Y-83278863D01*
X160477457Y-83296658D01*
X160489041Y-83458629D01*
X160488297Y-83476533D01*
X160488195Y-83484858D01*
X160486814Y-83493730D01*
X160487978Y-83502632D01*
X160487978Y-83502635D01*
X160490936Y-83525251D01*
X160492000Y-83541589D01*
X160492000Y-98200672D01*
X160490500Y-98220056D01*
X160486814Y-98243730D01*
X160487978Y-98252632D01*
X160487978Y-98252634D01*
X160488805Y-98258959D01*
X160489548Y-98284282D01*
X160489041Y-98291372D01*
X160477457Y-98453343D01*
X160474899Y-98471137D01*
X160433480Y-98661538D01*
X160428414Y-98678788D01*
X160360318Y-98861358D01*
X160352851Y-98877710D01*
X160340569Y-98900204D01*
X160269223Y-99030866D01*
X160259469Y-99048729D01*
X160249753Y-99063847D01*
X160184772Y-99150652D01*
X160132977Y-99219842D01*
X160121204Y-99233428D01*
X159983428Y-99371204D01*
X159969841Y-99382977D01*
X159813848Y-99499752D01*
X159798734Y-99509466D01*
X159693020Y-99567190D01*
X159627710Y-99602851D01*
X159611358Y-99610318D01*
X159428788Y-99678414D01*
X159411540Y-99683479D01*
X159248022Y-99719051D01*
X159221137Y-99724899D01*
X159203342Y-99727457D01*
X159156152Y-99730832D01*
X159041369Y-99739041D01*
X159023467Y-99738297D01*
X159015142Y-99738195D01*
X159006270Y-99736814D01*
X158997368Y-99737978D01*
X158997365Y-99737978D01*
X158974749Y-99740936D01*
X158958411Y-99742000D01*
X158053207Y-99742000D01*
X158032303Y-99740254D01*
X158025794Y-99739159D01*
X158012539Y-99736929D01*
X158006441Y-99736855D01*
X158004868Y-99736835D01*
X158004863Y-99736835D01*
X158000000Y-99736776D01*
X157995177Y-99737466D01*
X157994862Y-99737487D01*
X157985543Y-99738445D01*
X157936976Y-99741501D01*
X157716438Y-99755376D01*
X157437348Y-99808615D01*
X157167131Y-99896414D01*
X156910050Y-100017388D01*
X156670157Y-100169628D01*
X156582872Y-100241837D01*
X156455531Y-100347183D01*
X156451237Y-100350735D01*
X156256742Y-100557851D01*
X156089738Y-100787711D01*
X156087831Y-100791180D01*
X156087829Y-100791183D01*
X155996546Y-100957227D01*
X155952861Y-101036690D01*
X155940495Y-101067924D01*
X155854111Y-101286106D01*
X155848269Y-101300860D01*
X155847285Y-101304694D01*
X155847282Y-101304702D01*
X155828206Y-101379000D01*
X155777610Y-101576057D01*
X155742000Y-101857939D01*
X155742000Y-102142061D01*
X155756478Y-102256669D01*
X155775615Y-102408148D01*
X155777610Y-102423943D01*
X155803022Y-102522914D01*
X155847282Y-102695298D01*
X155847285Y-102695306D01*
X155848269Y-102699140D01*
X155849726Y-102702820D01*
X155849727Y-102702823D01*
X155879075Y-102776948D01*
X155952861Y-102963310D01*
X155954763Y-102966769D01*
X155954764Y-102966772D01*
X156054929Y-103148971D01*
X156089738Y-103212289D01*
X156256742Y-103442149D01*
X156451237Y-103649265D01*
X156670157Y-103830372D01*
X156910050Y-103982612D01*
X157167131Y-104103586D01*
X157437348Y-104191385D01*
X157716438Y-104244624D01*
X157844003Y-104252649D01*
X157967671Y-104260430D01*
X157980660Y-104261927D01*
X157982652Y-104262262D01*
X157982654Y-104262262D01*
X157987461Y-104263071D01*
X157993959Y-104263150D01*
X157995141Y-104263165D01*
X157995145Y-104263165D01*
X158000000Y-104263224D01*
X158027588Y-104259273D01*
X158045451Y-104258000D01*
X158950672Y-104258000D01*
X158970056Y-104259500D01*
X158971637Y-104259746D01*
X158984859Y-104261805D01*
X158984861Y-104261805D01*
X158993730Y-104263186D01*
X159002632Y-104262022D01*
X159002634Y-104262022D01*
X159008959Y-104261195D01*
X159034282Y-104260452D01*
X159198126Y-104272170D01*
X159203343Y-104272543D01*
X159221137Y-104275101D01*
X159411540Y-104316521D01*
X159428788Y-104321586D01*
X159611358Y-104389682D01*
X159627710Y-104397149D01*
X159683674Y-104427707D01*
X159798734Y-104490534D01*
X159813848Y-104500248D01*
X159852978Y-104529540D01*
X159969842Y-104617023D01*
X159983428Y-104628796D01*
X160121204Y-104766572D01*
X160132977Y-104780158D01*
X160249752Y-104936152D01*
X160259466Y-104951266D01*
X160304279Y-105033335D01*
X160352851Y-105122290D01*
X160360318Y-105138642D01*
X160428414Y-105321212D01*
X160433479Y-105338460D01*
X160437849Y-105358546D01*
X160474899Y-105528863D01*
X160477457Y-105546658D01*
X160489041Y-105708629D01*
X160488297Y-105726533D01*
X160488195Y-105734858D01*
X160486814Y-105743730D01*
X160487978Y-105752632D01*
X160487978Y-105752635D01*
X160490936Y-105775251D01*
X160492000Y-105791589D01*
X160492000Y-116450672D01*
X160490500Y-116470056D01*
X160486814Y-116493730D01*
X160487978Y-116502632D01*
X160487978Y-116502634D01*
X160488805Y-116508959D01*
X160489548Y-116534287D01*
X160477457Y-116703343D01*
X160474899Y-116721137D01*
X160433480Y-116911538D01*
X160428414Y-116928788D01*
X160360318Y-117111358D01*
X160352851Y-117127710D01*
X160259469Y-117298729D01*
X160249752Y-117313848D01*
X160192016Y-117390975D01*
X160132977Y-117469842D01*
X160121204Y-117483428D01*
X159983428Y-117621204D01*
X159969841Y-117632977D01*
X159813848Y-117749752D01*
X159798734Y-117759466D01*
X159693020Y-117817190D01*
X159627710Y-117852851D01*
X159611358Y-117860318D01*
X159428788Y-117928414D01*
X159411540Y-117933479D01*
X159248022Y-117969051D01*
X159221137Y-117974899D01*
X159203342Y-117977457D01*
X159154443Y-117980954D01*
X159041369Y-117989041D01*
X159023467Y-117988297D01*
X159015142Y-117988195D01*
X159006270Y-117986814D01*
X158997368Y-117987978D01*
X158997365Y-117987978D01*
X158974749Y-117990936D01*
X158958411Y-117992000D01*
X156049328Y-117992000D01*
X156029943Y-117990500D01*
X156029661Y-117990456D01*
X156027117Y-117990060D01*
X156015141Y-117988195D01*
X156015139Y-117988195D01*
X156006270Y-117986814D01*
X155997368Y-117987978D01*
X155997366Y-117987978D01*
X155991041Y-117988805D01*
X155965718Y-117989548D01*
X155796657Y-117977457D01*
X155778863Y-117974899D01*
X155751978Y-117969051D01*
X155588460Y-117933479D01*
X155571212Y-117928414D01*
X155388642Y-117860318D01*
X155372290Y-117852851D01*
X155306980Y-117817190D01*
X155201266Y-117759466D01*
X155186152Y-117749752D01*
X155030159Y-117632977D01*
X155016572Y-117621204D01*
X154878796Y-117483428D01*
X154867023Y-117469842D01*
X154807984Y-117390975D01*
X154750248Y-117313848D01*
X154740531Y-117298729D01*
X154647149Y-117127710D01*
X154639682Y-117111358D01*
X154571586Y-116928788D01*
X154566520Y-116911538D01*
X154525101Y-116721137D01*
X154522543Y-116703342D01*
X154510959Y-116541371D01*
X154511703Y-116523467D01*
X154511805Y-116515142D01*
X154513186Y-116506270D01*
X154511547Y-116493730D01*
X154509064Y-116474749D01*
X154508000Y-116458411D01*
X154508000Y-115553207D01*
X154509746Y-115532303D01*
X154512264Y-115517335D01*
X154513071Y-115512539D01*
X154513224Y-115500000D01*
X154512534Y-115495185D01*
X154512373Y-115492710D01*
X154511805Y-115487115D01*
X154494495Y-115200938D01*
X154494494Y-115200932D01*
X154494265Y-115197142D01*
X154439573Y-114898699D01*
X154349307Y-114609025D01*
X154310567Y-114522947D01*
X154226347Y-114335820D01*
X154224783Y-114332344D01*
X154171891Y-114244849D01*
X154069783Y-114075943D01*
X154067816Y-114072689D01*
X153880696Y-113833848D01*
X153666152Y-113619304D01*
X153427311Y-113432184D01*
X153361670Y-113392503D01*
X153170917Y-113277188D01*
X153170913Y-113277186D01*
X153167656Y-113275217D01*
X153029315Y-113212955D01*
X152894451Y-113152257D01*
X152894445Y-113152255D01*
X152890975Y-113150693D01*
X152601301Y-113060427D01*
X152302858Y-113005735D01*
X152299067Y-113005506D01*
X152299061Y-113005505D01*
X152121005Y-112994736D01*
X152030787Y-112989279D01*
X152017483Y-112987761D01*
X152017340Y-112987737D01*
X152017341Y-112987737D01*
X152012539Y-112986929D01*
X152006062Y-112986850D01*
X152004859Y-112986835D01*
X152004855Y-112986835D01*
X152000000Y-112986776D01*
X151975715Y-112990254D01*
X151972412Y-112990727D01*
X151954549Y-112992000D01*
X149053207Y-112992000D01*
X149032303Y-112990254D01*
X149024100Y-112988874D01*
X149012539Y-112986929D01*
X149006211Y-112986852D01*
X149004859Y-112986835D01*
X149004855Y-112986835D01*
X149000000Y-112986776D01*
X148995185Y-112987466D01*
X148992710Y-112987627D01*
X148987115Y-112988195D01*
X148700938Y-113005505D01*
X148700932Y-113005506D01*
X148697142Y-113005735D01*
X148398699Y-113060427D01*
X148109025Y-113150693D01*
X148105555Y-113152255D01*
X148105549Y-113152257D01*
X147970684Y-113212955D01*
X147832344Y-113275217D01*
X147829087Y-113277186D01*
X147829083Y-113277188D01*
X147638330Y-113392503D01*
X147572689Y-113432184D01*
X147333848Y-113619304D01*
X147119304Y-113833848D01*
X146932184Y-114072689D01*
X146930217Y-114075943D01*
X146828110Y-114244849D01*
X146775217Y-114332344D01*
X146773653Y-114335820D01*
X146689434Y-114522947D01*
X146650693Y-114609025D01*
X146560427Y-114898699D01*
X146505735Y-115197142D01*
X146505506Y-115200933D01*
X146505505Y-115200939D01*
X146489279Y-115469210D01*
X146487761Y-115482517D01*
X146486929Y-115487461D01*
X146486776Y-115500000D01*
X146487466Y-115504815D01*
X146490727Y-115527588D01*
X146492000Y-115545451D01*
X146492000Y-116450672D01*
X146490500Y-116470056D01*
X146486814Y-116493730D01*
X146487978Y-116502632D01*
X146487978Y-116502634D01*
X146488805Y-116508959D01*
X146489548Y-116534287D01*
X146477457Y-116703343D01*
X146474899Y-116721137D01*
X146433480Y-116911538D01*
X146428414Y-116928788D01*
X146360318Y-117111358D01*
X146352851Y-117127710D01*
X146259469Y-117298729D01*
X146249752Y-117313848D01*
X146192016Y-117390975D01*
X146132977Y-117469842D01*
X146121204Y-117483428D01*
X145983428Y-117621204D01*
X145969841Y-117632977D01*
X145813848Y-117749752D01*
X145798734Y-117759466D01*
X145693020Y-117817190D01*
X145627710Y-117852851D01*
X145611358Y-117860318D01*
X145428788Y-117928414D01*
X145411540Y-117933479D01*
X145248022Y-117969051D01*
X145221137Y-117974899D01*
X145203342Y-117977457D01*
X145154443Y-117980954D01*
X145041369Y-117989041D01*
X145023467Y-117988297D01*
X145015142Y-117988195D01*
X145006270Y-117986814D01*
X144997368Y-117987978D01*
X144997365Y-117987978D01*
X144974749Y-117990936D01*
X144958411Y-117992000D01*
X41049328Y-117992000D01*
X41029943Y-117990500D01*
X41029661Y-117990456D01*
X41027117Y-117990060D01*
X41015141Y-117988195D01*
X41015139Y-117988195D01*
X41006270Y-117986814D01*
X40997368Y-117987978D01*
X40997366Y-117987978D01*
X40991041Y-117988805D01*
X40965718Y-117989548D01*
X40796657Y-117977457D01*
X40778863Y-117974899D01*
X40751978Y-117969051D01*
X40588460Y-117933479D01*
X40571212Y-117928414D01*
X40388642Y-117860318D01*
X40372290Y-117852851D01*
X40306980Y-117817190D01*
X40201266Y-117759466D01*
X40186152Y-117749752D01*
X40030159Y-117632977D01*
X40016572Y-117621204D01*
X39878796Y-117483428D01*
X39867023Y-117469842D01*
X39807984Y-117390975D01*
X39750248Y-117313848D01*
X39740531Y-117298729D01*
X39647149Y-117127710D01*
X39639682Y-117111358D01*
X39571586Y-116928788D01*
X39566520Y-116911538D01*
X39525101Y-116721137D01*
X39522543Y-116703342D01*
X39510959Y-116541371D01*
X39511703Y-116523467D01*
X39511805Y-116515142D01*
X39513186Y-116506270D01*
X39511547Y-116493730D01*
X39509064Y-116474749D01*
X39508000Y-116458411D01*
X39508000Y-109160193D01*
X63577410Y-109160193D01*
X63584124Y-109239325D01*
X63585914Y-109249797D01*
X63641130Y-109462535D01*
X63644665Y-109472575D01*
X63734937Y-109672970D01*
X63740106Y-109682256D01*
X63862850Y-109864575D01*
X63869519Y-109872870D01*
X64021228Y-110031900D01*
X64029186Y-110038941D01*
X64205525Y-110170141D01*
X64214562Y-110175745D01*
X64410484Y-110275357D01*
X64420335Y-110279357D01*
X64630240Y-110344534D01*
X64640624Y-110346817D01*
X64656043Y-110348861D01*
X64670207Y-110346665D01*
X64674000Y-110333478D01*
X64674000Y-109162115D01*
X64669525Y-109146876D01*
X64668135Y-109145671D01*
X64660452Y-109144000D01*
X63594151Y-109144000D01*
X63579473Y-109148310D01*
X63577410Y-109160193D01*
X39508000Y-109160193D01*
X39508000Y-108618174D01*
X63574496Y-108618174D01*
X63575915Y-108631414D01*
X63590550Y-108636000D01*
X64655885Y-108636000D01*
X64671124Y-108631525D01*
X64672329Y-108630135D01*
X64674000Y-108622452D01*
X64674000Y-107448808D01*
X64670027Y-107435277D01*
X64659420Y-107433752D01*
X64541579Y-107458477D01*
X64531383Y-107461537D01*
X64326971Y-107542263D01*
X64317439Y-107546994D01*
X64129538Y-107661016D01*
X64120948Y-107667280D01*
X63954948Y-107811327D01*
X63947528Y-107818958D01*
X63808174Y-107988911D01*
X63802150Y-107997678D01*
X63693424Y-108188682D01*
X63688959Y-108198346D01*
X63613969Y-108404941D01*
X63611198Y-108415208D01*
X63574496Y-108618174D01*
X39508000Y-108618174D01*
X39508000Y-105799328D01*
X39509500Y-105779943D01*
X39511805Y-105765141D01*
X39511805Y-105765139D01*
X39513186Y-105756270D01*
X39512022Y-105747366D01*
X39511195Y-105741041D01*
X39510452Y-105715713D01*
X39522543Y-105546657D01*
X39525101Y-105528863D01*
X39562151Y-105358546D01*
X39566521Y-105338460D01*
X39571586Y-105321212D01*
X39639682Y-105138642D01*
X39647149Y-105122290D01*
X39695721Y-105033335D01*
X39740534Y-104951266D01*
X39750248Y-104936152D01*
X39867023Y-104780158D01*
X39878796Y-104766572D01*
X40016572Y-104628796D01*
X40030158Y-104617023D01*
X40147022Y-104529540D01*
X40186152Y-104500248D01*
X40201266Y-104490534D01*
X40316326Y-104427707D01*
X40372290Y-104397149D01*
X40388642Y-104389682D01*
X40571212Y-104321586D01*
X40588460Y-104316521D01*
X40778863Y-104275101D01*
X40796658Y-104272543D01*
X40845557Y-104269046D01*
X40958631Y-104260959D01*
X40976533Y-104261703D01*
X40984858Y-104261805D01*
X40993730Y-104263186D01*
X41002632Y-104262022D01*
X41002635Y-104262022D01*
X41025251Y-104259064D01*
X41041589Y-104258000D01*
X41946793Y-104258000D01*
X41967697Y-104259746D01*
X41987461Y-104263071D01*
X41993559Y-104263145D01*
X41995132Y-104263165D01*
X41995137Y-104263165D01*
X42000000Y-104263224D01*
X42004823Y-104262534D01*
X42005138Y-104262513D01*
X42014457Y-104261555D01*
X42070960Y-104258000D01*
X42283562Y-104244624D01*
X42562652Y-104191385D01*
X42832869Y-104103586D01*
X43013515Y-104018580D01*
X53543752Y-104018580D01*
X53568477Y-104136421D01*
X53571537Y-104146617D01*
X53652263Y-104351029D01*
X53656994Y-104360561D01*
X53771016Y-104548462D01*
X53777280Y-104557052D01*
X53921327Y-104723052D01*
X53928958Y-104730472D01*
X54098911Y-104869826D01*
X54107678Y-104875850D01*
X54298682Y-104984576D01*
X54308346Y-104989041D01*
X54514941Y-105064031D01*
X54525208Y-105066802D01*
X54728174Y-105103504D01*
X54741414Y-105102085D01*
X54746000Y-105087450D01*
X54746000Y-105083849D01*
X55254000Y-105083849D01*
X55258310Y-105098527D01*
X55270193Y-105100590D01*
X55349325Y-105093876D01*
X55359797Y-105092086D01*
X55572535Y-105036870D01*
X55582575Y-105033335D01*
X55782970Y-104943063D01*
X55792256Y-104937894D01*
X55974575Y-104815150D01*
X55982870Y-104808481D01*
X56141900Y-104656772D01*
X56148941Y-104648814D01*
X56280141Y-104472475D01*
X56285745Y-104463438D01*
X56385357Y-104267516D01*
X56389357Y-104257665D01*
X56454534Y-104047760D01*
X56456817Y-104037376D01*
X56458861Y-104021957D01*
X56456665Y-104007793D01*
X56443478Y-104004000D01*
X55272115Y-104004000D01*
X55256876Y-104008475D01*
X55255671Y-104009865D01*
X55254000Y-104017548D01*
X55254000Y-105083849D01*
X54746000Y-105083849D01*
X54746000Y-104022115D01*
X54741525Y-104006876D01*
X54740135Y-104005671D01*
X54732452Y-104004000D01*
X53558808Y-104004000D01*
X53545277Y-104007973D01*
X53543752Y-104018580D01*
X43013515Y-104018580D01*
X43089950Y-103982612D01*
X43329843Y-103830372D01*
X43548763Y-103649265D01*
X43743258Y-103442149D01*
X43910262Y-103212289D01*
X43945072Y-103148971D01*
X44045236Y-102966772D01*
X44045237Y-102966769D01*
X44047139Y-102963310D01*
X44120925Y-102776948D01*
X44150273Y-102702823D01*
X44150274Y-102702820D01*
X44151731Y-102699140D01*
X44152715Y-102695306D01*
X44152718Y-102695298D01*
X44196978Y-102522914D01*
X44222390Y-102423943D01*
X44224386Y-102408148D01*
X44243522Y-102256669D01*
X44258000Y-102142061D01*
X44258000Y-101857939D01*
X44222390Y-101576057D01*
X44171794Y-101379000D01*
X44152718Y-101304702D01*
X44152715Y-101304694D01*
X44151731Y-101300860D01*
X44145890Y-101286106D01*
X44106165Y-101185774D01*
X53513102Y-101185774D01*
X53513302Y-101191103D01*
X53513302Y-101191105D01*
X53514845Y-101232193D01*
X53521751Y-101416158D01*
X53569093Y-101641791D01*
X53571051Y-101646750D01*
X53571052Y-101646752D01*
X53643636Y-101830544D01*
X53653776Y-101856221D01*
X53656543Y-101860780D01*
X53656544Y-101860783D01*
X53707255Y-101944351D01*
X53773377Y-102053317D01*
X53776874Y-102057347D01*
X53863438Y-102157103D01*
X53924477Y-102227445D01*
X53928608Y-102230832D01*
X54098627Y-102370240D01*
X54098633Y-102370244D01*
X54102755Y-102373624D01*
X54107398Y-102376267D01*
X54134735Y-102391829D01*
X54184041Y-102442912D01*
X54197902Y-102512542D01*
X54171918Y-102578613D01*
X54142768Y-102605851D01*
X54025422Y-102684852D01*
X54017130Y-102691519D01*
X53858100Y-102843228D01*
X53851059Y-102851186D01*
X53719859Y-103027525D01*
X53714255Y-103036562D01*
X53614643Y-103232484D01*
X53610643Y-103242335D01*
X53545466Y-103452240D01*
X53543183Y-103462624D01*
X53541139Y-103478043D01*
X53543335Y-103492207D01*
X53556522Y-103496000D01*
X56441192Y-103496000D01*
X56454723Y-103492027D01*
X56456248Y-103481420D01*
X56431523Y-103363579D01*
X56428463Y-103353383D01*
X56347737Y-103148971D01*
X56343006Y-103139439D01*
X56228984Y-102951538D01*
X56222720Y-102942948D01*
X56078673Y-102776948D01*
X56071042Y-102769528D01*
X55901089Y-102630174D01*
X55892326Y-102624152D01*
X55865289Y-102608762D01*
X55815982Y-102557680D01*
X55802120Y-102488049D01*
X55828057Y-102422095D01*
X58767001Y-102422095D01*
X58767338Y-102428614D01*
X58777257Y-102524206D01*
X58780149Y-102537600D01*
X58831588Y-102691784D01*
X58837761Y-102704962D01*
X58923063Y-102842807D01*
X58932099Y-102854208D01*
X59046829Y-102968739D01*
X59058240Y-102977751D01*
X59196243Y-103062816D01*
X59209424Y-103068963D01*
X59363710Y-103120138D01*
X59377086Y-103123005D01*
X59471438Y-103132672D01*
X59477854Y-103133000D01*
X59727885Y-103133000D01*
X59743124Y-103128525D01*
X59744329Y-103127135D01*
X59746000Y-103119452D01*
X59746000Y-103114884D01*
X60254000Y-103114884D01*
X60258475Y-103130123D01*
X60259865Y-103131328D01*
X60267548Y-103132999D01*
X60522095Y-103132999D01*
X60528614Y-103132662D01*
X60624206Y-103122743D01*
X60637600Y-103119851D01*
X60791784Y-103068412D01*
X60804962Y-103062239D01*
X60942807Y-102976937D01*
X60954208Y-102967901D01*
X61068739Y-102853171D01*
X61077751Y-102841760D01*
X61162816Y-102703757D01*
X61168963Y-102690576D01*
X61220138Y-102536290D01*
X61223005Y-102522914D01*
X61232672Y-102428562D01*
X61233000Y-102422146D01*
X61233000Y-102309615D01*
X61228525Y-102294376D01*
X61227135Y-102293171D01*
X61219452Y-102291500D01*
X60272115Y-102291500D01*
X60256876Y-102295975D01*
X60255671Y-102297365D01*
X60254000Y-102305048D01*
X60254000Y-103114884D01*
X59746000Y-103114884D01*
X59746000Y-102309615D01*
X59741525Y-102294376D01*
X59740135Y-102293171D01*
X59732452Y-102291500D01*
X58785116Y-102291500D01*
X58769877Y-102295975D01*
X58768672Y-102297365D01*
X58767001Y-102305048D01*
X58767001Y-102422095D01*
X55828057Y-102422095D01*
X55828103Y-102421978D01*
X55857253Y-102394739D01*
X55953151Y-102330176D01*
X55979319Y-102312559D01*
X55995247Y-102297365D01*
X56072769Y-102223412D01*
X56146135Y-102153424D01*
X56216176Y-102059287D01*
X56272885Y-102016574D01*
X56317264Y-102008500D01*
X57082930Y-102008500D01*
X57101880Y-102009933D01*
X57116115Y-102012099D01*
X57116119Y-102012099D01*
X57123349Y-102013199D01*
X57130641Y-102012606D01*
X57130644Y-102012606D01*
X57176018Y-102008915D01*
X57186233Y-102008500D01*
X57194293Y-102008500D01*
X57207583Y-102006951D01*
X57222507Y-102005211D01*
X57226882Y-102004778D01*
X57292339Y-101999454D01*
X57292342Y-101999453D01*
X57299637Y-101998860D01*
X57306601Y-101996604D01*
X57312560Y-101995413D01*
X57318415Y-101994029D01*
X57325681Y-101993182D01*
X57394327Y-101968265D01*
X57398455Y-101966848D01*
X57460936Y-101946607D01*
X57460938Y-101946606D01*
X57467899Y-101944351D01*
X57474154Y-101940555D01*
X57479628Y-101938049D01*
X57485058Y-101935330D01*
X57491937Y-101932833D01*
X57552976Y-101892814D01*
X57556680Y-101890477D01*
X57619107Y-101852595D01*
X57627484Y-101845197D01*
X57627508Y-101845224D01*
X57630500Y-101842571D01*
X57633733Y-101839868D01*
X57639852Y-101835856D01*
X57693128Y-101779617D01*
X57695506Y-101777175D01*
X58714776Y-100757905D01*
X58777088Y-100723879D01*
X58803871Y-100721000D01*
X58824410Y-100721000D01*
X58892531Y-100741002D01*
X58922914Y-100768518D01*
X58926522Y-100774348D01*
X59051697Y-100899305D01*
X59056235Y-100902102D01*
X59096824Y-100959353D01*
X59100054Y-101030276D01*
X59064428Y-101091687D01*
X59055932Y-101099062D01*
X59045793Y-101107098D01*
X58931261Y-101221829D01*
X58922249Y-101233240D01*
X58837184Y-101371243D01*
X58831037Y-101384424D01*
X58779862Y-101538710D01*
X58776995Y-101552086D01*
X58767328Y-101646438D01*
X58767000Y-101652855D01*
X58767000Y-101765385D01*
X58771475Y-101780624D01*
X58772865Y-101781829D01*
X58780548Y-101783500D01*
X61214884Y-101783500D01*
X61230123Y-101779025D01*
X61231328Y-101777635D01*
X61232999Y-101769952D01*
X61232999Y-101652905D01*
X61232662Y-101646386D01*
X61222743Y-101550794D01*
X61219851Y-101537400D01*
X61168412Y-101383216D01*
X61162239Y-101370038D01*
X61076937Y-101232193D01*
X61067901Y-101220792D01*
X60953172Y-101106262D01*
X60944238Y-101099206D01*
X60903177Y-101041288D01*
X60899947Y-100970365D01*
X60935574Y-100908954D01*
X60943407Y-100902154D01*
X60949348Y-100898478D01*
X61074305Y-100773303D01*
X61081201Y-100762116D01*
X61163275Y-100628968D01*
X61163276Y-100628966D01*
X61167115Y-100622738D01*
X61195835Y-100536148D01*
X61220632Y-100461389D01*
X61220632Y-100461387D01*
X61222797Y-100454861D01*
X61223716Y-100445897D01*
X61233172Y-100353598D01*
X61233500Y-100350400D01*
X61233500Y-99574600D01*
X61226743Y-99509473D01*
X61223238Y-99475692D01*
X61223237Y-99475688D01*
X61222526Y-99468834D01*
X61211347Y-99435325D01*
X61168868Y-99308002D01*
X61166550Y-99301054D01*
X61073478Y-99150652D01*
X60948303Y-99025695D01*
X60942072Y-99021854D01*
X60803968Y-98936725D01*
X60803966Y-98936724D01*
X60797738Y-98932885D01*
X60679496Y-98893666D01*
X60636389Y-98879368D01*
X60636387Y-98879368D01*
X60629861Y-98877203D01*
X60623025Y-98876503D01*
X60623022Y-98876502D01*
X60579969Y-98872091D01*
X60525400Y-98866500D01*
X59474600Y-98866500D01*
X59471354Y-98866837D01*
X59471350Y-98866837D01*
X59375692Y-98876762D01*
X59375688Y-98876763D01*
X59368834Y-98877474D01*
X59362298Y-98879655D01*
X59362296Y-98879655D01*
X59300704Y-98900204D01*
X59201054Y-98933450D01*
X59050652Y-99026522D01*
X58925695Y-99151697D01*
X58922739Y-99156493D01*
X58865386Y-99197155D01*
X58824422Y-99204000D01*
X58504570Y-99204000D01*
X58485620Y-99202567D01*
X58471385Y-99200401D01*
X58471381Y-99200401D01*
X58464151Y-99199301D01*
X58456859Y-99199894D01*
X58456856Y-99199894D01*
X58411482Y-99203585D01*
X58401267Y-99204000D01*
X58393207Y-99204000D01*
X58389573Y-99204424D01*
X58389567Y-99204424D01*
X58376542Y-99205943D01*
X58364980Y-99207291D01*
X58360632Y-99207721D01*
X58287864Y-99213640D01*
X58280903Y-99215895D01*
X58274963Y-99217082D01*
X58269088Y-99218471D01*
X58261819Y-99219318D01*
X58193170Y-99244236D01*
X58189042Y-99245653D01*
X58126564Y-99265893D01*
X58126562Y-99265894D01*
X58119601Y-99268149D01*
X58113346Y-99271945D01*
X58107872Y-99274451D01*
X58102442Y-99277170D01*
X58095563Y-99279667D01*
X58089443Y-99283680D01*
X58089442Y-99283680D01*
X58034524Y-99319686D01*
X58030820Y-99322023D01*
X57968393Y-99359905D01*
X57960016Y-99367303D01*
X57959992Y-99367276D01*
X57957000Y-99369929D01*
X57953767Y-99372632D01*
X57947648Y-99376644D01*
X57898003Y-99429050D01*
X57894372Y-99432883D01*
X57891994Y-99435325D01*
X56872724Y-100454595D01*
X56810412Y-100488621D01*
X56783629Y-100491500D01*
X56322808Y-100491500D01*
X56254687Y-100471498D01*
X56227529Y-100445897D01*
X56226623Y-100446683D01*
X56079023Y-100276588D01*
X56079021Y-100276586D01*
X56075523Y-100272555D01*
X56031786Y-100236693D01*
X55901373Y-100129760D01*
X55901367Y-100129756D01*
X55897245Y-100126376D01*
X55865750Y-100108448D01*
X55816445Y-100057368D01*
X55802583Y-99987738D01*
X55828566Y-99921667D01*
X55857716Y-99894427D01*
X55893642Y-99870240D01*
X55979319Y-99812559D01*
X55983454Y-99808615D01*
X56056262Y-99739159D01*
X56146135Y-99653424D01*
X56183763Y-99602851D01*
X56253241Y-99509469D01*
X56283754Y-99468458D01*
X56301224Y-99434098D01*
X56359393Y-99319686D01*
X56388240Y-99262949D01*
X56395920Y-99238218D01*
X56452966Y-99054498D01*
X56456607Y-99042773D01*
X56458761Y-99026522D01*
X56486198Y-98819511D01*
X56486198Y-98819506D01*
X56486898Y-98814226D01*
X56478249Y-98583842D01*
X56472131Y-98554681D01*
X56432002Y-98363428D01*
X56430907Y-98358209D01*
X56400269Y-98280629D01*
X56348185Y-98148744D01*
X56348184Y-98148742D01*
X56346224Y-98143779D01*
X56338728Y-98131425D01*
X56253955Y-97991724D01*
X56226623Y-97946683D01*
X56198677Y-97914478D01*
X56079023Y-97776588D01*
X56079021Y-97776586D01*
X56075523Y-97772555D01*
X56039880Y-97743330D01*
X55999886Y-97684671D01*
X55997954Y-97613701D01*
X56034698Y-97552952D01*
X56053468Y-97538752D01*
X56193120Y-97452332D01*
X56199348Y-97448478D01*
X56324305Y-97323303D01*
X56331607Y-97311457D01*
X56413275Y-97178968D01*
X56413276Y-97178966D01*
X56417115Y-97172738D01*
X56442955Y-97094833D01*
X56483386Y-97036473D01*
X56548950Y-97009236D01*
X56562548Y-97008500D01*
X61339629Y-97008500D01*
X61407750Y-97028502D01*
X61428724Y-97045405D01*
X69132595Y-104749276D01*
X69166621Y-104811588D01*
X69169500Y-104838371D01*
X69169500Y-107327462D01*
X69149498Y-107395583D01*
X69095842Y-107442076D01*
X69083376Y-107446986D01*
X69047087Y-107459093D01*
X69004054Y-107473450D01*
X68853652Y-107566522D01*
X68848479Y-107571704D01*
X68822688Y-107597540D01*
X68728695Y-107691697D01*
X68655170Y-107810977D01*
X68638920Y-107837339D01*
X68586148Y-107884832D01*
X68516076Y-107896256D01*
X68450952Y-107867982D01*
X68440490Y-107858195D01*
X68368688Y-107782928D01*
X68331424Y-107743865D01*
X68146458Y-107606246D01*
X68141707Y-107603830D01*
X68141703Y-107603828D01*
X68022058Y-107542998D01*
X67940949Y-107501760D01*
X67935855Y-107500178D01*
X67935852Y-107500177D01*
X67725871Y-107434976D01*
X67720773Y-107433393D01*
X67715484Y-107432692D01*
X67497511Y-107403802D01*
X67497506Y-107403802D01*
X67492226Y-107403102D01*
X67486897Y-107403302D01*
X67486895Y-107403302D01*
X67377034Y-107407427D01*
X67261842Y-107411751D01*
X67256623Y-107412846D01*
X67234566Y-107417474D01*
X67036209Y-107459093D01*
X67031250Y-107461051D01*
X67031248Y-107461052D01*
X66826744Y-107541815D01*
X66826742Y-107541816D01*
X66821779Y-107543776D01*
X66817220Y-107546543D01*
X66817217Y-107546544D01*
X66722113Y-107604255D01*
X66624683Y-107663377D01*
X66620653Y-107666874D01*
X66492088Y-107778437D01*
X66450555Y-107814477D01*
X66431809Y-107837339D01*
X66307760Y-107988627D01*
X66307756Y-107988633D01*
X66304376Y-107992755D01*
X66301733Y-107997398D01*
X66286171Y-108024735D01*
X66235088Y-108074041D01*
X66165458Y-108087902D01*
X66099387Y-108061918D01*
X66072149Y-108032768D01*
X65993148Y-107915422D01*
X65986481Y-107907130D01*
X65834772Y-107748100D01*
X65826814Y-107741059D01*
X65650475Y-107609859D01*
X65641438Y-107604255D01*
X65445516Y-107504643D01*
X65435665Y-107500643D01*
X65225760Y-107435466D01*
X65215376Y-107433183D01*
X65199957Y-107431139D01*
X65185793Y-107433335D01*
X65182000Y-107446522D01*
X65182000Y-110331192D01*
X65185973Y-110344723D01*
X65196580Y-110346248D01*
X65314421Y-110321523D01*
X65324617Y-110318463D01*
X65529029Y-110237737D01*
X65538561Y-110233006D01*
X65726462Y-110118984D01*
X65735052Y-110112720D01*
X65901052Y-109968673D01*
X65908472Y-109961042D01*
X66047826Y-109791089D01*
X66053848Y-109782326D01*
X66069238Y-109755289D01*
X66120320Y-109705982D01*
X66189951Y-109692120D01*
X66256022Y-109718103D01*
X66283261Y-109747253D01*
X66312773Y-109791089D01*
X66365441Y-109869319D01*
X66369120Y-109873176D01*
X66369122Y-109873178D01*
X66430710Y-109937738D01*
X66524576Y-110036135D01*
X66709542Y-110173754D01*
X66714293Y-110176170D01*
X66714297Y-110176172D01*
X66796855Y-110218146D01*
X66915051Y-110278240D01*
X66920145Y-110279822D01*
X66920148Y-110279823D01*
X67085583Y-110331192D01*
X67135227Y-110346607D01*
X67140516Y-110347308D01*
X67358489Y-110376198D01*
X67358494Y-110376198D01*
X67363774Y-110376898D01*
X67369103Y-110376698D01*
X67369105Y-110376698D01*
X67478966Y-110372574D01*
X67594158Y-110368249D01*
X67616802Y-110363498D01*
X67814572Y-110322002D01*
X67819791Y-110320907D01*
X67824750Y-110318949D01*
X67824752Y-110318948D01*
X68029256Y-110238185D01*
X68029258Y-110238184D01*
X68034221Y-110236224D01*
X68039525Y-110233006D01*
X68226757Y-110119390D01*
X68226756Y-110119390D01*
X68231317Y-110116623D01*
X68254629Y-110096394D01*
X68401412Y-109969023D01*
X68401414Y-109969021D01*
X68405445Y-109965523D01*
X68434670Y-109929880D01*
X68493329Y-109889886D01*
X68564299Y-109887954D01*
X68625048Y-109924698D01*
X68639248Y-109943468D01*
X68693972Y-110031900D01*
X68729522Y-110089348D01*
X68854697Y-110214305D01*
X68860927Y-110218145D01*
X68860928Y-110218146D01*
X68998090Y-110302694D01*
X69005262Y-110307115D01*
X69040938Y-110318948D01*
X69166611Y-110360632D01*
X69166613Y-110360632D01*
X69173139Y-110362797D01*
X69179975Y-110363497D01*
X69179978Y-110363498D01*
X69215663Y-110367154D01*
X69277600Y-110373500D01*
X70578400Y-110373500D01*
X70581646Y-110373163D01*
X70581650Y-110373163D01*
X70677308Y-110363238D01*
X70677312Y-110363237D01*
X70684166Y-110362526D01*
X70690702Y-110360345D01*
X70690704Y-110360345D01*
X70727304Y-110348134D01*
X75611500Y-110348134D01*
X75618255Y-110410316D01*
X75669385Y-110546705D01*
X75756739Y-110663261D01*
X75873295Y-110750615D01*
X76009684Y-110801745D01*
X76071866Y-110808500D01*
X78768134Y-110808500D01*
X78830316Y-110801745D01*
X78966705Y-110750615D01*
X79083261Y-110663261D01*
X79170615Y-110546705D01*
X79221745Y-110410316D01*
X79228500Y-110348134D01*
X79228500Y-108952526D01*
X80687050Y-108952526D01*
X80699947Y-109221019D01*
X80752388Y-109484656D01*
X80843220Y-109737646D01*
X80845432Y-109741762D01*
X80845433Y-109741765D01*
X80881131Y-109808202D01*
X80970450Y-109974431D01*
X80973241Y-109978168D01*
X80973245Y-109978175D01*
X81057820Y-110091434D01*
X81131281Y-110189810D01*
X81134590Y-110193090D01*
X81134595Y-110193096D01*
X81316581Y-110373500D01*
X81322180Y-110379050D01*
X81325942Y-110381808D01*
X81325945Y-110381811D01*
X81481178Y-110495632D01*
X81538954Y-110537995D01*
X81543089Y-110540171D01*
X81543093Y-110540173D01*
X81772698Y-110660975D01*
X81776840Y-110663154D01*
X82030613Y-110751775D01*
X82035206Y-110752647D01*
X82290109Y-110801042D01*
X82290112Y-110801042D01*
X82294698Y-110801913D01*
X82422370Y-110806929D01*
X82558625Y-110812283D01*
X82558630Y-110812283D01*
X82563293Y-110812466D01*
X82667607Y-110801042D01*
X82825844Y-110783713D01*
X82825850Y-110783712D01*
X82830497Y-110783203D01*
X82942302Y-110753767D01*
X83085918Y-110715956D01*
X83085920Y-110715955D01*
X83090441Y-110714765D01*
X83197795Y-110668642D01*
X83333120Y-110610502D01*
X83333122Y-110610501D01*
X83337414Y-110608657D01*
X83499811Y-110508163D01*
X83562017Y-110469669D01*
X83562021Y-110469666D01*
X83565990Y-110467210D01*
X83771149Y-110293530D01*
X83948382Y-110091434D01*
X83956401Y-110078968D01*
X84091269Y-109869291D01*
X84093797Y-109865361D01*
X84204199Y-109620278D01*
X84241209Y-109489051D01*
X84275893Y-109366072D01*
X84275894Y-109366069D01*
X84277163Y-109361568D01*
X84292704Y-109239409D01*
X84310688Y-109098045D01*
X84310688Y-109098041D01*
X84311086Y-109094915D01*
X84311594Y-109075539D01*
X84311663Y-109072890D01*
X118141500Y-109072890D01*
X118147178Y-109139809D01*
X118153673Y-109216349D01*
X118156080Y-109244720D01*
X118157418Y-109249875D01*
X118157419Y-109249881D01*
X118212657Y-109462703D01*
X118213999Y-109467872D01*
X118216191Y-109472738D01*
X118216192Y-109472741D01*
X118223539Y-109489051D01*
X118308688Y-109678075D01*
X118437441Y-109869319D01*
X118441120Y-109873176D01*
X118441122Y-109873178D01*
X118502710Y-109937738D01*
X118596576Y-110036135D01*
X118781542Y-110173754D01*
X118786293Y-110176170D01*
X118786297Y-110176172D01*
X118868855Y-110218146D01*
X118987051Y-110278240D01*
X118992145Y-110279822D01*
X118992148Y-110279823D01*
X119157583Y-110331192D01*
X119207227Y-110346607D01*
X119212516Y-110347308D01*
X119430489Y-110376198D01*
X119430494Y-110376198D01*
X119435774Y-110376898D01*
X119441103Y-110376698D01*
X119441105Y-110376698D01*
X119550966Y-110372574D01*
X119666158Y-110368249D01*
X119688802Y-110363498D01*
X119886572Y-110322002D01*
X119891791Y-110320907D01*
X119896750Y-110318949D01*
X119896752Y-110318948D01*
X120101256Y-110238185D01*
X120101258Y-110238184D01*
X120106221Y-110236224D01*
X120111525Y-110233006D01*
X120298757Y-110119390D01*
X120298756Y-110119390D01*
X120303317Y-110116623D01*
X120326629Y-110096394D01*
X120473412Y-109969023D01*
X120473414Y-109969021D01*
X120477445Y-109965523D01*
X120527185Y-109904861D01*
X120620240Y-109791373D01*
X120620244Y-109791367D01*
X120623624Y-109787245D01*
X120641552Y-109755750D01*
X120692632Y-109706445D01*
X120762262Y-109692583D01*
X120828333Y-109718566D01*
X120855573Y-109747716D01*
X120860983Y-109755752D01*
X120937441Y-109869319D01*
X120941120Y-109873176D01*
X120941122Y-109873178D01*
X121002710Y-109937738D01*
X121096576Y-110036135D01*
X121281542Y-110173754D01*
X121286293Y-110176170D01*
X121286297Y-110176172D01*
X121368855Y-110218146D01*
X121487051Y-110278240D01*
X121492145Y-110279822D01*
X121492148Y-110279823D01*
X121657583Y-110331192D01*
X121707227Y-110346607D01*
X121712516Y-110347308D01*
X121930489Y-110376198D01*
X121930494Y-110376198D01*
X121935774Y-110376898D01*
X121941103Y-110376698D01*
X121941105Y-110376698D01*
X122050966Y-110372574D01*
X122166158Y-110368249D01*
X122188802Y-110363498D01*
X122386572Y-110322002D01*
X122391791Y-110320907D01*
X122396750Y-110318949D01*
X122396752Y-110318948D01*
X122601256Y-110238185D01*
X122601258Y-110238184D01*
X122606221Y-110236224D01*
X122611525Y-110233006D01*
X122798757Y-110119390D01*
X122798756Y-110119390D01*
X122803317Y-110116623D01*
X122826629Y-110096394D01*
X122973412Y-109969023D01*
X122973414Y-109969021D01*
X122977445Y-109965523D01*
X123027185Y-109904861D01*
X123120240Y-109791373D01*
X123120244Y-109791367D01*
X123123624Y-109787245D01*
X123141552Y-109755750D01*
X123192632Y-109706445D01*
X123262262Y-109692583D01*
X123328333Y-109718566D01*
X123355573Y-109747716D01*
X123360983Y-109755752D01*
X123437441Y-109869319D01*
X123441120Y-109873176D01*
X123441122Y-109873178D01*
X123502710Y-109937738D01*
X123596576Y-110036135D01*
X123781542Y-110173754D01*
X123786293Y-110176170D01*
X123786297Y-110176172D01*
X123868855Y-110218146D01*
X123987051Y-110278240D01*
X123992145Y-110279822D01*
X123992148Y-110279823D01*
X124157583Y-110331192D01*
X124207227Y-110346607D01*
X124212516Y-110347308D01*
X124430489Y-110376198D01*
X124430494Y-110376198D01*
X124435774Y-110376898D01*
X124441103Y-110376698D01*
X124441105Y-110376698D01*
X124550966Y-110372574D01*
X124666158Y-110368249D01*
X124688802Y-110363498D01*
X124886572Y-110322002D01*
X124891791Y-110320907D01*
X124896750Y-110318949D01*
X124896752Y-110318948D01*
X125101256Y-110238185D01*
X125101258Y-110238184D01*
X125106221Y-110236224D01*
X125111525Y-110233006D01*
X125298757Y-110119390D01*
X125298756Y-110119390D01*
X125303317Y-110116623D01*
X125326629Y-110096394D01*
X125473412Y-109969023D01*
X125473414Y-109969021D01*
X125477445Y-109965523D01*
X125506670Y-109929880D01*
X125565329Y-109889886D01*
X125636299Y-109887954D01*
X125697048Y-109924698D01*
X125711248Y-109943468D01*
X125765972Y-110031900D01*
X125801522Y-110089348D01*
X125926697Y-110214305D01*
X125932927Y-110218145D01*
X125932928Y-110218146D01*
X126070090Y-110302694D01*
X126077262Y-110307115D01*
X126112938Y-110318948D01*
X126238611Y-110360632D01*
X126238613Y-110360632D01*
X126245139Y-110362797D01*
X126251975Y-110363497D01*
X126251978Y-110363498D01*
X126287663Y-110367154D01*
X126349600Y-110373500D01*
X127650400Y-110373500D01*
X127653646Y-110373163D01*
X127653650Y-110373163D01*
X127749308Y-110363238D01*
X127749312Y-110363237D01*
X127756166Y-110362526D01*
X127762702Y-110360345D01*
X127762704Y-110360345D01*
X127910092Y-110311172D01*
X127923946Y-110306550D01*
X128074348Y-110213478D01*
X128199305Y-110088303D01*
X128205059Y-110078968D01*
X128288275Y-109943968D01*
X128288276Y-109943966D01*
X128292115Y-109937738D01*
X128342031Y-109787245D01*
X128345632Y-109776389D01*
X128345632Y-109776387D01*
X128347797Y-109769861D01*
X128350114Y-109747253D01*
X128353100Y-109718103D01*
X128358500Y-109665400D01*
X128358500Y-109207890D01*
X132641500Y-109207890D01*
X132644625Y-109244720D01*
X132654540Y-109361568D01*
X132656080Y-109379720D01*
X132657418Y-109384875D01*
X132657419Y-109384881D01*
X132712657Y-109597703D01*
X132713999Y-109602872D01*
X132716191Y-109607738D01*
X132716192Y-109607741D01*
X132760446Y-109705982D01*
X132808688Y-109813075D01*
X132937441Y-110004319D01*
X132941120Y-110008176D01*
X132941122Y-110008178D01*
X133002710Y-110072738D01*
X133096576Y-110171135D01*
X133100854Y-110174318D01*
X133146522Y-110208296D01*
X133281542Y-110308754D01*
X133286293Y-110311170D01*
X133286297Y-110311172D01*
X133356406Y-110346817D01*
X133487051Y-110413240D01*
X133492145Y-110414822D01*
X133492148Y-110414823D01*
X133651142Y-110464192D01*
X133707227Y-110481607D01*
X133712516Y-110482308D01*
X133930489Y-110511198D01*
X133930494Y-110511198D01*
X133935774Y-110511898D01*
X133941103Y-110511698D01*
X133941105Y-110511698D01*
X134050966Y-110507573D01*
X134166158Y-110503249D01*
X134188802Y-110498498D01*
X134337921Y-110467210D01*
X134391791Y-110455907D01*
X134396750Y-110453949D01*
X134396752Y-110453948D01*
X134601256Y-110373185D01*
X134601258Y-110373184D01*
X134606221Y-110371224D01*
X134610795Y-110368449D01*
X134798757Y-110254390D01*
X134798756Y-110254390D01*
X134803317Y-110251623D01*
X134846322Y-110214305D01*
X134973412Y-110104023D01*
X134973414Y-110104021D01*
X134977445Y-110100523D01*
X135006670Y-110064880D01*
X135065329Y-110024886D01*
X135136299Y-110022954D01*
X135197048Y-110059698D01*
X135211248Y-110078468D01*
X135268242Y-110170568D01*
X135301522Y-110224348D01*
X135426697Y-110349305D01*
X135432927Y-110353145D01*
X135432928Y-110353146D01*
X135570090Y-110437694D01*
X135577262Y-110442115D01*
X135652922Y-110467210D01*
X135738611Y-110495632D01*
X135738613Y-110495632D01*
X135745139Y-110497797D01*
X135751975Y-110498497D01*
X135751978Y-110498498D01*
X135787663Y-110502154D01*
X135849600Y-110508500D01*
X137150400Y-110508500D01*
X137153646Y-110508163D01*
X137153650Y-110508163D01*
X137249308Y-110498238D01*
X137249312Y-110498237D01*
X137256166Y-110497526D01*
X137262702Y-110495345D01*
X137262704Y-110495345D01*
X137394806Y-110451272D01*
X137423946Y-110441550D01*
X137574348Y-110348478D01*
X137699305Y-110223303D01*
X137703146Y-110217072D01*
X137788275Y-110078968D01*
X137788276Y-110078966D01*
X137792115Y-110072738D01*
X137826632Y-109968673D01*
X137845632Y-109911389D01*
X137845632Y-109911387D01*
X137847797Y-109904861D01*
X137849332Y-109889886D01*
X137857201Y-109813075D01*
X137858500Y-109800400D01*
X137858500Y-108199600D01*
X137857367Y-108188682D01*
X137848238Y-108100692D01*
X137848237Y-108100688D01*
X137847526Y-108093834D01*
X137843710Y-108082394D01*
X137793868Y-107933002D01*
X137791550Y-107926054D01*
X137698478Y-107775652D01*
X137573303Y-107650695D01*
X137567072Y-107646854D01*
X137428968Y-107561725D01*
X137428966Y-107561724D01*
X137422738Y-107557885D01*
X137342995Y-107531436D01*
X137261389Y-107504368D01*
X137261387Y-107504368D01*
X137254861Y-107502203D01*
X137248025Y-107501503D01*
X137248022Y-107501502D01*
X137204969Y-107497091D01*
X137150400Y-107491500D01*
X135849600Y-107491500D01*
X135846354Y-107491837D01*
X135846350Y-107491837D01*
X135750692Y-107501762D01*
X135750688Y-107501763D01*
X135743834Y-107502474D01*
X135737298Y-107504655D01*
X135737296Y-107504655D01*
X135610392Y-107546994D01*
X135576054Y-107558450D01*
X135425652Y-107651522D01*
X135300695Y-107776697D01*
X135215184Y-107915422D01*
X135210920Y-107922339D01*
X135158148Y-107969832D01*
X135088076Y-107981256D01*
X135022952Y-107952982D01*
X135012490Y-107943195D01*
X134940740Y-107867982D01*
X134903424Y-107828865D01*
X134718458Y-107691246D01*
X134713707Y-107688830D01*
X134713703Y-107688828D01*
X134558381Y-107609859D01*
X134512949Y-107586760D01*
X134507855Y-107585178D01*
X134507852Y-107585177D01*
X134297871Y-107519976D01*
X134292773Y-107518393D01*
X134287484Y-107517692D01*
X134069511Y-107488802D01*
X134069506Y-107488802D01*
X134064226Y-107488102D01*
X134058897Y-107488302D01*
X134058895Y-107488302D01*
X133949034Y-107492427D01*
X133833842Y-107496751D01*
X133828623Y-107497846D01*
X133796171Y-107504655D01*
X133608209Y-107544093D01*
X133603250Y-107546051D01*
X133603248Y-107546052D01*
X133398744Y-107626815D01*
X133398742Y-107626816D01*
X133393779Y-107628776D01*
X133389220Y-107631543D01*
X133389217Y-107631544D01*
X133285581Y-107694432D01*
X133196683Y-107748377D01*
X133192653Y-107751874D01*
X133088490Y-107842262D01*
X133022555Y-107899477D01*
X133003809Y-107922339D01*
X132879760Y-108073627D01*
X132879756Y-108073633D01*
X132876376Y-108077755D01*
X132873737Y-108082391D01*
X132873735Y-108082394D01*
X132807018Y-108199600D01*
X132762325Y-108278114D01*
X132683663Y-108494825D01*
X132682714Y-108500074D01*
X132682713Y-108500077D01*
X132643377Y-108717608D01*
X132643376Y-108717615D01*
X132642639Y-108721692D01*
X132641500Y-108745844D01*
X132641500Y-109207890D01*
X128358500Y-109207890D01*
X128358500Y-108114600D01*
X128356481Y-108095139D01*
X128348238Y-108015692D01*
X128348237Y-108015688D01*
X128347526Y-108008834D01*
X128343710Y-107997394D01*
X128293868Y-107848002D01*
X128291550Y-107841054D01*
X128198478Y-107690652D01*
X128073303Y-107565695D01*
X128067072Y-107561854D01*
X127928968Y-107476725D01*
X127928966Y-107476724D01*
X127922738Y-107472885D01*
X127809353Y-107435277D01*
X127761389Y-107419368D01*
X127761387Y-107419368D01*
X127754861Y-107417203D01*
X127748025Y-107416503D01*
X127748022Y-107416502D01*
X127702694Y-107411858D01*
X127650400Y-107406500D01*
X126349600Y-107406500D01*
X126346354Y-107406837D01*
X126346350Y-107406837D01*
X126250692Y-107416762D01*
X126250688Y-107416763D01*
X126243834Y-107417474D01*
X126237298Y-107419655D01*
X126237296Y-107419655D01*
X126111264Y-107461703D01*
X126076054Y-107473450D01*
X125925652Y-107566522D01*
X125920479Y-107571704D01*
X125894688Y-107597540D01*
X125800695Y-107691697D01*
X125727170Y-107810977D01*
X125710920Y-107837339D01*
X125658148Y-107884832D01*
X125588076Y-107896256D01*
X125522952Y-107867982D01*
X125512490Y-107858195D01*
X125440688Y-107782928D01*
X125403424Y-107743865D01*
X125218458Y-107606246D01*
X125213707Y-107603830D01*
X125213703Y-107603828D01*
X125094058Y-107542998D01*
X125012949Y-107501760D01*
X125007855Y-107500178D01*
X125007852Y-107500177D01*
X124797871Y-107434976D01*
X124792773Y-107433393D01*
X124787484Y-107432692D01*
X124569511Y-107403802D01*
X124569506Y-107403802D01*
X124564226Y-107403102D01*
X124558897Y-107403302D01*
X124558895Y-107403302D01*
X124449034Y-107407427D01*
X124333842Y-107411751D01*
X124328623Y-107412846D01*
X124306566Y-107417474D01*
X124108209Y-107459093D01*
X124103250Y-107461051D01*
X124103248Y-107461052D01*
X123898744Y-107541815D01*
X123898742Y-107541816D01*
X123893779Y-107543776D01*
X123889220Y-107546543D01*
X123889217Y-107546544D01*
X123794113Y-107604255D01*
X123696683Y-107663377D01*
X123692653Y-107666874D01*
X123564088Y-107778437D01*
X123522555Y-107814477D01*
X123503809Y-107837339D01*
X123379760Y-107988627D01*
X123379756Y-107988633D01*
X123376376Y-107992755D01*
X123358448Y-108024250D01*
X123307368Y-108073555D01*
X123237738Y-108087417D01*
X123171667Y-108061434D01*
X123144427Y-108032284D01*
X123115907Y-107989922D01*
X123062559Y-107910681D01*
X122903424Y-107743865D01*
X122718458Y-107606246D01*
X122713707Y-107603830D01*
X122713703Y-107603828D01*
X122594058Y-107542998D01*
X122512949Y-107501760D01*
X122507855Y-107500178D01*
X122507852Y-107500177D01*
X122297871Y-107434976D01*
X122292773Y-107433393D01*
X122287484Y-107432692D01*
X122069511Y-107403802D01*
X122069506Y-107403802D01*
X122064226Y-107403102D01*
X122058897Y-107403302D01*
X122058895Y-107403302D01*
X121949034Y-107407427D01*
X121833842Y-107411751D01*
X121828623Y-107412846D01*
X121806566Y-107417474D01*
X121608209Y-107459093D01*
X121603250Y-107461051D01*
X121603248Y-107461052D01*
X121398744Y-107541815D01*
X121398742Y-107541816D01*
X121393779Y-107543776D01*
X121389220Y-107546543D01*
X121389217Y-107546544D01*
X121294113Y-107604255D01*
X121196683Y-107663377D01*
X121192653Y-107666874D01*
X121064088Y-107778437D01*
X121022555Y-107814477D01*
X121003809Y-107837339D01*
X120879760Y-107988627D01*
X120879756Y-107988633D01*
X120876376Y-107992755D01*
X120858448Y-108024250D01*
X120807368Y-108073555D01*
X120737738Y-108087417D01*
X120671667Y-108061434D01*
X120644427Y-108032284D01*
X120615907Y-107989922D01*
X120562559Y-107910681D01*
X120403424Y-107743865D01*
X120218458Y-107606246D01*
X120213707Y-107603830D01*
X120213703Y-107603828D01*
X120094058Y-107542998D01*
X120012949Y-107501760D01*
X120007855Y-107500178D01*
X120007852Y-107500177D01*
X119797871Y-107434976D01*
X119792773Y-107433393D01*
X119787484Y-107432692D01*
X119569511Y-107403802D01*
X119569506Y-107403802D01*
X119564226Y-107403102D01*
X119558897Y-107403302D01*
X119558895Y-107403302D01*
X119449034Y-107407427D01*
X119333842Y-107411751D01*
X119328623Y-107412846D01*
X119306566Y-107417474D01*
X119108209Y-107459093D01*
X119103250Y-107461051D01*
X119103248Y-107461052D01*
X118898744Y-107541815D01*
X118898742Y-107541816D01*
X118893779Y-107543776D01*
X118889220Y-107546543D01*
X118889217Y-107546544D01*
X118794113Y-107604255D01*
X118696683Y-107663377D01*
X118692653Y-107666874D01*
X118564088Y-107778437D01*
X118522555Y-107814477D01*
X118503809Y-107837339D01*
X118379760Y-107988627D01*
X118379756Y-107988633D01*
X118376376Y-107992755D01*
X118373738Y-107997390D01*
X118373735Y-107997394D01*
X118314935Y-108100692D01*
X118262325Y-108193114D01*
X118183663Y-108409825D01*
X118182714Y-108415074D01*
X118182713Y-108415077D01*
X118143377Y-108632608D01*
X118143376Y-108632615D01*
X118142639Y-108636692D01*
X118141500Y-108660844D01*
X118141500Y-109072890D01*
X84311663Y-109072890D01*
X84313488Y-109003160D01*
X84313571Y-109000000D01*
X84294794Y-108747331D01*
X84293996Y-108736592D01*
X84293996Y-108736591D01*
X84293650Y-108731937D01*
X84277227Y-108659356D01*
X84235361Y-108474331D01*
X84235360Y-108474326D01*
X84234327Y-108469763D01*
X84136902Y-108219238D01*
X84003518Y-107985864D01*
X83999886Y-107981256D01*
X83890312Y-107842262D01*
X83837105Y-107774769D01*
X83641317Y-107590591D01*
X83469119Y-107471132D01*
X83424299Y-107440039D01*
X83424296Y-107440037D01*
X83420457Y-107437374D01*
X83416205Y-107435277D01*
X83183564Y-107320551D01*
X83183561Y-107320550D01*
X83179376Y-107318486D01*
X83131745Y-107303239D01*
X82953657Y-107246233D01*
X82923370Y-107236538D01*
X82918763Y-107235788D01*
X82918760Y-107235787D01*
X82705337Y-107201029D01*
X82658063Y-107193330D01*
X82527719Y-107191624D01*
X82393961Y-107189873D01*
X82393958Y-107189873D01*
X82389284Y-107189812D01*
X82122937Y-107226060D01*
X81864874Y-107301278D01*
X81620763Y-107413815D01*
X81591971Y-107432692D01*
X81399881Y-107558631D01*
X81399876Y-107558635D01*
X81395968Y-107561197D01*
X81341447Y-107609859D01*
X81284131Y-107661016D01*
X81195426Y-107740188D01*
X81116718Y-107834824D01*
X81035065Y-107933002D01*
X81023544Y-107946854D01*
X80884096Y-108176656D01*
X80882287Y-108180970D01*
X80882285Y-108180974D01*
X80784118Y-108415077D01*
X80780148Y-108424545D01*
X80713981Y-108685077D01*
X80687050Y-108952526D01*
X79228500Y-108952526D01*
X79228500Y-107651866D01*
X79221745Y-107589684D01*
X79170615Y-107453295D01*
X79083261Y-107336739D01*
X78966705Y-107249385D01*
X78830316Y-107198255D01*
X78768134Y-107191500D01*
X76071866Y-107191500D01*
X76009684Y-107198255D01*
X75873295Y-107249385D01*
X75756739Y-107336739D01*
X75669385Y-107453295D01*
X75618255Y-107589684D01*
X75611500Y-107651866D01*
X75611500Y-110348134D01*
X70727304Y-110348134D01*
X70838092Y-110311172D01*
X70851946Y-110306550D01*
X71002348Y-110213478D01*
X71127305Y-110088303D01*
X71133059Y-110078968D01*
X71216275Y-109943968D01*
X71216276Y-109943966D01*
X71220115Y-109937738D01*
X71270031Y-109787245D01*
X71273632Y-109776389D01*
X71273632Y-109776387D01*
X71275797Y-109769861D01*
X71278114Y-109747253D01*
X71281100Y-109718103D01*
X71286500Y-109665400D01*
X71286500Y-108114600D01*
X71284481Y-108095139D01*
X71276238Y-108015692D01*
X71276237Y-108015688D01*
X71275526Y-108008834D01*
X71271710Y-107997394D01*
X71221868Y-107848002D01*
X71219550Y-107841054D01*
X71126478Y-107690652D01*
X71001303Y-107565695D01*
X70995072Y-107561854D01*
X70856968Y-107476725D01*
X70856966Y-107476724D01*
X70850738Y-107472885D01*
X70778148Y-107448808D01*
X70772833Y-107447045D01*
X70714473Y-107406614D01*
X70687236Y-107341050D01*
X70686500Y-107327452D01*
X70686500Y-104539070D01*
X70687933Y-104520120D01*
X70690099Y-104505885D01*
X70690099Y-104505881D01*
X70691199Y-104498651D01*
X70686915Y-104445982D01*
X70686500Y-104435767D01*
X70686500Y-104427707D01*
X70683209Y-104399480D01*
X70682778Y-104395121D01*
X70679967Y-104360561D01*
X70676860Y-104322364D01*
X70674605Y-104315403D01*
X70673418Y-104309463D01*
X70672029Y-104303588D01*
X70671182Y-104296319D01*
X70646264Y-104227670D01*
X70644847Y-104223542D01*
X70624607Y-104161064D01*
X70624606Y-104161062D01*
X70622351Y-104154101D01*
X70618555Y-104147846D01*
X70616049Y-104142372D01*
X70613330Y-104136942D01*
X70610833Y-104130063D01*
X70593474Y-104103586D01*
X70570814Y-104069024D01*
X70568467Y-104065305D01*
X70530595Y-104002893D01*
X70523197Y-103994516D01*
X70523224Y-103994492D01*
X70520571Y-103991500D01*
X70517868Y-103988267D01*
X70513856Y-103982148D01*
X70457617Y-103928872D01*
X70455175Y-103926494D01*
X68028681Y-101500000D01*
X89736693Y-101500000D01*
X89755885Y-101719371D01*
X89812880Y-101932076D01*
X89846983Y-102005211D01*
X89903618Y-102126666D01*
X89903621Y-102126671D01*
X89905944Y-102131653D01*
X89909100Y-102136160D01*
X89909101Y-102136162D01*
X90027357Y-102305048D01*
X90032251Y-102312038D01*
X90187962Y-102467749D01*
X90192471Y-102470906D01*
X90192473Y-102470908D01*
X90204774Y-102479521D01*
X90368346Y-102594056D01*
X90567924Y-102687120D01*
X90780629Y-102744115D01*
X91000000Y-102763307D01*
X91219371Y-102744115D01*
X91432076Y-102687120D01*
X91631654Y-102594056D01*
X91795226Y-102479521D01*
X91807527Y-102470908D01*
X91807529Y-102470906D01*
X91812038Y-102467749D01*
X91967749Y-102312038D01*
X91972644Y-102305048D01*
X92090899Y-102136162D01*
X92090900Y-102136160D01*
X92094056Y-102131653D01*
X92096379Y-102126671D01*
X92096382Y-102126666D01*
X92153017Y-102005211D01*
X92187120Y-101932076D01*
X92244115Y-101719371D01*
X92263307Y-101500000D01*
X92736693Y-101500000D01*
X92755885Y-101719371D01*
X92812880Y-101932076D01*
X92846983Y-102005211D01*
X92903618Y-102126666D01*
X92903621Y-102126671D01*
X92905944Y-102131653D01*
X92909100Y-102136160D01*
X92909101Y-102136162D01*
X93027357Y-102305048D01*
X93032251Y-102312038D01*
X93187962Y-102467749D01*
X93192471Y-102470906D01*
X93192473Y-102470908D01*
X93204774Y-102479521D01*
X93368346Y-102594056D01*
X93567924Y-102687120D01*
X93780629Y-102744115D01*
X94000000Y-102763307D01*
X94219371Y-102744115D01*
X94432076Y-102687120D01*
X94631654Y-102594056D01*
X94795226Y-102479521D01*
X94807527Y-102470908D01*
X94807529Y-102470906D01*
X94812038Y-102467749D01*
X94967749Y-102312038D01*
X94972644Y-102305048D01*
X95090899Y-102136162D01*
X95090900Y-102136160D01*
X95094056Y-102131653D01*
X95096379Y-102126671D01*
X95096382Y-102126666D01*
X95153017Y-102005211D01*
X95187120Y-101932076D01*
X95244115Y-101719371D01*
X95263307Y-101500000D01*
X95736693Y-101500000D01*
X95755885Y-101719371D01*
X95812880Y-101932076D01*
X95846983Y-102005211D01*
X95903618Y-102126666D01*
X95903621Y-102126671D01*
X95905944Y-102131653D01*
X95909100Y-102136160D01*
X95909101Y-102136162D01*
X96027357Y-102305048D01*
X96032251Y-102312038D01*
X96187962Y-102467749D01*
X96192471Y-102470906D01*
X96196496Y-102474284D01*
X96235819Y-102533395D01*
X96241500Y-102570802D01*
X96241500Y-103532930D01*
X96240067Y-103551880D01*
X96236801Y-103573349D01*
X96237394Y-103580641D01*
X96237394Y-103580644D01*
X96241085Y-103626018D01*
X96241500Y-103636233D01*
X96241500Y-103644293D01*
X96241925Y-103647937D01*
X96244789Y-103672507D01*
X96245222Y-103676882D01*
X96251140Y-103749637D01*
X96253396Y-103756601D01*
X96254587Y-103762560D01*
X96255971Y-103768415D01*
X96256818Y-103775681D01*
X96281735Y-103844327D01*
X96283152Y-103848455D01*
X96305649Y-103917899D01*
X96309445Y-103924154D01*
X96311951Y-103929628D01*
X96314670Y-103935058D01*
X96317167Y-103941937D01*
X96321180Y-103948057D01*
X96321180Y-103948058D01*
X96357186Y-104002976D01*
X96359523Y-104006680D01*
X96397405Y-104069107D01*
X96401121Y-104073315D01*
X96401122Y-104073316D01*
X96404803Y-104077484D01*
X96404776Y-104077508D01*
X96407429Y-104080500D01*
X96410132Y-104083733D01*
X96414144Y-104089852D01*
X96419456Y-104094884D01*
X96470383Y-104143128D01*
X96472825Y-104145506D01*
X97416230Y-105088911D01*
X97428616Y-105103323D01*
X97437149Y-105114918D01*
X97437154Y-105114923D01*
X97441492Y-105120818D01*
X97447070Y-105125557D01*
X97447073Y-105125560D01*
X97481768Y-105155035D01*
X97489284Y-105161965D01*
X97494980Y-105167661D01*
X97497841Y-105169924D01*
X97497846Y-105169929D01*
X97517266Y-105185293D01*
X97520667Y-105188082D01*
X97576285Y-105235333D01*
X97582805Y-105238662D01*
X97587852Y-105242028D01*
X97592976Y-105245193D01*
X97598717Y-105249735D01*
X97605348Y-105252834D01*
X97605351Y-105252836D01*
X97652723Y-105274976D01*
X97660949Y-105278820D01*
X97664830Y-105280634D01*
X97668776Y-105282562D01*
X97733808Y-105315769D01*
X97740914Y-105317508D01*
X97746564Y-105319609D01*
X97752321Y-105321524D01*
X97758950Y-105324622D01*
X97830435Y-105339491D01*
X97834701Y-105340457D01*
X97905610Y-105357808D01*
X97911212Y-105358156D01*
X97911215Y-105358156D01*
X97916764Y-105358500D01*
X97916762Y-105358535D01*
X97920734Y-105358775D01*
X97924955Y-105359152D01*
X97932115Y-105360641D01*
X98009542Y-105358546D01*
X98012950Y-105358500D01*
X112332930Y-105358500D01*
X112351880Y-105359933D01*
X112366115Y-105362099D01*
X112366119Y-105362099D01*
X112373349Y-105363199D01*
X112380641Y-105362606D01*
X112380644Y-105362606D01*
X112426018Y-105358915D01*
X112436233Y-105358500D01*
X112444293Y-105358500D01*
X112461680Y-105356473D01*
X112472507Y-105355211D01*
X112476882Y-105354778D01*
X112542339Y-105349454D01*
X112542342Y-105349453D01*
X112549637Y-105348860D01*
X112556601Y-105346604D01*
X112562560Y-105345413D01*
X112568415Y-105344029D01*
X112575681Y-105343182D01*
X112644327Y-105318265D01*
X112648455Y-105316848D01*
X112710936Y-105296607D01*
X112710938Y-105296606D01*
X112717899Y-105294351D01*
X112724154Y-105290555D01*
X112729628Y-105288049D01*
X112735058Y-105285330D01*
X112741937Y-105282833D01*
X112787690Y-105252836D01*
X112802976Y-105242814D01*
X112806680Y-105240477D01*
X112869107Y-105202595D01*
X112877484Y-105195197D01*
X112877508Y-105195224D01*
X112880500Y-105192571D01*
X112883733Y-105189868D01*
X112889852Y-105185856D01*
X112943128Y-105129617D01*
X112945506Y-105127175D01*
X119284781Y-98787900D01*
X138366500Y-98787900D01*
X138366837Y-98791146D01*
X138366837Y-98791150D01*
X138375819Y-98877713D01*
X138377474Y-98893666D01*
X138379655Y-98900202D01*
X138379655Y-98900204D01*
X138391952Y-98937061D01*
X138433450Y-99061446D01*
X138526522Y-99211848D01*
X138651697Y-99336805D01*
X138657927Y-99340645D01*
X138657928Y-99340646D01*
X138795090Y-99425194D01*
X138802262Y-99429615D01*
X138882005Y-99456064D01*
X138963611Y-99483132D01*
X138963613Y-99483132D01*
X138970139Y-99485297D01*
X138976975Y-99485997D01*
X138976978Y-99485998D01*
X139020031Y-99490409D01*
X139074600Y-99496000D01*
X140125400Y-99496000D01*
X140128646Y-99495663D01*
X140128650Y-99495663D01*
X140224308Y-99485738D01*
X140224312Y-99485737D01*
X140231166Y-99485026D01*
X140237702Y-99482845D01*
X140237704Y-99482845D01*
X140387457Y-99432883D01*
X140398946Y-99429050D01*
X140549348Y-99335978D01*
X140674305Y-99210803D01*
X140677261Y-99206007D01*
X140734614Y-99165345D01*
X140775578Y-99158500D01*
X143489982Y-99158500D01*
X143558103Y-99178502D01*
X143607174Y-99238218D01*
X143647625Y-99340646D01*
X143653776Y-99356221D01*
X143656543Y-99360780D01*
X143656544Y-99360783D01*
X143744149Y-99505151D01*
X143773377Y-99553317D01*
X143776874Y-99557347D01*
X143890720Y-99688543D01*
X143924477Y-99727445D01*
X143942228Y-99742000D01*
X144098627Y-99870240D01*
X144098633Y-99870244D01*
X144102755Y-99873624D01*
X144134250Y-99891552D01*
X144183555Y-99942632D01*
X144197417Y-100012262D01*
X144171434Y-100078333D01*
X144142284Y-100105573D01*
X144020681Y-100187441D01*
X143853865Y-100346576D01*
X143716246Y-100531542D01*
X143713830Y-100536293D01*
X143713828Y-100536297D01*
X143673412Y-100615791D01*
X143611760Y-100737051D01*
X143610178Y-100742145D01*
X143610177Y-100742148D01*
X143572391Y-100863838D01*
X143543393Y-100957227D01*
X143542692Y-100962516D01*
X143523530Y-101107098D01*
X143513102Y-101185774D01*
X143513302Y-101191103D01*
X143513302Y-101191105D01*
X143514845Y-101232193D01*
X143521751Y-101416158D01*
X143569093Y-101641791D01*
X143571051Y-101646750D01*
X143571052Y-101646752D01*
X143643636Y-101830544D01*
X143653776Y-101856221D01*
X143656543Y-101860780D01*
X143656544Y-101860783D01*
X143707255Y-101944351D01*
X143773377Y-102053317D01*
X143776874Y-102057347D01*
X143863438Y-102157103D01*
X143924477Y-102227445D01*
X143960120Y-102256670D01*
X144000114Y-102315329D01*
X144002046Y-102386299D01*
X143965302Y-102447048D01*
X143946532Y-102461248D01*
X143823150Y-102537600D01*
X143800652Y-102551522D01*
X143675695Y-102676697D01*
X143671855Y-102682927D01*
X143671854Y-102682928D01*
X143600712Y-102798342D01*
X143582885Y-102827262D01*
X143556436Y-102907005D01*
X143541702Y-102951427D01*
X143527203Y-102995139D01*
X143516500Y-103099600D01*
X143516500Y-104400400D01*
X143516837Y-104403646D01*
X143516837Y-104403650D01*
X143526300Y-104494849D01*
X143527474Y-104506166D01*
X143529655Y-104512702D01*
X143529655Y-104512704D01*
X143541585Y-104548462D01*
X143583450Y-104673946D01*
X143676522Y-104824348D01*
X143801697Y-104949305D01*
X143807927Y-104953145D01*
X143807928Y-104953146D01*
X143945090Y-105037694D01*
X143952262Y-105042115D01*
X144018337Y-105064031D01*
X144113611Y-105095632D01*
X144113613Y-105095632D01*
X144120139Y-105097797D01*
X144126975Y-105098497D01*
X144126978Y-105098498D01*
X144170031Y-105102909D01*
X144224600Y-105108500D01*
X145775400Y-105108500D01*
X145778646Y-105108163D01*
X145778650Y-105108163D01*
X145874308Y-105098238D01*
X145874312Y-105098237D01*
X145881166Y-105097526D01*
X145887702Y-105095345D01*
X145887704Y-105095345D01*
X146019806Y-105051272D01*
X146048946Y-105041550D01*
X146199348Y-104948478D01*
X146324305Y-104823303D01*
X146331526Y-104811588D01*
X146413275Y-104678968D01*
X146413276Y-104678966D01*
X146417115Y-104672738D01*
X146458335Y-104548462D01*
X146470632Y-104511389D01*
X146470632Y-104511387D01*
X146472797Y-104504861D01*
X146483500Y-104400400D01*
X146483500Y-103099600D01*
X146480264Y-103068412D01*
X146473238Y-103000692D01*
X146473237Y-103000688D01*
X146472526Y-102993834D01*
X146467161Y-102977751D01*
X146418868Y-102833002D01*
X146416550Y-102826054D01*
X146323478Y-102675652D01*
X146198303Y-102550695D01*
X146052660Y-102460919D01*
X146005168Y-102408148D01*
X145993744Y-102338076D01*
X146022018Y-102272952D01*
X146031805Y-102262490D01*
X146078385Y-102218054D01*
X146146135Y-102153424D01*
X146283754Y-101968458D01*
X146322826Y-101891610D01*
X146343342Y-101851256D01*
X146388240Y-101762949D01*
X146401772Y-101719371D01*
X146455024Y-101547871D01*
X146456607Y-101542773D01*
X146463002Y-101494525D01*
X146486198Y-101319511D01*
X146486198Y-101319506D01*
X146486898Y-101314226D01*
X146486541Y-101304702D01*
X146478820Y-101099062D01*
X146478249Y-101083842D01*
X146430907Y-100858209D01*
X146428446Y-100851978D01*
X146348185Y-100648744D01*
X146348184Y-100648742D01*
X146346224Y-100643779D01*
X146337237Y-100628968D01*
X146252072Y-100488621D01*
X146226623Y-100446683D01*
X146189253Y-100403618D01*
X146079023Y-100276588D01*
X146079021Y-100276586D01*
X146075523Y-100272555D01*
X146031786Y-100236693D01*
X145901373Y-100129760D01*
X145901367Y-100129756D01*
X145897245Y-100126376D01*
X145865750Y-100108448D01*
X145816445Y-100057368D01*
X145802583Y-99987738D01*
X145828566Y-99921667D01*
X145857716Y-99894427D01*
X145893642Y-99870240D01*
X145979319Y-99812559D01*
X145983454Y-99808615D01*
X146056262Y-99739159D01*
X146146135Y-99653424D01*
X146183763Y-99602851D01*
X146253241Y-99509469D01*
X146283754Y-99468458D01*
X146301224Y-99434098D01*
X146359393Y-99319686D01*
X146388240Y-99262949D01*
X146395920Y-99238218D01*
X146452966Y-99054498D01*
X146456607Y-99042773D01*
X146458761Y-99026522D01*
X146486198Y-98819511D01*
X146486198Y-98819506D01*
X146486898Y-98814226D01*
X146478249Y-98583842D01*
X146472131Y-98554681D01*
X146432002Y-98363428D01*
X146430907Y-98358209D01*
X146400269Y-98280629D01*
X146348185Y-98148744D01*
X146348184Y-98148742D01*
X146346224Y-98143779D01*
X146338728Y-98131425D01*
X146253955Y-97991724D01*
X146226623Y-97946683D01*
X146198677Y-97914478D01*
X146079023Y-97776588D01*
X146079021Y-97776586D01*
X146075523Y-97772555D01*
X145977856Y-97692473D01*
X145901373Y-97629760D01*
X145901367Y-97629756D01*
X145897245Y-97626376D01*
X145888676Y-97621498D01*
X145865265Y-97608171D01*
X145815959Y-97557088D01*
X145802098Y-97487458D01*
X145828082Y-97421387D01*
X145857232Y-97394149D01*
X145974578Y-97315148D01*
X145982870Y-97308481D01*
X146141900Y-97156772D01*
X146148941Y-97148814D01*
X146280141Y-96972475D01*
X146285745Y-96963438D01*
X146385357Y-96767516D01*
X146389357Y-96757665D01*
X146454534Y-96547760D01*
X146456817Y-96537376D01*
X146458861Y-96521957D01*
X146456665Y-96507793D01*
X146443478Y-96504000D01*
X143558808Y-96504000D01*
X143545277Y-96507973D01*
X143543752Y-96518580D01*
X143568477Y-96636421D01*
X143571537Y-96646617D01*
X143652263Y-96851029D01*
X143656994Y-96860561D01*
X143771016Y-97048462D01*
X143777280Y-97057052D01*
X143921327Y-97223052D01*
X143928958Y-97230472D01*
X144098911Y-97369826D01*
X144107674Y-97375848D01*
X144134711Y-97391238D01*
X144184018Y-97442320D01*
X144197880Y-97511951D01*
X144171897Y-97578022D01*
X144142749Y-97605260D01*
X144120825Y-97620020D01*
X144050458Y-97641500D01*
X140775590Y-97641500D01*
X140707469Y-97621498D01*
X140677086Y-97593982D01*
X140673478Y-97588152D01*
X140548303Y-97463195D01*
X140543765Y-97460398D01*
X140503176Y-97403147D01*
X140499946Y-97332224D01*
X140535572Y-97270813D01*
X140544068Y-97263438D01*
X140554207Y-97255402D01*
X140668739Y-97140671D01*
X140677751Y-97129260D01*
X140762816Y-96991257D01*
X140768963Y-96978076D01*
X140820138Y-96823790D01*
X140823005Y-96810414D01*
X140832672Y-96716062D01*
X140833000Y-96709646D01*
X140833000Y-96597115D01*
X140828525Y-96581876D01*
X140827135Y-96580671D01*
X140819452Y-96579000D01*
X138385116Y-96579000D01*
X138369877Y-96583475D01*
X138368672Y-96584865D01*
X138367001Y-96592548D01*
X138367001Y-96709595D01*
X138367338Y-96716114D01*
X138377257Y-96811706D01*
X138380149Y-96825100D01*
X138431588Y-96979284D01*
X138437761Y-96992462D01*
X138523063Y-97130307D01*
X138532099Y-97141708D01*
X138646828Y-97256238D01*
X138655762Y-97263294D01*
X138696823Y-97321212D01*
X138700053Y-97392135D01*
X138664426Y-97453546D01*
X138656593Y-97460346D01*
X138650652Y-97464022D01*
X138525695Y-97589197D01*
X138521855Y-97595427D01*
X138521854Y-97595428D01*
X138498897Y-97632672D01*
X138432885Y-97739762D01*
X138406436Y-97819505D01*
X138390236Y-97868347D01*
X138377203Y-97907639D01*
X138366500Y-98012100D01*
X138366500Y-98787900D01*
X119284781Y-98787900D01*
X121150586Y-96922095D01*
X130029501Y-96922095D01*
X130029838Y-96928614D01*
X130039757Y-97024206D01*
X130042649Y-97037600D01*
X130094088Y-97191784D01*
X130100261Y-97204962D01*
X130185563Y-97342807D01*
X130194599Y-97354208D01*
X130309329Y-97468739D01*
X130320740Y-97477751D01*
X130458743Y-97562816D01*
X130471924Y-97568963D01*
X130626210Y-97620138D01*
X130639586Y-97623005D01*
X130733938Y-97632672D01*
X130740354Y-97633000D01*
X130852885Y-97633000D01*
X130868124Y-97628525D01*
X130869329Y-97627135D01*
X130871000Y-97619452D01*
X130871000Y-96672115D01*
X130866525Y-96656876D01*
X130865135Y-96655671D01*
X130857452Y-96654000D01*
X130047616Y-96654000D01*
X130032377Y-96658475D01*
X130031172Y-96659865D01*
X130029501Y-96667548D01*
X130029501Y-96922095D01*
X121150586Y-96922095D01*
X121944796Y-96127885D01*
X130029500Y-96127885D01*
X130033975Y-96143124D01*
X130035365Y-96144329D01*
X130043048Y-96146000D01*
X130852885Y-96146000D01*
X130868124Y-96141525D01*
X130869329Y-96140135D01*
X130871000Y-96132452D01*
X130871000Y-95185116D01*
X130866525Y-95169877D01*
X130865135Y-95168672D01*
X130857452Y-95167001D01*
X130740405Y-95167001D01*
X130733886Y-95167338D01*
X130638294Y-95177257D01*
X130624900Y-95180149D01*
X130470716Y-95231588D01*
X130457538Y-95237761D01*
X130319693Y-95323063D01*
X130308292Y-95332099D01*
X130193761Y-95446829D01*
X130184749Y-95458240D01*
X130099684Y-95596243D01*
X130093537Y-95609424D01*
X130042362Y-95763710D01*
X130039495Y-95777086D01*
X130029828Y-95871438D01*
X130029500Y-95877855D01*
X130029500Y-96127885D01*
X121944796Y-96127885D01*
X122988911Y-95083770D01*
X123003323Y-95071384D01*
X123014918Y-95062851D01*
X123014923Y-95062846D01*
X123020818Y-95058508D01*
X123025557Y-95052930D01*
X123025560Y-95052927D01*
X123055035Y-95018232D01*
X123061965Y-95010716D01*
X123067660Y-95005021D01*
X123085281Y-94982749D01*
X123088072Y-94979345D01*
X123130591Y-94929297D01*
X123130592Y-94929295D01*
X123135333Y-94923715D01*
X123138661Y-94917199D01*
X123142028Y-94912150D01*
X123145195Y-94907021D01*
X123149734Y-94901284D01*
X123180655Y-94835125D01*
X123182561Y-94831225D01*
X123215769Y-94766192D01*
X123217508Y-94759084D01*
X123219607Y-94753441D01*
X123221524Y-94747678D01*
X123224622Y-94741050D01*
X123239487Y-94669583D01*
X123240457Y-94665299D01*
X123256473Y-94599845D01*
X123257808Y-94594390D01*
X123258500Y-94583236D01*
X123258536Y-94583238D01*
X123258775Y-94579245D01*
X123259149Y-94575053D01*
X123260640Y-94567885D01*
X123258546Y-94490479D01*
X123258500Y-94487072D01*
X123258500Y-91587538D01*
X123278502Y-91519417D01*
X123332158Y-91472924D01*
X123344624Y-91468014D01*
X123405653Y-91447653D01*
X123423946Y-91441550D01*
X123574348Y-91348478D01*
X123699305Y-91223303D01*
X123703146Y-91217072D01*
X123788275Y-91078968D01*
X123788276Y-91078966D01*
X123792115Y-91072738D01*
X123847797Y-90904861D01*
X123848578Y-90897245D01*
X123855294Y-90831692D01*
X123858500Y-90800400D01*
X123858500Y-90270193D01*
X129649410Y-90270193D01*
X129656124Y-90349325D01*
X129657914Y-90359797D01*
X129713130Y-90572535D01*
X129716665Y-90582575D01*
X129806937Y-90782970D01*
X129812106Y-90792256D01*
X129934850Y-90974575D01*
X129941519Y-90982870D01*
X130093228Y-91141900D01*
X130101186Y-91148941D01*
X130277525Y-91280141D01*
X130286562Y-91285745D01*
X130482484Y-91385357D01*
X130492335Y-91389357D01*
X130702240Y-91454534D01*
X130712624Y-91456817D01*
X130728043Y-91458861D01*
X130742207Y-91456665D01*
X130746000Y-91443478D01*
X130746000Y-91441192D01*
X131254000Y-91441192D01*
X131257973Y-91454723D01*
X131268580Y-91456248D01*
X131386421Y-91431523D01*
X131396617Y-91428463D01*
X131601029Y-91347737D01*
X131610561Y-91343006D01*
X131798462Y-91228984D01*
X131807052Y-91222720D01*
X131973052Y-91078673D01*
X131980472Y-91071042D01*
X132119826Y-90901089D01*
X132125848Y-90892326D01*
X132141238Y-90865289D01*
X132192320Y-90815982D01*
X132261951Y-90802120D01*
X132328022Y-90828103D01*
X132355261Y-90857253D01*
X132420020Y-90953443D01*
X132441500Y-91023810D01*
X132441500Y-95224410D01*
X132421498Y-95292531D01*
X132393982Y-95322914D01*
X132388152Y-95326522D01*
X132263195Y-95451697D01*
X132260398Y-95456235D01*
X132203147Y-95496824D01*
X132132224Y-95500054D01*
X132070813Y-95464428D01*
X132063438Y-95455932D01*
X132055402Y-95445793D01*
X131940671Y-95331261D01*
X131929260Y-95322249D01*
X131791257Y-95237184D01*
X131778076Y-95231037D01*
X131623790Y-95179862D01*
X131610414Y-95176995D01*
X131516062Y-95167328D01*
X131509645Y-95167000D01*
X131397115Y-95167000D01*
X131381876Y-95171475D01*
X131380671Y-95172865D01*
X131379000Y-95180548D01*
X131379000Y-97614884D01*
X131383475Y-97630123D01*
X131384865Y-97631328D01*
X131392548Y-97632999D01*
X131509595Y-97632999D01*
X131516114Y-97632662D01*
X131611706Y-97622743D01*
X131625100Y-97619851D01*
X131779284Y-97568412D01*
X131792462Y-97562239D01*
X131930307Y-97476937D01*
X131941708Y-97467901D01*
X132056238Y-97353172D01*
X132063294Y-97344238D01*
X132121212Y-97303177D01*
X132192135Y-97299947D01*
X132253546Y-97335574D01*
X132260346Y-97343407D01*
X132264022Y-97349348D01*
X132389197Y-97474305D01*
X132395427Y-97478145D01*
X132395428Y-97478146D01*
X132532788Y-97562816D01*
X132539762Y-97567115D01*
X132558120Y-97573204D01*
X132701111Y-97620632D01*
X132701113Y-97620632D01*
X132707639Y-97622797D01*
X132714475Y-97623497D01*
X132714478Y-97623498D01*
X132757531Y-97627909D01*
X132812100Y-97633500D01*
X133587900Y-97633500D01*
X133591146Y-97633163D01*
X133591150Y-97633163D01*
X133686808Y-97623238D01*
X133686812Y-97623237D01*
X133693666Y-97622526D01*
X133700202Y-97620345D01*
X133700204Y-97620345D01*
X133841502Y-97573204D01*
X133861446Y-97566550D01*
X134011848Y-97473478D01*
X134021311Y-97463999D01*
X134131634Y-97353483D01*
X134136805Y-97348303D01*
X134146716Y-97332224D01*
X134225775Y-97203968D01*
X134225776Y-97203966D01*
X134229615Y-97197738D01*
X134276278Y-97057052D01*
X134283132Y-97036389D01*
X134283132Y-97036387D01*
X134285297Y-97029861D01*
X134288428Y-96999308D01*
X134292103Y-96963438D01*
X134296000Y-96925400D01*
X134296000Y-96052885D01*
X138367000Y-96052885D01*
X138371475Y-96068124D01*
X138372865Y-96069329D01*
X138380548Y-96071000D01*
X139327885Y-96071000D01*
X139343124Y-96066525D01*
X139344329Y-96065135D01*
X139346000Y-96057452D01*
X139346000Y-96052885D01*
X139854000Y-96052885D01*
X139858475Y-96068124D01*
X139859865Y-96069329D01*
X139867548Y-96071000D01*
X140814884Y-96071000D01*
X140830123Y-96066525D01*
X140831328Y-96065135D01*
X140832999Y-96057452D01*
X140832999Y-95978043D01*
X143541139Y-95978043D01*
X143543335Y-95992207D01*
X143556522Y-95996000D01*
X144727885Y-95996000D01*
X144743124Y-95991525D01*
X144744329Y-95990135D01*
X144746000Y-95982452D01*
X144746000Y-95977885D01*
X145254000Y-95977885D01*
X145258475Y-95993124D01*
X145259865Y-95994329D01*
X145267548Y-95996000D01*
X146441192Y-95996000D01*
X146454723Y-95992027D01*
X146456248Y-95981420D01*
X146431523Y-95863579D01*
X146428463Y-95853383D01*
X146347737Y-95648971D01*
X146343006Y-95639439D01*
X146228984Y-95451538D01*
X146222720Y-95442948D01*
X146078673Y-95276948D01*
X146071042Y-95269528D01*
X145901089Y-95130174D01*
X145892322Y-95124150D01*
X145701318Y-95015424D01*
X145691654Y-95010959D01*
X145485059Y-94935969D01*
X145474792Y-94933198D01*
X145271826Y-94896496D01*
X145258586Y-94897915D01*
X145254000Y-94912550D01*
X145254000Y-95977885D01*
X144746000Y-95977885D01*
X144746000Y-94916151D01*
X144741690Y-94901473D01*
X144729807Y-94899410D01*
X144650675Y-94906124D01*
X144640203Y-94907914D01*
X144427465Y-94963130D01*
X144417425Y-94966665D01*
X144217030Y-95056937D01*
X144207744Y-95062106D01*
X144025425Y-95184850D01*
X144017130Y-95191519D01*
X143858100Y-95343228D01*
X143851059Y-95351186D01*
X143719859Y-95527525D01*
X143714255Y-95536562D01*
X143614643Y-95732484D01*
X143610643Y-95742335D01*
X143545466Y-95952240D01*
X143543183Y-95962624D01*
X143541139Y-95978043D01*
X140832999Y-95978043D01*
X140832999Y-95940405D01*
X140832662Y-95933886D01*
X140822743Y-95838294D01*
X140819851Y-95824900D01*
X140768412Y-95670716D01*
X140762239Y-95657538D01*
X140676937Y-95519693D01*
X140667901Y-95508292D01*
X140553171Y-95393761D01*
X140541760Y-95384749D01*
X140403757Y-95299684D01*
X140390576Y-95293537D01*
X140236290Y-95242362D01*
X140222914Y-95239495D01*
X140128562Y-95229828D01*
X140122145Y-95229500D01*
X139872115Y-95229500D01*
X139856876Y-95233975D01*
X139855671Y-95235365D01*
X139854000Y-95243048D01*
X139854000Y-96052885D01*
X139346000Y-96052885D01*
X139346000Y-95247616D01*
X139341525Y-95232377D01*
X139340135Y-95231172D01*
X139332452Y-95229501D01*
X139077905Y-95229501D01*
X139071386Y-95229838D01*
X138975794Y-95239757D01*
X138962400Y-95242649D01*
X138808216Y-95294088D01*
X138795038Y-95300261D01*
X138657193Y-95385563D01*
X138645792Y-95394599D01*
X138531261Y-95509329D01*
X138522249Y-95520740D01*
X138437184Y-95658743D01*
X138431037Y-95671924D01*
X138379862Y-95826210D01*
X138376995Y-95839586D01*
X138367328Y-95933938D01*
X138367000Y-95940355D01*
X138367000Y-96052885D01*
X134296000Y-96052885D01*
X134296000Y-95874600D01*
X134295663Y-95871350D01*
X134285738Y-95775692D01*
X134285737Y-95775688D01*
X134285026Y-95768834D01*
X134273766Y-95735082D01*
X134231368Y-95608002D01*
X134229050Y-95601054D01*
X134135978Y-95450652D01*
X134010803Y-95325695D01*
X134006007Y-95322739D01*
X133965345Y-95265386D01*
X133958500Y-95224422D01*
X133958500Y-91490272D01*
X133978502Y-91422151D01*
X134038218Y-91373080D01*
X134101256Y-91348185D01*
X134101258Y-91348184D01*
X134106221Y-91346224D01*
X134111047Y-91343296D01*
X134298757Y-91229390D01*
X134298756Y-91229390D01*
X134303317Y-91226623D01*
X134343134Y-91192072D01*
X134473412Y-91079023D01*
X134473414Y-91079021D01*
X134477445Y-91075523D01*
X134506670Y-91039880D01*
X134565329Y-90999886D01*
X134636299Y-90997954D01*
X134697048Y-91034698D01*
X134711248Y-91053468D01*
X134727028Y-91078968D01*
X134801522Y-91199348D01*
X134926697Y-91324305D01*
X134932927Y-91328145D01*
X134932928Y-91328146D01*
X135070976Y-91413240D01*
X135077262Y-91417115D01*
X135120701Y-91431523D01*
X135238611Y-91470632D01*
X135238613Y-91470632D01*
X135245139Y-91472797D01*
X135251975Y-91473497D01*
X135251978Y-91473498D01*
X135295031Y-91477909D01*
X135349600Y-91483500D01*
X136650400Y-91483500D01*
X136653646Y-91483163D01*
X136653650Y-91483163D01*
X136749308Y-91473238D01*
X136749312Y-91473237D01*
X136756166Y-91472526D01*
X136762702Y-91470345D01*
X136762704Y-91470345D01*
X136907158Y-91422151D01*
X136923946Y-91416550D01*
X137074348Y-91323478D01*
X137199305Y-91198303D01*
X137229732Y-91148941D01*
X137288275Y-91053968D01*
X137288276Y-91053966D01*
X137292115Y-91047738D01*
X137347797Y-90879861D01*
X137350106Y-90857331D01*
X137355762Y-90802120D01*
X137358500Y-90775400D01*
X137358500Y-89224600D01*
X137350696Y-89149384D01*
X137348238Y-89125692D01*
X137348237Y-89125688D01*
X137347526Y-89118834D01*
X137341474Y-89100692D01*
X137293868Y-88958002D01*
X137291550Y-88951054D01*
X137198478Y-88800652D01*
X137073303Y-88675695D01*
X137042494Y-88656704D01*
X136928968Y-88586725D01*
X136928966Y-88586724D01*
X136922738Y-88582885D01*
X136840419Y-88555581D01*
X136761389Y-88529368D01*
X136761387Y-88529368D01*
X136754861Y-88527203D01*
X136748025Y-88526503D01*
X136748022Y-88526502D01*
X136704969Y-88522091D01*
X136650400Y-88516500D01*
X135349600Y-88516500D01*
X135346354Y-88516837D01*
X135346350Y-88516837D01*
X135250692Y-88526762D01*
X135250688Y-88526763D01*
X135243834Y-88527474D01*
X135237298Y-88529655D01*
X135237296Y-88529655D01*
X135105194Y-88573728D01*
X135076054Y-88583450D01*
X134925652Y-88676522D01*
X134800695Y-88801697D01*
X134723296Y-88927262D01*
X134710920Y-88947339D01*
X134658148Y-88994832D01*
X134588076Y-89006256D01*
X134522952Y-88977982D01*
X134512490Y-88968195D01*
X134466346Y-88919824D01*
X134403424Y-88853865D01*
X134218458Y-88716246D01*
X134213707Y-88713830D01*
X134213703Y-88713828D01*
X134095588Y-88653776D01*
X134012949Y-88611760D01*
X134007855Y-88610178D01*
X134007852Y-88610177D01*
X133797871Y-88544976D01*
X133792773Y-88543393D01*
X133787484Y-88542692D01*
X133569511Y-88513802D01*
X133569506Y-88513802D01*
X133564226Y-88513102D01*
X133558897Y-88513302D01*
X133558895Y-88513302D01*
X133449034Y-88517427D01*
X133333842Y-88521751D01*
X133328623Y-88522846D01*
X133306566Y-88527474D01*
X133108209Y-88569093D01*
X133103250Y-88571051D01*
X133103248Y-88571052D01*
X132898744Y-88651815D01*
X132898742Y-88651816D01*
X132893779Y-88653776D01*
X132889220Y-88656543D01*
X132889217Y-88656544D01*
X132794113Y-88714255D01*
X132696683Y-88773377D01*
X132692653Y-88776874D01*
X132568165Y-88884899D01*
X132522555Y-88924477D01*
X132503809Y-88947339D01*
X132379760Y-89098627D01*
X132379756Y-89098633D01*
X132376376Y-89102755D01*
X132373733Y-89107398D01*
X132358171Y-89134735D01*
X132307088Y-89184041D01*
X132237458Y-89197902D01*
X132171387Y-89171918D01*
X132144149Y-89142768D01*
X132065148Y-89025422D01*
X132058481Y-89017130D01*
X131906772Y-88858100D01*
X131898814Y-88851059D01*
X131722475Y-88719859D01*
X131713438Y-88714255D01*
X131517516Y-88614643D01*
X131507665Y-88610643D01*
X131297760Y-88545466D01*
X131287376Y-88543183D01*
X131271957Y-88541139D01*
X131257793Y-88543335D01*
X131254000Y-88556522D01*
X131254000Y-91441192D01*
X130746000Y-91441192D01*
X130746000Y-90272115D01*
X130741525Y-90256876D01*
X130740135Y-90255671D01*
X130732452Y-90254000D01*
X129666151Y-90254000D01*
X129651473Y-90258310D01*
X129649410Y-90270193D01*
X123858500Y-90270193D01*
X123858500Y-89728174D01*
X129646496Y-89728174D01*
X129647915Y-89741414D01*
X129662550Y-89746000D01*
X130727885Y-89746000D01*
X130743124Y-89741525D01*
X130744329Y-89740135D01*
X130746000Y-89732452D01*
X130746000Y-88558808D01*
X130742027Y-88545277D01*
X130731420Y-88543752D01*
X130613579Y-88568477D01*
X130603383Y-88571537D01*
X130398971Y-88652263D01*
X130389439Y-88656994D01*
X130201538Y-88771016D01*
X130192948Y-88777280D01*
X130026948Y-88921327D01*
X130019528Y-88928958D01*
X129880174Y-89098911D01*
X129874150Y-89107678D01*
X129765424Y-89298682D01*
X129760959Y-89308346D01*
X129685969Y-89514941D01*
X129683198Y-89525208D01*
X129646496Y-89728174D01*
X123858500Y-89728174D01*
X123858500Y-89199600D01*
X123853290Y-89149384D01*
X123848238Y-89100692D01*
X123848237Y-89100688D01*
X123847526Y-89093834D01*
X123843710Y-89082394D01*
X123793868Y-88933002D01*
X123791550Y-88926054D01*
X123698478Y-88775652D01*
X123573303Y-88650695D01*
X123567072Y-88646854D01*
X123428968Y-88561725D01*
X123428966Y-88561724D01*
X123422738Y-88557885D01*
X123313194Y-88521551D01*
X123261389Y-88504368D01*
X123261387Y-88504368D01*
X123254861Y-88502203D01*
X123248025Y-88501503D01*
X123248022Y-88501502D01*
X123204969Y-88497091D01*
X123150400Y-88491500D01*
X121849600Y-88491500D01*
X121846354Y-88491837D01*
X121846350Y-88491837D01*
X121750692Y-88501762D01*
X121750688Y-88501763D01*
X121743834Y-88502474D01*
X121737298Y-88504655D01*
X121737296Y-88504655D01*
X121671034Y-88526762D01*
X121576054Y-88558450D01*
X121425652Y-88651522D01*
X121300695Y-88776697D01*
X121296855Y-88782927D01*
X121296854Y-88782928D01*
X121288478Y-88796517D01*
X121211544Y-88921327D01*
X121210920Y-88922339D01*
X121158148Y-88969832D01*
X121088076Y-88981256D01*
X121022952Y-88952982D01*
X121012490Y-88943195D01*
X120964494Y-88892883D01*
X120903424Y-88828865D01*
X120865505Y-88800652D01*
X120722740Y-88694432D01*
X120722741Y-88694432D01*
X120718458Y-88691246D01*
X120713707Y-88688830D01*
X120713703Y-88688828D01*
X120591731Y-88626815D01*
X120512949Y-88586760D01*
X120507855Y-88585178D01*
X120507852Y-88585177D01*
X120297871Y-88519976D01*
X120292773Y-88518393D01*
X120258134Y-88513802D01*
X120069511Y-88488802D01*
X120069506Y-88488802D01*
X120064226Y-88488102D01*
X120058897Y-88488302D01*
X120058895Y-88488302D01*
X119949034Y-88492427D01*
X119833842Y-88496751D01*
X119828623Y-88497846D01*
X119806566Y-88502474D01*
X119608209Y-88544093D01*
X119603250Y-88546051D01*
X119603248Y-88546052D01*
X119398744Y-88626815D01*
X119398742Y-88626816D01*
X119393779Y-88628776D01*
X119389220Y-88631543D01*
X119389217Y-88631544D01*
X119291306Y-88690958D01*
X119196683Y-88748377D01*
X119192653Y-88751874D01*
X119039355Y-88884899D01*
X119022555Y-88899477D01*
X119004926Y-88920977D01*
X118879760Y-89073627D01*
X118879756Y-89073633D01*
X118876376Y-89077755D01*
X118873737Y-89082391D01*
X118873735Y-89082394D01*
X118843941Y-89134735D01*
X118762325Y-89278114D01*
X118683663Y-89494825D01*
X118682714Y-89500074D01*
X118682713Y-89500077D01*
X118643377Y-89717608D01*
X118643376Y-89717615D01*
X118642639Y-89721692D01*
X118641500Y-89745844D01*
X118641500Y-90207890D01*
X118646950Y-90272115D01*
X118654390Y-90359797D01*
X118656080Y-90379720D01*
X118657418Y-90384875D01*
X118657419Y-90384881D01*
X118684905Y-90490778D01*
X118713999Y-90602872D01*
X118716191Y-90607738D01*
X118716192Y-90607741D01*
X118782360Y-90754629D01*
X118808688Y-90813075D01*
X118937441Y-91004319D01*
X118941120Y-91008176D01*
X118941122Y-91008178D01*
X119001092Y-91071042D01*
X119096576Y-91171135D01*
X119100854Y-91174318D01*
X119140053Y-91203483D01*
X119281542Y-91308754D01*
X119286293Y-91311170D01*
X119286297Y-91311172D01*
X119349481Y-91343296D01*
X119487051Y-91413240D01*
X119492145Y-91414822D01*
X119492148Y-91414823D01*
X119633973Y-91458861D01*
X119707227Y-91481607D01*
X119712516Y-91482308D01*
X119930489Y-91511198D01*
X119930494Y-91511198D01*
X119935774Y-91511898D01*
X119941103Y-91511698D01*
X119941105Y-91511698D01*
X120050966Y-91507574D01*
X120166158Y-91503249D01*
X120391791Y-91455907D01*
X120396750Y-91453949D01*
X120396752Y-91453948D01*
X120601256Y-91373185D01*
X120601258Y-91373184D01*
X120606221Y-91371224D01*
X120642343Y-91349305D01*
X120798757Y-91254390D01*
X120798756Y-91254390D01*
X120803317Y-91251623D01*
X120843134Y-91217072D01*
X120973412Y-91104023D01*
X120973414Y-91104021D01*
X120977445Y-91100523D01*
X121006670Y-91064880D01*
X121065329Y-91024886D01*
X121136299Y-91022954D01*
X121197048Y-91059698D01*
X121211248Y-91078468D01*
X121266206Y-91167278D01*
X121301522Y-91224348D01*
X121426697Y-91349305D01*
X121432927Y-91353145D01*
X121432928Y-91353146D01*
X121570090Y-91437694D01*
X121577262Y-91442115D01*
X121627750Y-91458861D01*
X121655167Y-91467955D01*
X121713527Y-91508386D01*
X121740764Y-91573950D01*
X121741500Y-91587548D01*
X121741500Y-94133629D01*
X121721498Y-94201750D01*
X121704595Y-94222724D01*
X112122724Y-103804595D01*
X112060412Y-103838621D01*
X112033629Y-103841500D01*
X98366371Y-103841500D01*
X98298250Y-103821498D01*
X98277276Y-103804595D01*
X97795405Y-103322724D01*
X97761379Y-103260412D01*
X97758500Y-103233629D01*
X97758500Y-102570802D01*
X97778502Y-102502681D01*
X97803504Y-102474284D01*
X97807529Y-102470906D01*
X97812038Y-102467749D01*
X97967749Y-102312038D01*
X97972644Y-102305048D01*
X98090899Y-102136162D01*
X98090900Y-102136160D01*
X98094056Y-102131653D01*
X98096379Y-102126671D01*
X98096382Y-102126666D01*
X98153017Y-102005211D01*
X98187120Y-101932076D01*
X98244115Y-101719371D01*
X98263307Y-101500000D01*
X98736693Y-101500000D01*
X98755885Y-101719371D01*
X98812880Y-101932076D01*
X98846983Y-102005211D01*
X98903618Y-102126666D01*
X98903621Y-102126671D01*
X98905944Y-102131653D01*
X98909100Y-102136160D01*
X98909101Y-102136162D01*
X99027357Y-102305048D01*
X99032251Y-102312038D01*
X99187962Y-102467749D01*
X99192471Y-102470906D01*
X99192473Y-102470908D01*
X99204774Y-102479521D01*
X99368346Y-102594056D01*
X99567924Y-102687120D01*
X99780629Y-102744115D01*
X100000000Y-102763307D01*
X100219371Y-102744115D01*
X100432076Y-102687120D01*
X100631654Y-102594056D01*
X100795226Y-102479521D01*
X100807527Y-102470908D01*
X100807529Y-102470906D01*
X100812038Y-102467749D01*
X100967749Y-102312038D01*
X100972644Y-102305048D01*
X101090899Y-102136162D01*
X101090900Y-102136160D01*
X101094056Y-102131653D01*
X101096379Y-102126671D01*
X101096382Y-102126666D01*
X101153017Y-102005211D01*
X101187120Y-101932076D01*
X101244115Y-101719371D01*
X101263307Y-101500000D01*
X101736693Y-101500000D01*
X101755885Y-101719371D01*
X101812880Y-101932076D01*
X101846983Y-102005211D01*
X101903618Y-102126666D01*
X101903621Y-102126671D01*
X101905944Y-102131653D01*
X101909100Y-102136160D01*
X101909101Y-102136162D01*
X102027357Y-102305048D01*
X102032251Y-102312038D01*
X102187962Y-102467749D01*
X102192471Y-102470906D01*
X102192473Y-102470908D01*
X102204774Y-102479521D01*
X102368346Y-102594056D01*
X102567924Y-102687120D01*
X102780629Y-102744115D01*
X103000000Y-102763307D01*
X103219371Y-102744115D01*
X103432076Y-102687120D01*
X103631654Y-102594056D01*
X103795226Y-102479521D01*
X103807527Y-102470908D01*
X103807529Y-102470906D01*
X103812038Y-102467749D01*
X103967749Y-102312038D01*
X103972644Y-102305048D01*
X104090899Y-102136162D01*
X104090900Y-102136160D01*
X104094056Y-102131653D01*
X104096379Y-102126671D01*
X104096382Y-102126666D01*
X104153017Y-102005211D01*
X104187120Y-101932076D01*
X104244115Y-101719371D01*
X104263307Y-101500000D01*
X104736693Y-101500000D01*
X104755885Y-101719371D01*
X104812880Y-101932076D01*
X104846983Y-102005211D01*
X104903618Y-102126666D01*
X104903621Y-102126671D01*
X104905944Y-102131653D01*
X104909100Y-102136160D01*
X104909101Y-102136162D01*
X105027357Y-102305048D01*
X105032251Y-102312038D01*
X105187962Y-102467749D01*
X105192471Y-102470906D01*
X105192473Y-102470908D01*
X105204774Y-102479521D01*
X105368346Y-102594056D01*
X105567924Y-102687120D01*
X105780629Y-102744115D01*
X106000000Y-102763307D01*
X106219371Y-102744115D01*
X106432076Y-102687120D01*
X106631654Y-102594056D01*
X106795226Y-102479521D01*
X106807527Y-102470908D01*
X106807529Y-102470906D01*
X106812038Y-102467749D01*
X106967749Y-102312038D01*
X106972644Y-102305048D01*
X107090899Y-102136162D01*
X107090900Y-102136160D01*
X107094056Y-102131653D01*
X107096379Y-102126671D01*
X107096382Y-102126666D01*
X107131945Y-102050400D01*
X107741500Y-102050400D01*
X107741837Y-102053646D01*
X107741837Y-102053650D01*
X107751746Y-102149146D01*
X107752474Y-102156166D01*
X107754655Y-102162702D01*
X107754655Y-102162704D01*
X107787947Y-102262490D01*
X107808450Y-102323946D01*
X107901522Y-102474348D01*
X108026697Y-102599305D01*
X108032927Y-102603145D01*
X108032928Y-102603146D01*
X108170090Y-102687694D01*
X108177262Y-102692115D01*
X108186859Y-102695298D01*
X108338611Y-102745632D01*
X108338613Y-102745632D01*
X108345139Y-102747797D01*
X108351975Y-102748497D01*
X108351978Y-102748498D01*
X108395031Y-102752909D01*
X108449600Y-102758500D01*
X109550400Y-102758500D01*
X109553646Y-102758163D01*
X109553650Y-102758163D01*
X109649308Y-102748238D01*
X109649312Y-102748237D01*
X109656166Y-102747526D01*
X109662702Y-102745345D01*
X109662704Y-102745345D01*
X109812712Y-102695298D01*
X109823946Y-102691550D01*
X109974348Y-102598478D01*
X110099305Y-102473303D01*
X110115489Y-102447048D01*
X110188275Y-102328968D01*
X110188276Y-102328966D01*
X110192115Y-102322738D01*
X110247797Y-102154861D01*
X110249109Y-102142061D01*
X110258172Y-102053598D01*
X110258500Y-102050400D01*
X110258500Y-100949600D01*
X110254283Y-100908954D01*
X110248238Y-100850692D01*
X110248237Y-100850688D01*
X110247526Y-100843834D01*
X110218890Y-100758000D01*
X110193868Y-100683002D01*
X110191550Y-100676054D01*
X110098478Y-100525652D01*
X109973303Y-100400695D01*
X109967072Y-100396854D01*
X109828968Y-100311725D01*
X109828966Y-100311724D01*
X109822738Y-100307885D01*
X109706009Y-100269168D01*
X109661389Y-100254368D01*
X109661387Y-100254368D01*
X109654861Y-100252203D01*
X109648025Y-100251503D01*
X109648022Y-100251502D01*
X109604969Y-100247091D01*
X109550400Y-100241500D01*
X108449600Y-100241500D01*
X108446354Y-100241837D01*
X108446350Y-100241837D01*
X108350692Y-100251762D01*
X108350688Y-100251763D01*
X108343834Y-100252474D01*
X108337298Y-100254655D01*
X108337296Y-100254655D01*
X108205194Y-100298728D01*
X108176054Y-100308450D01*
X108025652Y-100401522D01*
X107900695Y-100526697D01*
X107807885Y-100677262D01*
X107802840Y-100692473D01*
X107778097Y-100767072D01*
X107752203Y-100845139D01*
X107741500Y-100949600D01*
X107741500Y-102050400D01*
X107131945Y-102050400D01*
X107153017Y-102005211D01*
X107187120Y-101932076D01*
X107244115Y-101719371D01*
X107263307Y-101500000D01*
X107244115Y-101280629D01*
X107187120Y-101067924D01*
X107120192Y-100924396D01*
X107096382Y-100873334D01*
X107096379Y-100873329D01*
X107094056Y-100868347D01*
X107090612Y-100863428D01*
X106970908Y-100692473D01*
X106970906Y-100692470D01*
X106967749Y-100687962D01*
X106812038Y-100532251D01*
X106804911Y-100527260D01*
X106688712Y-100445897D01*
X106631654Y-100405944D01*
X106432076Y-100312880D01*
X106219371Y-100255885D01*
X106000000Y-100236693D01*
X105780629Y-100255885D01*
X105567924Y-100312880D01*
X105486488Y-100350854D01*
X105373334Y-100403618D01*
X105373329Y-100403621D01*
X105368347Y-100405944D01*
X105363840Y-100409100D01*
X105363838Y-100409101D01*
X105192473Y-100529092D01*
X105192470Y-100529094D01*
X105187962Y-100532251D01*
X105032251Y-100687962D01*
X105029094Y-100692470D01*
X105029092Y-100692473D01*
X104909388Y-100863428D01*
X104905944Y-100868347D01*
X104903621Y-100873329D01*
X104903618Y-100873334D01*
X104879808Y-100924396D01*
X104812880Y-101067924D01*
X104755885Y-101280629D01*
X104736693Y-101500000D01*
X104263307Y-101500000D01*
X104244115Y-101280629D01*
X104187120Y-101067924D01*
X104120192Y-100924396D01*
X104096382Y-100873334D01*
X104096379Y-100873329D01*
X104094056Y-100868347D01*
X104090612Y-100863428D01*
X103970908Y-100692473D01*
X103970906Y-100692470D01*
X103967749Y-100687962D01*
X103812038Y-100532251D01*
X103804911Y-100527260D01*
X103688712Y-100445897D01*
X103631654Y-100405944D01*
X103432076Y-100312880D01*
X103219371Y-100255885D01*
X103000000Y-100236693D01*
X102780629Y-100255885D01*
X102567924Y-100312880D01*
X102486488Y-100350854D01*
X102373334Y-100403618D01*
X102373329Y-100403621D01*
X102368347Y-100405944D01*
X102363840Y-100409100D01*
X102363838Y-100409101D01*
X102192473Y-100529092D01*
X102192470Y-100529094D01*
X102187962Y-100532251D01*
X102032251Y-100687962D01*
X102029094Y-100692470D01*
X102029092Y-100692473D01*
X101909388Y-100863428D01*
X101905944Y-100868347D01*
X101903621Y-100873329D01*
X101903618Y-100873334D01*
X101879808Y-100924396D01*
X101812880Y-101067924D01*
X101755885Y-101280629D01*
X101736693Y-101500000D01*
X101263307Y-101500000D01*
X101244115Y-101280629D01*
X101187120Y-101067924D01*
X101120192Y-100924396D01*
X101096382Y-100873334D01*
X101096379Y-100873329D01*
X101094056Y-100868347D01*
X101090612Y-100863428D01*
X100970908Y-100692473D01*
X100970906Y-100692470D01*
X100967749Y-100687962D01*
X100812038Y-100532251D01*
X100804911Y-100527260D01*
X100688712Y-100445897D01*
X100631654Y-100405944D01*
X100432076Y-100312880D01*
X100219371Y-100255885D01*
X100000000Y-100236693D01*
X99780629Y-100255885D01*
X99567924Y-100312880D01*
X99486488Y-100350854D01*
X99373334Y-100403618D01*
X99373329Y-100403621D01*
X99368347Y-100405944D01*
X99363840Y-100409100D01*
X99363838Y-100409101D01*
X99192473Y-100529092D01*
X99192470Y-100529094D01*
X99187962Y-100532251D01*
X99032251Y-100687962D01*
X99029094Y-100692470D01*
X99029092Y-100692473D01*
X98909388Y-100863428D01*
X98905944Y-100868347D01*
X98903621Y-100873329D01*
X98903618Y-100873334D01*
X98879808Y-100924396D01*
X98812880Y-101067924D01*
X98755885Y-101280629D01*
X98736693Y-101500000D01*
X98263307Y-101500000D01*
X98244115Y-101280629D01*
X98187120Y-101067924D01*
X98120192Y-100924396D01*
X98096382Y-100873334D01*
X98096379Y-100873329D01*
X98094056Y-100868347D01*
X98090612Y-100863428D01*
X97970908Y-100692473D01*
X97970906Y-100692470D01*
X97967749Y-100687962D01*
X97812038Y-100532251D01*
X97804911Y-100527260D01*
X97688712Y-100445897D01*
X97631654Y-100405944D01*
X97432076Y-100312880D01*
X97219371Y-100255885D01*
X97000000Y-100236693D01*
X96780629Y-100255885D01*
X96567924Y-100312880D01*
X96486488Y-100350854D01*
X96373334Y-100403618D01*
X96373329Y-100403621D01*
X96368347Y-100405944D01*
X96363840Y-100409100D01*
X96363838Y-100409101D01*
X96192473Y-100529092D01*
X96192470Y-100529094D01*
X96187962Y-100532251D01*
X96032251Y-100687962D01*
X96029094Y-100692470D01*
X96029092Y-100692473D01*
X95909388Y-100863428D01*
X95905944Y-100868347D01*
X95903621Y-100873329D01*
X95903618Y-100873334D01*
X95879808Y-100924396D01*
X95812880Y-101067924D01*
X95755885Y-101280629D01*
X95736693Y-101500000D01*
X95263307Y-101500000D01*
X95244115Y-101280629D01*
X95187120Y-101067924D01*
X95120192Y-100924396D01*
X95096382Y-100873334D01*
X95096379Y-100873329D01*
X95094056Y-100868347D01*
X95090612Y-100863428D01*
X94970908Y-100692473D01*
X94970906Y-100692470D01*
X94967749Y-100687962D01*
X94812038Y-100532251D01*
X94804911Y-100527260D01*
X94688712Y-100445897D01*
X94631654Y-100405944D01*
X94432076Y-100312880D01*
X94219371Y-100255885D01*
X94000000Y-100236693D01*
X93780629Y-100255885D01*
X93567924Y-100312880D01*
X93486488Y-100350854D01*
X93373334Y-100403618D01*
X93373329Y-100403621D01*
X93368347Y-100405944D01*
X93363840Y-100409100D01*
X93363838Y-100409101D01*
X93192473Y-100529092D01*
X93192470Y-100529094D01*
X93187962Y-100532251D01*
X93032251Y-100687962D01*
X93029094Y-100692470D01*
X93029092Y-100692473D01*
X92909388Y-100863428D01*
X92905944Y-100868347D01*
X92903621Y-100873329D01*
X92903618Y-100873334D01*
X92879808Y-100924396D01*
X92812880Y-101067924D01*
X92755885Y-101280629D01*
X92736693Y-101500000D01*
X92263307Y-101500000D01*
X92244115Y-101280629D01*
X92187120Y-101067924D01*
X92120192Y-100924396D01*
X92096382Y-100873334D01*
X92096379Y-100873329D01*
X92094056Y-100868347D01*
X92090612Y-100863428D01*
X91970908Y-100692473D01*
X91970906Y-100692470D01*
X91967749Y-100687962D01*
X91812038Y-100532251D01*
X91804911Y-100527260D01*
X91688712Y-100445897D01*
X91631654Y-100405944D01*
X91432076Y-100312880D01*
X91219371Y-100255885D01*
X91000000Y-100236693D01*
X90780629Y-100255885D01*
X90567924Y-100312880D01*
X90486488Y-100350854D01*
X90373334Y-100403618D01*
X90373329Y-100403621D01*
X90368347Y-100405944D01*
X90363840Y-100409100D01*
X90363838Y-100409101D01*
X90192473Y-100529092D01*
X90192470Y-100529094D01*
X90187962Y-100532251D01*
X90032251Y-100687962D01*
X90029094Y-100692470D01*
X90029092Y-100692473D01*
X89909388Y-100863428D01*
X89905944Y-100868347D01*
X89903621Y-100873329D01*
X89903618Y-100873334D01*
X89879808Y-100924396D01*
X89812880Y-101067924D01*
X89755885Y-101280629D01*
X89736693Y-101500000D01*
X68028681Y-101500000D01*
X64081606Y-97552925D01*
X86986645Y-97552925D01*
X86988096Y-97568868D01*
X87003444Y-97737510D01*
X87004570Y-97749888D01*
X87060410Y-97939619D01*
X87063263Y-97945077D01*
X87063265Y-97945081D01*
X87096630Y-98008902D01*
X87152040Y-98114890D01*
X87275968Y-98269025D01*
X87280692Y-98272989D01*
X87283469Y-98275319D01*
X87427474Y-98396154D01*
X87432872Y-98399121D01*
X87432877Y-98399125D01*
X87531501Y-98453343D01*
X87600787Y-98491433D01*
X87606654Y-98493294D01*
X87606656Y-98493295D01*
X87783436Y-98549373D01*
X87789306Y-98551235D01*
X87943227Y-98568500D01*
X88049769Y-98568500D01*
X88052825Y-98568200D01*
X88052832Y-98568200D01*
X88111340Y-98562463D01*
X88196833Y-98554080D01*
X88202734Y-98552298D01*
X88202736Y-98552298D01*
X88276053Y-98530162D01*
X88375954Y-98500000D01*
X89736693Y-98500000D01*
X89755885Y-98719371D01*
X89812880Y-98932076D01*
X89815205Y-98937061D01*
X89903618Y-99126666D01*
X89903621Y-99126671D01*
X89905944Y-99131653D01*
X89909100Y-99136160D01*
X89909101Y-99136162D01*
X90020198Y-99294824D01*
X90032251Y-99312038D01*
X90187962Y-99467749D01*
X90192471Y-99470906D01*
X90192473Y-99470908D01*
X90214024Y-99485998D01*
X90368346Y-99594056D01*
X90567924Y-99687120D01*
X90780629Y-99744115D01*
X91000000Y-99763307D01*
X91219371Y-99744115D01*
X91432076Y-99687120D01*
X91631654Y-99594056D01*
X91785976Y-99485998D01*
X91807527Y-99470908D01*
X91807529Y-99470906D01*
X91812038Y-99467749D01*
X91967749Y-99312038D01*
X91979803Y-99294824D01*
X92090899Y-99136162D01*
X92090900Y-99136160D01*
X92094056Y-99131653D01*
X92096379Y-99126671D01*
X92096382Y-99126666D01*
X92184795Y-98937061D01*
X92187120Y-98932076D01*
X92244115Y-98719371D01*
X92263307Y-98500000D01*
X92736693Y-98500000D01*
X92755885Y-98719371D01*
X92812880Y-98932076D01*
X92815205Y-98937061D01*
X92903618Y-99126666D01*
X92903621Y-99126671D01*
X92905944Y-99131653D01*
X92909100Y-99136160D01*
X92909101Y-99136162D01*
X93020198Y-99294824D01*
X93032251Y-99312038D01*
X93187962Y-99467749D01*
X93192471Y-99470906D01*
X93192473Y-99470908D01*
X93214024Y-99485998D01*
X93368346Y-99594056D01*
X93567924Y-99687120D01*
X93780629Y-99744115D01*
X94000000Y-99763307D01*
X94219371Y-99744115D01*
X94432076Y-99687120D01*
X94631654Y-99594056D01*
X94785976Y-99485998D01*
X94807527Y-99470908D01*
X94807529Y-99470906D01*
X94812038Y-99467749D01*
X94967749Y-99312038D01*
X94979803Y-99294824D01*
X95090899Y-99136162D01*
X95090900Y-99136160D01*
X95094056Y-99131653D01*
X95096379Y-99126671D01*
X95096382Y-99126666D01*
X95184795Y-98937061D01*
X95187120Y-98932076D01*
X95244115Y-98719371D01*
X95263307Y-98500000D01*
X95736693Y-98500000D01*
X95755885Y-98719371D01*
X95812880Y-98932076D01*
X95815205Y-98937061D01*
X95903618Y-99126666D01*
X95903621Y-99126671D01*
X95905944Y-99131653D01*
X95909100Y-99136160D01*
X95909101Y-99136162D01*
X96020198Y-99294824D01*
X96032251Y-99312038D01*
X96187962Y-99467749D01*
X96192471Y-99470906D01*
X96192473Y-99470908D01*
X96214024Y-99485998D01*
X96368346Y-99594056D01*
X96567924Y-99687120D01*
X96780629Y-99744115D01*
X97000000Y-99763307D01*
X97219371Y-99744115D01*
X97432076Y-99687120D01*
X97631654Y-99594056D01*
X97785976Y-99485998D01*
X97807527Y-99470908D01*
X97807529Y-99470906D01*
X97812038Y-99467749D01*
X97967749Y-99312038D01*
X97979803Y-99294824D01*
X98090899Y-99136162D01*
X98090900Y-99136160D01*
X98094056Y-99131653D01*
X98096379Y-99126671D01*
X98096382Y-99126666D01*
X98184795Y-98937061D01*
X98187120Y-98932076D01*
X98244115Y-98719371D01*
X98263307Y-98500000D01*
X98736693Y-98500000D01*
X98755885Y-98719371D01*
X98812880Y-98932076D01*
X98815205Y-98937061D01*
X98903618Y-99126666D01*
X98903621Y-99126671D01*
X98905944Y-99131653D01*
X98909100Y-99136160D01*
X98909101Y-99136162D01*
X99020198Y-99294824D01*
X99032251Y-99312038D01*
X99187962Y-99467749D01*
X99192471Y-99470906D01*
X99192473Y-99470908D01*
X99214024Y-99485998D01*
X99368346Y-99594056D01*
X99567924Y-99687120D01*
X99780629Y-99744115D01*
X100000000Y-99763307D01*
X100219371Y-99744115D01*
X100432076Y-99687120D01*
X100631654Y-99594056D01*
X100785976Y-99485998D01*
X100807527Y-99470908D01*
X100807529Y-99470906D01*
X100812038Y-99467749D01*
X100967749Y-99312038D01*
X100979803Y-99294824D01*
X101090899Y-99136162D01*
X101090900Y-99136160D01*
X101094056Y-99131653D01*
X101096379Y-99126671D01*
X101096382Y-99126666D01*
X101184795Y-98937061D01*
X101187120Y-98932076D01*
X101244115Y-98719371D01*
X101263307Y-98500000D01*
X101736693Y-98500000D01*
X101755885Y-98719371D01*
X101812880Y-98932076D01*
X101815205Y-98937061D01*
X101903618Y-99126666D01*
X101903621Y-99126671D01*
X101905944Y-99131653D01*
X101909100Y-99136160D01*
X101909101Y-99136162D01*
X102020198Y-99294824D01*
X102032251Y-99312038D01*
X102187962Y-99467749D01*
X102192471Y-99470906D01*
X102192473Y-99470908D01*
X102214024Y-99485998D01*
X102368346Y-99594056D01*
X102567924Y-99687120D01*
X102780629Y-99744115D01*
X103000000Y-99763307D01*
X103219371Y-99744115D01*
X103432076Y-99687120D01*
X103631654Y-99594056D01*
X103785976Y-99485998D01*
X103807527Y-99470908D01*
X103807529Y-99470906D01*
X103812038Y-99467749D01*
X103967749Y-99312038D01*
X103979803Y-99294824D01*
X104090899Y-99136162D01*
X104090900Y-99136160D01*
X104094056Y-99131653D01*
X104096379Y-99126671D01*
X104096382Y-99126666D01*
X104184795Y-98937061D01*
X104187120Y-98932076D01*
X104244115Y-98719371D01*
X104263307Y-98500000D01*
X104736693Y-98500000D01*
X104755885Y-98719371D01*
X104812880Y-98932076D01*
X104815205Y-98937061D01*
X104903618Y-99126666D01*
X104903621Y-99126671D01*
X104905944Y-99131653D01*
X104909100Y-99136160D01*
X104909101Y-99136162D01*
X105020198Y-99294824D01*
X105032251Y-99312038D01*
X105187962Y-99467749D01*
X105192471Y-99470906D01*
X105192473Y-99470908D01*
X105214024Y-99485998D01*
X105368346Y-99594056D01*
X105567924Y-99687120D01*
X105780629Y-99744115D01*
X106000000Y-99763307D01*
X106219371Y-99744115D01*
X106432076Y-99687120D01*
X106631654Y-99594056D01*
X106785976Y-99485998D01*
X106807527Y-99470908D01*
X106807529Y-99470906D01*
X106812038Y-99467749D01*
X106967749Y-99312038D01*
X106979803Y-99294824D01*
X107090899Y-99136162D01*
X107090900Y-99136160D01*
X107094056Y-99131653D01*
X107096379Y-99126671D01*
X107096382Y-99126666D01*
X107184795Y-98937061D01*
X107187120Y-98932076D01*
X107244115Y-98719371D01*
X107263307Y-98500000D01*
X107736693Y-98500000D01*
X107755885Y-98719371D01*
X107812880Y-98932076D01*
X107815205Y-98937061D01*
X107903618Y-99126666D01*
X107903621Y-99126671D01*
X107905944Y-99131653D01*
X107909100Y-99136160D01*
X107909101Y-99136162D01*
X108020198Y-99294824D01*
X108032251Y-99312038D01*
X108187962Y-99467749D01*
X108192471Y-99470906D01*
X108192473Y-99470908D01*
X108214024Y-99485998D01*
X108368346Y-99594056D01*
X108567924Y-99687120D01*
X108780629Y-99744115D01*
X109000000Y-99763307D01*
X109219371Y-99744115D01*
X109432076Y-99687120D01*
X109631654Y-99594056D01*
X109785976Y-99485998D01*
X109807527Y-99470908D01*
X109807529Y-99470906D01*
X109812038Y-99467749D01*
X109967749Y-99312038D01*
X109979803Y-99294824D01*
X110090899Y-99136162D01*
X110090900Y-99136160D01*
X110094056Y-99131653D01*
X110096379Y-99126671D01*
X110096382Y-99126666D01*
X110184795Y-98937061D01*
X110187120Y-98932076D01*
X110244115Y-98719371D01*
X110263307Y-98500000D01*
X110244115Y-98280629D01*
X110187120Y-98067924D01*
X110129838Y-97945081D01*
X110096382Y-97873334D01*
X110096379Y-97873329D01*
X110094056Y-97868347D01*
X110090899Y-97863838D01*
X109970908Y-97692473D01*
X109970906Y-97692470D01*
X109967749Y-97687962D01*
X109832712Y-97552925D01*
X110986645Y-97552925D01*
X110988096Y-97568868D01*
X111003444Y-97737510D01*
X111004570Y-97749888D01*
X111060410Y-97939619D01*
X111063263Y-97945077D01*
X111063265Y-97945081D01*
X111096630Y-98008902D01*
X111152040Y-98114890D01*
X111275968Y-98269025D01*
X111280692Y-98272989D01*
X111283469Y-98275319D01*
X111427474Y-98396154D01*
X111432872Y-98399121D01*
X111432877Y-98399125D01*
X111531501Y-98453343D01*
X111600787Y-98491433D01*
X111606654Y-98493294D01*
X111606656Y-98493295D01*
X111783436Y-98549373D01*
X111789306Y-98551235D01*
X111943227Y-98568500D01*
X112049769Y-98568500D01*
X112052825Y-98568200D01*
X112052832Y-98568200D01*
X112111340Y-98562463D01*
X112196833Y-98554080D01*
X112202734Y-98552298D01*
X112202736Y-98552298D01*
X112276053Y-98530162D01*
X112386169Y-98496916D01*
X112560796Y-98404066D01*
X112647062Y-98333709D01*
X112709287Y-98282960D01*
X112709290Y-98282957D01*
X112714062Y-98279065D01*
X112718172Y-98274097D01*
X112836201Y-98131425D01*
X112836203Y-98131421D01*
X112840130Y-98126675D01*
X112934198Y-97952701D01*
X112992682Y-97763768D01*
X112995860Y-97733532D01*
X113012711Y-97573204D01*
X113012711Y-97573202D01*
X113013355Y-97567075D01*
X113004365Y-97468296D01*
X112995989Y-97376251D01*
X112995988Y-97376248D01*
X112995430Y-97370112D01*
X112990842Y-97354521D01*
X112954332Y-97230472D01*
X112939590Y-97180381D01*
X112935595Y-97172738D01*
X112861582Y-97031166D01*
X112847960Y-97005110D01*
X112724032Y-96850975D01*
X112717727Y-96845684D01*
X112675693Y-96810414D01*
X112572526Y-96723846D01*
X112567128Y-96720879D01*
X112567123Y-96720875D01*
X112404608Y-96631533D01*
X112404609Y-96631533D01*
X112399213Y-96628567D01*
X112393346Y-96626706D01*
X112393344Y-96626705D01*
X112216564Y-96570627D01*
X112216563Y-96570627D01*
X112210694Y-96568765D01*
X112056773Y-96551500D01*
X111950231Y-96551500D01*
X111947175Y-96551800D01*
X111947168Y-96551800D01*
X111888660Y-96557537D01*
X111803167Y-96565920D01*
X111797266Y-96567702D01*
X111797264Y-96567702D01*
X111759844Y-96579000D01*
X111613831Y-96623084D01*
X111439204Y-96715934D01*
X111352938Y-96786291D01*
X111290713Y-96837040D01*
X111290710Y-96837043D01*
X111285938Y-96840935D01*
X111282011Y-96845682D01*
X111282009Y-96845684D01*
X111163799Y-96988575D01*
X111163797Y-96988579D01*
X111159870Y-96993325D01*
X111065802Y-97167299D01*
X111007318Y-97356232D01*
X111006674Y-97362357D01*
X111006674Y-97362358D01*
X110987841Y-97541550D01*
X110986645Y-97552925D01*
X109832712Y-97552925D01*
X109812038Y-97532251D01*
X109631654Y-97405944D01*
X109432076Y-97312880D01*
X109219371Y-97255885D01*
X109000000Y-97236693D01*
X108780629Y-97255885D01*
X108567924Y-97312880D01*
X108491959Y-97348303D01*
X108373334Y-97403618D01*
X108373329Y-97403621D01*
X108368347Y-97405944D01*
X108363840Y-97409100D01*
X108363838Y-97409101D01*
X108192473Y-97529092D01*
X108192470Y-97529094D01*
X108187962Y-97532251D01*
X108032251Y-97687962D01*
X108029094Y-97692470D01*
X108029092Y-97692473D01*
X107909101Y-97863838D01*
X107905944Y-97868347D01*
X107903621Y-97873329D01*
X107903618Y-97873334D01*
X107870162Y-97945081D01*
X107812880Y-98067924D01*
X107755885Y-98280629D01*
X107736693Y-98500000D01*
X107263307Y-98500000D01*
X107244115Y-98280629D01*
X107187120Y-98067924D01*
X107129838Y-97945081D01*
X107096382Y-97873334D01*
X107096379Y-97873329D01*
X107094056Y-97868347D01*
X107090899Y-97863838D01*
X106970908Y-97692473D01*
X106970906Y-97692470D01*
X106967749Y-97687962D01*
X106812038Y-97532251D01*
X106631654Y-97405944D01*
X106432076Y-97312880D01*
X106219371Y-97255885D01*
X106000000Y-97236693D01*
X105780629Y-97255885D01*
X105567924Y-97312880D01*
X105491959Y-97348303D01*
X105373334Y-97403618D01*
X105373329Y-97403621D01*
X105368347Y-97405944D01*
X105363840Y-97409100D01*
X105363838Y-97409101D01*
X105192473Y-97529092D01*
X105192470Y-97529094D01*
X105187962Y-97532251D01*
X105032251Y-97687962D01*
X105029094Y-97692470D01*
X105029092Y-97692473D01*
X104909101Y-97863838D01*
X104905944Y-97868347D01*
X104903621Y-97873329D01*
X104903618Y-97873334D01*
X104870162Y-97945081D01*
X104812880Y-98067924D01*
X104755885Y-98280629D01*
X104736693Y-98500000D01*
X104263307Y-98500000D01*
X104244115Y-98280629D01*
X104187120Y-98067924D01*
X104129838Y-97945081D01*
X104096382Y-97873334D01*
X104096379Y-97873329D01*
X104094056Y-97868347D01*
X104090899Y-97863838D01*
X103970908Y-97692473D01*
X103970906Y-97692470D01*
X103967749Y-97687962D01*
X103812038Y-97532251D01*
X103631654Y-97405944D01*
X103432076Y-97312880D01*
X103219371Y-97255885D01*
X103000000Y-97236693D01*
X102780629Y-97255885D01*
X102567924Y-97312880D01*
X102491959Y-97348303D01*
X102373334Y-97403618D01*
X102373329Y-97403621D01*
X102368347Y-97405944D01*
X102363840Y-97409100D01*
X102363838Y-97409101D01*
X102192473Y-97529092D01*
X102192470Y-97529094D01*
X102187962Y-97532251D01*
X102032251Y-97687962D01*
X102029094Y-97692470D01*
X102029092Y-97692473D01*
X101909101Y-97863838D01*
X101905944Y-97868347D01*
X101903621Y-97873329D01*
X101903618Y-97873334D01*
X101870162Y-97945081D01*
X101812880Y-98067924D01*
X101755885Y-98280629D01*
X101736693Y-98500000D01*
X101263307Y-98500000D01*
X101244115Y-98280629D01*
X101187120Y-98067924D01*
X101129838Y-97945081D01*
X101096382Y-97873334D01*
X101096379Y-97873329D01*
X101094056Y-97868347D01*
X101090899Y-97863838D01*
X100970908Y-97692473D01*
X100970906Y-97692470D01*
X100967749Y-97687962D01*
X100812038Y-97532251D01*
X100631654Y-97405944D01*
X100432076Y-97312880D01*
X100219371Y-97255885D01*
X100000000Y-97236693D01*
X99780629Y-97255885D01*
X99567924Y-97312880D01*
X99491959Y-97348303D01*
X99373334Y-97403618D01*
X99373329Y-97403621D01*
X99368347Y-97405944D01*
X99363840Y-97409100D01*
X99363838Y-97409101D01*
X99192473Y-97529092D01*
X99192470Y-97529094D01*
X99187962Y-97532251D01*
X99032251Y-97687962D01*
X99029094Y-97692470D01*
X99029092Y-97692473D01*
X98909101Y-97863838D01*
X98905944Y-97868347D01*
X98903621Y-97873329D01*
X98903618Y-97873334D01*
X98870162Y-97945081D01*
X98812880Y-98067924D01*
X98755885Y-98280629D01*
X98736693Y-98500000D01*
X98263307Y-98500000D01*
X98244115Y-98280629D01*
X98187120Y-98067924D01*
X98129838Y-97945081D01*
X98096382Y-97873334D01*
X98096379Y-97873329D01*
X98094056Y-97868347D01*
X98090899Y-97863838D01*
X97970908Y-97692473D01*
X97970906Y-97692470D01*
X97967749Y-97687962D01*
X97812038Y-97532251D01*
X97631654Y-97405944D01*
X97432076Y-97312880D01*
X97219371Y-97255885D01*
X97000000Y-97236693D01*
X96780629Y-97255885D01*
X96567924Y-97312880D01*
X96491959Y-97348303D01*
X96373334Y-97403618D01*
X96373329Y-97403621D01*
X96368347Y-97405944D01*
X96363840Y-97409100D01*
X96363838Y-97409101D01*
X96192473Y-97529092D01*
X96192470Y-97529094D01*
X96187962Y-97532251D01*
X96032251Y-97687962D01*
X96029094Y-97692470D01*
X96029092Y-97692473D01*
X95909101Y-97863838D01*
X95905944Y-97868347D01*
X95903621Y-97873329D01*
X95903618Y-97873334D01*
X95870162Y-97945081D01*
X95812880Y-98067924D01*
X95755885Y-98280629D01*
X95736693Y-98500000D01*
X95263307Y-98500000D01*
X95244115Y-98280629D01*
X95187120Y-98067924D01*
X95129838Y-97945081D01*
X95096382Y-97873334D01*
X95096379Y-97873329D01*
X95094056Y-97868347D01*
X95090899Y-97863838D01*
X94970908Y-97692473D01*
X94970906Y-97692470D01*
X94967749Y-97687962D01*
X94812038Y-97532251D01*
X94631654Y-97405944D01*
X94432076Y-97312880D01*
X94219371Y-97255885D01*
X94000000Y-97236693D01*
X93780629Y-97255885D01*
X93567924Y-97312880D01*
X93491959Y-97348303D01*
X93373334Y-97403618D01*
X93373329Y-97403621D01*
X93368347Y-97405944D01*
X93363840Y-97409100D01*
X93363838Y-97409101D01*
X93192473Y-97529092D01*
X93192470Y-97529094D01*
X93187962Y-97532251D01*
X93032251Y-97687962D01*
X93029094Y-97692470D01*
X93029092Y-97692473D01*
X92909101Y-97863838D01*
X92905944Y-97868347D01*
X92903621Y-97873329D01*
X92903618Y-97873334D01*
X92870162Y-97945081D01*
X92812880Y-98067924D01*
X92755885Y-98280629D01*
X92736693Y-98500000D01*
X92263307Y-98500000D01*
X92244115Y-98280629D01*
X92187120Y-98067924D01*
X92129838Y-97945081D01*
X92096382Y-97873334D01*
X92096379Y-97873329D01*
X92094056Y-97868347D01*
X92090899Y-97863838D01*
X91970908Y-97692473D01*
X91970906Y-97692470D01*
X91967749Y-97687962D01*
X91812038Y-97532251D01*
X91631654Y-97405944D01*
X91432076Y-97312880D01*
X91219371Y-97255885D01*
X91000000Y-97236693D01*
X90780629Y-97255885D01*
X90567924Y-97312880D01*
X90491959Y-97348303D01*
X90373334Y-97403618D01*
X90373329Y-97403621D01*
X90368347Y-97405944D01*
X90363840Y-97409100D01*
X90363838Y-97409101D01*
X90192473Y-97529092D01*
X90192470Y-97529094D01*
X90187962Y-97532251D01*
X90032251Y-97687962D01*
X90029094Y-97692470D01*
X90029092Y-97692473D01*
X89909101Y-97863838D01*
X89905944Y-97868347D01*
X89903621Y-97873329D01*
X89903618Y-97873334D01*
X89870162Y-97945081D01*
X89812880Y-98067924D01*
X89755885Y-98280629D01*
X89736693Y-98500000D01*
X88375954Y-98500000D01*
X88386169Y-98496916D01*
X88560796Y-98404066D01*
X88647062Y-98333709D01*
X88709287Y-98282960D01*
X88709290Y-98282957D01*
X88714062Y-98279065D01*
X88718172Y-98274097D01*
X88836201Y-98131425D01*
X88836203Y-98131421D01*
X88840130Y-98126675D01*
X88934198Y-97952701D01*
X88992682Y-97763768D01*
X88995860Y-97733532D01*
X89012711Y-97573204D01*
X89012711Y-97573202D01*
X89013355Y-97567075D01*
X89004365Y-97468296D01*
X88995989Y-97376251D01*
X88995988Y-97376248D01*
X88995430Y-97370112D01*
X88990842Y-97354521D01*
X88954332Y-97230472D01*
X88939590Y-97180381D01*
X88935595Y-97172738D01*
X88861582Y-97031166D01*
X88847960Y-97005110D01*
X88724032Y-96850975D01*
X88717727Y-96845684D01*
X88675693Y-96810414D01*
X88572526Y-96723846D01*
X88567128Y-96720879D01*
X88567123Y-96720875D01*
X88404608Y-96631533D01*
X88404609Y-96631533D01*
X88399213Y-96628567D01*
X88393346Y-96626706D01*
X88393344Y-96626705D01*
X88216564Y-96570627D01*
X88216563Y-96570627D01*
X88210694Y-96568765D01*
X88056773Y-96551500D01*
X87950231Y-96551500D01*
X87947175Y-96551800D01*
X87947168Y-96551800D01*
X87888660Y-96557537D01*
X87803167Y-96565920D01*
X87797266Y-96567702D01*
X87797264Y-96567702D01*
X87759844Y-96579000D01*
X87613831Y-96623084D01*
X87439204Y-96715934D01*
X87352938Y-96786291D01*
X87290713Y-96837040D01*
X87290710Y-96837043D01*
X87285938Y-96840935D01*
X87282011Y-96845682D01*
X87282009Y-96845684D01*
X87163799Y-96988575D01*
X87163797Y-96988579D01*
X87159870Y-96993325D01*
X87065802Y-97167299D01*
X87007318Y-97356232D01*
X87006674Y-97362357D01*
X87006674Y-97362358D01*
X86987841Y-97541550D01*
X86986645Y-97552925D01*
X64081606Y-97552925D01*
X62289770Y-95761089D01*
X62277384Y-95746677D01*
X62268851Y-95735082D01*
X62268846Y-95735077D01*
X62264508Y-95729182D01*
X62258930Y-95724443D01*
X62258927Y-95724440D01*
X62224232Y-95694965D01*
X62216716Y-95688035D01*
X62211021Y-95682340D01*
X62204880Y-95677482D01*
X62188749Y-95664719D01*
X62185345Y-95661928D01*
X62135297Y-95619409D01*
X62135295Y-95619408D01*
X62129715Y-95614667D01*
X62123199Y-95611339D01*
X62118150Y-95607972D01*
X62113021Y-95604805D01*
X62107284Y-95600266D01*
X62041125Y-95569345D01*
X62037225Y-95567439D01*
X61972192Y-95534231D01*
X61965084Y-95532492D01*
X61959441Y-95530393D01*
X61953678Y-95528476D01*
X61947050Y-95525378D01*
X61875583Y-95510513D01*
X61871299Y-95509543D01*
X61800390Y-95492192D01*
X61794788Y-95491844D01*
X61794785Y-95491844D01*
X61789236Y-95491500D01*
X61789238Y-95491464D01*
X61785245Y-95491225D01*
X61781053Y-95490851D01*
X61773885Y-95489360D01*
X61707675Y-95491151D01*
X61696479Y-95491454D01*
X61693072Y-95491500D01*
X56562538Y-95491500D01*
X56494417Y-95471498D01*
X56447924Y-95417842D01*
X56443014Y-95405376D01*
X56418868Y-95333002D01*
X56416550Y-95326054D01*
X56323478Y-95175652D01*
X56315150Y-95167338D01*
X56203483Y-95055866D01*
X56198303Y-95050695D01*
X56133840Y-95010959D01*
X56053968Y-94961725D01*
X56053966Y-94961724D01*
X56047738Y-94957885D01*
X55944718Y-94923715D01*
X55886389Y-94904368D01*
X55886387Y-94904368D01*
X55879861Y-94902203D01*
X55873025Y-94901503D01*
X55873022Y-94901502D01*
X55829969Y-94897091D01*
X55775400Y-94891500D01*
X54224600Y-94891500D01*
X54221354Y-94891837D01*
X54221350Y-94891837D01*
X54125692Y-94901762D01*
X54125688Y-94901763D01*
X54118834Y-94902474D01*
X54112298Y-94904655D01*
X54112296Y-94904655D01*
X53980194Y-94948728D01*
X53951054Y-94958450D01*
X53800652Y-95051522D01*
X53675695Y-95176697D01*
X53671855Y-95182927D01*
X53671854Y-95182928D01*
X53599529Y-95300261D01*
X53582885Y-95327262D01*
X53574950Y-95351186D01*
X53541959Y-95450652D01*
X53527203Y-95495139D01*
X53526503Y-95501975D01*
X53526502Y-95501978D01*
X53524687Y-95519693D01*
X53516500Y-95599600D01*
X53516500Y-96900400D01*
X53516837Y-96903646D01*
X53516837Y-96903650D01*
X53526142Y-96993325D01*
X53527474Y-97006166D01*
X53529655Y-97012702D01*
X53529655Y-97012704D01*
X53568891Y-97130307D01*
X53583450Y-97173946D01*
X53676522Y-97324348D01*
X53801697Y-97449305D01*
X53807927Y-97453145D01*
X53807928Y-97453146D01*
X53820775Y-97461065D01*
X53947340Y-97539081D01*
X53994832Y-97591852D01*
X54006256Y-97661924D01*
X53977982Y-97727048D01*
X53968195Y-97737510D01*
X53940670Y-97763768D01*
X53853865Y-97846576D01*
X53716246Y-98031542D01*
X53611760Y-98237051D01*
X53610178Y-98242145D01*
X53610177Y-98242148D01*
X53563589Y-98392187D01*
X53543393Y-98457227D01*
X53542692Y-98462516D01*
X53514028Y-98678790D01*
X53513102Y-98685774D01*
X53521751Y-98916158D01*
X53569093Y-99141791D01*
X53571051Y-99146750D01*
X53571052Y-99146752D01*
X53647304Y-99339832D01*
X53653776Y-99356221D01*
X53656543Y-99360780D01*
X53656544Y-99360783D01*
X53744149Y-99505151D01*
X53773377Y-99553317D01*
X53776874Y-99557347D01*
X53890720Y-99688543D01*
X53924477Y-99727445D01*
X53942228Y-99742000D01*
X54098627Y-99870240D01*
X54098633Y-99870244D01*
X54102755Y-99873624D01*
X54134250Y-99891552D01*
X54183555Y-99942632D01*
X54197417Y-100012262D01*
X54171434Y-100078333D01*
X54142284Y-100105573D01*
X54020681Y-100187441D01*
X53853865Y-100346576D01*
X53716246Y-100531542D01*
X53713830Y-100536293D01*
X53713828Y-100536297D01*
X53673412Y-100615791D01*
X53611760Y-100737051D01*
X53610178Y-100742145D01*
X53610177Y-100742148D01*
X53572391Y-100863838D01*
X53543393Y-100957227D01*
X53542692Y-100962516D01*
X53523530Y-101107098D01*
X53513102Y-101185774D01*
X44106165Y-101185774D01*
X44059505Y-101067924D01*
X44047139Y-101036690D01*
X44003454Y-100957227D01*
X43912171Y-100791183D01*
X43912169Y-100791180D01*
X43910262Y-100787711D01*
X43743258Y-100557851D01*
X43548763Y-100350735D01*
X43544470Y-100347183D01*
X43417128Y-100241837D01*
X43329843Y-100169628D01*
X43089950Y-100017388D01*
X42832869Y-99896414D01*
X42562652Y-99808615D01*
X42283562Y-99755376D01*
X42155997Y-99747351D01*
X42032329Y-99739570D01*
X42019340Y-99738073D01*
X42017348Y-99737738D01*
X42017346Y-99737738D01*
X42012539Y-99736929D01*
X42006041Y-99736850D01*
X42004859Y-99736835D01*
X42004855Y-99736835D01*
X42000000Y-99736776D01*
X41973997Y-99740500D01*
X41972412Y-99740727D01*
X41954549Y-99742000D01*
X41049322Y-99742000D01*
X41029937Y-99740500D01*
X41015142Y-99738196D01*
X41015139Y-99738196D01*
X41006270Y-99736815D01*
X40997368Y-99737979D01*
X40997367Y-99737979D01*
X40995941Y-99738166D01*
X40991042Y-99738806D01*
X40965721Y-99739549D01*
X40843844Y-99730832D01*
X40796657Y-99727457D01*
X40778863Y-99724898D01*
X40588459Y-99683478D01*
X40571210Y-99678414D01*
X40388640Y-99610319D01*
X40372291Y-99602853D01*
X40201265Y-99509465D01*
X40186153Y-99499753D01*
X40163567Y-99482845D01*
X40087330Y-99425775D01*
X40030158Y-99382977D01*
X40016572Y-99371204D01*
X39878796Y-99233428D01*
X39867023Y-99219842D01*
X39753113Y-99067676D01*
X39750247Y-99063846D01*
X39740531Y-99048729D01*
X39647147Y-98877709D01*
X39639681Y-98861360D01*
X39571586Y-98678790D01*
X39566522Y-98661541D01*
X39525102Y-98471137D01*
X39522543Y-98453343D01*
X39519225Y-98406959D01*
X39510958Y-98291369D01*
X39511702Y-98273468D01*
X39511804Y-98265142D01*
X39513185Y-98256270D01*
X39512021Y-98247368D01*
X39512021Y-98247365D01*
X39509064Y-98224756D01*
X39508000Y-98208418D01*
X39508000Y-91317890D01*
X61141500Y-91317890D01*
X61146183Y-91373080D01*
X61155524Y-91483163D01*
X61156080Y-91489720D01*
X61157418Y-91494875D01*
X61157419Y-91494881D01*
X61212657Y-91707703D01*
X61213999Y-91712872D01*
X61308688Y-91923075D01*
X61437441Y-92114319D01*
X61441120Y-92118176D01*
X61441122Y-92118178D01*
X61502710Y-92182738D01*
X61596576Y-92281135D01*
X61781542Y-92418754D01*
X61786293Y-92421170D01*
X61786297Y-92421172D01*
X61849481Y-92453296D01*
X61987051Y-92523240D01*
X61992145Y-92524822D01*
X61992148Y-92524823D01*
X62192020Y-92586885D01*
X62207227Y-92591607D01*
X62212516Y-92592308D01*
X62430489Y-92621198D01*
X62430494Y-92621198D01*
X62435774Y-92621898D01*
X62441103Y-92621698D01*
X62441105Y-92621698D01*
X62550966Y-92617573D01*
X62666158Y-92613249D01*
X62688802Y-92608498D01*
X62886572Y-92567002D01*
X62891791Y-92565907D01*
X62896750Y-92563949D01*
X62896752Y-92563948D01*
X63101256Y-92483185D01*
X63101258Y-92483184D01*
X63106221Y-92481224D01*
X63142343Y-92459305D01*
X63298757Y-92364390D01*
X63298756Y-92364390D01*
X63303317Y-92361623D01*
X63343134Y-92327072D01*
X63473412Y-92214023D01*
X63473414Y-92214021D01*
X63477445Y-92210523D01*
X63506670Y-92174880D01*
X63565329Y-92134886D01*
X63636299Y-92132954D01*
X63697048Y-92169698D01*
X63711248Y-92188468D01*
X63722341Y-92206394D01*
X63801522Y-92334348D01*
X63926697Y-92459305D01*
X63932927Y-92463145D01*
X63932928Y-92463146D01*
X64070090Y-92547694D01*
X64077262Y-92552115D01*
X64112938Y-92563948D01*
X64238611Y-92605632D01*
X64238613Y-92605632D01*
X64245139Y-92607797D01*
X64251975Y-92608497D01*
X64251978Y-92608498D01*
X64287663Y-92612154D01*
X64349600Y-92618500D01*
X65650400Y-92618500D01*
X65653646Y-92618163D01*
X65653650Y-92618163D01*
X65749308Y-92608238D01*
X65749312Y-92608237D01*
X65756166Y-92607526D01*
X65762702Y-92605345D01*
X65762704Y-92605345D01*
X65894806Y-92561272D01*
X65923946Y-92551550D01*
X66074348Y-92458478D01*
X66199305Y-92333303D01*
X66231462Y-92281135D01*
X66288275Y-92188968D01*
X66288276Y-92188966D01*
X66292115Y-92182738D01*
X66347797Y-92014861D01*
X66348621Y-92006824D01*
X66357201Y-91923075D01*
X66358500Y-91910400D01*
X66358500Y-91317890D01*
X70641500Y-91317890D01*
X70646183Y-91373080D01*
X70655524Y-91483163D01*
X70656080Y-91489720D01*
X70657418Y-91494875D01*
X70657419Y-91494881D01*
X70712657Y-91707703D01*
X70713999Y-91712872D01*
X70808688Y-91923075D01*
X70937441Y-92114319D01*
X70941120Y-92118176D01*
X70941122Y-92118178D01*
X71002710Y-92182738D01*
X71096576Y-92281135D01*
X71281542Y-92418754D01*
X71286293Y-92421170D01*
X71286297Y-92421172D01*
X71349481Y-92453296D01*
X71487051Y-92523240D01*
X71492145Y-92524822D01*
X71492148Y-92524823D01*
X71692020Y-92586885D01*
X71707227Y-92591607D01*
X71712516Y-92592308D01*
X71930489Y-92621198D01*
X71930494Y-92621198D01*
X71935774Y-92621898D01*
X71941103Y-92621698D01*
X71941105Y-92621698D01*
X72050966Y-92617573D01*
X72166158Y-92613249D01*
X72188802Y-92608498D01*
X72386572Y-92567002D01*
X72391791Y-92565907D01*
X72396750Y-92563949D01*
X72396752Y-92563948D01*
X72601256Y-92483185D01*
X72601258Y-92483184D01*
X72606221Y-92481224D01*
X72642343Y-92459305D01*
X72798757Y-92364390D01*
X72798756Y-92364390D01*
X72803317Y-92361623D01*
X72843134Y-92327072D01*
X72973412Y-92214023D01*
X72973414Y-92214021D01*
X72977445Y-92210523D01*
X73006670Y-92174880D01*
X73065329Y-92134886D01*
X73136299Y-92132954D01*
X73197048Y-92169698D01*
X73211248Y-92188468D01*
X73222341Y-92206394D01*
X73301522Y-92334348D01*
X73426697Y-92459305D01*
X73432927Y-92463145D01*
X73432928Y-92463146D01*
X73570090Y-92547694D01*
X73577262Y-92552115D01*
X73612938Y-92563948D01*
X73738611Y-92605632D01*
X73738613Y-92605632D01*
X73745139Y-92607797D01*
X73751975Y-92608497D01*
X73751978Y-92608498D01*
X73787663Y-92612154D01*
X73849600Y-92618500D01*
X75150400Y-92618500D01*
X75153646Y-92618163D01*
X75153650Y-92618163D01*
X75249308Y-92608238D01*
X75249312Y-92608237D01*
X75256166Y-92607526D01*
X75262702Y-92605345D01*
X75262704Y-92605345D01*
X75394806Y-92561272D01*
X75423946Y-92551550D01*
X75574348Y-92458478D01*
X75699305Y-92333303D01*
X75731462Y-92281135D01*
X75788275Y-92188968D01*
X75788276Y-92188966D01*
X75792115Y-92182738D01*
X75847797Y-92014861D01*
X75848621Y-92006824D01*
X75857201Y-91923075D01*
X75858500Y-91910400D01*
X75858500Y-91317890D01*
X80141500Y-91317890D01*
X80146183Y-91373080D01*
X80155524Y-91483163D01*
X80156080Y-91489720D01*
X80157418Y-91494875D01*
X80157419Y-91494881D01*
X80212657Y-91707703D01*
X80213999Y-91712872D01*
X80308688Y-91923075D01*
X80437441Y-92114319D01*
X80441120Y-92118176D01*
X80441122Y-92118178D01*
X80502710Y-92182738D01*
X80596576Y-92281135D01*
X80781542Y-92418754D01*
X80786293Y-92421170D01*
X80786297Y-92421172D01*
X80849481Y-92453296D01*
X80987051Y-92523240D01*
X80992145Y-92524822D01*
X80992148Y-92524823D01*
X81192020Y-92586885D01*
X81207227Y-92591607D01*
X81212516Y-92592308D01*
X81430489Y-92621198D01*
X81430494Y-92621198D01*
X81435774Y-92621898D01*
X81441103Y-92621698D01*
X81441105Y-92621698D01*
X81550966Y-92617573D01*
X81666158Y-92613249D01*
X81688802Y-92608498D01*
X81886572Y-92567002D01*
X81891791Y-92565907D01*
X81896750Y-92563949D01*
X81896752Y-92563948D01*
X82101256Y-92483185D01*
X82101258Y-92483184D01*
X82106221Y-92481224D01*
X82142343Y-92459305D01*
X82298757Y-92364390D01*
X82298756Y-92364390D01*
X82303317Y-92361623D01*
X82343134Y-92327072D01*
X82473412Y-92214023D01*
X82473414Y-92214021D01*
X82477445Y-92210523D01*
X82506670Y-92174880D01*
X82565329Y-92134886D01*
X82636299Y-92132954D01*
X82697048Y-92169698D01*
X82711248Y-92188468D01*
X82722341Y-92206394D01*
X82801522Y-92334348D01*
X82926697Y-92459305D01*
X82932927Y-92463145D01*
X82932928Y-92463146D01*
X83070090Y-92547694D01*
X83077262Y-92552115D01*
X83112938Y-92563948D01*
X83238611Y-92605632D01*
X83238613Y-92605632D01*
X83245139Y-92607797D01*
X83251975Y-92608497D01*
X83251978Y-92608498D01*
X83287663Y-92612154D01*
X83349600Y-92618500D01*
X84650400Y-92618500D01*
X84653646Y-92618163D01*
X84653650Y-92618163D01*
X84749308Y-92608238D01*
X84749312Y-92608237D01*
X84756166Y-92607526D01*
X84762702Y-92605345D01*
X84762704Y-92605345D01*
X84894806Y-92561272D01*
X84923946Y-92551550D01*
X85074348Y-92458478D01*
X85199305Y-92333303D01*
X85231462Y-92281135D01*
X85288275Y-92188968D01*
X85288276Y-92188966D01*
X85292115Y-92182738D01*
X85347797Y-92014861D01*
X85348621Y-92006824D01*
X85357201Y-91923075D01*
X85358500Y-91910400D01*
X85358500Y-90309600D01*
X85354611Y-90272115D01*
X85348238Y-90210692D01*
X85348237Y-90210688D01*
X85347526Y-90203834D01*
X85343710Y-90192394D01*
X85293868Y-90043002D01*
X85291550Y-90036054D01*
X85198478Y-89885652D01*
X85073303Y-89760695D01*
X85050586Y-89746692D01*
X84928968Y-89671725D01*
X84928966Y-89671724D01*
X84922738Y-89667885D01*
X84842995Y-89641436D01*
X84761389Y-89614368D01*
X84761387Y-89614368D01*
X84754861Y-89612203D01*
X84748025Y-89611503D01*
X84748022Y-89611502D01*
X84704969Y-89607091D01*
X84650400Y-89601500D01*
X83349600Y-89601500D01*
X83346354Y-89601837D01*
X83346350Y-89601837D01*
X83250692Y-89611762D01*
X83250688Y-89611763D01*
X83243834Y-89612474D01*
X83237298Y-89614655D01*
X83237296Y-89614655D01*
X83198220Y-89627692D01*
X83076054Y-89668450D01*
X82925652Y-89761522D01*
X82800695Y-89886697D01*
X82718269Y-90020417D01*
X82710920Y-90032339D01*
X82658148Y-90079832D01*
X82588076Y-90091256D01*
X82522952Y-90062982D01*
X82512490Y-90053195D01*
X82426953Y-89963530D01*
X82403424Y-89938865D01*
X82218458Y-89801246D01*
X82213707Y-89798830D01*
X82213703Y-89798828D01*
X82109490Y-89745844D01*
X82012949Y-89696760D01*
X82007855Y-89695178D01*
X82007852Y-89695177D01*
X81797871Y-89629976D01*
X81792773Y-89628393D01*
X81787484Y-89627692D01*
X81569511Y-89598802D01*
X81569506Y-89598802D01*
X81564226Y-89598102D01*
X81558897Y-89598302D01*
X81558895Y-89598302D01*
X81449034Y-89602427D01*
X81333842Y-89606751D01*
X81328623Y-89607846D01*
X81306566Y-89612474D01*
X81108209Y-89654093D01*
X81103250Y-89656051D01*
X81103248Y-89656052D01*
X80898744Y-89736815D01*
X80898742Y-89736816D01*
X80893779Y-89738776D01*
X80889220Y-89741543D01*
X80889217Y-89741544D01*
X80790832Y-89801246D01*
X80696683Y-89858377D01*
X80692653Y-89861874D01*
X80527877Y-90004859D01*
X80522555Y-90009477D01*
X80505769Y-90029949D01*
X80379760Y-90183627D01*
X80379756Y-90183633D01*
X80376376Y-90187755D01*
X80373737Y-90192391D01*
X80373735Y-90192394D01*
X80328355Y-90272115D01*
X80262325Y-90388114D01*
X80183663Y-90604825D01*
X80182714Y-90610074D01*
X80182713Y-90610077D01*
X80143377Y-90827608D01*
X80143376Y-90827615D01*
X80142639Y-90831692D01*
X80141500Y-90855844D01*
X80141500Y-91317890D01*
X75858500Y-91317890D01*
X75858500Y-90309600D01*
X75854611Y-90272115D01*
X75848238Y-90210692D01*
X75848237Y-90210688D01*
X75847526Y-90203834D01*
X75843710Y-90192394D01*
X75793868Y-90043002D01*
X75791550Y-90036054D01*
X75698478Y-89885652D01*
X75573303Y-89760695D01*
X75550586Y-89746692D01*
X75428968Y-89671725D01*
X75428966Y-89671724D01*
X75422738Y-89667885D01*
X75342995Y-89641436D01*
X75261389Y-89614368D01*
X75261387Y-89614368D01*
X75254861Y-89612203D01*
X75248025Y-89611503D01*
X75248022Y-89611502D01*
X75204969Y-89607091D01*
X75150400Y-89601500D01*
X73849600Y-89601500D01*
X73846354Y-89601837D01*
X73846350Y-89601837D01*
X73750692Y-89611762D01*
X73750688Y-89611763D01*
X73743834Y-89612474D01*
X73737298Y-89614655D01*
X73737296Y-89614655D01*
X73698220Y-89627692D01*
X73576054Y-89668450D01*
X73425652Y-89761522D01*
X73300695Y-89886697D01*
X73218269Y-90020417D01*
X73210920Y-90032339D01*
X73158148Y-90079832D01*
X73088076Y-90091256D01*
X73022952Y-90062982D01*
X73012490Y-90053195D01*
X72926953Y-89963530D01*
X72903424Y-89938865D01*
X72718458Y-89801246D01*
X72713707Y-89798830D01*
X72713703Y-89798828D01*
X72609490Y-89745844D01*
X72512949Y-89696760D01*
X72507855Y-89695178D01*
X72507852Y-89695177D01*
X72297871Y-89629976D01*
X72292773Y-89628393D01*
X72287484Y-89627692D01*
X72069511Y-89598802D01*
X72069506Y-89598802D01*
X72064226Y-89598102D01*
X72058897Y-89598302D01*
X72058895Y-89598302D01*
X71949034Y-89602427D01*
X71833842Y-89606751D01*
X71828623Y-89607846D01*
X71806566Y-89612474D01*
X71608209Y-89654093D01*
X71603250Y-89656051D01*
X71603248Y-89656052D01*
X71398744Y-89736815D01*
X71398742Y-89736816D01*
X71393779Y-89738776D01*
X71389220Y-89741543D01*
X71389217Y-89741544D01*
X71290832Y-89801246D01*
X71196683Y-89858377D01*
X71192653Y-89861874D01*
X71027877Y-90004859D01*
X71022555Y-90009477D01*
X71005769Y-90029949D01*
X70879760Y-90183627D01*
X70879756Y-90183633D01*
X70876376Y-90187755D01*
X70873737Y-90192391D01*
X70873735Y-90192394D01*
X70828355Y-90272115D01*
X70762325Y-90388114D01*
X70683663Y-90604825D01*
X70682714Y-90610074D01*
X70682713Y-90610077D01*
X70643377Y-90827608D01*
X70643376Y-90827615D01*
X70642639Y-90831692D01*
X70641500Y-90855844D01*
X70641500Y-91317890D01*
X66358500Y-91317890D01*
X66358500Y-90309600D01*
X66354611Y-90272115D01*
X66348238Y-90210692D01*
X66348237Y-90210688D01*
X66347526Y-90203834D01*
X66343710Y-90192394D01*
X66293868Y-90043002D01*
X66291550Y-90036054D01*
X66198478Y-89885652D01*
X66073303Y-89760695D01*
X66050586Y-89746692D01*
X65928968Y-89671725D01*
X65928966Y-89671724D01*
X65922738Y-89667885D01*
X65842995Y-89641436D01*
X65761389Y-89614368D01*
X65761387Y-89614368D01*
X65754861Y-89612203D01*
X65748025Y-89611503D01*
X65748022Y-89611502D01*
X65704969Y-89607091D01*
X65650400Y-89601500D01*
X64349600Y-89601500D01*
X64346354Y-89601837D01*
X64346350Y-89601837D01*
X64250692Y-89611762D01*
X64250688Y-89611763D01*
X64243834Y-89612474D01*
X64237298Y-89614655D01*
X64237296Y-89614655D01*
X64198220Y-89627692D01*
X64076054Y-89668450D01*
X63925652Y-89761522D01*
X63800695Y-89886697D01*
X63718269Y-90020417D01*
X63710920Y-90032339D01*
X63658148Y-90079832D01*
X63588076Y-90091256D01*
X63522952Y-90062982D01*
X63512490Y-90053195D01*
X63426953Y-89963530D01*
X63403424Y-89938865D01*
X63218458Y-89801246D01*
X63213707Y-89798830D01*
X63213703Y-89798828D01*
X63109490Y-89745844D01*
X63012949Y-89696760D01*
X63007855Y-89695178D01*
X63007852Y-89695177D01*
X62797871Y-89629976D01*
X62792773Y-89628393D01*
X62787484Y-89627692D01*
X62569511Y-89598802D01*
X62569506Y-89598802D01*
X62564226Y-89598102D01*
X62558897Y-89598302D01*
X62558895Y-89598302D01*
X62449034Y-89602427D01*
X62333842Y-89606751D01*
X62328623Y-89607846D01*
X62306566Y-89612474D01*
X62108209Y-89654093D01*
X62103250Y-89656051D01*
X62103248Y-89656052D01*
X61898744Y-89736815D01*
X61898742Y-89736816D01*
X61893779Y-89738776D01*
X61889220Y-89741543D01*
X61889217Y-89741544D01*
X61790832Y-89801246D01*
X61696683Y-89858377D01*
X61692653Y-89861874D01*
X61527877Y-90004859D01*
X61522555Y-90009477D01*
X61505769Y-90029949D01*
X61379760Y-90183627D01*
X61379756Y-90183633D01*
X61376376Y-90187755D01*
X61373737Y-90192391D01*
X61373735Y-90192394D01*
X61328355Y-90272115D01*
X61262325Y-90388114D01*
X61183663Y-90604825D01*
X61182714Y-90610074D01*
X61182713Y-90610077D01*
X61143377Y-90827608D01*
X61143376Y-90827615D01*
X61142639Y-90831692D01*
X61141500Y-90855844D01*
X61141500Y-91317890D01*
X39508000Y-91317890D01*
X39508000Y-83549328D01*
X39509500Y-83529943D01*
X39511805Y-83515141D01*
X39511805Y-83515139D01*
X39513186Y-83506270D01*
X39512022Y-83497366D01*
X39511195Y-83491041D01*
X39510452Y-83465713D01*
X39522543Y-83296657D01*
X39525101Y-83278863D01*
X39566520Y-83088462D01*
X39571586Y-83071212D01*
X39639682Y-82888642D01*
X39647149Y-82872290D01*
X39740531Y-82701271D01*
X39750248Y-82686152D01*
X39867023Y-82530158D01*
X39878796Y-82516572D01*
X40016572Y-82378796D01*
X40030158Y-82367023D01*
X40076484Y-82332344D01*
X40186152Y-82250248D01*
X40201266Y-82240534D01*
X40306980Y-82182810D01*
X40372290Y-82147149D01*
X40388642Y-82139682D01*
X40571212Y-82071586D01*
X40588460Y-82066521D01*
X40778863Y-82025101D01*
X40796658Y-82022543D01*
X40845557Y-82019046D01*
X40958631Y-82010959D01*
X40976533Y-82011703D01*
X40984858Y-82011805D01*
X40993730Y-82013186D01*
X41002632Y-82012022D01*
X41002635Y-82012022D01*
X41025251Y-82009064D01*
X41041589Y-82008000D01*
X97116001Y-82008000D01*
X97184122Y-82028002D01*
G37*
%TD.AperFunction*%
%TD*%
M02*
