M48
; DRILL file {KiCad (5.1.9)-1} date 04/21/21 15:16:53
; FORMAT={-:-/ absolute / metric / decimal}
; #@! TF.CreationDate,2021-04-21T15:16:53-04:00
; #@! TF.GenerationSoftware,Kicad,Pcbnew,(5.1.9)-1
FMAT,2
METRIC
T1C0.950
T2C1.000
T3C1.300
T4C1.000
%
G90
G05
T1
X55.0Y-96.25
X55.0Y-98.75
X55.0Y-101.25
X55.0Y-103.75
X64.928Y-108.89
X67.428Y-108.89
X69.928Y-108.89
X119.5Y-108.89
X122.0Y-108.89
X124.5Y-108.89
X127.0Y-108.89
X131.0Y-90.0
X133.5Y-90.0
X136.0Y-90.0
X145.0Y-96.25
X145.0Y-98.75
X145.0Y-101.25
X145.0Y-103.75
T2
X62.5Y-91.11
X65.0Y-91.11
X72.0Y-91.11
X74.5Y-91.11
X81.5Y-91.11
X84.0Y-91.11
X91.0Y-98.5
X91.0Y-101.5
X94.0Y-98.5
X94.0Y-101.5
X97.0Y-98.5
X97.0Y-101.5
X100.0Y-98.5
X100.0Y-101.5
X103.0Y-98.5
X103.0Y-101.5
X106.0Y-98.5
X106.0Y-101.5
X109.0Y-98.5
X109.0Y-101.5
X120.0Y-90.0
X122.5Y-90.0
X134.0Y-109.0
X136.5Y-109.0
T3
X77.42Y-109.0
X82.5Y-109.0
T4
X88.0Y-97.56
X112.0Y-97.56
T0
M30
