%TF.GenerationSoftware,KiCad,Pcbnew,(6.0.0)*%
%TF.CreationDate,2022-08-18T01:52:57-04:00*%
%TF.ProjectId,V0-UmbilicalBoard,56302d55-6d62-4696-9c69-63616c426f61,rev?*%
%TF.SameCoordinates,Original*%
%TF.FileFunction,Copper,L1,Top*%
%TF.FilePolarity,Positive*%
%FSLAX46Y46*%
G04 Gerber Fmt 4.6, Leading zero omitted, Abs format (unit mm)*
G04 Created by KiCad (PCBNEW (6.0.0)) date 2022-08-18 01:52:57*
%MOMM*%
%LPD*%
G01*
G04 APERTURE LIST*
G04 Aperture macros list*
%AMRoundRect*
0 Rectangle with rounded corners*
0 $1 Rounding radius*
0 $2 $3 $4 $5 $6 $7 $8 $9 X,Y pos of 4 corners*
0 Add a 4 corners polygon primitive as box body*
4,1,4,$2,$3,$4,$5,$6,$7,$8,$9,$2,$3,0*
0 Add four circle primitives for the rounded corners*
1,1,$1+$1,$2,$3*
1,1,$1+$1,$4,$5*
1,1,$1+$1,$6,$7*
1,1,$1+$1,$8,$9*
0 Add four rect primitives between the rounded corners*
20,1,$1+$1,$2,$3,$4,$5,0*
20,1,$1+$1,$4,$5,$6,$7,0*
20,1,$1+$1,$6,$7,$8,$9,0*
20,1,$1+$1,$8,$9,$2,$3,0*%
G04 Aperture macros list end*
%TA.AperFunction,ComponentPad*%
%ADD10RoundRect,0.250000X0.500000X0.500000X-0.500000X0.500000X-0.500000X-0.500000X0.500000X-0.500000X0*%
%TD*%
%TA.AperFunction,ComponentPad*%
%ADD11C,1.500000*%
%TD*%
%TA.AperFunction,SMDPad,CuDef*%
%ADD12RoundRect,0.249999X-0.350001X-0.450001X0.350001X-0.450001X0.350001X0.450001X-0.350001X0.450001X0*%
%TD*%
%TA.AperFunction,ComponentPad*%
%ADD13RoundRect,0.250000X0.600000X0.750000X-0.600000X0.750000X-0.600000X-0.750000X0.600000X-0.750000X0*%
%TD*%
%TA.AperFunction,ComponentPad*%
%ADD14O,1.700000X2.000000*%
%TD*%
%TA.AperFunction,ComponentPad*%
%ADD15RoundRect,0.250000X0.600000X0.725000X-0.600000X0.725000X-0.600000X-0.725000X0.600000X-0.725000X0*%
%TD*%
%TA.AperFunction,ComponentPad*%
%ADD16O,1.700000X1.950000*%
%TD*%
%TA.AperFunction,ComponentPad*%
%ADD17R,2.600000X2.600000*%
%TD*%
%TA.AperFunction,ComponentPad*%
%ADD18C,2.600000*%
%TD*%
%TA.AperFunction,ComponentPad*%
%ADD19RoundRect,0.250000X0.725000X-0.600000X0.725000X0.600000X-0.725000X0.600000X-0.725000X-0.600000X0*%
%TD*%
%TA.AperFunction,ComponentPad*%
%ADD20O,1.950000X1.700000*%
%TD*%
%TA.AperFunction,ComponentPad*%
%ADD21RoundRect,0.250000X-0.725000X0.600000X-0.725000X-0.600000X0.725000X-0.600000X0.725000X0.600000X0*%
%TD*%
%TA.AperFunction,Conductor*%
%ADD22C,0.500000*%
%TD*%
%TA.AperFunction,Conductor*%
%ADD23C,1.000000*%
%TD*%
G04 APERTURE END LIST*
D10*
%TO.P,J1,1,Pin_1*%
%TO.N,/A1*%
X109000000Y-101500000D03*
D11*
%TO.P,J1,2,Pin_2*%
%TO.N,/A2*%
X106000000Y-101500000D03*
%TO.P,J1,3,Pin_3*%
%TO.N,/B1*%
X103000000Y-101500000D03*
%TO.P,J1,4,Pin_4*%
%TO.N,/B2*%
X100000000Y-101500000D03*
%TO.P,J1,5,Pin_5*%
%TO.N,Net-(J1-Pad5)*%
X97000000Y-101500000D03*
%TO.P,J1,6,Pin_6*%
%TO.N,Net-(J1-Pad6)*%
X94000000Y-101500000D03*
%TO.P,J1,7,Pin_7*%
%TO.N,Net-(J1-Pad7)*%
X91000000Y-101500000D03*
%TO.P,J1,8,Pin_8*%
%TO.N,Net-(J1-Pad8)*%
X109000000Y-98500000D03*
%TO.P,J1,9,Pin_9*%
%TO.N,/PartFan+*%
X106000000Y-98500000D03*
%TO.P,J1,10,Pin_10*%
%TO.N,/PartFan-*%
X103000000Y-98500000D03*
%TO.P,J1,11,Pin_11*%
%TO.N,/Hotend_Fan-*%
X100000000Y-98500000D03*
%TO.P,J1,12,Pin_12*%
%TO.N,/Hotend_Fan+*%
X97000000Y-98500000D03*
%TO.P,J1,13,Pin_13*%
%TO.N,Net-(J1-Pad13)*%
X94000000Y-98500000D03*
%TO.P,J1,14,Pin_14*%
%TO.N,Net-(J1-Pad14)*%
X91000000Y-98500000D03*
%TD*%
D12*
%TO.P,TH1,1*%
%TO.N,Net-(J8-Pad1)*%
X99000000Y-112700000D03*
%TO.P,TH1,2*%
%TO.N,Net-(J8-Pad2)*%
X101000000Y-112700000D03*
%TD*%
D13*
%TO.P,J3,1,Pin_1*%
%TO.N,/Hotend_Fan-*%
X74500000Y-91110000D03*
D14*
%TO.P,J3,2,Pin_2*%
%TO.N,/Hotend_Fan+*%
X72000000Y-91110000D03*
%TD*%
D13*
%TO.P,J4,1,Pin_1*%
%TO.N,/PartFan+*%
X84000000Y-91110000D03*
D14*
%TO.P,J4,2,Pin_2*%
%TO.N,/PartFan-*%
X81500000Y-91110000D03*
%TD*%
D13*
%TO.P,J6,1,Pin_1*%
%TO.N,Net-(J1-Pad14)*%
X65000000Y-91110000D03*
D14*
%TO.P,J6,2,Pin_2*%
%TO.N,Net-(J1-Pad13)*%
X62500000Y-91110000D03*
%TD*%
D13*
%TO.P,J7,1,Pin_1*%
%TO.N,Net-(J1-Pad5)*%
X122500000Y-90000000D03*
D14*
%TO.P,J7,2,Pin_2*%
%TO.N,Net-(J1-Pad8)*%
X120000000Y-90000000D03*
%TD*%
D13*
%TO.P,J8,1,Pin_1*%
%TO.N,Net-(J8-Pad1)*%
X136500000Y-109000000D03*
D14*
%TO.P,J8,2,Pin_2*%
%TO.N,Net-(J8-Pad2)*%
X134000000Y-109000000D03*
%TD*%
D15*
%TO.P,J2,1,Pin_1*%
%TO.N,/A1*%
X127000000Y-108890000D03*
D16*
%TO.P,J2,2,Pin_2*%
%TO.N,/A2*%
X124500000Y-108890000D03*
%TO.P,J2,3,Pin_3*%
%TO.N,/B1*%
X122000000Y-108890000D03*
%TO.P,J2,4,Pin_4*%
%TO.N,/B2*%
X119500000Y-108890000D03*
%TD*%
D17*
%TO.P,J5,1,Pin_1*%
%TO.N,Net-(J1-Pad7)*%
X77420000Y-109000000D03*
D18*
%TO.P,J5,2,Pin_2*%
%TO.N,Net-(J1-Pad6)*%
X82500000Y-109000000D03*
%TD*%
D15*
%TO.P,J9,1,Pin_1*%
%TO.N,Data*%
X136000000Y-90000000D03*
D16*
%TO.P,J9,2,Pin_2*%
%TO.N,5V*%
X133500000Y-90000000D03*
%TO.P,J9,3,Pin_3*%
%TO.N,GND*%
X131000000Y-90000000D03*
%TD*%
D19*
%TO.P,J10,1,Pin_1*%
%TO.N,DataIn2*%
X145000000Y-103750000D03*
D20*
%TO.P,J10,2,Pin_2*%
%TO.N,Data*%
X145000000Y-101250000D03*
%TO.P,J10,3,Pin_3*%
%TO.N,5V*%
X145000000Y-98750000D03*
%TO.P,J10,4,Pin_4*%
%TO.N,GND*%
X145000000Y-96250000D03*
%TD*%
D21*
%TO.P,J11,1,Pin_1*%
%TO.N,DataIn3*%
X55000000Y-96250000D03*
D20*
%TO.P,J11,2,Pin_2*%
%TO.N,DataIn2*%
X55000000Y-98750000D03*
%TO.P,J11,3,Pin_3*%
%TO.N,5V*%
X55000000Y-101250000D03*
%TO.P,J11,4,Pin_4*%
%TO.N,GND*%
X55000000Y-103750000D03*
%TD*%
D15*
%TO.P,J12,1,Pin_1*%
%TO.N,DataIn3*%
X69928000Y-108890000D03*
D16*
%TO.P,J12,2,Pin_2*%
%TO.N,5V*%
X67428000Y-108890000D03*
%TO.P,J12,3,Pin_3*%
%TO.N,GND*%
X64928000Y-108890000D03*
%TD*%
D22*
%TO.N,Net-(J1-Pad14)*%
X91000000Y-98500000D02*
X90250001Y-99249999D01*
X90250001Y-99249999D02*
X73139999Y-99249999D01*
X73139999Y-99249999D02*
X65000000Y-91110000D01*
%TO.N,Net-(J1-Pad13)*%
X92549991Y-99950009D02*
X71340009Y-99950009D01*
X94000000Y-98500000D02*
X92549991Y-99950009D01*
X71340009Y-99950009D02*
X62500000Y-91110000D01*
%TO.N,Net-(J1-Pad8)*%
X109000000Y-98500000D02*
X117500000Y-90000000D01*
X117500000Y-90000000D02*
X120000000Y-90000000D01*
D23*
%TO.N,Net-(J1-Pad7)*%
X91000000Y-101500000D02*
X91000000Y-104500000D01*
X89250000Y-106250000D02*
X80170000Y-106250000D01*
X80170000Y-106250000D02*
X77420000Y-109000000D01*
X91000000Y-104500000D02*
X89250000Y-106250000D01*
%TO.N,Net-(J1-Pad6)*%
X91500000Y-109000000D02*
X82500000Y-109000000D01*
X91500000Y-109000000D02*
X94000000Y-106500000D01*
X94000000Y-106500000D02*
X94000000Y-101500000D01*
D22*
%TO.N,Net-(J8-Pad2)*%
X134000000Y-109000000D02*
X134000000Y-111800000D01*
X134000000Y-111800000D02*
X131500010Y-114299990D01*
X102299990Y-114299990D02*
X131500010Y-114299990D01*
X101000000Y-112700000D02*
X101000000Y-113000000D01*
X101000000Y-113000000D02*
X102299990Y-114299990D01*
%TO.N,Net-(J8-Pad1)*%
X99000000Y-114400000D02*
X99000000Y-112700000D01*
X99600000Y-115000000D02*
X99000000Y-114400000D01*
X136500000Y-112500000D02*
X134000000Y-115000000D01*
X136500000Y-109000000D02*
X136500000Y-112500000D01*
X134000000Y-115000000D02*
X99600000Y-115000000D01*
%TO.N,/Hotend_Fan+*%
X77390000Y-96500000D02*
X72000000Y-91110000D01*
X97000000Y-98500000D02*
X95000000Y-96500000D01*
X95000000Y-96500000D02*
X77390000Y-96500000D01*
%TO.N,/Hotend_Fan-*%
X79189990Y-95799990D02*
X74500000Y-91110000D01*
X97299990Y-95799990D02*
X79189990Y-95799990D01*
X97299990Y-95799990D02*
X100000000Y-98500000D01*
%TO.N,/PartFan-*%
X99599980Y-95099980D02*
X103000000Y-98500000D01*
X85489980Y-95099980D02*
X81500000Y-91110000D01*
X99599980Y-95099980D02*
X85489980Y-95099980D01*
%TO.N,/PartFan+*%
X101899972Y-94399972D02*
X87289972Y-94399972D01*
X87289972Y-94399972D02*
X84000000Y-91110000D01*
X101899972Y-94399972D02*
X106000000Y-98500000D01*
D23*
%TO.N,/B2*%
X100000000Y-101500000D02*
X107390000Y-108890000D01*
X107390000Y-108890000D02*
X119500000Y-108890000D01*
%TO.N,/B1*%
X122000000Y-107200000D02*
X122000000Y-108890000D01*
X103000000Y-101500000D02*
X107900000Y-106400000D01*
X121200000Y-106400000D02*
X122000000Y-107200000D01*
X107900000Y-106400000D02*
X121200000Y-106400000D01*
%TO.N,/A2*%
X121310000Y-103810000D02*
X124500000Y-107000000D01*
X124500000Y-107000000D02*
X124500000Y-108890000D01*
X108310000Y-103810000D02*
X121310000Y-103810000D01*
X106000000Y-101500000D02*
X108310000Y-103810000D01*
%TO.N,/A1*%
X122500000Y-101500000D02*
X127000000Y-106000000D01*
X109000000Y-101500000D02*
X122500000Y-101500000D01*
X127000000Y-106000000D02*
X127000000Y-108890000D01*
D22*
%TO.N,Data*%
X145000000Y-101250000D02*
X139250000Y-101250000D01*
X136000000Y-98000000D02*
X136000000Y-90000000D01*
X139250000Y-101250000D02*
X136000000Y-98000000D01*
%TO.N,DataIn2*%
X145000000Y-103750000D02*
X133450000Y-103750000D01*
X102800000Y-109600000D02*
X96200000Y-109600000D01*
X96200000Y-109600000D02*
X93200000Y-112600000D01*
X93200000Y-112600000D02*
X55000000Y-112600000D01*
X133450000Y-103750000D02*
X130400000Y-106800000D01*
X51400000Y-100200000D02*
X52850000Y-98750000D01*
X130400000Y-111000000D02*
X129200000Y-112200000D01*
X105400000Y-112200000D02*
X102800000Y-109600000D01*
X55000000Y-112600000D02*
X51400000Y-109000000D01*
X51400000Y-109000000D02*
X51400000Y-100200000D01*
X129200000Y-112200000D02*
X105400000Y-112200000D01*
X52850000Y-98750000D02*
X55000000Y-98750000D01*
X130400000Y-106800000D02*
X130400000Y-111000000D01*
%TD*%
%TA.AperFunction,Conductor*%
%TO.N,5V*%
G36*
X97184122Y-82028002D02*
G01*
X97230615Y-82081658D01*
X97242001Y-82134000D01*
X97242001Y-85731629D01*
X97221999Y-85799750D01*
X97168343Y-85846243D01*
X97098069Y-85856347D01*
X97033489Y-85826853D01*
X96993482Y-85761043D01*
X96967328Y-85652103D01*
X96938628Y-85532561D01*
X96936734Y-85527988D01*
X96849687Y-85317837D01*
X96849686Y-85317835D01*
X96847793Y-85313265D01*
X96723770Y-85110879D01*
X96569614Y-84930386D01*
X96389121Y-84776230D01*
X96186735Y-84652207D01*
X96182165Y-84650314D01*
X96182163Y-84650313D01*
X95972012Y-84563266D01*
X95972010Y-84563265D01*
X95967439Y-84561372D01*
X95886340Y-84541902D01*
X95741446Y-84507115D01*
X95741440Y-84507114D01*
X95736633Y-84505960D01*
X95500000Y-84487337D01*
X95263367Y-84505960D01*
X95258560Y-84507114D01*
X95258554Y-84507115D01*
X95113660Y-84541902D01*
X95032561Y-84561372D01*
X95027990Y-84563265D01*
X95027988Y-84563266D01*
X94817837Y-84650313D01*
X94817835Y-84650314D01*
X94813265Y-84652207D01*
X94610879Y-84776230D01*
X94430386Y-84930386D01*
X94276230Y-85110879D01*
X94152207Y-85313265D01*
X94150314Y-85317835D01*
X94150313Y-85317837D01*
X94063266Y-85527988D01*
X94061372Y-85532561D01*
X94041902Y-85613660D01*
X94007115Y-85758554D01*
X94007114Y-85758560D01*
X94005960Y-85763367D01*
X93997359Y-85872661D01*
X93989244Y-85975771D01*
X93988291Y-85983910D01*
X93988328Y-85984003D01*
X93986814Y-85993730D01*
X93987449Y-85998583D01*
X93987337Y-86000000D01*
X93987634Y-86000000D01*
X93988882Y-86009544D01*
X93990936Y-86025250D01*
X93992000Y-86041588D01*
X93992000Y-87950672D01*
X93990500Y-87970056D01*
X93986814Y-87993730D01*
X93987634Y-88000000D01*
X93987337Y-88000000D01*
X93987920Y-88007409D01*
X93987920Y-88007413D01*
X93997359Y-88127339D01*
X94005960Y-88236633D01*
X94007114Y-88241440D01*
X94007115Y-88241446D01*
X94032672Y-88347897D01*
X94061372Y-88467439D01*
X94063265Y-88472010D01*
X94063266Y-88472012D01*
X94147977Y-88676522D01*
X94152207Y-88686735D01*
X94276230Y-88889121D01*
X94430386Y-89069614D01*
X94434142Y-89072822D01*
X94578774Y-89196350D01*
X94610879Y-89223770D01*
X94813265Y-89347793D01*
X94817835Y-89349686D01*
X94817837Y-89349687D01*
X94992726Y-89422128D01*
X95032561Y-89438628D01*
X95113660Y-89458098D01*
X95258554Y-89492885D01*
X95258560Y-89492886D01*
X95263367Y-89494040D01*
X95500000Y-89512663D01*
X95736633Y-89494040D01*
X95741440Y-89492886D01*
X95741446Y-89492885D01*
X95886340Y-89458098D01*
X95967439Y-89438628D01*
X96007274Y-89422128D01*
X96182163Y-89349687D01*
X96182165Y-89349686D01*
X96186735Y-89347793D01*
X96389121Y-89223770D01*
X96421226Y-89196350D01*
X96565858Y-89072822D01*
X96569614Y-89069614D01*
X96723770Y-88889121D01*
X96847793Y-88686735D01*
X96852024Y-88676522D01*
X96936734Y-88472012D01*
X96936735Y-88472010D01*
X96938628Y-88467439D01*
X96993482Y-88238957D01*
X97028834Y-88177388D01*
X97091861Y-88144705D01*
X97162552Y-88151286D01*
X97218463Y-88195040D01*
X97242001Y-88268371D01*
X97242001Y-89950665D01*
X97240501Y-89970050D01*
X97236814Y-89993730D01*
X97237634Y-90000000D01*
X97237326Y-90000000D01*
X97237796Y-90008071D01*
X97248532Y-90192394D01*
X97256006Y-90320727D01*
X97311794Y-90637116D01*
X97312845Y-90640626D01*
X97312846Y-90640631D01*
X97390908Y-90901373D01*
X97403936Y-90944890D01*
X97531184Y-91239886D01*
X97533016Y-91243060D01*
X97533018Y-91243063D01*
X97680495Y-91498498D01*
X97691820Y-91518114D01*
X97883669Y-91775813D01*
X98104138Y-92009496D01*
X98350245Y-92216005D01*
X98618663Y-92392546D01*
X98621927Y-92394185D01*
X98621930Y-92394187D01*
X98670847Y-92418754D01*
X98905761Y-92536732D01*
X98909213Y-92537988D01*
X98909212Y-92537988D01*
X99204215Y-92645361D01*
X99204222Y-92645363D01*
X99207656Y-92646613D01*
X99520267Y-92720703D01*
X99523891Y-92721127D01*
X99523899Y-92721128D01*
X99791440Y-92752398D01*
X99839365Y-92758000D01*
X100160635Y-92758000D01*
X100208560Y-92752398D01*
X100476101Y-92721128D01*
X100476109Y-92721127D01*
X100479733Y-92720703D01*
X100792344Y-92646613D01*
X100795778Y-92645363D01*
X100795785Y-92645361D01*
X101090788Y-92537988D01*
X101090787Y-92537988D01*
X101094239Y-92536732D01*
X101329153Y-92418754D01*
X101378070Y-92394187D01*
X101378073Y-92394185D01*
X101381337Y-92392546D01*
X101649755Y-92216005D01*
X101895862Y-92009496D01*
X102116331Y-91775813D01*
X102308180Y-91518114D01*
X102319505Y-91498498D01*
X102466982Y-91243063D01*
X102466984Y-91243060D01*
X102468816Y-91239886D01*
X102596064Y-90944890D01*
X102609092Y-90901373D01*
X102687154Y-90640631D01*
X102687155Y-90640626D01*
X102688206Y-90637116D01*
X102743994Y-90320727D01*
X102749023Y-90234384D01*
X102760950Y-90029612D01*
X102761987Y-90020417D01*
X102762263Y-90017345D01*
X102763071Y-90012539D01*
X102763224Y-90000000D01*
X102759273Y-89972412D01*
X102758000Y-89954549D01*
X102758000Y-88268375D01*
X102778002Y-88200254D01*
X102831658Y-88153761D01*
X102901932Y-88143657D01*
X102966512Y-88173151D01*
X103006519Y-88238961D01*
X103061372Y-88467439D01*
X103063265Y-88472010D01*
X103063266Y-88472012D01*
X103147977Y-88676522D01*
X103152207Y-88686735D01*
X103276230Y-88889121D01*
X103430386Y-89069614D01*
X103434142Y-89072822D01*
X103578774Y-89196350D01*
X103610879Y-89223770D01*
X103813265Y-89347793D01*
X103817835Y-89349686D01*
X103817837Y-89349687D01*
X103992726Y-89422128D01*
X104032561Y-89438628D01*
X104113660Y-89458098D01*
X104258554Y-89492885D01*
X104258560Y-89492886D01*
X104263367Y-89494040D01*
X104500000Y-89512663D01*
X104736633Y-89494040D01*
X104741440Y-89492886D01*
X104741446Y-89492885D01*
X104886340Y-89458098D01*
X104967439Y-89438628D01*
X105007274Y-89422128D01*
X105182163Y-89349687D01*
X105182165Y-89349686D01*
X105186735Y-89347793D01*
X105389121Y-89223770D01*
X105421226Y-89196350D01*
X105565858Y-89072822D01*
X105569614Y-89069614D01*
X105723770Y-88889121D01*
X105847793Y-88686735D01*
X105852024Y-88676522D01*
X105936734Y-88472012D01*
X105936735Y-88472010D01*
X105938628Y-88467439D01*
X105967328Y-88347897D01*
X105992885Y-88241446D01*
X105992886Y-88241440D01*
X105994040Y-88236633D01*
X106010014Y-88033657D01*
X106011372Y-88022637D01*
X106012265Y-88017330D01*
X106012265Y-88017329D01*
X106013071Y-88012539D01*
X106013224Y-88000000D01*
X106009273Y-87972412D01*
X106008000Y-87954549D01*
X106008000Y-86053207D01*
X106009746Y-86032303D01*
X106010279Y-86029137D01*
X106013071Y-86012539D01*
X106013224Y-86000000D01*
X106012534Y-85995184D01*
X106012529Y-85995100D01*
X106011665Y-85987314D01*
X106010667Y-85974634D01*
X105994040Y-85763367D01*
X105992886Y-85758560D01*
X105992885Y-85758554D01*
X105958098Y-85613660D01*
X105938628Y-85532561D01*
X105936734Y-85527988D01*
X105849687Y-85317837D01*
X105849686Y-85317835D01*
X105847793Y-85313265D01*
X105723770Y-85110879D01*
X105569614Y-84930386D01*
X105389121Y-84776230D01*
X105186735Y-84652207D01*
X105182165Y-84650314D01*
X105182163Y-84650313D01*
X104972012Y-84563266D01*
X104972010Y-84563265D01*
X104967439Y-84561372D01*
X104886340Y-84541902D01*
X104741446Y-84507115D01*
X104741440Y-84507114D01*
X104736633Y-84505960D01*
X104500000Y-84487337D01*
X104263367Y-84505960D01*
X104258560Y-84507114D01*
X104258554Y-84507115D01*
X104113660Y-84541902D01*
X104032561Y-84561372D01*
X104027990Y-84563265D01*
X104027988Y-84563266D01*
X103817837Y-84650313D01*
X103817835Y-84650314D01*
X103813265Y-84652207D01*
X103610879Y-84776230D01*
X103430386Y-84930386D01*
X103276230Y-85110879D01*
X103152207Y-85313265D01*
X103150314Y-85317835D01*
X103150313Y-85317837D01*
X103063266Y-85527988D01*
X103061372Y-85532561D01*
X103032672Y-85652103D01*
X103006519Y-85761039D01*
X102971167Y-85822608D01*
X102908140Y-85855291D01*
X102837449Y-85848710D01*
X102781538Y-85804956D01*
X102758000Y-85731625D01*
X102758000Y-82134000D01*
X102778002Y-82065879D01*
X102831658Y-82019386D01*
X102884000Y-82008000D01*
X158950672Y-82008000D01*
X158970056Y-82009500D01*
X158972284Y-82009847D01*
X158984859Y-82011805D01*
X158984861Y-82011805D01*
X158993730Y-82013186D01*
X159002632Y-82012022D01*
X159002634Y-82012022D01*
X159008959Y-82011195D01*
X159034282Y-82010452D01*
X159198126Y-82022170D01*
X159203343Y-82022543D01*
X159221137Y-82025101D01*
X159411540Y-82066521D01*
X159428788Y-82071586D01*
X159611358Y-82139682D01*
X159627710Y-82147149D01*
X159693020Y-82182810D01*
X159798734Y-82240534D01*
X159813848Y-82250248D01*
X159923516Y-82332344D01*
X159969842Y-82367023D01*
X159983428Y-82378796D01*
X160121204Y-82516572D01*
X160132977Y-82530158D01*
X160249752Y-82686152D01*
X160259469Y-82701271D01*
X160352851Y-82872290D01*
X160360318Y-82888642D01*
X160428414Y-83071212D01*
X160433480Y-83088462D01*
X160474899Y-83278863D01*
X160477457Y-83296658D01*
X160489041Y-83458629D01*
X160488297Y-83476533D01*
X160488195Y-83484858D01*
X160486814Y-83493730D01*
X160487978Y-83502632D01*
X160487978Y-83502635D01*
X160490936Y-83525251D01*
X160492000Y-83541589D01*
X160492000Y-98200672D01*
X160490500Y-98220056D01*
X160486814Y-98243730D01*
X160487978Y-98252632D01*
X160487978Y-98252634D01*
X160488805Y-98258959D01*
X160489548Y-98284282D01*
X160489041Y-98291372D01*
X160477457Y-98453343D01*
X160474899Y-98471137D01*
X160433480Y-98661538D01*
X160428414Y-98678788D01*
X160360318Y-98861358D01*
X160352851Y-98877710D01*
X160349412Y-98884008D01*
X160283893Y-99004000D01*
X160259469Y-99048729D01*
X160249753Y-99063847D01*
X160154187Y-99191509D01*
X160132977Y-99219842D01*
X160121204Y-99233428D01*
X159983428Y-99371204D01*
X159969841Y-99382977D01*
X159813848Y-99499752D01*
X159798734Y-99509466D01*
X159711586Y-99557052D01*
X159627710Y-99602851D01*
X159611358Y-99610318D01*
X159428788Y-99678414D01*
X159411540Y-99683479D01*
X159345429Y-99697861D01*
X159221137Y-99724899D01*
X159203342Y-99727457D01*
X159156152Y-99730832D01*
X159041369Y-99739041D01*
X159023467Y-99738297D01*
X159015142Y-99738195D01*
X159006270Y-99736814D01*
X158997368Y-99737978D01*
X158997365Y-99737978D01*
X158974749Y-99740936D01*
X158958411Y-99742000D01*
X158053207Y-99742000D01*
X158032303Y-99740254D01*
X158025794Y-99739159D01*
X158012539Y-99736929D01*
X158006441Y-99736855D01*
X158004868Y-99736835D01*
X158004863Y-99736835D01*
X158000000Y-99736776D01*
X157995177Y-99737466D01*
X157994862Y-99737487D01*
X157985543Y-99738445D01*
X157936976Y-99741501D01*
X157716438Y-99755376D01*
X157437348Y-99808615D01*
X157167131Y-99896414D01*
X156910050Y-100017388D01*
X156670157Y-100169628D01*
X156451237Y-100350735D01*
X156256742Y-100557851D01*
X156254415Y-100561054D01*
X156254414Y-100561055D01*
X156232345Y-100591430D01*
X156089738Y-100787711D01*
X156087831Y-100791180D01*
X156087829Y-100791183D01*
X155975230Y-100996000D01*
X155952861Y-101036690D01*
X155951407Y-101040363D01*
X155854111Y-101286106D01*
X155848269Y-101300860D01*
X155847285Y-101304694D01*
X155847282Y-101304702D01*
X155844837Y-101314226D01*
X155777610Y-101576057D01*
X155742000Y-101857939D01*
X155742000Y-102142061D01*
X155751299Y-102215671D01*
X155775615Y-102408148D01*
X155777610Y-102423943D01*
X155787895Y-102463999D01*
X155847282Y-102695298D01*
X155847285Y-102695306D01*
X155848269Y-102699140D01*
X155849726Y-102702820D01*
X155849727Y-102702823D01*
X155888774Y-102801445D01*
X155952861Y-102963310D01*
X155954763Y-102966769D01*
X155954764Y-102966772D01*
X156058121Y-103154777D01*
X156089738Y-103212289D01*
X156256742Y-103442149D01*
X156451237Y-103649265D01*
X156670157Y-103830372D01*
X156910050Y-103982612D01*
X157167131Y-104103586D01*
X157437348Y-104191385D01*
X157716438Y-104244624D01*
X157844003Y-104252649D01*
X157967671Y-104260430D01*
X157980660Y-104261927D01*
X157982652Y-104262262D01*
X157982654Y-104262262D01*
X157987461Y-104263071D01*
X157993959Y-104263150D01*
X157995141Y-104263165D01*
X157995145Y-104263165D01*
X158000000Y-104263224D01*
X158027588Y-104259273D01*
X158045451Y-104258000D01*
X158950672Y-104258000D01*
X158970056Y-104259500D01*
X158971637Y-104259746D01*
X158984859Y-104261805D01*
X158984861Y-104261805D01*
X158993730Y-104263186D01*
X159002632Y-104262022D01*
X159002634Y-104262022D01*
X159008959Y-104261195D01*
X159034282Y-104260452D01*
X159198126Y-104272170D01*
X159203343Y-104272543D01*
X159221137Y-104275101D01*
X159411540Y-104316521D01*
X159428788Y-104321586D01*
X159611358Y-104389682D01*
X159627710Y-104397149D01*
X159633664Y-104400400D01*
X159798734Y-104490534D01*
X159813848Y-104500248D01*
X159923268Y-104582158D01*
X159969842Y-104617023D01*
X159983428Y-104628796D01*
X160121204Y-104766572D01*
X160132977Y-104780158D01*
X160249752Y-104936152D01*
X160259466Y-104951266D01*
X160282780Y-104993963D01*
X160352851Y-105122290D01*
X160360318Y-105138642D01*
X160428414Y-105321212D01*
X160433479Y-105338460D01*
X160457365Y-105448262D01*
X160474899Y-105528863D01*
X160477457Y-105546657D01*
X160482284Y-105614144D01*
X160489041Y-105708629D01*
X160488297Y-105726533D01*
X160488195Y-105734858D01*
X160486814Y-105743730D01*
X160487978Y-105752632D01*
X160487978Y-105752635D01*
X160490936Y-105775251D01*
X160492000Y-105791589D01*
X160492000Y-116450672D01*
X160490500Y-116470056D01*
X160486814Y-116493730D01*
X160487978Y-116502632D01*
X160487978Y-116502634D01*
X160488805Y-116508959D01*
X160489548Y-116534287D01*
X160477457Y-116703343D01*
X160474899Y-116721137D01*
X160433480Y-116911538D01*
X160428414Y-116928788D01*
X160360318Y-117111358D01*
X160352851Y-117127710D01*
X160259469Y-117298729D01*
X160249752Y-117313848D01*
X160192016Y-117390975D01*
X160132977Y-117469842D01*
X160121204Y-117483428D01*
X159983428Y-117621204D01*
X159969841Y-117632977D01*
X159813848Y-117749752D01*
X159798734Y-117759466D01*
X159693020Y-117817190D01*
X159627710Y-117852851D01*
X159611358Y-117860318D01*
X159428788Y-117928414D01*
X159411540Y-117933479D01*
X159248022Y-117969051D01*
X159221137Y-117974899D01*
X159203342Y-117977457D01*
X159154443Y-117980954D01*
X159041369Y-117989041D01*
X159023467Y-117988297D01*
X159015142Y-117988195D01*
X159006270Y-117986814D01*
X158997368Y-117987978D01*
X158997365Y-117987978D01*
X158974749Y-117990936D01*
X158958411Y-117992000D01*
X156049328Y-117992000D01*
X156029943Y-117990500D01*
X156029661Y-117990456D01*
X156027117Y-117990060D01*
X156015141Y-117988195D01*
X156015139Y-117988195D01*
X156006270Y-117986814D01*
X155997368Y-117987978D01*
X155997366Y-117987978D01*
X155991041Y-117988805D01*
X155965718Y-117989548D01*
X155796657Y-117977457D01*
X155778863Y-117974899D01*
X155751978Y-117969051D01*
X155588460Y-117933479D01*
X155571212Y-117928414D01*
X155388642Y-117860318D01*
X155372290Y-117852851D01*
X155306980Y-117817190D01*
X155201266Y-117759466D01*
X155186152Y-117749752D01*
X155030159Y-117632977D01*
X155016572Y-117621204D01*
X154878796Y-117483428D01*
X154867023Y-117469842D01*
X154807984Y-117390975D01*
X154750248Y-117313848D01*
X154740531Y-117298729D01*
X154647149Y-117127710D01*
X154639682Y-117111358D01*
X154571586Y-116928788D01*
X154566520Y-116911538D01*
X154525101Y-116721137D01*
X154522543Y-116703342D01*
X154510959Y-116541371D01*
X154511703Y-116523467D01*
X154511805Y-116515142D01*
X154513186Y-116506270D01*
X154511547Y-116493730D01*
X154509064Y-116474749D01*
X154508000Y-116458411D01*
X154508000Y-115553207D01*
X154509746Y-115532303D01*
X154512264Y-115517335D01*
X154513071Y-115512539D01*
X154513224Y-115500000D01*
X154512534Y-115495185D01*
X154512373Y-115492710D01*
X154511805Y-115487115D01*
X154494495Y-115200938D01*
X154494494Y-115200932D01*
X154494265Y-115197142D01*
X154439573Y-114898699D01*
X154383234Y-114717899D01*
X154350440Y-114612661D01*
X154349307Y-114609025D01*
X154310567Y-114522947D01*
X154275167Y-114444293D01*
X154224783Y-114332344D01*
X154171891Y-114244849D01*
X154069783Y-114075943D01*
X154067816Y-114072689D01*
X154037215Y-114033629D01*
X153968095Y-113945405D01*
X153880696Y-113833848D01*
X153666152Y-113619304D01*
X153427311Y-113432184D01*
X153311376Y-113362099D01*
X153170917Y-113277188D01*
X153170913Y-113277186D01*
X153167656Y-113275217D01*
X153006297Y-113202595D01*
X152894451Y-113152257D01*
X152894445Y-113152255D01*
X152890975Y-113150693D01*
X152692697Y-113088907D01*
X152604934Y-113061559D01*
X152604933Y-113061559D01*
X152601301Y-113060427D01*
X152302858Y-113005735D01*
X152299067Y-113005506D01*
X152299061Y-113005505D01*
X152121005Y-112994736D01*
X152030787Y-112989279D01*
X152017483Y-112987761D01*
X152017340Y-112987737D01*
X152017341Y-112987737D01*
X152012539Y-112986929D01*
X152006062Y-112986850D01*
X152004859Y-112986835D01*
X152004855Y-112986835D01*
X152000000Y-112986776D01*
X151975715Y-112990254D01*
X151972412Y-112990727D01*
X151954549Y-112992000D01*
X149053207Y-112992000D01*
X149032303Y-112990254D01*
X149024100Y-112988874D01*
X149012539Y-112986929D01*
X149006211Y-112986852D01*
X149004859Y-112986835D01*
X149004855Y-112986835D01*
X149000000Y-112986776D01*
X148995185Y-112987466D01*
X148992710Y-112987627D01*
X148987115Y-112988195D01*
X148700938Y-113005505D01*
X148700932Y-113005506D01*
X148697142Y-113005735D01*
X148398699Y-113060427D01*
X148395067Y-113061559D01*
X148395066Y-113061559D01*
X148307303Y-113088907D01*
X148109025Y-113150693D01*
X148105555Y-113152255D01*
X148105549Y-113152257D01*
X147993703Y-113202595D01*
X147832344Y-113275217D01*
X147829087Y-113277186D01*
X147829083Y-113277188D01*
X147688624Y-113362099D01*
X147572689Y-113432184D01*
X147333848Y-113619304D01*
X147119304Y-113833848D01*
X147031905Y-113945405D01*
X146962786Y-114033629D01*
X146932184Y-114072689D01*
X146930217Y-114075943D01*
X146828110Y-114244849D01*
X146775217Y-114332344D01*
X146724833Y-114444293D01*
X146689434Y-114522947D01*
X146650693Y-114609025D01*
X146649560Y-114612661D01*
X146616767Y-114717899D01*
X146560427Y-114898699D01*
X146505735Y-115197142D01*
X146505506Y-115200933D01*
X146505505Y-115200939D01*
X146489279Y-115469210D01*
X146487761Y-115482517D01*
X146486929Y-115487461D01*
X146486776Y-115500000D01*
X146490437Y-115525560D01*
X146490727Y-115527588D01*
X146492000Y-115545451D01*
X146492000Y-116450672D01*
X146490500Y-116470056D01*
X146486814Y-116493730D01*
X146487978Y-116502632D01*
X146487978Y-116502634D01*
X146488805Y-116508959D01*
X146489548Y-116534287D01*
X146477457Y-116703343D01*
X146474899Y-116721137D01*
X146433480Y-116911538D01*
X146428414Y-116928788D01*
X146360318Y-117111358D01*
X146352851Y-117127710D01*
X146259469Y-117298729D01*
X146249752Y-117313848D01*
X146192016Y-117390975D01*
X146132977Y-117469842D01*
X146121204Y-117483428D01*
X145983428Y-117621204D01*
X145969841Y-117632977D01*
X145813848Y-117749752D01*
X145798734Y-117759466D01*
X145693020Y-117817190D01*
X145627710Y-117852851D01*
X145611358Y-117860318D01*
X145428788Y-117928414D01*
X145411540Y-117933479D01*
X145248022Y-117969051D01*
X145221137Y-117974899D01*
X145203342Y-117977457D01*
X145154443Y-117980954D01*
X145041369Y-117989041D01*
X145023467Y-117988297D01*
X145015142Y-117988195D01*
X145006270Y-117986814D01*
X144997368Y-117987978D01*
X144997365Y-117987978D01*
X144974749Y-117990936D01*
X144958411Y-117992000D01*
X41049328Y-117992000D01*
X41029943Y-117990500D01*
X41029661Y-117990456D01*
X41027117Y-117990060D01*
X41015141Y-117988195D01*
X41015139Y-117988195D01*
X41006270Y-117986814D01*
X40997368Y-117987978D01*
X40997366Y-117987978D01*
X40991041Y-117988805D01*
X40965718Y-117989548D01*
X40796657Y-117977457D01*
X40778863Y-117974899D01*
X40751978Y-117969051D01*
X40588460Y-117933479D01*
X40571212Y-117928414D01*
X40388642Y-117860318D01*
X40372290Y-117852851D01*
X40306980Y-117817190D01*
X40201266Y-117759466D01*
X40186152Y-117749752D01*
X40030159Y-117632977D01*
X40016572Y-117621204D01*
X39878796Y-117483428D01*
X39867023Y-117469842D01*
X39807984Y-117390975D01*
X39750248Y-117313848D01*
X39740531Y-117298729D01*
X39647149Y-117127710D01*
X39639682Y-117111358D01*
X39571586Y-116928788D01*
X39566520Y-116911538D01*
X39525101Y-116721137D01*
X39522543Y-116703342D01*
X39510959Y-116541371D01*
X39511703Y-116523467D01*
X39511805Y-116515142D01*
X39513186Y-116506270D01*
X39511547Y-116493730D01*
X39509064Y-116474749D01*
X39508000Y-116458411D01*
X39508000Y-108973349D01*
X50636801Y-108973349D01*
X50637394Y-108980641D01*
X50637394Y-108980644D01*
X50641085Y-109026018D01*
X50641500Y-109036233D01*
X50641500Y-109044293D01*
X50641925Y-109047937D01*
X50644789Y-109072507D01*
X50645222Y-109076882D01*
X50648661Y-109119156D01*
X50651140Y-109149637D01*
X50653396Y-109156601D01*
X50654587Y-109162560D01*
X50655971Y-109168415D01*
X50656818Y-109175681D01*
X50681735Y-109244327D01*
X50683152Y-109248455D01*
X50705649Y-109317899D01*
X50709445Y-109324154D01*
X50711951Y-109329628D01*
X50714670Y-109335058D01*
X50717167Y-109341937D01*
X50721180Y-109348057D01*
X50721180Y-109348058D01*
X50757186Y-109402976D01*
X50759523Y-109406680D01*
X50797405Y-109469107D01*
X50801121Y-109473315D01*
X50801122Y-109473316D01*
X50804803Y-109477484D01*
X50804776Y-109477508D01*
X50807429Y-109480500D01*
X50810132Y-109483733D01*
X50814144Y-109489852D01*
X50819456Y-109494884D01*
X50870383Y-109543128D01*
X50872825Y-109545506D01*
X54416227Y-113088907D01*
X54428613Y-113103319D01*
X54437149Y-113114917D01*
X54441492Y-113120818D01*
X54447070Y-113125557D01*
X54447073Y-113125560D01*
X54481775Y-113155041D01*
X54489291Y-113161971D01*
X54494980Y-113167660D01*
X54497834Y-113169918D01*
X54497844Y-113169927D01*
X54517242Y-113185274D01*
X54520642Y-113188062D01*
X54570707Y-113230595D01*
X54570711Y-113230598D01*
X54576285Y-113235333D01*
X54582800Y-113238660D01*
X54587837Y-113242019D01*
X54592975Y-113245192D01*
X54598716Y-113249734D01*
X54664875Y-113280655D01*
X54668769Y-113282558D01*
X54733808Y-113315769D01*
X54740917Y-113317508D01*
X54746551Y-113319604D01*
X54752321Y-113321523D01*
X54758950Y-113324622D01*
X54766113Y-113326112D01*
X54766116Y-113326113D01*
X54816830Y-113336661D01*
X54830435Y-113339491D01*
X54834701Y-113340457D01*
X54905610Y-113357808D01*
X54911212Y-113358156D01*
X54911215Y-113358156D01*
X54916764Y-113358500D01*
X54916762Y-113358535D01*
X54920734Y-113358775D01*
X54924955Y-113359152D01*
X54932115Y-113360641D01*
X55009542Y-113358546D01*
X55012950Y-113358500D01*
X93132930Y-113358500D01*
X93151880Y-113359933D01*
X93166115Y-113362099D01*
X93166119Y-113362099D01*
X93173349Y-113363199D01*
X93180641Y-113362606D01*
X93180644Y-113362606D01*
X93226018Y-113358915D01*
X93236233Y-113358500D01*
X93244293Y-113358500D01*
X93261680Y-113356473D01*
X93272507Y-113355211D01*
X93276882Y-113354778D01*
X93342339Y-113349454D01*
X93342342Y-113349453D01*
X93349637Y-113348860D01*
X93356601Y-113346604D01*
X93362560Y-113345413D01*
X93368415Y-113344029D01*
X93375681Y-113343182D01*
X93444327Y-113318265D01*
X93448455Y-113316848D01*
X93510936Y-113296607D01*
X93510938Y-113296606D01*
X93517899Y-113294351D01*
X93524154Y-113290555D01*
X93529628Y-113288049D01*
X93535058Y-113285330D01*
X93541937Y-113282833D01*
X93555939Y-113273653D01*
X93602976Y-113242814D01*
X93606680Y-113240477D01*
X93669107Y-113202595D01*
X93677484Y-113195197D01*
X93677508Y-113195224D01*
X93680500Y-113192571D01*
X93683733Y-113189868D01*
X93689852Y-113185856D01*
X93743128Y-113129617D01*
X93745506Y-113127175D01*
X94673082Y-112199599D01*
X97891500Y-112199599D01*
X97891501Y-113200400D01*
X97902474Y-113306167D01*
X97906264Y-113317526D01*
X97945299Y-113434527D01*
X97958450Y-113473946D01*
X98051521Y-113624349D01*
X98056703Y-113629522D01*
X98089130Y-113661892D01*
X98176697Y-113749306D01*
X98182927Y-113753146D01*
X98188675Y-113757686D01*
X98187625Y-113759016D01*
X98229108Y-113805108D01*
X98241500Y-113859598D01*
X98241500Y-114332930D01*
X98240067Y-114351880D01*
X98236801Y-114373349D01*
X98237394Y-114380641D01*
X98237394Y-114380644D01*
X98241085Y-114426018D01*
X98241500Y-114436233D01*
X98241500Y-114444293D01*
X98241925Y-114447937D01*
X98244789Y-114472507D01*
X98245222Y-114476882D01*
X98251140Y-114549637D01*
X98253396Y-114556601D01*
X98254587Y-114562560D01*
X98255971Y-114568415D01*
X98256818Y-114575681D01*
X98281735Y-114644327D01*
X98283152Y-114648455D01*
X98297701Y-114693364D01*
X98305649Y-114717899D01*
X98309445Y-114724154D01*
X98311951Y-114729628D01*
X98314670Y-114735058D01*
X98317167Y-114741937D01*
X98321180Y-114748057D01*
X98321180Y-114748058D01*
X98357186Y-114802976D01*
X98359523Y-114806680D01*
X98397405Y-114869107D01*
X98401121Y-114873315D01*
X98401122Y-114873316D01*
X98404803Y-114877484D01*
X98404776Y-114877508D01*
X98407429Y-114880500D01*
X98410132Y-114883733D01*
X98414144Y-114889852D01*
X98419456Y-114894884D01*
X98470383Y-114943128D01*
X98472825Y-114945506D01*
X99016230Y-115488911D01*
X99028616Y-115503323D01*
X99037149Y-115514918D01*
X99037154Y-115514923D01*
X99041492Y-115520818D01*
X99047070Y-115525557D01*
X99047073Y-115525560D01*
X99081768Y-115555035D01*
X99089284Y-115561965D01*
X99094979Y-115567660D01*
X99097861Y-115569940D01*
X99117251Y-115585281D01*
X99120655Y-115588072D01*
X99170703Y-115630591D01*
X99176285Y-115635333D01*
X99182801Y-115638661D01*
X99187850Y-115642028D01*
X99192979Y-115645195D01*
X99198716Y-115649734D01*
X99264875Y-115680655D01*
X99268769Y-115682558D01*
X99333808Y-115715769D01*
X99340916Y-115717508D01*
X99346559Y-115719607D01*
X99352322Y-115721524D01*
X99358950Y-115724622D01*
X99366112Y-115726112D01*
X99366113Y-115726112D01*
X99430412Y-115739486D01*
X99434696Y-115740456D01*
X99505610Y-115757808D01*
X99511212Y-115758156D01*
X99511215Y-115758156D01*
X99516764Y-115758500D01*
X99516762Y-115758536D01*
X99520755Y-115758775D01*
X99524947Y-115759149D01*
X99532115Y-115760640D01*
X99609520Y-115758546D01*
X99612928Y-115758500D01*
X133932930Y-115758500D01*
X133951880Y-115759933D01*
X133966115Y-115762099D01*
X133966119Y-115762099D01*
X133973349Y-115763199D01*
X133980641Y-115762606D01*
X133980644Y-115762606D01*
X134026018Y-115758915D01*
X134036233Y-115758500D01*
X134044293Y-115758500D01*
X134061680Y-115756473D01*
X134072507Y-115755211D01*
X134076882Y-115754778D01*
X134142339Y-115749454D01*
X134142342Y-115749453D01*
X134149637Y-115748860D01*
X134156601Y-115746604D01*
X134162560Y-115745413D01*
X134168415Y-115744029D01*
X134175681Y-115743182D01*
X134244327Y-115718265D01*
X134248455Y-115716848D01*
X134310936Y-115696607D01*
X134310938Y-115696606D01*
X134317899Y-115694351D01*
X134324154Y-115690555D01*
X134329628Y-115688049D01*
X134335058Y-115685330D01*
X134341937Y-115682833D01*
X134348058Y-115678820D01*
X134402976Y-115642814D01*
X134406680Y-115640477D01*
X134469107Y-115602595D01*
X134477484Y-115595197D01*
X134477508Y-115595224D01*
X134480500Y-115592571D01*
X134483733Y-115589868D01*
X134489852Y-115585856D01*
X134543128Y-115529617D01*
X134545506Y-115527175D01*
X136988911Y-113083770D01*
X137003323Y-113071384D01*
X137014918Y-113062851D01*
X137014923Y-113062846D01*
X137020818Y-113058508D01*
X137025557Y-113052930D01*
X137025560Y-113052927D01*
X137055035Y-113018232D01*
X137061965Y-113010716D01*
X137067660Y-113005021D01*
X137079343Y-112990254D01*
X137085281Y-112982749D01*
X137088072Y-112979345D01*
X137130591Y-112929297D01*
X137130592Y-112929295D01*
X137135333Y-112923715D01*
X137138661Y-112917199D01*
X137142028Y-112912150D01*
X137145195Y-112907021D01*
X137149734Y-112901284D01*
X137180655Y-112835125D01*
X137182561Y-112831225D01*
X137182885Y-112830591D01*
X137215769Y-112766192D01*
X137217508Y-112759084D01*
X137219607Y-112753441D01*
X137221524Y-112747678D01*
X137224622Y-112741050D01*
X137239487Y-112669583D01*
X137240457Y-112665299D01*
X137256473Y-112599845D01*
X137257808Y-112594390D01*
X137258500Y-112583236D01*
X137258536Y-112583238D01*
X137258775Y-112579245D01*
X137259149Y-112575053D01*
X137260640Y-112567885D01*
X137258546Y-112490479D01*
X137258500Y-112487072D01*
X137258500Y-110587538D01*
X137278502Y-110519417D01*
X137332158Y-110472924D01*
X137344624Y-110468014D01*
X137405653Y-110447653D01*
X137423946Y-110441550D01*
X137574348Y-110348478D01*
X137699305Y-110223303D01*
X137703146Y-110217072D01*
X137788275Y-110078968D01*
X137788276Y-110078966D01*
X137792115Y-110072738D01*
X137827228Y-109966874D01*
X137845632Y-109911389D01*
X137845632Y-109911387D01*
X137847797Y-109904861D01*
X137849021Y-109892922D01*
X137856392Y-109820971D01*
X137858500Y-109800400D01*
X137858500Y-108199600D01*
X137857827Y-108193114D01*
X137848238Y-108100692D01*
X137848237Y-108100688D01*
X137847526Y-108093834D01*
X137843710Y-108082394D01*
X137793868Y-107933002D01*
X137791550Y-107926054D01*
X137698478Y-107775652D01*
X137573303Y-107650695D01*
X137561048Y-107643141D01*
X137428968Y-107561725D01*
X137428966Y-107561724D01*
X137422738Y-107557885D01*
X137325926Y-107525774D01*
X137261389Y-107504368D01*
X137261387Y-107504368D01*
X137254861Y-107502203D01*
X137248025Y-107501503D01*
X137248022Y-107501502D01*
X137204969Y-107497091D01*
X137150400Y-107491500D01*
X135849600Y-107491500D01*
X135846354Y-107491837D01*
X135846350Y-107491837D01*
X135750692Y-107501762D01*
X135750688Y-107501763D01*
X135743834Y-107502474D01*
X135737298Y-107504655D01*
X135737296Y-107504655D01*
X135610392Y-107546994D01*
X135576054Y-107558450D01*
X135425652Y-107651522D01*
X135300695Y-107776697D01*
X135220485Y-107906822D01*
X135210920Y-107922339D01*
X135158148Y-107969832D01*
X135088076Y-107981256D01*
X135022952Y-107952982D01*
X135012490Y-107943195D01*
X134947802Y-107875385D01*
X134903424Y-107828865D01*
X134889636Y-107818606D01*
X134722740Y-107694432D01*
X134722741Y-107694432D01*
X134718458Y-107691246D01*
X134713707Y-107688830D01*
X134713703Y-107688828D01*
X134558381Y-107609859D01*
X134512949Y-107586760D01*
X134507855Y-107585178D01*
X134507852Y-107585177D01*
X134297871Y-107519976D01*
X134292773Y-107518393D01*
X134287484Y-107517692D01*
X134069511Y-107488802D01*
X134069506Y-107488802D01*
X134064226Y-107488102D01*
X134058897Y-107488302D01*
X134058895Y-107488302D01*
X133949034Y-107492427D01*
X133833842Y-107496751D01*
X133828623Y-107497846D01*
X133796171Y-107504655D01*
X133608209Y-107544093D01*
X133603250Y-107546051D01*
X133603248Y-107546052D01*
X133398744Y-107626815D01*
X133398742Y-107626816D01*
X133393779Y-107628776D01*
X133389220Y-107631543D01*
X133389217Y-107631544D01*
X133285581Y-107694432D01*
X133196683Y-107748377D01*
X133192653Y-107751874D01*
X133036715Y-107887190D01*
X133022555Y-107899477D01*
X133003809Y-107922339D01*
X132879760Y-108073627D01*
X132879756Y-108073633D01*
X132876376Y-108077755D01*
X132873737Y-108082391D01*
X132873735Y-108082394D01*
X132853543Y-108117866D01*
X132762325Y-108278114D01*
X132683663Y-108494825D01*
X132682714Y-108500074D01*
X132682713Y-108500077D01*
X132643377Y-108717608D01*
X132643376Y-108717615D01*
X132642639Y-108721692D01*
X132641500Y-108745844D01*
X132641500Y-109207890D01*
X132644942Y-109248455D01*
X132651830Y-109329628D01*
X132656080Y-109379720D01*
X132657418Y-109384875D01*
X132657419Y-109384881D01*
X132712657Y-109597703D01*
X132713999Y-109602872D01*
X132716191Y-109607738D01*
X132716192Y-109607741D01*
X132772276Y-109732242D01*
X132808688Y-109813075D01*
X132937441Y-110004319D01*
X132941120Y-110008176D01*
X132941122Y-110008178D01*
X132996603Y-110066337D01*
X133096576Y-110171135D01*
X133184059Y-110236224D01*
X133190713Y-110241175D01*
X133233426Y-110297885D01*
X133241500Y-110342264D01*
X133241500Y-111433629D01*
X133221498Y-111501750D01*
X133204595Y-111522724D01*
X131222734Y-113504585D01*
X131160422Y-113538611D01*
X131133639Y-113541490D01*
X102666361Y-113541490D01*
X102598240Y-113521488D01*
X102577266Y-113504585D01*
X102145405Y-113072724D01*
X102111379Y-113010412D01*
X102108500Y-112983629D01*
X102108499Y-112202867D01*
X102108499Y-112199600D01*
X102097526Y-112093833D01*
X102054638Y-111965282D01*
X102043867Y-111932998D01*
X102043866Y-111932996D01*
X102041550Y-111926054D01*
X101948479Y-111775651D01*
X101911027Y-111738264D01*
X101885121Y-111712403D01*
X101823303Y-111650694D01*
X101714732Y-111583770D01*
X101678969Y-111561725D01*
X101678967Y-111561724D01*
X101672739Y-111557885D01*
X101566731Y-111522724D01*
X101511390Y-111504368D01*
X101511388Y-111504368D01*
X101504862Y-111502203D01*
X101498026Y-111501503D01*
X101498023Y-111501502D01*
X101454970Y-111497091D01*
X101400401Y-111491500D01*
X101003088Y-111491500D01*
X100599600Y-111491501D01*
X100493833Y-111502474D01*
X100487286Y-111504658D01*
X100487287Y-111504658D01*
X100332998Y-111556133D01*
X100332996Y-111556134D01*
X100326054Y-111558450D01*
X100175651Y-111651521D01*
X100089214Y-111738110D01*
X100026934Y-111772188D01*
X99956114Y-111767185D01*
X99911029Y-111738267D01*
X99823303Y-111650694D01*
X99714732Y-111583770D01*
X99678969Y-111561725D01*
X99678967Y-111561724D01*
X99672739Y-111557885D01*
X99566731Y-111522724D01*
X99511390Y-111504368D01*
X99511388Y-111504368D01*
X99504862Y-111502203D01*
X99498026Y-111501503D01*
X99498023Y-111501502D01*
X99454970Y-111497091D01*
X99400401Y-111491500D01*
X99003088Y-111491500D01*
X98599600Y-111491501D01*
X98493833Y-111502474D01*
X98487286Y-111504658D01*
X98487287Y-111504658D01*
X98332998Y-111556133D01*
X98332996Y-111556134D01*
X98326054Y-111558450D01*
X98175651Y-111651521D01*
X98050694Y-111776697D01*
X98010749Y-111841500D01*
X97987470Y-111879266D01*
X97957885Y-111927261D01*
X97931436Y-112007004D01*
X97916031Y-112053449D01*
X97902203Y-112095138D01*
X97901503Y-112101974D01*
X97901502Y-112101977D01*
X97898307Y-112133166D01*
X97891500Y-112199599D01*
X94673082Y-112199599D01*
X96477276Y-110395405D01*
X96539588Y-110361379D01*
X96566371Y-110358500D01*
X102433629Y-110358500D01*
X102501750Y-110378502D01*
X102522724Y-110395405D01*
X104816230Y-112688911D01*
X104828616Y-112703323D01*
X104837149Y-112714918D01*
X104837154Y-112714923D01*
X104841492Y-112720818D01*
X104847070Y-112725557D01*
X104847073Y-112725560D01*
X104881768Y-112755035D01*
X104889284Y-112761965D01*
X104894979Y-112767660D01*
X104897861Y-112769940D01*
X104917251Y-112785281D01*
X104920655Y-112788072D01*
X104970703Y-112830591D01*
X104976285Y-112835333D01*
X104982801Y-112838661D01*
X104987850Y-112842028D01*
X104992979Y-112845195D01*
X104998716Y-112849734D01*
X105064875Y-112880655D01*
X105068769Y-112882558D01*
X105133808Y-112915769D01*
X105140916Y-112917508D01*
X105146559Y-112919607D01*
X105152322Y-112921524D01*
X105158950Y-112924622D01*
X105166112Y-112926112D01*
X105166113Y-112926112D01*
X105230412Y-112939486D01*
X105234696Y-112940456D01*
X105305610Y-112957808D01*
X105311212Y-112958156D01*
X105311215Y-112958156D01*
X105316764Y-112958500D01*
X105316762Y-112958536D01*
X105320755Y-112958775D01*
X105324947Y-112959149D01*
X105332115Y-112960640D01*
X105409520Y-112958546D01*
X105412928Y-112958500D01*
X129132930Y-112958500D01*
X129151880Y-112959933D01*
X129166115Y-112962099D01*
X129166119Y-112962099D01*
X129173349Y-112963199D01*
X129180641Y-112962606D01*
X129180644Y-112962606D01*
X129226018Y-112958915D01*
X129236233Y-112958500D01*
X129244293Y-112958500D01*
X129261680Y-112956473D01*
X129272507Y-112955211D01*
X129276882Y-112954778D01*
X129342339Y-112949454D01*
X129342342Y-112949453D01*
X129349637Y-112948860D01*
X129356601Y-112946604D01*
X129362560Y-112945413D01*
X129368415Y-112944029D01*
X129375681Y-112943182D01*
X129444327Y-112918265D01*
X129448455Y-112916848D01*
X129510936Y-112896607D01*
X129510938Y-112896606D01*
X129517899Y-112894351D01*
X129524154Y-112890555D01*
X129529628Y-112888049D01*
X129535058Y-112885330D01*
X129541937Y-112882833D01*
X129548058Y-112878820D01*
X129602976Y-112842814D01*
X129606680Y-112840477D01*
X129669107Y-112802595D01*
X129677484Y-112795197D01*
X129677508Y-112795224D01*
X129680500Y-112792571D01*
X129683733Y-112789868D01*
X129689852Y-112785856D01*
X129743128Y-112729617D01*
X129745506Y-112727175D01*
X130888911Y-111583770D01*
X130903323Y-111571384D01*
X130914918Y-111562851D01*
X130914923Y-111562846D01*
X130920818Y-111558508D01*
X130925557Y-111552930D01*
X130925560Y-111552927D01*
X130955035Y-111518232D01*
X130961965Y-111510716D01*
X130967660Y-111505021D01*
X130978098Y-111491828D01*
X130985281Y-111482749D01*
X130988072Y-111479345D01*
X131030591Y-111429297D01*
X131030592Y-111429295D01*
X131035333Y-111423715D01*
X131038661Y-111417199D01*
X131042028Y-111412150D01*
X131045195Y-111407021D01*
X131049734Y-111401284D01*
X131080655Y-111335125D01*
X131082561Y-111331225D01*
X131115769Y-111266192D01*
X131117508Y-111259084D01*
X131119607Y-111253441D01*
X131121524Y-111247678D01*
X131124622Y-111241050D01*
X131139487Y-111169583D01*
X131140457Y-111165299D01*
X131156473Y-111099845D01*
X131157808Y-111094390D01*
X131158500Y-111083236D01*
X131158536Y-111083238D01*
X131158775Y-111079245D01*
X131159149Y-111075053D01*
X131160640Y-111067885D01*
X131158546Y-110990479D01*
X131158500Y-110987072D01*
X131158500Y-107166371D01*
X131178502Y-107098250D01*
X131195405Y-107077276D01*
X133727276Y-104545405D01*
X133789588Y-104511379D01*
X133816371Y-104508500D01*
X143437462Y-104508500D01*
X143505583Y-104528502D01*
X143552076Y-104582158D01*
X143556986Y-104594624D01*
X143561152Y-104607112D01*
X143583450Y-104673946D01*
X143676522Y-104824348D01*
X143801697Y-104949305D01*
X143807927Y-104953145D01*
X143807928Y-104953146D01*
X143945090Y-105037694D01*
X143952262Y-105042115D01*
X144028145Y-105067284D01*
X144113611Y-105095632D01*
X144113613Y-105095632D01*
X144120139Y-105097797D01*
X144126975Y-105098497D01*
X144126978Y-105098498D01*
X144170031Y-105102909D01*
X144224600Y-105108500D01*
X145775400Y-105108500D01*
X145778646Y-105108163D01*
X145778650Y-105108163D01*
X145874308Y-105098238D01*
X145874312Y-105098237D01*
X145881166Y-105097526D01*
X145887702Y-105095345D01*
X145887704Y-105095345D01*
X146019806Y-105051272D01*
X146048946Y-105041550D01*
X146199348Y-104948478D01*
X146324305Y-104823303D01*
X146333197Y-104808878D01*
X146413275Y-104678968D01*
X146413276Y-104678966D01*
X146417115Y-104672738D01*
X146457320Y-104551522D01*
X146470632Y-104511389D01*
X146470632Y-104511387D01*
X146472797Y-104504861D01*
X146483500Y-104400400D01*
X146483500Y-103099600D01*
X146476745Y-103034494D01*
X146473238Y-103000692D01*
X146473237Y-103000688D01*
X146472526Y-102993834D01*
X146467179Y-102977805D01*
X146423633Y-102847285D01*
X146416550Y-102826054D01*
X146323478Y-102675652D01*
X146198303Y-102550695D01*
X146052660Y-102460919D01*
X146005168Y-102408148D01*
X145993744Y-102338076D01*
X146022018Y-102272952D01*
X146031805Y-102262490D01*
X146078385Y-102218054D01*
X146146135Y-102153424D01*
X146283754Y-101968458D01*
X146286307Y-101963438D01*
X146343458Y-101851029D01*
X146388240Y-101762949D01*
X146401772Y-101719371D01*
X146455024Y-101547871D01*
X146456607Y-101542773D01*
X146459366Y-101521957D01*
X146486198Y-101319511D01*
X146486198Y-101319506D01*
X146486898Y-101314226D01*
X146486541Y-101304702D01*
X146478449Y-101089173D01*
X146478249Y-101083842D01*
X146430907Y-100858209D01*
X146428948Y-100853248D01*
X146348185Y-100648744D01*
X146348184Y-100648742D01*
X146346224Y-100643779D01*
X146339438Y-100632595D01*
X146244151Y-100475569D01*
X146226623Y-100446683D01*
X146136850Y-100343228D01*
X146079023Y-100276588D01*
X146079021Y-100276586D01*
X146075523Y-100272555D01*
X145976693Y-100191519D01*
X145901373Y-100129760D01*
X145901367Y-100129756D01*
X145897245Y-100126376D01*
X145889252Y-100121826D01*
X145865265Y-100108171D01*
X145815959Y-100057088D01*
X145802098Y-99987458D01*
X145828082Y-99921387D01*
X145857232Y-99894149D01*
X145974578Y-99815148D01*
X145982870Y-99808481D01*
X146141900Y-99656772D01*
X146148941Y-99648814D01*
X146280141Y-99472475D01*
X146285745Y-99463438D01*
X146385357Y-99267516D01*
X146389357Y-99257665D01*
X146454534Y-99047760D01*
X146456817Y-99037376D01*
X146458861Y-99021957D01*
X146456665Y-99007793D01*
X146443478Y-99004000D01*
X143558808Y-99004000D01*
X143545277Y-99007973D01*
X143543752Y-99018580D01*
X143568477Y-99136421D01*
X143571537Y-99146617D01*
X143652263Y-99351029D01*
X143656994Y-99360561D01*
X143771016Y-99548462D01*
X143777280Y-99557052D01*
X143921327Y-99723052D01*
X143928958Y-99730472D01*
X144098911Y-99869826D01*
X144107674Y-99875848D01*
X144134711Y-99891238D01*
X144184018Y-99942320D01*
X144197880Y-100011951D01*
X144171897Y-100078022D01*
X144142747Y-100105261D01*
X144104966Y-100130697D01*
X144020681Y-100187441D01*
X143853865Y-100346576D01*
X143800842Y-100417842D01*
X143783825Y-100440713D01*
X143727115Y-100483426D01*
X143682736Y-100491500D01*
X139616371Y-100491500D01*
X139548250Y-100471498D01*
X139527276Y-100454595D01*
X136795405Y-97722724D01*
X136761379Y-97660412D01*
X136758500Y-97633629D01*
X136758500Y-96185774D01*
X143513102Y-96185774D01*
X143521751Y-96416158D01*
X143569093Y-96641791D01*
X143653776Y-96856221D01*
X143656543Y-96860780D01*
X143656544Y-96860783D01*
X143734294Y-96988911D01*
X143773377Y-97053317D01*
X143776874Y-97057347D01*
X143917676Y-97219607D01*
X143924477Y-97227445D01*
X143928608Y-97230832D01*
X144098627Y-97370240D01*
X144098633Y-97370244D01*
X144102755Y-97373624D01*
X144107398Y-97376267D01*
X144134735Y-97391829D01*
X144184041Y-97442912D01*
X144197902Y-97512542D01*
X144171918Y-97578613D01*
X144142768Y-97605851D01*
X144025422Y-97684852D01*
X144017130Y-97691519D01*
X143858100Y-97843228D01*
X143851059Y-97851186D01*
X143719859Y-98027525D01*
X143714255Y-98036562D01*
X143614643Y-98232484D01*
X143610643Y-98242335D01*
X143545466Y-98452240D01*
X143543183Y-98462624D01*
X143541139Y-98478043D01*
X143543335Y-98492207D01*
X143556522Y-98496000D01*
X146441192Y-98496000D01*
X146454723Y-98492027D01*
X146456248Y-98481420D01*
X146431523Y-98363579D01*
X146428463Y-98353383D01*
X146347737Y-98148971D01*
X146343006Y-98139439D01*
X146228984Y-97951538D01*
X146222720Y-97942948D01*
X146078673Y-97776948D01*
X146071042Y-97769528D01*
X145901089Y-97630174D01*
X145892326Y-97624152D01*
X145865289Y-97608762D01*
X145815982Y-97557680D01*
X145802120Y-97488049D01*
X145828103Y-97421978D01*
X145857253Y-97394739D01*
X145914449Y-97356232D01*
X145979319Y-97312559D01*
X146146135Y-97153424D01*
X146172468Y-97118032D01*
X146280568Y-96972740D01*
X146283754Y-96968458D01*
X146316731Y-96903598D01*
X146385822Y-96767704D01*
X146388240Y-96762949D01*
X146401305Y-96720875D01*
X146455024Y-96547871D01*
X146456607Y-96542773D01*
X146465356Y-96476764D01*
X146486198Y-96319511D01*
X146486198Y-96319506D01*
X146486898Y-96314226D01*
X146478249Y-96083842D01*
X146430907Y-95858209D01*
X146346224Y-95643779D01*
X146321398Y-95602866D01*
X146229390Y-95451243D01*
X146226623Y-95446683D01*
X146223126Y-95442653D01*
X146079023Y-95276588D01*
X146079021Y-95276586D01*
X146075523Y-95272555D01*
X145981398Y-95195377D01*
X145901373Y-95129760D01*
X145901367Y-95129756D01*
X145897245Y-95126376D01*
X145892609Y-95123737D01*
X145892606Y-95123735D01*
X145701529Y-95014968D01*
X145696886Y-95012325D01*
X145480175Y-94933663D01*
X145474926Y-94932714D01*
X145474923Y-94932713D01*
X145257392Y-94893377D01*
X145257385Y-94893376D01*
X145253308Y-94892639D01*
X145235586Y-94891803D01*
X145230644Y-94891570D01*
X145230637Y-94891570D01*
X145229156Y-94891500D01*
X144817110Y-94891500D01*
X144750191Y-94897178D01*
X144650591Y-94905629D01*
X144650587Y-94905630D01*
X144645280Y-94906080D01*
X144640125Y-94907418D01*
X144640119Y-94907419D01*
X144427297Y-94962657D01*
X144427293Y-94962658D01*
X144422128Y-94963999D01*
X144417262Y-94966191D01*
X144417259Y-94966192D01*
X144294506Y-95021488D01*
X144211925Y-95058688D01*
X144020681Y-95187441D01*
X143853865Y-95346576D01*
X143716246Y-95531542D01*
X143713830Y-95536293D01*
X143713828Y-95536297D01*
X143680008Y-95602817D01*
X143611760Y-95737051D01*
X143610178Y-95742145D01*
X143610177Y-95742148D01*
X143567844Y-95878482D01*
X143543393Y-95957227D01*
X143542692Y-95962516D01*
X143527304Y-96078623D01*
X143513102Y-96185774D01*
X136758500Y-96185774D01*
X136758500Y-91562538D01*
X136778502Y-91494417D01*
X136832158Y-91447924D01*
X136844624Y-91443014D01*
X136905653Y-91422653D01*
X136923946Y-91416550D01*
X137074348Y-91323478D01*
X137199305Y-91198303D01*
X137231462Y-91146135D01*
X137288275Y-91053968D01*
X137288276Y-91053966D01*
X137292115Y-91047738D01*
X137347797Y-90879861D01*
X137349293Y-90865265D01*
X137355611Y-90803598D01*
X137358500Y-90775400D01*
X137358500Y-89224600D01*
X137355569Y-89196350D01*
X137348238Y-89125692D01*
X137348237Y-89125688D01*
X137347526Y-89118834D01*
X137343710Y-89107394D01*
X137293868Y-88958002D01*
X137291550Y-88951054D01*
X137198478Y-88800652D01*
X137073303Y-88675695D01*
X137042494Y-88656704D01*
X136928968Y-88586725D01*
X136928966Y-88586724D01*
X136922738Y-88582885D01*
X136840419Y-88555581D01*
X136761389Y-88529368D01*
X136761387Y-88529368D01*
X136754861Y-88527203D01*
X136748025Y-88526503D01*
X136748022Y-88526502D01*
X136704969Y-88522091D01*
X136650400Y-88516500D01*
X135349600Y-88516500D01*
X135346354Y-88516837D01*
X135346350Y-88516837D01*
X135250692Y-88526762D01*
X135250688Y-88526763D01*
X135243834Y-88527474D01*
X135237298Y-88529655D01*
X135237296Y-88529655D01*
X135105194Y-88573728D01*
X135076054Y-88583450D01*
X134925652Y-88676522D01*
X134800695Y-88801697D01*
X134727170Y-88920977D01*
X134710648Y-88947780D01*
X134657876Y-88995273D01*
X134587804Y-89006697D01*
X134522680Y-88978423D01*
X134512218Y-88968636D01*
X134406766Y-88858094D01*
X134398814Y-88851059D01*
X134222475Y-88719859D01*
X134213438Y-88714255D01*
X134017516Y-88614643D01*
X134007665Y-88610643D01*
X133797760Y-88545466D01*
X133787376Y-88543183D01*
X133771957Y-88541139D01*
X133757793Y-88543335D01*
X133754000Y-88556522D01*
X133754000Y-91441192D01*
X133757973Y-91454723D01*
X133768580Y-91456248D01*
X133886421Y-91431523D01*
X133896617Y-91428463D01*
X134101029Y-91347737D01*
X134110561Y-91343006D01*
X134298462Y-91228984D01*
X134307052Y-91222720D01*
X134473052Y-91078673D01*
X134480470Y-91071044D01*
X134506391Y-91039431D01*
X134565051Y-90999436D01*
X134636021Y-90997504D01*
X134696770Y-91034248D01*
X134710969Y-91053017D01*
X134801522Y-91199348D01*
X134926697Y-91324305D01*
X134932927Y-91328145D01*
X134932928Y-91328146D01*
X135070976Y-91413240D01*
X135077262Y-91417115D01*
X135124322Y-91432724D01*
X135155167Y-91442955D01*
X135213527Y-91483386D01*
X135240764Y-91548950D01*
X135241500Y-91562548D01*
X135241500Y-97932930D01*
X135240067Y-97951880D01*
X135236801Y-97973349D01*
X135237394Y-97980641D01*
X135237394Y-97980644D01*
X135241085Y-98026018D01*
X135241500Y-98036233D01*
X135241500Y-98044293D01*
X135241925Y-98047937D01*
X135244789Y-98072507D01*
X135245222Y-98076882D01*
X135249659Y-98131425D01*
X135251140Y-98149637D01*
X135253396Y-98156601D01*
X135254587Y-98162560D01*
X135255971Y-98168415D01*
X135256818Y-98175681D01*
X135281735Y-98244327D01*
X135283152Y-98248455D01*
X135291530Y-98274315D01*
X135305649Y-98317899D01*
X135309445Y-98324154D01*
X135311951Y-98329628D01*
X135314670Y-98335058D01*
X135317167Y-98341937D01*
X135321180Y-98348057D01*
X135321180Y-98348058D01*
X135357186Y-98402976D01*
X135359523Y-98406680D01*
X135397405Y-98469107D01*
X135401121Y-98473315D01*
X135401122Y-98473316D01*
X135404803Y-98477484D01*
X135404776Y-98477508D01*
X135407429Y-98480500D01*
X135410132Y-98483733D01*
X135414144Y-98489852D01*
X135430636Y-98505475D01*
X135470383Y-98543128D01*
X135472825Y-98545506D01*
X138666230Y-101738911D01*
X138678616Y-101753323D01*
X138687149Y-101764918D01*
X138687154Y-101764923D01*
X138691492Y-101770818D01*
X138697070Y-101775557D01*
X138697073Y-101775560D01*
X138731768Y-101805035D01*
X138739284Y-101811965D01*
X138744979Y-101817660D01*
X138747861Y-101819940D01*
X138767251Y-101835281D01*
X138770655Y-101838072D01*
X138820703Y-101880591D01*
X138826285Y-101885333D01*
X138832801Y-101888661D01*
X138837850Y-101892028D01*
X138842979Y-101895195D01*
X138848716Y-101899734D01*
X138914875Y-101930655D01*
X138918769Y-101932558D01*
X138983808Y-101965769D01*
X138990916Y-101967508D01*
X138996559Y-101969607D01*
X139002322Y-101971524D01*
X139008950Y-101974622D01*
X139016112Y-101976112D01*
X139016113Y-101976112D01*
X139080412Y-101989486D01*
X139084696Y-101990456D01*
X139155610Y-102007808D01*
X139161212Y-102008156D01*
X139161215Y-102008156D01*
X139166764Y-102008500D01*
X139166762Y-102008536D01*
X139170755Y-102008775D01*
X139174947Y-102009149D01*
X139182115Y-102010640D01*
X139259520Y-102008546D01*
X139262928Y-102008500D01*
X143677192Y-102008500D01*
X143745313Y-102028502D01*
X143772471Y-102054103D01*
X143773377Y-102053317D01*
X143863438Y-102157103D01*
X143924477Y-102227445D01*
X143960120Y-102256670D01*
X144000114Y-102315329D01*
X144002046Y-102386299D01*
X143965302Y-102447048D01*
X143946532Y-102461248D01*
X143870174Y-102508500D01*
X143800652Y-102551522D01*
X143675695Y-102676697D01*
X143671855Y-102682927D01*
X143671854Y-102682928D01*
X143588123Y-102818765D01*
X143582885Y-102827262D01*
X143566403Y-102876955D01*
X143557045Y-102905167D01*
X143516614Y-102963527D01*
X143451050Y-102990764D01*
X143437452Y-102991500D01*
X133517063Y-102991500D01*
X133498114Y-102990067D01*
X133497907Y-102990036D01*
X133476651Y-102986802D01*
X133469359Y-102987395D01*
X133469356Y-102987395D01*
X133423991Y-102991085D01*
X133413777Y-102991500D01*
X133405707Y-102991500D01*
X133402087Y-102991922D01*
X133402069Y-102991923D01*
X133377461Y-102994792D01*
X133373100Y-102995224D01*
X133347981Y-102997267D01*
X133307661Y-103000546D01*
X133307658Y-103000547D01*
X133300363Y-103001140D01*
X133293399Y-103003396D01*
X133287440Y-103004587D01*
X133281585Y-103005971D01*
X133274319Y-103006818D01*
X133205673Y-103031735D01*
X133201545Y-103033152D01*
X133139064Y-103053393D01*
X133139062Y-103053394D01*
X133132101Y-103055649D01*
X133125846Y-103059445D01*
X133120372Y-103061951D01*
X133114942Y-103064670D01*
X133108063Y-103067167D01*
X133047016Y-103107191D01*
X133043327Y-103109518D01*
X133023135Y-103121771D01*
X132985693Y-103144491D01*
X132985688Y-103144495D01*
X132980892Y-103147405D01*
X132972516Y-103154803D01*
X132972493Y-103154777D01*
X132969503Y-103157426D01*
X132966264Y-103160134D01*
X132960148Y-103164144D01*
X132955121Y-103169451D01*
X132955117Y-103169454D01*
X132906872Y-103220383D01*
X132904494Y-103222825D01*
X129911089Y-106216230D01*
X129896677Y-106228616D01*
X129885082Y-106237149D01*
X129885077Y-106237154D01*
X129879182Y-106241492D01*
X129874443Y-106247070D01*
X129874440Y-106247073D01*
X129844965Y-106281768D01*
X129838035Y-106289284D01*
X129832340Y-106294979D01*
X129830060Y-106297861D01*
X129814719Y-106317251D01*
X129811928Y-106320655D01*
X129773306Y-106366116D01*
X129764667Y-106376285D01*
X129761339Y-106382801D01*
X129757972Y-106387850D01*
X129754805Y-106392979D01*
X129750266Y-106398716D01*
X129719345Y-106464875D01*
X129717442Y-106468769D01*
X129684231Y-106533808D01*
X129682492Y-106540916D01*
X129680393Y-106546559D01*
X129678476Y-106552322D01*
X129675378Y-106558950D01*
X129673888Y-106566112D01*
X129673888Y-106566113D01*
X129660514Y-106630412D01*
X129659544Y-106634696D01*
X129642192Y-106705610D01*
X129641500Y-106716764D01*
X129641464Y-106716762D01*
X129641225Y-106720755D01*
X129640851Y-106724947D01*
X129639360Y-106732115D01*
X129639558Y-106739432D01*
X129641454Y-106809521D01*
X129641500Y-106812928D01*
X129641500Y-110633629D01*
X129621498Y-110701750D01*
X129604595Y-110722724D01*
X128922724Y-111404595D01*
X128860412Y-111438621D01*
X128833629Y-111441500D01*
X105766371Y-111441500D01*
X105698250Y-111421498D01*
X105677276Y-111404595D01*
X103383770Y-109111089D01*
X103371384Y-109096677D01*
X103362851Y-109085082D01*
X103362846Y-109085077D01*
X103358508Y-109079182D01*
X103352930Y-109074443D01*
X103352927Y-109074440D01*
X103318232Y-109044965D01*
X103310716Y-109038035D01*
X103305021Y-109032340D01*
X103288736Y-109019456D01*
X103282749Y-109014719D01*
X103279345Y-109011928D01*
X103229297Y-108969409D01*
X103229295Y-108969408D01*
X103223715Y-108964667D01*
X103217199Y-108961339D01*
X103212150Y-108957972D01*
X103207021Y-108954805D01*
X103201284Y-108950266D01*
X103135125Y-108919345D01*
X103131225Y-108917439D01*
X103066192Y-108884231D01*
X103059084Y-108882492D01*
X103053441Y-108880393D01*
X103047678Y-108878476D01*
X103041050Y-108875378D01*
X102969583Y-108860513D01*
X102965299Y-108859543D01*
X102894390Y-108842192D01*
X102888788Y-108841844D01*
X102888785Y-108841844D01*
X102883236Y-108841500D01*
X102883238Y-108841464D01*
X102879245Y-108841225D01*
X102875053Y-108840851D01*
X102867885Y-108839360D01*
X102804120Y-108841085D01*
X102790479Y-108841454D01*
X102787072Y-108841500D01*
X96267070Y-108841500D01*
X96248120Y-108840067D01*
X96233885Y-108837901D01*
X96233881Y-108837901D01*
X96226651Y-108836801D01*
X96219359Y-108837394D01*
X96219356Y-108837394D01*
X96173982Y-108841085D01*
X96163767Y-108841500D01*
X96155707Y-108841500D01*
X96152073Y-108841924D01*
X96152067Y-108841924D01*
X96139042Y-108843443D01*
X96127480Y-108844791D01*
X96123132Y-108845221D01*
X96101059Y-108847016D01*
X96057662Y-108850546D01*
X96057659Y-108850547D01*
X96050364Y-108851140D01*
X96043400Y-108853396D01*
X96037461Y-108854583D01*
X96031590Y-108855970D01*
X96024319Y-108856818D01*
X96017443Y-108859314D01*
X96017434Y-108859316D01*
X95955702Y-108881725D01*
X95951598Y-108883135D01*
X95882101Y-108905648D01*
X95875846Y-108909444D01*
X95870387Y-108911943D01*
X95864939Y-108914671D01*
X95858063Y-108917167D01*
X95797010Y-108957195D01*
X95793327Y-108959519D01*
X95735686Y-108994496D01*
X95735682Y-108994499D01*
X95730893Y-108997405D01*
X95726694Y-109001114D01*
X95726689Y-109001117D01*
X95722516Y-109004803D01*
X95722492Y-109004776D01*
X95719500Y-109007429D01*
X95716267Y-109010132D01*
X95710148Y-109014144D01*
X95681587Y-109044293D01*
X95656872Y-109070383D01*
X95654494Y-109072825D01*
X92922724Y-111804595D01*
X92860412Y-111838621D01*
X92833629Y-111841500D01*
X55366371Y-111841500D01*
X55298250Y-111821498D01*
X55277276Y-111804595D01*
X52545571Y-109072890D01*
X63569500Y-109072890D01*
X63572169Y-109104345D01*
X63581673Y-109216349D01*
X63584080Y-109244720D01*
X63585418Y-109249875D01*
X63585419Y-109249881D01*
X63640657Y-109462703D01*
X63641999Y-109467872D01*
X63644191Y-109472738D01*
X63644192Y-109472741D01*
X63705005Y-109607741D01*
X63736688Y-109678075D01*
X63865441Y-109869319D01*
X63869120Y-109873176D01*
X63869122Y-109873178D01*
X63930509Y-109937528D01*
X64024576Y-110036135D01*
X64209542Y-110173754D01*
X64214293Y-110176170D01*
X64214297Y-110176172D01*
X64296855Y-110218146D01*
X64415051Y-110278240D01*
X64420145Y-110279822D01*
X64420148Y-110279823D01*
X64585583Y-110331192D01*
X64635227Y-110346607D01*
X64640516Y-110347308D01*
X64858489Y-110376198D01*
X64858494Y-110376198D01*
X64863774Y-110376898D01*
X64869103Y-110376698D01*
X64869105Y-110376698D01*
X64978966Y-110372574D01*
X65094158Y-110368249D01*
X65116802Y-110363498D01*
X65314572Y-110322002D01*
X65319791Y-110320907D01*
X65324750Y-110318949D01*
X65324752Y-110318948D01*
X65529256Y-110238185D01*
X65529258Y-110238184D01*
X65534221Y-110236224D01*
X65539525Y-110233006D01*
X65726757Y-110119390D01*
X65726756Y-110119390D01*
X65731317Y-110116623D01*
X65754629Y-110096394D01*
X65901412Y-109969023D01*
X65901414Y-109969021D01*
X65905445Y-109965523D01*
X65959987Y-109899004D01*
X66048240Y-109791373D01*
X66048244Y-109791367D01*
X66051624Y-109787245D01*
X66057804Y-109776389D01*
X66069829Y-109755265D01*
X66120912Y-109705959D01*
X66190542Y-109692098D01*
X66256613Y-109718082D01*
X66283851Y-109747232D01*
X66362852Y-109864578D01*
X66369519Y-109872870D01*
X66521228Y-110031900D01*
X66529186Y-110038941D01*
X66705525Y-110170141D01*
X66714562Y-110175745D01*
X66910484Y-110275357D01*
X66920335Y-110279357D01*
X67130240Y-110344534D01*
X67140624Y-110346817D01*
X67156043Y-110348861D01*
X67170207Y-110346665D01*
X67174000Y-110333478D01*
X67174000Y-110331192D01*
X67682000Y-110331192D01*
X67685973Y-110344723D01*
X67696580Y-110346248D01*
X67814421Y-110321523D01*
X67824617Y-110318463D01*
X68029029Y-110237737D01*
X68038561Y-110233006D01*
X68226462Y-110118984D01*
X68235052Y-110112720D01*
X68401052Y-109968673D01*
X68408470Y-109961044D01*
X68434391Y-109929431D01*
X68493051Y-109889436D01*
X68564021Y-109887504D01*
X68624770Y-109924248D01*
X68638969Y-109943017D01*
X68729522Y-110089348D01*
X68854697Y-110214305D01*
X68860927Y-110218145D01*
X68860928Y-110218146D01*
X68998090Y-110302694D01*
X69005262Y-110307115D01*
X69040938Y-110318948D01*
X69166611Y-110360632D01*
X69166613Y-110360632D01*
X69173139Y-110362797D01*
X69179975Y-110363497D01*
X69179978Y-110363498D01*
X69215663Y-110367154D01*
X69277600Y-110373500D01*
X70578400Y-110373500D01*
X70581646Y-110373163D01*
X70581650Y-110373163D01*
X70677308Y-110363238D01*
X70677312Y-110363237D01*
X70684166Y-110362526D01*
X70690702Y-110360345D01*
X70690704Y-110360345D01*
X70822806Y-110316272D01*
X70851946Y-110306550D01*
X71002348Y-110213478D01*
X71127305Y-110088303D01*
X71133059Y-110078968D01*
X71216275Y-109943968D01*
X71216276Y-109943966D01*
X71220115Y-109937738D01*
X71250354Y-109846569D01*
X71273632Y-109776389D01*
X71273632Y-109776387D01*
X71275797Y-109769861D01*
X71277273Y-109755462D01*
X71281488Y-109714316D01*
X71286500Y-109665400D01*
X71286500Y-108114600D01*
X71284481Y-108095139D01*
X71276238Y-108015692D01*
X71276237Y-108015688D01*
X71275526Y-108008834D01*
X71271710Y-107997394D01*
X71221868Y-107848002D01*
X71219550Y-107841054D01*
X71126478Y-107690652D01*
X71001303Y-107565695D01*
X70995072Y-107561854D01*
X70856968Y-107476725D01*
X70856966Y-107476724D01*
X70850738Y-107472885D01*
X70737353Y-107435277D01*
X70689389Y-107419368D01*
X70689387Y-107419368D01*
X70682861Y-107417203D01*
X70676025Y-107416503D01*
X70676022Y-107416502D01*
X70632969Y-107412091D01*
X70578400Y-107406500D01*
X69277600Y-107406500D01*
X69274354Y-107406837D01*
X69274350Y-107406837D01*
X69178692Y-107416762D01*
X69178688Y-107416763D01*
X69171834Y-107417474D01*
X69165298Y-107419655D01*
X69165296Y-107419655D01*
X69039264Y-107461703D01*
X69004054Y-107473450D01*
X68853652Y-107566522D01*
X68848479Y-107571704D01*
X68822688Y-107597540D01*
X68728695Y-107691697D01*
X68724855Y-107697927D01*
X68724854Y-107697928D01*
X68700726Y-107737071D01*
X68655170Y-107810977D01*
X68638648Y-107837780D01*
X68585876Y-107885273D01*
X68515804Y-107896697D01*
X68450680Y-107868423D01*
X68440218Y-107858636D01*
X68334766Y-107748094D01*
X68326814Y-107741059D01*
X68150475Y-107609859D01*
X68141438Y-107604255D01*
X67945516Y-107504643D01*
X67935665Y-107500643D01*
X67725760Y-107435466D01*
X67715376Y-107433183D01*
X67699957Y-107431139D01*
X67685793Y-107433335D01*
X67682000Y-107446522D01*
X67682000Y-110331192D01*
X67174000Y-110331192D01*
X67174000Y-107448808D01*
X67170027Y-107435277D01*
X67159420Y-107433752D01*
X67041579Y-107458477D01*
X67031383Y-107461537D01*
X66826971Y-107542263D01*
X66817439Y-107546994D01*
X66629538Y-107661016D01*
X66620948Y-107667280D01*
X66454948Y-107811327D01*
X66447528Y-107818958D01*
X66308174Y-107988911D01*
X66302152Y-107997674D01*
X66286762Y-108024711D01*
X66235680Y-108074018D01*
X66166049Y-108087880D01*
X66099978Y-108061897D01*
X66072739Y-108032747D01*
X66030382Y-107969832D01*
X65990559Y-107910681D01*
X65831424Y-107743865D01*
X65646458Y-107606246D01*
X65641707Y-107603830D01*
X65641703Y-107603828D01*
X65522058Y-107542998D01*
X65440949Y-107501760D01*
X65435855Y-107500178D01*
X65435852Y-107500177D01*
X65225871Y-107434976D01*
X65220773Y-107433393D01*
X65215484Y-107432692D01*
X64997511Y-107403802D01*
X64997506Y-107403802D01*
X64992226Y-107403102D01*
X64986897Y-107403302D01*
X64986895Y-107403302D01*
X64877034Y-107407427D01*
X64761842Y-107411751D01*
X64756623Y-107412846D01*
X64734566Y-107417474D01*
X64536209Y-107459093D01*
X64531250Y-107461051D01*
X64531248Y-107461052D01*
X64326744Y-107541815D01*
X64326742Y-107541816D01*
X64321779Y-107543776D01*
X64317220Y-107546543D01*
X64317217Y-107546544D01*
X64222113Y-107604255D01*
X64124683Y-107663377D01*
X64120653Y-107666874D01*
X63963144Y-107803553D01*
X63950555Y-107814477D01*
X63914347Y-107858636D01*
X63813805Y-107981256D01*
X63804376Y-107992755D01*
X63801738Y-107997390D01*
X63801735Y-107997394D01*
X63742935Y-108100692D01*
X63690325Y-108193114D01*
X63611663Y-108409825D01*
X63610714Y-108415074D01*
X63610713Y-108415077D01*
X63571377Y-108632608D01*
X63571376Y-108632615D01*
X63570639Y-108636692D01*
X63569500Y-108660844D01*
X63569500Y-109072890D01*
X52545571Y-109072890D01*
X52195405Y-108722724D01*
X52161379Y-108660412D01*
X52158500Y-108633629D01*
X52158500Y-103685774D01*
X53513102Y-103685774D01*
X53521751Y-103916158D01*
X53569093Y-104141791D01*
X53571051Y-104146750D01*
X53571052Y-104146752D01*
X53620984Y-104273186D01*
X53653776Y-104356221D01*
X53656543Y-104360780D01*
X53656544Y-104360783D01*
X53682525Y-104403598D01*
X53773377Y-104553317D01*
X53776874Y-104557347D01*
X53910806Y-104711690D01*
X53924477Y-104727445D01*
X53928608Y-104730832D01*
X54098627Y-104870240D01*
X54098633Y-104870244D01*
X54102755Y-104873624D01*
X54107391Y-104876263D01*
X54107394Y-104876265D01*
X54239161Y-104951271D01*
X54303114Y-104987675D01*
X54519825Y-105066337D01*
X54525074Y-105067286D01*
X54525077Y-105067287D01*
X54742608Y-105106623D01*
X54742615Y-105106624D01*
X54746692Y-105107361D01*
X54763889Y-105108172D01*
X54769356Y-105108430D01*
X54769363Y-105108430D01*
X54770844Y-105108500D01*
X55182890Y-105108500D01*
X55249809Y-105102822D01*
X55349409Y-105094371D01*
X55349413Y-105094370D01*
X55354720Y-105093920D01*
X55359875Y-105092582D01*
X55359881Y-105092581D01*
X55572703Y-105037343D01*
X55572707Y-105037342D01*
X55577872Y-105036001D01*
X55582738Y-105033809D01*
X55582741Y-105033808D01*
X55783202Y-104943507D01*
X55788075Y-104941312D01*
X55979319Y-104812559D01*
X55989318Y-104803021D01*
X56097003Y-104700294D01*
X56146135Y-104653424D01*
X56283754Y-104468458D01*
X56295157Y-104446031D01*
X56343342Y-104351256D01*
X56388240Y-104262949D01*
X56410231Y-104192129D01*
X56455024Y-104047871D01*
X56456607Y-104042773D01*
X56464862Y-103980491D01*
X56486198Y-103819511D01*
X56486198Y-103819506D01*
X56486898Y-103814226D01*
X56478249Y-103583842D01*
X56430907Y-103358209D01*
X56385014Y-103242000D01*
X56348185Y-103148744D01*
X56348184Y-103148742D01*
X56346224Y-103143779D01*
X56324747Y-103108385D01*
X56238813Y-102966772D01*
X56226623Y-102946683D01*
X56206414Y-102923394D01*
X56079023Y-102776588D01*
X56079021Y-102776586D01*
X56075523Y-102772555D01*
X55985987Y-102699140D01*
X55901373Y-102629760D01*
X55901367Y-102629756D01*
X55897245Y-102626376D01*
X55887801Y-102621000D01*
X55865265Y-102608171D01*
X55815959Y-102557088D01*
X55802098Y-102487458D01*
X55828082Y-102421387D01*
X55857232Y-102394149D01*
X55974578Y-102315148D01*
X55982870Y-102308481D01*
X56141900Y-102156772D01*
X56148941Y-102148814D01*
X56280141Y-101972475D01*
X56285745Y-101963438D01*
X56385357Y-101767516D01*
X56389357Y-101757665D01*
X56454534Y-101547760D01*
X56456817Y-101537376D01*
X56458861Y-101521957D01*
X56456665Y-101507793D01*
X56443478Y-101504000D01*
X53558808Y-101504000D01*
X53545277Y-101507973D01*
X53543752Y-101518580D01*
X53568477Y-101636421D01*
X53571537Y-101646617D01*
X53652263Y-101851029D01*
X53656994Y-101860561D01*
X53771016Y-102048462D01*
X53777280Y-102057052D01*
X53921327Y-102223052D01*
X53928958Y-102230472D01*
X54098911Y-102369826D01*
X54107674Y-102375848D01*
X54134711Y-102391238D01*
X54184018Y-102442320D01*
X54197880Y-102511951D01*
X54171897Y-102578022D01*
X54142747Y-102605261D01*
X54115310Y-102623733D01*
X54020681Y-102687441D01*
X54016824Y-102691120D01*
X54016822Y-102691122D01*
X53960769Y-102744594D01*
X53853865Y-102846576D01*
X53716246Y-103031542D01*
X53713830Y-103036293D01*
X53713828Y-103036297D01*
X53680944Y-103100975D01*
X53611760Y-103237051D01*
X53610178Y-103242145D01*
X53610177Y-103242148D01*
X53560947Y-103400693D01*
X53543393Y-103457227D01*
X53542692Y-103462516D01*
X53517941Y-103649265D01*
X53513102Y-103685774D01*
X52158500Y-103685774D01*
X52158500Y-100566371D01*
X52178502Y-100498250D01*
X52195405Y-100477276D01*
X53127276Y-99545405D01*
X53189588Y-99511379D01*
X53216371Y-99508500D01*
X53677192Y-99508500D01*
X53745313Y-99528502D01*
X53772471Y-99554103D01*
X53773377Y-99553317D01*
X53896305Y-99694979D01*
X53924477Y-99727445D01*
X53942228Y-99742000D01*
X54098627Y-99870240D01*
X54098633Y-99870244D01*
X54102755Y-99873624D01*
X54107398Y-99876267D01*
X54134735Y-99891829D01*
X54184041Y-99942912D01*
X54197902Y-100012542D01*
X54171918Y-100078613D01*
X54142768Y-100105851D01*
X54025422Y-100184852D01*
X54017130Y-100191519D01*
X53858100Y-100343228D01*
X53851059Y-100351186D01*
X53719859Y-100527525D01*
X53714255Y-100536562D01*
X53614643Y-100732484D01*
X53610643Y-100742335D01*
X53545466Y-100952240D01*
X53543183Y-100962624D01*
X53541139Y-100978043D01*
X53543335Y-100992207D01*
X53556522Y-100996000D01*
X56441192Y-100996000D01*
X56454723Y-100992027D01*
X56456248Y-100981420D01*
X56431523Y-100863579D01*
X56428463Y-100853383D01*
X56347737Y-100648971D01*
X56343006Y-100639439D01*
X56228984Y-100451538D01*
X56222720Y-100442948D01*
X56078673Y-100276948D01*
X56071042Y-100269528D01*
X55901089Y-100130174D01*
X55892326Y-100124152D01*
X55865289Y-100108762D01*
X55815982Y-100057680D01*
X55802120Y-99988049D01*
X55828103Y-99921978D01*
X55857253Y-99894739D01*
X55910532Y-99858869D01*
X55979319Y-99812559D01*
X55983454Y-99808615D01*
X56056262Y-99739159D01*
X56146135Y-99653424D01*
X56183763Y-99602851D01*
X56253962Y-99508500D01*
X56283754Y-99468458D01*
X56286307Y-99463438D01*
X56385822Y-99267704D01*
X56388240Y-99262949D01*
X56456607Y-99042773D01*
X56459366Y-99021957D01*
X56486198Y-98819511D01*
X56486198Y-98819506D01*
X56486898Y-98814226D01*
X56478249Y-98583842D01*
X56472131Y-98554681D01*
X56432002Y-98363428D01*
X56430907Y-98358209D01*
X56400269Y-98280629D01*
X56348185Y-98148744D01*
X56348184Y-98148742D01*
X56346224Y-98143779D01*
X56338728Y-98131425D01*
X56238415Y-97966115D01*
X56226623Y-97946683D01*
X56223126Y-97942653D01*
X56079023Y-97776588D01*
X56079021Y-97776586D01*
X56075523Y-97772555D01*
X56039880Y-97743330D01*
X55999886Y-97684671D01*
X55997954Y-97613701D01*
X56034698Y-97552952D01*
X56053468Y-97538752D01*
X56193120Y-97452332D01*
X56199348Y-97448478D01*
X56324305Y-97323303D01*
X56364250Y-97258500D01*
X56413275Y-97178968D01*
X56413276Y-97178966D01*
X56417115Y-97172738D01*
X56456725Y-97053317D01*
X56470632Y-97011389D01*
X56470632Y-97011387D01*
X56472797Y-97004861D01*
X56473741Y-96995655D01*
X56483172Y-96903598D01*
X56483500Y-96900400D01*
X56483500Y-95599600D01*
X56476932Y-95536297D01*
X56473238Y-95500692D01*
X56473237Y-95500688D01*
X56472526Y-95493834D01*
X56458317Y-95451243D01*
X56418868Y-95333002D01*
X56416550Y-95326054D01*
X56323478Y-95175652D01*
X56198303Y-95050695D01*
X56150921Y-95021488D01*
X56053968Y-94961725D01*
X56053966Y-94961724D01*
X56047738Y-94957885D01*
X55895587Y-94907419D01*
X55886389Y-94904368D01*
X55886387Y-94904368D01*
X55879861Y-94902203D01*
X55873025Y-94901503D01*
X55873022Y-94901502D01*
X55829969Y-94897091D01*
X55775400Y-94891500D01*
X54224600Y-94891500D01*
X54221354Y-94891837D01*
X54221350Y-94891837D01*
X54125692Y-94901762D01*
X54125688Y-94901763D01*
X54118834Y-94902474D01*
X54112298Y-94904655D01*
X54112296Y-94904655D01*
X54028197Y-94932713D01*
X53951054Y-94958450D01*
X53800652Y-95051522D01*
X53675695Y-95176697D01*
X53582885Y-95327262D01*
X53580581Y-95334209D01*
X53541763Y-95451243D01*
X53527203Y-95495139D01*
X53516500Y-95599600D01*
X53516500Y-96900400D01*
X53516837Y-96903646D01*
X53516837Y-96903650D01*
X53525684Y-96988911D01*
X53527474Y-97006166D01*
X53529655Y-97012702D01*
X53529655Y-97012704D01*
X53543205Y-97053317D01*
X53583450Y-97173946D01*
X53676522Y-97324348D01*
X53801697Y-97449305D01*
X53947340Y-97539081D01*
X53994832Y-97591852D01*
X54006256Y-97661924D01*
X53977982Y-97727048D01*
X53968195Y-97737510D01*
X53945144Y-97759500D01*
X53853865Y-97846576D01*
X53850682Y-97850854D01*
X53783825Y-97940713D01*
X53727115Y-97983426D01*
X53682736Y-97991500D01*
X52917070Y-97991500D01*
X52898120Y-97990067D01*
X52883885Y-97987901D01*
X52883881Y-97987901D01*
X52876651Y-97986801D01*
X52869359Y-97987394D01*
X52869356Y-97987394D01*
X52823982Y-97991085D01*
X52813767Y-97991500D01*
X52805707Y-97991500D01*
X52802073Y-97991924D01*
X52802067Y-97991924D01*
X52789042Y-97993443D01*
X52777480Y-97994791D01*
X52773132Y-97995221D01*
X52751059Y-97997016D01*
X52707662Y-98000546D01*
X52707659Y-98000547D01*
X52700364Y-98001140D01*
X52693400Y-98003396D01*
X52687461Y-98004583D01*
X52681590Y-98005970D01*
X52674319Y-98006818D01*
X52667443Y-98009314D01*
X52667434Y-98009316D01*
X52605702Y-98031725D01*
X52601598Y-98033135D01*
X52532101Y-98055648D01*
X52525846Y-98059444D01*
X52520387Y-98061943D01*
X52514939Y-98064671D01*
X52508063Y-98067167D01*
X52447010Y-98107195D01*
X52443327Y-98109519D01*
X52385686Y-98144496D01*
X52385682Y-98144499D01*
X52380893Y-98147405D01*
X52376694Y-98151114D01*
X52376689Y-98151117D01*
X52372516Y-98154803D01*
X52372492Y-98154776D01*
X52369500Y-98157429D01*
X52366267Y-98160132D01*
X52360148Y-98164144D01*
X52355116Y-98169456D01*
X52306872Y-98220383D01*
X52304494Y-98222825D01*
X50911089Y-99616230D01*
X50896677Y-99628616D01*
X50885082Y-99637149D01*
X50885077Y-99637154D01*
X50879182Y-99641492D01*
X50874443Y-99647070D01*
X50874440Y-99647073D01*
X50844965Y-99681768D01*
X50838035Y-99689284D01*
X50832340Y-99694979D01*
X50830060Y-99697861D01*
X50814719Y-99717251D01*
X50811928Y-99720655D01*
X50769409Y-99770703D01*
X50764667Y-99776285D01*
X50761339Y-99782801D01*
X50757972Y-99787850D01*
X50754805Y-99792979D01*
X50750266Y-99798716D01*
X50719345Y-99864875D01*
X50717442Y-99868769D01*
X50684231Y-99933808D01*
X50682492Y-99940916D01*
X50680393Y-99946559D01*
X50678476Y-99952322D01*
X50675378Y-99958950D01*
X50673888Y-99966112D01*
X50673888Y-99966113D01*
X50660514Y-100030412D01*
X50659544Y-100034696D01*
X50642192Y-100105610D01*
X50641500Y-100116764D01*
X50641464Y-100116762D01*
X50641225Y-100120755D01*
X50640851Y-100124947D01*
X50639360Y-100132115D01*
X50639558Y-100139432D01*
X50641454Y-100209521D01*
X50641500Y-100212928D01*
X50641500Y-108932930D01*
X50640067Y-108951880D01*
X50638122Y-108964667D01*
X50636801Y-108973349D01*
X39508000Y-108973349D01*
X39508000Y-105799328D01*
X39509500Y-105779943D01*
X39511805Y-105765141D01*
X39511805Y-105765139D01*
X39513186Y-105756270D01*
X39512022Y-105747366D01*
X39511195Y-105741041D01*
X39510452Y-105715713D01*
X39510554Y-105714296D01*
X39522543Y-105546657D01*
X39525101Y-105528863D01*
X39542635Y-105448262D01*
X39566521Y-105338460D01*
X39571586Y-105321212D01*
X39639682Y-105138642D01*
X39647149Y-105122290D01*
X39717220Y-104993963D01*
X39740534Y-104951266D01*
X39750248Y-104936152D01*
X39867023Y-104780158D01*
X39878796Y-104766572D01*
X40016572Y-104628796D01*
X40030158Y-104617023D01*
X40076732Y-104582158D01*
X40186152Y-104500248D01*
X40201266Y-104490534D01*
X40366336Y-104400400D01*
X40372290Y-104397149D01*
X40388642Y-104389682D01*
X40571212Y-104321586D01*
X40588460Y-104316521D01*
X40778863Y-104275101D01*
X40796658Y-104272543D01*
X40845557Y-104269046D01*
X40958631Y-104260959D01*
X40976533Y-104261703D01*
X40984858Y-104261805D01*
X40993730Y-104263186D01*
X41002632Y-104262022D01*
X41002635Y-104262022D01*
X41025251Y-104259064D01*
X41041589Y-104258000D01*
X41946793Y-104258000D01*
X41967697Y-104259746D01*
X41987461Y-104263071D01*
X41993559Y-104263145D01*
X41995132Y-104263165D01*
X41995137Y-104263165D01*
X42000000Y-104263224D01*
X42004823Y-104262534D01*
X42005138Y-104262513D01*
X42014457Y-104261555D01*
X42073312Y-104257852D01*
X42283562Y-104244624D01*
X42562652Y-104191385D01*
X42832869Y-104103586D01*
X43089950Y-103982612D01*
X43329843Y-103830372D01*
X43548763Y-103649265D01*
X43743258Y-103442149D01*
X43910262Y-103212289D01*
X43941880Y-103154777D01*
X44045236Y-102966772D01*
X44045237Y-102966769D01*
X44047139Y-102963310D01*
X44111226Y-102801445D01*
X44150273Y-102702823D01*
X44150274Y-102702820D01*
X44151731Y-102699140D01*
X44152715Y-102695306D01*
X44152718Y-102695298D01*
X44212105Y-102463999D01*
X44222390Y-102423943D01*
X44224386Y-102408148D01*
X44248701Y-102215671D01*
X44258000Y-102142061D01*
X44258000Y-101857939D01*
X44222390Y-101576057D01*
X44155163Y-101314226D01*
X44152718Y-101304702D01*
X44152715Y-101304694D01*
X44151731Y-101300860D01*
X44145890Y-101286106D01*
X44048593Y-101040363D01*
X44047139Y-101036690D01*
X44024770Y-100996000D01*
X43912171Y-100791183D01*
X43912169Y-100791180D01*
X43910262Y-100787711D01*
X43767655Y-100591430D01*
X43745586Y-100561055D01*
X43745585Y-100561054D01*
X43743258Y-100557851D01*
X43548763Y-100350735D01*
X43329843Y-100169628D01*
X43089950Y-100017388D01*
X42832869Y-99896414D01*
X42562652Y-99808615D01*
X42283562Y-99755376D01*
X42155997Y-99747351D01*
X42032329Y-99739570D01*
X42019340Y-99738073D01*
X42017348Y-99737738D01*
X42017346Y-99737738D01*
X42012539Y-99736929D01*
X42006041Y-99736850D01*
X42004859Y-99736835D01*
X42004855Y-99736835D01*
X42000000Y-99736776D01*
X41973997Y-99740500D01*
X41972412Y-99740727D01*
X41954549Y-99742000D01*
X41049322Y-99742000D01*
X41029937Y-99740500D01*
X41015142Y-99738196D01*
X41015139Y-99738196D01*
X41006270Y-99736815D01*
X40997368Y-99737979D01*
X40997367Y-99737979D01*
X40995941Y-99738166D01*
X40991042Y-99738806D01*
X40965721Y-99739549D01*
X40838811Y-99730472D01*
X40796657Y-99727457D01*
X40778863Y-99724898D01*
X40588459Y-99683478D01*
X40571210Y-99678414D01*
X40388640Y-99610319D01*
X40372291Y-99602853D01*
X40201265Y-99509465D01*
X40186153Y-99499753D01*
X40030158Y-99382977D01*
X40016572Y-99371204D01*
X39878796Y-99233428D01*
X39867023Y-99219842D01*
X39804575Y-99136421D01*
X39750247Y-99063846D01*
X39740531Y-99048729D01*
X39647147Y-98877709D01*
X39639681Y-98861360D01*
X39571586Y-98678790D01*
X39566522Y-98661541D01*
X39525102Y-98471137D01*
X39522543Y-98453343D01*
X39519225Y-98406959D01*
X39510958Y-98291369D01*
X39511702Y-98273468D01*
X39511804Y-98265142D01*
X39513185Y-98256270D01*
X39512021Y-98247368D01*
X39512021Y-98247365D01*
X39509064Y-98224756D01*
X39508000Y-98208418D01*
X39508000Y-91317890D01*
X61141500Y-91317890D01*
X61146192Y-91373185D01*
X61155543Y-91483386D01*
X61156080Y-91489720D01*
X61157418Y-91494875D01*
X61157419Y-91494881D01*
X61212657Y-91707703D01*
X61213999Y-91712872D01*
X61308688Y-91923075D01*
X61437441Y-92114319D01*
X61596576Y-92281135D01*
X61781542Y-92418754D01*
X61786293Y-92421170D01*
X61786297Y-92421172D01*
X61884296Y-92470997D01*
X61987051Y-92523240D01*
X61992145Y-92524822D01*
X61992148Y-92524823D01*
X62174342Y-92581396D01*
X62207227Y-92591607D01*
X62212516Y-92592308D01*
X62430489Y-92621198D01*
X62430494Y-92621198D01*
X62435774Y-92621898D01*
X62441103Y-92621698D01*
X62441105Y-92621698D01*
X62550966Y-92617573D01*
X62666158Y-92613249D01*
X62817968Y-92581396D01*
X62888742Y-92586983D01*
X62932935Y-92615616D01*
X70756239Y-100438920D01*
X70768625Y-100453332D01*
X70777158Y-100464927D01*
X70777163Y-100464932D01*
X70781501Y-100470827D01*
X70787079Y-100475566D01*
X70787082Y-100475569D01*
X70821777Y-100505044D01*
X70829293Y-100511974D01*
X70834989Y-100517670D01*
X70837850Y-100519933D01*
X70837855Y-100519938D01*
X70857265Y-100535294D01*
X70860667Y-100538083D01*
X70897093Y-100569029D01*
X70916294Y-100585342D01*
X70922811Y-100588670D01*
X70927859Y-100592036D01*
X70932981Y-100595199D01*
X70938725Y-100599744D01*
X71004904Y-100630673D01*
X71008788Y-100632572D01*
X71073817Y-100665778D01*
X71080932Y-100667519D01*
X71086587Y-100669622D01*
X71092326Y-100671531D01*
X71098959Y-100674631D01*
X71170444Y-100689500D01*
X71174710Y-100690466D01*
X71245619Y-100707817D01*
X71251221Y-100708165D01*
X71251224Y-100708165D01*
X71256773Y-100708509D01*
X71256771Y-100708544D01*
X71260743Y-100708784D01*
X71264964Y-100709161D01*
X71272124Y-100710650D01*
X71349551Y-100708555D01*
X71352959Y-100708509D01*
X89674000Y-100708509D01*
X89742121Y-100728511D01*
X89788614Y-100782167D01*
X89800000Y-100834509D01*
X89800000Y-101099401D01*
X89795707Y-101132013D01*
X89755885Y-101280629D01*
X89736693Y-101500000D01*
X89755885Y-101719371D01*
X89768786Y-101767516D01*
X89795707Y-101867987D01*
X89800000Y-101900599D01*
X89800000Y-102600000D01*
X89865500Y-102600000D01*
X89933621Y-102620002D01*
X89980114Y-102673658D01*
X89991500Y-102726000D01*
X89991500Y-104030076D01*
X89971498Y-104098197D01*
X89954595Y-104119171D01*
X88869171Y-105204595D01*
X88806859Y-105238621D01*
X88780076Y-105241500D01*
X80231842Y-105241500D01*
X80218235Y-105240763D01*
X80186737Y-105237341D01*
X80186732Y-105237341D01*
X80180611Y-105236676D01*
X80162611Y-105238251D01*
X80130609Y-105241050D01*
X80125784Y-105241379D01*
X80123313Y-105241500D01*
X80120231Y-105241500D01*
X80097763Y-105243703D01*
X80077489Y-105245691D01*
X80076174Y-105245813D01*
X80043913Y-105248636D01*
X79983587Y-105253913D01*
X79978468Y-105255400D01*
X79973167Y-105255920D01*
X79884194Y-105282782D01*
X79883054Y-105283120D01*
X79793663Y-105309091D01*
X79788929Y-105311545D01*
X79783831Y-105313084D01*
X79778387Y-105315978D01*
X79778386Y-105315979D01*
X79701831Y-105356684D01*
X79700663Y-105357298D01*
X79623779Y-105397151D01*
X79618074Y-105400108D01*
X79613911Y-105403431D01*
X79609204Y-105405934D01*
X79537082Y-105464755D01*
X79536226Y-105465446D01*
X79497027Y-105496738D01*
X79494523Y-105499242D01*
X79493805Y-105499884D01*
X79489472Y-105503585D01*
X79455938Y-105530935D01*
X79452011Y-105535682D01*
X79452009Y-105535684D01*
X79426713Y-105566262D01*
X79418723Y-105575042D01*
X78612937Y-106380829D01*
X77839171Y-107154595D01*
X77776859Y-107188620D01*
X77750076Y-107191500D01*
X76071866Y-107191500D01*
X76009684Y-107198255D01*
X75873295Y-107249385D01*
X75756739Y-107336739D01*
X75669385Y-107453295D01*
X75618255Y-107589684D01*
X75611500Y-107651866D01*
X75611500Y-110348134D01*
X75618255Y-110410316D01*
X75669385Y-110546705D01*
X75756739Y-110663261D01*
X75873295Y-110750615D01*
X76009684Y-110801745D01*
X76071866Y-110808500D01*
X78768134Y-110808500D01*
X78830316Y-110801745D01*
X78966705Y-110750615D01*
X79083261Y-110663261D01*
X79170615Y-110546705D01*
X79221745Y-110410316D01*
X79228500Y-110348134D01*
X79228500Y-108669925D01*
X79248502Y-108601804D01*
X79265405Y-108580830D01*
X80550829Y-107295405D01*
X80613141Y-107261380D01*
X80639924Y-107258500D01*
X81435672Y-107258500D01*
X81503793Y-107278502D01*
X81550286Y-107332158D01*
X81560390Y-107402432D01*
X81530896Y-107467012D01*
X81504758Y-107489871D01*
X81482936Y-107504178D01*
X81399881Y-107558631D01*
X81399876Y-107558635D01*
X81395968Y-107561197D01*
X81341447Y-107609859D01*
X81284131Y-107661016D01*
X81195426Y-107740188D01*
X81114260Y-107837780D01*
X81035065Y-107933002D01*
X81023544Y-107946854D01*
X80884096Y-108176656D01*
X80882287Y-108180970D01*
X80882285Y-108180974D01*
X80784118Y-108415077D01*
X80780148Y-108424545D01*
X80713981Y-108685077D01*
X80687050Y-108952526D01*
X80687274Y-108957192D01*
X80687274Y-108957197D01*
X80692832Y-109072890D01*
X80699947Y-109221019D01*
X80752388Y-109484656D01*
X80843220Y-109737646D01*
X80845432Y-109741762D01*
X80845433Y-109741765D01*
X80921333Y-109883021D01*
X80970450Y-109974431D01*
X80973241Y-109978168D01*
X80973245Y-109978175D01*
X81057820Y-110091434D01*
X81131281Y-110189810D01*
X81134590Y-110193090D01*
X81134595Y-110193096D01*
X81310180Y-110367154D01*
X81322180Y-110379050D01*
X81325942Y-110381808D01*
X81325945Y-110381811D01*
X81482699Y-110496747D01*
X81538954Y-110537995D01*
X81543089Y-110540171D01*
X81543093Y-110540173D01*
X81772698Y-110660975D01*
X81776840Y-110663154D01*
X82030613Y-110751775D01*
X82035206Y-110752647D01*
X82290109Y-110801042D01*
X82290112Y-110801042D01*
X82294698Y-110801913D01*
X82422370Y-110806929D01*
X82558625Y-110812283D01*
X82558630Y-110812283D01*
X82563293Y-110812466D01*
X82667607Y-110801042D01*
X82825844Y-110783713D01*
X82825850Y-110783712D01*
X82830497Y-110783203D01*
X82942302Y-110753767D01*
X83085918Y-110715956D01*
X83085920Y-110715955D01*
X83090441Y-110714765D01*
X83094738Y-110712919D01*
X83333120Y-110610502D01*
X83333122Y-110610501D01*
X83337414Y-110608657D01*
X83456071Y-110535230D01*
X83562017Y-110469669D01*
X83562021Y-110469666D01*
X83565990Y-110467210D01*
X83771149Y-110293530D01*
X83948382Y-110091434D01*
X83956401Y-110078968D01*
X83964525Y-110066337D01*
X84018199Y-110019866D01*
X84070496Y-110008500D01*
X91438157Y-110008500D01*
X91451764Y-110009237D01*
X91483262Y-110012659D01*
X91483267Y-110012659D01*
X91489388Y-110013324D01*
X91515638Y-110011027D01*
X91539388Y-110008950D01*
X91544214Y-110008621D01*
X91546686Y-110008500D01*
X91549769Y-110008500D01*
X91561738Y-110007326D01*
X91592506Y-110004310D01*
X91593819Y-110004188D01*
X91638084Y-110000315D01*
X91686413Y-109996087D01*
X91691532Y-109994600D01*
X91696833Y-109994080D01*
X91785834Y-109967209D01*
X91786967Y-109966874D01*
X91870414Y-109942630D01*
X91870418Y-109942628D01*
X91876336Y-109940909D01*
X91881068Y-109938456D01*
X91886169Y-109936916D01*
X91900247Y-109929431D01*
X91968260Y-109893269D01*
X91969426Y-109892657D01*
X92046453Y-109852729D01*
X92051926Y-109849892D01*
X92056089Y-109846569D01*
X92060796Y-109844066D01*
X92132918Y-109785245D01*
X92133774Y-109784554D01*
X92172973Y-109753262D01*
X92175477Y-109750758D01*
X92176195Y-109750116D01*
X92180528Y-109746415D01*
X92214062Y-109719065D01*
X92243288Y-109683737D01*
X92251277Y-109674958D01*
X94669379Y-107256855D01*
X94679522Y-107247753D01*
X94704218Y-107227897D01*
X94709025Y-107224032D01*
X94741292Y-107185578D01*
X94744472Y-107181931D01*
X94746115Y-107180119D01*
X94748309Y-107177925D01*
X94775681Y-107144603D01*
X94776348Y-107143800D01*
X94777308Y-107142657D01*
X94836154Y-107072526D01*
X94838722Y-107067856D01*
X94842103Y-107063739D01*
X94885977Y-106981914D01*
X94886606Y-106980755D01*
X94928462Y-106904619D01*
X94928465Y-106904611D01*
X94931433Y-106899213D01*
X94933045Y-106894131D01*
X94935562Y-106889437D01*
X94962747Y-106800523D01*
X94963139Y-106799265D01*
X94989372Y-106716567D01*
X94991235Y-106710694D01*
X94991829Y-106705403D01*
X94993388Y-106700302D01*
X95002790Y-106607737D01*
X95002925Y-106606470D01*
X95008108Y-106560270D01*
X95008108Y-106560265D01*
X95008500Y-106556773D01*
X95008500Y-106553248D01*
X95008555Y-106552263D01*
X95009004Y-106546559D01*
X95012752Y-106509666D01*
X95012752Y-106509661D01*
X95013374Y-106503538D01*
X95009059Y-106457891D01*
X95008500Y-106446033D01*
X95008500Y-102726000D01*
X95028502Y-102657879D01*
X95082158Y-102611386D01*
X95134500Y-102600000D01*
X96353159Y-102600000D01*
X96406409Y-102611805D01*
X96567924Y-102687120D01*
X96780629Y-102744115D01*
X97000000Y-102763307D01*
X97219371Y-102744115D01*
X97432076Y-102687120D01*
X97593591Y-102611805D01*
X97646841Y-102600000D01*
X99353159Y-102600000D01*
X99406409Y-102611805D01*
X99567924Y-102687120D01*
X99584457Y-102691550D01*
X99775321Y-102742693D01*
X99775324Y-102742694D01*
X99780629Y-102744115D01*
X99786105Y-102744594D01*
X99786139Y-102744600D01*
X99853356Y-102779591D01*
X106633145Y-109559379D01*
X106642247Y-109569522D01*
X106665968Y-109599025D01*
X106704456Y-109631320D01*
X106708075Y-109634478D01*
X106709890Y-109636124D01*
X106712075Y-109638309D01*
X106714455Y-109640264D01*
X106714465Y-109640273D01*
X106745236Y-109665549D01*
X106746251Y-109666391D01*
X106765459Y-109682508D01*
X106817474Y-109726154D01*
X106822148Y-109728723D01*
X106826261Y-109732102D01*
X106831698Y-109735017D01*
X106831699Y-109735018D01*
X106844282Y-109741765D01*
X106896682Y-109769861D01*
X106908047Y-109775955D01*
X106909177Y-109776568D01*
X106990787Y-109821433D01*
X106995869Y-109823045D01*
X107000563Y-109825562D01*
X107089531Y-109852762D01*
X107090559Y-109853082D01*
X107179306Y-109881235D01*
X107184602Y-109881829D01*
X107189698Y-109883387D01*
X107282257Y-109892790D01*
X107283393Y-109892911D01*
X107317008Y-109896681D01*
X107329730Y-109898108D01*
X107329734Y-109898108D01*
X107333227Y-109898500D01*
X107336754Y-109898500D01*
X107337739Y-109898555D01*
X107343419Y-109899002D01*
X107372825Y-109901989D01*
X107380337Y-109902752D01*
X107380339Y-109902752D01*
X107386462Y-109903374D01*
X107432108Y-109899059D01*
X107443967Y-109898500D01*
X118411339Y-109898500D01*
X118479460Y-109918502D01*
X118502509Y-109937528D01*
X118596576Y-110036135D01*
X118781542Y-110173754D01*
X118786293Y-110176170D01*
X118786297Y-110176172D01*
X118868855Y-110218146D01*
X118987051Y-110278240D01*
X118992145Y-110279822D01*
X118992148Y-110279823D01*
X119157583Y-110331192D01*
X119207227Y-110346607D01*
X119212516Y-110347308D01*
X119430489Y-110376198D01*
X119430494Y-110376198D01*
X119435774Y-110376898D01*
X119441103Y-110376698D01*
X119441105Y-110376698D01*
X119550966Y-110372574D01*
X119666158Y-110368249D01*
X119688802Y-110363498D01*
X119886572Y-110322002D01*
X119891791Y-110320907D01*
X119896750Y-110318949D01*
X119896752Y-110318948D01*
X120101256Y-110238185D01*
X120101258Y-110238184D01*
X120106221Y-110236224D01*
X120111525Y-110233006D01*
X120298757Y-110119390D01*
X120298756Y-110119390D01*
X120303317Y-110116623D01*
X120326629Y-110096394D01*
X120473412Y-109969023D01*
X120473414Y-109969021D01*
X120477445Y-109965523D01*
X120531987Y-109899004D01*
X120620240Y-109791373D01*
X120620244Y-109791367D01*
X120623624Y-109787245D01*
X120641552Y-109755750D01*
X120692632Y-109706445D01*
X120762262Y-109692583D01*
X120828333Y-109718566D01*
X120855573Y-109747716D01*
X120937441Y-109869319D01*
X120941120Y-109873176D01*
X120941122Y-109873178D01*
X121002509Y-109937528D01*
X121096576Y-110036135D01*
X121281542Y-110173754D01*
X121286293Y-110176170D01*
X121286297Y-110176172D01*
X121368855Y-110218146D01*
X121487051Y-110278240D01*
X121492145Y-110279822D01*
X121492148Y-110279823D01*
X121657583Y-110331192D01*
X121707227Y-110346607D01*
X121712516Y-110347308D01*
X121930489Y-110376198D01*
X121930494Y-110376198D01*
X121935774Y-110376898D01*
X121941103Y-110376698D01*
X121941105Y-110376698D01*
X122050966Y-110372574D01*
X122166158Y-110368249D01*
X122188802Y-110363498D01*
X122386572Y-110322002D01*
X122391791Y-110320907D01*
X122396750Y-110318949D01*
X122396752Y-110318948D01*
X122601256Y-110238185D01*
X122601258Y-110238184D01*
X122606221Y-110236224D01*
X122611525Y-110233006D01*
X122798757Y-110119390D01*
X122798756Y-110119390D01*
X122803317Y-110116623D01*
X122826629Y-110096394D01*
X122973412Y-109969023D01*
X122973414Y-109969021D01*
X122977445Y-109965523D01*
X123031987Y-109899004D01*
X123120240Y-109791373D01*
X123120244Y-109791367D01*
X123123624Y-109787245D01*
X123141552Y-109755750D01*
X123192632Y-109706445D01*
X123262262Y-109692583D01*
X123328333Y-109718566D01*
X123355573Y-109747716D01*
X123437441Y-109869319D01*
X123441120Y-109873176D01*
X123441122Y-109873178D01*
X123502509Y-109937528D01*
X123596576Y-110036135D01*
X123781542Y-110173754D01*
X123786293Y-110176170D01*
X123786297Y-110176172D01*
X123868855Y-110218146D01*
X123987051Y-110278240D01*
X123992145Y-110279822D01*
X123992148Y-110279823D01*
X124157583Y-110331192D01*
X124207227Y-110346607D01*
X124212516Y-110347308D01*
X124430489Y-110376198D01*
X124430494Y-110376198D01*
X124435774Y-110376898D01*
X124441103Y-110376698D01*
X124441105Y-110376698D01*
X124550966Y-110372574D01*
X124666158Y-110368249D01*
X124688802Y-110363498D01*
X124886572Y-110322002D01*
X124891791Y-110320907D01*
X124896750Y-110318949D01*
X124896752Y-110318948D01*
X125101256Y-110238185D01*
X125101258Y-110238184D01*
X125106221Y-110236224D01*
X125111525Y-110233006D01*
X125298757Y-110119390D01*
X125298756Y-110119390D01*
X125303317Y-110116623D01*
X125326629Y-110096394D01*
X125473412Y-109969023D01*
X125473414Y-109969021D01*
X125477445Y-109965523D01*
X125506670Y-109929880D01*
X125565329Y-109889886D01*
X125636299Y-109887954D01*
X125697048Y-109924698D01*
X125711248Y-109943468D01*
X125765972Y-110031900D01*
X125801522Y-110089348D01*
X125926697Y-110214305D01*
X125932927Y-110218145D01*
X125932928Y-110218146D01*
X126070090Y-110302694D01*
X126077262Y-110307115D01*
X126112938Y-110318948D01*
X126238611Y-110360632D01*
X126238613Y-110360632D01*
X126245139Y-110362797D01*
X126251975Y-110363497D01*
X126251978Y-110363498D01*
X126287663Y-110367154D01*
X126349600Y-110373500D01*
X127650400Y-110373500D01*
X127653646Y-110373163D01*
X127653650Y-110373163D01*
X127749308Y-110363238D01*
X127749312Y-110363237D01*
X127756166Y-110362526D01*
X127762702Y-110360345D01*
X127762704Y-110360345D01*
X127894806Y-110316272D01*
X127923946Y-110306550D01*
X128074348Y-110213478D01*
X128199305Y-110088303D01*
X128205059Y-110078968D01*
X128288275Y-109943968D01*
X128288276Y-109943966D01*
X128292115Y-109937738D01*
X128322354Y-109846569D01*
X128345632Y-109776389D01*
X128345632Y-109776387D01*
X128347797Y-109769861D01*
X128349273Y-109755462D01*
X128353488Y-109714316D01*
X128358500Y-109665400D01*
X128358500Y-108114600D01*
X128356481Y-108095139D01*
X128348238Y-108015692D01*
X128348237Y-108015688D01*
X128347526Y-108008834D01*
X128343710Y-107997394D01*
X128293868Y-107848002D01*
X128291550Y-107841054D01*
X128198478Y-107690652D01*
X128073303Y-107565695D01*
X128067072Y-107561854D01*
X128061327Y-107557317D01*
X128062377Y-107555987D01*
X128020892Y-107509893D01*
X128008500Y-107455403D01*
X128008500Y-106061843D01*
X128009237Y-106048236D01*
X128012659Y-106016738D01*
X128012659Y-106016733D01*
X128013324Y-106010612D01*
X128008950Y-105960612D01*
X128008621Y-105955786D01*
X128008500Y-105953314D01*
X128008500Y-105950231D01*
X128007326Y-105938262D01*
X128004310Y-105907494D01*
X128004188Y-105906181D01*
X127996623Y-105819718D01*
X127996087Y-105813587D01*
X127994600Y-105808468D01*
X127994080Y-105803167D01*
X127967209Y-105714166D01*
X127966874Y-105713033D01*
X127942630Y-105629586D01*
X127942628Y-105629582D01*
X127940909Y-105623664D01*
X127938456Y-105618932D01*
X127936916Y-105613831D01*
X127911624Y-105566262D01*
X127893269Y-105531740D01*
X127892657Y-105530574D01*
X127852729Y-105453547D01*
X127849892Y-105448074D01*
X127846569Y-105443911D01*
X127844066Y-105439204D01*
X127785245Y-105367082D01*
X127784554Y-105366226D01*
X127753262Y-105327027D01*
X127750758Y-105324523D01*
X127750116Y-105323805D01*
X127746415Y-105319472D01*
X127719065Y-105285938D01*
X127683737Y-105256712D01*
X127674958Y-105248723D01*
X123256855Y-100830621D01*
X123247753Y-100820478D01*
X123227897Y-100795782D01*
X123224032Y-100790975D01*
X123185578Y-100758708D01*
X123181931Y-100755528D01*
X123180119Y-100753885D01*
X123177925Y-100751691D01*
X123144651Y-100724358D01*
X123143853Y-100723696D01*
X123072526Y-100663846D01*
X123067856Y-100661278D01*
X123063739Y-100657897D01*
X122981914Y-100614023D01*
X122980755Y-100613394D01*
X122904619Y-100571538D01*
X122904611Y-100571535D01*
X122899213Y-100568567D01*
X122894131Y-100566955D01*
X122889437Y-100564438D01*
X122800469Y-100537238D01*
X122799441Y-100536918D01*
X122710694Y-100508765D01*
X122705398Y-100508171D01*
X122700302Y-100506613D01*
X122607743Y-100497210D01*
X122606607Y-100497089D01*
X122572992Y-100493319D01*
X122560270Y-100491892D01*
X122560266Y-100491892D01*
X122556773Y-100491500D01*
X122553246Y-100491500D01*
X122552261Y-100491445D01*
X122546581Y-100490998D01*
X122517175Y-100488011D01*
X122509663Y-100487248D01*
X122509661Y-100487248D01*
X122503538Y-100486626D01*
X122461259Y-100490623D01*
X122457891Y-100490941D01*
X122446033Y-100491500D01*
X110326000Y-100491500D01*
X110257879Y-100471498D01*
X110211386Y-100417842D01*
X110200000Y-100365500D01*
X110200000Y-98900599D01*
X110204293Y-98867987D01*
X110242692Y-98724681D01*
X110244115Y-98719371D01*
X110263307Y-98500000D01*
X110262625Y-98492207D01*
X110253092Y-98383239D01*
X110267081Y-98313635D01*
X110289518Y-98283163D01*
X110813181Y-97759500D01*
X110875493Y-97725474D01*
X110946308Y-97730539D01*
X111003144Y-97773086D01*
X111023150Y-97813020D01*
X111032041Y-97843228D01*
X111060410Y-97939619D01*
X111063263Y-97945077D01*
X111063265Y-97945081D01*
X111094730Y-98005267D01*
X111152040Y-98114890D01*
X111275968Y-98269025D01*
X111280692Y-98272989D01*
X111283469Y-98275319D01*
X111427474Y-98396154D01*
X111432872Y-98399121D01*
X111432877Y-98399125D01*
X111547856Y-98462334D01*
X111600787Y-98491433D01*
X111606654Y-98493294D01*
X111606656Y-98493295D01*
X111767378Y-98544279D01*
X111789306Y-98551235D01*
X111943227Y-98568500D01*
X112049769Y-98568500D01*
X112052825Y-98568200D01*
X112052832Y-98568200D01*
X112111340Y-98562463D01*
X112196833Y-98554080D01*
X112202734Y-98552298D01*
X112202736Y-98552298D01*
X112276053Y-98530162D01*
X112386169Y-98496916D01*
X112560796Y-98404066D01*
X112671675Y-98313635D01*
X112709287Y-98282960D01*
X112709290Y-98282957D01*
X112714062Y-98279065D01*
X112718172Y-98274097D01*
X112836201Y-98131425D01*
X112836203Y-98131421D01*
X112840130Y-98126675D01*
X112934198Y-97952701D01*
X112992682Y-97763768D01*
X112995442Y-97737510D01*
X113012711Y-97573204D01*
X113012711Y-97573202D01*
X113013355Y-97567075D01*
X112997671Y-97394739D01*
X112995989Y-97376251D01*
X112995988Y-97376248D01*
X112995430Y-97370112D01*
X112978492Y-97312559D01*
X112952611Y-97224622D01*
X112939590Y-97180381D01*
X112935595Y-97172738D01*
X112889280Y-97084147D01*
X112847960Y-97005110D01*
X112724032Y-96850975D01*
X112572526Y-96723846D01*
X112567128Y-96720879D01*
X112567123Y-96720875D01*
X112404608Y-96631533D01*
X112404609Y-96631533D01*
X112399213Y-96628567D01*
X112393344Y-96626705D01*
X112393341Y-96626704D01*
X112251246Y-96581629D01*
X112192361Y-96541966D01*
X112164269Y-96476764D01*
X112175886Y-96406724D01*
X112200249Y-96372432D01*
X117777276Y-90795405D01*
X117839588Y-90761379D01*
X117866371Y-90758500D01*
X118704880Y-90758500D01*
X118773001Y-90778502D01*
X118809400Y-90814133D01*
X118824012Y-90835837D01*
X118937441Y-91004319D01*
X118941120Y-91008176D01*
X118941122Y-91008178D01*
X119001094Y-91071044D01*
X119096576Y-91171135D01*
X119100854Y-91174318D01*
X119140053Y-91203483D01*
X119281542Y-91308754D01*
X119286293Y-91311170D01*
X119286297Y-91311172D01*
X119349481Y-91343296D01*
X119487051Y-91413240D01*
X119492145Y-91414822D01*
X119492148Y-91414823D01*
X119628972Y-91457308D01*
X119707227Y-91481607D01*
X119712516Y-91482308D01*
X119930489Y-91511198D01*
X119930494Y-91511198D01*
X119935774Y-91511898D01*
X119941103Y-91511698D01*
X119941105Y-91511698D01*
X120050966Y-91507574D01*
X120166158Y-91503249D01*
X120188802Y-91498498D01*
X120386572Y-91457002D01*
X120391791Y-91455907D01*
X120396750Y-91453949D01*
X120396752Y-91453948D01*
X120601256Y-91373185D01*
X120601258Y-91373184D01*
X120606221Y-91371224D01*
X120642343Y-91349305D01*
X120798757Y-91254390D01*
X120798756Y-91254390D01*
X120803317Y-91251623D01*
X120843134Y-91217072D01*
X120973412Y-91104023D01*
X120973414Y-91104021D01*
X120977445Y-91100523D01*
X121006670Y-91064880D01*
X121065329Y-91024886D01*
X121136299Y-91022954D01*
X121197048Y-91059698D01*
X121211248Y-91078468D01*
X121255092Y-91149318D01*
X121301522Y-91224348D01*
X121426697Y-91349305D01*
X121432927Y-91353145D01*
X121432928Y-91353146D01*
X121570090Y-91437694D01*
X121577262Y-91442115D01*
X121657005Y-91468564D01*
X121738611Y-91495632D01*
X121738613Y-91495632D01*
X121745139Y-91497797D01*
X121751975Y-91498497D01*
X121751978Y-91498498D01*
X121787663Y-91502154D01*
X121849600Y-91508500D01*
X123150400Y-91508500D01*
X123153646Y-91508163D01*
X123153650Y-91508163D01*
X123249308Y-91498238D01*
X123249312Y-91498237D01*
X123256166Y-91497526D01*
X123262702Y-91495345D01*
X123262704Y-91495345D01*
X123404841Y-91447924D01*
X123423946Y-91441550D01*
X123574348Y-91348478D01*
X123699305Y-91223303D01*
X123703146Y-91217072D01*
X123788275Y-91078968D01*
X123788276Y-91078966D01*
X123792115Y-91072738D01*
X123847797Y-90904861D01*
X123848578Y-90897245D01*
X123858172Y-90803598D01*
X123858500Y-90800400D01*
X123858500Y-90182890D01*
X129641500Y-90182890D01*
X129643277Y-90203834D01*
X129653502Y-90324332D01*
X129656080Y-90354720D01*
X129657418Y-90359875D01*
X129657419Y-90359881D01*
X129712657Y-90572703D01*
X129713999Y-90577872D01*
X129808688Y-90788075D01*
X129937441Y-90979319D01*
X129941120Y-90983176D01*
X129941122Y-90983178D01*
X130002710Y-91047738D01*
X130096576Y-91146135D01*
X130281542Y-91283754D01*
X130286293Y-91286170D01*
X130286297Y-91286172D01*
X130349481Y-91318296D01*
X130487051Y-91388240D01*
X130492145Y-91389822D01*
X130492148Y-91389823D01*
X130679263Y-91447924D01*
X130707227Y-91456607D01*
X130712516Y-91457308D01*
X130930489Y-91486198D01*
X130930494Y-91486198D01*
X130935774Y-91486898D01*
X130941103Y-91486698D01*
X130941105Y-91486698D01*
X131058038Y-91482308D01*
X131166158Y-91478249D01*
X131391791Y-91430907D01*
X131396750Y-91428949D01*
X131396752Y-91428948D01*
X131601256Y-91348185D01*
X131601258Y-91348184D01*
X131606221Y-91346224D01*
X131611047Y-91343296D01*
X131798757Y-91229390D01*
X131798756Y-91229390D01*
X131803317Y-91226623D01*
X131843134Y-91192072D01*
X131973412Y-91079023D01*
X131973414Y-91079021D01*
X131977445Y-91075523D01*
X132041417Y-90997504D01*
X132120240Y-90901373D01*
X132120244Y-90901367D01*
X132123624Y-90897245D01*
X132133520Y-90879861D01*
X132141829Y-90865265D01*
X132192912Y-90815959D01*
X132262542Y-90802098D01*
X132328613Y-90828082D01*
X132355851Y-90857232D01*
X132434852Y-90974578D01*
X132441519Y-90982870D01*
X132593228Y-91141900D01*
X132601186Y-91148941D01*
X132777525Y-91280141D01*
X132786562Y-91285745D01*
X132982484Y-91385357D01*
X132992335Y-91389357D01*
X133202240Y-91454534D01*
X133212624Y-91456817D01*
X133228043Y-91458861D01*
X133242207Y-91456665D01*
X133246000Y-91443478D01*
X133246000Y-88558808D01*
X133242027Y-88545277D01*
X133231420Y-88543752D01*
X133113579Y-88568477D01*
X133103383Y-88571537D01*
X132898971Y-88652263D01*
X132889439Y-88656994D01*
X132701538Y-88771016D01*
X132692948Y-88777280D01*
X132526948Y-88921327D01*
X132519528Y-88928958D01*
X132380174Y-89098911D01*
X132374152Y-89107674D01*
X132358762Y-89134711D01*
X132307680Y-89184018D01*
X132238049Y-89197880D01*
X132171978Y-89171897D01*
X132144739Y-89142747D01*
X132097662Y-89072822D01*
X132062559Y-89020681D01*
X131903424Y-88853865D01*
X131718458Y-88716246D01*
X131713707Y-88713830D01*
X131713703Y-88713828D01*
X131595588Y-88653776D01*
X131512949Y-88611760D01*
X131507855Y-88610178D01*
X131507852Y-88610177D01*
X131297871Y-88544976D01*
X131292773Y-88543393D01*
X131287484Y-88542692D01*
X131069511Y-88513802D01*
X131069506Y-88513802D01*
X131064226Y-88513102D01*
X131058897Y-88513302D01*
X131058895Y-88513302D01*
X130949034Y-88517427D01*
X130833842Y-88521751D01*
X130828623Y-88522846D01*
X130806566Y-88527474D01*
X130608209Y-88569093D01*
X130603250Y-88571051D01*
X130603248Y-88571052D01*
X130398744Y-88651815D01*
X130398742Y-88651816D01*
X130393779Y-88653776D01*
X130389220Y-88656543D01*
X130389217Y-88656544D01*
X130294113Y-88714255D01*
X130196683Y-88773377D01*
X130192653Y-88776874D01*
X130068165Y-88884899D01*
X130022555Y-88924477D01*
X130003448Y-88947780D01*
X129879760Y-89098627D01*
X129879756Y-89098633D01*
X129876376Y-89102755D01*
X129873737Y-89107391D01*
X129873735Y-89107394D01*
X129795380Y-89245044D01*
X129762325Y-89303114D01*
X129683663Y-89519825D01*
X129682714Y-89525074D01*
X129682713Y-89525077D01*
X129643377Y-89742608D01*
X129643376Y-89742615D01*
X129642639Y-89746692D01*
X129641500Y-89770844D01*
X129641500Y-90182890D01*
X123858500Y-90182890D01*
X123858500Y-89199600D01*
X123856883Y-89184018D01*
X123848238Y-89100692D01*
X123848237Y-89100688D01*
X123847526Y-89093834D01*
X123843710Y-89082394D01*
X123793868Y-88933002D01*
X123791550Y-88926054D01*
X123698478Y-88775652D01*
X123573303Y-88650695D01*
X123567072Y-88646854D01*
X123428968Y-88561725D01*
X123428966Y-88561724D01*
X123422738Y-88557885D01*
X123313194Y-88521551D01*
X123261389Y-88504368D01*
X123261387Y-88504368D01*
X123254861Y-88502203D01*
X123248025Y-88501503D01*
X123248022Y-88501502D01*
X123204969Y-88497091D01*
X123150400Y-88491500D01*
X121849600Y-88491500D01*
X121846354Y-88491837D01*
X121846350Y-88491837D01*
X121750692Y-88501762D01*
X121750688Y-88501763D01*
X121743834Y-88502474D01*
X121737298Y-88504655D01*
X121737296Y-88504655D01*
X121671034Y-88526762D01*
X121576054Y-88558450D01*
X121425652Y-88651522D01*
X121300695Y-88776697D01*
X121296855Y-88782927D01*
X121296854Y-88782928D01*
X121288478Y-88796517D01*
X121211544Y-88921327D01*
X121210920Y-88922339D01*
X121158148Y-88969832D01*
X121088076Y-88981256D01*
X121022952Y-88952982D01*
X121012490Y-88943195D01*
X120964494Y-88892883D01*
X120903424Y-88828865D01*
X120865505Y-88800652D01*
X120722740Y-88694432D01*
X120722741Y-88694432D01*
X120718458Y-88691246D01*
X120713707Y-88688830D01*
X120713703Y-88688828D01*
X120591731Y-88626815D01*
X120512949Y-88586760D01*
X120507855Y-88585178D01*
X120507852Y-88585177D01*
X120297871Y-88519976D01*
X120292773Y-88518393D01*
X120258134Y-88513802D01*
X120069511Y-88488802D01*
X120069506Y-88488802D01*
X120064226Y-88488102D01*
X120058897Y-88488302D01*
X120058895Y-88488302D01*
X119949034Y-88492427D01*
X119833842Y-88496751D01*
X119828623Y-88497846D01*
X119806566Y-88502474D01*
X119608209Y-88544093D01*
X119603250Y-88546051D01*
X119603248Y-88546052D01*
X119398744Y-88626815D01*
X119398742Y-88626816D01*
X119393779Y-88628776D01*
X119389220Y-88631543D01*
X119389217Y-88631544D01*
X119291306Y-88690958D01*
X119196683Y-88748377D01*
X119192653Y-88751874D01*
X119039355Y-88884899D01*
X119022555Y-88899477D01*
X119004926Y-88920977D01*
X118879760Y-89073627D01*
X118879756Y-89073633D01*
X118876376Y-89077755D01*
X118822787Y-89171897D01*
X118819409Y-89177832D01*
X118768327Y-89227138D01*
X118709907Y-89241500D01*
X117567069Y-89241500D01*
X117548121Y-89240067D01*
X117540780Y-89238950D01*
X117533883Y-89237901D01*
X117533881Y-89237901D01*
X117526651Y-89236801D01*
X117519359Y-89237394D01*
X117519356Y-89237394D01*
X117473982Y-89241085D01*
X117463767Y-89241500D01*
X117455707Y-89241500D01*
X117442417Y-89243049D01*
X117427493Y-89244789D01*
X117423118Y-89245222D01*
X117357661Y-89250546D01*
X117357658Y-89250547D01*
X117350363Y-89251140D01*
X117343399Y-89253396D01*
X117337440Y-89254587D01*
X117331585Y-89255971D01*
X117324319Y-89256818D01*
X117255673Y-89281735D01*
X117251545Y-89283152D01*
X117189064Y-89303393D01*
X117189062Y-89303394D01*
X117182101Y-89305649D01*
X117175846Y-89309445D01*
X117170372Y-89311951D01*
X117164942Y-89314670D01*
X117158063Y-89317167D01*
X117097016Y-89357191D01*
X117093327Y-89359518D01*
X117073135Y-89371771D01*
X117035693Y-89394491D01*
X117035688Y-89394495D01*
X117030892Y-89397405D01*
X117022516Y-89404803D01*
X117022493Y-89404777D01*
X117019503Y-89407426D01*
X117016264Y-89410134D01*
X117010148Y-89414144D01*
X117005121Y-89419451D01*
X117005117Y-89419454D01*
X116956872Y-89470383D01*
X116954494Y-89472825D01*
X109264224Y-97163095D01*
X109201912Y-97197121D01*
X109175129Y-97200000D01*
X105824871Y-97200000D01*
X105756750Y-97179998D01*
X105735776Y-97163095D01*
X102483742Y-93911061D01*
X102471356Y-93896649D01*
X102462823Y-93885054D01*
X102462818Y-93885049D01*
X102458480Y-93879154D01*
X102452902Y-93874415D01*
X102452899Y-93874412D01*
X102418204Y-93844937D01*
X102410688Y-93838007D01*
X102404993Y-93832312D01*
X102398852Y-93827454D01*
X102382721Y-93814691D01*
X102379317Y-93811900D01*
X102329269Y-93769381D01*
X102329267Y-93769380D01*
X102323687Y-93764639D01*
X102317171Y-93761311D01*
X102312122Y-93757944D01*
X102306993Y-93754777D01*
X102301256Y-93750238D01*
X102235097Y-93719317D01*
X102231197Y-93717411D01*
X102166164Y-93684203D01*
X102159056Y-93682464D01*
X102153413Y-93680365D01*
X102147650Y-93678448D01*
X102141022Y-93675350D01*
X102069555Y-93660485D01*
X102065271Y-93659515D01*
X101994362Y-93642164D01*
X101988760Y-93641816D01*
X101988757Y-93641816D01*
X101983208Y-93641472D01*
X101983210Y-93641436D01*
X101979217Y-93641197D01*
X101975025Y-93640823D01*
X101967857Y-93639332D01*
X101901647Y-93641123D01*
X101890451Y-93641426D01*
X101887044Y-93641472D01*
X87656343Y-93641472D01*
X87588222Y-93621470D01*
X87567248Y-93604567D01*
X85395405Y-91432724D01*
X85361379Y-91370412D01*
X85358500Y-91343629D01*
X85358500Y-90309600D01*
X85358163Y-90306350D01*
X85348238Y-90210692D01*
X85348237Y-90210688D01*
X85347526Y-90203834D01*
X85343710Y-90192394D01*
X85293868Y-90043002D01*
X85291550Y-90036054D01*
X85198478Y-89885652D01*
X85073303Y-89760695D01*
X85067072Y-89756854D01*
X84928968Y-89671725D01*
X84928966Y-89671724D01*
X84922738Y-89667885D01*
X84842995Y-89641436D01*
X84761389Y-89614368D01*
X84761387Y-89614368D01*
X84754861Y-89612203D01*
X84748025Y-89611503D01*
X84748022Y-89611502D01*
X84704969Y-89607091D01*
X84650400Y-89601500D01*
X83349600Y-89601500D01*
X83346354Y-89601837D01*
X83346350Y-89601837D01*
X83250692Y-89611762D01*
X83250688Y-89611763D01*
X83243834Y-89612474D01*
X83237298Y-89614655D01*
X83237296Y-89614655D01*
X83198220Y-89627692D01*
X83076054Y-89668450D01*
X82925652Y-89761522D01*
X82800695Y-89886697D01*
X82718269Y-90020417D01*
X82710920Y-90032339D01*
X82658148Y-90079832D01*
X82588076Y-90091256D01*
X82522952Y-90062982D01*
X82512490Y-90053195D01*
X82426953Y-89963530D01*
X82403424Y-89938865D01*
X82218458Y-89801246D01*
X82213707Y-89798830D01*
X82213703Y-89798828D01*
X82091731Y-89736815D01*
X82012949Y-89696760D01*
X82007855Y-89695178D01*
X82007852Y-89695177D01*
X81797871Y-89629976D01*
X81792773Y-89628393D01*
X81787484Y-89627692D01*
X81569511Y-89598802D01*
X81569506Y-89598802D01*
X81564226Y-89598102D01*
X81558897Y-89598302D01*
X81558895Y-89598302D01*
X81449034Y-89602427D01*
X81333842Y-89606751D01*
X81328623Y-89607846D01*
X81306566Y-89612474D01*
X81108209Y-89654093D01*
X81103250Y-89656051D01*
X81103248Y-89656052D01*
X80898744Y-89736815D01*
X80898742Y-89736816D01*
X80893779Y-89738776D01*
X80889220Y-89741543D01*
X80889217Y-89741544D01*
X80790832Y-89801246D01*
X80696683Y-89858377D01*
X80692653Y-89861874D01*
X80527877Y-90004859D01*
X80522555Y-90009477D01*
X80505769Y-90029949D01*
X80379760Y-90183627D01*
X80379756Y-90183633D01*
X80376376Y-90187755D01*
X80373737Y-90192391D01*
X80373735Y-90192394D01*
X80339061Y-90253308D01*
X80262325Y-90388114D01*
X80183663Y-90604825D01*
X80182714Y-90610074D01*
X80182713Y-90610077D01*
X80143377Y-90827608D01*
X80143376Y-90827615D01*
X80142639Y-90831692D01*
X80141500Y-90855844D01*
X80141500Y-91317890D01*
X80146192Y-91373185D01*
X80155543Y-91483386D01*
X80156080Y-91489720D01*
X80157418Y-91494875D01*
X80157419Y-91494881D01*
X80212657Y-91707703D01*
X80213999Y-91712872D01*
X80308688Y-91923075D01*
X80437441Y-92114319D01*
X80596576Y-92281135D01*
X80781542Y-92418754D01*
X80786293Y-92421170D01*
X80786297Y-92421172D01*
X80884296Y-92470997D01*
X80987051Y-92523240D01*
X80992145Y-92524822D01*
X80992148Y-92524823D01*
X81174342Y-92581396D01*
X81207227Y-92591607D01*
X81212516Y-92592308D01*
X81430489Y-92621198D01*
X81430494Y-92621198D01*
X81435774Y-92621898D01*
X81441103Y-92621698D01*
X81441105Y-92621698D01*
X81550966Y-92617573D01*
X81666158Y-92613249D01*
X81817969Y-92581396D01*
X81888743Y-92586983D01*
X81932936Y-92615616D01*
X84143715Y-94826395D01*
X84177741Y-94888707D01*
X84172676Y-94959522D01*
X84130129Y-95016358D01*
X84063609Y-95041169D01*
X84054620Y-95041490D01*
X79556361Y-95041490D01*
X79488240Y-95021488D01*
X79467266Y-95004585D01*
X75895405Y-91432724D01*
X75861379Y-91370412D01*
X75858500Y-91343629D01*
X75858500Y-90309600D01*
X75858163Y-90306350D01*
X75848238Y-90210692D01*
X75848237Y-90210688D01*
X75847526Y-90203834D01*
X75843710Y-90192394D01*
X75793868Y-90043002D01*
X75791550Y-90036054D01*
X75698478Y-89885652D01*
X75573303Y-89760695D01*
X75567072Y-89756854D01*
X75428968Y-89671725D01*
X75428966Y-89671724D01*
X75422738Y-89667885D01*
X75342995Y-89641436D01*
X75261389Y-89614368D01*
X75261387Y-89614368D01*
X75254861Y-89612203D01*
X75248025Y-89611503D01*
X75248022Y-89611502D01*
X75204969Y-89607091D01*
X75150400Y-89601500D01*
X73849600Y-89601500D01*
X73846354Y-89601837D01*
X73846350Y-89601837D01*
X73750692Y-89611762D01*
X73750688Y-89611763D01*
X73743834Y-89612474D01*
X73737298Y-89614655D01*
X73737296Y-89614655D01*
X73698220Y-89627692D01*
X73576054Y-89668450D01*
X73425652Y-89761522D01*
X73300695Y-89886697D01*
X73218269Y-90020417D01*
X73210920Y-90032339D01*
X73158148Y-90079832D01*
X73088076Y-90091256D01*
X73022952Y-90062982D01*
X73012490Y-90053195D01*
X72926953Y-89963530D01*
X72903424Y-89938865D01*
X72718458Y-89801246D01*
X72713707Y-89798830D01*
X72713703Y-89798828D01*
X72591731Y-89736815D01*
X72512949Y-89696760D01*
X72507855Y-89695178D01*
X72507852Y-89695177D01*
X72297871Y-89629976D01*
X72292773Y-89628393D01*
X72287484Y-89627692D01*
X72069511Y-89598802D01*
X72069506Y-89598802D01*
X72064226Y-89598102D01*
X72058897Y-89598302D01*
X72058895Y-89598302D01*
X71949034Y-89602427D01*
X71833842Y-89606751D01*
X71828623Y-89607846D01*
X71806566Y-89612474D01*
X71608209Y-89654093D01*
X71603250Y-89656051D01*
X71603248Y-89656052D01*
X71398744Y-89736815D01*
X71398742Y-89736816D01*
X71393779Y-89738776D01*
X71389220Y-89741543D01*
X71389217Y-89741544D01*
X71290832Y-89801246D01*
X71196683Y-89858377D01*
X71192653Y-89861874D01*
X71027877Y-90004859D01*
X71022555Y-90009477D01*
X71005769Y-90029949D01*
X70879760Y-90183627D01*
X70879756Y-90183633D01*
X70876376Y-90187755D01*
X70873737Y-90192391D01*
X70873735Y-90192394D01*
X70839061Y-90253308D01*
X70762325Y-90388114D01*
X70683663Y-90604825D01*
X70682714Y-90610074D01*
X70682713Y-90610077D01*
X70643377Y-90827608D01*
X70643376Y-90827615D01*
X70642639Y-90831692D01*
X70641500Y-90855844D01*
X70641500Y-91317890D01*
X70646192Y-91373185D01*
X70655543Y-91483386D01*
X70656080Y-91489720D01*
X70657418Y-91494875D01*
X70657419Y-91494881D01*
X70712657Y-91707703D01*
X70713999Y-91712872D01*
X70808688Y-91923075D01*
X70937441Y-92114319D01*
X71096576Y-92281135D01*
X71281542Y-92418754D01*
X71286293Y-92421170D01*
X71286297Y-92421172D01*
X71384296Y-92470997D01*
X71487051Y-92523240D01*
X71492145Y-92524822D01*
X71492148Y-92524823D01*
X71674342Y-92581396D01*
X71707227Y-92591607D01*
X71712516Y-92592308D01*
X71930489Y-92621198D01*
X71930494Y-92621198D01*
X71935774Y-92621898D01*
X71941103Y-92621698D01*
X71941105Y-92621698D01*
X72050966Y-92617573D01*
X72166158Y-92613249D01*
X72317968Y-92581396D01*
X72388742Y-92586983D01*
X72432935Y-92615616D01*
X76806230Y-96988911D01*
X76818616Y-97003323D01*
X76827149Y-97014918D01*
X76827154Y-97014923D01*
X76831492Y-97020818D01*
X76837070Y-97025557D01*
X76837073Y-97025560D01*
X76871768Y-97055035D01*
X76879284Y-97061965D01*
X76884979Y-97067660D01*
X76887861Y-97069940D01*
X76907251Y-97085281D01*
X76910655Y-97088072D01*
X76960703Y-97130591D01*
X76966285Y-97135333D01*
X76972801Y-97138661D01*
X76977850Y-97142028D01*
X76982979Y-97145195D01*
X76988716Y-97149734D01*
X77054875Y-97180655D01*
X77058769Y-97182558D01*
X77123808Y-97215769D01*
X77130916Y-97217508D01*
X77136559Y-97219607D01*
X77142322Y-97221524D01*
X77148950Y-97224622D01*
X77156112Y-97226112D01*
X77156113Y-97226112D01*
X77220412Y-97239486D01*
X77224696Y-97240456D01*
X77295610Y-97257808D01*
X77301212Y-97258156D01*
X77301215Y-97258156D01*
X77306764Y-97258500D01*
X77306762Y-97258536D01*
X77310755Y-97258775D01*
X77314947Y-97259149D01*
X77322115Y-97260640D01*
X77399520Y-97258546D01*
X77402928Y-97258500D01*
X86877653Y-97258500D01*
X86945774Y-97278502D01*
X86992267Y-97332158D01*
X87002963Y-97397670D01*
X86986645Y-97552925D01*
X86987204Y-97559065D01*
X87003444Y-97737510D01*
X87004570Y-97749888D01*
X87060410Y-97939619D01*
X87063263Y-97945077D01*
X87063265Y-97945081D01*
X87094730Y-98005267D01*
X87152040Y-98114890D01*
X87275968Y-98269025D01*
X87280692Y-98272989D01*
X87284954Y-98277341D01*
X87318325Y-98340006D01*
X87312519Y-98410765D01*
X87269380Y-98467152D01*
X87202604Y-98491265D01*
X87194931Y-98491499D01*
X73506370Y-98491499D01*
X73438249Y-98471497D01*
X73417275Y-98454594D01*
X66395405Y-91432724D01*
X66361379Y-91370412D01*
X66358500Y-91343629D01*
X66358500Y-90309600D01*
X66358163Y-90306350D01*
X66348238Y-90210692D01*
X66348237Y-90210688D01*
X66347526Y-90203834D01*
X66343710Y-90192394D01*
X66293868Y-90043002D01*
X66291550Y-90036054D01*
X66198478Y-89885652D01*
X66073303Y-89760695D01*
X66067072Y-89756854D01*
X65928968Y-89671725D01*
X65928966Y-89671724D01*
X65922738Y-89667885D01*
X65842995Y-89641436D01*
X65761389Y-89614368D01*
X65761387Y-89614368D01*
X65754861Y-89612203D01*
X65748025Y-89611503D01*
X65748022Y-89611502D01*
X65704969Y-89607091D01*
X65650400Y-89601500D01*
X64349600Y-89601500D01*
X64346354Y-89601837D01*
X64346350Y-89601837D01*
X64250692Y-89611762D01*
X64250688Y-89611763D01*
X64243834Y-89612474D01*
X64237298Y-89614655D01*
X64237296Y-89614655D01*
X64198220Y-89627692D01*
X64076054Y-89668450D01*
X63925652Y-89761522D01*
X63800695Y-89886697D01*
X63718269Y-90020417D01*
X63710920Y-90032339D01*
X63658148Y-90079832D01*
X63588076Y-90091256D01*
X63522952Y-90062982D01*
X63512490Y-90053195D01*
X63426953Y-89963530D01*
X63403424Y-89938865D01*
X63218458Y-89801246D01*
X63213707Y-89798830D01*
X63213703Y-89798828D01*
X63091731Y-89736815D01*
X63012949Y-89696760D01*
X63007855Y-89695178D01*
X63007852Y-89695177D01*
X62797871Y-89629976D01*
X62792773Y-89628393D01*
X62787484Y-89627692D01*
X62569511Y-89598802D01*
X62569506Y-89598802D01*
X62564226Y-89598102D01*
X62558897Y-89598302D01*
X62558895Y-89598302D01*
X62449034Y-89602427D01*
X62333842Y-89606751D01*
X62328623Y-89607846D01*
X62306566Y-89612474D01*
X62108209Y-89654093D01*
X62103250Y-89656051D01*
X62103248Y-89656052D01*
X61898744Y-89736815D01*
X61898742Y-89736816D01*
X61893779Y-89738776D01*
X61889220Y-89741543D01*
X61889217Y-89741544D01*
X61790832Y-89801246D01*
X61696683Y-89858377D01*
X61692653Y-89861874D01*
X61527877Y-90004859D01*
X61522555Y-90009477D01*
X61505769Y-90029949D01*
X61379760Y-90183627D01*
X61379756Y-90183633D01*
X61376376Y-90187755D01*
X61373737Y-90192391D01*
X61373735Y-90192394D01*
X61339061Y-90253308D01*
X61262325Y-90388114D01*
X61183663Y-90604825D01*
X61182714Y-90610074D01*
X61182713Y-90610077D01*
X61143377Y-90827608D01*
X61143376Y-90827615D01*
X61142639Y-90831692D01*
X61141500Y-90855844D01*
X61141500Y-91317890D01*
X39508000Y-91317890D01*
X39508000Y-83549328D01*
X39509500Y-83529943D01*
X39511805Y-83515141D01*
X39511805Y-83515139D01*
X39513186Y-83506270D01*
X39512022Y-83497366D01*
X39511195Y-83491041D01*
X39510452Y-83465713D01*
X39522543Y-83296657D01*
X39525101Y-83278863D01*
X39566520Y-83088462D01*
X39571586Y-83071212D01*
X39639682Y-82888642D01*
X39647149Y-82872290D01*
X39740531Y-82701271D01*
X39750248Y-82686152D01*
X39867023Y-82530158D01*
X39878796Y-82516572D01*
X40016572Y-82378796D01*
X40030158Y-82367023D01*
X40076484Y-82332344D01*
X40186152Y-82250248D01*
X40201266Y-82240534D01*
X40306980Y-82182810D01*
X40372290Y-82147149D01*
X40388642Y-82139682D01*
X40571212Y-82071586D01*
X40588460Y-82066521D01*
X40778863Y-82025101D01*
X40796658Y-82022543D01*
X40845557Y-82019046D01*
X40958631Y-82010959D01*
X40976533Y-82011703D01*
X40984858Y-82011805D01*
X40993730Y-82013186D01*
X41002632Y-82012022D01*
X41002635Y-82012022D01*
X41025251Y-82009064D01*
X41041589Y-82008000D01*
X97116001Y-82008000D01*
X97184122Y-82028002D01*
G37*
%TD.AperFunction*%
%TD*%
M02*
