%TF.GenerationSoftware,KiCad,Pcbnew,(5.1.9)-1*%
%TF.CreationDate,2021-04-21T16:23:38-04:00*%
%TF.ProjectId,V0-UmbilicalBoard,56302d55-6d62-4696-9c69-63616c426f61,rev?*%
%TF.SameCoordinates,Original*%
%TF.FileFunction,Profile,NP*%
%FSLAX46Y46*%
G04 Gerber Fmt 4.6, Leading zero omitted, Abs format (unit mm)*
G04 Created by KiCad (PCBNEW (5.1.9)-1) date 2021-04-21 16:23:38*
%MOMM*%
%LPD*%
G01*
G04 APERTURE LIST*
%TA.AperFunction,Profile*%
%ADD10C,0.050000*%
%TD*%
G04 APERTURE END LIST*
D10*
X96500000Y-88000000D02*
X96500000Y-86000000D01*
X94500000Y-86000000D02*
X94500000Y-88000000D01*
X94500000Y-86000000D02*
G75*
G02*
X96500000Y-86000000I1000000J0D01*
G01*
X96500000Y-88000000D02*
G75*
G02*
X94500000Y-88000000I-1000000J0D01*
G01*
X105500000Y-88000000D02*
X105500000Y-86000000D01*
X105500000Y-88000000D02*
G75*
G02*
X103500000Y-88000000I-1000000J0D01*
G01*
X103500000Y-86000000D02*
X103500000Y-88000000D01*
X103500000Y-86000000D02*
G75*
G02*
X105500000Y-86000000I1000000J0D01*
G01*
X102000000Y-82000000D02*
X102000000Y-90000000D01*
X98000000Y-82000000D02*
X98000000Y-90000000D01*
X97500000Y-81500000D02*
G75*
G02*
X98000000Y-82000000I0J-500000D01*
G01*
X102000000Y-82000000D02*
G75*
G02*
X102500000Y-81500000I500000J0D01*
G01*
X102500000Y-81500000D02*
X159000000Y-81500000D01*
X97500000Y-81500000D02*
X41000000Y-81500000D01*
X102000000Y-90000000D02*
G75*
G02*
X98000000Y-90000000I-2000000J0D01*
G01*
X41000000Y-118500000D02*
G75*
G02*
X39000000Y-116500000I0J2000000D01*
G01*
X39000000Y-105750000D02*
X39000000Y-116500000D01*
X39000000Y-105750000D02*
G75*
G02*
X41000000Y-103750000I2000000J0D01*
G01*
X41000000Y-103750000D02*
X42000000Y-103750000D01*
X42000000Y-100250000D02*
G75*
G02*
X42000000Y-103750000I0J-1750000D01*
G01*
X42000000Y-100250000D02*
X41000000Y-100250000D01*
X41000000Y-100250001D02*
G75*
G02*
X38999999Y-98250000I0J2000001D01*
G01*
X39000000Y-83500000D02*
X39000000Y-98250000D01*
X39000000Y-83500000D02*
G75*
G02*
X41000000Y-81500000I2000000J0D01*
G01*
X159000000Y-81500000D02*
G75*
G02*
X161000000Y-83500000I0J-2000000D01*
G01*
X161000000Y-98250000D02*
X161000000Y-83500000D01*
X161000000Y-98250000D02*
G75*
G02*
X159000000Y-100250000I-2000000J0D01*
G01*
X159000000Y-100250000D02*
X158000000Y-100250000D01*
X158000000Y-103750000D02*
G75*
G02*
X158000000Y-100250000I0J1750000D01*
G01*
X158000000Y-103750000D02*
X159000000Y-103750000D01*
X159000000Y-103750000D02*
G75*
G02*
X161000000Y-105750000I0J-2000000D01*
G01*
X161000000Y-116500000D02*
X161000000Y-105750000D01*
X161000000Y-116500000D02*
G75*
G02*
X159000000Y-118500000I-2000000J0D01*
G01*
X156000000Y-118500000D02*
X159000000Y-118500000D01*
X156000000Y-118500000D02*
G75*
G02*
X154000000Y-116500000I0J2000000D01*
G01*
X154000000Y-116500000D02*
X154000000Y-115500000D01*
X152000000Y-113500000D02*
G75*
G02*
X154000000Y-115500000I0J-2000000D01*
G01*
X152000000Y-113500000D02*
X149000000Y-113500000D01*
X147000000Y-115500000D02*
G75*
G02*
X149000000Y-113500000I2000000J0D01*
G01*
X147000000Y-115500000D02*
X147000000Y-116500000D01*
X147000000Y-116500000D02*
G75*
G02*
X145000000Y-118500000I-2000000J0D01*
G01*
X41000000Y-118500000D02*
X145000000Y-118500000D01*
M02*
