%TF.GenerationSoftware,KiCad,Pcbnew,(5.1.9)-1*%
%TF.CreationDate,2021-04-21T16:23:38-04:00*%
%TF.ProjectId,V0-UmbilicalBoard,56302d55-6d62-4696-9c69-63616c426f61,rev?*%
%TF.SameCoordinates,Original*%
%TF.FileFunction,Copper,L2,Bot*%
%TF.FilePolarity,Positive*%
%FSLAX46Y46*%
G04 Gerber Fmt 4.6, Leading zero omitted, Abs format (unit mm)*
G04 Created by KiCad (PCBNEW (5.1.9)-1) date 2021-04-21 16:23:38*
%MOMM*%
%LPD*%
G01*
G04 APERTURE LIST*
%TA.AperFunction,ComponentPad*%
%ADD10O,1.700000X1.950000*%
%TD*%
%TA.AperFunction,ComponentPad*%
%ADD11O,1.950000X1.700000*%
%TD*%
%TA.AperFunction,ComponentPad*%
%ADD12C,2.600000*%
%TD*%
%TA.AperFunction,ComponentPad*%
%ADD13R,2.600000X2.600000*%
%TD*%
%TA.AperFunction,ComponentPad*%
%ADD14C,1.500000*%
%TD*%
%TA.AperFunction,ComponentPad*%
%ADD15O,1.700000X2.000000*%
%TD*%
%TA.AperFunction,Conductor*%
%ADD16C,0.500000*%
%TD*%
%TA.AperFunction,Conductor*%
%ADD17C,0.254000*%
%TD*%
%TA.AperFunction,Conductor*%
%ADD18C,0.100000*%
%TD*%
G04 APERTURE END LIST*
D10*
%TO.P,J12,3*%
%TO.N,Ground*%
X64928000Y-108890000D03*
%TO.P,J12,2*%
%TO.N,5V*%
X67428000Y-108890000D03*
%TO.P,J12,1*%
%TO.N,DataOut2*%
%TA.AperFunction,ComponentPad*%
G36*
G01*
X70778000Y-108165000D02*
X70778000Y-109615000D01*
G75*
G02*
X70528000Y-109865000I-250000J0D01*
G01*
X69328000Y-109865000D01*
G75*
G02*
X69078000Y-109615000I0J250000D01*
G01*
X69078000Y-108165000D01*
G75*
G02*
X69328000Y-107915000I250000J0D01*
G01*
X70528000Y-107915000D01*
G75*
G02*
X70778000Y-108165000I0J-250000D01*
G01*
G37*
%TD.AperFunction*%
%TD*%
%TO.P,C3,2*%
%TO.N,Ground*%
%TA.AperFunction,SMDPad,CuDef*%
G36*
G01*
X59525000Y-101450000D02*
X60475000Y-101450000D01*
G75*
G02*
X60725000Y-101700000I0J-250000D01*
G01*
X60725000Y-102375000D01*
G75*
G02*
X60475000Y-102625000I-250000J0D01*
G01*
X59525000Y-102625000D01*
G75*
G02*
X59275000Y-102375000I0J250000D01*
G01*
X59275000Y-101700000D01*
G75*
G02*
X59525000Y-101450000I250000J0D01*
G01*
G37*
%TD.AperFunction*%
%TO.P,C3,1*%
%TO.N,5V*%
%TA.AperFunction,SMDPad,CuDef*%
G36*
G01*
X59525000Y-99375000D02*
X60475000Y-99375000D01*
G75*
G02*
X60725000Y-99625000I0J-250000D01*
G01*
X60725000Y-100300000D01*
G75*
G02*
X60475000Y-100550000I-250000J0D01*
G01*
X59525000Y-100550000D01*
G75*
G02*
X59275000Y-100300000I0J250000D01*
G01*
X59275000Y-99625000D01*
G75*
G02*
X59525000Y-99375000I250000J0D01*
G01*
G37*
%TD.AperFunction*%
%TD*%
%TO.P,C2,2*%
%TO.N,Ground*%
%TA.AperFunction,SMDPad,CuDef*%
G36*
G01*
X131712500Y-95925000D02*
X131712500Y-96875000D01*
G75*
G02*
X131462500Y-97125000I-250000J0D01*
G01*
X130787500Y-97125000D01*
G75*
G02*
X130537500Y-96875000I0J250000D01*
G01*
X130537500Y-95925000D01*
G75*
G02*
X130787500Y-95675000I250000J0D01*
G01*
X131462500Y-95675000D01*
G75*
G02*
X131712500Y-95925000I0J-250000D01*
G01*
G37*
%TD.AperFunction*%
%TO.P,C2,1*%
%TO.N,5V*%
%TA.AperFunction,SMDPad,CuDef*%
G36*
G01*
X133787500Y-95925000D02*
X133787500Y-96875000D01*
G75*
G02*
X133537500Y-97125000I-250000J0D01*
G01*
X132862500Y-97125000D01*
G75*
G02*
X132612500Y-96875000I0J250000D01*
G01*
X132612500Y-95925000D01*
G75*
G02*
X132862500Y-95675000I250000J0D01*
G01*
X133537500Y-95675000D01*
G75*
G02*
X133787500Y-95925000I0J-250000D01*
G01*
G37*
%TD.AperFunction*%
%TD*%
%TO.P,C1,2*%
%TO.N,Ground*%
%TA.AperFunction,SMDPad,CuDef*%
G36*
G01*
X140075000Y-96912500D02*
X139125000Y-96912500D01*
G75*
G02*
X138875000Y-96662500I0J250000D01*
G01*
X138875000Y-95987500D01*
G75*
G02*
X139125000Y-95737500I250000J0D01*
G01*
X140075000Y-95737500D01*
G75*
G02*
X140325000Y-95987500I0J-250000D01*
G01*
X140325000Y-96662500D01*
G75*
G02*
X140075000Y-96912500I-250000J0D01*
G01*
G37*
%TD.AperFunction*%
%TO.P,C1,1*%
%TO.N,5V*%
%TA.AperFunction,SMDPad,CuDef*%
G36*
G01*
X140075000Y-98987500D02*
X139125000Y-98987500D01*
G75*
G02*
X138875000Y-98737500I0J250000D01*
G01*
X138875000Y-98062500D01*
G75*
G02*
X139125000Y-97812500I250000J0D01*
G01*
X140075000Y-97812500D01*
G75*
G02*
X140325000Y-98062500I0J-250000D01*
G01*
X140325000Y-98737500D01*
G75*
G02*
X140075000Y-98987500I-250000J0D01*
G01*
G37*
%TD.AperFunction*%
%TD*%
D11*
%TO.P,J11,4*%
%TO.N,Ground*%
X55000000Y-103750000D03*
%TO.P,J11,3*%
%TO.N,5V*%
X55000000Y-101250000D03*
%TO.P,J11,2*%
%TO.N,DataIn2*%
X55000000Y-98750000D03*
%TO.P,J11,1*%
%TO.N,DataOut2*%
%TA.AperFunction,ComponentPad*%
G36*
G01*
X54275000Y-95400000D02*
X55725000Y-95400000D01*
G75*
G02*
X55975000Y-95650000I0J-250000D01*
G01*
X55975000Y-96850000D01*
G75*
G02*
X55725000Y-97100000I-250000J0D01*
G01*
X54275000Y-97100000D01*
G75*
G02*
X54025000Y-96850000I0J250000D01*
G01*
X54025000Y-95650000D01*
G75*
G02*
X54275000Y-95400000I250000J0D01*
G01*
G37*
%TD.AperFunction*%
%TD*%
%TO.P,J10,4*%
%TO.N,Ground*%
X145000000Y-96250000D03*
%TO.P,J10,3*%
%TO.N,5V*%
X145000000Y-98750000D03*
%TO.P,J10,2*%
%TO.N,Data*%
X145000000Y-101250000D03*
%TO.P,J10,1*%
%TO.N,DataIn2*%
%TA.AperFunction,ComponentPad*%
G36*
G01*
X145725000Y-104600000D02*
X144275000Y-104600000D01*
G75*
G02*
X144025000Y-104350000I0J250000D01*
G01*
X144025000Y-103150000D01*
G75*
G02*
X144275000Y-102900000I250000J0D01*
G01*
X145725000Y-102900000D01*
G75*
G02*
X145975000Y-103150000I0J-250000D01*
G01*
X145975000Y-104350000D01*
G75*
G02*
X145725000Y-104600000I-250000J0D01*
G01*
G37*
%TD.AperFunction*%
%TD*%
D10*
%TO.P,J9,3*%
%TO.N,Ground*%
X131000000Y-90000000D03*
%TO.P,J9,2*%
%TO.N,5V*%
X133500000Y-90000000D03*
%TO.P,J9,1*%
%TO.N,Data*%
%TA.AperFunction,ComponentPad*%
G36*
G01*
X136850000Y-89275000D02*
X136850000Y-90725000D01*
G75*
G02*
X136600000Y-90975000I-250000J0D01*
G01*
X135400000Y-90975000D01*
G75*
G02*
X135150000Y-90725000I0J250000D01*
G01*
X135150000Y-89275000D01*
G75*
G02*
X135400000Y-89025000I250000J0D01*
G01*
X136600000Y-89025000D01*
G75*
G02*
X136850000Y-89275000I0J-250000D01*
G01*
G37*
%TD.AperFunction*%
%TD*%
D12*
%TO.P,J5,2*%
%TO.N,Net-(J1-Pad6)*%
X82500000Y-109000000D03*
D13*
%TO.P,J5,1*%
%TO.N,Net-(J1-Pad7)*%
X77420000Y-109000000D03*
%TD*%
D10*
%TO.P,J2,4*%
%TO.N,/B2*%
X119500000Y-108890000D03*
%TO.P,J2,3*%
%TO.N,/B1*%
X122000000Y-108890000D03*
%TO.P,J2,2*%
%TO.N,/A2*%
X124500000Y-108890000D03*
%TO.P,J2,1*%
%TO.N,/A1*%
%TA.AperFunction,ComponentPad*%
G36*
G01*
X127850000Y-108165000D02*
X127850000Y-109615000D01*
G75*
G02*
X127600000Y-109865000I-250000J0D01*
G01*
X126400000Y-109865000D01*
G75*
G02*
X126150000Y-109615000I0J250000D01*
G01*
X126150000Y-108165000D01*
G75*
G02*
X126400000Y-107915000I250000J0D01*
G01*
X127600000Y-107915000D01*
G75*
G02*
X127850000Y-108165000I0J-250000D01*
G01*
G37*
%TD.AperFunction*%
%TD*%
D14*
%TO.P,J1,14*%
%TO.N,Net-(J1-Pad14)*%
X91000000Y-98500000D03*
%TO.P,J1,13*%
%TO.N,Net-(J1-Pad13)*%
X94000000Y-98500000D03*
%TO.P,J1,12*%
%TO.N,/Hotend_Fan+*%
X97000000Y-98500000D03*
%TO.P,J1,11*%
%TO.N,/Hotend_Fan-*%
X100000000Y-98500000D03*
%TO.P,J1,10*%
%TO.N,/PartFan-*%
X103000000Y-98500000D03*
%TO.P,J1,9*%
%TO.N,/PartFan+*%
X106000000Y-98500000D03*
%TO.P,J1,8*%
%TO.N,Net-(J1-Pad8)*%
X109000000Y-98500000D03*
%TO.P,J1,7*%
%TO.N,Net-(J1-Pad7)*%
X91000000Y-101500000D03*
%TO.P,J1,6*%
%TO.N,Net-(J1-Pad6)*%
X94000000Y-101500000D03*
%TO.P,J1,5*%
%TO.N,Ground*%
X97000000Y-101500000D03*
%TO.P,J1,4*%
%TO.N,/B2*%
X100000000Y-101500000D03*
%TO.P,J1,3*%
%TO.N,/B1*%
X103000000Y-101500000D03*
%TO.P,J1,2*%
%TO.N,/A2*%
X106000000Y-101500000D03*
%TO.P,J1,1*%
%TO.N,/A1*%
%TA.AperFunction,ComponentPad*%
G36*
G01*
X109750000Y-101000000D02*
X109750000Y-102000000D01*
G75*
G02*
X109500000Y-102250000I-250000J0D01*
G01*
X108500000Y-102250000D01*
G75*
G02*
X108250000Y-102000000I0J250000D01*
G01*
X108250000Y-101000000D01*
G75*
G02*
X108500000Y-100750000I250000J0D01*
G01*
X109500000Y-100750000D01*
G75*
G02*
X109750000Y-101000000I0J-250000D01*
G01*
G37*
%TD.AperFunction*%
%TD*%
D15*
%TO.P,J8,2*%
%TO.N,Net-(J8-Pad2)*%
X134000000Y-109000000D03*
%TO.P,J8,1*%
%TO.N,Net-(J8-Pad1)*%
%TA.AperFunction,ComponentPad*%
G36*
G01*
X137350000Y-108250000D02*
X137350000Y-109750000D01*
G75*
G02*
X137100000Y-110000000I-250000J0D01*
G01*
X135900000Y-110000000D01*
G75*
G02*
X135650000Y-109750000I0J250000D01*
G01*
X135650000Y-108250000D01*
G75*
G02*
X135900000Y-108000000I250000J0D01*
G01*
X137100000Y-108000000D01*
G75*
G02*
X137350000Y-108250000I0J-250000D01*
G01*
G37*
%TD.AperFunction*%
%TD*%
%TO.P,J7,2*%
%TO.N,Net-(J1-Pad8)*%
X120000000Y-90000000D03*
%TO.P,J7,1*%
%TO.N,Ground*%
%TA.AperFunction,ComponentPad*%
G36*
G01*
X123350000Y-89250000D02*
X123350000Y-90750000D01*
G75*
G02*
X123100000Y-91000000I-250000J0D01*
G01*
X121900000Y-91000000D01*
G75*
G02*
X121650000Y-90750000I0J250000D01*
G01*
X121650000Y-89250000D01*
G75*
G02*
X121900000Y-89000000I250000J0D01*
G01*
X123100000Y-89000000D01*
G75*
G02*
X123350000Y-89250000I0J-250000D01*
G01*
G37*
%TD.AperFunction*%
%TD*%
%TO.P,J6,2*%
%TO.N,Net-(J1-Pad13)*%
X62500000Y-91110000D03*
%TO.P,J6,1*%
%TO.N,Net-(J1-Pad14)*%
%TA.AperFunction,ComponentPad*%
G36*
G01*
X65850000Y-90360000D02*
X65850000Y-91860000D01*
G75*
G02*
X65600000Y-92110000I-250000J0D01*
G01*
X64400000Y-92110000D01*
G75*
G02*
X64150000Y-91860000I0J250000D01*
G01*
X64150000Y-90360000D01*
G75*
G02*
X64400000Y-90110000I250000J0D01*
G01*
X65600000Y-90110000D01*
G75*
G02*
X65850000Y-90360000I0J-250000D01*
G01*
G37*
%TD.AperFunction*%
%TD*%
%TO.P,J4,2*%
%TO.N,/PartFan-*%
X81500000Y-91110000D03*
%TO.P,J4,1*%
%TO.N,/PartFan+*%
%TA.AperFunction,ComponentPad*%
G36*
G01*
X84850000Y-90360000D02*
X84850000Y-91860000D01*
G75*
G02*
X84600000Y-92110000I-250000J0D01*
G01*
X83400000Y-92110000D01*
G75*
G02*
X83150000Y-91860000I0J250000D01*
G01*
X83150000Y-90360000D01*
G75*
G02*
X83400000Y-90110000I250000J0D01*
G01*
X84600000Y-90110000D01*
G75*
G02*
X84850000Y-90360000I0J-250000D01*
G01*
G37*
%TD.AperFunction*%
%TD*%
%TO.P,J3,2*%
%TO.N,/Hotend_Fan+*%
X72000000Y-91110000D03*
%TO.P,J3,1*%
%TO.N,/Hotend_Fan-*%
%TA.AperFunction,ComponentPad*%
G36*
G01*
X75350000Y-90360000D02*
X75350000Y-91860000D01*
G75*
G02*
X75100000Y-92110000I-250000J0D01*
G01*
X73900000Y-92110000D01*
G75*
G02*
X73650000Y-91860000I0J250000D01*
G01*
X73650000Y-90360000D01*
G75*
G02*
X73900000Y-90110000I250000J0D01*
G01*
X75100000Y-90110000D01*
G75*
G02*
X75350000Y-90360000I0J-250000D01*
G01*
G37*
%TD.AperFunction*%
%TD*%
D16*
%TO.N,Ground*%
X58287500Y-103750000D02*
X60000000Y-102037500D01*
X55000000Y-103750000D02*
X58287500Y-103750000D01*
X131125000Y-90125000D02*
X131000000Y-90000000D01*
X131125000Y-96400000D02*
X131125000Y-90125000D01*
X144925000Y-96325000D02*
X145000000Y-96250000D01*
X139600000Y-96325000D02*
X144925000Y-96325000D01*
%TO.N,5V*%
X60000000Y-99962500D02*
X58437500Y-99962500D01*
X57150000Y-101250000D02*
X55000000Y-101250000D01*
X58437500Y-99962500D02*
X57150000Y-101250000D01*
X133200000Y-90300000D02*
X133500000Y-90000000D01*
X133200000Y-96400000D02*
X133200000Y-90300000D01*
X144650000Y-98400000D02*
X145000000Y-98750000D01*
X139600000Y-98400000D02*
X144650000Y-98400000D01*
%TO.N,DataOut2*%
X55000000Y-96250000D02*
X61706000Y-96250000D01*
X69928000Y-104472000D02*
X69928000Y-108890000D01*
X61706000Y-96250000D02*
X69928000Y-104472000D01*
%TD*%
D17*
%TO.N,Ground*%
X97340001Y-90032419D02*
X97343345Y-90066372D01*
X97343345Y-90092329D01*
X97344308Y-90101494D01*
X97387818Y-90489393D01*
X97400249Y-90547873D01*
X97411873Y-90606583D01*
X97414599Y-90615386D01*
X97532623Y-90987447D01*
X97556189Y-91042430D01*
X97578984Y-91097736D01*
X97583367Y-91105842D01*
X97771411Y-91447892D01*
X97805188Y-91497221D01*
X97838309Y-91547074D01*
X97844184Y-91554174D01*
X98095084Y-91853185D01*
X98137814Y-91895029D01*
X98179973Y-91937484D01*
X98187114Y-91943308D01*
X98491316Y-92187892D01*
X98541361Y-92220640D01*
X98590962Y-92254097D01*
X98599099Y-92258423D01*
X98945011Y-92439262D01*
X99000460Y-92461665D01*
X99055619Y-92484852D01*
X99064441Y-92487515D01*
X99438891Y-92597722D01*
X99497621Y-92608925D01*
X99556250Y-92620960D01*
X99565421Y-92621859D01*
X99954147Y-92657235D01*
X100013964Y-92656817D01*
X100073781Y-92657235D01*
X100082952Y-92656335D01*
X100082954Y-92656335D01*
X100471145Y-92615534D01*
X100529708Y-92603513D01*
X100588501Y-92592298D01*
X100597323Y-92589634D01*
X100970198Y-92474210D01*
X101025353Y-92451025D01*
X101080806Y-92428621D01*
X101088943Y-92424294D01*
X101432298Y-92238643D01*
X101481849Y-92205220D01*
X101531946Y-92172438D01*
X101539087Y-92166613D01*
X101839841Y-91917806D01*
X101881981Y-91875371D01*
X101924730Y-91833508D01*
X101930604Y-91826408D01*
X102177305Y-91523923D01*
X102210409Y-91474096D01*
X102244204Y-91424741D01*
X102248587Y-91416635D01*
X102431837Y-91071993D01*
X102454631Y-91016689D01*
X102478198Y-90961705D01*
X102480923Y-90952902D01*
X102593741Y-90579230D01*
X102605361Y-90520542D01*
X102617797Y-90462039D01*
X102618760Y-90452874D01*
X102656850Y-90064405D01*
X102656850Y-90064402D01*
X102660000Y-90032419D01*
X102660000Y-89777050D01*
X118515000Y-89777050D01*
X118515000Y-90222949D01*
X118536487Y-90441110D01*
X118621401Y-90721033D01*
X118759294Y-90979013D01*
X118944866Y-91205134D01*
X119170986Y-91390706D01*
X119428966Y-91528599D01*
X119708889Y-91613513D01*
X120000000Y-91642185D01*
X120291110Y-91613513D01*
X120571033Y-91528599D01*
X120829013Y-91390706D01*
X121049945Y-91209392D01*
X121060498Y-91244180D01*
X121119463Y-91354494D01*
X121198815Y-91451185D01*
X121295506Y-91530537D01*
X121405820Y-91589502D01*
X121525518Y-91625812D01*
X121650000Y-91638072D01*
X122214250Y-91635000D01*
X122373000Y-91476250D01*
X122373000Y-90127000D01*
X122627000Y-90127000D01*
X122627000Y-91476250D01*
X122785750Y-91635000D01*
X123350000Y-91638072D01*
X123474482Y-91625812D01*
X123594180Y-91589502D01*
X123704494Y-91530537D01*
X123801185Y-91451185D01*
X123880537Y-91354494D01*
X123939502Y-91244180D01*
X123975812Y-91124482D01*
X123988072Y-91000000D01*
X123985317Y-90359267D01*
X129533680Y-90359267D01*
X129607558Y-90640830D01*
X129734947Y-90902570D01*
X129910951Y-91134429D01*
X130128807Y-91327496D01*
X130380142Y-91474352D01*
X130643110Y-91566476D01*
X130873000Y-91445155D01*
X130873000Y-90127000D01*
X129673835Y-90127000D01*
X129533680Y-90359267D01*
X123985317Y-90359267D01*
X123985000Y-90285750D01*
X123826250Y-90127000D01*
X122627000Y-90127000D01*
X122373000Y-90127000D01*
X122353000Y-90127000D01*
X122353000Y-89873000D01*
X122373000Y-89873000D01*
X122373000Y-88523750D01*
X122627000Y-88523750D01*
X122627000Y-89873000D01*
X123826250Y-89873000D01*
X123985000Y-89714250D01*
X123985316Y-89640733D01*
X129533680Y-89640733D01*
X129673835Y-89873000D01*
X130873000Y-89873000D01*
X130873000Y-88554845D01*
X131127000Y-88554845D01*
X131127000Y-89873000D01*
X131147000Y-89873000D01*
X131147000Y-90127000D01*
X131127000Y-90127000D01*
X131127000Y-91445155D01*
X131356890Y-91566476D01*
X131619858Y-91474352D01*
X131871193Y-91327496D01*
X132089049Y-91134429D01*
X132245538Y-90928278D01*
X132259294Y-90954013D01*
X132315001Y-91021892D01*
X132315000Y-95231005D01*
X132234538Y-95297038D01*
X132229158Y-95303594D01*
X132163685Y-95223815D01*
X132066994Y-95144463D01*
X131956680Y-95085498D01*
X131836982Y-95049188D01*
X131712500Y-95036928D01*
X131410750Y-95040000D01*
X131252000Y-95198750D01*
X131252000Y-96273000D01*
X131272000Y-96273000D01*
X131272000Y-96527000D01*
X131252000Y-96527000D01*
X131252000Y-97601250D01*
X131410750Y-97760000D01*
X131712500Y-97763072D01*
X131836982Y-97750812D01*
X131956680Y-97714502D01*
X132066994Y-97655537D01*
X132163685Y-97576185D01*
X132229158Y-97496406D01*
X132234538Y-97502962D01*
X132369114Y-97613405D01*
X132522650Y-97695472D01*
X132689246Y-97746008D01*
X132862500Y-97763072D01*
X133537500Y-97763072D01*
X133710754Y-97746008D01*
X133877350Y-97695472D01*
X134030886Y-97613405D01*
X134165462Y-97502962D01*
X134275905Y-97368386D01*
X134357972Y-97214850D01*
X134408508Y-97048254D01*
X134421878Y-96912500D01*
X138236928Y-96912500D01*
X138249188Y-97036982D01*
X138285498Y-97156680D01*
X138344463Y-97266994D01*
X138423815Y-97363685D01*
X138503594Y-97429158D01*
X138497038Y-97434538D01*
X138386595Y-97569114D01*
X138304528Y-97722650D01*
X138253992Y-97889246D01*
X138236928Y-98062500D01*
X138236928Y-98737500D01*
X138253992Y-98910754D01*
X138304528Y-99077350D01*
X138386595Y-99230886D01*
X138497038Y-99365462D01*
X138631614Y-99475905D01*
X138785150Y-99557972D01*
X138951746Y-99608508D01*
X139125000Y-99625572D01*
X140075000Y-99625572D01*
X140248254Y-99608508D01*
X140414850Y-99557972D01*
X140568386Y-99475905D01*
X140702962Y-99365462D01*
X140768995Y-99285000D01*
X143485470Y-99285000D01*
X143496401Y-99321034D01*
X143634294Y-99579014D01*
X143819866Y-99805134D01*
X144045986Y-99990706D01*
X144063374Y-100000000D01*
X144045986Y-100009294D01*
X143819866Y-100194866D01*
X143634294Y-100420986D01*
X143496401Y-100678966D01*
X143411487Y-100958889D01*
X143382815Y-101250000D01*
X143411487Y-101541111D01*
X143496401Y-101821034D01*
X143634294Y-102079014D01*
X143819866Y-102305134D01*
X143883337Y-102357223D01*
X143781614Y-102411595D01*
X143647038Y-102522038D01*
X143536595Y-102656614D01*
X143454528Y-102810150D01*
X143403992Y-102976746D01*
X143386928Y-103150000D01*
X143386928Y-104350000D01*
X143403992Y-104523254D01*
X143454528Y-104689850D01*
X143536595Y-104843386D01*
X143647038Y-104977962D01*
X143781614Y-105088405D01*
X143935150Y-105170472D01*
X144101746Y-105221008D01*
X144275000Y-105238072D01*
X145725000Y-105238072D01*
X145898254Y-105221008D01*
X146064850Y-105170472D01*
X146218386Y-105088405D01*
X146352962Y-104977962D01*
X146463405Y-104843386D01*
X146545472Y-104689850D01*
X146596008Y-104523254D01*
X146613072Y-104350000D01*
X146613072Y-103150000D01*
X146596008Y-102976746D01*
X146545472Y-102810150D01*
X146463405Y-102656614D01*
X146352962Y-102522038D01*
X146218386Y-102411595D01*
X146116663Y-102357223D01*
X146180134Y-102305134D01*
X146365706Y-102079014D01*
X146503599Y-101821034D01*
X146588513Y-101541111D01*
X146617185Y-101250000D01*
X146588513Y-100958889D01*
X146503599Y-100678966D01*
X146365706Y-100420986D01*
X146180134Y-100194866D01*
X145954014Y-100009294D01*
X145936626Y-100000000D01*
X145954014Y-99990706D01*
X146180134Y-99805134D01*
X146365706Y-99579014D01*
X146503599Y-99321034D01*
X146588513Y-99041111D01*
X146617185Y-98750000D01*
X146588513Y-98458889D01*
X146503599Y-98178966D01*
X146365706Y-97920986D01*
X146180134Y-97694866D01*
X145954014Y-97509294D01*
X145928278Y-97495538D01*
X146134429Y-97339049D01*
X146327496Y-97121193D01*
X146474352Y-96869858D01*
X146566476Y-96606890D01*
X146445155Y-96377000D01*
X145127000Y-96377000D01*
X145127000Y-96397000D01*
X144873000Y-96397000D01*
X144873000Y-96377000D01*
X143554845Y-96377000D01*
X143433524Y-96606890D01*
X143525648Y-96869858D01*
X143672504Y-97121193D01*
X143865571Y-97339049D01*
X144071722Y-97495538D01*
X144045986Y-97509294D01*
X144039033Y-97515000D01*
X140768995Y-97515000D01*
X140702962Y-97434538D01*
X140696406Y-97429158D01*
X140776185Y-97363685D01*
X140855537Y-97266994D01*
X140914502Y-97156680D01*
X140950812Y-97036982D01*
X140963072Y-96912500D01*
X140960000Y-96610750D01*
X140801250Y-96452000D01*
X139727000Y-96452000D01*
X139727000Y-96472000D01*
X139473000Y-96472000D01*
X139473000Y-96452000D01*
X138398750Y-96452000D01*
X138240000Y-96610750D01*
X138236928Y-96912500D01*
X134421878Y-96912500D01*
X134425572Y-96875000D01*
X134425572Y-95925000D01*
X134408508Y-95751746D01*
X134404187Y-95737500D01*
X138236928Y-95737500D01*
X138240000Y-96039250D01*
X138398750Y-96198000D01*
X139473000Y-96198000D01*
X139473000Y-95261250D01*
X139727000Y-95261250D01*
X139727000Y-96198000D01*
X140801250Y-96198000D01*
X140960000Y-96039250D01*
X140961487Y-95893110D01*
X143433524Y-95893110D01*
X143554845Y-96123000D01*
X144873000Y-96123000D01*
X144873000Y-94923835D01*
X145127000Y-94923835D01*
X145127000Y-96123000D01*
X146445155Y-96123000D01*
X146566476Y-95893110D01*
X146474352Y-95630142D01*
X146327496Y-95378807D01*
X146134429Y-95160951D01*
X145902570Y-94984947D01*
X145640830Y-94857558D01*
X145359267Y-94783680D01*
X145127000Y-94923835D01*
X144873000Y-94923835D01*
X144640733Y-94783680D01*
X144359170Y-94857558D01*
X144097430Y-94984947D01*
X143865571Y-95160951D01*
X143672504Y-95378807D01*
X143525648Y-95630142D01*
X143433524Y-95893110D01*
X140961487Y-95893110D01*
X140963072Y-95737500D01*
X140950812Y-95613018D01*
X140914502Y-95493320D01*
X140855537Y-95383006D01*
X140776185Y-95286315D01*
X140679494Y-95206963D01*
X140569180Y-95147998D01*
X140449482Y-95111688D01*
X140325000Y-95099428D01*
X139885750Y-95102500D01*
X139727000Y-95261250D01*
X139473000Y-95261250D01*
X139314250Y-95102500D01*
X138875000Y-95099428D01*
X138750518Y-95111688D01*
X138630820Y-95147998D01*
X138520506Y-95206963D01*
X138423815Y-95286315D01*
X138344463Y-95383006D01*
X138285498Y-95493320D01*
X138249188Y-95613018D01*
X138236928Y-95737500D01*
X134404187Y-95737500D01*
X134357972Y-95585150D01*
X134275905Y-95431614D01*
X134165462Y-95297038D01*
X134085000Y-95231005D01*
X134085000Y-91496133D01*
X134329013Y-91365706D01*
X134555134Y-91180134D01*
X134607223Y-91116663D01*
X134661595Y-91218386D01*
X134772038Y-91352962D01*
X134906614Y-91463405D01*
X135060150Y-91545472D01*
X135226746Y-91596008D01*
X135400000Y-91613072D01*
X136600000Y-91613072D01*
X136773254Y-91596008D01*
X136939850Y-91545472D01*
X137093386Y-91463405D01*
X137227962Y-91352962D01*
X137338405Y-91218386D01*
X137420472Y-91064850D01*
X137471008Y-90898254D01*
X137488072Y-90725000D01*
X137488072Y-89275000D01*
X137471008Y-89101746D01*
X137420472Y-88935150D01*
X137338405Y-88781614D01*
X137227962Y-88647038D01*
X137093386Y-88536595D01*
X136939850Y-88454528D01*
X136773254Y-88403992D01*
X136600000Y-88386928D01*
X135400000Y-88386928D01*
X135226746Y-88403992D01*
X135060150Y-88454528D01*
X134906614Y-88536595D01*
X134772038Y-88647038D01*
X134661595Y-88781614D01*
X134607223Y-88883337D01*
X134555134Y-88819866D01*
X134329014Y-88634294D01*
X134071034Y-88496401D01*
X133791111Y-88411487D01*
X133500000Y-88382815D01*
X133208890Y-88411487D01*
X132928967Y-88496401D01*
X132670987Y-88634294D01*
X132444866Y-88819866D01*
X132259294Y-89045986D01*
X132245538Y-89071722D01*
X132089049Y-88865571D01*
X131871193Y-88672504D01*
X131619858Y-88525648D01*
X131356890Y-88433524D01*
X131127000Y-88554845D01*
X130873000Y-88554845D01*
X130643110Y-88433524D01*
X130380142Y-88525648D01*
X130128807Y-88672504D01*
X129910951Y-88865571D01*
X129734947Y-89097430D01*
X129607558Y-89359170D01*
X129533680Y-89640733D01*
X123985316Y-89640733D01*
X123988072Y-89000000D01*
X123975812Y-88875518D01*
X123939502Y-88755820D01*
X123880537Y-88645506D01*
X123801185Y-88548815D01*
X123704494Y-88469463D01*
X123594180Y-88410498D01*
X123474482Y-88374188D01*
X123350000Y-88361928D01*
X122785750Y-88365000D01*
X122627000Y-88523750D01*
X122373000Y-88523750D01*
X122214250Y-88365000D01*
X121650000Y-88361928D01*
X121525518Y-88374188D01*
X121405820Y-88410498D01*
X121295506Y-88469463D01*
X121198815Y-88548815D01*
X121119463Y-88645506D01*
X121060498Y-88755820D01*
X121049945Y-88790608D01*
X120829014Y-88609294D01*
X120571034Y-88471401D01*
X120291111Y-88386487D01*
X120000000Y-88357815D01*
X119708890Y-88386487D01*
X119428967Y-88471401D01*
X119170987Y-88609294D01*
X118944866Y-88794866D01*
X118759294Y-89020986D01*
X118621401Y-89278966D01*
X118536487Y-89558889D01*
X118515000Y-89777050D01*
X102660000Y-89777050D01*
X102660000Y-85967582D01*
X102840000Y-85967582D01*
X102840001Y-88032419D01*
X102843247Y-88065377D01*
X102843247Y-88078367D01*
X102844210Y-88087532D01*
X102865965Y-88281481D01*
X102878397Y-88339966D01*
X102890022Y-88398676D01*
X102892747Y-88407479D01*
X102951760Y-88593509D01*
X102975338Y-88648519D01*
X102998120Y-88703794D01*
X103002503Y-88711900D01*
X103096525Y-88882925D01*
X103130308Y-88932264D01*
X103163423Y-88982106D01*
X103169297Y-88989206D01*
X103294747Y-89138712D01*
X103337477Y-89180557D01*
X103379638Y-89223013D01*
X103386780Y-89228837D01*
X103538879Y-89351128D01*
X103588941Y-89383887D01*
X103638523Y-89417331D01*
X103646660Y-89421657D01*
X103646663Y-89421659D01*
X103646667Y-89421660D01*
X103819615Y-89512077D01*
X103875053Y-89534475D01*
X103930228Y-89557669D01*
X103939050Y-89560332D01*
X104126275Y-89615435D01*
X104184983Y-89626633D01*
X104243628Y-89638672D01*
X104252799Y-89639570D01*
X104447161Y-89657259D01*
X104506943Y-89656842D01*
X104566801Y-89657260D01*
X104575972Y-89656360D01*
X104770069Y-89635959D01*
X104828658Y-89623932D01*
X104887423Y-89612723D01*
X104896245Y-89610059D01*
X105082683Y-89552347D01*
X105137838Y-89529162D01*
X105193291Y-89506758D01*
X105201427Y-89502432D01*
X105373104Y-89409607D01*
X105422699Y-89376154D01*
X105472753Y-89343400D01*
X105479894Y-89337576D01*
X105630272Y-89213172D01*
X105672411Y-89170737D01*
X105715161Y-89128874D01*
X105721034Y-89121773D01*
X105844384Y-88970531D01*
X105877477Y-88920723D01*
X105911284Y-88871349D01*
X105915667Y-88863243D01*
X106007292Y-88690920D01*
X106030090Y-88635608D01*
X106053652Y-88580634D01*
X106056377Y-88571831D01*
X106112786Y-88384994D01*
X106124405Y-88326314D01*
X106136842Y-88267804D01*
X106137805Y-88258639D01*
X106156850Y-88064406D01*
X106156850Y-88064402D01*
X106160000Y-88032419D01*
X106160000Y-85967581D01*
X106156753Y-85934613D01*
X106156753Y-85921633D01*
X106155790Y-85912468D01*
X106134035Y-85718518D01*
X106121600Y-85660019D01*
X106109978Y-85601325D01*
X106107253Y-85592522D01*
X106048240Y-85406491D01*
X106024674Y-85351509D01*
X106001880Y-85296206D01*
X105997497Y-85288100D01*
X105903475Y-85117075D01*
X105869702Y-85067752D01*
X105836577Y-85017894D01*
X105830703Y-85010794D01*
X105705253Y-84861288D01*
X105662523Y-84819443D01*
X105620362Y-84776987D01*
X105613220Y-84771163D01*
X105461120Y-84648872D01*
X105411061Y-84616114D01*
X105361477Y-84582669D01*
X105353340Y-84578343D01*
X105353337Y-84578341D01*
X105353333Y-84578340D01*
X105180384Y-84487923D01*
X105124972Y-84465535D01*
X105069772Y-84442331D01*
X105060950Y-84439668D01*
X104873724Y-84384565D01*
X104814986Y-84373360D01*
X104756372Y-84361328D01*
X104747200Y-84360429D01*
X104552839Y-84342741D01*
X104493057Y-84343158D01*
X104433199Y-84342740D01*
X104424028Y-84343640D01*
X104229931Y-84364041D01*
X104171348Y-84376066D01*
X104112577Y-84387277D01*
X104103755Y-84389941D01*
X103917317Y-84447653D01*
X103862162Y-84470838D01*
X103806709Y-84493242D01*
X103798573Y-84497568D01*
X103626896Y-84590393D01*
X103577278Y-84623861D01*
X103527247Y-84656600D01*
X103520106Y-84662424D01*
X103369728Y-84786828D01*
X103327589Y-84829263D01*
X103284839Y-84871126D01*
X103278966Y-84878227D01*
X103155616Y-85029469D01*
X103122534Y-85079262D01*
X103088716Y-85128651D01*
X103084333Y-85136757D01*
X102992708Y-85309079D01*
X102969909Y-85364394D01*
X102946348Y-85419366D01*
X102943623Y-85428169D01*
X102887214Y-85615005D01*
X102875594Y-85673693D01*
X102863158Y-85732196D01*
X102862195Y-85741361D01*
X102843150Y-85935595D01*
X102840000Y-85967582D01*
X102660000Y-85967582D01*
X102660000Y-82160000D01*
X158967721Y-82160000D01*
X159259659Y-82188625D01*
X159509429Y-82264035D01*
X159739792Y-82386522D01*
X159941980Y-82551422D01*
X160108286Y-82752450D01*
X160232378Y-82981954D01*
X160309531Y-83231195D01*
X160340001Y-83521098D01*
X160340000Y-98217721D01*
X160311375Y-98509660D01*
X160235965Y-98759429D01*
X160113477Y-98989794D01*
X159948579Y-99191979D01*
X159747546Y-99358288D01*
X159518046Y-99482378D01*
X159268805Y-99559531D01*
X158978911Y-99590000D01*
X157967581Y-99590000D01*
X157933862Y-99593321D01*
X157911161Y-99593321D01*
X157901996Y-99594284D01*
X157562586Y-99632355D01*
X157504089Y-99644789D01*
X157445395Y-99656411D01*
X157436592Y-99659136D01*
X157111039Y-99762407D01*
X157056092Y-99785958D01*
X157000751Y-99808767D01*
X156992645Y-99813150D01*
X156693351Y-99977688D01*
X156643979Y-100011494D01*
X156594168Y-100044588D01*
X156587068Y-100050462D01*
X156325433Y-100270000D01*
X156283589Y-100312730D01*
X156241135Y-100354888D01*
X156235310Y-100362030D01*
X156021300Y-100628205D01*
X155988547Y-100678257D01*
X155955094Y-100727852D01*
X155950771Y-100735984D01*
X155950768Y-100735988D01*
X155950768Y-100735989D01*
X155792534Y-101038663D01*
X155770138Y-101094095D01*
X155746944Y-101149271D01*
X155744281Y-101158093D01*
X155647850Y-101485738D01*
X155636652Y-101544439D01*
X155624612Y-101603095D01*
X155623713Y-101612266D01*
X155592759Y-101952401D01*
X155593177Y-102012217D01*
X155592759Y-102072033D01*
X155593658Y-102081205D01*
X155629358Y-102420874D01*
X155641390Y-102479486D01*
X155652595Y-102538231D01*
X155655259Y-102547053D01*
X155756255Y-102873319D01*
X155779435Y-102928462D01*
X155801844Y-102983927D01*
X155806171Y-102992064D01*
X155968616Y-103292500D01*
X156002061Y-103342084D01*
X156034821Y-103392147D01*
X156040646Y-103399288D01*
X156258351Y-103662449D01*
X156300823Y-103704626D01*
X156342651Y-103747339D01*
X156349751Y-103753213D01*
X156614426Y-103969076D01*
X156664250Y-104002179D01*
X156713606Y-104035974D01*
X156721713Y-104040357D01*
X157023274Y-104200701D01*
X157078580Y-104223496D01*
X157133563Y-104247062D01*
X157142366Y-104249787D01*
X157469329Y-104348503D01*
X157528000Y-104360120D01*
X157586521Y-104372559D01*
X157595686Y-104373522D01*
X157935596Y-104406850D01*
X157935598Y-104406850D01*
X157967581Y-104410000D01*
X158967721Y-104410000D01*
X159259659Y-104438625D01*
X159509429Y-104514035D01*
X159739792Y-104636522D01*
X159941980Y-104801422D01*
X160108286Y-105002450D01*
X160232378Y-105231954D01*
X160309531Y-105481195D01*
X160340001Y-105771098D01*
X160340000Y-116467721D01*
X160311375Y-116759660D01*
X160235965Y-117009429D01*
X160113477Y-117239794D01*
X159948579Y-117441979D01*
X159747546Y-117608288D01*
X159518046Y-117732378D01*
X159268805Y-117809531D01*
X158978911Y-117840000D01*
X156032279Y-117840000D01*
X155740340Y-117811375D01*
X155490571Y-117735965D01*
X155260206Y-117613477D01*
X155058021Y-117448579D01*
X154891712Y-117247546D01*
X154767622Y-117018046D01*
X154690469Y-116768805D01*
X154660000Y-116478911D01*
X154660000Y-115467581D01*
X154657148Y-115438627D01*
X154657235Y-115426219D01*
X154656335Y-115417047D01*
X154615534Y-115028855D01*
X154603514Y-114970299D01*
X154592298Y-114911498D01*
X154589634Y-114902677D01*
X154474210Y-114529802D01*
X154451025Y-114474647D01*
X154428621Y-114419194D01*
X154424294Y-114411058D01*
X154424294Y-114411057D01*
X154424291Y-114411053D01*
X154238643Y-114067702D01*
X154205187Y-114018101D01*
X154172437Y-113968054D01*
X154166613Y-113960913D01*
X153917806Y-113660158D01*
X153875371Y-113618019D01*
X153833508Y-113575269D01*
X153826407Y-113569396D01*
X153523923Y-113322695D01*
X153474107Y-113289598D01*
X153424741Y-113255795D01*
X153416635Y-113251413D01*
X153071993Y-113068163D01*
X153016687Y-113045368D01*
X152961704Y-113021802D01*
X152952901Y-113019077D01*
X152579230Y-112906259D01*
X152520542Y-112894639D01*
X152462039Y-112882203D01*
X152452874Y-112881240D01*
X152064405Y-112843150D01*
X152064402Y-112843150D01*
X152032419Y-112840000D01*
X148967581Y-112840000D01*
X148938627Y-112842852D01*
X148926219Y-112842765D01*
X148917047Y-112843665D01*
X148528855Y-112884466D01*
X148470299Y-112896486D01*
X148411498Y-112907702D01*
X148402677Y-112910366D01*
X148029802Y-113025790D01*
X147974647Y-113048975D01*
X147919194Y-113071379D01*
X147911062Y-113075704D01*
X147911057Y-113075706D01*
X147911053Y-113075709D01*
X147567702Y-113261357D01*
X147518101Y-113294813D01*
X147468054Y-113327563D01*
X147460913Y-113333387D01*
X147160158Y-113582194D01*
X147118019Y-113624629D01*
X147075269Y-113666492D01*
X147069396Y-113673593D01*
X146822695Y-113976077D01*
X146789598Y-114025893D01*
X146755795Y-114075259D01*
X146751413Y-114083365D01*
X146568163Y-114428007D01*
X146545368Y-114483313D01*
X146521802Y-114538296D01*
X146519077Y-114547099D01*
X146406259Y-114920770D01*
X146394639Y-114979458D01*
X146382203Y-115037961D01*
X146381240Y-115047126D01*
X146343150Y-115435595D01*
X146340000Y-115467582D01*
X146340001Y-116467711D01*
X146311375Y-116759660D01*
X146235965Y-117009429D01*
X146113477Y-117239794D01*
X145948579Y-117441979D01*
X145747546Y-117608288D01*
X145518046Y-117732378D01*
X145268805Y-117809531D01*
X144978911Y-117840000D01*
X41032279Y-117840000D01*
X40740340Y-117811375D01*
X40490571Y-117735965D01*
X40260206Y-117613477D01*
X40058021Y-117448579D01*
X39891712Y-117247546D01*
X39767622Y-117018046D01*
X39690469Y-116768805D01*
X39660000Y-116478911D01*
X39660000Y-109249267D01*
X63461680Y-109249267D01*
X63535558Y-109530830D01*
X63662947Y-109792570D01*
X63838951Y-110024429D01*
X64056807Y-110217496D01*
X64308142Y-110364352D01*
X64571110Y-110456476D01*
X64801000Y-110335155D01*
X64801000Y-109017000D01*
X63601835Y-109017000D01*
X63461680Y-109249267D01*
X39660000Y-109249267D01*
X39660000Y-108530733D01*
X63461680Y-108530733D01*
X63601835Y-108763000D01*
X64801000Y-108763000D01*
X64801000Y-107444845D01*
X64571110Y-107323524D01*
X64308142Y-107415648D01*
X64056807Y-107562504D01*
X63838951Y-107755571D01*
X63662947Y-107987430D01*
X63535558Y-108249170D01*
X63461680Y-108530733D01*
X39660000Y-108530733D01*
X39660000Y-105782279D01*
X39688625Y-105490341D01*
X39764035Y-105240571D01*
X39886522Y-105010208D01*
X40051422Y-104808020D01*
X40252450Y-104641714D01*
X40481954Y-104517622D01*
X40731195Y-104440469D01*
X41021088Y-104410000D01*
X42032419Y-104410000D01*
X42066138Y-104406679D01*
X42088839Y-104406679D01*
X42098003Y-104405716D01*
X42437414Y-104367645D01*
X42495917Y-104355209D01*
X42554605Y-104343589D01*
X42563408Y-104340864D01*
X42888961Y-104237593D01*
X42943908Y-104214042D01*
X42999249Y-104191233D01*
X43007355Y-104186850D01*
X43152801Y-104106890D01*
X53433524Y-104106890D01*
X53525648Y-104369858D01*
X53672504Y-104621193D01*
X53865571Y-104839049D01*
X54097430Y-105015053D01*
X54359170Y-105142442D01*
X54640733Y-105216320D01*
X54873000Y-105076165D01*
X54873000Y-103877000D01*
X55127000Y-103877000D01*
X55127000Y-105076165D01*
X55359267Y-105216320D01*
X55640830Y-105142442D01*
X55902570Y-105015053D01*
X56134429Y-104839049D01*
X56327496Y-104621193D01*
X56474352Y-104369858D01*
X56566476Y-104106890D01*
X56445155Y-103877000D01*
X55127000Y-103877000D01*
X54873000Y-103877000D01*
X53554845Y-103877000D01*
X53433524Y-104106890D01*
X43152801Y-104106890D01*
X43306649Y-104022312D01*
X43356005Y-103988517D01*
X43405832Y-103955412D01*
X43412932Y-103949538D01*
X43674567Y-103730000D01*
X43716411Y-103687270D01*
X43758865Y-103645112D01*
X43764689Y-103637970D01*
X43978700Y-103371796D01*
X44011450Y-103321749D01*
X44044906Y-103272148D01*
X44049232Y-103264011D01*
X44207466Y-102961337D01*
X44229862Y-102905905D01*
X44253056Y-102850729D01*
X44255719Y-102841907D01*
X44352150Y-102514262D01*
X44363349Y-102455554D01*
X44375388Y-102396905D01*
X44376287Y-102387733D01*
X44407241Y-102047599D01*
X44406823Y-101987783D01*
X44407241Y-101927967D01*
X44406342Y-101918796D01*
X44370642Y-101579126D01*
X44358610Y-101520514D01*
X44347405Y-101461769D01*
X44344741Y-101452947D01*
X44243745Y-101126681D01*
X44220565Y-101071538D01*
X44198156Y-101016073D01*
X44193829Y-101007936D01*
X44031384Y-100707500D01*
X43997939Y-100657916D01*
X43965179Y-100607853D01*
X43959354Y-100600712D01*
X43741648Y-100337551D01*
X43699212Y-100295410D01*
X43657349Y-100252661D01*
X43650248Y-100246787D01*
X43385574Y-100030924D01*
X43335716Y-99997799D01*
X43286393Y-99964026D01*
X43278287Y-99959643D01*
X42976725Y-99799299D01*
X42921433Y-99776510D01*
X42866437Y-99752938D01*
X42857634Y-99750213D01*
X42530671Y-99651497D01*
X42472000Y-99639880D01*
X42413479Y-99627441D01*
X42404314Y-99626478D01*
X42064404Y-99593150D01*
X42064402Y-99593150D01*
X42032419Y-99590000D01*
X41032269Y-99590000D01*
X40740340Y-99561376D01*
X40490572Y-99485967D01*
X40260206Y-99363479D01*
X40058021Y-99198581D01*
X39891712Y-98997547D01*
X39767621Y-98768046D01*
X39762035Y-98750000D01*
X53382815Y-98750000D01*
X53411487Y-99041111D01*
X53496401Y-99321034D01*
X53634294Y-99579014D01*
X53819866Y-99805134D01*
X54045986Y-99990706D01*
X54063374Y-100000000D01*
X54045986Y-100009294D01*
X53819866Y-100194866D01*
X53634294Y-100420986D01*
X53496401Y-100678966D01*
X53411487Y-100958889D01*
X53382815Y-101250000D01*
X53411487Y-101541111D01*
X53496401Y-101821034D01*
X53634294Y-102079014D01*
X53819866Y-102305134D01*
X54045986Y-102490706D01*
X54071722Y-102504462D01*
X53865571Y-102660951D01*
X53672504Y-102878807D01*
X53525648Y-103130142D01*
X53433524Y-103393110D01*
X53554845Y-103623000D01*
X54873000Y-103623000D01*
X54873000Y-103603000D01*
X55127000Y-103603000D01*
X55127000Y-103623000D01*
X56445155Y-103623000D01*
X56566476Y-103393110D01*
X56474352Y-103130142D01*
X56327496Y-102878807D01*
X56134429Y-102660951D01*
X56087069Y-102625000D01*
X58636928Y-102625000D01*
X58649188Y-102749482D01*
X58685498Y-102869180D01*
X58744463Y-102979494D01*
X58823815Y-103076185D01*
X58920506Y-103155537D01*
X59030820Y-103214502D01*
X59150518Y-103250812D01*
X59275000Y-103263072D01*
X59714250Y-103260000D01*
X59873000Y-103101250D01*
X59873000Y-102164500D01*
X60127000Y-102164500D01*
X60127000Y-103101250D01*
X60285750Y-103260000D01*
X60725000Y-103263072D01*
X60849482Y-103250812D01*
X60969180Y-103214502D01*
X61079494Y-103155537D01*
X61176185Y-103076185D01*
X61255537Y-102979494D01*
X61314502Y-102869180D01*
X61350812Y-102749482D01*
X61363072Y-102625000D01*
X61360000Y-102323250D01*
X61201250Y-102164500D01*
X60127000Y-102164500D01*
X59873000Y-102164500D01*
X58798750Y-102164500D01*
X58640000Y-102323250D01*
X58636928Y-102625000D01*
X56087069Y-102625000D01*
X55928278Y-102504462D01*
X55954014Y-102490706D01*
X56180134Y-102305134D01*
X56319759Y-102135000D01*
X57106531Y-102135000D01*
X57150000Y-102139281D01*
X57193469Y-102135000D01*
X57193477Y-102135000D01*
X57323490Y-102122195D01*
X57490313Y-102071589D01*
X57644059Y-101989411D01*
X57778817Y-101878817D01*
X57806534Y-101845044D01*
X58804079Y-100847500D01*
X58831005Y-100847500D01*
X58897038Y-100927962D01*
X58903594Y-100933342D01*
X58823815Y-100998815D01*
X58744463Y-101095506D01*
X58685498Y-101205820D01*
X58649188Y-101325518D01*
X58636928Y-101450000D01*
X58640000Y-101751750D01*
X58798750Y-101910500D01*
X59873000Y-101910500D01*
X59873000Y-101890500D01*
X60127000Y-101890500D01*
X60127000Y-101910500D01*
X61201250Y-101910500D01*
X61360000Y-101751750D01*
X61363072Y-101450000D01*
X61350812Y-101325518D01*
X61314502Y-101205820D01*
X61255537Y-101095506D01*
X61176185Y-100998815D01*
X61096406Y-100933342D01*
X61102962Y-100927962D01*
X61213405Y-100793386D01*
X61295472Y-100639850D01*
X61346008Y-100473254D01*
X61363072Y-100300000D01*
X61363072Y-99625000D01*
X61346008Y-99451746D01*
X61295472Y-99285150D01*
X61213405Y-99131614D01*
X61102962Y-98997038D01*
X60968386Y-98886595D01*
X60814850Y-98804528D01*
X60648254Y-98753992D01*
X60475000Y-98736928D01*
X59525000Y-98736928D01*
X59351746Y-98753992D01*
X59185150Y-98804528D01*
X59031614Y-98886595D01*
X58897038Y-98997038D01*
X58831005Y-99077500D01*
X58480969Y-99077500D01*
X58437500Y-99073219D01*
X58394031Y-99077500D01*
X58394023Y-99077500D01*
X58278806Y-99088848D01*
X58264009Y-99090305D01*
X58213403Y-99105657D01*
X58097187Y-99140911D01*
X57943441Y-99223089D01*
X57929048Y-99234901D01*
X57842453Y-99305968D01*
X57842451Y-99305970D01*
X57808683Y-99333683D01*
X57780970Y-99367451D01*
X56783422Y-100365000D01*
X56319759Y-100365000D01*
X56180134Y-100194866D01*
X55954014Y-100009294D01*
X55936626Y-100000000D01*
X55954014Y-99990706D01*
X56180134Y-99805134D01*
X56365706Y-99579014D01*
X56503599Y-99321034D01*
X56588513Y-99041111D01*
X56617185Y-98750000D01*
X56588513Y-98458889D01*
X56503599Y-98178966D01*
X56365706Y-97920986D01*
X56180134Y-97694866D01*
X56116663Y-97642777D01*
X56218386Y-97588405D01*
X56352962Y-97477962D01*
X56463405Y-97343386D01*
X56545472Y-97189850D01*
X56562110Y-97135000D01*
X61339422Y-97135000D01*
X69043000Y-104838579D01*
X69043001Y-107327889D01*
X68988150Y-107344528D01*
X68834614Y-107426595D01*
X68700038Y-107537038D01*
X68589595Y-107671614D01*
X68535223Y-107773337D01*
X68483134Y-107709866D01*
X68257014Y-107524294D01*
X67999034Y-107386401D01*
X67719111Y-107301487D01*
X67428000Y-107272815D01*
X67136890Y-107301487D01*
X66856967Y-107386401D01*
X66598987Y-107524294D01*
X66372866Y-107709866D01*
X66187294Y-107935986D01*
X66173538Y-107961722D01*
X66017049Y-107755571D01*
X65799193Y-107562504D01*
X65547858Y-107415648D01*
X65284890Y-107323524D01*
X65055000Y-107444845D01*
X65055000Y-108763000D01*
X65075000Y-108763000D01*
X65075000Y-109017000D01*
X65055000Y-109017000D01*
X65055000Y-110335155D01*
X65284890Y-110456476D01*
X65547858Y-110364352D01*
X65799193Y-110217496D01*
X66017049Y-110024429D01*
X66173538Y-109818278D01*
X66187294Y-109844013D01*
X66372866Y-110070134D01*
X66598986Y-110255706D01*
X66856966Y-110393599D01*
X67136889Y-110478513D01*
X67428000Y-110507185D01*
X67719110Y-110478513D01*
X67999033Y-110393599D01*
X68257013Y-110255706D01*
X68483134Y-110070134D01*
X68535223Y-110006663D01*
X68589595Y-110108386D01*
X68700038Y-110242962D01*
X68834614Y-110353405D01*
X68988150Y-110435472D01*
X69154746Y-110486008D01*
X69328000Y-110503072D01*
X70528000Y-110503072D01*
X70701254Y-110486008D01*
X70867850Y-110435472D01*
X71021386Y-110353405D01*
X71155962Y-110242962D01*
X71266405Y-110108386D01*
X71348472Y-109954850D01*
X71399008Y-109788254D01*
X71416072Y-109615000D01*
X71416072Y-108165000D01*
X71399008Y-107991746D01*
X71348472Y-107825150D01*
X71281578Y-107700000D01*
X75481928Y-107700000D01*
X75481928Y-110300000D01*
X75494188Y-110424482D01*
X75530498Y-110544180D01*
X75589463Y-110654494D01*
X75668815Y-110751185D01*
X75765506Y-110830537D01*
X75875820Y-110889502D01*
X75995518Y-110925812D01*
X76120000Y-110938072D01*
X78720000Y-110938072D01*
X78844482Y-110925812D01*
X78964180Y-110889502D01*
X79074494Y-110830537D01*
X79171185Y-110751185D01*
X79250537Y-110654494D01*
X79309502Y-110544180D01*
X79345812Y-110424482D01*
X79358072Y-110300000D01*
X79358072Y-108809419D01*
X80565000Y-108809419D01*
X80565000Y-109190581D01*
X80639361Y-109564419D01*
X80785225Y-109916566D01*
X80996987Y-110233491D01*
X81266509Y-110503013D01*
X81583434Y-110714775D01*
X81935581Y-110860639D01*
X82309419Y-110935000D01*
X82690581Y-110935000D01*
X83064419Y-110860639D01*
X83416566Y-110714775D01*
X83733491Y-110503013D01*
X84003013Y-110233491D01*
X84214775Y-109916566D01*
X84360639Y-109564419D01*
X84435000Y-109190581D01*
X84435000Y-108809419D01*
X84411654Y-108692050D01*
X118015000Y-108692050D01*
X118015000Y-109087949D01*
X118036487Y-109306110D01*
X118121401Y-109586033D01*
X118259294Y-109844013D01*
X118444866Y-110070134D01*
X118670986Y-110255706D01*
X118928966Y-110393599D01*
X119208889Y-110478513D01*
X119500000Y-110507185D01*
X119791110Y-110478513D01*
X120071033Y-110393599D01*
X120329013Y-110255706D01*
X120555134Y-110070134D01*
X120740706Y-109844014D01*
X120750000Y-109826626D01*
X120759294Y-109844013D01*
X120944866Y-110070134D01*
X121170986Y-110255706D01*
X121428966Y-110393599D01*
X121708889Y-110478513D01*
X122000000Y-110507185D01*
X122291110Y-110478513D01*
X122571033Y-110393599D01*
X122829013Y-110255706D01*
X123055134Y-110070134D01*
X123240706Y-109844014D01*
X123250000Y-109826626D01*
X123259294Y-109844013D01*
X123444866Y-110070134D01*
X123670986Y-110255706D01*
X123928966Y-110393599D01*
X124208889Y-110478513D01*
X124500000Y-110507185D01*
X124791110Y-110478513D01*
X125071033Y-110393599D01*
X125329013Y-110255706D01*
X125555134Y-110070134D01*
X125607223Y-110006663D01*
X125661595Y-110108386D01*
X125772038Y-110242962D01*
X125906614Y-110353405D01*
X126060150Y-110435472D01*
X126226746Y-110486008D01*
X126400000Y-110503072D01*
X127600000Y-110503072D01*
X127773254Y-110486008D01*
X127939850Y-110435472D01*
X128093386Y-110353405D01*
X128227962Y-110242962D01*
X128338405Y-110108386D01*
X128420472Y-109954850D01*
X128471008Y-109788254D01*
X128488072Y-109615000D01*
X128488072Y-108777050D01*
X132515000Y-108777050D01*
X132515000Y-109222949D01*
X132536487Y-109441110D01*
X132621401Y-109721033D01*
X132759294Y-109979013D01*
X132944866Y-110205134D01*
X133170986Y-110390706D01*
X133428966Y-110528599D01*
X133708889Y-110613513D01*
X134000000Y-110642185D01*
X134291110Y-110613513D01*
X134571033Y-110528599D01*
X134829013Y-110390706D01*
X135055134Y-110205134D01*
X135107223Y-110141663D01*
X135161595Y-110243386D01*
X135272038Y-110377962D01*
X135406614Y-110488405D01*
X135560150Y-110570472D01*
X135726746Y-110621008D01*
X135900000Y-110638072D01*
X137100000Y-110638072D01*
X137273254Y-110621008D01*
X137439850Y-110570472D01*
X137593386Y-110488405D01*
X137727962Y-110377962D01*
X137838405Y-110243386D01*
X137920472Y-110089850D01*
X137971008Y-109923254D01*
X137988072Y-109750000D01*
X137988072Y-108250000D01*
X137971008Y-108076746D01*
X137920472Y-107910150D01*
X137838405Y-107756614D01*
X137727962Y-107622038D01*
X137593386Y-107511595D01*
X137439850Y-107429528D01*
X137273254Y-107378992D01*
X137100000Y-107361928D01*
X135900000Y-107361928D01*
X135726746Y-107378992D01*
X135560150Y-107429528D01*
X135406614Y-107511595D01*
X135272038Y-107622038D01*
X135161595Y-107756614D01*
X135107223Y-107858337D01*
X135055134Y-107794866D01*
X134829014Y-107609294D01*
X134571034Y-107471401D01*
X134291111Y-107386487D01*
X134000000Y-107357815D01*
X133708890Y-107386487D01*
X133428967Y-107471401D01*
X133170987Y-107609294D01*
X132944866Y-107794866D01*
X132759294Y-108020986D01*
X132621401Y-108278966D01*
X132536487Y-108558889D01*
X132515000Y-108777050D01*
X128488072Y-108777050D01*
X128488072Y-108165000D01*
X128471008Y-107991746D01*
X128420472Y-107825150D01*
X128338405Y-107671614D01*
X128227962Y-107537038D01*
X128093386Y-107426595D01*
X127939850Y-107344528D01*
X127773254Y-107293992D01*
X127600000Y-107276928D01*
X126400000Y-107276928D01*
X126226746Y-107293992D01*
X126060150Y-107344528D01*
X125906614Y-107426595D01*
X125772038Y-107537038D01*
X125661595Y-107671614D01*
X125607223Y-107773337D01*
X125555134Y-107709866D01*
X125329014Y-107524294D01*
X125071034Y-107386401D01*
X124791111Y-107301487D01*
X124500000Y-107272815D01*
X124208890Y-107301487D01*
X123928967Y-107386401D01*
X123670987Y-107524294D01*
X123444866Y-107709866D01*
X123259294Y-107935986D01*
X123250000Y-107953374D01*
X123240706Y-107935986D01*
X123055134Y-107709866D01*
X122829014Y-107524294D01*
X122571034Y-107386401D01*
X122291111Y-107301487D01*
X122000000Y-107272815D01*
X121708890Y-107301487D01*
X121428967Y-107386401D01*
X121170987Y-107524294D01*
X120944866Y-107709866D01*
X120759294Y-107935986D01*
X120750000Y-107953374D01*
X120740706Y-107935986D01*
X120555134Y-107709866D01*
X120329014Y-107524294D01*
X120071034Y-107386401D01*
X119791111Y-107301487D01*
X119500000Y-107272815D01*
X119208890Y-107301487D01*
X118928967Y-107386401D01*
X118670987Y-107524294D01*
X118444866Y-107709866D01*
X118259294Y-107935986D01*
X118121401Y-108193966D01*
X118036487Y-108473889D01*
X118015000Y-108692050D01*
X84411654Y-108692050D01*
X84360639Y-108435581D01*
X84214775Y-108083434D01*
X84003013Y-107766509D01*
X83733491Y-107496987D01*
X83416566Y-107285225D01*
X83064419Y-107139361D01*
X82690581Y-107065000D01*
X82309419Y-107065000D01*
X81935581Y-107139361D01*
X81583434Y-107285225D01*
X81266509Y-107496987D01*
X80996987Y-107766509D01*
X80785225Y-108083434D01*
X80639361Y-108435581D01*
X80565000Y-108809419D01*
X79358072Y-108809419D01*
X79358072Y-107700000D01*
X79345812Y-107575518D01*
X79309502Y-107455820D01*
X79250537Y-107345506D01*
X79171185Y-107248815D01*
X79074494Y-107169463D01*
X78964180Y-107110498D01*
X78844482Y-107074188D01*
X78720000Y-107061928D01*
X76120000Y-107061928D01*
X75995518Y-107074188D01*
X75875820Y-107110498D01*
X75765506Y-107169463D01*
X75668815Y-107248815D01*
X75589463Y-107345506D01*
X75530498Y-107455820D01*
X75494188Y-107575518D01*
X75481928Y-107700000D01*
X71281578Y-107700000D01*
X71266405Y-107671614D01*
X71155962Y-107537038D01*
X71021386Y-107426595D01*
X70867850Y-107344528D01*
X70813000Y-107327890D01*
X70813000Y-104515469D01*
X70817281Y-104472000D01*
X70813000Y-104428531D01*
X70813000Y-104428523D01*
X70800195Y-104298510D01*
X70749589Y-104131687D01*
X70667411Y-103977941D01*
X70664804Y-103974764D01*
X70584532Y-103876953D01*
X70584530Y-103876951D01*
X70556817Y-103843183D01*
X70523051Y-103815472D01*
X68071168Y-101363589D01*
X89615000Y-101363589D01*
X89615000Y-101636411D01*
X89668225Y-101903989D01*
X89772629Y-102156043D01*
X89924201Y-102382886D01*
X90117114Y-102575799D01*
X90343957Y-102727371D01*
X90596011Y-102831775D01*
X90863589Y-102885000D01*
X91136411Y-102885000D01*
X91403989Y-102831775D01*
X91656043Y-102727371D01*
X91882886Y-102575799D01*
X92075799Y-102382886D01*
X92227371Y-102156043D01*
X92331775Y-101903989D01*
X92385000Y-101636411D01*
X92385000Y-101363589D01*
X92615000Y-101363589D01*
X92615000Y-101636411D01*
X92668225Y-101903989D01*
X92772629Y-102156043D01*
X92924201Y-102382886D01*
X93117114Y-102575799D01*
X93343957Y-102727371D01*
X93596011Y-102831775D01*
X93863589Y-102885000D01*
X94136411Y-102885000D01*
X94403989Y-102831775D01*
X94656043Y-102727371D01*
X94882886Y-102575799D01*
X95001692Y-102456993D01*
X96222612Y-102456993D01*
X96288137Y-102695860D01*
X96535116Y-102811760D01*
X96799960Y-102877250D01*
X97072492Y-102889812D01*
X97342238Y-102848965D01*
X97598832Y-102756277D01*
X97711863Y-102695860D01*
X97777388Y-102456993D01*
X97000000Y-101679605D01*
X96222612Y-102456993D01*
X95001692Y-102456993D01*
X95075799Y-102382886D01*
X95227371Y-102156043D01*
X95331775Y-101903989D01*
X95385000Y-101636411D01*
X95385000Y-101572492D01*
X95610188Y-101572492D01*
X95651035Y-101842238D01*
X95743723Y-102098832D01*
X95804140Y-102211863D01*
X96043007Y-102277388D01*
X96820395Y-101500000D01*
X97179605Y-101500000D01*
X97956993Y-102277388D01*
X98195860Y-102211863D01*
X98311760Y-101964884D01*
X98377250Y-101700040D01*
X98389812Y-101427508D01*
X98380133Y-101363589D01*
X98615000Y-101363589D01*
X98615000Y-101636411D01*
X98668225Y-101903989D01*
X98772629Y-102156043D01*
X98924201Y-102382886D01*
X99117114Y-102575799D01*
X99343957Y-102727371D01*
X99596011Y-102831775D01*
X99863589Y-102885000D01*
X100136411Y-102885000D01*
X100403989Y-102831775D01*
X100656043Y-102727371D01*
X100882886Y-102575799D01*
X101075799Y-102382886D01*
X101227371Y-102156043D01*
X101331775Y-101903989D01*
X101385000Y-101636411D01*
X101385000Y-101363589D01*
X101615000Y-101363589D01*
X101615000Y-101636411D01*
X101668225Y-101903989D01*
X101772629Y-102156043D01*
X101924201Y-102382886D01*
X102117114Y-102575799D01*
X102343957Y-102727371D01*
X102596011Y-102831775D01*
X102863589Y-102885000D01*
X103136411Y-102885000D01*
X103403989Y-102831775D01*
X103656043Y-102727371D01*
X103882886Y-102575799D01*
X104075799Y-102382886D01*
X104227371Y-102156043D01*
X104331775Y-101903989D01*
X104385000Y-101636411D01*
X104385000Y-101363589D01*
X104615000Y-101363589D01*
X104615000Y-101636411D01*
X104668225Y-101903989D01*
X104772629Y-102156043D01*
X104924201Y-102382886D01*
X105117114Y-102575799D01*
X105343957Y-102727371D01*
X105596011Y-102831775D01*
X105863589Y-102885000D01*
X106136411Y-102885000D01*
X106403989Y-102831775D01*
X106656043Y-102727371D01*
X106882886Y-102575799D01*
X107075799Y-102382886D01*
X107227371Y-102156043D01*
X107331775Y-101903989D01*
X107385000Y-101636411D01*
X107385000Y-101363589D01*
X107331775Y-101096011D01*
X107292007Y-101000000D01*
X107611928Y-101000000D01*
X107611928Y-102000000D01*
X107628992Y-102173254D01*
X107679528Y-102339850D01*
X107761595Y-102493386D01*
X107872038Y-102627962D01*
X108006614Y-102738405D01*
X108160150Y-102820472D01*
X108326746Y-102871008D01*
X108500000Y-102888072D01*
X109500000Y-102888072D01*
X109673254Y-102871008D01*
X109839850Y-102820472D01*
X109993386Y-102738405D01*
X110127962Y-102627962D01*
X110238405Y-102493386D01*
X110320472Y-102339850D01*
X110371008Y-102173254D01*
X110388072Y-102000000D01*
X110388072Y-101000000D01*
X110371008Y-100826746D01*
X110320472Y-100660150D01*
X110238405Y-100506614D01*
X110127962Y-100372038D01*
X109993386Y-100261595D01*
X109839850Y-100179528D01*
X109673254Y-100128992D01*
X109500000Y-100111928D01*
X108500000Y-100111928D01*
X108326746Y-100128992D01*
X108160150Y-100179528D01*
X108006614Y-100261595D01*
X107872038Y-100372038D01*
X107761595Y-100506614D01*
X107679528Y-100660150D01*
X107628992Y-100826746D01*
X107611928Y-101000000D01*
X107292007Y-101000000D01*
X107227371Y-100843957D01*
X107075799Y-100617114D01*
X106882886Y-100424201D01*
X106656043Y-100272629D01*
X106403989Y-100168225D01*
X106136411Y-100115000D01*
X105863589Y-100115000D01*
X105596011Y-100168225D01*
X105343957Y-100272629D01*
X105117114Y-100424201D01*
X104924201Y-100617114D01*
X104772629Y-100843957D01*
X104668225Y-101096011D01*
X104615000Y-101363589D01*
X104385000Y-101363589D01*
X104331775Y-101096011D01*
X104227371Y-100843957D01*
X104075799Y-100617114D01*
X103882886Y-100424201D01*
X103656043Y-100272629D01*
X103403989Y-100168225D01*
X103136411Y-100115000D01*
X102863589Y-100115000D01*
X102596011Y-100168225D01*
X102343957Y-100272629D01*
X102117114Y-100424201D01*
X101924201Y-100617114D01*
X101772629Y-100843957D01*
X101668225Y-101096011D01*
X101615000Y-101363589D01*
X101385000Y-101363589D01*
X101331775Y-101096011D01*
X101227371Y-100843957D01*
X101075799Y-100617114D01*
X100882886Y-100424201D01*
X100656043Y-100272629D01*
X100403989Y-100168225D01*
X100136411Y-100115000D01*
X99863589Y-100115000D01*
X99596011Y-100168225D01*
X99343957Y-100272629D01*
X99117114Y-100424201D01*
X98924201Y-100617114D01*
X98772629Y-100843957D01*
X98668225Y-101096011D01*
X98615000Y-101363589D01*
X98380133Y-101363589D01*
X98348965Y-101157762D01*
X98256277Y-100901168D01*
X98195860Y-100788137D01*
X97956993Y-100722612D01*
X97179605Y-101500000D01*
X96820395Y-101500000D01*
X96043007Y-100722612D01*
X95804140Y-100788137D01*
X95688240Y-101035116D01*
X95622750Y-101299960D01*
X95610188Y-101572492D01*
X95385000Y-101572492D01*
X95385000Y-101363589D01*
X95331775Y-101096011D01*
X95227371Y-100843957D01*
X95075799Y-100617114D01*
X95001692Y-100543007D01*
X96222612Y-100543007D01*
X97000000Y-101320395D01*
X97777388Y-100543007D01*
X97711863Y-100304140D01*
X97464884Y-100188240D01*
X97200040Y-100122750D01*
X96927508Y-100110188D01*
X96657762Y-100151035D01*
X96401168Y-100243723D01*
X96288137Y-100304140D01*
X96222612Y-100543007D01*
X95001692Y-100543007D01*
X94882886Y-100424201D01*
X94656043Y-100272629D01*
X94403989Y-100168225D01*
X94136411Y-100115000D01*
X93863589Y-100115000D01*
X93596011Y-100168225D01*
X93343957Y-100272629D01*
X93117114Y-100424201D01*
X92924201Y-100617114D01*
X92772629Y-100843957D01*
X92668225Y-101096011D01*
X92615000Y-101363589D01*
X92385000Y-101363589D01*
X92331775Y-101096011D01*
X92227371Y-100843957D01*
X92075799Y-100617114D01*
X91882886Y-100424201D01*
X91656043Y-100272629D01*
X91403989Y-100168225D01*
X91136411Y-100115000D01*
X90863589Y-100115000D01*
X90596011Y-100168225D01*
X90343957Y-100272629D01*
X90117114Y-100424201D01*
X89924201Y-100617114D01*
X89772629Y-100843957D01*
X89668225Y-101096011D01*
X89615000Y-101363589D01*
X68071168Y-101363589D01*
X64155791Y-97448212D01*
X86865000Y-97448212D01*
X86865000Y-97671788D01*
X86908617Y-97891067D01*
X86994176Y-98097624D01*
X87118388Y-98283520D01*
X87276480Y-98441612D01*
X87462376Y-98565824D01*
X87668933Y-98651383D01*
X87888212Y-98695000D01*
X88111788Y-98695000D01*
X88331067Y-98651383D01*
X88537624Y-98565824D01*
X88723520Y-98441612D01*
X88801543Y-98363589D01*
X89615000Y-98363589D01*
X89615000Y-98636411D01*
X89668225Y-98903989D01*
X89772629Y-99156043D01*
X89924201Y-99382886D01*
X90117114Y-99575799D01*
X90343957Y-99727371D01*
X90596011Y-99831775D01*
X90863589Y-99885000D01*
X91136411Y-99885000D01*
X91403989Y-99831775D01*
X91656043Y-99727371D01*
X91882886Y-99575799D01*
X92075799Y-99382886D01*
X92227371Y-99156043D01*
X92331775Y-98903989D01*
X92385000Y-98636411D01*
X92385000Y-98363589D01*
X92615000Y-98363589D01*
X92615000Y-98636411D01*
X92668225Y-98903989D01*
X92772629Y-99156043D01*
X92924201Y-99382886D01*
X93117114Y-99575799D01*
X93343957Y-99727371D01*
X93596011Y-99831775D01*
X93863589Y-99885000D01*
X94136411Y-99885000D01*
X94403989Y-99831775D01*
X94656043Y-99727371D01*
X94882886Y-99575799D01*
X95075799Y-99382886D01*
X95227371Y-99156043D01*
X95331775Y-98903989D01*
X95385000Y-98636411D01*
X95385000Y-98363589D01*
X95615000Y-98363589D01*
X95615000Y-98636411D01*
X95668225Y-98903989D01*
X95772629Y-99156043D01*
X95924201Y-99382886D01*
X96117114Y-99575799D01*
X96343957Y-99727371D01*
X96596011Y-99831775D01*
X96863589Y-99885000D01*
X97136411Y-99885000D01*
X97403989Y-99831775D01*
X97656043Y-99727371D01*
X97882886Y-99575799D01*
X98075799Y-99382886D01*
X98227371Y-99156043D01*
X98331775Y-98903989D01*
X98385000Y-98636411D01*
X98385000Y-98363589D01*
X98615000Y-98363589D01*
X98615000Y-98636411D01*
X98668225Y-98903989D01*
X98772629Y-99156043D01*
X98924201Y-99382886D01*
X99117114Y-99575799D01*
X99343957Y-99727371D01*
X99596011Y-99831775D01*
X99863589Y-99885000D01*
X100136411Y-99885000D01*
X100403989Y-99831775D01*
X100656043Y-99727371D01*
X100882886Y-99575799D01*
X101075799Y-99382886D01*
X101227371Y-99156043D01*
X101331775Y-98903989D01*
X101385000Y-98636411D01*
X101385000Y-98363589D01*
X101615000Y-98363589D01*
X101615000Y-98636411D01*
X101668225Y-98903989D01*
X101772629Y-99156043D01*
X101924201Y-99382886D01*
X102117114Y-99575799D01*
X102343957Y-99727371D01*
X102596011Y-99831775D01*
X102863589Y-99885000D01*
X103136411Y-99885000D01*
X103403989Y-99831775D01*
X103656043Y-99727371D01*
X103882886Y-99575799D01*
X104075799Y-99382886D01*
X104227371Y-99156043D01*
X104331775Y-98903989D01*
X104385000Y-98636411D01*
X104385000Y-98363589D01*
X104615000Y-98363589D01*
X104615000Y-98636411D01*
X104668225Y-98903989D01*
X104772629Y-99156043D01*
X104924201Y-99382886D01*
X105117114Y-99575799D01*
X105343957Y-99727371D01*
X105596011Y-99831775D01*
X105863589Y-99885000D01*
X106136411Y-99885000D01*
X106403989Y-99831775D01*
X106656043Y-99727371D01*
X106882886Y-99575799D01*
X107075799Y-99382886D01*
X107227371Y-99156043D01*
X107331775Y-98903989D01*
X107385000Y-98636411D01*
X107385000Y-98363589D01*
X107615000Y-98363589D01*
X107615000Y-98636411D01*
X107668225Y-98903989D01*
X107772629Y-99156043D01*
X107924201Y-99382886D01*
X108117114Y-99575799D01*
X108343957Y-99727371D01*
X108596011Y-99831775D01*
X108863589Y-99885000D01*
X109136411Y-99885000D01*
X109403989Y-99831775D01*
X109656043Y-99727371D01*
X109882886Y-99575799D01*
X110075799Y-99382886D01*
X110227371Y-99156043D01*
X110331775Y-98903989D01*
X110385000Y-98636411D01*
X110385000Y-98363589D01*
X110331775Y-98096011D01*
X110227371Y-97843957D01*
X110075799Y-97617114D01*
X109906897Y-97448212D01*
X110865000Y-97448212D01*
X110865000Y-97671788D01*
X110908617Y-97891067D01*
X110994176Y-98097624D01*
X111118388Y-98283520D01*
X111276480Y-98441612D01*
X111462376Y-98565824D01*
X111668933Y-98651383D01*
X111888212Y-98695000D01*
X112111788Y-98695000D01*
X112331067Y-98651383D01*
X112537624Y-98565824D01*
X112723520Y-98441612D01*
X112881612Y-98283520D01*
X113005824Y-98097624D01*
X113091383Y-97891067D01*
X113135000Y-97671788D01*
X113135000Y-97448212D01*
X113091383Y-97228933D01*
X113048333Y-97125000D01*
X129899428Y-97125000D01*
X129911688Y-97249482D01*
X129947998Y-97369180D01*
X130006963Y-97479494D01*
X130086315Y-97576185D01*
X130183006Y-97655537D01*
X130293320Y-97714502D01*
X130413018Y-97750812D01*
X130537500Y-97763072D01*
X130839250Y-97760000D01*
X130998000Y-97601250D01*
X130998000Y-96527000D01*
X130061250Y-96527000D01*
X129902500Y-96685750D01*
X129899428Y-97125000D01*
X113048333Y-97125000D01*
X113005824Y-97022376D01*
X112881612Y-96836480D01*
X112723520Y-96678388D01*
X112537624Y-96554176D01*
X112331067Y-96468617D01*
X112111788Y-96425000D01*
X111888212Y-96425000D01*
X111668933Y-96468617D01*
X111462376Y-96554176D01*
X111276480Y-96678388D01*
X111118388Y-96836480D01*
X110994176Y-97022376D01*
X110908617Y-97228933D01*
X110865000Y-97448212D01*
X109906897Y-97448212D01*
X109882886Y-97424201D01*
X109656043Y-97272629D01*
X109403989Y-97168225D01*
X109136411Y-97115000D01*
X108863589Y-97115000D01*
X108596011Y-97168225D01*
X108343957Y-97272629D01*
X108117114Y-97424201D01*
X107924201Y-97617114D01*
X107772629Y-97843957D01*
X107668225Y-98096011D01*
X107615000Y-98363589D01*
X107385000Y-98363589D01*
X107331775Y-98096011D01*
X107227371Y-97843957D01*
X107075799Y-97617114D01*
X106882886Y-97424201D01*
X106656043Y-97272629D01*
X106403989Y-97168225D01*
X106136411Y-97115000D01*
X105863589Y-97115000D01*
X105596011Y-97168225D01*
X105343957Y-97272629D01*
X105117114Y-97424201D01*
X104924201Y-97617114D01*
X104772629Y-97843957D01*
X104668225Y-98096011D01*
X104615000Y-98363589D01*
X104385000Y-98363589D01*
X104331775Y-98096011D01*
X104227371Y-97843957D01*
X104075799Y-97617114D01*
X103882886Y-97424201D01*
X103656043Y-97272629D01*
X103403989Y-97168225D01*
X103136411Y-97115000D01*
X102863589Y-97115000D01*
X102596011Y-97168225D01*
X102343957Y-97272629D01*
X102117114Y-97424201D01*
X101924201Y-97617114D01*
X101772629Y-97843957D01*
X101668225Y-98096011D01*
X101615000Y-98363589D01*
X101385000Y-98363589D01*
X101331775Y-98096011D01*
X101227371Y-97843957D01*
X101075799Y-97617114D01*
X100882886Y-97424201D01*
X100656043Y-97272629D01*
X100403989Y-97168225D01*
X100136411Y-97115000D01*
X99863589Y-97115000D01*
X99596011Y-97168225D01*
X99343957Y-97272629D01*
X99117114Y-97424201D01*
X98924201Y-97617114D01*
X98772629Y-97843957D01*
X98668225Y-98096011D01*
X98615000Y-98363589D01*
X98385000Y-98363589D01*
X98331775Y-98096011D01*
X98227371Y-97843957D01*
X98075799Y-97617114D01*
X97882886Y-97424201D01*
X97656043Y-97272629D01*
X97403989Y-97168225D01*
X97136411Y-97115000D01*
X96863589Y-97115000D01*
X96596011Y-97168225D01*
X96343957Y-97272629D01*
X96117114Y-97424201D01*
X95924201Y-97617114D01*
X95772629Y-97843957D01*
X95668225Y-98096011D01*
X95615000Y-98363589D01*
X95385000Y-98363589D01*
X95331775Y-98096011D01*
X95227371Y-97843957D01*
X95075799Y-97617114D01*
X94882886Y-97424201D01*
X94656043Y-97272629D01*
X94403989Y-97168225D01*
X94136411Y-97115000D01*
X93863589Y-97115000D01*
X93596011Y-97168225D01*
X93343957Y-97272629D01*
X93117114Y-97424201D01*
X92924201Y-97617114D01*
X92772629Y-97843957D01*
X92668225Y-98096011D01*
X92615000Y-98363589D01*
X92385000Y-98363589D01*
X92331775Y-98096011D01*
X92227371Y-97843957D01*
X92075799Y-97617114D01*
X91882886Y-97424201D01*
X91656043Y-97272629D01*
X91403989Y-97168225D01*
X91136411Y-97115000D01*
X90863589Y-97115000D01*
X90596011Y-97168225D01*
X90343957Y-97272629D01*
X90117114Y-97424201D01*
X89924201Y-97617114D01*
X89772629Y-97843957D01*
X89668225Y-98096011D01*
X89615000Y-98363589D01*
X88801543Y-98363589D01*
X88881612Y-98283520D01*
X89005824Y-98097624D01*
X89091383Y-97891067D01*
X89135000Y-97671788D01*
X89135000Y-97448212D01*
X89091383Y-97228933D01*
X89005824Y-97022376D01*
X88881612Y-96836480D01*
X88723520Y-96678388D01*
X88537624Y-96554176D01*
X88331067Y-96468617D01*
X88111788Y-96425000D01*
X87888212Y-96425000D01*
X87668933Y-96468617D01*
X87462376Y-96554176D01*
X87276480Y-96678388D01*
X87118388Y-96836480D01*
X86994176Y-97022376D01*
X86908617Y-97228933D01*
X86865000Y-97448212D01*
X64155791Y-97448212D01*
X62382579Y-95675000D01*
X129899428Y-95675000D01*
X129902500Y-96114250D01*
X130061250Y-96273000D01*
X130998000Y-96273000D01*
X130998000Y-95198750D01*
X130839250Y-95040000D01*
X130537500Y-95036928D01*
X130413018Y-95049188D01*
X130293320Y-95085498D01*
X130183006Y-95144463D01*
X130086315Y-95223815D01*
X130006963Y-95320506D01*
X129947998Y-95430820D01*
X129911688Y-95550518D01*
X129899428Y-95675000D01*
X62382579Y-95675000D01*
X62362534Y-95654956D01*
X62334817Y-95621183D01*
X62200059Y-95510589D01*
X62046313Y-95428411D01*
X61879490Y-95377805D01*
X61749477Y-95365000D01*
X61749469Y-95365000D01*
X61706000Y-95360719D01*
X61662531Y-95365000D01*
X56562110Y-95365000D01*
X56545472Y-95310150D01*
X56463405Y-95156614D01*
X56352962Y-95022038D01*
X56218386Y-94911595D01*
X56064850Y-94829528D01*
X55898254Y-94778992D01*
X55725000Y-94761928D01*
X54275000Y-94761928D01*
X54101746Y-94778992D01*
X53935150Y-94829528D01*
X53781614Y-94911595D01*
X53647038Y-95022038D01*
X53536595Y-95156614D01*
X53454528Y-95310150D01*
X53403992Y-95476746D01*
X53386928Y-95650000D01*
X53386928Y-96850000D01*
X53403992Y-97023254D01*
X53454528Y-97189850D01*
X53536595Y-97343386D01*
X53647038Y-97477962D01*
X53781614Y-97588405D01*
X53883337Y-97642777D01*
X53819866Y-97694866D01*
X53634294Y-97920986D01*
X53496401Y-98178966D01*
X53411487Y-98458889D01*
X53382815Y-98750000D01*
X39762035Y-98750000D01*
X39690468Y-98518806D01*
X39660000Y-98228921D01*
X39660000Y-90887050D01*
X61015000Y-90887050D01*
X61015000Y-91332949D01*
X61036487Y-91551110D01*
X61121401Y-91831033D01*
X61259294Y-92089013D01*
X61444866Y-92315134D01*
X61670986Y-92500706D01*
X61928966Y-92638599D01*
X62208889Y-92723513D01*
X62500000Y-92752185D01*
X62791110Y-92723513D01*
X63071033Y-92638599D01*
X63329013Y-92500706D01*
X63555134Y-92315134D01*
X63607223Y-92251663D01*
X63661595Y-92353386D01*
X63772038Y-92487962D01*
X63906614Y-92598405D01*
X64060150Y-92680472D01*
X64226746Y-92731008D01*
X64400000Y-92748072D01*
X65600000Y-92748072D01*
X65773254Y-92731008D01*
X65939850Y-92680472D01*
X66093386Y-92598405D01*
X66227962Y-92487962D01*
X66338405Y-92353386D01*
X66420472Y-92199850D01*
X66471008Y-92033254D01*
X66488072Y-91860000D01*
X66488072Y-90887050D01*
X70515000Y-90887050D01*
X70515000Y-91332949D01*
X70536487Y-91551110D01*
X70621401Y-91831033D01*
X70759294Y-92089013D01*
X70944866Y-92315134D01*
X71170986Y-92500706D01*
X71428966Y-92638599D01*
X71708889Y-92723513D01*
X72000000Y-92752185D01*
X72291110Y-92723513D01*
X72571033Y-92638599D01*
X72829013Y-92500706D01*
X73055134Y-92315134D01*
X73107223Y-92251663D01*
X73161595Y-92353386D01*
X73272038Y-92487962D01*
X73406614Y-92598405D01*
X73560150Y-92680472D01*
X73726746Y-92731008D01*
X73900000Y-92748072D01*
X75100000Y-92748072D01*
X75273254Y-92731008D01*
X75439850Y-92680472D01*
X75593386Y-92598405D01*
X75727962Y-92487962D01*
X75838405Y-92353386D01*
X75920472Y-92199850D01*
X75971008Y-92033254D01*
X75988072Y-91860000D01*
X75988072Y-90887050D01*
X80015000Y-90887050D01*
X80015000Y-91332949D01*
X80036487Y-91551110D01*
X80121401Y-91831033D01*
X80259294Y-92089013D01*
X80444866Y-92315134D01*
X80670986Y-92500706D01*
X80928966Y-92638599D01*
X81208889Y-92723513D01*
X81500000Y-92752185D01*
X81791110Y-92723513D01*
X82071033Y-92638599D01*
X82329013Y-92500706D01*
X82555134Y-92315134D01*
X82607223Y-92251663D01*
X82661595Y-92353386D01*
X82772038Y-92487962D01*
X82906614Y-92598405D01*
X83060150Y-92680472D01*
X83226746Y-92731008D01*
X83400000Y-92748072D01*
X84600000Y-92748072D01*
X84773254Y-92731008D01*
X84939850Y-92680472D01*
X85093386Y-92598405D01*
X85227962Y-92487962D01*
X85338405Y-92353386D01*
X85420472Y-92199850D01*
X85471008Y-92033254D01*
X85488072Y-91860000D01*
X85488072Y-90360000D01*
X85471008Y-90186746D01*
X85420472Y-90020150D01*
X85338405Y-89866614D01*
X85227962Y-89732038D01*
X85093386Y-89621595D01*
X84939850Y-89539528D01*
X84773254Y-89488992D01*
X84600000Y-89471928D01*
X83400000Y-89471928D01*
X83226746Y-89488992D01*
X83060150Y-89539528D01*
X82906614Y-89621595D01*
X82772038Y-89732038D01*
X82661595Y-89866614D01*
X82607223Y-89968337D01*
X82555134Y-89904866D01*
X82329014Y-89719294D01*
X82071034Y-89581401D01*
X81791111Y-89496487D01*
X81500000Y-89467815D01*
X81208890Y-89496487D01*
X80928967Y-89581401D01*
X80670987Y-89719294D01*
X80444866Y-89904866D01*
X80259294Y-90130986D01*
X80121401Y-90388966D01*
X80036487Y-90668889D01*
X80015000Y-90887050D01*
X75988072Y-90887050D01*
X75988072Y-90360000D01*
X75971008Y-90186746D01*
X75920472Y-90020150D01*
X75838405Y-89866614D01*
X75727962Y-89732038D01*
X75593386Y-89621595D01*
X75439850Y-89539528D01*
X75273254Y-89488992D01*
X75100000Y-89471928D01*
X73900000Y-89471928D01*
X73726746Y-89488992D01*
X73560150Y-89539528D01*
X73406614Y-89621595D01*
X73272038Y-89732038D01*
X73161595Y-89866614D01*
X73107223Y-89968337D01*
X73055134Y-89904866D01*
X72829014Y-89719294D01*
X72571034Y-89581401D01*
X72291111Y-89496487D01*
X72000000Y-89467815D01*
X71708890Y-89496487D01*
X71428967Y-89581401D01*
X71170987Y-89719294D01*
X70944866Y-89904866D01*
X70759294Y-90130986D01*
X70621401Y-90388966D01*
X70536487Y-90668889D01*
X70515000Y-90887050D01*
X66488072Y-90887050D01*
X66488072Y-90360000D01*
X66471008Y-90186746D01*
X66420472Y-90020150D01*
X66338405Y-89866614D01*
X66227962Y-89732038D01*
X66093386Y-89621595D01*
X65939850Y-89539528D01*
X65773254Y-89488992D01*
X65600000Y-89471928D01*
X64400000Y-89471928D01*
X64226746Y-89488992D01*
X64060150Y-89539528D01*
X63906614Y-89621595D01*
X63772038Y-89732038D01*
X63661595Y-89866614D01*
X63607223Y-89968337D01*
X63555134Y-89904866D01*
X63329014Y-89719294D01*
X63071034Y-89581401D01*
X62791111Y-89496487D01*
X62500000Y-89467815D01*
X62208890Y-89496487D01*
X61928967Y-89581401D01*
X61670987Y-89719294D01*
X61444866Y-89904866D01*
X61259294Y-90130986D01*
X61121401Y-90388966D01*
X61036487Y-90668889D01*
X61015000Y-90887050D01*
X39660000Y-90887050D01*
X39660000Y-85967582D01*
X93840000Y-85967582D01*
X93840001Y-88032419D01*
X93843247Y-88065377D01*
X93843247Y-88078367D01*
X93844210Y-88087532D01*
X93865965Y-88281481D01*
X93878397Y-88339966D01*
X93890022Y-88398676D01*
X93892747Y-88407479D01*
X93951760Y-88593509D01*
X93975338Y-88648519D01*
X93998120Y-88703794D01*
X94002503Y-88711900D01*
X94096525Y-88882925D01*
X94130308Y-88932264D01*
X94163423Y-88982106D01*
X94169297Y-88989206D01*
X94294747Y-89138712D01*
X94337477Y-89180557D01*
X94379638Y-89223013D01*
X94386780Y-89228837D01*
X94538879Y-89351128D01*
X94588941Y-89383887D01*
X94638523Y-89417331D01*
X94646660Y-89421657D01*
X94646663Y-89421659D01*
X94646667Y-89421660D01*
X94819615Y-89512077D01*
X94875053Y-89534475D01*
X94930228Y-89557669D01*
X94939050Y-89560332D01*
X95126275Y-89615435D01*
X95184983Y-89626633D01*
X95243628Y-89638672D01*
X95252799Y-89639570D01*
X95447161Y-89657259D01*
X95506943Y-89656842D01*
X95566801Y-89657260D01*
X95575972Y-89656360D01*
X95770069Y-89635959D01*
X95828658Y-89623932D01*
X95887423Y-89612723D01*
X95896245Y-89610059D01*
X96082683Y-89552347D01*
X96137838Y-89529162D01*
X96193291Y-89506758D01*
X96201427Y-89502432D01*
X96373104Y-89409607D01*
X96422699Y-89376154D01*
X96472753Y-89343400D01*
X96479894Y-89337576D01*
X96630272Y-89213172D01*
X96672411Y-89170737D01*
X96715161Y-89128874D01*
X96721034Y-89121773D01*
X96844384Y-88970531D01*
X96877477Y-88920723D01*
X96911284Y-88871349D01*
X96915667Y-88863243D01*
X97007292Y-88690920D01*
X97030090Y-88635608D01*
X97053652Y-88580634D01*
X97056377Y-88571831D01*
X97112786Y-88384994D01*
X97124405Y-88326314D01*
X97136842Y-88267804D01*
X97137805Y-88258639D01*
X97156850Y-88064406D01*
X97156850Y-88064402D01*
X97160000Y-88032419D01*
X97160000Y-85967581D01*
X97156753Y-85934613D01*
X97156753Y-85921633D01*
X97155790Y-85912468D01*
X97134035Y-85718518D01*
X97121600Y-85660019D01*
X97109978Y-85601325D01*
X97107253Y-85592522D01*
X97048240Y-85406491D01*
X97024674Y-85351509D01*
X97001880Y-85296206D01*
X96997497Y-85288100D01*
X96903475Y-85117075D01*
X96869702Y-85067752D01*
X96836577Y-85017894D01*
X96830703Y-85010794D01*
X96705253Y-84861288D01*
X96662523Y-84819443D01*
X96620362Y-84776987D01*
X96613220Y-84771163D01*
X96461120Y-84648872D01*
X96411061Y-84616114D01*
X96361477Y-84582669D01*
X96353340Y-84578343D01*
X96353337Y-84578341D01*
X96353333Y-84578340D01*
X96180384Y-84487923D01*
X96124972Y-84465535D01*
X96069772Y-84442331D01*
X96060950Y-84439668D01*
X95873724Y-84384565D01*
X95814986Y-84373360D01*
X95756372Y-84361328D01*
X95747200Y-84360429D01*
X95552839Y-84342741D01*
X95493057Y-84343158D01*
X95433199Y-84342740D01*
X95424028Y-84343640D01*
X95229931Y-84364041D01*
X95171348Y-84376066D01*
X95112577Y-84387277D01*
X95103755Y-84389941D01*
X94917317Y-84447653D01*
X94862162Y-84470838D01*
X94806709Y-84493242D01*
X94798573Y-84497568D01*
X94626896Y-84590393D01*
X94577278Y-84623861D01*
X94527247Y-84656600D01*
X94520106Y-84662424D01*
X94369728Y-84786828D01*
X94327589Y-84829263D01*
X94284839Y-84871126D01*
X94278966Y-84878227D01*
X94155616Y-85029469D01*
X94122534Y-85079262D01*
X94088716Y-85128651D01*
X94084333Y-85136757D01*
X93992708Y-85309079D01*
X93969909Y-85364394D01*
X93946348Y-85419366D01*
X93943623Y-85428169D01*
X93887214Y-85615005D01*
X93875594Y-85673693D01*
X93863158Y-85732196D01*
X93862195Y-85741361D01*
X93843150Y-85935595D01*
X93840000Y-85967582D01*
X39660000Y-85967582D01*
X39660000Y-83532279D01*
X39688625Y-83240341D01*
X39764035Y-82990571D01*
X39886522Y-82760208D01*
X40051422Y-82558020D01*
X40252450Y-82391714D01*
X40481954Y-82267622D01*
X40731195Y-82190469D01*
X41021088Y-82160000D01*
X97340000Y-82160000D01*
X97340001Y-90032419D01*
%TA.AperFunction,Conductor*%
D18*
G36*
X97340001Y-90032419D02*
G01*
X97343345Y-90066372D01*
X97343345Y-90092329D01*
X97344308Y-90101494D01*
X97387818Y-90489393D01*
X97400249Y-90547873D01*
X97411873Y-90606583D01*
X97414599Y-90615386D01*
X97532623Y-90987447D01*
X97556189Y-91042430D01*
X97578984Y-91097736D01*
X97583367Y-91105842D01*
X97771411Y-91447892D01*
X97805188Y-91497221D01*
X97838309Y-91547074D01*
X97844184Y-91554174D01*
X98095084Y-91853185D01*
X98137814Y-91895029D01*
X98179973Y-91937484D01*
X98187114Y-91943308D01*
X98491316Y-92187892D01*
X98541361Y-92220640D01*
X98590962Y-92254097D01*
X98599099Y-92258423D01*
X98945011Y-92439262D01*
X99000460Y-92461665D01*
X99055619Y-92484852D01*
X99064441Y-92487515D01*
X99438891Y-92597722D01*
X99497621Y-92608925D01*
X99556250Y-92620960D01*
X99565421Y-92621859D01*
X99954147Y-92657235D01*
X100013964Y-92656817D01*
X100073781Y-92657235D01*
X100082952Y-92656335D01*
X100082954Y-92656335D01*
X100471145Y-92615534D01*
X100529708Y-92603513D01*
X100588501Y-92592298D01*
X100597323Y-92589634D01*
X100970198Y-92474210D01*
X101025353Y-92451025D01*
X101080806Y-92428621D01*
X101088943Y-92424294D01*
X101432298Y-92238643D01*
X101481849Y-92205220D01*
X101531946Y-92172438D01*
X101539087Y-92166613D01*
X101839841Y-91917806D01*
X101881981Y-91875371D01*
X101924730Y-91833508D01*
X101930604Y-91826408D01*
X102177305Y-91523923D01*
X102210409Y-91474096D01*
X102244204Y-91424741D01*
X102248587Y-91416635D01*
X102431837Y-91071993D01*
X102454631Y-91016689D01*
X102478198Y-90961705D01*
X102480923Y-90952902D01*
X102593741Y-90579230D01*
X102605361Y-90520542D01*
X102617797Y-90462039D01*
X102618760Y-90452874D01*
X102656850Y-90064405D01*
X102656850Y-90064402D01*
X102660000Y-90032419D01*
X102660000Y-89777050D01*
X118515000Y-89777050D01*
X118515000Y-90222949D01*
X118536487Y-90441110D01*
X118621401Y-90721033D01*
X118759294Y-90979013D01*
X118944866Y-91205134D01*
X119170986Y-91390706D01*
X119428966Y-91528599D01*
X119708889Y-91613513D01*
X120000000Y-91642185D01*
X120291110Y-91613513D01*
X120571033Y-91528599D01*
X120829013Y-91390706D01*
X121049945Y-91209392D01*
X121060498Y-91244180D01*
X121119463Y-91354494D01*
X121198815Y-91451185D01*
X121295506Y-91530537D01*
X121405820Y-91589502D01*
X121525518Y-91625812D01*
X121650000Y-91638072D01*
X122214250Y-91635000D01*
X122373000Y-91476250D01*
X122373000Y-90127000D01*
X122627000Y-90127000D01*
X122627000Y-91476250D01*
X122785750Y-91635000D01*
X123350000Y-91638072D01*
X123474482Y-91625812D01*
X123594180Y-91589502D01*
X123704494Y-91530537D01*
X123801185Y-91451185D01*
X123880537Y-91354494D01*
X123939502Y-91244180D01*
X123975812Y-91124482D01*
X123988072Y-91000000D01*
X123985317Y-90359267D01*
X129533680Y-90359267D01*
X129607558Y-90640830D01*
X129734947Y-90902570D01*
X129910951Y-91134429D01*
X130128807Y-91327496D01*
X130380142Y-91474352D01*
X130643110Y-91566476D01*
X130873000Y-91445155D01*
X130873000Y-90127000D01*
X129673835Y-90127000D01*
X129533680Y-90359267D01*
X123985317Y-90359267D01*
X123985000Y-90285750D01*
X123826250Y-90127000D01*
X122627000Y-90127000D01*
X122373000Y-90127000D01*
X122353000Y-90127000D01*
X122353000Y-89873000D01*
X122373000Y-89873000D01*
X122373000Y-88523750D01*
X122627000Y-88523750D01*
X122627000Y-89873000D01*
X123826250Y-89873000D01*
X123985000Y-89714250D01*
X123985316Y-89640733D01*
X129533680Y-89640733D01*
X129673835Y-89873000D01*
X130873000Y-89873000D01*
X130873000Y-88554845D01*
X131127000Y-88554845D01*
X131127000Y-89873000D01*
X131147000Y-89873000D01*
X131147000Y-90127000D01*
X131127000Y-90127000D01*
X131127000Y-91445155D01*
X131356890Y-91566476D01*
X131619858Y-91474352D01*
X131871193Y-91327496D01*
X132089049Y-91134429D01*
X132245538Y-90928278D01*
X132259294Y-90954013D01*
X132315001Y-91021892D01*
X132315000Y-95231005D01*
X132234538Y-95297038D01*
X132229158Y-95303594D01*
X132163685Y-95223815D01*
X132066994Y-95144463D01*
X131956680Y-95085498D01*
X131836982Y-95049188D01*
X131712500Y-95036928D01*
X131410750Y-95040000D01*
X131252000Y-95198750D01*
X131252000Y-96273000D01*
X131272000Y-96273000D01*
X131272000Y-96527000D01*
X131252000Y-96527000D01*
X131252000Y-97601250D01*
X131410750Y-97760000D01*
X131712500Y-97763072D01*
X131836982Y-97750812D01*
X131956680Y-97714502D01*
X132066994Y-97655537D01*
X132163685Y-97576185D01*
X132229158Y-97496406D01*
X132234538Y-97502962D01*
X132369114Y-97613405D01*
X132522650Y-97695472D01*
X132689246Y-97746008D01*
X132862500Y-97763072D01*
X133537500Y-97763072D01*
X133710754Y-97746008D01*
X133877350Y-97695472D01*
X134030886Y-97613405D01*
X134165462Y-97502962D01*
X134275905Y-97368386D01*
X134357972Y-97214850D01*
X134408508Y-97048254D01*
X134421878Y-96912500D01*
X138236928Y-96912500D01*
X138249188Y-97036982D01*
X138285498Y-97156680D01*
X138344463Y-97266994D01*
X138423815Y-97363685D01*
X138503594Y-97429158D01*
X138497038Y-97434538D01*
X138386595Y-97569114D01*
X138304528Y-97722650D01*
X138253992Y-97889246D01*
X138236928Y-98062500D01*
X138236928Y-98737500D01*
X138253992Y-98910754D01*
X138304528Y-99077350D01*
X138386595Y-99230886D01*
X138497038Y-99365462D01*
X138631614Y-99475905D01*
X138785150Y-99557972D01*
X138951746Y-99608508D01*
X139125000Y-99625572D01*
X140075000Y-99625572D01*
X140248254Y-99608508D01*
X140414850Y-99557972D01*
X140568386Y-99475905D01*
X140702962Y-99365462D01*
X140768995Y-99285000D01*
X143485470Y-99285000D01*
X143496401Y-99321034D01*
X143634294Y-99579014D01*
X143819866Y-99805134D01*
X144045986Y-99990706D01*
X144063374Y-100000000D01*
X144045986Y-100009294D01*
X143819866Y-100194866D01*
X143634294Y-100420986D01*
X143496401Y-100678966D01*
X143411487Y-100958889D01*
X143382815Y-101250000D01*
X143411487Y-101541111D01*
X143496401Y-101821034D01*
X143634294Y-102079014D01*
X143819866Y-102305134D01*
X143883337Y-102357223D01*
X143781614Y-102411595D01*
X143647038Y-102522038D01*
X143536595Y-102656614D01*
X143454528Y-102810150D01*
X143403992Y-102976746D01*
X143386928Y-103150000D01*
X143386928Y-104350000D01*
X143403992Y-104523254D01*
X143454528Y-104689850D01*
X143536595Y-104843386D01*
X143647038Y-104977962D01*
X143781614Y-105088405D01*
X143935150Y-105170472D01*
X144101746Y-105221008D01*
X144275000Y-105238072D01*
X145725000Y-105238072D01*
X145898254Y-105221008D01*
X146064850Y-105170472D01*
X146218386Y-105088405D01*
X146352962Y-104977962D01*
X146463405Y-104843386D01*
X146545472Y-104689850D01*
X146596008Y-104523254D01*
X146613072Y-104350000D01*
X146613072Y-103150000D01*
X146596008Y-102976746D01*
X146545472Y-102810150D01*
X146463405Y-102656614D01*
X146352962Y-102522038D01*
X146218386Y-102411595D01*
X146116663Y-102357223D01*
X146180134Y-102305134D01*
X146365706Y-102079014D01*
X146503599Y-101821034D01*
X146588513Y-101541111D01*
X146617185Y-101250000D01*
X146588513Y-100958889D01*
X146503599Y-100678966D01*
X146365706Y-100420986D01*
X146180134Y-100194866D01*
X145954014Y-100009294D01*
X145936626Y-100000000D01*
X145954014Y-99990706D01*
X146180134Y-99805134D01*
X146365706Y-99579014D01*
X146503599Y-99321034D01*
X146588513Y-99041111D01*
X146617185Y-98750000D01*
X146588513Y-98458889D01*
X146503599Y-98178966D01*
X146365706Y-97920986D01*
X146180134Y-97694866D01*
X145954014Y-97509294D01*
X145928278Y-97495538D01*
X146134429Y-97339049D01*
X146327496Y-97121193D01*
X146474352Y-96869858D01*
X146566476Y-96606890D01*
X146445155Y-96377000D01*
X145127000Y-96377000D01*
X145127000Y-96397000D01*
X144873000Y-96397000D01*
X144873000Y-96377000D01*
X143554845Y-96377000D01*
X143433524Y-96606890D01*
X143525648Y-96869858D01*
X143672504Y-97121193D01*
X143865571Y-97339049D01*
X144071722Y-97495538D01*
X144045986Y-97509294D01*
X144039033Y-97515000D01*
X140768995Y-97515000D01*
X140702962Y-97434538D01*
X140696406Y-97429158D01*
X140776185Y-97363685D01*
X140855537Y-97266994D01*
X140914502Y-97156680D01*
X140950812Y-97036982D01*
X140963072Y-96912500D01*
X140960000Y-96610750D01*
X140801250Y-96452000D01*
X139727000Y-96452000D01*
X139727000Y-96472000D01*
X139473000Y-96472000D01*
X139473000Y-96452000D01*
X138398750Y-96452000D01*
X138240000Y-96610750D01*
X138236928Y-96912500D01*
X134421878Y-96912500D01*
X134425572Y-96875000D01*
X134425572Y-95925000D01*
X134408508Y-95751746D01*
X134404187Y-95737500D01*
X138236928Y-95737500D01*
X138240000Y-96039250D01*
X138398750Y-96198000D01*
X139473000Y-96198000D01*
X139473000Y-95261250D01*
X139727000Y-95261250D01*
X139727000Y-96198000D01*
X140801250Y-96198000D01*
X140960000Y-96039250D01*
X140961487Y-95893110D01*
X143433524Y-95893110D01*
X143554845Y-96123000D01*
X144873000Y-96123000D01*
X144873000Y-94923835D01*
X145127000Y-94923835D01*
X145127000Y-96123000D01*
X146445155Y-96123000D01*
X146566476Y-95893110D01*
X146474352Y-95630142D01*
X146327496Y-95378807D01*
X146134429Y-95160951D01*
X145902570Y-94984947D01*
X145640830Y-94857558D01*
X145359267Y-94783680D01*
X145127000Y-94923835D01*
X144873000Y-94923835D01*
X144640733Y-94783680D01*
X144359170Y-94857558D01*
X144097430Y-94984947D01*
X143865571Y-95160951D01*
X143672504Y-95378807D01*
X143525648Y-95630142D01*
X143433524Y-95893110D01*
X140961487Y-95893110D01*
X140963072Y-95737500D01*
X140950812Y-95613018D01*
X140914502Y-95493320D01*
X140855537Y-95383006D01*
X140776185Y-95286315D01*
X140679494Y-95206963D01*
X140569180Y-95147998D01*
X140449482Y-95111688D01*
X140325000Y-95099428D01*
X139885750Y-95102500D01*
X139727000Y-95261250D01*
X139473000Y-95261250D01*
X139314250Y-95102500D01*
X138875000Y-95099428D01*
X138750518Y-95111688D01*
X138630820Y-95147998D01*
X138520506Y-95206963D01*
X138423815Y-95286315D01*
X138344463Y-95383006D01*
X138285498Y-95493320D01*
X138249188Y-95613018D01*
X138236928Y-95737500D01*
X134404187Y-95737500D01*
X134357972Y-95585150D01*
X134275905Y-95431614D01*
X134165462Y-95297038D01*
X134085000Y-95231005D01*
X134085000Y-91496133D01*
X134329013Y-91365706D01*
X134555134Y-91180134D01*
X134607223Y-91116663D01*
X134661595Y-91218386D01*
X134772038Y-91352962D01*
X134906614Y-91463405D01*
X135060150Y-91545472D01*
X135226746Y-91596008D01*
X135400000Y-91613072D01*
X136600000Y-91613072D01*
X136773254Y-91596008D01*
X136939850Y-91545472D01*
X137093386Y-91463405D01*
X137227962Y-91352962D01*
X137338405Y-91218386D01*
X137420472Y-91064850D01*
X137471008Y-90898254D01*
X137488072Y-90725000D01*
X137488072Y-89275000D01*
X137471008Y-89101746D01*
X137420472Y-88935150D01*
X137338405Y-88781614D01*
X137227962Y-88647038D01*
X137093386Y-88536595D01*
X136939850Y-88454528D01*
X136773254Y-88403992D01*
X136600000Y-88386928D01*
X135400000Y-88386928D01*
X135226746Y-88403992D01*
X135060150Y-88454528D01*
X134906614Y-88536595D01*
X134772038Y-88647038D01*
X134661595Y-88781614D01*
X134607223Y-88883337D01*
X134555134Y-88819866D01*
X134329014Y-88634294D01*
X134071034Y-88496401D01*
X133791111Y-88411487D01*
X133500000Y-88382815D01*
X133208890Y-88411487D01*
X132928967Y-88496401D01*
X132670987Y-88634294D01*
X132444866Y-88819866D01*
X132259294Y-89045986D01*
X132245538Y-89071722D01*
X132089049Y-88865571D01*
X131871193Y-88672504D01*
X131619858Y-88525648D01*
X131356890Y-88433524D01*
X131127000Y-88554845D01*
X130873000Y-88554845D01*
X130643110Y-88433524D01*
X130380142Y-88525648D01*
X130128807Y-88672504D01*
X129910951Y-88865571D01*
X129734947Y-89097430D01*
X129607558Y-89359170D01*
X129533680Y-89640733D01*
X123985316Y-89640733D01*
X123988072Y-89000000D01*
X123975812Y-88875518D01*
X123939502Y-88755820D01*
X123880537Y-88645506D01*
X123801185Y-88548815D01*
X123704494Y-88469463D01*
X123594180Y-88410498D01*
X123474482Y-88374188D01*
X123350000Y-88361928D01*
X122785750Y-88365000D01*
X122627000Y-88523750D01*
X122373000Y-88523750D01*
X122214250Y-88365000D01*
X121650000Y-88361928D01*
X121525518Y-88374188D01*
X121405820Y-88410498D01*
X121295506Y-88469463D01*
X121198815Y-88548815D01*
X121119463Y-88645506D01*
X121060498Y-88755820D01*
X121049945Y-88790608D01*
X120829014Y-88609294D01*
X120571034Y-88471401D01*
X120291111Y-88386487D01*
X120000000Y-88357815D01*
X119708890Y-88386487D01*
X119428967Y-88471401D01*
X119170987Y-88609294D01*
X118944866Y-88794866D01*
X118759294Y-89020986D01*
X118621401Y-89278966D01*
X118536487Y-89558889D01*
X118515000Y-89777050D01*
X102660000Y-89777050D01*
X102660000Y-85967582D01*
X102840000Y-85967582D01*
X102840001Y-88032419D01*
X102843247Y-88065377D01*
X102843247Y-88078367D01*
X102844210Y-88087532D01*
X102865965Y-88281481D01*
X102878397Y-88339966D01*
X102890022Y-88398676D01*
X102892747Y-88407479D01*
X102951760Y-88593509D01*
X102975338Y-88648519D01*
X102998120Y-88703794D01*
X103002503Y-88711900D01*
X103096525Y-88882925D01*
X103130308Y-88932264D01*
X103163423Y-88982106D01*
X103169297Y-88989206D01*
X103294747Y-89138712D01*
X103337477Y-89180557D01*
X103379638Y-89223013D01*
X103386780Y-89228837D01*
X103538879Y-89351128D01*
X103588941Y-89383887D01*
X103638523Y-89417331D01*
X103646660Y-89421657D01*
X103646663Y-89421659D01*
X103646667Y-89421660D01*
X103819615Y-89512077D01*
X103875053Y-89534475D01*
X103930228Y-89557669D01*
X103939050Y-89560332D01*
X104126275Y-89615435D01*
X104184983Y-89626633D01*
X104243628Y-89638672D01*
X104252799Y-89639570D01*
X104447161Y-89657259D01*
X104506943Y-89656842D01*
X104566801Y-89657260D01*
X104575972Y-89656360D01*
X104770069Y-89635959D01*
X104828658Y-89623932D01*
X104887423Y-89612723D01*
X104896245Y-89610059D01*
X105082683Y-89552347D01*
X105137838Y-89529162D01*
X105193291Y-89506758D01*
X105201427Y-89502432D01*
X105373104Y-89409607D01*
X105422699Y-89376154D01*
X105472753Y-89343400D01*
X105479894Y-89337576D01*
X105630272Y-89213172D01*
X105672411Y-89170737D01*
X105715161Y-89128874D01*
X105721034Y-89121773D01*
X105844384Y-88970531D01*
X105877477Y-88920723D01*
X105911284Y-88871349D01*
X105915667Y-88863243D01*
X106007292Y-88690920D01*
X106030090Y-88635608D01*
X106053652Y-88580634D01*
X106056377Y-88571831D01*
X106112786Y-88384994D01*
X106124405Y-88326314D01*
X106136842Y-88267804D01*
X106137805Y-88258639D01*
X106156850Y-88064406D01*
X106156850Y-88064402D01*
X106160000Y-88032419D01*
X106160000Y-85967581D01*
X106156753Y-85934613D01*
X106156753Y-85921633D01*
X106155790Y-85912468D01*
X106134035Y-85718518D01*
X106121600Y-85660019D01*
X106109978Y-85601325D01*
X106107253Y-85592522D01*
X106048240Y-85406491D01*
X106024674Y-85351509D01*
X106001880Y-85296206D01*
X105997497Y-85288100D01*
X105903475Y-85117075D01*
X105869702Y-85067752D01*
X105836577Y-85017894D01*
X105830703Y-85010794D01*
X105705253Y-84861288D01*
X105662523Y-84819443D01*
X105620362Y-84776987D01*
X105613220Y-84771163D01*
X105461120Y-84648872D01*
X105411061Y-84616114D01*
X105361477Y-84582669D01*
X105353340Y-84578343D01*
X105353337Y-84578341D01*
X105353333Y-84578340D01*
X105180384Y-84487923D01*
X105124972Y-84465535D01*
X105069772Y-84442331D01*
X105060950Y-84439668D01*
X104873724Y-84384565D01*
X104814986Y-84373360D01*
X104756372Y-84361328D01*
X104747200Y-84360429D01*
X104552839Y-84342741D01*
X104493057Y-84343158D01*
X104433199Y-84342740D01*
X104424028Y-84343640D01*
X104229931Y-84364041D01*
X104171348Y-84376066D01*
X104112577Y-84387277D01*
X104103755Y-84389941D01*
X103917317Y-84447653D01*
X103862162Y-84470838D01*
X103806709Y-84493242D01*
X103798573Y-84497568D01*
X103626896Y-84590393D01*
X103577278Y-84623861D01*
X103527247Y-84656600D01*
X103520106Y-84662424D01*
X103369728Y-84786828D01*
X103327589Y-84829263D01*
X103284839Y-84871126D01*
X103278966Y-84878227D01*
X103155616Y-85029469D01*
X103122534Y-85079262D01*
X103088716Y-85128651D01*
X103084333Y-85136757D01*
X102992708Y-85309079D01*
X102969909Y-85364394D01*
X102946348Y-85419366D01*
X102943623Y-85428169D01*
X102887214Y-85615005D01*
X102875594Y-85673693D01*
X102863158Y-85732196D01*
X102862195Y-85741361D01*
X102843150Y-85935595D01*
X102840000Y-85967582D01*
X102660000Y-85967582D01*
X102660000Y-82160000D01*
X158967721Y-82160000D01*
X159259659Y-82188625D01*
X159509429Y-82264035D01*
X159739792Y-82386522D01*
X159941980Y-82551422D01*
X160108286Y-82752450D01*
X160232378Y-82981954D01*
X160309531Y-83231195D01*
X160340001Y-83521098D01*
X160340000Y-98217721D01*
X160311375Y-98509660D01*
X160235965Y-98759429D01*
X160113477Y-98989794D01*
X159948579Y-99191979D01*
X159747546Y-99358288D01*
X159518046Y-99482378D01*
X159268805Y-99559531D01*
X158978911Y-99590000D01*
X157967581Y-99590000D01*
X157933862Y-99593321D01*
X157911161Y-99593321D01*
X157901996Y-99594284D01*
X157562586Y-99632355D01*
X157504089Y-99644789D01*
X157445395Y-99656411D01*
X157436592Y-99659136D01*
X157111039Y-99762407D01*
X157056092Y-99785958D01*
X157000751Y-99808767D01*
X156992645Y-99813150D01*
X156693351Y-99977688D01*
X156643979Y-100011494D01*
X156594168Y-100044588D01*
X156587068Y-100050462D01*
X156325433Y-100270000D01*
X156283589Y-100312730D01*
X156241135Y-100354888D01*
X156235310Y-100362030D01*
X156021300Y-100628205D01*
X155988547Y-100678257D01*
X155955094Y-100727852D01*
X155950771Y-100735984D01*
X155950768Y-100735988D01*
X155950768Y-100735989D01*
X155792534Y-101038663D01*
X155770138Y-101094095D01*
X155746944Y-101149271D01*
X155744281Y-101158093D01*
X155647850Y-101485738D01*
X155636652Y-101544439D01*
X155624612Y-101603095D01*
X155623713Y-101612266D01*
X155592759Y-101952401D01*
X155593177Y-102012217D01*
X155592759Y-102072033D01*
X155593658Y-102081205D01*
X155629358Y-102420874D01*
X155641390Y-102479486D01*
X155652595Y-102538231D01*
X155655259Y-102547053D01*
X155756255Y-102873319D01*
X155779435Y-102928462D01*
X155801844Y-102983927D01*
X155806171Y-102992064D01*
X155968616Y-103292500D01*
X156002061Y-103342084D01*
X156034821Y-103392147D01*
X156040646Y-103399288D01*
X156258351Y-103662449D01*
X156300823Y-103704626D01*
X156342651Y-103747339D01*
X156349751Y-103753213D01*
X156614426Y-103969076D01*
X156664250Y-104002179D01*
X156713606Y-104035974D01*
X156721713Y-104040357D01*
X157023274Y-104200701D01*
X157078580Y-104223496D01*
X157133563Y-104247062D01*
X157142366Y-104249787D01*
X157469329Y-104348503D01*
X157528000Y-104360120D01*
X157586521Y-104372559D01*
X157595686Y-104373522D01*
X157935596Y-104406850D01*
X157935598Y-104406850D01*
X157967581Y-104410000D01*
X158967721Y-104410000D01*
X159259659Y-104438625D01*
X159509429Y-104514035D01*
X159739792Y-104636522D01*
X159941980Y-104801422D01*
X160108286Y-105002450D01*
X160232378Y-105231954D01*
X160309531Y-105481195D01*
X160340001Y-105771098D01*
X160340000Y-116467721D01*
X160311375Y-116759660D01*
X160235965Y-117009429D01*
X160113477Y-117239794D01*
X159948579Y-117441979D01*
X159747546Y-117608288D01*
X159518046Y-117732378D01*
X159268805Y-117809531D01*
X158978911Y-117840000D01*
X156032279Y-117840000D01*
X155740340Y-117811375D01*
X155490571Y-117735965D01*
X155260206Y-117613477D01*
X155058021Y-117448579D01*
X154891712Y-117247546D01*
X154767622Y-117018046D01*
X154690469Y-116768805D01*
X154660000Y-116478911D01*
X154660000Y-115467581D01*
X154657148Y-115438627D01*
X154657235Y-115426219D01*
X154656335Y-115417047D01*
X154615534Y-115028855D01*
X154603514Y-114970299D01*
X154592298Y-114911498D01*
X154589634Y-114902677D01*
X154474210Y-114529802D01*
X154451025Y-114474647D01*
X154428621Y-114419194D01*
X154424294Y-114411058D01*
X154424294Y-114411057D01*
X154424291Y-114411053D01*
X154238643Y-114067702D01*
X154205187Y-114018101D01*
X154172437Y-113968054D01*
X154166613Y-113960913D01*
X153917806Y-113660158D01*
X153875371Y-113618019D01*
X153833508Y-113575269D01*
X153826407Y-113569396D01*
X153523923Y-113322695D01*
X153474107Y-113289598D01*
X153424741Y-113255795D01*
X153416635Y-113251413D01*
X153071993Y-113068163D01*
X153016687Y-113045368D01*
X152961704Y-113021802D01*
X152952901Y-113019077D01*
X152579230Y-112906259D01*
X152520542Y-112894639D01*
X152462039Y-112882203D01*
X152452874Y-112881240D01*
X152064405Y-112843150D01*
X152064402Y-112843150D01*
X152032419Y-112840000D01*
X148967581Y-112840000D01*
X148938627Y-112842852D01*
X148926219Y-112842765D01*
X148917047Y-112843665D01*
X148528855Y-112884466D01*
X148470299Y-112896486D01*
X148411498Y-112907702D01*
X148402677Y-112910366D01*
X148029802Y-113025790D01*
X147974647Y-113048975D01*
X147919194Y-113071379D01*
X147911062Y-113075704D01*
X147911057Y-113075706D01*
X147911053Y-113075709D01*
X147567702Y-113261357D01*
X147518101Y-113294813D01*
X147468054Y-113327563D01*
X147460913Y-113333387D01*
X147160158Y-113582194D01*
X147118019Y-113624629D01*
X147075269Y-113666492D01*
X147069396Y-113673593D01*
X146822695Y-113976077D01*
X146789598Y-114025893D01*
X146755795Y-114075259D01*
X146751413Y-114083365D01*
X146568163Y-114428007D01*
X146545368Y-114483313D01*
X146521802Y-114538296D01*
X146519077Y-114547099D01*
X146406259Y-114920770D01*
X146394639Y-114979458D01*
X146382203Y-115037961D01*
X146381240Y-115047126D01*
X146343150Y-115435595D01*
X146340000Y-115467582D01*
X146340001Y-116467711D01*
X146311375Y-116759660D01*
X146235965Y-117009429D01*
X146113477Y-117239794D01*
X145948579Y-117441979D01*
X145747546Y-117608288D01*
X145518046Y-117732378D01*
X145268805Y-117809531D01*
X144978911Y-117840000D01*
X41032279Y-117840000D01*
X40740340Y-117811375D01*
X40490571Y-117735965D01*
X40260206Y-117613477D01*
X40058021Y-117448579D01*
X39891712Y-117247546D01*
X39767622Y-117018046D01*
X39690469Y-116768805D01*
X39660000Y-116478911D01*
X39660000Y-109249267D01*
X63461680Y-109249267D01*
X63535558Y-109530830D01*
X63662947Y-109792570D01*
X63838951Y-110024429D01*
X64056807Y-110217496D01*
X64308142Y-110364352D01*
X64571110Y-110456476D01*
X64801000Y-110335155D01*
X64801000Y-109017000D01*
X63601835Y-109017000D01*
X63461680Y-109249267D01*
X39660000Y-109249267D01*
X39660000Y-108530733D01*
X63461680Y-108530733D01*
X63601835Y-108763000D01*
X64801000Y-108763000D01*
X64801000Y-107444845D01*
X64571110Y-107323524D01*
X64308142Y-107415648D01*
X64056807Y-107562504D01*
X63838951Y-107755571D01*
X63662947Y-107987430D01*
X63535558Y-108249170D01*
X63461680Y-108530733D01*
X39660000Y-108530733D01*
X39660000Y-105782279D01*
X39688625Y-105490341D01*
X39764035Y-105240571D01*
X39886522Y-105010208D01*
X40051422Y-104808020D01*
X40252450Y-104641714D01*
X40481954Y-104517622D01*
X40731195Y-104440469D01*
X41021088Y-104410000D01*
X42032419Y-104410000D01*
X42066138Y-104406679D01*
X42088839Y-104406679D01*
X42098003Y-104405716D01*
X42437414Y-104367645D01*
X42495917Y-104355209D01*
X42554605Y-104343589D01*
X42563408Y-104340864D01*
X42888961Y-104237593D01*
X42943908Y-104214042D01*
X42999249Y-104191233D01*
X43007355Y-104186850D01*
X43152801Y-104106890D01*
X53433524Y-104106890D01*
X53525648Y-104369858D01*
X53672504Y-104621193D01*
X53865571Y-104839049D01*
X54097430Y-105015053D01*
X54359170Y-105142442D01*
X54640733Y-105216320D01*
X54873000Y-105076165D01*
X54873000Y-103877000D01*
X55127000Y-103877000D01*
X55127000Y-105076165D01*
X55359267Y-105216320D01*
X55640830Y-105142442D01*
X55902570Y-105015053D01*
X56134429Y-104839049D01*
X56327496Y-104621193D01*
X56474352Y-104369858D01*
X56566476Y-104106890D01*
X56445155Y-103877000D01*
X55127000Y-103877000D01*
X54873000Y-103877000D01*
X53554845Y-103877000D01*
X53433524Y-104106890D01*
X43152801Y-104106890D01*
X43306649Y-104022312D01*
X43356005Y-103988517D01*
X43405832Y-103955412D01*
X43412932Y-103949538D01*
X43674567Y-103730000D01*
X43716411Y-103687270D01*
X43758865Y-103645112D01*
X43764689Y-103637970D01*
X43978700Y-103371796D01*
X44011450Y-103321749D01*
X44044906Y-103272148D01*
X44049232Y-103264011D01*
X44207466Y-102961337D01*
X44229862Y-102905905D01*
X44253056Y-102850729D01*
X44255719Y-102841907D01*
X44352150Y-102514262D01*
X44363349Y-102455554D01*
X44375388Y-102396905D01*
X44376287Y-102387733D01*
X44407241Y-102047599D01*
X44406823Y-101987783D01*
X44407241Y-101927967D01*
X44406342Y-101918796D01*
X44370642Y-101579126D01*
X44358610Y-101520514D01*
X44347405Y-101461769D01*
X44344741Y-101452947D01*
X44243745Y-101126681D01*
X44220565Y-101071538D01*
X44198156Y-101016073D01*
X44193829Y-101007936D01*
X44031384Y-100707500D01*
X43997939Y-100657916D01*
X43965179Y-100607853D01*
X43959354Y-100600712D01*
X43741648Y-100337551D01*
X43699212Y-100295410D01*
X43657349Y-100252661D01*
X43650248Y-100246787D01*
X43385574Y-100030924D01*
X43335716Y-99997799D01*
X43286393Y-99964026D01*
X43278287Y-99959643D01*
X42976725Y-99799299D01*
X42921433Y-99776510D01*
X42866437Y-99752938D01*
X42857634Y-99750213D01*
X42530671Y-99651497D01*
X42472000Y-99639880D01*
X42413479Y-99627441D01*
X42404314Y-99626478D01*
X42064404Y-99593150D01*
X42064402Y-99593150D01*
X42032419Y-99590000D01*
X41032269Y-99590000D01*
X40740340Y-99561376D01*
X40490572Y-99485967D01*
X40260206Y-99363479D01*
X40058021Y-99198581D01*
X39891712Y-98997547D01*
X39767621Y-98768046D01*
X39762035Y-98750000D01*
X53382815Y-98750000D01*
X53411487Y-99041111D01*
X53496401Y-99321034D01*
X53634294Y-99579014D01*
X53819866Y-99805134D01*
X54045986Y-99990706D01*
X54063374Y-100000000D01*
X54045986Y-100009294D01*
X53819866Y-100194866D01*
X53634294Y-100420986D01*
X53496401Y-100678966D01*
X53411487Y-100958889D01*
X53382815Y-101250000D01*
X53411487Y-101541111D01*
X53496401Y-101821034D01*
X53634294Y-102079014D01*
X53819866Y-102305134D01*
X54045986Y-102490706D01*
X54071722Y-102504462D01*
X53865571Y-102660951D01*
X53672504Y-102878807D01*
X53525648Y-103130142D01*
X53433524Y-103393110D01*
X53554845Y-103623000D01*
X54873000Y-103623000D01*
X54873000Y-103603000D01*
X55127000Y-103603000D01*
X55127000Y-103623000D01*
X56445155Y-103623000D01*
X56566476Y-103393110D01*
X56474352Y-103130142D01*
X56327496Y-102878807D01*
X56134429Y-102660951D01*
X56087069Y-102625000D01*
X58636928Y-102625000D01*
X58649188Y-102749482D01*
X58685498Y-102869180D01*
X58744463Y-102979494D01*
X58823815Y-103076185D01*
X58920506Y-103155537D01*
X59030820Y-103214502D01*
X59150518Y-103250812D01*
X59275000Y-103263072D01*
X59714250Y-103260000D01*
X59873000Y-103101250D01*
X59873000Y-102164500D01*
X60127000Y-102164500D01*
X60127000Y-103101250D01*
X60285750Y-103260000D01*
X60725000Y-103263072D01*
X60849482Y-103250812D01*
X60969180Y-103214502D01*
X61079494Y-103155537D01*
X61176185Y-103076185D01*
X61255537Y-102979494D01*
X61314502Y-102869180D01*
X61350812Y-102749482D01*
X61363072Y-102625000D01*
X61360000Y-102323250D01*
X61201250Y-102164500D01*
X60127000Y-102164500D01*
X59873000Y-102164500D01*
X58798750Y-102164500D01*
X58640000Y-102323250D01*
X58636928Y-102625000D01*
X56087069Y-102625000D01*
X55928278Y-102504462D01*
X55954014Y-102490706D01*
X56180134Y-102305134D01*
X56319759Y-102135000D01*
X57106531Y-102135000D01*
X57150000Y-102139281D01*
X57193469Y-102135000D01*
X57193477Y-102135000D01*
X57323490Y-102122195D01*
X57490313Y-102071589D01*
X57644059Y-101989411D01*
X57778817Y-101878817D01*
X57806534Y-101845044D01*
X58804079Y-100847500D01*
X58831005Y-100847500D01*
X58897038Y-100927962D01*
X58903594Y-100933342D01*
X58823815Y-100998815D01*
X58744463Y-101095506D01*
X58685498Y-101205820D01*
X58649188Y-101325518D01*
X58636928Y-101450000D01*
X58640000Y-101751750D01*
X58798750Y-101910500D01*
X59873000Y-101910500D01*
X59873000Y-101890500D01*
X60127000Y-101890500D01*
X60127000Y-101910500D01*
X61201250Y-101910500D01*
X61360000Y-101751750D01*
X61363072Y-101450000D01*
X61350812Y-101325518D01*
X61314502Y-101205820D01*
X61255537Y-101095506D01*
X61176185Y-100998815D01*
X61096406Y-100933342D01*
X61102962Y-100927962D01*
X61213405Y-100793386D01*
X61295472Y-100639850D01*
X61346008Y-100473254D01*
X61363072Y-100300000D01*
X61363072Y-99625000D01*
X61346008Y-99451746D01*
X61295472Y-99285150D01*
X61213405Y-99131614D01*
X61102962Y-98997038D01*
X60968386Y-98886595D01*
X60814850Y-98804528D01*
X60648254Y-98753992D01*
X60475000Y-98736928D01*
X59525000Y-98736928D01*
X59351746Y-98753992D01*
X59185150Y-98804528D01*
X59031614Y-98886595D01*
X58897038Y-98997038D01*
X58831005Y-99077500D01*
X58480969Y-99077500D01*
X58437500Y-99073219D01*
X58394031Y-99077500D01*
X58394023Y-99077500D01*
X58278806Y-99088848D01*
X58264009Y-99090305D01*
X58213403Y-99105657D01*
X58097187Y-99140911D01*
X57943441Y-99223089D01*
X57929048Y-99234901D01*
X57842453Y-99305968D01*
X57842451Y-99305970D01*
X57808683Y-99333683D01*
X57780970Y-99367451D01*
X56783422Y-100365000D01*
X56319759Y-100365000D01*
X56180134Y-100194866D01*
X55954014Y-100009294D01*
X55936626Y-100000000D01*
X55954014Y-99990706D01*
X56180134Y-99805134D01*
X56365706Y-99579014D01*
X56503599Y-99321034D01*
X56588513Y-99041111D01*
X56617185Y-98750000D01*
X56588513Y-98458889D01*
X56503599Y-98178966D01*
X56365706Y-97920986D01*
X56180134Y-97694866D01*
X56116663Y-97642777D01*
X56218386Y-97588405D01*
X56352962Y-97477962D01*
X56463405Y-97343386D01*
X56545472Y-97189850D01*
X56562110Y-97135000D01*
X61339422Y-97135000D01*
X69043000Y-104838579D01*
X69043001Y-107327889D01*
X68988150Y-107344528D01*
X68834614Y-107426595D01*
X68700038Y-107537038D01*
X68589595Y-107671614D01*
X68535223Y-107773337D01*
X68483134Y-107709866D01*
X68257014Y-107524294D01*
X67999034Y-107386401D01*
X67719111Y-107301487D01*
X67428000Y-107272815D01*
X67136890Y-107301487D01*
X66856967Y-107386401D01*
X66598987Y-107524294D01*
X66372866Y-107709866D01*
X66187294Y-107935986D01*
X66173538Y-107961722D01*
X66017049Y-107755571D01*
X65799193Y-107562504D01*
X65547858Y-107415648D01*
X65284890Y-107323524D01*
X65055000Y-107444845D01*
X65055000Y-108763000D01*
X65075000Y-108763000D01*
X65075000Y-109017000D01*
X65055000Y-109017000D01*
X65055000Y-110335155D01*
X65284890Y-110456476D01*
X65547858Y-110364352D01*
X65799193Y-110217496D01*
X66017049Y-110024429D01*
X66173538Y-109818278D01*
X66187294Y-109844013D01*
X66372866Y-110070134D01*
X66598986Y-110255706D01*
X66856966Y-110393599D01*
X67136889Y-110478513D01*
X67428000Y-110507185D01*
X67719110Y-110478513D01*
X67999033Y-110393599D01*
X68257013Y-110255706D01*
X68483134Y-110070134D01*
X68535223Y-110006663D01*
X68589595Y-110108386D01*
X68700038Y-110242962D01*
X68834614Y-110353405D01*
X68988150Y-110435472D01*
X69154746Y-110486008D01*
X69328000Y-110503072D01*
X70528000Y-110503072D01*
X70701254Y-110486008D01*
X70867850Y-110435472D01*
X71021386Y-110353405D01*
X71155962Y-110242962D01*
X71266405Y-110108386D01*
X71348472Y-109954850D01*
X71399008Y-109788254D01*
X71416072Y-109615000D01*
X71416072Y-108165000D01*
X71399008Y-107991746D01*
X71348472Y-107825150D01*
X71281578Y-107700000D01*
X75481928Y-107700000D01*
X75481928Y-110300000D01*
X75494188Y-110424482D01*
X75530498Y-110544180D01*
X75589463Y-110654494D01*
X75668815Y-110751185D01*
X75765506Y-110830537D01*
X75875820Y-110889502D01*
X75995518Y-110925812D01*
X76120000Y-110938072D01*
X78720000Y-110938072D01*
X78844482Y-110925812D01*
X78964180Y-110889502D01*
X79074494Y-110830537D01*
X79171185Y-110751185D01*
X79250537Y-110654494D01*
X79309502Y-110544180D01*
X79345812Y-110424482D01*
X79358072Y-110300000D01*
X79358072Y-108809419D01*
X80565000Y-108809419D01*
X80565000Y-109190581D01*
X80639361Y-109564419D01*
X80785225Y-109916566D01*
X80996987Y-110233491D01*
X81266509Y-110503013D01*
X81583434Y-110714775D01*
X81935581Y-110860639D01*
X82309419Y-110935000D01*
X82690581Y-110935000D01*
X83064419Y-110860639D01*
X83416566Y-110714775D01*
X83733491Y-110503013D01*
X84003013Y-110233491D01*
X84214775Y-109916566D01*
X84360639Y-109564419D01*
X84435000Y-109190581D01*
X84435000Y-108809419D01*
X84411654Y-108692050D01*
X118015000Y-108692050D01*
X118015000Y-109087949D01*
X118036487Y-109306110D01*
X118121401Y-109586033D01*
X118259294Y-109844013D01*
X118444866Y-110070134D01*
X118670986Y-110255706D01*
X118928966Y-110393599D01*
X119208889Y-110478513D01*
X119500000Y-110507185D01*
X119791110Y-110478513D01*
X120071033Y-110393599D01*
X120329013Y-110255706D01*
X120555134Y-110070134D01*
X120740706Y-109844014D01*
X120750000Y-109826626D01*
X120759294Y-109844013D01*
X120944866Y-110070134D01*
X121170986Y-110255706D01*
X121428966Y-110393599D01*
X121708889Y-110478513D01*
X122000000Y-110507185D01*
X122291110Y-110478513D01*
X122571033Y-110393599D01*
X122829013Y-110255706D01*
X123055134Y-110070134D01*
X123240706Y-109844014D01*
X123250000Y-109826626D01*
X123259294Y-109844013D01*
X123444866Y-110070134D01*
X123670986Y-110255706D01*
X123928966Y-110393599D01*
X124208889Y-110478513D01*
X124500000Y-110507185D01*
X124791110Y-110478513D01*
X125071033Y-110393599D01*
X125329013Y-110255706D01*
X125555134Y-110070134D01*
X125607223Y-110006663D01*
X125661595Y-110108386D01*
X125772038Y-110242962D01*
X125906614Y-110353405D01*
X126060150Y-110435472D01*
X126226746Y-110486008D01*
X126400000Y-110503072D01*
X127600000Y-110503072D01*
X127773254Y-110486008D01*
X127939850Y-110435472D01*
X128093386Y-110353405D01*
X128227962Y-110242962D01*
X128338405Y-110108386D01*
X128420472Y-109954850D01*
X128471008Y-109788254D01*
X128488072Y-109615000D01*
X128488072Y-108777050D01*
X132515000Y-108777050D01*
X132515000Y-109222949D01*
X132536487Y-109441110D01*
X132621401Y-109721033D01*
X132759294Y-109979013D01*
X132944866Y-110205134D01*
X133170986Y-110390706D01*
X133428966Y-110528599D01*
X133708889Y-110613513D01*
X134000000Y-110642185D01*
X134291110Y-110613513D01*
X134571033Y-110528599D01*
X134829013Y-110390706D01*
X135055134Y-110205134D01*
X135107223Y-110141663D01*
X135161595Y-110243386D01*
X135272038Y-110377962D01*
X135406614Y-110488405D01*
X135560150Y-110570472D01*
X135726746Y-110621008D01*
X135900000Y-110638072D01*
X137100000Y-110638072D01*
X137273254Y-110621008D01*
X137439850Y-110570472D01*
X137593386Y-110488405D01*
X137727962Y-110377962D01*
X137838405Y-110243386D01*
X137920472Y-110089850D01*
X137971008Y-109923254D01*
X137988072Y-109750000D01*
X137988072Y-108250000D01*
X137971008Y-108076746D01*
X137920472Y-107910150D01*
X137838405Y-107756614D01*
X137727962Y-107622038D01*
X137593386Y-107511595D01*
X137439850Y-107429528D01*
X137273254Y-107378992D01*
X137100000Y-107361928D01*
X135900000Y-107361928D01*
X135726746Y-107378992D01*
X135560150Y-107429528D01*
X135406614Y-107511595D01*
X135272038Y-107622038D01*
X135161595Y-107756614D01*
X135107223Y-107858337D01*
X135055134Y-107794866D01*
X134829014Y-107609294D01*
X134571034Y-107471401D01*
X134291111Y-107386487D01*
X134000000Y-107357815D01*
X133708890Y-107386487D01*
X133428967Y-107471401D01*
X133170987Y-107609294D01*
X132944866Y-107794866D01*
X132759294Y-108020986D01*
X132621401Y-108278966D01*
X132536487Y-108558889D01*
X132515000Y-108777050D01*
X128488072Y-108777050D01*
X128488072Y-108165000D01*
X128471008Y-107991746D01*
X128420472Y-107825150D01*
X128338405Y-107671614D01*
X128227962Y-107537038D01*
X128093386Y-107426595D01*
X127939850Y-107344528D01*
X127773254Y-107293992D01*
X127600000Y-107276928D01*
X126400000Y-107276928D01*
X126226746Y-107293992D01*
X126060150Y-107344528D01*
X125906614Y-107426595D01*
X125772038Y-107537038D01*
X125661595Y-107671614D01*
X125607223Y-107773337D01*
X125555134Y-107709866D01*
X125329014Y-107524294D01*
X125071034Y-107386401D01*
X124791111Y-107301487D01*
X124500000Y-107272815D01*
X124208890Y-107301487D01*
X123928967Y-107386401D01*
X123670987Y-107524294D01*
X123444866Y-107709866D01*
X123259294Y-107935986D01*
X123250000Y-107953374D01*
X123240706Y-107935986D01*
X123055134Y-107709866D01*
X122829014Y-107524294D01*
X122571034Y-107386401D01*
X122291111Y-107301487D01*
X122000000Y-107272815D01*
X121708890Y-107301487D01*
X121428967Y-107386401D01*
X121170987Y-107524294D01*
X120944866Y-107709866D01*
X120759294Y-107935986D01*
X120750000Y-107953374D01*
X120740706Y-107935986D01*
X120555134Y-107709866D01*
X120329014Y-107524294D01*
X120071034Y-107386401D01*
X119791111Y-107301487D01*
X119500000Y-107272815D01*
X119208890Y-107301487D01*
X118928967Y-107386401D01*
X118670987Y-107524294D01*
X118444866Y-107709866D01*
X118259294Y-107935986D01*
X118121401Y-108193966D01*
X118036487Y-108473889D01*
X118015000Y-108692050D01*
X84411654Y-108692050D01*
X84360639Y-108435581D01*
X84214775Y-108083434D01*
X84003013Y-107766509D01*
X83733491Y-107496987D01*
X83416566Y-107285225D01*
X83064419Y-107139361D01*
X82690581Y-107065000D01*
X82309419Y-107065000D01*
X81935581Y-107139361D01*
X81583434Y-107285225D01*
X81266509Y-107496987D01*
X80996987Y-107766509D01*
X80785225Y-108083434D01*
X80639361Y-108435581D01*
X80565000Y-108809419D01*
X79358072Y-108809419D01*
X79358072Y-107700000D01*
X79345812Y-107575518D01*
X79309502Y-107455820D01*
X79250537Y-107345506D01*
X79171185Y-107248815D01*
X79074494Y-107169463D01*
X78964180Y-107110498D01*
X78844482Y-107074188D01*
X78720000Y-107061928D01*
X76120000Y-107061928D01*
X75995518Y-107074188D01*
X75875820Y-107110498D01*
X75765506Y-107169463D01*
X75668815Y-107248815D01*
X75589463Y-107345506D01*
X75530498Y-107455820D01*
X75494188Y-107575518D01*
X75481928Y-107700000D01*
X71281578Y-107700000D01*
X71266405Y-107671614D01*
X71155962Y-107537038D01*
X71021386Y-107426595D01*
X70867850Y-107344528D01*
X70813000Y-107327890D01*
X70813000Y-104515469D01*
X70817281Y-104472000D01*
X70813000Y-104428531D01*
X70813000Y-104428523D01*
X70800195Y-104298510D01*
X70749589Y-104131687D01*
X70667411Y-103977941D01*
X70664804Y-103974764D01*
X70584532Y-103876953D01*
X70584530Y-103876951D01*
X70556817Y-103843183D01*
X70523051Y-103815472D01*
X68071168Y-101363589D01*
X89615000Y-101363589D01*
X89615000Y-101636411D01*
X89668225Y-101903989D01*
X89772629Y-102156043D01*
X89924201Y-102382886D01*
X90117114Y-102575799D01*
X90343957Y-102727371D01*
X90596011Y-102831775D01*
X90863589Y-102885000D01*
X91136411Y-102885000D01*
X91403989Y-102831775D01*
X91656043Y-102727371D01*
X91882886Y-102575799D01*
X92075799Y-102382886D01*
X92227371Y-102156043D01*
X92331775Y-101903989D01*
X92385000Y-101636411D01*
X92385000Y-101363589D01*
X92615000Y-101363589D01*
X92615000Y-101636411D01*
X92668225Y-101903989D01*
X92772629Y-102156043D01*
X92924201Y-102382886D01*
X93117114Y-102575799D01*
X93343957Y-102727371D01*
X93596011Y-102831775D01*
X93863589Y-102885000D01*
X94136411Y-102885000D01*
X94403989Y-102831775D01*
X94656043Y-102727371D01*
X94882886Y-102575799D01*
X95001692Y-102456993D01*
X96222612Y-102456993D01*
X96288137Y-102695860D01*
X96535116Y-102811760D01*
X96799960Y-102877250D01*
X97072492Y-102889812D01*
X97342238Y-102848965D01*
X97598832Y-102756277D01*
X97711863Y-102695860D01*
X97777388Y-102456993D01*
X97000000Y-101679605D01*
X96222612Y-102456993D01*
X95001692Y-102456993D01*
X95075799Y-102382886D01*
X95227371Y-102156043D01*
X95331775Y-101903989D01*
X95385000Y-101636411D01*
X95385000Y-101572492D01*
X95610188Y-101572492D01*
X95651035Y-101842238D01*
X95743723Y-102098832D01*
X95804140Y-102211863D01*
X96043007Y-102277388D01*
X96820395Y-101500000D01*
X97179605Y-101500000D01*
X97956993Y-102277388D01*
X98195860Y-102211863D01*
X98311760Y-101964884D01*
X98377250Y-101700040D01*
X98389812Y-101427508D01*
X98380133Y-101363589D01*
X98615000Y-101363589D01*
X98615000Y-101636411D01*
X98668225Y-101903989D01*
X98772629Y-102156043D01*
X98924201Y-102382886D01*
X99117114Y-102575799D01*
X99343957Y-102727371D01*
X99596011Y-102831775D01*
X99863589Y-102885000D01*
X100136411Y-102885000D01*
X100403989Y-102831775D01*
X100656043Y-102727371D01*
X100882886Y-102575799D01*
X101075799Y-102382886D01*
X101227371Y-102156043D01*
X101331775Y-101903989D01*
X101385000Y-101636411D01*
X101385000Y-101363589D01*
X101615000Y-101363589D01*
X101615000Y-101636411D01*
X101668225Y-101903989D01*
X101772629Y-102156043D01*
X101924201Y-102382886D01*
X102117114Y-102575799D01*
X102343957Y-102727371D01*
X102596011Y-102831775D01*
X102863589Y-102885000D01*
X103136411Y-102885000D01*
X103403989Y-102831775D01*
X103656043Y-102727371D01*
X103882886Y-102575799D01*
X104075799Y-102382886D01*
X104227371Y-102156043D01*
X104331775Y-101903989D01*
X104385000Y-101636411D01*
X104385000Y-101363589D01*
X104615000Y-101363589D01*
X104615000Y-101636411D01*
X104668225Y-101903989D01*
X104772629Y-102156043D01*
X104924201Y-102382886D01*
X105117114Y-102575799D01*
X105343957Y-102727371D01*
X105596011Y-102831775D01*
X105863589Y-102885000D01*
X106136411Y-102885000D01*
X106403989Y-102831775D01*
X106656043Y-102727371D01*
X106882886Y-102575799D01*
X107075799Y-102382886D01*
X107227371Y-102156043D01*
X107331775Y-101903989D01*
X107385000Y-101636411D01*
X107385000Y-101363589D01*
X107331775Y-101096011D01*
X107292007Y-101000000D01*
X107611928Y-101000000D01*
X107611928Y-102000000D01*
X107628992Y-102173254D01*
X107679528Y-102339850D01*
X107761595Y-102493386D01*
X107872038Y-102627962D01*
X108006614Y-102738405D01*
X108160150Y-102820472D01*
X108326746Y-102871008D01*
X108500000Y-102888072D01*
X109500000Y-102888072D01*
X109673254Y-102871008D01*
X109839850Y-102820472D01*
X109993386Y-102738405D01*
X110127962Y-102627962D01*
X110238405Y-102493386D01*
X110320472Y-102339850D01*
X110371008Y-102173254D01*
X110388072Y-102000000D01*
X110388072Y-101000000D01*
X110371008Y-100826746D01*
X110320472Y-100660150D01*
X110238405Y-100506614D01*
X110127962Y-100372038D01*
X109993386Y-100261595D01*
X109839850Y-100179528D01*
X109673254Y-100128992D01*
X109500000Y-100111928D01*
X108500000Y-100111928D01*
X108326746Y-100128992D01*
X108160150Y-100179528D01*
X108006614Y-100261595D01*
X107872038Y-100372038D01*
X107761595Y-100506614D01*
X107679528Y-100660150D01*
X107628992Y-100826746D01*
X107611928Y-101000000D01*
X107292007Y-101000000D01*
X107227371Y-100843957D01*
X107075799Y-100617114D01*
X106882886Y-100424201D01*
X106656043Y-100272629D01*
X106403989Y-100168225D01*
X106136411Y-100115000D01*
X105863589Y-100115000D01*
X105596011Y-100168225D01*
X105343957Y-100272629D01*
X105117114Y-100424201D01*
X104924201Y-100617114D01*
X104772629Y-100843957D01*
X104668225Y-101096011D01*
X104615000Y-101363589D01*
X104385000Y-101363589D01*
X104331775Y-101096011D01*
X104227371Y-100843957D01*
X104075799Y-100617114D01*
X103882886Y-100424201D01*
X103656043Y-100272629D01*
X103403989Y-100168225D01*
X103136411Y-100115000D01*
X102863589Y-100115000D01*
X102596011Y-100168225D01*
X102343957Y-100272629D01*
X102117114Y-100424201D01*
X101924201Y-100617114D01*
X101772629Y-100843957D01*
X101668225Y-101096011D01*
X101615000Y-101363589D01*
X101385000Y-101363589D01*
X101331775Y-101096011D01*
X101227371Y-100843957D01*
X101075799Y-100617114D01*
X100882886Y-100424201D01*
X100656043Y-100272629D01*
X100403989Y-100168225D01*
X100136411Y-100115000D01*
X99863589Y-100115000D01*
X99596011Y-100168225D01*
X99343957Y-100272629D01*
X99117114Y-100424201D01*
X98924201Y-100617114D01*
X98772629Y-100843957D01*
X98668225Y-101096011D01*
X98615000Y-101363589D01*
X98380133Y-101363589D01*
X98348965Y-101157762D01*
X98256277Y-100901168D01*
X98195860Y-100788137D01*
X97956993Y-100722612D01*
X97179605Y-101500000D01*
X96820395Y-101500000D01*
X96043007Y-100722612D01*
X95804140Y-100788137D01*
X95688240Y-101035116D01*
X95622750Y-101299960D01*
X95610188Y-101572492D01*
X95385000Y-101572492D01*
X95385000Y-101363589D01*
X95331775Y-101096011D01*
X95227371Y-100843957D01*
X95075799Y-100617114D01*
X95001692Y-100543007D01*
X96222612Y-100543007D01*
X97000000Y-101320395D01*
X97777388Y-100543007D01*
X97711863Y-100304140D01*
X97464884Y-100188240D01*
X97200040Y-100122750D01*
X96927508Y-100110188D01*
X96657762Y-100151035D01*
X96401168Y-100243723D01*
X96288137Y-100304140D01*
X96222612Y-100543007D01*
X95001692Y-100543007D01*
X94882886Y-100424201D01*
X94656043Y-100272629D01*
X94403989Y-100168225D01*
X94136411Y-100115000D01*
X93863589Y-100115000D01*
X93596011Y-100168225D01*
X93343957Y-100272629D01*
X93117114Y-100424201D01*
X92924201Y-100617114D01*
X92772629Y-100843957D01*
X92668225Y-101096011D01*
X92615000Y-101363589D01*
X92385000Y-101363589D01*
X92331775Y-101096011D01*
X92227371Y-100843957D01*
X92075799Y-100617114D01*
X91882886Y-100424201D01*
X91656043Y-100272629D01*
X91403989Y-100168225D01*
X91136411Y-100115000D01*
X90863589Y-100115000D01*
X90596011Y-100168225D01*
X90343957Y-100272629D01*
X90117114Y-100424201D01*
X89924201Y-100617114D01*
X89772629Y-100843957D01*
X89668225Y-101096011D01*
X89615000Y-101363589D01*
X68071168Y-101363589D01*
X64155791Y-97448212D01*
X86865000Y-97448212D01*
X86865000Y-97671788D01*
X86908617Y-97891067D01*
X86994176Y-98097624D01*
X87118388Y-98283520D01*
X87276480Y-98441612D01*
X87462376Y-98565824D01*
X87668933Y-98651383D01*
X87888212Y-98695000D01*
X88111788Y-98695000D01*
X88331067Y-98651383D01*
X88537624Y-98565824D01*
X88723520Y-98441612D01*
X88801543Y-98363589D01*
X89615000Y-98363589D01*
X89615000Y-98636411D01*
X89668225Y-98903989D01*
X89772629Y-99156043D01*
X89924201Y-99382886D01*
X90117114Y-99575799D01*
X90343957Y-99727371D01*
X90596011Y-99831775D01*
X90863589Y-99885000D01*
X91136411Y-99885000D01*
X91403989Y-99831775D01*
X91656043Y-99727371D01*
X91882886Y-99575799D01*
X92075799Y-99382886D01*
X92227371Y-99156043D01*
X92331775Y-98903989D01*
X92385000Y-98636411D01*
X92385000Y-98363589D01*
X92615000Y-98363589D01*
X92615000Y-98636411D01*
X92668225Y-98903989D01*
X92772629Y-99156043D01*
X92924201Y-99382886D01*
X93117114Y-99575799D01*
X93343957Y-99727371D01*
X93596011Y-99831775D01*
X93863589Y-99885000D01*
X94136411Y-99885000D01*
X94403989Y-99831775D01*
X94656043Y-99727371D01*
X94882886Y-99575799D01*
X95075799Y-99382886D01*
X95227371Y-99156043D01*
X95331775Y-98903989D01*
X95385000Y-98636411D01*
X95385000Y-98363589D01*
X95615000Y-98363589D01*
X95615000Y-98636411D01*
X95668225Y-98903989D01*
X95772629Y-99156043D01*
X95924201Y-99382886D01*
X96117114Y-99575799D01*
X96343957Y-99727371D01*
X96596011Y-99831775D01*
X96863589Y-99885000D01*
X97136411Y-99885000D01*
X97403989Y-99831775D01*
X97656043Y-99727371D01*
X97882886Y-99575799D01*
X98075799Y-99382886D01*
X98227371Y-99156043D01*
X98331775Y-98903989D01*
X98385000Y-98636411D01*
X98385000Y-98363589D01*
X98615000Y-98363589D01*
X98615000Y-98636411D01*
X98668225Y-98903989D01*
X98772629Y-99156043D01*
X98924201Y-99382886D01*
X99117114Y-99575799D01*
X99343957Y-99727371D01*
X99596011Y-99831775D01*
X99863589Y-99885000D01*
X100136411Y-99885000D01*
X100403989Y-99831775D01*
X100656043Y-99727371D01*
X100882886Y-99575799D01*
X101075799Y-99382886D01*
X101227371Y-99156043D01*
X101331775Y-98903989D01*
X101385000Y-98636411D01*
X101385000Y-98363589D01*
X101615000Y-98363589D01*
X101615000Y-98636411D01*
X101668225Y-98903989D01*
X101772629Y-99156043D01*
X101924201Y-99382886D01*
X102117114Y-99575799D01*
X102343957Y-99727371D01*
X102596011Y-99831775D01*
X102863589Y-99885000D01*
X103136411Y-99885000D01*
X103403989Y-99831775D01*
X103656043Y-99727371D01*
X103882886Y-99575799D01*
X104075799Y-99382886D01*
X104227371Y-99156043D01*
X104331775Y-98903989D01*
X104385000Y-98636411D01*
X104385000Y-98363589D01*
X104615000Y-98363589D01*
X104615000Y-98636411D01*
X104668225Y-98903989D01*
X104772629Y-99156043D01*
X104924201Y-99382886D01*
X105117114Y-99575799D01*
X105343957Y-99727371D01*
X105596011Y-99831775D01*
X105863589Y-99885000D01*
X106136411Y-99885000D01*
X106403989Y-99831775D01*
X106656043Y-99727371D01*
X106882886Y-99575799D01*
X107075799Y-99382886D01*
X107227371Y-99156043D01*
X107331775Y-98903989D01*
X107385000Y-98636411D01*
X107385000Y-98363589D01*
X107615000Y-98363589D01*
X107615000Y-98636411D01*
X107668225Y-98903989D01*
X107772629Y-99156043D01*
X107924201Y-99382886D01*
X108117114Y-99575799D01*
X108343957Y-99727371D01*
X108596011Y-99831775D01*
X108863589Y-99885000D01*
X109136411Y-99885000D01*
X109403989Y-99831775D01*
X109656043Y-99727371D01*
X109882886Y-99575799D01*
X110075799Y-99382886D01*
X110227371Y-99156043D01*
X110331775Y-98903989D01*
X110385000Y-98636411D01*
X110385000Y-98363589D01*
X110331775Y-98096011D01*
X110227371Y-97843957D01*
X110075799Y-97617114D01*
X109906897Y-97448212D01*
X110865000Y-97448212D01*
X110865000Y-97671788D01*
X110908617Y-97891067D01*
X110994176Y-98097624D01*
X111118388Y-98283520D01*
X111276480Y-98441612D01*
X111462376Y-98565824D01*
X111668933Y-98651383D01*
X111888212Y-98695000D01*
X112111788Y-98695000D01*
X112331067Y-98651383D01*
X112537624Y-98565824D01*
X112723520Y-98441612D01*
X112881612Y-98283520D01*
X113005824Y-98097624D01*
X113091383Y-97891067D01*
X113135000Y-97671788D01*
X113135000Y-97448212D01*
X113091383Y-97228933D01*
X113048333Y-97125000D01*
X129899428Y-97125000D01*
X129911688Y-97249482D01*
X129947998Y-97369180D01*
X130006963Y-97479494D01*
X130086315Y-97576185D01*
X130183006Y-97655537D01*
X130293320Y-97714502D01*
X130413018Y-97750812D01*
X130537500Y-97763072D01*
X130839250Y-97760000D01*
X130998000Y-97601250D01*
X130998000Y-96527000D01*
X130061250Y-96527000D01*
X129902500Y-96685750D01*
X129899428Y-97125000D01*
X113048333Y-97125000D01*
X113005824Y-97022376D01*
X112881612Y-96836480D01*
X112723520Y-96678388D01*
X112537624Y-96554176D01*
X112331067Y-96468617D01*
X112111788Y-96425000D01*
X111888212Y-96425000D01*
X111668933Y-96468617D01*
X111462376Y-96554176D01*
X111276480Y-96678388D01*
X111118388Y-96836480D01*
X110994176Y-97022376D01*
X110908617Y-97228933D01*
X110865000Y-97448212D01*
X109906897Y-97448212D01*
X109882886Y-97424201D01*
X109656043Y-97272629D01*
X109403989Y-97168225D01*
X109136411Y-97115000D01*
X108863589Y-97115000D01*
X108596011Y-97168225D01*
X108343957Y-97272629D01*
X108117114Y-97424201D01*
X107924201Y-97617114D01*
X107772629Y-97843957D01*
X107668225Y-98096011D01*
X107615000Y-98363589D01*
X107385000Y-98363589D01*
X107331775Y-98096011D01*
X107227371Y-97843957D01*
X107075799Y-97617114D01*
X106882886Y-97424201D01*
X106656043Y-97272629D01*
X106403989Y-97168225D01*
X106136411Y-97115000D01*
X105863589Y-97115000D01*
X105596011Y-97168225D01*
X105343957Y-97272629D01*
X105117114Y-97424201D01*
X104924201Y-97617114D01*
X104772629Y-97843957D01*
X104668225Y-98096011D01*
X104615000Y-98363589D01*
X104385000Y-98363589D01*
X104331775Y-98096011D01*
X104227371Y-97843957D01*
X104075799Y-97617114D01*
X103882886Y-97424201D01*
X103656043Y-97272629D01*
X103403989Y-97168225D01*
X103136411Y-97115000D01*
X102863589Y-97115000D01*
X102596011Y-97168225D01*
X102343957Y-97272629D01*
X102117114Y-97424201D01*
X101924201Y-97617114D01*
X101772629Y-97843957D01*
X101668225Y-98096011D01*
X101615000Y-98363589D01*
X101385000Y-98363589D01*
X101331775Y-98096011D01*
X101227371Y-97843957D01*
X101075799Y-97617114D01*
X100882886Y-97424201D01*
X100656043Y-97272629D01*
X100403989Y-97168225D01*
X100136411Y-97115000D01*
X99863589Y-97115000D01*
X99596011Y-97168225D01*
X99343957Y-97272629D01*
X99117114Y-97424201D01*
X98924201Y-97617114D01*
X98772629Y-97843957D01*
X98668225Y-98096011D01*
X98615000Y-98363589D01*
X98385000Y-98363589D01*
X98331775Y-98096011D01*
X98227371Y-97843957D01*
X98075799Y-97617114D01*
X97882886Y-97424201D01*
X97656043Y-97272629D01*
X97403989Y-97168225D01*
X97136411Y-97115000D01*
X96863589Y-97115000D01*
X96596011Y-97168225D01*
X96343957Y-97272629D01*
X96117114Y-97424201D01*
X95924201Y-97617114D01*
X95772629Y-97843957D01*
X95668225Y-98096011D01*
X95615000Y-98363589D01*
X95385000Y-98363589D01*
X95331775Y-98096011D01*
X95227371Y-97843957D01*
X95075799Y-97617114D01*
X94882886Y-97424201D01*
X94656043Y-97272629D01*
X94403989Y-97168225D01*
X94136411Y-97115000D01*
X93863589Y-97115000D01*
X93596011Y-97168225D01*
X93343957Y-97272629D01*
X93117114Y-97424201D01*
X92924201Y-97617114D01*
X92772629Y-97843957D01*
X92668225Y-98096011D01*
X92615000Y-98363589D01*
X92385000Y-98363589D01*
X92331775Y-98096011D01*
X92227371Y-97843957D01*
X92075799Y-97617114D01*
X91882886Y-97424201D01*
X91656043Y-97272629D01*
X91403989Y-97168225D01*
X91136411Y-97115000D01*
X90863589Y-97115000D01*
X90596011Y-97168225D01*
X90343957Y-97272629D01*
X90117114Y-97424201D01*
X89924201Y-97617114D01*
X89772629Y-97843957D01*
X89668225Y-98096011D01*
X89615000Y-98363589D01*
X88801543Y-98363589D01*
X88881612Y-98283520D01*
X89005824Y-98097624D01*
X89091383Y-97891067D01*
X89135000Y-97671788D01*
X89135000Y-97448212D01*
X89091383Y-97228933D01*
X89005824Y-97022376D01*
X88881612Y-96836480D01*
X88723520Y-96678388D01*
X88537624Y-96554176D01*
X88331067Y-96468617D01*
X88111788Y-96425000D01*
X87888212Y-96425000D01*
X87668933Y-96468617D01*
X87462376Y-96554176D01*
X87276480Y-96678388D01*
X87118388Y-96836480D01*
X86994176Y-97022376D01*
X86908617Y-97228933D01*
X86865000Y-97448212D01*
X64155791Y-97448212D01*
X62382579Y-95675000D01*
X129899428Y-95675000D01*
X129902500Y-96114250D01*
X130061250Y-96273000D01*
X130998000Y-96273000D01*
X130998000Y-95198750D01*
X130839250Y-95040000D01*
X130537500Y-95036928D01*
X130413018Y-95049188D01*
X130293320Y-95085498D01*
X130183006Y-95144463D01*
X130086315Y-95223815D01*
X130006963Y-95320506D01*
X129947998Y-95430820D01*
X129911688Y-95550518D01*
X129899428Y-95675000D01*
X62382579Y-95675000D01*
X62362534Y-95654956D01*
X62334817Y-95621183D01*
X62200059Y-95510589D01*
X62046313Y-95428411D01*
X61879490Y-95377805D01*
X61749477Y-95365000D01*
X61749469Y-95365000D01*
X61706000Y-95360719D01*
X61662531Y-95365000D01*
X56562110Y-95365000D01*
X56545472Y-95310150D01*
X56463405Y-95156614D01*
X56352962Y-95022038D01*
X56218386Y-94911595D01*
X56064850Y-94829528D01*
X55898254Y-94778992D01*
X55725000Y-94761928D01*
X54275000Y-94761928D01*
X54101746Y-94778992D01*
X53935150Y-94829528D01*
X53781614Y-94911595D01*
X53647038Y-95022038D01*
X53536595Y-95156614D01*
X53454528Y-95310150D01*
X53403992Y-95476746D01*
X53386928Y-95650000D01*
X53386928Y-96850000D01*
X53403992Y-97023254D01*
X53454528Y-97189850D01*
X53536595Y-97343386D01*
X53647038Y-97477962D01*
X53781614Y-97588405D01*
X53883337Y-97642777D01*
X53819866Y-97694866D01*
X53634294Y-97920986D01*
X53496401Y-98178966D01*
X53411487Y-98458889D01*
X53382815Y-98750000D01*
X39762035Y-98750000D01*
X39690468Y-98518806D01*
X39660000Y-98228921D01*
X39660000Y-90887050D01*
X61015000Y-90887050D01*
X61015000Y-91332949D01*
X61036487Y-91551110D01*
X61121401Y-91831033D01*
X61259294Y-92089013D01*
X61444866Y-92315134D01*
X61670986Y-92500706D01*
X61928966Y-92638599D01*
X62208889Y-92723513D01*
X62500000Y-92752185D01*
X62791110Y-92723513D01*
X63071033Y-92638599D01*
X63329013Y-92500706D01*
X63555134Y-92315134D01*
X63607223Y-92251663D01*
X63661595Y-92353386D01*
X63772038Y-92487962D01*
X63906614Y-92598405D01*
X64060150Y-92680472D01*
X64226746Y-92731008D01*
X64400000Y-92748072D01*
X65600000Y-92748072D01*
X65773254Y-92731008D01*
X65939850Y-92680472D01*
X66093386Y-92598405D01*
X66227962Y-92487962D01*
X66338405Y-92353386D01*
X66420472Y-92199850D01*
X66471008Y-92033254D01*
X66488072Y-91860000D01*
X66488072Y-90887050D01*
X70515000Y-90887050D01*
X70515000Y-91332949D01*
X70536487Y-91551110D01*
X70621401Y-91831033D01*
X70759294Y-92089013D01*
X70944866Y-92315134D01*
X71170986Y-92500706D01*
X71428966Y-92638599D01*
X71708889Y-92723513D01*
X72000000Y-92752185D01*
X72291110Y-92723513D01*
X72571033Y-92638599D01*
X72829013Y-92500706D01*
X73055134Y-92315134D01*
X73107223Y-92251663D01*
X73161595Y-92353386D01*
X73272038Y-92487962D01*
X73406614Y-92598405D01*
X73560150Y-92680472D01*
X73726746Y-92731008D01*
X73900000Y-92748072D01*
X75100000Y-92748072D01*
X75273254Y-92731008D01*
X75439850Y-92680472D01*
X75593386Y-92598405D01*
X75727962Y-92487962D01*
X75838405Y-92353386D01*
X75920472Y-92199850D01*
X75971008Y-92033254D01*
X75988072Y-91860000D01*
X75988072Y-90887050D01*
X80015000Y-90887050D01*
X80015000Y-91332949D01*
X80036487Y-91551110D01*
X80121401Y-91831033D01*
X80259294Y-92089013D01*
X80444866Y-92315134D01*
X80670986Y-92500706D01*
X80928966Y-92638599D01*
X81208889Y-92723513D01*
X81500000Y-92752185D01*
X81791110Y-92723513D01*
X82071033Y-92638599D01*
X82329013Y-92500706D01*
X82555134Y-92315134D01*
X82607223Y-92251663D01*
X82661595Y-92353386D01*
X82772038Y-92487962D01*
X82906614Y-92598405D01*
X83060150Y-92680472D01*
X83226746Y-92731008D01*
X83400000Y-92748072D01*
X84600000Y-92748072D01*
X84773254Y-92731008D01*
X84939850Y-92680472D01*
X85093386Y-92598405D01*
X85227962Y-92487962D01*
X85338405Y-92353386D01*
X85420472Y-92199850D01*
X85471008Y-92033254D01*
X85488072Y-91860000D01*
X85488072Y-90360000D01*
X85471008Y-90186746D01*
X85420472Y-90020150D01*
X85338405Y-89866614D01*
X85227962Y-89732038D01*
X85093386Y-89621595D01*
X84939850Y-89539528D01*
X84773254Y-89488992D01*
X84600000Y-89471928D01*
X83400000Y-89471928D01*
X83226746Y-89488992D01*
X83060150Y-89539528D01*
X82906614Y-89621595D01*
X82772038Y-89732038D01*
X82661595Y-89866614D01*
X82607223Y-89968337D01*
X82555134Y-89904866D01*
X82329014Y-89719294D01*
X82071034Y-89581401D01*
X81791111Y-89496487D01*
X81500000Y-89467815D01*
X81208890Y-89496487D01*
X80928967Y-89581401D01*
X80670987Y-89719294D01*
X80444866Y-89904866D01*
X80259294Y-90130986D01*
X80121401Y-90388966D01*
X80036487Y-90668889D01*
X80015000Y-90887050D01*
X75988072Y-90887050D01*
X75988072Y-90360000D01*
X75971008Y-90186746D01*
X75920472Y-90020150D01*
X75838405Y-89866614D01*
X75727962Y-89732038D01*
X75593386Y-89621595D01*
X75439850Y-89539528D01*
X75273254Y-89488992D01*
X75100000Y-89471928D01*
X73900000Y-89471928D01*
X73726746Y-89488992D01*
X73560150Y-89539528D01*
X73406614Y-89621595D01*
X73272038Y-89732038D01*
X73161595Y-89866614D01*
X73107223Y-89968337D01*
X73055134Y-89904866D01*
X72829014Y-89719294D01*
X72571034Y-89581401D01*
X72291111Y-89496487D01*
X72000000Y-89467815D01*
X71708890Y-89496487D01*
X71428967Y-89581401D01*
X71170987Y-89719294D01*
X70944866Y-89904866D01*
X70759294Y-90130986D01*
X70621401Y-90388966D01*
X70536487Y-90668889D01*
X70515000Y-90887050D01*
X66488072Y-90887050D01*
X66488072Y-90360000D01*
X66471008Y-90186746D01*
X66420472Y-90020150D01*
X66338405Y-89866614D01*
X66227962Y-89732038D01*
X66093386Y-89621595D01*
X65939850Y-89539528D01*
X65773254Y-89488992D01*
X65600000Y-89471928D01*
X64400000Y-89471928D01*
X64226746Y-89488992D01*
X64060150Y-89539528D01*
X63906614Y-89621595D01*
X63772038Y-89732038D01*
X63661595Y-89866614D01*
X63607223Y-89968337D01*
X63555134Y-89904866D01*
X63329014Y-89719294D01*
X63071034Y-89581401D01*
X62791111Y-89496487D01*
X62500000Y-89467815D01*
X62208890Y-89496487D01*
X61928967Y-89581401D01*
X61670987Y-89719294D01*
X61444866Y-89904866D01*
X61259294Y-90130986D01*
X61121401Y-90388966D01*
X61036487Y-90668889D01*
X61015000Y-90887050D01*
X39660000Y-90887050D01*
X39660000Y-85967582D01*
X93840000Y-85967582D01*
X93840001Y-88032419D01*
X93843247Y-88065377D01*
X93843247Y-88078367D01*
X93844210Y-88087532D01*
X93865965Y-88281481D01*
X93878397Y-88339966D01*
X93890022Y-88398676D01*
X93892747Y-88407479D01*
X93951760Y-88593509D01*
X93975338Y-88648519D01*
X93998120Y-88703794D01*
X94002503Y-88711900D01*
X94096525Y-88882925D01*
X94130308Y-88932264D01*
X94163423Y-88982106D01*
X94169297Y-88989206D01*
X94294747Y-89138712D01*
X94337477Y-89180557D01*
X94379638Y-89223013D01*
X94386780Y-89228837D01*
X94538879Y-89351128D01*
X94588941Y-89383887D01*
X94638523Y-89417331D01*
X94646660Y-89421657D01*
X94646663Y-89421659D01*
X94646667Y-89421660D01*
X94819615Y-89512077D01*
X94875053Y-89534475D01*
X94930228Y-89557669D01*
X94939050Y-89560332D01*
X95126275Y-89615435D01*
X95184983Y-89626633D01*
X95243628Y-89638672D01*
X95252799Y-89639570D01*
X95447161Y-89657259D01*
X95506943Y-89656842D01*
X95566801Y-89657260D01*
X95575972Y-89656360D01*
X95770069Y-89635959D01*
X95828658Y-89623932D01*
X95887423Y-89612723D01*
X95896245Y-89610059D01*
X96082683Y-89552347D01*
X96137838Y-89529162D01*
X96193291Y-89506758D01*
X96201427Y-89502432D01*
X96373104Y-89409607D01*
X96422699Y-89376154D01*
X96472753Y-89343400D01*
X96479894Y-89337576D01*
X96630272Y-89213172D01*
X96672411Y-89170737D01*
X96715161Y-89128874D01*
X96721034Y-89121773D01*
X96844384Y-88970531D01*
X96877477Y-88920723D01*
X96911284Y-88871349D01*
X96915667Y-88863243D01*
X97007292Y-88690920D01*
X97030090Y-88635608D01*
X97053652Y-88580634D01*
X97056377Y-88571831D01*
X97112786Y-88384994D01*
X97124405Y-88326314D01*
X97136842Y-88267804D01*
X97137805Y-88258639D01*
X97156850Y-88064406D01*
X97156850Y-88064402D01*
X97160000Y-88032419D01*
X97160000Y-85967581D01*
X97156753Y-85934613D01*
X97156753Y-85921633D01*
X97155790Y-85912468D01*
X97134035Y-85718518D01*
X97121600Y-85660019D01*
X97109978Y-85601325D01*
X97107253Y-85592522D01*
X97048240Y-85406491D01*
X97024674Y-85351509D01*
X97001880Y-85296206D01*
X96997497Y-85288100D01*
X96903475Y-85117075D01*
X96869702Y-85067752D01*
X96836577Y-85017894D01*
X96830703Y-85010794D01*
X96705253Y-84861288D01*
X96662523Y-84819443D01*
X96620362Y-84776987D01*
X96613220Y-84771163D01*
X96461120Y-84648872D01*
X96411061Y-84616114D01*
X96361477Y-84582669D01*
X96353340Y-84578343D01*
X96353337Y-84578341D01*
X96353333Y-84578340D01*
X96180384Y-84487923D01*
X96124972Y-84465535D01*
X96069772Y-84442331D01*
X96060950Y-84439668D01*
X95873724Y-84384565D01*
X95814986Y-84373360D01*
X95756372Y-84361328D01*
X95747200Y-84360429D01*
X95552839Y-84342741D01*
X95493057Y-84343158D01*
X95433199Y-84342740D01*
X95424028Y-84343640D01*
X95229931Y-84364041D01*
X95171348Y-84376066D01*
X95112577Y-84387277D01*
X95103755Y-84389941D01*
X94917317Y-84447653D01*
X94862162Y-84470838D01*
X94806709Y-84493242D01*
X94798573Y-84497568D01*
X94626896Y-84590393D01*
X94577278Y-84623861D01*
X94527247Y-84656600D01*
X94520106Y-84662424D01*
X94369728Y-84786828D01*
X94327589Y-84829263D01*
X94284839Y-84871126D01*
X94278966Y-84878227D01*
X94155616Y-85029469D01*
X94122534Y-85079262D01*
X94088716Y-85128651D01*
X94084333Y-85136757D01*
X93992708Y-85309079D01*
X93969909Y-85364394D01*
X93946348Y-85419366D01*
X93943623Y-85428169D01*
X93887214Y-85615005D01*
X93875594Y-85673693D01*
X93863158Y-85732196D01*
X93862195Y-85741361D01*
X93843150Y-85935595D01*
X93840000Y-85967582D01*
X39660000Y-85967582D01*
X39660000Y-83532279D01*
X39688625Y-83240341D01*
X39764035Y-82990571D01*
X39886522Y-82760208D01*
X40051422Y-82558020D01*
X40252450Y-82391714D01*
X40481954Y-82267622D01*
X40731195Y-82190469D01*
X41021088Y-82160000D01*
X97340000Y-82160000D01*
X97340001Y-90032419D01*
G37*
%TD.AperFunction*%
%TD*%
M02*
