%TF.GenerationSoftware,KiCad,Pcbnew,(5.1.9)-1*%
%TF.CreationDate,2021-04-21T16:23:38-04:00*%
%TF.ProjectId,V0-UmbilicalBoard,56302d55-6d62-4696-9c69-63616c426f61,rev?*%
%TF.SameCoordinates,Original*%
%TF.FileFunction,Legend,Top*%
%TF.FilePolarity,Positive*%
%FSLAX46Y46*%
G04 Gerber Fmt 4.6, Leading zero omitted, Abs format (unit mm)*
G04 Created by KiCad (PCBNEW (5.1.9)-1) date 2021-04-21 16:23:38*
%MOMM*%
%LPD*%
G01*
G04 APERTURE LIST*
%ADD10C,0.120000*%
%ADD11C,0.150000*%
G04 APERTURE END LIST*
D10*
%TO.C,J1*%
X87565000Y-104080000D02*
X87565000Y-98320000D01*
X88985000Y-104080000D02*
X87565000Y-104080000D01*
X88985000Y-103580000D02*
X88985000Y-104080000D01*
X111015000Y-103580000D02*
X88985000Y-103580000D01*
X111015000Y-104080000D02*
X111015000Y-103580000D01*
X112435000Y-104080000D02*
X111015000Y-104080000D01*
X112435000Y-98320000D02*
X112435000Y-104080000D01*
X87565000Y-96490000D02*
X87565000Y-96800000D01*
X112435000Y-96490000D02*
X87565000Y-96490000D01*
X112435000Y-96800000D02*
X112435000Y-96490000D01*
%TO.C,TH1*%
X99772936Y-113435000D02*
X100227064Y-113435000D01*
X99772936Y-111965000D02*
X100227064Y-111965000D01*
%TO.C,J1*%
D11*
X99666666Y-104622380D02*
X99666666Y-105336666D01*
X99619047Y-105479523D01*
X99523809Y-105574761D01*
X99380952Y-105622380D01*
X99285714Y-105622380D01*
X100666666Y-105622380D02*
X100095238Y-105622380D01*
X100380952Y-105622380D02*
X100380952Y-104622380D01*
X100285714Y-104765238D01*
X100190476Y-104860476D01*
X100095238Y-104908095D01*
%TO.C,TH1*%
X98714285Y-110502380D02*
X99285714Y-110502380D01*
X99000000Y-111502380D02*
X99000000Y-110502380D01*
X99619047Y-111502380D02*
X99619047Y-110502380D01*
X99619047Y-110978571D02*
X100190476Y-110978571D01*
X100190476Y-111502380D02*
X100190476Y-110502380D01*
X101190476Y-111502380D02*
X100619047Y-111502380D01*
X100904761Y-111502380D02*
X100904761Y-110502380D01*
X100809523Y-110645238D01*
X100714285Y-110740476D01*
X100619047Y-110788095D01*
%TD*%
M02*
